<!-- Generated by IcoMoon.io -->
<svg version="1.1" xmlns="http://www.w3.org/2000/svg" width="32" height="32" viewBox="0 0 32 32">
<title>_1BROKER</title>
<path d="M32 3.951c0 9.467 0 18.681 0 27.965-9.284 0-18.526 0-27.951 0 1.256-1.058 1.975-2.455 4.049-2.399 6.787 0.169 13.573 0.042 20.36 0.085 0.931 0 1.157-0.268 1.157-1.171-0.042-6.942 0-13.87-0.042-20.811 0-0.889 0.212-1.552 0.903-2.13 0.494-0.409 0.931-0.931 1.524-1.538z"></path>
<path d="M0 27.824c0-9.298 0-18.526 0-27.824 9.298 0 18.54 0 27.753 0-0.649 0.677-1.256 1.411-1.975 2.046-0.24 0.212-0.734 0.198-1.115 0.198-6.97 0.014-13.94 0.014-20.91 0.014-1.369 0-1.369 0-1.369 1.383 0 6.914-0.014 13.813 0.014 20.727 0 0.818-0.169 1.453-0.818 1.975-0.536 0.423-1.016 0.945-1.58 1.481z"></path>
<path d="M15.605 10.949c-0.945 0.296-1.679 0.522-2.427 0.762-0.367-1.651-0.325-1.735 1.185-2.272 0.988-0.353 1.989-0.705 3.062-1.086 0 5.122 0 10.13 0 15.21-0.593 0-1.143 0-1.834 0 0.014-4.12 0.014-8.254 0.014-12.614z"></path>
</svg>
