<!-- Generated by IcoMoon.io -->
<svg version="1.1" xmlns="http://www.w3.org/2000/svg" width="32" height="32" viewBox="0 0 32 32">
<title>_1BTCXE</title>
<path d="M2.032 19.414c-0.042 0.198-0.071 0.339-0.113 0.536-0.578 0-1.171 0-1.764 0-0.169-0.494-0.212-7.704-0.042-8.734 0.564-0.113 1.157-0.042 1.834-0.042 0 1.016 0 1.975 0 2.963 0.127-0.042 0.198-0.042 0.226-0.085 1.397-1.411 4.021-0.663 4.586 1.594 0.198 0.79 0.169 1.58-0.056 2.37-0.536 1.891-2.878 2.765-4.402 1.552-0.071-0.042-0.141-0.071-0.268-0.155zM4.966 16.72c-0.014-1.002-0.72-1.75-1.608-1.693-0.748 0.042-1.312 0.621-1.397 1.411-0.099 1.016 0.325 1.792 1.072 1.989 0.071 0.014 0.141 0.028 0.226 0.028 1.002 0.085 1.721-0.649 1.707-1.735z"></path>
<path d="M17.594 17.877c0.353 0.339 0.705 0.691 1.044 1.030-0.861 1.157-2.342 1.552-3.795 1.058-1.34-0.451-2.173-1.679-2.229-3.16-0.056-1.51 0.945-2.808 2.215-3.245 1.369-0.48 3.203-0.056 3.767 0.988-0.183 0.198-0.381 0.423-0.578 0.635-0.169 0.183-0.353 0.353-0.508 0.508-1.171-0.804-1.919-0.861-2.526-0.212-0.593 0.635-0.635 1.75-0.085 2.427 0.593 0.734 1.354 0.72 2.695-0.028z"></path>
<path d="M10.427 13.474c0.508 0 0.917 0 1.397 0 0 0.564 0 1.072 0 1.665-0.466 0-0.903 0-1.425 0-0.056 1.002-0.042 1.919-0.014 2.836 0.014 0.31 0.212 0.451 0.494 0.437 0.268-0.014 0.536-0.071 0.861-0.113 0.028 0.212 0.056 0.395 0.056 0.593 0.014 0.945-0.085 1.072-1.016 1.213-0.24 0.042-0.508 0.042-0.748 0.014-1.002-0.085-1.566-0.635-1.623-1.637-0.042-0.804-0.014-1.608-0.028-2.413 0-0.268 0-0.55 0-0.861-0.254-0.042-0.466-0.071-0.72-0.113 0-0.536 0-1.030 0-1.552 0.226-0.042 0.423-0.099 0.72-0.155 0-0.48 0-0.974 0-1.51 0.663 0 1.256 0 1.905 0 0.085 0.508 0.113 1.002 0.141 1.594z"></path>
<path d="M32 17.284c-1.693 0-3.273 0-4.854 0 0.099 1.072 0.72 1.792 1.623 1.947 0.931 0.155 1.735-0.127 2.413-0.818 0.226 0.198 0.409 0.367 0.593 0.522-0.734 1.058-2.004 1.496-3.358 1.185-1.157-0.268-2.173-1.312-2.314-2.511-0.071-0.593-0.071-1.227 0.085-1.792 0.409-1.538 1.75-2.384 3.316-2.201 1.34 0.155 2.384 1.354 2.483 2.892 0.028 0.226 0.014 0.437 0.014 0.776zM27.146 16.437c1.242 0 2.483 0 3.725 0-0.042-1.157-0.762-1.961-1.764-1.975-1.016-0.028-1.834 0.79-1.961 1.975z"></path>
<path d="M19.965 19.88c0.649-0.861 1.27-1.679 1.989-2.624-2.145 0-4.148 0-6.109 0-0.226-0.762-0.169-0.861 0.466-0.861 1.552-0.014 3.104 0 4.67 0 0.268 0 0.536 0 0.959 0-0.691-0.903-1.27-1.679-1.877-2.483 0.494-0.155 0.847-0.169 1.143 0.226 0.663 0.875 1.34 1.75 2.032 2.667-0.099 0.169-0.169 0.353-0.282 0.508-0.55 0.748-1.143 1.467-1.679 2.215-0.339 0.423-0.72 0.536-1.312 0.353z"></path>
<path d="M23.69 16.988c0.79 1.030 1.496 1.961 2.229 2.892-0.889 0.268-1.030 0.226-1.496-0.409-0.423-0.564-0.847-1.115-1.298-1.707 0.155-0.24 0.325-0.451 0.564-0.776z"></path>
<path d="M23.69 16.607c-0.226-0.254-0.381-0.437-0.607-0.677 0.536-0.691 1.044-1.411 1.608-2.046 0.268-0.296 0.691-0.155 1.171-0.056-0.734 0.945-1.439 1.834-2.173 2.78z"></path>
</svg>
