<?xml version="1.0" encoding="utf-8"?>
<!-- Generator: Adobe Illustrator 22.1.0, SVG Export Plug-In . SVG Version: 6.00 Build 0)  -->
<svg version="1.1" id="Layer_1" xmlns="http://www.w3.org/2000/svg" xmlns:xlink="http://www.w3.org/1999/xlink" x="0px" y="0px"
	 viewBox="0 0 226.8 226.8" style="enable-background:new 0 0 226.8 226.8;" xml:space="preserve">
<g>
	<path d="M226.8,51c-1.9,0-3.5,0-5.2,0c-2.4,0-4.8,0-7.2,0c-0.8,0-1.2,0.3-1.1,1.1c0,0.2,0,0.5,0,0.7c0,33.5,0,67,0,100.4
		c0,0.9-0.3,2-0.7,2.8c-6.9,13.1-13.8,26.2-20.7,39.4c-0.5,1-1,1.3-2.2,1.3c-50.8,0-101.7,0-152.5,0c-1.8,0-1.8,0-1.8,1.8
		c0,7.2,0,14.3,0,21.5c0,0.4,0,0.8-0.1,1.6c-0.5-0.6-0.7-0.9-0.9-1.3C23.4,204,12.2,187.6,1,171.3c-0.7-1-1-1.9-1-3.2
		c0-49.3,0-98.7,0-148c0-0.4,0-0.8,0-1.2c0-0.6,0.2-1,0.9-0.9c0.3,0,0.6,0,0.9,0c72.4,0,144.8,0,217.3,0c1.9,0,1.7-0.4,2,1.7
		c1.8,9.9,3.6,19.7,5.4,29.6C226.6,49.8,226.7,50.3,226.8,51z M28.5,104.6c0.7,0,1.2,0,1.7,0c8.3,0,16.6,0,24.9,0
		c1,0,1.4-0.2,1.4-1.3c-0.1-5.5,0-11,0-16.5c0-0.4-0.1-0.7-0.1-1.2c-9.3,0-18.5,0-27.8,0c0-0.5-0.1-0.8-0.1-1.2
		c0-13.1,0-26.2,0-39.3c0-1.1,0.4-1.3,1.4-1.3c7.7,0,15.5,0,23.2,0c0.5,0,0.9,0,1.5,0c-0.1-0.5-0.1-0.9-0.1-1.2
		c-1-5.3-2-10.7-2.9-16c-0.2-1.1-0.6-1.4-1.7-1.4c-13.6,0-27.2,0-40.8,0c-2.1,0-1.8-0.2-1.8,1.8c0,46.3,0,92.7,0,139
		c0,1,0.3,1.9,0.9,2.7c6.5,9.5,13,19,19.5,28.5c0.2,0.3,0.5,0.6,0.7,0.9c0.1,0,0.2,0,0.3-0.1C28.5,167,28.5,135.9,28.5,104.6z
		 M133.3,104.6c-0.2-0.7-0.4-1.2-0.5-1.6c-4.2-11.5-8.3-22.9-12.4-34.4c-0.2-0.7-0.3-1.6,0-2.2c2.2-6.9,4.5-13.7,6.7-20.5
		c0.3-1,0.6-2,0.6-3c0.1-5.4,0-10.8,0-16.2c0-1.1-0.3-1.4-1.4-1.4c-12.5,0-25,0-37.5,0c-1.1,0-1.4,0.3-1.4,1.4c0,25.6,0,51.1,0,76.7
		c0,1,0.3,1.4,1.3,1.3c4.1-0.1,8.2,0,12.3,0c1.7,0,1.7,0,1.7-1.6c0-12,0-23.9,0-35.9c0-7.3,0-14.6,0-21.8c0-1.2,0.4-1.5,1.5-1.4
		c1.8,0.1,3.7,0,5.5,0c0.4,0,0.7,0.1,1.2,0.1c-0.2,0.6-0.3,1.1-0.5,1.6c-2.3,6.9-4.5,13.8-6.8,20.7c-0.2,0.6-0.3,1.4,0,1.9
		c4.6,11.8,9.2,23.6,13.9,35.4c0.3,0.8,0.7,1.1,1.6,1c4.3,0,8.7,0,13,0C132.3,104.6,132.7,104.6,133.3,104.6z M174.4,104.6
		c0-0.3,0.1-0.6,0.1-0.8c0-8.6,0-17.2,0-25.8c0-0.5-0.3-1.1-0.6-1.6c-7.6-10.1-15.3-20.1-22.9-30.2c-0.4-0.6-0.5-1.3-0.9-2.3
		c8.3,0,16.2,0,24.3,0c-0.1-0.5-0.1-0.9-0.2-1.2c-1-5.4-2-10.7-2.9-16.1c-0.2-1.1-0.6-1.3-1.6-1.3c-11.2,0-22.5,0-33.7,0
		c-1.6,0-1.6,0-1.6,1.5c0,8.3,0,16.7,0,25c0,1.2,0.3,2.2,1.1,3.1c7.6,9.8,15.2,19.7,22.8,29.5c0.3,0.4,0.5,0.9,1,1.6
		c-0.8,0-1.3,0-1.8,0c-6.1,0-12.1,0-18.2,0c-1,0-1.3,0.3-1.4,1.2c-0.7,4-1.4,8-2.2,12.1c-0.3,1.7-0.6,3.5-0.9,5.3
		C147.9,104.6,161.1,104.6,174.4,104.6z M180.4,43.9c3,0,5.9,0,8.8,0c2,0,1.8-0.2,1.8,1.8c0,19.2,0,38.4,0,57.6
		c0,1.1,0.3,1.5,1.5,1.4c4.1-0.1,8.2,0,12.3,0c1.6,0,1.6,0,1.6-1.6c0-19.2,0-38.5,0-57.7c0-0.5,0-0.9,0-1.5c4.1,0,8,0,11.9,0
		c0-0.4,0-0.5-0.1-0.7c-1-5.7-2.1-11.4-3.1-17.1c-0.1-0.7-0.4-0.8-1-0.8c-10.9,0-21.9,0-32.8,0c-0.7,0-1,0.2-1,0.9
		c0,5.7,0,11.3,0,17C180.3,43.4,180.3,43.5,180.4,43.9z M79.1,65c0-12.8,0-25.6,0-38.5c0-1-0.3-1.3-1.3-1.3c-4.2,0.1-8.5,0-12.7,0
		c-0.9,0-1.3,0.2-1.3,1.2c0,25.6,0,51.3,0,76.9c0,1,0.3,1.3,1.3,1.3c4.2,0,8.3,0,12.5,0c1.5,0,1.6,0,1.6-1.5
		C79.1,90.4,79.1,77.7,79.1,65z M59.5,146.6c-0.6,0-1-0.1-1.4-0.1c-7.1,0-14.2,0-21.2,0c-1.6,0-1.6,0-1.6,1.5c0,13.3,0,26.5,0,39.8
		c0,1.1,0.3,1.5,1.5,1.5c9.5,0,19,0,28.4,0c1.1,0,1.4-0.4,1.4-1.4c0-6.2,0-12.4,0-18.5c0-0.6-0.1-1.3-0.4-1.8
		c-2.7-5.5-5.4-10.9-8-16.4c-0.2-0.5-0.2-1.3,0-1.8C58.4,148.4,58.9,147.7,59.5,146.6z M138.2,167.8c0,6.7,0,13.4,0,20.2
		c0,1,0.3,1.4,1.3,1.4c9.8,0,19.5,0,29.3,0c1.2,0,1.4-0.4,1.4-1.5c0-13.3,0-26.5,0-39.8c0-1.5,0-1.5-1.6-1.5c-2.9,0-5.9,0-8.8,0
		c-1.5,0-1.5,0-1.5,1.6c0,8.2,0,16.4,0,24.7c0,1.2-0.4,1.6-1.6,1.5c-1.6-0.1-3.2,0-4.8,0c-1.7,0-1.7,0-1.7-1.7c0-8.1,0-16.2,0-24.3
		c0-1.7,0-1.7-1.8-1.7c-2.9,0-5.8,0-8.7,0c-1.1,0-1.5,0.3-1.5,1.5C138.2,154.6,138.2,161.2,138.2,167.8z M133.1,167.9
		c0-6.7,0-13.4,0-20.1c0-1-0.3-1.4-1.3-1.3c-3.1,0.1-6.3,0-9.4,0c-0.9,0-1.2,0.3-1.2,1.2c0,3.5,0,7.1,0,10.6c0,4.8,0,9.5,0,14.3
		c0,1.6,0,1.6-1.5,1.6c-1.6,0-3.1,0-4.7,0c-1.6,0-1.6,0-1.6-1.6c0-8.3,0-16.5,0-24.8c0-1-0.3-1.4-1.3-1.3c-3,0.1-6.1,0-9.1,0
		c-1.6,0-1.6,0-1.6,1.6c0,13.2,0,26.4,0,39.7c0,1.2,0.3,1.6,1.5,1.6c9.6,0,19.3,0,28.9,0c1.2,0,1.5-0.4,1.5-1.6
		C133.1,181.2,133.1,174.5,133.1,167.9z M187,162.1c-0.1-0.7-0.1-1-0.1-1.3c0-4.4-0.1-8.8,0-13.2c0-0.8-0.2-1.1-1-1.1
		c-3.3,0-6.5,0-9.8,0c-0.9,0-1.2,0.3-1.2,1.2c0,13.5,0,26.9,0,40.4c0,0.9,0.3,1.2,1.2,1.2c3,0,6.1-0.1,9.1,0c1.4,0,2.1-0.4,2.7-1.6
		c5.9-11.4,12-22.8,17.9-34.3c0.2-0.4,0.3-0.9,0.4-1.3c0-1.5,0-3,0-4.5c0-0.8-0.3-1.1-1.1-1.1c-3.3,0-6.5,0-9.8,0
		c-0.9,0-1.2,0.3-1.2,1.1c0,0.9,0,1.9-0.4,2.7c-1.9,3.6-3.9,7.2-5.9,10.8C187.6,161.4,187.4,161.6,187,162.1z M50.9,111.2
		C50.9,111.2,50.9,111.2,50.9,111.2c-4.8,0-9.6,0-14.4,0c-1,0-1.3,0.3-1.3,1.3c0,9.5,0,19,0,28.5c0,1.2,0.4,1.4,1.5,1.4
		c7.8,0,15.6,0,23.5,0c0.8,0,1.3-0.3,1.6-1c1.4-2.9,2.9-5.7,4.3-8.6c0.2-0.4,0.3-1,0.3-1.5c0-6.3,0-12.6,0-18.9c0-1-0.3-1.3-1.3-1.3
		C60.5,111.3,55.7,111.2,50.9,111.2z M170.2,126.9c0-4.8,0-9.6,0-14.4c0-0.9-0.2-1.3-1.2-1.3c-9.9,0-19.7,0-29.6,0
		c-0.9,0-1.2,0.3-1.2,1.1c0,9.6,0,19.3,0,28.9c0,0.9,0.3,1.2,1.2,1.2c3,0,6.1,0,9.1,0c1.6,0,1.6,0,1.6-1.6c0-4.4,0-8.7,0-13.1
		c0-1,0.3-1.4,1.4-1.4c1.7,0.1,3.5,0.1,5.2,0c1.2-0.1,1.6,0.3,1.6,1.5c-0.1,4.4,0,8.9,0,13.3c0,0.9,0.3,1.2,1.2,1.2
		c3.2,0,6.4-0.1,9.6,0c1,0,1.3-0.4,1.2-1.3C170.1,136.4,170.2,131.7,170.2,126.9z M117.3,111.2C117.3,111.2,117.3,111.2,117.3,111.2
		c-4.9,0-9.8,0-14.7,0c-0.9,0-1.3,0.2-1.3,1.2c0,9.6,0,19.2,0,28.8c0,1,0.4,1.3,1.3,1.2c3.1,0,6.2-0.1,9.3,0c1.1,0,1.4-0.4,1.4-1.4
		c0-4.4,0-8.7,0-13.1c0-1.5,0-1.5,1.6-1.6c1.6,0,3.2,0.1,4.8,0c1.1-0.1,1.5,0.3,1.5,1.5c0,4.5,0,9,0,13.4c0,0.9,0.3,1.2,1.2,1.2
		c3.2,0,6.4,0,9.7,0c1,0,1.2-0.4,1.2-1.3c0-9.6,0-19.2,0-28.8c0-0.9-0.3-1.2-1.2-1.2C127,111.3,122.2,111.2,117.3,111.2z
		 M190.5,111.2c-4.8,0-9.7,0-14.5,0c-0.8,0-1.2,0.2-1.2,1.1c0,9.6,0,19.3,0,28.9c0,0.9,0.3,1.2,1.2,1.2c3.1,0,6.2,0,9.3,0
		c1.5,0,1.5,0,1.5-1.6c0-4.3,0-8.7-0.1-13c0-1.1,0.3-1.6,1.5-1.5c1.4,0.1,2.9,0.1,4.4,0c1.1-0.1,1.5,0.3,1.5,1.5
		c-0.1,4.4,0,8.9,0,13.3c0,1,0.3,1.3,1.3,1.3c3.1-0.1,6.3-0.1,9.4,0c1.1,0,1.4-0.4,1.4-1.4c0-9.5,0-19,0-28.6c0-1-0.3-1.3-1.3-1.3
		C200.1,111.3,195.3,111.2,190.5,111.2z M97.4,189.2c0-0.3,0-0.4,0-0.6c-0.9-4.5-1.9-9-2.8-13.5c-0.2-0.8-0.7-0.8-1.3-0.8
		c-2.7,0-5.4,0-8.1,0c-1.8,0-1.8,0-1.8-1.8c0-8.2,0-16.4,0-24.5c0-1-0.3-1.4-1.3-1.4c-3.1,0.1-6.1,0.1-9.2,0c-1.1,0-1.5,0.3-1.5,1.5
		c0,13.3,0,26.6,0,39.9c0,1.2,0.4,1.5,1.5,1.4c7.7,0,15.5,0,23.2,0C96.5,189.3,96.9,189.2,97.4,189.2z M83.3,126.8
		c0-4.8,0-9.6,0-14.4c0-0.9-0.2-1.3-1.2-1.2c-3.2,0.1-6.4,0-9.7,0c-0.9,0-1.1,0.3-1.1,1.2c0,9.6,0,19.3,0,28.9
		c0,0.9,0.3,1.2,1.2,1.2c3.1,0,6.3-0.1,9.4,0c1.1,0,1.3-0.4,1.3-1.4C83.3,136.4,83.3,131.6,83.3,126.8z"/>
	<path d="M47.7,161c2.2,4.4,4.4,8.7,6.8,13.2c-2.4,0-4.5,0-6.6,0c-0.2,0-0.5-0.4-0.5-0.6c0-4,0-8.1,0-12.1
		C47.3,161.4,47.5,161.3,47.7,161z"/>
	<path d="M47.4,139.3c-0.1-0.4-0.2-0.7-0.2-1.1c0-3.5,0-7,0-10.5c0-1,0.3-1.4,1.4-1.4c1.9,0.1,3.7,0,6,0c-2.4,4.5-4.6,8.8-6.8,13
		C47.7,139.4,47.5,139.3,47.4,139.3z"/>
</g>
</svg>
