<!-- Generated by IcoMoon.io -->
<svg version="1.1" xmlns="http://www.w3.org/2000/svg" width="32" height="32" viewBox="0 0 32 32">
<title>AAA-FIRST</title>
<path d="M32 7.196c-0.268 0-0.494 0-0.734 0-0.339 0-0.677 0-1.016 0-0.113 0-0.169 0.042-0.155 0.155 0 0.028 0 0.071 0 0.099 0 4.727 0 9.453 0 14.166 0 0.127-0.042 0.282-0.099 0.395-0.974 1.848-1.947 3.697-2.921 5.559-0.071 0.141-0.141 0.183-0.31 0.183-7.168 0-14.349 0-21.517 0-0.254 0-0.254 0-0.254 0.254 0 1.016 0 2.018 0 3.034 0 0.056 0 0.113-0.014 0.226-0.071-0.085-0.099-0.127-0.127-0.183-1.552-2.3-3.132-4.614-4.713-6.914-0.099-0.141-0.141-0.268-0.141-0.451 0-6.956 0-13.926 0-20.882 0-0.056 0-0.113 0-0.169 0-0.085 0.028-0.141 0.127-0.127 0.042 0 0.085 0 0.127 0 10.215 0 20.43 0 30.66 0 0.268 0 0.24-0.056 0.282 0.24 0.254 1.397 0.508 2.78 0.762 4.176 0.014 0.071 0.028 0.141 0.042 0.24zM4.021 14.758c0.099 0 0.169 0 0.24 0 1.171 0 2.342 0 3.513 0 0.141 0 0.198-0.028 0.198-0.183-0.014-0.776 0-1.552 0-2.328 0-0.056-0.014-0.099-0.014-0.169-1.312 0-2.61 0-3.922 0 0-0.071-0.014-0.113-0.014-0.169 0-1.848 0-3.697 0-5.545 0-0.155 0.056-0.183 0.198-0.183 1.086 0 2.187 0 3.273 0 0.071 0 0.127 0 0.212 0-0.014-0.071-0.014-0.127-0.014-0.169-0.141-0.748-0.282-1.51-0.409-2.257-0.028-0.155-0.085-0.198-0.24-0.198-1.919 0-3.838 0-5.757 0-0.296 0-0.254-0.028-0.254 0.254 0 6.533 0 13.079 0 19.612 0 0.141 0.042 0.268 0.127 0.381 0.917 1.34 1.834 2.681 2.751 4.021 0.028 0.042 0.071 0.085 0.099 0.127 0.014 0 0.028 0 0.042-0.014-0.028-4.374-0.028-8.762-0.028-13.178zM18.808 14.758c-0.028-0.099-0.056-0.169-0.071-0.226-0.593-1.623-1.171-3.231-1.75-4.854-0.028-0.099-0.042-0.226 0-0.31 0.31-0.974 0.635-1.933 0.945-2.892 0.042-0.141 0.085-0.282 0.085-0.423 0.014-0.762 0-1.524 0-2.286 0-0.155-0.042-0.198-0.198-0.198-1.764 0-3.527 0-5.291 0-0.155 0-0.198 0.042-0.198 0.198 0 3.612 0 7.21 0 10.822 0 0.141 0.042 0.198 0.183 0.183 0.578-0.014 1.157 0 1.735 0 0.24 0 0.24 0 0.24-0.226 0-1.693 0-3.372 0-5.065 0-1.030 0-2.060 0-3.076 0-0.169 0.056-0.212 0.212-0.198 0.254 0.014 0.522 0 0.776 0 0.056 0 0.099 0.014 0.169 0.014-0.028 0.085-0.042 0.155-0.071 0.226-0.325 0.974-0.635 1.947-0.959 2.921-0.028 0.085-0.042 0.198 0 0.268 0.649 1.665 1.298 3.33 1.961 4.995 0.042 0.113 0.099 0.155 0.226 0.141 0.607 0 1.227 0 1.834 0 0.028-0.014 0.085-0.014 0.169-0.014zM24.607 14.758c0-0.042 0.014-0.085 0.014-0.113 0-1.213 0-2.427 0-3.64 0-0.071-0.042-0.155-0.085-0.226-1.072-1.425-2.159-2.836-3.231-4.261-0.056-0.085-0.071-0.183-0.127-0.325 1.171 0 2.286 0 3.429 0-0.014-0.071-0.014-0.127-0.028-0.169-0.141-0.762-0.282-1.51-0.409-2.272-0.028-0.155-0.085-0.183-0.226-0.183-1.58 0-3.175 0-4.755 0-0.226 0-0.226 0-0.226 0.212 0 1.171 0 2.356 0 3.527 0 0.169 0.042 0.31 0.155 0.437 1.072 1.383 2.145 2.78 3.217 4.162 0.042 0.056 0.071 0.127 0.141 0.226-0.113 0-0.183 0-0.254 0-0.861 0-1.707 0-2.568 0-0.141 0-0.183 0.042-0.198 0.169-0.099 0.564-0.198 1.129-0.31 1.707-0.042 0.24-0.085 0.494-0.127 0.748 1.848 0 3.711 0 5.587 0zM25.453 6.194c0.423 0 0.832 0 1.242 0 0.282 0 0.254-0.028 0.254 0.254 0 2.709 0 5.418 0 8.127 0 0.155 0.042 0.212 0.212 0.198 0.578-0.014 1.157 0 1.735 0 0.226 0 0.226 0 0.226-0.226 0-2.709 0-5.432 0-8.141 0-0.071 0-0.127 0-0.212 0.578 0 1.129 0 1.679 0 0-0.056 0-0.071-0.014-0.099-0.141-0.804-0.296-1.608-0.437-2.413-0.014-0.099-0.056-0.113-0.141-0.113-1.538 0-3.090 0-4.628 0-0.099 0-0.141 0.028-0.141 0.127 0 0.804 0 1.594 0 2.399 0 0.028 0 0.042 0.014 0.099zM11.161 9.171c0-1.806 0-3.612 0-5.432 0-0.141-0.042-0.183-0.183-0.183-0.593 0.014-1.199 0-1.792 0-0.127 0-0.183 0.028-0.183 0.169 0 3.612 0 7.238 0 10.85 0 0.141 0.042 0.183 0.183 0.183 0.593 0 1.171 0 1.764 0 0.212 0 0.226 0 0.226-0.212-0.014-1.792-0.014-3.584-0.014-5.376zM8.395 20.684c-0.085 0-0.141-0.014-0.198-0.014-1.002 0-2.004 0-2.991 0-0.226 0-0.226 0-0.226 0.212 0 1.877 0 3.739 0 5.616 0 0.155 0.042 0.212 0.212 0.212 1.34 0 2.681 0 4.007 0 0.155 0 0.198-0.056 0.198-0.198 0-0.875 0-1.75 0-2.61 0-0.085-0.014-0.183-0.056-0.254-0.381-0.776-0.762-1.538-1.129-2.314-0.028-0.071-0.028-0.183 0-0.254 0.028-0.141 0.099-0.24 0.183-0.395zM19.499 23.675c0 0.945 0 1.891 0 2.85 0 0.141 0.042 0.198 0.183 0.198 1.383 0 2.751 0 4.134 0 0.169 0 0.198-0.056 0.198-0.212 0-1.877 0-3.739 0-5.616 0-0.212 0-0.212-0.226-0.212-0.409 0-0.832 0-1.242 0-0.212 0-0.212 0-0.212 0.226 0 1.157 0 2.314 0 3.485 0 0.169-0.056 0.226-0.226 0.212-0.226-0.014-0.451 0-0.677 0-0.24 0-0.24 0-0.24-0.24 0-1.143 0-2.286 0-3.429 0-0.24 0-0.24-0.254-0.24-0.409 0-0.818 0-1.227 0-0.155 0-0.212 0.042-0.212 0.212 0 0.903 0 1.834 0 2.765zM18.78 23.69c0-0.945 0-1.891 0-2.836 0-0.141-0.042-0.198-0.183-0.183-0.437 0.014-0.889 0-1.326 0-0.127 0-0.169 0.042-0.169 0.169 0 0.494 0 1.002 0 1.496 0 0.677 0 1.34 0 2.018 0 0.226 0 0.226-0.212 0.226-0.226 0-0.437 0-0.663 0s-0.226 0-0.226-0.226c0-1.171 0-2.328 0-3.499 0-0.141-0.042-0.198-0.183-0.183-0.423 0.014-0.861 0-1.284 0-0.226 0-0.226 0-0.226 0.226 0 1.862 0 3.725 0 5.601 0 0.169 0.042 0.226 0.212 0.226 1.354 0 2.723 0 4.078 0 0.169 0 0.212-0.056 0.212-0.226-0.028-0.931-0.028-1.877-0.028-2.808zM26.384 22.871c-0.014-0.099-0.014-0.141-0.014-0.183 0-0.621-0.014-1.242 0-1.862 0-0.113-0.028-0.155-0.141-0.155-0.466 0-0.917 0-1.383 0-0.127 0-0.169 0.042-0.169 0.169 0 1.905 0 3.795 0 5.7 0 0.127 0.042 0.169 0.169 0.169 0.423 0 0.861-0.014 1.284 0 0.198 0 0.296-0.056 0.381-0.226 0.832-1.608 1.693-3.217 2.526-4.84 0.028-0.056 0.042-0.127 0.056-0.183 0-0.212 0-0.423 0-0.635 0-0.113-0.042-0.155-0.155-0.155-0.466 0-0.917 0-1.383 0-0.127 0-0.169 0.042-0.169 0.155 0 0.127 0 0.268-0.056 0.381-0.268 0.508-0.55 1.016-0.832 1.524-0.028 0.042-0.056 0.071-0.113 0.141zM7.182 15.69c0 0 0 0 0 0-0.677 0-1.354 0-2.032 0-0.141 0-0.183 0.042-0.183 0.183 0 1.34 0 2.681 0 4.021 0 0.169 0.056 0.198 0.212 0.198 1.101 0 2.201 0 3.316 0 0.113 0 0.183-0.042 0.226-0.141 0.198-0.409 0.409-0.804 0.607-1.213 0.028-0.056 0.042-0.141 0.042-0.212 0-0.889 0-1.778 0-2.667 0-0.141-0.042-0.183-0.183-0.183-0.649 0.028-1.326 0.014-2.004 0.014zM24.014 17.905c0-0.677 0-1.355 0-2.032 0-0.127-0.028-0.183-0.169-0.183-1.397 0-2.78 0-4.176 0-0.127 0-0.169 0.042-0.169 0.155 0 1.355 0 2.723 0 4.078 0 0.127 0.042 0.169 0.169 0.169 0.423 0 0.861 0 1.284 0 0.226 0 0.226 0 0.226-0.226 0-0.621 0-1.227 0-1.848 0-0.141 0.042-0.198 0.198-0.198 0.24 0.014 0.494 0.014 0.734 0 0.169-0.014 0.226 0.042 0.226 0.212-0.014 0.621 0 1.256 0 1.877 0 0.127 0.042 0.169 0.169 0.169 0.451 0 0.903-0.014 1.355 0 0.141 0 0.183-0.056 0.169-0.183-0.028-0.649-0.014-1.312-0.014-1.989zM16.55 15.69c0 0 0 0 0 0-0.691 0-1.383 0-2.074 0-0.127 0-0.183 0.028-0.183 0.169 0 1.355 0 2.709 0 4.064 0 0.141 0.056 0.183 0.183 0.169 0.437 0 0.875-0.014 1.312 0 0.155 0 0.198-0.056 0.198-0.198 0-0.621 0-1.227 0-1.848 0-0.212 0-0.212 0.226-0.226 0.226 0 0.451 0.014 0.677 0 0.155-0.014 0.212 0.042 0.212 0.212 0 0.635 0 1.27 0 1.891 0 0.127 0.042 0.169 0.169 0.169 0.451 0 0.903 0 1.369 0 0.141 0 0.169-0.056 0.169-0.183 0-1.355 0-2.709 0-4.064 0-0.127-0.042-0.169-0.169-0.169-0.72 0.028-1.397 0.014-2.088 0.014zM26.878 15.69c-0.677 0-1.369 0-2.046 0-0.113 0-0.169 0.028-0.169 0.155 0 1.355 0 2.723 0 4.078 0 0.127 0.042 0.169 0.169 0.169 0.437 0 0.875 0 1.312 0 0.212 0 0.212 0 0.212-0.226 0-0.607 0-1.227-0.014-1.834 0-0.155 0.042-0.226 0.212-0.212 0.198 0.014 0.409 0.014 0.621 0 0.155-0.014 0.212 0.042 0.212 0.212-0.014 0.621 0 1.256 0 1.877 0 0.141 0.042 0.183 0.183 0.183 0.437-0.014 0.889-0.014 1.326 0 0.155 0 0.198-0.056 0.198-0.198 0-1.34 0-2.681 0-4.035 0-0.141-0.042-0.183-0.183-0.183-0.677 0.028-1.355 0.014-2.032 0.014zM13.742 26.695c0-0.042 0-0.056 0-0.085-0.127-0.635-0.268-1.27-0.395-1.905-0.028-0.113-0.099-0.113-0.183-0.113-0.381 0-0.762 0-1.143 0-0.254 0-0.254 0-0.254-0.254 0-1.157 0-2.314 0-3.457 0-0.141-0.042-0.198-0.183-0.198-0.437 0.014-0.861 0.014-1.298 0-0.155 0-0.212 0.042-0.212 0.212 0 1.877 0 3.753 0 5.63 0 0.169 0.056 0.212 0.212 0.198 1.086 0 2.187 0 3.273 0 0.056-0.014 0.113-0.028 0.183-0.028zM11.753 17.891c0-0.677 0-1.355 0-2.032 0-0.127-0.028-0.183-0.169-0.169-0.451 0.014-0.903 0-1.369 0-0.127 0-0.155 0.042-0.155 0.169 0 1.354 0 2.723 0 4.078 0 0.127 0.042 0.169 0.169 0.169 0.437 0 0.889-0.014 1.326 0 0.155 0 0.183-0.056 0.183-0.198 0.014-0.663 0.014-1.34 0.014-2.018z"></path>
<path d="M6.73 22.716c0.31 0.621 0.621 1.227 0.959 1.862-0.339 0-0.635 0-0.931 0-0.028 0-0.071-0.056-0.071-0.085 0-0.564 0-1.143 0-1.707-0.014-0.014 0.014-0.028 0.042-0.071z"></path>
<path d="M6.688 19.654c-0.014-0.056-0.028-0.099-0.028-0.155 0-0.494 0-0.988 0-1.481 0-0.141 0.042-0.198 0.198-0.198 0.268 0.014 0.522 0 0.847 0-0.339 0.635-0.649 1.242-0.959 1.834-0.014 0.014-0.042 0-0.056 0z"></path>
</svg>
