<!-- Generated by IcoMoon.io -->
<svg version="1.1" xmlns="http://www.w3.org/2000/svg" width="32" height="32" viewBox="0 0 32 32">
<title>ABC</title>
<path d="M9.552 3.316c1.129 0.649 2.243 1.298 3.386 1.947-0.085 0.071-0.141 0.113-0.183 0.141-3.019 1.792-6.039 3.57-9.044 5.333-0.296 0.169-0.409 0.353-0.409 0.705 0.042 2.004 0.056 4.007 0.071 6.011 0.014 0.818 0.014 0.804 0.734 1.227 3.668 2.116 7.337 4.219 10.991 6.335 0.31 0.183 0.621 0.353 0.945 0.55 0.437-0.254 0.889-0.494 1.326-0.748 1.58-0.903 3.16-1.806 4.741-2.695 0.198-0.113 0.268-0.226 0.268-0.451-0.014-2.116-0.014-4.219-0.014-6.335 0-0.198 0-0.409-0.028-0.593-0.014-0.099-0.113-0.212-0.212-0.268-0.889-0.522-1.792-1.044-2.681-1.566-0.056-0.042-0.127-0.085-0.212-0.141 0.085-0.056 0.127-0.113 0.183-0.141 0.903-0.536 1.806-1.072 2.709-1.623 0.155-0.099 0.268-0.099 0.437 0 0.903 0.522 1.82 1.044 2.737 1.552 0.183 0.099 0.254 0.226 0.254 0.437 0 3.485 0 6.984 0 10.469 0 0.226-0.085 0.353-0.268 0.451-2.991 1.721-5.968 3.443-8.959 5.15-0.099 0.056-0.198 0.127-0.296 0.183-1.51-0.861-3.019-1.721-4.529-2.582-3.711-2.102-7.407-4.219-11.118-6.321-0.282-0.155-0.395-0.325-0.381-0.663 0.014-3.386 0.014-6.773 0-10.173 0-0.254 0.085-0.381 0.296-0.522 3.005-1.834 5.996-3.668 8.988-5.503 0.099-0.042 0.183-0.113 0.268-0.169z"></path>
<path d="M28.67 22.222c-0.014-0.169-0.014-0.282-0.014-0.395 0-3.499 0-7.012 0-10.511 0-0.212-0.042-0.353-0.24-0.466-1.862-1.072-3.725-2.159-5.587-3.245-0.268-0.155-0.466-0.155-0.748 0-4.007 2.3-8.014 4.571-12.021 6.857-0.254 0.141-0.353 0.296-0.339 0.593 0.014 0.988 0 1.975 0 2.949 0 0.099 0 0.198 0 0.339-0.099-0.042-0.155-0.056-0.212-0.085-0.988-0.578-1.975-1.157-2.949-1.735-0.099-0.056-0.183-0.212-0.183-0.31-0.014-1.171 0-2.356-0.014-3.527 0-0.183 0.085-0.282 0.24-0.367 1.665-0.917 3.316-1.834 4.966-2.751 3.499-1.947 7.012-3.88 10.511-5.827 0.183-0.113 0.325-0.113 0.522 0 3.034 1.75 6.081 3.485 9.129 5.206 0.198 0.113 0.268 0.226 0.268 0.451 0 3.499 0 6.998 0 10.497 0 0.198-0.042 0.325-0.212 0.437-0.959 0.593-1.919 1.213-2.878 1.82-0.071-0.014-0.127 0.014-0.24 0.071z"></path>
</svg>
