<!-- Generated by IcoMoon.io -->
<svg version="1.1" xmlns="http://www.w3.org/2000/svg" width="32" height="32" viewBox="0 0 32 32">
<title>ABCC</title>
<path d="M18.032 4.219c0.296 0.282 0.564 0.536 0.818 0.804 1.030 1.086 2.088 2.173 3.076 3.287 0.339 0.381 0.691 0.494 1.199 0.494 2.582-0.042 4.769 0.889 6.533 2.765 1.27 1.34 2.032 2.949 2.258 4.797 0.325 2.61-0.395 4.91-2.116 6.885-1.171 1.34-2.624 2.243-4.346 2.667-0.649 0.155-1.34 0.24-2.004 0.254-1.707 0.028-3.414 0.014-5.122 0.014-0.31 0-0.325-0.014-0.325-0.325 0-1.34 0-2.667 0-4.007 0-0.31 0.014-0.325 0.325-0.325 1.566 0 3.118 0 4.684 0 0.677 0 1.34-0.071 1.961-0.367 1.397-0.691 2.215-1.806 2.342-3.372 0.169-1.961-1.171-3.711-2.963-4.148-0.451-0.113-0.931-0.099-1.383-0.155-0.212-0.028-0.282 0.071-0.282 0.282 0.014 1.157 0 2.328 0.014 3.485 0 0.226-0.056 0.31-0.296 0.31-1.355-0.014-2.709 0-4.078 0-0.31 0-0.31-0.014-0.31-0.31 0-4.247 0-8.494 0-12.727-0.014-0.113 0-0.198 0.014-0.31z"></path>
<path d="M13.996 13.15c0 1.354 0 2.695 0 4.049 0 0.325 0 0.325-0.325 0.325-1.354 0-2.709 0-4.078 0-0.226 0-0.296-0.056-0.282-0.282 0.014-1.157 0-2.328 0.014-3.485 0-0.226-0.056-0.296-0.296-0.31-1.143-0.028-2.187 0.268-3.019 1.072-1.016 0.959-1.496 2.13-1.27 3.541 0.24 1.58 1.157 2.653 2.638 3.217 0.423 0.155 0.903 0.226 1.354 0.226 1.651 0.028 3.302 0.014 4.952 0.014 0.339 0 0.339 0 0.339 0.325 0 1.34 0 2.681 0 4.021 0 0.325-0.014 0.325-0.325 0.325-1.594 0-3.203 0-4.797 0-2.469 0-4.6-0.832-6.349-2.582-1.228-1.227-2.004-2.695-2.356-4.402-0.804-3.894 1.185-7.802 4.698-9.524 1.213-0.593 2.483-0.889 3.838-0.889 1.651 0 3.316 0 4.966 0 0.325 0 0.325 0 0.325 0.325-0.028 1.34-0.028 2.681-0.028 4.035z"></path>
</svg>
