<?xml version="1.0" encoding="utf-8"?>
<!-- Generator: Adobe Illustrator 22.1.0, SVG Export Plug-In . SVG Version: 6.00 Build 0)  -->
<svg version="1.1" id="Layer_1" xmlns="http://www.w3.org/2000/svg" xmlns:xlink="http://www.w3.org/1999/xlink" x="0px" y="0px"
	 viewBox="0 0 226.8 226.8" style="enable-background:new 0 0 226.8 226.8;" xml:space="preserve">
<g>
	<path d="M213.3,115.9c0,18.1-0.1,36.2,0.1,54.3c0,3.1-1.1,4.7-3.7,6.2c-31.3,18-62.6,36.1-93.9,54.2c-2.3,1.4-4,1.5-6.5,0.1
		c-22.2-13-44.5-25.8-66.7-38.7c-9.5-5.5-19.1-11-28.6-16.7c-1.3-0.8-2.5-2.9-2.5-4.4c-0.1-36.6-0.1-73.2-0.1-109.8
		c0-2.5,0.9-4,2.9-5.2c31.7-18.3,63.5-36.6,95.2-55c2.3-1.4,4-1.2,6.2,0.1c22,12.8,44.1,25.5,66.2,38.2c9.2,5.3,18.4,10.8,27.7,16
		c2.9,1.6,4,3.4,3.9,6.7C213.2,80,213.3,97.9,213.3,115.9C213.3,115.9,213.3,115.9,213.3,115.9z M20.8,163.1c1.4-0.6,2.2-0.9,3-1.3
		c11.4-6.6,22.8-13.1,34.2-19.9c1.7-1,3.4-2.7,4.4-4.4c6-10.2,11.7-20.5,17.7-30.6c1.5-2.5,1.4-3.6-1.3-5.2
		C61,91.6,43.4,81.2,25.8,70.9c-1.4-0.8-3-1.4-4.9-2.3C20.8,100.3,20.8,131.4,20.8,163.1z M107.9,12.5c-28,16.1-55,31.7-83,47.8
		c1.3,0.6,1.7,0.8,2.1,1.1c19,10.9,38,21.9,57,32.9c2,1.2,3.1,0.6,4.2-1.3c5.1-8.9,10-17.9,15.5-26.6c3.2-5.1,4.5-10.3,4.3-16.3
		c-0.4-10.4-0.1-20.8-0.1-31.3C107.9,17,107.9,15.3,107.9,12.5z M117.4,12.9c-0.3,1.1-0.4,1.4-0.4,1.8c0,14.1-0.1,28.1,0,42.2
		c0,1.5,0.6,3.2,1.4,4.6c6,10.4,12.1,20.8,18,31.3c1.3,2.3,2.4,2.6,4.7,1.2c12-7,24.1-13.9,36.1-20.9c7.1-4.1,14.2-8.3,22.1-12.9
		C171.7,44.2,144.8,28.7,117.4,12.9z M203.9,68.6c-1.4,0.7-2.4,1-3.2,1.5c-18.1,10.4-36.2,21-54.4,31.3c-2.9,1.6-3.1,3.1-1.4,5.9
		c6,10.1,11.8,20.4,17.7,30.6c0.8,1.3,2,2.6,3.4,3.4c11.6,6.8,23.2,13.5,34.8,20.2c0.9,0.5,1.9,0.8,3.2,1.4
		C203.9,131.3,203.9,100.3,203.9,68.6z M107.9,219.2c0-14.9,0.1-28.8-0.1-42.8c0-1.3-1.6-3.1-2.8-3.8c-12.4-7.4-25-14.4-37.3-21.9
		c-2.8-1.7-4.9-1-7.3,0.3c-9.8,5.7-19.6,11.3-29.3,17c-1.8,1-3.4,2.2-5.7,3.7C53.1,187.6,80.1,203.2,107.9,219.2z M117,219.1
		c27.7-16,54.7-31.6,82.4-47.6c-13.1-7.6-25.4-14.7-37.6-21.6c-0.7-0.4-2.2-0.2-3.1,0.3c-13.2,7.5-26.3,15.1-39.4,22.8
		c-1.1,0.6-2.2,2.3-2.3,3.4C116.9,190.2,117,204.2,117,219.1z M107.6,163.4c0-13.5,0-26,0-39.5c-11.5,6.6-22.5,13-34.2,19.7
		C85.3,150.5,96.2,156.8,107.6,163.4z M151.2,143.6c-11.7-6.7-22.6-13-34-19.6c0,13.4,0,25.9,0,39.3
		C128.7,156.7,139.5,150.4,151.2,143.6z M107.7,79.2c-0.3-0.1-0.6-0.1-0.9-0.2c-4,7-8,14-12.2,21.2c4.5,2.6,8.5,4.8,13,7.4
		C107.7,97.6,107.7,88.4,107.7,79.2z M77.9,129.2c0.3,0.2,0.5,0.5,0.8,0.7c7.9-4.6,15.8-9.2,24.4-14.1c-4.8-2.8-8.7-5-13.1-7.5
		C85.9,115.4,81.9,122.3,77.9,129.2z M121.7,115.8c8.8,5,16.6,9.5,24.4,14c0.2-0.2,0.5-0.5,0.7-0.7c-4-6.9-8-13.8-12.1-20.9
		C130.3,110.9,126.4,113.1,121.7,115.8z M117.3,107.6c3.9-2.2,7.5-4,10.7-6.2c0.7-0.5,1-2.7,0.5-3.6c-2.8-5.3-5.8-10.5-8.8-15.7
		c-0.5-1-1.3-1.8-2.5-3.5C117.3,88.8,117.3,97.8,117.3,107.6z"/>
</g>
</svg>
