<!-- Generated by IcoMoon.io -->
<svg version="1.1" xmlns="http://www.w3.org/2000/svg" width="32" height="32" viewBox="0 0 32 32">
<title>ABT</title>
<path d="M30.095 16.353c0 2.554-0.014 5.108 0.014 7.661 0 0.437-0.155 0.663-0.522 0.875-4.416 2.54-8.832 5.093-13.249 7.647-0.325 0.198-0.564 0.212-0.917 0.014-3.132-1.834-6.279-3.64-9.411-5.46-1.34-0.776-2.695-1.552-4.035-2.356-0.183-0.113-0.353-0.409-0.353-0.621-0.014-5.164-0.014-10.328-0.014-15.492 0-0.353 0.127-0.564 0.409-0.734 4.473-2.582 8.959-5.164 13.432-7.76 0.325-0.198 0.564-0.169 0.875 0.014 3.104 1.806 6.222 3.598 9.34 5.39 1.298 0.748 2.596 1.524 3.908 2.257 0.409 0.226 0.564 0.48 0.55 0.945-0.042 2.554-0.028 5.079-0.028 7.619 0 0 0 0 0 0zM2.935 23.012c0.198-0.085 0.31-0.127 0.423-0.183 1.608-0.931 3.217-1.848 4.825-2.808 0.24-0.141 0.48-0.381 0.621-0.621 0.847-1.439 1.651-2.892 2.497-4.317 0.212-0.353 0.198-0.508-0.183-0.734-2.511-1.425-4.995-2.892-7.478-4.346-0.198-0.113-0.423-0.198-0.691-0.325-0.014 4.473-0.014 8.861-0.014 13.333zM15.224 1.764c-3.951 2.272-7.76 4.473-11.711 6.744 0.183 0.085 0.24 0.113 0.296 0.155 2.681 1.538 5.362 3.090 8.042 4.642 0.282 0.169 0.437 0.085 0.593-0.183 0.72-1.256 1.411-2.526 2.187-3.753 0.451-0.72 0.635-1.453 0.607-2.3-0.056-1.467-0.014-2.935-0.014-4.416 0-0.254 0-0.494 0-0.889zM16.564 1.82c-0.042 0.155-0.056 0.198-0.056 0.254 0 1.989-0.014 3.965 0 5.954 0 0.212 0.085 0.451 0.198 0.649 0.847 1.467 1.707 2.935 2.54 4.416 0.183 0.325 0.339 0.367 0.663 0.169 1.693-0.988 3.4-1.961 5.093-2.949 1.002-0.578 2.004-1.171 3.118-1.82-3.894-2.258-7.69-4.444-11.556-6.674zM28.769 9.679c-0.198 0.099-0.339 0.141-0.451 0.212-2.554 1.467-5.108 2.963-7.675 4.416-0.409 0.226-0.437 0.437-0.198 0.832 0.847 1.425 1.665 2.878 2.497 4.317 0.113 0.183 0.282 0.367 0.48 0.48 1.637 0.959 3.273 1.905 4.91 2.85 0.127 0.071 0.268 0.113 0.451 0.198-0.014-4.459-0.014-8.832-0.014-13.305zM15.224 30.928c0-2.102 0.014-4.064-0.014-6.039 0-0.183-0.226-0.437-0.395-0.536-1.75-1.044-3.527-2.032-5.263-3.090-0.395-0.24-0.691-0.141-1.030 0.042-1.383 0.804-2.765 1.594-4.134 2.399-0.254 0.141-0.48 0.31-0.804 0.522 3.908 2.243 7.718 4.444 11.64 6.702zM16.508 30.914c3.908-2.258 7.718-4.459 11.626-6.716-1.848-1.072-3.584-2.074-5.305-3.048-0.099-0.056-0.31-0.028-0.437 0.042-1.862 1.058-3.711 2.131-5.559 3.217-0.155 0.085-0.31 0.325-0.325 0.48-0.014 1.947 0 3.922 0 6.025zM15.182 23.055c0-1.905 0-3.668 0-5.573-1.623 0.931-3.175 1.834-4.825 2.78 1.679 0.974 3.217 1.862 4.825 2.794zM21.333 20.261c-1.651-0.945-3.189-1.834-4.797-2.765 0 1.891 0 3.654 0 5.545 1.623-0.931 3.146-1.82 4.797-2.78zM15.196 11.175c-0.042-0.014-0.085-0.014-0.127-0.028-0.564 0.988-1.129 1.975-1.721 2.991 0.635 0.367 1.199 0.677 1.834 1.044 0.014-1.411 0.014-2.709 0.014-4.007zM10.991 18.229c0.042 0.028 0.071 0.071 0.113 0.099 1.115-0.649 2.229-1.298 3.443-1.989-0.677-0.395-1.228-0.705-1.848-1.058-0.578 1.002-1.143 1.975-1.707 2.949zM17.171 16.339c1.242 0.705 2.342 1.34 3.443 1.975 0.028-0.028 0.071-0.071 0.099-0.099-0.564-0.974-1.129-1.947-1.707-2.949-0.621 0.381-1.171 0.691-1.834 1.072zM16.55 15.182c0.55-0.31 1.058-0.564 1.51-0.875 0.099-0.071 0.141-0.381 0.071-0.508-0.395-0.748-0.818-1.481-1.242-2.215-0.071-0.141-0.183-0.254-0.353-0.494 0.014 1.439 0.014 2.709 0.014 4.092z"></path>
</svg>
