<!-- Generated by IcoMoon.io -->
<svg version="1.1" xmlns="http://www.w3.org/2000/svg" width="32" height="32" viewBox="0 0 32 32">
<title>ABUCOINS</title>
<path d="M16.038 11.29c1.971-2.406 4.429-3.686 7.501-3.571 2.496 0.102 4.595 1.101 6.246 2.97 3.149 3.546 2.893 8.947-0.499 12.275-3.2 3.123-9.37 3.725-13.261-1.114-1.907 2.406-4.39 3.686-7.475 3.597-2.381-0.077-4.429-1.011-6.080-2.739-3.277-3.405-3.29-8.845-0.026-12.275 1.894-1.984 4.262-2.931 6.989-2.752 2.714 0.179 4.89 1.421 6.605 3.61zM10.176 19.251c0.064 0.243 0.115 0.41 0.154 0.576 0.461 0 0.87 0 1.318 0 0-1.549 0.051-3.059-0.026-4.557-0.038-0.717-0.538-1.254-1.254-1.498-1.395-0.474-2.688-0.179-3.981 0.55 0.179 0.333 0.32 0.614 0.461 0.883 2.611-0.678 3.494-0.435 3.29 0.973-0.358 0-0.73 0-1.088 0-0.397 0-0.794-0.013-1.19 0.026-1.088 0.077-1.805 0.717-1.869 1.626-0.077 1.126 0.461 1.83 1.6 2.086 0.947 0.205 1.779-0.077 2.586-0.666zM25.485 17.818c-1.574 0.858-2.381 0.87-3.046 0.077-0.563-0.678-0.563-1.792-0.013-2.458 0.691-0.819 1.485-0.806 3.046 0.115 0.282-0.346 0.576-0.691 0.845-1.037-0.794-1.050-2.445-1.446-3.853-0.973-1.344 0.461-2.253 1.741-2.24 3.136 0.026 1.536 0.973 2.765 2.406 3.213 1.357 0.422 3.213-0.243 3.661-1.165-0.243-0.282-0.525-0.602-0.806-0.909z"></path>
<path d="M10.15 17.062c0.243 0.781-0.026 1.242-0.589 1.562-0.627 0.358-1.549 0.333-1.933-0.051-0.448-0.435-0.294-1.242 0.333-1.344 0.73-0.141 1.472-0.128 2.189-0.166z"></path>
</svg>
