<?xml version="1.0" encoding="utf-8"?>
<!-- Generator: Adobe Illustrator 22.1.0, SVG Export Plug-In . SVG Version: 6.00 Build 0)  -->
<svg version="1.1" id="Layer_1" xmlns="http://www.w3.org/2000/svg" xmlns:xlink="http://www.w3.org/1999/xlink" x="0px" y="0px"
	 viewBox="0 0 226.8 226.8" style="enable-background:new 0 0 226.8 226.8;" xml:space="preserve">
<g>
	<path d="M0,192.5c1.5-10.1,3-20.1,4.6-30.2C11.4,118.1,18.2,73.9,25,29.7c0.6-3.8,0.6-8.3,5.2-9.7c4.4-1.3,7,2.2,9.6,4.8
		c23.4,23.5,46.6,47.1,70,70.6c3.6,3.7,3.9,3.6,7.4,0c23.3-23.5,46.6-47.1,69.9-70.6c2.6-2.6,5.1-6.2,9.5-4.8
		c4.6,1.4,4.8,5.7,5.4,9.6c7.4,47.9,14.8,95.9,22.2,143.8c0.9,5.5,1.7,11.1,2.4,16.7c1.2,9.5-4.4,14.2-13.5,11.3
		c-27-8.8-54-17.7-81.1-26.5c-5.1-1.7-10.1-3.5-15.3-4.8c-2.4-0.6-5.2-0.5-7.6,0.3C77.6,180.5,46,191,14.3,201.1
		c-2.9,0.9-6.5,0.9-9.4,0.1C1.1,200,0.1,196.3,0,192.5z M83.2,159.5c-3.6-1.6-6.2-2.5-8.6-3.8c-4.8-2.5-6.4-6.9-4.1-11.5
		c0.8-1.7,2.1-3.3,3.5-4.7c8.1-8.3,16.2-16.6,24.4-24.8c2.4-2.4,2.3-4.1-0.1-6.5C79.9,89.7,61.8,71,43.5,52.3c-1-1-2.5-1.6-3.7-2.4
		c-0.6,1.4-1.5,2.7-1.7,4.1c-1.9,12.4-3.6,24.8-5.4,37.1c-4.1,27.9-8.1,55.7-12.2,83.6c-0.8,5.5-0.4,5.8,4.8,4.1
		c18-5.8,36-11.6,53.9-17.5C80.3,161.1,81.2,160.5,83.2,159.5z M206.8,180.5c-0.2-2.9-0.2-4.8-0.5-6.7c-1.7-12.1-3.5-24.3-5.3-36.4
		c-4.1-28.1-8.2-56.3-12.3-84.4c-0.2-1.2-1-2.3-1.4-3.4c-1.1,0.6-2.3,1.1-3.2,1.9c-18.2,18.6-36.4,37.3-54.6,56
		c-3.6,3.7-3.5,4.2,0.1,7.9c7.9,8.1,15.9,16.2,23.8,24.3c6.9,7.1,5.3,13.9-4,17.4c-1.6,0.6-3.2,1.3-4.7,2c0,0.4,0,0.8,0,1.2
		C165.2,167,185.6,173.6,206.8,180.5z M113.4,150.2c5.8-1.9,11.2-3.6,16.6-5.5c0.5-0.2,0.9-2.7,0.4-3.2c-4.8-5.2-9.7-10.2-14.8-15
		c-0.8-0.7-3.2-0.9-3.9-0.2c-5.1,4.8-10,9.9-14.8,15.1c-0.5,0.6-0.2,3.1,0.3,3.3C102.6,146.7,108,148.4,113.4,150.2z"/>
</g>
</svg>
