<!-- Generated by IcoMoon.io -->
<svg version="1.1" xmlns="http://www.w3.org/2000/svg" width="32" height="32" viewBox="0 0 32 32">
<title>ACAT</title>
<path d="M0 27.16c0.212-1.425 0.423-2.836 0.649-4.261 0.959-6.236 1.919-12.473 2.878-18.709 0.085-0.536 0.085-1.171 0.734-1.369 0.621-0.183 0.988 0.31 1.354 0.677 3.302 3.316 6.575 6.646 9.877 9.961 0.508 0.522 0.55 0.508 1.044 0 3.287-3.316 6.575-6.646 9.862-9.961 0.367-0.367 0.72-0.875 1.34-0.677 0.649 0.198 0.677 0.804 0.762 1.354 1.044 6.758 2.088 13.531 3.132 20.289 0.127 0.776 0.24 1.566 0.339 2.356 0.169 1.34-0.621 2.004-1.905 1.594-3.81-1.242-7.619-2.497-11.443-3.739-0.72-0.24-1.425-0.494-2.159-0.677-0.339-0.085-0.734-0.071-1.072 0.042-4.444 1.425-8.903 2.907-13.376 4.332-0.409 0.127-0.917 0.127-1.326 0.014-0.536-0.169-0.677-0.691-0.691-1.227zM11.739 22.504c-0.508-0.226-0.875-0.353-1.213-0.536-0.677-0.353-0.903-0.974-0.578-1.623 0.113-0.24 0.296-0.466 0.494-0.663 1.143-1.171 2.286-2.342 3.443-3.499 0.339-0.339 0.325-0.578-0.014-0.917-2.596-2.61-5.15-5.249-7.732-7.887-0.141-0.141-0.353-0.226-0.522-0.339-0.085 0.198-0.212 0.381-0.24 0.578-0.268 1.75-0.508 3.499-0.762 5.235-0.578 3.936-1.143 7.859-1.721 11.795-0.113 0.776-0.056 0.818 0.677 0.578 2.54-0.818 5.079-1.637 7.605-2.469 0.155-0.028 0.282-0.113 0.564-0.254zM29.178 25.467c-0.028-0.409-0.028-0.677-0.071-0.945-0.24-1.707-0.494-3.429-0.748-5.136-0.578-3.965-1.157-7.944-1.735-11.908-0.028-0.169-0.141-0.325-0.198-0.48-0.155 0.085-0.325 0.155-0.451 0.268-2.568 2.624-5.136 5.263-7.704 7.901-0.508 0.522-0.494 0.593 0.014 1.115 1.115 1.143 2.243 2.286 3.358 3.429 0.974 1.002 0.748 1.961-0.564 2.455-0.226 0.085-0.451 0.183-0.663 0.282 0 0.056 0 0.113 0 0.169 2.892 0.945 5.771 1.877 8.762 2.85zM16 21.192c0.818-0.268 1.58-0.508 2.342-0.776 0.071-0.028 0.127-0.381 0.056-0.451-0.677-0.734-1.369-1.439-2.088-2.116-0.113-0.099-0.451-0.127-0.55-0.028-0.72 0.677-1.411 1.397-2.088 2.131-0.071 0.085-0.028 0.437 0.042 0.466 0.762 0.282 1.524 0.522 2.286 0.776z"></path>
</svg>
