<!-- Generated by IcoMoon.io -->
<svg version="1.1" xmlns="http://www.w3.org/2000/svg" width="32" height="32" viewBox="0 0 32 32">
<title>ACT</title>
<path d="M15.885 30.451c-3.533 0-7.053-0.013-10.586 0.013-0.858 0-1.421-0.282-1.83-1.062-1.037-1.933-2.125-3.84-3.213-5.76-0.346-0.602-0.333-1.139 0-1.728 3.61-6.426 7.219-12.851 10.816-19.29 0.307-0.55 0.755-0.832 1.382-0.832 2.304 0 4.595 0 6.899 0 0.627 0 1.075 0.282 1.382 0.832 3.584 6.4 7.168 12.813 10.778 19.2 0.371 0.666 0.384 1.242 0 1.907-1.114 1.933-2.202 3.878-3.277 5.837-0.333 0.602-0.819 0.87-1.498 0.87-2.918 0-5.824 0-8.742 0-0.704 0.013-1.408 0.013-2.112 0.013zM15.91 9.6c-2.483 4.429-4.928 8.781-7.386 13.171 4.954 0 9.856 0 14.784 0-2.483-4.403-4.928-8.755-7.398-13.171z"></path>
</svg>
