<?xml version="1.0" encoding="utf-8"?>
<!-- Generator: Adobe Illustrator 22.1.0, SVG Export Plug-In . SVG Version: 6.00 Build 0)  -->
<svg version="1.1" id="Layer_1" xmlns="http://www.w3.org/2000/svg" xmlns:xlink="http://www.w3.org/1999/xlink" x="0px" y="0px"
	 viewBox="0 0 250 250" style="enable-background:new 0 0 250 250;" xml:space="preserve">
<g>
	<path d="M124.1,237.9c-27.6,0-55.1-0.1-82.7,0.1c-6.7,0-11.1-2.2-14.3-8.3c-8.1-15.1-16.6-30-25.1-45c-2.7-4.7-2.6-8.9,0-13.5
		C30.2,121,58.4,70.8,86.5,20.5c2.4-4.3,5.9-6.5,10.8-6.5c18,0,35.9,0,53.9,0c4.9,0,8.4,2.2,10.8,6.5c28,50,56,100.1,84.2,150
		c2.9,5.2,3,9.7,0,14.9c-8.7,15.1-17.2,30.3-25.6,45.6c-2.6,4.7-6.4,6.8-11.7,6.8c-22.8,0-45.5,0-68.3,0
		C135.1,237.9,129.6,237.9,124.1,237.9z M124.3,75c-19.4,34.6-38.5,68.6-57.7,102.9c38.7,0,77,0,115.5,0
		C162.7,143.5,143.6,109.5,124.3,75z"/>
</g>
</svg>
