<!-- Generated by IcoMoon.io -->
<svg version="1.1" xmlns="http://www.w3.org/2000/svg" width="32" height="32" viewBox="0 0 32 32">
<title>ACXPRO</title>
<path d="M27.993 26.215c0.649 1.34 1.284 2.624 1.961 3.979-0.903 0.536-1.778 1.044-2.737 1.623-0.55-1.086-1.086-2.131-1.651-3.259-6.434 4.19-12.839 4.205-19.302-0.127-0.607 1.171-1.199 2.314-1.848 3.57-0.903-0.508-1.735-0.988-2.667-1.51 0.734-1.51 1.439-2.935 2.131-4.36-5.996-7.45-4.275-17.002 1.637-22.194 6.039-5.291 15.055-5.249 21.037 0.113 5.87 5.263 7.45 14.773 1.439 22.166zM15.915 2.060c3.965 7.944 7.831 15.675 11.725 23.478 5.418-6.123 4.543-15.873-1.82-21.319-6.406-5.489-16.085-4.656-21.545 1.862-5.573 6.66-3.795 15.478 0 19.273 3.852-7.704 7.69-15.393 11.64-23.295zM15.873 8.945c-3.16 6.377-6.236 12.571-9.298 18.737 4.402 4.374 14.067 4.444 18.667 0.099-3.076-6.194-6.166-12.43-9.369-18.836z"></path>
</svg>
