<!-- Generated by IcoMoon.io -->
<svg version="1.1" xmlns="http://www.w3.org/2000/svg" width="32" height="32" viewBox="0 0 32 32">
<title>ADA</title>
<path d="M13.772 13.985c-0.738 0-1.402-0.409-1.733-1.067-0.48-0.956-0.095-2.124 0.859-2.606 0.254-0.13 0.553-0.207 0.871-0.207h0c0.002 0 0.004 0 0.006 0 0.752 0 1.403 0.429 1.723 1.055l0.005 0.011c0.482 0.956 0.095 2.125-0.859 2.606-0.254 0.131-0.554 0.208-0.871 0.209h-0zM11.496 17.951c-0.038 0-0.075-0.001-0.113-0.003-1.066-0.062-1.886-0.981-1.825-2.049 0.060-1.064 0.972-1.89 2.046-1.827 1.067 0.060 1.886 0.979 1.826 2.047-0.059 1.028-0.91 1.831-1.934 1.831zM13.786 21.905c-0 0-0.001 0-0.001 0-0.395 0-0.762-0.119-1.068-0.322l0.007 0.004c-0.423-0.279-0.726-0.71-0.833-1.214l-0.002-0.013c-0.106-0.507-0.007-1.025 0.276-1.459 0.352-0.531 0.947-0.877 1.622-0.877 0 0 0.001 0 0.001 0h-0c0.378 0 0.746 0.111 1.062 0.318 0.424 0.279 0.728 0.71 0.834 1.215l0.002 0.013c0.107 0.507 0.008 1.024-0.277 1.459-0.35 0.531-0.944 0.876-1.619 0.876-0.002 0-0.003 0-0.005 0h0zM18.36 21.896c-0.001 0-0.003 0-0.005 0-0.752 0-1.403-0.429-1.722-1.056l-0.005-0.011c-0.234-0.462-0.272-0.988-0.11-1.481s0.507-0.891 0.969-1.125c0.254-0.131 0.554-0.208 0.872-0.208h0c0.002 0 0.004 0 0.006 0 0.752 0 1.403 0.43 1.721 1.057l0.005 0.011c0.48 0.955 0.096 2.124-0.859 2.606-0.254 0.13-0.554 0.207-0.872 0.207h-0zM20.638 17.931c-0.039 0-0.075-0.003-0.112-0.004-1.069-0.060-1.887-0.98-1.827-2.047 0.060-1.064 0.973-1.891 2.047-1.828 0.533 0.030 1.005 0.272 1.335 0.643l0.002 0.002c0.305 0.339 0.492 0.79 0.492 1.285 0 0.041-0.001 0.082-0.004 0.123l0-0.006c-0.058 1.027-0.908 1.831-1.933 1.831zM18.34 13.976c-0.376 0-0.744-0.109-1.061-0.318-0.895-0.587-1.144-1.792-0.558-2.687 0.351-0.531 0.946-0.876 1.621-0.876 0.001 0 0.001 0 0.002 0h-0c0.378 0 0.745 0.11 1.061 0.317 0.895 0.586 1.145 1.791 0.559 2.686-0.361 0.548-0.967 0.877-1.624 0.877zM11.83 6.772c0.242 0.478 0.049 1.062-0.429 1.302-0.127 0.066-0.277 0.104-0.437 0.104-0.376 0-0.701-0.214-0.862-0.527l-0.003-0.005c-0.066-0.127-0.104-0.278-0.104-0.437 0-0.376 0.214-0.702 0.527-0.863l0.005-0.003c0.477-0.24 1.061-0.048 1.301 0.429zM5.96 15.054c0.535 0.030 0.943 0.488 0.913 1.023s-0.489 0.943-1.023 0.914c-0.534-0.031-0.942-0.489-0.912-1.024 0.030-0.534 0.488-0.943 1.022-0.913zM10.194 24.281c0.175-0.265 0.472-0.438 0.81-0.438 0.198 0 0.382 0.059 0.535 0.161l-0.004-0.002c0.448 0.293 0.573 0.894 0.279 1.342s-0.894 0.572-1.342 0.28c-0.265-0.176-0.437-0.473-0.437-0.811 0-0.198 0.059-0.382 0.161-0.536l-0.002 0.004zM20.299 25.227c-0.242-0.477-0.049-1.060 0.428-1.301 0.48-0.241 1.061-0.048 1.302 0.428 0.241 0.478 0.048 1.062-0.429 1.302-0.127 0.066-0.277 0.104-0.436 0.104-0.376 0-0.701-0.214-0.861-0.527l-0.003-0.005zM26.168 16.945c-0.535-0.030-0.942-0.489-0.912-1.023 0.029-0.511 0.451-0.915 0.966-0.915 0.020 0 0.039 0.001 0.058 0.002l-0.003-0c0.534 0.029 0.944 0.488 0.914 1.023s-0.489 0.943-1.023 0.913zM21.936 7.718c-0.175 0.268-0.474 0.443-0.814 0.443-0.535 0-0.969-0.434-0.969-0.969 0-0.2 0.061-0.386 0.165-0.54l-0.002 0.003c0.175-0.265 0.473-0.438 0.81-0.438 0.198 0 0.381 0.059 0.534 0.161l-0.004-0.002c0.447 0.294 0.573 0.894 0.279 1.342zM9.711 3.799c0.042 0.082 0.067 0.179 0.067 0.283 0 0.243-0.139 0.454-0.341 0.558l-0.004 0.002c-0.082 0.042-0.179 0.067-0.282 0.067-0.244 0-0.455-0.139-0.558-0.342l-0.002-0.004c-0.042-0.082-0.067-0.179-0.067-0.282 0-0.243 0.139-0.454 0.341-0.558l0.004-0.002c0.082-0.042 0.179-0.067 0.282-0.067 0.243 0 0.454 0.139 0.559 0.341l0.002 0.004zM2.326 15.404c0.331 0.019 0.591 0.292 0.591 0.625 0 0.013-0 0.025-0.001 0.038l0-0.002c-0.020 0.346-0.316 0.611-0.661 0.59-0.33-0.018-0.591-0.291-0.591-0.624 0-0.013 0-0.026 0.001-0.038l-0 0.002c0.019-0.331 0.292-0.592 0.626-0.592 0.012 0 0.024 0 0.036 0.001l-0.002-0zM8.68 27.604c0.114-0.172 0.306-0.284 0.524-0.284 0.128 0 0.248 0.039 0.347 0.105l-0.002-0.001c0.171 0.114 0.283 0.306 0.283 0.524 0 0.128-0.039 0.248-0.105 0.347l0.001-0.002c-0.114 0.172-0.306 0.283-0.524 0.283-0.128 0-0.247-0.038-0.346-0.104l0.002 0.001c-0.172-0.114-0.283-0.307-0.283-0.525 0-0.128 0.038-0.247 0.104-0.347l-0.001 0.002zM22.418 28.202c-0.156-0.311-0.031-0.688 0.278-0.843 0.082-0.042 0.179-0.067 0.282-0.067 0.243 0 0.454 0.139 0.557 0.341l0.002 0.004c0.043 0.082 0.068 0.18 0.068 0.283 0 0.243-0.139 0.454-0.341 0.557l-0.004 0.002c-0.082 0.043-0.18 0.067-0.283 0.067-0.243 0-0.454-0.138-0.558-0.34l-0.002-0.003zM29.802 16.597c-0.331-0.020-0.592-0.293-0.592-0.627 0-0.013 0-0.025 0.001-0.037l-0 0.002c0.019-0.331 0.292-0.592 0.625-0.592 0.013 0 0.026 0 0.040 0.001l-0.002-0c0.345 0.018 0.61 0.316 0.588 0.662-0.018 0.345-0.315 0.61-0.66 0.591zM23.45 4.395c-0.191 0.29-0.58 0.371-0.868 0.181-0.171-0.114-0.283-0.306-0.283-0.525 0-0.128 0.038-0.247 0.104-0.346l-0.001 0.002c0.113-0.171 0.305-0.283 0.523-0.283 0.128 0 0.247 0.039 0.347 0.105l-0.002-0.001c0.172 0.114 0.283 0.306 0.283 0.525 0 0.128-0.038 0.246-0.103 0.345l0.001-0.002zM9.901 11.146c0.526 0.344 0.673 1.051 0.328 1.578-0.206 0.312-0.556 0.516-0.953 0.516-0.233 0-0.45-0.070-0.63-0.19l0.004 0.003c-0.527-0.344-0.673-1.051-0.328-1.579 0.346-0.526 1.052-0.674 1.579-0.327zM8.78 18.913c0.562-0.284 1.248-0.057 1.531 0.505s0.057 1.248-0.505 1.532c-0.561 0.283-1.248 0.056-1.531-0.505-0.283-0.562-0.058-1.248 0.505-1.532zM14.861 23.767c0.036-0.628 0.575-1.109 1.203-1.074 0.63 0.035 1.11 0.576 1.074 1.203-0.035 0.602-0.531 1.076-1.138 1.076-0.023 0-0.046-0.001-0.069-0.002l0.003 0c-0.628-0.036-1.108-0.575-1.073-1.203zM22.229 20.856c-0.526-0.346-0.673-1.053-0.329-1.58 0.346-0.526 1.052-0.672 1.578-0.327 0.527 0.344 0.673 1.051 0.329 1.578-0.345 0.528-1.052 0.674-1.577 0.329zM23.349 13.087c-0.562 0.283-1.248 0.058-1.531-0.505s-0.058-1.248 0.505-1.531c0.563-0.284 1.248-0.058 1.533 0.505 0.282 0.562 0.056 1.248-0.506 1.531zM17.187 8.233c-0.036 0.628-0.575 1.11-1.205 1.074-0.601-0.035-1.075-0.531-1.075-1.138 0-0.023 0.001-0.046 0.002-0.068l-0 0.003c0.036-0.629 0.574-1.11 1.202-1.074 0.602 0.035 1.078 0.532 1.078 1.141 0 0.022-0.001 0.044-0.002 0.066l0-0.003zM5.656 9.1c0.369 0.241 0.471 0.736 0.23 1.105-0.144 0.218-0.389 0.361-0.666 0.361-0.163 0-0.315-0.049-0.441-0.133l0.003 0.002c-0.368-0.242-0.472-0.737-0.23-1.105s0.736-0.472 1.105-0.229zM4.887 21.568c0.105-0.054 0.229-0.086 0.36-0.086 0.31 0 0.578 0.177 0.71 0.435l0.002 0.005c0.054 0.105 0.085 0.228 0.085 0.359 0 0.31-0.177 0.579-0.435 0.711l-0.005 0.002c-0.393 0.198-0.873 0.041-1.071-0.353s-0.040-0.875 0.354-1.073zM15.214 28.468c0.024-0.421 0.371-0.753 0.795-0.753 0.016 0 0.032 0 0.048 0.001l-0.002-0c0.421 0.024 0.753 0.372 0.753 0.796 0 0.016-0 0.032-0.001 0.048l0-0.002c-0.024 0.421-0.371 0.753-0.796 0.753-0.016 0-0.032-0-0.048-0.001l0.002 0c-0.421-0.024-0.753-0.371-0.753-0.796 0-0.016 0.001-0.033 0.001-0.049l-0 0.002zM26.472 22.9c-0.218-0.145-0.36-0.39-0.36-0.668 0-0.163 0.049-0.314 0.132-0.44l-0.002 0.003c0.242-0.368 0.737-0.472 1.105-0.23 0.218 0.145 0.36 0.39 0.36 0.668 0 0.163-0.049 0.314-0.132 0.44l0.002-0.003c-0.145 0.219-0.389 0.361-0.667 0.361-0.163 0-0.315-0.049-0.441-0.133l0.003 0.002zM27.242 10.433c-0.104 0.054-0.228 0.085-0.359 0.085-0.31 0-0.579-0.177-0.712-0.435l-0.002-0.005c-0.054-0.104-0.085-0.228-0.085-0.359 0-0.31 0.177-0.578 0.435-0.71l0.005-0.002c0.105-0.054 0.228-0.086 0.359-0.086 0.309 0 0.578 0.176 0.71 0.434l0.002 0.005c0.198 0.394 0.040 0.875-0.353 1.073zM16.834 3.532c-0.025 0.421-0.372 0.753-0.797 0.753-0.441 0-0.798-0.357-0.798-0.798 0-0.016 0-0.032 0.001-0.047l-0 0.002c0.026-0.441 0.402-0.778 0.842-0.752 0.421 0.025 0.753 0.372 0.753 0.797 0 0.016-0 0.032-0.001 0.048l0-0.002z"></path>
</svg>
