<!-- Generated by IcoMoon.io -->
<svg version="1.1" xmlns="http://www.w3.org/2000/svg" width="32" height="32" viewBox="0 0 32 32">
<title>ADC</title>
<path d="M16 5.418c-5.841 0-10.582 4.741-10.582 10.582s4.741 10.582 10.582 10.582 10.582-4.741 10.582-10.582-4.755-10.582-10.582-10.582zM21.065 17.044l-7.111 4.106c-0.621 0.353-1.383-0.085-1.383-0.804v-8.212c0-0.705 0.762-1.157 1.383-0.804l7.111 4.106c0.607 0.367 0.607 1.256 0 1.608z"></path>
<path d="M16 0c-8.832 0-16 7.168-16 16s7.168 16 16 16c8.832 0 16-7.168 16-16s-7.168-16-16-16zM16 27.965c-6.603 0-11.965-5.362-11.965-11.965s5.362-11.965 11.965-11.965 11.965 5.362 11.965 11.965c0 6.589-5.376 11.965-11.965 11.965z"></path>
</svg>
