<!-- Generated by IcoMoon.io -->
<svg version="1.1" xmlns="http://www.w3.org/2000/svg" width="32" height="32" viewBox="0 0 32 32">
<title>ADT</title>
<path d="M16.042 31.746c-0.325 0-0.663-0.085-0.959-0.254l-12.049-6.956c-0.593-0.339-0.959-0.974-0.959-1.665v-13.926c0-0.677 0.367-1.312 0.959-1.665l12.049-6.956c0.593-0.339 1.326-0.339 1.919 0l12.049 6.956c0.593 0.339 0.959 0.974 0.959 1.665v13.926c0 0.677-0.367 1.312-0.959 1.665l-12.049 6.956c-0.296 0.169-0.635 0.254-0.959 0.254zM16.028 0.494c-0.254 0-0.522 0.071-0.748 0.198l-12.049 6.956c-0.466 0.268-0.748 0.762-0.748 1.298v13.926c0 0.536 0.282 1.030 0.748 1.298l12.049 6.956c0.466 0.268 1.030 0.268 1.496 0l12.049-6.956c0.466-0.268 0.748-0.762 0.748-1.298v-13.926c0-0.536-0.282-1.030-0.748-1.298l-12.035-6.956c-0.24-0.127-0.494-0.198-0.762-0.198z"></path>
<path d="M8.236 8.899c0.254-0.254 0.522-0.522 0.776-0.776 0.254 0.254 0.522 0.522 0.776 0.776-0.254 0.254-0.522 0.522-0.776 0.776-0.254-0.268-0.522-0.522-0.776-0.776"></path>
<path d="M10.578 8.899c0.254-0.254 0.522-0.522 0.776-0.776 0.254 0.254 0.522 0.522 0.776 0.776-0.254 0.254-0.522 0.522-0.776 0.776-0.268-0.268-0.522-0.522-0.776-0.776"></path>
<path d="M19.946 8.885c0.254-0.254 0.522-0.522 0.776-0.776 0.254 0.254 0.522 0.522 0.776 0.776-0.254 0.254-0.522 0.522-0.776 0.776-0.254-0.254-0.508-0.508-0.776-0.776"></path>
<path d="M22.289 8.899c0.254-0.254 0.522-0.522 0.776-0.776 0.254 0.254 0.522 0.522 0.776 0.776l-0.776 0.776c-0.268-0.254-0.522-0.522-0.776-0.776"></path>
<path d="M9.407 10.070c0.254-0.254 0.522-0.522 0.776-0.776 0.254 0.254 0.522 0.522 0.776 0.776-0.254 0.254-0.522 0.522-0.776 0.776-0.254-0.268-0.522-0.522-0.776-0.776"></path>
<path d="M11.749 10.070c0.254-0.254 0.508-0.508 0.762-0.776 0.254 0.254 0.508 0.522 0.762 0.776-0.254 0.254-0.508 0.508-0.762 0.762-0.24-0.254-0.508-0.508-0.762-0.762"></path>
<path d="M18.789 10.056c0.254-0.254 0.508-0.508 0.776-0.776 0.254 0.254 0.508 0.522 0.776 0.776-0.254 0.254-0.508 0.508-0.776 0.776-0.268-0.254-0.522-0.508-0.776-0.776"></path>
<path d="M21.117 10.056c0.254-0.254 0.522-0.522 0.776-0.776 0.254 0.254 0.522 0.522 0.776 0.776-0.254 0.254-0.522 0.522-0.776 0.776-0.254-0.254-0.522-0.508-0.776-0.776"></path>
<path d="M8.236 11.241l0.776-0.776c0.254 0.254 0.522 0.522 0.776 0.776-0.254 0.254-0.522 0.522-0.776 0.776-0.254-0.268-0.522-0.522-0.776-0.776"></path>
<path d="M10.578 11.227c0.254-0.254 0.522-0.522 0.776-0.776 0.254 0.254 0.522 0.522 0.776 0.776-0.254 0.254-0.522 0.522-0.776 0.776-0.268-0.254-0.522-0.508-0.776-0.776"></path>
<path d="M12.92 11.227c0.254-0.254 0.508-0.508 0.762-0.762 0.254 0.254 0.522 0.522 0.776 0.776-0.254 0.254-0.508 0.508-0.762 0.762-0.268-0.254-0.522-0.522-0.776-0.776"></path>
<path d="M17.618 11.227c0.254-0.254 0.508-0.508 0.762-0.762 0.254 0.254 0.508 0.508 0.776 0.776-0.254 0.254-0.508 0.508-0.776 0.762-0.254-0.268-0.508-0.522-0.762-0.776"></path>
<path d="M19.946 11.227c0.254-0.254 0.522-0.522 0.776-0.776 0.254 0.254 0.522 0.522 0.776 0.776-0.254 0.254-0.522 0.522-0.776 0.776-0.254-0.254-0.522-0.508-0.776-0.776"></path>
<path d="M22.289 11.227c0.254-0.254 0.522-0.522 0.776-0.776 0.254 0.254 0.522 0.522 0.776 0.776-0.254 0.254-0.522 0.522-0.776 0.776-0.254-0.254-0.522-0.508-0.776-0.776"></path>
<path d="M15.262 11.311l0.762-0.762c0.268 0.254 0.536 0.508 0.79 0.762-0.254 0.268-0.522 0.522-0.79 0.762-0.254-0.254-0.508-0.508-0.762-0.762"></path>
<path d="M9.407 12.398c0.254-0.254 0.522-0.508 0.776-0.776 0.254 0.254 0.508 0.508 0.762 0.776-0.254 0.254-0.508 0.508-0.776 0.776-0.24-0.254-0.508-0.508-0.762-0.776"></path>
<path d="M14.091 12.398c0.254-0.254 0.508-0.508 0.762-0.762 0.254 0.254 0.508 0.508 0.762 0.762-0.254 0.254-0.508 0.508-0.762 0.762-0.254-0.254-0.508-0.508-0.762-0.762"></path>
<path d="M16.447 12.398c0.254-0.254 0.508-0.508 0.762-0.762 0.268 0.254 0.508 0.508 0.776 0.762-0.254 0.254-0.508 0.508-0.776 0.762-0.254-0.254-0.508-0.508-0.762-0.762"></path>
<path d="M21.132 12.398c0.254-0.254 0.508-0.508 0.762-0.776 0.254 0.254 0.522 0.508 0.776 0.776-0.254 0.254-0.522 0.508-0.776 0.776-0.254-0.268-0.508-0.522-0.762-0.776"></path>
<path d="M10.578 13.569c0.254-0.254 0.508-0.508 0.776-0.762 0.254 0.254 0.508 0.522 0.776 0.776-0.254 0.254-0.508 0.508-0.762 0.762-0.268-0.254-0.536-0.522-0.79-0.776"></path>
<path d="M15.262 13.569c0.254-0.254 0.508-0.508 0.762-0.762 0.268 0.254 0.536 0.508 0.79 0.762-0.254 0.268-0.522 0.522-0.79 0.762-0.254-0.254-0.508-0.508-0.762-0.762"></path>
<path d="M19.96 13.569c0.254-0.254 0.508-0.508 0.762-0.762 0.254 0.254 0.508 0.508 0.762 0.762-0.254 0.254-0.508 0.508-0.762 0.762-0.254-0.254-0.508-0.508-0.762-0.762"></path>
<path d="M11.749 14.74c0.254-0.254 0.508-0.508 0.762-0.762 0.254 0.254 0.508 0.508 0.762 0.762-0.254 0.254-0.508 0.508-0.762 0.762-0.254-0.254-0.508-0.508-0.762-0.762"></path>
<path d="M18.789 14.74c0.254-0.254 0.508-0.508 0.762-0.762 0.254 0.254 0.508 0.508 0.762 0.762-0.254 0.254-0.508 0.508-0.762 0.762-0.254-0.254-0.508-0.508-0.762-0.762"></path>
<path d="M10.578 15.911c0.254-0.254 0.508-0.508 0.762-0.762 0.254 0.254 0.508 0.508 0.762 0.762-0.254 0.254-0.508 0.508-0.762 0.762-0.254-0.254-0.508-0.508-0.762-0.762"></path>
<path d="M12.92 15.911c0.254-0.254 0.508-0.508 0.762-0.762 0.254 0.254 0.508 0.508 0.762 0.762-0.254 0.254-0.508 0.508-0.762 0.762-0.254-0.254-0.508-0.508-0.762-0.762"></path>
<path d="M17.618 15.911c0.254-0.254 0.508-0.508 0.776-0.776 0.254 0.254 0.508 0.508 0.762 0.776-0.254 0.254-0.508 0.508-0.762 0.776-0.268-0.268-0.522-0.522-0.776-0.776"></path>
<path d="M19.89 15.911c0.268-0.24 0.494-0.522 0.776-0.748 0.24 0.254 0.508 0.494 0.762 0.748-0.24 0.254-0.508 0.494-0.748 0.748-0.296-0.226-0.522-0.508-0.79-0.748"></path>
<path d="M11.749 17.082c0.254-0.254 0.508-0.508 0.762-0.762 0.254 0.254 0.508 0.508 0.762 0.762-0.254 0.254-0.508 0.508-0.762 0.762-0.254-0.254-0.508-0.508-0.762-0.762"></path>
<path d="M18.789 17.082c0.254-0.254 0.508-0.508 0.762-0.762 0.254 0.254 0.508 0.508 0.762 0.762-0.254 0.254-0.508 0.508-0.762 0.762-0.254-0.254-0.508-0.508-0.762-0.762"></path>
<path d="M10.578 18.253c0.254-0.254 0.522-0.522 0.776-0.776 0.254 0.254 0.508 0.508 0.762 0.762-0.254 0.254-0.508 0.522-0.776 0.776-0.254-0.254-0.508-0.508-0.762-0.762"></path>
<path d="M15.262 18.253c0.254-0.254 0.508-0.508 0.776-0.762 0.268 0.254 0.536 0.508 0.79 0.762-0.254 0.268-0.522 0.522-0.79 0.776-0.268-0.268-0.522-0.522-0.776-0.776"></path>
<path d="M19.96 18.253c0.254-0.254 0.508-0.508 0.762-0.762 0.254 0.254 0.508 0.508 0.762 0.762-0.254 0.254-0.508 0.508-0.762 0.762-0.254-0.254-0.508-0.508-0.762-0.762"></path>
<path d="M9.407 19.41c0.254-0.254 0.522-0.508 0.776-0.776 0.254 0.254 0.508 0.508 0.776 0.776-0.254 0.254-0.508 0.508-0.762 0.776-0.268-0.254-0.536-0.522-0.79-0.776"></path>
<path d="M14.091 19.41c0.254-0.254 0.508-0.508 0.776-0.776 0.254 0.254 0.508 0.508 0.776 0.776-0.254 0.254-0.508 0.508-0.776 0.776-0.268-0.254-0.522-0.508-0.776-0.776"></path>
<path d="M16.447 19.41c0.254-0.254 0.522-0.508 0.776-0.776 0.254 0.254 0.508 0.508 0.776 0.776-0.254 0.254-0.522 0.522-0.776 0.776-0.268-0.254-0.522-0.508-0.776-0.776"></path>
<path d="M21.132 19.41c0.254-0.254 0.508-0.508 0.762-0.776 0.254 0.254 0.522 0.508 0.776 0.776-0.254 0.254-0.522 0.508-0.776 0.776-0.254-0.254-0.508-0.508-0.762-0.776"></path>
<path d="M15.248 20.511c0.254-0.254 0.508-0.508 0.776-0.776 0.268 0.254 0.536 0.508 0.804 0.776-0.254 0.268-0.522 0.522-0.804 0.776-0.254-0.268-0.508-0.522-0.776-0.776"></path>
<path d="M8.236 20.581c0.254-0.254 0.522-0.522 0.776-0.776 0.254 0.254 0.522 0.522 0.776 0.776-0.254 0.254-0.522 0.522-0.776 0.776-0.254-0.254-0.522-0.522-0.776-0.776"></path>
<path d="M10.578 20.581c0.254-0.254 0.522-0.522 0.776-0.776 0.254 0.254 0.522 0.522 0.776 0.776-0.254 0.254-0.522 0.522-0.776 0.776-0.254-0.254-0.522-0.522-0.776-0.776"></path>
<path d="M12.92 20.581c0.254-0.254 0.522-0.522 0.776-0.776 0.254 0.254 0.522 0.508 0.776 0.776-0.254 0.254-0.522 0.522-0.776 0.776-0.268-0.254-0.522-0.508-0.776-0.776"></path>
<path d="M17.618 20.581c0.254-0.254 0.522-0.522 0.776-0.776 0.254 0.254 0.522 0.522 0.776 0.776-0.254 0.254-0.522 0.522-0.776 0.776-0.268-0.254-0.522-0.508-0.776-0.776"></path>
<path d="M19.946 20.581c0.254-0.254 0.522-0.522 0.776-0.776 0.254 0.254 0.522 0.522 0.776 0.776-0.254 0.254-0.522 0.522-0.776 0.776-0.254-0.254-0.522-0.508-0.776-0.776"></path>
<path d="M22.289 20.581c0.254-0.254 0.522-0.522 0.776-0.776 0.254 0.254 0.522 0.522 0.776 0.776-0.254 0.254-0.522 0.522-0.776 0.776-0.254-0.254-0.522-0.508-0.776-0.776"></path>
<path d="M9.407 21.752c0.254-0.254 0.522-0.522 0.776-0.776 0.254 0.254 0.522 0.522 0.776 0.776-0.254 0.254-0.522 0.522-0.776 0.776-0.254-0.254-0.522-0.522-0.776-0.776"></path>
<path d="M11.749 21.752c0.254-0.254 0.522-0.522 0.776-0.776 0.254 0.254 0.522 0.522 0.776 0.776-0.254 0.254-0.522 0.522-0.776 0.776-0.268-0.254-0.522-0.522-0.776-0.776"></path>
<path d="M18.775 21.752c0.254-0.254 0.522-0.522 0.776-0.776 0.254 0.254 0.522 0.522 0.776 0.776-0.254 0.254-0.522 0.522-0.776 0.776-0.254-0.254-0.508-0.508-0.776-0.776"></path>
<path d="M21.117 21.752c0.254-0.254 0.522-0.522 0.776-0.776 0.254 0.254 0.522 0.522 0.776 0.776-0.254 0.254-0.522 0.522-0.776 0.776-0.254-0.254-0.522-0.522-0.776-0.776"></path>
<path d="M8.236 22.923c0.254-0.254 0.522-0.522 0.776-0.776 0.254 0.254 0.522 0.522 0.776 0.776-0.254 0.254-0.522 0.522-0.776 0.776-0.254-0.268-0.522-0.522-0.776-0.776"></path>
<path d="M10.578 22.923c0.254-0.254 0.522-0.522 0.776-0.776 0.254 0.254 0.522 0.522 0.776 0.776-0.254 0.254-0.522 0.522-0.776 0.776-0.254-0.254-0.522-0.522-0.776-0.776"></path>
<path d="M19.946 22.923c0.254-0.254 0.522-0.522 0.776-0.776 0.254 0.254 0.522 0.522 0.776 0.776-0.254 0.254-0.522 0.522-0.776 0.776-0.254-0.254-0.522-0.522-0.776-0.776"></path>
<path d="M22.289 22.923c0.254-0.254 0.522-0.522 0.776-0.776l0.776 0.776c-0.254 0.254-0.522 0.522-0.776 0.776-0.268-0.254-0.522-0.522-0.776-0.776"></path>
</svg>
