<?xml version="1.0" encoding="utf-8"?>
<!-- Generator: Adobe Illustrator 22.0.1, SVG Export Plug-In . SVG Version: 6.00 Build 0)  -->
<svg version="1.1" id="Layer_1" xmlns="http://www.w3.org/2000/svg" xmlns:xlink="http://www.w3.org/1999/xlink" x="0px" y="0px"
	 viewBox="0 0 226.8 226.8" style="enable-background:new 0 0 226.8 226.8;" xml:space="preserve">
<style type="text/css">
	.st0{stroke:#FFFFFF;stroke-miterlimit:10;}
</style>
<path class="st0" d="M113.7,225c-2.3,0-4.7-0.6-6.8-1.8l-85.4-49.3c-4.2-2.4-6.8-6.9-6.8-11.8V63.4c0-4.8,2.6-9.3,6.8-11.8
	l85.4-49.3c4.2-2.4,9.4-2.4,13.6,0l85.4,49.3c4.2,2.4,6.8,6.9,6.8,11.8v98.7c0,4.8-2.6,9.3-6.8,11.8l-85.4,49.3
	C118.4,224.4,116,225,113.7,225z M113.6,3.5c-1.8,0-3.7,0.5-5.3,1.4L22.9,54.2c-3.3,1.9-5.3,5.4-5.3,9.2v98.7c0,3.8,2,7.3,5.3,9.2
	l85.4,49.3c3.3,1.9,7.3,1.9,10.6,0l85.4-49.3c3.3-1.9,5.3-5.4,5.3-9.2V63.4c0-3.8-2-7.3-5.3-9.2L119,4.9
	C117.3,4,115.5,3.5,113.6,3.5z"/>
<g transform="translate(-109.43-3.83)">
	<path class="st0" d="M167.8,66.9c1.8-1.8,3.7-3.7,5.5-5.5c1.8,1.8,3.7,3.7,5.5,5.5c-1.8,1.8-3.7,3.7-5.5,5.5
		C171.5,70.5,169.6,68.7,167.8,66.9"/>
	<path class="st0" d="M184.4,66.9c1.8-1.8,3.7-3.7,5.5-5.5c1.8,1.8,3.7,3.7,5.5,5.5c-1.8,1.8-3.7,3.7-5.5,5.5
		C188,70.5,186.2,68.7,184.4,66.9"/>
	<path class="st0" d="M250.8,66.8c1.8-1.8,3.7-3.7,5.5-5.5c1.8,1.8,3.7,3.7,5.5,5.5c-1.8,1.8-3.7,3.7-5.5,5.5
		C254.5,70.5,252.7,68.7,250.8,66.8"/>
	<path class="st0" d="M267.4,66.9c1.8-1.8,3.7-3.7,5.5-5.5c1.8,1.8,3.7,3.7,5.5,5.5l-5.5,5.5C271,70.6,269.2,68.7,267.4,66.9"/>
	<path class="st0" d="M176.1,75.2c1.8-1.8,3.7-3.7,5.5-5.5c1.8,1.8,3.7,3.7,5.5,5.5c-1.8,1.8-3.7,3.7-5.5,5.5
		C179.8,78.8,177.9,77,176.1,75.2"/>
	<path class="st0" d="M192.7,75.2c1.8-1.8,3.6-3.6,5.4-5.5c1.8,1.8,3.6,3.7,5.4,5.5c-1.8,1.8-3.6,3.6-5.4,5.4
		C196.4,78.8,194.5,77,192.7,75.2"/>
	<path class="st0" d="M242.6,75.1c1.8-1.8,3.6-3.6,5.5-5.5c1.8,1.8,3.6,3.7,5.5,5.5c-1.8,1.8-3.6,3.6-5.5,5.5
		C246.2,78.8,244.4,77,242.6,75.1"/>
	<path class="st0" d="M259.1,75.1c1.8-1.8,3.7-3.7,5.5-5.5c1.8,1.8,3.7,3.7,5.5,5.5c-1.8,1.8-3.7,3.7-5.5,5.5
		C262.8,78.8,260.9,77,259.1,75.1"/>
	<path class="st0" d="M167.8,83.5l5.5-5.5c1.8,1.8,3.7,3.7,5.5,5.5c-1.8,1.8-3.7,3.7-5.5,5.5C171.5,87.1,169.6,85.3,167.8,83.5"/>
	<path class="st0" d="M184.4,83.4c1.8-1.8,3.7-3.7,5.5-5.5c1.8,1.8,3.7,3.7,5.5,5.5c-1.8,1.8-3.7,3.7-5.5,5.5
		C188,87.1,186.2,85.3,184.4,83.4"/>
	<path class="st0" d="M201,83.4c1.8-1.8,3.6-3.6,5.4-5.4c1.8,1.8,3.7,3.7,5.5,5.5c-1.8,1.8-3.6,3.6-5.4,5.4
		C204.6,87.1,202.8,85.2,201,83.4"/>
	<path class="st0" d="M234.3,83.4c1.8-1.8,3.6-3.6,5.4-5.4c1.8,1.8,3.6,3.6,5.5,5.5c-1.8,1.8-3.6,3.6-5.5,5.4
		C237.9,87,236.1,85.2,234.3,83.4"/>
	<path class="st0" d="M250.8,83.4c1.8-1.8,3.7-3.7,5.5-5.5c1.8,1.8,3.7,3.7,5.5,5.5c-1.8,1.8-3.7,3.7-5.5,5.5
		C254.5,87.1,252.6,85.3,250.8,83.4"/>
	<path class="st0" d="M267.4,83.4c1.8-1.8,3.7-3.7,5.5-5.5c1.8,1.8,3.7,3.7,5.5,5.5c-1.8,1.8-3.7,3.7-5.5,5.5
		C271.1,87.1,269.2,85.3,267.4,83.4"/>
	<path class="st0" d="M217.6,84l5.4-5.4c1.9,1.8,3.8,3.6,5.6,5.4c-1.8,1.9-3.7,3.7-5.6,5.4C221.2,87.6,219.4,85.8,217.6,84"/>
	<path class="st0" d="M176.1,91.7c1.8-1.8,3.7-3.6,5.5-5.5c1.8,1.8,3.6,3.6,5.4,5.5c-1.8,1.8-3.6,3.6-5.5,5.5
		C179.8,95.4,177.9,93.6,176.1,91.7"/>
	<path class="st0" d="M209.3,91.7c1.8-1.8,3.6-3.6,5.4-5.4c1.8,1.8,3.6,3.6,5.4,5.4c-1.8,1.8-3.6,3.6-5.4,5.4
		C212.9,95.3,211.1,93.5,209.3,91.7"/>
	<path class="st0" d="M226,91.7c1.8-1.8,3.6-3.6,5.4-5.4c1.9,1.8,3.6,3.6,5.5,5.4c-1.8,1.8-3.6,3.6-5.5,5.4
		C229.6,95.3,227.8,93.5,226,91.7"/>
	<path class="st0" d="M259.2,91.7c1.8-1.8,3.6-3.6,5.4-5.5c1.8,1.8,3.7,3.6,5.5,5.5c-1.8,1.8-3.7,3.6-5.5,5.5
		C262.8,95.3,261,93.5,259.2,91.7"/>
	<path class="st0" d="M184.4,100c1.8-1.8,3.6-3.6,5.5-5.4c1.8,1.8,3.6,3.7,5.5,5.5c-1.8,1.8-3.6,3.6-5.4,5.4
		C188.1,103.7,186.2,101.8,184.4,100"/>
	<path class="st0" d="M217.6,100c1.8-1.8,3.6-3.6,5.4-5.4c1.9,1.8,3.8,3.6,5.6,5.4c-1.8,1.9-3.7,3.7-5.6,5.4
		C221.2,103.6,219.4,101.8,217.6,100"/>
	<path class="st0" d="M250.9,100c1.8-1.8,3.6-3.6,5.4-5.4c1.8,1.8,3.6,3.6,5.4,5.4c-1.8,1.8-3.6,3.6-5.4,5.4
		C254.5,103.6,252.7,101.8,250.9,100"/>
	<path class="st0" d="M192.7,108.3c1.8-1.8,3.6-3.6,5.4-5.4c1.8,1.8,3.6,3.6,5.4,5.4c-1.8,1.8-3.6,3.6-5.4,5.4
		C196.3,111.9,194.5,110.1,192.7,108.3"/>
	<path class="st0" d="M242.6,108.3c1.8-1.8,3.6-3.6,5.4-5.4c1.8,1.8,3.6,3.6,5.4,5.4c-1.8,1.8-3.6,3.6-5.4,5.4
		C246.2,111.9,244.4,110.1,242.6,108.3"/>
	<path class="st0" d="M184.4,116.6c1.8-1.8,3.6-3.6,5.4-5.4c1.8,1.8,3.6,3.6,5.4,5.4c-1.8,1.8-3.6,3.6-5.4,5.4
		C188,120.2,186.2,118.4,184.4,116.6"/>
	<path class="st0" d="M201,116.6c1.8-1.8,3.6-3.6,5.4-5.4c1.8,1.8,3.6,3.6,5.4,5.4c-1.8,1.8-3.6,3.6-5.4,5.4
		C204.6,120.2,202.8,118.4,201,116.6"/>
	<path class="st0" d="M234.3,116.6c1.8-1.8,3.6-3.6,5.5-5.5c1.8,1.8,3.6,3.6,5.4,5.5c-1.8,1.8-3.6,3.6-5.4,5.5
		C237.9,120.2,236.1,118.4,234.3,116.6"/>
	<path class="st0" d="M250.4,116.6c1.9-1.7,3.5-3.7,5.5-5.3c1.7,1.8,3.6,3.5,5.4,5.3c-1.7,1.8-3.6,3.5-5.3,5.3
		C253.9,120.3,252.3,118.3,250.4,116.6"/>
	<path class="st0" d="M192.7,124.9c1.8-1.8,3.6-3.6,5.4-5.4c1.8,1.8,3.6,3.6,5.4,5.4c-1.8,1.8-3.6,3.6-5.4,5.4
		C196.3,128.5,194.5,126.7,192.7,124.9"/>
	<path class="st0" d="M242.6,124.9c1.8-1.8,3.6-3.6,5.4-5.4c1.8,1.8,3.6,3.6,5.4,5.4c-1.8,1.8-3.6,3.6-5.4,5.4
		C246.2,128.5,244.4,126.7,242.6,124.9"/>
	<path class="st0" d="M184.4,133.2c1.8-1.8,3.7-3.7,5.5-5.5c1.8,1.8,3.6,3.6,5.4,5.4c-1.8,1.8-3.6,3.7-5.5,5.5
		C188,136.8,186.2,135,184.4,133.2"/>
	<path class="st0" d="M217.6,133.2c1.8-1.8,3.6-3.6,5.5-5.4c1.9,1.8,3.8,3.6,5.6,5.4c-1.8,1.9-3.7,3.7-5.6,5.5
		C221.2,136.8,219.4,135,217.6,133.2"/>
	<path class="st0" d="M250.9,133.2c1.8-1.8,3.6-3.6,5.4-5.4c1.8,1.8,3.6,3.6,5.4,5.4c-1.8,1.8-3.6,3.6-5.4,5.4
		C254.5,136.8,252.7,135,250.9,133.2"/>
	<path class="st0" d="M176.1,141.4c1.8-1.8,3.7-3.6,5.5-5.5c1.8,1.8,3.6,3.6,5.5,5.5c-1.8,1.8-3.6,3.6-5.4,5.5
		C179.8,145.1,177.9,143.2,176.1,141.4"/>
	<path class="st0" d="M209.3,141.4c1.8-1.8,3.6-3.6,5.5-5.5c1.8,1.8,3.6,3.6,5.5,5.5c-1.8,1.8-3.6,3.6-5.5,5.5
		C212.9,145.1,211.1,143.3,209.3,141.4"/>
	<path class="st0" d="M226,141.4c1.8-1.8,3.7-3.6,5.5-5.5c1.8,1.8,3.6,3.6,5.5,5.5c-1.8,1.8-3.7,3.7-5.5,5.5
		C229.6,145.1,227.8,143.3,226,141.4"/>
	<path class="st0" d="M259.2,141.4c1.8-1.8,3.6-3.6,5.4-5.5c1.8,1.8,3.7,3.6,5.5,5.5c-1.8,1.8-3.7,3.6-5.5,5.5
		C262.8,145.1,261,143.3,259.2,141.4"/>
	<path class="st0" d="M217.5,149.2c1.8-1.8,3.6-3.6,5.5-5.5c1.9,1.8,3.8,3.6,5.7,5.5c-1.8,1.9-3.7,3.7-5.7,5.5
		C221.2,152.8,219.4,151,217.5,149.2"/>
	<path class="st0" d="M167.8,149.7c1.8-1.8,3.7-3.7,5.5-5.5c1.8,1.8,3.7,3.7,5.5,5.5c-1.8,1.8-3.7,3.7-5.5,5.5
		C171.5,153.4,169.6,151.5,167.8,149.7"/>
	<path class="st0" d="M184.4,149.7c1.8-1.8,3.7-3.7,5.5-5.5c1.8,1.8,3.7,3.7,5.5,5.5c-1.8,1.8-3.7,3.7-5.5,5.5
		C188.1,153.4,186.2,151.5,184.4,149.7"/>
	<path class="st0" d="M201,149.7c1.8-1.8,3.7-3.7,5.5-5.5c1.8,1.8,3.7,3.6,5.5,5.5c-1.8,1.8-3.7,3.7-5.5,5.5
		C204.6,153.4,202.8,151.6,201,149.7"/>
	<path class="st0" d="M234.3,149.7c1.8-1.8,3.7-3.7,5.5-5.5c1.8,1.8,3.7,3.7,5.5,5.5c-1.8,1.8-3.7,3.7-5.5,5.5
		C237.9,153.4,236.1,151.6,234.3,149.7"/>
	<path class="st0" d="M250.8,149.7c1.8-1.8,3.7-3.7,5.5-5.5c1.8,1.8,3.7,3.7,5.5,5.5c-1.8,1.8-3.7,3.7-5.5,5.5
		C254.5,153.4,252.6,151.6,250.8,149.7"/>
	<path class="st0" d="M267.4,149.7c1.8-1.8,3.7-3.7,5.5-5.5c1.8,1.8,3.7,3.7,5.5,5.5c-1.8,1.8-3.7,3.7-5.5,5.5
		C271.1,153.4,269.2,151.6,267.4,149.7"/>
	<path class="st0" d="M176.1,158c1.8-1.8,3.7-3.7,5.5-5.5c1.8,1.8,3.7,3.7,5.5,5.5c-1.8,1.8-3.7,3.7-5.5,5.5
		C179.8,161.7,177.9,159.8,176.1,158"/>
	<path class="st0" d="M192.7,158c1.8-1.8,3.7-3.7,5.5-5.5c1.8,1.8,3.7,3.7,5.5,5.5c-1.8,1.8-3.7,3.7-5.5,5.5
		C196.3,161.7,194.5,159.8,192.7,158"/>
	<path class="st0" d="M242.5,158c1.8-1.8,3.7-3.7,5.5-5.5c1.8,1.8,3.7,3.7,5.5,5.5c-1.8,1.8-3.7,3.7-5.5,5.5
		C246.2,161.7,244.4,159.9,242.5,158"/>
	<path class="st0" d="M259.1,158c1.8-1.8,3.7-3.7,5.5-5.5c1.8,1.8,3.7,3.7,5.5,5.5c-1.8,1.8-3.7,3.7-5.5,5.5
		C262.8,161.7,260.9,159.8,259.1,158"/>
	<path class="st0" d="M167.8,166.3c1.8-1.8,3.7-3.7,5.5-5.5c1.8,1.8,3.7,3.7,5.5,5.5c-1.8,1.8-3.7,3.7-5.5,5.5
		C171.5,169.9,169.6,168.1,167.8,166.3"/>
	<path class="st0" d="M184.4,166.3c1.8-1.8,3.7-3.7,5.5-5.5c1.8,1.8,3.7,3.7,5.5,5.5c-1.8,1.8-3.7,3.7-5.5,5.5
		C188.1,170,186.2,168.1,184.4,166.3"/>
	<path class="st0" d="M250.8,166.3c1.8-1.8,3.7-3.7,5.5-5.5c1.8,1.8,3.7,3.7,5.5,5.5c-1.8,1.8-3.7,3.7-5.5,5.5
		C254.5,170,252.6,168.1,250.8,166.3"/>
	<path class="st0" d="M267.4,166.3c1.8-1.8,3.7-3.7,5.5-5.5l5.5,5.5c-1.8,1.8-3.7,3.7-5.5,5.5C271,170,269.2,168.1,267.4,166.3"/>
</g>
</svg>
