<!-- Generated by IcoMoon.io -->
<svg version="1.1" xmlns="http://www.w3.org/2000/svg" width="32" height="32" viewBox="0 0 32 32">
<title>ADX</title>
<path d="M16 0v0c1.933 1.905 3.852 3.824 5.785 5.742-1.016 1.016-2.032 2.018-3.048 3.034-0.917-0.917-1.82-1.82-2.723-2.737-0.917 0.917-1.82 1.82-2.723 2.737-1.016-1.016-2.032-2.018-3.048-3.034 1.905-1.919 3.824-3.838 5.757-5.742z"></path>
<path d="M10.215 26.258c1.030-1.002 2.032-2.018 3.048-3.019 0.917 0.917 1.82 1.82 2.723 2.737 0.917-0.917 1.82-1.82 2.723-2.737 1.016 1.016 2.032 2.018 3.048 3.034-1.919 1.919-3.852 3.824-5.785 5.742-1.891-1.933-3.838-3.838-5.757-5.757z"></path>
<path d="M6.095 9.82c1.228-1.228 2.455-2.441 3.697-3.668 2.074 2.046 4.148 4.106 6.208 6.152 2.074-2.046 4.148-4.106 6.208-6.152 1.227 1.213 2.469 2.441 3.697 3.654v0.028c-2.060 2.060-4.12 4.106-6.194 6.152 2.060 2.046 4.12 4.106 6.194 6.152v0.028c-1.227 1.227-2.455 2.455-3.697 3.668-2.074-2.046-4.134-4.106-6.208-6.166-2.074 2.046-4.134 4.12-6.208 6.166-1.242-1.213-2.469-2.441-3.697-3.668v-0.014c2.060-2.060 4.12-4.106 6.194-6.152-2.060-2.046-4.134-4.106-6.194-6.152v-0.028z"></path>
</svg>
