<?xml version="1.0" encoding="utf-8"?>
<!-- Generator: Adobe Illustrator 22.0.1, SVG Export Plug-In . SVG Version: 6.00 Build 0)  -->
<svg version="1.1" id="Layer_1" xmlns="http://www.w3.org/2000/svg" xmlns:xlink="http://www.w3.org/1999/xlink" x="0px" y="0px"
	 viewBox="0 0 226.8 226.8" style="enable-background:new 0 0 226.8 226.8;" xml:space="preserve">
<style type="text/css">
	.st0{stroke:#FFFFFF;stroke-miterlimit:10;}
</style>
<g transform="translate(-381)">
	<g>
		<path class="st0" d="M494.4,0L494.4,0c13.7,13.5,27.3,27.1,41,40.7c-7.2,7.2-14.4,14.3-21.6,21.5c-6.5-6.5-12.9-12.9-19.3-19.4
			c-6.5,6.5-12.9,12.9-19.3,19.4c-7.2-7.2-14.4-14.3-21.6-21.5C467.1,27.1,480.7,13.5,494.4,0z"/>
		<path class="st0" d="M453.4,186.1c7.3-7.1,14.4-14.3,21.6-21.4c6.5,6.5,12.9,12.9,19.3,19.4c6.5-6.5,12.9-12.9,19.3-19.4
			c7.2,7.2,14.4,14.3,21.6,21.5c-13.6,13.6-27.3,27.1-41,40.7C480.8,213.2,467,199.7,453.4,186.1z"/>
	</g>
	<path class="st0" d="M424.2,69.6c8.7-8.7,17.4-17.3,26.2-26c14.7,14.5,29.4,29.1,44,43.6c14.7-14.5,29.4-29.1,44-43.6
		c8.7,8.6,17.5,17.3,26.2,25.9v0.2c-14.6,14.6-29.2,29.1-43.9,43.6c14.6,14.5,29.2,29.1,43.9,43.6v0.2c-8.7,8.7-17.4,17.4-26.2,26
		c-14.7-14.5-29.3-29.1-44-43.7c-14.7,14.5-29.3,29.2-44,43.7c-8.8-8.6-17.5-17.3-26.2-26V157c14.6-14.6,29.2-29.1,43.9-43.6
		c-14.6-14.5-29.3-29.1-43.9-43.6V69.6z"/>
</g>
</svg>
