<?xml version="1.0" encoding="utf-8"?>
<!-- Generator: Adobe Illustrator 22.0.1, SVG Export Plug-In . SVG Version: 6.00 Build 0)  -->
<svg version="1.1" id="Layer_1" xmlns="http://www.w3.org/2000/svg" xmlns:xlink="http://www.w3.org/1999/xlink" x="0px" y="0px"
	 viewBox="0 0 226.8 226.8" style="enable-background:new 0 0 226.8 226.8;" xml:space="preserve">
<style type="text/css">
	.st0{stroke:#FFFFFF;stroke-miterlimit:10;}
</style>
<g transform="translate(0-530)">
	<path class="st0" d="M49.7,589.8h9.1c14.3,1.4,27.5,8.6,37.3,18.9c20.3,21.3,31.5,51.4,57.3,67.2c18.7,11.5,44.8,2.1,54-17.3
		c4.7-0.1,9.4-0.1,14-0.1c-6.4,19.7-25.2,33.8-45.6,35.7h-7.5c-12.6-1-24.9-5.9-34.4-14.3c-13.9-11.7-22.7-27.8-33.5-42.2
		c-9.3-12.7-18.7-26.9-34-32.7c-18.9-7.1-42.1,4-48.9,22.9c-6.1,15.5-1.1,34.8,12.4,44.7c10.2,7.9,24.3,10.8,36.5,6.2
		c13.6-4.9,23.6-16,31.4-27.8c3,4.4,6,8.8,8.9,13.2c-12,15.1-28.7,28.1-48.5,29.9h-8.1c-25-1.7-46.7-22.9-48.4-48v-8.2
		C3.3,613.1,24.7,591.6,49.7,589.8"/>
	<path class="st0" d="M167.8,589.8h7.6c25.2,1.6,46.6,23.3,48.7,48.3V651c-20.8,0.2-41.6,0.1-62.4,0.1c0-3.8,0-7.5,0-11.3
		c16.4,0,32.8,0.1,49.3,0c-1.2-6.6-2.7-13.5-6.6-19.1c-9.6-14.7-29.9-20.7-46.1-14.3c-12.9,4.8-22.7,15.3-30.2,26.6
		c-2.9-4.2-5.8-8.4-8.5-12.6C131.3,605,147.9,591.7,167.8,589.8"/>
</g>
</svg>
