<!-- Generated by IcoMoon.io -->
<svg version="1.1" xmlns="http://www.w3.org/2000/svg" width="32" height="32" viewBox="0 0 32 32">
<title>AE</title>
<path d="M7.012 8.437h1.284c2.018 0.198 3.88 1.213 5.263 2.667 2.864 3.005 4.444 7.252 8.085 9.481 2.638 1.623 6.321 0.296 7.619-2.441 0.663-0.014 1.326-0.014 1.975-0.014-0.903 2.78-3.556 4.769-6.434 5.037h-1.058c-1.778-0.141-3.513-0.832-4.854-2.018-1.961-1.651-3.203-3.922-4.727-5.954-1.312-1.792-2.638-3.795-4.797-4.614-2.667-1.002-5.94 0.564-6.899 3.231-0.861 2.187-0.155 4.91 1.75 6.307 1.439 1.115 3.429 1.524 5.15 0.875 1.919-0.691 3.33-2.258 4.43-3.922 0.423 0.621 0.847 1.242 1.256 1.862-1.693 2.131-4.049 3.965-6.843 4.219h-1.143c-3.527-0.24-6.589-3.231-6.829-6.773v-1.157c0.226-3.499 3.245-6.533 6.772-6.787"></path>
<path d="M23.675 8.437h1.072c3.556 0.226 6.575 3.287 6.871 6.815v1.82c-2.935 0.028-5.87 0.014-8.804 0.014 0-0.536 0-1.058 0-1.594 2.314 0 4.628 0.014 6.956 0-0.169-0.931-0.381-1.905-0.931-2.695-1.355-2.074-4.219-2.921-6.504-2.018-1.82 0.677-3.203 2.159-4.261 3.753-0.409-0.593-0.818-1.185-1.199-1.778 1.651-2.173 3.993-4.049 6.801-4.317"></path>
</svg>
