<!-- Generated by IcoMoon.io -->
<svg version="1.1" xmlns="http://www.w3.org/2000/svg" width="32" height="32" viewBox="0 0 32 32">
<title>AEON</title>
<path d="M24.009 3.605c-0.623-1.386-1.532-2.363-2.713-2.775-3.146-1.097-7.279 2.136-10.327 7.616 0.374-0.1 0.992-0.233 1.616-0.349l0.214-0.033c3.947-2.638 7.973-4.185 11.21-4.459zM8 28.395c0.622 1.386 1.532 2.362 2.713 2.775 3.146 1.097 7.278-2.136 10.326-7.615-0.374 0.1-0.992 0.233-1.616 0.348l-0.214 0.033c-3.947 2.638-7.973 4.185-11.21 4.459z"></path>
<path d="M15.037 7.732c5.844-0.684 11.171 0.105 14.54 1.871 0.13-1.306-0.118-2.454-0.797-3.344-2.213-2.902-8.279-2.121-14.415 1.559 0.031-0.009 0.261-0.040 0.491-0.068l0.18-0.018zM16.972 24.268c-5.843 0.684-11.171-0.104-14.54-1.87-0.13 1.306 0.118 2.454 0.797 3.343 2.213 2.903 8.279 2.121 14.414-1.559-0.222 0.031-0.446 0.060-0.671 0.085zM11.852 16.627c-0.819 0.284-1.236 1.37-0.551 1.914s1.835 0.291 2.37-0.244c0.536-0.535 0.858-1.85 0.858-1.85s-1.858-0.103-2.677 0.181zM18.506 13.516c-0.89 0.63-0.976 1.937-0.976 1.937s0.968 0.087 2.26-0.055c1.292-0.142 1.52-1.189 1.205-1.835s-1.598-0.677-2.489-0.047z"></path>
<path d="M31.961 14.132c-0.494-4.224-8.039-6.813-16.852-5.782s-15.556 5.293-15.062 9.517 8.040 6.813 16.852 5.781c8.813-1.032 15.556-5.292 15.062-9.517zM23.909 14.905c-0.588 1.848-3.444 2.195-3.444 2.195-1.145 0.158-3.245 0.136-3.245 0.136-0.147 1.302 0.662 1.491 2.090 1.512s3.202-0.798 3.202-0.798l-0.441 2.268s-1.754 0.472-3.056 0.451c-1.302-0.021-3.034 0.042-4.092-1.585-1.058 1.186-2.418 1.669-4.234 1.68s-3.119-1.071-2.615-3.392c0.504-2.321 3.539-2.573 3.539-2.573 1.543-0.21 3.286-0.147 3.286-0.147 0.221-1.418-1.123-1.502-2.499-1.491s-2.793 0.777-2.793 0.777l0.388-2.237s1.48-0.347 3.371-0.494c1.89-0.147 3.297 0.578 3.749 1.607 1.113-1.218 3.16-1.964 4.987-1.617s2.394 1.859 1.805 3.707z"></path>
</svg>
