<!-- Generated by IcoMoon.io -->
<svg version="1.1" xmlns="http://www.w3.org/2000/svg" width="32" height="32" viewBox="0 0 32 32">
<title>AGAMA</title>
<path d="M28.237 31.898c-1.088 0-2.163-0.013-3.251 0.013-0.499 0.013-0.614-0.166-0.55-0.653 0.384-3.174 0.218-6.298-1.011-9.306-0.486-1.178-1.152-2.24-2.048-3.149-0.794-0.794-0.653-2.010 0.384-2.483 0.845-0.384 1.779-0.563 2.662-0.858 0.474-0.154 0.973-0.294 1.382-0.563 0.678-0.448 0.832-1.344 0.461-2.189-0.358-0.819-1.139-1.344-1.882-1.088-0.538 0.179-1.011 0.602-1.446 0.986-0.486 0.422-0.883 0.947-1.37 1.382-0.282 0.256-0.627 0.499-0.986 0.64-0.666 0.269-1.229-0.026-1.229-0.73 0-0.64 0.128-1.331 0.384-1.933 0.371-0.858 0.858-1.664 1.357-2.458 0.435-0.691 0.461-1.382 0.038-2.035-0.461-0.717-1.216-0.858-2.010-0.755-0.768 0.090-1.293 0.55-1.421 1.293-0.102 0.602-0.064 1.254-0.038 1.869 0.026 0.768 0.166 1.549 0.128 2.317-0.013 0.32-0.256 0.742-0.525 0.896-0.397 0.218-0.781-0.064-1.075-0.397-0.666-0.742-0.896-1.677-1.139-2.598-0.179-0.691-0.371-1.395-0.589-2.086-0.243-0.806-0.755-1.331-1.638-1.434-0.947-0.102-1.69 0.218-2.214 1.037-0.627 0.96-0.371 2.022 0.55 2.752 0.819 0.64 1.587 1.357 2.291 2.125 0.538 0.589 0.742 1.344 0.384 2.112s-1.062 0.973-1.843 0.986c-1.331 0.013-2.419-0.55-3.302-1.485-0.934-0.986-2.202-0.947-3.123-0.448-0.896 0.474-1.37 1.843-1.075 2.893 0.192 0.678 0.614 1.178 1.306 1.318 0.704 0.141 1.421 0.192 2.138 0.205 1.382 0.013 2.739 0.038 4.045 0.563 0.64 0.256 1.165 0.64 1.51 1.254 0.589 1.011 0.525 1.958-0.23 2.854-0.294 0.346-0.64 0.627-0.986 0.922-0.512 0.422-0.666 0.934-0.474 1.549 0.538 1.715 2.381 1.882 3.494 1.229 0.499-0.294 0.627-0.845 0.666-1.408 0.064-0.896 0.154-1.792 0.269-2.688 0.154-1.165 1.126-1.638 1.984-1.779 0.781-0.128 1.37 0.256 1.613 1.024 0.704 2.163 0.627 4.339 0.102 6.515-0.282 1.152-0.704 2.266-1.101 3.392-0.064 0.179-0.333 0.397-0.525 0.41-3.635 0.358-7.13-0.141-10.368-1.907-2.56-1.395-4.621-3.392-6.003-5.926-1.088-1.984-1.536-4.237-1.779-6.49-0.333-2.995 0.013-5.914 1.408-8.627 2.432-4.774 6.323-7.629 11.558-8.627 3.725-0.73 7.36-0.205 10.829 1.37 1.728 0.781 3.136 1.984 4.403 3.418 2.445 2.765 3.315 6.067 3.494 9.613 0.090 1.792-0.026 3.597 0.013 5.402 0.051 3.635 0.154 7.283 0.218 10.918 0.013 0.858 0 0.858-0.87 0.858-0.986-0.013-1.984-0.013-2.97-0.013 0 0 0 0 0 0z"></path>
</svg>
