<!-- Generated by IcoMoon.io -->
<svg version="1.1" xmlns="http://www.w3.org/2000/svg" width="32" height="32" viewBox="0 0 32 32">
<title>AGI</title>
<path d="M17.27 0.691c0.804 0.79 1.524 1.665 2.173 2.596 1.524 2.723 1.453 6.053-0.198 8.691v0c-0.226 0.381-0.183 0.861 0.099 1.199 0.339 0.48 1.002 0.607 1.496 0.296 1.905-1.594 2.004-4.995 2.102-5.7 0-0.705-0.099-1.411-0.296-2.102-0.212-0.663-0.48-1.298-0.804-1.905-0.31-0.593-0.72-1.143-1.199-1.594-0.847-0.903-1.862-1.608-3.005-2.102-0.155-0.099-0.353-0.099-0.494 0-0.113 0.226-0.056 0.48 0.127 0.621z"></path>
<path d="M14.321 31.351c-0.818-0.79-1.552-1.665-2.201-2.596-1.524-2.723-1.453-6.053 0.198-8.691v0c0.296-0.339 0.296-0.861 0-1.199-0.339-0.48-1.002-0.607-1.496-0.296-1.905 1.594-2.004 4.995-2.102 5.7 0 0.705 0.099 1.411 0.296 2.102 0.212 0.663 0.48 1.298 0.804 1.905 0.31 0.593 0.72 1.143 1.199 1.594 0.847 0.903 1.862 1.608 3.005 2.102 0.099 0.099 0.296 0 0.395-0.099s0.099-0.325-0.099-0.522z"></path>
<path d="M22.956 23.097c-0.141-1.905-0.875-3.725-2.102-5.192-1.227-1.27-2.638-2.356-4.205-3.203-1.354-0.776-2.624-1.679-3.795-2.709-0.974-0.945-1.637-2.173-1.905-3.499-0.24-1.383-0.071-2.808 0.494-4.092 0.663-1.411 1.623-2.681 2.808-3.697 0.141-0.127 0.183-0.325 0.099-0.494-0.099-0.183-0.325-0.254-0.508-0.169-0.028 0.014-0.056 0.042-0.085 0.056-1.608 0.734-2.963 1.905-3.894 3.4-1.072 1.594-1.566 3.485-1.411 5.404 0.085 0.959 0.31 1.905 0.705 2.794 0.409 0.875 0.959 1.679 1.594 2.399 1.27 1.242 2.709 2.3 4.303 3.104 1.354 0.72 2.624 1.594 3.795 2.596 1.030 0.945 1.707 2.215 1.905 3.598 0.282 1.453 0.113 2.949-0.494 4.303-0.677 1.411-1.665 2.638-2.892 3.598-0.169 0.099-0.212 0.325-0.113 0.48 0 0 0.014 0.014 0.014 0.014 0.099 0.183 0.325 0.254 0.508 0.169 0.028-0.014 0.056-0.042 0.085-0.056 1.496-0.889 2.794-2.088 3.795-3.499 0.974-1.594 1.439-3.443 1.298-5.305z"></path>
</svg>
