<?xml version="1.0" encoding="utf-8"?>
<!-- Generator: Adobe Illustrator 22.0.1, SVG Export Plug-In . SVG Version: 6.00 Build 0)  -->
<svg version="1.1" id="Layer_1" xmlns="http://www.w3.org/2000/svg" xmlns:xlink="http://www.w3.org/1999/xlink" x="0px" y="0px"
	 viewBox="0 0 226.8 226.8" style="enable-background:new 0 0 226.8 226.8;" xml:space="preserve">
<style type="text/css">
	.st0{stroke:#FFFFFF;stroke-miterlimit:10;}
</style>
<path class="st0" d="M122.4,4.9c5.7,5.6,10.8,11.8,15.4,18.4c10.8,19.3,10.3,42.9-1.4,61.6l0,0c-1.6,2.7-1.3,6.1,0.7,8.5
	c2.4,3.4,7.1,4.3,10.6,2.1c13.5-11.3,14.2-35.4,14.9-40.4c0-5-0.7-10-2.1-14.9c-1.5-4.7-3.4-9.2-5.7-13.5c-2.2-4.2-5.1-8.1-8.5-11.3
	c-6-6.4-13.2-11.4-21.3-14.9c-1.1-0.7-2.5-0.7-3.5,0C120.7,2.1,121.1,3.9,122.4,4.9z"/>
<g>
	<path class="st0" d="M101.5,222.2c-5.8-5.6-11-11.8-15.6-18.4c-10.8-19.3-10.3-42.9,1.4-61.6l0,0c2.1-2.4,2.1-6.1,0-8.5
		c-2.4-3.4-7.1-4.3-10.6-2.1c-13.5,11.3-14.2,35.4-14.9,40.4c0,5,0.7,10,2.1,14.9c1.5,4.7,3.4,9.2,5.7,13.5
		c2.2,4.2,5.1,8.1,8.5,11.3c6,6.4,13.2,11.4,21.3,14.9c0.7,0.7,2.1,0,2.8-0.7S102.9,223.6,101.5,222.2z"/>
</g>
<g>
	<path class="st0" d="M162.7,163.7c-1-13.5-6.2-26.4-14.9-36.8c-8.7-9-18.7-16.7-29.8-22.7c-9.6-5.5-18.6-11.9-26.9-19.2
		c-6.9-6.7-11.6-15.4-13.5-24.8c-1.7-9.8-0.5-19.9,3.5-29C85.8,21.2,92.6,12.2,101,5c1-0.9,1.3-2.3,0.7-3.5
		c-0.7-1.3-2.3-1.8-3.6-1.2c-0.2,0.1-0.4,0.3-0.6,0.4c-11.4,5.2-21,13.5-27.6,24.1c-7.6,11.3-11.1,24.7-10,38.3
		c0.6,6.8,2.2,13.5,5,19.8c2.9,6.2,6.8,11.9,11.3,17c9,8.8,19.2,16.3,30.5,22c9.6,5.1,18.6,11.3,26.9,18.4
		c7.3,6.7,12.1,15.7,13.5,25.5c2,10.3,0.8,20.9-3.5,30.5c-4.8,10-11.8,18.7-20.5,25.5c-1.2,0.7-1.5,2.3-0.8,3.4c0,0,0.1,0.1,0.1,0.1
		c0.7,1.3,2.3,1.8,3.6,1.2c0.2-0.1,0.4-0.3,0.6-0.4c10.6-6.3,19.8-14.8,26.9-24.8C160.4,190,163.7,176.9,162.7,163.7z"/>
</g>
</svg>
