<!-- Generated by IcoMoon.io -->
<svg version="1.1" xmlns="http://www.w3.org/2000/svg" width="32" height="32" viewBox="0 0 32 32">
<title>AIDOC</title>
<path d="M15.21-0.056c0.381 0 0.748 0 1.129 0 4.064 2.356 8.113 4.741 12.19 7.055 0.945 0.536 1.411 1.228 1.397 2.3-0.014 4.501 0 8.988 0 13.489 0 0.847-0.268 1.524-1.086 1.989-3.993 2.272-7.958 4.571-11.922 6.899-0.818 0.48-1.538 0.423-2.328-0.042-3.894-2.272-7.802-4.529-11.725-6.773-0.847-0.48-1.228-1.129-1.228-2.074 0-4.571 0-9.157 0-13.728 0-0.847 0.367-1.467 1.115-1.891 0.917-0.508 1.792-1.044 2.695-1.566 3.259-1.891 6.519-3.781 9.764-5.658zM14.631 17.086c0-0.437 0.042-0.832-0.014-1.213-0.099-0.776 0.155-1.086 1.002-1.072 1.594 0.028 2.54-0.931 2.568-2.54 0.042-1.877 0-3.753-0.014-5.616 0-0.24-0.028-0.48-0.099-0.72-0.325-1.143-1.439-1.891-2.568-1.75-1.213 0.155-2.116 1.072-2.145 2.328-0.042 1.975-0.014 3.965-0.014 5.94 0 1.072 0 1.072-1.044 1.072-1.975 0.014-3.965-0.042-5.94 0.056-1.552 0.085-2.483 1.171-2.399 2.554 0.071 1.369 1.143 2.272 2.695 2.286 1.848 0.014 3.697 0 5.545 0 1.157 0 1.157 0 1.157 1.115 0 1.877 0 3.753 0 5.616 0 1.58 0.974 2.638 2.399 2.638s2.399-1.044 2.413-2.624c0.014-1.947 0.042-3.908 0.014-5.855-0.014-0.691 0.183-0.931 0.903-0.917 2.004 0.042 4.021 0.042 6.025 0 1.411-0.028 2.427-1.044 2.441-2.356 0.028-1.369-0.959-2.427-2.413-2.455-1.947-0.042-3.908-0.028-5.855 0-1.227 0.028-2.060 0.762-2.314 1.961-0.099 0.494-0.113 1.002-0.169 1.552-0.691 0-1.369 0-2.173 0z"></path>
<path d="M14.688 18.54c0.099-0.056 0.141-0.099 0.198-0.099 2.004-0.24 2.004-0.24 2.004 1.735 0.014 1.623 0.042 3.259 0.042 4.882 0 0.931-0.395 1.439-1.115 1.467-0.748 0.028-1.171-0.494-1.185-1.467-0.014-1.947 0-3.894 0-5.841 0-0.254 0.042-0.48 0.056-0.677z"></path>
<path d="M9.58 14.857c1.016 0 2.032 0.014 3.048-0.014 0.536-0.014 0.776 0.141 0.762 0.72-0.042 1.905 0.141 1.524-1.51 1.552-1.735 0.028-3.471 0.014-5.206 0-0.903 0-1.425-0.451-1.411-1.171s0.522-1.101 1.453-1.101c0.945 0.028 1.905 0.014 2.864 0.014z"></path>
<path d="M14.631 9.735c0-0.988-0.014-1.975 0-2.963 0.014-0.861 0.466-1.354 1.157-1.354 0.72 0.014 1.129 0.564 1.115 1.453-0.014 1.707-0.014 3.414-0.028 5.136 0 1.213-0.466 1.637-1.651 1.566-0.437-0.028-0.621-0.198-0.607-0.635 0.028-1.072 0.014-2.145 0.014-3.203z"></path>
<path d="M21.954 17.129c-0.903 0-1.82 0.028-2.723-0.014-0.381-0.014-0.959 0.282-1.016-0.508-0.071-1.002 0.183-1.594 0.889-1.735 0.381-0.085 0.79-0.056 1.199-0.056 1.552 0 3.090 0 4.642 0 0.607 0 1.115 0.183 1.326 0.818 0.254 0.762-0.296 1.467-1.185 1.481-1.058 0.028-2.088 0.014-3.132 0.014 0 0 0 0 0 0z"></path>
</svg>
