<?xml version="1.0" encoding="utf-8"?>
<!-- Generator: Adobe Illustrator 22.1.0, SVG Export Plug-In . SVG Version: 6.00 Build 0)  -->
<svg version="1.1" id="Layer_1" xmlns="http://www.w3.org/2000/svg" xmlns:xlink="http://www.w3.org/1999/xlink" x="0px" y="0px"
	 viewBox="0 0 226.8 226.8" style="enable-background:new 0 0 226.8 226.8;" xml:space="preserve">
<g>
	<path d="M107.8-0.4c2.7,0,5.3,0,8,0c28.8,16.7,57.5,33.6,86.4,50c6.7,3.8,10,8.7,9.9,16.3c-0.1,31.9,0,63.7,0,95.6
		c0,6-1.9,10.8-7.7,14.1c-28.3,16.1-56.4,32.4-84.5,48.9c-5.8,3.4-10.9,3-16.5-0.3c-27.6-16.1-55.3-32.1-83.1-48
		c-6-3.4-8.7-8-8.7-14.7c0-32.4,0-64.9,0-97.3c0-6,2.6-10.4,7.9-13.4c6.5-3.6,12.7-7.4,19.1-11.1C61.7,26.3,84.8,12.9,107.8-0.4z
		 M103.7,121.1c0-3.1,0.3-5.9-0.1-8.6c-0.7-5.5,1.1-7.7,7.1-7.6c11.3,0.2,18-6.6,18.2-18c0.3-13.3,0-26.6-0.1-39.8
		c0-1.7-0.2-3.4-0.7-5.1c-2.3-8.1-10.2-13.4-18.2-12.4c-8.6,1.1-15,7.6-15.2,16.5c-0.3,14-0.1,28.1-0.1,42.1c0,7.6,0,7.6-7.4,7.6
		c-14,0.1-28.1-0.3-42.1,0.4c-11,0.6-17.6,8.3-17,18.1c0.5,9.7,8.1,16.1,19.1,16.2c13.1,0.1,26.2,0,39.3,0c8.2,0,8.2,0,8.2,7.9
		c0,13.3,0,26.6,0,39.8c0,11.2,6.9,18.7,17,18.7c10.1,0,17-7.4,17.1-18.6c0.1-13.8,0.3-27.7,0.1-41.5c-0.1-4.9,1.3-6.6,6.4-6.5
		c14.2,0.3,28.5,0.3,42.7,0c10-0.2,17.2-7.4,17.3-16.7c0.2-9.7-6.8-17.2-17.1-17.4c-13.8-0.3-27.7-0.2-41.5,0
		c-8.7,0.2-14.6,5.4-16.4,13.9c-0.7,3.5-0.8,7.1-1.2,11C114.2,121.1,109.4,121.1,103.7,121.1z"/>
	<path d="M104.1,131.4c0.7-0.4,1-0.7,1.4-0.7c14.2-1.7,14.2-1.7,14.2,12.3c0.1,11.5,0.3,23.1,0.3,34.6c0,6.6-2.8,10.2-7.9,10.4
		c-5.3,0.2-8.3-3.5-8.4-10.4c-0.1-13.8,0-27.6,0-41.4C103.7,134.4,104,132.8,104.1,131.4z"/>
	<path d="M67.9,105.3c7.2,0,14.4,0.1,21.6-0.1c3.8-0.1,5.5,1,5.4,5.1c-0.3,13.5,1,10.8-10.7,11c-12.3,0.2-24.6,0.1-36.9,0
		c-6.4,0-10.1-3.2-10-8.3c0.1-5.1,3.7-7.8,10.3-7.8C54.3,105.4,61.1,105.3,67.9,105.3z"/>
	<path d="M103.7,69c0-7-0.1-14,0-21c0.1-6.1,3.3-9.6,8.2-9.6c5.1,0.1,8,4,7.9,10.3c-0.1,12.1-0.1,24.2-0.2,36.4
		c0,8.6-3.3,11.6-11.7,11.1c-3.1-0.2-4.4-1.4-4.3-4.5C103.8,84.1,103.7,76.5,103.7,69z"/>
	<path d="M155.6,121.4c-6.4,0-12.9,0.2-19.3-0.1c-2.7-0.1-6.8,2-7.2-3.6c-0.5-7.1,1.3-11.3,6.3-12.3c2.7-0.6,5.6-0.4,8.5-0.4
		c11,0,21.9,0,32.9,0c4.3,0,7.9,1.3,9.4,5.8c1.8,5.4-2.1,10.4-8.4,10.5C170.3,121.5,163,121.4,155.6,121.4
		C155.6,121.4,155.6,121.4,155.6,121.4z"/>
</g>
</svg>
