<!-- Generated by IcoMoon.io -->
<svg version="1.1" xmlns="http://www.w3.org/2000/svg" width="32" height="32" viewBox="0 0 32 32">
<title>AION</title>
<path d="M23.365 3.908c-0.071 0.113-0.212 0.141-0.31 0.071-2.159-1.27-4.628-1.947-7.139-1.933-2.314 0-4.586 0.564-6.617 1.637-0.113 0.056-0.254 0.014-0.31-0.085l-0.776-1.383c-0.056-0.113-0.028-0.254 0.085-0.31 0 0 0 0 0 0 2.342-1.256 4.966-1.905 7.619-1.905 2.892 0 5.714 0.776 8.212 2.229 0.113 0.071 0.141 0.212 0.085 0.325 0 0 0 0 0 0l-0.847 1.355z"></path>
<path d="M29.545 11.993c-0.522-1.764-1.397-3.414-2.554-4.854-0.085-0.099-0.071-0.24 0.028-0.324l0.959-0.79c0.099-0.085 0.254-0.071 0.339 0.028 1.326 1.637 2.3 3.471 2.892 5.474 0.042 0.127-0.042 0.254-0.155 0.282 0 0 0 0 0 0l-1.199 0.325c-0.155 0.042-0.282-0.028-0.31-0.141z"></path>
<path d="M26.159 28.035l-1.030-1.199c-0.085-0.099-0.071-0.24 0.028-0.325 2.991-2.61 4.727-6.335 4.797-10.286 0-0.127 0.099-0.226 0.226-0.226h1.58c0.127 0 0.24 0.099 0.24 0.24 0 0 0 0 0 0-0.071 4.543-2.060 8.832-5.517 11.824-0.099 0.085-0.24 0.071-0.325-0.028"></path>
<path d="M15.915 32c-3.654 0-7.21-1.242-10.060-3.513-0.099-0.085-0.113-0.226-0.028-0.325 0 0 0 0 0 0l1.016-1.213c0.085-0.099 0.226-0.113 0.325-0.028 2.483 1.961 5.573 3.048 8.762 3.048 2.201 0 4.303-0.494 6.25-1.453 0.113-0.056 0.254-0.014 0.31 0.099l0.734 1.397c0.056 0.113 0.014 0.254-0.099 0.31 0 0 0 0 0 0-2.243 1.101-4.713 1.679-7.21 1.679z"></path>
<path d="M2.822 24.578c-0.113 0.071-0.254 0.042-0.325-0.071 0 0 0 0 0 0-1.637-2.54-2.497-5.474-2.497-8.508 0-4.247 1.665-8.226 4.684-11.217 0.099-0.085 0.24-0.085 0.339 0l0.861 0.889c0.085 0.085 0.085 0.24 0 0.324-2.695 2.667-4.162 6.208-4.162 9.989 0 2.681 0.762 5.319 2.215 7.577 0.071 0.099 0.042 0.24-0.071 0.31l-1.044 0.705z"></path>
<path d="M15.915 26.413c-5.771 0-10.469-4.67-10.469-10.413s4.698-10.413 10.469-10.413 10.469 4.67 10.469 10.413-4.698 10.413-10.469 10.413zM15.915 7.619c-4.642 0-8.423 3.753-8.423 8.381s3.781 8.381 8.423 8.381 8.423-3.753 8.423-8.381-3.781-8.381-8.423-8.381z"></path>
</svg>
