<?xml version="1.0" encoding="utf-8"?>
<!-- Generator: Adobe Illustrator 22.0.1, SVG Export Plug-In . SVG Version: 6.00 Build 0)  -->
<svg version="1.1" id="Layer_1" xmlns="http://www.w3.org/2000/svg" xmlns:xlink="http://www.w3.org/1999/xlink" x="0px" y="0px"
	 viewBox="0 0 226.8 226.8" style="enable-background:new 0 0 226.8 226.8;" xml:space="preserve">
<style type="text/css">
	.st0{stroke:#FFFFFF;stroke-miterlimit:10;}
</style>
<path class="st0" d="M165.6,27.7c-0.5,0.8-1.5,1-2.2,0.5c-15.3-9-32.8-13.8-50.6-13.7c-16.4,0-32.5,4-46.9,11.6
	c-0.8,0.4-1.8,0.1-2.2-0.6l-5.5-9.8c-0.4-0.8-0.2-1.8,0.6-2.2c0,0,0,0,0,0C75.4,4.6,94,0,112.8,0c20.5,0,40.5,5.5,58.2,15.8
	c0.8,0.5,1,1.5,0.6,2.3c0,0,0,0,0,0L165.6,27.7z"/>
<path class="st0" d="M209.4,85c-3.7-12.5-9.9-24.2-18.1-34.4c-0.6-0.7-0.5-1.7,0.2-2.3l6.8-5.6c0.7-0.6,1.8-0.5,2.4,0.2
	c9.4,11.6,16.3,24.6,20.5,38.8c0.3,0.9-0.3,1.8-1.1,2c0,0,0,0,0,0l-8.5,2.3C210.5,86.3,209.6,85.8,209.4,85z"/>
<g>
	<path class="st0" d="M185.4,198.7l-7.3-8.5c-0.6-0.7-0.5-1.7,0.2-2.3c21.2-18.5,33.5-44.9,34-72.9c0-0.9,0.7-1.6,1.6-1.6h11.2
		c0.9,0,1.7,0.7,1.7,1.7c0,0,0,0,0,0c-0.5,32.2-14.6,62.6-39.1,83.8C187,199.5,186,199.4,185.4,198.7"/>
	<path class="st0" d="M112.8,226.8c-25.9,0-51.1-8.8-71.3-24.9c-0.7-0.6-0.8-1.6-0.2-2.3c0,0,0,0,0,0l7.2-8.6
		c0.6-0.7,1.6-0.8,2.3-0.2c17.6,13.9,39.5,21.6,62.1,21.6c15.6,0,30.5-3.5,44.3-10.3c0.8-0.4,1.8-0.1,2.2,0.7l5.2,9.9
		c0.4,0.8,0.1,1.8-0.7,2.2c0,0,0,0,0,0C148,222.7,130.5,226.8,112.8,226.8z"/>
</g>
<path class="st0" d="M20,174.2c-0.8,0.5-1.8,0.3-2.3-0.5c0,0,0,0,0,0C6.1,155.7,0,134.9,0,113.4c0-30.1,11.8-58.3,33.2-79.5
	c0.7-0.6,1.7-0.6,2.4,0l6.1,6.3c0.6,0.6,0.6,1.7,0,2.3c-19.1,18.9-29.5,44-29.5,70.8c0,19,5.4,37.7,15.7,53.7
	c0.5,0.7,0.3,1.7-0.5,2.2L20,174.2z"/>
<path class="st0" d="M112.8,187.2c-40.9,0-74.2-33.1-74.2-73.8s33.3-73.8,74.2-73.8S187,72.7,187,113.4S153.7,187.2,112.8,187.2z
	 M112.8,54c-32.9,0-59.7,26.6-59.7,59.4s26.8,59.4,59.7,59.4s59.7-26.6,59.7-59.4S145.7,54,112.8,54z"/>
</svg>
