<?xml version="1.0" encoding="utf-8"?>
<!-- Generator: Adobe Illustrator 22.1.0, SVG Export Plug-In . SVG Version: 6.00 Build 0)  -->
<svg version="1.1" id="Layer_1" xmlns="http://www.w3.org/2000/svg" xmlns:xlink="http://www.w3.org/1999/xlink" x="0px" y="0px"
	 viewBox="0 0 226.8 226.8" style="enable-background:new 0 0 226.8 226.8;" xml:space="preserve">
<g>
	<path d="M226.8,43.7c0,22.3,0,44.6,0,66.9c-0.4,19.4-0.8,38.8-1.2,58.3c-0.1,3.2-0.1,6.4-0.6,9.6c-1.2,7.5-3.3,9.2-10.9,9.3
		c-10.4,0.1-20.9-0.6-31.1,0.4c-9.5,1-14.4-2.8-18.6-10.8c-18.9-36.1-38.3-72-57.5-108c-1.4-2.6-3.1-5-5.4-8.7
		C83.9,93,67,124.2,49.4,156.5c3.8,0.2,5.8,0.4,7.8,0.4c17.6,0,35.1,0.1,52.7-0.1c4.2,0,7.1,1.1,9.3,4.9c3.1,5.4,6.6,10.5,9.8,15.9
		c4.4,7.6,2.9,10.1-5.9,10.1c-20.4,0.1-40.8,0.3-61.2,0.3c-14.4,0-28.7,0-43-0.4c-7.7-0.2-15.1-2-18.8-10.1c0-1.9,0-3.8,0-5.7
		c0.2-0.7,0.2-1.5,0.5-2.2c6.5-13.2,12.8-26.5,19.7-39.5c13.9-26,28.2-51.7,42.3-77.6c4.2-7.8,10.1-12,19.6-11.6
		c12.4,0.6,25,0.7,37.4,0c10.9-0.7,17.2,4.4,22.1,13.3c13.9,25.3,28.1,50.5,42.2,75.8c0.9,1.7,2,3.2,3,4.9
		c1.2-10.5,1.2-20.5,1.2-30.5c0.1-18.1,0.1-36.3,0.3-54.4c0.1-7.8,2.3-10.1,10.2-10.4c6-0.2,12.1-0.5,18.1,0.1
		C220.1,40.2,223.4,42.3,226.8,43.7z"/>
</g>
</svg>
