<!-- Generated by IcoMoon.io -->
<svg version="1.1" xmlns="http://www.w3.org/2000/svg" width="32" height="32" viewBox="0 0 32 32">
<title>AIT</title>
<path d="M32 6.166c0 3.146 0 6.293 0 9.439-0.056 2.737-0.113 5.474-0.169 8.226-0.014 0.451-0.014 0.903-0.085 1.355-0.169 1.058-0.466 1.298-1.538 1.312-1.467 0.014-2.949-0.085-4.388 0.056-1.34 0.141-2.032-0.395-2.624-1.524-2.667-5.093-5.404-10.159-8.113-15.238-0.198-0.367-0.437-0.705-0.762-1.227-2.483 4.557-4.868 8.959-7.351 13.517 0.536 0.028 0.818 0.056 1.101 0.056 2.483 0 4.952 0.014 7.436-0.014 0.593 0 1.002 0.155 1.312 0.691 0.437 0.762 0.931 1.481 1.383 2.243 0.621 1.072 0.409 1.425-0.832 1.425-2.878 0.014-5.757 0.042-8.635 0.042-2.032 0-4.049 0-6.067-0.056-1.086-0.028-2.131-0.282-2.653-1.425 0-0.268 0-0.536 0-0.804 0.028-0.099 0.028-0.212 0.071-0.31 0.917-1.862 1.806-3.739 2.78-5.573 1.961-3.668 3.979-7.295 5.968-10.949 0.593-1.101 1.425-1.693 2.765-1.637 1.75 0.085 3.527 0.099 5.277 0 1.538-0.099 2.427 0.621 3.118 1.877 1.961 3.57 3.965 7.125 5.954 10.695 0.127 0.24 0.282 0.451 0.423 0.691 0.169-1.481 0.169-2.892 0.169-4.303 0.014-2.554 0.014-5.122 0.042-7.676 0.014-1.101 0.325-1.425 1.439-1.467 0.847-0.028 1.707-0.071 2.554 0.014 0.48 0.071 0.945 0.367 1.425 0.564z"></path>
</svg>
