<!-- Generated by IcoMoon.io -->
<svg version="1.1" xmlns="http://www.w3.org/2000/svg" width="32" height="32" viewBox="0 0 32 32">
<title>AMB</title>
<path d="M16.038 25.344c-6.707-0.128-11.891-3.021-15.654-8.55-0.026-0.051-0.051-0.102-0.090-0.141-0.333-0.435-0.32-0.845-0.013-1.318 1.677-2.598 3.853-4.685 6.528-6.246 2.291-1.344 4.774-2.138 7.424-2.355 5.734-0.486 10.701 1.216 14.848 5.235 1.050 1.011 1.958 2.15 2.752 3.379 0.282 0.448 0.282 0.832 0 1.28-1.818 2.816-4.198 5.030-7.155 6.618-2.701 1.434-5.581 2.099-8.64 2.099zM10.957 8.909c-0.179 0.064-0.32 0.102-0.461 0.154-3.635 1.28-6.502 3.571-8.73 6.694-0.141 0.192-0.102 0.32 0.013 0.499 0.832 1.165 1.779 2.227 2.854 3.187 1.702 1.51 3.597 2.662 5.734 3.43 0.090 0.038 0.192 0.051 0.282 0.077 0.013-0.026 0.038-0.051 0.051-0.077-0.051-0.026-0.102-0.051-0.141-0.090-1.562-1.293-2.573-2.918-3.021-4.89-0.026-0.115-0.128-0.243-0.23-0.32-0.397-0.307-0.474-0.832-0.192-1.229 0.269-0.371 0.832-0.448 1.203-0.166s0.461 0.832 0.154 1.203c-0.154 0.179-0.154 0.333-0.102 0.538 0.986 3.763 4.416 6.554 9.152 5.824 1.126-0.179 2.15-0.653 3.085-1.318 0.192-0.141 0.397-0.243 0.614-0.077 0.205 0.166 0.179 0.371 0.077 0.589 0 0.013 0.013 0.026 0.026 0.038 0.013 0 0.038 0 0.051-0.013 3.725-1.28 6.656-3.597 8.922-6.797 0.115-0.154 0.077-0.256-0.026-0.397-2.086-2.957-4.787-5.158-8.166-6.502-0.282-0.115-0.576-0.205-0.87-0.307 0.038 0.102 0.115 0.166 0.179 0.23 1.498 1.203 2.509 2.726 3.008 4.582 0.051 0.179 0.128 0.282 0.294 0.371 0.448 0.243 0.576 0.781 0.32 1.216-0.243 0.397-0.781 0.525-1.19 0.294-0.422-0.243-0.563-0.794-0.294-1.203 0.102-0.166 0.115-0.294 0.077-0.461-1.229-4.467-5.926-6.989-10.381-5.35-0.614 0.23-1.178 0.602-1.766 0.922-0.179 0.102-0.358 0.141-0.525 0.013-0.166-0.141-0.192-0.32-0.090-0.512 0.038-0.038 0.051-0.077 0.090-0.154z"></path>
<path d="M23.066 16.013c0 3.917-3.136 7.040-7.078 7.040-3.827 0-6.976-3.174-6.963-7.014 0-3.942 3.149-7.066 7.104-7.066 3.814 0.013 6.938 3.174 6.938 7.040zM16.051 9.792c-3.418-0.013-6.234 2.765-6.246 6.195-0.013 3.405 2.778 6.208 6.182 6.234 3.43 0.026 6.246-2.752 6.272-6.131 0.013-3.469-2.752-6.272-6.208-6.298z"></path>
<path d="M24.678 17.037c-0.115 1.024-0.384 2.022-0.896 2.931-0.358 0.627-0.806 1.216-1.229 1.805-0.192 0.269-0.461 0.282-0.653 0.115-0.192-0.179-0.192-0.397 0.026-0.64 1.062-1.216 1.715-2.624 1.92-4.237 0.038-0.32 0.218-0.461 0.474-0.435 0.23 0.026 0.371 0.205 0.358 0.461z"></path>
<path d="M7.45 14.72c0.128-0.883 0.371-1.766 0.819-2.56 0.384-0.678 0.87-1.306 1.318-1.946 0.038-0.051 0.090-0.102 0.141-0.141 0.179-0.154 0.371-0.192 0.55-0.026 0.179 0.154 0.166 0.358 0.013 0.576-0.371 0.499-0.781 0.986-1.114 1.523-0.512 0.819-0.781 1.741-0.947 2.688-0.051 0.269-0.205 0.384-0.448 0.358-0.218-0.038-0.346-0.205-0.333-0.474z"></path>
<path d="M16.090 20.288c-0.435 0-0.858 0-1.293 0-0.448-0.013-0.627-0.243-0.55-0.666 0.192-1.139 0.371-2.278 0.576-3.418 0.038-0.192-0.038-0.294-0.166-0.41-1.293-1.178-0.934-3.213 0.666-3.827 1.011-0.384 2.163 0.013 2.726 0.934 0.563 0.934 0.384 2.15-0.448 2.867-0.179 0.154-0.218 0.294-0.179 0.525 0.192 1.114 0.371 2.214 0.55 3.328 0.064 0.422-0.115 0.64-0.55 0.653-0.461 0.026-0.896 0.013-1.331 0.013z"></path>
</svg>
