<?xml version="1.0" encoding="utf-8"?>
<!-- Generator: Adobe Illustrator 22.1.0, SVG Export Plug-In . SVG Version: 6.00 Build 0)  -->
<svg version="1.1" id="Layer_1" xmlns="http://www.w3.org/2000/svg" xmlns:xlink="http://www.w3.org/1999/xlink" x="0px" y="0px"
	 viewBox="0 0 250 250" style="enable-background:new 0 0 250 250;" xml:space="preserve">
<g>
	<path d="M125.3,198C72.9,197,32.4,174.4,3,131.2c-0.2-0.4-0.4-0.8-0.7-1.1c-2.6-3.4-2.5-6.6-0.1-10.3c13.1-20.3,30.1-36.6,51-48.8
		c17.9-10.5,37.3-16.7,58-18.4c44.8-3.8,83.6,9.5,116,40.9c8.2,7.9,15.3,16.8,21.5,26.4c2.2,3.5,2.2,6.5,0,10
		c-14.2,22-32.8,39.3-55.9,51.7C171.7,192.8,149.2,198,125.3,198z M85.6,69.6c-1.4,0.5-2.5,0.8-3.6,1.2
		c-28.4,10-50.8,27.9-68.2,52.3c-1.1,1.5-0.8,2.5,0.1,3.9c6.5,9.1,13.9,17.4,22.3,24.9c13.3,11.8,28.1,20.8,44.8,26.8
		c0.7,0.3,1.5,0.4,2.2,0.6c0.1-0.2,0.3-0.4,0.4-0.6c-0.4-0.2-0.8-0.4-1.1-0.7c-12.2-10.1-20.1-22.8-23.6-38.2
		c-0.2-0.9-1-1.9-1.8-2.5c-3.1-2.4-3.7-6.5-1.5-9.6c2.1-2.9,6.5-3.5,9.4-1.3c2.9,2.2,3.6,6.5,1.2,9.4c-1.2,1.4-1.2,2.6-0.8,4.2
		c7.7,29.4,34.5,51.2,71.5,45.5c8.8-1.4,16.8-5.1,24.1-10.3c1.5-1.1,3.1-1.9,4.8-0.6c1.6,1.3,1.4,2.9,0.6,4.6c0,0.1,0.1,0.2,0.2,0.3
		c0.1,0,0.3,0,0.4-0.1c29.1-10,52-28.1,69.7-53.1c0.9-1.2,0.6-2-0.2-3.1c-16.3-23.1-37.4-40.3-63.8-50.8c-2.2-0.9-4.5-1.6-6.8-2.4
		c0.3,0.8,0.9,1.3,1.4,1.8c11.7,9.4,19.6,21.3,23.5,35.8c0.4,1.4,1,2.2,2.3,2.9c3.5,1.9,4.5,6.1,2.5,9.5c-1.9,3.1-6.1,4.1-9.3,2.3
		c-3.3-1.9-4.4-6.2-2.3-9.4c0.8-1.3,0.9-2.3,0.6-3.6c-9.6-34.9-46.3-54.6-81.1-41.8c-4.8,1.8-9.2,4.7-13.8,7.2
		c-1.4,0.8-2.8,1.1-4.1,0.1c-1.3-1.1-1.5-2.5-0.7-4C85.2,70.5,85.3,70.2,85.6,69.6z"/>
	<path d="M180.2,125.1c0,30.6-24.5,55-55.3,55c-29.9,0-54.5-24.8-54.4-54.8c0-30.8,24.6-55.2,55.5-55.2
		C155.8,70.2,180.2,94.9,180.2,125.1z M125.4,76.5c-26.7-0.1-48.7,21.6-48.8,48.4c-0.1,26.6,21.7,48.5,48.3,48.7
		c26.8,0.2,48.8-21.5,49-47.9C174,98.6,152.4,76.7,125.4,76.5z"/>
	<path d="M192.8,133.1c-0.9,8-3,15.8-7,22.9c-2.8,4.9-6.3,9.5-9.6,14.1c-1.5,2.1-3.6,2.2-5.1,0.9c-1.5-1.4-1.5-3.1,0.2-5
		c8.3-9.5,13.4-20.5,15-33.1c0.3-2.5,1.7-3.6,3.7-3.4C191.8,129.7,192.9,131.1,192.8,133.1z"/>
	<path d="M58.2,115c1-6.9,2.9-13.8,6.4-20c3-5.3,6.8-10.2,10.3-15.2c0.3-0.4,0.7-0.8,1.1-1.1c1.4-1.2,2.9-1.5,4.3-0.2
		c1.4,1.2,1.3,2.8,0.1,4.5c-2.9,3.9-6.1,7.7-8.7,11.9c-4,6.4-6.1,13.6-7.4,21c-0.4,2.1-1.6,3-3.5,2.8
		C59.1,118.4,58.1,117.1,58.2,115z"/>
	<path d="M125.7,158.5c-3.4,0-6.7,0-10.1,0c-3.5-0.1-4.9-1.9-4.3-5.2c1.5-8.9,2.9-17.8,4.5-26.7c0.3-1.5-0.3-2.3-1.3-3.2
		c-10.1-9.2-7.3-25.1,5.2-29.9c7.9-3,16.9,0.1,21.3,7.3c4.4,7.3,3,16.8-3.5,22.4c-1.4,1.2-1.7,2.3-1.4,4.1c1.5,8.7,2.9,17.3,4.3,26
		c0.5,3.3-0.9,5-4.3,5.1C132.5,158.6,129.1,158.5,125.7,158.5z"/>
</g>
</svg>
