<!-- Generated by IcoMoon.io -->
<svg version="1.1" xmlns="http://www.w3.org/2000/svg" width="32" height="32" viewBox="0 0 32 32">
<title>AMP</title>
<path d="M16 0c-8.837 0-16 7.163-16 16s7.163 16 16 16c8.836 0 16-7.163 16-16s-7.164-16-16-16zM7.979 15.97c0-1.931 1.565-3.495 3.496-3.495s3.495 1.565 3.495 3.495c0 1.931-1.565 3.495-3.495 3.495s-3.496-1.565-3.496-3.495zM22.25 19.466c-2.727 0-4.937 2.21-4.937 4.937 0 1.931-1.565 3.495-3.496 3.495s-3.495-1.565-3.495-3.495c0-1.93 1.565-3.495 3.495-3.495 2.727 0 4.937-2.21 4.937-4.937s-2.211-4.937-4.937-4.937l0.002-0.002c-0.013 0-0.025 0.002-0.038 0.002-1.931 0-3.496-1.565-3.496-3.496s1.565-3.496 3.496-3.496c1.93 0 3.495 1.565 3.495 3.496h0c0 2.727 2.21 4.937 4.937 4.937l-0.002 0.002c0.013-0 0.025-0.002 0.038-0.002 1.931 0 3.496 1.565 3.496 3.495s-1.565 3.495-3.496 3.495z"></path>
</svg>
