<!-- Generated by IcoMoon.io -->
<svg version="1.1" xmlns="http://www.w3.org/2000/svg" width="32" height="32" viewBox="0 0 32 32">
<title>ANC</title>
<path d="M25.572 24.23h-19.115l-1.724 3.13c2.892 2.868 6.872 4.64 11.266 4.64 4.403 0 8.39-1.779 11.283-4.656l-1.71-3.114zM16 0c-8.837 0-16 7.164-16 16 0 3.19 0.934 6.163 2.544 8.659l13.456-24.659zM32 16c0-8.836-7.163-16-16-16l13.441 24.682c1.619-2.501 2.559-5.481 2.559-8.682zM11.441 15.089h9.131l-4.573-8.361zM8.181 21.070h15.663l-1.542-2.821h-12.583z"></path>
</svg>
