<?xml version="1.0" encoding="utf-8"?>
<!-- Generator: Adobe Illustrator 22.0.1, SVG Export Plug-In . SVG Version: 6.00 Build 0)  -->
<svg version="1.1" id="Layer_1" xmlns="http://www.w3.org/2000/svg" xmlns:xlink="http://www.w3.org/1999/xlink" x="0px" y="0px"
	 viewBox="0 0 226.8 226.8" style="enable-background:new 0 0 226.8 226.8;" xml:space="preserve">
<style type="text/css">
	.st0{stroke:#FFFFFF;stroke-miterlimit:10;}
</style>
<g transform="translate(4.08-60.06)">
	<path class="st0" d="M187.2,215c-2.4,3-4,4.8-4,4.8c-41,0.4-38.7-22.6-38.7-22.6c0-0.8,0-1.6,0.1-2.4c0,0,1.6-15.8,15.4-15.8
		c1.8-0.1,3.6,0.3,5.1,1.2c7.2,3.9,2.5,11.2,2.5,11.2c9-1.4,20.2-11.6,18.4-29.3c-1.8-17.7-22.9-26.8-22.9-26.8c0.7-4,0-5.4,0-5.4
		c-44.8-27.1-79.7-21.2-79.7-21.2l8.7,8.7c-0.9-0.1-1.8-0.1-2.7-0.1c-36.3,1.3-65.4,31.8-65.4,69.3c0,13.3,4.4,21,8.5,29.9
		c-3.3-4.3-7.2-10.3-10.3-15.5l0.9,3.4c0,0,26.4,54.3,86,74.4c0,0,55.8-23.1,79.8-62.4L187.2,215z M128,127.9
		c11.9-0.1,22.7,2.7,30.6,7.5c0,0-4.3-1.4-8.6-2c-2.2,2.2-4,3.2-4.6,3.5l0,0l-0.1,0.1C132.5,134.4,128,127.9,128,127.9z"/>
	<path class="st0" d="M221.7,131.9c-43.5-36.8-98.5-56-109.9-59.7l-1.1-0.4l-1.4-0.4l-2.5,0.8C95.3,76,40.4,95.1-3.1,131.9l-0.9,0.8
		l0.2,1.2c0.1,0.3,4.8,28.3,20.8,59.8c9.5,18.6,21,34.7,34.1,48c16.1,16.3,34.9,28.4,55.8,35.9l1.2,0.4l1.2,0.4l1.3-0.5l1.2-0.4
		c20.9-7.5,39.6-19.6,55.8-35.9c13.1-13.3,24.6-29.5,34.1-48c16-31.5,20.8-59.5,20.8-59.8l0.2-1.2L221.7,131.9L221.7,131.9
		L221.7,131.9L221.7,131.9z M197.7,191.8c-9.2,18.1-20.5,34-33.3,47c-16,16.1-34.5,28-55.1,35.3c-20.7-7.3-39.2-19.1-55.1-35.2
		c-12.9-13-24.1-28.8-33.3-46.9C6.9,164.6,1.7,140.1,0.6,134.5c44.6-37.4,100.9-56,108.7-58.5c7.7,2.5,64.1,21.1,108.7,58.5
		C216.9,140,211.6,164.5,197.7,191.8z"/>
</g>
</svg>
