<!-- Generated by IcoMoon.io -->
<svg version="1.1" xmlns="http://www.w3.org/2000/svg" width="32" height="32" viewBox="0 0 32 32">
<title>ANT</title>
<path d="M26.988 21.861c-0.339 0.423-0.564 0.677-0.564 0.677-5.785 0.056-5.46-3.189-5.46-3.189 0-0.113 0-0.226 0.014-0.339 0 0 0.226-2.229 2.173-2.229 0.254-0.014 0.508 0.042 0.72 0.169 1.016 0.55 0.353 1.58 0.353 1.58 1.27-0.198 2.85-1.637 2.596-4.134s-3.231-3.781-3.231-3.781c0.099-0.564 0-0.762 0-0.762-6.321-3.824-11.245-2.991-11.245-2.991l1.227 1.228c-0.127-0.014-0.254-0.014-0.381-0.014-5.122 0.183-9.227 4.487-9.227 9.778 0 1.877 0.621 2.963 1.199 4.219-0.466-0.607-1.016-1.453-1.453-2.187l0.127 0.48c0 0 3.725 7.661 12.134 10.497 0 0 7.873-3.259 11.259-8.804l-0.24-0.198zM18.636 9.572c1.679-0.014 3.203 0.381 4.317 1.058 0 0-0.607-0.198-1.213-0.282-0.31 0.31-0.564 0.451-0.649 0.494v0l-0.014 0.014c-1.806-0.367-2.441-1.284-2.441-1.284z"></path>
<path d="M31.856 10.136c-6.138-5.192-13.898-7.901-15.506-8.423l-0.155-0.056-0.198-0.056-0.353 0.113c-1.623 0.536-9.369 3.231-15.506 8.423l-0.127 0.113 0.028 0.169c0.014 0.042 0.677 3.993 2.935 8.437 1.34 2.624 2.963 4.896 4.811 6.773 2.272 2.3 4.924 4.007 7.873 5.065l0.339 0.113 0.183-0.071 0.169-0.056c2.949-1.058 5.587-2.765 7.873-5.065 1.848-1.877 3.471-4.162 4.811-6.773 2.258-4.444 2.935-8.395 2.935-8.437l0.028-0.169-0.141-0.099zM28.47 18.588c-1.298 2.554-2.892 4.797-4.698 6.631-2.258 2.272-4.868 3.951-7.774 4.981-2.921-1.030-5.531-2.695-7.774-4.966-1.82-1.834-3.4-4.064-4.698-6.617-1.975-3.866-2.709-7.323-2.864-8.113 6.293-5.277 14.236-7.901 15.337-8.254 1.086 0.353 9.044 2.977 15.337 8.254-0.155 0.776-0.903 4.233-2.864 8.085z"></path>
</svg>
