<!-- Generated by IcoMoon.io -->
<svg version="1.1" xmlns="http://www.w3.org/2000/svg" width="32" height="32" viewBox="0 0 32 32">
<title>ANYBITS</title>
<path d="M12.6 16.409c0-1.115 0.014-2.229 0-3.344-0.014-0.437 0.085-0.79 0.564-0.889 0.339-0.071 0.494-0.296 0.593-0.593 0.071-0.24 0.183-0.466 0.466-0.395 0.141 0.042 0.325 0.226 0.353 0.367 0.099 0.451 0.367 0.578 0.776 0.578 0.409 0.014 0.79 0 0.959-0.48 0.085-0.24 0.212-0.522 0.55-0.437 0.282 0.056 0.466 0.226 0.48 0.536 0.028 0.339 0.254 0.48 0.564 0.593 0.268 0.099 0.536 0.254 0.748 0.437 0.72 0.621 1.171 1.566 0.578 2.511-0.071 0.113-0.071 0.268-0.155 0.353-0.409 0.466-0.367 0.875 0.014 1.383 0.607 0.804 0.536 1.679-0.056 2.455-0.268 0.353-0.663 0.635-1.058 0.832-0.353 0.169-0.607 0.31-0.663 0.734-0.028 0.169-0.254 0.423-0.409 0.437s-0.451-0.169-0.508-0.339c-0.212-0.621-0.677-0.635-1.185-0.593-0.282 0.028-0.508 0.141-0.578 0.437-0.056 0.254-0.071 0.536-0.451 0.522-0.367-0.014-0.339-0.339-0.48-0.536-0.127-0.169-0.296-0.381-0.48-0.409-0.522-0.099-0.607-0.423-0.593-0.847-0.028-1.086-0.028-2.201-0.028-3.316zM15.675 13.093c0 0 0 0 0 0-0.522 0-1.044 0-1.58 0-0.367 0-0.536 0.183-0.536 0.55 0 0.522 0.014 1.044 0 1.58-0.014 0.451 0.169 0.663 0.635 0.649 0.945-0.014 1.905 0.014 2.85-0.014 0.748-0.014 1.411-0.649 1.453-1.326 0.042-0.691-0.663-1.397-1.439-1.425-0.466-0.028-0.931-0.014-1.383-0.014zM15.675 19.612c0 0 0 0 0 0 0.522 0 1.044 0.028 1.566-0.014 0.564-0.042 1.143-0.635 1.242-1.213 0.085-0.536-0.296-1.143-0.903-1.355-0.24-0.085-0.508-0.169-0.762-0.183-0.889-0.028-1.764 0-2.653-0.014-0.395 0-0.621 0.155-0.621 0.578 0 0.55 0 1.115 0 1.665 0 0.367 0.169 0.536 0.536 0.536 0.536 0 1.072 0 1.594 0z"></path>
<path d="M3.88 24.832c0-1.665 1.75-3.076 3.668-2.568 0.705 0.183 1.171 0.113 1.608-0.451 0.254-0.339 0.578-0.621 0.903-0.903 0.198-0.169 0.409-0.367 0.649-0.423 0.226-0.042 0.564 0.014 0.705 0.155 0.127 0.141 0.155 0.494 0.085 0.705-0.099 0.254-0.339 0.466-0.55 0.677-0.339 0.353-0.691 0.691-1.044 1.030-0.339 0.325-0.451 0.621-0.24 1.115 0.48 1.129 0.099 2.384-0.748 3.132-0.974 0.847-2.102 1.086-3.287 0.536-1.143-0.508-1.764-1.425-1.75-3.005zM5.291 25.171c0.014 0.903 0.734 1.58 1.637 1.538 0.832-0.042 1.481-0.691 1.496-1.51 0.014-0.903-0.705-1.679-1.566-1.637-0.903 0.056-1.651 0.635-1.566 1.608z"></path>
<path d="M3.88 6.871c-0.127-1.101 0.832-2.455 1.891-2.85 1.002-0.381 2.427-0.141 3.189 0.691 0.832 0.903 1.171 1.975 0.677 3.16-0.169 0.409-0.141 0.663 0.169 0.959 0.381 0.367 0.748 0.734 1.115 1.115 0.155 0.169 0.325 0.325 0.48 0.494 0.24 0.282 0.268 0.593 0.056 0.903-0.183 0.268-0.649 0.31-0.988 0.071-0.212-0.141-0.395-0.353-0.578-0.536-0.254-0.254-0.536-0.494-0.762-0.762-0.395-0.48-0.79-0.593-1.453-0.409-1.975 0.536-3.781-0.861-3.795-2.836zM6.885 8.381c0.903-0.014 1.552-0.663 1.538-1.538-0.014-0.903-0.748-1.623-1.623-1.594-0.889 0.028-1.51 0.677-1.51 1.566 0 0.959 0.635 1.58 1.594 1.566z"></path>
<path d="M22.222 24.832c0.014-0.141 0-0.494 0.127-0.776 0.183-0.466 0-0.748-0.31-1.030-0.381-0.353-0.748-0.734-1.115-1.115-0.141-0.141-0.282-0.282-0.367-0.451-0.155-0.31-0.169-0.649 0.113-0.903 0.296-0.254 0.621-0.198 0.889 0.042 0.466 0.423 0.917 0.847 1.326 1.312 0.381 0.451 0.748 0.55 1.34 0.381 1.623-0.48 3.175 0.367 3.725 1.862 0.409 1.143 0.141 2.159-0.621 3.005-0.748 0.832-1.764 1.101-2.864 0.875-1.383-0.282-2.286-1.496-2.243-3.203zM26.751 25.143c-0.028-0.847-0.861-1.623-1.707-1.58-0.861 0.042-1.481 0.734-1.453 1.651 0.028 0.889 0.705 1.538 1.594 1.51 0.875-0.028 1.594-0.762 1.566-1.58z"></path>
<path d="M25.157 9.848c-0.381-0.071-0.776-0.113-1.143-0.226s-0.621-0.056-0.889 0.212c-0.381 0.409-0.79 0.79-1.185 1.171-0.169 0.155-0.325 0.381-0.522 0.437-0.226 0.071-0.536 0.071-0.734-0.042-0.141-0.085-0.226-0.395-0.198-0.607 0.014-0.212 0.155-0.423 0.296-0.593 0.212-0.254 0.437-0.494 0.691-0.705 0.72-0.564 1.016-1.171 0.804-2.173-0.367-1.721 0.593-2.765 1.75-3.259 1.058-0.452 2.074-0.282 2.949 0.437 0.917 0.762 1.326 1.721 1.086 2.963-0.268 1.369-1.764 2.483-2.907 2.384zM25.171 8.395c0.875-0.014 1.58-0.677 1.58-1.524 0-0.861-0.748-1.608-1.637-1.623-0.875 0-1.524 0.649-1.524 1.552 0 1.016 0.578 1.594 1.58 1.594z"></path>
<path d="M29.023 18.864c-1.143 0.014-2.060-0.437-2.568-1.481-0.282-0.564-0.677-0.734-1.256-0.705-0.494 0.028-0.988 0.014-1.481 0-0.198 0-0.409-0.014-0.578-0.099-0.268-0.127-0.564-0.339-0.451-0.663 0.085-0.24 0.353-0.423 0.578-0.578 0.113-0.085 0.325-0.028 0.48-0.042 0.423 0 0.861-0.042 1.284 0 0.691 0.071 1.101-0.155 1.467-0.804 0.889-1.566 2.977-1.891 4.346-0.776 1.002 0.818 1.326 2.032 0.889 3.273-0.381 1.157-1.425 1.877-2.709 1.877zM28.995 17.467c0.974 0.014 1.552-0.536 1.566-1.467 0-0.832-0.705-1.538-1.58-1.538-0.889 0-1.411 0.564-1.467 1.467-0.056 0.988 0.649 1.608 1.481 1.538z"></path>
<path d="M3.019 18.85c-1.199 0.099-2.61-0.663-2.977-2.384-0.268-1.284 0.55-2.765 1.848-3.203 1.439-0.48 3.005 0.028 3.612 1.34 0.282 0.607 0.635 0.734 1.199 0.705 0.522-0.028 1.044-0.014 1.566 0 0.593 0.014 0.931 0.254 0.945 0.649 0.014 0.409-0.367 0.705-0.988 0.734-0.522 0.014-1.044 0.014-1.566 0-0.536-0.014-0.875 0.183-1.157 0.691-0.522 0.945-1.326 1.58-2.483 1.467zM2.977 17.467c0.861-0.014 1.538-0.635 1.538-1.425 0.014-0.889-0.734-1.608-1.637-1.58-0.847 0.028-1.481 0.691-1.481 1.51 0 0.875 0.663 1.51 1.58 1.496z"></path>
<path d="M15.958 0c1.453-0.014 2.483 0.988 2.85 2.173 0.381 1.256-0.212 2.737-1.425 3.344-0.55 0.282-0.691 0.593-0.677 1.129 0.028 0.55 0.028 1.115-0.014 1.665-0.014 0.24-0.113 0.536-0.268 0.705-0.127 0.127-0.451 0.198-0.621 0.127-0.198-0.085-0.423-0.339-0.451-0.55-0.056-0.649-0.056-1.312-0.028-1.961 0.028-0.55-0.141-0.861-0.691-1.115-1.129-0.508-1.58-1.524-1.524-2.723 0.056-1.256 0.677-2.173 1.891-2.61 0.31-0.099 0.649-0.127 0.959-0.183zM15.929 1.439c-0.875 0.014-1.58 0.72-1.538 1.552 0.028 0.832 0.79 1.51 1.651 1.481 0.804-0.014 1.467-0.705 1.453-1.538 0.014-0.861-0.663-1.51-1.566-1.496z"></path>
<path d="M18.892 28.444c0 1.975-0.945 3.132-2.399 3.499-1.143 0.282-2.624-0.451-3.132-1.679-0.564-1.355-0.325-2.892 1.185-3.739 0.677-0.381 0.847-0.79 0.804-1.481-0.042-0.522-0.028-1.044 0-1.566 0.028-0.48 0.254-0.734 0.607-0.748 0.339-0.014 0.691 0.254 0.734 0.663 0.056 0.578 0.056 1.185 0.028 1.764-0.042 0.621 0.127 1.016 0.734 1.326 0.959 0.508 1.425 1.397 1.439 1.961zM16.056 30.617c0.832-0.028 1.496-0.762 1.453-1.637-0.028-0.889-0.691-1.51-1.594-1.481-0.818 0.028-1.552 0.818-1.51 1.608 0.042 0.776 0.875 1.538 1.651 1.51z"></path>
</svg>
