<?xml version="1.0" encoding="utf-8"?>
<!-- Generator: Adobe Illustrator 22.1.0, SVG Export Plug-In . SVG Version: 6.00 Build 0)  -->
<svg version="1.1" id="Layer_1" xmlns="http://www.w3.org/2000/svg" xmlns:xlink="http://www.w3.org/1999/xlink" x="0px" y="0px"
	 viewBox="0 0 226.8 226.8" style="enable-background:new 0 0 226.8 226.8;" xml:space="preserve">
<g>
	<path d="M113.2,0c62.1-0.5,113.4,50.6,113.6,113c0.2,62.6-51.3,113.7-113.4,113.7c-62,0-113.3-50.8-113.4-113.3
		C-0.1,51,51.1-0.3,113.2,0z M42.4,170.2c-0.1,0.5-0.3,0.9-0.4,1.4c18.8,22.1,42.7,34,71.9,33.9c28.7-0.1,52.4-11.9,71.6-34.8
		c-2.3-0.2-3.5-0.4-4.7-0.4c-7.1,0-14.1-0.1-21.2,0c-2.1,0-3.4-0.6-4.3-2.6c-2.5-5.4-5.1-10.6-7.7-15.9c-1-2.1-2.1-4.1-3.6-6.9
		c-3.8,8.1-7.3,15.3-10.6,22.5c-1,2.2-2.2,3-4.7,3c-26.9-0.1-53.7-0.1-80.6-0.1C46.2,170.2,44.3,170.2,42.4,170.2z M137.1,24.2
		c-0.3,0.3-0.6,0.5-0.9,0.8c20.3,41.5,40.7,83,61,124.5c0.4-0.1,0.8-0.2,1.2-0.3c10.6-26.4,10-52.6-3.2-78.1
		C182.7,46.9,163,31.5,137.1,24.2z M28.4,149.2c20.5-41.9,40.5-82.9,60.5-123.8c-0.3-0.2-0.7-0.5-1-0.7
		c-26.6,8.2-46.4,24.7-58.2,50.1C18.5,98.9,18.4,123.5,28.4,149.2z M113.1,81.5c-0.4,0-0.7,0-1.1,0.1c-7.3,14.9-14.6,29.8-22.1,45.1
		c15.4,0,30.1,0,45.4,0C127.8,111.2,120.5,96.4,113.1,81.5z"/>
</g>
</svg>
