<!-- Generated by IcoMoon.io -->
<svg version="1.1" xmlns="http://www.w3.org/2000/svg" width="32" height="32" viewBox="0 0 32 32">
<title>APH</title>
<path d="M15.972 0c8.762-0.071 16 7.139 16.028 15.944 0.028 8.832-7.238 16.042-16 16.042-8.748 0-15.986-7.168-16-15.986-0.014-8.804 7.21-16.042 15.972-16zM5.982 24.014c-0.014 0.071-0.042 0.127-0.056 0.198 2.653 3.118 6.025 4.797 10.145 4.783 4.049-0.014 7.393-1.679 10.102-4.91-0.325-0.028-0.494-0.056-0.663-0.056-1.002 0-1.989-0.014-2.991 0-0.296 0-0.48-0.085-0.607-0.367-0.353-0.762-0.72-1.496-1.086-2.243-0.141-0.296-0.296-0.578-0.508-0.974-0.536 1.143-1.030 2.159-1.496 3.175-0.141 0.31-0.31 0.423-0.663 0.423-3.795-0.014-7.577-0.014-11.372-0.014-0.268-0.014-0.536-0.014-0.804-0.014zM19.344 3.414c-0.042 0.042-0.085 0.071-0.127 0.113 2.864 5.855 5.742 11.711 8.607 17.566 0.056-0.014 0.113-0.028 0.169-0.042 1.496-3.725 1.411-7.422-0.451-11.019-1.764-3.414-4.543-5.587-8.198-6.617zM4.007 21.051c2.892-5.912 5.714-11.697 8.536-17.467-0.042-0.028-0.099-0.071-0.141-0.099-3.753 1.157-6.547 3.485-8.212 7.069-1.58 3.4-1.594 6.871-0.183 10.497zM15.958 11.499c-0.056 0-0.099 0-0.155 0.014-1.030 2.102-2.060 4.205-3.118 6.363 2.173 0 4.247 0 6.406 0-1.058-2.187-2.088-4.275-3.132-6.377z"></path>
</svg>
