<?xml version="1.0" encoding="utf-8"?>
<!-- Generator: Adobe Illustrator 22.1.0, SVG Export Plug-In . SVG Version: 6.00 Build 0)  -->
<svg version="1.1" id="Layer_1" xmlns="http://www.w3.org/2000/svg" xmlns:xlink="http://www.w3.org/1999/xlink" x="0px" y="0px"
	 viewBox="0 0 226.8 226.8" style="enable-background:new 0 0 226.8 226.8;" xml:space="preserve">
<g>
	<path d="M9.6,171.8c0-39.5,0-79,0-118.5c1.4-0.7,2.8-1.3,4.1-2c29.1-15.6,58.4-30.8,87.1-47.1C110-1,116.7-1,126,4.2
		c30.1,17,60.8,32.8,91.2,49.1c0,39.2,0,78.4,0,117.6c-1.7,0.7-3.4,1.3-5,2.1c-31.6,17.1-63.2,34.2-94.7,51.4
		c-3.1,1.7-5.4,1.9-8.7,0.1C75.8,206.9,42.7,189.4,9.6,171.8z M23.9,112.1c0,15.6,0.1,31.2-0.1,46.8c0,3.1,0.8,4.9,3.7,6.5
		c27.5,14.5,54.9,29.1,82.4,43.6c1.6,0.9,4.5,0.9,6.1,0c27.8-14.9,55.5-30,83.2-44.9c2.6-1.4,3.7-3,3.7-6c-0.1-30.9-0.1-61.8,0-92.7
		c0-3.1-1-4.6-3.7-6c-27.5-14.7-55-29.5-82.6-44.1c-1.7-0.9-4.8-0.9-6.6,0c-27.7,14.7-55.3,29.6-83,44.3c-2.6,1.4-3.3,3-3.2,5.7
		C24,80.9,23.9,96.5,23.9,112.1z"/>
	<path d="M191,89c0.2,1.1,0.4,1.4,0.4,1.7c0.5,11.1,0.4,10.9-9.2,16.4c-3.6,2-6.8,5-10,7.7c-6.5,5.5-13,11.1-19.3,16.8
		c-1.3,1.2-2.7,3-2.8,4.6c-0.3,6-0.2,11.9-0.1,17.9c0.1,4.4,2.7,5.7,6.3,3.3c3.9-2.6,5.9-6.3,5.5-10.9c-0.4-3.9,1-6.3,4.6-7.9
		c3-1.3,5.8-3.2,9.9-5.6c-0.5,5.2-0.3,9.6-1.4,13.5c-3.4,11.9-10.4,21.1-21.6,26.6c-10.3,5-17.3,0.5-17.4-10.9
		c-0.1-7.2,0-14.3,0-21.5c-7.4,0.9-14.4,2.4-21.5,2.6c-6.9,0.2-13.9-1-21.3-1.5c0,12.5,0,25.1,0,38.9c-4.8-2.2-9-3.9-12.9-6
		c-0.9-0.5-1.3-2.6-1.3-4c-0.1-10.4-0.2-20.8,0-31.2c0-2.9-0.8-4.7-3.4-6.2c-11-6.2-19.8-14.8-27.3-24.9c-0.8-1.1-1-3.6-0.3-4.5
		c16.8-22.2,38.4-35.9,67.1-35.3c22.1,0.5,40.3,10.3,55.3,26.2c2.6,2.8,4.4,3.3,7.7,1.3C181.8,93.4,186.3,91.4,191,89z M161,106.1
		c-7.4-10-23.2-20.5-30.1-20c11.5,11.7,12.6,24.5,3.5,39.1C145.6,120.5,153.8,114.2,161,106.1z M94.3,85.6
		C81.8,89,72.7,96.6,64.1,105.8c7.6,8.4,15.7,14.7,26.9,19.4C81.7,110.3,83.3,97.5,94.3,85.6z"/>
	<path d="M175.2,76c-3.4,1.8-6.7,3.8-10.2,5c-1.2,0.4-3.6-0.9-4.8-2.1c-21.3-21.1-53.6-26.2-80-11.8c-6,3.2-11.2,7.9-16.4,12.3
		c-2.1,1.8-3.5,2.3-5.9,0.9c-2.7-1.7-5.6-3-8.4-4.5C77.4,36.7,143.9,34.3,175.2,76z"/>
</g>
</svg>
