<!-- Generated by IcoMoon.io -->
<svg version="1.1" xmlns="http://www.w3.org/2000/svg" width="32" height="32" viewBox="0 0 32 32">
<title>APPC</title>
<path d="M0 14.374c0.205-0.934 0.333-1.882 0.627-2.778 2.022-6.17 6.195-10.061 12.582-11.213 8.614-1.574 16.563 3.866 18.47 12.416 0.115 0.525 0.205 1.050 0.307 1.574 0 1.126 0 2.253 0 3.379-0.038 0.090-0.090 0.192-0.102 0.282-0.806 6.349-5.325 11.622-11.482 13.363-0.922 0.256-1.856 0.41-2.79 0.602-1.088 0-2.163 0-3.251 0-0.384-0.077-0.768-0.141-1.152-0.218-6.387-1.331-10.598-5.094-12.595-11.302-0.282-0.883-0.41-1.818-0.614-2.726 0-1.126 0-2.253 0-3.379zM30.976 16.064c0-8.205-6.746-14.912-14.976-14.912-8.243-0.013-14.976 6.694-14.976 14.899s6.746 14.925 14.976 14.925c8.23 0 14.976-6.707 14.976-14.912z"></path>
<path d="M20.416 11.878c0.806 0 1.562 0 2.304 0 0.192 0 0.384-0.013 0.563 0.026 0.512 0.090 0.845 0.499 0.806 0.96-0.038 0.448-0.397 0.781-0.896 0.794-0.666 0.026-1.331 0-2.099 0 0.115 0.32 0.205 0.563 0.294 0.832 0.589 0 1.139-0.013 1.702 0 0.614 0.013 1.011 0.358 1.024 0.858 0 0.499-0.397 0.883-0.986 0.922-0.333 0.013-0.666 0-1.062 0 0.077 0.269 0.141 0.486 0.205 0.691 0.55 1.523 1.114 3.046 1.664 4.57 0.090 0.256 0.179 0.512 0.243 0.768 0.256 1.037-0.179 1.907-1.101 2.214-1.011 0.346-2.086-0.115-2.47-1.114-0.269-0.704-0.486-1.408-0.704-2.125-0.090-0.282-0.205-0.41-0.525-0.41-2.266 0.013-4.544 0.013-6.81 0.013-0.038 0-0.077 0.026-0.179 0.051-0.269 0.794-0.538 1.626-0.832 2.432-0.282 0.781-0.883 1.216-1.702 1.254-0.858 0.038-1.549-0.282-1.971-1.062-0.294-0.563-0.192-1.139 0.013-1.69 0.589-1.574 1.178-3.162 1.766-4.736 0.102-0.269 0.179-0.538 0.294-0.858-0.41 0-0.755 0.013-1.114 0-0.589-0.026-0.973-0.422-0.947-0.934 0.026-0.486 0.397-0.819 0.986-0.832 0.576-0.013 1.165 0 1.766 0 0.090-0.243 0.166-0.448 0.282-0.742-0.269-0.026-0.461-0.051-0.653-0.051-0.499-0.013-0.998 0.013-1.498-0.026-0.448-0.038-0.768-0.397-0.794-0.832-0.026-0.422 0.269-0.819 0.717-0.883 0.512-0.064 1.037-0.038 1.562-0.051 0.448-0.026 0.998 0.090 1.331-0.128 0.294-0.205 0.358-0.755 0.525-1.165 0.371-0.973 0.717-1.946 1.101-2.918 0.346-0.858 0.87-1.6 1.766-1.907 1.318-0.461 2.637-0.179 3.469 1.178 0.32 0.525 0.538 1.126 0.755 1.702 0.422 1.024 0.794 2.086 1.203 3.2zM13.658 17.011c1.664 0 3.238 0 4.851 0-0.819-2.445-1.613-4.813-2.445-7.322-0.832 2.522-1.613 4.902-2.406 7.322z"></path>
</svg>
