<?xml version="1.0" encoding="utf-8"?>
<!-- Generator: Adobe Illustrator 22.1.0, SVG Export Plug-In . SVG Version: 6.00 Build 0)  -->
<svg version="1.1" id="Layer_1" xmlns="http://www.w3.org/2000/svg" xmlns:xlink="http://www.w3.org/1999/xlink" x="0px" y="0px"
	 viewBox="0 0 250 250" style="enable-background:new 0 0 250 250;" xml:space="preserve">
<g>
	<path d="M0,112.3c1.6-7.3,2.6-14.7,4.9-21.7C20.7,42.4,53.3,12,103.2,3c67.3-12.3,129.4,30.2,144.3,97c0.9,4.1,1.6,8.2,2.4,12.3
		c0,8.8,0,17.6,0,26.4c-0.3,0.7-0.7,1.5-0.8,2.2c-6.3,49.6-41.6,90.8-89.7,104.4c-7.2,2-14.5,3.2-21.8,4.7c-8.5,0-16.9,0-25.4,0
		c-3-0.6-6-1.1-9-1.7C53.3,237.9,20.4,208.5,4.8,160c-2.2-6.9-3.2-14.2-4.8-21.3C0,129.9,0,121.1,0,112.3z M242,125.5
		c0-64.1-52.7-116.5-117-116.5C60.6,8.9,8,61.3,8,125.4C8,189.5,60.7,242,125,242C189.3,242,242,189.6,242,125.5z"/>
	<path d="M159.5,92.8c6.3,0,12.2,0,18,0c1.5,0,3-0.1,4.4,0.2c4,0.7,6.6,3.9,6.3,7.5c-0.3,3.5-3.1,6.1-7,6.2c-5.2,0.2-10.4,0-16.4,0
		c0.9,2.5,1.6,4.4,2.3,6.5c4.6,0,8.9-0.1,13.3,0c4.8,0.1,7.9,2.8,8,6.7c0,3.9-3.1,6.9-7.7,7.2c-2.6,0.1-5.2,0-8.3,0
		c0.6,2.1,1.1,3.8,1.6,5.4c4.3,11.9,8.7,23.8,13,35.7c0.7,2,1.4,4,1.9,6c2,8.1-1.4,14.9-8.6,17.3c-7.9,2.7-16.3-0.9-19.3-8.7
		c-2.1-5.5-3.8-11-5.5-16.6c-0.7-2.2-1.6-3.2-4.1-3.2c-17.7,0.1-35.5,0.1-53.2,0.1c-0.3,0-0.6,0.2-1.4,0.4c-2.1,6.2-4.2,12.7-6.5,19
		c-2.2,6.1-6.9,9.5-13.3,9.8c-6.7,0.3-12.1-2.2-15.4-8.3c-2.3-4.4-1.5-8.9,0.1-13.2c4.6-12.3,9.2-24.7,13.8-37
		c0.8-2.1,1.4-4.2,2.3-6.7c-3.2,0-5.9,0.1-8.7,0c-4.6-0.2-7.6-3.3-7.4-7.3c0.2-3.8,3.1-6.4,7.7-6.5c4.5-0.1,9.1,0,13.8,0
		c0.7-1.9,1.3-3.5,2.2-5.8c-2.1-0.2-3.6-0.4-5.1-0.4c-3.9-0.1-7.8,0.1-11.7-0.2c-3.5-0.3-6-3.1-6.2-6.5c-0.2-3.3,2.1-6.4,5.6-6.9
		c4-0.5,8.1-0.3,12.2-0.4c3.5-0.2,7.8,0.7,10.4-1c2.3-1.6,2.8-5.9,4.1-9.1c2.9-7.6,5.6-15.2,8.6-22.8c2.7-6.7,6.8-12.5,13.8-14.9
		c10.3-3.6,20.6-1.4,27.1,9.2c2.5,4.1,4.2,8.8,5.9,13.3C153.4,75.8,156.3,84.1,159.5,92.8z M106.7,132.9c13,0,25.3,0,37.9,0
		c-6.4-19.1-12.6-37.6-19.1-57.2C119,95.4,112.9,114,106.7,132.9z"/>
</g>
</svg>
