<!-- Generated by IcoMoon.io -->
<svg version="1.1" xmlns="http://www.w3.org/2000/svg" width="32" height="32" viewBox="0 0 32 32">
<title>ARN</title>
<path d="M15.749 31.636c-0.423 0-0.847-0.113-1.213-0.353l-5.263-3.414c-0.988-0.635-1.905-1.397-2.723-2.258-0.804-0.847-1.51-1.778-2.088-2.78-0.593-1.002-1.058-2.074-1.397-3.189-0.339-1.129-0.55-2.3-0.635-3.471l-0.677-10.878c-0.028-0.423 0.071-0.832 0.268-1.199s0.494-0.677 0.861-0.875c1.707-0.974 3.654-1.721 5.799-2.201 2.13-0.48 4.501-0.72 7.069-0.72 0.014 0 0.014 0 0.028 0 2.568 0 4.952 0.24 7.083 0.734 2.145 0.48 4.092 1.228 5.799 2.201 0.367 0.212 0.663 0.508 0.861 0.875s0.296 0.79 0.268 1.199l-0.677 10.878c-0.071 1.171-0.282 2.342-0.635 3.471-0.339 1.115-0.804 2.187-1.397 3.189s-1.298 1.947-2.088 2.78c-0.818 0.847-1.721 1.608-2.723 2.258l-5.263 3.414c-0.409 0.226-0.832 0.339-1.256 0.339zM15.721 1.202c-2.497 0-4.797 0.24-6.857 0.705s-3.922 1.171-5.545 2.102v0c-0.437 0.254-0.691 0.72-0.663 1.228l0.677 10.878c0.071 1.101 0.268 2.201 0.593 3.259 0.325 1.044 0.762 2.046 1.312 2.991s1.213 1.82 1.961 2.61c0.762 0.804 1.623 1.51 2.554 2.116l5.263 3.414c0.437 0.282 1.002 0.282 1.439 0l5.263-3.414c0.931-0.607 1.792-1.312 2.554-2.116 0.748-0.79 1.411-1.665 1.961-2.61s0.988-1.947 1.312-2.991c0.325-1.058 0.522-2.159 0.593-3.259l0.677-10.878c0.028-0.508-0.226-0.974-0.663-1.228-1.623-0.931-3.485-1.637-5.545-2.102s-4.374-0.705-6.871-0.705c0 0 0 0-0.014 0z"></path>
<path d="M15.791 25.908c-0.085 0-0.183-0.014-0.268-0.042-0.254-0.071-0.466-0.24-0.593-0.466l-11.979-21.616 0.578-0.325 11.965 21.616c0.042 0.071 0.113 0.127 0.198 0.155s0.169 0.014 0.254-0.028c0.056-0.028 0.099-0.071 0.127-0.127l11.88-21.728 0.578 0.31-11.88 21.728c-0.085 0.169-0.226 0.296-0.395 0.395-0.141 0.085-0.296 0.127-0.466 0.127z"></path>
<path d="M26.966 21.647l-11.048-20.346c0-0.014-0.014-0.014-0.028-0.028-0.028-0.014-0.071 0-0.085 0.028l-11.358 20.261-0.578-0.325 11.358-20.247c0.198-0.353 0.635-0.48 0.988-0.282 0.113 0.071 0.212 0.169 0.282 0.282l11.048 20.346-0.578 0.31z"></path>
<path d="M15.45 25.608h0.663v5.531h-0.663v-5.531z"></path>
<path d="M15.873 26.441l-0.085-0.014c-5.87-1.425-9.34-2.272-10.314-2.497l0.155-0.635c0.974 0.226 4.416 1.058 10.243 2.483l10.187-2.681 0.169 0.635-10.356 2.709z"></path>
<path d="M24.226 13.319c0 0.803-0.651 1.453-1.453 1.453s-1.453-0.651-1.453-1.453c0-0.803 0.651-1.453 1.453-1.453s1.453 0.651 1.453 1.453z"></path>
<path d="M17.227 25.778c0 0.803-0.651 1.453-1.453 1.453s-1.453-0.651-1.453-1.453c0-0.803 0.651-1.453 1.453-1.453s1.453 0.651 1.453 1.453z"></path>
<path d="M9.905 13.319c0 0.803-0.651 1.453-1.453 1.453s-1.453-0.651-1.453-1.453c0-0.803 0.651-1.453 1.453-1.453s1.453 0.651 1.453 1.453z"></path>
<path d="M15.749 8.186c-0.423 0-0.79 0.367-0.79 0.79v2.878l-4.19 2.624 0.451 0.988 3.739-1.242v2.878l-1.044 0.79v0.79l1.834-0.522 1.834 0.522v-0.79l-1.044-0.79v-2.878l3.683 1.312 0.508-1.044-4.19-2.624v-2.892c-0.014-0.423-0.381-0.79-0.79-0.79"></path>
</svg>
