<?xml version="1.0" encoding="utf-8"?>
<!-- Generator: Adobe Illustrator 22.0.1, SVG Export Plug-In . SVG Version: 6.00 Build 0)  -->
<svg version="1.1" id="Layer_1" xmlns="http://www.w3.org/2000/svg" xmlns:xlink="http://www.w3.org/1999/xlink" x="0px" y="0px"
	 viewBox="0 0 226.8 226.8" style="enable-background:new 0 0 226.8 226.8;" xml:space="preserve">
<style type="text/css">
	.st0{stroke:#FFFFFF;stroke-miterlimit:10;}
</style>
<g>
	<g transform="translate(-107.28-.58)">
		<path class="st0" d="M218.9,224.8c-3,0-6-0.8-8.6-2.5L173,198.1c-7-4.5-13.5-9.9-19.3-16c-5.7-6-10.7-12.6-14.8-19.7
			c-4.2-7.1-7.5-14.7-9.9-22.6c-2.4-8-3.9-16.3-4.5-24.6l-4.8-77.1c-0.2-3,0.5-5.9,1.9-8.5s3.5-4.8,6.1-6.2
			c12.1-6.9,25.9-12.2,41.1-15.6c15.1-3.4,31.9-5.1,50.1-5.1c0.1,0,0.1,0,0.2,0c18.2,0,35.1,1.7,50.2,5.2c15.2,3.4,29,8.7,41.1,15.6
			c2.6,1.5,4.7,3.6,6.1,6.2s2.1,5.6,1.9,8.5l-4.8,77.1c-0.5,8.3-2,16.6-4.5,24.6c-2.4,7.9-5.7,15.5-9.9,22.6
			c-4.2,7.1-9.2,13.8-14.8,19.7c-5.8,6-12.2,11.4-19.3,16l-37.3,24.2C224.9,224,221.9,224.8,218.9,224.8z M218.7,9.1
			c-17.7,0-34,1.7-48.6,5c-14.6,3.3-27.8,8.3-39.3,14.9l0,0c-3.1,1.8-4.9,5.1-4.7,8.7l4.8,77.1c0.5,7.8,1.9,15.6,4.2,23.1
			c2.3,7.4,5.4,14.5,9.3,21.2c3.9,6.7,8.6,12.9,13.9,18.5c5.4,5.7,11.5,10.7,18.1,15l37.3,24.2c3.1,2,7.1,2,10.2,0l37.3-24.2
			c6.6-4.3,12.7-9.3,18.1-15c5.3-5.6,10-11.8,13.9-18.5s7-13.8,9.3-21.2c2.3-7.5,3.7-15.3,4.2-23.1l4.8-77.1
			c0.2-3.6-1.6-6.9-4.7-8.7c-11.5-6.6-24.7-11.6-39.3-14.9c-14.6-3.3-31-5-48.7-5C218.8,9.1,218.8,9.1,218.7,9.1z"/>
		<g>
			<path class="st0" d="M219.2,184.2c-0.6,0-1.3-0.1-1.9-0.3c-1.8-0.5-3.3-1.7-4.2-3.3L128.2,27.4l4.1-2.3l84.8,153.2
				c0.3,0.5,0.8,0.9,1.4,1.1c0.6,0.2,1.2,0.1,1.8-0.2c0.4-0.2,0.7-0.5,0.9-0.9l84.2-154l4.1,2.2l-84.2,154c-0.6,1.2-1.6,2.1-2.8,2.8
				C221.5,183.9,220.4,184.2,219.2,184.2z"/>
			<path class="st0" d="M298.4,154L220.1,9.8c0-0.1-0.1-0.1-0.2-0.2c-0.2-0.1-0.5,0-0.6,0.2l-80.5,143.6l-4.1-2.3L215.2,7.6
				c1.4-2.5,4.5-3.4,7-2c0.8,0.5,1.5,1.2,2,2l78.3,144.2L298.4,154z"/>
		</g>
	</g>
	<g>
		<rect x="109.5" y="181.5" class="st0" width="4.7" height="39.2"/>
		<path class="st0" d="M112.5,187.4l-0.6-0.1c-41.6-10.1-66.2-16.1-73.1-17.7l1.1-4.5c6.9,1.6,31.3,7.5,72.6,17.6l72.2-19l1.2,4.5
			L112.5,187.4z"/>
	</g>
	<ellipse class="st0" cx="161.4" cy="94.4" rx="10.3" ry="10.3"/>
	<ellipse class="st0" cx="111.8" cy="182.7" rx="10.3" ry="10.3"/>
	<ellipse class="st0" cx="59.9" cy="94.4" rx="10.3" ry="10.3"/>
</g>
<g transform="translate(-107.28-.58)">
	<path class="st0" d="M218.9,58.6c-3,0-5.6,2.6-5.6,5.6v20.4l-29.7,18.6l3.2,7l26.5-8.8v20.4l-7.4,5.6v5.6l13-3.7l13,3.7v-5.6
		l-7.4-5.6v-20.4l26.1,9.3l3.6-7.4l-29.7-18.6V64.2C224.4,61.2,221.8,58.6,218.9,58.6"/>
</g>
</svg>
