<!-- Generated by IcoMoon.io -->
<svg version="1.1" xmlns="http://www.w3.org/2000/svg" width="32" height="32" viewBox="0 0 32 32">
<title>ART</title>
<path d="M16.395 19.527c1.679-3.457 3.302-6.773 4.924-10.088 0.847-1.75 1.693-3.499 2.568-5.235 0.127-0.24 0.48-0.522 0.734-0.536 2.046-0.042 4.078-0.028 6.123-0.028 0.127 0 0.254 0.056 0.593 0.141-0.353 0.198-0.522 0.339-0.72 0.409-0.367 0.113-0.748 0.169-1.115 0.268-1.637 0.423-2.37 1.312-2.328 2.991 0.099 4.614 0.226 9.213 0.339 13.827 0.014 0.818 0.042 1.637 0.042 2.441 0 2.187 0.776 3.146 2.935 3.57 0.353 0.071 0.691 0.183 1.044 0.282-0.014 0.071-0.028 0.141-0.042 0.198-3.612 0-7.224 0-10.836 0-0.014-0.071-0.042-0.127-0.056-0.198 0.381-0.141 0.748-0.31 1.143-0.395 1.877-0.451 2.582-1.27 2.554-3.175-0.071-5.263-0.198-10.511-0.282-15.774-0.014-0.804 0-1.623 0-2.427-0.085-0.014-0.169-0.042-0.254-0.056-0.099 0.155-0.212 0.31-0.296 0.48-2.159 4.374-4.303 8.748-6.462 13.108-0.254 0.508-0.282 0.974 0.042 1.481 0.607 1.002 1.157 2.046 1.721 3.076 0.113 0.212 0.198 0.451 0.31 0.663-0.056 0.042-0.113 0.085-0.155 0.127-0.141-0.085-0.296-0.155-0.423-0.268-0.889-0.903-2.004-1.298-3.245-1.369-0.451-0.028-0.677-0.198-0.889-0.564-2.54-4.571-5.093-9.143-7.647-13.714-0.452-0.804-0.847-1.637-1.439-2.413-0.042 1.115-0.113 2.215-0.141 3.33-0.042 2.497-0.042 4.995-0.085 7.492-0.028 1.919-0.099 3.838-0.113 5.757 0 0.564 0.071 1.143 0.169 1.721 0.24 1.383 1.072 2.201 2.441 2.497 0.48 0.099 0.931 0.24 1.411 0.353-0.014 0.071-0.028 0.155-0.028 0.226-2.864 0-5.714 0-8.578 0-0.014-0.042-0.042-0.085-0.056-0.113 0.24-0.113 0.452-0.268 0.705-0.31 2.356-0.409 3.104-2.116 3.287-4.049 0.071-0.691 0.099-1.383 0.113-2.088 0.071-3.175 0.127-6.335 0.198-9.51 0.028-1.312 0.071-2.638 0.113-3.951 0.071-2.060-0.621-2.935-2.638-3.386-0.423-0.071-0.818-0.226-1.213-0.367 0.014-0.085 0.042-0.169 0.056-0.254 0.226-0.014 0.451-0.056 0.677-0.056 1.707 0 3.414 0.028 5.122-0.014 0.607-0.014 0.931 0.212 1.199 0.705 1.552 2.85 3.118 5.672 4.698 8.508 1.143 2.060 2.286 4.12 3.429 6.166 0.071 0.155 0.169 0.268 0.353 0.522z"></path>
</svg>
