<?xml version="1.0" encoding="utf-8"?>
<!-- Generator: Adobe Illustrator 22.1.0, SVG Export Plug-In . SVG Version: 6.00 Build 0)  -->
<svg version="1.1" id="Layer_1" xmlns="http://www.w3.org/2000/svg" xmlns:xlink="http://www.w3.org/1999/xlink" x="0px" y="0px"
	 viewBox="0 0 226.8 226.8" style="enable-background:new 0 0 226.8 226.8;" xml:space="preserve">
<g>
	<path d="M116.2,138.4c11.9-24.5,23.4-48,34.9-71.5c6-12.4,12-24.8,18.2-37.1c0.9-1.7,3.4-3.7,5.2-3.8c14.5-0.3,28.9-0.2,43.4-0.2
		c0.9,0,1.8,0.4,4.2,1c-2.5,1.4-3.7,2.4-5.1,2.9c-2.6,0.8-5.3,1.2-7.9,1.9c-11.6,3-16.8,9.3-16.5,21.2c0.7,32.7,1.6,65.3,2.4,98
		c0.1,5.8,0.3,11.6,0.3,17.3c0,15.5,5.5,22.3,20.8,25.3c2.5,0.5,4.9,1.3,7.4,2c-0.1,0.5-0.2,1-0.3,1.4c-25.6,0-51.2,0-76.8,0
		c-0.1-0.5-0.3-0.9-0.4-1.4c2.7-1,5.3-2.2,8.1-2.8c13.3-3.2,18.3-9,18.1-22.5c-0.5-37.3-1.4-74.5-2-111.8c-0.1-5.7,0-11.5,0-17.2
		c-0.6-0.1-1.2-0.3-1.8-0.4c-0.7,1.1-1.5,2.2-2.1,3.4c-15.3,31-30.5,62-45.8,92.9c-1.8,3.6-2,6.9,0.3,10.5
		c4.3,7.1,8.2,14.5,12.2,21.8c0.8,1.5,1.4,3.2,2.2,4.7c-0.4,0.3-0.8,0.6-1.1,0.9c-1-0.6-2.1-1.1-3-1.9c-6.3-6.4-14.2-9.2-23-9.7
		c-3.2-0.2-4.8-1.4-6.3-4c-18-32.4-36.1-64.8-54.2-97.2c-3.2-5.7-6-11.6-10.2-17.1c-0.3,7.9-0.8,15.7-1,23.6
		c-0.3,17.7-0.3,35.4-0.6,53.1c-0.2,13.6-0.7,27.2-0.8,40.8c0,4,0.5,8.1,1.2,12.2c1.7,9.8,7.6,15.6,17.3,17.7
		c3.4,0.7,6.6,1.7,10,2.5c-0.1,0.5-0.2,1.1-0.2,1.6c-20.3,0-40.5,0-60.8,0c-0.1-0.3-0.3-0.6-0.4-0.8c1.7-0.8,3.2-1.9,5-2.2
		c16.7-2.9,22-15,23.3-28.7c0.5-4.9,0.7-9.8,0.8-14.8c0.5-22.5,0.9-44.9,1.4-67.4c0.2-9.3,0.5-18.7,0.8-28
		c0.5-14.6-4.4-20.8-18.7-24C11.7,30.1,8.9,29,6.1,28c0.1-0.6,0.3-1.2,0.4-1.8c1.6-0.1,3.2-0.4,4.8-0.4c12.1,0,24.2,0.2,36.3-0.1
		c4.3-0.1,6.6,1.5,8.5,5C67.1,50.9,78.2,70.9,89.4,91c8.1,14.6,16.2,29.2,24.3,43.7C114.2,135.8,114.9,136.6,116.2,138.4z"/>
</g>
</svg>
