<!-- Generated by IcoMoon.io -->
<svg version="1.1" xmlns="http://www.w3.org/2000/svg" width="32" height="32" viewBox="0 0 32 32">
<title>AST</title>
<path d="M16.014 0.24l-14.265 14.222-1.75 1.764 0.621 0.536c0.141 0.127 0.282 0.254 0.437 0.381 0.494 0.409 1.016 0.804 1.524 1.185 1.975 1.383 4.148 2.455 6.448 3.175 2.258 0.705 4.614 1.058 6.97 1.058 1.877 0 3.739-0.226 5.559-0.663 2.624-0.635 5.093-1.721 7.351-3.217 0.55-0.367 1.101-0.776 1.623-1.185 0.296-0.24 0.578-0.48 0.847-0.72l0.607-0.536-15.972-16zM29.996 16.734c-0.494 0.409-1.016 0.79-1.566 1.143-2.159 1.439-4.557 2.483-7.069 3.090-1.75 0.423-3.541 0.649-5.347 0.649-4.628 0.014-9.129-1.411-12.91-4.064-0.508-0.353-0.988-0.748-1.481-1.143l-0.296-0.254 14.674-14.646 14.674 14.646c-0.198 0.212-0.437 0.395-0.677 0.578v0z"></path>
<path d="M5.954 15.986l-0.705 0.296h0.875c4.741 0 9.383 1.312 13.432 3.781l0.042 0.028 0.056-0.014c2.638-0.48 5.164-1.453 7.436-2.892l0.226-0.141-0.226-0.127c-3.429-1.989-7.337-3.034-11.316-3.034-3.386 0.028-6.73 0.748-9.82 2.102zM19.767 19.132c-3.076-1.848-6.49-3.048-10.032-3.513 1.961-0.536 3.979-0.804 6.011-0.804 3.372 0 6.688 0.776 9.707 2.286-1.764 0.988-3.683 1.665-5.686 2.032v0z"></path>
<path d="M25.058 22.25c0 0-2.342 1.453-3.217 1.877-2.935 1.651-6.208 2.624-9.58 2.822l-1.016 0.056 4.769 4.755 6.773-6.758c0.804-0.875 1.566-1.806 2.272-2.751M13.305 27.767c2.61-0.268 5.15-0.959 7.506-2.088l-4.797 4.797"></path>
</svg>
