<?xml version="1.0" encoding="utf-8"?>
<!-- Generator: Adobe Illustrator 22.0.1, SVG Export Plug-In . SVG Version: 6.00 Build 0)  -->
<svg version="1.1" id="Layer_1" xmlns="http://www.w3.org/2000/svg" xmlns:xlink="http://www.w3.org/1999/xlink" x="0px" y="0px"
	 viewBox="0 0 226.8 226.8" style="enable-background:new 0 0 226.8 226.8;" xml:space="preserve">
<style type="text/css">
	.st0{stroke:#FFFFFF;stroke-miterlimit:10;}
</style>
<path class="st0" d="M113.5,1.7L12.4,102.5L0,115l4.4,3.8c1,0.9,2,1.8,3.1,2.7c3.5,2.9,7.2,5.7,10.8,8.4c14,9.8,29.4,17.4,45.7,22.5
	c16,5,32.7,7.5,49.4,7.5c13.3,0,26.5-1.6,39.4-4.7c18.6-4.5,36.1-12.2,52.1-22.8c3.9-2.6,7.8-5.5,11.5-8.4c2.1-1.7,4.1-3.4,6-5.1
	l4.3-3.8L113.5,1.7z M212.6,118.6c-3.5,2.9-7.2,5.6-11.1,8.1c-15.3,10.2-32.3,17.6-50.1,21.9c-12.4,3-25.1,4.6-37.9,4.6
	c-32.8,0.1-64.7-10-91.5-28.8c-3.6-2.5-7-5.3-10.5-8.1l-2.1-1.8l104-103.8l104,103.8C216,116,214.3,117.3,212.6,118.6L212.6,118.6z"
	/>
<path class="st0" d="M42.2,113.3l-5,2.1h6.2c33.6,0,66.5,9.3,95.2,26.8l0.3,0.2l0.4-0.1c18.7-3.4,36.6-10.3,52.7-20.5l1.6-1
	l-1.6-0.9c-24.3-14.1-52-21.5-80.2-21.5C87.8,98.6,64.1,103.7,42.2,113.3z M140.1,135.6c-21.8-13.1-46-21.6-71.1-24.9
	c13.9-3.8,28.2-5.7,42.6-5.7c23.9,0,47.4,5.5,68.8,16.2C167.9,128.2,154.3,133,140.1,135.6L140.1,135.6z"/>
<path class="st0" d="M177.6,157.7c0,0-16.6,10.3-22.8,13.3c-20.8,11.7-44,18.6-67.9,20l-7.2,0.4l33.8,33.7l48-47.9
	C167.2,171,172.6,164.4,177.6,157.7 M94.3,196.8c18.5-1.9,36.5-6.8,53.2-14.8l-34,34"/>
</svg>
