<?xml version="1.0" encoding="utf-8"?>
<!-- Generator: Adobe Illustrator 22.1.0, SVG Export Plug-In . SVG Version: 6.00 Build 0)  -->
<svg version="1.1" id="Layer_1" xmlns="http://www.w3.org/2000/svg" xmlns:xlink="http://www.w3.org/1999/xlink" x="0px" y="0px"
	 viewBox="0 0 226.8 226.8" style="enable-background:new 0 0 226.8 226.8;" xml:space="preserve">
<g>
	<path d="M156.4,142.8c-1.6-3.1-3.3-6.1-4.9-9.2c-5.8-10.9-11.6-21.9-17.4-32.8c-7.5-14-19-22.1-34.7-24.1c-9.6-1.2-18.7,1-27.1,5.8
		c-0.5,0.3-0.9,0.5-1.4,0.8c-0.1,0-0.2,0.1-0.5,0.1c-1.4-2.5-2.8-5.1-4.1-7.7c-2.6-5.1-5.6-10-7.7-15.3c-8-20.2,0.3-45.2,23.4-56
		c21.1-9.8,46.8-2,58.1,19.7c10.7,20.4,21.7,40.6,32.4,61c10.6,20.1,3.7,45.2-15.5,57.3C156.8,142.6,156.6,142.7,156.4,142.8z"/>
	<path d="M70.4,83.9C75,92.5,79.5,101,84,109.4c3.1,5.8,6,11.7,9.3,17.5c9.3,16.2,23.5,23.9,42.1,23.2c6.9-0.3,13.2-2.6,19.2-6
		c0.5-0.3,1-0.6,1.6-0.9c1.3,2.3,2.5,4.6,3.7,6.9c1.9,3.5,3.7,7,5.6,10.5c13.6,25.3,0.8,57.6-30.6,64.8c-19.5,4.4-39-5.1-48.3-22.8
		C76,182.4,65.3,162.2,54.4,142c-10.7-20-4-45.8,15.3-57.7C69.9,84.2,70.1,84.1,70.4,83.9z"/>
</g>
</svg>
