<!-- Generated by IcoMoon.io -->
<svg version="1.1" xmlns="http://www.w3.org/2000/svg" width="32" height="32" viewBox="0 0 32 32">
<title>ATM</title>
<path d="M22.067 20.148c-0.226-0.437-0.466-0.861-0.691-1.298-0.818-1.538-1.637-3.090-2.455-4.628-1.058-1.975-2.681-3.118-4.896-3.4-1.354-0.169-2.638 0.141-3.824 0.818-0.071 0.042-0.127 0.071-0.198 0.113-0.014 0-0.028 0.014-0.071 0.014-0.198-0.353-0.395-0.72-0.578-1.086-0.367-0.72-0.79-1.411-1.086-2.159-1.129-2.85 0.042-6.377 3.302-7.901 2.977-1.383 6.603-0.282 8.198 2.78 1.51 2.878 3.062 5.728 4.571 8.607 1.496 2.836 0.522 6.377-2.187 8.085-0.028 0.028-0.056 0.042-0.085 0.056z"></path>
<path d="M9.933 11.838c0.649 1.213 1.284 2.413 1.919 3.598 0.437 0.818 0.847 1.651 1.312 2.469 1.312 2.286 3.316 3.372 5.94 3.273 0.974-0.042 1.862-0.367 2.709-0.847 0.071-0.042 0.141-0.085 0.226-0.127 0.183 0.325 0.353 0.649 0.522 0.974 0.268 0.494 0.522 0.988 0.79 1.481 1.919 3.57 0.113 8.127-4.317 9.143-2.751 0.621-5.503-0.72-6.815-3.217-1.496-2.85-3.005-5.7-4.543-8.55-1.51-2.822-0.564-6.462 2.159-8.141 0.028-0.014 0.056-0.028 0.099-0.056z"></path>
</svg>
