<?xml version="1.0" encoding="utf-8"?>
<!-- Generator: Adobe Illustrator 22.1.0, SVG Export Plug-In . SVG Version: 6.00 Build 0)  -->
<svg version="1.1" id="Layer_1" xmlns="http://www.w3.org/2000/svg" xmlns:xlink="http://www.w3.org/1999/xlink" x="0px" y="0px"
	 viewBox="0 0 226.8 226.8" style="enable-background:new 0 0 226.8 226.8;" xml:space="preserve">
<g>
	<path d="M228,117.7c-1,6.4-1.7,12.9-3,19.3c-9.3,47.2-48.8,83.9-96.6,89.8c-0.3,0-0.6-0.1-1.5-0.4c0-7.2-0.1-14.6,0.2-22
		c0-0.9,2.2-2.1,3.5-2.4c23-5,41.8-16.5,55.5-35.6c17-23.7,21-49.9,13.2-78c-0.3-1.2-0.6-2.3-0.9-3.8c7-4,13.9-8,21.1-12.2
		c4.1,10.3,6.5,20.4,7.4,30.9c0.2,2.4,0.8,4.7,1.1,7.1C228,112.8,228,115.3,228,117.7z"/>
	<path d="M41.6,61.7c-7.3-4.2-14.4-8.3-21.4-12.4c42.4-63.6,140.2-67.8,187.4-0.1c-7.2,4.2-14.3,8.3-21.5,12.5
		C149.2,12.4,77.4,13.6,41.6,61.7z"/>
	<path d="M8.3,72.6c7,4,13.9,8,20.9,12.1c-3.7,11.3-5.4,22.6-4.6,34.3C27.4,155.5,46,181,79,196.3c5.8,2.7,12.4,3.8,18.6,5.8
		c1.1,0.4,2.7,1.7,2.8,2.6c0.3,6.2,0.2,12.5,0.1,18.7c0,1-0.2,2.1-0.3,3.1C23.4,218.6-19,136.8,8.3,72.6z"/>
</g>
</svg>
