<!-- Generated by IcoMoon.io -->
<svg version="1.1" xmlns="http://www.w3.org/2000/svg" width="32" height="32" viewBox="0 0 32 32">
<title>ATX</title>
<path d="M32.169 16.607c-0.141 0.903-0.24 1.82-0.423 2.723-1.312 6.66-6.885 11.838-13.63 12.67-0.042 0-0.085-0.014-0.212-0.056 0-1.016-0.014-2.060 0.028-3.104 0-0.127 0.31-0.296 0.494-0.339 3.245-0.705 5.898-2.328 7.831-5.023 2.399-3.344 2.963-7.041 1.862-11.005-0.042-0.169-0.085-0.325-0.127-0.536 0.988-0.564 1.961-1.129 2.977-1.721 0.578 1.453 0.917 2.878 1.044 4.36 0.028 0.339 0.113 0.663 0.155 1.002 0 0.339 0 0.691 0 1.030z"></path>
<path d="M5.87 8.705c-1.030-0.593-2.032-1.171-3.019-1.75 5.982-8.974 19.781-9.566 26.441-0.014-1.016 0.593-2.018 1.171-3.034 1.764-5.206-6.956-15.337-6.787-20.388 0z"></path>
<path d="M1.171 10.243c0.988 0.564 1.961 1.129 2.949 1.707-0.522 1.594-0.762 3.189-0.649 4.84 0.395 5.15 3.019 8.748 7.675 10.907 0.818 0.381 1.75 0.536 2.624 0.818 0.155 0.056 0.381 0.24 0.395 0.367 0.042 0.875 0.028 1.764 0.014 2.638 0 0.141-0.028 0.296-0.042 0.437-10.836-1.115-16.818-12.656-12.966-21.714z"></path>
</svg>
