<!-- Generated by IcoMoon.io -->
<svg version="1.1" xmlns="http://www.w3.org/2000/svg" width="32" height="32" viewBox="0 0 32 32">
<title>AUD</title>
<path d="M16.128 32c-8.819 0-16-7.181-16-16s7.181-16 16-16 16 7.181 16 16-7.181 16-16 16v0zM16.128 1.562c-7.962 0-14.438 6.477-14.438 14.438s6.477 14.438 14.438 14.438 14.438-6.477 14.438-14.438-6.477-14.438-14.438-14.438v0z"></path>
<path d="M21.389 17.37c0.218 0.013 0.435 0.013 0.653 0.051 0.064 0.013 0.141 0.077 0.166 0.141 0.038 0.102 0.051 0.23 0.077 0.346 0.102 0.614 0.576 1.050 1.19 1.088 0.333 0.013 0.691 0.013 1.011-0.064 0.653-0.154 0.96-0.666 0.832-1.306-0.051-0.256-0.192-0.461-0.41-0.589-0.346-0.192-0.691-0.371-1.050-0.499-0.627-0.23-1.267-0.422-1.818-0.819-0.256-0.179-0.486-0.397-0.691-0.627-0.269-0.32-0.397-0.704-0.397-1.126 0-0.256-0.013-0.512 0.013-0.768 0.064-0.704 0.474-1.203 1.037-1.562 0.282-0.179 0.627-0.294 0.947-0.41 0.294-0.102 0.243-0.038 0.243-0.32 0-0.243 0-0.486 0.013-0.742 0.013-0.269 0.077-0.346 0.346-0.346 0.269-0.013 0.55 0 0.819 0 0.128 0 0.218 0.051 0.23 0.205 0.026 0.333 0.064 0.666 0.077 0.998 0.013 0.115 0.051 0.166 0.154 0.192 0.154 0.038 0.307 0.090 0.448 0.154 0.973 0.41 1.485 1.165 1.651 2.176 0.026 0.154 0.026 0.294 0.038 0.448 0.013 0.141-0.064 0.256-0.205 0.256-0.435 0.013-0.87 0.013-1.306-0.013-0.051 0-0.128-0.102-0.154-0.166-0.051-0.166-0.051-0.358-0.115-0.525-0.077-0.205-0.154-0.41-0.282-0.589-0.192-0.282-0.486-0.435-0.832-0.422-0.205 0-0.397 0.013-0.602 0.038-0.499 0.064-0.819 0.448-0.858 0.986-0.038 0.512 0.179 0.858 0.614 1.075 0.41 0.192 0.845 0.333 1.254 0.512 0.486 0.218 0.986 0.41 1.446 0.666 0.525 0.294 0.934 0.755 1.024 1.37 0.128 0.819 0.141 1.651-0.525 2.304-0.435 0.435-0.986 0.691-1.587 0.832-0.32 0.077-0.346 0.090-0.346 0.422 0 0.243-0.026 0.486-0.038 0.742 0 0.115-0.077 0.192-0.192 0.192-0.282 0.013-0.563 0.038-0.832 0.026-0.294-0.013-0.474-0.192-0.512-0.486-0.026-0.218-0.026-0.435-0.013-0.653 0-0.115-0.051-0.154-0.154-0.192-0.384-0.141-0.768-0.269-1.126-0.474-0.666-0.384-0.986-0.998-1.050-1.754-0.013-0.166 0-0.32 0-0.486s0.090-0.243 0.256-0.243c0.179 0 0.346 0 0.525 0 0.026-0.026 0.026-0.026 0.026-0.038z"></path>
<path d="M12.928 14.81c0-0.819 0-1.69 0-2.573 0-0.307 0.307-0.717 0.64-0.832 0.358-0.128 0.794-0.051 0.998 0.23 0.102 0.141 0.154 0.346 0.154 0.538 0.038 0.986 0.051 1.971 0.077 2.957 0.026 0.768 0.051 1.536 0.064 2.304 0.026 0.845 0.55 1.318 1.101 1.459 0.384 0.090 0.768 0.102 1.152 0 0.563-0.141 0.934-0.55 0.998-1.165 0.051-0.525 0.090-1.062 0.090-1.587 0.013-1.075 0-2.138 0.013-3.213 0-0.294 0.013-0.589 0.064-0.87 0.064-0.397 0.346-0.627 0.768-0.691 0.307-0.051 0.653 0.102 0.794 0.397 0.090 0.192 0.128 0.422 0.128 0.627 0.013 1.165 0.013 2.342 0.013 3.507 0 0.627-0.026 1.267-0.038 1.894-0.038 1.69-1.382 2.637-2.65 2.714-0.666 0.038-1.318 0.051-1.971-0.102-1.267-0.294-2.163-1.19-2.278-2.624-0.090-0.973-0.077-1.933-0.115-2.97z"></path>
<path d="M9.062 18.445c-0.486 0-0.973 0-1.459 0-0.115 0-0.166 0.038-0.205 0.141-0.154 0.397-0.307 0.794-0.461 1.19-0.051 0.115-0.102 0.23-0.166 0.333-0.23 0.41-0.602 0.538-1.037 0.358-0.384-0.154-0.614-0.589-0.499-0.986 0.243-0.768 0.499-1.523 0.781-2.278 0.602-1.626 1.203-3.264 1.818-4.89 0.026-0.077 0.064-0.154 0.102-0.23 0.397-0.717 0.909-0.858 1.651-0.602 0.256 0.090 0.435 0.32 0.538 0.576 0.371 0.896 0.742 1.779 1.088 2.688 0.563 1.498 1.114 3.008 1.651 4.518 0.115 0.333 0.128 0.64-0.102 0.947-0.307 0.384-1.088 0.525-1.382-0.077-0.23-0.461-0.422-0.947-0.614-1.434-0.064-0.166-0.154-0.218-0.32-0.218-0.461 0.013-0.922 0-1.382 0 0-0.013 0-0.026 0-0.038zM9.050 13.773c-0.038 0.090-0.064 0.128-0.090 0.179-0.307 0.922-0.614 1.843-0.922 2.765-0.051 0.154 0 0.205 0.141 0.205 0.563 0 1.126 0 1.69 0 0.205 0 0.23-0.026 0.154-0.23-0.282-0.832-0.55-1.664-0.832-2.496-0.026-0.141-0.077-0.256-0.141-0.422z"></path>
</svg>
