<!-- Generated by IcoMoon.io -->
<svg version="1.1" xmlns="http://www.w3.org/2000/svg" width="32" height="32" viewBox="0 0 32 32">
<title>AURA</title>
<path d="M0 14.603c0.212-1.044 0.353-2.102 0.649-3.118 1.411-4.642 4.43-7.817 8.945-9.594 1.933-0.748 3.951-1.213 5.996-1.185 6.377 0.085 11.598 2.384 14.772 8.226 0.847 1.538 1.326 3.231 1.524 4.981 0.014 0.183 0.085 0.367 0.113 0.564 0 0.903 0 1.792 0 2.695-0.169 0.861-0.282 1.721-0.522 2.554-1.623 5.813-5.46 9.354-11.245 10.808-4.628 1.171-9.058 0.55-13.122-1.891-4.176-2.511-6.448-6.335-6.998-11.175-0.028-0.183-0.071-0.367-0.113-0.564 0-0.762 0-1.524 0-2.3zM16.663 30.773c0.776-0.127 2.159-0.254 3.499-0.564 6.829-1.608 11.302-6.984 11.443-13.898 0.127-6.152-2.54-10.794-8.113-13.531-4.134-2.032-8.48-2.243-12.882-0.861-3.683 1.157-6.533 3.358-8.423 6.744-1.75 3.132-2.173 6.49-1.552 9.975 0.578 3.302 2.13 6.095 4.684 8.296 3.076 2.653 6.73 3.711 11.344 3.838z"></path>
<path d="M12.6 2.907c-0.72 1.129-1.453 2.159-2.060 3.245-0.776 1.411-1.256 2.949-1.411 4.557-0.381 3.767 2.046 6.519 5.023 7.732 1.862 0.762 3.697 1.566 5.263 2.864 1.411 1.199 2.497 2.582 2.384 4.571-0.042 0.903-0.494 1.58-1.199 2.088-0.325 0.226-0.578 0.24-0.649-0.268-0.31-2.526-1.75-4.247-4.289-4.854-1.27-0.31-2.596-0.437-3.908-0.522-2.568-0.169-5.023-0.691-7.182-2.187-0.198-0.141-0.367-0.296-0.564-0.423-2.131-1.552-2.257-3.739-1.933-6.095 0.705-5.235 4.924-9.693 10.131-10.667 0.099-0.028 0.226-0.028 0.395-0.042z"></path>
<path d="M22.829 4.064c-0.353 0.282-0.649 0.522-0.945 0.748-1.397 1.115-2.526 2.413-3.090 4.134-0.734 2.173-0.169 4.092 1.256 5.771 1.312 1.566 2.737 3.048 4.049 4.614 0.607 0.734 1.143 1.538 1.608 2.37 0.818 1.467 0.536 2.864-0.748 3.951-0.367 0.31-0.776 0.593-1.199 0.861-0.367 0.24-0.635 0.127-0.607-0.353 0.183-3.019-1.51-4.995-3.781-6.519-1.496-1.002-3.16-1.764-4.797-2.54-1.199-0.564-2.3-1.199-3.104-2.272-1.016-1.354-1.199-2.921-0.931-4.515 0.494-2.935 1.919-5.404 4.134-7.393 0.183-0.155 0.437-0.296 0.677-0.325 2.497-0.254 4.882 0.183 7.168 1.199 0.085 0.056 0.141 0.127 0.31 0.268z"></path>
<path d="M19.866 10.822c0.042-1.496 0.748-2.723 1.764-3.767 0.677-0.705 1.481-1.284 2.229-1.905 0.325-0.268 0.635-0.268 0.974-0.014 1.792 1.34 3.259 2.949 4.148 5.023 0.085 0.212 0.028 0.621-0.127 0.776-1.524 1.481-1.707 3.16-0.818 5.023 0.31 0.649 0.607 1.312 0.861 1.989 0.621 1.623 0.254 3.090-0.734 4.459-0.268 0.367-0.536 0.381-0.677-0.085-0.663-2.102-2.102-3.683-3.527-5.277-1.030-1.157-2.088-2.314-3.090-3.499-0.607-0.776-0.988-1.679-1.002-2.723z"></path>
</svg>
