<?xml version="1.0" encoding="utf-8"?>
<!-- Generator: Adobe Illustrator 22.1.0, SVG Export Plug-In . SVG Version: 6.00 Build 0)  -->
<svg version="1.1" id="Layer_1" xmlns="http://www.w3.org/2000/svg" xmlns:xlink="http://www.w3.org/1999/xlink" x="0px" y="0px"
	 viewBox="0 0 226.8 226.8" style="enable-background:new 0 0 226.8 226.8;" xml:space="preserve">
<g>
	<path d="M0,103.5c1.5-7.4,2.5-14.9,4.6-22.1c10-32.9,31.4-55.4,63.4-68C81.7,8.1,96,4.8,110.5,5c45.2,0.6,82.2,16.9,104.7,58.3
		c6,10.9,9.4,22.9,10.8,35.3c0.1,1.3,0.6,2.6,0.8,4c0,6.4,0,12.7,0,19.1c-1.2,6.1-2,12.2-3.7,18.1c-11.5,41.2-38.7,66.3-79.7,76.6
		c-32.8,8.3-64.2,3.9-93-13.4c-29.6-17.8-45.7-44.9-49.6-79.2c-0.2-1.3-0.5-2.6-0.8-4C0,114.4,0,109,0,103.5z M118.1,218.1
		c5.5-0.9,15.3-1.8,24.8-4c48.4-11.4,80.1-49.5,81.1-98.5c0.9-43.6-18-76.5-57.5-95.9c-29.3-14.4-60.1-15.9-91.3-6.1
		c-26.1,8.2-46.3,23.8-59.7,47.8c-12.4,22.2-15.4,46-11,70.7c4.1,23.4,15.1,43.2,33.2,58.8C59.5,209.7,85.4,217.2,118.1,218.1z"/>
	<path d="M89.3,20.6c-5.1,8-10.3,15.3-14.6,23c-5.5,10-8.9,20.9-10,32.3c-2.7,26.7,14.5,46.2,35.6,54.8
		c13.2,5.4,26.2,11.1,37.3,20.3c10,8.5,17.7,18.3,16.9,32.4c-0.3,6.4-3.5,11.2-8.5,14.8c-2.3,1.6-4.1,1.7-4.6-1.9
		c-2.2-17.9-12.4-30.1-30.4-34.4c-9-2.2-18.4-3.1-27.7-3.7c-18.2-1.2-35.6-4.9-50.9-15.5c-1.4-1-2.6-2.1-4-3
		c-15.1-11-16-26.5-13.7-43.2c5-37.1,34.9-68.7,71.8-75.6C87.2,20.7,88.1,20.7,89.3,20.6z"/>
	<path d="M161.8,28.8c-2.5,2-4.6,3.7-6.7,5.3c-9.9,7.9-17.9,17.1-21.9,29.3c-5.2,15.4-1.2,29,8.9,40.9c9.3,11.1,19.4,21.6,28.7,32.7
		c4.3,5.2,8.1,10.9,11.4,16.8c5.8,10.4,3.8,20.3-5.3,28c-2.6,2.2-5.5,4.2-8.5,6.1c-2.6,1.7-4.5,0.9-4.3-2.5
		c1.3-21.4-10.7-35.4-26.8-46.2c-10.6-7.1-22.4-12.5-34-18c-8.5-4-16.3-8.5-22-16.1c-7.2-9.6-8.5-20.7-6.6-32
		c3.5-20.8,13.6-38.3,29.3-52.4c1.3-1.1,3.1-2.1,4.8-2.3c17.7-1.8,34.6,1.3,50.8,8.5C160.2,27.3,160.6,27.8,161.8,28.8z"/>
	<path d="M140.8,76.7c0.3-10.6,5.3-19.3,12.5-26.7c4.8-5,10.5-9.1,15.8-13.5c2.3-1.9,4.5-1.9,6.9-0.1c12.7,9.5,23.1,20.9,29.4,35.6
		c0.6,1.5,0.2,4.4-0.9,5.5c-10.8,10.5-12.1,22.4-5.8,35.6c2.2,4.6,4.3,9.3,6.1,14.1c4.4,11.5,1.8,21.9-5.2,31.6
		c-1.9,2.6-3.8,2.7-4.8-0.6c-4.7-14.9-14.9-26.1-25-37.4c-7.3-8.2-14.8-16.4-21.9-24.8C143.6,90.5,140.9,84.1,140.8,76.7z"/>
</g>
</svg>
