<!-- Generated by IcoMoon.io -->
<svg version="1.1" xmlns="http://www.w3.org/2000/svg" width="32" height="32" viewBox="0 0 32 32">
<title>AUTO</title>
<path d="M2.018 24.056c-0.014-0.268-0.028-0.48-0.028-0.691 0-4.882 0.014-9.764-0.014-14.631 0-0.621 0.212-0.959 0.762-1.27 3.062-1.721 6.095-3.499 9.129-5.249 1.213-0.705 2.427-1.425 3.668-2.088 0.254-0.141 0.72-0.183 0.945-0.042 4.459 2.54 8.889 5.108 13.333 7.676 0.071 0.042 0.113 0.113 0.212 0.212 0 4.289 0 8.607 0 13.065-2.286-1.312-4.501-2.582-6.801-3.922 0.296-1.002 0.593-2.004 0.903-3.076 0.917 0.522 1.778 0.988 2.709 1.51 0-2.004 0-3.894 0-5.884-3.005-1.735-6.053-3.499-9.242-5.333 0 4.219 0 8.31 0 12.416-0.79 0.494-1.524 0.931-2.399 1.481 4.19 2.427 8.254 4.783 12.43 7.21-1.51 0.889-2.949 1.735-4.374 2.568-2.145 1.242-4.317 2.469-6.448 3.753-0.564 0.339-0.974 0.324-1.552 0-3.556-2.088-7.153-4.148-10.723-6.222-0.818-0.48-1.637-0.959-2.511-1.481zM14.25 4.571c-3.118 1.806-6.081 3.527-8.945 5.178 0 3.527 0 6.899 0 10.399 3.062-1.764 6.011-3.471 8.945-5.164 0-3.457 0-6.857 0-10.413zM6.928 23.125c3.146 1.82 6.123 3.541 9.101 5.249 1.721-1.002 3.33-1.933 5.065-2.935-2.991-1.75-5.813-3.4-8.663-5.023-0.212-0.113-0.593-0.099-0.804 0.014-1.524 0.847-3.019 1.721-4.698 2.695z"></path>
</svg>
