<?xml version="1.0" encoding="utf-8"?>
<!-- Generator: Adobe Illustrator 22.1.0, SVG Export Plug-In . SVG Version: 6.00 Build 0)  -->
<svg version="1.1" id="Layer_1" xmlns="http://www.w3.org/2000/svg" xmlns:xlink="http://www.w3.org/1999/xlink" x="0px" y="0px"
	 viewBox="0 0 226.8 226.8" style="enable-background:new 0 0 226.8 226.8;" xml:space="preserve">
<g>
	<path d="M14.3,170.5c-0.1-1.9-0.2-3.4-0.2-4.9c0-34.6,0.1-69.2-0.1-103.7c0-4.4,1.5-6.8,5.4-9c21.7-12.2,43.2-24.8,64.7-37.2
		c8.6-5,17.2-10.1,26-14.8c1.8-1,5.1-1.3,6.7-0.3c31.6,18,63,36.2,94.5,54.4c0.5,0.3,0.8,0.8,1.5,1.5c0,30.4,0,61,0,92.6
		c-16.2-9.3-31.9-18.3-48.2-27.8c2.1-7.1,4.2-14.2,6.4-21.8c6.5,3.7,12.6,7,19.2,10.7c0-14.2,0-27.6,0-41.7
		c-21.3-12.3-42.9-24.8-65.5-37.8c0,29.9,0,58.9,0,88c-5.6,3.5-10.8,6.6-17,10.5c29.7,17.2,58.5,33.9,88.1,51.1
		c-10.7,6.3-20.9,12.3-31,18.2c-15.2,8.8-30.6,17.5-45.7,26.6c-4,2.4-6.9,2.3-11,0c-25.2-14.8-50.7-29.4-76-44.1
		C26.3,177.6,20.5,174.2,14.3,170.5z M101,32.4c-22.1,12.8-43.1,25-63.4,36.7c0,25,0,48.9,0,73.7c21.7-12.5,42.6-24.6,63.4-36.6
		C101,81.7,101,57.6,101,32.4z M49.1,163.9c22.3,12.9,43.4,25.1,64.5,37.2c12.2-7.1,23.6-13.7,35.9-20.8
		c-21.2-12.4-41.2-24.1-61.4-35.6c-1.5-0.8-4.2-0.7-5.7,0.1C71.6,150.8,61,157,49.1,163.9z"/>
</g>
</svg>
