<?xml version="1.0" encoding="utf-8"?>
<!-- Generator: Adobe Illustrator 22.1.0, SVG Export Plug-In . SVG Version: 6.00 Build 0)  -->
<svg version="1.1" id="Layer_1" xmlns="http://www.w3.org/2000/svg" xmlns:xlink="http://www.w3.org/1999/xlink" x="0px" y="0px"
	 viewBox="0 0 226.8 226.8" style="enable-background:new 0 0 226.8 226.8;" xml:space="preserve">
<g>
	<path d="M30.2,114.1c-0.3,17.5,4.9,32.4,14,45.9c19.3,28.7,54.6,42.7,87.3,34.8c34.7-8.3,60-36,64.6-70.7
		c6.1-46-28.6-89.7-74.3-93.3c-5.8-0.5-8.9-2.3-8.3-9c0.6-6.9,0.1-13.8,0.1-21.1c26.4,0.9,49.6,8.3,69.5,24.4
		c55.6,44.9,57.2,126.9,3.5,173.8c-53.9,47.2-140.7,30.4-173.3-33.3C6.2,151.3,2,136.4,1.1,120.4C0.8,116,2,113.7,7,114
		C14.4,114.3,21.8,114.1,30.2,114.1z"/>
	<path d="M83.6,0.1c0,14.6,0,28.1,0,41.6c0,23.7-0.1,47.4,0,71.1c0.1,13.9,9.1,25.7,21.8,29.2c13,3.5,26.4-2,33.5-13.9
		c9.4-15.6,1.8-36.1-15.9-42.5c-2.9-1.1-6-1.6-9.3-2.4c0-11.6,0-23.3,0-35.5c14.8-0.1,27.7,4.4,39.1,12.9c17.2,13,26.7,31,26.5,52.3
		c-0.2,41.8-35.9,73.2-78.5,65c-33-6.3-53.7-32.9-53.7-66.4c0-34.7,0.1-69.5-0.1-104.2c0-5.7,1.8-7.4,7.3-7.2
		C63.8,0.4,73.2,0.1,83.6,0.1z"/>
	<path d="M113.7,132.5c0-12.7,0-24.8,0-37.2c6.8-1.4,11.6,1.8,15.1,6.5c4.8,6.5,5.3,14,1.7,21.1C127.3,129,122.2,133.4,113.7,132.5z
		"/>
</g>
</svg>
