<!-- Generated by IcoMoon.io -->
<svg version="1.1" xmlns="http://www.w3.org/2000/svg" width="32" height="32" viewBox="0 0 32 32">
<title>BANCA</title>
<path d="M4.261 16.099c-0.042 2.469 0.691 4.571 1.975 6.476 2.723 4.049 7.704 6.025 12.317 4.91 4.896-1.171 8.466-5.079 9.115-9.975 0.861-6.49-4.035-12.656-10.483-13.164-0.818-0.071-1.256-0.325-1.171-1.27 0.085-0.974 0.014-1.947 0.014-2.977 3.725 0.127 6.998 1.171 9.806 3.443 7.845 6.335 8.071 17.905 0.494 24.522-7.605 6.66-19.852 4.289-24.451-4.698-1.002-2.018-1.594-4.12-1.721-6.377-0.042-0.621 0.127-0.945 0.832-0.903 1.044 0.042 2.088 0.014 3.273 0.014z"></path>
<path d="M11.795 0.014c0 2.060 0 3.965 0 5.87 0 3.344-0.014 6.688 0 10.032 0.014 1.961 1.284 3.626 3.076 4.12 1.834 0.494 3.725-0.282 4.727-1.961 1.326-2.201 0.254-5.093-2.243-5.996-0.409-0.155-0.847-0.226-1.312-0.339 0-1.637 0-3.287 0-5.009 2.088-0.014 3.908 0.621 5.517 1.82 2.427 1.834 3.767 4.374 3.739 7.379-0.028 5.898-5.065 10.328-11.076 9.171-4.656-0.889-7.577-4.642-7.577-9.369 0-4.896 0.014-9.806-0.014-14.702 0-0.804 0.254-1.044 1.030-1.016 1.34 0.042 2.667 0 4.134 0z"></path>
<path d="M16.042 18.695c0-1.792 0-3.499 0-5.249 0.959-0.198 1.637 0.254 2.131 0.917 0.677 0.917 0.748 1.975 0.24 2.977-0.451 0.861-1.171 1.481-2.37 1.355z"></path>
</svg>
