<!-- Generated by IcoMoon.io -->
<svg version="1.1" xmlns="http://www.w3.org/2000/svg" width="32" height="32" viewBox="0 0 32 32">
<title>BANX</title>
<path d="M26.193 20.36l1.669-2.72 1.531 2.72h2.584l-2.881-4.287 2.641-3.875h-2.424l-1.451 2.537-1.372-2.537h-2.503l2.663 3.875-2.903 4.287zM12.451 12.198h-2.16l-3.052 8.161h2.183l0.514-1.463h2.846l0.503 1.463h2.218l-3.052-8.161zM10.428 17.319l0.926-2.857h0.023l0.903 2.857h-1.852zM5.716 15.89c0.64-0.32 1.074-0.914 1.074-1.646 0-1.703-1.543-2.069-2.949-2.046h-3.818v8.161h3.921c1.749 0 3.178-0.595 3.178-2.538 0-0.926-0.537-1.68-1.406-1.932zM2.15 13.845h1.646c0.446 0 0.869 0.194 0.869 0.789 0 0.583-0.503 0.777-0.869 0.777h-1.646v-1.566zM3.853 18.657h-1.703v-1.874h1.703c0.64 0 1.143 0.24 1.143 0.96 0 0.674-0.469 0.915-1.143 0.915zM21.115 17.228l-2.835-5.029h-2.183v8.161h2.001v-5.087h0.023l2.835 5.087h2.183v-8.161h-2v5.029zM4.015 21.452c-0.067 0-0.122 0.055-0.122 0.122v0 2.937c0 0.067 0.055 0.122 0.122 0.122h1.774c0.067-0 0.122-0.055 0.122-0.122v0-2.937c-0-0.067-0.055-0.122-0.122-0.122 0 0 0 0 0 0h-1.774zM5.789 11.233c0.067-0 0.122-0.055 0.122-0.122v-2.937c0-0.068-0.055-0.122-0.122-0.122v0h-1.774c-0 0-0 0-0 0-0.067 0-0.122 0.055-0.122 0.122 0 0 0 0 0 0v0 2.937c0 0.067 0.055 0.122 0.122 0.122h1.774zM1.92 11.233c0.067-0 0.122-0.055 0.122-0.122v-2.937c0-0 0-0 0-0 0-0.067-0.055-0.122-0.122-0.122-0 0-0 0-0 0h-1.774c-0 0-0 0-0 0-0.067 0-0.122 0.055-0.122 0.122 0 0 0 0 0 0v0 2.937c0 0.067 0.055 0.122 0.122 0.122h1.774zM0.146 21.452c-0 0-0 0-0 0-0.067 0-0.122 0.055-0.122 0.122 0 0 0 0 0 0v0 2.937c0 0.067 0.055 0.122 0.122 0.122h1.774c0.067-0 0.122-0.055 0.122-0.122v0-2.937c0-0.067-0.055-0.122-0.122-0.122-0 0-0 0-0 0h-1.774z"></path>
</svg>
