<!-- Generated by IcoMoon.io -->
<svg version="1.1" xmlns="http://www.w3.org/2000/svg" width="32" height="32" viewBox="0 0 32 32">
<title>BAX</title>
<path d="M5.376 24.931c-1.439-0.409-1.764-1.34-1.764-2.568-0.028-3.753-0.169-7.52 0.508-11.231 0.254-1.411 0.564-2.822 1.058-4.162 2.808-7.478 13.136-9.411 18.483-3.471 1.82 2.018 2.78 4.43 2.723 7.168-0.014 1.101 0.212 1.989 0.931 2.878 4.755 5.968 1.524 15.915-6.688 17.58-4.642 0.945-9.312 0.945-13.996 0.677-1.919-0.113-2.3-0.705-2.032-2.653 0.099-0.705 0.226-1.411 0.353-2.116 0.127-0.663 0.268-1.312 0.423-2.102zM26.060 14.067c-0.226 0.494-0.381 0.79-0.494 1.086-1.044 2.624-2.822 4.571-5.404 5.742-1.185 0.536-2.384 1.101-3.64 1.439-2.85 0.762-5.714 1.425-8.607 2.032-0.889 0.183-1.312 0.564-1.453 1.425-0.183 1.171-0.466 2.314-0.621 3.485-0.141 1.072 0.028 1.298 1.115 1.326 4.473 0.155 8.917 0.183 13.347-0.705 5.489-1.101 8.635-6.363 7.817-11.541-0.226-1.538-0.832-2.963-2.060-4.289zM5.15 23.45c0.141 0 0.282 0.014 0.423 0.014 0.198-0.522 0.395-1.058 0.593-1.58 0.776-2.088 1.481-4.219 2.37-6.265 0.705-1.637 1.764-3.090 3.302-4.092 3.922-2.582 8-2.921 12.233-0.818 0.282 0.141 0.593 0.254 0.988 0.423 0.028-0.451 0.099-0.79 0.071-1.115-0.48-5.644-5.15-9.199-10.3-8.734-3.937 0.353-8 2.85-9.086 8.042-0.917 4.388-0.974 8.79-0.847 13.235 0 0.31 0.169 0.593 0.254 0.889zM7.139 23.21c0.705-0.085 1.157-0.113 1.594-0.198 1.157-0.226 2.328-0.437 3.471-0.72 2.667-0.649 5.291-1.425 7.76-2.667 2.455-1.242 3.936-3.231 4.755-5.813 0.212-0.663 0.113-1.086-0.48-1.51-3.81-2.794-10.356-1.989-13.235 1.735-2.018 2.61-2.949 5.728-3.866 9.171z"></path>
</svg>
