<?xml version="1.0" encoding="utf-8"?>
<!-- Generator: Adobe Illustrator 22.1.0, SVG Export Plug-In . SVG Version: 6.00 Build 0)  -->
<svg version="1.1" id="Layer_1" xmlns="http://www.w3.org/2000/svg" xmlns:xlink="http://www.w3.org/1999/xlink" x="0px" y="0px"
	 viewBox="0 0 226.8 226.8" style="enable-background:new 0 0 226.8 226.8;" xml:space="preserve">
<g>
	<path d="M38.1,176.7c-10.2-2.9-12.5-9.5-12.5-18.2c-0.2-26.6-1.2-53.3,3.6-79.6c1.8-10,4-20,7.5-29.5c19.9-53,93.1-66.7,131-24.6
		c12.9,14.3,19.7,31.4,19.3,50.8c-0.1,7.8,1.5,14.1,6.6,20.4c33.7,42.3,10.8,112.8-47.4,124.6c-32.9,6.7-66,6.7-99.2,4.8
		c-13.6-0.8-16.3-5-14.4-18.8c0.7-5,1.6-10,2.5-15C36,186.9,37,182.3,38.1,176.7z M184.7,99.7c-1.6,3.5-2.7,5.6-3.5,7.7
		c-7.4,18.6-20,32.4-38.3,40.7c-8.4,3.8-16.9,7.8-25.8,10.2c-20.2,5.4-40.5,10.1-61,14.4c-6.3,1.3-9.3,4-10.3,10.1
		c-1.3,8.3-3.3,16.4-4.4,24.7c-1,7.6,0.2,9.2,7.9,9.4c31.7,1.1,63.2,1.3,94.6-5c38.9-7.8,61.2-45.1,55.4-81.8
		C197.7,119.2,193.4,109.1,184.7,99.7z M36.5,166.2c1,0,2,0.1,3,0.1c1.4-3.7,2.8-7.5,4.2-11.2c5.5-14.8,10.5-29.9,16.8-44.4
		c5-11.6,12.5-21.9,23.4-29c27.8-18.3,56.7-20.7,86.7-5.8c2,1,4.2,1.8,7,3c0.2-3.2,0.7-5.6,0.5-7.9c-3.4-40-36.5-65.2-73-61.9
		c-27.9,2.5-56.7,20.2-64.4,57c-6.5,31.1-6.9,62.3-6,93.8C34.7,162.1,35.9,164.1,36.5,166.2z M50.6,164.5c5-0.6,8.2-0.8,11.3-1.4
		c8.2-1.6,16.5-3.1,24.6-5.1c18.9-4.6,37.5-10.1,55-18.9c17.4-8.8,27.9-22.9,33.7-41.2c1.5-4.7,0.8-7.7-3.4-10.7
		C144.8,67.4,98.4,73.1,78,99.5C63.7,118,57.1,140.1,50.6,164.5z"/>
</g>
</svg>
