<!-- Generated by IcoMoon.io -->
<svg version="1.1" xmlns="http://www.w3.org/2000/svg" width="32" height="32" viewBox="0 0 32 32">
<title>BAY</title>
<path d="M19.713 32h-17.571v-25.648h6.352v-6.352h12.462c2.732 0 5.317 1.28 7.281 3.604 1.62 1.918 2.626 4.347 2.626 6.338 0 2.543-0.916 4.828-1.605 6.139 0.467 0.79 0.874 1.702 1.171 2.662l0.024 0.092c0.795 2.634 0.6 5.2-0.562 7.421-1.193 2.28-2.969 3.912-5.276 4.851-1.456 0.593-3.105 0.893-4.902 0.893zM5.457 28.686h14.257c3.428 0 5.865-1.335 7.243-3.967 1.912-3.653-0.909-7.521-0.938-7.559l-0.821-1.013 0.795-1.032c0.24-0.326 1.559-2.677 1.559-5.173 0-0.971-0.577-2.7-1.844-4.199-0.767-0.907-2.402-2.429-4.749-2.429h-9.148v3.038h8.595c1.756 0 3.351 1.205 3.88 2.932 0.124 0.38 0.196 0.817 0.196 1.271 0 1.153-0.463 2.198-1.213 2.959l0-0.001c-0.353 0.353-1.746 1.573-2.863 2.543 1.182 1.122 2.78 2.642 3.174 3.036 1.301 1.301 1.051 3.62 0.309 4.646-0.601 0.83-1.67 1.933-4.003 1.933h-11.584v-14.487h3.314v11.173h8.27c0.843 0 1.068-0.223 1.27-0.496 0.039-0.132 0.046-0.368 0.015-0.492-0.617-0.608-3.098-2.961-4.371-4.166l-1.332-1.261 1.39-1.198c1.384-1.192 3.712-3.218 4.070-3.576 0.015-0.015 0.359-0.367 0.191-0.915-0.119-0.387-0.448-0.589-0.711-0.589h-14.947v19.020z"></path>
</svg>
