<?xml version="1.0" encoding="utf-8"?>
<!-- Generator: Adobe Illustrator 22.1.0, SVG Export Plug-In . SVG Version: 6.00 Build 0)  -->
<svg version="1.1" id="Layer_1" xmlns="http://www.w3.org/2000/svg" xmlns:xlink="http://www.w3.org/1999/xlink" x="0px" y="0px"
	 viewBox="0 0 226.8 226.8" style="enable-background:new 0 0 226.8 226.8;" xml:space="preserve">
<g>
	<path d="M219.4,120.3c1.2,54.2-44.6,102.6-97.9,106.3C71,230,28.8,199,12.9,155.9c-4-10.9-4.7-23.1-5.9-34.8
		c-0.8-8.2,5-14,12.4-14.4c7.3-0.3,13.3,5.6,13.6,14c0.8,21.4,8.3,40,23.3,55.4c26.6,27.4,68,31.8,100.2,10.5
		c33.8-22.3,45.7-63.7,28.9-100.6c-13.7-30-46.5-48.9-79-45.4C92.6,42.2,92.6,42.2,92.6,28c0-13.6,0-13.7,11.9-14.5
		c41-2.7,72.9,13.7,96.5,46.7C214.2,78.9,219.4,97.4,219.4,120.3z"/>
	<path d="M33.5,66.9c3.2-0.3,5.1-0.6,7-0.6c23.7,0,47.4-0.2,71.1,0c29.4,0.3,51.5,19.8,54.4,48.9c2,20-5.6,36.7-21.9,48.3
		c-16.1,11.5-34.1,13.3-52.3,5.4c-22-9.5-31.5-27.6-32.5-50.8c-0.2-4.3,0.1-8.7,0-13c-0.1-3.9,1.5-5.9,5.6-5.7
		c5.7,0.2,11.4,0.2,17.2,0.2c3.3,0,4.5,1.7,4.5,4.8c-0.1,5.5-0.2,11.1,0.1,16.6c0.9,13.9,10.9,24.3,24.3,25.4
		c13.1,1.1,25.1-8,28.1-21.3c2.8-12.5-4.6-25.6-17.3-30.1c-3.4-1.2-7.3-1.5-11-1.5c-19.4-0.1-38.7-0.2-58.1,0
		c-4.3,0.1-6.8-1.2-8.6-5.3C41.1,81.4,37.5,74.8,33.5,66.9z"/>
	<path d="M86.6,34.6c0,6.9-0.1,13.8,0,20.7c0.1,3.5-1.3,5.1-4.8,5c-5.7-0.1-11.4-0.1-17.1,0c-3.6,0.1-4.8-1.7-4.8-5.1
		c0.2-14,0-28,0.3-42C60.4,5.7,66.1,0,72.7,0c7.8,0,13.5,5.7,13.8,13.9c0.1,3.5,0.1,7.1,0.1,10.6C86.6,27.9,86.6,31.3,86.6,34.6
		C86.6,34.6,86.6,34.6,86.6,34.6z"/>
	<path d="M25.3,57.9c8.5-8.5,17-17.1,25.5-25.6c0.8,0.4,1.5,0.7,2.3,1.1c0,8.3,0.1,16.5-0.1,24.8c0,0.7-1.7,1.9-2.6,1.9
		c-8,0.1-16,0.1-24,0.1C26,59.4,25.7,58.6,25.3,57.9z"/>
</g>
</svg>
