<!-- Generated by IcoMoon.io -->
<svg version="1.1" xmlns="http://www.w3.org/2000/svg" width="32" height="32" viewBox="0 0 32 32">
<title>BBR</title>
<path d="M30.956 16.974c0.169 7.647-6.293 14.476-13.813 14.998-7.125 0.48-13.079-3.894-15.323-9.975-0.564-1.538-0.663-3.259-0.832-4.91-0.113-1.157 0.705-1.975 1.75-2.032 1.030-0.042 1.877 0.79 1.919 1.975 0.113 3.019 1.171 5.644 3.287 7.817 3.753 3.866 9.594 4.487 14.138 1.481 4.769-3.146 6.448-8.988 4.078-14.194-1.933-4.233-6.561-6.899-11.146-6.406-1.947 0.226-1.947 0.226-1.947-1.778 0-1.919 0-1.933 1.679-2.046 5.785-0.381 10.286 1.933 13.616 6.589 1.862 2.638 2.596 5.249 2.596 8.48z"></path>
<path d="M4.727 9.439c0.452-0.042 0.72-0.085 0.988-0.085 3.344 0 6.688-0.028 10.032 0 4.148 0.042 7.266 2.794 7.675 6.899 0.282 2.822-0.79 5.178-3.090 6.815-2.272 1.623-4.811 1.877-7.379 0.762-3.104-1.34-4.444-3.894-4.586-7.168-0.028-0.607 0.014-1.227 0-1.834-0.014-0.55 0.212-0.832 0.79-0.804 0.804 0.028 1.608 0.028 2.427 0.028 0.466 0 0.635 0.24 0.635 0.677-0.014 0.776-0.028 1.566 0.014 2.342 0.127 1.961 1.538 3.429 3.429 3.584 1.848 0.155 3.541-1.129 3.965-3.005 0.395-1.764-0.649-3.612-2.441-4.247-0.48-0.169-1.030-0.212-1.552-0.212-2.737-0.014-5.46-0.028-8.198 0-0.607 0.014-0.959-0.169-1.213-0.748-0.423-0.959-0.931-1.891-1.496-3.005z"></path>
<path d="M12.219 4.882c0 0.974-0.014 1.947 0 2.921 0.014 0.494-0.183 0.72-0.677 0.705-0.804-0.014-1.608-0.014-2.413 0-0.508 0.014-0.677-0.24-0.677-0.72 0.028-1.975 0-3.951 0.042-5.926 0.028-1.058 0.832-1.862 1.764-1.862 1.101 0 1.905 0.804 1.947 1.961 0.014 0.494 0.014 1.002 0.014 1.496 0 0.48 0 0.959 0 1.425 0 0 0 0 0 0z"></path>
<path d="M3.57 8.169c1.199-1.199 2.399-2.413 3.598-3.612 0.113 0.056 0.212 0.099 0.325 0.155 0 1.171 0.014 2.328-0.014 3.499 0 0.099-0.24 0.268-0.367 0.268-1.129 0.014-2.258 0.014-3.386 0.014-0.056-0.113-0.099-0.226-0.155-0.325z"></path>
</svg>
