<!-- Generated by IcoMoon.io -->
<svg version="1.1" xmlns="http://www.w3.org/2000/svg" width="32" height="32" viewBox="0 0 32 32">
<title>BC</title>
<path d="M1.272 0.513s3.821 0.984 3.821 6.657v17.121c0 6.7-3.821 7.085-3.821 7.085v0.57l6.244-0.299v-31.348l-6.244-0.299v0.513zM25.129 7.634c0.085 4.552-1.754 6.329-1.754 6.329s4.512-1.454 4.426-6.629c-0.085-5.175-6.18-6.501-6.18-6.501s3.421 2.248 3.507 6.8zM24.712 15.653s2.7 2.404 2.83 7.521c0.131 5.117-2.83 7.64-2.83 7.64s5.698-1.604 5.634-7.698c-0.064-6.094-5.634-7.463-5.634-7.463z"></path>
<path d="M22.905 16.764c-1.026-0.855-3.935-1.839-3.935-1.839s1.925-0.962 2.801-2.352c0.877-1.39 1.561-3.935 0.92-6.607s-2.994-5.346-5.731-5.731c-2.737-0.385-3.899 0.064-7.221 0.107v31.277s5.040 0.371 7.755 0.349c2.716-0.021 6.885-1.882 7.655-6.95s-1.219-7.399-2.245-8.254zM12.577 2.951c0.492-0.47 3.037-1.304 5.453 0.364s3.043 6.551 1.048 9.145-6.971 1.91-6.971 1.91-0.022-10.949 0.47-11.419zM22.527 25.161c-1.155 4.462-4.661 4.591-6.501 4.519s-3.607-0.043-3.806-5.218c-0.199-5.175-0.114-7.941-0.114-7.941s5.474-0.214 7.342 0.599c1.868 0.813 4.234 3.578 3.079 8.040z"></path>
</svg>
