<!-- Generated by IcoMoon.io -->
<svg version="1.1" xmlns="http://www.w3.org/2000/svg" width="32" height="32" viewBox="0 0 32 32">
<title>BCA</title>
<path d="M8.367 7.111c0.72 0.085 1.439 0.155 2.145 0.24 0.212 0.028 0.325-0.014 0.423-0.24 0.522-1.34 1.171-2.596 2.173-3.64 0.268-0.282 0.593-0.508 0.875-0.79 0.085-0.085 0.169-0.24 0.155-0.353-0.141-1.199 0.691-2.116 1.651-2.314 1.072-0.212 2.102 0.409 2.413 1.496 0.071 0.254 0.042 0.522 0.071 0.79 0.014 0.113 0.028 0.282 0.113 0.339 1.171 0.847 1.947 2.004 2.582 3.273 0.198 0.381 0.367 0.79 0.508 1.185 0.085 0.226 0.212 0.254 0.423 0.24 1.002-0.071 2.018-0.183 3.019-0.169 1.143 0.028 2.243 0.31 3.189 1.030 1.072 0.818 1.524 1.933 1.397 3.259-0.155 1.764-1.016 3.217-2.018 4.614-0.113 0.155-0.212 0.31-0.339 0.437-0.24 0.226-0.169 0.395 0.014 0.621 0.847 1.030 1.552 2.131 1.989 3.4 0.155 0.466 0.226 0.959 0.353 1.439 0.028 0.127 0.127 0.254 0.226 0.325 0.804 0.508 1.115 1.242 1.002 2.159-0.099 0.748-0.734 1.439-1.538 1.651-0.508 0.127-1.002 0.071-1.481-0.155-0.127-0.056-0.325-0.085-0.451-0.028-1.143 0.494-2.342 0.621-3.57 0.55-0.635-0.042-1.27-0.113-1.905-0.198-0.183-0.028-0.226 0.071-0.282 0.212-0.395 1.016-0.875 1.975-1.51 2.864-0.72 1.016-1.58 1.862-2.808 2.229-1.284 0.381-2.427 0.014-3.443-0.804-1.171-0.931-1.891-2.201-2.497-3.527-0.056-0.127-0.113-0.24-0.155-0.367-0.268-0.649-0.268-0.635-0.959-0.536-1.467 0.212-2.935 0.226-4.388-0.212-0.099-0.028-1.383-0.056-1.481-0.028-0.974 0.24-2.032-0.282-2.413-1.213-0.395-0.959-0.042-2.046 0.847-2.582 0.183-0.113 0.24-0.226 0.268-0.437 0.141-1.101 0.564-2.116 1.143-3.048 0.395-0.635 0.832-1.227 1.27-1.82 0.113-0.155 0.113-0.254-0.014-0.395-0.832-1.030-1.566-2.13-2.032-3.386-0.423-1.129-0.649-2.286-0.198-3.471 0.409-1.072 1.213-1.75 2.257-2.159 0.959-0.353 1.961-0.452 2.977-0.48zM22.279 16.818c-0.056-1.044-0.113-2.088-0.198-3.118-0.014-0.127-0.099-0.268-0.198-0.353-1.707-1.27-3.541-2.342-5.474-3.231-0.113-0.056-0.296-0.042-0.423 0.014-1.764 0.804-3.443 1.778-5.037 2.892-0.409 0.296-0.635 0.578-0.677 1.129-0.155 1.947-0.127 3.88 0.056 5.813 0.014 0.113 0.099 0.254 0.198 0.325 1.721 1.27 3.556 2.356 5.503 3.245 0.099 0.042 0.24 0.042 0.339 0 1.947-0.889 3.781-1.975 5.503-3.245 0.099-0.071 0.198-0.226 0.198-0.353 0.085-1.030 0.141-2.074 0.212-3.118zM10.497 8.226c-0.113-0.028-0.212-0.042-0.325-0.071-0.113-0.014-0.226-0.028-0.339-0.042-1.27-0.155-2.526-0.183-3.781 0.155-1.721 0.48-2.54 1.806-2.229 3.556 0.183 1.002 0.593 1.905 1.129 2.751 0.339 0.536 0.72 1.044 1.115 1.608 0.113-0.127 0.155-0.226 0.24-0.296 0.988-0.903 1.975-1.82 2.977-2.709 0.169-0.155 0.254-0.31 0.282-0.522 0.113-0.705 0.198-1.411 0.353-2.102 0.169-0.762 0.381-1.524 0.578-2.328zM21.898 8.226c0 0.071 0 0.113 0.014 0.141 0.451 1.439 0.748 2.907 0.945 4.402 0.014 0.141 0.127 0.296 0.24 0.395 0.734 0.663 1.496 1.298 2.229 1.961 0.353 0.31 0.663 0.663 1.002 1.002 0.028-0.028 0.056-0.028 0.071-0.056 0.113-0.141 0.226-0.296 0.339-0.437 0.861-1.171 1.594-2.399 1.862-3.866 0.268-1.496-0.339-2.695-1.679-3.287-0.663-0.296-1.355-0.423-2.074-0.466-1.002-0.042-1.975 0.014-2.949 0.212zM11.725 26.074c0.48 1.326 1.397 2.991 2.469 3.951 1.242 1.086 2.794 1.101 4.021-0.014 0.959-0.875 1.594-1.947 2.131-3.118 0.127-0.268 0.226-0.536 0.339-0.804-0.056-0.028-0.085-0.056-0.113-0.071-1.439-0.339-2.822-0.818-4.19-1.383-0.127-0.056-0.296-0.028-0.437 0.028-0.79 0.282-1.58 0.607-2.37 0.875-0.593 0.198-1.213 0.353-1.848 0.536zM11.711 7.548c0.762 0.226 1.496 0.409 2.201 0.649 0.72 0.24 1.425 0.55 2.131 0.804 0.113 0.042 0.268 0.014 0.381-0.028 0.649-0.24 1.284-0.508 1.933-0.734 0.762-0.254 1.538-0.466 2.3-0.691-0.395-1.369-1.721-3.626-2.836-4.176-1.242 1.044-1.919 1.044-3.287-0.028-1.425 1.072-2.159 2.596-2.822 4.205zM5.531 25.143c1.651 0.663 3.302 0.536 4.966 0.268-0.014-0.085-0.014-0.127-0.028-0.169-0.409-1.298-0.705-2.624-0.861-3.979-0.056-0.48-0.254-0.79-0.635-1.086-0.691-0.536-1.326-1.143-1.975-1.735-0.324-0.296-0.649-0.607-0.988-0.917-1.030 1.312-1.947 2.709-2.243 4.459 0.762 0.085 1.383 0.395 1.75 1.072 0.409 0.691 0.395 1.369 0.014 2.088zM28.614 21.996c-0.31-1.764-1.213-3.16-2.272-4.501-0.056 0.042-0.099 0.071-0.141 0.113-0.974 1.058-2.046 2.004-3.16 2.907-0.113 0.085-0.169 0.268-0.198 0.423-0.169 0.889-0.31 1.792-0.48 2.667-0.127 0.607-0.296 1.185-0.466 1.82 1.693 0.254 3.344 0.395 4.966-0.282-0.381-0.72-0.395-1.397-0.014-2.074 0.367-0.677 0.988-0.988 1.764-1.072zM21.968 21.39c-1.594 0.931-3.104 1.82-4.6 2.709 0.014 0.014 0.071 0.042 0.127 0.071 1.044 0.339 2.102 0.649 3.146 1.002 0.31 0.099 0.409 0.014 0.48-0.282 0.254-1.171 0.55-2.314 0.847-3.499zM15.125 24.141c-1.594-0.945-3.104-1.82-4.684-2.751 0.31 1.227 0.607 2.427 0.917 3.612 0.014 0.085 0.169 0.198 0.226 0.183 1.157-0.325 2.328-0.677 3.541-1.044zM21.954 12.233c-0.31-1.298-0.607-2.568-0.903-3.824-0.903 0.113-3.316 0.889-3.654 1.143 1.481 0.875 2.991 1.75 4.557 2.681zM11.372 8.325c-0.31 1.34-0.607 2.61-0.917 3.908 1.58-0.931 3.090-1.806 4.656-2.737-1.242-0.381-2.455-0.762-3.739-1.171zM25.792 16.861c-0.875-0.988-1.764-1.834-2.723-2.596 0 1.721 0 3.4 0 5.178 0.931-0.889 1.82-1.735 2.723-2.582zM9.34 19.443c0-1.792 0-3.485 0-5.206-0.48 0.423-0.931 0.832-1.383 1.228-0.466 0.409-0.931 0.832-1.439 1.298 0.988 0.945 1.891 1.792 2.822 2.681z"></path>
<path d="M18.131 16.578c0.339 0.226 0.748 0.381 1.002 0.677 0.705 0.776 0.508 1.961-0.381 2.554-0.212 0.141-0.451 0.24-0.705 0.31-0.226 0.071-0.325 0.155-0.31 0.395 0.028 0.296 0 0.593 0 0.917-0.395 0-0.762 0-1.157 0 0-0.353 0-0.72 0-1.101-0.254 0-0.494 0-0.762 0 0 0.353 0 0.72 0 1.101-0.409 0-0.776 0-1.171 0 0-0.367 0-0.72 0-1.115-0.621 0-1.199 0-1.792 0 0-0.339 0-0.635 0-0.959 0.113 0 0.226-0.014 0.325-0.014 0.381-0.014 0.466-0.099 0.466-0.494 0-1.326 0-2.638 0-3.965 0-0.494-0.085-0.578-0.578-0.593-0.071 0-0.141 0-0.226-0.014 0-0.325 0-0.621 0-0.959 0.593 0 1.171 0 1.778 0 0-0.381 0-0.748 0-1.115 0.409 0 0.776 0 1.171 0 0 0.367 0 0.72 0 1.086 0.268 0 0.494 0 0.762 0 0-0.367 0-0.72 0-1.086 0.395 0 0.762 0 1.171 0 0 0.395 0 0.776 0 1.185 0.818 0.212 1.481 0.578 1.552 1.496 0.085 0.889-0.437 1.383-1.143 1.693zM15.393 17.143c0 0.635-0.014 1.199 0.014 1.764 0 0.099 0.169 0.254 0.254 0.254 0.437 0.014 0.889 0.014 1.326-0.056 0.451-0.071 0.776-0.522 0.776-0.988s-0.24-0.79-0.748-0.861c-0.536-0.071-1.058-0.071-1.623-0.113zM15.407 14.434c0 0.607 0 1.157 0 1.721 0.198 0 0.367 0.014 0.536 0 0.353-0.028 0.705-0.028 1.044-0.099 0.409-0.085 0.649-0.437 0.635-0.804-0.014-0.395-0.24-0.663-0.663-0.72-0.508-0.071-1.030-0.071-1.552-0.099z"></path>
</svg>
