<?xml version="1.0" encoding="utf-8"?>
<!-- Generator: Adobe Illustrator 22.1.0, SVG Export Plug-In . SVG Version: 6.00 Build 0)  -->
<svg version="1.1" id="Layer_1" xmlns="http://www.w3.org/2000/svg" xmlns:xlink="http://www.w3.org/1999/xlink" x="0px" y="0px"
	 viewBox="0 0 226.8 226.8" style="enable-background:new 0 0 226.8 226.8;" xml:space="preserve">
<g>
	<path d="M59.3,50.4c5.1,0.6,10.2,1.1,15.2,1.7c1.5,0.2,2.3-0.1,3-1.7c3.7-9.5,8.3-18.4,15.4-25.8c1.9-2,4.2-3.6,6.2-5.6
		c0.6-0.6,1.2-1.7,1.1-2.5c-1-8.5,4.9-15,11.7-16.4c7.6-1.5,14.9,2.9,17.1,10.6c0.5,1.8,0.3,3.7,0.5,5.6c0.1,0.8,0.2,2,0.8,2.4
		c8.3,6,13.8,14.2,18.3,23.2c1.4,2.7,2.6,5.6,3.6,8.4c0.6,1.6,1.5,1.8,3,1.7c7.1-0.5,14.3-1.3,21.4-1.2c8.1,0.2,15.9,2.2,22.6,7.3
		c7.6,5.8,10.8,13.7,9.9,23.1c-1.1,12.5-7.2,22.8-14.3,32.7c-0.8,1.1-1.5,2.2-2.4,3.1c-1.7,1.6-1.2,2.8,0.1,4.4
		c6,7.3,11,15.1,14.1,24.1c1.1,3.3,1.6,6.8,2.5,10.2c0.2,0.9,0.9,1.8,1.6,2.3c5.7,3.6,7.9,8.8,7.1,15.3c-0.7,5.3-5.2,10.2-10.9,11.7
		c-3.6,0.9-7.1,0.5-10.5-1.1c-0.9-0.4-2.3-0.6-3.2-0.2c-8.1,3.5-16.6,4.4-25.3,3.9c-4.5-0.3-9-0.8-13.5-1.4c-1.3-0.2-1.6,0.5-2,1.5
		c-2.8,7.2-6.2,14-10.7,20.3c-5.1,7.2-11.2,13.2-19.9,15.8c-9.1,2.7-17.2,0.1-24.4-5.7c-8.3-6.6-13.4-15.6-17.7-25
		c-0.4-0.9-0.8-1.7-1.1-2.6c-1.9-4.6-1.9-4.5-6.8-3.8c-10.4,1.5-20.8,1.6-31.1-1.5c-0.7-0.2-9.8-0.4-10.5-0.2
		c-6.9,1.7-14.4-2-17.1-8.6c-2.8-6.8-0.3-14.5,6-18.3c1.3-0.8,1.7-1.6,1.9-3.1c1-7.8,4-15,8.1-21.6c2.8-4.5,5.9-8.7,9-12.9
		c0.8-1.1,0.8-1.8-0.1-2.8c-5.9-7.3-11.1-15.1-14.4-24c-3-8-4.6-16.2-1.4-24.6c2.9-7.6,8.6-12.4,16-15.3
		C45,51.3,52.1,50.6,59.3,50.4z M157.9,119.2c-0.4-7.4-0.8-14.8-1.4-22.1c-0.1-0.9-0.7-1.9-1.4-2.5c-12.1-9-25.1-16.6-38.8-22.9
		c-0.8-0.4-2.1-0.3-3,0.1c-12.5,5.7-24.4,12.6-35.7,20.5c-2.9,2.1-4.5,4.1-4.8,8c-1.1,13.8-0.9,27.5,0.4,41.2
		c0.1,0.8,0.7,1.8,1.4,2.3c12.2,9,25.2,16.7,39,23c0.7,0.3,1.7,0.3,2.4,0c13.8-6.3,26.8-14,39-23c0.7-0.5,1.4-1.6,1.4-2.5
		C157,134,157.4,126.6,157.9,119.2z M74.4,58.3c-0.8-0.2-1.5-0.3-2.3-0.5c-0.8-0.1-1.6-0.2-2.4-0.3c-9-1.1-17.9-1.3-26.8,1.1
		c-12.2,3.4-18,12.8-15.8,25.2c1.3,7.1,4.2,13.5,8,19.5c2.4,3.8,5.1,7.4,7.9,11.4c0.8-0.9,1.1-1.6,1.7-2.1c7-6.4,14-12.9,21.1-19.2
		c1.2-1.1,1.8-2.2,2-3.7c0.8-5,1.4-10,2.5-14.9C71.5,69.4,73,64,74.4,58.3z M155.2,58.3c0,0.5,0,0.8,0.1,1
		c3.2,10.2,5.3,20.6,6.7,31.2c0.1,1,0.9,2.1,1.7,2.8c5.2,4.7,10.6,9.2,15.8,13.9c2.5,2.2,4.7,4.7,7.1,7.1c0.2-0.2,0.4-0.2,0.5-0.4
		c0.8-1,1.6-2.1,2.4-3.1c6.1-8.3,11.3-17,13.2-27.4c1.9-10.6-2.4-19.1-11.9-23.3c-4.7-2.1-9.6-3-14.7-3.3
		C169,56.5,162.1,56.9,155.2,58.3z M83.1,184.8c3.4,9.4,9.9,21.2,17.5,28c8.8,7.7,19.8,7.8,28.5-0.1c6.8-6.2,11.3-13.8,15.1-22.1
		c0.9-1.9,1.6-3.8,2.4-5.7c-0.4-0.2-0.6-0.4-0.8-0.5c-10.2-2.4-20-5.8-29.7-9.8c-0.9-0.4-2.1-0.2-3.1,0.2c-5.6,2-11.2,4.3-16.8,6.2
		C92,182.4,87.6,183.5,83.1,184.8z M83,53.5c5.4,1.6,10.6,2.9,15.6,4.6c5.1,1.7,10.1,3.9,15.1,5.7c0.8,0.3,1.9,0.1,2.7-0.2
		c4.6-1.7,9.1-3.6,13.7-5.2c5.4-1.8,10.9-3.3,16.3-4.9c-2.8-9.7-12.2-25.7-20.1-29.6c-8.8,7.4-13.6,7.4-23.3-0.2
		C92.9,31.3,87.7,42.1,83,53.5z M39.2,178.2c11.7,4.7,23.4,3.8,35.2,1.9c-0.1-0.6-0.1-0.9-0.2-1.2c-2.9-9.2-5-18.6-6.1-28.2
		c-0.4-3.4-1.8-5.6-4.5-7.7c-4.9-3.8-9.4-8.1-14-12.3c-2.3-2.1-4.6-4.3-7-6.5c-7.3,9.3-13.8,19.2-15.9,31.6
		c5.4,0.6,9.8,2.8,12.4,7.6C42,168.3,41.9,173.1,39.2,178.2z M202.8,155.9c-2.2-12.5-8.6-22.4-16.1-31.9c-0.4,0.3-0.7,0.5-1,0.8
		c-6.9,7.5-14.5,14.2-22.4,20.6c-0.8,0.6-1.2,1.9-1.4,3c-1.2,6.3-2.2,12.7-3.4,18.9c-0.9,4.3-2.1,8.4-3.3,12.9
		c12,1.8,23.7,2.8,35.2-2c-2.7-5.1-2.8-9.9-0.1-14.7C192.9,158.7,197.3,156.5,202.8,155.9z M155.7,151.6
		c-11.3,6.6-22,12.9-32.6,19.2c0.1,0.1,0.5,0.3,0.9,0.5c7.4,2.4,14.9,4.6,22.3,7.1c2.2,0.7,2.9,0.1,3.4-2
		C151.5,168.1,153.6,160,155.7,151.6z M107.2,171.1c-11.3-6.7-22-12.9-33.2-19.5c2.2,8.7,4.3,17.2,6.5,25.6c0.1,0.6,1.2,1.4,1.6,1.3
		C90.3,176.2,98.6,173.7,107.2,171.1z M155.6,86.7c-2.2-9.2-4.3-18.2-6.4-27.1c-6.4,0.8-23.5,6.3-25.9,8.1
		C133.8,73.9,144.5,80.1,155.6,86.7z M80.6,59c-2.2,9.5-4.3,18.5-6.5,27.7c11.2-6.6,21.9-12.8,33-19.4C98.3,64.6,89.7,61.9,80.6,59z
		 M182.8,119.5c-6.2-7-12.5-13-19.3-18.4c0,12.2,0,24.1,0,36.7C170.1,131.5,176.4,125.5,182.8,119.5z M66.2,137.8
		c0-12.7,0-24.7,0-36.9c-3.4,3-6.6,5.9-9.8,8.7c-3.3,2.9-6.6,5.9-10.2,9.2C53.2,125.5,59.6,131.5,66.2,137.8z"/>
	<path d="M128.5,117.5c2.4,1.6,5.3,2.7,7.1,4.8c5,5.5,3.6,13.9-2.7,18.1c-1.5,1-3.2,1.7-5,2.2c-1.6,0.5-2.3,1.1-2.2,2.8
		c0.2,2.1,0,4.2,0,6.5c-2.8,0-5.4,0-8.2,0c0-2.5,0-5.1,0-7.8c-1.8,0-3.5,0-5.4,0c0,2.5,0,5.1,0,7.8c-2.9,0-5.5,0-8.3,0
		c0-2.6,0-5.1,0-7.9c-4.4,0-8.5,0-12.7,0c0-2.4,0-4.5,0-6.8c0.8,0,1.6-0.1,2.3-0.1c2.7-0.1,3.3-0.7,3.3-3.5c0-9.4,0-18.7,0-28.1
		c0-3.5-0.6-4.1-4.1-4.2c-0.5,0-1,0-1.6-0.1c0-2.3,0-4.4,0-6.8c4.2,0,8.3,0,12.6,0c0-2.7,0-5.3,0-7.9c2.9,0,5.5,0,8.3,0
		c0,2.6,0,5.1,0,7.7c1.9,0,3.5,0,5.4,0c0-2.6,0-5.1,0-7.7c2.8,0,5.4,0,8.3,0c0,2.8,0,5.5,0,8.4c5.8,1.5,10.5,4.1,11,10.6
		C137.2,111.8,133.5,115.3,128.5,117.5z M109.1,121.5c0,4.5-0.1,8.5,0.1,12.5c0,0.7,1.2,1.8,1.8,1.8c3.1,0.1,6.3,0.1,9.4-0.4
		c3.2-0.5,5.5-3.7,5.5-7c0-3.3-1.7-5.6-5.3-6.1C116.8,121.8,113.1,121.8,109.1,121.5z M109.2,102.3c0,4.3,0,8.2,0,12.2
		c1.4,0,2.6,0.1,3.8,0c2.5-0.2,5-0.2,7.4-0.7c2.9-0.6,4.6-3.1,4.5-5.7c-0.1-2.8-1.7-4.7-4.7-5.1
		C116.6,102.5,112.9,102.5,109.2,102.3z"/>
</g>
</svg>
