<!-- Generated by IcoMoon.io -->
<svg version="1.1" xmlns="http://www.w3.org/2000/svg" width="32" height="32" viewBox="0 0 32 32">
<title>BCD</title>
<path d="M0.038 11.802c1.574-2.048 3.123-4.109 4.71-6.144 0.23-0.307 0.563-0.576 0.909-0.742 1.28-0.64 2.598-1.229 3.891-1.856 0.538-0.256 1.088-0.371 1.69-0.371 3.328 0.013 6.656 0 9.984 0.026 0.486 0 0.998 0.128 1.446 0.333 1.293 0.576 2.56 1.19 3.814 1.83 0.358 0.192 0.717 0.461 0.96 0.794 1.549 2.035 3.072 4.083 4.595 6.131 0 0.051 0 0.102 0 0.154-3.238 3.674-6.477 7.36-9.715 11.034-2.010 2.278-4.019 4.557-6.029 6.822-0.064 0.077-0.166 0.128-0.294 0.218-0.474-0.525-0.947-1.024-1.395-1.536-4.826-5.478-9.664-10.982-14.502-16.474-0.013-0.026-0.038-0.038-0.064-0.051 0-0.064 0-0.115 0-0.166zM21.389 8.346c-0.205-0.026-0.358-0.064-0.512-0.064-3.174 0-6.336 0-9.51-0.013-0.448 0-0.653 0.154-0.781 0.602-0.563 2.048-1.152 4.096-1.766 6.144-0.154 0.525-0.102 0.96 0.166 1.434 1.971 3.443 3.917 6.899 5.875 10.355 0.358 0.64 0.742 1.267 1.139 1.971 0.128-0.154 0.205-0.23 0.243-0.307 2.304-4.109 4.595-8.23 6.912-12.339 0.179-0.333 0.192-0.627 0.090-0.986-0.435-1.51-0.832-3.034-1.254-4.544-0.192-0.768-0.397-1.498-0.602-2.253zM25.997 5.466c-0.179-0.141-0.243-0.218-0.333-0.256-1.178-0.576-2.342-1.152-3.52-1.69-0.256-0.115-0.563-0.141-0.858-0.141-3.405-0.013-6.81-0.013-10.227 0-0.384 0-0.794 0.090-1.152 0.256-1.165 0.512-2.317 1.075-3.469 1.626-0.154 0.077-0.282 0.179-0.499 0.333 1.395 0.602 2.688 1.165 3.994 1.69 0.435 0.166 0.909 0.294 1.37 0.294 2.534 0.026 5.056-0.064 7.59 0.038 1.779 0.064 3.418-0.205 4.966-1.114 0.653-0.384 1.37-0.666 2.138-1.037zM22.003 8.090c0.653 2.381 1.293 4.698 1.946 7.091 2.47-1.178 4.813-2.291 7.219-3.43-1.485-2.010-2.918-3.942-4.378-5.914-1.638 0.768-3.187 1.498-4.787 2.253zM0.973 11.674c2.406 1.242 4.71 2.419 7.078 3.635 0.704-2.47 1.382-4.813 2.074-7.206-1.664-0.704-3.238-1.382-4.864-2.074-1.421 1.882-2.816 3.725-4.288 5.645zM30.208 13.056c-0.115-0.013-0.179-0.038-0.218-0.013-1.856 0.883-3.712 1.754-5.555 2.662-0.269 0.128-0.512 0.384-0.653 0.653-1.894 3.341-3.763 6.694-5.632 10.048-0.051 0.090-0.077 0.205-0.102 0.307 0.038 0.013 0.064 0.038 0.102 0.051 4.006-4.57 8.013-9.126 12.058-13.709zM1.984 12.954c-0.026 0.038-0.064 0.077-0.090 0.115 3.968 4.506 7.936 9.011 11.904 13.53 0.064-0.218 0.013-0.371-0.064-0.499-1.818-3.213-3.648-6.438-5.491-9.651-0.154-0.282-0.461-0.512-0.742-0.666-1.459-0.781-2.931-1.523-4.39-2.278-0.371-0.192-0.755-0.371-1.126-0.55z"></path>
<path d="M15.386 10.202c0 0.525 0 0.883 0 1.254 0 0.282 0.115 0.461 0.422 0.461s0.41-0.192 0.41-0.474c0-0.371 0-0.742 0-1.178 0.384 0 0.678 0 1.037 0 0.038 0.525 0.064 1.024 0.102 1.562 0.358 0.102 0.717 0.192 1.062 0.294 1.574 0.486 1.984 1.805 0.998 3.11-0.051 0.064-0.077 0.128-0.128 0.218 0.051 0.064 0.077 0.154 0.141 0.179 1.101 0.474 1.216 1.382 1.088 2.406-0.128 0.973-0.781 1.472-1.677 1.702-0.461 0.115-0.934 0.205-1.459 0.32-0.038 0.512-0.077 1.037-0.115 1.613-0.333 0-0.614 0-0.986 0-0.026-0.397-0.051-0.781-0.051-1.178-0.013-0.307-0.102-0.525-0.461-0.512-0.333 0.013-0.371 0.243-0.371 0.499 0 0.371 0 0.73 0 1.165-0.397 0-0.691 0-1.050 0-0.026-0.538-0.064-1.037-0.090-1.626-0.666-0.051-1.318-0.090-1.984-0.141-0.013-0.243-0.038-0.422-0.038-0.602 0-0.384 0.179-0.563 0.589-0.602 0.678-0.077 0.691-0.102 0.691-0.781 0.013-1.357 0.013-2.714 0-4.083-0.013-0.602-0.115-0.691-0.678-0.768-0.781-0.102-0.794-0.115-0.64-1.050 0.653-0.038 1.331-0.064 2.061-0.115 0.038-0.55 0.064-1.050 0.115-1.638 0.282 0.013 0.576-0.013 1.011-0.038zM15.437 18.65c0.832 0.090 1.562 0.115 2.278-0.166 0.422-0.166 0.73-0.422 0.73-0.934 0-0.499-0.282-0.819-0.704-0.96-0.73-0.256-1.472-0.41-2.304-0.179 0 0.73 0 1.434 0 2.24zM15.437 15.219c0.691 0.192 1.28 0.051 1.856-0.141 0.384-0.128 0.614-0.422 0.64-0.819 0.026-0.435-0.192-0.768-0.602-0.934-0.602-0.243-1.203-0.333-1.894-0.141 0 0.678 0 1.318 0 2.035z"></path>
</svg>
