<?xml version="1.0" encoding="utf-8"?>
<!-- Generator: Adobe Illustrator 22.1.0, SVG Export Plug-In . SVG Version: 6.00 Build 0)  -->
<svg version="1.1" id="Layer_1" xmlns="http://www.w3.org/2000/svg" xmlns:xlink="http://www.w3.org/1999/xlink" x="0px" y="0px"
	 viewBox="0 0 250 250" style="enable-background:new 0 0 250 250;" xml:space="preserve">
<g>
	<g>
		<path d="M0.3,92.2c12.3-16,24.4-32.1,36.8-48c1.8-2.4,4.4-4.5,7.1-5.8c10-5,20.3-9.6,30.4-14.5c4.2-2,8.5-2.9,13.2-2.9
			c26,0.1,52,0,78,0.2c3.8,0,7.8,1,11.3,2.6c10.1,4.5,20,9.3,29.8,14.3c2.8,1.5,5.6,3.6,7.5,6.2c12.1,15.9,24,31.9,35.9,47.9
			c0,0.4,0,0.8,0,1.2c-25.3,28.7-50.6,57.5-75.9,86.2c-15.7,17.8-31.4,35.6-47.1,53.3c-0.5,0.6-1.3,1-2.3,1.7
			c-3.7-4.1-7.4-8-10.9-12C76.4,179.8,38.6,136.8,0.8,93.9c-0.1-0.2-0.3-0.3-0.5-0.4C0.3,93,0.3,92.6,0.3,92.2z M167.1,65.2
			c-1.6-0.2-2.8-0.5-4-0.5c-24.8,0-49.5,0-74.3-0.1c-3.5,0-5.1,1.2-6.1,4.7c-4.4,16-9,32-13.8,48c-1.2,4.1-0.8,7.5,1.3,11.2
			c15.4,26.9,30.6,53.9,45.9,80.9c2.8,5,5.8,9.9,8.9,15.4c1-1.2,1.6-1.8,1.9-2.4c18-32.1,35.9-64.3,54-96.4c1.4-2.6,1.5-4.9,0.7-7.7
			c-3.4-11.8-6.5-23.7-9.8-35.5C170.3,76.8,168.7,71.1,167.1,65.2z M203.1,42.7c-1.4-1.1-1.9-1.7-2.6-2c-9.2-4.5-18.3-9-27.5-13.2
			c-2-0.9-4.4-1.1-6.7-1.1c-26.6-0.1-53.2-0.1-79.9,0c-3,0-6.2,0.7-9,2c-9.1,4-18.1,8.4-27.1,12.7c-1.2,0.6-2.2,1.4-3.9,2.6
			c10.9,4.7,21,9.1,31.2,13.2c3.4,1.3,7.1,2.3,10.7,2.3c19.8,0.2,39.5-0.5,59.3,0.3c13.9,0.5,26.7-1.6,38.8-8.7
			C191.5,47.8,197.1,45.6,203.1,42.7z M171.9,63.2c5.1,18.6,10.1,36.7,15.2,55.4c19.3-9.2,37.6-17.9,56.4-26.8
			c-11.6-15.7-22.8-30.8-34.2-46.2C196.5,51.6,184.4,57.3,171.9,63.2z M7.6,91.2c18.8,9.7,36.8,18.9,55.3,28.4
			c5.5-19.3,10.8-37.6,16.2-56.3c-13-5.5-25.3-10.8-38-16.2C30,61.8,19.1,76.2,7.6,91.2z M236,102c-0.9-0.1-1.4-0.3-1.7-0.1
			c-14.5,6.9-29,13.7-43.4,20.8c-2.1,1-4,3-5.1,5.1c-14.8,26.1-29.4,52.3-44,78.5c-0.4,0.7-0.6,1.6-0.8,2.4c0.3,0.1,0.5,0.3,0.8,0.4
			C173.1,173.4,204.4,137.8,236,102z M15.5,101.2c-0.2,0.3-0.5,0.6-0.7,0.9c31,35.2,62,70.4,93,105.7c0.5-1.7,0.1-2.9-0.5-3.9
			c-14.2-25.1-28.5-50.3-42.9-75.4c-1.2-2.2-3.6-4-5.8-5.2c-11.4-6.1-22.9-11.9-34.3-17.8C21.4,104,18.4,102.6,15.5,101.2z"/>
		<path d="M120.2,79.7c0,4.1,0,6.9,0,9.8c0,2.2,0.9,3.6,3.3,3.6c2.4,0,3.2-1.5,3.2-3.7c0-2.9,0-5.8,0-9.2c3,0,5.3,0,8.1,0
			c0.3,4.1,0.5,8,0.8,12.2c2.8,0.8,5.6,1.5,8.3,2.3c12.3,3.8,15.5,14.1,7.8,24.3c-0.4,0.5-0.6,1-1,1.7c0.4,0.5,0.6,1.2,1.1,1.4
			c8.6,3.7,9.5,10.8,8.5,18.8c-1,7.6-6.1,11.5-13.1,13.3c-3.6,0.9-7.3,1.6-11.4,2.5c-0.3,4-0.6,8.1-0.9,12.6c-2.6,0-4.8,0-7.7,0
			c-0.2-3.1-0.4-6.1-0.4-9.2c-0.1-2.4-0.8-4.1-3.6-4c-2.6,0.1-2.9,1.9-2.9,3.9c0,2.9,0,5.7,0,9.1c-3.1,0-5.4,0-8.2,0
			c-0.2-4.2-0.5-8.1-0.7-12.7c-5.2-0.4-10.3-0.7-15.5-1.1c-0.1-1.9-0.3-3.3-0.3-4.7c0-3,1.4-4.4,4.6-4.7c5.3-0.6,5.4-0.8,5.4-6.1
			c0.1-10.6,0.1-21.2,0-31.9c-0.1-4.7-0.9-5.4-5.3-6c-6.1-0.8-6.2-0.9-5-8.2c5.1-0.3,10.4-0.5,16.1-0.9c0.3-4.3,0.5-8.2,0.9-12.8
			C114.5,80.1,116.8,79.9,120.2,79.7z M120.6,145.7c6.5,0.7,12.2,0.9,17.8-1.3c3.3-1.3,5.7-3.3,5.7-7.3c0-3.9-2.2-6.4-5.5-7.5
			c-5.7-2-11.5-3.2-18-1.4C120.6,133.9,120.6,139.4,120.6,145.7z M120.6,118.9c5.4,1.5,10,0.4,14.5-1.1c3-1,4.8-3.3,5-6.4
			c0.2-3.4-1.5-6-4.7-7.3c-4.7-1.9-9.4-2.6-14.8-1.1C120.6,108.3,120.6,113.3,120.6,118.9z"/>
	</g>
</g>
</svg>
