<!-- Generated by IcoMoon.io -->
<svg version="1.1" xmlns="http://www.w3.org/2000/svg" width="32" height="32" viewBox="0 0 32 32">
<title>BCI</title>
<path d="M32 15.972c0 8.875-7.153 16-16.127 15.944-8.903-0.071-15.901-7.45-15.76-16.212 0.127-8.466 7.055-15.831 16.183-15.704 8.847 0.127 15.746 7.393 15.704 15.972zM1.637 15.972c0.028 7.944 6.504 14.42 14.434 14.406s14.392-6.462 14.392-14.406c0.014-8.226-6.843-14.631-14.787-14.42-7.478 0.183-13.996 6.307-14.039 14.42z"></path>
<path d="M27.556 15.986c0 6.392-5.136 11.513-11.584 11.485-6.462-0.028-11.429-5.362-11.414-11.541 0.014-6.293 5.192-11.527 11.612-11.471 6.279 0.042 11.443 5.22 11.386 11.527zM15.887 10.37c0-0.466-0.014-0.889 0-1.312 0-0.198-0.071-0.268-0.268-0.268-0.353 0.014-0.72 0.014-1.072 0-0.296-0.014-0.367 0.099-0.353 0.367 0.014 0.395 0 0.804 0 1.227-0.607 0-1.157 0-1.693 0-0.804 0-0.804 0-0.804 0.804 0 0.564 0 0.564 0.578 0.593 0.451 0.028 0.55 0.127 0.564 0.578 0 0.085 0 0.183 0 0.268 0 1.693 0 3.386 0 5.065 0 0.917 0 0.931-0.917 0.988-0.169 0.014-0.24 0.071-0.24 0.24 0 0.296 0.014 0.593 0 0.889-0.014 0.226 0.099 0.282 0.296 0.268 0.578-0.014 1.157 0 1.735 0 0.141 0 0.296 0.014 0.466 0.014 0 0.437 0.014 0.847 0 1.256-0.014 0.24 0.056 0.325 0.31 0.325 0.353-0.014 0.72-0.014 1.072 0 0.24 0.014 0.325-0.071 0.31-0.31-0.014-0.409 0-0.832 0-1.242 0.353 0 0.677 0 1.016 0 0 0.451 0.014 0.861 0 1.284-0.014 0.212 0.085 0.282 0.282 0.282 0.367-0.014 0.734-0.014 1.101 0 0.254 0.014 0.31-0.099 0.296-0.325-0.014-0.466 0-0.931 0-1.397 1.355-0.353 2.384-1.030 2.483-2.511 0.085-1.383-0.748-2.13-2.060-2.483 0.169-0.085 0.296-0.127 0.409-0.183 1.002-0.508 1.524-1.538 1.256-2.526-0.254-0.931-0.917-1.439-1.806-1.679-0.212-0.056-0.282-0.141-0.268-0.353 0.014-0.381 0-0.748 0.014-1.129 0.014-0.226-0.056-0.31-0.296-0.31-0.353 0.014-0.72 0.014-1.072 0-0.254-0.014-0.339 0.085-0.325 0.325 0.014 0.409 0 0.832 0 1.256-0.353 0-0.663 0-1.016 0zM12.684 23.577c0 0.113 0 0.226 0 0.339-0.014 0.169 0.042 0.268 0.24 0.268s0.282-0.071 0.268-0.268c0-0.127-0.014-0.24 0.014-0.367 0.014-0.056 0.071-0.113 0.099-0.155 0.042 0.056 0.113 0.113 0.113 0.169 0.014 0.155-0.014 0.31 0.028 0.451 0.014 0.071 0.127 0.155 0.212 0.155s0.254-0.071 0.268-0.113c0.014-0.268 0.028-0.55-0.028-0.818-0.042-0.24-0.268-0.282-0.494-0.24-0.085 0.014-0.169 0.056-0.254 0.042-0.451-0.085-0.451-0.085-0.451 0.353-0.014 0.071-0.014 0.127-0.014 0.183zM16.296 23.718c0.056-0.451-0.099-0.663-0.48-0.72-0.409-0.071-0.734 0.127-0.804 0.466-0.071 0.325 0.127 0.635 0.466 0.72 0.367 0.085 0.705-0.056 0.79-0.367-0.141 0-0.268 0-0.395 0-0.099 0-0.198 0.014-0.31 0.028 0-0.042 0-0.085 0-0.113 0.254-0.014 0.494-0.014 0.734-0.014zM17.947 23.817c0-0.028 0.014-0.071 0.014-0.099 0.198 0 0.381-0.014 0.578 0 0.212 0.014 0.282-0.113 0.183-0.268-0.099-0.169-0.24-0.367-0.409-0.437-0.254-0.113-0.55-0.071-0.762 0.169-0.183 0.198-0.198 0.437-0.085 0.677 0.141 0.268 0.381 0.353 0.663 0.325 0.226-0.014 0.466-0.056 0.55-0.381-0.254 0.014-0.494 0.014-0.734 0.014zM18.808 23.774c0.155 0.395 0.536 0.536 0.917 0.367 0.127-0.056 0.296-0.24 0.296-0.367 0-0.113-0.183-0.254-0.325-0.339-0.099-0.056-0.226-0.056-0.353-0.085 0-0.028 0.014-0.042 0.014-0.071 0.099 0.028 0.183 0.056 0.282 0.056s0.212-0.014 0.325-0.028c-0.155-0.325-0.409-0.423-0.776-0.31-0.141 0.042-0.31 0.212-0.325 0.325 0 0.113 0.169 0.268 0.296 0.353 0.099 0.071 0.254 0.071 0.381 0.099 0 0.014-0.014 0.042-0.014 0.056-0.212 0-0.437-0.028-0.72-0.056zM20.656 22.631c-0.071 0.042-0.212 0.056-0.268 0.141-0.113 0.155-0.226 0.339-0.24 0.536-0.028 0.155 0.085 0.325 0.113 0.494 0.042 0.31 0.212 0.451 0.522 0.409 0.071-0.014 0.198-0.071 0.198-0.099 0-0.085-0.028-0.198-0.085-0.268-0.155-0.169-0.212-0.31 0.028-0.48 0.056-0.042 0.085-0.212 0.042-0.282-0.071-0.169-0.198-0.282-0.31-0.451zM12.459 23.422c0 0 0 0 0 0 0-0.198 0-0.409 0-0.607s-0.099-0.226-0.268-0.24c-0.183 0-0.296 0.028-0.282 0.24 0.014 0.353 0 0.705 0 1.058 0 0.198 0.042 0.296 0.268 0.296 0.24 0 0.296-0.099 0.282-0.31-0.014-0.141 0-0.282 0-0.437zM14.561 22.645c-0.042 0.014-0.183 0.042-0.24 0.127-0.113 0.169-0.367 0.268-0.254 0.55 0.056 0.155 0.127 0.31 0.141 0.466 0.028 0.325 0.212 0.48 0.522 0.409 0.071-0.014 0.169-0.085 0.169-0.127 0-0.085-0.042-0.198-0.099-0.24-0.169-0.155-0.155-0.31 0.014-0.466 0.071-0.056 0.099-0.226 0.056-0.296-0.056-0.155-0.183-0.268-0.31-0.423zM17.439 23.139c-0.014-0.042-0.042-0.085-0.056-0.127-0.198 0-0.395 0.014-0.593 0-0.212-0.014-0.325 0.042-0.31 0.282 0.014 0.226-0.014 0.451 0.014 0.663 0.014 0.085 0.127 0.198 0.212 0.212 0.226 0.056 0.282-0.085 0.296-0.296 0.014-0.169 0.071-0.339 0.141-0.48 0.056-0.113 0.198-0.169 0.296-0.254z"></path>
<path d="M12.43 28.134c0.014 0.367-0.212 0.55-0.466 0.466-1.326-0.423-2.554-1.044-3.683-1.862-0.198-0.141-0.226-0.339-0.099-0.536 0.141-0.198 0.339-0.212 0.536-0.071 1.058 0.748 2.201 1.34 3.443 1.75 0.127 0.056 0.212 0.212 0.268 0.254z"></path>
<path d="M24.042 5.474c-0.099 0.127-0.169 0.296-0.268 0.31-0.141 0.028-0.325 0-0.451-0.071-0.705-0.395-1.397-0.818-2.116-1.199-0.381-0.198-0.804-0.324-1.213-0.48-0.226-0.085-0.409-0.212-0.339-0.494 0.056-0.24 0.254-0.325 0.564-0.226 1.27 0.409 2.441 1.002 3.527 1.792 0.113 0.099 0.183 0.24 0.296 0.367z"></path>
<path d="M5.178 8.437c0.085-0.169 0.127-0.296 0.212-0.395 0.776-1.044 1.679-1.961 2.723-2.737 0.282-0.212 0.451-0.212 0.621-0.014 0.155 0.198 0.127 0.395-0.141 0.593-1.016 0.762-1.905 1.651-2.667 2.667-0.085 0.113-0.296 0.183-0.437 0.169-0.113 0-0.198-0.183-0.31-0.282z"></path>
<path d="M26.921 23.506c-0.071 0.155-0.113 0.254-0.169 0.339-0.79 1.072-1.721 2.004-2.78 2.794-0.198 0.155-0.409 0.183-0.593-0.028-0.155-0.169-0.099-0.395 0.141-0.578 1.016-0.762 1.905-1.651 2.667-2.653 0.085-0.113 0.31-0.183 0.466-0.183 0.071 0.028 0.169 0.212 0.268 0.31z"></path>
<path d="M16.451 29.249c-0.127 0-0.282 0.042-0.395-0.014-0.141-0.071-0.31-0.198-0.325-0.31-0.014-0.127 0.141-0.268 0.24-0.381 0.042-0.042 0.155-0.042 0.24-0.042 1.242 0.014 2.441-0.212 3.626-0.564 0.31-0.099 0.536-0.014 0.578 0.226 0.056 0.282-0.113 0.409-0.353 0.48-1.171 0.367-2.384 0.55-3.612 0.607z"></path>
<path d="M6.011 23.605c-0.085 0.099-0.169 0.268-0.268 0.282-0.141 0.014-0.367-0.042-0.437-0.155-0.339-0.494-0.691-0.988-0.959-1.524-0.339-0.663-0.621-1.369-0.889-2.060-0.141-0.339 0.085-0.621 0.395-0.536 0.113 0.028 0.24 0.155 0.282 0.268 0.423 1.213 1.002 2.356 1.75 3.4 0.056 0.099 0.071 0.183 0.127 0.325z"></path>
<path d="M28.727 11.979c-0.085 0.085-0.183 0.254-0.296 0.268-0.141 0.014-0.339-0.071-0.423-0.183-0.127-0.183-0.169-0.409-0.24-0.621-0.367-0.974-0.861-1.891-1.467-2.737-0.042-0.056-0.085-0.113-0.127-0.169-0.127-0.198-0.085-0.381 0.099-0.508 0.183-0.141 0.381-0.099 0.508 0.085 0.254 0.353 0.522 0.705 0.72 1.101 0.395 0.776 0.748 1.58 1.115 2.37 0.042 0.099 0.056 0.212 0.113 0.395z"></path>
<path d="M15.52 2.681c0.155 0 0.31 0 0.466 0 0.254-0.014 0.395 0.113 0.395 0.353s-0.141 0.353-0.395 0.367c-0.621 0.042-1.242 0.071-1.848 0.169-0.635 0.099-1.27 0.268-1.891 0.437-0.254 0.071-0.451 0.056-0.55-0.198-0.099-0.226 0.028-0.409 0.339-0.508 1.129-0.381 2.3-0.578 3.485-0.621z"></path>
<path d="M29.333 16.522c-0.042 1.143-0.24 2.258-0.578 3.344-0.014 0.042-0.028 0.099-0.042 0.141-0.071 0.226-0.226 0.353-0.466 0.296-0.254-0.071-0.31-0.282-0.254-0.508 0.113-0.48 0.282-0.959 0.353-1.439 0.113-0.762 0.169-1.524 0.24-2.3 0.014-0.099 0-0.24 0.056-0.282 0.113-0.085 0.268-0.183 0.409-0.169 0.099 0.014 0.226 0.169 0.24 0.282 0.071 0.198 0.042 0.423 0.042 0.635z"></path>
<path d="M2.78 15.351c0.042-1.143 0.254-2.258 0.593-3.344 0.042-0.155 0.212-0.339 0.367-0.381 0.268-0.071 0.423 0.212 0.353 0.536-0.169 0.748-0.353 1.496-0.48 2.258-0.085 0.466-0.085 0.945-0.099 1.425-0.014 0.31-0.141 0.508-0.381 0.48-0.282-0.014-0.367-0.212-0.353-0.466 0-0.155 0-0.325 0-0.508z"></path>
<path d="M15.323 15.831c0.705 0 1.397-0.042 2.088 0.014 0.705 0.056 1.072 0.494 1.101 1.157 0.028 0.691-0.339 1.27-0.988 1.383-0.649 0.099-1.312 0.085-1.975 0.099-0.071 0-0.212-0.141-0.212-0.226-0.014-0.832-0.014-1.637-0.014-2.427z"></path>
<path d="M15.309 14.236c0-0.72 0-1.467 0-2.286 0.762 0.042 1.496 0.056 2.229 0.155 0.466 0.056 0.734 0.395 0.776 0.818 0.056 0.564-0.127 0.945-0.578 1.157-0.169 0.071-0.353 0.141-0.522 0.155-0.621 0-1.256 0-1.905 0z"></path>
</svg>
