<?xml version="1.0" encoding="utf-8"?>
<!-- Generator: Adobe Illustrator 22.1.0, SVG Export Plug-In . SVG Version: 6.00 Build 0)  -->
<svg version="1.1" id="Layer_1" xmlns="http://www.w3.org/2000/svg" xmlns:xlink="http://www.w3.org/1999/xlink" x="0px" y="0px"
	 viewBox="0 0 226.8 226.8" style="enable-background:new 0 0 226.8 226.8;" xml:space="preserve">
<g>
	<path d="M226.8,113.2c0,62.9-50.7,113.4-114.3,113C49.4,225.7-0.2,173.4,0.8,111.3C1.7,51.3,50.8-0.9,115.5,0
		C178.2,0.9,227.1,52.4,226.8,113.2z M11.6,113.2c0.2,56.3,46.1,102.2,102.3,102.1c56.2-0.1,102-45.8,102-102.1
		C216,54.9,167.4,9.5,111.1,11C58.1,12.3,11.9,55.7,11.6,113.2z"/>
	<path d="M195.3,113.3c0,45.3-36.4,81.6-82.1,81.4c-45.8-0.2-81-38-80.9-81.8c0.1-44.6,36.8-81.7,82.3-81.3
		C159.1,31.9,195.7,68.6,195.3,113.3z M112.6,73.5c0-3.3-0.1-6.3,0-9.3c0-1.4-0.5-1.9-1.9-1.9c-2.5,0.1-5.1,0.1-7.6,0
		c-2.1-0.1-2.6,0.7-2.5,2.6c0.1,2.8,0,5.7,0,8.7c-4.3,0-8.2,0-12,0c-5.7,0-5.7,0-5.7,5.7c0,4,0,4,4.1,4.2c3.2,0.2,3.9,0.9,4,4.1
		c0,0.6,0,1.3,0,1.9c0,12,0,24,0,35.9c0,6.5,0,6.6-6.5,7c-1.2,0.1-1.7,0.5-1.7,1.7c0,2.1,0.1,4.2,0,6.3c-0.1,1.6,0.7,2,2.1,1.9
		c4.1-0.1,8.2,0,12.3,0c1,0,2.1,0.1,3.3,0.1c0,3.1,0.1,6,0,8.9c-0.1,1.7,0.4,2.3,2.2,2.3c2.5-0.1,5.1-0.1,7.6,0
		c1.7,0.1,2.3-0.5,2.2-2.2c-0.1-2.9,0-5.9,0-8.8c2.5,0,4.8,0,7.2,0c0,3.2,0.1,6.1,0,9.1c-0.1,1.5,0.6,2,2,2c2.6-0.1,5.2-0.1,7.8,0
		c1.8,0.1,2.2-0.7,2.1-2.3c-0.1-3.3,0-6.6,0-9.9c9.6-2.5,16.9-7.3,17.6-17.8c0.6-9.8-5.3-15.1-14.6-17.6c1.2-0.6,2.1-0.9,2.9-1.3
		c7.1-3.6,10.8-10.9,8.9-17.9c-1.8-6.6-6.5-10.2-12.8-11.9c-1.5-0.4-2-1-1.9-2.5c0.1-2.7,0-5.3,0.1-8c0.1-1.6-0.4-2.2-2.1-2.2
		c-2.5,0.1-5.1,0.1-7.6,0c-1.8-0.1-2.4,0.6-2.3,2.3c0.1,2.9,0,5.9,0,8.9C117.3,73.5,115.1,73.5,112.6,73.5z M89.9,167.1
		c0,0.8,0,1.6,0,2.4c-0.1,1.2,0.3,1.9,1.7,1.9c1.4,0,2-0.5,1.9-1.9c0-0.9-0.1-1.7,0.1-2.6c0.1-0.4,0.5-0.8,0.7-1.1
		c0.3,0.4,0.8,0.8,0.8,1.2c0.1,1.1-0.1,2.2,0.2,3.2c0.1,0.5,0.9,1.1,1.5,1.1c0.6,0,1.8-0.5,1.9-0.8c0.1-1.9,0.2-3.9-0.2-5.8
		c-0.3-1.7-1.9-2-3.5-1.7c-0.6,0.1-1.2,0.4-1.8,0.3c-3.2-0.6-3.2-0.6-3.2,2.5C89.9,166.3,89.9,166.7,89.9,167.1z M115.5,168.1
		c0.4-3.2-0.7-4.7-3.4-5.1c-2.9-0.5-5.2,0.9-5.7,3.3c-0.5,2.3,0.9,4.5,3.3,5.1c2.6,0.6,5-0.4,5.6-2.6c-1,0-1.9,0-2.8,0
		c-0.7,0-1.4,0.1-2.2,0.2c0-0.3,0-0.6,0-0.8C112.1,168.1,113.8,168.1,115.5,168.1z M127.2,168.8c0-0.2,0.1-0.5,0.1-0.7
		c1.4,0,2.7-0.1,4.1,0c1.5,0.1,2-0.8,1.3-1.9c-0.7-1.2-1.7-2.6-2.9-3.1c-1.8-0.8-3.9-0.5-5.4,1.2c-1.3,1.4-1.4,3.1-0.6,4.8
		c1,1.9,2.7,2.5,4.7,2.3c1.6-0.1,3.3-0.4,3.9-2.7C130.6,168.8,128.9,168.8,127.2,168.8z M133.3,168.5c1.1,2.8,3.8,3.8,6.5,2.6
		c0.9-0.4,2.1-1.7,2.1-2.6c0-0.8-1.3-1.8-2.3-2.4c-0.7-0.4-1.6-0.4-2.5-0.6c0-0.2,0.1-0.3,0.1-0.5c0.7,0.2,1.3,0.4,2,0.4
		c0.7,0,1.5-0.1,2.3-0.2c-1.1-2.3-2.9-3-5.5-2.2c-1,0.3-2.2,1.5-2.3,2.3c0,0.8,1.2,1.9,2.1,2.5c0.7,0.5,1.8,0.5,2.7,0.7
		c0,0.1-0.1,0.3-0.1,0.4C136.9,168.9,135.3,168.7,133.3,168.5z M146.4,160.4c-0.5,0.3-1.5,0.4-1.9,1c-0.8,1.1-1.6,2.4-1.7,3.8
		c-0.2,1.1,0.6,2.3,0.8,3.5c0.3,2.2,1.5,3.2,3.7,2.9c0.5-0.1,1.4-0.5,1.4-0.7c0-0.6-0.2-1.4-0.6-1.9c-1.1-1.2-1.5-2.2,0.2-3.4
		c0.4-0.3,0.6-1.5,0.3-2C148.1,162.4,147.2,161.6,146.4,160.4z M88.3,166C88.3,166,88.3,166,88.3,166c0-1.4,0-2.9,0-4.3
		c0-1.4-0.7-1.6-1.9-1.7c-1.3,0-2.1,0.2-2,1.7c0.1,2.5,0,5,0,7.5c0,1.4,0.3,2.1,1.9,2.1c1.7,0,2.1-0.7,2-2.2
		C88.2,168.1,88.3,167.1,88.3,166z M103.2,160.5c-0.3,0.1-1.3,0.3-1.7,0.9c-0.8,1.2-2.6,1.9-1.8,3.9c0.4,1.1,0.9,2.2,1,3.3
		c0.2,2.3,1.5,3.4,3.7,2.9c0.5-0.1,1.2-0.6,1.2-0.9c0-0.6-0.3-1.4-0.7-1.7c-1.2-1.1-1.1-2.2,0.1-3.3c0.5-0.4,0.7-1.6,0.4-2.1
		C105,162.4,104.1,161.6,103.2,160.5z M123.6,164c-0.1-0.3-0.3-0.6-0.4-0.9c-1.4,0-2.8,0.1-4.2,0c-1.5-0.1-2.3,0.3-2.2,2
		c0.1,1.6-0.1,3.2,0.1,4.7c0.1,0.6,0.9,1.4,1.5,1.5c1.6,0.4,2-0.6,2.1-2.1c0.1-1.2,0.5-2.4,1-3.4C121.9,165,122.9,164.6,123.6,164z"
		/>
	<path d="M88.1,199.4c0.1,2.6-1.5,3.9-3.3,3.3c-9.4-3-18.1-7.4-26.1-13.2c-1.4-1-1.6-2.4-0.7-3.8c1-1.4,2.4-1.5,3.8-0.5
		c7.5,5.3,15.6,9.5,24.4,12.4C87.1,198,87.7,199.1,88.1,199.4z"/>
	<path d="M170.4,38.8c-0.7,0.9-1.2,2.1-1.9,2.2c-1,0.2-2.3,0-3.2-0.5c-5-2.8-9.9-5.8-15-8.5c-2.7-1.4-5.7-2.3-8.6-3.4
		c-1.6-0.6-2.9-1.5-2.4-3.5c0.4-1.7,1.8-2.3,4-1.6c9,2.9,17.3,7.1,25,12.7C169.1,36.9,169.6,37.9,170.4,38.8z"/>
	<path d="M36.7,59.8c0.6-1.2,0.9-2.1,1.5-2.8c5.5-7.4,11.9-13.9,19.3-19.4c2-1.5,3.2-1.5,4.4-0.1c1.1,1.4,0.9,2.8-1,4.2
		c-7.2,5.4-13.5,11.7-18.9,18.9c-0.6,0.8-2.1,1.3-3.1,1.2C38.1,61.8,37.5,60.5,36.7,59.8z"/>
	<path d="M190.8,166.6c-0.5,1.1-0.8,1.8-1.2,2.4c-5.6,7.6-12.2,14.2-19.7,19.8c-1.4,1.1-2.9,1.3-4.2-0.2c-1.1-1.2-0.7-2.8,1-4.1
		c7.2-5.4,13.5-11.7,18.9-18.8c0.6-0.8,2.2-1.3,3.3-1.3C189.4,164.6,190.1,165.9,190.8,166.6z"/>
	<path d="M116.6,207.3c-0.9,0-2,0.3-2.8-0.1c-1-0.5-2.2-1.4-2.3-2.2c-0.1-0.9,1-1.9,1.7-2.7c0.3-0.3,1.1-0.3,1.7-0.3
		c8.8,0.1,17.3-1.5,25.7-4c2.2-0.7,3.8-0.1,4.1,1.6c0.4,2-0.8,2.9-2.5,3.4C133.9,205.6,125.3,206.9,116.6,207.3z"/>
	<path d="M42.6,167.3c-0.6,0.7-1.2,1.9-1.9,2c-1,0.1-2.6-0.3-3.1-1.1c-2.4-3.5-4.9-7-6.8-10.8c-2.4-4.7-4.4-9.7-6.3-14.6
		c-1-2.4,0.6-4.4,2.8-3.8c0.8,0.2,1.7,1.1,2,1.9c3,8.6,7.1,16.7,12.4,24.1C42.1,165.7,42.2,166.3,42.6,167.3z"/>
	<path d="M203.6,84.9c-0.6,0.6-1.3,1.8-2.1,1.9c-1,0.1-2.4-0.5-3-1.3c-0.9-1.3-1.2-2.9-1.7-4.4c-2.6-6.9-6.1-13.4-10.4-19.4
		c-0.3-0.4-0.6-0.8-0.9-1.2c-0.9-1.4-0.6-2.7,0.7-3.6c1.3-1,2.7-0.7,3.6,0.6c1.8,2.5,3.7,5,5.1,7.8c2.8,5.5,5.3,11.2,7.9,16.8
		C203.1,82.8,203.2,83.6,203.6,84.9z"/>
	<path d="M110,19c1.1,0,2.2,0,3.3,0c1.8-0.1,2.8,0.8,2.8,2.5c0,1.7-1,2.5-2.8,2.6c-4.4,0.3-8.8,0.5-13.1,1.2
		c-4.5,0.7-9,1.9-13.4,3.1c-1.8,0.5-3.2,0.4-3.9-1.4c-0.7-1.6,0.2-2.9,2.4-3.6C93.3,20.7,101.6,19.3,110,19z"/>
	<path d="M207.9,117.1c-0.3,8.1-1.7,16-4.1,23.7c-0.1,0.3-0.2,0.7-0.3,1c-0.5,1.6-1.6,2.5-3.3,2.1c-1.8-0.5-2.2-2-1.8-3.6
		c0.8-3.4,2-6.8,2.5-10.2c0.8-5.4,1.2-10.8,1.7-16.3c0.1-0.7,0-1.7,0.4-2c0.8-0.6,1.9-1.3,2.9-1.2c0.7,0.1,1.6,1.2,1.7,2
		C208.1,114,207.9,115.6,207.9,117.1z"/>
	<path d="M19.7,108.8c0.3-8.1,1.8-16,4.2-23.7c0.3-1.1,1.5-2.4,2.6-2.7c1.9-0.5,3,1.5,2.5,3.8c-1.2,5.3-2.5,10.6-3.4,16
		c-0.6,3.3-0.6,6.7-0.7,10.1c-0.1,2.2-1,3.6-2.7,3.4c-2-0.1-2.6-1.5-2.5-3.3C19.7,111.3,19.7,110.1,19.7,108.8z"/>
	<path d="M108.6,112.2c5,0,9.9-0.3,14.8,0.1c5,0.4,7.6,3.5,7.8,8.2c0.2,4.9-2.4,9-7,9.8c-4.6,0.7-9.3,0.6-14,0.7
		c-0.5,0-1.5-1-1.5-1.6C108.6,123.5,108.6,117.8,108.6,112.2z"/>
	<path d="M108.5,100.9c0-5.1,0-10.4,0-16.2c5.4,0.3,10.6,0.4,15.8,1.1c3.3,0.4,5.2,2.8,5.5,5.8c0.4,4-0.9,6.7-4.1,8.2
		c-1.2,0.5-2.5,1-3.7,1.1C117.6,100.9,113.1,100.9,108.5,100.9z"/>
</g>
</svg>
