<?xml version="1.0" encoding="utf-8"?>
<!-- Generator: Adobe Illustrator 22.0.1, SVG Export Plug-In . SVG Version: 6.00 Build 0)  -->
<svg version="1.1" id="Layer_1" xmlns="http://www.w3.org/2000/svg" xmlns:xlink="http://www.w3.org/1999/xlink" x="0px" y="0px"
	 viewBox="0 0 226.8 226.8" style="enable-background:new 0 0 226.8 226.8;" xml:space="preserve">
<style type="text/css">
	.st0{stroke:#FFFFFF;stroke-miterlimit:10;}
</style>
<g>
	<g>
		<path class="st0" d="M113.2,145.6c-18,0-32.7-14.7-32.7-32.7s14.7-32.7,32.7-32.7s32.7,14.7,32.7,32.7
			C145.8,130.9,131.2,145.6,113.2,145.6z M113.2,100.1c-7.1,0-12.8,5.7-12.8,12.8c0,7.1,5.7,12.8,12.8,12.8
			c7.1,0,12.8-5.7,12.8-12.8C126,105.8,120.2,100.1,113.2,100.1z"/>
	</g>
	<g>
		<g>
			<path class="st0" d="M57.9,166.9c-12.6,0-22.8-10.2-22.8-22.8s10.2-22.8,22.8-22.8s22.8,10.2,22.8,22.8S70.5,166.9,57.9,166.9z
				 M57.9,132.1c-6.6,0-12,5.4-12,12s5.4,12,12,12s12-5.4,12-12S64.5,132.1,57.9,132.1z"/>
		</g>
		<g>
			<path class="st0" d="M57.9,103.9c-12.3,0-22.2-10-22.2-22.2s10-22.2,22.2-22.2s22.2,10,22.2,22.2S70.2,103.9,57.9,103.9z
				 M57.9,70c-6.4,0-11.6,5.2-11.6,11.6s5.2,11.6,11.6,11.6S69.5,88,69.5,81.6C69.6,75.3,64.3,70,57.9,70z"/>
		</g>
		<g>
			<path class="st0" d="M113.2,72.1c-12.4,0-22.5-10.1-22.5-22.5s10.1-22.5,22.5-22.5s22.5,10.1,22.5,22.5S125.6,72.1,113.2,72.1z
				 M113.2,37.8c-6.5,0-11.8,5.3-11.8,11.8s5.3,11.8,11.8,11.8S125,56.1,125,49.6S119.7,37.8,113.2,37.8z"/>
		</g>
		<g>
			<path class="st0" d="M168.7,103.7c-12.3,0-22.2-10-22.2-22.2s10-22.2,22.2-22.2s22.2,10,22.2,22.2S180.9,103.7,168.7,103.7z
				 M168.7,69.8c-6.4,0-11.6,5.2-11.6,11.6S162.3,93,168.7,93c6.4,0,11.6-5.2,11.6-11.6S175.1,69.8,168.7,69.8z"/>
		</g>
		<g>
			<path class="st0" d="M168.7,166.8c-12.4,0-22.5-10.1-22.5-22.5s10.1-22.5,22.5-22.5s22.5,10.1,22.5,22.5S181.1,166.8,168.7,166.8
				z M168.7,132.5c-6.5,0-11.8,5.3-11.8,11.8s5.3,11.8,11.8,11.8s11.8-5.3,11.8-11.8S175.2,132.5,168.7,132.5z"/>
		</g>
		<g>
			<path class="st0" d="M113.2,201.1c-12.7,0-23.1-10.4-23.1-23.1s10.4-23.1,23.1-23.1s23.1,10.4,23.1,23.1S125.9,201.1,113.2,201.1
				z M113.2,165.9c-6.7,0-12.1,5.4-12.1,12.1s5.4,12.1,12.1,12.1s12.1-5.4,12.1-12.1S119.9,165.9,113.2,165.9z"/>
		</g>
	</g>
</g>
<g>
	<circle class="st0" cx="24.9" cy="164.2" r="9.8"/>
	<circle class="st0" cx="113.2" cy="215" r="9.8"/>
	<circle class="st0" cx="201.9" cy="164.2" r="9.8"/>
	<circle class="st0" cx="201.9" cy="62.1" r="9.8"/>
	<circle class="st0" cx="113.2" cy="10.8" r="9.8"/>
	<circle class="st0" cx="24.9" cy="62.1" r="9.8"/>
</g>
<g>
	
		<rect x="34.7" y="61.1" transform="matrix(0.4961 -0.8682 0.8682 0.4961 -41.1687 65.7208)" class="st0" width="2.7" height="14.4"/>
	
		<rect x="29.3" y="156.1" transform="matrix(0.8656 -0.5008 0.5008 0.8656 -73.9522 39.4442)" class="st0" width="14.4" height="2.7"/>
	<rect x="112.3" y="197.1" class="st0" width="2.7" height="14.4"/>
	
		<rect x="189.4" y="150.3" transform="matrix(0.5008 -0.8656 0.8656 0.5008 -41.0624 243.7492)" class="st0" width="2.7" height="14.4"/>
	
		<rect x="183.1" y="67.4" transform="matrix(0.8377 -0.5462 0.5462 0.8377 -6.6576 115.0964)" class="st0" width="14.4" height="2.7"/>
	<rect x="111.8" y="16.1" class="st0" width="2.7" height="14.4"/>
	
		<rect x="75.1" y="63.4" transform="matrix(0.8698 -0.4935 0.4935 0.8698 -20.6345 51.3107)" class="st0" width="23.6" height="2.7"/>
	
		<rect x="139.5" y="53.8" transform="matrix(0.4994 -0.8664 0.8664 0.4994 13.6559 154.9192)" class="st0" width="2.7" height="23.6"/>
	<rect x="166.2" y="102.9" class="st0" width="2.7" height="23.6"/>
	
		<rect x="129" y="159.7" transform="matrix(0.8664 -0.4993 0.4993 0.8664 -61.6052 91.8202)" class="st0" width="23.6" height="2.7"/>
	
		<rect x="83.3" y="148.8" transform="matrix(0.4994 -0.8664 0.8664 0.4994 -96.75 153.7536)" class="st0" width="2.7" height="23.6"/>
	<rect x="57" y="102" class="st0" width="2.7" height="23.6"/>
</g>
</svg>
