<!-- Generated by IcoMoon.io -->
<svg version="1.1" xmlns="http://www.w3.org/2000/svg" width="32" height="32" viewBox="0 0 32 32">
<title>BCO</title>
<path d="M15.972 20.543c-2.54 0-4.614-2.074-4.614-4.614s2.074-4.614 4.614-4.614 4.614 2.074 4.614 4.614c-0.014 2.54-2.074 4.614-4.614 4.614zM15.972 14.123c-1.002 0-1.806 0.804-1.806 1.806s0.804 1.806 1.806 1.806c1.002 0 1.806-0.804 1.806-1.806s-0.818-1.806-1.806-1.806z"></path>
<path d="M8.169 23.549c-1.778 0-3.217-1.439-3.217-3.217s1.439-3.217 3.217-3.217 3.217 1.439 3.217 3.217-1.439 3.217-3.217 3.217zM8.169 18.638c-0.931 0-1.693 0.762-1.693 1.693s0.762 1.693 1.693 1.693 1.693-0.762 1.693-1.693-0.762-1.693-1.693-1.693z"></path>
<path d="M8.169 14.66c-1.735 0-3.132-1.411-3.132-3.132s1.411-3.132 3.132-3.132 3.132 1.411 3.132 3.132-1.397 3.132-3.132 3.132zM8.169 9.877c-0.903 0-1.637 0.734-1.637 1.637s0.734 1.637 1.637 1.637 1.637-0.734 1.637-1.637c0.014-0.889-0.734-1.637-1.637-1.637z"></path>
<path d="M15.972 10.173c-1.75 0-3.175-1.425-3.175-3.175s1.425-3.175 3.175-3.175 3.175 1.425 3.175 3.175-1.425 3.175-3.175 3.175zM15.972 5.333c-0.917 0-1.665 0.748-1.665 1.665s0.748 1.665 1.665 1.665 1.665-0.748 1.665-1.665-0.748-1.665-1.665-1.665z"></path>
<path d="M23.802 14.631c-1.735 0-3.132-1.411-3.132-3.132s1.411-3.132 3.132-3.132 3.132 1.411 3.132 3.132-1.411 3.132-3.132 3.132zM23.802 9.848c-0.903 0-1.637 0.734-1.637 1.637s0.734 1.637 1.637 1.637c0.903 0 1.637-0.734 1.637-1.637s-0.734-1.637-1.637-1.637z"></path>
<path d="M23.802 23.534c-1.75 0-3.175-1.425-3.175-3.175s1.425-3.175 3.175-3.175 3.175 1.425 3.175 3.175-1.425 3.175-3.175 3.175zM23.802 18.695c-0.917 0-1.665 0.748-1.665 1.665s0.748 1.665 1.665 1.665 1.665-0.748 1.665-1.665-0.748-1.665-1.665-1.665z"></path>
<path d="M15.972 28.374c-1.792 0-3.259-1.467-3.259-3.259s1.467-3.259 3.259-3.259 3.259 1.467 3.259 3.259-1.467 3.259-3.259 3.259zM15.972 23.407c-0.945 0-1.707 0.762-1.707 1.707s0.762 1.707 1.707 1.707 1.707-0.762 1.707-1.707-0.762-1.707-1.707-1.707z"></path>
<path d="M4.896 23.168c0 0.764-0.619 1.383-1.383 1.383s-1.383-0.619-1.383-1.383c0-0.764 0.619-1.383 1.383-1.383s1.383 0.619 1.383 1.383z"></path>
<path d="M17.355 30.335c0 0.764-0.619 1.383-1.383 1.383s-1.383-0.619-1.383-1.383c0-0.764 0.619-1.383 1.383-1.383s1.383 0.619 1.383 1.383z"></path>
<path d="M29.869 23.168c0 0.764-0.619 1.383-1.383 1.383s-1.383-0.619-1.383-1.383c0-0.764 0.619-1.383 1.383-1.383s1.383 0.619 1.383 1.383z"></path>
<path d="M29.869 8.762c0 0.764-0.619 1.383-1.383 1.383s-1.383-0.619-1.383-1.383c0-0.764 0.619-1.383 1.383-1.383s1.383 0.619 1.383 1.383z"></path>
<path d="M17.355 1.524c0 0.764-0.619 1.383-1.383 1.383s-1.383-0.619-1.383-1.383c0-0.764 0.619-1.383 1.383-1.383s1.383 0.619 1.383 1.383z"></path>
<path d="M4.896 8.762c0 0.764-0.619 1.383-1.383 1.383s-1.383-0.619-1.383-1.383c0-0.764 0.619-1.383 1.383-1.383s1.383 0.619 1.383 1.383z"></path>
<path d="M4.105 9.299l0.189-0.331 1.764 1.008-0.189 0.331-1.764-1.008z"></path>
<path d="M4.174 22.56l1.759-1.017 0.191 0.33-1.759 1.018-0.191-0.33z"></path>
<path d="M15.845 27.81h0.381v2.032h-0.381v-2.032z"></path>
<path d="M25.945 21.88l0.191-0.33 1.759 1.017-0.191 0.33-1.759-1.018z"></path>
<path d="M25.896 10.095l1.702-1.11 0.208 0.319-1.702 1.11-0.208-0.319z"></path>
<path d="M15.774 2.272h0.381v2.032h-0.381v-2.032z"></path>
<path d="M10.72 9.791l2.896-1.643 0.188 0.331-2.896 1.643-0.188-0.331z"></path>
<path d="M18.333 8.596l0.19-0.33 2.885 1.663-0.19 0.33-2.885-1.663z"></path>
<path d="M23.45 14.519h0.381v3.33h-0.381v-3.33z"></path>
<path d="M18.328 23.39l2.885-1.663 0.19 0.33-2.885 1.663-0.19-0.33z"></path>
<path d="M10.409 21.995l0.19-0.33 2.885 1.663-0.19 0.33-2.885-1.663z"></path>
<path d="M8.042 14.392h0.381v3.33h-0.381v-3.33z"></path>
</svg>
