<!-- Generated by IcoMoon.io -->
<svg version="1.1" xmlns="http://www.w3.org/2000/svg" width="32" height="32" viewBox="0 0 32 32">
<title>BCPT</title>
<path d="M32 16.056c0 8.818-7.153 15.986-15.986 16s-16.014-7.168-16.014-16c0-8.847 7.182-16.014 16.014-16s15.986 7.168 15.986 16zM16.014 1.623c-7.958 0-14.434 6.462-14.434 14.42-0.014 7.944 6.434 14.406 14.392 14.434 7.944 0.028 14.434-6.434 14.462-14.406 0.014-7.944-6.462-14.434-14.42-14.448z"></path>
<path d="M21.206 15.831c0.282 0.071 0.607 0.141 0.917 0.226 1.467 0.423 2.54 1.326 2.977 2.808 0.691 2.356-0.113 5.164-2.483 6.631-1.411 0.875-2.963 1.34-4.628 1.34-3.034 0.014-6.067 0-9.101 0-0.113 0-0.24 0-0.381 0 0-7.21 0-14.377 0-21.587 0.113 0 0.212 0 0.31 0 2.808 0 5.616-0.028 8.423 0.014 1.919 0.028 3.781 0.381 5.404 1.524 0.931 0.649 1.608 1.51 1.919 2.582 0.564 1.975 0.028 4.148-1.792 5.489-0.48 0.381-1.030 0.663-1.566 0.974zM13.587 23.111c1.623-0.085 3.217 0.155 4.783-0.155 0.974-0.183 1.75-0.762 1.877-1.792 0.056-0.494 0.071-1.016 0.028-1.51-0.071-0.79-0.536-1.326-1.27-1.58-0.409-0.141-0.847-0.226-1.27-0.24-1.298-0.028-2.61-0.014-3.908-0.014-0.085 0-0.155 0.014-0.24 0.014 0 1.75 0 3.485 0 5.277zM13.587 14.406c1.354-0.042 2.681-0.028 4.007-0.127 1.030-0.071 2.102-0.72 2.215-2.018 0.042-0.409 0.042-0.832 0.014-1.242-0.071-0.832-0.536-1.411-1.312-1.679-0.409-0.141-0.847-0.226-1.27-0.24-1.129-0.028-2.258-0.014-3.386-0.014-0.085 0-0.155 0.014-0.254 0.014-0.014 1.764-0.014 3.499-0.014 5.305z"></path>
</svg>
