<?xml version="1.0" encoding="utf-8"?>
<!-- Generator: Adobe Illustrator 22.1.0, SVG Export Plug-In . SVG Version: 6.00 Build 0)  -->
<svg version="1.1" id="Layer_1" xmlns="http://www.w3.org/2000/svg" xmlns:xlink="http://www.w3.org/1999/xlink" x="0px" y="0px"
	 viewBox="0 0 226.8 226.8" style="enable-background:new 0 0 226.8 226.8;" xml:space="preserve">
<g>
	<path d="M226.8,113.8c0,62.5-50.7,113.3-113.3,113.4C50.9,227.3,0,176.4,0,113.8C0,51.1,50.9,0.3,113.5,0.4
		C176.1,0.5,226.8,51.2,226.8,113.8z M113.5,11.5C57.1,11.5,11.2,57.3,11.2,113.7C11.1,170,56.8,215.8,113.2,216
		c56.3,0.2,102.3-45.6,102.5-102.1C215.8,57.6,169.9,11.6,113.5,11.5z"/>
	<path d="M150.3,112.2c2,0.5,4.3,1,6.5,1.6c10.4,3,18,9.4,21.1,19.9c4.9,16.7-0.8,36.6-17.6,47c-10,6.2-21,9.5-32.8,9.5
		c-21.5,0.1-43,0-64.5,0c-0.8,0-1.7,0-2.7,0c0-51.1,0-101.9,0-153c0.8,0,1.5,0,2.2,0c19.9,0,39.8-0.2,59.7,0.1
		c13.6,0.2,26.8,2.7,38.3,10.8c6.6,4.6,11.4,10.7,13.6,18.3c4,14,0.2,29.4-12.7,38.9C158,108,154.1,110,150.3,112.2z M96.3,163.8
		c11.5-0.6,22.8,1.1,33.9-1.1c6.9-1.3,12.4-5.4,13.3-12.7c0.4-3.5,0.5-7.2,0.2-10.7c-0.5-5.6-3.8-9.4-9-11.2c-2.9-1-6-1.6-9-1.7
		c-9.2-0.2-18.5-0.1-27.7-0.1c-0.6,0-1.1,0.1-1.7,0.1C96.3,138.8,96.3,151.1,96.3,163.8z M96.3,102.1c9.6-0.3,19-0.2,28.4-0.9
		c7.3-0.5,14.9-5.1,15.7-14.3c0.3-2.9,0.3-5.9,0.1-8.8c-0.5-5.9-3.8-10-9.3-11.9c-2.9-1-6-1.6-9-1.7c-8-0.2-16-0.1-24-0.1
		c-0.6,0-1.1,0.1-1.8,0.1C96.3,77,96.3,89.3,96.3,102.1z"/>
</g>
</svg>
