<!-- Generated by IcoMoon.io -->
<svg version="1.1" xmlns="http://www.w3.org/2000/svg" width="32" height="32" viewBox="0 0 32 32">
<title>BFT</title>
<path d="M16.913 13.632c0.412-0.304 0.618-0.802 0.618-1.49 0-0.38-0.070-0.694-0.206-0.938-0.137-0.243-0.321-0.436-0.548-0.574-0.23-0.135-0.493-0.232-0.789-0.286-0.278-0.051-0.597-0.080-0.924-0.080-0.002 0-0.003 0-0.004 0h-3.361v3.825h3.636c0.642-0 1.166-0.152 1.578-0.458zM17.484 17.079c-0.472-0.357-1.098-0.537-1.876-0.537h-3.91v4.49h3.842c0.351 0 0.687-0.035 1.007-0.102 0.321-0.070 0.603-0.184 0.847-0.344 0.242-0.16 0.438-0.377 0.582-0.653s0.219-0.626 0.219-1.054c0-0.84-0.237-1.439-0.71-1.799z"></path>
<path d="M0.016 0v32h32v-32h-32zM21.305 21.225c-0.32 0.606-0.75 1.098-1.293 1.479-0.54 0.382-1.158 0.663-1.852 0.846-0.693 0.183-1.406 0.275-2.138 0.275h-7.916v-16.354h7.686c0.777 0 1.487 0.068 2.128 0.205s1.189 0.363 1.647 0.676c0.457 0.313 0.812 0.73 1.063 1.249s0.377 1.159 0.377 1.923c0 0.825-0.186 1.512-0.559 2.062-0.375 0.55-0.928 1-1.659 1.351 1.007 0.292 1.758 0.799 2.252 1.524 0.497 0.726 0.744 1.601 0.744 2.624-0 0.825-0.16 1.538-0.481 2.14zM26.587 23.825h-3.593v-3.527h3.593v3.527z"></path>
</svg>
