<!-- Generated by IcoMoon.io -->
<svg version="1.1" xmlns="http://www.w3.org/2000/svg" width="32" height="32" viewBox="0 0 32 32">
<title>BIBOX</title>
<path d="M3.245 6.73c0.423-0.028 0.832 0.155 1.171 0.48 0.169 0.155 0.31 0.169 0.522 0.056 2.907-1.637 5.827-3.273 8.734-4.924 0.127-0.071 0.226-0.282 0.226-0.437-0.014-1.086 0.734-1.905 1.778-1.905s1.792 0.804 1.764 1.919c-0.014 0.254 0.071 0.381 0.282 0.508 2.878 1.608 5.757 3.217 8.635 4.84 0.268 0.155 0.423 0.071 0.621-0.099 0.536-0.48 1.355-0.578 1.961-0.254 0.677 0.353 1.044 1.016 0.959 1.764-0.071 0.635-0.423 1.072-0.974 1.354-0.226 0.113-0.31 0.24-0.31 0.494 0 3.386 0 6.758 0 10.145 0 0.254 0.099 0.395 0.325 0.522 0.903 0.466 1.242 1.524 0.776 2.356-0.508 0.917-1.594 1.227-2.483 0.677-0.24-0.141-0.423-0.183-0.677-0.028-2.907 1.679-5.799 3.358-8.72 5.023-0.282 0.169-0.395 0.339-0.395 0.677 0.042 1.072-0.762 1.848-1.834 1.834-1.016-0.028-1.75-0.832-1.679-1.891 0.014-0.254-0.071-0.381-0.282-0.508-2.977-1.721-5.94-3.443-8.917-5.164-0.198-0.113-0.353-0.099-0.536 0.014-0.917 0.593-2.032 0.325-2.526-0.578-0.522-0.945-0.155-2.018 0.818-2.511 0.127-0.056 0.254-0.268 0.254-0.409 0.014-3.344 0-6.688 0.014-10.032 0-0.325-0.085-0.522-0.395-0.677-0.748-0.353-1.086-1.171-0.889-1.933 0.183-0.776 0.889-1.312 1.778-1.312zM26.37 22.392c0.028-0.014 0.056-0.042 0.085-0.056-0.113-0.127-0.198-0.282-0.325-0.367-0.564-0.381-1.157-0.734-1.735-1.115-2.328-1.481-4.642-2.977-6.97-4.473-0.226-0.141-0.381-0.141-0.607 0-0.776 0.494-1.566 0.48-2.342-0.028-0.212-0.141-0.353-0.155-0.564-0.014-2.878 1.891-5.757 3.781-8.635 5.672-0.494 0.325-0.466 1.199 0.056 1.496 2.907 1.693 5.827 3.372 8.734 5.065 0.226 0.127 0.381 0.127 0.607-0.014 0.649-0.437 1.34-0.437 2.004-0.014 0.212 0.141 0.353 0.141 0.564 0.014 1.82-1.058 3.654-2.116 5.489-3.16 1.115-0.649 2.243-1.284 3.372-1.919 0.24-0.127 0.353-0.282 0.282-0.564-0.056-0.183-0.014-0.353-0.014-0.522zM3.598 15.577c0 1.481 0.014 2.963-0.014 4.444-0.014 0.593 0 1.086 0.677 1.312 0.198 0.071 0.31 0.113 0.494 0 2.878-1.891 5.757-3.781 8.649-5.672 0.226-0.141 0.31-0.282 0.268-0.578-0.155-1.072 0.282-1.862 1.27-2.286 0.31-0.127 0.31-0.339 0.31-0.593 0-2.638-0.014-5.291 0-7.929 0-0.508-0.042-0.903-0.593-1.115-0.226-0.085-0.395-0.141-0.621-0.014-2.921 1.637-5.855 3.273-8.762 4.924-0.141 0.085-0.268 0.31-0.296 0.494-0.099 0.663-0.395 1.199-1.016 1.453-0.325 0.141-0.367 0.339-0.367 0.635 0 1.651 0 3.287 0 4.924zM27.725 15.619c0-1.679 0-3.358 0-5.037 0-0.226-0.014-0.409-0.268-0.508-0.663-0.282-1.044-0.804-1.101-1.524-0.028-0.268-0.155-0.409-0.381-0.536-0.748-0.395-1.481-0.818-2.215-1.228-2.173-1.213-4.346-2.413-6.504-3.626-0.212-0.127-0.381-0.141-0.578 0.028-0.085 0.071-0.226 0.099-0.296 0.183-0.113 0.113-0.268 0.268-0.268 0.395-0.028 2.864-0.014 5.728-0.028 8.593 0 0.226 0.085 0.31 0.282 0.409 1.002 0.423 1.453 1.228 1.298 2.314-0.056 0.339 0.056 0.494 0.325 0.663 2.85 1.806 5.714 3.612 8.536 5.474 0.437 0.282 0.663 0.028 0.945-0.127 0.141-0.071 0.24-0.339 0.24-0.508 0.014-1.665 0.014-3.316 0.014-4.966z"></path>
</svg>
