<!-- Generated by IcoMoon.io -->
<svg version="1.1" xmlns="http://www.w3.org/2000/svg" width="32" height="32" viewBox="0 0 32 32">
<title>BIGONE</title>
<path d="M24.056 19.753c-0.028-0.494-0.056-0.776-0.056-1.058 0-3.795-0.028-7.577 0.014-11.372 0.014-0.818-0.24-1.27-0.959-1.679-2.949-1.637-5.855-3.33-8.776-5.009-0.226-0.127-0.437-0.268-0.635-0.564 0.169-0.028 0.353-0.071 0.522-0.071 1.834 0 3.683-0.028 5.517 0.014 0.381 0 0.79 0.127 1.129 0.325 2.046 1.143 4.064 2.342 6.109 3.499 0.451 0.254 0.621 0.55 0.621 1.058-0.014 4.049-0.014 8.113 0 12.162 0 0.466-0.141 0.79-0.564 1.016-0.931 0.508-1.834 1.058-2.921 1.679z"></path>
<path d="M3.302 26.159c-0.113-0.155-0.24-0.296-0.325-0.466-0.889-1.51-1.778-3.019-2.638-4.543-0.183-0.339-0.31-0.748-0.31-1.129-0.028-2.413 0-4.84-0.028-7.252 0-0.536 0.198-0.847 0.649-1.115 3.457-2.032 6.899-4.092 10.342-6.152 0.451-0.268 0.832-0.296 1.284 0 0.847 0.55 1.735 1.044 2.709 1.637-0.282 0.212-0.466 0.353-0.663 0.48-3.302 1.947-6.589 3.908-9.905 5.827-0.635 0.367-0.903 0.776-0.889 1.524 0.042 3.443 0.014 6.871 0.014 10.314 0 0.282-0.028 0.564-0.056 0.832-0.071 0.014-0.127 0.028-0.183 0.042z"></path>
<path d="M28.727 6.138c0.607 1.044 1.143 2.145 1.834 3.132 1.115 1.594 1.524 3.316 1.383 5.249-0.127 1.721-0.042 3.457-0.014 5.192 0 0.48-0.169 0.776-0.578 1.016-3.471 2.018-6.942 4.035-10.384 6.081-0.466 0.268-0.847 0.268-1.284-0.014-0.847-0.522-1.707-1.016-2.681-1.58 0.296-0.226 0.508-0.409 0.734-0.536 3.273-1.947 6.547-3.922 9.834-5.841 0.649-0.381 0.931-0.804 0.917-1.58-0.042-3.386-0.014-6.787-0.014-10.187 0-0.296 0.028-0.593 0.042-0.889 0.056-0.014 0.141-0.028 0.212-0.042z"></path>
<path d="M18.018 31.944c-0.212 0.014-0.423 0.042-0.635 0.042-1.75 0-3.499 0.014-5.249-0.014-0.409-0.014-0.847-0.113-1.199-0.296-1.947-1.044-3.866-2.145-5.827-3.203-0.494-0.268-0.691-0.593-0.677-1.157 0.014-4.007 0.014-8.028 0-12.035 0-0.55 0.169-0.903 0.663-1.171 0.903-0.466 1.778-0.988 2.78-1.552 0.042 0.395 0.085 0.663 0.085 0.931 0 3.88 0.028 7.76-0.014 11.626 0 0.691 0.226 1.086 0.832 1.411 2.892 1.58 5.771 3.203 8.649 4.811 0.226 0.127 0.437 0.268 0.649 0.409-0.014 0.071-0.028 0.141-0.056 0.198z"></path>
<path d="M0.875 10.116c0.071-0.169 0.141-0.353 0.226-0.508 0.903-1.608 1.806-3.203 2.737-4.797 0.169-0.296 0.437-0.578 0.734-0.748 2.060-1.228 4.162-2.427 6.25-3.64 0.437-0.254 0.79-0.268 1.228-0.014 3.513 2.074 7.041 4.12 10.554 6.18 0.169 0.099 0.395 0.31 0.395 0.48 0.028 1.171 0.014 2.342 0.014 3.64-0.353-0.155-0.593-0.226-0.804-0.353-3.33-1.947-6.66-3.908-9.961-5.884-0.522-0.31-0.917-0.339-1.453-0.014-2.921 1.778-5.884 3.513-8.847 5.263-0.31 0.183-0.649 0.339-0.974 0.508-0.028-0.042-0.071-0.085-0.099-0.113z"></path>
<path d="M9.115 21.616c0.494 0.282 1.002 0.55 1.496 0.832 3.062 1.778 6.138 3.541 9.199 5.347 0.55 0.325 0.959 0.325 1.51 0 3.019-1.806 6.067-3.57 9.115-5.362 0.169-0.099 0.353-0.169 0.691-0.339-0.141 0.325-0.183 0.508-0.282 0.663-0.889 1.58-1.778 3.175-2.709 4.741-0.198 0.325-0.508 0.621-0.847 0.804-2.060 1.115-4.162 2.187-6.222 3.302-0.451 0.24-0.804 0.226-1.242-0.028-3.443-1.933-6.885-3.852-10.342-5.757-0.437-0.24-0.649-0.536-0.621-1.044 0.028-1.030 0.014-2.060 0.014-3.090 0.085-0.014 0.155-0.042 0.24-0.071z"></path>
</svg>
