<!-- Generated by IcoMoon.io -->
<svg version="1.1" xmlns="http://www.w3.org/2000/svg" width="32" height="32" viewBox="0 0 32 32">
<title>BIS</title>
<path d="M12.289 31.986c-1.862 0-3.739-0.014-5.601 0.014-0.409 0-0.508-0.141-0.508-0.508 0.014-3.626-0.014-7.252 0.028-10.892 0.014-1.481 0.508-2.878 1.143-4.219 0.099-0.226 0.099-0.578 0-0.79-0.776-1.608-1.199-3.287-1.185-5.093 0.028-3.259 0.014-6.519 0-9.792 0-0.55 0.155-0.734 0.72-0.72 3.316 0.028 6.631 0 9.947 0.014 5.46 0.014 9.877 3.908 10.624 9.312 0.296 2.116-0.071 4.134-1.016 6.025-0.226 0.451-0.24 0.804 0 1.27 3.005 6.025-0.381 13.404-6.928 15.012-1.016 0.254-2.102 0.296-3.146 0.339-1.369 0.071-2.723 0.028-4.078 0.028 0 0 0 0 0 0zM10.907 19.57c-0.79 2.032-0.127 5.051 2.145 6.758 2.441 1.82 5.841 1.665 8.085-0.409 1.989-1.834 2.384-4.868 1.637-6.321-1.792 1.157-3.767 1.792-5.912 1.778s-4.134-0.607-5.954-1.806zM22.815 12.416c0.945-2.399-0.268-5.545-2.667-7.069-2.455-1.538-5.841-1.101-7.831 0.974-1.891 1.975-2.032 5.037-1.383 6.067 3.951-2.37 7.915-2.3 11.88 0.028zM20.064 16.014c-1.594-1.27-5.206-1.256-6.392 0.014 1.552 1.213 4.713 1.227 6.392-0.014z"></path>
</svg>
