<?xml version="1.0" encoding="utf-8"?>
<!-- Generator: Adobe Illustrator 22.1.0, SVG Export Plug-In . SVG Version: 6.00 Build 0)  -->
<svg version="1.1" id="Layer_1" xmlns="http://www.w3.org/2000/svg" xmlns:xlink="http://www.w3.org/1999/xlink" x="0px" y="0px"
	 viewBox="0 0 226.8 226.8" style="enable-background:new 0 0 226.8 226.8;" xml:space="preserve">
<g>
	<path d="M87.1,226.7c-13.2,0-26.5-0.1-39.7,0.1c-2.9,0-3.6-1-3.6-3.6c0.1-25.7-0.1-51.4,0.2-77.2c0.1-10.5,3.6-20.4,8.1-29.9
		c0.7-1.6,0.7-4.1,0-5.6c-5.5-11.4-8.5-23.3-8.4-36.1c0.2-23.1,0.1-46.2,0-69.4c0-3.9,1.1-5.2,5.1-5.1c23.5,0.2,47,0,70.5,0.1
		c38.7,0.1,70,27.7,75.3,66c2.1,15-0.5,29.3-7.2,42.7c-1.6,3.2-1.7,5.7,0,9c21.3,42.7-2.7,95-49.1,106.4c-7.2,1.8-14.9,2.1-22.3,2.4
		C106.3,227,96.7,226.7,87.1,226.7C87.1,226.7,87.1,226.7,87.1,226.7z M77.3,138.7c-5.6,14.4-0.9,35.8,15.2,47.9
		c17.3,12.9,41.4,11.8,57.3-2.9c14.1-13,16.9-34.5,11.6-44.8c-12.7,8.2-26.7,12.7-41.9,12.6C104.3,151.4,90.2,147.2,77.3,138.7z
		 M161.7,88c6.7-17-1.9-39.3-18.9-50.1c-17.4-10.9-41.4-7.8-55.5,6.9c-13.4,14-14.4,35.7-9.8,43C105.5,71,133.6,71.5,161.7,88z
		 M142.2,113.5c-11.3-9-36.9-8.9-45.3,0.1C107.9,122.2,130.3,122.3,142.2,113.5z"/>
</g>
</svg>
