<!-- Generated by IcoMoon.io -->
<svg version="1.1" xmlns="http://www.w3.org/2000/svg" width="32" height="32" viewBox="0 0 32 32">
<title>BIT2C</title>
<path d="M22.942 32c-0.353-0.155-0.593-0.24-0.818-0.367-6.363-3.316-12.741-6.645-19.118-9.933-0.649-0.339-0.931-0.72-0.903-1.467 0.056-1.425 0.014-2.85 0.014-4.275 0-0.282 0-0.564 0-0.974 0.381 0.169 0.649 0.282 0.903 0.409 6.434 3.372 12.868 6.758 19.316 10.13 0.437 0.226 0.621 0.494 0.621 1.016-0.028 1.778-0.014 3.57-0.014 5.46z"></path>
<path d="M26.356 25.227c-0.226-0.127-0.381-0.198-0.522-0.296-4.938-3.344-9.877-6.688-14.815-10.018-0.437-0.296-0.607-0.621-0.593-1.143 0.028-1.806 0.014-3.612 0.014-5.517 0.268 0.141 0.48 0.226 0.663 0.353 4.952 3.386 9.891 6.758 14.829 10.159 0.254 0.169 0.536 0.522 0.536 0.79 0.042 1.778 0.014 3.556 0.014 5.319 0 0.099-0.056 0.169-0.127 0.353z"></path>
<path d="M28.938 17.129c-0.141-0.127-0.254-0.198-0.339-0.296-3.146-3.316-6.293-6.631-9.453-9.919-0.409-0.423-0.593-0.875-0.578-1.467 0.028-1.51 0.014-3.034 0.014-4.543 0-0.254 0.028-0.508 0.042-0.889 0.282 0.254 0.48 0.409 0.649 0.593 3.104 3.302 6.222 6.617 9.312 9.947 0.24 0.254 0.437 0.649 0.437 0.974 0.042 1.778 0.028 3.556 0.014 5.319 0 0.071-0.042 0.141-0.099 0.282z"></path>
</svg>
