<!-- Generated by IcoMoon.io -->
<svg version="1.1" xmlns="http://www.w3.org/2000/svg" width="32" height="32" viewBox="0 0 32 32">
<title>BITBANK</title>
<path d="M10.907 10.413c-0.014-0.183-0.042-0.31-0.042-0.451 0-1.242 0-2.483-0.014-3.725 0-0.339 0.099-0.508 0.437-0.635 4.261-1.637 8.395-1.34 12.289 1.044 3.584 2.201 5.757 5.446 6.363 9.637 0.677 4.628-0.691 8.635-4.035 11.866-3.203 3.104-7.111 4.346-11.541 3.668-5.714-0.861-10.145-5.065-11.344-10.723-0.198-0.959-0.282-1.961-0.282-2.935-0.028-5.841-0.014-11.697-0.028-17.552 0-0.494 0.155-0.635 0.635-0.621 0.974 0.028 1.947 0.014 2.921 0.014 0.621 0 0.621 0 0.621 0.649 0 5.785 0 11.57 0 17.355 0 2.314 0.635 4.402 2.088 6.208 1.594 1.975 3.626 3.189 6.152 3.499 3.217 0.409 5.982-0.55 8.24-2.892 2.977-3.090 3.471-7.944 1.157-11.57-2.004-3.118-4.91-4.586-8.593-4.487-1.608 0.042-3.104 0.536-4.459 1.397-0.113 0.071-0.212 0.141-0.325 0.198-0.071 0.042-0.113 0.042-0.24 0.056z"></path>
<path d="M16.409 23.845c-2.991 0-5.517-2.54-5.531-5.531-0.014-3.005 2.54-5.559 5.545-5.559s5.559 2.582 5.531 5.573c-0.028 3.019-2.554 5.517-5.545 5.517z"></path>
</svg>
