<!-- Generated by IcoMoon.io -->
<svg version="1.1" xmlns="http://www.w3.org/2000/svg" width="32" height="32" viewBox="0 0 32 32">
<title>BITB</title>
<path d="M19.4 28.628c-0.381 0.536-0.691 1.044-1.058 1.524-0.198 0.254-0.451 0.48-0.72 0.635-0.141 0.085-0.409 0.042-0.564-0.042-0.085-0.042-0.113-0.325-0.056-0.451 0.564-1.355 1.143-2.695 1.75-4.021 0.056-0.127 0.367-0.169 0.564-0.198 0.522-0.071 1.058-0.099 1.58-0.141 0-0.056-0.014-0.113-0.014-0.155-0.282 0-0.578-0.028-0.847 0-1.129 0.141-2.215-0.099-3.287-0.353-0.72-0.169-0.818-0.127-1.129 0.55-0.183 0.395-0.353 0.832-0.635 1.157-0.254 0.282-0.649 0.451-1.002 0.663-0.183 0.113-0.395 0.198-0.593 0.296 0.014 0.056 0.014 0.099 0.028 0.155-0.381-0.155-0.776-0.31-1.213-0.48-0.056 0.24-0.099 0.409-0.141 0.593-0.226 1.086-0.762 2.018-1.58 2.751-0.169 0.155-0.437 0.212-0.663 0.31-0.071-0.254-0.226-0.522-0.183-0.734 0.127-0.578 0.325-1.157 0.55-1.693 0.409-0.959 0.875-1.891 1.298-2.836 0.198-0.451 0.508-0.677 1.016-0.705 0.367-0.028 0.72-0.24 1.115-0.381 0.085 0.169 0.169 0.353 0.254 0.522 0.494-0.437 0.593-0.917 0.268-1.496-0.127-0.24-0.31-0.437-0.48-0.663-0.155-0.212-0.31-0.409-0.466-0.635-0.381 0.155-0.748 0.325-1.129 0.437-1.298 0.409-2.37 0.113-3.189-0.974-0.48-0.621-0.903-1.298-1.256-1.989-0.254-0.494-0.607-0.861-1.086-1.101-0.621-0.325-1.256-0.621-1.862-0.959-1.397-0.762-2.229-1.919-1.693-3.626 0.071-0.24 0.099-0.494 0.155-0.79 0.395 0.099 0.762 0.198 1.143 0.268 1.905 0.367 3.541-0.254 5.023-1.397 0.72-0.55 1.369-1.185 2.018-1.82 0.691-0.691 1.185-1.51 1.453-2.483 1.030-3.697 3.414-6.194 6.914-7.647 2.638-1.101 5.757-0.282 7.351 1.877 0.79 1.072 1.058 2.328 1.129 3.612 0.169 3.076-0.847 5.601-3.499 7.351-0.55 0.367-0.536 0.578-0.028 1.016 0.31 0.268 0.621 0.536 0.889 0.847s0.578 0.423 0.903 0.254c0.705-0.381 1.848 0.282 2.201 0.959 0.042 0.085 0.085 0.198 0.071 0.296-0.169 0.917-0.395 1.862-1.453 2.102-0.945 0.212-1.157 0.776-1.242 1.637-0.183 1.679-0.945 3.034-2.483 3.908-0.339 0.198-0.578 0.607-0.776 0.959-0.183 0.31-0.226 0.677-0.367 1.002-0.339 0.79-0.804 1.467-1.707 1.707-0.169 0.042-0.395 0.141-0.466 0.282-0.212 0.381-0.466 0.339-0.804 0.099zM11.725 15.295c-1.058 1.002-2.13 2.032-3.203 3.048-0.042-0.042-0.085-0.085-0.127-0.127 0.183-0.226 0.339-0.451 0.536-0.663 0.621-0.677 1.228-1.383 1.891-2.018s1.171-1.256 1.115-2.272c-0.028-0.705 0.141-1.425 0.226-2.201-0.734 0.635-1.383 1.242-2.088 1.764-1.623 1.199-3.344 2.159-5.474 1.834-0.226-0.028-0.437-0.042-0.663-0.085-0.282-0.042-0.452 0.071-0.423 0.353 0.042 0.55 0.042 1.129 0.212 1.651 0.254 0.79 0.945 1.129 1.679 1.369 1.312 0.437 2.328 1.199 2.892 2.497 0.155 0.353 0.381 0.691 0.607 1.002 0.931 1.298 2.568 1.608 3.781 0.734 0.24-0.169 0.282-0.31 0.198-0.593-0.226-0.762-0.48-1.538-0.621-2.328-0.212-1.312-0.353-2.624-0.536-3.965zM23.549 6.138c-0.085-1.594-1.002-2.526-2.356-2.37-1.072 0.127-1.834 1.199-1.608 2.272 0.226 1.115 1.439 2.046 2.921 1.481 0.226 1.34 0.931 2.032 1.933 1.905 0.847-0.113 1.467-0.945 1.369-1.82-0.141-1.072-0.903-1.58-2.258-1.467zM15.436 16.268c0.183 0.056 0.339 0.127 0.508 0.155 0.691 0.113 1.058 0.466 1.072 1.199 0 0.494 0.183 0.931 0.593 1.256 0.437 0.339 0.762 0.296 1.072-0.155 0.24-0.353 0.451-0.72 0.649-1.101 0.254-0.508 0.014-0.974-0.55-1.044-0.254-0.028-0.508 0-0.762 0-0.691 0.014-1.002-0.24-1.101-0.931-0.042-0.325-0.071-0.663-0.113-1.115-0.508 0.607-0.931 1.157-1.369 1.735zM13.122 25.905c-0.903 0.155-1.411 0.423-1.637 0.931-0.466 1.058-0.917 2.131-1.34 3.203-0.085 0.226-0.071 0.494-0.099 0.748 0.056 0.014 0.113 0.028 0.169 0.042 1.242-1.002 1.481-2.497 1.806-3.936 0.381 0.212 0.705 0.395 1.101 0.621 0-0.621 0-1.101 0-1.608zM26.991 18.342c0.395-0.127 0.748-0.141 0.889-0.31 0.536-0.663 0.268-1.679-0.55-1.905-0.381-0.099-0.889 0.099-1.284 0.254-0.099 0.042-0.085 0.508-0.042 0.762 0.042 0.339 0.141 0.663 0.268 0.988 0.071 0.183 0.24 0.339 0.367 0.508 0.169-0.141 0.31-0.254 0.353-0.296zM19.527 26.469c-0.339-0.198-0.466-0.028-0.578 0.254-0.381 0.945-0.79 1.877-1.185 2.822-0.071 0.183-0.113 0.367-0.169 0.564 0.042 0.028 0.085 0.056 0.127 0.085 0.325-0.423 0.635-0.861 0.959-1.27 0.522-0.635 1.101-1.227 0.804-2.159-0.014-0.099 0.042-0.212 0.042-0.296zM19.64 17.82c-0.113 0.127-0.212 0.198-0.24 0.282-0.085 0.212-0.155 0.451-0.226 0.677 0.099 0.014 0.254 0.071 0.268 0.056 0.127-0.24 0.226-0.494 0.31-0.748 0.028-0.056-0.042-0.127-0.113-0.268z"></path>
<path d="M22.589 5.771c0 0.564-0.451 0.988-1.016 0.988-0.593-0.014-1.072-0.494-1.058-1.072 0-0.564 0.437-0.974 1.016-0.974 0.593-0.014 1.058 0.466 1.058 1.058z"></path>
<path d="M24.169 6.787c0.48-0.014 0.931 0.437 0.945 0.959 0.014 0.536-0.381 0.959-0.917 0.959-0.522 0-0.917-0.395-0.931-0.945 0-0.536 0.381-0.959 0.903-0.974z"></path>
</svg>
