<!-- Generated by IcoMoon.io -->
<svg version="1.1" xmlns="http://www.w3.org/2000/svg" width="32" height="32" viewBox="0 0 32 32">
<title>BITBAY</title>
<path d="M19.005 32h-17.566v-25.651h6.349v-6.349h12.459c2.737 0 5.319 1.284 7.28 3.598 1.623 1.919 2.624 4.346 2.624 6.335 0 2.54-0.917 4.825-1.608 6.138 0.381 0.649 0.847 1.594 1.199 2.751 0.79 2.638 0.607 5.206-0.564 7.422-1.199 2.286-2.963 3.908-5.277 4.854-1.453 0.593-3.104 0.903-4.896 0.903zM4.755 28.684h14.25c3.429 0 5.869-1.34 7.238-3.965 1.919-3.654-0.903-7.52-0.931-7.563l-0.818-1.016 0.79-1.030c0.24-0.325 1.552-2.681 1.552-5.178 0-0.974-0.578-2.695-1.848-4.205-0.762-0.903-2.399-2.427-4.755-2.427h-9.129v3.048h8.593c1.75 0 3.344 1.199 3.88 2.935 0.55 1.806-0.155 3.372-1.016 4.233-0.353 0.353-1.75 1.566-2.864 2.54 1.185 1.129 2.78 2.638 3.175 3.034 1.298 1.298 1.044 3.626 0.31 4.642-0.607 0.832-1.665 1.933-4.007 1.933h-11.584v-14.476h3.316v11.175h8.268c0.847 0 1.072-0.226 1.27-0.494 0.042-0.127 0.042-0.367 0.014-0.494-0.621-0.607-3.104-2.963-4.374-4.162l-1.326-1.256 1.383-1.199c1.383-1.199 3.711-3.217 4.064-3.57 0.014-0.014 0.353-0.367 0.198-0.917-0.113-0.381-0.451-0.593-0.705-0.593h-14.942v19.005z"></path>
</svg>
