<?xml version="1.0" encoding="utf-8"?>
<!-- Generator: Adobe Illustrator 22.1.0, SVG Export Plug-In . SVG Version: 6.00 Build 0)  -->
<svg version="1.1" id="Layer_1" xmlns="http://www.w3.org/2000/svg" xmlns:xlink="http://www.w3.org/1999/xlink" x="0px" y="0px"
	 viewBox="0 0 226.8 226.8" style="enable-background:new 0 0 226.8 226.8;" xml:space="preserve">
<g>
	<path d="M137.5,202.9c-2.7,3.8-4.9,7.4-7.5,10.8c-1.4,1.8-3.2,3.4-5.1,4.5c-1,0.6-2.9,0.3-4-0.3c-0.6-0.3-0.8-2.3-0.4-3.2
		c4-9.6,8.1-19.1,12.4-28.5c0.4-0.9,2.6-1.2,4-1.4c3.7-0.5,7.5-0.7,11.2-1c0-0.4-0.1-0.8-0.1-1.1c-2,0-4.1-0.2-6,0
		c-8,1-15.7-0.7-23.3-2.5c-5.1-1.2-5.8-0.9-8,3.9c-1.3,2.8-2.5,5.9-4.5,8.2c-1.8,2-4.6,3.2-7.1,4.7c-1.3,0.8-2.8,1.4-4.2,2.1
		c0.1,0.4,0.1,0.7,0.2,1.1c-2.7-1.1-5.5-2.2-8.6-3.4c-0.4,1.7-0.7,2.9-1,4.2c-1.6,7.7-5.4,14.3-11.2,19.5c-1.2,1.1-3.1,1.5-4.7,2.2
		c-0.5-1.8-1.6-3.7-1.3-5.2c0.9-4.1,2.3-8.2,3.9-12c2.9-6.8,6.2-13.4,9.2-20.1c1.4-3.2,3.6-4.8,7.2-5c2.6-0.2,5.1-1.7,7.9-2.7
		c0.6,1.2,1.2,2.5,1.8,3.7c3.5-3.1,4.2-6.5,1.9-10.6c-0.9-1.7-2.2-3.1-3.4-4.7c-1.1-1.5-2.2-2.9-3.3-4.5c-2.7,1.1-5.3,2.3-8,3.1
		c-9.2,2.9-16.8,0.8-22.6-6.9c-3.4-4.4-6.4-9.2-8.9-14.1c-1.8-3.5-4.3-6.1-7.7-7.8c-4.4-2.3-8.9-4.4-13.2-6.8
		c-9.9-5.4-15.8-13.6-12-25.7c0.5-1.7,0.7-3.5,1.1-5.6c2.8,0.7,5.4,1.4,8.1,1.9c13.5,2.6,25.1-1.8,35.6-9.9
		c5.1-3.9,9.7-8.4,14.3-12.9c4.9-4.9,8.4-10.7,10.3-17.6c7.3-26.2,24.2-43.9,49-54.2c18.7-7.8,40.8-2,52.1,13.3
		c5.6,7.6,7.5,16.5,8,25.6c1.2,21.8-6,39.7-24.8,52.1c-3.9,2.6-3.8,4.1-0.2,7.2c2.2,1.9,4.4,3.8,6.3,6c1.9,2.2,4.1,3,6.4,1.8
		c5-2.7,13.1,2,15.6,6.8c0.3,0.6,0.6,1.4,0.5,2.1c-1.2,6.5-2.8,13.2-10.3,14.9c-6.7,1.5-8.2,5.5-8.8,11.6
		c-1.3,11.9-6.7,21.5-17.6,27.7c-2.4,1.4-4.1,4.3-5.5,6.8c-1.3,2.2-1.6,4.8-2.6,7.1c-2.4,5.6-5.7,10.4-12.1,12.1
		c-1.2,0.3-2.8,1-3.3,2C141.7,204.9,139.9,204.6,137.5,202.9z M83.1,108.4c-7.5,7.1-15.1,14.4-22.7,21.6c-0.3-0.3-0.6-0.6-0.9-0.9
		c1.3-1.6,2.4-3.2,3.8-4.7c4.4-4.8,8.7-9.8,13.4-14.3c4.7-4.5,8.3-8.9,7.9-16.1c-0.2-5,1-10.1,1.6-15.6c-5.2,4.5-9.8,8.8-14.8,12.5
		c-11.5,8.5-23.7,15.3-38.8,13c-1.6-0.2-3.1-0.3-4.7-0.6c-2-0.3-3.2,0.5-3,2.5c0.3,3.9,0.3,8,1.5,11.7c1.8,5.6,6.7,8,11.9,9.7
		c9.3,3.1,16.5,8.5,20.5,17.7c1.1,2.5,2.7,4.9,4.3,7.1c6.6,9.2,18.2,11.4,26.8,5.2c1.7-1.2,2-2.2,1.4-4.2
		c-1.6-5.4-3.4-10.9-4.4-16.5C85.4,127.2,84.4,117.9,83.1,108.4z M166.9,43.5c-0.6-11.3-7.1-17.9-16.7-16.8
		c-7.6,0.9-13,8.5-11.4,16.1c1.6,7.9,10.2,14.5,20.7,10.5c1.6,9.5,6.6,14.4,13.7,13.5c6-0.8,10.4-6.7,9.7-12.9
		C181.9,46.3,176.5,42.7,166.9,43.5z M109.4,115.3c1.3,0.4,2.4,0.9,3.6,1.1c4.9,0.8,7.5,3.3,7.6,8.5c0,3.5,1.3,6.6,4.2,8.9
		c3.1,2.4,5.4,2.1,7.6-1.1c1.7-2.5,3.2-5.1,4.6-7.8c1.8-3.6,0.1-6.9-3.9-7.4c-1.8-0.2-3.6,0-5.4,0c-4.9,0.1-7.1-1.7-7.8-6.6
		c-0.3-2.3-0.5-4.7-0.8-7.9C115.5,107.3,112.5,111.2,109.4,115.3z M93,183.6c-6.4,1.1-10,3-11.6,6.6c-3.3,7.5-6.5,15.1-9.5,22.7
		c-0.6,1.6-0.5,3.5-0.7,5.3c0.4,0.1,0.8,0.2,1.2,0.3c8.8-7.1,10.5-17.7,12.8-27.9c2.7,1.5,5,2.8,7.8,4.4C93,190.6,93,187.2,93,183.6
		z M191.3,130c2.8-0.9,5.3-1,6.3-2.2c3.8-4.7,1.9-11.9-3.9-13.5c-2.7-0.7-6.3,0.7-9.1,1.8c-0.7,0.3-0.6,3.6-0.3,5.4
		c0.3,2.4,1,4.7,1.9,7c0.5,1.3,1.7,2.4,2.6,3.6C190,131.1,191,130.3,191.3,130z M138.4,187.6c-2.4-1.4-3.3-0.2-4.1,1.8
		c-2.7,6.7-5.6,13.3-8.4,20c-0.5,1.3-0.8,2.6-1.2,4c0.3,0.2,0.6,0.4,0.9,0.6c2.3-3,4.5-6.1,6.8-9c3.7-4.5,7.8-8.7,5.7-15.3
		C138,189,138.4,188.2,138.4,187.6z M139.2,126.3c-0.8,0.9-1.5,1.4-1.7,2c-0.6,1.5-1.1,3.2-1.6,4.8c0.7,0.1,1.8,0.5,1.9,0.4
		c0.9-1.7,1.6-3.5,2.2-5.3C140.2,127.8,139.7,127.3,139.2,126.3z"/>
	<path d="M160.1,40.9c0,4-3.2,7-7.2,7c-4.2-0.1-7.6-3.5-7.5-7.6c0-4,3.1-6.9,7.2-6.9C156.8,33.3,160.1,36.7,160.1,40.9z"/>
	<path d="M171.3,48.1c3.4-0.1,6.6,3.1,6.7,6.8c0.1,3.8-2.7,6.8-6.5,6.8c-3.7,0-6.5-2.8-6.6-6.7C164.9,51.2,167.6,48.2,171.3,48.1z"
		/>
</g>
</svg>
