<!-- Generated by IcoMoon.io -->
<svg version="1.1" xmlns="http://www.w3.org/2000/svg" width="32" height="32" viewBox="0 0 32 32">
<title>BITCNY</title>
<path d="M6.208 13.277v8.056h6.448c0.028-0.437 0.169-0.847 0.381-1.227"></path>
<path d="M6.208 0.099v11.019l7.915 7.915c0.395-0.226 0.847-0.353 1.298-0.367v-10.328l-9.213-8.24z"></path>
<path d="M8.522 28.586l4.529-4.317c-0.296-0.451-0.494-0.945-0.578-1.481h-6.25c0.113 2.131 0.931 4.162 2.3 5.799z"></path>
<path d="M16.818 12.374v6.25c0.466 0.099 0.903 0.268 1.298 0.536l4.43-4.43c-1.608-1.383-3.626-2.215-5.728-2.356z"></path>
<path d="M15.436 25.834c-0.494-0.085-0.959-0.282-1.383-0.564l-4.543 4.332c1.637 1.467 3.725 2.342 5.926 2.483 0 0 0-6.25 0-6.25z"></path>
<path d="M19.118 20.162c0.24 0.367 0.423 0.762 0.536 1.185h6.293c-0.183-2.074-1.016-4.049-2.384-5.616"></path>
<path d="M18.215 25.213c-0.367 0.268-0.79 0.451-1.227 0.564v6.293c2.046-0.183 3.979-1.002 5.545-2.342l-4.317-4.515z"></path>
<path d="M19.711 22.787c-0.071 0.451-0.226 0.889-0.451 1.298l4.36 4.557c1.411-1.637 2.229-3.697 2.342-5.855"></path>
</svg>
