<!-- Generated by IcoMoon.io -->
<svg version="1.1" xmlns="http://www.w3.org/2000/svg" width="32" height="32" viewBox="0 0 32 32">
<title>BITCOIN_CASH_WALLET</title>
<path d="M3.81 11.259c-0.282-0.988-0.55-1.933-0.847-2.935 1.862-0.536 3.654-1.058 5.517-1.594-0.423-1.524-0.847-2.991-1.27-4.515 0.931-0.268 1.806-0.522 2.751-0.79 0.423 1.467 0.847 2.907 1.284 4.402 0.705-0.212 1.383-0.409 2.145-0.621-0.423-1.481-0.832-2.921-1.256-4.402 0.931-0.268 1.806-0.522 2.751-0.804 0.437 1.524 0.875 2.991 1.284 4.416 1.199-0.071 2.328-0.212 3.443-0.183 3.654 0.113 4.924 2.751 4.995 5.235 0.028 1.157-0.522 2.116-1.326 2.977 0.734 0.127 1.411 0.198 2.060 0.353 1.185 0.296 2.088 1.016 2.61 2.116 1.764 3.795 1.044 7.069-2.907 9.072-0.945 0.48-1.919 0.875-2.907 1.312 0.423 1.496 0.847 2.963 1.284 4.501-0.945 0.268-1.82 0.522-2.765 0.804-0.437-1.524-0.861-2.963-1.298-4.473-0.72 0.198-1.411 0.381-2.159 0.578 0.423 1.496 0.847 2.963 1.284 4.515-0.931 0.268-1.806 0.522-2.751 0.79-0.451-1.538-0.875-3.005-1.312-4.557-1.848 0.522-3.654 1.030-5.531 1.566-0.127-1.143-0.254-2.243-0.395-3.443 0.593-0.183 1.199-0.367 1.806-0.536 0.832-0.24 1.115-0.677 0.889-1.496-1.115-3.908-2.229-7.802-3.358-11.697-0.31-1.072-0.917-1.411-1.989-1.129-0.677 0.141-1.326 0.339-2.032 0.536zM16.325 23.323c0.451-0.127 0.818-0.212 1.171-0.325 1.651-0.508 3.316-0.988 4.684-2.131 0.875-0.734 1.242-1.665 0.931-2.78-0.296-1.086-1.101-1.693-2.187-1.862-2.201-0.339-4.205 0.466-6.307 1.072 0.564 2.074 1.129 4.035 1.707 6.025zM13.799 14.504c0.466-0.127 0.861-0.212 1.256-0.339 1.326-0.409 2.653-0.818 3.683-1.82 0.691-0.663 0.945-1.467 0.663-2.399-0.282-0.945-0.903-1.58-1.877-1.735-1.834-0.296-3.541 0.296-5.277 0.861 0.522 1.848 1.030 3.612 1.552 5.432z"></path>
</svg>
