<?xml version="1.0" encoding="utf-8"?>
<!-- Generator: Adobe Illustrator 22.0.1, SVG Export Plug-In . SVG Version: 6.00 Build 0)  -->
<svg version="1.1" id="Layer_1" xmlns="http://www.w3.org/2000/svg" xmlns:xlink="http://www.w3.org/1999/xlink" x="0px" y="0px"
	 viewBox="0 0 226.8 226.8" style="enable-background:new 0 0 226.8 226.8;" xml:space="preserve">
<style type="text/css">
	.st0{stroke:#FFFFFF;stroke-miterlimit:10;}
</style>
<path class="st0" d="M44,94.1v57.1h45.7c0.2-3.1,1.2-6,2.7-8.7"/>
<path class="st0" d="M44,0.7v78.1l56.1,56.1c2.8-1.6,6-2.5,9.2-2.6V59.1L44,0.7z"/>
<g>
	<path class="st0" d="M60.4,202.6L92.5,172c-2.1-3.2-3.5-6.7-4.1-10.5H44.1C44.9,176.6,50.7,191,60.4,202.6z"/>
	<path class="st0" d="M119.2,87.7V132c3.3,0.7,6.4,1.9,9.2,3.8l31.4-31.4C148.4,94.6,134.1,88.7,119.2,87.7z"/>
	<path class="st0" d="M109.4,183.1c-3.5-0.6-6.8-2-9.8-4l-32.2,30.7c11.6,10.4,26.4,16.6,42,17.6
		C109.4,227.4,109.4,183.1,109.4,183.1z"/>
	<path class="st0" d="M135.5,142.9c1.7,2.6,3,5.4,3.8,8.4h44.6c-1.3-14.7-7.2-28.7-16.9-39.8"/>
	<path class="st0" d="M129.1,178.7c-2.6,1.9-5.6,3.2-8.7,4v44.6c14.5-1.3,28.2-7.1,39.3-16.6L129.1,178.7z"/>
	<path class="st0" d="M139.7,161.5c-0.5,3.2-1.6,6.3-3.2,9.2l30.9,32.3c10-11.6,15.8-26.2,16.6-41.5"/>
</g>
</svg>
