<!-- Generated by IcoMoon.io -->
<svg version="1.1" xmlns="http://www.w3.org/2000/svg" width="32" height="32" viewBox="0 0 32 32">
<title>BITFLIP</title>
<path d="M0.115 15.987c-0.090-8.307 6.618-15.923 15.949-15.91 9.267 0.013 15.987 7.552 15.936 16-0.051 8.806-7.194 15.987-16.026 15.923-9.037-0.064-15.987-7.488-15.859-16.013zM19.814 15.347c0.141-0.077 0.23-0.102 0.294-0.166 1.242-1.101 1.037-2.931-0.448-3.699-0.422-0.218-0.909-0.346-1.382-0.461-0.333-0.077-0.486-0.23-0.474-0.576 0.013-0.41-0.013-0.819 0-1.242 0.013-0.525-0.358-0.486-0.691-0.486-0.346 0-0.704-0.026-0.678 0.499 0.013 0.435-0.013 0.858 0 1.293 0.013 0.371-0.205 0.422-0.512 0.435-0.307 0-0.512-0.090-0.499-0.435 0.013-0.435-0.013-0.858 0-1.293 0.013-0.525-0.346-0.486-0.691-0.486s-0.704-0.026-0.678 0.499c0.013 0.371-0.013 0.755 0 1.126 0.026 0.422-0.141 0.614-0.589 0.602-0.602-0.026-1.203-0.013-1.805 0-0.154 0-0.435 0.077-0.435 0.141-0.051 0.371-0.090 0.755-0.013 1.101 0.026 0.115 0.435 0.192 0.678 0.192 0.794 0.026 1.011 0.179 1.024 0.986 0.026 1.626 0.026 3.264 0.013 4.89-0.013 0.934-0.205 1.114-1.126 1.114-0.448 0-0.678 0.141-0.627 0.614 0.013 0.166 0.013 0.333 0 0.512-0.038 0.422 0.179 0.563 0.576 0.55 0.525-0.013 1.050 0.013 1.574-0.013 0.397-0.013 0.589 0.128 0.576 0.55-0.026 0.397 0.013 0.794 0 1.178-0.038 0.589 0.371 0.525 0.755 0.538 0.41 0.013 0.704-0.051 0.678-0.563-0.026-0.41 0.013-0.819 0-1.242-0.013-0.397 0.218-0.461 0.538-0.461 0.333 0 0.474 0.141 0.474 0.474-0.013 0.371 0.026 0.755-0.013 1.126-0.051 0.525 0.179 0.678 0.678 0.678 0.474-0.013 0.768-0.077 0.704-0.64-0.038-0.384 0-0.794-0.013-1.178-0.013-0.358 0.141-0.486 0.486-0.538 0.589-0.090 1.19-0.179 1.741-0.384 1.139-0.422 1.69-1.293 1.741-2.509 0.051-1.229-0.358-2.125-1.587-2.534-0.064 0-0.102-0.051-0.269-0.192z"></path>
<path d="M15.296 17.946c0-0.23 0-0.448 0-0.678 0-0.781 0.013-0.806 0.832-0.794 0.486 0.013 0.986 0.026 1.446 0.141 0.384 0.102 0.781 0.294 1.075 0.55 0.563 0.512 0.499 1.267-0.115 1.702-0.896 0.64-1.958 0.55-2.982 0.525-0.090 0-0.218-0.23-0.23-0.371-0.038-0.358-0.026-0.717-0.026-1.075 0 0 0 0 0 0z"></path>
<path d="M16.128 15.181c-0.832-0.038-0.832-0.038-0.845-0.896 0-0.448 0.013-0.896 0-1.344 0-0.32 0.115-0.538 0.448-0.499 0.614 0.064 1.229 0.102 1.818 0.256 0.512 0.128 0.781 0.55 0.794 1.101 0.013 0.563-0.294 0.922-0.806 1.088-0.448 0.141-0.934 0.205-1.408 0.294z"></path>
</svg>
