<!-- Generated by IcoMoon.io -->
<svg version="1.1" xmlns="http://www.w3.org/2000/svg" width="32" height="32" viewBox="0 0 32 32">
<title>BITFINEX</title>
<path d="M8.014 6.688c3.302-2.116 6.942-3.697 10.737-4.684 2.963-0.762 9.651-1.735 12.557-1.030-1.256 1.566-2.624 3.231-3.936 4.755-3.019 3.231-6.18 6.377-9.75 9.016-5.108 3.866-11.005 7.012-17.439 7.76-0.113-2.455 0.071-4.938 0.889-7.28 0.705-2.116 1.877-4.063 3.443-5.644 1.030-1.115 2.201-2.116 3.499-2.892z"></path>
<path d="M31.351 1.086c3.062 15.182-7.464 35.57-26.046 29.249-1.538-0.522-2.836-1.651-3.922-2.878 6.646-1.002 12.205-4.459 17.101-8.875 5.517-4.966 9.072-11.203 12.868-17.496z"></path>
</svg>
