<?xml version="1.0" encoding="utf-8"?>
<!-- Generator: Adobe Illustrator 22.1.0, SVG Export Plug-In . SVG Version: 6.00 Build 0)  -->
<svg version="1.1" id="Layer_1" xmlns="http://www.w3.org/2000/svg" xmlns:xlink="http://www.w3.org/1999/xlink" x="0px" y="0px"
	 viewBox="0 0 226.8 226.8" style="enable-background:new 0 0 226.8 226.8;" xml:space="preserve">
<g>
	<path d="M155.1-0.3c13.1,10.2,23.9,21.9,31.4,36.4c26,49.8,8,110.6-40.8,138.4c-16.7,9.5-34.8,13.8-53.9,13.7
		c-5.6,0-11.3-0.6-16.8-1.5c-2.9-0.5-4.4-0.1-5.7,2.6c-4.9,10-8,20.6-10.2,31.4c-1.2,6.1-1.4,6.4-7.5,5.6c-4.1-0.5-7.9-2-11.3-4.5
		c-2.7-2-3.4-4.3-2.3-7.4c1.8-4.9,3.5-9.9,5.5-14.8c2.8-6.9,5.9-13.6,9-20.6c-1.6-1.2-3.1-2.4-4.5-3.6c-8.2-7-13.6-15.7-16.7-25.9
		c-6.2-20.7-4.2-40.5,8-58.6c7.3-10.8,17.4-18.8,27.9-26.4c13.7-10,28.9-17.1,44.3-24.1c7.7-3.5,15.4-7.2,21.9-12.7
		c8.4-7.2,14.9-15.9,20.4-25.5C154.2,1.5,154.6,0.7,155.1-0.3z M130.9,68c-8.4-3-9.4-2.4-10.8,5.6c0,0.1,0,0.3-0.1,0.4
		c-1.2,6.8-1.2,6.8-8,5.6c-0.3-0.1-0.6-0.4-1.2-0.7c0.6-4.3,1.2-8.7,1.9-13.4c-3.5-0.3-6.4-0.6-9.5-0.9c-1,5-1.8,9.5-2.8,14.3
		c-4.5-0.4-8.7-0.8-12.9-1.2c-8.4-0.7-7-2.1-8.6,6.8c-0.1,0.3,0.1,0.7,0.3,1.4c1,0.2,2.1,0.4,3.2,0.6c1.3,0.2,2.6,0.2,3.8,0.4
		c4,0.8,5.1,2.5,4.4,6.5c-1.8,10.7-3.6,21.3-5.3,32c-1.4,8.4-1.3,8.4-9.7,7.7c-1.1-0.1-2.8,0.4-3.2,1.1c-1.3,2.6-2.1,5.4-3.2,8.6
		c6.9,0.7,13.2,1.4,20.1,2.1c-0.8,5-1.5,9.5-2.2,13.9c7.7,3.1,9.5,2.2,10.8-5.2c0.1-0.5,0.2-1,0.3-1.5c1-6.9,0.2-6.2,7.4-5.4
		c0.5,0.1,0.9,0.3,1.8,0.6c-0.7,4.5-1.4,9-2.2,13.7c2.6,0.3,4.8,0.5,6.9,0.9c2.2,0.4,3-0.6,3.3-2.6c0.4-2.8,1.1-5.6,1.4-8.4
		c0.2-2.7,1.4-3.3,4-3.4c5.1-0.2,10.3-0.5,15.3-1.5c9-1.8,13.7-8,15.3-16.8c1.1-6.6-1.3-11.5-7.3-14.7c-1.2-0.6-2.4-1.2-4-2
		c1.5-0.9,2.5-1.4,3.5-2c9.1-5.4,9.3-18.6,0.2-24c-3-1.8-6.6-2.7-10-4c-1.6-0.6-3.4-0.9-5.3-1.4C129.5,76.7,130.2,72.3,130.9,68z"/>
	<path d="M101.5,135.7c1-6.2,1.9-12,3-17.7c0.1-0.6,1.5-1.6,2.2-1.5c6,0.8,11.9,1.8,17.8,2.9c1,0.2,1.9,0.8,2.8,1.3
		c2.9,1.6,4.7,3.9,4.4,7.5c-0.3,3.5-2.4,5.6-5.4,6.9c-5.8,2.4-11.9,1.9-17.9,1.5C106.2,136.4,104.1,136,101.5,135.7z"/>
	<path d="M106.3,107.3c0.9-5.4,1.6-10.5,2.6-15.5c0.1-0.7,1.7-1.8,2.4-1.7c4.7,0.6,9.4,1.2,14,2.4c4.2,1.1,6.3,4.1,6.2,7.3
		c-0.1,3.4-2.6,6.4-6.7,7.4C118.8,108.9,112.7,108.5,106.3,107.3z"/>
</g>
</svg>
