<!-- Generated by IcoMoon.io -->
<svg version="1.1" xmlns="http://www.w3.org/2000/svg" width="32" height="32" viewBox="0 0 32 32">
<title>BITG</title>
<path d="M21.884-0.042c1.848 1.439 3.372 3.090 4.43 5.136 3.668 7.026 1.129 15.605-5.757 19.527-2.356 1.34-4.91 1.947-7.605 1.933-0.79 0-1.594-0.085-2.37-0.212-0.409-0.071-0.621-0.014-0.804 0.367-0.691 1.411-1.129 2.907-1.439 4.43-0.169 0.861-0.198 0.903-1.058 0.79-0.578-0.071-1.115-0.282-1.594-0.635-0.381-0.282-0.48-0.607-0.324-1.044 0.254-0.691 0.494-1.397 0.776-2.088 0.395-0.974 0.832-1.919 1.27-2.907-0.226-0.169-0.437-0.339-0.635-0.508-1.157-0.988-1.919-2.215-2.356-3.654-0.875-2.921-0.593-5.714 1.129-8.268 1.030-1.524 2.455-2.653 3.936-3.725 1.933-1.411 4.078-2.413 6.25-3.4 1.086-0.494 2.173-1.016 3.090-1.792 1.185-1.016 2.102-2.243 2.878-3.598 0.056-0.099 0.113-0.212 0.183-0.353zM18.469 9.594c-1.185-0.423-1.326-0.339-1.524 0.79 0 0.014 0 0.042-0.014 0.056-0.169 0.959-0.169 0.959-1.129 0.79-0.042-0.014-0.085-0.056-0.169-0.099 0.085-0.607 0.169-1.227 0.268-1.891-0.494-0.042-0.903-0.085-1.34-0.127-0.141 0.705-0.254 1.34-0.395 2.018-0.635-0.056-1.227-0.113-1.82-0.169-1.185-0.099-0.988-0.296-1.213 0.959-0.014 0.042 0.014 0.099 0.042 0.198 0.141 0.028 0.296 0.056 0.451 0.085 0.183 0.028 0.367 0.028 0.536 0.056 0.564 0.113 0.72 0.353 0.621 0.917-0.254 1.51-0.508 3.005-0.748 4.515-0.198 1.185-0.183 1.185-1.369 1.086-0.155-0.014-0.395 0.056-0.451 0.155-0.183 0.367-0.296 0.762-0.451 1.213 0.974 0.099 1.862 0.198 2.836 0.296-0.113 0.705-0.212 1.34-0.31 1.961 1.086 0.437 1.34 0.31 1.524-0.734 0.014-0.071 0.028-0.141 0.042-0.212 0.141-0.974 0.028-0.875 1.044-0.762 0.071 0.014 0.127 0.042 0.254 0.085-0.099 0.635-0.198 1.27-0.31 1.933 0.367 0.042 0.677 0.071 0.974 0.127 0.31 0.056 0.423-0.085 0.466-0.367 0.056-0.395 0.155-0.79 0.198-1.185 0.028-0.381 0.198-0.466 0.564-0.48 0.72-0.028 1.453-0.071 2.159-0.212 1.27-0.254 1.933-1.129 2.159-2.37 0.155-0.931-0.183-1.623-1.030-2.074-0.169-0.085-0.339-0.169-0.564-0.282 0.212-0.127 0.353-0.198 0.494-0.282 1.284-0.762 1.312-2.624 0.028-3.386-0.423-0.254-0.931-0.381-1.411-0.564-0.226-0.085-0.48-0.127-0.748-0.198 0.141-0.621 0.24-1.242 0.339-1.848z"></path>
<path d="M14.321 19.146c0.141-0.875 0.268-1.693 0.423-2.497 0.014-0.085 0.212-0.226 0.31-0.212 0.847 0.113 1.679 0.254 2.511 0.409 0.141 0.028 0.268 0.113 0.395 0.183 0.409 0.226 0.663 0.55 0.621 1.058-0.042 0.494-0.339 0.79-0.762 0.974-0.818 0.339-1.679 0.268-2.526 0.212-0.31-0.028-0.607-0.085-0.974-0.127z"></path>
<path d="M14.998 15.139c0.127-0.762 0.226-1.481 0.367-2.187 0.014-0.099 0.24-0.254 0.339-0.24 0.663 0.085 1.326 0.169 1.975 0.339 0.593 0.155 0.889 0.578 0.875 1.030-0.014 0.48-0.367 0.903-0.945 1.044-0.847 0.24-1.707 0.183-2.61 0.014z"></path>
</svg>
