<!-- Generated by IcoMoon.io -->
<svg version="1.1" xmlns="http://www.w3.org/2000/svg" width="32" height="32" viewBox="0 0 32 32">
<title>BITHUMB</title>
<path d="M8.691 7.746c0.663-2.483 1.354-4.952 2.018-7.436 1.679 0 3.344-0.014 5.009 0 0.649-0.014 1.312 0.155 1.806 0.593 0.79 0.635 1.072 1.75 0.818 2.709-0.367 1.383-0.72 2.751-1.129 4.12-0.691 2.356-1.298 4.769-1.961 7.139-0.127 0.451-0.24 0.917-0.339 1.369-0.339 1.284-0.705 2.54-1.030 3.81-0.169 0.635-0.226 1.298-0.127 1.947 0.141 0.663 0.79 1.157 1.453 1.101 0.945 0.085 1.834-0.466 2.37-1.213 0.748-1.030 1.143-2.3 1.284-3.556 0.042-0.578-0.056-1.227-0.451-1.679 0.847-1.002 1.947-1.75 2.836-2.723 0.578-0.635 1.284-1.143 1.905-1.75 0.988-0.818 1.848-1.778 2.794-2.638 1.552 1.637 2.046 3.993 1.947 6.18-0.127 2.624-0.847 5.22-1.975 7.591-1.425 2.991-3.838 5.545-6.857 6.942-2.765 1.326-5.968 1.735-8.959 1.086-1.735-0.395-3.457-1.256-4.501-2.751-1.115-1.608-1.256-3.668-0.974-5.545 0.212-1.397 0.635-2.751 1.002-4.106 0.24-0.889 0.48-1.792 0.734-2.667 0.776-2.822 1.552-5.672 2.328-8.522z"></path>
<path d="M18.638 19.584c0.099-0.395 0.169-0.818 0.212-1.227 0.042-0.578-0.056-1.227-0.451-1.679-0.325-0.325-0.79-0.409-1.242-0.423-0.762-0.014-1.51 0-2.258-0.014 0.099-0.466 0.212-0.917 0.339-1.369 0.663-2.384 1.27-4.783 1.961-7.139 1.34-0.014 2.667-0.014 3.993-0.014 1.735 0 3.513 0.564 4.727 1.834 1.552 1.637 2.046 3.993 1.947 6.18-0.071 1.298-0.268 2.582-0.593 3.824h-8.635v0.028z"></path>
<path d="M4.219 12.995c0.508-1.75 0.988-3.513 1.524-5.263 0.988 0.014 1.961 0 2.963 0.014-0.776 2.85-1.552 5.686-2.342 8.536-0.663-0.099-1.326-0.367-1.75-0.917-0.536-0.649-0.607-1.566-0.395-2.37z"></path>
</svg>
