<!-- Generated by IcoMoon.io -->
<svg version="1.1" xmlns="http://www.w3.org/2000/svg" width="32" height="32" viewBox="0 0 32 32">
<title>BITKEEPER</title>
<path d="M17.256 26.554c-0.155 0.268-0.31 0.536-0.451 0.804-0.268 0.451-0.536 0.917-0.79 1.369-0.099 0.183-0.226 0.24-0.437 0.24-3.175 0-6.335 0-9.51 0-1.877 0-3.753 0-5.63 0-0.099 0-0.183-0.014-0.339-0.028 2.314-4.007 4.6-7.972 6.928-11.993 1.51 2.61 2.991 5.178 4.487 7.774-0.113 0.014-0.169 0.028-0.24 0.028-0.776 0-1.538 0-2.314 0-0.183 0-0.296-0.056-0.381-0.212-0.466-0.818-0.945-1.637-1.411-2.455-0.042-0.071-0.085-0.127-0.141-0.226-0.889 1.538-1.764 3.048-2.667 4.614 4.332 0 8.593 0 12.854 0 0.014 0.042 0.028 0.071 0.042 0.085z"></path>
<path d="M27.471 26.497c-2.159-3.739-4.289-7.45-6.448-11.189 0.141-0.014 0.212-0.014 0.296-0.014 0.762 0 1.524 0 2.286 0 0.198 0 0.296 0.071 0.395 0.226 1.143 1.989 2.3 3.993 3.443 5.982 1.383 2.384 2.765 4.783 4.134 7.168 0.042 0.071 0.085 0.155 0.141 0.268-4.614 0-9.185 0-13.827 0 1.496-2.596 2.977-5.164 4.487-7.774 0.141 0.24 0.268 0.437 0.381 0.635 0.31 0.536 0.621 1.072 0.931 1.608 0.085 0.127 0.085 0.24 0 0.367-0.48 0.818-0.945 1.637-1.411 2.441-0.042 0.071-0.085 0.155-0.141 0.268 1.778 0.014 3.527 0.014 5.333 0.014z"></path>
<path d="M15.929 1.552c2.314 4.007 4.6 7.972 6.914 11.965-3.005 0-5.954 0-8.945 0 0.042-0.085 0.056-0.155 0.099-0.212 0.381-0.649 0.762-1.298 1.129-1.961 0.099-0.183 0.24-0.268 0.451-0.254 0.903 0.014 1.792 0 2.695 0 0.085 0 0.183 0 0.339 0-0.903-1.566-1.764-3.076-2.667-4.628-2.187 3.753-4.317 7.45-6.49 11.203-0.183-0.31-0.339-0.578-0.508-0.847-0.282-0.48-0.55-0.959-0.832-1.425-0.071-0.127-0.071-0.226 0-0.353 1.481-2.554 2.963-5.122 4.43-7.676 1.058-1.82 2.102-3.64 3.16-5.46 0.071-0.113 0.127-0.198 0.226-0.353z"></path>
</svg>
