<!-- Generated by IcoMoon.io -->
<svg version="1.1" xmlns="http://www.w3.org/2000/svg" width="32" height="32" viewBox="0 0 32 32">
<title>BITLISH</title>
<path d="M20.303 12.275c1.072-0.409 1.989-0.931 2.977-1.115 2.455-0.451 4.783-0.169 6.631 1.764 1.044 1.101 1.608 2.441 1.792 3.908 0.296 2.384 0.381 4.783-0.085 7.153-0.621 3.231-2.977 5.46-6.25 5.771-2.046 0.198-4.12 0.127-6.194 0.155-1.411 0.014-2.808 0-4.289 0 0-9.312 0-18.554 0-27.824 1.806 0 3.57 0 5.418 0 0 3.429 0 6.815 0 10.187zM20.43 25.637c1.030 0 2.018 0.014 3.005 0 1.227-0.014 1.933-0.564 2.004-1.792 0.127-1.989 0.127-3.993 0.141-5.982 0-0.409-0.127-0.832-0.24-1.242-0.268-0.889-0.818-1.326-1.75-1.369-0.945-0.042-1.792 0.282-2.61 0.72-0.466 0.254-0.635 0.593-0.635 1.143 0.028 2.568 0.014 5.122 0.014 7.69-0.014 0.24 0.028 0.494 0.071 0.832z"></path>
<path d="M6.815 11.471c1.806 0 3.527 0 5.333 0 0 6.138 0 12.205 0 18.328-1.792 0-3.527 0-5.333 0 0-6.109 0-12.176 0-18.328z"></path>
<path d="M0.056 20.586c1.778 0 3.513 0 5.319 0 0 3.062 0 6.081 0 9.199-1.75 0-3.485 0-5.319 0 0-3.062 0-6.109 0-9.199z"></path>
</svg>
