<!-- Generated by IcoMoon.io -->
<svg version="1.1" xmlns="http://www.w3.org/2000/svg" width="32" height="32" viewBox="0 0 32 32">
<title>BITMART</title>
<path d="M7.026 31.958c0-0.409 0-0.734 0-1.115 0.226-0.014 0.423-0.042 0.621-0.042 3.104 0 6.194 0 9.298 0 1.637 0 3.259-0.127 4.868-0.508 1.284-0.296 2.526-0.705 3.556-1.552 1.242-1.002 2.272-2.187 2.737-3.767 0.028-0.099 0.042-0.198 0.056-0.296 0-0.042-0.014-0.085-0.028-0.141-0.198 0.395-0.353 0.776-0.578 1.115-1.115 1.693-2.653 2.822-4.642 3.231-1.058 0.212-2.159 0.31-3.245 0.367-1.538 0.071-3.062 0.056-4.6 0.085-0.183 0-0.367-0.028-0.578-0.042 0-0.395 0-0.762 0-1.157 0.212-0.014 0.395-0.042 0.578-0.042 1.806 0 3.612 0 5.418-0.014 1.298-0.014 2.582-0.226 3.725-0.875 1.002-0.564 1.834-1.326 2.413-2.328 0.071-0.113 0.099-0.254 0.085-0.423-0.042 0.028-0.085 0.042-0.113 0.085-0.635 1.030-1.623 1.538-2.723 1.806-0.804 0.198-1.637 0.325-2.455 0.339-5.912 0.028-11.824 0.028-17.735 0.028-0.141 0-0.282-0.014-0.452-0.028 0-0.212 0-0.381 0-0.607 0.226-0.014 0.409-0.042 0.607-0.042 5.192 0 10.384 0 15.577 0 1.086 0 2.187 0.028 3.259-0.183 0.804-0.155 1.608-0.296 2.314-0.762 0.748-0.494 1.143-1.242 1.34-2.088 0.381-1.665-0.578-2.864-1.891-3.584-0.677-0.367-1.425-0.508-2.173-0.635-1.242-0.212-2.483-0.183-3.739-0.183-1.693 0-3.386 0-5.079 0-0.169 0-0.339 0-0.564 0-0.014-0.24-0.028-0.423-0.042-0.635 0.198-0.014 0.339-0.042 0.48-0.042 2.638 0 5.277-0.014 7.915 0.028 0.79 0.014 1.608 0.113 2.384 0.31 1.34 0.325 2.441 1.058 3.146 2.286 0.042 0.056 0.071 0.113 0.169 0.169-0.042-0.127-0.056-0.268-0.113-0.395-0.367-0.903-1.030-1.566-1.75-2.201-1.086-0.945-2.384-1.34-3.781-1.467-0.48-0.042-0.974-0.099-1.453-0.099-3.358-0.028-6.716-0.042-10.074-0.071-0.183 0-0.367 0-0.593 0 0-0.409 0-0.748 0-1.143 0.155-0.014 0.296-0.056 0.451-0.056 3.090 0 6.166-0.028 9.256 0.014 1.312 0.014 2.638 0.071 3.936 0.381 1.75 0.423 3.175 1.34 4.332 2.709 0.113 0.127 0.212 0.268 0.325 0.395 0.028 0.028 0.071 0.056 0.169 0.056-0.071-0.169-0.141-0.339-0.226-0.494-1.143-1.891-2.709-3.245-4.854-3.866-1.27-0.367-2.568-0.578-3.894-0.593-2.060-0.028-4.134-0.042-6.194-0.071-0.183 0-0.367 0-0.593 0 0-0.395 0-0.748 0-1.115 0.085-0.014 0.155-0.042 0.212-0.042 2.004 0 4.021 0.014 6.025 0.014 1.256 0 2.483 0.113 3.711 0.367 0.141 0.028 0.31 0.028 0.466-0.014 1.157-0.339 1.806-1.157 2.173-2.258 0.339-0.988 0.212-1.947-0.381-2.794-0.536-0.748-1.27-1.298-2.159-1.58-1.115-0.353-2.272-0.508-3.429-0.522-1.82-0.028-3.64-0.014-5.46-0.014-0.169 0-0.339 0-0.55 0 0-0.254 0-0.452 0-0.691 0.155-0.014 0.296-0.056 0.437-0.056 2.342 0.028 4.67 0.028 7.012 0.099 1.397 0.042 2.737 0.339 3.852 1.256 0.395 0.324 0.79 0.663 1.171 1.002-0.014 0.028-0.028 0.056-0.042 0.085-0.042-0.127-0.071-0.268-0.155-0.381-0.917-1.383-2.116-2.427-3.753-2.836-0.861-0.212-1.75-0.339-2.638-0.353-2.624-0.071-5.249-0.056-7.873-0.085-0.183 0-0.367-0.014-0.593-0.028 0-0.381 0-0.72 0-1.115 0.155-0.028 0.296-0.056 0.451-0.056 2.54 0 5.079-0.014 7.619 0.028 1.256 0.014 2.511 0.155 3.725 0.55 1.538 0.508 2.751 1.453 3.767 2.667 0.071 0.071 0.127 0.155 0.183 0.24 0.014 0.014 0.042 0.014 0.169 0.042-0.198-0.367-0.339-0.691-0.536-0.974-0.917-1.27-2.004-2.37-3.485-2.977-1.072-0.437-2.173-0.72-3.316-0.861-1.185-0.155-2.37-0.169-3.556-0.169-2.455 0.014-4.91 0-7.365 0-0.183 0-0.367-0.014-0.593-0.028 0-0.381 0-0.72 0-1.115 0.169-0.014 0.324-0.042 0.48-0.042 2.963 0 5.94-0.028 8.903 0.014 2.088 0.028 4.148 0.31 6.081 1.185 2.441 1.115 4.205 2.85 4.995 5.474 0.254 0.847 0.423 1.721 0.409 2.624-0.014 1.101 0 2.201-0.339 3.273-0.226 0.72-0.48 1.439-0.889 2.088-0.226 0.339-0.212 0.409 0.071 0.649 1.792 1.51 2.653 3.471 2.949 5.743 0.24 1.905-0.014 3.753-0.818 5.503-0.72 1.58-1.919 2.737-3.4 3.598-1.778 1.030-3.725 1.524-5.771 1.693-2.596 0.226-5.192 0.113-7.788 0.141-1.425 0.014-2.836 0-4.261 0-0.183-0.042-0.353-0.071-0.564-0.085zM26.356 12.162c-0.028-0.014-0.056-0.014-0.085-0.028-0.381 0.593-0.776 1.185-1.157 1.778-0.042 0.071 0.014 0.198 0.014 0.296 0.099-0.028 0.254-0.014 0.296-0.071 0.198-0.296 0.381-0.607 0.522-0.931 0.155-0.325 0.282-0.691 0.409-1.044zM24.663 12.332c-0.339 0.296-0.691 0.578-1.030 0.889-0.056 0.056-0.071 0.183-0.099 0.282 0.042 0.014 0.071 0.042 0.113 0.056 0.494-0.268 0.79-0.705 1.016-1.227z"></path>
<path d="M13.319 23.125c0 0.198 0 0.381 0 0.593-2.653 0-5.291 0-7.958 0 0-0.198 0-0.381 0-0.593 2.667 0 5.291 0 7.958 0z"></path>
<path d="M11.217 21.178c0-0.141-0.014-0.282-0.014-0.423 0.325-0.141 7.746-0.212 8.889-0.099 0 0.169 0 0.339 0 0.508-0.353 0.127-8.409 0.141-8.875 0.014z"></path>
<path d="M12.811 28.487c0 0.268 0 0.437 0 0.593-0.325 0.127-6.815 0.169-7.436 0.042-0.014-0.169-0.014-0.367-0.028-0.635 2.497 0 4.952 0 7.464 0z"></path>
<path d="M8.296 8.31c0-0.127 0-0.226 0-0.353 3.894 0 7.774 0 11.668 0 0.028 0.056 0.056 0.099 0.056 0.155s-0.014 0.113-0.028 0.198c-3.88 0-7.76 0-11.697 0z"></path>
<path d="M19.852 9.905c0 0.212 0 0.367 0 0.55-1.891 0-3.753 0-5.616 0-0.183-0.451-0.099-0.621 0.353-0.621 1.623 0 3.231 0 4.854 0 0.127 0 0.24 0.042 0.409 0.071z"></path>
<path d="M15.012 23.619c0-0.127 0.014-0.226 0.014-0.381 1.679 0 3.316 0 4.966 0 0.014 0.042 0.042 0.085 0.056 0.141-0.071 0.085-0.141 0.198-0.24 0.254-0.085 0.042-0.198 0.028-0.296 0.028-1.355 0-2.723 0-4.078 0-0.127-0.014-0.268-0.028-0.423-0.042z"></path>
<path d="M5.22 30.843c0 0.367 0 0.691 0 1.058-0.593 0-1.157 0-1.764 0 0-0.353 0-0.677 0-1.058 0.593 0 1.157 0 1.764 0z"></path>
<path d="M10.413 5.291c0 0.169 0 0.325 0 0.494-0.127 0.028-0.24 0.056-0.353 0.056-0.79 0-1.58 0-2.356 0-0.085 0-0.198 0.014-0.254-0.028-0.085-0.056-0.169-0.169-0.183-0.254 0-0.085 0.085-0.212 0.169-0.268 0.071-0.056 0.198-0.042 0.296-0.042 0.762 0 1.524 0 2.272 0 0.127 0 0.254 0.014 0.409 0.042z"></path>
<path d="M7.083 20.698c0.818 0 1.608 0 2.413 0 0 0.155 0 0.268 0 0.423-0.804 0-1.58 0-2.356 0-0.028-0.056-0.071-0.085-0.071-0.127 0-0.071 0.014-0.155 0.014-0.296z"></path>
</svg>
