<!-- Generated by IcoMoon.io -->
<svg version="1.1" xmlns="http://www.w3.org/2000/svg" width="32" height="32" viewBox="0 0 32 32">
<title>BITMEX</title>
<path d="M9.002 26.201c0.113-0.24 0.155-0.367 0.226-0.494 1.213-2.215 2.441-4.416 3.64-6.631 0.198-0.367 0.437-0.494 0.847-0.48 2.060 0.014 4.12 0 6.18 0.014 0.466 0 0.734-0.127 0.974-0.55 2.088-3.739 4.205-7.45 6.307-11.175 0.226-0.395 0.466-0.55 0.917-0.536 1.058 0.028 2.131 0.014 3.189 0.014 0.183 0 0.381 0.014 0.649 0.028-0.113 0.24-0.198 0.423-0.282 0.578-3.443 6.208-6.899 12.416-10.328 18.638-0.24 0.451-0.522 0.607-1.030 0.607-3.527-0.028-7.069-0.014-10.596-0.014-0.226 0-0.409 0-0.691 0z"></path>
<path d="M23.012 6.363c-0.113 0.24-0.183 0.409-0.268 0.55-1.185 2.159-2.384 4.317-3.556 6.49-0.226 0.423-0.494 0.564-0.959 0.564-2.018-0.028-4.049 0-6.067-0.014-0.48 0-0.762 0.127-1.016 0.564-2.074 3.725-4.19 7.422-6.279 11.132-0.24 0.423-0.494 0.564-0.959 0.55-1.044-0.028-2.102-0.014-3.146-0.014-0.183 0-0.381 0-0.663 0 0.127-0.268 0.198-0.437 0.282-0.607 3.457-6.222 6.914-12.444 10.356-18.681 0.226-0.409 0.48-0.564 0.959-0.564 3.556 0.014 7.097 0.014 10.653 0.014 0.183 0.014 0.381 0.014 0.663 0.014z"></path>
</svg>
