<!-- Generated by IcoMoon.io -->
<svg version="1.1" xmlns="http://www.w3.org/2000/svg" width="32" height="32" viewBox="0 0 32 32">
<title>BITPAY</title>
<path d="M18.878 0c-0.818 3.485-1.608 6.871-2.427 10.328 0.268-0.085 0.48-0.141 0.677-0.212 2.808-0.959 5.404-0.578 7.605 1.453 1.369 1.27 2.032 2.963 2.272 4.797 0.635 4.91-0.861 9.101-4.487 12.444-2.116 1.961-4.713 3.034-7.633 3.16-2.991 0.127-5.926-0.155-8.72-1.326-0.099-0.042-0.198-0.085-0.296-0.141-0.042-0.014-0.056-0.056-0.127-0.127 0.494-2.074 1.002-4.148 1.496-6.25 0.748-3.16 1.481-6.335 2.215-9.496 1.002-4.346 2.018-8.705 3.019-13.065 0.099-0.437 0.254-0.677 0.748-0.734 1.834-0.24 3.668-0.536 5.658-0.832zM12.571 26.907c1.298 0.056 2.497 0.254 3.683-0.183 3.993-1.467 5.757-6.716 4.571-10.3-0.367-1.086-1.143-1.552-2.229-1.637-0.353-0.028-0.705-0.042-1.058 0.014-1.298 0.212-2.384 0.409-2.681 2.243-0.282 1.778-0.776 3.513-1.185 5.263-0.353 1.496-0.72 2.991-1.101 4.6z"></path>
</svg>
