<!-- Generated by IcoMoon.io -->
<svg version="1.1" xmlns="http://www.w3.org/2000/svg" width="32" height="32" viewBox="0 0 32 32">
<title>BITSO</title>
<path d="M0.705 9.016c0-2.765 0-5.531 0-8.282 0-0.141 0-0.282 0.042-0.381 0.099-0.198 0.268-0.254 0.48-0.254 0.536 0 1.072 0 1.608 0 2.145 0 4.289 0 6.434 0 0.085 0 0.169 0 0.254 0.014 0.24 0.028 0.367 0.169 0.381 0.395 0.014 0.099 0 0.212 0 0.31 0 5.122 0 10.229 0 15.351 0 1.129 0.226 2.201 0.762 3.189 0.607 1.101 1.439 1.975 2.568 2.568 0.663 0.353 1.354 0.635 2.102 0.691 0.959 0.071 1.933 0.085 2.864-0.268 0.55-0.212 1.086-0.451 1.566-0.79 0.056-0.028 0.099-0.071 0.155-0.085 0.169-0.056 0.268 0 0.296 0.169 0.014 0.099 0.014 0.212 0.014 0.31 0 2.78 0 5.559 0 8.339 0 0.155 0 0.31 0.014 0.466 0.042 0.423-0.183 0.79-0.635 0.847-0.621 0.071-1.227 0.226-1.848 0.296-1.213 0.155-2.427 0.113-3.654-0.056-1.34-0.183-2.653-0.522-3.894-1.044-1.608-0.691-3.076-1.594-4.388-2.78-0.861-0.776-1.637-1.623-2.3-2.554-0.705-0.988-1.298-2.046-1.735-3.175-0.31-0.776-0.55-1.58-0.748-2.399-0.198-1.058-0.325-2.116-0.339-3.189 0-2.568 0-5.136 0-7.69 0 0 0 0 0 0z"></path>
<path d="M22.547 22.914c0-2.201 0-4.416 0-6.617 0-0.381-0.014-0.776-0.085-1.157-0.085-0.409-0.198-0.804-0.367-1.185-0.325-0.762-0.748-1.453-1.34-2.046-0.974-0.959-2.116-1.58-3.457-1.806-1.284-0.226-2.526-0.056-3.711 0.508-0.325 0.155-0.635 0.353-0.945 0.536-0.183 0.113-0.296 0.056-0.325-0.141-0.014-0.056 0-0.127 0-0.183 0-2.949 0-5.884 0-8.832 0-0.071 0-0.141 0-0.212 0.014-0.24 0.169-0.423 0.409-0.466 0.889-0.183 1.778-0.325 2.695-0.367 0.325-0.014 0.635-0.056 0.959-0.042 0.818 0.028 1.623 0.099 2.427 0.226 0.776 0.127 1.524 0.31 2.272 0.536 0.367 0.113 0.734 0.254 1.086 0.409 0.959 0.409 1.877 0.889 2.737 1.481 0.564 0.395 1.101 0.847 1.637 1.284 0.79 0.649 1.453 1.425 2.074 2.243 0.508 0.663 0.945 1.354 1.34 2.088 0.635 1.213 1.115 2.469 1.425 3.81 0.198 0.861 0.31 1.721 0.353 2.61 0.056 1.002 0.014 1.989-0.113 2.977-0.24 1.905-0.861 3.683-1.778 5.347-0.55 1.016-1.227 1.947-1.989 2.808-0.903 1.016-1.933 1.905-3.062 2.667-0.536 0.353-1.129 0.649-1.693 0.959-0.056 0.028-0.113 0.056-0.169 0.071-0.198 0.056-0.31 0-0.339-0.198-0.014-0.099-0.014-0.183-0.014-0.282-0.028-2.342-0.028-4.684-0.028-7.026 0 0 0 0 0 0z"></path>
</svg>
