<!-- Generated by IcoMoon.io -->
<svg version="1.1" xmlns="http://www.w3.org/2000/svg" width="32" height="32" viewBox="0 0 32 32">
<title>BITSTAMP</title>
<path d="M7.083 28.797h19.203v3.203h-19.203v-3.203z"></path>
<path d="M23.168 10.723c1.439-1.115 2.314-2.794 2.314-4.727 0-3.273-2.723-5.996-5.996-5.996-0.155 0-0.24 0-0.395 0v0h-12.007v3.203c1.764 0 3.203 1.439 3.203 3.203s-1.439 3.189-3.203 3.189v3.287c1.764 0.24 3.203 1.679 3.203 3.513s-1.439 3.358-3.203 3.527v3.287h12.007c0.155 0 0.24 0 0.395 0 3.753 0 6.801-3.034 6.801-6.801 0-2.413-1.199-4.487-3.118-5.686zM13.489 5.996v-2.794h4.797c1.764 0 3.203 1.439 3.203 3.203s-1.439 3.189-3.203 3.189h-4.797c0 0 0-3.598 0-3.598zM18.681 20.007h-5.192v-7.196h5.206c2.004 0 3.598 1.594 3.598 3.598s-1.608 3.598-3.612 3.598z"></path>
</svg>
