<!-- Generated by IcoMoon.io -->
<svg version="1.1" xmlns="http://www.w3.org/2000/svg" width="32" height="32" viewBox="0 0 32 32">
<title>BITSQUARE</title>
<path d="M11.767 21.136c0.691 0.028 1.369-0.042 2.032-0.198 1.693-0.395 2.709-1.467 3.062-3.16 0.127-0.635 0.183-1.27 0.169-1.919-0.028-1.524 1.157-2.921 2.653-3.175 1.975-0.339 3.739 1.086 3.824 3.090 0.071 1.806-1.439 3.33-3.273 3.344-0.635 0-1.284 0.056-1.905 0.169-1.82 0.353-2.878 1.496-3.189 3.302-0.099 0.564-0.141 1.157-0.141 1.735 0.014 1.693-1.312 3.16-2.991 3.273-1.75 0.113-3.287-1.143-3.457-2.864-0.056-0.522-0.014-1.044-0.085-1.552-0.056-0.48-0.155-0.959-0.31-1.411-0.494-1.453-1.58-2.243-3.048-2.511-0.593-0.113-1.199-0.155-1.792-0.155-1.735 0-3.189-1.298-3.302-3.005-0.113-1.721 1.115-3.231 2.836-3.443 0.451-0.056 0.903 0 1.355-0.056 0.508-0.056 1.016-0.141 1.496-0.282 1.439-0.437 2.272-1.453 2.61-2.892 0.155-0.649 0.212-1.298 0.198-1.961-0.042-1.679 1.185-3.118 2.822-3.316 1.679-0.212 3.231 0.889 3.584 2.554 0.437 2.046-1.185 3.979-3.273 3.908-0.691-0.028-1.383 0.056-2.074 0.226-1.524 0.381-2.497 1.34-2.864 2.878-0.339 1.439-0.339 2.892 0.014 4.317 0.409 1.679 1.524 2.638 3.203 2.949 0.607 0.113 1.228 0.141 1.848 0.212-0.014-0.014-0.014-0.042 0-0.056z"></path>
<path d="M25.538 15.788c0.014-0.748-0.042-1.467-0.226-2.173-0.381-1.552-1.34-2.54-2.892-2.907-1.439-0.353-2.892-0.353-4.317 0-1.651 0.395-2.596 1.481-2.949 3.118-0.155 0.705-0.141 1.425-0.183 2.145-0.085 1.693-1.481 2.991-3.189 3.005-1.679 0.028-3.104-1.27-3.245-2.935-0.169-1.877 1.27-3.499 3.16-3.527 0.677-0.014 1.354-0.042 2.018-0.183 1.806-0.395 2.85-1.51 3.175-3.316 0.099-0.564 0.141-1.143 0.141-1.721-0.014-1.75 1.312-3.189 3.090-3.302 1.665-0.099 3.203 1.213 3.358 2.907 0.042 0.522 0.014 1.044 0.085 1.552 0.071 0.494 0.169 1.002 0.339 1.481 0.494 1.383 1.566 2.116 2.963 2.413 0.635 0.141 1.284 0.169 1.947 0.169 1.552-0.028 2.963 1.213 3.175 2.751 0.24 1.792-0.917 3.372-2.695 3.668-0.437 0.071-0.903 0.042-1.355 0.056-0.649 0.042-1.298 0.155-1.905 0.395-1.27 0.508-1.989 1.467-2.314 2.765-0.169 0.663-0.226 1.34-0.198 2.032 0.056 1.623-1.256 3.118-2.878 3.273-1.764 0.169-3.259-0.974-3.556-2.695-0.339-1.975 1.256-3.81 3.273-3.753 0.705 0.028 1.411-0.056 2.102-0.24 1.608-0.409 2.554-1.453 2.921-3.062 0.113-0.621 0.183-1.27 0.155-1.919z"></path>
</svg>
