<!-- Generated by IcoMoon.io -->
<svg version="1.1" xmlns="http://www.w3.org/2000/svg" width="32" height="32" viewBox="0 0 32 32">
<title>BITTREX</title>
<path d="M3.57 0c5.333 0.028 10.653 0 15.986 0 1.989 0.028 4.021 0.071 5.855 0.861 0.847 0.324 1.566 0.945 2.102 1.608 0.593 0.847 0.945 1.806 1.143 2.808 0.325 1.764 0.296 3.57 0.155 5.305 0 0.056-0.028 0.169-0.028 0.226-0.226 1.284-0.72 2.596-1.778 3.443-0.762 0.663-1.778 0.917-2.723 1.242 0.691 0.226 1.439 0.254 2.102 0.55 0.917 0.367 1.764 0.974 2.258 1.806 0.847 1.34 0.988 2.949 1.072 4.487 0.028 1.989-0.028 4.064-0.847 5.898-0.621 1.411-1.862 2.497-3.316 3.005-2.497 0.917-5.235 0.72-7.831 0.748-4.741 0.028-9.467-0.028-14.18 0.028 0.056-2.582 0-5.15 0.028-7.732 0.028-8.042 0.028-16.155 0-24.282zM9.665 5.376c0.056 0.268 0.071 0.522 0.071 0.762 0 2.455 0 4.882 0 7.337 1.072-0.028 2.102-0.028 3.175-0.028 1.806 0.028 3.598 0 5.404 0 1.072-0.028 2.187 0 3.118-0.522 0.861-0.494 1.213-1.566 1.242-2.497 0.099-0.917 0.099-1.806 0-2.723l-0.028-0.028c-0.071-0.72-0.395-1.467-1.044-1.891-0.762-0.452-1.735-0.452-2.596-0.494-3.104-0.028-6.166 0-9.27 0l0.028 0.056c0-0.014-0.071 0.028-0.099 0.028zM9.735 18.54c0 2.751 0 5.503 0 8.254 0.268 0 0.522-0.028 0.762-0.028 0.198 0.056 0.395 0.028 0.593 0.028 2.822-0.028 5.658 0.028 8.48-0.028 1.213-0.071 2.751-0.198 3.443-1.383 0.72-1.312 0.621-2.907 0.466-4.317h-0.056l0.028-0.099c0-0.621-0.226-1.242-0.593-1.764-0.466-0.621-1.284-0.889-2.004-0.988-1.411-0.155-2.822-0.099-4.261-0.099-2.229 0-4.416 0-6.674 0-0.282-0.071-0.155 0.296-0.183 0.423z"></path>
</svg>
