<!-- Generated by IcoMoon.io -->
<svg version="1.1" xmlns="http://www.w3.org/2000/svg" width="32" height="32" viewBox="0 0 32 32">
<title>BITX</title>
<path d="M19.048 11.711h0.325c0.55 0.028 1.101 0.155 1.58 0.423 0.451 0.254 0.847 0.635 1.086 1.086 0.282 0.508 0.409 1.086 0.409 1.651 0 1.242 0 2.483 0 3.739 0 0.296-0.296 0.564-0.593 0.508-0.24-0.042-0.409-0.268-0.409-0.508 0-1.242 0-2.483 0-3.725 0-0.508-0.155-1.030-0.494-1.411-0.339-0.409-0.832-0.649-1.355-0.72-0.607-0.085-1.242 0.014-1.75 0.367-0.423 0.282-0.734 0.748-0.832 1.242-0.085 0.339-0.042 0.705-0.056 1.058 0 1.030 0 2.046 0 3.076 0 0.183-0.056 0.381-0.183 0.508-0.113 0.113-0.282 0.155-0.437 0.113-0.226-0.056-0.395-0.282-0.381-0.522 0-1.101 0-2.215 0-3.33 0-0.268 0-0.536 0.028-0.804 0.042-0.423 0.155-0.861 0.381-1.242 0.198-0.353 0.48-0.635 0.79-0.875 0.522-0.437 1.213-0.607 1.891-0.635zM27.979 11.866c0.691-0.042 1.397 0.099 2.018 0.409 0.804 0.409 1.439 1.157 1.735 2.018 0.367 1.072 0.268 2.314-0.339 3.287-0.268 0.423-0.593 0.79-1.002 1.086-0.931 0.677-2.173 0.847-3.273 0.536-0.917-0.254-1.707-0.889-2.159-1.735-0.635-1.143-0.621-2.624 0.028-3.767 0.451-0.79 1.199-1.411 2.074-1.665 0.31-0.085 0.621-0.141 0.917-0.169zM27.922 12.825c-0.677 0.071-1.34 0.437-1.75 0.974-0.395 0.48-0.593 1.101-0.593 1.721-0.014 0.508 0.099 1.016 0.339 1.453 0.254 0.48 0.635 0.875 1.115 1.115 0.635 0.339 1.397 0.395 2.088 0.169 0.48-0.155 0.917-0.451 1.227-0.847 0.621-0.79 0.762-1.905 0.423-2.836-0.226-0.621-0.691-1.171-1.284-1.467-0.494-0.24-1.044-0.325-1.566-0.282zM0.607 11.908c0.325-0.099 0.663 0.198 0.649 0.508 0 1.228 0 2.441 0 3.668 0 0.536 0.183 1.086 0.55 1.496 0.409 0.48 1.058 0.72 1.679 0.705 0.536 0 1.086 0 1.623 0 0.268 0 0.494 0.254 0.48 0.522 0 0.268-0.212 0.508-0.48 0.508-0.536 0-1.086 0-1.623 0-0.804-0.014-1.608-0.254-2.229-0.776-0.353-0.282-0.635-0.677-0.79-1.101-0.155-0.409-0.226-0.861-0.226-1.312 0-1.242 0-2.483 0-3.725 0-0.198 0.155-0.423 0.367-0.494zM7.309 12.515c-0.014-0.268 0.226-0.55 0.508-0.536 0.268 0 0.508 0.268 0.494 0.536 0 1.213 0 2.427 0 3.64 0 0.353 0.071 0.72 0.226 1.044 0.183 0.381 0.494 0.705 0.861 0.917 0.48 0.254 1.044 0.325 1.58 0.24 0.508-0.085 1.002-0.325 1.34-0.734 0.325-0.395 0.48-0.903 0.48-1.397 0-1.242 0-2.483 0-3.739 0-0.254 0.198-0.494 0.451-0.508 0.268-0.028 0.536 0.212 0.536 0.48 0 1.213 0 2.427 0 3.64 0 0.353-0.014 0.705-0.099 1.058-0.127 0.536-0.395 1.058-0.804 1.439-0.508 0.466-1.157 0.72-1.834 0.804h-0.917c-0.325-0.028-0.649-0.113-0.945-0.24-0.607-0.24-1.143-0.677-1.467-1.242-0.282-0.522-0.395-1.101-0.395-1.693-0.014-1.242-0.014-2.483-0.014-3.711z"></path>
</svg>
