<!-- Generated by IcoMoon.io -->
<svg version="1.1" xmlns="http://www.w3.org/2000/svg" width="32" height="32" viewBox="0 0 32 32">
<title>BITZ</title>
<path d="M23.238 15.887c0.847 0.169 1.778 0.268 2.653 0.55 3.4 1.115 5.658 4.473 5.418 7.972-0.254 3.739-2.935 6.773-6.561 7.407-0.494 0.085-1.002 0.127-1.496 0.127-7.196 0.014-14.392 0-21.573 0-0.212 0-0.423 0-0.663 0 0-10.667 0-21.277 0-31.958 0.226 0 0.437 0 0.649 0 6.857 0 13.7 0 20.557 0 4.247 0 7.718 3.231 8.028 7.464 0.296 4.148-2.737 7.831-6.942 8.409-0.056 0.014-0.099 0.042-0.071 0.028zM12.444 21.545c0.198-0.254 0.325-0.409 0.451-0.564 3.019-3.626 5.996-7.295 9.086-10.864 1.002-1.143 1.51-2.286 1.34-3.795-0.056-0.494-0.141-0.663-0.663-0.663-5.009 0.014-10.018 0.014-15.026 0.014-0.183 0-0.381 0.014-0.564 0.028 0 1.228 0 2.37 0 3.598 3.4 0 6.772 0 10.243 0-0.804 0.959-1.524 1.834-2.229 2.695-2.723 3.273-5.432 6.547-8.141 9.834-0.113 0.127-0.254 0.296-0.268 0.451-0.028 0.917-0.014 1.848-0.014 2.794 5.771 0 11.471 0 17.213 0 0-1.185 0-2.328 0-3.527-3.81 0-7.563 0-11.429 0z"></path>
</svg>
