<?xml version="1.0" encoding="utf-8"?>
<!-- Generator: Adobe Illustrator 22.1.0, SVG Export Plug-In . SVG Version: 6.00 Build 0)  -->
<svg version="1.1" id="Layer_1" xmlns="http://www.w3.org/2000/svg" xmlns:xlink="http://www.w3.org/1999/xlink" x="0px" y="0px"
	 viewBox="0 0 226.8 226.8" style="enable-background:new 0 0 226.8 226.8;" xml:space="preserve">
<g>
	<path d="M200.6,172.9c-2.6,0.3-4.9-1-7.2-2.3c-0.8-0.4-2.1-0.5-2.8-0.1c-15,8.5-30,17.1-44.9,25.7c-6.7,3.8-13.3,7.7-19.9,11.5
		c-1.5,0.8-2.1,1.7-1.8,3.5c0.8,6.3-2.6,11.6-8.7,13.1c-5.5,1.4-10.8-0.3-13.8-6.1c-1-2-1.2-4.5-1.2-6.8c0-1.5-0.2-2.5-1.6-3.3
		c-15.4-8.8-30.8-17.7-46.1-26.6c-6.2-3.6-12.5-7.1-18.6-10.8c-1.4-0.9-2.3-0.8-3.6,0.2c-4,3-9.8,3.1-13.7,0.5
		c-4.5-3.1-6.5-8.1-4.9-13.4c1-3.3,2.8-6,6.2-7.3c2.1-0.8,2.7-2,2.7-4.2c-0.1-24-0.1-48.1,0-72.1c0-1.9-0.3-3-2.3-3.9
		c-5.7-2.5-8.3-8.6-6.5-14.3c1.8-5.5,7.6-9.2,13.4-8c2.4,0.5,4.7,2.1,6.7,3.6c1.2,0.9,2,1.3,3.4,0.5C49.9,43.8,64.8,35.4,79.7,27
		c6.3-3.6,12.6-7.1,19-10.6c1.2-0.7,1.6-1.3,1.4-2.9c-0.6-4.6,1-8.4,4.8-11.1c3.9-2.7,8.1-3.3,12.4-1.1c5.1,2.7,7.3,6.6,6.6,12.4
		c-0.2,1.6,0.3,2.4,1.6,3.1c21.2,11.8,42.4,23.6,63.6,35.5c1.4,0.8,2.2,0.3,3.1-0.7c4.9-4.8,11.4-5.1,16.6-0.8
		c6.6,5.5,5.1,15.8-2.5,19.4c-2,0.9-2.8,1.8-2.8,4.2c0.1,24.2,0.1,48.4,0,72.6c0,1.9,0.7,2.8,2.3,3.5c3.8,1.6,6.1,4.5,6.9,8.5
		C214.2,166.4,208.4,173.3,200.6,172.9z M189.3,157.1c-0.2-0.2-0.8-0.9-1.5-1.4c-6.9-4.5-13.9-8.9-20.9-13.3
		c-14.4-9.1-28.7-18.3-43.1-27.4c-1.1-0.7-1.8-0.9-3,0c-6.1,4.4-11.8,4.2-18-0.4c-1.1-0.8-1.7-0.5-2.7,0.2
		c-13.7,9-27.4,17.9-41.1,26.9c-7.5,4.9-15,9.8-22.5,14.8c-1,0.7-2.1,1.1-1.8,2.8c0.2,1.4,0.2,2.8,0,4.2c-0.2,1.4-0.1,2.2,1.3,2.9
		c7.9,4.4,15.7,9,23.5,13.5c14,8.1,27.9,16.2,41.9,24.3c0.6,0.4,2,0.2,2.6-0.2c5.1-3.7,10.3-3.9,15.3-0.2c1.2,0.9,2,0.8,3.2,0.1
		c7.9-4.6,15.8-9.1,23.7-13.7c13.9-8,27.9-16,41.8-24c0.5-0.3,1-1,1-1.6C189.4,162.2,189.3,160,189.3,157.1z M25.4,110.3
		C25.3,110.3,25.3,110.3,25.4,110.3c0,12.3,0,24.6-0.1,36.9c0,1.4,0.3,2.2,1.8,2.7c1.4,0.5,2.7,1.3,3.9,2.3c1,0.8,1.7,0.8,2.7,0.1
		c10.8-7.1,21.6-14.2,32.5-21.3c10.5-6.9,21-13.8,31.5-20.6c1.2-0.8,1.3-1.4,1-2.6c-2.2-7,1.6-14.5,8.6-16.8
		c1.7-0.6,2.4-1.4,2.4-3.2c-0.1-20.7,0-41.5,0-62.2c0-1.4-0.4-2.2-1.9-2.7c-1.2-0.4-2.4-1.1-3.3-1.9c-1.1-1.1-1.9-1-3.2-0.3
		c-8.8,5-17.7,9.9-26.5,14.9c-12.7,7.1-25.3,14.2-38,21.3c-1.1,0.6-1.6,1.3-1.6,2.7c-0.1,5.2-2.5,9-7.2,11c-2,0.8-2.5,1.9-2.5,3.9
		C25.4,86.4,25.4,98.4,25.4,110.3z M198.8,110.5c0-12.2,0-24.3,0-36.5c0-1.7-0.4-2.5-2.1-3.2c-4.7-1.8-7.6-5.2-7.6-10.4
		c0-1.9-0.7-2.9-2.2-3.7c-9.7-5.4-19.4-10.9-29.1-16.3c-11.4-6.3-22.7-12.6-34.1-19c-1.8-1-3.2-1.7-4.8,0.3c-0.5,0.6-1.4,1-2.2,1.2
		c-1.9,0.4-2.3,1.4-2.3,3.2c0.1,20.5,0.1,41,0,61.6c0,2,0.7,2.8,2.5,3.3c6.6,2.1,10.9,10.1,8.8,16.6c-0.7,1.9-0.1,2.7,1.4,3.6
		c7.7,4.9,15.4,9.8,23.1,14.7c13,8.3,25.9,16.5,38.9,24.9c2.1,1.4,3.8,2.4,6,0.3c0.5-0.5,1.2-0.8,1.9-0.9c1.7-0.4,1.9-1.5,1.9-3.1
		C198.7,134.8,198.8,122.6,198.8,110.5z"/>
</g>
</svg>
