<!-- Generated by IcoMoon.io -->
<svg version="1.1" xmlns="http://www.w3.org/2000/svg" width="32" height="32" viewBox="0 0 32 32">
<title>BKX</title>
<path d="M0.296 16c-0.071-8.578 6.885-15.45 15.153-15.704 9.072-0.282 16 6.942 16.24 15.182 0.268 9.044-6.956 15.986-15.21 16.226-9.058 0.254-16.282-7.111-16.183-15.704zM14.801 27.259c0 0 0 0 0 0 0-0.593 0-1.185 0-1.792 0-0.198 0.071-0.282 0.282-0.268 0.578 0.014 1.157 0.014 1.721 0 0.31-0.014 0.395 0.099 0.395 0.395-0.014 1.115 0 2.229-0.014 3.358 0 0.268 0.071 0.339 0.339 0.31 3.189-0.395 5.912-1.735 8.113-4.078 2.85-3.034 4.064-6.645 3.584-10.808-0.353-3.062-1.679-5.672-3.838-7.831-2.173-2.159-4.811-3.429-7.859-3.795-0.282-0.028-0.339 0.056-0.339 0.31 0.014 1.143 0 2.272 0.014 3.414 0 0.254-0.085 0.325-0.325 0.325-0.564-0.014-1.129-0.014-1.693 0-0.296 0.014-0.381-0.099-0.381-0.381 0.014-1.129 0-2.258 0.014-3.386 0-0.254-0.071-0.325-0.325-0.296-3.372 0.409-6.208 1.877-8.437 4.402-2.653 3.005-3.767 6.519-3.287 10.497 0.367 3.062 1.679 5.672 3.852 7.831 2.159 2.145 4.769 3.4 7.802 3.781 0.282 0.028 0.395 0 0.381-0.325-0.014-0.55 0-1.101 0-1.665z"></path>
<path d="M15.986 17.171c-1.778 0-3.556 0-5.333 0-0.325 0-0.649 0-0.974-0.028-0.085-0.014-0.212-0.141-0.212-0.212-0.014-0.621-0.014-1.256-0.014-1.877 0-0.183 0.085-0.226 0.254-0.226 3.739 0 7.478-0.014 11.217-0.014 0.451 0 0.903 0.014 1.34 0.014 0.169 0 0.226 0.056 0.226 0.212 0 0.621 0 1.256 0 1.877 0 0.183-0.099 0.212-0.254 0.212-2.088 0-4.176 0-6.265 0 0.014 0.028 0.014 0.042 0.014 0.042z"></path>
<path d="M15.958 12.303c-2.018 0-4.035 0-6.053 0-0.437 0-0.437 0-0.437-0.451 0-0.494 0.014-0.988 0-1.467-0.014-0.296 0.085-0.395 0.395-0.395 0.988 0.014 1.989 0 2.977 0 3.076 0 6.138 0 9.213 0 0.48 0 0.48 0 0.48 0.48 0 0.466 0 0.945 0 1.411 0 0.423 0 0.423-0.409 0.423-2.074 0-4.12 0-6.166 0z"></path>
<path d="M15.958 22.011c-1.989 0-3.993 0-5.982 0-0.508 0-0.508 0-0.508-0.522 0-0.48 0.014-0.959 0-1.439-0.014-0.268 0.085-0.367 0.353-0.367 1.072 0.014 2.13 0 3.203 0 3.005 0 6.011 0 9.030 0 0.48 0 0.48 0 0.48 0.48 0 0.466 0 0.945 0 1.411 0 0.423 0 0.423-0.409 0.423-2.074 0.014-4.12 0.014-6.166 0.014z"></path>
</svg>
