<?xml version="1.0" encoding="utf-8"?>
<!-- Generator: Adobe Illustrator 22.1.0, SVG Export Plug-In . SVG Version: 6.00 Build 0)  -->
<svg version="1.1" id="Layer_1" xmlns="http://www.w3.org/2000/svg" xmlns:xlink="http://www.w3.org/1999/xlink" x="0px" y="0px"
	 viewBox="0 0 226.8 226.8" style="enable-background:new 0 0 226.8 226.8;" xml:space="preserve">
<g>
	<path d="M2.1,113.4C1.6,52.6,50.9,3.9,109.5,2.1c64.3-2,113.4,49.2,115.1,107.6c1.9,64.1-49.3,113.3-107.8,115
		C52.6,226.5,1.4,174.3,2.1,113.4z M104.9,193.2C104.9,193.2,104.9,193.2,104.9,193.2c0-4.2,0-8.4,0-12.7c0-1.4,0.5-2,2-1.9
		c4.1,0.1,8.2,0.1,12.2,0c2.2-0.1,2.8,0.7,2.8,2.8c-0.1,7.9,0,15.8-0.1,23.8c0,1.9,0.5,2.4,2.4,2.2c22.6-2.8,41.9-12.3,57.5-28.9
		c20.2-21.5,28.8-47.1,25.4-76.6c-2.5-21.7-11.9-40.2-27.2-55.5c-15.4-15.3-34.1-24.3-55.7-26.9c-2-0.2-2.4,0.4-2.4,2.2
		c0.1,8.1,0,16.1,0.1,24.2c0,1.8-0.6,2.3-2.3,2.3c-4-0.1-8-0.1-12,0c-2.1,0.1-2.7-0.7-2.7-2.7c0.1-8,0-16,0.1-24
		c0-1.8-0.5-2.3-2.3-2.1c-23.9,2.9-44,13.3-59.8,31.2C24.1,71.9,16.2,96.8,19.6,125c2.6,21.7,11.9,40.2,27.3,55.5
		c15.3,15.2,33.8,24.1,55.3,26.8c2,0.2,2.8,0,2.7-2.3C104.8,201.1,104.9,197.2,104.9,193.2z"/>
	<path d="M113.3,121.7c-12.6,0-25.2,0-37.8,0c-2.3,0-4.6,0-6.9-0.2c-0.6-0.1-1.5-1-1.5-1.5c-0.1-4.4-0.1-8.9-0.1-13.3
		c0-1.3,0.6-1.6,1.8-1.6c26.5,0,53-0.1,79.5-0.1c3.2,0,6.4,0.1,9.5,0.1c1.2,0,1.6,0.4,1.6,1.5c0,4.4,0,8.9,0,13.3
		c0,1.3-0.7,1.5-1.8,1.5c-14.8,0-29.6,0-44.4,0C113.3,121.6,113.3,121.7,113.3,121.7z"/>
	<path d="M113.1,87.2c-14.3,0-28.6,0-42.9,0c-3.1,0-3.1,0-3.1-3.2c0-3.5,0.1-7,0-10.4c-0.1-2.1,0.6-2.8,2.8-2.8c7,0.1,14.1,0,21.1,0
		c21.8,0,43.5,0,65.3,0c3.4,0,3.4,0,3.4,3.4c0,3.3,0,6.7,0,10c0,3,0,3-2.9,3C142.1,87.2,127.6,87.2,113.1,87.2z"/>
	<path d="M113.1,156c-14.1,0-28.3,0-42.4,0c-3.6,0-3.6,0-3.6-3.7c0-3.4,0.1-6.8,0-10.2c-0.1-1.9,0.6-2.6,2.5-2.6
		c7.6,0.1,15.1,0,22.7,0c21.3,0,42.6,0,64,0c3.4,0,3.4,0,3.4,3.4c0,3.3,0,6.7,0,10c0,3,0,3-2.9,3C142.1,156,127.6,156,113.1,156z"/>
</g>
</svg>
