<!-- Generated by IcoMoon.io -->
<svg version="1.1" xmlns="http://www.w3.org/2000/svg" width="32" height="32" viewBox="0 0 32 32">
<title>BL3P</title>
<path d="M6.914 6.448c-1.284-2.215-2.483-4.289-3.725-6.448 8.691 0 17.27 0 25.989 0-3.090 5.362-6.166 10.681-9.256 16.056 3.048 5.291 6.095 10.568 9.199 15.944-8.649 0-17.199 0-25.862 0 1.228-2.131 2.399-4.176 3.64-6.321 3.612 0 7.238 0 10.878 0 0.042-0.071 0.099-0.127 0.141-0.198-1.834-3.146-3.668-6.293-5.517-9.453 1.834-3.175 3.64-6.293 5.545-9.566-3.767-0.014-7.393-0.014-11.034-0.014z"></path>
</svg>
