<!-- Generated by IcoMoon.io -->
<svg version="1.1" xmlns="http://www.w3.org/2000/svg" width="32" height="32" viewBox="0 0 32 32">
<title>BLEUTRADE</title>
<path d="M10.004 1.199c0 5.489 0 10.892 0 16.282 0 1.524-0.014 3.034-0.014 4.557 0 4.6 0.254 5.531 2.582 9.326-4.783 0.325-11.231-6.321-12.36-12.938-1.312-7.774 3.499-14.956 9.792-17.227z"></path>
<path d="M15.069 14.123c0-4.811 0-9.411 0-13.996 7.845-1.157 17.34 5.926 16.917 16.268-2.159-2.511-4.769-4.064-7.944-4.501-3.175-0.451-6.152 0.268-8.974 2.229z"></path>
<path d="M22.561 17.157c4.035 0.014 7.28 3.245 7.252 7.252-0.014 3.965-3.372 7.266-7.323 7.238-4.049-0.028-7.196-3.245-7.196-7.309 0-4.078 3.16-7.196 7.266-7.182z"></path>
</svg>
