<?xml version="1.0" encoding="utf-8"?>
<!-- Generator: Adobe Illustrator 22.1.0, SVG Export Plug-In . SVG Version: 6.00 Build 0)  -->
<svg version="1.1" id="Layer_1" xmlns="http://www.w3.org/2000/svg" xmlns:xlink="http://www.w3.org/1999/xlink" x="0px" y="0px"
	 viewBox="0 0 226.8 226.8" style="enable-background:new 0 0 226.8 226.8;" xml:space="preserve">
<g>
	<path d="M70.9,2.4c18,0,35.9-1.9,53.3,0.5c19.1,2.7,35.4,24.5,37.5,45.7c2.3,23.4-2.6,43.9-26.1,57.1c4.5,1.9,7.6,3.4,10.9,4.6
		c19,6.9,28.8,20.8,31.6,40.4c1.9,13.5,0.9,26.7-3.6,39.5c-7.8,22.3-28,36.8-51.6,36.5c-15.5-0.2-30.9-1.2-46.4-1.9
		c-1.8-0.1-3.5-0.7-5.6-1.2C70.9,150.2,70.9,76.9,70.9,2.4z M88.8,115.9c0,24-0.2,45.1,0.2,66.3c0.1,5.4,1.5,11,3.6,15.9
		c1.7,3.8,4.8,7.9,8.4,9.8c17.8,9.4,46,0.3,54-18.4c4-9.3,6.3-20.2,6.1-30.3c-0.4-17.2-7.7-32.9-25.3-37.8
		C120.6,117.2,104.3,117.6,88.8,115.9z M88.5,103.2c9.6-1.1,19.2-1.4,28.4-3.4c13.5-2.9,21.7-12,24.9-25.4c3.1-12.6,2.2-25-3-36.8
		c-5.9-13.4-18.5-21.2-33.1-20.8C92.5,17.2,90,19.5,88.9,32.6c-0.1,1.6-0.4,3.1-0.4,4.7C88.5,58.7,88.5,80,88.5,103.2z"/>
	<path d="M11,0c15.4,0.8,29.2,1.4,43.9,2.2c0.2,2.9,0.6,5.6,0.6,8.4c0,68.7-0.1,137.4,0.2,206.1c0,6.5-1.8,8.7-8.3,8.7
		c-11.5,0-23,0.9-36.1,1.4c1.5-2.3,2-4.2,3.1-4.6c14.6-5.6,19.8-17.9,22.6-31.7c1.1-5.4,1.6-10.9,1.6-16.4
		c0.1-41.2,0.3-82.3,0-123.5C38.3,31,33,13.6,13.5,4.2C12.7,3.9,12.5,2.6,11,0z"/>
	<path d="M177,112.7c20.4,4.7,36,25.7,36.6,49.7c0.6,26-14.1,48.1-36.5,54.6C201.3,182,199,147.2,177,112.7z"/>
	<path d="M156.3,8c21.6,3.9,38.4,22.3,39.8,42.3c1.5,20.8-10.5,40.8-28.2,47C181.9,65.7,182.8,35.6,156.3,8z"/>
</g>
</svg>
