<!-- Generated by IcoMoon.io -->
<svg version="1.1" xmlns="http://www.w3.org/2000/svg" width="32" height="32" viewBox="0 0 32 32">
<title>BLK</title>
<path d="M10.004 0.339c2.54 0 5.065-0.268 7.52 0.071 2.695 0.381 4.995 3.457 5.291 6.448 0.325 3.302-0.367 6.194-3.683 8.056 0.635 0.268 1.072 0.48 1.538 0.649 2.681 0.974 4.064 2.935 4.459 5.7 0.268 1.905 0.127 3.767-0.508 5.573-1.101 3.146-3.951 5.192-7.28 5.15-2.187-0.028-4.36-0.169-6.547-0.268-0.254-0.014-0.494-0.099-0.79-0.169 0-10.356 0-20.698 0-31.21zM12.529 16.353c0 3.386-0.028 6.363 0.028 9.355 0.014 0.762 0.212 1.552 0.508 2.243 0.24 0.536 0.677 1.115 1.185 1.383 2.511 1.326 6.49 0.042 7.619-2.596 0.564-1.312 0.889-2.85 0.861-4.275-0.056-2.427-1.086-4.642-3.57-5.333-2.145-0.593-4.444-0.536-6.631-0.776zM12.487 14.561c1.354-0.155 2.709-0.198 4.007-0.48 1.905-0.409 3.062-1.693 3.513-3.584 0.437-1.778 0.31-3.527-0.423-5.192-0.832-1.891-2.61-2.991-4.67-2.935-1.862 0.056-2.215 0.381-2.37 2.229-0.014 0.226-0.056 0.437-0.056 0.663 0 3.019 0 6.025 0 9.298z"></path>
<path d="M1.552 0c2.173 0.113 4.12 0.198 6.194 0.31 0.028 0.409 0.085 0.79 0.085 1.185 0 9.693-0.014 19.386 0.028 29.079 0 0.917-0.254 1.227-1.171 1.227-1.623 0-3.245 0.127-5.093 0.198 0.212-0.325 0.282-0.593 0.437-0.649 2.060-0.79 2.794-2.526 3.189-4.473 0.155-0.762 0.226-1.538 0.226-2.314 0.014-5.813 0.042-11.612 0-17.425-0.042-2.765-0.79-5.22-3.541-6.547-0.113-0.042-0.141-0.226-0.353-0.593z"></path>
<path d="M24.974 15.901c2.878 0.663 5.079 3.626 5.164 7.012 0.085 3.668-1.989 6.787-5.15 7.704 3.414-4.938 3.090-9.848-0.014-14.716z"></path>
<path d="M22.053 1.129c3.048 0.55 5.418 3.146 5.616 5.968 0.212 2.935-1.481 5.757-3.979 6.631 1.975-4.459 2.102-8.705-1.637-12.6z"></path>
</svg>
