<?xml version="1.0" encoding="utf-8"?>
<!-- Generator: Adobe Illustrator 22.0.1, SVG Export Plug-In . SVG Version: 6.00 Build 0)  -->
<svg version="1.1" id="Layer_1" xmlns="http://www.w3.org/2000/svg" xmlns:xlink="http://www.w3.org/1999/xlink" x="0px" y="0px"
	 viewBox="0 0 226.8 226.8" style="enable-background:new 0 0 226.8 226.8;" xml:space="preserve">
<style type="text/css">
	.st0{stroke:#FFFFFF;stroke-miterlimit:10;}
</style>
<path class="st0" d="M65.8,22.2c35.4-0.2,70.9,0,106.5-0.2c17.4,30.3,35.4,60.2,52.9,90.5c-17.4,30.3-35.4,60.2-52.9,90.5H64.9
	c17.4-30.4,35.3-60.4,53-90.5C100.5,82.5,83.5,52.3,65.8,22.2 M123.1,54.5c11.3,19.4,22.7,38.7,34,58.2
	c-11.4,19.3-22.7,38.7-34,58.2c9.7,0.2,19.3,0.2,29,0c11-19.4,22.6-38.6,34-57.7c-11-19.8-22.9-38.9-34-58.5
	C142.4,54.5,132.6,54.5,123.1,54.5"/>
<path class="st0" d="M-0.4,112.7c16.3-28.2,32.8-56.5,49.7-84.4c6.3,11.1,12.7,22.3,19.3,33.3C59.1,78.8,48.6,95.4,39,112.7
	c9.4,16.9,19.8,33.4,29.2,50.3c-6.6,11-13,22-19.4,33.1C32.1,168.5,15.8,140.6-0.4,112.7z"/>
</svg>
