<!-- Generated by IcoMoon.io -->
<svg version="1.1" xmlns="http://www.w3.org/2000/svg" width="32" height="32" viewBox="0 0 32 32">
<title>BLOCK</title>
<path d="M9.284 3.132c4.995-0.028 10.004 0 15.026-0.028 2.455 4.275 4.995 8.494 7.464 12.769-2.455 4.275-4.995 8.494-7.464 12.769h-15.153c2.455-4.289 4.981-8.522 7.478-12.769-2.455-4.233-4.854-8.494-7.351-12.741M17.369 7.69c1.594 2.737 3.203 5.46 4.797 8.212-1.608 2.723-3.203 5.46-4.797 8.212 1.369 0.028 2.723 0.028 4.092 0 1.552-2.737 3.189-5.446 4.797-8.141-1.552-2.794-3.231-5.489-4.797-8.254-1.369-0.028-2.751-0.028-4.092-0.028"></path>
<path d="M-0.056 15.901c2.3-3.979 4.628-7.972 7.012-11.908 0.889 1.566 1.792 3.146 2.723 4.698-1.34 2.427-2.822 4.769-4.176 7.21 1.326 2.384 2.794 4.713 4.12 7.097-0.931 1.552-1.834 3.104-2.737 4.67-2.356-3.894-4.656-7.831-6.942-11.767z"></path>
</svg>
