<!-- Generated by IcoMoon.io -->
<svg version="1.1" xmlns="http://www.w3.org/2000/svg" width="32" height="32" viewBox="0 0 32 32">
<title>BLOCKCHAINWALLET</title>
<path d="M31.923 8.32c-0.102 0.141-0.205 0.294-0.32 0.435-1.741 2.253-3.482 4.518-5.235 6.758-0.307 0.397-0.346 0.653-0.013 1.062 1.664 2.112 3.277 4.25 4.954 6.362 0.371 0.474 0.307 0.691-0.154 1.024-0.947 0.678-1.882 1.395-2.79 2.125-0.346 0.282-0.512 0.23-0.768-0.102-1.395-1.843-2.842-3.648-4.224-5.504-0.346-0.461-0.512-0.435-0.845 0.013-1.382 1.83-2.803 3.622-4.186 5.453-0.307 0.397-0.499 0.41-0.87 0.102-0.922-0.742-1.869-1.472-2.842-2.163-0.371-0.269-0.397-0.461-0.115-0.819 1.677-2.138 3.302-4.288 4.992-6.413 0.333-0.422 0.358-0.691 0.013-1.126-1.754-2.214-3.456-4.48-5.21-6.694-0.41-0.512-0.333-0.742 0.166-1.075 0.934-0.653 1.843-1.357 2.726-2.074 0.371-0.307 0.563-0.23 0.832 0.128 1.485 1.958 3.008 3.878 4.48 5.837 0.371 0.499 0.538 0.435 0.883-0.013 1.459-1.933 2.982-3.84 4.442-5.786 0.32-0.435 0.525-0.435 0.922-0.115 0.922 0.755 1.882 1.446 2.829 2.176 0.141 0.077 0.346 0.154 0.333 0.41z"></path>
<path d="M10.637 11.494c0 2.918 0.026 5.837 0 8.755-0.051 4.493-2.266 7.654-6.451 9.306-1.114 0.435-2.266 0.73-3.443 0.896-0.41 0.051-0.602 0.013-0.602-0.474 0.026-1.19 0.013-2.381 0-3.571 0-0.346 0.102-0.499 0.461-0.538 0.435-0.051 0.883-0.141 1.306-0.256 2.342-0.678 3.878-2.534 4.109-4.966 0.038-0.371 0.038-0.742 0.038-1.114 0-5.837 0.013-11.674-0.013-17.51 0-0.64 0.166-0.858 0.819-0.819 0.998 0.051 2.010 0.064 3.008 0 0.678-0.038 0.794 0.23 0.794 0.832-0.038 3.149-0.026 6.298-0.026 9.459 0 0 0 0 0 0z"></path>
</svg>
