<!-- Generated by IcoMoon.io -->
<svg version="1.1" xmlns="http://www.w3.org/2000/svg" width="32" height="32" viewBox="0 0 32 32">
<title>BLT</title>
<path d="M12.924 15.901c0.014 3.132-2.709 5.474-5.813 4.981-2.243-0.367-4.021-1.608-5.63-3.104-0.437-0.409-0.804-0.903-1.213-1.355-0.339-0.367-0.325-0.663 0-1.058 1.213-1.481 2.681-2.61 4.402-3.429 0.734-0.353 1.51-0.649 2.314-0.832 2.991-0.691 5.926 1.693 5.94 4.797z"></path>
<path d="M19.076 15.915c0.028-3.302 3.245-5.672 6.462-4.713 2.469 0.748 4.515 2.159 6.208 4.12 0.367 0.423 0.353 0.72 0 1.157-1.608 1.961-3.541 3.471-5.982 4.233-3.034 0.931-6.039-0.861-6.603-3.894-0.071-0.296-0.056-0.607-0.085-0.903z"></path>
<path d="M16 12.938c-3.386-0.042-5.771-3.287-4.755-6.533 0.762-2.427 2.13-4.459 4.064-6.109 0.409-0.353 0.734-0.437 1.185-0.042 1.947 1.608 3.457 3.513 4.219 5.94 0.917 2.878-0.621 5.742-3.513 6.575-0.367 0.113-0.79 0.113-1.199 0.169z"></path>
<path d="M15.986 19.048c3.104 0.014 5.404 2.737 4.924 5.841-0.296 1.891-1.242 3.443-2.441 4.868-0.621 0.734-1.369 1.34-2.060 2.018-0.325 0.324-0.621 0.296-0.974 0-1.524-1.242-2.695-2.751-3.527-4.529-0.31-0.663-0.593-1.355-0.748-2.060-0.649-2.765 1.044-5.418 3.824-6.053 0.325-0.056 0.663-0.056 1.002-0.085z"></path>
</svg>
