<?xml version="1.0" encoding="utf-8"?>
<!-- Generator: Adobe Illustrator 22.1.0, SVG Export Plug-In . SVG Version: 6.00 Build 0)  -->
<svg version="1.1" id="Layer_1" xmlns="http://www.w3.org/2000/svg" xmlns:xlink="http://www.w3.org/1999/xlink" x="0px" y="0px"
	 viewBox="0 0 226.8 226.8" style="enable-background:new 0 0 226.8 226.8;" xml:space="preserve">
<g>
	<path d="M91.6,112.7c0.1,22.2-19.2,38.8-41.2,35.3c-15.9-2.6-28.5-11.4-39.9-22c-3.1-2.9-5.7-6.4-8.6-9.6c-2.4-2.6-2.3-4.7,0-7.5
		c8.6-10.5,19-18.5,31.2-24.3c5.2-2.5,10.7-4.6,16.4-5.9C70.7,73.8,91.5,90.7,91.6,112.7z"/>
	<path d="M135.2,112.8c0.2-23.4,23-40.2,45.8-33.4c17.5,5.3,32,15.3,44,29.2c2.6,3,2.5,5.1,0,8.2c-11.4,13.9-25.1,24.6-42.4,30
		c-21.5,6.6-42.8-6.1-46.8-27.6C135.3,117.1,135.4,114.9,135.2,112.8z"/>
	<path d="M113.4,91.7c-24-0.3-40.9-23.3-33.7-46.3c5.4-17.2,15.1-31.6,28.8-43.3c2.9-2.5,5.2-3.1,8.4-0.3
		c13.8,11.4,24.5,24.9,29.9,42.1c6.5,20.4-4.4,40.7-24.9,46.6C119.3,91.3,116.3,91.3,113.4,91.7z"/>
	<path d="M113.3,135c22,0.1,38.3,19.4,34.9,41.4c-2.1,13.4-8.8,24.4-17.3,34.5c-4.4,5.2-9.7,9.5-14.6,14.3c-2.3,2.3-4.4,2.1-6.9,0
		c-10.8-8.8-19.1-19.5-25-32.1c-2.2-4.7-4.2-9.6-5.3-14.6c-4.6-19.6,7.4-38.4,27.1-42.9C108.5,135.2,110.9,135.2,113.3,135z"/>
</g>
</svg>
