<?xml version="1.0" encoding="utf-8"?>
<!-- Generator: Adobe Illustrator 22.1.0, SVG Export Plug-In . SVG Version: 6.00 Build 0)  -->
<svg version="1.1" id="Layer_1" xmlns="http://www.w3.org/2000/svg" xmlns:xlink="http://www.w3.org/1999/xlink" x="0px" y="0px"
	 viewBox="0 0 250 250" style="enable-background:new 0 0 250 250;" xml:space="preserve">
<style type="text/css">
	.st0{stroke:#FFFFFF;stroke-miterlimit:10;}
</style>
<path class="st0" d="M39.5,179.2c8.5-8.4,22.1-8.4,30.6,0.1c8.4,8.5,8.4,22.1-0.1,30.6c-8.4,8.4-22.1,8.4-30.5,0
	C31,201.4,31,187.7,39.5,179.2C39.4,179.2,39.4,179.2,39.5,179.2"/>
<g>
	<path class="st0" d="M187.3,38.8c8.4-8.4,22.1-8.4,30.6,0s8.4,22.1,0,30.6c-8.4,8.4-22.1,8.4-30.6,0c0,0,0,0,0,0
		C178.9,60.9,178.9,47.2,187.3,38.8C187.3,38.8,187.3,38.8,187.3,38.8"/>
</g>
<path class="st0" d="M67.2,162.5L90,185.3l20.9-20.9c-10.4-4.2-18.7-12.4-22.9-22.9L67.2,162.5z"/>
<g>
	<path class="st0" d="M169.8,106.7l20.9-20.9L167.8,63L147,83.9c5.2,2.1,9.8,5.2,13.8,9.1C164.6,96.9,167.7,101.6,169.8,106.7"/>
</g>
<g>
	<path class="st0" d="M186.6,208.7c-8.4-8.4-8.4-22.1,0-30.6c8.4-8.4,22.1-8.4,30.6,0c8.4,8.4,8.4,22.1,0,30.6c0,0,0,0,0,0
		C208.8,217.1,195.1,217.1,186.6,208.7C186.6,208.7,186.6,208.7,186.6,208.7"/>
	<path class="st0" d="M41.6,67.4c-8.4-8.4-8.4-22.1,0-30.6s22.1-8.4,30.6,0s8.4,22.1,0,30.6c0,0,0,0,0,0
		C63.8,75.9,50.1,75.9,41.6,67.4C41.6,67.4,41.6,67.4,41.6,67.4"/>
	<path class="st0" d="M166.1,184.4l22.8-22.8L168,140.7c-4.2,10.4-12.4,18.7-22.9,22.9"/>
	<path class="st0" d="M112.6,82.7L91.7,61.8L68.9,84.6l20.9,20.9c2.1-5.2,5.2-9.8,9.1-13.8C102.8,87.8,107.5,84.7,112.6,82.7"/>
</g>
<g>
	<path class="st0" d="M150.8,21.6c0,12-9.7,21.6-21.6,21.6c-12,0-21.6-9.7-21.6-21.6S117.2,0,129.2,0C141.1,0,150.8,9.7,150.8,21.6
		C150.8,21.6,150.8,21.6,150.8,21.6"/>
	<path class="st0" d="M150.8,228.4c0,12-9.7,21.6-21.6,21.6s-21.6-9.7-21.6-21.6c0-12,9.7-21.6,21.6-21.6
		C141.1,206.7,150.8,216.4,150.8,228.4C150.8,228.3,150.8,228.3,150.8,228.4z"/>
	<path class="st0" d="M137.1,54.6h-13.6v26.8c4.5-0.8,9.1-0.8,13.6,0"/>
	<path class="st0" d="M137.1,169.8c-4.5,0.8-9.1,0.8-13.6,0v26.8h13.6"/>
</g>
<g>
	<path class="st0" d="M225,140.7c-12,0-21.6-9.7-21.6-21.6S213,97.4,225,97.4c12,0,21.6,9.7,21.6,21.6
		C246.6,131,236.9,140.7,225,140.7C225,140.7,225,140.7,225,140.7"/>
	<path class="st0" d="M26.3,144.4c-12,0-21.6-9.7-21.6-21.6c0-12,9.7-21.6,21.6-21.6c12,0,21.6,9.7,21.6,21.6
		C47.9,134.7,38.3,144.4,26.3,144.4C26.3,144.4,26.3,144.4,26.3,144.4"/>
	<path class="st0" d="M169.9,129.6h26.8v-13.6h-26.8C170.7,120.4,170.7,125,169.9,129.6L169.9,129.6z"/>
	<path class="st0" d="M86.7,129.6c-0.8-4.5-0.8-9.1,0-13.6H59.9v13.6"/>
</g>
<g>
	<path class="st0" d="M159.2,124.3c0,16.9-13.7,30.7-30.7,30.7s-30.7-13.7-30.7-30.7c0-16.9,13.7-30.7,30.7-30.7l0,0
		C145.5,93.7,159.2,107.4,159.2,124.3z"/>
</g>
</svg>
