<!-- Generated by IcoMoon.io -->
<svg version="1.1" xmlns="http://www.w3.org/2000/svg" width="32" height="32" viewBox="0 0 32 32">
<title>BLZ</title>
<path d="M5.056 22.938c1.088-1.075 2.829-1.075 3.917 0.013 1.075 1.088 1.075 2.829-0.013 3.917-1.075 1.075-2.829 1.075-3.904 0-1.088-1.088-1.088-2.842 0-3.93-0.013 0-0.013 0 0 0"></path>
<path d="M23.974 4.966c1.075-1.075 2.829-1.075 3.917 0s1.075 2.829 0 3.917c-1.075 1.075-2.829 1.075-3.917 0 0 0 0 0 0 0-1.075-1.088-1.075-2.842 0-3.917 0 0 0 0 0 0"></path>
<path d="M8.602 20.8l2.918 2.918 2.675-2.675c-1.331-0.538-2.394-1.587-2.931-2.931l-2.662 2.688z"></path>
<path d="M21.734 13.658l2.675-2.675-2.931-2.918-2.662 2.675c0.666 0.269 1.254 0.666 1.766 1.165 0.486 0.499 0.883 1.101 1.152 1.754"></path>
<path d="M23.885 26.714c-1.075-1.075-1.075-2.829 0-3.917 1.075-1.075 2.829-1.075 3.917 0 1.075 1.075 1.075 2.829 0 3.917 0 0 0 0 0 0-1.075 1.075-2.829 1.075-3.917 0 0 0 0 0 0 0"></path>
<path d="M5.325 8.627c-1.075-1.075-1.075-2.829 0-3.917s2.829-1.075 3.917 0 1.075 2.829 0 3.917c0 0 0 0 0 0-1.075 1.088-2.829 1.088-3.917 0 0 0 0 0 0 0"></path>
<path d="M21.261 23.603l2.918-2.918-2.675-2.675c-0.538 1.331-1.587 2.394-2.931 2.931"></path>
<path d="M14.413 10.586l-2.675-2.675-2.918 2.918 2.675 2.675c0.269-0.666 0.666-1.254 1.165-1.766 0.499-0.499 1.101-0.896 1.754-1.152"></path>
<path d="M19.302 2.765c0 1.536-1.242 2.765-2.765 2.765-1.536 0-2.765-1.242-2.765-2.765s1.229-2.765 2.765-2.765c1.523 0 2.765 1.242 2.765 2.765 0 0 0 0 0 0"></path>
<path d="M19.302 29.235c0 1.536-1.242 2.765-2.765 2.765s-2.765-1.242-2.765-2.765c0-1.536 1.242-2.765 2.765-2.765 1.523-0.013 2.765 1.229 2.765 2.765 0-0.013 0-0.013 0 0z"></path>
<path d="M17.549 6.989h-1.741v3.43c0.576-0.102 1.165-0.102 1.741 0"></path>
<path d="M17.549 21.734c-0.576 0.102-1.165 0.102-1.741 0v3.43h1.741"></path>
<path d="M28.8 18.010c-1.536 0-2.765-1.242-2.765-2.765s1.229-2.778 2.765-2.778c1.536 0 2.765 1.242 2.765 2.765 0 1.536-1.242 2.778-2.765 2.778 0 0 0 0 0 0"></path>
<path d="M3.366 18.483c-1.536 0-2.765-1.242-2.765-2.765 0-1.536 1.242-2.765 2.765-2.765 1.536 0 2.765 1.242 2.765 2.765s-1.229 2.765-2.765 2.765c0 0 0 0 0 0"></path>
<path d="M21.747 16.589h3.43v-1.741h-3.43c0.102 0.563 0.102 1.152 0 1.741v0z"></path>
<path d="M11.098 16.589c-0.102-0.576-0.102-1.165 0-1.741h-3.43v1.741"></path>
<path d="M20.378 15.91c0 2.163-1.754 3.93-3.93 3.93s-3.93-1.754-3.93-3.93c0-2.163 1.754-3.93 3.93-3.93v0c2.176 0.013 3.93 1.766 3.93 3.93z"></path>
</svg>
