<!-- Generated by IcoMoon.io -->
<svg version="1.1" xmlns="http://www.w3.org/2000/svg" width="32" height="32" viewBox="0 0 32 32">
<title>BNB</title>
<path d="M9.792 13.446l6.208-6.208 6.222 6.222 3.612-3.612-9.834-9.848-9.834 9.834 3.626 3.612"></path>
<path d="M0 16l3.612-3.612 3.612 3.612-3.612 3.612-3.612-3.612z"></path>
<path d="M9.792 18.554l6.208 6.208 6.222-6.222 3.612 3.612-9.834 9.834-9.834-9.834 3.626-3.598"></path>
<path d="M24.762 16l3.612-3.612 3.612 3.612-3.598 3.612-3.626-3.612z"></path>
<path d="M19.668 16v0l-3.668-3.668-3.668 3.668 3.668 3.668 3.668-3.668"></path>
</svg>
