<?xml version="1.0" encoding="utf-8"?>
<!-- Generator: Adobe Illustrator 22.0.1, SVG Export Plug-In . SVG Version: 6.00 Build 0)  -->
<svg version="1.1" id="Layer_1" xmlns="http://www.w3.org/2000/svg" xmlns:xlink="http://www.w3.org/1999/xlink" x="0px" y="0px"
	 viewBox="0 0 226.8 226.8" style="enable-background:new 0 0 226.8 226.8;" xml:space="preserve">
<style type="text/css">
	.st0{stroke:#FFFFFF;stroke-miterlimit:10;}
</style>
<g>
	<path class="st0" d="M69.4,95.3l44-44l44.1,44.1l25.6-25.6L113.4,0L43.7,69.7L69.4,95.3"/>
	<path class="st0" d="M0,113.4l25.6-25.6l25.6,25.6L25.6,139L0,113.4z"/>
	<path class="st0" d="M69.4,131.5l44,44l44.1-44.1l25.6,25.6l0,0l-69.7,69.7l-69.7-69.7l0,0L69.4,131.5"/>
	<path class="st0" d="M175.5,113.4l25.6-25.6l25.6,25.6L201.2,139L175.5,113.4z"/>
	<path class="st0" d="M139.4,113.4L139.4,113.4l-26-26l-19.2,19.2h0l-2.2,2.2l-4.6,4.6l0,0l0,0l26,26L139.4,113.4L139.4,113.4
		L139.4,113.4"/>
</g>
</svg>
