<!-- Generated by IcoMoon.io -->
<svg version="1.1" xmlns="http://www.w3.org/2000/svg" width="32" height="32" viewBox="0 0 32 32">
<title>BOS</title>
<path d="M25.434 16.602c2.867 5.76 0.627 15.181-8.282 15.36-3.187 0.064-6.387 0.026-9.587 0.013-1.651 0-2.163-0.512-2.163-2.138-0.013-5.453-0.013-10.918 0-16.371 0-1.395 0.525-2.048 1.869-2.048 3.763-0.013 7.539 0.038 11.302 0.154 0.806 0.026 1.6 0.384 2.394 0.589-0.576 2.035-1.446 2.573-3.238 2.534-2.97-0.077-5.939-0.026-9.037-0.026 0 4.672 0 9.28 0 13.914 3.366 0 6.707 0.205 9.997-0.064 2.509-0.218 4.442-2.778 4.608-5.338 0.038-0.614 0.141-1.267 0-1.856-0.525-2.125 0.563-3.482 2.138-4.723z"></path>
<path d="M8.55 10.086c-1.075 0.115-2.022 0.218-3.123 0.333 0-3.072-0.064-6.080 0.077-9.075 0.026-0.448 1.011-1.216 1.574-1.229 3.635-0.090 7.296-0.218 10.918 0.064 3.302 0.256 5.683 2.24 6.976 5.274 1.203 2.842 1.242 5.837 0.102 8.704-1.472 3.725-4.403 5.555-8.371 5.709-1.907 0.077-3.814-0.038-5.722 0.038-1.485 0.051-1.165-0.96-1.203-1.805-0.051-0.883 0.013-1.562 1.242-1.485 1.638 0.090 3.29 0.026 4.928 0.026 4.429-0.013 6.592-2.176 6.592-6.643 0-0.755 0.013-1.523-0.154-2.253-0.614-2.752-2.714-4.378-5.837-4.48-2.304-0.077-4.621 0.013-6.925-0.026-0.819-0.013-1.088 0.282-1.075 1.088 0.026 1.869 0 3.776 0 5.76z"></path>
</svg>
