<?xml version="1.0" encoding="utf-8"?>
<!-- Generator: Adobe Illustrator 22.1.0, SVG Export Plug-In . SVG Version: 6.00 Build 0)  -->
<svg version="1.1" id="Layer_1" xmlns="http://www.w3.org/2000/svg" xmlns:xlink="http://www.w3.org/1999/xlink" x="0px" y="0px"
	 viewBox="0 0 250 250" style="enable-background:new 0 0 250 250;" xml:space="preserve">
<g>
	<g>
		<path d="M198.7,129.7c22.4,45,4.9,118.6-64.7,120c-24.9,0.5-49.9,0.2-74.9,0.1c-12.9,0-16.9-4-16.9-16.7
			c-0.1-42.6-0.1-85.3,0-127.9c0-10.9,4.1-16,14.6-16c29.4-0.1,58.9,0.3,88.3,1.2c6.3,0.2,12.5,3,18.7,4.6
			c-4.5,15.9-11.3,20.1-25.3,19.8c-23.2-0.6-46.4-0.2-70.6-0.2c0,36.5,0,72.5,0,108.7c26.3,0,52.4,1.6,78.1-0.5
			c19.6-1.7,34.7-21.7,36-41.7c0.3-4.8,1.1-9.9,0-14.5C177.9,150,186.4,139.4,198.7,129.7z"/>
		<path d="M66.8,78.8c-8.4,0.9-15.8,1.7-24.4,2.6c0-24-0.5-47.5,0.6-70.9c0.2-3.5,7.9-9.5,12.3-9.6c28.4-0.7,57-1.7,85.3,0.5
			c25.8,2,44.4,17.5,54.5,41.2c9.4,22.2,9.7,45.6,0.8,68c-11.5,29.1-34.4,43.4-65.4,44.6c-14.9,0.6-29.8-0.3-44.7,0.3
			c-11.6,0.4-9.1-7.5-9.4-14.1c-0.4-6.9,0.1-12.2,9.7-11.6c12.8,0.7,25.7,0.2,38.5,0.2c34.6-0.1,51.5-17,51.5-51.9
			c0-5.9,0.1-11.9-1.2-17.6c-4.8-21.5-21.2-34.2-45.6-35c-18-0.6-36.1,0.1-54.1-0.2c-6.4-0.1-8.5,2.2-8.4,8.5
			C67,48.4,66.8,63.3,66.8,78.8z"/>
	</g>
</g>
</svg>
