<?xml version="1.0" encoding="utf-8"?>
<!-- Generator: Adobe Illustrator 22.1.0, SVG Export Plug-In . SVG Version: 6.00 Build 0)  -->
<svg version="1.1" id="Layer_1" xmlns="http://www.w3.org/2000/svg" xmlns:xlink="http://www.w3.org/1999/xlink" x="0px" y="0px"
	 viewBox="0 0 226.8 226.8" style="enable-background:new 0 0 226.8 226.8;" xml:space="preserve">
<g>
	<path d="M183.9,159c-2.8,2.2-5.6,3.9-9.4,3.7c-7.6-0.4-15.1-1.2-22.3-4c-1.6-0.6-3.1-1.5-4.6-2.4c5.5-1.1,10.8-0.3,16,1.3
		c1.8,0.5,3.4,1.4,5.2,2c0.7,0.3,1.6,0.5,2.2,0.4c0.6-0.2,1.7-1,1.6-1.3c-0.2-0.8-0.8-1.8-1.4-2c-3.9-1.4-7.7-2.9-11.7-3.7
		c-5.5-1.2-11-0.9-16.5,0.3c-0.9,0.2-2.1,0.8-2.3,1.5c-0.2,0.6,0.5,1.8,1.2,2.4c5,4.5,11.2,6.3,17.5,7.6c9.9,2,19.8,2.4,29.8,0.5
		c0.4-0.1,0.8,0,1.2,0c-3.3,6.4-9.2,9-17.1,7.3c-3.3-0.7-6.5-1.9-9.7-3c-0.7-0.2-1.4-0.8-2-0.7c-0.9,0.1-1.7,0.7-2.5,1.1
		c0.5,0.8,0.7,2,1.4,2.2c4.1,1.4,8.3,2.7,12.5,4c0.6,0.2,1.2,0.3,1.8,0.4c0,0.2,0.1,0.5,0.1,0.7c-4.4,1-8.7,2.3-13.1,3
		c-3.5,0.6-7.1,0.4-10.6,0.6c-1.3,0.1-2.8,0.1-2.9,1.8c-0.1,1.7,1.4,1.9,2.7,1.9c10.1,0.2,19.8-1.4,28.9-5.9
		c6.9-3.5,12.8-8.1,16.7-15c0.6-1,1.1-2.6,0.7-3.4c-0.8-1.6-2.5-0.6-3.8-0.2c-1.9,0.5-3.9,1.2-5.8,1.8c2.7-3.3,5.6-6.1,7.8-9.5
		c5.1-7.7,7.6-16.1,5.3-25.5c-0.1-0.5-0.2-1-0.4-1.4c-0.6-0.8-1.2-1.9-2-2.1c-0.8-0.1-2,0.6-2.6,1.2c-1.6,1.6-3,3.3-4.7,5.3
		c0.7-3.7,1.5-6.8,1.8-10.1c1-12-2.2-22.7-10.2-31.9c-0.6-0.7-1.9-1.2-2.7-1c-0.8,0.3-1.5,1.4-1.9,2.3c-0.5,1.3-0.8,2.7-1.2,4.1
		c-0.2,0.7-0.5,1.3-1,2.4c-0.5-2.3-0.8-4.2-1.3-6c-3.3-11.4-10.5-19.8-20-26.5c-2.1-1.5-4.4-2.8-6.8-4c-0.9-0.4-2.3-0.4-3.1,0.1
		c-0.5,0.3-0.5,1.7-0.4,2.6c0.1,1.3,0.4,2.6,0.7,4.5c-7.3-7.3-14.5-14-21.1-21.1c-4.8-5.2-7.7-11.7-8.9-18.8
		c-0.2-1.4-0.6-2.4-2.3-2.4c-1.7,0-2.1,1-2.4,2.4c-1.6,8.5-5.5,15.8-11.6,21.9c-5.8,5.9-11.9,11.5-18.3,17.6
		c0.3-1.7,0.6-2.9,0.6-4.1c0-0.9,0-2.3-0.6-2.6c-0.7-0.5-2.1-0.4-2.9,0C66.7,64.8,58.1,72.7,53,83.8c-1.7,3.6-2.6,7.6-3.9,11.6
		c-0.6-1.9-1-3.8-1.7-5.6c-0.4-1.1-1.1-2.8-1.9-2.9c-1-0.1-2.5,0.7-3.3,1.6c-6.9,8.1-10,17.5-9.8,28.1c0.1,4.2,1,8.4,1.5,12.8
		c-1.3-1.5-2.6-3.1-4.1-4.5c-0.8-0.8-2-1.7-2.9-1.5c-0.8,0.1-1.8,1.5-2.1,2.5c-2.4,7.3-1.1,14.3,1.9,21.1c2.3,5.2,5.7,9.6,9.9,13.4
		c0.4,0.3,0.7,0.6,0.9,1.4c-2.1-0.7-4.1-1.4-6.2-1.9c-1.1-0.2-2.2,0.1-3.4,0.2c0.1,1-0.1,2.2,0.4,3.1c4.1,7.4,10.4,12.4,18,16
		c8.6,4.1,17.7,5.5,27.1,5.4c1.4,0,3.6,0.4,3.5-1.9c-0.1-2.1-2.1-1.7-3.5-1.7c-7.4,0.1-14.6-0.9-21.5-3.5c-0.5-0.2-0.9-0.4-1.4-0.9
		c0.8-0.1,1.5-0.2,2.3-0.4c3.9-1.2,7.8-2.4,11.7-3.7c1.1-0.4,2.3-1,1.7-2.4c-0.6-1.6-2-1.4-3.3-1c-3.5,1.1-7,2.3-10.5,3.4
		c-1.3,0.4-2.8,0.5-4.2,0.6c-6.4,0.7-9.9-3.4-13.8-8c3.4,0.4,6.3,0.9,9.2,1.1c11,0.8,21.9-0.3,32.2-4.5c2.9-1.2,5.5-3.1,8.1-5
		c1.8-1.3,1.3-3-0.9-3.4c-9.9-2.1-19.5-1-28.6,3.4c-0.7,0.3-1,1.4-1.6,2.2c0.9,0.4,1.9,1.1,2.8,1.2c0.8,0.1,1.7-0.6,2.5-1
		c5.4-2.3,11-3.4,16.8-3.2c0.9,0,1.8,0.2,2.9,0.7c-1.5,0.7-2.9,1.5-4.4,2.1c-8.1,3.1-16.5,4.3-25.1,3.9c-2.4-0.1-4.7-2-7.2-3.1
		c13.2-12,48.3-14.5,63.7,0.1c-2.3-0.2-4.3-0.5-6.4-0.6c-11.5-0.3-20.8,3.8-26.8,14c-0.7,1.2-1.6,2.5,0.2,3.4
		c1.5,0.8,2.7,0.1,3.5-1.4c6.8-13,22-14.7,32.7-10.3c2.9,1.2,2.9,1.3,1.7,4.2c-9.1,22.2-31.1,35.9-55.1,34.1
		c-24.6-1.8-45.5-22.2-48.9-46.5c-1.9-14,1.8-26.5,7.3-38.9c7.6-17.1,18.2-32.2,30-46.5c14.5-17.6,31-33.4,47.8-48.8
		c6.7-6.2,13.5-12.4,20.2-18.6c0.5-0.5,1-0.9,1.8-1.6c2.9,2.7,5.9,5.4,8.7,8.1c14.3,13.6,29,26.8,42.9,40.8
		c16.9,17,31.9,35.5,43.3,56.7c5.3,9.8,9.7,19.9,11.9,30.8c3.5,17.6-1.5,33-13,46.2c-26.5,30.6-76.4,21.7-91-15.9
		c-1-2.6-1-2.8,1.7-3.9c10.8-4.5,26.1-2.9,33,10.1c0.3,0.6,1,1.4,1.6,1.6c0.8,0.2,1.9-0.1,2.5-0.6c0.4-0.4,0.3-1.6,0-2.2
		c-3.5-6.6-8.8-11-15.9-13.3c-5.2-1.6-10.6-1.8-16-0.9c-0.5,0.1-1,0.1-1.6,0.1C134.5,145.5,170.1,146.8,183.9,159z"/>
	<path d="M149.6,64.7c8.2,5.1,14.6,11.7,18.7,20.3c-5.7,1.9-11.3,3.7-17,5.6c0.3-0.6,0.8-1.1,1.1-1.8c1.8-3.7,3.6-7.4,5.3-11.1
		c0.6-1.2,0.3-2.5-1.2-2.9c-1.4-0.4-2.5,0.2-3,1.7c-2.5,9-8.5,15.8-15,22.1c-4.5,4.4-9.1,8.7-13.4,13.4c-4.1,4.5-7,10-9.2,15.7
		c-0.2,0.6-0.5,1.2-1.1,1.8c0-6.8-0.2-13.6,0-20.3c0.2-8.3,0.5-16.6,1.3-24.9c0.8-8.3,3.1-16.2,8-23c0.7-1,1.3-2,0.1-2.9
		c-1.2-0.9-2.6-0.7-3.4,0.5c-1.6,2.4-3,5-4.5,7.5c-0.5,0.9-0.8,1.8-1.5,3.3c-0.1-1.2-0.1-1.7-0.1-2.3c0-6,0-11.9,0-17.9
		c0-1.5-0.1-2.8-2-2.8c-1.9,0-2.4,1.1-2.4,2.9c0.1,6.5,0,13,0,19.6c-1.8-3.2-3.5-6.3-5.4-9.4c-0.4-0.7-1.1-1.5-1.8-1.7
		c-0.8-0.2-1.8,0.1-2.4,0.6c-0.4,0.3-0.4,1.6,0,2c6.6,9,8.5,19.5,9.1,30.1c0.7,12.9,0.6,25.8,0.3,38.8c-0.2-0.3-0.4-0.6-0.5-1
		c-3.5-9.5-9.3-17.5-16.7-24.3c-5.4-5-11.3-9.6-15.3-15.9c-2.3-3.6-4.1-7.6-5.8-11.5c-0.7-1.6-1.5-2.5-3.1-2c-1.8,0.5-1.6,2-1,3.3
		c1.9,4.2,3.9,8.5,5.7,12.3c-4.9-1.6-10.5-3.5-16.3-5.4c4.1-8.6,10.5-15.1,19.1-20.5c0,2.6-0.2,4.8,0,6.9c1.2,10.1,6.6,18,13.9,24.7
		c2.9,2.6,6.2,4.7,9.4,7c0.6,0.4,1.4,1,2.1,0.9c1,0,2.4-0.2,2.8-0.9c0.8-1.1-0.2-1.9-1.2-2.4c-6-3-10.9-7.4-15-12.7
		c-3-3.8-5.4-8-6.7-12.7c-0.2-0.7-0.2-1.6,0.1-2.2c1.6-3.6,4.1-6.4,7-8.9c6,3.2,11.1,13.9,10.1,21.8c-1.7-2.4-3.3-4.3-4.5-6.4
		c-1.2-2-2-4.2-2.8-6.4c-0.6-1.6-1.6-2.2-3.1-1.7c-1.6,0.5-1.5,1.7-1,3c1.7,4.7,3.7,9.3,7.5,12.7c1.4,1.3,3.1,2.3,4.8,3
		c2.4,1,3.7,0,3.8-2.6c0.4-10.6-3-19.5-11.7-26.4c8.4-7.4,16.7-15,21-26.4c4.4,11.3,12.6,18.9,20.9,26.2c-2,2.2-4.2,4.2-5.9,6.5
		c-4.3,6-6,12.8-5.6,20.1c0.2,2.7,1.5,3.7,4,2.5c2.3-1.2,4.7-2.7,6.1-4.7c2.4-3.4,4.1-7.2,6-11c0.6-1.2,0.6-2.5-1-2.9
		c-1.5-0.4-2.5,0.1-3.2,1.7c-1.5,3.3-3.1,6.5-4.9,9.6c-0.5,1-1.5,1.8-2.5,2.8c-1-7.4,4.2-18.1,10.2-21.4c2.9,2.5,5.4,5.3,7,8.9
		c0.3,0.7,0.2,1.8,0,2.6c-2.7,8.6-8,15.2-15,20.7c-2,1.6-4.2,2.8-6.4,4.2c-1,0.6-2.2,1.2-1.5,2.6c0.7,1.4,2.1,1.5,3.3,0.8
		c3.5-2.3,7.1-4.4,10.3-7.1c6.9-6,12.2-13.1,14.1-22.2C149.2,71.3,149.2,68.1,149.6,64.7z"/>
	<path d="M195.4,142.8c-1.4,4.8-5.1,10.6-8,13c-22.5-12.9-45-13.8-68.4-1.2c2.4-3.1,4.5-6.1,6.9-8.7c11.2-12.2,25.4-19.3,41.3-23.4
		c4.4-1.2,9.1-1.6,13.6-2.3c0.3-0.1,0.8,0,1-0.1c0.7-0.6,1.4-1.3,2-2c-0.8-0.6-1.5-1.5-2.4-1.6c-1.5-0.1-3.1,0.2-4.7,0.4
		c-17.3,2.5-33.2,8.6-47,19.6c-5.3,4.2-9.8,9.2-13.5,14.9c-0.3,0.4-0.6,0.8-1,1.3c0.8-38.1,30.9-60,54.5-63.8
		c0.4,1.4,0.7,2.8,1.1,4.4c-1.8,0.4-3.4,0.8-5.1,1.2c-13.1,3.7-23.5,11.5-31.9,22c-3.7,4.8-6.7,10.2-9.9,15.3c-0.6,1-0.9,2,0.3,2.8
		c1.2,0.8,2.4,0.7,3.2-0.5c5.3-7.6,13.5-11.1,21.4-14.8c5.1-2.4,10.2-4.6,15.2-7.3c7.8-4.2,14.2-9.7,17.3-19.2
		c1.4,2.7,2.6,4.8,3.6,7c0.2,0.4-0.3,1.2-0.7,1.6c-3.1,2.8-6.2,5.6-9.3,8.4c-1,0.8-2.4,1.5-1.4,3c1,1.5,2.5,1.2,3.7,0.2
		c3.2-2.5,6.3-5,9.6-7.6c1.4,4.5,1.9,9.3,1.1,14c-0.3,1.6-1.9,3.2-3.3,4.2c-4.1,3.2-9,4.5-13.9,5.4c-4.9,0.9-10,1.5-14.9,2.2
		c-0.6,0.1-1.3,0.2-1.9,0.2c-1.2,0.2-2.5,0.6-2.1,2c0.2,0.7,1.7,1.6,2.5,1.6c10.8-1.1,21.6-2.1,31.5-7.4c0.2-0.1,0.4-0.1,0.7-0.2
		c-1.1,3.9-2.4,7.2-6.8,8.7c-9.6,3.2-19.3,3.8-29.2,2.9c-2.9-0.3-5.7-1-8.6-1.2c-0.9-0.1-2.3,0.5-2.7,1.2c-0.6,1.4,0.6,2,1.8,2.2
		c7.7,1.5,15.4,2.3,23.3,1.6c8.6-0.7,16.8-2.5,24.2-7.1c2.8-1.7,5.3-3.9,8-5.9c1.5,3.8,0.7,6.4-2.7,8.7c-3.5,2.4-7.5,3.7-11.6,4.4
		c-0.9,0.2-1.9,0.1-2.7,0.5c-0.7,0.4-1.1,1.2-1.7,1.8c0.7,0.5,1.4,1.6,2,1.5c3.2-0.5,6.4-1,9.5-1.9
		C191.5,144.7,193.3,143.7,195.4,142.8z"/>
	<path d="M54.3,93.3c0.4-1.6,0.8-3,1.1-4.4c27.5,2.2,55.8,35.4,54.4,63.6c-1.9-2.5-3.7-5.2-5.8-7.6c-10.4-12.1-23.7-19.5-38.7-24.1
		c-6.6-2-13.6-2.9-20.4-4.3c-0.3-0.1-0.8-0.2-1-0.1c-0.9,0.5-2.3,1-2.5,1.7c-0.4,1.4,1,1.8,2.2,2c5.8,1,11.7,1.7,17.3,3.2
		c14,3.9,26.7,10.5,36.9,21c2.9,3,5.4,6.5,7.9,10c-10.5-6.7-21.9-9-34.1-8.7c-12.1,0.3-23.5,3-33.6,10.4c-3.8-3.7-6.5-8-8.3-13.2
		c3,1.1,5.7,2.2,8.5,3.1c2,0.6,4.2,1,6.3,1.1c0.9,0,2.3-0.8,2.5-1.5c0.4-1.4-0.9-1.8-2.1-2c-4.5-0.6-8.9-1.8-12.9-4.1
		c-4.3-2.6-5-4.5-3.6-9.7c3.8,3.9,8.2,6.9,13.1,8.9c9.7,4.1,19.9,5.1,30.3,4.4c3.9-0.3,7.7-0.9,11.6-1.5c1.3-0.2,2.8-0.5,2.4-2.3
		c-0.4-1.5-1.6-1.5-3.1-1.3c-11.9,2.2-23.8,2.6-35.5-1.1c-0.2-0.1-0.4-0.1-0.6-0.2c-4.9-1-7.1-4.4-8-9c0.1,0,0.2-0.2,0.3-0.1
		c9.9,5.3,20.8,6.4,31.6,7.5c1.3,0.1,2.6-0.2,2.8-1.7c0.2-1.6-1.2-1.8-2.5-2c-6.6-1.1-13.3-1.9-19.9-3.3c-3.4-0.7-6.7-2.3-9.8-4
		c-3.1-1.6-4.8-4.3-4.4-8c0.4-3.6,0.7-7.3,1-11.3c3,2.5,5.6,4.7,8.2,6.9c0.6,0.5,1.3,0.9,1.9,1.4c1.3,0.9,2.7,1,3.5-0.4
		c0.9-1.4-0.4-2.1-1.3-2.9c-3.2-2.7-6.3-5.5-9.4-8.3c-0.8-0.7-1-1.6-0.4-2.6c1.1-1.8,2-3.7,3.3-6c3.6,10.7,11.5,16.3,20.6,20.8
		c5.7,2.8,11.5,5.3,17.2,8c6.2,3,12,6.5,16.1,12.2c0.9,1.2,2,1.5,3.1,0.7c0.5-0.4,0.9-1.9,0.6-2.5c-8.9-17.7-21.7-31.3-41.1-37.5
		C58.3,94.2,56.4,93.8,54.3,93.3z"/>
	<path d="M112.8,175.2c1.5,7.1,3.9,13.4,7.7,19c10,14.9,23.9,23.3,41.9,24.6c2,0.1,2.5,0.8,2.4,2.7c-0.2,4.7,0.6,3.9-3.9,4
		c-32.4,0-64.7,0-97.1,0c-0.9,0-1.8,0-2.9,0c0-2.2,0-4.2,0-6.2C88,216.4,104.9,201.6,112.8,175.2z"/>
	<path d="M135.1,121.9c9.5-12.3,20.6-21.6,36.1-24.8c0.3,3.1,0.3,5.9-2.6,7.6c-4.1,2.5-8.1,5.2-12.4,7.3
		C149.3,115.4,142.4,118.5,135.1,121.9z"/>
	<path d="M89.7,121.8c-9.2-4.5-18.5-9-27.6-13.5c-1.7-0.8-3.3-2-4.8-3.2c-3.3-2.5-3.6-3.2-3.2-8.1C69.6,100.2,80.7,109.6,89.7,121.8
		z"/>
</g>
</svg>
