<!-- Generated by IcoMoon.io -->
<svg version="1.1" xmlns="http://www.w3.org/2000/svg" width="32" height="32" viewBox="0 0 32 32">
<title>BOT</title>
<path d="M25.947 22.434c-0.395 0.31-0.79 0.55-1.326 0.522-1.072-0.056-2.131-0.169-3.146-0.564-0.226-0.085-0.437-0.212-0.649-0.339 0.776-0.155 1.524-0.042 2.258 0.183 0.254 0.071 0.48 0.198 0.734 0.282 0.099 0.042 0.226 0.071 0.31 0.056 0.085-0.028 0.24-0.141 0.226-0.183-0.028-0.113-0.113-0.254-0.198-0.282-0.55-0.198-1.086-0.409-1.651-0.522-0.776-0.169-1.552-0.127-2.328 0.042-0.127 0.028-0.296 0.113-0.325 0.212-0.028 0.085 0.071 0.254 0.169 0.339 0.705 0.635 1.58 0.889 2.469 1.072 1.397 0.282 2.794 0.339 4.205 0.071 0.056-0.014 0.113 0 0.169 0-0.466 0.903-1.298 1.27-2.413 1.030-0.466-0.099-0.917-0.268-1.369-0.423-0.099-0.028-0.198-0.113-0.282-0.099-0.127 0.014-0.24 0.099-0.353 0.155 0.071 0.113 0.099 0.282 0.198 0.31 0.578 0.198 1.171 0.381 1.764 0.564 0.085 0.028 0.169 0.042 0.254 0.056 0 0.028 0.014 0.071 0.014 0.099-0.621 0.141-1.227 0.325-1.848 0.423-0.494 0.085-1.002 0.056-1.496 0.085-0.183 0.014-0.395 0.014-0.409 0.254s0.198 0.268 0.381 0.268c1.425 0.028 2.794-0.198 4.078-0.832 0.974-0.494 1.806-1.143 2.356-2.116 0.085-0.141 0.155-0.367 0.099-0.48-0.113-0.226-0.353-0.085-0.536-0.028-0.268 0.071-0.55 0.169-0.818 0.254 0.381-0.466 0.79-0.861 1.101-1.34 0.72-1.086 1.072-2.272 0.748-3.598-0.014-0.071-0.028-0.141-0.056-0.198-0.085-0.113-0.169-0.268-0.282-0.296-0.113-0.014-0.282 0.085-0.367 0.169-0.226 0.226-0.423 0.466-0.663 0.748 0.099-0.522 0.212-0.959 0.254-1.425 0.141-1.693-0.31-3.203-1.439-4.501-0.085-0.099-0.268-0.169-0.381-0.141-0.113 0.042-0.212 0.198-0.268 0.325-0.071 0.183-0.113 0.381-0.169 0.578-0.028 0.099-0.071 0.183-0.141 0.339-0.071-0.325-0.113-0.593-0.183-0.847-0.466-1.608-1.481-2.794-2.822-3.739-0.296-0.212-0.621-0.395-0.959-0.564-0.127-0.056-0.325-0.056-0.437 0.014-0.071 0.042-0.071 0.24-0.056 0.367 0.014 0.183 0.056 0.367 0.099 0.635-1.030-1.030-2.046-1.975-2.977-2.977-0.677-0.734-1.086-1.651-1.256-2.653-0.028-0.198-0.085-0.339-0.325-0.339s-0.296 0.141-0.339 0.339c-0.226 1.199-0.776 2.229-1.637 3.090-0.818 0.832-1.679 1.623-2.582 2.483 0.042-0.24 0.085-0.409 0.085-0.578 0-0.127 0-0.325-0.085-0.367-0.099-0.071-0.296-0.056-0.409 0-1.524 0.776-2.737 1.891-3.457 3.457-0.24 0.508-0.367 1.072-0.55 1.637-0.085-0.268-0.141-0.536-0.24-0.79-0.056-0.155-0.155-0.395-0.268-0.409-0.141-0.014-0.353 0.099-0.466 0.226-0.974 1.143-1.411 2.469-1.383 3.965 0.014 0.593 0.141 1.185 0.212 1.806-0.183-0.212-0.367-0.437-0.578-0.635-0.113-0.113-0.282-0.24-0.409-0.212-0.113 0.014-0.254 0.212-0.296 0.353-0.339 1.030-0.155 2.018 0.268 2.977 0.325 0.734 0.804 1.355 1.397 1.891 0.056 0.042 0.099 0.085 0.127 0.198-0.296-0.099-0.578-0.198-0.875-0.268-0.155-0.028-0.31 0.014-0.48 0.028 0.014 0.141-0.014 0.31 0.056 0.437 0.578 1.044 1.467 1.75 2.54 2.258 1.213 0.578 2.497 0.776 3.824 0.762 0.198 0 0.508 0.056 0.494-0.268-0.014-0.296-0.296-0.24-0.494-0.24-1.044 0.014-2.060-0.127-3.034-0.494-0.071-0.028-0.127-0.056-0.198-0.127 0.113-0.014 0.212-0.028 0.324-0.056 0.55-0.169 1.101-0.339 1.651-0.522 0.155-0.056 0.325-0.141 0.24-0.339-0.085-0.226-0.282-0.198-0.466-0.141-0.494 0.155-0.988 0.325-1.481 0.48-0.183 0.056-0.395 0.071-0.593 0.085-0.903 0.099-1.397-0.48-1.947-1.129 0.48 0.056 0.889 0.127 1.298 0.155 1.552 0.113 3.090-0.042 4.543-0.635 0.409-0.169 0.776-0.437 1.143-0.705 0.254-0.183 0.183-0.423-0.127-0.48-1.397-0.296-2.751-0.141-4.035 0.48-0.099 0.042-0.141 0.198-0.226 0.31 0.127 0.056 0.268 0.155 0.395 0.169 0.113 0.014 0.24-0.085 0.353-0.141 0.762-0.325 1.552-0.48 2.37-0.451 0.127 0 0.254 0.028 0.409 0.099-0.212 0.099-0.409 0.212-0.621 0.296-1.143 0.437-2.328 0.607-3.541 0.55-0.339-0.014-0.663-0.282-1.016-0.437 1.862-1.693 6.815-2.046 8.988 0.014-0.325-0.028-0.607-0.071-0.903-0.085-1.623-0.042-2.935 0.536-3.781 1.975-0.099 0.169-0.226 0.353 0.028 0.48 0.212 0.113 0.381 0.014 0.494-0.198 0.959-1.834 3.104-2.074 4.614-1.453 0.409 0.169 0.409 0.183 0.24 0.593-1.284 3.132-4.388 5.065-7.774 4.811-3.471-0.254-6.42-3.132-6.899-6.561-0.268-1.975 0.254-3.739 1.030-5.489 1.072-2.413 2.568-4.543 4.233-6.561 2.046-2.483 4.374-4.713 6.744-6.885 0.945-0.875 1.905-1.75 2.85-2.624 0.071-0.071 0.141-0.127 0.254-0.226 0.409 0.381 0.832 0.762 1.228 1.143 2.018 1.919 4.092 3.781 6.053 5.757 2.384 2.399 4.501 5.009 6.109 8 0.748 1.383 1.369 2.808 1.679 4.346 0.494 2.483-0.212 4.656-1.834 6.519-3.739 4.317-10.78 3.062-12.839-2.243-0.141-0.367-0.141-0.395 0.24-0.55 1.524-0.635 3.683-0.409 4.656 1.425 0.042 0.085 0.141 0.198 0.226 0.226 0.113 0.028 0.268-0.014 0.353-0.085 0.056-0.056 0.042-0.226 0-0.31-0.494-0.931-1.242-1.552-2.243-1.877-0.734-0.226-1.496-0.254-2.258-0.127-0.071 0.014-0.141 0.014-0.226 0.014 1.919-2.004 6.942-1.82 8.889-0.099z"></path>
<path d="M21.108 9.129c1.157 0.72 2.060 1.651 2.638 2.864-0.804 0.268-1.594 0.522-2.399 0.79 0.042-0.085 0.113-0.155 0.155-0.254 0.254-0.522 0.508-1.044 0.748-1.566 0.085-0.169 0.042-0.353-0.169-0.409-0.198-0.056-0.353 0.028-0.423 0.24-0.353 1.27-1.199 2.229-2.116 3.118-0.635 0.621-1.284 1.227-1.891 1.891-0.578 0.635-0.988 1.411-1.298 2.215-0.028 0.085-0.071 0.169-0.155 0.254 0-0.959-0.028-1.919 0-2.864 0.028-1.171 0.071-2.342 0.183-3.513s0.437-2.286 1.129-3.245c0.099-0.141 0.183-0.282 0.014-0.409s-0.367-0.099-0.48 0.071c-0.226 0.339-0.423 0.705-0.635 1.058-0.071 0.127-0.113 0.254-0.212 0.466-0.014-0.169-0.014-0.24-0.014-0.325 0-0.847 0-1.679 0-2.526 0-0.212-0.014-0.395-0.282-0.395s-0.339 0.155-0.339 0.409c0.014 0.917 0 1.834 0 2.765-0.254-0.451-0.494-0.889-0.762-1.326-0.056-0.099-0.155-0.212-0.254-0.24-0.113-0.028-0.254 0.014-0.339 0.085-0.056 0.042-0.056 0.226 0 0.282 0.931 1.27 1.199 2.751 1.284 4.247 0.099 1.82 0.085 3.64 0.042 5.474-0.028-0.042-0.056-0.085-0.071-0.141-0.494-1.34-1.312-2.469-2.356-3.429-0.762-0.705-1.594-1.354-2.159-2.243-0.325-0.508-0.578-1.072-0.818-1.623-0.099-0.226-0.212-0.353-0.437-0.282-0.254 0.071-0.226 0.282-0.141 0.466 0.268 0.593 0.55 1.199 0.804 1.735-0.691-0.226-1.481-0.494-2.3-0.762 0.578-1.213 1.481-2.13 2.695-2.892 0 0.367-0.028 0.677 0 0.974 0.169 1.425 0.931 2.54 1.961 3.485 0.409 0.367 0.875 0.663 1.326 0.988 0.085 0.056 0.198 0.141 0.296 0.127 0.141 0 0.339-0.028 0.395-0.127 0.113-0.155-0.028-0.268-0.169-0.339-0.847-0.423-1.538-1.044-2.116-1.792-0.423-0.536-0.762-1.129-0.945-1.792-0.028-0.099-0.028-0.226 0.014-0.31 0.226-0.508 0.578-0.903 0.988-1.256 0.847 0.451 1.566 1.961 1.425 3.076-0.24-0.339-0.466-0.607-0.635-0.903-0.169-0.282-0.282-0.593-0.395-0.903-0.085-0.226-0.226-0.31-0.437-0.24-0.226 0.071-0.212 0.24-0.141 0.423 0.24 0.663 0.522 1.312 1.058 1.792 0.198 0.183 0.437 0.325 0.677 0.423 0.339 0.141 0.522 0 0.536-0.367 0.056-1.496-0.423-2.751-1.651-3.725 1.185-1.044 2.356-2.116 2.963-3.725 0.621 1.594 1.778 2.667 2.949 3.697-0.282 0.31-0.593 0.593-0.832 0.917-0.607 0.847-0.847 1.806-0.79 2.836 0.028 0.381 0.212 0.522 0.564 0.353 0.325-0.169 0.663-0.381 0.861-0.663 0.339-0.48 0.578-1.016 0.847-1.552 0.085-0.169 0.085-0.353-0.141-0.409-0.212-0.056-0.353 0.014-0.451 0.24-0.212 0.466-0.437 0.917-0.691 1.354-0.071 0.141-0.212 0.254-0.353 0.395-0.141-1.044 0.593-2.554 1.439-3.019 0.409 0.353 0.762 0.748 0.988 1.256 0.042 0.099 0.028 0.254 0 0.367-0.381 1.213-1.129 2.145-2.116 2.921-0.282 0.226-0.593 0.395-0.903 0.593-0.141 0.085-0.31 0.169-0.212 0.367s0.296 0.212 0.466 0.113c0.494-0.325 1.002-0.621 1.453-1.002 0.974-0.847 1.721-1.848 1.989-3.132 0.085-0.494 0.085-0.945 0.141-1.425z"></path>
<path d="M27.57 20.148c-0.198 0.677-0.72 1.496-1.129 1.834-3.175-1.82-6.349-1.947-9.651-0.169 0.339-0.437 0.635-0.861 0.974-1.227 1.58-1.721 3.584-2.723 5.827-3.302 0.621-0.169 1.284-0.226 1.919-0.325 0.042-0.014 0.113 0 0.141-0.014 0.099-0.085 0.198-0.183 0.282-0.282-0.113-0.085-0.212-0.212-0.339-0.226-0.212-0.014-0.437 0.028-0.663 0.056-2.441 0.353-4.684 1.213-6.631 2.765-0.748 0.593-1.383 1.298-1.905 2.102-0.042 0.056-0.085 0.113-0.141 0.183 0.113-5.376 4.36-8.466 7.69-9.002 0.056 0.198 0.099 0.395 0.155 0.621-0.254 0.056-0.48 0.113-0.72 0.169-1.848 0.522-3.316 1.623-4.501 3.104-0.522 0.677-0.945 1.439-1.397 2.159-0.085 0.141-0.127 0.282 0.042 0.395s0.339 0.099 0.451-0.071c0.748-1.072 1.905-1.566 3.019-2.088 0.72-0.339 1.439-0.649 2.145-1.030 1.101-0.593 2.004-1.369 2.441-2.709 0.198 0.381 0.367 0.677 0.508 0.988 0.028 0.056-0.042 0.169-0.099 0.226-0.437 0.395-0.875 0.79-1.312 1.185-0.141 0.113-0.339 0.212-0.198 0.423s0.353 0.169 0.522 0.028c0.451-0.353 0.889-0.705 1.355-1.072 0.198 0.635 0.268 1.312 0.155 1.975-0.042 0.226-0.268 0.451-0.466 0.593-0.578 0.451-1.27 0.635-1.961 0.762s-1.411 0.212-2.102 0.31c-0.085 0.014-0.183 0.028-0.268 0.028-0.169 0.028-0.353 0.085-0.296 0.282 0.028 0.099 0.24 0.226 0.353 0.226 1.524-0.155 3.048-0.296 4.444-1.044 0.028-0.014 0.056-0.014 0.099-0.028-0.155 0.55-0.339 1.016-0.959 1.227-1.355 0.451-2.723 0.536-4.12 0.409-0.409-0.042-0.804-0.141-1.213-0.169-0.127-0.014-0.325 0.071-0.381 0.169-0.085 0.198 0.085 0.282 0.254 0.31 1.086 0.212 2.173 0.325 3.287 0.226 1.213-0.099 2.37-0.353 3.414-1.002 0.395-0.24 0.748-0.55 1.129-0.832 0.212 0.536 0.099 0.903-0.381 1.227-0.494 0.339-1.058 0.522-1.637 0.621-0.127 0.028-0.268 0.014-0.381 0.071-0.099 0.056-0.155 0.169-0.24 0.254 0.099 0.071 0.198 0.226 0.282 0.212 0.451-0.071 0.903-0.141 1.34-0.268 0.31-0.014 0.564-0.155 0.861-0.282z"></path>
<path d="M7.661 13.164c0.056-0.226 0.113-0.423 0.155-0.621 3.88 0.31 7.873 4.995 7.675 8.974-0.268-0.353-0.522-0.734-0.818-1.072-1.467-1.707-3.344-2.751-5.46-3.4-0.931-0.282-1.919-0.409-2.878-0.607-0.042-0.014-0.113-0.028-0.141-0.014-0.127 0.071-0.325 0.141-0.353 0.24-0.056 0.198 0.141 0.254 0.31 0.282 0.818 0.141 1.651 0.24 2.441 0.451 1.975 0.55 3.767 1.481 5.206 2.963 0.409 0.423 0.762 0.917 1.115 1.411-1.481-0.945-3.090-1.27-4.811-1.227-1.707 0.042-3.316 0.423-4.741 1.467-0.536-0.522-0.917-1.129-1.171-1.862 0.423 0.155 0.804 0.31 1.199 0.437 0.282 0.085 0.593 0.141 0.889 0.155 0.127 0 0.324-0.113 0.353-0.212 0.056-0.198-0.127-0.254-0.296-0.282-0.635-0.085-1.256-0.254-1.82-0.578-0.607-0.367-0.705-0.635-0.508-1.369 0.536 0.55 1.157 0.974 1.848 1.256 1.369 0.578 2.808 0.72 4.275 0.621 0.55-0.042 1.086-0.127 1.637-0.212 0.183-0.028 0.395-0.071 0.339-0.325-0.056-0.212-0.226-0.212-0.437-0.183-1.679 0.31-3.358 0.367-5.009-0.155-0.028-0.014-0.056-0.014-0.085-0.028-0.691-0.141-1.002-0.621-1.129-1.27 0.014 0 0.028-0.028 0.042-0.014 1.397 0.748 2.935 0.903 4.459 1.058 0.183 0.014 0.367-0.028 0.395-0.24 0.028-0.226-0.169-0.254-0.353-0.282-0.931-0.155-1.877-0.268-2.808-0.466-0.48-0.099-0.945-0.325-1.383-0.564-0.437-0.226-0.677-0.607-0.621-1.129 0.056-0.508 0.099-1.030 0.141-1.594 0.423 0.353 0.79 0.663 1.157 0.974 0.085 0.071 0.183 0.127 0.268 0.198 0.183 0.127 0.381 0.141 0.494-0.056 0.127-0.198-0.056-0.296-0.183-0.409-0.452-0.381-0.889-0.776-1.326-1.171-0.113-0.099-0.141-0.226-0.056-0.367 0.155-0.254 0.282-0.522 0.466-0.847 0.508 1.51 1.623 2.3 2.907 2.935 0.804 0.395 1.623 0.748 2.427 1.129 0.875 0.423 1.693 0.917 2.272 1.721 0.127 0.169 0.282 0.212 0.437 0.099 0.071-0.056 0.127-0.268 0.085-0.353-1.256-2.497-3.062-4.416-5.799-5.291-0.24-0.042-0.508-0.099-0.804-0.169z"></path>
<path d="M15.915 24.72c0.212 1.002 0.55 1.891 1.086 2.681 1.411 2.102 3.372 3.287 5.912 3.471 0.282 0.014 0.353 0.113 0.339 0.381-0.028 0.663 0.085 0.55-0.55 0.564-4.571 0-9.129 0-13.7 0-0.127 0-0.254 0-0.409 0 0-0.31 0-0.593 0-0.875 3.824-0.409 6.208-2.497 7.323-6.222z"></path>
<path d="M19.062 17.199c1.34-1.735 2.907-3.048 5.093-3.499 0.042 0.437 0.042 0.832-0.367 1.072-0.578 0.353-1.143 0.734-1.75 1.030-0.974 0.48-1.947 0.917-2.977 1.397z"></path>
<path d="M12.656 17.185c-1.298-0.635-2.61-1.27-3.894-1.905-0.24-0.113-0.466-0.282-0.677-0.451-0.466-0.353-0.508-0.451-0.452-1.143 2.187 0.451 3.753 1.778 5.023 3.499z"></path>
</svg>
