<?xml version="1.0" encoding="utf-8"?>
<!-- Generator: Adobe Illustrator 22.1.0, SVG Export Plug-In . SVG Version: 6.00 Build 0)  -->
<svg version="1.1" id="Layer_1" xmlns="http://www.w3.org/2000/svg" xmlns:xlink="http://www.w3.org/1999/xlink" x="0px" y="0px"
	 viewBox="0 0 226.8 226.8" style="enable-background:new 0 0 226.8 226.8;" xml:space="preserve">
<g>
	<path d="M102,0c7.9,0,15.9,0,23.8,0c2.4,0.6,4.7,1.3,7.1,1.8c38.4,7.4,66.7,28.6,83.1,64.1c5.2,11.3,7.2,24.1,10.7,36.2
		c0,7.6,0,15.1,0,22.7c-0.6,2.6-1.2,5.1-1.7,7.7c-7.7,40.1-30.2,68.5-67.3,85.2c-54.7,24.6-123.2-1.6-146.8-56.7
		C5.9,149.4,3.5,136.8,0,124.7c0-7.6,0-15.1,0-22.7c0.6-2.6,1.2-5.1,1.8-7.7C10.3,50.6,35.6,21.2,77.4,6C85.3,3.2,93.8,2,102,0z
		 M113.3,216.8c57.4-0.1,103.5-46.2,103.5-103.3c0-57.6-45.7-103.5-103.1-103.6C56.3,9.8,9.7,56,9.8,112.9
		C10,170.6,56,216.9,113.3,216.8z"/>
	<path d="M200.4,113.3c0,47.9-39.5,87.3-87.6,87.2c-47.3-0.1-86.6-39.6-86.6-87c0-47.7,39.3-87.1,87-87.1
		C161,26.3,200.4,65.6,200.4,113.3z M113.6,55.7c-31.9-0.1-57.9,25.7-57.9,57.4c-0.1,31.9,25.6,57.8,57.4,57.9
		c31.9,0.1,57.9-25.6,57.9-57.4C171,81.7,145.4,55.8,113.6,55.7z"/>
</g>
</svg>
