<!-- Generated by IcoMoon.io -->
<svg version="1.1" xmlns="http://www.w3.org/2000/svg" width="32" height="32" viewBox="0 0 32 32">
<title>BPT</title>
<path d="M14.392 0c1.115 0 2.243 0 3.358 0 0.339 0.085 0.663 0.183 1.002 0.254 5.418 1.044 9.411 4.035 11.725 9.044 0.734 1.594 1.016 3.4 1.51 5.108 0 1.072 0 2.131 0 3.203-0.085 0.367-0.169 0.72-0.24 1.086-1.086 5.658-4.261 9.665-9.496 12.021-7.718 3.471-17.383-0.226-20.713-8-0.705-1.637-1.044-3.414-1.538-5.122 0-1.072 0-2.13 0-3.203 0.085-0.367 0.169-0.72 0.254-1.086 1.199-6.166 4.769-10.314 10.667-12.459 1.115-0.395 2.314-0.564 3.471-0.847zM15.986 30.589c8.099-0.014 14.603-6.519 14.603-14.575 0-8.127-6.448-14.603-14.547-14.617s-14.674 6.504-14.66 14.533c0.028 8.141 6.519 14.674 14.603 14.66z"></path>
<path d="M28.275 15.986c0 6.758-5.573 12.317-12.36 12.303-6.674-0.014-12.219-5.587-12.219-12.275 0-6.73 5.545-12.289 12.275-12.289 6.744-0.014 12.303 5.531 12.303 12.261zM16.028 7.859c-4.501-0.014-8.169 3.626-8.169 8.099-0.014 4.501 3.612 8.155 8.099 8.169 4.501 0.014 8.169-3.612 8.169-8.099 0-4.501-3.612-8.155-8.099-8.169z"></path>
</svg>
