<!-- Generated by IcoMoon.io -->
<svg version="1.1" xmlns="http://www.w3.org/2000/svg" width="32" height="32" viewBox="0 0 32 32">
<title>BRAZILIEX</title>
<path d="M0.353 6.899c0.451 0 0.875-0.014 1.312 0 0.635 0.014 1.27 0 1.891 0.099 0.79 0.127 1.256 0.79 1.115 1.538-0.056 0.296-0.268 0.564-0.423 0.889 0.042 0.028 0.141 0.099 0.24 0.169 0.536 0.367 0.72 0.875 0.635 1.496-0.085 0.607-0.409 1.030-0.988 1.242-0.226 0.085-0.48 0.155-0.72 0.155-0.945 0.014-1.891 0.014-2.836 0-0.071 0-0.155-0.028-0.212-0.028-0.099-0.353-0.127-4.924-0.014-5.559zM1.919 11.372c0.367-0.014 0.677 0 0.988-0.056 0.353-0.056 0.522-0.268 0.522-0.55 0-0.24-0.226-0.522-0.536-0.564s-0.635-0.014-0.974-0.014c0 0.409 0 0.762 0 1.185zM1.933 8.042c0 0.339 0 0.649 0 0.988 0.198 0 0.367 0.014 0.536 0 0.325-0.028 0.578-0.254 0.564-0.508 0-0.226-0.24-0.437-0.55-0.48-0.155-0.014-0.325 0-0.55 0z"></path>
<path d="M11.217 12.36c0.762-1.877 1.481-3.64 2.215-5.432 0.621 0 1.199 0 1.848 0 0.804 1.82 1.623 3.654 2.455 5.531-0.621 0-1.157 0-1.735 0-0.141-0.31-0.282-0.621-0.437-0.959-0.748 0-1.481 0-2.272 0-0.141 0.31-0.268 0.635-0.409 0.974-1.143 0-2.243 0-3.4 0-0.071-0.113-0.141-0.24-0.212-0.381-0.198-0.409-0.367-0.818-0.578-1.213-0.169-0.339-0.395-0.635-0.917-0.578 0 0.705 0 1.411 0 2.159-0.564 0-1.058 0-1.608 0 0-1.82 0-3.64 0-5.489 0.071-0.014 0.155-0.056 0.24-0.056 0.847 0 1.707-0.014 2.554 0 1.002 0.028 1.693 0.734 1.665 1.679-0.014 0.395-0.155 0.72-0.423 1.002-0.099 0.099-0.198 0.183-0.268 0.254 0.423 0.818 0.832 1.608 1.284 2.511zM7.774 9.157c0.325-0.042 0.578-0.042 0.818-0.099 0.226-0.056 0.367-0.226 0.353-0.48-0.014-0.24-0.127-0.409-0.353-0.494-0.268-0.099-0.536-0.085-0.818 0 0 0.339 0 0.663 0 1.072zM14.434 8.776c-0.042 0-0.071-0.014-0.113-0.014-0.183 0.508-0.381 1.016-0.578 1.552 0.466 0 0.875 0 1.326 0-0.226-0.55-0.437-1.044-0.635-1.538z"></path>
<path d="M18.060 8.028c0-0.409 0-0.734 0-1.086 1.778 0 3.527 0 5.362 0-0.437 0.776-0.974 1.453-1.439 2.173s-0.959 1.439-1.51 2.243c1.002 0.056 1.947 0 2.892 0.028 0 0.367 0 0.705 0 1.072-1.834 0-3.654 0-5.601 0 1.002-1.481 1.961-2.921 2.977-4.43-0.931 0-1.792 0-2.681 0z"></path>
<path d="M31.52 12.473c-1.453 0-2.864 0-4.261 0-0.113-0.353-0.155-4.882-0.042-5.531 0.48 0 0.959 0 1.524 0 0.042 1.439-0.014 2.892 0.028 4.402 0.917 0 1.806 0 2.723 0 0.113 0.423 0.113 0.762 0.028 1.129z"></path>
<path d="M24.325 12.473c0-1.877 0-3.683 0-5.531 0.508 0 1.002 0 1.481 0 0.113 0.325 0.155 4.67 0.042 5.517-0.48 0.056-0.974 0.042-1.524 0.014z"></path>
<path d="M31.45 25.256c-1.242 0-2.469 0.056-3.711-0.028-0.367-0.028-0.762-0.367-1.030-0.677-0.79-0.903-1.538-1.848-2.37-2.878-0.649 0.762-1.34 1.397-1.834 2.173-0.705 1.101-1.566 1.623-2.892 1.425-0.748-0.113-1.524-0.014-2.511-0.014 1.58-2.3 3.386-4.12 4.966-6.25-1.538-1.848-3.076-3.697-4.684-5.644 0.325-0.071 0.536-0.155 0.748-0.155 0.974-0.014 1.947 0.014 2.921-0.014 0.437-0.014 0.748 0.127 1.030 0.48 0.705 0.889 1.453 1.75 2.272 2.723 0.437-0.55 0.832-1.030 1.213-1.51 0.296-0.367 0.578-0.734 0.861-1.101 0.325-0.437 0.748-0.607 1.312-0.593 1.086 0.028 2.173 0.014 3.259 0.014 0.028 0.071 0.056 0.141 0.085 0.226-1.481 1.834-2.963 3.668-4.515 5.587 1.707 2.046 3.372 4.035 5.037 6.025-0.071 0.071-0.113 0.141-0.155 0.212z"></path>
<path d="M10.229 15.591c0 0.832 0 1.453 0 2.215 1.778 0 3.499 0 5.305 0 0 0.847 0 1.566 0 2.413-1.75 0-3.471 0-5.277 0 0 0.917 0 1.693 0 2.624 1.877 0 3.725 0 5.658 0 0 0.847 0 1.566 0 2.356-3.034 0-6.025 0-9.101 0 0-3.979 0-7.901 0-11.908 2.977 0 5.898 0 8.917 0 0 0.748 0 1.453 0 2.3-1.82 0-3.612 0-5.503 0z"></path>
<path d="M0.621 13.277c1.086 0 2.102 0 3.287 0 0.113 3.951 0.028 7.873 0.056 11.894-1.171 0-2.215 0-3.344 0 0-3.965 0-7.887 0-11.894z"></path>
</svg>
