<?xml version="1.0" encoding="utf-8"?>
<!-- Generator: Adobe Illustrator 22.0.1, SVG Export Plug-In . SVG Version: 6.00 Build 0)  -->
<svg version="1.1" id="Layer_1" xmlns="http://www.w3.org/2000/svg" xmlns:xlink="http://www.w3.org/1999/xlink" x="0px" y="0px"
	 viewBox="0 0 250 250" style="enable-background:new 0 0 250 250;" xml:space="preserve">
<style type="text/css">
	.st0{stroke:#FFFFFF;stroke-miterlimit:10;}
</style>
<g>
	<g>
		<path class="st0" d="M43,88.8c0-25.7,0-51.4,0-77.1c0-1.3,0-2.5,0-3.8c0.1-5.8,2.2-7.9,8.1-7.9C59.9,0,68.6,0,77.4,0.1
			c6.2,0.1,8.3,2.3,8.5,8.4c0,1.8,0,3.5,0,5.3c0,48.9,0,97.7,0,146.6c0,8.9,1.5,17.4,6.5,25.1c7.3,11.5,17.8,18.4,31.1,20.3
			c15.8,2.2,29.5-3.1,39.5-15.4c11.3-13.8,14-30.9,5.1-47.9c-10.7-20.2-33.3-28.6-54.6-20.4c-5.7,2.2-9.5-0.2-9.6-6.3
			c-0.1-10.1-0.1-20.3,0-30.4c0-4.2,1.4-5.7,5.5-6.9c6.9-2,14.1-2.3,21.2-2.3c10.5,0,20.7,2.2,30.4,6c8.7,3.4,16.6,8.1,23.8,14.2
			c11.4,9.7,20.1,21.3,25.4,35.3c6.1,16.1,7.5,32.6,3.8,49.5c-4.7,21.8-16.1,39.4-34.3,52.1c-21.1,14.8-44.5,19.8-70,13.9
			c-11.4-2.7-21.8-7.4-31.3-14.2c-7.3-5.2-13.3-11.7-18.8-18.8c-6.3-8.3-10.5-17.6-13.6-27.4c-2.4-7.6-3.1-15.4-3.1-23.4
			c0-0.4,0-0.8,0-1.1C43,137.6,43,113.2,43,88.8z"/>
	</g>
</g>
</svg>
