<!-- Generated by IcoMoon.io -->
<svg version="1.1" xmlns="http://www.w3.org/2000/svg" width="32" height="32" viewBox="0 0 32 32">
<title>BRD</title>
<path d="M5.504 11.366c0-3.29 0-6.579 0-9.869 0-0.166 0-0.32 0-0.486 0.013-0.742 0.282-1.011 1.037-1.011 1.126 0 2.24 0 3.366 0.013 0.794 0.013 1.062 0.294 1.088 1.075 0 0.23 0 0.448 0 0.678 0 6.259 0 12.506 0 18.765 0 1.139 0.192 2.227 0.832 3.213 0.934 1.472 2.278 2.355 3.981 2.598 2.022 0.282 3.776-0.397 5.056-1.971 1.446-1.766 1.792-3.955 0.653-6.131-1.37-2.586-4.262-3.661-6.989-2.611-0.73 0.282-1.216-0.026-1.229-0.806-0.013-1.293-0.013-2.598 0-3.891 0-0.538 0.179-0.73 0.704-0.883 0.883-0.256 1.805-0.294 2.714-0.294 1.344 0 2.65 0.282 3.891 0.768 1.114 0.435 2.125 1.037 3.046 1.818 1.459 1.242 2.573 2.726 3.251 4.518 0.781 2.061 0.96 4.173 0.486 6.336-0.602 2.79-2.061 5.043-4.39 6.669-2.701 1.894-5.696 2.534-8.96 1.779-1.459-0.346-2.79-0.947-4.006-1.818-0.934-0.666-1.702-1.498-2.406-2.406-0.806-1.062-1.344-2.253-1.741-3.507-0.307-0.973-0.397-1.971-0.397-2.995 0-0.051 0-0.102 0-0.141 0.013-3.162 0.013-6.285 0.013-9.408z"></path>
</svg>
