<!-- Generated by IcoMoon.io -->
<svg version="1.1" xmlns="http://www.w3.org/2000/svg" width="32" height="32" viewBox="0 0 32 32">
<title>BRK</title>
<path d="M31.611 12.124l-1.66 0.958s-1.144-1.215-2.477-3.523c-1.333-2.309-1.813-3.907-1.813-3.907l1.714-0.989c-1.883-1.875-4.23-3.284-6.853-4.039v2.061s-1.624 0.384-4.29 0.384-4.29-0.384-4.29-0.384v-2.142c-2.692 0.72-5.103 2.123-7.038 4.014l1.898 1.096s-0.48 1.598-1.813 3.907-2.477 3.523-2.477 3.523l-1.917-1.107c-0.324 1.204-0.511 2.587-0.511 4.013 0 0.004 0 0.008 0 0.012v-0.001c0 1.421 0.186 2.799 0.534 4.111l1.894-1.093s1.144 1.215 2.477 3.523c1.333 2.309 1.813 3.907 1.813 3.907l-1.834 1.059c1.924 1.859 4.312 3.239 6.974 3.951v-2.042s1.624-0.384 4.29-0.384 4.29 0.384 4.29 0.384v1.961c2.594-0.747 4.917-2.133 6.789-3.977l-1.649-0.952s0.48-1.598 1.813-3.907c1.333-2.309 2.477-3.523 2.477-3.523l1.639 0.946c0.314-1.187 0.495-2.549 0.495-3.953 0-0.003 0-0.007 0-0.010v0.001c0-0.002 0-0.005 0-0.007 0-1.374-0.173-2.707-0.498-3.98l0.024 0.111zM16.084 28.405c-6.851 0-12.405-5.554-12.405-12.405s5.554-12.405 12.405-12.405 12.405 5.554 12.405 12.405-5.554 12.405-12.405 12.405z"></path>
<path d="M11.938 15.905c0.307-0.037 1.050-0.571 1.080-1.559 0.025-1.252-0.519-2.234-2.119-2.234h-2.448v8.164h2.418c0.884 0 2.234-0.479 2.443-1.989s-0.589-2.161-1.375-2.382zM9.896 13.544h0.769c0.597 0 0.921 0.245 0.921 0.945s-0.561 0.9-0.929 0.9h-0.761v-1.846zM10.801 18.823h-0.905v-2.12h0.915c0.71 0 1.095 0.282 1.095 1.086s-0.666 1.034-1.104 1.034zM18.723 14.657c0-1.907-1.146-2.545-2.275-2.545h-2.545v8.164h1.473v-2.959c0.177 0 0.733-0.001 0.768-0.002l1.264 2.96h1.627l-1.47-3.292c0.717-0.387 1.159-1.129 1.159-2.327zM16.039 15.868h-0.663v-2.324h0.745c0.532 0 1.17 0.196 1.17 1.17s-0.753 1.154-1.252 1.154zM24.634 12.112h-1.628l-1.957 3.292v-3.292h-1.45v8.164h1.45v-2.16l0.717-1.202 1.622 3.362h1.601l-2.305-4.898z"></path>
</svg>
