<!-- Generated by IcoMoon.io -->
<svg version="1.1" xmlns="http://www.w3.org/2000/svg" width="32" height="32" viewBox="0 0 32 32">
<title>BRX</title>
<path d="M11.764 15.893c0.32-0.038 1.093-0.595 1.125-1.624 0.026-1.304-0.54-2.327-2.207-2.327h-2.549v8.503h2.519c0.921 0 2.327-0.499 2.544-2.071s-0.614-2.25-1.432-2.481zM9.637 13.434h0.801c0.622 0 0.959 0.256 0.959 0.985s-0.584 0.938-0.967 0.938h-0.793v-1.922zM10.579 18.932h-0.943v-2.208h0.953c0.74 0 1.14 0.294 1.14 1.131s-0.694 1.077-1.15 1.077zM18.83 14.593c0-1.986-1.193-2.651-2.37-2.651h-2.651v8.503h1.534v-3.081c0.184 0 0.764-0.001 0.8-0.002l1.316 3.083h1.694l-1.531-3.429c0.746-0.403 1.207-1.176 1.207-2.423zM16.034 15.855h-0.691v-2.421h0.776c0.554 0 1.219 0.205 1.219 1.219s-0.784 1.202-1.304 1.202zM23.22 11.942l-0.972 3.005-1.074-3.005h-1.701l1.752 4.13-1.854 4.373h1.624l1.1-3.081 1.202 3.081h1.688l-1.854-4.251 1.739-4.251z"></path>
<path d="M31.526 12.124l-1.66 0.958s-1.144-1.215-2.477-3.523c-1.333-2.309-1.813-3.907-1.813-3.907l1.714-0.989c-1.883-1.875-4.229-3.284-6.853-4.039v2.061s-1.624 0.384-4.29 0.384-4.29-0.384-4.29-0.384v-2.142c-2.692 0.72-5.103 2.123-7.038 4.014l1.898 1.096s-0.48 1.598-1.813 3.907-2.477 3.523-2.477 3.523l-1.917-1.107c-0.324 1.204-0.511 2.587-0.511 4.013 0 0.004 0 0.008 0 0.012v-0.001c0 1.421 0.186 2.799 0.534 4.111l1.894-1.093s1.144 1.215 2.477 3.523 1.813 3.907 1.813 3.907l-1.834 1.059c1.924 1.859 4.312 3.239 6.974 3.951v-2.042s1.624-0.384 4.29-0.384 4.29 0.384 4.29 0.384v1.961c2.594-0.747 4.917-2.133 6.789-3.977l-1.649-0.952s0.48-1.598 1.813-3.907c1.333-2.309 2.477-3.523 2.477-3.523l1.639 0.946c0.314-1.187 0.495-2.549 0.495-3.953 0-0.003 0-0.007 0-0.010v0.001c0-0.002 0-0.005 0-0.007 0-1.374-0.173-2.707-0.498-3.98l0.024 0.111zM16 28.405c-6.851 0-12.405-5.554-12.405-12.405s5.554-12.405 12.405-12.405 12.405 5.554 12.405 12.405-5.554 12.405-12.405 12.405z"></path>
</svg>
