<!-- Generated by IcoMoon.io -->
<svg version="1.1" xmlns="http://www.w3.org/2000/svg" width="32" height="32" viewBox="0 0 32 32">
<title>BTA</title>
<path d="M5.558 19.202v-19.202h-4.077c-0.818 0-1.482 0.663-1.482 1.481v4.010h4.016v7.259h-4.016v17.781c0 0.818 0.663 1.481 1.482 1.481h12.9c-5.158-1.969-8.823-6.961-8.823-12.81zM29.493 28.335l-5.153-5.153c0.862-1.096 1.381-2.476 1.381-3.98 0-3.563-2.889-6.452-6.452-6.452h-4.909v-7.259h4.909c5.785 0 10.73 3.585 12.743 8.654v-12.663c0-0.818-0.663-1.481-1.481-1.481h-17.714v19.202c0 3.563 2.888 6.451 6.451 6.451 1.503 0 2.883-0.518 3.98-1.381l5.153 5.153c-1.2 1.076-2.607 1.951-4.15 2.554l-0.093 0.032h6.372c0.818 0 1.481-0.663 1.481-1.481v-6.269c-0.633 1.569-1.484 2.917-2.531 4.086l0.011-0.013z"></path>
</svg>
