<!-- Generated by IcoMoon.io -->
<svg version="1.1" xmlns="http://www.w3.org/2000/svg" width="32" height="32" viewBox="0 0 32 32">
<title>BTC_MARKETS</title>
<path d="M17.792 24.818c-1.185 0-2.3 0-3.485 0 0-0.198 0-0.367 0-0.55 0-2.765 0-5.517 0-8.282 0-2.751-2.074-4.995-4.811-5.305-2.864-0.325-5.376 1.679-5.87 4.233-0.071 0.395-0.127 0.804-0.127 1.199-0.014 2.681 0 5.376 0 8.056 0 0.198 0 0.381 0 0.621-1.157 0-2.286 0-3.457 0-0.014-0.155-0.028-0.31-0.028-0.48 0-5.22 0-10.441 0-15.661 0-0.395 0.085-0.55 0.522-0.536 0.974 0.028 1.947 0.014 2.935 0.014 0.028 0.282 0.056 0.508 0.071 0.762 4.67-2.751 8.832-2.215 12.529 1.834 0.155-0.169 0.31-0.367 0.48-0.55 2.018-2.201 4.529-3.189 7.492-2.935 3.993 0.339 7.295 3.485 7.901 7.478 0.042 0.268 0.071 0.536 0.071 0.804 0 2.907 0 5.813 0 8.734 0 0.183 0 0.353 0 0.564-1.129 0-2.215 0-3.372 0-0.014-0.183-0.028-0.367-0.028-0.55 0-2.667 0-5.333 0-8.014 0-1.481-0.423-2.822-1.467-3.894-1.51-1.538-3.344-2.074-5.418-1.496-2.060 0.578-3.33 1.989-3.824 4.078-0.085 0.325-0.085 0.677-0.099 1.030 0 2.78 0 5.545 0 8.325-0.014 0.141-0.014 0.31-0.014 0.522z"></path>
</svg>
