<!-- Generated by IcoMoon.io -->
<svg version="1.1" xmlns="http://www.w3.org/2000/svg" width="32" height="32" viewBox="0 0 32 32">
<title>BTC_TRADE_UA</title>
<path d="M31.972 14.265c0 1.129 0 2.243 0 3.372-0.056 0.268-0.113 0.522-0.155 0.79-1.086 6.857-6.279 12.148-13.108 13.362-0.367 0.071-0.734 0.141-1.101 0.212-1.086 0-2.159 0-3.245 0-0.155-0.042-0.325-0.085-0.48-0.113-7.055-1.002-12.43-6.18-13.686-13.22-0.056-0.31-0.127-0.607-0.198-0.903 0-1.129 0-2.243 0-3.372 0.085-0.423 0.169-0.847 0.24-1.284 1.552-8.578 9.862-14.377 18.441-12.868 6.744 1.185 11.88 6.307 13.079 13.065 0.056 0.325 0.141 0.635 0.212 0.959zM20.966 16.381c0.056-0.071 0.071-0.099 0.085-0.113 0.085-0.042 0.183-0.099 0.282-0.141 0.832-0.353 1.326-0.974 1.566-1.834 0.423-1.481 0.028-2.681-1.256-3.541-0.536-0.353-1.129-0.621-1.707-0.889-0.31-0.141-0.409-0.31-0.325-0.621 0.071-0.24 0.127-0.48 0.183-0.72 0.127-0.536 0.254-1.086 0.395-1.693-0.578-0.141-1.101-0.268-1.693-0.409-0.24 0.945-0.48 1.82-0.72 2.765-0.494-0.113-0.903-0.212-1.383-0.325 0.212-0.959 0.423-1.862 0.621-2.794-0.31-0.085-0.522-0.155-0.734-0.212-0.945-0.226-0.931-0.381-1.185 0.705-0.155 0.621-0.325 1.228-0.494 1.919-1.199-0.296-2.314-0.564-3.513-0.861-0.155 0.649-0.296 1.199-0.423 1.707 0.099 0.085 0.113 0.127 0.155 0.141 0.325 0.099 0.635 0.183 0.959 0.282 0.818 0.254 1.030 0.621 0.832 1.453-0.282 1.171-0.578 2.342-0.875 3.513-0.282 1.115-0.55 2.215-0.832 3.33-0.282 1.157-0.409 1.227-1.538 0.959-0.141-0.028-0.282-0.099-0.423-0.085-0.127 0.014-0.31 0.071-0.367 0.169-0.254 0.536-0.48 1.072-0.748 1.679 0.324 0.099 0.536 0.169 0.762 0.226 0.607 0.155 1.213 0.296 1.82 0.451 0.931 0.24 0.931 0.24 0.705 1.157-0.155 0.635-0.31 1.284-0.48 1.989 0.593 0.141 1.101 0.268 1.679 0.409 0.254-0.974 0.508-1.862 0.762-2.836 0.48 0.127 0.903 0.24 1.369 0.367-0.226 0.988-0.437 1.891-0.663 2.85 0.48 0.127 0.889 0.226 1.284 0.325 0.31 0.071 0.466-0.071 0.536-0.367 0.071-0.325 0.169-0.649 0.24-0.974 0.113-0.466 0.24-0.917 0.353-1.411 0.31 0.028 0.55 0.071 0.804 0.071 0.72 0.028 1.453 0.113 2.173 0.071 1.439-0.085 2.469-0.804 3.034-2.145 0.198-0.48 0.339-0.988 0.423-1.496 0.183-1.072-0.198-1.961-1.044-2.638-0.198-0.127-0.395-0.268-0.621-0.437z"></path>
<path d="M13.63 20.035c0.31-1.227 0.593-2.37 0.903-3.513 0.028-0.113 0.296-0.254 0.423-0.226 1.129 0.226 2.243 0.48 3.217 1.129 0.254 0.169 0.494 0.395 0.663 0.649 0.536 0.79 0.254 1.862-0.593 2.3-0.212 0.113-0.466 0.198-0.705 0.226-1.34 0.169-2.582-0.141-3.908-0.564z"></path>
<path d="M15.026 14.406c0.296-1.157 0.578-2.272 0.861-3.429 1.185 0.183 2.272 0.423 3.161 1.157 0.494 0.409 0.663 0.945 0.508 1.566-0.155 0.649-0.593 1.044-1.242 1.157-1.101 0.183-2.159-0.071-3.287-0.451z"></path>
</svg>
