<!-- Generated by IcoMoon.io -->
<svg version="1.1" xmlns="http://www.w3.org/2000/svg" width="32" height="32" viewBox="0 0 32 32">
<title>BTCBOX</title>
<path d="M22.434 29.884h-3.725c-0.367 0.014-0.677-0.268-0.691-0.649 0 0 0 0 0 0v-15.337c0.014-0.367 0.325-0.663 0.691-0.649 0 0 0 0 0 0h3.725c0.367-0.014 0.677 0.268 0.691 0.649 0 0 0 0 0 0v15.337c-0.014 0.367-0.325 0.663-0.691 0.649 0 0 0 0 0 0z"></path>
<path d="M31.309 29.884h-3.725c-0.367 0.014-0.677-0.268-0.691-0.649 0 0 0 0 0 0v-26.074c0.014-0.367 0.325-0.663 0.691-0.649 0 0 0 0 0 0h3.725c0.367-0.014 0.677 0.268 0.691 0.649 0 0 0 0 0 0v26.074c-0.014 0.367-0.325 0.663-0.691 0.649 0 0 0 0 0 0z"></path>
<path d="M13.545 29.884h-3.711c-0.367 0.028-0.691-0.254-0.72-0.621 0-0.014 0-0.014 0-0.028v-8.847c0.014-0.367 0.325-0.663 0.691-0.649 0 0 0 0 0 0h3.725c0.367-0.014 0.677 0.268 0.691 0.649 0 0 0 0 0 0v8.847c-0.014 0.367-0.31 0.649-0.677 0.649z"></path>
<path d="M4.67 29.884h-3.711c-0.367 0.014-0.677-0.268-0.691-0.649 0 0 0 0 0 0v-19.132c0-0.367 0.31-0.663 0.691-0.649 0 0 0 0 0 0h3.725c0.353 0.014 0.635 0.296 0.649 0.649v19.132c-0.028 0.353-0.31 0.635-0.663 0.649z"></path>
</svg>
