<?xml version="1.0" encoding="utf-8"?>
<!-- Generator: Adobe Illustrator 22.0.1, SVG Export Plug-In . SVG Version: 6.00 Build 0)  -->
<svg version="1.1" id="Layer_1" xmlns="http://www.w3.org/2000/svg" xmlns:xlink="http://www.w3.org/1999/xlink" x="0px" y="0px"
	 viewBox="0 0 226.8 226.8" style="enable-background:new 0 0 226.8 226.8;" xml:space="preserve">
<style type="text/css">
	.st0{stroke:#FFFFFF;stroke-miterlimit:10;}
</style>
<g transform="translate(0-115.87)">
	<path class="st0" d="M125.6,266.7c57.6-17.5,37-76.2,0-78.4c9.4,0,17.1-26.5,17.1-59.3c90.4,6.3,132.9,152.9-2.7,198.7
		C140.9,315.8,135.9,282.5,125.6,266.7"/>
	<path class="st0" d="M0,249.3c67.5,0,122.2-53.8,122.2-120.3H59.1c0.1,32.6-26.3,59.2-59,59.3H0V249.3z M82.6,238.3
		C65.5,253.4,56,261.2,9.2,268.7c27.6,0,49.9,27.3,49.9,61h63.1C122.2,319.5,120.1,268.5,82.6,238.3L82.6,238.3L82.6,238.3z"/>
</g>
</svg>
