<!-- Generated by IcoMoon.io -->
<svg version="1.1" xmlns="http://www.w3.org/2000/svg" width="32" height="32" viewBox="0 0 32 32">
<title>BTCD</title>
<path d="M17.721 21.281c8.127-2.469 5.22-10.751 0-11.062 1.326 0 2.413-3.739 2.413-8.367 12.755 0.889 18.751 21.573-0.381 28.035 0.127-1.679-0.578-6.377-2.032-8.607"></path>
<path d="M0 18.826c9.524 0 17.242-7.591 17.242-16.974h-8.903c0.014 4.6-3.711 8.353-8.325 8.367h-0.014v8.607zM11.654 17.274c-2.413 2.131-3.753 3.231-10.356 4.289 3.894 0 7.041 3.852 7.041 8.607h8.903c0-1.439-0.296-8.635-5.587-12.896v0 0z"></path>
</svg>
