<!-- Generated by IcoMoon.io -->
<svg version="1.1" xmlns="http://www.w3.org/2000/svg" width="32" height="32" viewBox="0 0 32 32">
<title>BTCP</title>
<path d="M32.254 15.915c-0.042 8.988-7.309 16.141-16.339 16.085-8.79-0.056-15.972-7.393-15.915-16.254 0.056-8.974 7.365-16.071 16.48-16 8.649 0.056 15.831 7.407 15.774 16.169zM12.303 27.485c0.071-0.212 0.113-0.325 0.141-0.451 0.832-3.231 1.679-6.448 2.469-9.693 0.155-0.607 0.381-0.734 0.945-0.564 0.508 0.155 1.044 0.198 1.566 0.268 1.961 0.226 3.88 0.226 5.813-0.451 2.286-0.79 3.189-4.487 1.072-6.194-0.705-0.578-1.538-1.044-2.384-1.397-0.677-0.268-0.804-0.564-0.593-1.213 0.268-0.861 0.437-1.75 0.663-2.667-0.72-0.169-1.369-0.339-2.060-0.508-0.31 1.185-0.593 2.286-0.889 3.429-0.437-0.099-0.79-0.198-1.157-0.254-0.48-0.071-0.621-0.268-0.48-0.762 0.268-0.931 0.48-1.877 0.734-2.878-0.705-0.169-1.355-0.325-2.060-0.494-0.31 1.213-0.607 2.342-0.917 3.527-0.776-0.183-1.467-0.353-2.145-0.522-0.705-0.169-1.397-0.353-2.145-0.536-0.071 0.254-0.141 0.466-0.198 0.677-0.127 0.494-0.24 0.974-0.381 1.524 0.48 0.127 0.903 0.226 1.326 0.339 1.072 0.31 1.354 0.79 1.086 1.862-0.663 2.653-1.312 5.319-1.975 7.972-0.367 1.467-0.169 2.215-2.427 1.51-0.155-0.056-0.494 0.014-0.55 0.127-0.339 0.677-0.621 1.383-0.945 2.159 1.312 0.325 2.497 0.649 3.697 0.917 0.508 0.113 0.621 0.339 0.48 0.832-0.268 0.945-0.48 1.919-0.734 2.935 0.72 0.183 1.383 0.353 2.046 0.508zM16.198 28.444c0.254-1.016 0.536-1.947 0.72-2.892 0.113-0.593 0.395-0.635 0.917-0.593 1.115 0.099 2.258 0.212 3.358 0.099 3.485-0.381 4.713-5.051 3.16-7.041-0.325-0.423-0.593-0.621-1.199-0.423-0.847 0.268-1.764 0.367-2.653 0.522-0.226 0.042-0.451 0.056-0.72 0.085 0.085 0.127 0.113 0.183 0.155 0.226 0.677 0.635 0.917 1.397 0.607 2.286-0.31 0.875-1.016 1.298-1.877 1.34-0.832 0.042-1.665-0.085-2.497-0.099-0.212 0-0.564 0.127-0.593 0.254-0.494 1.877-0.945 3.767-1.425 5.728 0.677 0.183 1.34 0.339 2.046 0.508z"></path>
<path d="M16.762 9.961c1.312 0.522 2.483 0.889 3.57 1.439 0.917 0.466 1.171 1.312 0.945 2.187-0.226 0.861-0.889 1.453-1.905 1.425-1.213-0.028-2.427-0.24-3.767-0.381 0.395-1.608 0.748-3.019 1.157-4.67z"></path>
</svg>
