<?xml version="1.0" encoding="utf-8"?>
<!-- Generator: Adobe Illustrator 22.1.0, SVG Export Plug-In . SVG Version: 6.00 Build 0)  -->
<svg version="1.1" id="Layer_1" xmlns="http://www.w3.org/2000/svg" xmlns:xlink="http://www.w3.org/1999/xlink" x="0px" y="0px"
	 viewBox="0 0 226.8 226.8" style="enable-background:new 0 0 226.8 226.8;" xml:space="preserve">
<g>
	<path d="M228.6,112.8c-0.3,63.7-51.8,114.4-115.8,114C50.5,226.4-0.4,174.4,0,111.6C0.4,48,52.2-2.3,116.8-1.8
		C178.1-1.4,229,50.7,228.6,112.8z M87.2,194.8c0.5-1.5,0.8-2.3,1-3.2c5.9-22.9,11.9-45.7,17.5-68.7c1.1-4.3,2.7-5.2,6.7-4
		c3.6,1.1,7.4,1.4,11.1,1.9c13.9,1.6,27.5,1.6,41.2-3.2c16.2-5.6,22.6-31.8,7.6-43.9c-5-4.1-10.9-7.4-16.9-9.9
		c-4.8-1.9-5.7-4-4.2-8.6c1.9-6.1,3.1-12.4,4.7-18.9c-5.1-1.2-9.7-2.4-14.6-3.6c-2.2,8.4-4.2,16.2-6.3,24.3
		c-3.1-0.7-5.6-1.4-8.2-1.8c-3.4-0.5-4.4-1.9-3.4-5.4c1.9-6.6,3.4-13.3,5.2-20.4c-5-1.2-9.6-2.3-14.6-3.5c-2.2,8.6-4.3,16.6-6.5,25
		c-5.5-1.3-10.4-2.5-15.2-3.7c-5-1.2-9.9-2.5-15.2-3.8c-0.5,1.8-1,3.3-1.4,4.8c-0.9,3.5-1.7,6.9-2.7,10.8c3.4,0.9,6.4,1.6,9.4,2.4
		C90,63.6,92,67,90.1,74.6c-4.7,18.8-9.3,37.7-14,56.5c-2.6,10.4-1.2,15.7-17.2,10.7c-1.1-0.4-3.5,0.1-3.9,0.9
		c-2.4,4.8-4.4,9.8-6.7,15.3c9.3,2.3,17.7,4.6,26.2,6.5c3.6,0.8,4.4,2.4,3.4,5.9c-1.9,6.7-3.4,13.6-5.2,20.8
		C77.8,192.5,82.5,193.7,87.2,194.8z M114.8,201.6c1.8-7.2,3.8-13.8,5.1-20.5c0.8-4.2,2.8-4.5,6.5-4.2c7.9,0.7,16,1.5,23.8,0.7
		c24.7-2.7,33.4-35.8,22.4-49.9c-2.3-3-4.2-4.4-8.5-3c-6,1.9-12.5,2.6-18.8,3.7c-1.6,0.3-3.2,0.4-5.1,0.6c0.6,0.9,0.8,1.3,1.1,1.6
		c4.8,4.5,6.5,9.9,4.3,16.2c-2.2,6.2-7.2,9.2-13.3,9.5c-5.9,0.3-11.8-0.6-17.7-0.7c-1.5,0-4,0.9-4.2,1.8
		c-3.5,13.3-6.7,26.7-10.1,40.6C105.1,199.3,109.8,200.4,114.8,201.6z"/>
	<path d="M118.8,70.6c9.3,3.7,17.6,6.3,25.3,10.2c6.5,3.3,8.3,9.3,6.7,15.5c-1.6,6.1-6.3,10.3-13.5,10.1c-8.6-0.2-17.2-1.7-26.7-2.7
		C113.4,92.3,115.9,82.3,118.8,70.6z"/>
</g>
</svg>
