<!-- Generated by IcoMoon.io -->
<svg version="1.1" xmlns="http://www.w3.org/2000/svg" width="32" height="32" viewBox="0 0 32 32">
<title>BTCTURK</title>
<path d="M27.57 10.286c-1.199 0.945-2.243 1.764-3.287 2.596-6.25 4.952-12.501 9.905-18.751 14.857-1.326 1.058-2.667 2.102-3.979 3.16-0.296 0.24-0.578 0.466-0.917 0.071-0.31-0.367-0.621-0.72-0.183-1.213 1.467-1.679 2.935-3.358 4.388-5.037 2.469-2.836 4.924-5.658 7.393-8.494 2.427-2.78 4.854-5.559 7.28-8.339 0.79-0.917 1.58-1.834 2.37-2.751 0.071-0.085 0.127-0.198 0.268-0.437-0.522 0-0.945-0.014-1.355 0-0.381 0.014-0.536-0.155-0.536-0.522 0-1.044 0.014-2.074 0-3.118 0-0.395 0.198-0.508 0.564-0.508 3.146 0.014 6.279-0.014 9.425 0.014 1.058 0.014 1.679 0.677 1.693 1.75 0.014 2.991 0 5.982 0.014 8.974 0 0.494-0.212 0.621-0.649 0.607-0.974-0.014-1.947-0.028-2.935 0-0.55 0.014-0.79-0.169-0.734-0.734-0.014-0.198-0.056-0.423-0.071-0.875z"></path>
<path d="M1.961 31.365c0.635-0.508 1.27-1.030 1.905-1.538 0.974-0.776 1.933-1.566 2.949-2.3 0.282-0.198 0.677-0.339 1.030-0.339 5.855-0.014 11.711-0.014 17.566-0.014 1.524 0 2.032-0.522 2.032-2.060 0-3.922 0.014-7.859-0.014-11.781 0-0.635 0.141-0.861 0.804-0.832 1.058 0.056 2.116 0.028 3.189 0.014 0.409-0.014 0.55 0.127 0.55 0.536-0.014 5.63 0 11.245-0.014 16.875 0 0.875-0.649 1.51-1.566 1.623-0.183 0.028-0.381 0.014-0.578 0.014-9.016 0-18.032 0-27.062 0.014-0.24 0-0.494-0.014-0.734-0.028-0.014-0.071-0.042-0.127-0.056-0.183z"></path>
<path d="M0.042 29.023c0-0.254 0-0.494 0-0.748 0-8.621 0.014-17.227-0.014-25.848 0-1.312 0.847-2.004 1.989-2.004 5.63 0.014 11.245 0.014 16.875 0 0.607 0 0.762 0.198 0.734 0.762-0.042 1.002-0.042 1.989 0 2.991 0.014 0.536-0.169 0.677-0.691 0.677-4.134-0.014-8.282-0.014-12.416-0.014-1.383 0-1.947 0.564-1.947 1.961 0 5.418-0.014 10.822 0.014 16.24 0 0.691-0.155 1.256-0.635 1.778-1.27 1.397-2.497 2.85-3.739 4.275-0.056-0.028-0.113-0.056-0.169-0.071z"></path>
</svg>
