<!-- Generated by IcoMoon.io -->
<svg version="1.1" xmlns="http://www.w3.org/2000/svg" width="32" height="32" viewBox="0 0 32 32">
<title>BTCTRADEIM</title>
<path d="M15.887 31.873c-8.72 0.071-15.972-7.238-15.887-16.085 0.085-8.691 7.351-15.887 16.127-15.788 8.635 0.099 15.817 7.295 15.774 16.071-0.056 8.607-7.224 15.929-16.014 15.802zM30.081 15.972c0.212-7.704-6.434-14.152-14.011-14.208-7.732-0.056-14.265 6.392-14.307 14.109-0.042 7.732 6.476 14.208 14.095 14.25 7.817 0.042 14.406-6.533 14.222-14.152z"></path>
<path d="M20.233 15.633c0.099 0.056 0.198 0.141 0.31 0.198 1.453 0.635 2.116 2.145 1.933 3.739-0.198 1.764-1.072 2.78-2.808 3.217-0.494 0.127-1.002 0.169-1.51 0.212-0.466 0.028-0.691 0.226-0.663 0.705 0.014 0.296 0 0.593 0 0.889-0.014 0.72-0.113 0.818-0.861 0.804-0.705-0.014-0.762-0.071-0.776-0.804-0.014-0.325 0.042-0.663-0.028-0.959-0.042-0.183-0.24-0.409-0.409-0.451-0.325-0.085-0.494 0.141-0.494 0.466-0.014 0.353-0.028 0.705-0.014 1.044 0.014 0.593-0.325 0.72-0.832 0.705-0.663-0.014-0.776-0.085-0.818-0.691-0.014-0.268-0.028-0.536 0-0.804 0.042-0.55-0.169-0.79-0.734-0.762-0.748 0.028-1.51 0.014-2.258 0-0.804-0.014-0.847-0.056-0.861-0.889 0-0.409 0-0.804 0-1.213 0-0.367 0.099-0.649 0.522-0.635 0.593 0.014 0.621-0.367 0.607-0.804 0-1.933 0-3.866 0-5.813 0-0.451-0.014-0.917 0-1.369s-0.113-0.734-0.621-0.705c-0.381 0.014-0.522-0.226-0.508-0.564 0-0.028 0-0.056 0-0.085 0.014-2.399-0.24-1.933 1.862-1.975 0.48-0.014 0.974-0.014 1.453 0 0.367 0 0.536-0.169 0.536-0.536 0-0.48 0.014-0.974 0.014-1.453 0-0.494 0.325-0.564 0.705-0.55 0.395 0.014 0.861-0.085 0.917 0.508 0.028 0.423 0.014 0.861 0.028 1.284 0.014 0.353-0.028 0.734 0.508 0.734 0.494-0.014 0.437-0.381 0.437-0.691 0.014-0.423 0-0.861 0.014-1.284 0-0.635 0.466-0.536 0.861-0.55s0.776 0.014 0.776 0.564c0 0.423 0.014 0.861 0 1.284-0.014 0.451 0.127 0.677 0.621 0.748 0.578 0.085 1.157 0.226 1.707 0.437 1.27 0.466 1.905 1.453 1.989 2.765 0.071 1.227-0.169 2.37-1.369 3.048-0.071 0.042-0.127 0.099-0.183 0.155-0.056-0.014-0.042 0.014-0.056 0.085zM14.758 18.653c0 1.848 0 1.848 1.608 1.707 0.931-0.085 1.566-0.818 1.496-1.75-0.085-0.917-0.494-1.721-2.3-1.608-0.804 0.056-0.804 0.028-0.804 1.411 0 0.085 0 0.169 0 0.24zM15.704 11.824c-0.903-0.014-0.931 0.028-0.945 0.945 0 0.451-0.014 0.917 0.014 1.369 0.014 0.169 0.056 0.395 0.183 0.494 0.437 0.339 1.862-0.028 2.102-0.536 0.437-0.945 0.169-2.413-1.354-2.272z"></path>
</svg>
