<!-- Generated by IcoMoon.io -->
<svg version="1.1" xmlns="http://www.w3.org/2000/svg" width="32" height="32" viewBox="0 0 32 32">
<title>BTG</title>
<path d="M15.153 0h1.665c1.735 0.113 3.471 0.466 5.079 1.115 3.993 1.58 7.295 4.84 8.917 8.818 2.215 5.305 1.27 11.781-2.441 16.198-2.511 3.076-6.194 5.164-10.13 5.7-3.697 0.522-7.563-0.268-10.723-2.258-2.441-1.51-4.444-3.697-5.757-6.25-1.665-3.217-2.173-7.012-1.439-10.554 0.79-3.922 3.132-7.506 6.406-9.82 2.441-1.764 5.418-2.765 8.423-2.949M14.166 0.72c-4.868 0.564-9.34 3.626-11.668 7.929-1.566 2.878-2.201 6.25-1.721 9.496 0.536 3.894 2.653 7.549 5.757 9.961 2.356 1.862 5.291 3.005 8.282 3.231 3.4 0.268 6.885-0.635 9.707-2.554 3.457-2.286 5.912-6.039 6.617-10.13 0.409-2.413 0.268-4.924-0.48-7.252-1.058-3.386-3.344-6.392-6.335-8.31-2.963-1.961-6.631-2.808-10.159-2.37v0z"></path>
<path d="M14.547 7.026c2.78-0.466 5.771 0.452 7.76 2.441 1.778 1.679 2.808 4.12 2.765 6.561 0.028 2.427-1.002 4.854-2.78 6.504-1.919 1.919-4.755 2.822-7.436 2.469-2.526-0.31-4.896-1.735-6.335-3.838-1.594-2.258-2.032-5.249-1.199-7.873 0.974-3.231 3.894-5.757 7.224-6.265M15.097 7.577c0 0.79 0 1.594 0 2.384 0.395 0 0.79 0 1.185 0 0-0.818 0-1.637 0-2.441-0.381 0.014-0.79 0.028-1.185 0.056M17.961 10.004c1.044 0.141 2.173 0.296 3.005 1.002 1.27 1.143 1.115 3.541-0.451 4.374 0.931 0.212 1.862 0.832 2.088 1.82 0.296 1.284 0.056 2.822-0.974 3.739-1.016 0.847-2.413 0.945-3.668 1.072 0 0.748 0 1.481 0 2.229 2.667-0.649 4.952-2.638 5.926-5.192 0.931-2.37 0.705-5.15-0.607-7.323-1.143-1.975-3.104-3.414-5.319-3.965 0 0.748 0 1.496 0 2.243M10.018 9.975c1.157 0.056 2.3 0.042 3.457 0.042 0-0.705 0-1.397 0-2.102-1.284 0.409-2.441 1.157-3.457 2.060M9.877 10.018c-0.339 0.635-0.861 1.129-1.199 1.764-1.354 2.314-1.51 5.277-0.381 7.704 0.974 2.173 2.907 3.866 5.178 4.6 0-0.705 0-1.397 0-2.102-1.157-0.014-2.314 0.028-3.471-0.028 0.014-0.649 0.169-1.27 0.381-1.877 0.564-0.014 1.157 0.085 1.707-0.099 0.325-0.268 0.226-0.72 0.24-1.086-0.014-2.102 0.014-4.205-0.014-6.307 0.014-0.339-0.198-0.705-0.55-0.776-0.578-0.113-1.185-0.071-1.764-0.071-0.071-0.48-0.071-0.945-0.085-1.425l0.198 0.071c-0.056-0.127-0.155-0.254-0.24-0.367M15.153 11.866v3.104c1.030-0.014 2.187 0.099 3.090-0.508 0.748-0.494 0.705-1.735-0.071-2.187-0.917-0.522-2.018-0.381-3.019-0.409M15.153 16.635v3.443c1.284-0.099 2.709 0.113 3.824-0.663 0.79-0.522 0.705-1.834-0.127-2.286-1.115-0.663-2.469-0.451-3.697-0.494M15.097 22.025c0 0.79 0 1.594 0 2.384 0.409 0.028 0.832 0.042 1.242 0.056 0-0.818 0-1.623 0-2.441h-1.242z"></path>
<path d="M14.25 1.552c2.808-0.296 5.7 0.127 8.226 1.425 3.245 1.594 5.827 4.444 7.111 7.817 1.298 3.386 1.27 7.252-0.071 10.61-2.046 5.305-7.464 9.115-13.164 9.115-3.344 0.127-6.716-1.002-9.34-3.090-2.808-2.173-4.741-5.418-5.333-8.917-0.607-3.457 0.071-7.139 1.919-10.13 2.257-3.739 6.307-6.335 10.653-6.829M13.771 6.25c-2.286 0.508-4.36 1.862-5.757 3.739-1.538 2.032-2.243 4.67-1.933 7.196 0.296 2.709 1.778 5.249 3.965 6.857 2.060 1.538 4.727 2.229 7.266 1.877 3.146-0.381 6.039-2.384 7.506-5.192 1.101-2.004 1.397-4.388 1.002-6.617-0.508-2.709-2.201-5.178-4.557-6.603-2.215-1.397-4.966-1.834-7.492-1.256z"></path>
</svg>
