<?xml version="1.0" encoding="utf-8"?>
<!-- Generator: Adobe Illustrator 22.0.1, SVG Export Plug-In . SVG Version: 6.00 Build 0)  -->
<svg version="1.1" id="Layer_1" xmlns="http://www.w3.org/2000/svg" xmlns:xlink="http://www.w3.org/1999/xlink" x="0px" y="0px"
	 viewBox="0 0 226.8 226.8" style="enable-background:new 0 0 226.8 226.8;" xml:space="preserve">
<style type="text/css">
	.st0{stroke:#FFFFFF;stroke-miterlimit:10;}
</style>
<g>
	<path class="st0" d="M107.4,0h11.8c12.3,0.8,24.6,3.3,36,7.9c28.3,11.2,51.7,34.3,63.2,62.5c15.7,37.6,9,83.5-17.3,114.8
		c-17.8,21.8-43.9,36.6-71.8,40.4c-26.2,3.7-53.6-1.9-76-16c-17.3-10.7-31.5-26.2-40.8-44.3C0.7,142.5-2.9,115.6,2.3,90.5
		c5.6-27.8,22.2-53.2,45.4-69.6C65,8.4,86.1,1.3,107.4,0 M100.4,5.1c-34.5,4-66.2,25.7-82.7,56.2C6.6,81.7,2.1,105.6,5.5,128.6
		c3.8,27.6,18.8,53.5,40.8,70.6c16.7,13.2,37.5,21.3,58.7,22.9c24.1,1.9,48.8-4.5,68.8-18.1c24.5-16.2,41.9-42.8,46.9-71.8
		c2.9-17.1,1.9-34.9-3.4-51.4c-7.5-24-23.7-45.3-44.9-58.9C151.4,8,125.4,2,100.4,5.1L100.4,5.1z"/>
	<path class="st0" d="M103.1,49.8c19.7-3.3,40.9,3.2,55,17.3c12.6,11.9,19.9,29.2,19.6,46.5c0.2,17.2-7.1,34.4-19.7,46.1
		c-13.6,13.6-33.7,20-52.7,17.5c-17.9-2.2-34.7-12.3-44.9-27.2c-11.3-16-14.4-37.2-8.5-55.8C58.8,71.3,79.5,53.4,103.1,49.8
		 M107,53.7c0,5.6,0,11.3,0,16.9c2.8,0,5.6,0,8.4,0c0-5.8,0-11.6,0-17.3C112.7,53.4,109.8,53.5,107,53.7 M127.3,70.9
		c7.4,1,15.4,2.1,21.3,7.1c9,8.1,7.9,25.1-3.2,31c6.6,1.5,13.2,5.9,14.8,12.9c2.1,9.1,0.4,20-6.9,26.5c-7.2,6-17.1,6.7-26,7.6
		c0,5.3,0,10.5,0,15.8c18.9-4.6,35.1-18.7,42-36.8c6.6-16.8,5-36.5-4.3-51.9C156.9,69.1,143,58.9,127.3,55
		C127.3,60.3,127.3,65.6,127.3,70.9 M71,70.7c8.2,0.4,16.3,0.3,24.5,0.3c0-5,0-9.9,0-14.9C86.4,59,78.2,64.3,71,70.7 M70,71
		c-2.4,4.5-6.1,8-8.5,12.5c-9.6,16.4-10.7,37.4-2.7,54.6c6.9,15.4,20.6,27.4,36.7,32.6c0-5,0-9.9,0-14.9c-8.2-0.1-16.4,0.2-24.6-0.2
		c0.1-4.6,1.2-9,2.7-13.3c4-0.1,8.2,0.6,12.1-0.7c2.3-1.9,1.6-5.1,1.7-7.7c-0.1-14.9,0.1-29.8-0.1-44.7c0.1-2.4-1.4-5-3.9-5.5
		c-4.1-0.8-8.4-0.5-12.5-0.5c-0.5-3.4-0.5-6.7-0.6-10.1l1.4,0.5C71.3,72.7,70.6,71.8,70,71 M107.4,84.1v22
		c7.3-0.1,15.5,0.7,21.9-3.6c5.3-3.5,5-12.3-0.5-15.5C122.3,83.3,114.5,84.3,107.4,84.1 M107.4,117.9v24.4
		c9.1-0.7,19.2,0.8,27.1-4.7c5.6-3.7,5-13-0.9-16.2C125.7,116.7,116.1,118.2,107.4,117.9 M107,156.1c0,5.6,0,11.3,0,16.9
		c2.9,0.2,5.9,0.3,8.8,0.4c0-5.8,0-11.5,0-17.3H107z"/>
</g>
<path class="st0" d="M101,11c19.9-2.1,40.4,0.9,58.3,10.1c23,11.3,41.3,31.5,50.4,55.4c9.2,24,9,51.4-0.5,75.2
	c-14.5,37.6-52.9,64.6-93.3,64.6c-23.7,0.9-47.6-7.1-66.2-21.9C29.8,179,16.1,156,11.9,131.2c-4.3-24.5,0.5-50.6,13.6-71.8
	C41.5,32.9,70.2,14.5,101,11 M97.6,44.3c-16.2,3.6-30.9,13.2-40.8,26.5c-10.9,14.4-15.9,33.1-13.7,51c2.1,19.2,12.6,37.2,28.1,48.6
	c14.6,10.9,33.5,15.8,51.5,13.3c22.3-2.7,42.8-16.9,53.2-36.8c7.8-14.2,9.9-31.1,7.1-46.9c-3.6-19.2-15.6-36.7-32.3-46.8
	C135,43.3,115.5,40.2,97.6,44.3z"/>
</svg>
