<?xml version="1.0" encoding="utf-8"?>
<!-- Generator: Adobe Illustrator 22.0.1, SVG Export Plug-In . SVG Version: 6.00 Build 0)  -->
<svg version="1.1" id="Layer_1" xmlns="http://www.w3.org/2000/svg" xmlns:xlink="http://www.w3.org/1999/xlink" x="0px" y="0px"
	 viewBox="0 0 226.8 226.8" style="enable-background:new 0 0 226.8 226.8;" xml:space="preserve">
<style type="text/css">
	.st0{opacity:0.8;}
	.st1{stroke:#FFFFFF;stroke-miterlimit:10;}
</style>
<g class="st0">
	<path class="st1" d="M78.5,35l61.7,61.7L87.9,0L44.1,44.2L78.5,35z"/>
	<path class="st1" d="M148.3,191.8l-61.7-61.7l52.3,96.7l43.7-44.2L148.3,191.8"/>
	<path class="st1" d="M35,148.3l39.6-83.9L14,125L0,138.9l44.2,43.7L35,148.3"/>
	<path class="st1" d="M191.9,78.5l-61.7,61.7l96.7-52.3l-44.2-43.8L191.9,78.5"/>
</g>
<g class="st0">
	<path class="st1" d="M162.4,74.5L101.8,14L87.9,0l52.3,96.7L162.4,74.5z"/>
	<path class="st1" d="M64.4,152.3l74.5,74.5l-52.3-96.7L64.4,152.3"/>
	<path class="st1" d="M96.7,86.5L74.5,64.4L35,148.3L96.7,86.5"/>
	<path class="st1" d="M152.3,162.4l74.5-74.5l-96.7,52.3L152.3,162.4"/>
</g>
<g class="st0">
	<path class="st1" d="M18.6,18.6L0,87.9l37.9-20.3L18.6,18.6z"/>
	<path class="st1" d="M208.2,208.2l18.6-69.3l-37.9,20.3L208.2,208.2"/>
	<path class="st1" d="M18.6,208.2l69.3,18.6l-20.3-37.9L18.6,208.2z"/>
	<path class="st1" d="M208.2,18.6L138.9,0l20.3,37.9L208.2,18.6z"/>
</g>
<g class="st0">
	<path class="st1" d="M44.1,44.2L87.9,0L18.6,18.6l19.3,49L44.1,44.2z"/>
	<path class="st1" d="M182.6,182.6l-43.7,44.2l69.3-18.6l-19.3-49L182.6,182.6"/>
	<path class="st1" d="M44.2,182.6L0,138.9l18.6,69.3l49-19.3L44.2,182.6z"/>
	<path class="st1" d="M182.6,44.1l44.2,43.8l-18.6-69.3l-49,19.3L182.6,44.1"/>
</g>
<g class="st0">
	<path class="st1" d="M37.9,67.6L0,87.9l8.8,8.8L37.9,67.6z"/>
	<path class="st1" d="M188.9,159.2l37.9-20.3l-8.8-8.8L188.9,159.2"/>
	<path class="st1" d="M87.9,226.8l8.8-8.8l-29.1-29.1L87.9,226.8"/>
	<path class="st1" d="M138.9,0l-8.8,8.8l29.1,29.1L138.9,0z"/>
</g>
</svg>
