<!-- Generated by IcoMoon.io -->
<svg version="1.1" xmlns="http://www.w3.org/2000/svg" width="32" height="32" viewBox="0 0 32 32">
<title>BTM</title>
<path opacity="0.8" fill="#000" d="M11.076 4.938l8.705 8.705-7.379-13.644-6.18 6.236 4.854-1.298z"></path>
<path opacity="0.8" fill="#000" d="M20.924 27.062l-8.705-8.705 7.379 13.644 6.166-6.236-4.84 1.298"></path>
<path opacity="0.8" fill="#000" d="M4.938 20.924l5.587-11.838-8.55 8.55-1.975 1.961 6.236 6.166-1.298-4.84"></path>
<path opacity="0.8" fill="#000" d="M27.076 11.076l-8.705 8.705 13.644-7.379-6.236-6.18 1.298 4.854"></path>
<path opacity="0.8" fill="#000" d="M22.914 10.511l-8.55-8.536-1.961-1.975 7.379 13.644 3.132-3.132z"></path>
<path opacity="0.8" fill="#000" d="M9.086 21.489l10.511 10.511-7.379-13.644-3.132 3.132"></path>
<path opacity="0.8" fill="#000" d="M13.644 12.205l-3.132-3.118-5.573 11.838 8.705-8.72"></path>
<path opacity="0.8" fill="#000" d="M21.489 22.914l10.511-10.511-13.644 7.379 3.132 3.132"></path>
<path opacity="0.8" fill="#000" d="M2.624 2.624l-2.624 9.778 5.347-2.864-2.723-6.914z"></path>
<path opacity="0.8" fill="#000" d="M29.376 29.376l2.624-9.778-5.347 2.864 2.723 6.914"></path>
<path opacity="0.8" fill="#000" d="M2.624 29.376l9.778 2.624-2.864-5.347-6.914 2.723z"></path>
<path opacity="0.8" fill="#000" d="M29.376 2.624l-9.778-2.624 2.864 5.347 6.914-2.723z"></path>
<path opacity="0.8" fill="#000" d="M6.222 6.236l6.18-6.236-9.778 2.624 2.723 6.914 0.875-3.302z"></path>
<path opacity="0.8" fill="#000" d="M25.764 25.764l-6.166 6.236 9.778-2.624-2.723-6.914-0.889 3.302"></path>
<path opacity="0.8" fill="#000" d="M6.236 25.764l-6.236-6.166 2.624 9.778 6.914-2.723-3.302-0.889z"></path>
<path opacity="0.8" fill="#000" d="M25.764 6.222l6.236 6.18-2.624-9.778-6.914 2.723 3.302 0.875"></path>
<path opacity="0.8" fill="#000" d="M5.347 9.538l-5.347 2.864 1.242 1.242 4.106-4.106z"></path>
<path opacity="0.8" fill="#000" d="M26.653 22.462l5.347-2.864-1.242-1.242-4.106 4.106"></path>
<path opacity="0.8" fill="#000" d="M12.402 32l1.242-1.242-4.106-4.106 2.864 5.347"></path>
<path opacity="0.8" fill="#000" d="M19.598 0l-1.242 1.242 4.106 4.106-2.864-5.347z"></path>
</svg>
