<?xml version="1.0" encoding="utf-8"?>
<!-- Generator: Adobe Illustrator 22.1.0, SVG Export Plug-In . SVG Version: 6.00 Build 0)  -->
<svg version="1.1" id="Layer_1" xmlns="http://www.w3.org/2000/svg" xmlns:xlink="http://www.w3.org/1999/xlink" x="0px" y="0px"
	 viewBox="0 0 250 250" style="enable-background:new 0 0 250 250;" xml:space="preserve">
<g>
	<path d="M157.7,95.4c9.3,6.7,18.6,12,26.2,19.1c25.2,24,31.1,60.5,15.7,91.7c-15.3,30.9-48.2,47.8-83.7,42.9
		c-31.9-4.4-59.5-31.7-65.2-64.8c-0.6-3.7-0.6-7.6-0.6-11.4c0-37.7,0-75.4,0-113.1c0-26,14.2-46.7,38.3-55.9
		c22.6-8.7,49.7-2.2,65.5,15.7c16.4,18.6,19.8,45.5,8.3,67.7C160.7,90.1,159.1,92.9,157.7,95.4z"/>
</g>
</svg>
