<!-- Generated by IcoMoon.io -->
<svg version="1.1" xmlns="http://www.w3.org/2000/svg" width="32" height="32" viewBox="0 0 32 32">
<title>BTO</title>
<path d="M20.186 12.211c1.19 0.858 2.381 1.536 3.354 2.445 3.226 3.072 3.981 7.744 2.010 11.738-1.958 3.955-6.17 6.118-10.714 5.491-4.083-0.563-7.616-4.058-8.346-8.294-0.077-0.474-0.077-0.973-0.077-1.459 0-4.826 0-9.651 0-14.477 0-3.328 1.818-5.978 4.902-7.155 2.893-1.114 6.362-0.282 8.384 2.010 2.099 2.381 2.534 5.824 1.062 8.666-0.192 0.358-0.397 0.717-0.576 1.037z"></path>
</svg>
