<!-- Generated by IcoMoon.io -->
<svg version="1.1" xmlns="http://www.w3.org/2000/svg" width="32" height="32" viewBox="0 0 32 32">
<title>BTS</title>
<path d="M13.053 20.059l-6.894-6.894v8.286h6.353c0.065-0.491 0.262-0.966 0.54-1.392zM12.513 22.81h-6.353c0.147 2.243 1.048 4.258 2.407 5.846l4.486-4.536c-0.278-0.376-0.475-0.835-0.54-1.31zM22.534 14.639c-1.589-1.392-3.602-2.293-5.846-2.407v6.353c0.507 0.082 0.966 0.278 1.359 0.54l4.487-4.487zM19.096 24.055l4.487 4.487c1.359-1.588 2.21-3.569 2.358-5.764h-6.386c-0.082 0.459-0.229 0.884-0.458 1.277zM19.554 21.451h6.353c-0.147-2.243-1.048-4.258-2.407-5.846l-4.487 4.503c0.279 0.377 0.458 0.851 0.541 1.343zM9.533 29.589c1.588 1.392 3.602 2.292 5.846 2.407v-6.353c-0.508-0.082-0.966-0.278-1.359-0.54l-4.487 4.487zM16.688 25.643v6.353c2.243-0.147 4.257-1.048 5.846-2.44l-4.454-4.454c-0.426 0.262-0.885 0.458-1.392 0.54zM6.16 11.119c1.703 1.703 7.041 7.090 7.941 7.975 0.393-0.23 0.819-0.426 1.245-0.508v-10.382l-9.17-8.204c-0.016 0-0.016 10.807-0.016 11.119z"></path>
</svg>
