<?xml version="1.0" encoding="utf-8"?>
<!-- Generator: Adobe Illustrator 22.0.1, SVG Export Plug-In . SVG Version: 6.00 Build 0)  -->
<svg version="1.1" id="Layer_1" xmlns="http://www.w3.org/2000/svg" xmlns:xlink="http://www.w3.org/1999/xlink" x="0px" y="0px"
	 viewBox="0 0 226.8 226.8" style="enable-background:new 0 0 226.8 226.8;" xml:space="preserve">
<style type="text/css">
	.st0{stroke:#FFFFFF;stroke-miterlimit:10;}
	.st1{font-family:'Arial-BoldMT';}
	.st2{font-size:22.1058px;}
</style>
<path class="st0" d="M113.3,216.6c-8.4,0-16.8-1-25-3.1c-13.5-3.4-26-9.3-37-17.6c-10.7-8-19.6-17.9-26.5-29.4s-11.4-24-13.5-37.2
	c-2.1-13.6-1.5-27.4,1.9-40.9s9.3-26,17.6-37c8-10.7,17.9-19.6,29.4-26.5s24-11.4,37.2-13.5c13.6-2.1,27.4-1.5,40.9,1.9
	s26,9.3,37,17.6c10.7,8,19.6,17.9,26.5,29.4s11.4,24,13.5,37.2c2.1,13.6,1.5,27.4-1.8,40.9l-0.9,3.6h-0.1
	c-3.5,12.1-9.1,23.3-16.6,33.4c-8,10.7-17.9,19.6-29.4,26.5s-24,11.4-37.2,13.5C123.9,216.2,118.6,216.6,113.3,216.6z M113.2,19.7
	c-4.8,0-9.6,0.4-14.4,1.1c-12,1.9-23.3,6-33.7,12.3s-19.4,14.4-26.7,24c-7.5,10-12.9,21.3-16,33.6s-3.6,24.8-1.7,37.2
	c1.9,12,6,23.3,12.3,33.7s14.4,19.4,24,26.7c10,7.5,21.3,12.9,33.6,16s24.8,3.6,37.2,1.7c12-1.9,23.3-6,33.8-12.3
	c10.4-6.3,19.4-14.4,26.7-24c7.5-10,12.9-21.3,16-33.6l0.1-0.6c2.9-12.1,3.5-24.4,1.5-36.6c-1.9-12-6-23.3-12.3-33.8
	c-6.3-10.4-14.4-19.4-24-26.7c-10-7.5-21.3-12.9-33.6-16C128.4,20.6,120.8,19.7,113.2,19.7z"/>
<g>
	<path class="st0" d="M162.6,97.5c2.2-14.9-9.1-22.9-24.6-28.2l5-20.2L130.7,46l-4.9,19.6c-3.2-0.8-6.5-1.6-9.8-2.3l4.9-19.8
		l-12.3-3.1l-5,20.2l-24.8-6.1l-3.3,13.1c0,0,9.1,2.1,8.9,2.2c5,1.2,5.9,4.5,5.7,7.1l-13.8,55.2c-0.6,1.5-2.2,3.8-5.6,2.9
		c0.1,0.2-8.9-2.2-8.9-2.2l-6,14.2l24.7,6.2l-5.1,20.4l12.3,3.1l5-20.2c3.4,0.9,6.6,1.7,9.8,2.5l-5,20.1l12.3,3.1l5.1-20.4
		c20.9,4,36.7,2.4,43.3-16.6c5.3-15.2-0.3-24-11.3-29.8C154.9,113.6,161,108.4,162.6,97.5 M134.5,136.8c-3.8,15.2-29.5,7-37.8,4.9
		l6.7-27C111.8,116.8,138.5,120.9,134.5,136.8 M138.3,97.2c-3.5,13.9-24.8,6.8-31.8,5.1l6.1-24.5C119.6,79.6,142,82.8,138.3,97.2"/>
	<text transform="matrix(0.2792 -0.9602 0.9602 0.2792 55.9537 131.6812)" class="st0 st1 st2">CORE</text>
	<text transform="matrix(0.2792 -0.9602 0.9602 0.2792 55.9537 131.6812)" class="st0 st1 st2">CORE</text>
</g>
</svg>
