<!-- Generated by IcoMoon.io -->
<svg version="1.1" xmlns="http://www.w3.org/2000/svg" width="32" height="32" viewBox="0 0 32 32">
<title>BTX</title>
<path d="M15.986 30.561c-1.185 0-2.37-0.141-3.527-0.437-1.905-0.48-3.668-1.312-5.22-2.483-1.51-1.129-2.765-2.526-3.739-4.148s-1.608-3.386-1.905-5.249c-0.296-1.919-0.212-3.866 0.268-5.771s1.312-3.668 2.483-5.22c1.129-1.51 2.526-2.765 4.148-3.739s3.386-1.608 5.249-1.905c1.919-0.296 3.866-0.212 5.771 0.268s3.668 1.312 5.22 2.483c1.51 1.129 2.765 2.526 3.739 4.148s1.608 3.386 1.905 5.249c0.296 1.919 0.212 3.866-0.254 5.771l-0.127 0.508h-0.014c-0.494 1.707-1.284 3.287-2.342 4.713-1.129 1.51-2.526 2.765-4.148 3.739s-3.386 1.608-5.249 1.905c-0.762 0.113-1.51 0.169-2.258 0.169zM15.972 2.78c-0.677 0-1.354 0.056-2.032 0.155-1.693 0.268-3.287 0.847-4.755 1.735s-2.737 2.032-3.767 3.386c-1.058 1.411-1.82 3.005-2.257 4.741s-0.508 3.499-0.24 5.249c0.268 1.693 0.847 3.287 1.735 4.755s2.032 2.737 3.386 3.767c1.411 1.058 3.005 1.82 4.741 2.258s3.499 0.508 5.249 0.24c1.693-0.268 3.287-0.847 4.769-1.735 1.467-0.889 2.737-2.032 3.767-3.386 1.058-1.411 1.82-3.005 2.258-4.741l0.014-0.085c0.409-1.707 0.494-3.443 0.212-5.164-0.268-1.693-0.847-3.287-1.735-4.769-0.889-1.467-2.032-2.737-3.386-3.767-1.411-1.058-3.005-1.82-4.741-2.257-1.072-0.254-2.145-0.381-3.217-0.381z"></path>
<path d="M22.942 13.757c0.31-2.102-1.284-3.231-3.471-3.979l0.705-2.85-1.735-0.437-0.691 2.765c-0.451-0.113-0.917-0.226-1.383-0.325l0.691-2.794-1.735-0.437-0.705 2.85-3.499-0.861-0.466 1.848c0 0 1.284 0.296 1.256 0.31 0.705 0.169 0.832 0.635 0.804 1.002l-1.947 7.788c-0.085 0.212-0.31 0.536-0.79 0.409 0.014 0.028-1.256-0.31-1.256-0.31l-0.847 2.004 3.485 0.875-0.72 2.878 1.735 0.437 0.705-2.85c0.48 0.127 0.931 0.24 1.383 0.353l-0.705 2.836 1.735 0.437 0.72-2.878c2.949 0.564 5.178 0.339 6.109-2.342 0.748-2.145-0.042-3.386-1.594-4.205 1.129-0.254 1.989-0.988 2.215-2.526M18.977 19.302c-0.536 2.145-4.162 0.988-5.333 0.691l0.945-3.81c1.185 0.296 4.952 0.875 4.388 3.118M19.513 13.714c-0.494 1.961-3.499 0.959-4.487 0.72l0.861-3.457c0.988 0.254 4.148 0.705 3.626 2.737"></path>
</svg>
