<?xml version="1.0" encoding="utf-8"?>
<!-- Generator: Adobe Illustrator 22.1.0, SVG Export Plug-In . SVG Version: 6.00 Build 0)  -->
<svg version="1.1" id="Layer_1" xmlns="http://www.w3.org/2000/svg" xmlns:xlink="http://www.w3.org/1999/xlink" x="0px" y="0px"
	 viewBox="0 0 226.8 226.8" style="enable-background:new 0 0 226.8 226.8;" xml:space="preserve">
<g>
	<path d="M1.8,122c16,0.1,32.1,0.1,48.6,0.1c1.7-8.1,3.7-15.7,4.9-23.4c0.9-5.7,3.1-8,9.3-7.7c14,0.6,28.1,0.2,42.9,0.2
		c2.8-14.7,5.5-29.3,8.3-43.9c1.9-10.2,3.8-20.3,5.5-30.5c0.6-3.6,1.9-5.3,5.9-5.2c21.8,0.5,43.6,0.7,65.3,1c2.2,0,4.4,0.5,6.5,0.9
		c22.8,4.7,31.1,15.5,28.9,38.6c-0.7,7.4-2.4,14.8-4.6,21.9c-4.4,14.1-14,23.6-28.4,29c1,0.7,1.5,1.1,2.2,1.5
		c14.2,7,20.3,16.6,18.6,32.3c-1.1,10.7-3,21.4-6,31.7c-7,24.2-25.3,36.1-48.8,37.8c-24.5,1.8-49.2,0.4-74.8,0.4
		c5.3-28.7,10.6-57.5,15.9-86.7c-5.4,0-10.6,0-16.2,0c-2.2,9-4.3,17.9-6.7,27.7C53.2,139.2,27.4,131,0,122.4
		C0.6,122.1,1.1,122,1.8,122z M129.7,178.9c8.9,0,16.8,0.3,24.7-0.1c8-0.4,15.1-3.7,17.2-11.9c2.8-10.8,4.9-21.8,6.1-32.9
		c0.8-7.7-3-12.2-10.7-13.4c-7.8-1.1-15.7-1-23.6-1.1c-1.1,0-3,1.8-3.3,3C136.6,141.1,133.2,159.7,129.7,178.9z M155.3,40.2
		c-3.1,16.9-6.2,33.6-9.3,50.3c7.5,0,14.4,0.4,21.1-0.1c9.3-0.7,15.6-6,18.1-14.9c1.9-6.9,3.2-14.2,3.9-21.3c0.8-8.6-3.4-13.4-12-14
		C170,39.9,163,40.2,155.3,40.2z"/>
</g>
</svg>
