<!-- Generated by IcoMoon.io -->
<svg version="1.1" xmlns="http://www.w3.org/2000/svg" width="32" height="32" viewBox="0 0 32 32">
<title>BURST</title>
<path d="M0.254 17.213c2.257 0.014 4.529 0.014 6.857 0.014 0.24-1.143 0.522-2.215 0.691-3.302 0.127-0.804 0.437-1.129 1.312-1.086 1.975 0.085 3.965 0.028 6.053 0.028 0.395-2.074 0.776-4.134 1.171-6.194 0.268-1.439 0.536-2.864 0.776-4.303 0.085-0.508 0.268-0.748 0.832-0.734 3.076 0.071 6.152 0.099 9.213 0.141 0.31 0 0.621 0.071 0.917 0.127 3.217 0.663 4.388 2.187 4.078 5.446-0.099 1.044-0.339 2.088-0.649 3.090-0.621 1.989-1.975 3.33-4.007 4.092 0.141 0.099 0.212 0.155 0.31 0.212 2.004 0.988 2.864 2.342 2.624 4.557-0.155 1.51-0.423 3.019-0.847 4.473-0.988 3.414-3.57 5.093-6.885 5.333-3.457 0.254-6.942 0.056-10.554 0.056 0.748-4.049 1.496-8.113 2.243-12.233-0.762 0-1.496 0-2.286 0-0.31 1.27-0.607 2.526-0.945 3.908-3.654-1.199-7.295-2.356-11.161-3.57 0.085-0.042 0.155-0.056 0.254-0.056zM18.3 25.242c1.256 0 2.37 0.042 3.485-0.014 1.129-0.056 2.131-0.522 2.427-1.679 0.395-1.524 0.691-3.076 0.861-4.642 0.113-1.086-0.423-1.721-1.51-1.891-1.101-0.155-2.215-0.141-3.33-0.155-0.155 0-0.423 0.254-0.466 0.423-0.494 2.624-0.974 5.249-1.467 7.958zM21.912 5.672c-0.437 2.384-0.875 4.741-1.312 7.097 1.058 0 2.032 0.056 2.977-0.014 1.312-0.099 2.201-0.847 2.554-2.102 0.268-0.974 0.451-2.004 0.55-3.005 0.113-1.213-0.48-1.891-1.693-1.975-1.002-0.042-1.989 0-3.076 0z"></path>
</svg>
