<!-- Generated by IcoMoon.io -->
<svg version="1.1" xmlns="http://www.w3.org/2000/svg" width="32" height="32" viewBox="0 0 32 32">
<title>BXINTH</title>
<path d="M3.414 10.173c0.79 0 1.637-0.042 2.455 0.014 1.425 0.085 2.907 0.028 4.261 0.409 3.485 0.974 5.644 4.346 5.319 7.972-0.296 3.358-3.118 6.236-6.547 6.758-4.543 0.705-8.691-3.048-8.734-7.083-0.042-3.795-0.028-7.577-0.028-11.358 0-0.155 0.056-0.296 0.071-0.437 1.665-0.056 2.54 0.945 3.203 3.725zM6.138 13.093c0 0 0 0 0 0-0.748 0-1.496 0-2.243 0-0.395 0-0.677 0.113-0.677 0.578 0.028 1.679-0.071 3.386 0.127 5.037 0.254 2.145 2.511 3.852 4.614 3.725 2.54-0.155 4.388-2.201 4.346-4.811-0.028-2.582-1.891-4.473-4.487-4.529-0.564-0.014-1.115 0-1.679 0z"></path>
<path d="M19.88 17.481c-1.242-1.016-2.201-2.159-2.61-3.64-0.254-0.889-0.325-1.834-0.466-2.751-0.071-0.522 0.198-0.748 0.705-0.705 0.099 0.014 0.183 0 0.282 0 0.621 0.028 1.383-0.155 1.82 0.141 0.325 0.226 0.24 1.058 0.325 1.623 0.353 2.328 2.356 3.965 4.755 3.88 2.243-0.071 4.078-1.905 4.261-4.205 0.113-1.467 0.113-1.467 1.594-1.467 1.693 0 1.693 0 1.524 1.721-0.183 1.877-0.974 3.471-2.314 4.783-0.198 0.198-0.409 0.381-0.677 0.635 0.198 0.226 0.367 0.423 0.55 0.607 1.947 1.82 2.61 4.106 2.483 6.702-0.028 0.494-0.254 0.663-0.705 0.649-0.593 0-1.185 0-1.778 0-0.466 0-0.677-0.212-0.663-0.691 0.014-0.466 0.014-0.931-0.014-1.411-0.141-2.441-2.173-4.402-4.515-4.374-2.384 0.028-4.388 1.961-4.529 4.388-0.028 0.466-0.028 0.931 0 1.411 0.014 0.48-0.212 0.677-0.677 0.677-0.127 0-0.254 0.014-0.381 0-2.356-0.056-2.159 0.451-2.046-2.272 0.113-2.173 0.847-3.372 3.076-5.7z"></path>
</svg>
