<?xml version="1.0" encoding="utf-8"?>
<!-- Generator: Adobe Illustrator 22.1.0, SVG Export Plug-In . SVG Version: 6.00 Build 0)  -->
<svg version="1.1" id="Layer_1" xmlns="http://www.w3.org/2000/svg" xmlns:xlink="http://www.w3.org/1999/xlink" x="0px" y="0px"
	 viewBox="0 0 226.8 226.8" style="enable-background:new 0 0 226.8 226.8;" xml:space="preserve">
<g>
	<path d="M215.3,113.6c0,14.5-0.1,29,0,43.4c0.1,9.9-4.1,17-12.5,21.9c-25.9,14.9-51.8,29.9-77.9,44.7c-7.6,4.3-15.5,4.3-23.2-0.2
		C76,208.6,50.3,193.8,24.5,179c-8.5-4.9-12.7-11.9-12.6-21.8c0.2-29.3,0.3-58.7,0.1-88c-0.1-9.6,4.1-16.4,12-20.9
		c26.4-15.3,52.8-30.4,79.4-45.4c7.2-4.1,14.9-3.4,22.1,0.6c21.5,12.2,42.9,24.5,64.4,36.7c4.4,2.5,8.7,5,13,7.5
		c8.3,4.7,12.4,11.8,12.3,21.4C215.2,83.9,215.2,98.7,215.3,113.6C215.3,113.6,215.3,113.6,215.3,113.6z M52.3,65.5
		c-2.2-0.6-4.2-1.1-6.1-1.7c-5-1.5-10.6,0.6-12.9,5c-2.5,4.6-1.7,10.7,2.7,13.5c4,2.6,4.5,5.8,4.3,9.8c-0.1,2.9-0.2,5.8,0,8.7
		c0.2,3.2-1.1,4.7-4.3,5.6c-7.1,2-10.1,6.1-9.9,12.4c0.2,5.9,3.6,9.6,10.3,11.5c1.3,0.4,3.5,1.4,3.5,2.2c0,4.9,2.3,10.2-2.9,14.4
		c-4.1,3.3-5.2,8.1-2.2,13c2.9,4.8,7.3,6.1,12.5,4.9c5.2-1.1,7.6-4.6,7.6-9.8c0-5.3-3-9.6-8.6-10.7c-3.4-0.7-4.7-2.2-4.3-5.4
		c0.5-3.9-1.9-8.7,3.9-10.9c6.2-2.3,13-0.4,16.8,5.3c1.4,2.1,2.3,4.5,3.5,6.6c3.4,6.1,10,9,16.7,7.4c6.4-1.5,11-7.1,11.3-13.7
		c0.4-10.7-9.9-17.5-21.2-13.8c-5.6,1.8-11.7,4.2-16.7,0.4c-5.3-4.1-9.5-9.8-14-14.9c-0.4-0.5-0.3-1.5-0.3-2.3
		c0-4.4-0.1-8.9,0.1-13.3c0.1-1.4,0.6-3.8,1.5-4C54.1,82.4,54.9,75,52.4,66C52.3,65.7,52.3,65.3,52.3,65.5z M134.8,44.6
		c0.4,9.7-7.3,15.7-18.5,14.4c-9.4-1-16.9,4.5-18,13.1c-0.9,7,5.1,14.9,12.1,16.1c8.9,1.5,16.1-3.8,17.7-13.2
		c1.7-9.6,4.9-17.3,18.4-17.3c7.8,0,12.1-4.6,12.4-11.6c0.3-6.7-5.5-12.8-12.2-12.7C140.6,33.5,134.6,39.2,134.8,44.6z M79.3,108.3
		c6-0.1,11.6-3.8,13.6-9.1c2.4-6.1,0.9-12.1-4.1-16.9c-12-11.5-12.2-12.4-6.1-27.4c2.3-5.5,0.7-10.8-4.3-14.2
		c-5.6-3.9-13.9-2.3-17.4,3.3c-3.8,6.1-2.1,13.3,4.1,17.1c6.9,4.2,8.8,11.3,5.1,18.5c-1.1,2.2-2.8,4.2-3.9,6.4
		C60.7,96.5,67.7,108.4,79.3,108.3z M110,167.2c1.2,0,2.3,0,3.5,0c8.1-0.1,14.3-5.7,14.8-13.3c0.6-8.4-4.3-14.6-12.6-16
		c-7.7-1.3-14.8,4.4-16.6,13.3c-2.8,13.4-5.5,15.9-18.9,17.5c-5.8,0.7-10.4,2.6-11.8,9.2c-1.4,6.5,3.1,13.3,10,14.6
		c6.1,1.1,13.2-4,13.9-10.1C93.6,170.4,97.8,166.7,110,167.2z M147.9,78.9c-8.9-0.1-15.6,6.6-15,15.3c0.6,10.4,10.6,16,21.9,12.2
		c12.1-4.1,16.4-2.7,23.6,7.5c0.8,1.1,1.6,2.2,2.6,3.1c4.6,4.1,10.1,4.2,15.2,0.4c4.7-3.5,6.1-9.2,3.6-14.4
		c-2.7-5.7-9.7-8.4-15.7-5.6c-5.9,2.8-11.7,3.5-16.7-1c-2.8-2.5-4.5-6.2-6.4-9.5C158.1,81.6,153.9,78.8,147.9,78.9z M163.5,133
		c-0.9-7.6-6.2-13.7-13.4-14.8c-6.8-1.1-13.6,3-16.1,9.6c-2.5,6.7-0.6,12,6.2,17.6c9.3,7.8,10.4,13.1,5.5,23.7
		c-1.4,3-2.3,6.7-2.1,10c0.3,4,7.4,8.8,12,8.6c5.3-0.2,9.4-2.8,11.1-7.8c1.8-5.1,0.8-10-3.6-13.5c-9.9-7.9-10.7-13.6-3.9-24.1
		C161,139.4,162.1,136.1,163.5,133z M193.7,71.3c-0.1-5.6-5.3-10.5-11-10.4c-6.4,0.1-10.7,4.7-10.5,11.2c0.2,6.2,5.5,10.9,12.1,10.6
		C189,82.3,193.8,76.6,193.7,71.3z M101.2,33.2c-0.2,5.2,4.5,9.8,10.4,10.1c5.2,0.3,11.5-4.5,11.8-9c0.5-6.1-5-12.4-11-12.8
		C106.6,21.2,101.6,26.5,101.2,33.2z M184.5,162.7c5.9-0.1,10.7-4.9,10.6-10.7c-0.1-5.4-5.2-10.6-10.3-10.5
		c-6.2,0.1-11.3,5.1-11.2,10.9C173.7,158.8,178,162.8,184.5,162.7z M125.6,193.5c0-5.8-4.6-10.2-10.9-10.1c-5.4,0-10.5,4.4-10.6,9.4
		c-0.2,6.5,4.7,11.6,11.1,11.6C121,204.3,125.6,199.5,125.6,193.5z"/>
</g>
</svg>
