<!-- Generated by IcoMoon.io -->
<svg version="1.1" xmlns="http://www.w3.org/2000/svg" width="32" height="32" viewBox="0 0 32 32">
<title>BZNT</title>
<path d="M30.377 16.028c0 2.046-0.014 4.092 0 6.123 0.014 1.397-0.578 2.399-1.764 3.090-3.654 2.102-7.309 4.219-10.991 6.307-1.072 0.607-2.187 0.607-3.273-0.028-3.626-2.088-7.252-4.176-10.892-6.265-1.199-0.691-1.792-1.679-1.778-3.076 0.028-4.134 0.042-8.282 0.014-12.416-0.014-1.354 0.578-2.314 1.693-2.949 3.725-2.159 7.45-4.289 11.203-6.406 1.016-0.578 2.102-0.48 3.118 0.085 3.034 1.721 6.053 3.457 9.086 5.178 0.621 0.353 1.227 0.705 1.834 1.058 1.171 0.663 1.75 1.665 1.735 3.019 0 2.088 0 4.176 0.014 6.279 0 0 0 0 0 0zM7.379 9.242c-0.31-0.085-0.593-0.155-0.861-0.24-0.705-0.212-1.496 0.085-1.82 0.705-0.353 0.649-0.24 1.51 0.381 1.905 0.564 0.367 0.635 0.818 0.607 1.383-0.014 0.409-0.028 0.818 0 1.227 0.028 0.451-0.155 0.663-0.607 0.79-1.002 0.282-1.425 0.861-1.397 1.75 0.028 0.832 0.508 1.355 1.453 1.623 0.183 0.056 0.494 0.198 0.494 0.31 0 0.691 0.324 1.439-0.409 2.032-0.578 0.466-0.734 1.143-0.31 1.834 0.409 0.677 1.030 0.861 1.764 0.691 0.734-0.155 1.072-0.649 1.072-1.383 0-0.748-0.423-1.355-1.213-1.51-0.48-0.099-0.663-0.31-0.607-0.762 0.071-0.55-0.268-1.227 0.55-1.538 0.875-0.325 1.834-0.056 2.37 0.748 0.198 0.296 0.325 0.635 0.494 0.931 0.48 0.861 1.411 1.27 2.356 1.044 0.903-0.212 1.552-1.002 1.594-1.933 0.056-1.51-1.397-2.469-2.991-1.947-0.79 0.254-1.651 0.593-2.356 0.056-0.748-0.578-1.34-1.383-1.975-2.102-0.056-0.071-0.042-0.212-0.042-0.325 0-0.621-0.014-1.256 0.014-1.877 0.014-0.198 0.085-0.536 0.212-0.564 1.481-0.466 1.594-1.51 1.242-2.78-0.014-0.042-0.014-0.099-0.014-0.071zM19.019 6.293c0.056 1.369-1.030 2.215-2.61 2.032-1.326-0.141-2.384 0.635-2.54 1.848-0.127 0.988 0.72 2.102 1.707 2.272 1.256 0.212 2.272-0.536 2.497-1.862 0.24-1.354 0.691-2.441 2.596-2.441 1.101 0 1.707-0.649 1.75-1.637 0.042-0.945-0.776-1.806-1.721-1.792-0.861 0.014-1.707 0.818-1.679 1.58zM11.189 15.28c0.847-0.014 1.637-0.536 1.919-1.284 0.339-0.861 0.127-1.707-0.578-2.384-1.693-1.623-1.721-1.75-0.861-3.866 0.325-0.776 0.099-1.524-0.607-2.004-0.79-0.55-1.961-0.325-2.455 0.466-0.536 0.861-0.296 1.877 0.578 2.413 0.974 0.593 1.242 1.594 0.72 2.61-0.155 0.31-0.395 0.593-0.55 0.903-0.79 1.481 0.198 3.16 1.834 3.146zM15.52 23.591c0.169 0 0.325 0 0.494 0 1.143-0.014 2.018-0.804 2.088-1.877 0.085-1.185-0.607-2.060-1.778-2.258-1.086-0.183-2.088 0.621-2.342 1.877-0.395 1.891-0.776 2.243-2.667 2.469-0.818 0.099-1.467 0.367-1.665 1.298-0.198 0.917 0.437 1.877 1.411 2.060 0.861 0.155 1.862-0.564 1.961-1.425 0.183-1.693 0.776-2.215 2.497-2.145zM20.868 11.132c-1.256-0.014-2.201 0.931-2.116 2.159 0.085 1.467 1.496 2.258 3.090 1.721 1.707-0.578 2.314-0.381 3.33 1.058 0.113 0.155 0.226 0.31 0.367 0.437 0.649 0.578 1.425 0.593 2.145 0.056 0.663-0.494 0.861-1.298 0.508-2.032-0.381-0.804-1.369-1.185-2.215-0.79-0.832 0.395-1.651 0.494-2.356-0.141-0.395-0.353-0.635-0.875-0.903-1.34-0.409-0.748-1.002-1.143-1.848-1.129zM23.069 18.765c-0.127-1.072-0.875-1.933-1.891-2.088-0.959-0.155-1.919 0.423-2.272 1.355-0.353 0.945-0.085 1.693 0.875 2.483 1.312 1.101 1.467 1.848 0.776 3.344-0.198 0.423-0.325 0.945-0.296 1.411 0.042 0.564 1.044 1.242 1.693 1.213 0.748-0.028 1.326-0.395 1.566-1.101 0.254-0.72 0.113-1.411-0.508-1.905-1.397-1.115-1.51-1.919-0.55-3.4 0.254-0.409 0.409-0.875 0.607-1.312zM27.33 10.060c-0.014-0.79-0.748-1.481-1.552-1.467-0.903 0.014-1.51 0.663-1.481 1.58 0.028 0.875 0.776 1.538 1.707 1.496 0.663-0.056 1.34-0.861 1.326-1.608zM14.279 4.684c-0.028 0.734 0.635 1.383 1.467 1.425 0.734 0.042 1.623-0.635 1.665-1.27 0.071-0.861-0.705-1.75-1.552-1.806-0.818-0.042-1.524 0.705-1.58 1.651zM26.032 22.956c0.832-0.014 1.51-0.691 1.496-1.51-0.014-0.762-0.734-1.496-1.453-1.481-0.875 0.014-1.594 0.72-1.58 1.538 0.014 0.903 0.621 1.467 1.538 1.453zM17.721 27.302c0-0.818-0.649-1.439-1.538-1.425-0.762 0-1.481 0.621-1.496 1.326-0.028 0.917 0.663 1.637 1.566 1.637 0.818-0.014 1.467-0.691 1.467-1.538z"></path>
</svg>
