<!-- Generated by IcoMoon.io -->
<svg version="1.1" xmlns="http://www.w3.org/2000/svg" width="32" height="32" viewBox="0 0 32 32">
<title>C20</title>
<path d="M29.939 16.038c0 2.483-0.013 4.966 0.013 7.45 0 0.397-0.115 0.627-0.461 0.819-4.378 2.509-8.742 5.030-13.107 7.565-0.269 0.154-0.486 0.166-0.768 0-4.365-2.534-8.73-5.056-13.107-7.565-0.333-0.192-0.448-0.41-0.448-0.781 0.013-5.018 0.013-10.022 0-15.040 0-0.397 0.128-0.627 0.474-0.819 4.352-2.509 8.704-5.018 13.056-7.552 0.307-0.179 0.512-0.154 0.806 0.013 4.352 2.522 8.704 5.030 13.069 7.539 0.346 0.192 0.474 0.422 0.474 0.819-0.013 2.522 0 5.043 0 7.552zM26.15 16.013c0-1.792-0.013-3.584 0.013-5.376 0-0.346-0.090-0.563-0.41-0.755-3.136-1.792-6.272-3.61-9.395-5.427-0.256-0.154-0.461-0.166-0.717-0.013-3.149 1.83-6.298 3.648-9.446 5.453-0.294 0.166-0.397 0.371-0.397 0.717 0.013 3.584 0.013 7.168 0 10.752 0 0.346 0.102 0.563 0.422 0.742 3.098 1.766 6.182 3.558 9.267 5.35 0.358 0.205 0.614 0.23 0.986 0.013 3.085-1.792 6.17-3.584 9.267-5.35 0.307-0.179 0.435-0.371 0.435-0.742-0.026-1.779-0.026-3.571-0.026-5.363z"></path>
<path d="M19.238 15.923c-0.026-0.947 0.115-1.971 0.614-2.906 0.589-1.114 1.626-1.613 2.637-1.28 0.666 0.218 1.139 0.678 1.421 1.293 0.87 1.984 0.883 3.994 0 5.965-0.371 0.845-1.037 1.395-2.035 1.395-0.986-0.013-1.613-0.576-2.048-1.395-0.41-0.781-0.589-1.728-0.589-3.072zM23.45 16.013c-0.166-0.986-0.282-2.010-0.512-3.021-0.115-0.538-0.397-1.114-1.075-1.114-0.691-0.013-0.883 0.576-1.101 1.101-0.013 0.026-0.026 0.064-0.038 0.090-0.499 1.971-0.512 3.93 0 5.901 0.154 0.576 0.384 1.216 1.114 1.216 0.742 0 0.998-0.653 1.126-1.242 0.23-0.96 0.333-1.92 0.486-2.931z"></path>
<path d="M15.616 20.237c-0.704 0-1.408 0-2.125 0-0.102 0-0.218-0.038-0.32-0.064 0.051-0.102 0.090-0.23 0.166-0.32 0.87-1.011 1.779-1.971 2.611-3.021 0.768-0.96 1.19-2.074 1.037-3.341-0.128-1.114-0.768-1.715-1.715-1.626-0.64 0.064-1.293 0.64-1.472 1.293-0.166 0.602 0.026 0.934 0.64 1.088 0.333 0.090 0.666 0.589 0.538 0.883-0.038 0.102-0.269 0.179-0.397 0.166-0.538-0.038-0.947-0.486-1.050-1.088-0.179-1.024 0.205-1.894 1.024-2.368 0.806-0.461 2.010-0.32 2.765 0.333 0.794 0.691 1.050 1.587 0.704 2.547-0.269 0.742-0.678 1.472-1.178 2.074-0.678 0.819-1.51 1.51-2.266 2.253-0.077 0.077-0.141 0.166-0.218 0.256 0.115 0.038 0.23 0.102 0.346 0.102 0.819 0.013 1.638-0.026 2.47 0.013 0.499 0.026 0.781-0.102 0.806-0.653 0-0.115 0.115-0.243 0.192-0.358 0.038 0.128 0.115 0.269 0.115 0.397-0.013 1.677 0.205 1.382-1.344 1.408-0.448 0.026-0.883 0.026-1.331 0.026z"></path>
<path d="M12.467 18.010c0.038 1.011-0.602 1.946-1.434 2.253-0.845 0.307-1.894 0-2.534-0.755-0.653-0.755-0.922-1.651-1.024-2.624-0.141-1.267-0.077-2.522 0.538-3.648 0.282-0.512 0.717-0.986 1.19-1.331 0.614-0.448 1.331-0.448 1.984 0.026 0.23 0.166 0.371 0.192 0.576-0.038 0.090-0.102 0.282-0.115 0.422-0.154 0.038 0.141 0.090 0.269 0.090 0.41 0.013 0.474 0.013 0.947 0 1.434 0 0.077-0.064 0.166-0.090 0.243-0.051-0.064-0.128-0.128-0.166-0.205-0.23-0.41-0.397-0.883-0.691-1.242-0.602-0.73-1.536-0.691-2.010 0.141-0.294 0.512-0.486 1.114-0.589 1.702-0.23 1.382-0.218 2.778 0.115 4.16 0.038 0.154 0.090 0.32 0.141 0.474 0.256 0.64 0.614 1.178 1.37 1.242s1.242-0.371 1.6-0.96c0.218-0.346 0.346-0.755 0.512-1.126z"></path>
</svg>
