<?xml version="1.0" encoding="utf-8"?>
<!-- Generator: Adobe Illustrator 22.1.0, SVG Export Plug-In . SVG Version: 6.00 Build 0)  -->
<svg version="1.1" id="Layer_1" xmlns="http://www.w3.org/2000/svg" xmlns:xlink="http://www.w3.org/1999/xlink" x="0px" y="0px"
	 viewBox="0 0 250 250" style="enable-background:new 0 0 250 250;" xml:space="preserve">
<g>
	<path d="M233.9,125.3c0,19.4-0.1,38.8,0.1,58.2c0,3.1-0.9,4.9-3.6,6.4c-34.2,19.6-68.3,39.3-102.4,59.1c-2.1,1.2-3.8,1.3-6,0
		c-34.1-19.8-68.2-39.5-102.4-59.1c-2.6-1.5-3.5-3.2-3.5-6.1c0.1-39.2,0.1-78.3,0-117.5c0-3.1,1-4.9,3.7-6.4
		C53.8,40.3,87.8,20.7,121.8,0.9c2.4-1.4,4-1.2,6.3,0.1c34,19.7,68,39.3,102.1,58.9c2.7,1.5,3.7,3.3,3.7,6.4
		C233.8,86,233.9,105.7,233.9,125.3z M204.3,125.1c0-14-0.1-28,0.1-42c0-2.7-0.7-4.4-3.2-5.9c-24.5-14-49-28.2-73.4-42.4
		c-2-1.2-3.6-1.3-5.6-0.1C97.6,49,73,63.2,48.4,77.3c-2.3,1.3-3.1,2.9-3.1,5.6c0.1,28,0.1,56,0,84c0,2.7,0.8,4.4,3.3,5.8
		c24.2,13.8,48.3,27.8,72.4,41.8c2.8,1.6,4.8,1.8,7.7,0.1c24.1-14,48.2-28,72.4-41.8c2.4-1.4,3.4-2.9,3.4-5.8
		C204.3,153.1,204.3,139.1,204.3,125.1z"/>
	<path d="M150.3,124.4c-0.2-7.4,0.9-15.4,4.8-22.7c4.6-8.7,12.7-12.6,20.6-10c5.2,1.7,8.9,5.3,11.1,10.1c6.8,15.5,6.9,31.2,0,46.6
		c-2.9,6.6-8.1,10.9-15.9,10.9c-7.7-0.1-12.6-4.5-16-10.9C151.7,142.3,150.3,134.9,150.3,124.4z M183.2,125.1
		c-1.3-7.7-2.2-15.7-4-23.6c-0.9-4.2-3.1-8.7-8.4-8.7c-5.4-0.1-6.9,4.5-8.6,8.6c-0.1,0.2-0.2,0.5-0.3,0.7c-3.9,15.4-4,30.7,0,46.1
		c1.2,4.5,3,9.5,8.7,9.5c5.8,0,7.8-5.1,8.8-9.7C181.2,140.5,182,133,183.2,125.1z"/>
	<path d="M122,158.1c-5.5,0-11,0-16.6,0c-0.8,0-1.7-0.3-2.5-0.5c0.4-0.8,0.7-1.8,1.3-2.5c6.8-7.9,13.9-15.4,20.4-23.6
		c6-7.5,9.3-16.2,8.1-26.1c-1-8.7-6-13.4-13.4-12.7c-5,0.5-10.1,5-11.5,10.1c-1.3,4.7,0.2,7.3,5,8.5c2.6,0.7,5.2,4.6,4.2,6.9
		c-0.3,0.8-2.1,1.4-3.1,1.3c-4.2-0.3-7.4-3.8-8.2-8.5c-1.4-8,1.6-14.8,8-18.5c6.3-3.6,15.7-2.5,21.6,2.6c6.2,5.4,8.2,12.4,5.5,19.9
		c-2.1,5.8-5.3,11.5-9.2,16.2c-5.3,6.4-11.8,11.8-17.7,17.6c-0.6,0.6-1.1,1.3-1.7,2c0.9,0.3,1.8,0.8,2.7,0.8
		c6.4,0.1,12.8-0.2,19.3,0.1c3.9,0.2,6.1-0.8,6.3-5.1c0-0.9,0.9-1.9,1.5-2.8c0.3,1,0.9,2.1,0.9,3.1c-0.1,13.1,1.6,10.8-10.5,11
		C128.9,158.1,125.5,158.1,122,158.1z"/>
	<path d="M97.4,140.7c0.3,7.9-4.7,15.2-11.2,17.6c-6.6,2.4-14.8,0-19.8-5.9c-5.1-5.9-7.2-12.9-8-20.5c-1.1-9.9-0.6-19.7,4.2-28.5
		c2.2-4,5.6-7.7,9.3-10.4c4.8-3.5,10.4-3.5,15.5,0.2c1.8,1.3,2.9,1.5,4.5-0.3c0.7-0.8,2.2-0.9,3.3-1.2c0.3,1.1,0.7,2.1,0.7,3.2
		c0.1,3.7,0.1,7.4,0,11.2c0,0.6-0.5,1.3-0.7,1.9c-0.4-0.5-1-1-1.3-1.6c-1.8-3.2-3.1-6.9-5.4-9.7c-4.7-5.7-12-5.4-15.7,1.1
		c-2.3,4-3.8,8.7-4.6,13.3c-1.8,10.8-1.7,21.7,0.9,32.5c0.3,1.2,0.7,2.5,1.1,3.7c2,5,4.8,9.2,10.7,9.7c5.9,0.5,9.7-2.9,12.5-7.5
		C95.1,146.8,96.1,143.6,97.4,140.7z"/>
</g>
</svg>
