<!-- Generated by IcoMoon.io -->
<svg version="1.1" xmlns="http://www.w3.org/2000/svg" width="32" height="32" viewBox="0 0 32 32">
<title>CAD</title>
<path d="M16.128 32c-8.819 0-16-7.181-16-16s7.181-16 16-16 16 7.181 16 16-7.181 16-16 16v0zM16.128 1.562c-7.962 0-14.438 6.477-14.438 14.438s6.477 14.438 14.438 14.438 14.438-6.477 14.438-14.438-6.477-14.438-14.438-14.438v0z"></path>
<path d="M22.669 14.451c0.435 0.128 0.858 0.243 1.267 0.371 0.858 0.269 1.613 0.691 2.189 1.382 0.333 0.397 0.55 0.845 0.64 1.357 0.358 2.278-0.96 4.109-3.264 4.506-0.269 0.051-0.538 0.077-0.87 0.128 0 0.448 0 0.909 0 1.395-0.371 0-0.678 0-1.050 0 0-0.448 0-0.909 0-1.395-1.446-0.166-2.701-0.589-3.494-1.843-0.435-0.691-0.742-1.779-0.666-2.394 0.768 0 1.536 0 2.342 0 0.051 1.152 0.614 1.894 1.766 2.189 0-1.178 0-2.304 0-3.469-0.538-0.166-1.062-0.333-1.6-0.512-0.64-0.218-1.229-0.55-1.664-1.075-1.075-1.306-0.806-3.494 0.563-4.621 0.614-0.499 1.318-0.768 2.086-0.909 0.192-0.038 0.371-0.064 0.614-0.115 0-0.397 0-0.806 0-1.242 0.371 0 0.691 0 1.062 0 0 0.41 0 0.806 0 1.229 0.346 0.077 0.64 0.128 0.922 0.205 1.587 0.435 2.598 1.395 2.854 3.072 0.013 0.102 0.013 0.218 0.026 0.358-0.806 0-1.587 0-2.419 0-0.102-0.525-0.243-1.050-0.755-1.37-0.154-0.090-0.346-0.141-0.576-0.23 0.026 1.050 0.026 1.997 0.026 2.982zM22.656 20.122c0.691-0.064 1.203-0.346 1.51-0.832 0.346-0.538 0.256-1.408-0.218-1.754-0.371-0.282-0.806-0.435-1.293-0.525 0 1.050 0 2.074 0 3.11zM21.53 14.144c0-0.87 0-1.728 0-2.573-0.794-0.038-1.37 0.461-1.421 1.19-0.064 0.781 0.461 1.306 1.421 1.382z"></path>
<path d="M16.627 13.85c-0.858 0-1.69 0-2.534 0-0.026-0.077-0.064-0.141-0.090-0.218-0.32-1.050-1.267-1.792-2.368-1.843-1.536-0.077-2.662 0.64-3.149 2.099-0.435 1.318-0.461 2.662 0.026 3.981 0.64 1.779 2.227 2.317 3.763 1.933 0.947-0.23 1.434-0.947 1.715-1.83 0.077-0.23 0.115-0.474 0.179-0.742 0.858 0 1.69 0 2.586 0-0.038 0.269-0.051 0.512-0.102 0.755-0.461 2.317-2.010 3.853-4.339 4.134-3.2 0.397-5.76-1.152-6.592-4.237-0.538-2.010-0.358-3.968 0.755-5.773 0.909-1.485 2.278-2.317 4.006-2.56 1.562-0.218 3.021 0.051 4.326 0.986 1.024 0.73 1.779 2.074 1.818 3.315z"></path>
</svg>
