<!-- Generated by IcoMoon.io -->
<svg version="1.1" xmlns="http://www.w3.org/2000/svg" width="32" height="32" viewBox="0 0 32 32">
<title>CAKE_WALLET</title>
<path d="M29.491 27.11c-0.397 0.358-0.768 0.717-1.165 1.050-3.29 2.701-7.078 3.904-11.315 3.622-7.232-0.461-13.389-6.016-14.528-13.171-0.909-5.722 0.806-10.624 5.056-14.554 2.522-2.342 5.568-3.661 9.011-3.981 4.608-0.435 8.666 0.896 12.173 3.904 0.806 0.691 0.806 0.691 0.064 1.434-1.203 1.19-2.406 2.368-3.597 3.571-0.205 0.205-0.333 0.243-0.589 0.026-2.624-2.33-5.658-3.072-9.050-2.176-3.661 0.973-6.426 4.352-6.797 8.128-0.448 4.557 2.432 8.896 6.976 10.061 3.187 0.819 6.067 0.141 8.602-1.984 0.653-0.55 0.435-0.602 1.075 0.038 1.216 1.19 2.419 2.381 3.635 3.584 0.154 0.128 0.282 0.269 0.448 0.448z"></path>
<path d="M22.899 11.994c-1.562 1.6-3.136 3.213-4.762 4.864-1.613-1.626-3.187-3.226-4.762-4.826-0.038 0.013-0.064 0.026-0.102 0.038-0.013 0.141-0.038 0.294-0.038 0.435 0 1.766 0 3.52 0 5.286 0 0.461-0.013 0.486-0.486 0.486-0.461 0-0.934 0-1.395 0-0.218 0-0.346-0.077-0.41-0.307-0.461-1.677-0.397-3.341 0.307-4.928 1.178-2.65 3.226-4.25 6.144-4.557 2.778-0.294 5.043 0.73 6.733 2.918 1.472 1.894 1.869 4.083 1.293 6.426-0.077 0.346-0.256 0.474-0.602 0.448-0.435-0.026-0.883-0.026-1.331 0-0.32 0.013-0.41-0.115-0.41-0.422 0.013-1.664 0-3.328 0-4.992 0-0.256 0-0.512 0-0.781-0.051-0.026-0.115-0.051-0.179-0.090z"></path>
<path d="M24.499 19.891c-1.254 2.202-3.904 3.712-6.694 3.546-2.547-0.154-4.531-1.331-6.016-3.533 0.218-0.013 0.346-0.026 0.474-0.026 0.742 0 1.485-0.013 2.227 0 0.307 0 0.422-0.102 0.422-0.41-0.013-1.024 0-2.035 0-3.059 0-0.128 0-0.256 0-0.486 0.179 0.166 0.282 0.256 0.371 0.346 0.858 0.858 1.715 1.702 2.56 2.573 0.23 0.243 0.397 0.256 0.64 0.013 0.858-0.883 1.741-1.754 2.611-2.624 0.077-0.077 0.166-0.154 0.333-0.294 0 0.218 0 0.346 0 0.474 0 0.973 0 1.946 0 2.906 0 0.563 0 0.563 0.55 0.563 0.691 0 1.395 0 2.086 0 0.128-0.013 0.256 0 0.435 0.013z"></path>
</svg>
