<!-- Generated by IcoMoon.io -->
<svg version="1.1" xmlns="http://www.w3.org/2000/svg" width="32" height="32" viewBox="0 0 32 32">
<title>CANN</title>
<path d="M32 16c0 8.847-7.168 16-16.014 16-8.832 0-15.986-7.168-15.986-16s7.153-15.986 15.986-16c8.847-0.014 16.014 7.153 16.014 16zM28.444 16.014c0-6.885-5.559-12.459-12.444-12.473-6.843 0-12.459 5.573-12.459 12.402-0.014 6.885 5.559 12.487 12.43 12.501 6.885 0.014 12.473-5.545 12.473-12.43zM16.339 3.019c-0.028-0.762-0.071-1.524-0.113-2.328-0.169 0.014-0.296 0.028-0.423 0.042 0 0.494 0 0.974 0 1.481-0.282-0.409-0.578-0.776-0.832-1.185-0.169-0.268-0.353-0.325-0.649-0.198 0.042 0.762 0.071 1.524 0.113 2.286 0.423 0.056 0.437 0.056 0.437-0.325s0-0.762 0-1.143c0.282 0.395 0.578 0.79 0.847 1.213 0.169 0.24 0.353 0.268 0.621 0.155zM12.642 2.681c-0.409-0.367-0.79-0.663-1.129-0.988-0.226-0.212-0.423-0.24-0.677-0.056 0.226 0.734 0.437 1.481 0.663 2.215 0.437-0.085 0.437-0.085 0.339-0.466-0.099-0.339-0.198-0.691-0.31-1.030 0.423 0.282 0.804 0.578 1.143 0.917 0.226 0.226 0.423 0.169 0.635 0.014-0.226-0.748-0.437-1.481-0.663-2.243-0.155 0.056-0.282 0.099-0.423 0.141 0.127 0.508 0.268 0.959 0.423 1.496zM22.208 3.273c0.099-0.028 0.183-0.056 0.268-0.099 0.409-0.198 0.466-0.677 0.085-0.917-0.325-0.212-0.705-0.367-1.072-0.55-0.339 0.748-0.649 1.439-0.988 2.173 0.31 0.141 0.593 0.282 0.889 0.395 0.381 0.155 0.705 0.085 0.903-0.183 0.198-0.212 0.169-0.452-0.085-0.818zM19.556 3.527c0-0.042 0.014-0.071 0.014-0.099-0.127-0.748-0.24-1.481-0.381-2.215-0.014-0.085-0.169-0.169-0.268-0.183-0.085-0.014-0.226 0.028-0.282 0.099-0.31 0.437-0.593 0.889-0.889 1.34-0.141 0.212-0.268 0.409-0.409 0.621 0.282 0.141 0.48 0.113 0.593-0.155 0.113-0.254 0.296-0.339 0.55-0.24 0.056 0.028 0.127 0.042 0.198 0.042 0.24 0 0.353 0.113 0.353 0.353 0.014 0.325 0.183 0.48 0.522 0.437zM8.578 5.376c0.353-0.085 0.437-0.268 0.339-0.564-0.071-0.212-0.028-0.381 0.212-0.466 0.071-0.028 0.141-0.071 0.198-0.113 0.212-0.169 0.367-0.155 0.578 0.028 0.282 0.268 0.325 0.254 0.649-0.056-0.607-0.494-1.213-0.988-1.82-1.467-0.056-0.042-0.183-0.042-0.254 0-0.099 0.056-0.183 0.155-0.226 0.254-0.028 0.085 0.028 0.212 0.042 0.31 0.085 0.691 0.183 1.383 0.282 2.074zM24.762 5.771c-0.226 0.268-0.268 0.423-0.113 0.677 0.127 0.198 0.282 0.381 0.451 0.522 0.282 0.24 0.593 0.24 0.861 0.042 0.226-0.169 0.296-0.452 0.183-0.79-0.071-0.212-0.169-0.423-0.226-0.635-0.056-0.198 0.113-0.409 0.296-0.423s0.437 0.183 0.395 0.339c-0.071 0.282 0.141 0.325 0.339 0.437 0.028-0.183 0.056-0.395-0.014-0.536-0.085-0.169-0.24-0.325-0.395-0.452-0.254-0.212-0.578-0.212-0.818-0.056-0.226 0.169-0.31 0.437-0.212 0.762 0.071 0.212 0.183 0.423 0.212 0.635 0.014 0.127-0.042 0.324-0.141 0.381-0.099 0.071-0.31 0.056-0.423-0.014-0.24-0.127-0.282-0.353-0.113-0.593-0.085-0.113-0.183-0.198-0.282-0.296zM6.646 4.642c-0.254-0.198-0.466-0.226-0.691-0.127-0.649 0.268-0.903 1.002-0.522 1.58 0.183 0.268 0.437 0.508 0.705 0.677 0.55 0.324 1.312-0.014 1.481-0.635 0.042-0.169-0.028-0.353-0.042-0.536-0.042-0.014-0.085-0.014-0.127-0.028-0.071 0.127-0.226 0.24-0.212 0.353 0.028 0.423-0.24 0.691-0.649 0.536-0.423-0.155-0.705-0.466-0.889-0.875-0.085-0.212-0.099-0.452 0.085-0.593 0.141-0.099 0.339-0.113 0.508-0.155 0.014 0.028 0.014 0.042 0.028 0.071 0.113-0.085 0.212-0.169 0.325-0.268zM23.45 5.489c0.466-0.663 0.889-1.298 1.34-1.947-0.141-0.099-0.254-0.169-0.381-0.268-0.451 0.663-0.903 1.298-1.34 1.947 0.127 0.099 0.24 0.169 0.381 0.268z"></path>
<path d="M10.653 16.014c0.099-0.042 0.198-0.085 0.325-0.141 0.226 0.325 0.437 0.649 0.677 1.002 0.056-0.028 0.141-0.056 0.282-0.113 0.169 0.339 0.353 0.663 0.55 1.030 0.254-0.141 0.367 0.085 0.494 0.296 0.141 0.254 0.268 0.494 0.395 0.762 0.282-0.014 0.593 0.451 0.748 1.016 0.071 0.071 0.169 0.141 0.226 0.226 0.141 0.282 0.198 0.663 0.423 0.861 0.296 0.268 0.183 0.691 0.522 0.917-0.226-0.72-0.466-1.439-0.705-2.187 0.014-0.014 0.071-0.056 0.085-0.071-0.212-0.564-0.395-1.101-0.607-1.651 0.099-0.056 0.183-0.085 0.24-0.113-0.169-0.423-0.339-0.847-0.522-1.284 0.183-0.028 0.296-0.042 0.409-0.056-0.169-0.437-0.325-0.861-0.508-1.298 0.169-0.042 0.296-0.056 0.395-0.085-0.155-0.451-0.31-0.875-0.48-1.312 0.169-0.042 0.282-0.071 0.367-0.099-0.113-0.395-0.212-0.79-0.325-1.199 0.183-0.028 0.282-0.028 0.381-0.042-0.099-0.381-0.183-0.762-0.282-1.171 0.212 0 0.339 0 0.423 0-0.042-0.423-0.071-0.832-0.113-1.256 0.155-0.014 0.254-0.014 0.325-0.028-0.028-0.325-0.056-0.649-0.085-0.974 0.155 0 0.254 0 0.353 0 0-0.254 0-0.494 0-0.734 0-0.198 0.042-0.353 0.296-0.268-0.014-0.945 0.071-1.086 0.296-1.002 0.353-0.889 0.691-1.792 1.044-2.681 0.014 0 0.028 0 0.028 0-0.056 0.974-0.099 1.947-0.155 2.949 0.127-0.014 0.198-0.028 0.31-0.042 0 0.325 0 0.635 0 0.959 0.071 0 0.155 0 0.31 0-0.028 0.395-0.056 0.776-0.099 1.185 0.071-0.014 0.169-0.014 0.339-0.042-0.028 0.409-0.071 0.804-0.099 1.228 0.071 0 0.198 0 0.409 0-0.071 0.451-0.141 0.861-0.212 1.284 0.085 0 0.198 0 0.353 0 0.085 0.451-0.042 0.847-0.226 1.298 0.141 0.014 0.254 0.028 0.466 0.056-0.099 0.423-0.198 0.847-0.31 1.312 0.056 0 0.183 0.014 0.325 0.028 0.056 0.451-0.113 0.847-0.353 1.242 0.127 0.028 0.226 0.056 0.367 0.099-0.141 0.522-0.282 1.044-0.437 1.594 0.099 0.014 0.212 0.042 0.353 0.071-0.141 0.536-0.296 1.058-0.437 1.594 0.071 0.014 0.155 0.028 0.282 0.071-0.296 0.931-0.593 1.848-0.889 2.765 0.028 0.014 0.042 0.028 0.071 0.028 0.056-0.085 0.127-0.155 0.155-0.24 0.141-0.367 0.254-0.734 0.395-1.101 0.028-0.071 0.113-0.127 0.198-0.169 0.141-0.353 0.282-0.705 0.437-1.044 0.028-0.071 0.155-0.085 0.268-0.141 0.169-0.325 0.367-0.705 0.578-1.101 0.099 0.028 0.198 0.042 0.24 0.056 0.183-0.339 0.353-0.649 0.536-0.974 0.127 0.042 0.212 0.071 0.254 0.085 0.226-0.353 0.437-0.691 0.649-1.044 0.113 0.042 0.198 0.071 0.254 0.099 0.226-0.282 0.437-0.536 0.649-0.804 0.113 0.056 0.198 0.099 0.296 0.141 0.212-0.353 0.395-0.748 0.945-0.818 0.056-0.071 0.155-0.226 0.282-0.339 0.056-0.056 0.183-0.042 0.268-0.071s0.155-0.071 0.226-0.127c0.198-0.169 0.353-0.437 0.635-0.31 0.804-0.466 1.58-0.931 2.384-1.397-0.155 0.198-0.31 0.367-0.451 0.55-0.226 0.296-0.423 0.621-0.649 0.917-0.099 0.141-0.212 0.268-0.367 0.451 0.042 0.014 0.113 0.056 0.254 0.127-0.226 0.226-0.437 0.409-0.677 0.635 0.028 0.014 0.113 0.071 0.254 0.141-0.268 0.254-0.522 0.48-0.776 0.72 0.042 0.042 0.099 0.127 0.212 0.254-0.268 0.24-0.536 0.466-0.818 0.705 0.042 0.042 0.099 0.113 0.212 0.226-0.268 0.183-0.536 0.367-0.832 0.564 0.042 0.056 0.113 0.141 0.24 0.268-0.339 0.198-0.677 0.409-1.030 0.607 0.056 0.071 0.127 0.155 0.24 0.31-0.367 0.226-0.734 0.451-1.115 0.691 0.042 0.056 0.099 0.127 0.183 0.24-0.381 0.212-0.748 0.451-1.129 0.635-0.169 0.085-0.212 0.141-0.085 0.282-1.086 0.734-2.173 1.467-3.316 2.243 0.127-0.014 0.169-0.014 0.226-0.028 0.593-0.183 1.171-0.339 1.792-0.212 0.169 0.042 0.367-0.028 0.55-0.014s0.395-0.042 0.508 0.183c0.014 0.028 0.127 0.014 0.183 0.028 0.325 0.056 0.691 0.028 0.917 0.339 0.014 0.028 0.071 0.028 0.099 0.042 0.72 0.254 1.312 0.72 1.848 1.242 0.014 0.014 0.014 0.042 0.014 0.056-0.353-0.085-0.705-0.183-1.072-0.24-0.31-0.056-0.663-0.169-0.917-0.056-0.381 0.155-0.691 0.056-1.016-0.028-0.014 0-0.014 0-0.056 0.014-0.014 0.056-0.042 0.127-0.071 0.226-0.353-0.099-0.705-0.183-1.101-0.296 0 0.014-0.042 0.085-0.099 0.169-0.31-0.127-0.607-0.24-0.931-0.367-0.014 0.028-0.042 0.071-0.056 0.113-0.451-0.212-0.889-0.423-1.383-0.663 0 0.169-0.014 0.296 0 0.409 0.071 1.016 0.155 2.032 0.226 3.048 0.014 0.099 0.014 0.198 0.014 0.296 0 0.042-0.056 0.099-0.085 0.099-0.042-0.014-0.113-0.042-0.127-0.085-0.028-0.056-0.014-0.141-0.014-0.198-0.071-1.157-0.155-2.3-0.226-3.457 0-0.042-0.014-0.071-0.014-0.085-0.677 0.282-1.354 0.55-2.032 0.832-0.056-0.127-0.099-0.198-0.113-0.24-0.409 0.127-0.804 0.254-1.213 0.381-0.042-0.099-0.085-0.169-0.113-0.254-0.028 0-0.056 0-0.085 0-0.353 0.071-0.734 0.254-1.044 0.169-0.282-0.085-0.55 0.014-0.804-0.071-0.705-0.226-1.425-0.169-2.145-0.183 0-0.028-0.014-0.042-0.014-0.071 0.268-0.113 0.55-0.226 0.818-0.339 0.31-0.141 0.621-0.282 0.945-0.409s0.649-0.226 0.988-0.339c0.268-0.085 0.536-0.183 0.818-0.212 0.522-0.056 1.044-0.071 1.552-0.071 0.522 0 1.044 0.056 1.552 0.099-0.028-0.014-0.071-0.056-0.127-0.085-0.607-0.325-1.298-0.564-1.806-1.002-0.423-0.367-0.974-0.508-1.354-0.931 0.014-0.042 0.042-0.099 0.056-0.127-0.395-0.198-0.776-0.395-1.171-0.607 0.056-0.113 0.085-0.183 0.113-0.24-0.381-0.254-0.748-0.508-1.143-0.776 0.127-0.113 0.212-0.198 0.282-0.254-0.339-0.24-0.663-0.48-1.002-0.72 0.113-0.141 0.198-0.226 0.24-0.268-0.31-0.254-0.621-0.494-0.931-0.748 0.099-0.141 0.155-0.226 0.212-0.296-0.226-0.198-0.452-0.367-0.663-0.55-0.268-0.24-0.268-0.296-0.071-0.536-0.212-0.226-0.423-0.451-0.649-0.677 0.099-0.099 0.155-0.155 0.212-0.226-0.014-0.028-0.014-0.056-0.042-0.071-0.113-0.113-0.24-0.212-0.339-0.325-0.155-0.183-0.254-0.367 0.028-0.466-0.141-0.24-0.367-0.451-0.395-0.691-0.099-0.691-0.508-1.228-0.79-1.834-0.014-0.028-0.014-0.071-0.028-0.127 0.578 0.621 1.143 1.213 1.608 1.707 0.621-0.014 0.72 0.367 0.931 0.649 0.056-0.042 0.127-0.085 0.226-0.155 0.198 0.268 0.395 0.522 0.593 0.79 0.282-0.169 0.48 0.056 0.762 0.663 0.282-0.071 0.593 0.141 0.762 0.55 0.085 0.056 0.113 0.141 0.141 0.226z"></path>
<path d="M21.037 3.894c0.155-0.325 0.254-0.55 0.353-0.776 0.254 0.099 0.508 0.183 0.55 0.466 0.014 0.127-0.085 0.367-0.141 0.367-0.226 0.028-0.466-0.014-0.762-0.056z"></path>
<path d="M21.517 2.836c0.099-0.226 0.198-0.423 0.325-0.691 0.198 0.169 0.381 0.282 0.508 0.451 0.028 0.042-0.085 0.254-0.183 0.325-0.212 0.169-0.423 0.042-0.649-0.085z"></path>
<path d="M18.949 2.497c-0.226-0.042-0.409-0.085-0.621-0.127 0.155-0.24 0.296-0.466 0.48-0.748 0.042 0.31 0.085 0.564 0.141 0.875z"></path>
<path d="M9.383 3.866c-0.198 0.113-0.367 0.212-0.55 0.325-0.042-0.282-0.085-0.55-0.141-0.875 0.254 0.198 0.451 0.367 0.691 0.55z"></path>
</svg>
