<?xml version="1.0" encoding="utf-8"?>
<!-- Generator: Adobe Illustrator 22.1.0, SVG Export Plug-In . SVG Version: 6.00 Build 0)  -->
<svg version="1.1" id="Layer_1" xmlns="http://www.w3.org/2000/svg" xmlns:xlink="http://www.w3.org/1999/xlink" x="0px" y="0px"
	 viewBox="0 0 226.8 226.8" style="enable-background:new 0 0 226.8 226.8;" xml:space="preserve">
<g>
	<path d="M226.8,113.4c0,62.7-50.8,113.4-113.5,113.4C50.7,226.8,0,176,0,113.4C0,50.8,50.7,0.1,113.3,0
		C176-0.1,226.8,50.7,226.8,113.4z M201.6,113.5c0-48.8-39.4-88.3-88.2-88.4c-48.5,0-88.3,39.5-88.3,87.9
		c-0.1,48.8,39.4,88.5,88.1,88.6C162,201.7,201.6,162.3,201.6,113.5z M115.8,21.4c-0.2-5.4-0.5-10.8-0.8-16.5
		c-1.2,0.1-2.1,0.2-3,0.3c0,3.5,0,6.9,0,10.5c-2-2.9-4.1-5.5-5.9-8.4c-1.2-1.9-2.5-2.3-4.6-1.4c0.3,5.4,0.5,10.8,0.8,16.2
		c3,0.4,3.1,0.4,3.1-2.3c0-2.7,0-5.4,0-8.1c2,2.8,4.1,5.6,6,8.6C112.6,22,113.9,22.2,115.8,21.4z M89.6,19c-2.9-2.6-5.6-4.7-8-7
		c-1.6-1.5-3-1.7-4.8-0.4c1.6,5.2,3.1,10.5,4.7,15.7c3.1-0.6,3.1-0.6,2.4-3.3c-0.7-2.4-1.4-4.9-2.2-7.3c3,2,5.7,4.1,8.1,6.5
		c1.6,1.6,3,1.2,4.5,0.1c-1.6-5.3-3.1-10.5-4.7-15.9c-1.1,0.4-2,0.7-3,1C87.5,12,88.5,15.2,89.6,19z M157.4,23.2
		c0.7-0.2,1.3-0.4,1.9-0.7c2.9-1.4,3.3-4.8,0.6-6.5c-2.3-1.5-5-2.6-7.6-3.9c-2.4,5.3-4.6,10.2-7,15.4c2.2,1,4.2,2,6.3,2.8
		c2.7,1.1,5,0.6,6.4-1.3C159.4,27.5,159.2,25.8,157.4,23.2z M138.6,25c0-0.3,0.1-0.5,0.1-0.7c-0.9-5.3-1.7-10.5-2.7-15.7
		c-0.1-0.6-1.2-1.2-1.9-1.3c-0.6-0.1-1.6,0.2-2,0.7c-2.2,3.1-4.2,6.3-6.3,9.5c-1,1.5-1.9,2.9-2.9,4.4c2,1,3.4,0.8,4.2-1.1
		c0.8-1.8,2.1-2.4,3.9-1.7c0.4,0.2,0.9,0.3,1.4,0.3c1.7,0,2.5,0.8,2.5,2.5C135,24.2,136.2,25.3,138.6,25z M60.8,38.1
		c2.5-0.6,3.1-1.9,2.4-4c-0.5-1.5-0.2-2.7,1.5-3.3c0.5-0.2,1-0.5,1.4-0.8c1.5-1.2,2.6-1.1,4.1,0.2c2,1.9,2.3,1.8,4.6-0.4
		c-4.3-3.5-8.6-7-12.9-10.4c-0.4-0.3-1.3-0.3-1.8,0c-0.7,0.4-1.3,1.1-1.6,1.8c-0.2,0.6,0.2,1.5,0.3,2.2
		C59.4,28.3,60.1,33.2,60.8,38.1z M175.5,40.9c-1.6,1.9-1.9,3-0.8,4.8c0.9,1.4,2,2.7,3.2,3.7c2,1.7,4.2,1.7,6.1,0.3
		c1.6-1.2,2.1-3.2,1.3-5.6c-0.5-1.5-1.2-3-1.6-4.5c-0.4-1.4,0.8-2.9,2.1-3c1.3-0.1,3.1,1.3,2.8,2.4c-0.5,2,1,2.3,2.4,3.1
		c0.2-1.3,0.4-2.8-0.1-3.8c-0.6-1.2-1.7-2.3-2.8-3.2c-1.8-1.5-4.1-1.5-5.8-0.4c-1.6,1.2-2.2,3.1-1.5,5.4c0.5,1.5,1.3,3,1.5,4.5
		c0.1,0.9-0.3,2.3-1,2.7c-0.7,0.5-2.2,0.4-3-0.1c-1.7-0.9-2-2.5-0.8-4.2C176.9,42.2,176.2,41.6,175.5,40.9z M47.1,32.9
		c-1.8-1.4-3.3-1.6-4.9-0.9c-4.6,1.9-6.4,7.1-3.7,11.2c1.3,1.9,3.1,3.6,5,4.8c3.9,2.3,9.3-0.1,10.5-4.5c0.3-1.2-0.2-2.5-0.3-3.8
		c-0.3-0.1-0.6-0.1-0.9-0.2c-0.5,0.9-1.6,1.7-1.5,2.5c0.2,3-1.7,4.9-4.6,3.8c-3-1.1-5-3.3-6.3-6.2c-0.6-1.5-0.7-3.2,0.6-4.2
		c1-0.7,2.4-0.8,3.6-1.1c0.1,0.2,0.1,0.3,0.2,0.5C45.6,34.2,46.3,33.6,47.1,32.9z M166.2,38.9c3.3-4.7,6.3-9.2,9.5-13.8
		c-1-0.7-1.8-1.2-2.7-1.9c-3.2,4.7-6.4,9.2-9.5,13.8C164.4,37.7,165.2,38.2,166.2,38.9z"/>
	<path d="M75.5,113.5c0.7-0.3,1.4-0.6,2.3-1c1.6,2.3,3.1,4.6,4.8,7.1c0.4-0.2,1-0.4,2-0.8c1.2,2.4,2.5,4.7,3.9,7.3
		c1.8-1,2.6,0.6,3.5,2.1c1,1.8,1.9,3.5,2.8,5.4c2-0.1,4.2,3.2,5.3,7.2c0.5,0.5,1.2,1,1.6,1.6c1,2,1.4,4.7,3,6.1
		c2.1,1.9,1.3,4.9,3.7,6.5c-1.6-5.1-3.3-10.2-5-15.5c0.1-0.1,0.5-0.4,0.6-0.5c-1.5-4-2.8-7.8-4.3-11.7c0.7-0.4,1.3-0.6,1.7-0.8
		c-1.2-3-2.4-6-3.7-9.1c1.3-0.2,2.1-0.3,2.9-0.4c-1.2-3.1-2.3-6.1-3.6-9.2c1.2-0.3,2.1-0.4,2.8-0.6c-1.1-3.2-2.2-6.2-3.4-9.3
		c1.2-0.3,2-0.5,2.6-0.7c-0.8-2.8-1.5-5.6-2.3-8.5c1.3-0.2,2-0.2,2.7-0.3c-0.7-2.7-1.3-5.4-2-8.3c1.5,0,2.4,0,3,0
		c-0.3-3-0.5-5.9-0.8-8.9c1.1-0.1,1.8-0.1,2.3-0.2c-0.2-2.3-0.4-4.6-0.6-6.9c1.1,0,1.8,0,2.5,0c0-1.8,0-3.5,0-5.2
		c0-1.4,0.3-2.5,2.1-1.9c-0.1-6.7,0.5-7.7,2.1-7.1c2.5-6.3,4.9-12.7,7.4-19c0.1,0,0.2,0,0.2,0c-0.4,6.9-0.7,13.8-1.1,20.9
		c0.9-0.1,1.4-0.2,2.2-0.3c0,2.3,0,4.5,0,6.8c0.5,0,1.1,0,2.2,0c-0.2,2.8-0.4,5.5-0.7,8.4c0.5-0.1,1.2-0.1,2.4-0.3
		c-0.2,2.9-0.5,5.7-0.7,8.7c0.5,0,1.4,0,2.9,0c-0.5,3.2-1,6.1-1.5,9.1c0.6,0,1.4,0,2.5,0c0.6,3.2-0.3,6-1.6,9.2
		c1,0.1,1.8,0.2,3.3,0.4c-0.7,3-1.4,6-2.2,9.3c0.4,0,1.3,0.1,2.3,0.2c0.4,3.2-0.8,6-2.5,8.8c0.9,0.2,1.6,0.4,2.6,0.7
		c-1,3.7-2,7.4-3.1,11.3c0.7,0.1,1.5,0.3,2.5,0.5c-1,3.8-2.1,7.5-3.1,11.3c0.5,0.1,1.1,0.2,2,0.5c-2.1,6.6-4.2,13.1-6.3,19.6
		c0.2,0.1,0.3,0.2,0.5,0.2c0.4-0.6,0.9-1.1,1.1-1.7c1-2.6,1.8-5.2,2.8-7.8c0.2-0.5,0.8-0.9,1.4-1.2c1-2.5,2-5,3.1-7.4
		c0.2-0.5,1.1-0.6,1.9-1c1.2-2.3,2.6-5,4.1-7.8c0.7,0.2,1.4,0.3,1.7,0.4c1.3-2.4,2.5-4.6,3.8-6.9c0.9,0.3,1.5,0.5,1.8,0.6
		c1.6-2.5,3.1-4.9,4.6-7.4c0.8,0.3,1.4,0.5,1.8,0.7c1.6-2,3.1-3.8,4.6-5.7c0.8,0.4,1.4,0.7,2.1,1c1.5-2.5,2.8-5.3,6.7-5.8
		c0.4-0.5,1.1-1.6,2-2.4c0.4-0.4,1.3-0.3,1.9-0.5c0.6-0.2,1.1-0.5,1.6-0.9c1.4-1.2,2.5-3.1,4.5-2.2c5.7-3.3,11.2-6.6,16.9-9.9
		c-1.1,1.4-2.2,2.6-3.2,3.9c-1.6,2.1-3,4.4-4.6,6.5c-0.7,1-1.5,1.9-2.6,3.2c0.3,0.1,0.8,0.4,1.8,0.9c-1.6,1.6-3.1,2.9-4.8,4.5
		c0.2,0.1,0.8,0.5,1.8,1c-1.9,1.8-3.7,3.4-5.5,5.1c0.3,0.3,0.7,0.9,1.5,1.8c-1.9,1.7-3.8,3.3-5.8,5c0.3,0.3,0.7,0.8,1.5,1.6
		c-1.9,1.3-3.8,2.6-5.9,4c0.3,0.4,0.8,1,1.7,1.9c-2.4,1.4-4.8,2.9-7.3,4.3c0.4,0.5,0.9,1.1,1.7,2.2c-2.6,1.6-5.2,3.2-7.9,4.9
		c0.3,0.4,0.7,0.9,1.3,1.7c-2.7,1.5-5.3,3.2-8,4.5c-1.2,0.6-1.5,1-0.6,2c-7.7,5.2-15.4,10.4-23.5,15.9c0.9-0.1,1.2-0.1,1.6-0.2
		c4.2-1.3,8.3-2.4,12.7-1.5c1.2,0.3,2.6-0.2,3.9-0.1c1.3,0.1,2.8-0.3,3.6,1.3c0.1,0.2,0.9,0.1,1.3,0.2c2.3,0.4,4.9,0.2,6.5,2.4
		c0.1,0.2,0.5,0.2,0.7,0.3c5.1,1.8,9.3,5.1,13.1,8.8c0.1,0.1,0.1,0.3,0.1,0.4c-2.5-0.6-5-1.3-7.6-1.7c-2.2-0.4-4.7-1.2-6.5-0.4
		c-2.7,1.1-4.9,0.4-7.2-0.2c-0.1,0-0.1,0-0.4,0.1c-0.1,0.4-0.3,0.9-0.5,1.6c-2.5-0.7-5-1.3-7.8-2.1c0,0.1-0.3,0.6-0.7,1.2
		c-2.2-0.9-4.3-1.7-6.6-2.6c-0.1,0.2-0.3,0.5-0.4,0.8c-3.2-1.5-6.3-3-9.8-4.7c0,1.2-0.1,2.1,0,2.9c0.5,7.2,1.1,14.4,1.6,21.6
		c0.1,0.7,0.1,1.4,0.1,2.1c0,0.3-0.4,0.7-0.6,0.7c-0.3-0.1-0.8-0.3-0.9-0.6c-0.2-0.4-0.1-1-0.1-1.4c-0.5-8.2-1.1-16.3-1.6-24.5
		c0-0.3-0.1-0.5-0.1-0.6c-4.8,2-9.6,3.9-14.4,5.9c-0.4-0.9-0.7-1.4-0.8-1.7c-2.9,0.9-5.7,1.8-8.6,2.7c-0.3-0.7-0.6-1.2-0.8-1.8
		c-0.2,0-0.4,0-0.6,0c-2.5,0.5-5.2,1.8-7.4,1.2c-2-0.6-3.9,0.1-5.7-0.5c-5-1.6-10.1-1.2-15.2-1.3c0-0.2-0.1-0.3-0.1-0.5
		c1.9-0.8,3.9-1.6,5.8-2.4c2.2-1,4.4-2,6.7-2.9c2.3-0.9,4.6-1.6,7-2.4c1.9-0.6,3.8-1.3,5.8-1.5c3.7-0.4,7.4-0.5,11-0.5
		c3.7,0,7.4,0.4,11,0.7c-0.2-0.1-0.5-0.4-0.9-0.6c-4.3-2.3-9.2-4-12.8-7.1c-3-2.6-6.9-3.6-9.6-6.6c0.1-0.3,0.3-0.7,0.4-0.9
		c-2.8-1.4-5.5-2.8-8.3-4.3c0.4-0.8,0.6-1.3,0.8-1.7c-2.7-1.8-5.3-3.6-8.1-5.5c0.9-0.8,1.5-1.4,2-1.8c-2.4-1.7-4.7-3.4-7.1-5.1
		c0.8-1,1.4-1.6,1.7-1.9c-2.2-1.8-4.4-3.5-6.6-5.3c0.7-1,1.1-1.6,1.5-2.1c-1.6-1.4-3.2-2.6-4.7-3.9c-1.9-1.7-1.9-2.1-0.5-3.8
		c-1.5-1.6-3-3.2-4.6-4.8c0.7-0.7,1.1-1.1,1.5-1.6c-0.1-0.2-0.1-0.4-0.3-0.5c-0.8-0.8-1.7-1.5-2.4-2.3c-1.1-1.3-1.8-2.6,0.2-3.3
		c-1-1.7-2.6-3.2-2.8-4.9c-0.7-4.9-3.6-8.7-5.6-13c-0.1-0.2-0.1-0.5-0.2-0.9c4.1,4.4,8.1,8.6,11.4,12.1c4.4-0.1,5.1,2.6,6.6,4.6
		c0.4-0.3,0.9-0.6,1.6-1.1c1.4,1.9,2.8,3.7,4.2,5.6c2-1.2,3.4,0.4,5.4,4.7c2-0.5,4.2,1,5.4,3.9C75.1,112.3,75.3,112.9,75.5,113.5z"
		/>
	<path d="M149.1,27.6c1.1-2.3,1.8-3.9,2.5-5.5c1.8,0.7,3.6,1.3,3.9,3.3c0.1,0.9-0.6,2.6-1,2.6C152.9,28.2,151.2,27.9,149.1,27.6z"/>
	<path d="M152.5,20.1c0.7-1.6,1.4-3,2.3-4.9c1.4,1.2,2.7,2,3.6,3.2c0.2,0.3-0.6,1.8-1.3,2.3C155.6,21.9,154.1,21,152.5,20.1z"/>
	<path d="M134.3,17.7c-1.6-0.3-2.9-0.6-4.4-0.9c1.1-1.7,2.1-3.3,3.4-5.3C133.6,13.7,133.9,15.5,134.3,17.7z"/>
	<path d="M66.5,27.4c-1.4,0.8-2.6,1.5-3.9,2.3c-0.3-2-0.6-3.9-1-6.2C63.4,24.9,64.8,26.1,66.5,27.4z"/>
</g>
</svg>
