<!-- Generated by IcoMoon.io -->
<svg version="1.1" xmlns="http://www.w3.org/2000/svg" width="32" height="32" viewBox="0 0 32 32">
<title>CANOE</title>
<path d="M6.589 15.619c-1.496 0-2.991 0-4.487 0-0.508 0-0.55-0.028-0.536-0.522 0.028-2.286 0.056-4.557 0.085-6.843 0-0.31 0.113-0.494 0.381-0.649 1.298-0.72 2.582-1.453 3.88-2.173 1.453-0.818 2.921-1.637 4.388-2.455 1.735-0.974 3.485-1.933 5.22-2.907 0.183-0.099 0.339-0.099 0.522 0.014 1.933 1.072 3.866 2.145 5.799 3.203 1.298 0.72 2.596 1.411 3.894 2.13 1.256 0.691 2.511 1.411 3.767 2.102 0.395 0.212 0.564 0.494 0.55 0.959-0.056 2.201-0.071 4.416-0.099 6.617 0 0.466-0.056 0.508-0.522 0.508-3.005 0-6.011 0-9.030 0-0.494 0-0.536-0.056-0.536-0.536 0-0.903-0.014-1.792 0-2.695 0-0.282-0.071-0.466-0.325-0.635-1.129-0.748-2.243-1.524-3.344-2.286-0.268-0.183-0.494-0.198-0.776-0.014-1.115 0.776-2.243 1.552-3.386 2.314-0.226 0.155-0.325 0.339-0.31 0.607 0.014 0.889 0 1.764 0 2.653 0 0.564-0.056 0.621-0.607 0.621-1.51 0-3.019-0.014-4.529-0.014z"></path>
<path d="M15.817 18.61c4.444 0 8.903 0 13.347 0 0.141 0 0.282 0 0.423 0 0.254 0 0.367 0.127 0.367 0.367 0 0.268 0 0.536 0 0.818 0 1.298-0.014 2.596 0.014 3.894 0 0.353-0.113 0.593-0.423 0.762-0.917 0.494-1.82 1.002-2.737 1.496-0.974 0.536-1.961 1.044-2.935 1.58-1.227 0.677-2.441 1.355-3.668 2.032-1.369 0.748-2.751 1.496-4.12 2.258-0.198 0.113-0.339 0.127-0.55 0.014-1.623-0.889-3.259-1.764-4.882-2.653-1.862-1.016-3.711-2.046-5.573-3.076-1.016-0.55-2.018-1.129-3.034-1.651-0.339-0.169-0.423-0.395-0.423-0.748 0.014-1.467 0-2.935 0-4.402 0-0.663 0.014-0.677 0.663-0.677 4.106 0 8.212 0 12.317 0 0.409-0.014 0.818-0.014 1.213-0.014 0 0 0 0 0 0z"></path>
</svg>
