<!-- Generated by IcoMoon.io -->
<svg version="1.1" xmlns="http://www.w3.org/2000/svg" width="32" height="32" viewBox="0 0 32 32">
<title>CAPP</title>
<path d="M0.028 15.549c0-5.263 3.824-8.861 8.677-8.861 2.723 0 4.769 1.199 6.236 3.034l-1.227 0.79c-1.072-1.481-2.949-2.483-5.009-2.483-4.035 0-7.139 3.062-7.139 7.52 0 4.416 3.104 7.52 7.139 7.52 2.060 0 3.922-1.002 5.009-2.497l1.227 0.776c-1.51 1.877-3.513 3.062-6.236 3.062-4.854 0-8.677-3.598-8.677-8.861"></path>
<path d="M20.007 18.554h8.085l-4.064-10.018-4.021 10.018zM28.586 19.894h-9.058l-1.693 4.205h-1.693l6.998-17.129h1.82l7.012 17.129h-1.693l-1.693-4.205z"></path>
</svg>
