<?xml version="1.0" encoding="utf-8"?>
<!-- Generator: Adobe Illustrator 22.0.1, SVG Export Plug-In . SVG Version: 6.00 Build 0)  -->
<svg version="1.1" id="Layer_1" xmlns="http://www.w3.org/2000/svg" xmlns:xlink="http://www.w3.org/1999/xlink" x="0px" y="0px"
	 viewBox="0 0 226.8 226.8" style="enable-background:new 0 0 226.8 226.8;" xml:space="preserve">
<style type="text/css">
	.st0{stroke:#FFFFFF;stroke-miterlimit:10;}
</style>
<path class="st0" d="M0.2,110.2c0-37.3,27.1-62.8,61.5-62.8c19.3,0,33.8,8.5,44.2,21.5l-8.7,5.6C89.6,64,76.3,56.9,61.7,56.9
	c-28.6,0-50.6,21.7-50.6,53.3c0,31.3,22,53.3,50.6,53.3c14.6,0,27.8-7.1,35.5-17.7l8.7,5.5C95.2,164.6,81,173,61.7,173
	C27.3,173,0.2,147.5,0.2,110.2"/>
<path class="st0" d="M141.8,131.5h57.3l-28.8-71L141.8,131.5z M202.6,141h-64.2l-12,29.8h-12L164,49.4h12.9l49.7,121.4h-12
	L202.6,141z"/>
</svg>
