<!-- Generated by IcoMoon.io -->
<svg version="1.1" xmlns="http://www.w3.org/2000/svg" width="32" height="32" viewBox="0 0 32 32">
<title>CAS</title>
<path d="M16.734 30.702c-4.247-0.028-7.647-1.199-10.497-3.753-0.522-0.466-1.030-0.423-1.637-0.353-2.596 0.282-4.797-1.693-4.586-4.275 0.071-0.903 0.72-1.75 1.072-2.624 0.141-0.367 0.353-0.79 0.296-1.157-1.524-8.367 3.908-16.226 12.346-17.623 4.261-0.705 8.183 0.31 11.626 2.977 0.649 0.494 1.199 0.748 2.088 0.607 1.608-0.254 2.963 0.437 3.852 1.834 0.917 1.453 0.959 3.005-0.028 4.402-0.55 0.776-0.55 1.467-0.423 2.314 0.875 5.362-0.649 9.961-4.586 13.7-2.765 2.653-6.18 3.824-9.524 3.951zM16.127 1.171c-0.677 0.042-1.354 0.042-2.018 0.141-8.282 1.213-13.827 9.016-12.233 17.242 0.127 0.649 0 1.030-0.437 1.481-1.157 1.199-1.326 2.935-0.494 4.332 0.832 1.425 2.469 2.131 4.092 1.693 0.564-0.155 0.875-0.014 1.27 0.353 2.921 2.681 6.42 3.965 10.342 3.81 9.27-0.367 15.661-8.847 13.601-17.933-0.127-0.55-0.056-0.931 0.339-1.369 1.115-1.213 1.199-2.921 0.31-4.332-0.861-1.354-2.455-2.018-3.993-1.552-0.55 0.169-0.889 0.028-1.284-0.31-2.737-2.356-5.898-3.513-9.496-3.556z"></path>
<path d="M24.861 6.377c-0.677 1.058-0.861 2.173-0.494 3.344 0.437 1.369 1.75 2.413 3.203 2.427 0.804 0 1.030 0.325 1.171 1.058 1.34 7.266-3.386 14.081-10.695 15.196-3.979 0.607-7.506-0.55-10.554-3.189-0.353-0.31-0.367-0.55-0.169-0.959 1.199-2.441-0.155-4.981-2.85-5.333-0.621-0.085-0.832-0.325-0.959-0.917-1.397-7.224 3.965-14.279 11.273-15.069 3.513-0.381 7.986 1.185 10.074 3.443zM19.4 20.515c0.071 0.028 0.141 0.042 0.226 0.071 0.198 1.185 1.129 0.593 1.735 0.663 0.734 0.085 0.494-0.564 0.494-0.931 0.014-2.878 0-5.771-0.014-8.649 0-0.31-0.028-0.621-0.056-0.945-0.72 0-1.34-0.071-1.947 0.014-0.607 0.099-0.79-0.141-0.79-0.663 0-0.536 0-1.072 0-1.651-0.649 0-1.213 0-1.806 0-0.028 0.522-0.056 0.974-0.071 1.411-0.861 0.042-1.637 0.071-2.497 0.113-0.014-0.339 0-0.677-0.071-1.016-0.042-0.198-0.169-0.494-0.325-0.55-1.016-0.367-1.58 0.014-1.538 1.086 0.042 0.903-0.155 1.566-0.861 2.258-2.032 1.989-2.243 5.333-0.409 7.436 0.889 1.016 1.481 1.961 1.27 3.33-0.028 0.169 0.169 0.48 0.325 0.536 0.959 0.353 1.481-0.028 1.538-1.044 0.014-0.183 0.071-0.353 0.113-0.522 0.818 0.056 1.594 0.099 2.399 0.155 0.014 0.169 0.071 0.339 0.056 0.48-0.155 0.917 0.367 0.959 1.086 0.988 0.889 0.028 0.762-0.522 0.762-1.058 0-0.24-0.042-0.494 0.014-0.72 0.099-0.282 0.254-0.536 0.367-0.79z"></path>
<path d="M27.838 10.85c-1.34 0-2.314-0.945-2.328-2.258-0.014-1.326 1.030-2.413 2.314-2.399s2.356 1.101 2.342 2.384c-0.014 1.284-1.016 2.272-2.328 2.272z"></path>
<path d="M4.106 20.219c1.34 0.014 2.342 1.016 2.314 2.356-0.014 1.298-1.016 2.286-2.328 2.272s-2.356-1.072-2.328-2.37c0.028-1.284 1.058-2.272 2.342-2.258z"></path>
<path d="M19.697 15.704c0.296 1.905-1.721 3.654-3.499 3.612-2.116-0.042-3.697-1.566-3.683-3.654 0.014-2.032 1.637-3.626 3.64-3.64 1.848 0 3.838 1.707 3.541 3.683z"></path>
</svg>
