<?xml version="1.0" encoding="utf-8"?>
<!-- Generator: Adobe Illustrator 22.1.0, SVG Export Plug-In . SVG Version: 6.00 Build 0)  -->
<svg version="1.1" id="Layer_1" xmlns="http://www.w3.org/2000/svg" xmlns:xlink="http://www.w3.org/1999/xlink" x="0px" y="0px"
	 viewBox="0 0 226.8 226.8" style="enable-background:new 0 0 226.8 226.8;" xml:space="preserve">
<g>
	<path d="M118.6,217.6c-30.1-0.2-54.2-8.5-74.4-26.6c-3.7-3.3-7.3-3-11.6-2.5c-18.4,2-34-12-32.5-30.3c0.5-6.4,5.1-12.4,7.6-18.6
		c1-2.6,2.5-5.6,2.1-8.2C-1,72.1,37.5,16.4,97.3,6.5c30.2-5,58,2.2,82.4,21.1c4.6,3.5,8.5,5.3,14.8,4.3c11.4-1.8,21,3.1,27.3,13
		c6.5,10.3,6.8,21.3-0.2,31.2c-3.9,5.5-3.9,10.4-3,16.4c6.2,38-4.6,70.6-32.5,97.1C166.5,208.4,142.3,216.7,118.6,217.6z M114.3,8.3
		c-4.8,0.3-9.6,0.3-14.3,1C41.3,17.9,2,73.2,13.3,131.5c0.9,4.6,0,7.3-3.1,10.5c-8.2,8.5-9.4,20.8-3.5,30.7
		c5.9,10.1,17.5,15.1,29,12c4-1.1,6.2-0.1,9,2.5c20.7,19,45.5,28.1,73.3,27c65.7-2.6,111-62.7,96.4-127.1c-0.9-3.9-0.4-6.6,2.4-9.7
		c7.9-8.6,8.5-20.7,2.2-30.7c-6.1-9.6-17.4-14.3-28.3-11c-3.9,1.2-6.3,0.2-9.1-2.2C162.2,16.8,139.8,8.6,114.3,8.3z"/>
	<path d="M176.2,45.2c-4.8,7.5-6.1,15.4-3.5,23.7c3.1,9.7,12.4,17.1,22.7,17.2c5.7,0,7.3,2.3,8.3,7.5c9.5,51.5-24,99.8-75.8,107.7
		c-28.2,4.3-53.2-3.9-74.8-22.6c-2.5-2.2-2.6-3.9-1.2-6.8c8.5-17.3-1.1-35.3-20.2-37.8c-4.4-0.6-5.9-2.3-6.8-6.5
		C15,76.4,53,26.4,104.8,20.8C129.7,18.1,161.4,29.2,176.2,45.2z M137.5,145.4c0.5,0.2,1,0.3,1.6,0.5c1.4,8.4,8,4.2,12.3,4.7
		c5.2,0.6,3.5-4,3.5-6.6c0.1-20.4,0-40.9-0.1-61.3c0-2.2-0.2-4.4-0.4-6.7c-5.1,0-9.5-0.5-13.8,0.1c-4.3,0.7-5.6-1-5.6-4.7
		c0-3.8,0-7.6,0-11.7c-4.6,0-8.6,0-12.8,0c-0.2,3.7-0.4,6.9-0.5,10c-6.1,0.3-11.6,0.5-17.7,0.8c-0.1-2.4,0-4.8-0.5-7.2
		c-0.3-1.4-1.2-3.5-2.3-3.9c-7.2-2.6-11.2,0.1-10.9,7.7c0.3,6.4-1.1,11.1-6.1,16c-14.4,14.1-15.9,37.8-2.9,52.7
		c6.3,7.2,10.5,13.9,9,23.6c-0.2,1.2,1.2,3.4,2.3,3.8c6.8,2.5,10.5-0.2,10.9-7.4c0.1-1.3,0.5-2.5,0.8-3.7c5.8,0.4,11.3,0.7,17,1.1
		c0.1,1.2,0.5,2.4,0.4,3.4c-1.1,6.5,2.6,6.8,7.7,7c6.3,0.2,5.4-3.7,5.4-7.5c0-1.7-0.3-3.5,0.1-5.1
		C135.6,149,136.7,147.2,137.5,145.4z"/>
	<path d="M197.3,76.9c-9.5,0-16.4-6.7-16.5-16c-0.1-9.4,7.3-17.1,16.4-17c9.1,0.1,16.7,7.8,16.6,16.9
		C213.7,69.9,206.6,76.9,197.3,76.9z"/>
	<path d="M29.1,143.3c9.5,0.1,16.6,7.2,16.4,16.7c-0.1,9.2-7.2,16.2-16.5,16.1c-9.3-0.1-16.7-7.6-16.5-16.8
		C12.7,150.2,20,143.2,29.1,143.3z"/>
	<path d="M139.6,111.3c2.1,13.5-12.2,25.9-24.8,25.6c-15-0.3-26.2-11.1-26.1-25.9c0.1-14.4,11.6-25.7,25.8-25.8
		C127.6,85.2,141.7,97.3,139.6,111.3z"/>
</g>
</svg>
