<!-- Generated by IcoMoon.io -->
<svg version="1.1" xmlns="http://www.w3.org/2000/svg" width="32" height="32" viewBox="0 0 32 32">
<title>CBC</title>
<path d="M14.984 0c0.663 0 1.34 0 2.004 0 0.607 0.071 1.213 0.113 1.82 0.226 3.767 0.691 6.928 2.483 9.383 5.418 3.104 3.711 4.289 7.986 3.612 12.783-0.466 3.203-1.792 6.025-4.007 8.367-4.092 4.332-9.143 5.982-14.998 4.868-7.083-1.369-12.444-7.52-12.783-15.012 0-0.423 0-0.861 0-1.284 0.099-0.804 0.141-1.623 0.296-2.413 1.242-5.813 4.684-9.806 10.201-11.993 1.425-0.564 2.935-0.832 4.473-0.959zM15.929 25.834c5.418 0 9.834-4.402 9.834-9.82s-4.43-9.82-9.834-9.82c-5.418 0.014-9.764 4.402-9.778 9.862 0 5.376 4.402 9.778 9.778 9.778zM23.125 4.6c0.141 0.226 0.254 0.466 0.437 0.649 1.030 1.044 2.088 2.060 3.132 3.090 0.903 0.889 1.115 0.889 2.018-0.014 0.24-0.24 0.24-0.423 0.071-0.691-1.086-1.721-2.469-3.175-4.134-4.332-0.212-0.155-0.367-0.169-0.536 0.042-0.212 0.24-0.451 0.451-0.663 0.691-0.141 0.127-0.198 0.324-0.325 0.564zM16.014 2.85c0.79 0 1.566 0 2.356 0 0.776 0 1.072-0.296 1.072-1.058 0-0.099-0.014-0.183 0-0.282 0.071-0.409-0.127-0.55-0.508-0.621-1.806-0.325-3.612-0.367-5.432-0.071-1.016 0.169-0.818 0.056-0.832 0.974-0.014 0.776 0.282 1.058 1.072 1.058 0.762 0 1.524 0 2.272 0zM7.704 3.076c-0.198 0.113-0.296 0.169-0.395 0.24-1.51 1.072-2.808 2.342-3.824 3.88-0.607 0.931-0.621 0.72 0.212 1.51 0.353 0.325 0.705 0.325 1.072 0.014 0.198-0.169 0.381-0.367 0.564-0.564 1.002-1.002 2.004-2.004 2.991-3.005 0.395-0.395 0.451-0.818 0.169-1.171-0.254-0.31-0.536-0.607-0.79-0.903zM31.083 15.774c-0.099-1.030-0.169-1.834-0.254-2.624-0.014-0.127-0.127-0.325-0.226-0.367-0.861-0.296-1.51 0.183-1.496 1.086 0.014 1.566 0.042 3.146 0.056 4.713 0 0.071 0 0.127 0 0.198 0.042 0.423 0.367 0.691 0.804 0.748 0.466 0.056 0.607-0.198 0.663-0.578 0.155-1.129 0.325-2.258 0.451-3.175zM2.808 16.48c0 0 0.014 0 0 0 0-0.762 0-1.524 0-2.272 0-0.959-0.282-1.227-1.256-1.213-0.31 0-0.437 0.127-0.452 0.423-0.042 1.044-0.169 2.102-0.113 3.146 0.042 0.931 0.282 1.862 0.452 2.794 0.028 0.141 0.155 0.339 0.282 0.381 0.593 0.169 1.072-0.198 1.072-0.818 0.028-0.818 0.014-1.623 0.014-2.441zM27.739 23.252c-0.24 0.113-0.409 0.183-0.578 0.268-0.028 0.014-0.056 0.056-0.085 0.085-1.171 1.171-2.342 2.342-3.499 3.513-0.353 0.367-0.423 0.748-0.212 1.086 0.127 0.212 0.282 0.296 0.522 0.141 1.792-1.115 3.287-2.54 4.473-4.275 0.056-0.085 0.085-0.296 0.028-0.339-0.198-0.198-0.423-0.325-0.649-0.48zM16.056 29.164c-0.804 0-1.594-0.028-2.399 0.014-0.254 0.014-0.55 0.113-0.748 0.282-0.141 0.113-0.212 0.409-0.198 0.607 0 0.099 0.268 0.226 0.437 0.254 0.691 0.099 1.397 0.198 2.102 0.254 1.326 0.099 2.638-0.042 3.922-0.31 0.254-0.056 0.325-0.198 0.254-0.437-0.113-0.423-0.395-0.635-0.931-0.649-0.818-0.028-1.637-0.014-2.441-0.014zM9.002 28.035c-0.056-0.099-0.141-0.339-0.296-0.494-1.185-1.171-2.37-2.342-3.57-3.485-0.183-0.169-0.508-0.282-0.748-0.268-0.536 0.028-0.677 0.409-0.353 0.832 1.185 1.58 2.653 2.878 4.36 3.88 0.395 0.254 0.593 0.141 0.607-0.466z"></path>
<path d="M15.929 25.086c-4.981 0-9.044-4.092-9.030-9.086 0.014-5.079 4.205-9.157 9.27-9.044 4.825 0.099 9.016 4.162 8.847 9.383-0.169 4.825-4.162 8.776-9.086 8.748zM18.060 11.146c-1.101 0-2.116 0-3.132 0-0.254 0-0.282 0.155-0.254 0.339 0.042 0.423 0.466 0.776 0.959 0.804 0.325 0.014 0.804-0.085 0.945 0.085 0.169 0.212 0.085 0.649 0.085 1.002 0.014 0.762 0 0.762-0.748 0.804-0.254 0.014-0.325 0.127-0.296 0.353 0.056 0.423 0.325 0.663 0.72 0.748 0.268 0.056 0.339 0.169 0.325 0.437-0.014 1.115 0 2.243-0.014 3.358 0 0.296 0.113 0.409 0.395 0.409 0.847 0 1.679 0.014 2.526-0.014 1.242-0.042 2.088-0.748 2.3-1.933 0.085-0.451 0.085-0.931 0.028-1.383-0.127-1.058-0.875-1.778-1.933-1.933-0.353-0.042-0.72-0.042-1.072-0.056-0.974-0.014-0.818 0.113-0.832-0.818 0-0.705 0-1.425 0-2.201zM13.616 19.457c0 0.014 0 0.028 0 0.042 0.325 0 0.635 0 0.959 0 0.028 0 0.056 0 0.085 0 0.649-0.014 0.635-0.014 0.649-0.677 0-0.325-0.113-0.409-0.409-0.409-0.677 0.014-1.354 0.014-2.032 0-0.818-0.014-1.34-0.395-1.453-1.086-0.042-0.254-0.028-0.536-0.014-0.79 0.028-0.649 0.353-1.058 0.988-1.171 0.381-0.071 0.762-0.071 1.157-0.085 0.48-0.028 0.804-0.254 1.002-0.677 0.127-0.254 0.071-0.409-0.254-0.395-0.607 0.014-1.228 0-1.834 0.014-0.268 0.014-0.536 0.042-0.79 0.113-1.34 0.381-2.060 2.046-1.538 3.499 0.339 0.945 0.988 1.538 2.018 1.623 0.451 0.028 0.959 0 1.467 0z"></path>
<path d="M18.060 16.847c0-0.409 0.014-0.818 0-1.242-0.014-0.268 0.099-0.353 0.353-0.339 0.395 0.028 0.79 0.042 1.185 0.071 0.071 0 0.155 0.042 0.226 0.071 0.578 0.24 0.804 0.847 0.705 1.82-0.071 0.663-0.367 1.002-1.002 1.101-0.395 0.056-0.79 0.042-1.185 0.071-0.212 0.014-0.282-0.099-0.268-0.296 0-0.395-0.014-0.832-0.014-1.256z"></path>
</svg>
