<!-- Generated by IcoMoon.io -->
<svg version="1.1" xmlns="http://www.w3.org/2000/svg" width="32" height="32" viewBox="0 0 32 32">
<title>CCEX</title>
<path d="M15.323 8.988c0.437 0 0.875 0 1.312 0 0 0.268 0 0.536 0 0.804 0.325-0.014 0.649 0 0.974 0 0-0.268 0-0.536 0-0.804 0.437 0.014 0.875-0.014 1.312 0.014-0.028 0.31-0.014 0.621-0.028 0.931-0.014 0.127 0.127 0.155 0.212 0.183 0.748 0.24 1.411 0.677 2.032 1.157-0.226 0.282-0.522 0.508-0.734 0.804-0.155 0.169-0.24 0.381-0.409 0.522-1.34-1.256-3.499-1.439-5.065-0.48-1.101 0.635-1.891 1.735-2.088 2.977-0.169 0.79-0.042 1.637 0.254 2.384 0.437 1.072 1.326 1.961 2.399 2.399 1.467 0.593 3.273 0.325 4.444-0.748 0.028 0 0.071 0 0.085 0 0.169 0.226 0.325 0.466 0.522 0.677 0.183 0.212 0.409 0.395 0.593 0.621-0.663 0.508-1.383 0.988-2.201 1.199-0.113 0.339 0.014 0.705-0.014 1.058-0.127 0.042-0.254 0.042-0.381 0.042-0.31-0.028-0.621-0.014-0.917 0-0.028-0.268-0.014-0.55-0.014-0.832-0.325 0.014-0.635 0.014-0.959 0 0 0.268 0 0.522 0 0.79-0.183 0.071-0.381 0.042-0.564 0.042-0.254 0-0.508 0.014-0.762-0.028 0-0.353 0.014-0.705 0-1.058-1.397-0.409-2.61-1.369-3.372-2.596-1.185-1.862-1.199-4.402-0.042-6.279 0.762-1.27 2.004-2.258 3.429-2.681-0.014-0.381-0.014-0.748-0.014-1.101z"></path>
<path d="M4.84 10.060c1.129-0.339 2.342-0.339 3.471 0 0.028 0 0.099 0.028 0.141 0.042 0.056 0.014 0.127 0.042 0.183 0.056 0.085 0.028 0.155 0.056 0.226 0.085 0.282 0.113 0.578 0.254 0.832 0.409 0.31 0.183 0.621 0.381 0.861 0.635v0.056c-0.423 0.367-0.79 0.804-1.101 1.27-0.663-0.635-1.552-1.002-2.455-1.086s-1.82 0.127-2.596 0.578c-1.030 0.593-1.806 1.637-2.060 2.794-0.212 0.945-0.099 1.961 0.325 2.822 0.437 0.903 1.199 1.651 2.116 2.074 1.51 0.72 3.443 0.437 4.67-0.705 0.325 0.451 0.677 0.889 1.086 1.27l0.056 0.056c-0.494 0.409-1.030 0.776-1.637 1.016-1.425 0.621-3.104 0.635-4.557 0.085-0.071-0.028-0.141-0.056-0.226-0.085-1.425-0.607-2.596-1.792-3.203-3.217-0.042-0.099-0.071-0.198-0.113-0.296-0.127-0.367-0.226-0.734-0.268-1.101-0.056-0.212-0.028-0.437-0.085-0.635 0-0.24-0.028-0.494 0.028-0.72 0.014-0.169 0.028-0.325 0.042-0.494 0.085-0.466 0.198-0.931 0.381-1.369 0.494-1.227 1.411-2.286 2.568-2.963 0.254-0.141 0.522-0.268 0.79-0.381 0.071-0.028 0.141-0.056 0.226-0.085 0.056-0.028 0.127-0.042 0.183-0.071 0-0.014 0.071-0.028 0.113-0.042zM22.109 12.416c1.679 0 3.344-0.014 5.009 0.014 0.437 0.72 0.931 1.397 1.369 2.116 0.071 0 0.127-0.042 0.155-0.099 0.423-0.677 0.889-1.326 1.312-2.018 0.494-0.028 0.988 0 1.481-0.014 0 0.028-0.014 0.071-0.028 0.099-0.607 0.875-1.171 1.764-1.75 2.638-0.127 0.183-0.226 0.367-0.353 0.536 0 0.028 0.014 0.085 0.014 0.127 0.578 0.832 1.115 1.693 1.679 2.54 0.183 0.31 0.409 0.593 0.578 0.903-0.494 0-0.974 0-1.467 0-0.508-0.776-1.030-1.552-1.524-2.342-0.028 0-0.056 0-0.085 0-0.494 0.79-1.016 1.566-1.538 2.342-1.623 0-3.231 0-4.854 0-0.014-2.286 0-4.571 0-6.843zM25.834 12.811c0 0.282 0 0.578 0 0.861-0.818 0-1.637 0-2.455 0 0 0.494 0 1.002 0 1.496 0.564 0 1.115 0 1.679 0 0.042 0.169 0.028 0.339 0.014 0.508 0.014 0.254 0.028 0.494-0.014 0.748-0.564 0-1.129 0-1.679 0 0 0.494 0.014 1.002 0 1.496 0.085 0.028 0.183 0.042 0.268 0.042 0.734 0 1.453 0 2.187 0 0 0.24-0.014 0.466 0 0.705 0.621-0.931 1.227-1.862 1.834-2.794 0.042-0.056 0.099-0.127 0.085-0.198-0.607-0.945-1.256-1.877-1.834-2.836-0.028 0-0.071-0.014-0.085-0.028zM8.522 15.168c0.536 0 1.072 0 1.594 0 0 0.423 0 0.847 0 1.27-0.536 0-1.072 0-1.594 0 0-0.409 0-0.847 0-1.27z"></path>
</svg>
