<!-- Generated by IcoMoon.io -->
<svg version="1.1" xmlns="http://www.w3.org/2000/svg" width="32" height="32" viewBox="0 0 32 32">
<title>CDT</title>
<path d="M13.305 31.929c0-1.129-0.014-2.286 0.028-3.429 0-0.141 0.367-0.353 0.578-0.367 3.245-0.31 6.039-1.552 8.24-3.993 1.355-1.51 2.328-3.245 2.794-5.235 0.056-0.24 0.085-0.494 0.155-0.875-1.891 0-3.697 0-5.503 0 0-1.34 0-2.568 0-3.908 0.423 0 0.903 0 1.383 0 1.101 0 2.215 0 3.316 0 0.79 0 0.861-0.099 0.677-0.875-0.818-3.259-2.653-5.785-5.503-7.534-1.75-1.072-3.654-1.693-5.728-1.778-0.113 0-0.226-0.028-0.381-0.056 0-1.256 0-2.483 0-3.852 5.178 0.155 9.369 2.215 12.529 6.265 4.36 5.559 4.162 13.136 0.804 18.384-3.443 5.376-9.693 7.591-13.39 7.252z"></path>
<path d="M22.928 12.529c-1.383 0-2.695 0.028-4.007-0.028-0.226-0.014-0.466-0.268-0.635-0.48-1.735-2.046-3.937-2.907-6.547-2.286-2.681 0.649-4.346 2.427-4.91 5.15-0.578 2.794 0.988 5.785 3.598 6.998 2.681 1.256 5.912 0.55 7.718-1.721 0.353-0.451 0.734-0.635 1.298-0.621 1.143 0.042 2.286 0.014 3.457 0.014-1.115 3.711-5.192 7.252-10.596 6.815-5.178-0.409-9.284-4.783-9.481-9.862-0.212-5.404 3.598-9.989 8.917-10.794 4.783-0.72 9.75 2.286 11.189 6.815z"></path>
</svg>
