<?xml version="1.0" encoding="utf-8"?>
<!-- Generator: Adobe Illustrator 22.1.0, SVG Export Plug-In . SVG Version: 6.00 Build 0)  -->
<svg version="1.1" id="Layer_1" xmlns="http://www.w3.org/2000/svg" xmlns:xlink="http://www.w3.org/1999/xlink" x="0px" y="0px"
	 viewBox="0 0 226.8 226.8" style="enable-background:new 0 0 226.8 226.8;" xml:space="preserve">
<g>
	<path d="M94.3,226.3c0-8-0.1-16.2,0.2-24.3c0-1,2.6-2.5,4.1-2.6c23-2.2,42.8-11,58.4-28.3c9.6-10.7,16.5-23,19.8-37.1
		c0.4-1.7,0.6-3.5,1.1-6.2c-13.4,0-26.2,0-39,0c0-9.5,0-18.2,0-27.7c3,0,6.4,0,9.8,0c7.8,0,15.7,0,23.5,0c5.6,0,6.1-0.7,4.8-6.2
		c-5.8-23.1-18.8-41-39-53.4c-12.4-7.6-25.9-12-40.6-12.6c-0.8,0-1.6-0.2-2.7-0.4c0-8.9,0-17.6,0-27.3c36.7,1.1,66.4,15.7,88.8,44.4
		c30.9,39.4,29.5,93.1,5.7,130.3C164.8,213,120.5,228.7,94.3,226.3z"/>
	<path d="M162.5,88.8c-9.8,0-19.1,0.2-28.4-0.2c-1.6-0.1-3.3-1.9-4.5-3.4c-12.3-14.5-27.9-20.6-46.4-16.2
		c-19,4.6-30.8,17.2-34.8,36.5c-4.1,19.8,7,41,25.5,49.6c19,8.9,41.9,3.9,54.7-12.2c2.5-3.2,5.2-4.5,9.2-4.4
		c8.1,0.3,16.2,0.1,24.5,0.1c-7.9,26.3-36.8,51.4-75.1,48.3c-36.7-2.9-65.8-33.9-67.2-69.9c-1.5-38.3,25.5-70.8,63.2-76.5
		C117.1,35.4,152.3,56.7,162.5,88.8z"/>
</g>
</svg>
