<?xml version="1.0" encoding="utf-8"?>
<!-- Generator: Adobe Illustrator 22.1.0, SVG Export Plug-In . SVG Version: 6.00 Build 0)  -->
<svg version="1.1" id="Layer_1" xmlns="http://www.w3.org/2000/svg" xmlns:xlink="http://www.w3.org/1999/xlink" x="0px" y="0px"
	 viewBox="0 0 226.8 226.8" style="enable-background:new 0 0 226.8 226.8;" xml:space="preserve">
<g>
	<path d="M226.8,121.6c-0.7,0.8-1.4,1.6-2.2,2.3c-16.2,16.3-32.4,32.5-48.6,48.8c-11.2,11.2-22.4,22.5-33.6,33.7
		c-0.5,0.5-1.4,0.7-2.1,0.7c-14.6,0.1-29.2,0.1-43.8,0.1c-21.3,0-42.5,0.1-63.8,0.1c-2.9,0-2.3,0.2-3.1-2.3
		c-2.5-7.8-5.1-15.7-7.6-23.5c-2.1-6.6-4.2-13.2-6.3-19.7c-3.7-11.6-7.5-23.1-11.2-34.7c-1.5-4.5-2.8-9.1-4.3-13.6
		c-0.3-1.1-0.1-1.9,0.7-2.7c3.6-3.8,7.1-7.6,10.7-11.4c4.6-4.9,9.3-9.8,13.9-14.7c6.1-6.5,12.2-12.9,18.3-19.4
		c5.1-5.4,10.2-10.9,15.3-16.3c6.2-6.6,12.5-13.2,18.7-19.8c1.1-1.2,2.3-2.4,3.3-3.6c0.7-0.9,1.5-1.1,2.6-1.1
		c13.4-0.3,26.7-0.6,40.1-0.8c10.4-0.2,20.8-0.5,31.2-0.7c10.5-0.2,20.9-0.4,31.4-0.6c0.7,0,1.4,0.1,2.5,0.2
		c-0.7,0.9-1.2,1.5-1.7,2.1c-5.7,6.5-11.3,12.9-17,19.3c-5,5.6-10,11.2-14.9,16.8c-6,6.8-12,13.6-18.1,20.4
		c-6.6,7.4-13.2,14.8-19.8,22.3c-5.8,6.5-11.5,13.1-17.2,19.6c-5.4,6.1-10.9,12.2-16.3,18.3c-6.9,7.9-13.8,15.8-20.8,23.6
		c-3.7,4.2-7.4,8.3-11.1,12.4c-0.2,0.3-0.6,0.5-0.7,0.8c-0.1,0.6-0.1,1.1-0.2,1.7c0.6,0,1.3,0.2,1.7-0.1c1.7-1.2,3.4-2.6,5.1-4
		c6.4-5.1,12.8-10.2,19.2-15.3c5.5-4.4,11-8.9,16.6-13.4c6.1-4.9,12.3-9.8,18.4-14.7c3.9-3.1,7.7-6.2,11.6-9.2c0.8-0.6,2-1,3-1
		c25.9-0.3,51.7-0.6,77.6-0.9c6.7-0.1,13.3-0.2,20-0.3c0.8,0,1.6,0,2.4,0C226.6,121.2,226.7,121.4,226.8,121.6z"/>
</g>
</svg>
