<!-- Generated by IcoMoon.io -->
<svg version="1.1" xmlns="http://www.w3.org/2000/svg" width="32" height="32" viewBox="0 0 32 32">
<title>CEEK</title>
<path d="M32 17.157c-0.099 0.113-0.198 0.226-0.31 0.325-2.286 2.3-4.571 4.586-6.857 6.885-1.58 1.58-3.16 3.175-4.741 4.755-0.071 0.071-0.198 0.099-0.296 0.099-2.060 0.014-4.12 0.014-6.18 0.014-3.005 0-5.996 0.014-9.002 0.014-0.409 0-0.325 0.028-0.437-0.325-0.353-1.101-0.72-2.215-1.072-3.316-0.296-0.931-0.593-1.862-0.889-2.78-0.522-1.637-1.058-3.259-1.58-4.896-0.212-0.635-0.395-1.284-0.607-1.919-0.042-0.155-0.014-0.268 0.099-0.381 0.508-0.536 1.002-1.072 1.51-1.608 0.649-0.691 1.312-1.383 1.961-2.074 0.861-0.917 1.721-1.82 2.582-2.737 0.72-0.762 1.439-1.538 2.159-2.3 0.875-0.931 1.764-1.862 2.638-2.794 0.155-0.169 0.325-0.339 0.466-0.508 0.099-0.127 0.212-0.155 0.367-0.155 1.891-0.042 3.767-0.085 5.658-0.113 1.467-0.028 2.935-0.071 4.402-0.099 1.481-0.028 2.949-0.056 4.43-0.085 0.099 0 0.198 0.014 0.353 0.028-0.099 0.127-0.169 0.212-0.24 0.296-0.804 0.917-1.594 1.82-2.399 2.723-0.705 0.79-1.411 1.58-2.102 2.37-0.847 0.959-1.693 1.919-2.554 2.878-0.931 1.044-1.862 2.088-2.794 3.146-0.818 0.917-1.623 1.848-2.427 2.765-0.762 0.861-1.538 1.721-2.3 2.582-0.974 1.115-1.947 2.229-2.935 3.33-0.522 0.593-1.044 1.171-1.566 1.75-0.028 0.042-0.085 0.071-0.099 0.113-0.014 0.085-0.014 0.155-0.028 0.24 0.085 0 0.183 0.028 0.24-0.014 0.24-0.169 0.48-0.367 0.72-0.564 0.903-0.72 1.806-1.439 2.709-2.159 0.776-0.621 1.552-1.256 2.342-1.891 0.861-0.691 1.735-1.383 2.596-2.074 0.55-0.437 1.086-0.875 1.637-1.298 0.113-0.085 0.282-0.141 0.423-0.141 3.654-0.042 7.295-0.085 10.949-0.127 0.945-0.014 1.877-0.028 2.822-0.042 0.113 0 0.226 0 0.339 0-0.014 0.028 0 0.056 0.014 0.085z"></path>
</svg>
