<!-- Generated by IcoMoon.io -->
<svg version="1.1" xmlns="http://www.w3.org/2000/svg" width="32" height="32" viewBox="0 0 32 32">
<title>CEXIO</title>
<path d="M15.69 0.494h16.296c0 1.326 0 2.638 0 3.965-4.727 0-9.467 0-14.18 0-0.55 0-1.086 0-1.637 0-1.989 0-3.965 0.522-5.7 1.496-2.088 1.171-3.824 3.005-4.882 5.164-0.959 1.975-1.326 4.176-1.101 6.349 0.198 2.018 0.917 3.965 2.088 5.616 0.988 1.369 2.258 2.554 3.753 3.414 1.82 1.058 3.937 1.608 6.053 1.566 5.192 0 10.384 0 15.577 0 0 1.326 0 2.624 0 3.936h-16.847c-2.229-0.169-4.444-0.79-6.42-1.877-2.667-1.439-4.896-3.697-6.349-6.363-1.143-2.088-1.764-4.444-1.862-6.829v-1.326c0.099-2.413 0.748-4.825 1.919-6.942 1.467-2.667 3.725-4.896 6.434-6.349 2.116-1.115 4.473-1.721 6.857-1.82zM15.012 7.492c0.367-0.042 0.748-0.071 1.101-0.099 1.707 0 3.414 0 5.122 0 0.367 0.339 0.691 0.677 1.016 1.030 0.988 0.959 1.947 1.947 2.907 2.935-2.497 0-4.995 0-7.492 0-0.621 0-1.256-0.028-1.848 0.028-1.157 0.099-2.286 0.621-3.076 1.439-0.847 0.847-1.369 2.046-1.411 3.245-0.028 1.016 0.24 2.046 0.818 2.878 0.621 0.959 1.608 1.679 2.709 2.018 0.55 0.169 1.157 0.212 1.735 0.198 2.836 0 5.672 0 8.508 0-1.326 1.326-2.638 2.624-3.965 3.965-1.707 0-3.443 0-5.136 0-1.566-0.028-3.104-0.48-4.416-1.326-1.637-1.016-2.949-2.596-3.626-4.402-0.649-1.679-0.748-3.584-0.31-5.305 0.452-1.848 1.538-3.527 3.048-4.727 1.213-0.988 2.737-1.665 4.317-1.877zM25.129 7.393c2.286 0 4.571 0 6.843 0 0 1.326 0 2.638 0 3.965-0.959 0-1.919 0-2.907 0-0.437-0.381-0.818-0.847-1.256-1.256-0.875-0.875-1.764-1.792-2.681-2.709zM14.504 15.28c0.339-0.621 1.030-1.016 1.735-1.016 3.936 0 7.887 0 11.852 0 0.649 0.677 1.298 1.326 1.975 1.975-0.677 0.677-1.326 1.326-1.989 1.989-3.824 0-7.647 0-11.457 0-0.212 0-0.437 0.028-0.649-0.028-0.578-0.071-1.101-0.437-1.397-0.917-0.409-0.564-0.423-1.383-0.071-2.004zM25.058 25.129c1.326-1.326 2.638-2.624 3.965-3.965 0.988 0 1.975 0 2.977 0 0 1.326 0 2.638 0 3.965-2.328 0-4.642 0-6.942 0z"></path>
</svg>
