<!-- Generated by IcoMoon.io -->
<svg version="1.1" xmlns="http://www.w3.org/2000/svg" width="32" height="32" viewBox="0 0 32 32">
<title>CFI</title>
<path d="M15.309 16l4.275 4.346c2.286 2.356 6.053 2.399 8.409 0.113 0.042-0.028 0.071-0.071 0.113-0.113 2.356-2.413 2.356-6.265 0-8.677-2.286-2.356-6.053-2.399-8.409-0.113-0.042 0.028-0.071 0.071-0.113 0.113l-4.275 4.332zM23.831 24.268c-2.173 0-4.247-0.875-5.771-2.427l-5.757-5.855 5.757-5.855c3.104-3.189 8.212-3.245 11.386-0.141 0.042 0.042 0.085 0.085 0.141 0.141 3.175 3.259 3.175 8.451 0 11.711-1.496 1.566-3.584 2.441-5.757 2.427z"></path>
<path d="M8.169 24.268c-2.173 0-4.247-0.875-5.757-2.427-3.175-3.259-3.175-8.451 0-11.711 3.104-3.189 8.212-3.245 11.386-0.141 0.042 0.042 0.085 0.085 0.141 0.141l0.268 0.282-1.51 1.51-0.282-0.268c-2.3-2.356-6.067-2.399-8.409-0.099-0.028 0.028-0.071 0.071-0.099 0.099-2.356 2.413-2.356 6.265 0 8.677 2.3 2.356 6.067 2.399 8.409 0.099 0.028-0.028 0.071-0.071 0.099-0.099l0.268-0.282 1.51 1.524-0.268 0.282c-1.51 1.566-3.598 2.441-5.757 2.413"></path>
</svg>
