<?xml version="1.0" encoding="utf-8"?>
<!-- Generator: Adobe Illustrator 22.0.1, SVG Export Plug-In . SVG Version: 6.00 Build 0)  -->
<svg version="1.1" id="Layer_1" xmlns="http://www.w3.org/2000/svg" xmlns:xlink="http://www.w3.org/1999/xlink" x="0px" y="0px"
	 viewBox="0 0 226.8 226.8" style="enable-background:new 0 0 226.8 226.8;" xml:space="preserve">
<style type="text/css">
	.st0{stroke:#FFFFFF;stroke-miterlimit:10;}
</style>
<g>
	<path class="st0" d="M108.5,113.4l30.3,30.8c16.2,16.7,42.9,17,59.6,0.8c0.3-0.2,0.5-0.5,0.8-0.8c16.7-17.1,16.7-44.4,0-61.5
		c-16.2-16.7-42.9-17-59.6-0.8c-0.3,0.2-0.5,0.5-0.8,0.8L108.5,113.4z M168.9,172c-15.4,0-30.1-6.2-40.9-17.2l-40.8-41.5L128,71.8
		c22-22.6,58.2-23,80.7-1c0.3,0.3,0.6,0.6,1,1c22.5,23.1,22.5,59.9,0,83C199.1,165.9,184.3,172.1,168.9,172z"/>
	<path class="st0" d="M57.9,172c-15.4,0-30.1-6.2-40.8-17.2c-22.5-23.1-22.5-59.9,0-83c22-22.6,58.2-23,80.7-1c0.3,0.3,0.6,0.6,1,1
		l1.9,2L90,84.5l-2-1.9c-16.3-16.7-43-17-59.6-0.7c-0.2,0.2-0.5,0.5-0.7,0.7C11,99.7,11,127,27.7,144.1c16.3,16.7,43,17,59.6,0.7
		c0.2-0.2,0.5-0.5,0.7-0.7l1.9-2l10.7,10.8l-1.9,2C88,166,73.2,172.2,57.9,172"/>
</g>
</svg>
