<!-- Generated by IcoMoon.io -->
<svg version="1.1" xmlns="http://www.w3.org/2000/svg" width="32" height="32" viewBox="0 0 32 32">
<title>CHBTC</title>
<path d="M14.631 24.353c-0.423 0-0.79-0.028-1.143 0.014-0.113 0.014-0.24 0.212-0.268 0.353-0.24 1.115-0.451 2.243-0.677 3.372-0.212 1.044-0.409 2.088-0.607 3.132-0.071 0.353-0.282 0.296-0.494 0.226-1.919-0.593-3.697-1.467-5.263-2.709-3.019-2.399-4.981-5.503-5.799-9.27-1.383-6.307 1.213-12.91 6.49-16.593 2.765-1.961 5.869-2.878 9.242-2.878 0.508 0 1.002 0.071 1.51 0.099 0.31 0.014 0.437 0.141 0.367 0.48-0.325 1.58-0.635 3.175-0.959 4.769-0.169 0.875-0.339 1.75-0.522 2.695 0.409 0 0.776 0.028 1.143-0.014 0.099-0.014 0.212-0.212 0.24-0.339 0.381-1.905 0.748-3.81 1.129-5.714 0.085-0.395 0.183-0.79 0.24-1.185 0.042-0.325 0.198-0.395 0.494-0.31 4.148 1.143 7.45 3.443 9.693 7.168 1.594 2.653 2.497 5.503 2.399 8.607-0.24 7.393-4.628 13.079-11.584 15.252-2.187 0.677-4.43 0.72-6.688 0.423-0.381-0.056-0.353-0.254-0.31-0.536 0.381-1.947 0.776-3.894 1.157-5.841 0.071-0.381 0.141-0.762 0.212-1.199zM11.386 24.353c-0.226-0.014-0.381-0.028-0.522-0.028-0.776 0-1.538-0.014-2.314 0-0.325 0-0.409-0.113-0.353-0.423 0.367-1.862 0.705-3.739 1.058-5.601 0.395-2.060 0.79-4.12 1.171-6.18 0.226-1.228 0.466-2.441 0.691-3.668 0.056-0.353 0.24-0.452 0.578-0.452 0.762 0.042 1.524 0.042 2.272 0.042 0.607 0 0.635-0.042 0.748-0.649 0.141-0.79 0.31-1.566 0.451-2.342 0.113-0.607 0.226-1.228 0.339-1.834-1.284-0.183-4.134 0.48-6.363 1.933-3.302 2.159-5.192 5.235-5.771 9.086-0.522 3.556 0.409 6.773 2.54 9.637 1.242 1.665 2.85 2.921 4.811 3.838 0.24-1.157 0.437-2.215 0.663-3.358zM22.138 15.407c0.466 0.282 0.931 0.522 1.355 0.818 0.861 0.607 1.284 1.467 1.086 2.511-0.367 1.919-1.312 3.471-3.019 4.487-1.397 0.832-2.921 1.171-4.543 1.115-0.339-0.014-0.494 0.099-0.564 0.451-0.212 1.157-0.451 2.3-0.677 3.457-0.113 0.536-0.071 0.578 0.466 0.578 2.836-0.014 5.376-0.917 7.577-2.667 3.936-3.132 5.531-7.295 4.811-12.219-0.607-4.205-2.935-7.337-6.674-9.383-0.423-0.226-0.875-0.381-1.369-0.593-0.282 1.425-0.536 2.737-0.79 4.035 0.663 0.071 1.27 0.071 1.834 0.212 1.115 0.296 2.116 0.818 2.596 1.947 0.621 1.496 0.268 2.864-0.748 4.064-0.381 0.437-0.875 0.776-1.34 1.185zM12.049 22.18c0.212 0.014 0.381 0.028 0.536 0.028 1.369 0 2.751 0.042 4.12-0.014 0.522-0.014 1.101-0.127 1.552-0.381 1.538-0.861 2.173-1.75 2.018-3.16-0.099-0.945-0.875-1.75-1.82-1.764-1.651-0.028-3.302 0-4.952-0.014-0.282 0-0.423 0.127-0.466 0.409-0.169 0.917-0.367 1.834-0.564 2.751-0.141 0.705-0.282 1.397-0.423 2.145zM16.762 10.243c0 0 0-0.014 0-0.014-0.705 0-1.397 0.014-2.102 0-0.31 0-0.451 0.141-0.508 0.437-0.212 1.312-0.409 2.624-0.649 3.922-0.071 0.381 0.056 0.466 0.395 0.451 1.157 0 2.328 0.014 3.485 0.014 1.439 0 2.526-0.72 3.048-2.074 0.494-1.298-0.085-2.765-1.82-2.737-0.621 0-1.242 0-1.848 0z"></path>
</svg>
