<!-- Generated by IcoMoon.io -->
<svg version="1.1" xmlns="http://www.w3.org/2000/svg" width="32" height="32" viewBox="0 0 32 32">
<title>CHILEBIT</title>
<path d="M0.734 13.728c0.818 1.157 2.018 1.213 3.203 0.931 0.959-0.226 1.862-0.677 2.765-1.101 0.367-0.169 0.593-0.24 0.945 0.014 1.637 1.213 3.287 2.413 4.938 3.598 0.31 0.226 0.437 0.423 0.296 0.818-0.635 1.891-1.27 3.781-1.848 5.7-0.198 0.649-0.578 0.889-1.213 0.917-4.84 0.268-9.171-3.753-9.242-8.578-0.014-0.762 0-1.524 0-2.272 0.028-0.014 0.099-0.028 0.155-0.028z"></path>
<path d="M28.205 27.936c0.113-1.298-0.593-1.947-1.439-2.497-1.044-0.677-2.215-0.945-3.429-1.044-0.437-0.042-0.649-0.212-0.776-0.635-0.593-1.905-1.199-3.81-1.848-5.7-0.155-0.466-0.056-0.705 0.339-0.974 1.608-1.143 3.217-2.3 4.783-3.499 0.466-0.353 0.847-0.339 1.298-0.056 1.792 1.086 2.963 2.653 3.598 4.628 1.227 3.725 0.212 6.899-2.526 9.778z"></path>
<path d="M9.467 30.815c1.453-0.832 2.145-2.441 1.877-4.43-0.071-0.48-0.141-0.945-0.282-1.411-0.113-0.381 0-0.593 0.31-0.832 1.651-1.185 3.302-2.384 4.938-3.598 0.353-0.268 0.593-0.24 0.931 0.014 1.623 1.199 3.245 2.399 4.896 3.556 0.437 0.31 0.522 0.635 0.437 1.115-0.339 1.764-1.27 3.203-2.582 4.388-2.935 2.624-6.942 3.104-10.455 1.284-0.028-0.014-0.042-0.056-0.071-0.085z"></path>
<path d="M31.323 9.016c-1.101-0.55-1.919-0.085-2.653 0.508-0.974 0.776-1.679 1.792-2.131 2.949-0.155 0.381-0.353 0.55-0.776 0.55-2.102 0-4.19 0.028-6.293 0.014-0.169 0-0.423-0.198-0.48-0.353-0.691-2.046-1.369-4.092-2.004-6.166-0.071-0.226 0.099-0.607 0.282-0.804 1.129-1.199 2.596-1.778 4.176-2.032 4.12-0.677 7.887 1.27 9.764 5.009 0.028 0.071 0.042 0.155 0.113 0.325z"></path>
<path d="M14.25 0.183c-0.705 0.861-0.593 1.764-0.254 2.638 0.437 1.171 1.171 2.159 2.145 2.935 0.381 0.31 0.494 0.593 0.325 1.058-0.635 1.891-1.256 3.795-1.848 5.686-0.127 0.381-0.339 0.522-0.72 0.522-2.060-0.014-4.12-0.014-6.18 0-0.508 0-0.762-0.24-0.945-0.649-0.776-1.778-0.776-3.598-0.339-5.432 0.875-3.626 3.965-6.335 7.817-6.758z"></path>
</svg>
