<!-- Generated by IcoMoon.io -->
<svg version="1.1" xmlns="http://www.w3.org/2000/svg" width="32" height="32" viewBox="0 0 32 32">
<title>CHP</title>
<path d="M32 15.182c0 4.868-1.834 7.633-4.84 8.861-2.921 1.199-6.279 0.508-8.536-1.75-0.677-0.677-1.355-1.34-2.004-2.032-0.381-0.409-0.691-0.451-1.101-0.014-0.72 0.762-1.453 1.524-2.229 2.215-2.483 2.215-5.319 2.822-8.395 1.538-3.189-1.312-4.783-3.866-4.896-7.224-0.127-3.81 2.751-7.168 6.547-7.746 1.072-0.169 1.58-0.494 1.778-1.693 0.649-3.922 3.485-6.462 7.45-6.631 2.935-0.113 5.291 1.143 6.885 3.668 0.663 1.058 0.437 2.356-0.48 2.963-0.945 0.635-2.215 0.409-2.949-0.621-0.804-1.143-1.834-1.82-3.259-1.806-2.808 0.028-4.529 3.005-3.132 5.46 0.198 0.353 0.494 0.663 0.734 1.002 0.649 0.903 0.578 1.947-0.141 2.695-0.734 0.762-1.764 0.861-2.695 0.254-0.268-0.169-0.494-0.395-0.762-0.578-1.58-1.129-3.584-0.875-4.896 0.593-1.242 1.397-1.213 3.471 0.056 4.854 1.34 1.453 3.429 1.75 4.882 0.437 2.145-1.933 4.134-4.035 6.194-6.067 0.931-0.917 1.806-1.891 2.794-2.723 2.54-2.159 5.418-2.61 8.437-1.227 3.034 1.383 4.515 3.824 4.557 5.573zM27.824 17.369c0.042-3.048-2.243-4.868-4.6-4.148-1.735 0.536-2.681 2.060-3.866 3.287-0.099 0.099 0.014 0.578 0.169 0.734 0.79 0.832 1.552 1.693 2.441 2.399 1.157 0.917 2.483 1.086 3.838 0.395 1.312-0.677 1.989-1.735 2.018-2.667z"></path>
<path d="M16.395 30.885c-2.145-0.071-3.795-0.564-5.22-1.679-1.016-0.804-1.242-2.074-0.536-3.034 0.649-0.889 1.947-1.086 2.977-0.367 1.608 1.129 3.161 1.086 4.769 0 1.058-0.72 2.286-0.536 2.963 0.381s0.494 2.131-0.48 2.963c-1.143 1.016-3.146 1.735-4.473 1.735z"></path>
<path d="M18.060 8.593c0 1.143-0.903 2.074-2.032 2.102-1.129 0.014-2.145-1.002-2.116-2.13s0.974-2.032 2.102-2.032c1.171 0.014 2.046 0.903 2.046 2.060z"></path>
</svg>
