<?xml version="1.0" encoding="utf-8"?>
<!-- Generator: Adobe Illustrator 22.1.0, SVG Export Plug-In . SVG Version: 6.00 Build 0)  -->
<svg version="1.1" id="Layer_1" xmlns="http://www.w3.org/2000/svg" xmlns:xlink="http://www.w3.org/1999/xlink" x="0px" y="0px"
	 viewBox="0 0 226.8 226.8" style="enable-background:new 0 0 226.8 226.8;" xml:space="preserve">
<g>
	<path d="M226.8,107.6c0,34.5-13,54.1-34.3,62.8c-20.7,8.5-44.5,3.6-60.5-12.4c-4.8-4.8-9.6-9.5-14.2-14.4c-2.7-2.9-4.9-3.2-7.8-0.1
		c-5.1,5.4-10.3,10.8-15.8,15.7c-17.6,15.7-37.7,20-59.5,10.9C12.1,160.8,0.8,142.7,0,118.9c-0.9-27,19.5-50.8,46.4-54.9
		c7.6-1.2,11.2-3.5,12.6-12c4.6-27.8,24.7-45.8,52.8-47c20.8-0.8,37.5,8.1,48.8,26c4.7,7.5,3.1,16.7-3.4,21
		c-6.7,4.5-15.7,2.9-20.9-4.4c-5.7-8.1-13-12.9-23.1-12.8c-19.9,0.2-32.1,21.3-22.2,38.7c1.4,2.5,3.5,4.7,5.2,7.1
		c4.6,6.4,4.1,13.8-1,19.1c-5.2,5.4-12.5,6.1-19.1,1.8c-1.9-1.2-3.5-2.8-5.4-4.1c-11.2-8-25.4-6.2-34.7,4.2
		c-8.8,9.9-8.6,24.6,0.4,34.4c9.5,10.3,24.3,12.4,34.6,3.1c15.2-13.7,29.3-28.6,43.9-43c6.6-6.5,12.8-13.4,19.8-19.3
		c18-15.3,38.4-18.5,59.8-8.7C216,77.9,226.5,95.2,226.8,107.6z M197.2,123.1c0.3-21.6-15.9-34.5-32.6-29.4
		c-12.3,3.8-19,14.6-27.4,23.3c-0.7,0.7,0.1,4.1,1.2,5.2c5.6,5.9,11,12,17.3,17c8.2,6.5,17.6,7.7,27.2,2.8
		C192.2,137.2,197,129.7,197.2,123.1z"/>
	<path d="M116.2,218.9c-15.2-0.5-26.9-4-37-11.9c-7.2-5.7-8.8-14.7-3.8-21.5c4.6-6.3,13.8-7.7,21.1-2.6c11.4,8,22.4,7.7,33.8,0
		c7.5-5.1,16.2-3.8,21,2.7c4.8,6.5,3.5,15.1-3.4,21C139.8,213.8,125.6,218.9,116.2,218.9z"/>
	<path d="M128,60.9c0,8.1-6.4,14.7-14.4,14.9c-8,0.1-15.2-7.1-15-15.1c0.2-8,6.9-14.4,14.9-14.4C121.8,46.4,128,52.7,128,60.9z"/>
</g>
</svg>
