<?xml version="1.0" encoding="utf-8"?>
<!-- Generator: Adobe Illustrator 22.1.0, SVG Export Plug-In . SVG Version: 6.00 Build 0)  -->
<svg version="1.1" id="Layer_1" xmlns="http://www.w3.org/2000/svg" xmlns:xlink="http://www.w3.org/1999/xlink" x="0px" y="0px"
	 viewBox="0 0 226.8 226.8" style="enable-background:new 0 0 226.8 226.8;" xml:space="preserve">
<g>
	<path d="M0.2,115.5c0-9.6-0.3-19.2,0.2-28.7c0.2-2.8,2-6.3,4.2-8.1c6.1-4.9,13-8.7,19-13.5c2.2-1.8,4-5.3,4.3-8.1
		c0.6-6.2,0.4-12.5,0.1-18.7c-0.2-4.5,1.3-7.3,5.4-9.6c16.2-8.9,32.3-18,48.3-27.3c3.3-1.9,5.9-2.1,9.1,0.3c4.6,3.5,9.7,6.3,14.2,10
		c4.9,4,9,4.5,14,0.3c5-4.1,10.4-7.8,16-10.9c2.2-1.2,6.1-1.4,8.2-0.3c16.8,9.1,33.3,18.8,50.1,28.1c3.6,2,5.1,4.3,4.9,8.4
		c-0.3,6.7-0.5,13.4,0.1,20c0.2,2.6,1.9,5.8,4,7.4c6.3,4.9,13.3,9,19.6,13.9c2.1,1.6,4,4.9,4,7.4c0.3,19.8,0.3,39.6,0,59.4
		c0,2.5-2,5.8-4.1,7.4c-6.3,4.9-13.4,8.9-19.7,13.8c-2.2,1.7-4,5.2-4.3,8c-0.6,6.2-0.4,12.5-0.2,18.7c0.1,4-1.2,6.5-5,8.4
		c-16.4,8-32.6,16.4-49.1,24.2c-2.4,1.1-6.5,0.7-9-0.6c-6.2-3.1-12-6.8-17.7-10.7c-3.5-2.4-6.4-2.4-9.7,0.1
		c-2.1,1.6-4.8,2.5-6.8,4.2c-9.7,8.8-18.9,8.1-29.8,1.3c-11.5-7.2-24.1-12.5-36.3-18.4c-4.1-2-6.8-4.4-5.8-9.2
		c3.7-18.2-3.8-30.1-20.3-37.2c-6.5-2.8-8.8-7.7-8.2-14.9C0.7,132.4,0.2,123.9,0.2,115.5z M177.2,166.4
		c-9.3-6.5-17.4-12.4-25.7-17.8c-2.3-1.5-5.7-2.2-8.5-2.1c-7.1,0.2-12.3-3.1-13.4-9.3c-1.2-6.4,2.5-12.1,8.8-13.7
		c5.9-1.5,11.3,2,14,8.5c0.9,2.3,2.5,4.7,4.5,6.1c9.6,6.8,19.5,13.3,29.3,19.8c1.5,1,4.2,2,5.3,1.3c7.5-4.8,15.8-9,21.5-15.5
		c3-3.4,1.2-11,1.6-16.7c0-0.4,0-0.9,0-1.3c0.2-3.7-1.6-5.2-5.2-5.1c-7.6,0.1-15.2-0.3-22.7,0.1c-3.1,0.2-6.4,1.3-9.2,2.8
		c-6.1,3.5-12.9,2.7-16.8-2.4c-3.7-4.8-3.1-11.7,1.4-15.8c4.9-4.4,11.4-4.1,16.9,0.5c1.9,1.6,4.4,3.1,6.7,3.3
		c7.8,0.4,15.6,0,23.4,0.2c4.1,0.1,5.1-1.7,5.6-5.5c1.3-10.4-0.9-18.7-11.4-23.4c-3.4-1.5-6.1-4.7-9.5-6.1c-2.4-1-6.2-1.2-8.2,0.1
		c-19.1,12.3-38,24.9-56.8,37.7c-2,1.4-3.7,3.7-4.7,6c-2.1,5-5.1,8.7-10.7,8.6c-5.3-0.1-8.9-3.2-11.3-8.1c-1.5-3-3.8-6-6.5-7.9
		c-14.3-9.9-28.9-19.3-43.3-29c-16.6-11-16.4-10.7-33.3,0.1c-6.9,4.4-10.3,9.2-9.1,17.3c0.2,1.5,0.1,3.1,0.1,4.7
		c-0.2,4.2,1.7,6,6,5.9c7.6-0.2,15.2,0.3,22.7-0.2c2.8-0.2,5.9-1.6,8.1-3.3c5.4-4.3,11.9-4.7,16.3-0.3c4.1,4.1,4.5,10.7,0.9,15.2
		c-3.8,4.7-9.9,5.4-15.6,1.9c-2-1.2-4.3-2.8-6.5-2.8c-8.9-0.3-17.8-0.3-26.7,0c-1.7,0.1-4.3,1.8-4.8,3.3
		c-3.5,10.9,0.2,20.8,9.7,27.2c3.5,2.4,7.1,4.6,10.4,7.2c3.3,2.6,6.1,2.8,9.6,0.3c9.7-6.7,19.6-13.1,29.3-19.9
		c1.8-1.3,3.4-3.4,4.3-5.5c2.8-7,7.3-10,13.7-8.5c5.3,1.2,9.1,6.7,8.3,12.1c-0.9,6.4-5.3,9.2-13.2,9.4c-2.9,0-6.2,0.8-8.6,2.4
		c-7.3,4.6-14.3,9.8-21.5,14.7c-1.4,1-3.1,1.5-4.7,2.3c0.4,0.8,0.9,1.6,1.3,2.4c18.9,10.1,37.7,20.2,57.9,31
		c0.3-4.3,0.6-6.8,0.6-9.4c0-16.3,0-32.5,0-48.8c0-8.5,1-9.3,10.7-7.3c0,21.1,0,42.3,0,65.1C138.4,187.3,157.2,177.1,177.2,166.4z
		 M177,66.6c-20.2-12.1-38.9-23.3-58.8-35.1c0,4.1,0,6.6,0,9c0,17.1,0,34.3-0.1,51.4c0,1.8-0.7,4.8-1.6,5.1
		c-2.1,0.6-5.3,0.6-6.9-0.6c-1.5-1.2-2-4.2-2-6.5c-0.2-16.5-0.1-32.9-0.1-49.4c0-2.6-0.3-5.1-0.5-9.4C86.6,43.2,67.6,54.6,47.4,66.7
		c19.7,13,37.9,24.9,56.1,36.8c0.9,0.6,2.2,1.1,3.1,0.9c9-1.7,18.4-1,26.1-8.2c5.9-5.5,13.6-9.2,20.5-13.7
		C160.8,77.5,168.3,72.5,177,66.6z M100.8,22.3C90,10.9,87.6,10.5,75.7,17.5c-9.6,5.6-19.2,11.3-28.8,16.9
		c-9.5,5.6-11.8,12.8-7.1,24.7C60.1,46.9,80.2,34.8,100.8,22.3z M186.9,59.1c0-4.4-0.3-6.8,0.1-9.1c1.1-7.3-1.6-11.8-8.4-15.3
		C168,29.4,158.1,23,147.9,17c-9.3-5.4-14.4-4.2-21.9,5.4C145.8,34.4,165.6,46.3,186.9,59.1z M39.1,173.4c0,4.4,0.3,7.1-0.1,9.6
		c-1.2,7.4,2.1,11.2,8.8,14.1c10.2,4.3,20,9.6,30,14.6c9.1,4.5,14.6,3.2,21.7-5.8C79.9,195.3,60.4,184.8,39.1,173.4z M126.5,206.3
		c7.5,7.5,14.4,9.9,23.5,4c8.3-5.4,17.7-9.1,26.7-13.5c9.9-5,11.9-10.1,7.6-21.5C165.1,185.5,146.1,195.8,126.5,206.3z"/>
</g>
</svg>
