<!-- Generated by IcoMoon.io -->
<svg version="1.1" xmlns="http://www.w3.org/2000/svg" width="32" height="32" viewBox="0 0 32 32">
<title>CHSB</title>
<path d="M0.028 16.296c0-1.354-0.042-2.709 0.028-4.049 0.028-0.395 0.282-0.889 0.593-1.143 0.861-0.691 1.834-1.227 2.681-1.905 0.31-0.254 0.564-0.748 0.607-1.143 0.085-0.875 0.056-1.764 0.014-2.638-0.028-0.635 0.183-1.030 0.762-1.354 2.286-1.256 4.557-2.54 6.815-3.852 0.466-0.268 0.832-0.296 1.284 0.042 0.649 0.494 1.369 0.889 2.004 1.411 0.691 0.564 1.27 0.635 1.975 0.042 0.705-0.578 1.467-1.101 2.258-1.538 0.31-0.169 0.861-0.198 1.157-0.042 2.37 1.284 4.698 2.653 7.069 3.965 0.508 0.282 0.72 0.607 0.691 1.185-0.042 0.945-0.071 1.891 0.014 2.822 0.028 0.367 0.268 0.818 0.564 1.044 0.889 0.691 1.877 1.27 2.765 1.961 0.296 0.226 0.564 0.691 0.564 1.044 0.042 2.794 0.042 5.587 0 8.381 0 0.353-0.282 0.818-0.578 1.044-0.889 0.691-1.891 1.256-2.78 1.947-0.31 0.24-0.564 0.734-0.607 1.129-0.085 0.875-0.056 1.764-0.028 2.638 0.014 0.564-0.169 0.917-0.705 1.185-2.314 1.129-4.6 2.314-6.928 3.414-0.339 0.155-0.917 0.099-1.27-0.085-0.875-0.437-1.693-0.959-2.497-1.51-0.494-0.339-0.903-0.339-1.369 0.014-0.296 0.226-0.677 0.353-0.959 0.593-1.369 1.242-2.667 1.143-4.205 0.183-1.623-1.016-3.4-1.764-5.122-2.596-0.578-0.282-0.959-0.621-0.818-1.298 0.522-2.568-0.536-4.247-2.864-5.249-0.917-0.395-1.242-1.086-1.157-2.102 0.113-1.157 0.042-2.356 0.042-3.541zM25.002 23.478c-1.312-0.917-2.455-1.75-3.626-2.511-0.325-0.212-0.804-0.31-1.199-0.296-1.002 0.028-1.735-0.437-1.891-1.312-0.169-0.903 0.353-1.707 1.242-1.933 0.832-0.212 1.594 0.282 1.975 1.199 0.127 0.325 0.353 0.663 0.635 0.861 1.355 0.959 2.751 1.877 4.134 2.794 0.212 0.141 0.593 0.282 0.748 0.183 1.058-0.677 2.229-1.27 3.034-2.187 0.423-0.48 0.169-1.552 0.226-2.356 0-0.056 0-0.127 0-0.183 0.028-0.522-0.226-0.734-0.734-0.72-1.072 0.014-2.145-0.042-3.203 0.014-0.437 0.028-0.903 0.183-1.298 0.395-0.861 0.494-1.82 0.381-2.37-0.339-0.522-0.677-0.437-1.651 0.198-2.229 0.691-0.621 1.608-0.578 2.384 0.071 0.268 0.226 0.621 0.437 0.945 0.466 1.101 0.056 2.201 0 3.302 0.028 0.578 0.014 0.72-0.24 0.79-0.776 0.183-1.467-0.127-2.638-1.608-3.302-0.48-0.212-0.861-0.663-1.34-0.861-0.339-0.141-0.875-0.169-1.157 0.014-2.695 1.735-5.362 3.513-8.014 5.319-0.282 0.198-0.522 0.522-0.663 0.847-0.296 0.705-0.72 1.227-1.51 1.213-0.748-0.014-1.256-0.451-1.594-1.143-0.212-0.423-0.536-0.847-0.917-1.115-2.018-1.397-4.078-2.723-6.109-4.092-2.342-1.552-2.314-1.51-4.698 0.014-0.974 0.621-1.453 1.298-1.284 2.441 0.028 0.212 0.014 0.437 0.014 0.663-0.028 0.593 0.24 0.847 0.847 0.832 1.072-0.028 2.145 0.042 3.203-0.028 0.395-0.028 0.832-0.226 1.143-0.466 0.762-0.607 1.679-0.663 2.3-0.042 0.578 0.578 0.635 1.51 0.127 2.145-0.536 0.663-1.397 0.762-2.201 0.268-0.282-0.169-0.607-0.395-0.917-0.395-1.256-0.042-2.511-0.042-3.767 0-0.24 0.014-0.607 0.254-0.677 0.466-0.494 1.538 0.028 2.935 1.369 3.838 0.494 0.339 1.002 0.649 1.467 1.016s0.861 0.395 1.354 0.042c1.369-0.945 2.765-1.848 4.134-2.808 0.254-0.183 0.48-0.48 0.607-0.776 0.395-0.988 1.030-1.411 1.933-1.199 0.748 0.169 1.284 0.945 1.171 1.707-0.127 0.903-0.748 1.298-1.862 1.326-0.409 0-0.875 0.113-1.213 0.339-1.030 0.649-2.018 1.383-3.034 2.074-0.198 0.141-0.437 0.212-0.663 0.325 0.056 0.113 0.127 0.226 0.183 0.339 2.667 1.425 5.319 2.85 8.169 4.374 0.042-0.607 0.085-0.959 0.085-1.326 0-2.3 0-4.586 0-6.885 0-1.199 0.141-1.312 1.51-1.030 0 2.977 0 5.968 0 9.185 2.85-1.538 5.503-2.977 8.325-4.487zM24.974 9.397c-2.85-1.707-5.489-3.287-8.296-4.952 0 0.578 0 0.931 0 1.27 0 2.413 0 4.84-0.014 7.252 0 0.254-0.099 0.677-0.226 0.72-0.296 0.085-0.748 0.085-0.974-0.085-0.212-0.169-0.282-0.593-0.282-0.917-0.028-2.328-0.014-4.642-0.014-6.97 0-0.367-0.042-0.72-0.071-1.326-2.878 1.707-5.559 3.316-8.409 5.023 2.78 1.834 5.347 3.513 7.915 5.192 0.127 0.085 0.31 0.155 0.437 0.127 1.27-0.24 2.596-0.141 3.683-1.157 0.832-0.776 1.919-1.298 2.892-1.933 1.072-0.705 2.131-1.411 3.358-2.243zM14.222 3.146c-1.524-1.608-1.862-1.665-3.541-0.677-1.354 0.79-2.709 1.594-4.064 2.384-1.34 0.79-1.665 1.806-1.002 3.485 2.864-1.721 5.7-3.429 8.607-5.192zM26.37 8.339c0-0.621-0.042-0.959 0.014-1.284 0.155-1.030-0.226-1.665-1.185-2.159-1.496-0.748-2.892-1.651-4.332-2.497-1.312-0.762-2.032-0.593-3.090 0.762 2.794 1.693 5.587 3.372 8.593 5.178zM5.517 24.466c0 0.621 0.042 1.002-0.014 1.355-0.169 1.044 0.296 1.58 1.242 1.989 1.439 0.607 2.822 1.355 4.233 2.060 1.284 0.635 2.060 0.451 3.062-0.818-2.765-1.496-5.517-2.977-8.522-4.586zM17.848 29.108c1.058 1.058 2.032 1.397 3.316 0.564 1.171-0.762 2.497-1.284 3.767-1.905 1.397-0.705 1.679-1.425 1.072-3.034-2.709 1.439-5.39 2.892-8.155 4.374z"></path>
</svg>
