<!-- Generated by IcoMoon.io -->
<svg version="1.1" xmlns="http://www.w3.org/2000/svg" width="32" height="32" viewBox="0 0 32 32">
<title>CLAM</title>
<path d="M18.897 2.803c0 1.432-0.043 6.501-0.598 11.611-0.524 4.816-1.355 10.102-1.544 11.289 0.24 0.023 0.467 0.060 0.682 0.108 0.456-0.933 2.708-5.614 3.739-9.132 1.181-4.027 1.862-9.397 1.881-11.569 0.002-0.142 0.003-0.271 0.003-0.391-0.392-0.606-1.246-1.734-2.352-2.036-0.965-0.263-1.527-0.148-1.812-0.026v0.145z"></path>
<path d="M23.535 5.114c-0.019 2.199-0.708 7.631-1.901 11.699-1.013 3.455-3.185 8.008-3.727 9.123 0.269 0.086 0.493 0.178 0.709 0.284l-0.030-0.014c0.584-0.763 3.261-4.322 4.936-7.541 1.976-3.797 3.812-8.834 4.061-9.812l0.102-0.4c-0.219-0.679-0.744-1.942-1.761-2.606-1.051-0.686-1.971-0.762-2.388-0.753l-0 0.019z"></path>
<path d="M23.946 18.887c-1.652 3.174-4.262 6.667-4.936 7.552 0.294 0.18 0.549 0.373 0.784 0.587l-0.004-0.004c0.717-0.704 3.707-3.678 5.697-6.185 2.297-2.894 4.58-6.956 4.953-7.837l0.194-0.459c-0.053-0.583-0.216-1.509-0.711-2.195-0.58-0.802-1.469-1.205-1.883-1.358-0.313 1.209-2.215 6.282-4.096 9.898zM8.013 5.49c0.179 1.424 1.030 5.937 2.514 10.798 1.331 4.359 3.311 8.711 3.756 9.669 0.192-0.066 0.429-0.128 0.672-0.174l0.034-0.005c-0.175-1.038-1.082-6.498-1.644-11.633-0.614-5.612-0.864-10.367-0.897-11.334-0.001-0.033-0.002-0.063-0.003-0.095-0.418-0.123-1.352-0.275-2.55 0.281-1.103 0.511-1.679 1.472-1.939 2.049 0.017 0.132 0.036 0.28 0.056 0.444zM12.926 2.795c0.033 0.962 0.282 5.7 0.894 11.298 0.563 5.145 1.473 10.618 1.642 11.617 0.206-0.023 0.446-0.036 0.688-0.036h0c0.042 0 0.083 0.002 0.125 0.003 0.173-1.079 1.019-6.44 1.549-11.315 0.553-5.086 0.596-10.133 0.596-11.559v-0.229c-0.45-0.4-1.492-1.184-2.767-1.184s-2.295 0.784-2.733 1.184c0.002 0.072 0.004 0.144 0.006 0.222zM16.151 26.151c-2.604 0-3.793 1.553-4.144 2.129 2.203 1.615 3.602 2.33 4.164 2.33 0.563 0 2.158-0.865 4.118-2.26-0.361-0.606-1.552-2.198-4.138-2.198z"></path>
<path d="M30.869 13.215c-0.412 0.946-2.705 5.020-5.007 7.92-2.002 2.523-5.004 5.509-5.733 6.226 0.195 0.212 0.374 0.444 0.532 0.692l0.012 0.020c1.655-1.217 3.111-2.434 4.488-3.734l-0.023 0.021c3.762-3.553 6.758-7.066 6.857-8.838 0.076-1.347-0.733-2.048-1.126-2.307zM1.318 12.873c0.859 2.176 2.496 4.755 4.867 7.664 2.811 3.45 5.564 5.893 6.254 6.488 0.153-0.14 0.32-0.274 0.494-0.397l0.016-0.011c-0.668-0.792-3.055-3.745-5.251-8.020-2.46-4.789-3.395-8.102-3.794-9.517l-0.060-0.211-0.003-0.009c-0.551 0.147-1.94 0.608-2.485 1.615-0.279 0.515-0.364 1.051-0.369 1.507 0.156 0.456 0.268 0.75 0.385 1.042l-0.055-0.153z"></path>
<path d="M12.101 27.364c-0.744-0.643-3.489-3.092-6.287-6.526-2.316-2.843-3.943-5.381-4.842-7.552-0.337 0.297-1.039 1.088-0.959 2.489 0.104 1.836 2.742 4.743 7.559 8.923 1.55 1.345 2.9 2.435 4.050 3.296 0.152-0.237 0.31-0.443 0.483-0.634l-0.004 0.004zM4.303 8.739l0.060 0.212c0.395 1.401 1.321 4.682 3.76 9.428 2.23 4.34 4.651 7.295 5.234 7.981 0.127-0.073 0.284-0.152 0.445-0.222l0.033-0.013c-0.48-1.036-2.441-5.363-3.764-9.698-1.494-4.89-2.351-9.441-2.531-10.878l-0.007-0.055c-0.422-0.023-1.328 0.020-2.205 0.667-0.744 0.549-1.048 1.439-1.171 2.033 0.037 0.15 0.085 0.328 0.147 0.544z"></path>
</svg>
