<!-- Generated by IcoMoon.io -->
<svg version="1.1" xmlns="http://www.w3.org/2000/svg" width="32" height="32" viewBox="0 0 32 32">
<title>CLAY_WALLET</title>
<path d="M15.859 31.972c-4.444 0-8.889-0.042-13.333 0.028-1.778 0.028-2.554-0.593-2.497-2.441 0.085-3.048 0.056-6.095 0.014-9.143-0.014-1.411 0.452-2.131 1.975-2.102 3.358 0.056 6.73 0.056 10.102 0 1.51-0.028 2.046 0.677 1.975 2.088-0.056 1.143 0.042 2.286-0.014 3.429-0.071 1.538 0.593 2.173 2.145 2.159 4.444-0.042 8.889-0.014 13.333 0 2.272 0.014 2.413 0.169 2.441 2.554 0.028 3.146-0.141 3.414-2.413 3.429-4.586 0.028-9.157 0-13.728 0z"></path>
<path d="M14.095 7.238c0 1.707-0.014 3.414 0 5.136 0.014 1.185-0.536 1.735-1.721 1.735-3.541-0.014-7.097-0.014-10.638 0-1.171 0-1.735-0.536-1.735-1.721 0.014-3.541 0.014-7.097 0-10.638 0-1.185 0.55-1.75 1.735-1.75 3.541 0.014 7.097 0.014 10.638 0 1.185 0 1.735 0.55 1.735 1.735-0.028 1.834-0.014 3.668-0.014 5.503z"></path>
<path d="M25.044 22.166c-1.778 0-3.556-0.028-5.333 0.014-1.298 0.028-1.82-0.578-1.806-1.848 0.028-2.794 0.028-5.587 0.014-8.381-0.014-1.199 0.564-1.721 1.75-1.721 3.556 0.014 7.111 0.014 10.667 0 1.058 0 1.693 0.423 1.693 1.566 0 2.921 0 5.841 0 8.762 0 1.115-0.55 1.623-1.637 1.608-1.792-0.014-3.57-0.014-5.347 0z"></path>
<path d="M24.931 0.056c1.651 0 3.302 0.028 4.952-0.014 1.411-0.028 2.159 0.55 2.088 2.032-0.014 0.437 0.014 0.889 0 1.326-0.028 2.37-0.254 2.624-2.638 2.638-3.048 0.014-6.095-0.042-9.143 0.014-1.623 0.028-2.37-0.635-2.258-2.272 0.042-0.691 0.014-1.397 0.014-2.088 0-1.101 0.536-1.637 1.637-1.637 1.792 0.014 3.57 0 5.347 0 0 0 0 0 0 0z"></path>
</svg>
