<!-- Generated by IcoMoon.io -->
<svg version="1.1" xmlns="http://www.w3.org/2000/svg" width="32" height="32" viewBox="0 0 32 32">
<title>CLOAK</title>
<path d="M16.002 0c-8.824 0-16.002 7.178-16.002 16.002s7.178 16.002 16.002 16.002c8.823 0 16.002-7.178 16.002-16.002s-7.179-16.002-16.002-16.002zM16.002 29.495c-7.44 0-13.493-6.053-13.493-13.493s6.053-13.493 13.493-13.493c7.44 0 13.493 6.053 13.493 13.493s-6.053 13.493-13.493 13.493z"></path>
<path d="M16.002 8.819c-3.961 0-7.183 3.222-7.183 7.183 0 2.144 0.945 4.070 2.439 5.387 0.722-0.377 1.515-0.669 2.358-0.862-1.623-0.859-2.731-2.564-2.731-4.525 0-2.821 2.296-5.117 5.117-5.117s5.117 2.295 5.117 5.117c0 1.96-1.108 3.665-2.731 4.525 0.843 0.193 1.636 0.486 2.358 0.862 1.494-1.317 2.439-3.243 2.439-5.387-0-3.961-3.222-7.183-7.183-7.183z"></path>
<path d="M16.002 4.244c-6.484 0-11.759 5.275-11.759 11.759 0 3.356 1.416 6.386 3.678 8.53 0.378-0.68 0.877-1.304 1.477-1.852-1.723-1.705-2.794-4.068-2.794-6.678 0-5.182 4.216-9.397 9.397-9.397s9.397 4.216 9.397 9.397c0 2.61-1.070 4.973-2.794 6.678 0.6 0.549 1.099 1.173 1.477 1.852 2.263-2.144 3.678-5.174 3.678-8.53 0-6.484-5.275-11.758-11.758-11.758z"></path>
</svg>
