<!-- Generated by IcoMoon.io -->
<svg version="1.1" xmlns="http://www.w3.org/2000/svg" width="32" height="32" viewBox="0 0 32 32">
<title>CMCT</title>
<path d="M25.651 3.993c-0.339 0.028-0.635 0.071-0.917 0.071-1.764 0.056-3.527 0.113-5.291 0.169-0.226 0.014-0.353-0.056-0.48-0.268-1.34-2.145-4.148-2.384-5.827-0.494-0.649 0.734-0.945 1.608-0.832 2.596 0.042 0.353-0.028 0.593-0.31 0.832-0.593 0.48-1.171 1.002-1.75 1.524-0.169 0.155-0.31 0.169-0.494 0.028-0.353-0.254-0.72-0.508-1.086-0.748-0.155-0.099-0.226-0.212-0.155-0.409 0.649-2.074 1.58-3.965 3.259-5.418 1.637-1.411 3.57-1.919 5.686-1.721 2.822 0.268 5.22 1.538 7.478 3.16 0.226 0.155 0.437 0.325 0.649 0.494 0 0.056 0.014 0.099 0.071 0.183z"></path>
<path d="M21.46 30.349c0.296-0.55 0.593-1.101 0.889-1.651 0.663-1.227 1.34-2.455 2.004-3.683 0.127-0.24 0.254-0.353 0.55-0.353 1.735-0.014 3.118-1.157 3.499-2.864 0.353-1.566-0.494-3.259-2.018-3.965-0.282-0.127-0.409-0.282-0.451-0.593-0.113-0.776-0.268-1.538-0.423-2.3-0.056-0.24 0-0.381 0.226-0.466 0.409-0.169 0.818-0.381 1.227-0.55 0.099-0.042 0.282-0.028 0.339 0.042 1.481 1.623 2.638 3.414 3.019 5.616s-0.212 4.162-1.524 5.912c-1.481 1.961-3.471 3.273-5.658 4.303-0.437 0.212-0.889 0.395-1.34 0.578-0.085 0.028-0.169 0.042-0.268 0.071-0.028-0.056-0.056-0.085-0.071-0.099z"></path>
<path d="M10.582 1.679c-0.155 0.31-0.31 0.621-0.48 0.931-0.818 1.496-1.637 2.991-2.469 4.487-0.056 0.113-0.226 0.212-0.353 0.212-2.314 0.028-3.951 1.848-3.654 4.148 0.169 1.256 0.875 2.187 2.032 2.723 0.268 0.127 0.395 0.296 0.437 0.578 0.127 0.776 0.282 1.538 0.423 2.3 0.056 0.268-0.042 0.423-0.296 0.522-0.367 0.155-0.734 0.353-1.101 0.494-0.127 0.042-0.353 0.028-0.423-0.056-1.453-1.608-2.582-3.4-2.963-5.573-0.325-1.891 0.071-3.626 1.072-5.235 1.002-1.623 2.384-2.85 4.007-3.81 1.072-0.621 2.215-1.129 3.33-1.679 0.113-0.056 0.254-0.071 0.381-0.113 0.014 0.028 0.042 0.042 0.056 0.071z"></path>
<path d="M0.903 13.362c0.353 0.593 0.705 1.171 1.044 1.764 0.705 1.171 1.397 2.342 2.102 3.513 0.127 0.212 0.127 0.367 0 0.578-0.72 1.256-0.705 2.526 0.056 3.739 0.762 1.227 1.919 1.764 3.358 1.679 0.649-0.042 1.256-0.268 1.778-0.663 0.183-0.141 0.353-0.169 0.593-0.085 0.776 0.296 1.552 0.578 2.342 0.861 0.169 0.056 0.282 0.127 0.254 0.353-0.056 0.437-0.071 0.875-0.141 1.312-0.028 0.141-0.155 0.353-0.268 0.381-2.018 0.409-4.021 0.522-6.011-0.141-2.624-0.903-4.162-2.808-4.966-5.362-0.564-1.82-0.705-3.697-0.536-5.601 0.056-0.677 0.155-1.369 0.226-2.046 0.014-0.085 0.042-0.183 0.071-0.268 0.028 0 0.056-0.014 0.099-0.014z"></path>
<path d="M31.111 18.681c-0.381-0.649-0.776-1.298-1.157-1.947-0.635-1.072-1.256-2.145-1.891-3.217-0.155-0.254-0.169-0.451-0.014-0.72 0.635-1.143 0.635-2.3 0.056-3.471-0.875-1.778-3.358-2.497-5.023-1.411-0.409 0.268-0.748 0.31-1.171 0.127-0.635-0.268-1.284-0.494-1.933-0.72-0.226-0.085-0.325-0.198-0.296-0.437 0.056-0.437 0.085-0.875 0.155-1.312 0.014-0.113 0.141-0.268 0.226-0.296 2.356-0.437 4.698-0.522 6.928 0.55 1.961 0.945 3.189 2.554 3.866 4.571 0.776 2.272 0.861 4.628 0.536 6.998-0.056 0.423-0.113 0.832-0.169 1.256-0.028 0.014-0.071 0.014-0.113 0.028z"></path>
<path d="M6.321 27.979c0.141-0.014 0.212-0.042 0.268-0.042 1.947-0.056 3.894-0.099 5.827-0.155 0.282-0.014 0.451 0.099 0.593 0.339 0.776 1.284 2.258 1.933 3.725 1.651 1.481-0.282 2.667-1.439 2.907-2.907 0.056-0.353 0-0.734 0.042-1.101 0.014-0.169 0.085-0.381 0.198-0.48 0.578-0.536 1.199-1.044 1.792-1.566 0.212-0.183 0.381-0.198 0.621-0.014 0.31 0.24 0.635 0.466 0.959 0.677 0.183 0.113 0.226 0.254 0.155 0.451-0.748 2.258-1.82 4.303-3.824 5.728-1.51 1.072-3.217 1.453-5.023 1.284-3.104-0.296-5.686-1.792-8.085-3.654-0.028-0.071-0.071-0.113-0.155-0.212z"></path>
<path d="M15.831 8.593c-1.552 0-2.751-1.228-2.737-2.808 0.014-1.552 1.242-2.737 2.822-2.723 1.524 0.014 2.737 1.242 2.723 2.78 0 1.538-1.242 2.751-2.808 2.751z"></path>
<path d="M24.832 23.831c-1.538 0-2.737-1.199-2.737-2.765 0-1.552 1.227-2.765 2.794-2.751 1.538 0.014 2.723 1.227 2.723 2.78s-1.199 2.737-2.78 2.737z"></path>
<path d="M4.43 10.935c0-1.58 1.171-2.723 2.78-2.751 1.481-0.028 2.737 1.227 2.737 2.723 0 1.552-1.228 2.794-2.765 2.794-1.538-0.014-2.751-1.228-2.751-2.765z"></path>
<path d="M7.153 23.817c-1.524 0-2.78-1.256-2.78-2.794 0-1.524 1.27-2.765 2.808-2.751 1.496 0.014 2.737 1.256 2.737 2.751 0.014 1.524-1.242 2.794-2.765 2.794z"></path>
<path d="M22.166 11.019c-0.014-1.51 1.171-2.737 2.667-2.751 1.58-0.014 2.794 1.171 2.822 2.765 0.028 1.481-1.227 2.723-2.751 2.737-1.538 0.014-2.723-1.171-2.737-2.751z"></path>
<path d="M16.113 28.938c-1.524 0-2.751-1.199-2.751-2.709 0-1.538 1.227-2.78 2.751-2.78 1.496 0 2.737 1.242 2.751 2.751-0.014 1.51-1.242 2.737-2.751 2.737z"></path>
</svg>
