<?xml version="1.0" encoding="utf-8"?>
<!-- Generator: Adobe Illustrator 22.1.0, SVG Export Plug-In . SVG Version: 6.00 Build 0)  -->
<svg version="1.1" id="Layer_1" xmlns="http://www.w3.org/2000/svg" xmlns:xlink="http://www.w3.org/1999/xlink" x="0px" y="0px"
	 viewBox="0 0 226.8 226.8" style="enable-background:new 0 0 226.8 226.8;" xml:space="preserve">
<g>
	<path d="M181.8,28.3c-2.4,0.2-4.5,0.5-6.5,0.5c-12.5,0.4-25,0.8-37.5,1.2c-1.6,0.1-2.5-0.4-3.4-1.9c-9.5-15.2-29.4-16.9-41.3-3.5
		c-4.6,5.2-6.7,11.4-5.9,18.4c0.3,2.5-0.2,4.2-2.2,5.9c-4.2,3.4-8.3,7.1-12.4,10.8c-1.2,1.1-2.2,1.2-3.5,0.2
		c-2.5-1.8-5.1-3.6-7.7-5.3c-1.1-0.7-1.6-1.5-1.1-2.9c4.6-14.7,11.2-28.1,23.1-38.4c11.6-10,25.3-13.6,40.3-12.2
		c20,1.9,37,10.9,53,22.4c1.6,1.1,3.1,2.3,4.6,3.5C181.3,27.4,181.4,27.7,181.8,28.3z"/>
	<path d="M152.1,215.1c2.1-3.9,4.2-7.8,6.3-11.7c4.7-8.7,9.5-17.4,14.2-26.1c0.9-1.7,1.8-2.5,3.9-2.5c12.3-0.1,22.1-8.2,24.8-20.3
		c2.5-11.1-3.5-23.1-14.3-28.1c-2-0.9-2.9-2-3.2-4.2c-0.8-5.5-1.9-10.9-3-16.3c-0.4-1.7,0-2.7,1.6-3.3c2.9-1.2,5.8-2.7,8.7-3.9
		c0.7-0.3,2-0.2,2.4,0.3c10.5,11.5,18.7,24.2,21.4,39.8c2.7,15.6-1.5,29.5-10.8,41.9c-10.5,13.9-24.6,23.2-40.1,30.5
		c-3.1,1.5-6.3,2.8-9.5,4.1c-0.6,0.2-1.2,0.3-1.9,0.5C152.4,215.4,152.2,215.2,152.1,215.1z"/>
	<path d="M75,11.9c-1.1,2.2-2.2,4.4-3.4,6.6c-5.8,10.6-11.6,21.2-17.5,31.8c-0.4,0.8-1.6,1.5-2.5,1.5C35.2,52,23.6,64.9,25.7,81.2
		c1.2,8.9,6.2,15.5,14.4,19.3c1.9,0.9,2.8,2.1,3.1,4.1c0.9,5.5,2,10.9,3,16.3c0.4,1.9-0.3,3-2.1,3.7c-2.6,1.1-5.2,2.5-7.8,3.5
		c-0.9,0.3-2.5,0.2-3-0.4C23,116.3,15,103.6,12.3,88.2c-2.3-13.4,0.5-25.7,7.6-37.1c7.1-11.5,16.9-20.2,28.4-27
		c7.6-4.4,15.7-8,23.6-11.9c0.8-0.4,1.8-0.5,2.7-0.8C74.7,11.6,74.9,11.7,75,11.9z"/>
	<path d="M6.4,94.7c2.5,4.2,5,8.3,7.4,12.5c5,8.3,9.9,16.6,14.9,24.9c0.9,1.5,0.9,2.6,0,4.1c-5.1,8.9-5,17.9,0.4,26.5
		c5.4,8.7,13.6,12.5,23.8,11.9c4.6-0.3,8.9-1.9,12.6-4.7c1.3-1,2.5-1.2,4.2-0.6c5.5,2.1,11,4.1,16.6,6.1c1.2,0.4,2,0.9,1.8,2.5
		c-0.4,3.1-0.5,6.2-1,9.3c-0.2,1-1.1,2.5-1.9,2.7c-14.3,2.9-28.5,3.7-42.6-1C24,182.5,13.1,169,7.4,150.9c-4-12.9-5-26.2-3.8-39.7
		c0.4-4.8,1.1-9.7,1.6-14.5c0.1-0.6,0.3-1.3,0.5-1.9C5.9,94.8,6.1,94.7,6.4,94.7z"/>
	<path d="M220.5,132.4c-2.7-4.6-5.5-9.2-8.2-13.8c-4.5-7.6-8.9-15.2-13.4-22.8c-1.1-1.8-1.2-3.2-0.1-5.1c4.5-8.1,4.5-16.3,0.4-24.6
		c-6.2-12.6-23.8-17.7-35.6-10c-2.9,1.9-5.3,2.2-8.3,0.9c-4.5-1.9-9.1-3.5-13.7-5.1c-1.6-0.6-2.3-1.4-2.1-3.1
		c0.4-3.1,0.6-6.2,1.1-9.3c0.1-0.8,1-1.9,1.6-2.1c16.7-3.1,33.3-3.7,49.1,3.9c13.9,6.7,22.6,18.1,27.4,32.4
		c5.5,16.1,6.1,32.8,3.8,49.6c-0.4,3-0.8,5.9-1.2,8.9C221.1,132.3,220.8,132.3,220.5,132.4z"/>
	<path d="M44.8,198.3c1-0.1,1.5-0.3,1.9-0.3c13.8-0.4,27.6-0.7,41.3-1.1c2-0.1,3.2,0.7,4.2,2.4c5.5,9.1,16,13.7,26.4,11.7
		c10.5-2,18.9-10.2,20.6-20.6c0.4-2.5,0-5.2,0.3-7.8c0.1-1.2,0.6-2.7,1.4-3.4c4.1-3.8,8.5-7.4,12.7-11.1c1.5-1.3,2.7-1.4,4.4-0.1
		c2.2,1.7,4.5,3.3,6.8,4.8c1.3,0.8,1.6,1.8,1.1,3.2c-5.3,16-12.9,30.5-27.1,40.6c-10.7,7.6-22.8,10.3-35.6,9.1
		c-22-2.1-40.3-12.7-57.3-25.9C45.7,199.3,45.4,199,44.8,198.3z"/>
	<path d="M112.2,60.9c-11,0-19.5-8.7-19.4-19.9c0.1-11,8.8-19.4,20-19.3c10.8,0.1,19.4,8.8,19.3,19.7
		C132.1,52.3,123.3,60.9,112.2,60.9z"/>
	<path d="M176,168.9c-10.9,0-19.4-8.5-19.4-19.6c0-11,8.7-19.6,19.8-19.5c10.9,0.1,19.3,8.7,19.3,19.7
		C195.7,160.5,187.2,168.9,176,168.9z"/>
	<path d="M31.4,77.5c0-11.2,8.3-19.3,19.7-19.5c10.5-0.2,19.4,8.7,19.4,19.3c0,11-8.7,19.8-19.6,19.8C40,97,31.4,88.4,31.4,77.5z"/>
	<path d="M50.7,168.8c-10.8,0-19.7-8.9-19.7-19.8c0-10.8,9-19.6,19.9-19.5c10.6,0.1,19.4,8.9,19.4,19.5
		C70.4,159.8,61.5,168.8,50.7,168.8z"/>
	<path d="M157.1,78.1c-0.1-10.7,8.3-19.4,18.9-19.5c11.2-0.1,19.8,8.3,20,19.6c0.2,10.5-8.7,19.3-19.5,19.4
		C165.6,97.7,157.2,89.3,157.1,78.1z"/>
	<path d="M114.2,205.1c-10.8,0-19.5-8.5-19.5-19.2c0-10.9,8.7-19.7,19.5-19.7c10.6,0,19.4,8.8,19.5,19.5
		C133.6,196.4,124.9,205.1,114.2,205.1z"/>
</g>
</svg>
