<?xml version="1.0" encoding="utf-8"?>
<!-- Generator: Adobe Illustrator 22.1.0, SVG Export Plug-In . SVG Version: 6.00 Build 0)  -->
<svg version="1.1" id="Layer_1" xmlns="http://www.w3.org/2000/svg" xmlns:xlink="http://www.w3.org/1999/xlink" x="0px" y="0px"
	 viewBox="0 0 250 250" style="enable-background:new 0 0 250 250;" xml:space="preserve">
<g>
	<path d="M249.4,125.4c-0.9,69.2-54.5,124.7-125,124.6C55,250-0.4,195.3,0,125C0.4,55.4,53.6,2.6,124.5,0
		C195.3,2.2,248.5,56.1,249.4,125.4z M124.2,3.7C57.8,3.4,2.7,57.4,2.9,125.1c0.1,68.7,54,122.3,122.3,122
		c67.3-0.3,120.7-53.4,121.1-121.8C246.6,57.6,191.2,2.9,124.2,3.7z"/>
	<path d="M125,22.6c56.8,0.4,102.5,45.6,102.2,103.3c-0.2,56.1-44.9,102.4-102.9,102.2C67.6,228,21.4,183,21.9,124.5
		C22.3,67.9,67,22.9,125,22.6z M124.7,225.5c54.5,1.8,101.6-45.4,100.7-101.4c-0.8-54.9-45.4-99.7-101.1-99.5
		C68.9,24.8,24.4,68.8,23.7,124.7C23.1,180.9,70.3,227.1,124.7,225.5z"/>
	<path d="M141.4,46.7c2.1,0,4.2,0,6.3,0c2,0,2.3,1,1.6,2.7c-1.2,2.7-2.2,5.5-3.3,8.2c-1,2.3-0.6,3,1.9,3.6c7.9,1.8,8.5,1.5,11.3-6.3
		c2.9-8.2,2.9-8.2,11.6-8.2c2.1,0,4.2,0,6.3,0c1.9,0,2.4,0.8,1.7,2.7c-1.5,3.5-2.8,7-4.2,10.5c-0.5,1.3-0.7,2.7-1.3,3.9
		c-1.2,2.6-0.1,3.7,2.2,4.7c7.2,3.2,7.2,3.3,6.2,10.9c-0.5,3.8-1.4,7.5-2.2,11.2c-0.5,2.4-3,2.8-5.4,0.9c-1.9-1.5-3.6-3.2-5.6-4.6
		c-2.8-2-3.2-1.9-4.5,1.2c-3,7.6-6,15.2-8.9,22.8c-4.2,10.9-8.2,21.8-12.4,32.6c-3.4,8.7-6.9,17.4-10.3,26.2
		c-0.6,1.6-0.8,3.3-1.1,4.9c1.6-0.1,3.4,0,4.9-0.3c8.2-2,15.4-6.1,22.4-10.7c1.7-1.2,3.4-2.4,5.3-3.3c1.8-0.9,2.8-0.1,2.5,1.8
		c-0.9,5.3-1.9,10.6-2.8,15.9c-0.5,2.6-1.9,4-4.4,5.2c-10.6,4.6-21.2,8.8-32.8,10c-2.2,0.2-3.4,1.5-4.1,3.5
		c-3.7,10.9-2.3,8.9-14.2,9.1c-0.3,0-0.7,0-1,0c-5.8-0.1-5.8-0.1-3.3-5.4c0.3-0.6,0.5-1.3,0.7-2c1.5-4.8,1.2-5.3-3.6-6.3
		c-0.5-0.1-1-0.1-1.5-0.2c-4.3-0.8-4.3-0.8-5.9,3.5c-0.8,2.3-1.8,4.5-2.6,6.8c-0.8,2.5-2.2,3.7-4.9,3.6c-3.6-0.2-7.3-0.1-11,0
		c-2,0-2.5-1-1.9-2.6c1.7-4.7,3.4-9.5,5.3-14.1c2.2-5.3,2.4-5.4-1.7-9.4c-7.2-7.2-10.6-16.1-12-26c-2.3-15.6,0.4-30.6,5.9-44.9
		c5.1-13.1,12.9-24.4,24.6-32.9c8.9-6.5,18.5-10.9,29.2-13.1c2.2-0.5,3.3-1.5,4-3.5c1-2.8,2.1-5.5,3.1-8.3c1.4-4,1.4-4,5.5-4.1
		C138.2,46.6,139.8,46.7,141.4,46.7C141.4,46.7,141.4,46.7,141.4,46.7z M141.2,48.3c0,0.1,0,0.2,0,0.3c-0.5,0-1-0.1-1.6-0.1
		c-5.3-0.1-5.7,0.1-7.4,5.2c-0.8,2.3-1.5,4.6-2.2,7c-0.7,2.2-2.1,3.3-4.5,3.6c-8.9,1.2-17,4.8-24.5,9.5c-10.9,6.7-19,16.2-25,27.4
		c-4.7,8.8-7.5,18.2-8.9,28.1c-1,7.6-2,15.1-0.9,22.8c0.7,4.8,2.4,9.3,4,13.9c2.2,6.3,5.8,11,10.9,14.7c1.4,1,1.9,1.9,1.4,3.4
		c-0.4,1.3-0.7,2.7-1.3,3.9c-1.8,4.3-3.8,8.5-5.6,12.9c-1,2.4-0.1,3.6,2.6,3.6c1.7,0,3.5-0.7,5.1-0.3c3.2,0.9,4.5-0.7,5.5-3.2
		c1.4-3.6,2.8-7.1,4.2-10.7c0.7-1.7,1-2.5,3.3-1.5c2.6,1.2,5.7,1.5,8.6,1.8c3.2,0.3,3.6,0.6,2.7,3.7c-0.2,0.7-0.4,1.3-0.6,2
		c-2.2,7.7-0.9,9.1,7.1,8.3c2-0.2,3.3-0.9,3.7-2.9c0.3-1.4,0.5-2.8,1.1-4c1.7-3.5,3.4-6.4,8.2-6.7c11-0.8,21-5.4,31.1-9.6
		c1-0.4,2.1-1.5,2.4-2.5c1.2-4.4,2.1-8.8,3-13.2c0.1-0.6-0.3-1.5-0.7-1.8c-0.4-0.3-1.3,0-1.8,0.3c-3.6,2.6-7.3,5.1-11.3,7.2
		c-5.8,3-11.9,4.9-18.1,6.7c-1.2,0.3-2.6-0.1-4-0.2c0.2-1.2,0.3-2.4,0.7-3.5c1.6-4.6,3.3-9.1,5.2-13.5c4.8-11,8.8-22.3,13.1-33.4
		c4.3-11.2,8.5-22.4,12.8-33.6c1-2.8,1.9-5.6,3.2-8.3c1.7-3.7,2.2-3.7,5.2-1.4c2,1.6,4,3.3,6.1,5c2.4,1.9,3.1,1.8,3.7-1.3
		c0.6-3.4,0.5-7,1.3-10.3c0.7-2.7-0.3-4.4-2.3-5.7c-1.1-0.8-2.4-1.3-3.7-2c-3.3-1.8-3.5-2.1-2.1-5.7c1.4-3.6,2.8-7.1,4.2-10.7
		c1.6-4.2,1.3-4.6-3.3-4.7c-1.6,0-3.1,0.2-4.7,0.1c-3-0.3-4.4,1.4-5.3,3.9c-1.1,2.9-2.2,5.8-3.3,8.8c-0.9,2.5-2.5,3.5-5.3,2.6
		c-1.8-0.6-3.7-0.7-5.6-0.8c-6.2-0.3-6.7-1-3.6-6.3c0.3-0.5,0.7-0.8,0.8-1.3c0.6-2.1,1.2-4.2,1.8-6.3
		C144.7,48.9,143,48.6,141.2,48.3z"/>
	<path d="M109.5,178.8c-3.1-1-6.2-2-9.2-3.2c-0.5-0.2-0.8-1.4-0.9-2.1c-0.1-0.4,0.3-1,0.5-1.5c2.2-6.2,4.2-12.5,6.6-18.7
		c2.2-5.8,5-11.4,7.3-17.2c1.9-4.8,3.2-9.9,5.1-14.8c2.6-6.6,5.5-13.1,8.1-19.7c3-7.6,5.9-15.2,8.8-22.8c1.4-3.7,1.8-4.1,5.7-3.7
		c2.8,0.3,5.5,0.8,8.2,1.4c2.2,0.5,2.6,1.7,1.8,3.9c-3.3,8.8-6.3,17.6-9.7,26.4c-2.5,6.6-5.5,13.1-8.1,19.7
		c-4.7,11.8-9.4,23.5-13.7,35.4c-1.6,4.4-3.3,8.7-5,13C113.8,177.6,112.7,179,109.5,178.8z M108.3,176c3,0.6,4.2-0.9,5-2.8
		c1.1-2.7,2-5.6,3-8.3c5-12.8,10-25.6,15-38.3c5.9-15.1,11.7-30.1,17.6-45.2c1-2.7,0.9-3-1.7-3.4c-1.5-0.2-3.1-0.3-4.6-0.6
		c-2-0.5-3.5,0.1-4.4,1.8c-0.7,1.2-1.2,2.5-1.7,3.8c-5.3,13.4-10.6,26.8-15.7,40.3c-5.7,14.8-11.2,29.6-16.9,44.3
		C101.2,174.1,101.8,175.2,108.3,176z"/>
	<path d="M82.3,140.5c0-4-0.2-7.1,0.1-10.2c0.3-2.7,1-5.4,1.8-8c1-3.5,2-7,3.4-10.4c2-4.8,3.6-10,6.7-14
		c6.4-8.5,14.3-15.5,24.3-19.6c0.5-0.2,1-0.2,1.5-0.3c2.7-0.5,2.8-0.5,1.8,2.1c-4.4,11.5-9.2,22.9-13.2,34.5
		c-3.9,11.3-9.4,22-12.8,33.5c-1.6,5.3-4.5,10.1-6,15.3c-0.2,0.6-0.8,1.1-1.2,1.6c-0.5-0.5-1-0.9-1.4-1.4
		C82.5,156.3,81.3,148.2,82.3,140.5z M84.1,143.1c-0.4,3.2,0.7,8.8,2.7,14.3c0.3,0.9,1,1.7,1.4,2.6c0.6-0.8,1.3-1.5,1.7-2.3
		c0.7-1.4,1.3-2.9,1.8-4.3c6.9-18.1,13.8-36.2,20.8-54.3c2-5.3,4.2-10.7,6.2-16c0.2-0.5-0.2-1.3-0.3-1.9c-0.5,0.1-1,0.1-1.4,0.3
		c-9.6,4.7-17.3,11.6-22.7,20.8C87.3,113.9,84.5,126.9,84.1,143.1z"/>
</g>
</svg>
