<!-- Generated by IcoMoon.io -->
<svg version="1.1" xmlns="http://www.w3.org/2000/svg" width="32" height="32" viewBox="0 0 32 32">
<title>CMT</title>
<path d="M31.923 16.051c-0.115 8.858-6.976 15.962-16 15.949-8.883 0-15.974-7.002-15.923-16 0.051-8.909 6.861-15.667 15.936-16 9.062 0.282 15.872 7.181 15.987 16.051zM15.898 0.474c-8.499-0.038-15.552 6.874-15.526 15.539 0.013 8.794 6.912 15.654 15.654 15.616 8.614-0.038 15.45-6.835 15.501-15.59 0.038-8.666-7.053-15.667-15.629-15.565z"></path>
<path d="M16 2.893c7.27 0.051 13.12 5.837 13.082 13.222-0.026 7.181-5.747 13.107-13.171 13.082-7.258-0.013-13.171-5.773-13.107-13.261 0.051-7.245 5.773-13.005 13.197-13.043zM15.962 28.864c6.976 0.23 13.005-5.811 12.89-12.979-0.102-7.027-5.811-12.762-12.941-12.736-7.091 0.026-12.787 5.658-12.877 12.813-0.077 7.194 5.965 13.107 12.928 12.902z"></path>
<path d="M18.099 5.978c0.269 0 0.538 0 0.806 0 0.256 0 0.294 0.128 0.205 0.346-0.154 0.346-0.282 0.704-0.422 1.050-0.128 0.294-0.077 0.384 0.243 0.461 1.011 0.23 1.088 0.192 1.446-0.806 0.371-1.050 0.371-1.050 1.485-1.050 0.269 0 0.538 0 0.806 0 0.243 0 0.307 0.102 0.218 0.346-0.192 0.448-0.358 0.896-0.538 1.344-0.064 0.166-0.090 0.346-0.166 0.499-0.154 0.333-0.013 0.474 0.282 0.602 0.922 0.41 0.922 0.422 0.794 1.395-0.064 0.486-0.179 0.96-0.282 1.434-0.064 0.307-0.384 0.358-0.691 0.115-0.243-0.192-0.461-0.41-0.717-0.589-0.358-0.256-0.41-0.243-0.576 0.154-0.384 0.973-0.768 1.946-1.139 2.918-0.538 1.395-1.050 2.79-1.587 4.173-0.435 1.114-0.883 2.227-1.318 3.354-0.077 0.205-0.102 0.422-0.141 0.627 0.205-0.013 0.435 0 0.627-0.038 1.050-0.256 1.971-0.781 2.867-1.37 0.218-0.154 0.435-0.307 0.678-0.422 0.23-0.115 0.358-0.013 0.32 0.23-0.115 0.678-0.243 1.357-0.358 2.035-0.064 0.333-0.243 0.512-0.563 0.666-1.357 0.589-2.714 1.126-4.198 1.28-0.282 0.026-0.435 0.192-0.525 0.448-0.474 1.395-0.294 1.139-1.818 1.165-0.038 0-0.090 0-0.128 0-0.742-0.013-0.742-0.013-0.422-0.691 0.038-0.077 0.064-0.166 0.090-0.256 0.192-0.614 0.154-0.678-0.461-0.806-0.064-0.013-0.128-0.013-0.192-0.026-0.55-0.102-0.55-0.102-0.755 0.448-0.102 0.294-0.23 0.576-0.333 0.87-0.102 0.32-0.282 0.474-0.627 0.461-0.461-0.026-0.934-0.013-1.408 0-0.256 0-0.32-0.128-0.243-0.333 0.218-0.602 0.435-1.216 0.678-1.805 0.282-0.678 0.307-0.691-0.218-1.203-0.922-0.922-1.357-2.061-1.536-3.328-0.294-1.997 0.051-3.917 0.755-5.747 0.653-1.677 1.651-3.123 3.149-4.211 1.139-0.832 2.368-1.395 3.738-1.677 0.282-0.064 0.422-0.192 0.512-0.448 0.128-0.358 0.269-0.704 0.397-1.062 0.179-0.512 0.179-0.512 0.704-0.525 0.154-0.038 0.358-0.026 0.563-0.026 0 0 0 0 0 0zM18.074 6.182c0 0.013 0 0.026 0 0.038-0.064 0-0.128-0.013-0.205-0.013-0.678-0.013-0.73 0.013-0.947 0.666-0.102 0.294-0.192 0.589-0.282 0.896-0.090 0.282-0.269 0.422-0.576 0.461-1.139 0.154-2.176 0.614-3.136 1.216-1.395 0.858-2.432 2.074-3.2 3.507-0.602 1.126-0.96 2.33-1.139 3.597-0.128 0.973-0.256 1.933-0.115 2.918 0.090 0.614 0.307 1.19 0.512 1.779 0.282 0.806 0.742 1.408 1.395 1.882 0.179 0.128 0.243 0.243 0.179 0.435-0.051 0.166-0.090 0.346-0.166 0.499-0.23 0.55-0.486 1.088-0.717 1.651-0.128 0.307-0.013 0.461 0.333 0.461 0.218 0 0.448-0.090 0.653-0.038 0.41 0.115 0.576-0.090 0.704-0.41 0.179-0.461 0.358-0.909 0.538-1.37 0.090-0.218 0.128-0.32 0.422-0.192 0.333 0.154 0.73 0.192 1.101 0.23 0.41 0.038 0.461 0.077 0.346 0.474-0.026 0.090-0.051 0.166-0.077 0.256-0.282 0.986-0.115 1.165 0.909 1.062 0.256-0.026 0.422-0.115 0.474-0.371 0.038-0.179 0.064-0.358 0.141-0.512 0.218-0.448 0.435-0.819 1.050-0.858 1.408-0.102 2.688-0.691 3.981-1.229 0.128-0.051 0.269-0.192 0.307-0.32 0.154-0.563 0.269-1.126 0.384-1.69 0.013-0.077-0.038-0.192-0.090-0.23s-0.166 0-0.23 0.038c-0.461 0.333-0.934 0.653-1.446 0.922-0.742 0.384-1.523 0.627-2.317 0.858-0.154 0.038-0.333-0.013-0.512-0.026 0.026-0.154 0.038-0.307 0.090-0.448 0.205-0.589 0.422-1.165 0.666-1.728 0.614-1.408 1.126-2.854 1.677-4.275 0.55-1.434 1.088-2.867 1.638-4.301 0.128-0.358 0.243-0.717 0.41-1.062 0.218-0.474 0.282-0.474 0.666-0.179 0.256 0.205 0.512 0.422 0.781 0.64 0.307 0.243 0.397 0.23 0.474-0.166 0.077-0.435 0.064-0.896 0.166-1.318 0.090-0.346-0.038-0.563-0.294-0.73-0.141-0.102-0.307-0.166-0.474-0.256-0.422-0.23-0.448-0.269-0.269-0.73s0.358-0.909 0.538-1.37c0.205-0.538 0.166-0.589-0.422-0.602-0.205 0-0.397 0.026-0.602 0.013-0.384-0.038-0.563 0.179-0.678 0.499-0.141 0.371-0.282 0.742-0.422 1.126-0.115 0.32-0.32 0.448-0.678 0.333-0.23-0.077-0.474-0.090-0.717-0.102-0.794-0.038-0.858-0.128-0.461-0.806 0.038-0.064 0.090-0.102 0.102-0.166 0.077-0.269 0.154-0.538 0.23-0.806-0.243-0.077-0.461-0.115-0.691-0.154z"></path>
<path d="M14.016 22.886c-0.397-0.128-0.794-0.256-1.178-0.41-0.064-0.026-0.102-0.179-0.115-0.269-0.013-0.051 0.038-0.128 0.064-0.192 0.282-0.794 0.538-1.6 0.845-2.394 0.282-0.742 0.64-1.459 0.934-2.202 0.243-0.614 0.41-1.267 0.653-1.894 0.333-0.845 0.704-1.677 1.037-2.522 0.384-0.973 0.755-1.946 1.126-2.918 0.179-0.474 0.23-0.525 0.73-0.474 0.358 0.038 0.704 0.102 1.050 0.179 0.282 0.064 0.333 0.218 0.23 0.499-0.422 1.126-0.806 2.253-1.242 3.379-0.32 0.845-0.704 1.677-1.037 2.522-0.602 1.51-1.203 3.008-1.754 4.531-0.205 0.563-0.422 1.114-0.64 1.664-0.154 0.346-0.294 0.525-0.704 0.499zM13.862 22.528c0.384 0.077 0.538-0.115 0.64-0.358 0.141-0.346 0.256-0.717 0.384-1.062 0.64-1.638 1.28-3.277 1.92-4.902 0.755-1.933 1.498-3.853 2.253-5.786 0.128-0.346 0.115-0.384-0.218-0.435-0.192-0.026-0.397-0.038-0.589-0.077-0.256-0.064-0.448 0.013-0.563 0.23-0.090 0.154-0.154 0.32-0.218 0.486-0.678 1.715-1.357 3.43-2.010 5.158-0.73 1.894-1.434 3.789-2.163 5.67-0.346 0.832-0.269 0.973 0.563 1.075z"></path>
<path d="M10.534 17.984c0-0.512-0.026-0.909 0.013-1.306 0.038-0.346 0.128-0.691 0.23-1.024 0.128-0.448 0.256-0.896 0.435-1.331 0.256-0.614 0.461-1.28 0.858-1.792 0.819-1.088 1.83-1.984 3.11-2.509 0.064-0.026 0.128-0.026 0.192-0.038 0.346-0.064 0.358-0.064 0.23 0.269-0.563 1.472-1.178 2.931-1.69 4.416-0.499 1.446-1.203 2.816-1.638 4.288-0.205 0.678-0.576 1.293-0.768 1.958-0.026 0.077-0.102 0.141-0.154 0.205-0.064-0.064-0.128-0.115-0.179-0.179-0.614-0.934-0.768-1.971-0.64-2.957zM10.765 18.317c-0.051 0.41 0.090 1.126 0.346 1.83 0.038 0.115 0.128 0.218 0.179 0.333 0.077-0.102 0.166-0.192 0.218-0.294 0.090-0.179 0.166-0.371 0.23-0.55 0.883-2.317 1.766-4.634 2.662-6.95 0.256-0.678 0.538-1.37 0.794-2.048 0.026-0.064-0.026-0.166-0.038-0.243-0.064 0.013-0.128 0.013-0.179 0.038-1.229 0.602-2.214 1.485-2.906 2.662-0.896 1.485-1.254 3.149-1.306 5.222z"></path>
</svg>
