<!-- Generated by IcoMoon.io -->
<svg version="1.1" xmlns="http://www.w3.org/2000/svg" width="32" height="32" viewBox="0 0 32 32">
<title>CND</title>
<path d="M19.789 23.552c0.768-0.179 1.6-0.422 2.445-0.55 0.909-0.141 1.587-0.576 2.099-1.318 0.256-0.371 0.576-0.461 1.011-0.218 0.371 0.205 0.781 0.371 1.203 0.461 0.704 0.154 1.037 0.55 1.19 1.242 0.307 1.382 0.704 2.739 1.011 4.122 0.038 0.166-0.141 0.461-0.307 0.563-1.331 0.768-2.662 1.574-4.058 2.227-1.024 0.486-2.138 0.819-3.238 1.114-0.909 0.243-1.869 0.307-2.803 0.474-0.461 0.077-0.909 0.256-1.37 0.307-0.448 0.051-0.922 0.064-1.37-0.038-0.55-0.128-1.062-0.448-1.626-0.55-0.87-0.166-1.459-0.717-2.035-1.318-0.141-0.141-0.294-0.269-0.422-0.422-0.934-1.242-2.253-1.856-3.712-2.202-1.101-0.269-1.779-0.794-2.176-1.958-0.973-2.931-2.112-5.786-3.213-8.678-0.166-0.435-0.077-0.742 0.307-0.947 1.024-0.55 1.421-1.344 1.216-2.509-0.128-0.755-0.077-1.536-0.154-2.304-0.051-0.461 0.128-0.691 0.55-0.832 0.525-0.179 1.050-0.384 1.549-0.627 0.179-0.090 0.384-0.333 0.41-0.525 0.141-1.19 0.243-2.394 0.358-3.584 0.038-0.448 0.166-0.781 0.589-1.050 1.779-1.152 3.507-2.368 5.274-3.546 0.166-0.115 0.435-0.154 0.653-0.128 1.165 0.192 2.33 0.422 3.494 0.602 0.282 0.038 0.602-0.026 0.858-0.141 0.704-0.346 1.37-0.781 2.086-1.114 0.256-0.115 0.627-0.090 0.922-0.038 0.973 0.179 1.933 0.397 2.893 0.627 1.587 0.384 2.893 1.203 3.75 2.637 0.090 0.154 0.166 0.32 0.294 0.448 0.87 0.922 0.691 1.741 0.038 2.778-0.666 1.062-1.395 1.715-2.662 1.83-0.781 0.077-1.536 0.32-2.304 0.499-0.371 0.090-0.627 0.013-0.768-0.371-0.115-0.307-0.307-0.589-0.371-0.896-0.141-0.794-0.704-1.011-1.382-1.088-0.243-0.026-0.499-0.038-0.742-0.115-1.114-0.333-2.022 0.269-2.957 0.678-0.858 0.397-1.69 0.883-2.496 1.37-0.179 0.102-0.333 0.371-0.346 0.589-0.102 1.114-0.128 2.227-0.23 3.328-0.026 0.282-0.154 0.589-0.333 0.819-0.461 0.614-0.96 1.216-1.472 1.779-0.218 0.23-0.218 0.397-0.051 0.653 0.627 0.947 1.203 1.92 1.856 2.842 0.32 0.448 0.41 0.87 0.166 1.344-0.422 0.806-0.205 1.37 0.397 2.035 0.614 0.678 1.242 1.011 2.15 1.101 1.267 0.115 2.496 0.384 3.827 0.602zM11.738 27.085c1.062 0.397 1.997 0.755 2.931 1.088 0.115 0.038 0.307 0.051 0.397-0.013 1.037-0.64 2.074-1.293 3.2-1.997-1.523-0.525-2.918-1.011-4.326-1.485-0.128-0.038-0.384 0.013-0.474 0.115-0.563 0.717-1.101 1.459-1.728 2.291zM4.275 20.851c0.768-1.126 1.421-2.138 2.112-3.098 0.243-0.346 0.166-0.525-0.102-0.755-0.589-0.525-1.165-1.062-1.754-1.574-0.102-0.090-0.333-0.205-0.397-0.154-0.474 0.32-0.998 0.627-1.331 1.062-0.141 0.179 0.141 0.678 0.23 1.037 0.026 0.102 0.064 0.205 0.102 0.307 0.346 0.986 0.717 2.010 1.139 3.174zM10.714 15.424c-1.984-1.152-3.981-1.024-6.016-0.486 1.357 0.858 2.726 1.638 4.096 2.394 0.115 0.064 0.358 0.051 0.422-0.013 0.512-0.614 0.998-1.254 1.498-1.894zM28.198 26.995c0.038-0.026 0.077-0.051 0.128-0.064-0.026-0.141-0.038-0.269-0.064-0.41-0.23-0.896-0.461-1.805-0.704-2.701-0.41-1.459-0.115-1.306-1.69-1.472-0.179-0.026-0.358-0.051-0.525-0.077-0.358-0.077-0.55 0.026-0.525 0.435 0.026 0.435 0 0.858 0.026 1.293 0.013 0.166 0.077 0.371 0.192 0.474 1.037 0.845 2.099 1.677 3.162 2.522zM23.232 27.814c0-0.051-0.013-0.090-0.013-0.141-1.485-0.448-2.97-0.909-4.518-1.382-0.371 1.114-0.717 2.176-1.075 3.226 0.051 0.038 0.090 0.077 0.141 0.115 1.83-0.602 3.648-1.203 5.466-1.818zM10.624 21.965c-1.178-0.32-2.291-0.538-3.341-0.947-1.024-0.41-1.613 0.23-2.47 0.678 1.536 0.768 2.944 1.472 4.365 2.15 0.090 0.038 0.307-0.064 0.384-0.166 0.346-0.525 0.678-1.075 1.062-1.715zM17.702 1.677c0.755 1.126 1.050 1.28 2.163 1.203 1.229-0.090 2.47-0.192 3.699-0.294 0.154-0.013 0.397-0.115 0.422-0.218 0.090-0.371 0.115-0.755 0.166-1.165-2.189 0.154-4.262 0.307-6.451 0.474zM6.784 20.48c1.395-0.115 2.637-0.205 3.878-0.32 0.115-0.013 0.294-0.243 0.307-0.384 0.038-0.538 0-1.075 0.013-1.613 0.013-0.333-0.128-0.448-0.448-0.435-0.781 0.038-1.536 0.077-2.022 0.845-0.154 0.256-0.422 0.448-0.627 0.666-0.333 0.384-0.666 0.768-1.101 1.242zM17.882 5.901c0.026-0.051 0.064-0.102 0.090-0.154-0.422-0.64-0.819-1.293-1.254-1.92-0.064-0.102-0.282-0.166-0.41-0.141-0.742 0.102-1.485 0.218-2.214 0.346-0.090 0.013-0.205 0.090-0.243 0.179-0.115 0.243 0.384 1.28 0.64 1.306 1.126 0.128 2.266 0.256 3.392 0.384zM18.906 3.366c-0.115 0.819-0.218 1.51-0.32 2.189-0.038 0.282 0.051 0.422 0.358 0.474 0.614 0.090 1.229 0.205 1.856 0.307 0.154 0.026 0.346 0.090 0.448 0.026 0.346-0.205 0.666-0.448 1.088-0.742-1.178-0.768-2.253-1.472-3.43-2.253zM23.782 3.072c-0.026-0.064-0.051-0.115-0.090-0.179-1.408 0.102-2.829 0.192-4.237 0.294-0.013 0.051-0.013 0.115-0.026 0.166 1.024 0.666 2.048 1.344 3.123 2.048 0.448-0.819 0.832-1.574 1.229-2.33zM6.426 26.483c0.704-0.614 1.306-1.139 1.958-1.715-1.152-0.845-2.227-1.626-3.29-2.406-0.051 0.038-0.090 0.077-0.141 0.102 0.474 1.293 0.947 2.586 1.472 4.019zM7.872 4.39c0.013 0.064 0.038 0.128 0.051 0.192 1.037-0.128 2.074-0.256 3.11-0.41 0.090-0.013 0.192-0.115 0.23-0.192 0.397-0.832 0.768-1.677 1.152-2.509-0.026-0.026-0.051-0.051-0.090-0.077-1.472 0.998-2.957 1.997-4.454 2.995zM19.61 23.846c-1.498-0.243-2.88-0.461-4.262-0.678-0.013 0.026-0.026 0.064-0.038 0.090 1.075 0.858 2.15 1.728 3.29 2.637 0.346-0.717 0.653-1.331 1.011-2.048zM8.563 12.762c0.026 0.026 0.064 0.051 0.090 0.077 1.126-1.459 2.253-2.906 3.379-4.365-0.026-0.038-0.064-0.077-0.090-0.115-0.678 0.218-1.37 0.41-2.022 0.678-0.23 0.102-0.486 0.371-0.563 0.614-0.294 1.024-0.538 2.074-0.794 3.11zM10.611 27.981c0.819 0.87 1.6 1.69 2.432 2.573 0.205-0.307 0.397-0.614 0.589-0.896 0.179-0.256 0.141-0.448-0.102-0.64-0.589-0.474-1.152-0.973-1.754-1.434-0.128-0.090-0.384-0.115-0.525-0.051-0.256 0.115-0.486 0.333-0.64 0.448zM11.226 22.426c-0.051 0.026-0.090 0.051-0.141 0.077 0.166 1.357 0.333 2.701 0.499 4.058 0.64-0.627 1.139-1.267 1.613-1.933 0.064-0.090 0.026-0.333-0.051-0.422-0.627-0.602-1.28-1.19-1.92-1.779zM12.25 8.883c-0.051-0.013-0.102-0.038-0.154-0.051-1.203 1.562-2.394 3.123-3.584 4.698-0.064 0.090-0.064 0.23-0.102 0.358 1.126-0.794 2.138-1.651 3.136-2.509 0.128-0.115 0.256-0.282 0.294-0.435 0.166-0.691 0.282-1.382 0.41-2.061zM23.782 29.85c0.038 0.038 0.077 0.077 0.115 0.128 1.306-0.717 2.611-1.434 3.917-2.138-1.165-0.064-2.291-0.026-3.418 0.051-0.128 0.013-0.32 0.166-0.346 0.294-0.102 0.55-0.179 1.114-0.269 1.664zM22.707 8.358c0.026 0.051 0.064 0.090 0.090 0.141 1.139-0.256 2.266-0.512 3.456-0.781-0.307-0.704-0.576-1.318-0.781-1.805-0.934 0.819-1.843 1.626-2.765 2.445zM17.242 29.709c0.358-1.075 0.704-2.061 1.037-3.059-0.038-0.026-0.090-0.051-0.128-0.077-0.947 0.602-1.882 1.203-2.918 1.856 0.691 0.448 1.28 0.819 2.010 1.28zM23.155 23.424c-0.051-0.026-0.090-0.064-0.141-0.090-1.203 0.806-2.406 1.613-3.597 2.419 0.013 0.038 0.038 0.090 0.051 0.128 0.973-0.115 1.946-0.218 2.906-0.346 0.090-0.013 0.205-0.102 0.23-0.179 0.205-0.64 0.371-1.28 0.55-1.933zM6.669 26.675c1.088 0.371 2.074 0.717 3.059 1.050 0.026-0.038 0.051-0.077 0.077-0.115-0.41-0.845-0.806-1.677-1.242-2.586-0.653 0.576-1.229 1.075-1.894 1.651zM22.707 7.885c0.87-0.858 1.651-1.6 2.406-2.368 0.077-0.077 0.141-0.218 0.154-0.333 0.013-0.755 0.013-1.523 0.013-2.278-0.051-0.013-0.115-0.013-0.166-0.026-0.794 1.638-1.574 3.264-2.406 5.005zM23.104 25.638c1.6 0.512 3.059 0.973 4.518 1.434-0.858-0.819-1.766-1.536-2.688-2.227-0.090-0.077-0.294-0.102-0.397-0.051-0.435 0.218-0.87 0.499-1.434 0.845zM5.478 14.362c0.934-0.064 1.728-0.115 2.598-0.179-0.346-0.896-0.666-1.715-1.037-2.675-0.55 1.011-1.024 1.869-1.562 2.854zM13.875 3.75c0.845-0.154 1.69-0.294 2.522-0.448 0.090-0.013 0.192-0.128 0.218-0.205 0.115-0.384 0.218-0.768 0.358-1.293-0.806 0.23-1.51 0.397-2.202 0.627-0.755 0.23-0.883 0.435-0.896 1.318zM13.44 4.237c-0.486 0.397-0.922 0.755-1.344 1.126-0.064 0.064-0.128 0.205-0.102 0.282 0.192 0.614 0.397 1.229 0.653 1.997 0.486-0.742 0.87-1.331 1.254-1.933 0.051-0.077 0.038-0.205 0-0.294-0.128-0.371-0.282-0.73-0.461-1.178zM18.266 5.632c0.115-0.768 0.218-1.421 0.307-2.074 0.026-0.166 0.013-0.384-0.077-0.499-0.333-0.41-0.704-0.781-1.075-1.165-0.077 0.026-0.166 0.038-0.243 0.064-0.064 0.563-0.32 1.178-0.154 1.664 0.243 0.691 0.781 1.293 1.242 2.010zM27.418 27.52c0.013-0.064 0.013-0.141 0.026-0.205-1.408-0.448-2.829-0.896-4.365-1.382 0.294 0.525 0.512 0.934 0.755 1.318 0.077 0.115 0.243 0.243 0.384 0.243 1.062 0.038 2.138 0.026 3.2 0.026zM9.472 6.771c0 0.755 0 1.382 0 2.086 0.896-0.294 1.702-0.563 2.522-0.819 0-0.038 0-0.090 0-0.128-0.806-0.371-1.613-0.742-2.522-1.139zM18.56 29.709c0.013 0.026 0.026 0.051 0.038 0.077 0.73 0 1.485-0.077 2.202 0.013 1.293 0.179 1.715-0.819 2.381-1.498-0.026-0.038-0.038-0.077-0.064-0.128-1.523 0.512-3.034 1.024-4.557 1.536zM17.472 25.562c0.026-0.038 0.051-0.077 0.090-0.115-0.947-0.768-1.907-1.536-2.906-2.342-0.294 0.41-0.538 0.768-0.832 1.178 1.306 0.474 2.483 0.883 3.648 1.28zM11.174 26.394c0.026-0.013 0.051-0.013 0.090-0.026-0.154-1.28-0.307-2.56-0.461-3.84-0.051-0.013-0.090-0.026-0.141-0.038-0.32 0.512-0.64 1.011-0.934 1.536-0.051 0.077-0.013 0.256 0.051 0.346 0.448 0.678 0.922 1.357 1.395 2.022zM23.411 27.43c0.026-0.038 0.064-0.090 0.090-0.128-0.256-0.422-0.486-0.858-0.755-1.28-0.051-0.090-0.205-0.179-0.307-0.179-0.922 0.102-1.843 0.218-2.765 0.333 0 0.038 0 0.064 0 0.102 1.242 0.371 2.496 0.755 3.738 1.152zM17.434 31.181c-0.013-0.653-0.128-1.101-0.614-1.395-0.461-0.269-0.922-0.563-1.37-0.845-0.563-0.346-0.717-0.294-1.037 0.371 0.973 0.589 1.958 1.203 3.021 1.869zM4.173 10.867c0.358 1.139 0.666 2.099 0.973 3.072 0.038 0 0.077 0.013 0.115 0.013 0.294-0.691 0.589-1.395 0.909-2.138-0.64-0.307-1.242-0.589-1.997-0.947zM22.554 7.539c0.781-1.626 1.549-3.251 2.368-4.966-0.986 0.282-2.202 2.854-2.368 4.966zM26.509 2.816c-0.307 0.883-0.55 1.613-0.832 2.419 0.794-0.090 1.446-0.166 2.189-0.243-0.461-0.742-0.87-1.395-1.357-2.176zM12.89 8.384c-0.077 0.013-0.154 0.026-0.23 0.038-0.128 0.678-0.179 1.382-0.422 2.022-0.294 0.794 0.154 1.216 0.653 1.702 0.115-1.101 0.166-2.202 0.205-3.29 0.013-0.166-0.128-0.32-0.205-0.474zM8.832 17.766c-0.602-0.077-1.037-0.166-1.485-0.166-0.141 0-0.384 0.179-0.41 0.32-0.128 0.704-0.205 1.408-0.32 2.278 0.768-0.845 1.446-1.587 2.214-2.432zM24.435 22.387c-1.267 0.614-0.998 1.843-1.472 2.816 1.306-0.307 1.651-0.768 1.536-1.907-0.026-0.282-0.038-0.538-0.064-0.909zM22.848 0.986c0-0.038 0-0.077-0.013-0.115-0.73-0.154-1.472-0.307-2.202-0.461-0.23-0.051-0.499-0.192-0.666-0.115-0.627 0.282-1.216 0.64-1.83 0.96 0.013 0.026 0.026 0.051 0.038 0.090 1.562-0.115 3.123-0.243 4.672-0.358zM8.23 12.621c0.026 0 0.051 0.013 0.077 0.013 0.269-1.126 0.538-2.24 0.819-3.43-0.422 0-0.704 0.013-0.986 0-0.294-0.013-0.371 0.141-0.333 0.41 0.128 0.998 0.282 1.997 0.422 3.008zM9.638 6.528c0.947 0.422 1.766 0.768 2.701 1.178-0.218-0.64-0.397-1.152-0.55-1.651-0.102-0.333-0.294-0.358-0.576-0.23-0.461 0.205-0.934 0.422-1.574 0.704zM11.302 13.158c-0.896 0.397-1.677 0.742-2.586 1.152 0.704 0.256 1.267 0.486 1.856 0.653 0.102 0.026 0.358-0.154 0.397-0.282 0.128-0.448 0.205-0.909 0.333-1.523zM15.834 6.874c-0.064-0.077-0.090-0.128-0.141-0.154-0.282-0.166-0.563-0.32-0.832-0.486-0.666-0.384-0.666-0.397-1.088 0.243-0.23 0.358-0.448 0.717-0.678 1.075 0.038 0.038 0.077 0.064 0.115 0.102 0.87-0.256 1.728-0.512 2.624-0.781zM10.893 20.467c-1.139 0.090-2.24 0.192-3.341 0.282 0.717 0.256 1.434 0.448 2.15 0.653 1.152 0.333 1.152 0.346 1.19-0.934zM22.413 23.373c-2.022 0.102-2.854 0.666-3.213 2.189 1.088-0.73 2.099-1.434 3.213-2.189zM4.672 20.787c0.026 0.038 0.051 0.064 0.077 0.102 0.358-0.090 0.717-0.154 1.062-0.269 0.166-0.051 0.422-0.166 0.448-0.294 0.141-0.666 0.218-1.344 0.32-2.022-0.051-0.026-0.115-0.038-0.166-0.064-0.576 0.845-1.165 1.69-1.741 2.547zM14.362 22.989c-0.947-0.256-1.805-0.499-2.662-0.73-0.026 0.038-0.051 0.077-0.077 0.115 0.627 0.576 1.254 1.152 1.933 1.766 0.282-0.41 0.499-0.73 0.806-1.152zM8.666 7.066c-1.408 0.282-1.651 0.576-1.882 2.15 1.139-0.307 1.293-1.421 1.882-2.15zM16.077 1.728c0-0.064-0.013-0.128-0.013-0.179-0.909-0.154-1.83-0.32-2.842-0.499 0.269 0.384 0.474 0.704 0.704 0.998 0.077 0.102 0.243 0.218 0.346 0.192 0.602-0.154 1.203-0.346 1.805-0.512zM12.89 1.805c-0.038 0-0.064 0-0.102 0-0.243 0.986-0.474 1.971-0.717 2.957 0.051 0.013 0.102 0.026 0.154 0.051 0.474-0.41 1.203-0.627 0.986-1.51-0.102-0.499-0.205-0.998-0.32-1.498zM18.227 30.144c-0.013 0.026-0.026 0.051-0.026 0.077 0.563 0.282 1.114 0.563 1.677 0.832 0.090 0.038 0.23 0.064 0.294 0.013 0.371-0.256 0.717-0.538 1.075-0.806-0.026-0.038-0.051-0.077-0.077-0.115-0.973 0-1.958 0-2.944 0zM7.488 9.331c-0.346 0.154-0.909 0-0.73 0.576 0.282 0.896 0.666 1.754 0.998 2.637 0.038-0.013 0.090-0.013 0.128-0.026-0.115-1.037-0.256-2.086-0.397-3.187zM11.226 4.57c-0.896 0.666-1.741 1.293-2.573 1.907 0.026 0.038 0.038 0.064 0.064 0.102 0.947-0.397 1.882-0.806 2.854-1.216-0.128-0.269-0.23-0.499-0.346-0.794zM10.278 27.763c0.333-0.218 0.55-0.32 0.717-0.474 0.090-0.077 0.179-0.282 0.128-0.346-0.346-0.538-0.73-1.062-1.101-1.587-0.051 0.026-0.090 0.051-0.141 0.077 0.128 0.73 0.256 1.472 0.397 2.33zM13.862 22.528c0.013-0.038 0.038-0.077 0.051-0.115-0.282-0.333-0.563-0.691-0.858-1.011-0.077-0.090-0.269-0.192-0.346-0.166-0.41 0.154-0.794 0.346-1.19 0.525 0 0.051 0.013 0.090 0.013 0.141 0.781 0.218 1.562 0.422 2.33 0.627zM11.763 18.189c-0.038 0.038-0.064 0.077-0.102 0.115 0.371 0.704 0.755 1.408 1.19 2.227 0.154-0.422 0.282-0.704 0.333-0.998 0.026-0.166-0.026-0.422-0.141-0.512-0.41-0.32-0.858-0.563-1.28-0.832zM7.475 4.941c-0.026 0.051-0.051 0.102-0.077 0.154 0.333 0.205 0.742 0.627 0.998 0.55 0.666-0.205 1.267-0.614 1.907-0.947-0.013-0.026-0.038-0.051-0.051-0.090-0.909 0.102-1.843 0.218-2.778 0.333zM22.272 29.747c0.013 0.077 0.038 0.166 0.051 0.243 0.358 0 0.986 0.115 1.050-0.026 0.218-0.461 0.23-1.011 0.333-1.536-0.064-0.013-0.115-0.038-0.179-0.051-0.41 0.461-0.832 0.909-1.254 1.37zM11.29 16.026c-0.179 1.446 0.141 1.933 1.51 2.342-0.499-0.781-0.973-1.51-1.51-2.342zM9.523 17.421c1.459 0.205 1.51 0.154 1.37-1.114-0.013-0.141-0.038-0.269-0.077-0.538-0.461 0.602-0.845 1.088-1.293 1.651zM4.736 10.432c0 0.051 0 0.102 0 0.154 0.64 0.102 1.293 0.205 2.010 0.32-0.051-0.23-0.077-0.358-0.102-0.474-0.205-0.627-0.32-0.678-0.934-0.435-0.32 0.141-0.64 0.294-0.973 0.435zM7.923 8.858c0.435 0 0.717 0.038 0.96-0.013 0.128-0.026 0.307-0.205 0.307-0.32 0.013-0.422-0.051-0.845-0.077-1.254-0.051-0.013-0.090-0.026-0.141-0.038-0.307 0.486-0.627 0.986-1.050 1.626zM12.544 20.595c-0.41-0.768-0.755-1.434-1.165-2.214-0.166 2.074-0.166 1.869 1.165 2.214zM25.843 5.542c0.486 0.397 0.845 0.691 1.254 1.024 0.256-0.435 0.474-0.806 0.755-1.28-0.704 0.090-1.28 0.154-2.010 0.256zM15.053 30.541c0.026-0.064 0.051-0.128 0.077-0.205-0.346-0.243-0.678-0.576-1.062-0.666-0.141-0.026-0.422 0.55-0.627 0.845 0.038 0.051 0.077 0.090 0.102 0.141 0.499-0.026 1.011-0.077 1.51-0.115zM22.349 6.157c-0.038-0.026-0.090-0.051-0.128-0.077-0.192 0.115-0.397 0.218-0.563 0.358-0.102 0.090-0.243 0.269-0.218 0.358 0.154 0.448 0.358 0.87 0.602 1.434 0.128-0.781 0.218-1.434 0.307-2.074zM11.597 11.93c-0.038-0.026-0.077-0.064-0.115-0.090-0.653 0.55-1.306 1.114-1.958 1.664 0.474-0.090 0.883-0.294 1.306-0.448 0.563-0.192 0.691-0.64 0.768-1.126zM6.413 22.835c-0.013 0.026-0.038 0.051-0.051 0.077 0.64 0.474 1.293 0.934 1.92 1.434 0.32 0.243 0.538 0.179 0.794-0.192-0.051-0.026-0.115-0.064-0.192-0.102-0.819-0.41-1.638-0.806-2.47-1.216zM4.378 14.669c0.256-0.090 0.422-0.154 0.614-0.218-0.243-0.794-0.474-1.523-0.704-2.253-0.026 0-0.064 0.013-0.090 0.013 0.051 0.781 0.115 1.562 0.179 2.458zM17.472 6.131c-0.781-0.064-1.498-0.128-2.214-0.179 0.986 0.858 1.37 0.883 2.214 0.179zM17.741 30.323c-0.038 1.114 0.064 1.165 1.715 0.87-0.576-0.294-1.114-0.563-1.715-0.87zM12.685 27.738c-0.026 0.038-0.051 0.077-0.064 0.102 0.333 0.282 0.666 0.563 0.998 0.845 0.499 0.41 0.55 0.397 0.896-0.243-0.614-0.23-1.216-0.474-1.83-0.704zM11.379 14.579c0.486-0.589 0.858-1.050 1.267-1.536-1.165-0.115-1.075 0.077-1.267 1.536zM25.562 2.394c0 0.691 0 1.318 0 1.933 0.038 0 0.064 0.013 0.102 0.013 0.205-0.563 0.397-1.126 0.614-1.754-0.269-0.077-0.486-0.141-0.717-0.192zM14.118 31.066c0.576 0.205 1.152 0.397 1.766 0.614-0.166-0.87-0.32-0.909-1.766-0.614zM8.128 17.306c-0.858-0.486-1.626-0.922-2.394-1.357 0.64 0.678 1.178 1.498 2.394 1.357zM7.245 6.797c0.051 0.013 0.090 0.026 0.141 0.051 0.218-0.282 0.435-0.576 0.678-0.896-0.32-0.243-0.576-0.461-0.96-0.755 0.064 0.64 0.102 1.126 0.141 1.6zM12.506 20.966c-0.499-0.166-0.845-0.282-1.242-0.422-0.051 0.358-0.090 0.653-0.154 1.075 0.499-0.23 0.87-0.41 1.395-0.653zM9.344 24.589c-0.077-0.026-0.141-0.038-0.218-0.064-0.077 0.166-0.243 0.371-0.192 0.499 0.166 0.474 0.41 0.922 0.627 1.382 0.051-0.013 0.102-0.038 0.154-0.051-0.128-0.589-0.243-1.178-0.371-1.766zM12.019 11.597c-0.115 0.435-0.205 0.755-0.282 1.075 0.384 0 0.666 0 1.075 0-0.282-0.371-0.499-0.678-0.794-1.075zM26.432 7.373c0.704-0.499 0.333-0.781-0.55-1.318 0.205 0.474 0.371 0.883 0.55 1.318zM21.082 30.874c0.589-0.166 1.062-0.307 1.613-0.461-0.781-0.41-0.883-0.384-1.613 0.461zM11.75 4.787c0.154-0.614 0.294-1.229 0.448-1.856-0.282 0.589-0.87 1.101-0.448 1.856zM14.528 7.565c-0.499 0.154-0.986 0.32-1.485 0.474 0.026 0.064 0.038 0.128 0.064 0.192 0.602 0.154 0.998-0.346 1.421-0.666zM13.158 1.6c0.141 0.614 0.243 1.101 0.358 1.626 0.397-0.704 0.384-0.806-0.358-1.626zM16.358 31.795c0.282-0.077 0.525-0.141 0.755-0.205 0-0.051 0-0.090 0-0.141-0.32-0.115-0.627-0.23-1.062-0.384 0.128 0.294 0.192 0.474 0.307 0.73zM25.024 2.086c-0.192-0.23-0.346-0.41-0.486-0.589-0.038 0.013-0.077 0.038-0.102 0.051 0 0.243 0 0.499 0 0.819 0.205-0.102 0.358-0.179 0.589-0.282zM6.656 11.213c-0.448-0.064-0.819-0.128-1.331-0.205 0.947 0.576 0.947 0.576 1.331 0.205z"></path>
</svg>
