<?xml version="1.0" encoding="utf-8"?>
<!-- Generator: Adobe Illustrator 22.0.1, SVG Export Plug-In . SVG Version: 6.00 Build 0)  -->
<svg version="1.1" id="Layer_1" xmlns="http://www.w3.org/2000/svg" xmlns:xlink="http://www.w3.org/1999/xlink" x="0px" y="0px"
	 viewBox="0 0 250 250" style="enable-background:new 0 0 250 250;" xml:space="preserve">
<g>
	<g>
		<path d="M154.6,184c6-1.4,12.5-3.3,19.1-4.3c7.1-1.1,12.4-4.5,16.4-10.3c2-2.9,4.5-3.6,7.9-1.7c2.9,1.6,6.1,2.9,9.4,3.6
			c5.5,1.2,8.1,4.3,9.3,9.7c2.4,10.8,5.5,21.4,7.9,32.2c0.3,1.3-1.1,3.6-2.4,4.4c-10.4,6-20.8,12.3-31.7,17.4
			c-8,3.8-16.7,6.4-25.3,8.7c-7.1,1.9-14.6,2.4-21.9,3.7c-3.6,0.6-7.1,2-10.7,2.4c-3.5,0.4-7.2,0.5-10.7-0.3
			c-4.3-1-8.3-3.5-12.7-4.3c-6.8-1.3-11.4-5.6-15.9-10.3c-1.1-1.1-2.3-2.1-3.3-3.3c-7.3-9.7-17.6-14.5-29-17.2
			c-8.6-2.1-13.9-6.2-17-15.3c-7.6-22.9-16.5-45.2-25.1-67.8c-1.3-3.4-0.6-5.8,2.4-7.4c8-4.3,11.1-10.5,9.5-19.6
			c-1-5.9-0.6-12-1.2-18c-0.4-3.6,1-5.4,4.3-6.5c4.1-1.4,8.2-3,12.1-4.9c1.4-0.7,3-2.6,3.2-4.1c1.1-9.3,1.9-18.7,2.8-28
			c0.3-3.5,1.3-6.1,4.6-8.2c13.9-9,27.4-18.5,41.2-27.7c1.3-0.9,3.4-1.2,5.1-1c9.1,1.5,18.2,3.3,27.3,4.7c2.2,0.3,4.7-0.2,6.7-1.1
			c5.5-2.7,10.7-6.1,16.3-8.7c2-0.9,4.9-0.7,7.2-0.3c7.6,1.4,15.1,3.1,22.6,4.9c12.4,3,22.6,9.4,29.3,20.6c0.7,1.2,1.3,2.5,2.3,3.5
			c6.8,7.2,5.4,13.6,0.3,21.7c-5.2,8.3-10.9,13.4-20.8,14.3c-6.1,0.6-12,2.5-18,3.9c-2.9,0.7-4.9,0.1-6-2.9c-0.9-2.4-2.4-4.6-2.9-7
			c-1.1-6.2-5.5-7.9-10.8-8.5c-1.9-0.2-3.9-0.3-5.8-0.9c-8.7-2.6-15.8,2.1-23.1,5.3c-6.7,3.1-13.2,6.9-19.5,10.7
			c-1.4,0.8-2.6,2.9-2.7,4.6c-0.8,8.7-1,17.4-1.8,26c-0.2,2.2-1.2,4.6-2.6,6.4c-3.6,4.8-7.5,9.5-11.5,13.9c-1.7,1.8-1.7,3.1-0.4,5.1
			c4.9,7.4,9.4,15,14.5,22.2c2.5,3.5,3.2,6.8,1.3,10.5c-3.3,6.3-1.6,10.7,3.1,15.9c4.8,5.3,9.7,7.9,16.8,8.6
			C134.6,180.2,144.2,182.3,154.6,184z M91.7,211.6c8.3,3.1,15.6,5.9,22.9,8.5c0.9,0.3,2.4,0.4,3.1-0.1c8.1-5,16.2-10.1,25-15.6
			c-11.9-4.1-22.8-7.9-33.8-11.6c-1-0.3-3,0.1-3.7,0.9C100.8,199.3,96.6,205.1,91.7,211.6z M33.4,162.9c6-8.8,11.1-16.7,16.5-24.2
			c1.9-2.7,1.3-4.1-0.8-5.9c-4.6-4.1-9.1-8.3-13.7-12.3c-0.8-0.7-2.6-1.6-3.1-1.2c-3.7,2.5-7.8,4.9-10.4,8.3
			c-1.1,1.4,1.1,5.3,1.8,8.1c0.2,0.8,0.5,1.6,0.8,2.4C27.2,145.8,30.1,153.8,33.4,162.9z M83.7,120.5c-15.5-9-31.1-8-47-3.8
			c10.6,6.7,21.3,12.8,32,18.7c0.9,0.5,2.8,0.4,3.3-0.1C76,130.5,79.8,125.5,83.7,120.5z M220.3,210.9c0.3-0.2,0.6-0.4,1-0.5
			c-0.2-1.1-0.3-2.1-0.5-3.2c-1.8-7-3.6-14.1-5.5-21.1c-3.2-11.4-0.9-10.2-13.2-11.5c-1.4-0.2-2.8-0.4-4.1-0.6
			c-2.8-0.6-4.3,0.2-4.1,3.4c0.2,3.4,0,6.7,0.2,10.1c0.1,1.3,0.6,2.9,1.5,3.7C203.7,197.8,212,204.3,220.3,210.9z M181.5,217.3
			c0-0.4-0.1-0.7-0.1-1.1c-11.6-3.5-23.2-7.1-35.3-10.8c-2.9,8.7-5.6,17-8.4,25.2c0.4,0.3,0.7,0.6,1.1,0.9
			C153.1,226.8,167.3,222.1,181.5,217.3z M83,171.6c-9.2-2.5-17.9-4.2-26.1-7.4c-8-3.2-12.6,1.8-19.3,5.3c12,6,23,11.5,34.1,16.8
			c0.7,0.3,2.4-0.5,3-1.3C77.4,180.9,80,176.6,83,171.6z M138.3,13.1c5.9,8.8,8.2,10,16.9,9.4c9.6-0.7,19.3-1.5,28.9-2.3
			c1.2-0.1,3.1-0.9,3.3-1.7c0.7-2.9,0.9-5.9,1.3-9.1C171.6,10.6,155.4,11.8,138.3,13.1z M53,160c10.9-0.9,20.6-1.6,30.3-2.5
			c0.9-0.1,2.3-1.9,2.4-3c0.3-4.2,0-8.4,0.1-12.6c0.1-2.6-1-3.5-3.5-3.4c-6.1,0.3-12,0.6-15.8,6.6c-1.2,2-3.3,3.5-4.9,5.2
			C59,153.3,56.4,156.3,53,160z M139.7,46.1c0.2-0.4,0.5-0.8,0.7-1.2c-3.3-5-6.4-10.1-9.8-15c-0.5-0.8-2.2-1.3-3.2-1.1
			c-5.8,0.8-11.6,1.7-17.3,2.7c-0.7,0.1-1.6,0.7-1.9,1.4c-0.9,1.9,3,10,5,10.2C122,44.1,130.9,45.1,139.7,46.1z M147.7,26.3
			c-0.9,6.4-1.7,11.8-2.5,17.1c-0.3,2.2,0.4,3.3,2.8,3.7c4.8,0.7,9.6,1.6,14.5,2.4c1.2,0.2,2.7,0.7,3.5,0.2c2.7-1.6,5.2-3.5,8.5-5.8
			C165.3,37.9,156.9,32.4,147.7,26.3z M185.8,24c-0.2-0.5-0.4-0.9-0.7-1.4c-11,0.8-22.1,1.5-33.1,2.3c-0.1,0.4-0.1,0.9-0.2,1.3
			c8,5.2,16,10.5,24.4,16C179.7,35.8,182.7,29.9,185.8,24z M50.2,206.9c5.5-4.8,10.2-8.9,15.3-13.4c-9-6.6-17.4-12.7-25.7-18.8
			c-0.4,0.3-0.7,0.6-1.1,0.8C42.4,185.6,46.1,195.7,50.2,206.9z M61.5,34.3c0.1,0.5,0.3,1,0.4,1.5c8.1-1,16.2-2,24.3-3.2
			c0.7-0.1,1.5-0.9,1.8-1.5c3.1-6.5,6-13.1,9-19.6c-0.2-0.2-0.4-0.4-0.7-0.6C84.8,18.7,73.2,26.5,61.5,34.3z M153.2,186.3
			c-11.7-1.9-22.5-3.6-33.3-5.3c-0.1,0.2-0.2,0.5-0.3,0.7c8.4,6.7,16.8,13.5,25.7,20.6C148,196.7,150.4,191.9,153.2,186.3z
			 M66.9,99.7c0.2,0.2,0.5,0.4,0.7,0.6C76.4,88.9,85.2,77.6,94,66.2c-0.2-0.3-0.5-0.6-0.7-0.9C88,67,82.6,68.5,77.5,70.6
			c-1.8,0.8-3.8,2.9-4.4,4.8C70.8,83.4,68.9,91.6,66.9,99.7z M82.9,218.6c6.4,6.8,12.5,13.2,19,20.1c1.6-2.4,3.1-4.8,4.6-7
			c1.4-2,1.1-3.5-0.8-5c-4.6-3.7-9-7.6-13.7-11.2c-1-0.7-3-0.9-4.1-0.4C85.9,216,84.1,217.7,82.9,218.6z M87.7,175.2
			c-0.4,0.2-0.7,0.4-1.1,0.6c1.3,10.6,2.6,21.1,3.9,31.7c5-4.9,8.9-9.9,12.6-15.1c0.5-0.7,0.2-2.6-0.4-3.3
			C97.8,184.4,92.7,179.8,87.7,175.2z M95.7,69.4c-0.4-0.1-0.8-0.3-1.2-0.4c-9.4,12.2-18.7,24.4-28,36.7c-0.5,0.7-0.5,1.8-0.8,2.8
			c8.8-6.2,16.7-12.9,24.5-19.6c1-0.9,2-2.2,2.3-3.4C93.8,80.1,94.7,74.7,95.7,69.4z M185.8,233.2c0.3,0.3,0.6,0.6,0.9,1
			c10.2-5.6,20.4-11.2,30.6-16.7c-9.1-0.5-17.9-0.2-26.7,0.4c-1,0.1-2.5,1.3-2.7,2.3C187.1,224.5,186.5,228.9,185.8,233.2z
			 M177.4,65.3c0.2,0.4,0.5,0.7,0.7,1.1c8.9-2,17.7-4,27-6.1c-2.4-5.5-4.5-10.3-6.1-14.1C191.7,52.6,184.6,58.9,177.4,65.3z
			 M134.7,232.1c2.8-8.4,5.5-16.1,8.1-23.9c-0.3-0.2-0.7-0.4-1-0.6c-7.4,4.7-14.7,9.4-22.8,14.5C124.4,225.6,129,228.5,134.7,232.1z
			 M180.9,183c-0.4-0.2-0.7-0.5-1.1-0.7c-9.4,6.3-18.8,12.6-28.1,18.9c0.1,0.3,0.3,0.7,0.4,1c7.6-0.9,15.2-1.7,22.7-2.7
			c0.7-0.1,1.6-0.8,1.8-1.4C178.2,193.1,179.5,188.1,180.9,183z M52.1,208.4c8.5,2.9,16.2,5.6,23.9,8.2c0.2-0.3,0.4-0.6,0.6-0.9
			c-3.2-6.6-6.3-13.1-9.7-20.2C61.8,200,57.3,203.9,52.1,208.4z M177.4,61.6c6.8-6.7,12.9-12.5,18.8-18.5c0.6-0.6,1.1-1.7,1.2-2.6
			c0.1-5.9,0.1-11.9,0.1-17.8c-0.4-0.1-0.9-0.1-1.3-0.2C190,35.3,183.9,48,177.4,61.6z M180.5,200.3c12.5,4,23.9,7.6,35.3,11.2
			c-6.7-6.4-13.8-12-21-17.4c-0.7-0.6-2.3-0.8-3.1-0.4C188.3,195.4,184.9,197.6,180.5,200.3z M42.8,112.2c7.3-0.5,13.5-0.9,20.3-1.4
			c-2.7-7-5.2-13.4-8.1-20.9C50.7,97.8,47,104.5,42.8,112.2z M108.4,29.3c6.6-1.2,13.2-2.3,19.7-3.5c0.7-0.1,1.5-1,1.7-1.6
			c0.9-3,1.7-6,2.8-10.1c-6.3,1.8-11.8,3.1-17.2,4.9C109.5,20.8,108.5,22.4,108.4,29.3z M105,33.1c-3.8,3.1-7.2,5.9-10.5,8.8
			c-0.5,0.5-1,1.6-0.8,2.2c1.5,4.8,3.1,9.6,5.1,15.6c3.8-5.8,6.8-10.4,9.8-15.1c0.4-0.6,0.3-1.6,0-2.3
			C107.6,39.4,106.4,36.6,105,33.1z M142.7,44c0.9-6,1.7-11.1,2.4-16.2c0.2-1.3,0.1-3-0.6-3.9c-2.6-3.2-5.5-6.1-8.4-9.1
			c-0.6,0.2-1.3,0.3-1.9,0.5c-0.5,4.4-2.5,9.2-1.2,13C134.9,33.7,139.1,38.4,142.7,44z M214.2,215c0.1-0.5,0.1-1.1,0.2-1.6
			c-11-3.5-22.1-7-34.1-10.8c2.3,4.1,4,7.3,5.9,10.3c0.6,0.9,1.9,1.9,3,1.9C197.5,215.1,205.9,215,214.2,215z M74,52.9
			c0,5.9,0,10.8,0,16.3c7-2.3,13.3-4.4,19.7-6.4c0-0.3,0-0.7,0-1C87.4,58.9,81.1,56,74,52.9z M145,232.1c0.1,0.2,0.2,0.4,0.3,0.6
			c5.7,0,11.6-0.6,17.2,0.1c10.1,1.4,13.4-6.4,18.6-11.7c-0.2-0.3-0.3-0.6-0.5-1C168.7,224.1,156.9,228.1,145,232.1z M136.5,199.7
			c0.2-0.3,0.4-0.6,0.7-0.9c-7.4-6-14.9-12-22.7-18.3c-2.3,3.2-4.2,6-6.5,9.2C118.2,193.4,127.4,196.6,136.5,199.7z M87.3,206.2
			c0.2-0.1,0.4-0.1,0.7-0.2c-1.2-10-2.4-20-3.6-30c-0.4-0.1-0.7-0.2-1.1-0.3c-2.5,4-5,7.9-7.3,12c-0.4,0.6-0.1,2,0.4,2.7
			C79.9,195.7,83.6,201,87.3,206.2z M182.9,214.3c0.2-0.3,0.5-0.7,0.7-1c-2-3.3-3.8-6.7-5.9-10c-0.4-0.7-1.6-1.4-2.4-1.4
			c-7.2,0.8-14.4,1.7-21.6,2.6c0,0.3,0,0.5,0,0.8C163.4,208.2,173.2,211.2,182.9,214.3z M136.2,243.6c-0.1-5.1-1-8.6-4.8-10.9
			c-3.6-2.1-7.2-4.4-10.7-6.6c-4.4-2.7-5.6-2.3-8.1,2.9C120.2,233.6,127.9,238.4,136.2,243.6z M32.6,84.9c2.8,8.9,5.2,16.4,7.6,24
			c0.3,0,0.6,0.1,0.9,0.1c2.3-5.4,4.6-10.9,7.1-16.7C43.2,89.9,38.5,87.7,32.6,84.9z M176.2,58.9c6.1-12.7,12.1-25.4,18.5-38.8
			C187,22.3,177.5,42.4,176.2,58.9z M207.1,22c-2.4,6.9-4.3,12.6-6.5,18.9c6.2-0.7,11.3-1.3,17.1-1.9
			C214.1,33.2,210.9,28.1,207.1,22z M100.7,65.5c-0.6,0.1-1.2,0.2-1.8,0.3c-1,5.3-1.4,10.8-3.3,15.8c-2.3,6.2,1.2,9.5,5.1,13.3
			c0.9-8.6,1.3-17.2,1.6-25.7C102.4,67.9,101.3,66.7,100.7,65.5z M69,138.8c-4.7-0.6-8.1-1.3-11.6-1.3c-1.1,0-3,1.4-3.2,2.5
			c-1,5.5-1.6,11-2.5,17.8C57.7,151.2,63,145.4,69,138.8z M190.9,174.9c-9.9,4.8-7.8,14.4-11.5,22c10.2-2.4,12.9-6,12-14.9
			C191.2,179.8,191.1,177.8,190.9,174.9z M178.5,7.7c0-0.3,0-0.6-0.1-0.9c-5.7-1.2-11.5-2.4-17.2-3.6c-1.8-0.4-3.9-1.5-5.2-0.9
			c-4.9,2.2-9.5,5-14.3,7.5c0.1,0.2,0.2,0.4,0.3,0.7C154.2,9.6,166.4,8.6,178.5,7.7z M64.3,98.6c0.2,0,0.4,0.1,0.6,0.1
			c2.1-8.8,4.2-17.5,6.4-26.8c-3.3,0-5.5,0.1-7.7,0c-2.3-0.1-2.9,1.1-2.6,3.2C62,82.9,63.2,90.7,64.3,98.6z M75.3,51
			c7.4,3.3,13.8,6,21.1,9.2c-1.7-5-3.1-9-4.3-12.9c-0.8-2.6-2.3-2.8-4.5-1.8C84,47.1,80.3,48.8,75.3,51z M88.3,102.8
			c-7,3.1-13.1,5.8-20.2,9c5.5,2,9.9,3.8,14.5,5.1c0.8,0.2,2.8-1.2,3.1-2.2C86.7,111.2,87.3,107.6,88.3,102.8z M123.7,53.7
			c-0.5-0.6-0.7-1-1.1-1.2c-2.2-1.3-4.4-2.5-6.5-3.8c-5.2-3-5.2-3.1-8.5,1.9c-1.8,2.8-3.5,5.6-5.3,8.4c0.3,0.3,0.6,0.5,0.9,0.8
			C110,57.8,116.7,55.8,123.7,53.7z M85.1,159.9c-8.9,0.7-17.5,1.5-26.1,2.2c5.6,2,11.2,3.5,16.8,5.1
			C84.8,169.8,84.8,169.9,85.1,159.9z M175.1,182.6c-15.8,0.8-22.3,5.2-25.1,17.1C158.5,194,166.4,188.5,175.1,182.6z M36.5,162.4
			c0.2,0.3,0.4,0.5,0.6,0.8c2.8-0.7,5.6-1.2,8.3-2.1c1.3-0.4,3.3-1.3,3.5-2.3c1.1-5.2,1.7-10.5,2.5-15.8c-0.4-0.2-0.9-0.3-1.3-0.5
			C45.6,149.1,41,155.7,36.5,162.4z M112.2,179.6c-7.4-2-14.1-3.9-20.8-5.7c-0.2,0.3-0.4,0.6-0.6,0.9c4.9,4.5,9.8,9,15.1,13.8
			C108.1,185.4,109.8,182.9,112.2,179.6z M67.7,55.2C56.7,57.4,54.8,59.7,53,72C61.9,69.6,63.1,60.9,67.7,55.2z M125.6,13.5
			c0-0.5-0.1-1-0.1-1.4c-7.1-1.2-14.3-2.5-22.2-3.9c2.1,3,3.7,5.5,5.5,7.8c0.6,0.8,1.9,1.7,2.7,1.5
			C116.2,16.3,120.9,14.8,125.6,13.5z M100.7,14.1c-0.3,0-0.5,0-0.8,0c-1.9,7.7-3.7,15.4-5.6,23.1c0.4,0.1,0.8,0.2,1.2,0.4
			c3.7-3.2,9.4-4.9,7.7-11.8C102.4,21.9,101.6,18,100.7,14.1z M142.4,235.5c-0.1,0.2-0.2,0.4-0.2,0.6c4.4,2.2,8.7,4.4,13.1,6.5
			c0.7,0.3,1.8,0.5,2.3,0.1c2.9-2,5.6-4.2,8.4-6.3c-0.2-0.3-0.4-0.6-0.6-0.9C157.8,235.5,150.1,235.5,142.4,235.5z M58.5,72.9
			c-2.7,1.2-7.1,0-5.7,4.5c2.2,7,5.2,13.7,7.8,20.6c0.3-0.1,0.7-0.1,1-0.2C60.7,89.7,59.6,81.5,58.5,72.9z M87.7,35.7
			c-7,5.2-13.6,10.1-20.1,14.9c0.2,0.3,0.3,0.5,0.5,0.8c7.4-3.1,14.7-6.3,22.3-9.5C89.4,39.8,88.6,38,87.7,35.7z M80.3,216.9
			c2.6-1.7,4.3-2.5,5.6-3.7c0.7-0.6,1.4-2.2,1-2.7c-2.7-4.2-5.7-8.3-8.6-12.4c-0.4,0.2-0.7,0.4-1.1,0.6
			C78.2,204.4,79.2,210.2,80.3,216.9z M108.3,176c0.1-0.3,0.3-0.6,0.4-0.9c-2.2-2.6-4.4-5.4-6.7-7.9c-0.6-0.7-2.1-1.5-2.7-1.3
			c-3.2,1.2-6.2,2.7-9.3,4.1c0,0.4,0.1,0.7,0.1,1.1C96.2,172.8,102.3,174.4,108.3,176z M91.9,142.1c-0.3,0.3-0.5,0.6-0.8,0.9
			c2.9,5.5,5.9,11,9.3,17.4c1.2-3.3,2.2-5.5,2.6-7.8c0.2-1.3-0.2-3.3-1.1-4C98.7,146.1,95.2,144.2,91.9,142.1z M58.4,38.6
			c-0.2,0.4-0.4,0.8-0.6,1.2c2.6,1.6,5.8,4.9,7.8,4.3c5.2-1.6,9.9-4.8,14.9-7.4c-0.1-0.2-0.3-0.4-0.4-0.7
			C73,36.8,65.7,37.7,58.4,38.6z M174,232.4c0.1,0.6,0.3,1.3,0.4,1.9c2.8,0,7.7,0.9,8.2-0.2c1.7-3.6,1.8-7.9,2.6-12
			c-0.5-0.1-0.9-0.3-1.4-0.4C180.6,225.3,177.3,228.8,174,232.4z M88.2,125.2c-1.4,11.3,1.1,15.1,11.8,18.3
			C96.1,137.4,92.4,131.7,88.2,125.2z M74.4,136.1c11.4,1.6,11.8,1.2,10.7-8.7c-0.1-1.1-0.3-2.1-0.6-4.2
			C80.9,127.9,77.9,131.7,74.4,136.1z M37,81.5c0,0.4,0,0.8,0,1.2c5,0.8,10.1,1.6,15.7,2.5c-0.4-1.8-0.6-2.8-0.8-3.7
			c-1.6-4.9-2.5-5.3-7.3-3.4C42.1,79.2,39.6,80.4,37,81.5z M61.9,69.2c3.4,0,5.6,0.3,7.5-0.1c1-0.2,2.4-1.6,2.4-2.5
			c0.1-3.3-0.4-6.6-0.6-9.8c-0.4-0.1-0.7-0.2-1.1-0.3C67.7,60.3,65.2,64.2,61.9,69.2z M98,160.9c-3.2-6-5.9-11.2-9.1-17.3
			C87.6,159.8,87.6,158.2,98,160.9z M201.9,43.3c3.8,3.1,6.6,5.4,9.8,8c2-3.4,3.7-6.3,5.9-10C212.1,42,207.6,42.5,201.9,43.3z
			 M117.6,238.6c0.2-0.5,0.4-1,0.6-1.6c-2.7-1.9-5.3-4.5-8.3-5.2c-1.1-0.2-3.3,4.3-4.9,6.6c0.3,0.4,0.6,0.7,0.8,1.1
			C109.7,239.3,113.7,238.9,117.6,238.6z M174.6,48.1c-0.3-0.2-0.7-0.4-1-0.6c-1.5,0.9-3.1,1.7-4.4,2.8c-0.8,0.7-1.9,2.1-1.7,2.8
			c1.2,3.5,2.8,6.8,4.7,11.2C173.2,58.2,173.9,53.1,174.6,48.1z M90.6,93.2c-0.3-0.2-0.6-0.5-0.9-0.7c-5.1,4.3-10.2,8.7-15.3,13
			c3.7-0.7,6.9-2.3,10.2-3.5C89,100.5,90,97,90.6,93.2z M50.1,178.4c-0.1,0.2-0.3,0.4-0.4,0.6c5,3.7,10.1,7.3,15,11.2
			c2.5,1.9,4.2,1.4,6.2-1.5c-0.4-0.2-0.9-0.5-1.5-0.8C63,184.7,56.6,181.6,50.1,178.4z M34.2,114.6c2-0.7,3.3-1.2,4.8-1.7
			c-1.9-6.2-3.7-11.9-5.5-17.6c-0.2,0-0.5,0.1-0.7,0.1C33.2,101.5,33.7,107.6,34.2,114.6z M136.5,47.9c-6.1-0.5-11.7-1-17.3-1.4
			C126.9,53.2,129.9,53.4,136.5,47.9z M138.6,236.9c-0.3,8.7,0.5,9.1,13.4,6.8C147.5,241.4,143.3,239.3,138.6,236.9z M99.1,216.7
			c-0.2,0.3-0.4,0.6-0.5,0.8c2.6,2.2,5.2,4.4,7.8,6.6c3.9,3.2,4.3,3.1,7-1.9C108.6,220.4,103.9,218.5,99.1,216.7z M88.9,113.9
			c3.8-4.6,6.7-8.2,9.9-12C89.7,101,90.4,102.5,88.9,113.9z M199.7,18.7c0,5.4,0,10.3,0,15.1c0.3,0,0.5,0.1,0.8,0.1
			c1.6-4.4,3.1-8.8,4.8-13.7C203.2,19.6,201.5,19.1,199.7,18.7z M110.3,242.7c4.5,1.6,9,3.1,13.8,4.8
			C122.8,240.7,121.6,240.4,110.3,242.7z M63.5,135.2c-6.7-3.8-12.7-7.2-18.7-10.6C49.8,129.9,54,136.3,63.5,135.2z M56.6,53.1
			c0.4,0.1,0.7,0.2,1.1,0.4c1.7-2.2,3.4-4.5,5.3-7c-2.5-1.9-4.5-3.6-7.5-5.9C56,45.6,56.3,49.4,56.6,53.1z M97.7,163.8
			c-3.9-1.3-6.6-2.2-9.7-3.3c-0.4,2.8-0.7,5.1-1.2,8.4C90.7,167.1,93.6,165.7,97.7,163.8z M73,192.1c-0.6-0.2-1.1-0.3-1.7-0.5
			c-0.6,1.3-1.9,2.9-1.5,3.9c1.3,3.7,3.2,7.2,4.9,10.8c0.4-0.1,0.8-0.3,1.2-0.4C74.9,201.3,74,196.7,73,192.1z M93.9,90.6
			C93,94,92.3,96.5,91.7,99c3,0,5.2,0,8.4,0C97.9,96.1,96.2,93.7,93.9,90.6z M206.5,57.6c5.5-3.9,2.6-6.1-4.3-10.3
			C203.8,51,205.1,54.2,206.5,57.6z M164.7,241.2c4.6-1.3,8.3-2.4,12.6-3.6C171.2,234.4,170.4,234.6,164.7,241.2z M91.8,37.4
			c1.2-4.8,2.3-9.6,3.5-14.5C93.1,27.5,88.5,31.5,91.8,37.4z M113.5,59.1c-3.9,1.2-7.7,2.5-11.6,3.7c0.2,0.5,0.3,1,0.5,1.5
			C107.1,65.5,110.2,61.6,113.5,59.1z M102.8,12.5c1.1,4.8,1.9,8.6,2.8,12.7C108.7,19.7,108.6,18.9,102.8,12.5z M127.8,248.4
			c2.2-0.6,4.1-1.1,5.9-1.6c0-0.4,0-0.7,0-1.1c-2.5-0.9-4.9-1.8-8.3-3C126.4,245,126.9,246.4,127.8,248.4z M195.5,16.3
			c-1.5-1.8-2.7-3.2-3.8-4.6c-0.3,0.1-0.6,0.3-0.8,0.4c0,1.9,0,3.9,0,6.4C192.5,17.7,193.7,17.1,195.5,16.3z M52,87.6
			c-3.5-0.5-6.4-1-10.4-1.6C49,90.5,49,90.5,52,87.6z"/>
	</g>
</g>
</svg>
