<?xml version="1.0" encoding="utf-8"?>
<!-- Generator: Adobe Illustrator 22.0.1, SVG Export Plug-In . SVG Version: 6.00 Build 0)  -->
<svg version="1.1" id="Layer_1" xmlns="http://www.w3.org/2000/svg" xmlns:xlink="http://www.w3.org/1999/xlink" x="0px" y="0px"
	 viewBox="0 0 226.8 226.8" style="enable-background:new 0 0 226.8 226.8;" xml:space="preserve">
<style type="text/css">
	.st0{stroke:#FFFFFF;stroke-miterlimit:10;}
</style>
<g>
	<path class="st0" d="M113.1,130.3 M74.2,177.1c-32.8-21.3-42.1-65.5-20.7-98.3s65.4-42.3,98.2-21c26.8,17.4,37.9,50,29.5,79.2
		l20.5,13.3c15.2-40.7,0.8-87.9-37-112.4C120.8,9.5,62.1,22,33.6,66S17.4,168.6,61.2,197c37.8,24.6,86.7,18.5,117.8-11.9l-20.5-13.3
		C135.2,191.4,100.9,194.5,74.2,177.1"/>
	<path class="st0" d="M120.2,128.5 M113.1,189c-39.2,0-70.9-32-70.9-71.1S74,46.8,113.1,46.8c32,0,59,21.3,67.8,50.4h24.4
		C195.9,54.7,158.2,23,113.1,23c-52.3,0-94.6,42.5-94.6,94.9s42.3,94.9,94.5,94.9c45.1,0,82.8-31.7,92.3-74.1h-24.4
		C172,167.7,145,189,113.1,189"/>
	<g transform="translate(-.4-.21)">
		<path class="st0" d="M70.5,114c-8-5.3-13.8-12.3-22.5-37.2c-9,1.4-36,14-44.8,44l13.1-0.4l41.1-5.9L70.5,114"/>
		<path class="st0" d="M71.8,118c-11.6-6.6-18.1-14.5-25.4-42.5C37,77,10.7,93.8,1.5,125.2l13.7-0.4l42.9-6.2"/>
		<path class="st0" d="M114.5,156.1c-5.3,8-12.3,13.8-37.2,22.5c1.4,9,14,36,44,44.8l-0.4-13.1l-5.9-41.1L114.5,156.1"/>
		<path class="st0" d="M117.8,155.7c-6.6,11.6-14.5,18.1-42.5,25.4c1.5,9.4,18.3,35.7,49.6,44.9l-0.4-13.7l-6.2-42.9"/>
		<path class="st0" d="M158.8,113.3c8,5.3,13.8,12.3,22.5,37.2c9-1.4,36-14,44.8-44l-13.1,0.4l-41.1,5.9L158.8,113.3z"/>
		<path class="st0" d="M158,109.2c11.6,6.6,18.1,14.5,25.4,42.5c9.4-1.5,35.7-18.3,44.9-49.6l-13.7,0.4l-42.9,6.2"/>
		<path class="st0" d="M115.9,71.1c5.3-8,12.3-13.8,37.2-22.5c-1.4-9-14-36-44-44.8l0.4,13.1l5.9,41.1L115.9,71.1"/>
		<path class="st0" d="M112,71.6c6.6-11.6,14.5-18.1,42.5-25.4c-1.5-9.4-18.3-35.7-49.6-44.9l0.4,13.7l6.2,42.9L112,71.6"/>
	</g>
</g>
</svg>
