<!-- Generated by IcoMoon.io -->
<svg version="1.1" xmlns="http://www.w3.org/2000/svg" width="32" height="32" viewBox="0 0 32 32">
<title>CNY</title>
<path d="M16 32c-8.819 0-16-7.181-16-16s7.181-16 16-16c8.819 0 16 7.181 16 16s-7.181 16-16 16v0zM16 1.562c-7.962 0-14.438 6.477-14.438 14.438s6.477 14.438 14.438 14.438c7.962 0 14.438-6.477 14.438-14.438s-6.477-14.438-14.438-14.438v0z"></path>
<path d="M23.59 19.123c0 0.435-0.358 0.794-0.794 0.794h-5.414v5.594c0 0.691-0.563 1.254-1.254 1.254s-1.254-0.563-1.254-1.254v-5.594h-5.76c-0.435 0-0.794-0.358-0.794-0.794s0.358-0.794 0.794-0.794h5.76v-2.214l-0.051-0.064h-5.709c-0.435 0-0.794-0.358-0.794-0.794s0.358-0.794 0.794-0.794h4.531l-4.915-6.643c-0.41-0.55-0.294-1.344 0.256-1.754s1.344-0.294 1.754 0.256l5.35 7.219 5.056-7.155c0.397-0.563 1.178-0.704 1.741-0.294 0.563 0.397 0.704 1.178 0.294 1.741l-4.672 6.618h4.275c0.435 0 0.794 0.358 0.794 0.794s-0.358 0.794-0.794 0.794h-5.389l-0.026 0.026v2.253h5.414c0.448 0.013 0.806 0.358 0.806 0.806z"></path>
</svg>
