<?xml version="1.0" encoding="utf-8"?>
<!-- Generator: Adobe Illustrator 22.0.1, SVG Export Plug-In . SVG Version: 6.00 Build 0)  -->
<svg version="1.1" id="Layer_1" xmlns="http://www.w3.org/2000/svg" xmlns:xlink="http://www.w3.org/1999/xlink" x="0px" y="0px"
	 viewBox="0 0 226.8 226.8" style="enable-background:new 0 0 226.8 226.8;" xml:space="preserve">
<style type="text/css">
	.st0{stroke:#FFFFFF;stroke-miterlimit:10;}
</style>
<path class="st0" d="M87.8,170.4L62,215h51.5L87.8,170.4"/>
<path class="st0" d="M113.6,215l25.7-44.6H87.8L113.6,215"/>
<path class="st0" d="M139.3,170.4L113.5,215h51.5L139.3,170.4"/>
<path class="st0" d="M139.3,56.8l25.8-44.6h-51.5L139.3,56.8z"/>
<path class="st0" d="M113.6,12.2L87.8,56.8h51.4L113.6,12.2"/>
<path class="st0" d="M87.8,56.8l25.7-44.6H62L87.8,56.8z"/>
<path class="st0" d="M149.9,164.2l25.7,44.6l25.8-44.6H149.9"/>
<path class="st0" d="M201.4,164.2l-25.8-44.6l-25.7,44.6H201.4"/>
<path class="st0" d="M175.6,119.7l25.8,44.6l25.7-44.6H175.6"/>
<path class="st0" d="M77.2,62.8L51.5,18.3L25.7,62.8H77.2"/>
<path class="st0" d="M25.7,62.8l25.8,44.6l25.7-44.6H25.7"/>
<path class="st0" d="M51.5,107.4L25.7,62.8L0,107.4H51.5"/>
<path class="st0" d="M51.5,119.7H0l25.7,44.6L51.5,119.7"/>
<path class="st0" d="M25.7,164.2h51.5l-25.7-44.6L25.7,164.2"/>
<path class="st0" d="M77.2,164.2H25.7l25.8,44.6L77.2,164.2"/>
<path class="st0" d="M175.6,107.4h51.5l-25.7-44.6L175.6,107.4"/>
<path class="st0" d="M201.4,62.8h-51.5l25.7,44.6L201.4,62.8"/>
<path class="st0" d="M149.9,62.8h51.5l-25.8-44.6L149.9,62.8"/>
</svg>
