<!-- Generated by IcoMoon.io -->
<svg version="1.1" xmlns="http://www.w3.org/2000/svg" width="32" height="32" viewBox="0 0 32 32">
<title>COB</title>
<path d="M12.388 24.042l-3.64 6.293h7.266l-3.626-6.293"></path>
<path d="M16.028 30.335l3.626-6.293h-7.266l3.64 6.293"></path>
<path d="M19.654 24.042l-3.64 6.293h7.266l-3.626-6.293"></path>
<path d="M19.654 8.014l3.64-6.293h-7.266l3.626 6.293z"></path>
<path d="M16.028 1.721l-3.64 6.293h7.252l-3.612-6.293"></path>
<path d="M12.388 8.014l3.626-6.293h-7.266l3.64 6.293z"></path>
<path d="M21.15 23.168l3.626 6.293 3.64-6.293h-7.266"></path>
<path d="M28.416 23.168l-3.64-6.293-3.626 6.293h7.266"></path>
<path d="M24.776 16.889l3.64 6.293 3.626-6.293h-7.266"></path>
<path d="M10.892 8.861l-3.626-6.279-3.64 6.279h7.266"></path>
<path d="M3.626 8.861l3.64 6.293 3.626-6.293h-7.266"></path>
<path d="M7.266 15.153l-3.64-6.293-3.626 6.293h7.266"></path>
<path d="M7.266 16.889h-7.266l3.626 6.293 3.64-6.293"></path>
<path d="M3.626 23.168h7.266l-3.626-6.293-3.64 6.293"></path>
<path d="M10.892 23.168h-7.266l3.64 6.293 3.626-6.293"></path>
<path d="M24.776 15.153h7.266l-3.626-6.293-3.64 6.293"></path>
<path d="M28.416 8.861h-7.266l3.626 6.293 3.64-6.293"></path>
<path d="M21.15 8.861h7.266l-3.64-6.293-3.626 6.293"></path>
</svg>
