<!-- Generated by IcoMoon.io -->
<svg version="1.1" xmlns="http://www.w3.org/2000/svg" width="32" height="32" viewBox="0 0 32 32">
<title>COBO_WALLET</title>
<path d="M3.259 18.131c2.441-1.34 4.811-1.665 7.252-0.649 2.413 1.002 3.81 2.907 4.529 5.404 0.127 0.056 0.254 0.099 0.367 0.155 1.256-1.355 2.455-2.78 3.781-4.064 3.034-2.907 7.887-2.751 10.681 0.339 2.074 2.3 2.596 4.995 1.467 7.887-1.171 2.991-3.499 4.6-6.674 4.741-3.034 0.127-5.362-1.242-6.928-3.88-0.31-0.536-0.339-0.931 0.169-1.397 0.677-0.621 1.256-1.355 2.004-2.187 0.155 0.578 0.24 0.889 0.325 1.185 0.621 1.975 2.243 3.118 4.388 3.076 1.735-0.028 3.386-1.369 3.908-3.146 0.508-1.764-0.254-3.753-1.848-4.769-1.608-1.030-3.725-0.931-5.178 0.395-1.524 1.411-2.963 2.921-4.43 4.388-1.397 1.397-2.765 2.794-4.162 4.19-2.159 2.145-5.474 2.794-8.254 1.637-2.907-1.213-4.614-3.795-4.614-6.97 0-3.513 0-7.012 0-10.526 0-1.27 0.578-2.004 1.566-2.018 0.974-0.014 1.623 0.776 1.623 1.989 0.042 1.326 0.028 2.681 0.028 4.219zM7.548 28.713c2.469-0.014 4.374-1.919 4.346-4.332-0.028-2.314-1.961-4.205-4.275-4.19-2.441 0.014-4.332 1.848-4.36 4.219-0.014 2.356 1.933 4.303 4.289 4.303z"></path>
<path d="M20.007 7.746c0.325 1.679 0.974 2.921 2.413 3.654 1.891 0.945 4.233 0.381 5.446-1.34 1.143-1.623 0.974-3.979-0.395-5.333-1.623-1.637-3.979-1.961-5.616-0.522-2.074 1.806-3.965 3.824-5.926 5.771-1.072 1.058-2.102 2.159-3.203 3.175-2.54 2.37-6.18 2.723-9.129 0.945-2.892-1.778-4.205-5.15-3.33-8.578 0.79-3.076 3.824-5.46 7.139-5.517 1.961-0.028 3.739 0.593 5.206 1.933 0.889 0.818 1.016 1.834 0.381 2.554-0.677 0.776-1.552 0.762-2.568-0.042-2.229-1.764-5.065-1.369-6.49 0.917-1.115 1.792-0.72 4.176 0.903 5.517 1.679 1.383 4.092 1.312 5.672-0.226 2.85-2.765 5.658-5.587 8.508-8.367 2.342-2.286 5.122-2.808 8.113-1.679 3.062 1.157 4.571 3.584 4.825 6.758 0.268 3.259-2.328 6.702-5.559 7.563-3.513 0.931-7.337-0.762-8.762-3.937-0.127-0.268-0.042-0.776 0.141-1.002 0.649-0.734 1.397-1.411 2.229-2.243z"></path>
</svg>
