<!-- Generated by IcoMoon.io -->
<svg version="1.1" xmlns="http://www.w3.org/2000/svg" width="32" height="32" viewBox="0 0 32 32">
<title>COINDEAL</title>
<path d="M22.744 6.857c-1.27 1.256-2.526 2.511-3.767 3.739-0.818-0.522-1.608-1.143-2.483-1.58-2.977-1.496-6.66-0.734-8.917 1.792-1.51 1.693-2.229 3.668-2.046 5.926 0.226 2.878 2.074 5.601 5.009 6.702 2.921 1.086 5.559 0.494 7.873-1.538 0.423-0.367 0.677-0.367 1.058 0.028 0.959 1.002 1.947 1.975 2.935 2.935 0.339 0.325 0.353 0.564 0 0.889-1.623 1.552-3.471 2.653-5.644 3.245-1.34 0.367-2.695 0.55-4.092 0.494-2.596-0.127-4.952-0.945-7.069-2.455-2.469-1.75-4.162-4.106-5.023-6.984-0.564-1.905-0.776-3.866-0.452-5.898 0.55-3.259 1.989-5.94 4.388-8.141 1.397-1.284 3.034-2.159 4.854-2.765 1.834-0.621 3.725-0.677 5.573-0.466 3.005 0.339 5.616 1.665 7.704 3.894 0.056 0.056 0.071 0.127 0.099 0.183z"></path>
<path d="M26.131 22.025c-1.975-2.018-3.894-3.979-5.869-5.996 0.028-0.042 0.113-0.183 0.226-0.31 1.75-1.75 3.499-3.499 5.235-5.249 0.325-0.339 0.536-0.353 0.889 0 1.679 1.707 3.386 3.414 5.093 5.093 0.367 0.353 0.409 0.621 0.014 1.002-1.721 1.679-3.414 3.386-5.122 5.079-0.127 0.127-0.282 0.226-0.466 0.381z"></path>
</svg>
