<!-- Generated by IcoMoon.io -->
<svg version="1.1" xmlns="http://www.w3.org/2000/svg" width="32" height="32" viewBox="0 0 32 32">
<title>COINBASEPRO</title>
<path d="M19.344 16.141c0-0.917 0-1.834 0-2.751 0-0.423 0.056-0.494 0.48-0.522 0.705-0.042 1.411-0.071 2.088 0.198 0.875 0.353 1.227 1.086 1.171 1.961-0.085 1.086-0.691 1.735-1.764 1.933-0.268 0.042-0.536 0.056-0.804 0.099-0.339 0.042-0.367 0.071-0.381 0.423-0.014 0.522 0 1.030-0.014 1.552-0.014 0.296-0.127 0.395-0.423 0.381-0.268-0.014-0.339-0.099-0.353-0.409 0-0.028 0-0.042 0-0.071 0-0.945 0-1.862 0-2.794zM20.656 16.395c0.268-0.071 0.55-0.099 0.818-0.198 0.564-0.198 0.818-0.621 0.818-1.298 0-0.621-0.254-1.030-0.804-1.227-0.268-0.099-0.564-0.155-0.861-0.169-0.451-0.028-0.494 0.028-0.494 0.466 0 0.635 0 1.27 0 1.905 0 0.451 0.042 0.494 0.522 0.522z"></path>
<path d="M28.529 19.485c-1.129 0.071-2.413-0.691-2.427-2.483-0.014-1.453 0.988-2.469 2.399-2.483 1.425 0 2.455 1.030 2.441 2.483-0.028 1.679-1.227 2.554-2.413 2.483zM30.152 16.931c-0.014-0.113-0.028-0.325-0.085-0.522-0.198-0.677-0.635-1.101-1.326-1.199-0.649-0.099-1.171 0.141-1.552 0.677-0.353 0.494-0.353 1.058-0.268 1.623 0.113 0.72 0.705 1.256 1.439 1.312 1.044 0.085 1.792-0.663 1.792-1.891z"></path>
<path d="M14.575 16.028c0 2.004 0 4.021 0 6.025 0 0.127 0.014 0.268-0.028 0.381-0.028 0.085-0.141 0.198-0.198 0.183-0.085-0.014-0.198-0.099-0.24-0.198-0.042-0.071-0.028-0.183-0.028-0.282 0-4.106 0-8.198 0-12.303 0-0.183-0.056-0.437 0.226-0.48 0.183-0.028 0.254 0.113 0.254 0.48 0.014 2.088 0.014 4.134 0.014 6.194z"></path>
<path d="M23.549 17.199c0-0.593 0-1.171 0-1.764 0-0.212 0.056-0.395 0.268-0.494 0.635-0.31 1.298-0.48 2.004-0.353 0.212 0.042 0.409 0.113 0.395 0.409-0.014 0.254-0.085 0.339-0.339 0.325-0.325 0-0.663-0.028-0.988 0-0.508 0.056-0.578 0.155-0.578 0.649 0 1.002 0 2.004 0 2.991 0 0.339-0.071 0.423-0.325 0.437-0.296 0.014-0.423-0.085-0.437-0.409-0.014-0.593 0-1.185 0-1.792z"></path>
<path d="M17.679 25.679c1.58 0 3.175-0.353 4.571-0.875l2.991 4.571c-2.638 1.411-5.46 2.116-8.451 2.116-8.974 0-15.661-5.982-15.661-15.492 0.169-9.51 7.041-15.492 15.845-15.492 3.175 0 5.46 0.705 7.929 1.933l-2.822 4.755c-1.411-0.522-2.991-0.875-4.571-0.875-5.277 0-9.51 3.344-9.51 9.679 0 5.982 4.049 9.679 9.679 9.679z"></path>
</svg>
