<!-- Generated by IcoMoon.io -->
<svg version="1.1" xmlns="http://www.w3.org/2000/svg" width="32" height="32" viewBox="0 0 32 32">
<title>COIN_SPACE_WALLET</title>
<path d="M28.205 17.115c-0.367 0-0.621 0-0.875 0-2.511 0-5.037 0.042-7.549-0.014-1.679-0.042-3.541 1.383-3.584 3.499-0.014 0.875-0.014 1.735 0 2.61 0.028 1.496 1.072 2.991 2.596 3.386 0.31 0.085 0.649 0.113 0.974 0.113 2.54 0.014 5.079 0 7.619 0 0.24 0 0.466 0 0.748 0 0.127 0.903 0.113 1.75-0.226 2.568-0.691 1.623-1.975 2.384-3.683 2.497-0.099 0-0.183 0-0.282 0-6.166 0-12.317 0-18.483 0-0.959 0-1.848-0.226-2.624-0.832-1.030-0.804-1.538-1.877-1.566-3.146-0.028-1.933 0-3.852 0-5.785s0-3.852 0-5.785c0-0.705 0.141-1.397 0.466-2.032 0.734-1.411 1.947-2.088 3.471-2.13 1.806-0.056 3.626-0.014 5.432-0.014 4.515 0 9.030 0.014 13.545 0 2.215-0.014 4.035 1.778 4.021 4.007 0 0.31 0 0.635 0 1.058z"></path>
<path d="M23.986 25.608c-1.199 0-2.399-0.028-3.598 0.014-1.637 0.056-3.062-1.425-3.062-3.104 0-0.423 0.014-0.847 0-1.27-0.042-1.721 1.439-3.16 3.104-3.146 2.3 0.014 4.6 0.028 6.899 0 1.552-0.028 3.034 0.959 3.231 2.949 0.071 0.72 0.056 1.439-0.099 2.173-0.296 1.411-1.651 2.441-2.977 2.399-1.143-0.042-2.328-0.014-3.499-0.014zM20.529 23.478c0.974 0 1.623-0.663 1.608-1.623 0-0.861-0.734-1.608-1.594-1.608-0.931-0.014-1.594 0.691-1.665 1.637-0.056 0.804 0.818 1.721 1.651 1.594z"></path>
<path d="M19.513 9.806c-2.568 0.085-4.797-1.989-4.854-4.698-0.071-2.638 2.060-4.868 4.769-4.882 2.723-0.028 4.783 2.215 4.84 4.698 0.056 2.822-2.342 4.966-4.755 4.882zM15.069 5.065c-0.24 2.131 1.877 4.332 4.303 4.332s4.402-2.13 4.36-4.388c-0.028-2.102-1.707-4.36-4.346-4.332-2.638 0-4.487 2.116-4.317 4.388z"></path>
<path d="M14.547 10.794c-0.55 0.141-2.13 0.169-2.949 0.042-0.014-0.141-0.028-0.296-0.042-0.466-0.014-0.141-0.014-0.296-0.198-0.31s-0.226 0.127-0.226 0.282c0 0.141 0 0.282-0.028 0.423-0.014 0.042-0.113 0.127-0.155 0.113-0.071-0.014-0.198-0.071-0.212-0.127-0.042-0.183-0.028-0.367-0.056-0.55-0.014-0.042-0.099-0.113-0.155-0.113-0.085 0.014-0.155 0.071-0.226 0.113-0.014 0.014-0.014 0.042-0.014 0.071-0.056 0.198-0.042 0.48-0.169 0.564-0.169 0.113-0.451 0.071-0.677 0.085-0.466 0.014-0.931 0.014-1.411 0-0.127 0-0.254-0.042-0.452-0.071 0.847-1.411 2.018-2.13 3.612-2.046 1.467 0.056 2.554 0.748 3.358 1.989z"></path>
<path d="M6.744 10.822c0.564-1.171 1.397-1.989 2.554-2.441 2.201-0.832 4.586-0.056 5.898 1.989 0.056 0.085 0.127 0.155 0.141 0.24 0.014 0.071-0.014 0.198-0.056 0.24-0.056 0.042-0.198 0.042-0.254 0-0.155-0.141-0.282-0.31-0.395-0.494-0.536-0.832-1.354-1.27-2.243-1.594-1.933-0.72-4.078 0.254-4.952 1.679-0.127 0.198-0.198 0.564-0.691 0.381z"></path>
<path d="M19.471 1.016c1.961-0.141 4.035 1.651 4.021 4.035 0 2.384-1.792 4.021-4.007 4.021-2.427 0-4.106-1.806-4.078-4.106 0.028-2.413 1.933-4.035 4.063-3.951zM20.064 7.012c0.621-0.169 1.284-0.155 1.481-0.861 0.169-0.607-0.028-1.101-0.621-1.369 0.381-0.734 0.169-1.298-0.593-1.481-0.409-0.099-0.649-0.24-0.578-0.691 0.014-0.042 0-0.113-0.014-0.141-0.056-0.056-0.141-0.141-0.212-0.141s-0.169 0.099-0.183 0.155c-0.042 0.183-0.028 0.367-0.071 0.55-0.014 0.042-0.099 0.099-0.169 0.099-0.056 0-0.155-0.056-0.169-0.099-0.028-0.127-0.042-0.268-0.056-0.409s0-0.296-0.198-0.31c-0.254-0.014-0.226 0.183-0.24 0.339s-0.042 0.31-0.071 0.48c-0.296 0.014-0.564 0.014-0.804 0.056-0.099 0.014-0.169 0.198-0.212 0.31-0.014 0.042 0.141 0.141 0.24 0.183 0.127 0.042 0.268 0.042 0.381 0.071 0.282 0.72 0.141 1.425 0.183 2.131 0.014 0.325 0.014 0.621-0.423 0.677-0.042 0-0.127 0.141-0.113 0.212s0.113 0.155 0.183 0.155c0.268 0.028 0.55 0.028 0.861 0.056 0.028 0.24 0.028 0.452 0.071 0.649 0.014 0.056 0.127 0.141 0.198 0.141s0.169-0.085 0.198-0.141c0.042-0.127 0-0.282 0.042-0.423 0.028-0.099 0.113-0.169 0.183-0.254 0.071 0.071 0.183 0.141 0.212 0.226 0.042 0.155 0.014 0.324 0.042 0.494 0.014 0.042 0.113 0.113 0.155 0.099 0.085-0.014 0.198-0.056 0.212-0.113 0.056-0.198 0.056-0.409 0.085-0.649z"></path>
<path d="M19.048 5.912c0.014-0.705 0.127-0.818 0.621-0.762 0.212 0.028 0.409 0.071 0.607 0.141 0.31 0.099 0.395 0.409 0.24 0.677-0.198 0.339-0.917 0.578-1.256 0.367-0.155-0.099-0.183-0.381-0.212-0.423z"></path>
<path d="M19.048 4.106c0-0.423 0.099-0.536 0.466-0.536 0.437 0 0.762 0.24 0.762 0.564-0.014 0.353-0.31 0.564-0.748 0.55-0.409 0-0.48-0.085-0.48-0.578z"></path>
</svg>
