<!-- Generated by IcoMoon.io -->
<svg version="1.1" xmlns="http://www.w3.org/2000/svg" width="32" height="32" viewBox="0 0 32 32">
<title>COINBENE</title>
<path d="M3.104 16c0-3.4 0-6.787 0-10.187 0-2.751 1.453-4.755 4.078-5.573 0.452-0.141 0.959-0.226 1.439-0.226 5.037-0.014 10.088-0.028 15.125 0 2.61 0.014 4.811 1.735 5.362 4.289 0.212 1.016 0.113 2.102 0.113 3.16 0 0.155-0.198 0.353-0.353 0.437-1.651 0.945-3.302 1.862-4.966 2.78-0.367 0.212-0.494 0.113-0.494-0.353-0.014-1.228 0-2.455 0-3.683 0-0.677-0.056-0.72-0.72-0.72-4.317 0-8.635 0-12.952 0-0.691 0-0.734 0.042-0.734 0.748 0 6.222 0 12.444 0 18.653 0 0.663 0.071 0.734 0.72 0.734 4.332 0 8.677 0 13.009 0 0.621 0 0.691-0.071 0.691-0.705 0-3.33 0.014-6.66-0.014-9.989 0-0.578 0.183-0.917 0.691-1.199 1.524-0.818 3.034-1.679 4.543-2.511 0.55-0.31 0.635-0.254 0.635 0.353 0 4.797 0.014 9.58 0 14.377-0.014 3.090-2.258 5.474-5.347 5.545-3.386 0.085-6.787 0.042-10.187 0.042-1.778 0-3.57 0.028-5.347-0.042-2.935-0.113-5.235-2.511-5.249-5.46-0.056-3.471-0.028-6.97-0.042-10.469 0.014 0 0 0 0 0z"></path>
</svg>
