<!-- Generated by IcoMoon.io -->
<svg version="1.1" xmlns="http://www.w3.org/2000/svg" width="32" height="32" viewBox="0 0 32 32">
<title>COINROOM</title>
<path d="M7.563 23.549c-0.324-0.155-0.649-0.282-0.974-0.451-1.425-0.762-2.187-2.37-1.919-3.979 0.254-1.538 1.552-2.836 3.090-3.090 1.862-0.31 3.697 0.818 4.247 2.624 0.564 1.848-0.325 3.824-2.060 4.6-0.212 0.099-0.423 0.212-0.635 0.31-0.578-0.014-1.171-0.014-1.75-0.014z"></path>
<path d="M20.219 23.549c-0.014-1.721-0.071-3.429 0-5.15 0.042-1.284 1.157-2.272 2.596-2.399 1.27-0.113 2.413 0.113 3.287 1.213 0.085-0.056 0.169-0.099 0.226-0.169 0.945-1.072 2.159-1.199 3.457-0.974 1.129 0.198 1.806 0.931 2.229 1.947 0 1.848 0 3.683 0 5.531-0.536 0-1.072 0-1.594 0-0.014-1.284-0.028-2.568-0.056-3.852-0.014-0.367-0.028-0.72-0.099-1.086-0.071-0.409-0.296-0.72-0.663-0.903-0.917-0.48-2.356-0.169-2.568 1.115-0.056 0.339-0.085 0.677-0.085 1.016-0.014 1.242-0.014 2.469-0.014 3.711-0.536 0-1.072 0-1.594 0-0.014-1.213-0.014-2.427-0.042-3.64 0-0.367-0.028-0.734-0.099-1.086-0.169-0.861-0.861-1.369-1.735-1.34-0.917 0.042-1.467 0.55-1.594 1.481-0.028 0.24-0.028 0.48-0.028 0.72 0 1.284-0.014 2.568-0.014 3.852-0.536 0.014-1.072 0.014-1.608 0.014z"></path>
<path d="M14.406 23.549c-0.466-0.254-0.945-0.466-1.383-0.762s-0.423-0.325-0.198-0.818c0.677-1.439 0.705-2.892 0.014-4.346-0.268-0.564-0.268-0.578 0.254-0.931 1.242-0.861 2.568-0.988 3.908-0.296 1.411 0.734 2.131 1.961 2.046 3.556-0.071 1.538-0.875 2.624-2.258 3.287-0.212 0.099-0.423 0.198-0.649 0.296-0.578 0.014-1.157 0.014-1.735 0.014z"></path>
<path d="M12.6 14.66c-0.212-0.099-0.437-0.198-0.649-0.282-1.679-0.649-2.681-2.413-2.356-4.148 0.339-1.82 1.862-3.118 3.668-3.132 1.848-0.014 3.372 1.242 3.725 3.034s-0.607 3.556-2.286 4.233c-0.212 0.085-0.437 0.198-0.649 0.282-0.494 0.014-0.974 0.014-1.453 0.014zM13.319 13.093c1.242 0 2.201-0.974 2.201-2.215 0.014-1.27-0.988-2.286-2.229-2.272s-2.258 1.058-2.229 2.3c0.028 1.228 1.030 2.201 2.258 2.187z"></path>
<path d="M21.178 14.66c0-1.425 0-2.864 0.014-4.289 0.014-1.834 1.101-3.062 2.949-3.259 0.72-0.071 1.453-0.042 2.145 0.226 1.284 0.48 2.004 1.439 2.018 2.808 0.014 1.496 0.014 3.005 0.014 4.501-0.536 0-1.072 0-1.594 0-0.014-1.058-0.042-2.13-0.071-3.189-0.014-0.466-0.014-0.917-0.071-1.383-0.127-0.974-0.79-1.481-1.834-1.481-1.030 0-1.764 0.508-1.806 1.496-0.071 1.524-0.014 3.034-0.014 4.557-0.593 0.014-1.171 0.014-1.75 0.014z"></path>
<path d="M6.49 14.66c-0.24-0.099-0.48-0.198-0.72-0.296-1.975-0.818-2.892-3.132-2.004-5.079 0.875-1.905 3.175-2.737 5.023-1.834 0.705 0.353 0.55 0.437 0.282 0.847-0.169 0.24-0.24 0.593-0.466 0.705-0.141 0.085-0.451-0.169-0.705-0.254-0.917-0.325-1.933 0-2.511 0.804-0.593 0.804-0.578 1.919 0.042 2.695 0.607 0.762 1.637 1.058 2.54 0.72 0.113-0.042 0.226-0.085 0.325-0.155 0.282-0.198 0.423-0.099 0.522 0.198 0.085 0.198 0.198 0.381 0.31 0.578 0.226 0.395 0.226 0.423-0.198 0.635-0.367 0.183-0.762 0.31-1.143 0.466-0.437-0.028-0.861-0.028-1.298-0.028z"></path>
<path d="M0 23.549c0-1.538 0.014-3.090 0.014-4.642 0-0.804 0.212-1.524 0.818-2.102 0.931-0.889 2.751-1.101 3.951-0.466-0.113 0.155-0.24 0.296-0.325 0.466-0.254 0.508-0.578 0.734-1.228 0.72-0.917-0.028-1.453 0.564-1.481 1.524-0.028 1.496 0 2.991 0 4.487-0.593 0.014-1.171 0.014-1.75 0.014z"></path>
<path d="M18.116 14.66c0.014-0.649 0.042-1.298 0.042-1.947 0-1.693 0-3.386 0-5.079 0-0.522 0.014-0.536 0.508-0.536 1.411 0.014 1.157-0.183 1.157 1.115 0.028 2.145 0.014 4.303 0.028 6.448-0.564 0-1.143 0-1.735 0z"></path>
</svg>
