<!-- Generated by IcoMoon.io -->
<svg version="1.1" xmlns="http://www.w3.org/2000/svg" width="32" height="32" viewBox="0 0 32 32">
<title>COINMATE</title>
<path d="M5.559 2.808c2.78-1.848 6.152-2.765 9.481-2.596 3.64 0.169 7.21 1.637 9.905 4.106 2.822 2.54 4.713 6.138 5.122 9.919 0.395 3.273-0.254 6.66-1.862 9.538-1.34 2.441-3.33 4.515-5.714 5.954-2.215 1.355-4.755 2.131-7.323 2.258-4.43 0.282-8.945-1.425-12.063-4.586 0.55-0.564 1.115-1.129 1.665-1.707 2.3 2.314 5.474 3.739 8.734 3.908 2.78 0.169 5.601-0.55 7.958-2.032 2.653-1.665 4.713-4.275 5.672-7.266 0.903-2.723 0.903-5.742-0.014-8.466-1.199-3.668-4.064-6.73-7.633-8.212-4.064-1.721-8.959-1.284-12.614 1.185-0.437-0.677-0.875-1.34-1.312-2.004zM14.293 6.42c0.635 0 1.284 0 1.919 0 0 0.522 0 1.058 0 1.58 2.286 0.296 4.473 1.552 5.742 3.499-0.607 0.381-1.185 0.818-1.792 1.213-0.875-1.228-2.201-2.145-3.697-2.441-1.834-0.409-3.852 0.155-5.22 1.425-1.213 1.101-1.947 2.723-1.947 4.36-0.014 1.679 0.734 3.358 1.989 4.473 1.34 1.213 3.259 1.764 5.037 1.411 1.326-0.226 2.54-0.945 3.429-1.947 0.564 0.466 1.101 0.945 1.651 1.425-1.312 1.524-3.203 2.511-5.192 2.751 0 0.536 0 1.058 0 1.58-0.635 0-1.284 0-1.919 0 0-0.522 0-1.058 0-1.58-1.961-0.24-3.81-1.199-5.122-2.667s-2.088-3.443-2.060-5.432c-0.028-2.624 1.354-5.192 3.513-6.66 1.086-0.762 2.356-1.228 3.683-1.411 0-0.522 0-1.044-0.014-1.58z"></path>
</svg>
