<!-- Generated by IcoMoon.io -->
<svg version="1.1" xmlns="http://www.w3.org/2000/svg" width="32" height="32" viewBox="0 0 32 32">
<title>COINSPOT</title>
<path d="M14.998 0c0.663 0 1.326 0 2.004 0 0.014 0 0.042 0.014 0.056 0.014 0.31 0.028 0.621 0.042 0.917 0.085 0.564 0.071 1.115 0.169 1.665 0.296 0.931 0.212 1.834 0.508 2.709 0.889 0.085 0.042 0.141 0.028 0.212-0.014 0.325-0.198 0.649-0.381 0.974-0.564 0.113-0.056 0.226-0.099 0.339-0.155 0.522-0.226 1.072-0.395 1.637-0.494 0.127-0.014 0.254-0.042 0.381-0.056 0.198 0 0.395 0 0.593 0 0.028 0 0.056 0.014 0.085 0.014 0.268 0.028 0.451 0.155 0.578 0.381 0 0 0 0.014 0.014 0.014 0.127 0.212 0.226 0.451 0.296 0.691 0.212 0.649 0.282 1.326 0.296 2.004 0 0.226-0.014 0.452-0.028 0.691-0.042 0.353-0.085 0.691-0.141 1.044 0 0.042 0 0.085 0.042 0.127 0.226 0.24 0.451 0.494 0.663 0.748 0.959 1.143 1.75 2.399 2.356 3.767 0.748 1.679 1.199 3.429 1.326 5.263 0 0.085 0.014 0.169 0.028 0.254 0 0.663 0 1.326 0 2.004 0 0.014-0.014 0.042-0.014 0.056-0.014 0.183-0.028 0.381-0.042 0.564-0.042 0.466-0.113 0.931-0.198 1.397-0.296 1.552-0.804 3.019-1.552 4.416-0.748 1.439-1.707 2.723-2.85 3.866-0.677 0.677-1.397 1.284-2.187 1.834-1.199 0.832-2.483 1.496-3.866 1.975-0.889 0.31-1.806 0.536-2.737 0.691-0.494 0.085-1.002 0.141-1.496 0.169-0.141 0.014-0.282 0.014-0.409 0.028-0.099 0.014-0.183 0.028-0.268 0.028-0.367 0-0.734-0.014-1.115-0.014-0.212 0-0.423-0.014-0.635-0.028-0.31-0.028-0.607-0.071-0.917-0.113-0.522-0.071-1.030-0.169-1.552-0.296-0.578-0.141-1.157-0.325-1.721-0.522-0.847-0.31-1.651-0.691-2.427-1.129-0.536-0.31-1.058-0.649-1.566-1.030-0.522-0.395-1.030-0.804-1.496-1.256-0.367-0.353-0.72-0.72-1.058-1.101-0.296-0.339-0.564-0.691-0.832-1.058-0.48-0.635-0.889-1.312-1.256-2.018-0.31-0.593-0.578-1.199-0.818-1.82-0.014-0.028-0.014-0.056-0.014-0.071 0-0.042 0-0.085-0.014-0.127-0.212-0.578-0.381-1.171-0.522-1.764-0.155-0.677-0.282-1.355-0.339-2.046-0.028-0.353-0.071-0.705-0.071-1.058-0.014-0.734 0-1.453 0.071-2.173 0.056-0.466 0.113-0.931 0.198-1.397 0.141-0.875 0.367-1.693 0.663-2.497 0.494-1.354 1.157-2.624 2.004-3.81 0.804-1.129 1.721-2.131 2.78-3.005 1.143-0.959 2.399-1.735 3.753-2.342 1.679-0.748 3.429-1.185 5.249-1.326 0.085-0.014 0.169-0.014 0.254-0.028zM22.166 1.524c-0.028-0.014-0.042-0.028-0.071-0.028-0.72-0.31-1.467-0.55-2.229-0.748-0.705-0.183-1.425-0.31-2.145-0.381-0.437-0.042-0.861-0.071-1.298-0.085-0.451-0.014-0.917-0.014-1.369 0.028-0.353 0.028-0.705 0.056-1.072 0.099-0.578 0.042-1.143 0.155-1.707 0.296-1.27 0.31-2.497 0.776-3.654 1.397-1.524 0.818-2.878 1.848-4.064 3.104-0.649 0.691-1.228 1.425-1.75 2.215-0.931 1.439-1.623 3.005-2.046 4.684-0.198 0.748-0.325 1.524-0.395 2.3-0.028 0.381-0.056 0.748-0.071 1.129-0.014 0.339 0 0.677 0.014 1.016 0.014 0.423 0.042 0.861 0.099 1.284 0.056 0.522 0.141 1.030 0.254 1.538 0.155 0.691 0.353 1.355 0.593 2.018 0.042 0.127 0.042 0.127 0.183 0.113 0.042 0 0.085 0 0.127 0 0.099 0 0.198 0 0.282 0 0.099 0 0.212 0 0.31 0 0.141 0 0.268 0.014 0.409 0.028 0.056 0 0.099 0.014 0.155 0.014 0.028 0 0.056 0 0.085 0 0.085 0 0.169 0 0.254 0.014 0.071 0 0.141 0.028 0.212 0.028 0.113 0.014 0.226 0.014 0.339 0.028 0.155 0.028 0.325 0.056 0.48 0.071 0.226 0.042 0.452 0.071 0.691 0.127 0.268 0.056 0.536 0.127 0.804 0.198 0.282 0.071 0.55 0.155 0.818 0.24s0.522 0.183 0.776 0.268c0.113 0.042 0.226 0.085 0.353 0.127 0.127 0.056 0.24 0.099 0.367 0.155 0.056 0.028 0.127 0.042 0.183 0.071 0.099 0.056 0.198 0.113 0.296 0.155s0.183 0.085 0.282 0.127c0.071 0.042 0.141 0.085 0.212 0.113 0.085 0.028 0.169 0.071 0.254 0.127 0.014 0 0.014 0.014 0.028 0.014 0.113 0.056 0.226 0.113 0.325 0.169s0.198 0.127 0.296 0.183c0.155 0.099 0.325 0.183 0.48 0.296 0.226 0.155 0.451 0.31 0.663 0.466 0.141 0.099 0.268 0.198 0.409 0.296 0.212 0.169 0.409 0.339 0.607 0.508s0.409 0.353 0.607 0.536c0.296 0.282 0.578 0.578 0.861 0.889 0.31 0.339 0.593 0.691 0.861 1.058 0.141 0.198 0.282 0.381 0.423 0.578 0.155 0.226 0.296 0.451 0.437 0.677 0.127 0.198 0.24 0.395 0.367 0.593 0.071 0.113 0.113 0.24 0.198 0.353 0.014 0.014 0.014 0.042 0.028 0.056 0.028 0.056 0.042 0.127 0.071 0.183 0.071 0.141 0.141 0.282 0.212 0.409 0.014 0.028 0.028 0.071 0.042 0.099 0.056 0.113 0.113 0.226 0.169 0.339 0.071 0.155 0.127 0.31 0.183 0.466 0.014 0.042 0.042 0.071 0.099 0.071 0.226-0.014 0.437-0.014 0.663-0.028 0.381-0.028 0.762-0.071 1.143-0.127 0.578-0.071 1.143-0.198 1.693-0.339 1.679-0.437 3.245-1.129 4.684-2.074 1.171-0.776 2.229-1.693 3.16-2.737 0.847-0.959 1.566-1.989 2.145-3.118 0.621-1.185 1.086-2.427 1.383-3.739 0.155-0.649 0.268-1.312 0.325-1.975 0.028-0.381 0.056-0.776 0.071-1.157 0.014-0.451 0.014-0.903-0.028-1.354-0.028-0.353-0.056-0.705-0.099-1.044-0.071-0.578-0.183-1.157-0.31-1.721-0.31-1.284-0.776-2.497-1.397-3.654-0.593-1.101-1.298-2.13-2.131-3.062-0.085-0.099-0.169-0.183-0.254-0.282-0.014 0.028-0.014 0.056-0.028 0.071-0.056 0.212-0.113 0.437-0.183 0.649-0.113 0.381-0.254 0.748-0.395 1.101-0.071 0.155-0.141 0.296-0.198 0.452-0.085 0.226-0.198 0.423-0.31 0.621-0.028 0.042-0.028 0.085-0.056 0.113-0.056 0.099-0.113 0.198-0.169 0.296-0.099 0.155-0.183 0.31-0.282 0.466-0.127 0.198-0.268 0.395-0.395 0.593-0.141 0.212-0.282 0.409-0.423 0.621-0.169 0.24-0.339 0.466-0.508 0.705-0.24 0.31-0.466 0.621-0.705 0.931-0.183 0.24-0.381 0.48-0.564 0.705-0.282 0.325-0.564 0.663-0.832 0.988-0.042 0.042-0.071 0.085-0.113 0.127-0.028 0.028-0.028 0.056 0 0.099 0.183 0.169 0.296 0.381 0.367 0.607 0.141 0.395 0.169 0.79 0.183 1.199 0.014 0.353-0.028 0.691-0.071 1.030-0.042 0.282-0.085 0.578-0.183 0.847-0.127 0.325-0.282 0.635-0.437 0.931-0.409 0.72-0.861 1.411-1.355 2.074-0.282 0.381-0.578 0.762-0.903 1.115-0.113 0.127-0.226 0.24-0.367 0.339-0.141 0.113-0.282 0.099-0.423 0-0.056-0.042-0.113-0.099-0.155-0.155-0.169-0.226-0.254-0.466-0.325-0.734-0.071-0.254-0.042-0.508 0.071-0.748 0.198-0.423 0.409-0.832 0.649-1.227 0.254-0.409 0.508-0.818 0.762-1.227 0.042-0.056 0.056-0.113 0.056-0.183-0.014-0.113-0.014-0.226-0.042-0.325-0.099-0.353-0.198-0.691-0.296-1.044 0-0.014-0.014-0.028-0.028-0.056-0.071 0.056-0.141 0.113-0.212 0.169s-0.071 0.056 0 0.127c0.183 0.183 0.212 0.423 0.071 0.635-0.183 0.282-0.367 0.564-0.55 0.847-0.141 0.212-0.423 0.282-0.649 0.155-0.042-0.028-0.099-0.056-0.141-0.085-0.099-0.056-0.085-0.056-0.155 0.028-0.254 0.353-0.494 0.72-0.762 1.058-0.339 0.437-0.705 0.875-1.072 1.298-0.254 0.296-0.508 0.578-0.762 0.847-0.48 0.494-0.959 0.974-1.481 1.397-0.367 0.296-0.734 0.593-1.129 0.832-0.282 0.169-0.564 0.325-0.889 0.381-0.099 0.014-0.198 0.014-0.296 0-0.198-0.042-0.325-0.169-0.395-0.353-0.085-0.254-0.099-0.508-0.085-0.776 0.028-0.325 0.071-0.663 0.155-0.974 0.169-0.748 0.409-1.467 0.691-2.173 0.24-0.607 0.494-1.213 0.776-1.792 0.254-0.536 0.536-1.072 0.818-1.594 0.141-0.254 0.296-0.494 0.437-0.734 0.056-0.085 0.056-0.085-0.028-0.141-0.113-0.071-0.226-0.141-0.339-0.212-0.226-0.155-0.296-0.437-0.155-0.677 0.183-0.282 0.367-0.564 0.55-0.847 0.099-0.155 0.254-0.24 0.437-0.226 0.071 0 0.127 0.028 0.198 0.042 0.056 0.014 0.056 0.014 0.071-0.042 0.014-0.071 0.042-0.141 0.056-0.226 0-0.028 0.014-0.042 0.014-0.085-0.028 0-0.042 0-0.042 0-0.296 0.042-0.607 0.085-0.903 0.127-0.155 0.028-0.31 0.071-0.466 0.113-0.071 0.014-0.113 0.056-0.155 0.127-0.155 0.24-0.325 0.48-0.48 0.72-0.381 0.55-0.762 1.115-1.213 1.608-0.127 0.141-0.282 0.254-0.466 0.296-0.254 0.056-0.508 0.085-0.776 0.071-0.127-0.014-0.24-0.028-0.353-0.085-0.141-0.071-0.226-0.169-0.212-0.339 0.014-0.113 0.042-0.226 0.085-0.325 0.127-0.339 0.296-0.663 0.466-0.988 0.325-0.621 0.691-1.227 1.072-1.82 0.282-0.437 0.593-0.861 0.945-1.27 0.169-0.198 0.353-0.395 0.578-0.55 0.254-0.169 0.522-0.325 0.79-0.48 0.423-0.24 0.861-0.423 1.34-0.522 0.282-0.056 0.564-0.099 0.847-0.028 0.085 0.014 0.183 0.056 0.268 0.085 0.056-0.127 0.113-0.24 0.169-0.367 0-0.014 0.014-0.028 0.028-0.042 0.014-0.042 0.042-0.085 0.056-0.113 0.042-0.085 0.071-0.169 0.113-0.24 0.028-0.056 0.056-0.099 0.085-0.155 0.099-0.198 0.198-0.395 0.296-0.593 0.042-0.071 0.071-0.155 0.099-0.226 0.014-0.042 0.028-0.071 0.056-0.113 0.042-0.071 0.085-0.141 0.127-0.212 0.056-0.113 0.113-0.226 0.169-0.339 0.042-0.085 0.099-0.183 0.155-0.268 0.028-0.056 0.056-0.113 0.085-0.155 0.042-0.071 0.071-0.141 0.113-0.212 0.099-0.169 0.198-0.325 0.296-0.494 0.071-0.113 0.127-0.24 0.198-0.353 0.113-0.183 0.226-0.367 0.339-0.55s0.212-0.367 0.339-0.536c0.169-0.254 0.339-0.508 0.522-0.748 0.198-0.268 0.409-0.522 0.621-0.79 0.113-0.141 0.24-0.282 0.367-0.409 0.212-0.212 0.423-0.423 0.635-0.635 0.183-0.169 0.367-0.325 0.55-0.48 0.071-0.071 0.155-0.127 0.24-0.183-0.028 0.028 0.042-0.028 0.127-0.085zM22.476 3.937c-0.564 0.071-1.101 0.325-1.524 0.804-0.423 0.466-0.635 1.030-0.649 1.665-0.014 0.691 0.226 1.298 0.705 1.778 0.536 0.55 1.199 0.776 1.947 0.748 0.536-0.028 1.030-0.226 1.439-0.578 0.663-0.564 0.945-1.284 0.889-2.145-0.042-0.621-0.31-1.171-0.762-1.594-0.55-0.536-1.227-0.748-2.046-0.677zM12.825 20.388c0 0.056 0.014 0.141 0.014 0.226 0.014 0.155 0.042 0.31 0.113 0.451 0.099 0.198 0.24 0.353 0.466 0.409 0.127 0.028 0.254 0.028 0.381 0.014 0.212-0.028 0.409-0.099 0.607-0.198 0.494-0.24 0.917-0.578 1.312-0.945 0.141-0.141 0.282-0.282 0.423-0.423 0.226-0.24 0.451-0.494 0.663-0.748 0.353-0.409 0.663-0.847 0.959-1.312 0.042-0.071 0.042-0.085-0.028-0.127-0.24-0.155-0.48-0.31-0.734-0.48-0.071-0.042-0.071-0.042-0.113 0.028-0.381 0.508-0.776 1.016-1.213 1.467-0.198 0.198-0.409 0.395-0.635 0.564-0.127 0.085-0.254 0.169-0.409 0.198-0.113 0.014-0.212-0.028-0.254-0.141-0.028-0.071-0.042-0.155-0.042-0.24 0.014-0.198 0.056-0.395 0.113-0.593 0.141-0.48 0.353-0.931 0.578-1.369 0.141-0.268 0.282-0.522 0.423-0.776 0.056-0.113 0.056-0.099-0.042-0.169-0.113-0.071-0.226-0.141-0.339-0.226-0.127-0.085-0.254-0.155-0.381-0.24-0.042-0.028-0.071-0.028-0.099 0.028s-0.071 0.099-0.099 0.155c-0.212 0.381-0.437 0.748-0.649 1.143-0.141 0.268-0.268 0.55-0.395 0.818-0.198 0.437-0.353 0.889-0.466 1.355-0.085 0.353-0.155 0.72-0.155 1.129zM6.025 25.312c0.127 0.014 0.268-0.014 0.423-0.056 0.183-0.056 0.353-0.141 0.48-0.282 0.268-0.282 0.31-0.607 0.198-0.959-0.085-0.282-0.268-0.494-0.494-0.677-0.296-0.226-0.621-0.381-1.002-0.409-0.282-0.028-0.55-0.014-0.804 0.099-0.508 0.212-0.691 0.691-0.522 1.185 0.099 0.282 0.268 0.508 0.508 0.691 0.353 0.282 0.748 0.423 1.213 0.409zM10.681 28.092c0-0.085-0.014-0.212-0.071-0.339-0.155-0.353-0.423-0.593-0.762-0.748-0.367-0.183-0.762-0.24-1.171-0.169-0.254 0.042-0.48 0.141-0.663 0.31-0.325 0.296-0.367 0.776-0.141 1.157 0.169 0.31 0.437 0.522 0.762 0.663 0.296 0.127 0.607 0.183 0.945 0.169 0.226-0.014 0.423-0.071 0.621-0.169 0.296-0.198 0.48-0.451 0.48-0.875zM9.467 24.339c-0.028 0-0.042 0-0.071 0-0.24 0.014-0.409 0.127-0.508 0.339-0.071 0.155-0.071 0.31-0.042 0.466 0.056 0.325 0.226 0.578 0.508 0.762 0.198 0.127 0.409 0.226 0.649 0.212s0.437-0.113 0.536-0.339c0.071-0.141 0.071-0.282 0.056-0.437-0.056-0.339-0.24-0.593-0.522-0.79-0.183-0.141-0.381-0.212-0.607-0.212z"></path>
<path d="M11.965 9.284c-0.014-0.099-0.028-0.24-0.056-0.353-0.085-0.395-0.282-0.564-0.677-0.635-0.113-0.014-0.24-0.028-0.367-0.042 0.099-0.014 0.198-0.014 0.282-0.028 0.141-0.014 0.268-0.042 0.395-0.099 0.226-0.113 0.325-0.296 0.367-0.522 0.028-0.127 0.042-0.268 0.056-0.423 0.014 0.099 0.014 0.183 0.028 0.268 0.014 0.099 0.028 0.212 0.071 0.296 0.085 0.226 0.24 0.367 0.466 0.423 0.141 0.042 0.296 0.042 0.437 0.071 0.028 0 0.056 0 0.085 0.014-0.127 0.014-0.24 0.028-0.367 0.042-0.183 0.028-0.353 0.085-0.494 0.226-0.085 0.085-0.141 0.198-0.169 0.31-0.014 0.155-0.042 0.31-0.056 0.451z"></path>
<path d="M6.97 5.446c0.014 0.099 0.014 0.212 0.042 0.31 0.028 0.198 0.099 0.395 0.268 0.536 0.127 0.113 0.282 0.155 0.437 0.169 0.113 0.014 0.226 0.028 0.339 0.042-0.099 0.014-0.183 0.014-0.282 0.028-0.113 0.014-0.226 0.042-0.324 0.085-0.254 0.099-0.367 0.296-0.423 0.55-0.028 0.141-0.042 0.268-0.056 0.409-0.014-0.113-0.028-0.24-0.042-0.367-0.028-0.183-0.099-0.353-0.254-0.48-0.099-0.071-0.198-0.127-0.324-0.155-0.155-0.028-0.31-0.042-0.452-0.056 0.099-0.014 0.212-0.014 0.324-0.042 0.155-0.028 0.296-0.071 0.423-0.155 0.099-0.071 0.169-0.169 0.212-0.268 0.071-0.155 0.085-0.325 0.099-0.494 0-0.056 0-0.085 0.014-0.113-0.014 0-0.014 0 0 0z"></path>
<path d="M20.459 25.439c0.014 0.141 0.042 0.282 0.071 0.423 0.014 0.071 0.042 0.141 0.071 0.198 0.071 0.169 0.212 0.282 0.381 0.339 0.127 0.042 0.254 0.056 0.395 0.071 0.056 0.014 0.127 0.014 0.183 0.014-0.127 0.014-0.268 0.028-0.395 0.042-0.169 0.028-0.325 0.085-0.451 0.212-0.099 0.113-0.155 0.24-0.183 0.381-0.028 0.127-0.028 0.254-0.056 0.381 0 0.014 0 0.028 0 0.042-0.014-0.141-0.042-0.282-0.056-0.423-0.028-0.155-0.085-0.282-0.212-0.395-0.085-0.085-0.183-0.127-0.296-0.155-0.169-0.056-0.353-0.071-0.536-0.085 0.113-0.014 0.226-0.014 0.339-0.042 0.099-0.014 0.198-0.042 0.282-0.071 0.212-0.085 0.339-0.24 0.381-0.451 0.042-0.141 0.042-0.296 0.071-0.451 0.014 0 0.014-0.014 0.014-0.028z"></path>
<path d="M16.212 4.035c-0.014-0.113-0.028-0.24-0.042-0.353-0.028-0.155-0.085-0.31-0.212-0.423-0.127-0.127-0.282-0.169-0.451-0.198-0.127-0.014-0.254-0.028-0.353-0.042 0.127-0.014 0.268-0.028 0.423-0.056 0.325-0.056 0.522-0.254 0.593-0.564 0.028-0.127 0.042-0.268 0.071-0.423 0 0.056 0.014 0.099 0.014 0.127 0.014 0.141 0.028 0.282 0.085 0.423 0.085 0.212 0.226 0.339 0.437 0.409 0.169 0.056 0.353 0.071 0.536 0.085-0.085 0.014-0.169 0.014-0.24 0.028-0.141 0.014-0.282 0.042-0.409 0.099-0.155 0.071-0.268 0.198-0.325 0.367-0.042 0.127-0.056 0.268-0.085 0.409-0.028 0.028-0.028 0.071-0.042 0.113 0 0 0 0 0 0z"></path>
<path d="M28.43 20.755c0.183-0.014 0.367-0.042 0.55-0.099 0.198-0.071 0.339-0.212 0.395-0.409 0.042-0.141 0.056-0.282 0.085-0.423 0-0.028 0-0.056 0-0.071 0 0 0.014 0 0.014 0 0.014 0.071 0.014 0.155 0.028 0.226 0.014 0.099 0.042 0.198 0.071 0.296 0.085 0.226 0.24 0.353 0.466 0.409 0.155 0.042 0.31 0.056 0.451 0.085-0.085 0.014-0.183 0.014-0.268 0.028-0.099 0.014-0.198 0.042-0.282 0.071-0.198 0.071-0.325 0.212-0.381 0.409-0.042 0.141-0.056 0.282-0.085 0.423 0 0.028 0 0.056 0 0.071 0 0-0.014 0-0.014 0 0-0.028 0-0.056 0-0.085-0.014-0.183-0.042-0.353-0.127-0.522-0.071-0.141-0.183-0.24-0.325-0.296s-0.296-0.085-0.437-0.099c-0.056 0-0.099-0.014-0.141-0.014z"></path>
<path d="M28.713 10.963c0.014 0.113 0.028 0.226 0.042 0.339 0.014 0.056 0.028 0.099 0.042 0.155 0.071 0.226 0.226 0.381 0.451 0.451 0.127 0.042 0.268 0.042 0.395 0.071 0.028 0 0.056 0 0.071 0 0 0 0 0.014 0 0.014-0.028 0-0.056 0-0.085 0-0.127 0.028-0.268 0.028-0.395 0.071-0.24 0.071-0.409 0.24-0.466 0.48-0.042 0.155-0.056 0.31-0.085 0.466 0-0.042-0.014-0.085-0.014-0.127-0.014-0.141-0.028-0.282-0.085-0.423-0.085-0.226-0.254-0.367-0.494-0.423-0.113-0.028-0.226-0.042-0.353-0.056-0.014 0-0.042 0-0.056-0.028 0.071-0.014 0.155-0.014 0.226-0.028 0.085-0.014 0.183-0.042 0.268-0.071 0.198-0.071 0.325-0.198 0.395-0.381 0.056-0.141 0.085-0.282 0.085-0.423 0.042 0 0.042-0.042 0.056-0.085 0 0 0 0 0 0z"></path>
<path d="M2.624 13.757c0.127-0.014 0.24-0.028 0.367-0.042s0.24-0.056 0.353-0.127c0.127-0.071 0.212-0.183 0.268-0.325 0.071-0.169 0.085-0.339 0.099-0.508 0-0.028 0-0.056 0-0.085 0.014 0.155 0.042 0.296 0.056 0.423 0.014 0.071 0.042 0.127 0.056 0.198 0.071 0.183 0.212 0.296 0.381 0.353 0.183 0.071 0.381 0.085 0.578 0.099-0.085 0.014-0.183 0.014-0.268 0.028-0.127 0.028-0.24 0.042-0.353 0.085-0.212 0.085-0.339 0.24-0.381 0.451-0.028 0.141-0.042 0.296-0.071 0.437 0 0.014 0 0.028 0 0.071-0.014-0.141-0.028-0.254-0.042-0.367-0.028-0.169-0.085-0.339-0.226-0.466-0.085-0.085-0.183-0.141-0.296-0.155-0.155-0.028-0.31-0.042-0.466-0.071-0.014 0-0.028 0-0.056 0 0 0 0 0 0 0z"></path>
<path d="M6.123 18.243c0.127-0.014 0.254-0.014 0.381-0.042 0.099-0.014 0.212-0.056 0.296-0.099 0.183-0.085 0.282-0.24 0.339-0.437 0.042-0.155 0.056-0.325 0.071-0.451 0.014 0.085 0.014 0.212 0.042 0.325 0.028 0.169 0.085 0.339 0.212 0.466s0.282 0.169 0.437 0.198c0.127 0.028 0.254 0.028 0.381 0.042-0.113 0.014-0.226 0.028-0.353 0.042-0.183 0.028-0.353 0.085-0.48 0.212s-0.183 0.282-0.212 0.451c-0.014 0.113-0.028 0.226-0.042 0.353-0.014-0.085-0.014-0.155-0.028-0.226-0.014-0.183-0.071-0.367-0.183-0.536-0.071-0.099-0.169-0.169-0.268-0.198-0.127-0.042-0.254-0.071-0.381-0.085-0.056 0-0.127 0-0.212-0.014z"></path>
<path d="M22.801 7.915c-0.875-0.028-1.425-0.677-1.496-1.354-0.042-0.452 0.099-0.861 0.423-1.199 0.24-0.24 0.522-0.395 0.861-0.437 0.494-0.071 0.903 0.099 1.256 0.437 0.268 0.254 0.409 0.564 0.437 0.931 0.028 0.423-0.085 0.818-0.381 1.129s-0.663 0.48-1.101 0.494z"></path>
</svg>
