<!-- Generated by IcoMoon.io -->
<svg version="1.1" xmlns="http://www.w3.org/2000/svg" width="32" height="32" viewBox="0 0 32 32">
<title>COINOMI</title>
<path d="M15.898 32c-8.794 0.013-15.859-7.066-15.898-15.859-0.038-8.538 6.835-15.898 15.859-15.91 8.896-0.013 15.91 7.091 15.923 15.859 0.026 8.973-7.27 15.962-15.885 15.91zM15.322 31.45c7.898 0.346 15.398-5.658 15.885-14.554 0.448-8.192-5.734-15.667-14.63-16.102-8.090-0.397-15.258 5.632-15.974 14.029-0.755 8.947 6.17 16.346 14.72 16.627z"></path>
<path d="M4.762 17.344c0-1.229 0.717-2.189 1.971-2.56 0.307-0.090 0.371-0.243 0.371-0.525-0.013-1.587-0.013-3.174-0.013-4.762 0-0.269-0.077-0.448-0.32-0.602-0.499-0.333-0.602-0.998-0.269-1.485 0.346-0.486 0.986-0.627 1.485-0.269 0.218 0.166 0.397 0.166 0.627 0.064 1.523-0.589 3.046-1.165 4.57-1.728 0.23-0.090 0.346-0.192 0.397-0.448 0.102-0.525 0.512-0.832 1.024-0.832 0.499 0 0.922 0.333 0.998 0.858 0.038 0.269 0.166 0.397 0.41 0.499 2.611 1.139 5.21 2.291 7.808 3.456 0.23 0.102 0.371 0.064 0.538-0.090 0.512-0.474 1.139-0.563 1.741-0.282 0.563 0.269 0.96 0.896 0.922 1.485-0.038 0.653-0.474 1.254-1.114 1.421-0.384 0.102-0.474 0.307-0.525 0.653-0.115 0.947-0.269 1.894-0.422 2.842-0.038 0.269 0.013 0.41 0.243 0.563 0.998 0.64 1.011 1.984 0.026 2.637-0.243 0.154-0.294 0.307-0.243 0.576 0.166 0.87 0.307 1.754 0.461 2.624 0.038 0.243 0.128 0.384 0.358 0.486 0.422 0.179 0.627 0.538 0.614 0.986-0.013 0.422-0.218 0.768-0.627 0.934-0.435 0.179-0.819 0.077-1.178-0.23-0.141-0.115-0.397-0.205-0.563-0.179-1.203 0.205-2.394 0.422-3.597 0.666-0.154 0.026-0.333 0.179-0.41 0.333-0.371 0.704-0.96 0.87-1.638 0.448-0.141-0.090-0.371-0.115-0.512-0.064-1.126 0.397-2.24 0.819-3.354 1.229-0.218 0.077-0.32 0.205-0.333 0.448-0.051 0.742-0.474 1.28-1.114 1.459-0.653 0.179-1.306-0.051-1.702-0.602s-0.384-1.267 0.051-1.869c0.141-0.192 0.166-0.346 0.038-0.55-0.96-1.626-1.907-3.264-2.842-4.902-0.154-0.269-0.333-0.218-0.563-0.154-1.69 0.474-3.328-0.781-3.315-2.534zM22.784 10.458c-0.602 0.026-1.203 0.064-1.805 0.090-1.434 0.064-2.867 0.166-4.301 0.192-0.627 0.013-1.075 0.141-1.306 0.794-0.064 0.205-0.115 0.333 0 0.512 0.832 1.306 1.651 2.611 2.458 3.93 0.128 0.218 0.282 0.307 0.55 0.346s0.576 0.192 0.768 0.384c0.192 0.205 0.371 0.282 0.627 0.269 0.896-0.064 1.805-0.128 2.701-0.179 0.23-0.013 0.32-0.115 0.397-0.333 0.179-0.525 0.538-0.909 1.075-1.024 0.32-0.064 0.41-0.243 0.448-0.525 0.128-0.909 0.256-1.818 0.422-2.714 0.064-0.371 0.115-0.691-0.333-0.87-0.141-0.051-0.282-0.205-0.333-0.346-0.179-0.512-0.563-0.563-1.011-0.512-0.102 0-0.23-0.013-0.358-0.013zM7.68 11.878c0 0-0.013 0 0 0-0.013 0.768 0 1.536-0.013 2.304-0.013 0.333 0.026 0.563 0.435 0.627 0.243 0.038 0.486 0.179 0.704 0.307 0.192 0.115 0.32 0.102 0.461-0.051 1.114-1.101 2.214-2.189 3.328-3.29 0.166-0.166 0.23-0.32 0.141-0.576-0.358-0.973 0.026-1.741 0.998-2.138 0.141-0.051 0.282-0.256 0.307-0.397 0.077-0.691 0.128-1.382 0.166-2.086 0.026-0.486-0.346-0.755-0.781-0.576-1.536 0.602-3.085 1.203-4.621 1.83-0.141 0.064-0.243 0.243-0.346 0.384-0.179 0.243-0.358 0.486-0.525 0.742-0.102 0.154-0.243 0.32-0.243 0.499-0.026 0.806-0.013 1.613-0.013 2.419zM22.643 17.357c-0.858 0.064-1.549 0.115-2.24 0.154-0.512 0.038-1.062-0.038-1.306 0.589-0.013 0.038-0.102 0.064-0.115 0.102-0.064 0.128-0.179 0.282-0.166 0.41 0.102 1.101 0.23 2.202 0.333 3.302 0.051 0.602 0.038 1.216 0.73 1.485 0.166 0.064 0.346 0.166 0.499 0.141 1.062-0.179 2.125-0.397 3.187-0.602 0.41-0.077 0.845-0.115 0.973-0.64 0.013-0.077 0.141-0.141 0.179-0.218 0.077-0.166 0.205-0.358 0.179-0.525-0.128-0.896-0.294-1.779-0.435-2.675-0.038-0.23-0.128-0.358-0.371-0.41-0.499-0.102-0.845-0.41-1.101-0.845-0.115-0.141-0.294-0.23-0.346-0.269zM13.722 17.626c0 0 0 0.013 0 0-1.075 0.013-2.163 0.013-3.238 0.013-0.218 0-0.461-0.038-0.538 0.307-0.077 0.32-0.051 0.512 0.269 0.704 2.573 1.472 5.133 2.97 7.706 4.454 0.166 0.090 0.422 0.154 0.576 0.077 0.102-0.051 0.141-0.346 0.115-0.538-0.115-1.216-0.256-2.419-0.384-3.622-0.038-0.346-0.038-0.678-0.474-0.806-0.115-0.038-0.23-0.166-0.282-0.282-0.128-0.282-0.346-0.307-0.602-0.307-1.037 0.013-2.086 0-3.149 0zM13.683 17.037c0 0 0 0.013 0 0 1.088 0.013 2.163 0.013 3.251 0 0.563 0 0.717-0.269 0.422-0.755-0.794-1.306-1.613-2.611-2.406-3.917-0.128-0.218-0.294-0.282-0.538-0.269-0.282 0.013-0.589 0-0.845-0.090-0.269-0.102-0.422-0.051-0.602 0.141-1.050 1.075-2.112 2.15-3.187 3.2-0.256 0.243-0.307 0.422-0.090 0.717 0.128 0.166 0.218 0.397 0.243 0.602 0.038 0.294 0.179 0.371 0.461 0.371 1.101 0 2.202 0 3.29 0zM18.138 23.962c-0.179-0.141-0.294-0.269-0.435-0.346-2.624-1.51-5.248-3.021-7.872-4.506-0.115-0.064-0.371-0.077-0.448 0-0.154 0.166-0.486 0.269-0.269 0.653 0.973 1.651 1.907 3.328 2.88 4.979 0.064 0.102 0.256 0.205 0.384 0.192 0.602-0.051 1.101 0.090 1.51 0.563 0.077 0.077 0.282 0.128 0.384 0.090 1.178-0.422 2.342-0.858 3.507-1.306 0.102-0.051 0.192-0.179 0.358-0.32zM23.821 9.83c0.013-0.038 0.026-0.090 0.026-0.128-0.102-0.064-0.192-0.141-0.294-0.179-2.586-1.152-5.171-2.291-7.757-3.43-0.461-0.205-0.947 0.064-0.998 0.563-0.077 0.691-0.141 1.382-0.218 2.074-0.026 0.243 0.077 0.346 0.282 0.474 0.256 0.166 0.512 0.384 0.653 0.64 0.166 0.307 0.346 0.397 0.678 0.384 2.048-0.102 4.096-0.192 6.144-0.294 0.486-0.026 0.986-0.064 1.485-0.102z"></path>
</svg>
