<!-- Generated by IcoMoon.io -->
<svg version="1.1" xmlns="http://www.w3.org/2000/svg" width="32" height="32" viewBox="0 0 32 32">
<title>COINEGG</title>
<path d="M20.981 14.406c3.414 0 6.843 0 10.258 0 0.621 0 0.677 0.056 0.72 0.663 0.212 3.245-0.494 6.279-2.173 9.044-2.921 4.797-7.224 7.52-12.811 7.859-5.841 0.339-10.554-2.004-14.011-6.73-2.215-3.034-3.16-6.49-2.935-10.229 0.212-3.499 1.481-6.617 3.767-9.312 2.384-2.808 5.39-4.642 9.002-5.362 4.67-0.931 8.959 0.042 12.797 2.878 2.709 2.004 4.557 4.642 5.616 7.831 0.042 0.113 0.071 0.212 0.099 0.325 0.071 0.282-0.028 0.451-0.325 0.451-0.832 0.014-1.679 0.028-2.511-0.014-0.169-0.014-0.395-0.226-0.466-0.395-0.734-1.862-1.82-3.457-3.287-4.811-1.961-1.82-4.261-2.949-6.914-3.287-4.995-0.621-9.044 1.129-12.092 5.093-2.102 2.737-2.85 5.912-2.384 9.312 0.621 4.416 2.963 7.732 6.942 9.693 4.698 2.328 9.284 1.862 13.517-1.256 2.667-1.975 4.247-4.67 4.868-7.929 0.099-0.564 0.056-0.621-0.508-0.621-5.827 0-11.668 0-17.496 0.014-0.607 0-0.705 0.113-0.466 0.677 0.959 2.258 2.653 3.598 5.108 3.922 2.018 0.268 3.739-0.423 5.206-1.792 0.141-0.141 0.395-0.226 0.593-0.24 0.889-0.028 1.792-0.014 2.681-0.014 0.522 0 0.635 0.183 0.353 0.635-1.566 2.582-3.852 4.134-6.843 4.557-2.977 0.409-5.587-0.466-7.774-2.511-1.637-1.538-2.582-3.443-2.878-5.686-0.536-4.049 1.75-8 5.376-9.721 4.233-2.004 9.51-0.48 11.965 3.499 0.127 0.212 0.183 0.48 0.268 0.734-0.254 0.056-0.494 0.155-0.748 0.169-0.776 0.028-1.566 0.028-2.342 0-0.24-0.014-0.536-0.113-0.705-0.282-1.227-1.143-2.667-1.792-4.346-1.806-2.624-0.014-4.952 1.496-5.926 4.007-0.212 0.55-0.141 0.649 0.451 0.649 3.457-0.014 6.914-0.014 10.356-0.014 0 0 0 0 0 0z"></path>
</svg>
