<!-- Generated by IcoMoon.io -->
<svg version="1.1" xmlns="http://www.w3.org/2000/svg" width="32" height="32" viewBox="0 0 32 32">
<title>COINEXCHANGE</title>
<path d="M31.859 1.002c-0.635 4.317-4.049 6.011-7.083 7.958 0.917 0.607 1.764 1.115 2.526 1.707 0.268 0.212 0.339 0.677 0.494 1.030-0.395 0.014-0.818 0.113-1.199 0.028-0.536-0.113-1.044-0.353-1.637-0.55-0.296 0.804-0.564 1.538-0.847 2.328-0.508-0.212-0.903-0.381-1.693-0.72 0.339 3.076 0.593 5.87 0.988 8.649 0.113 0.79 0.056 1.326-0.494 1.933-2.3 2.497-4.557 5.051-6.899 7.647-2.469-2.751-4.882-5.418-7.252-8.141-0.226-0.254-0.183-0.804-0.141-1.199 0.325-2.85 0.677-5.7 1.058-8.818-0.762 0.268-1.143 0.395-1.679 0.593-0.268-0.762-0.55-1.524-0.847-2.356-0.762 0.268-1.467 0.564-2.187 0.762-0.198 0.056-0.578-0.071-0.677-0.226-0.085-0.155 0-0.564 0.155-0.677 0.875-0.677 1.778-1.284 2.695-1.933-1.354-1.030-2.808-2.187-4.346-3.217-1.707-1.129-1.919-3.019-2.54-4.755 0.452 0.494 0.988 0.931 1.34 1.481 1.735 2.695 4.332 2.921 7.097 2.399 1.933-0.367 3.781-0.353 5.7 0.028 1.171 0.226 2.441 0 3.654-0.028 1.665-0.028 3.33-0.113 4.995-0.042 1.693 0.071 3.414 0.593 5.051-0.254 0.451-0.226 0.889-0.536 1.242-0.903 0.847-0.832 1.637-1.75 2.526-2.723zM18.455 18.991c-2.060-1.735-3.090-1.721-4.952 0 1.665 0 3.175 0 4.952 0z"></path>
</svg>
