<!-- Generated by IcoMoon.io -->
<svg version="1.1" xmlns="http://www.w3.org/2000/svg" width="32" height="32" viewBox="0 0 32 32">
<title>COINCHECK</title>
<path d="M17.044 0.677c-0.014-0.24 0.042-0.48 0.169-0.677l14.787 14.787c-0.113 0.099-0.24 0.155-0.381 0.183h-5.474c-0.861-0.141-1.679-0.522-2.328-1.115l-5.616-5.63c-0.72-0.804-1.129-1.82-1.185-2.892l0.028-4.656zM26.624 17.072c-1.072 0.042-2.088 0.466-2.892 1.185l-5.531 5.545c-0.72 0.79-1.157 1.806-1.213 2.878v4.783c0 0.183 0.056 0.367 0.141 0.522l14.787-14.773c-0.183-0.099-0.381-0.141-0.593-0.127l-4.698-0.014zM5.291 14.956c1.072-0.056 2.088-0.48 2.892-1.185l5.545-5.545c0.72-0.79 1.143-1.82 1.199-2.878v-4.684c0.028-0.226-0.028-0.466-0.141-0.663l-14.787 14.787c0.198 0.099 0.409 0.155 0.635 0.141l4.656 0.028zM14.899 26.681c-0.056-1.072-0.48-2.088-1.185-2.892l-5.545-5.545c-0.79-0.72-1.82-1.143-2.878-1.199h-4.642c-0.198-0.014-0.409 0.028-0.593 0.127l14.787 14.787c0.071-0.169 0.099-0.353 0.099-0.536l-0.042-4.741zM22.18 15.182l-5.333-5.362h-1.721l-5.347 5.319v1.693l5.319 5.347h1.693l5.39-5.305c0.466-0.466 0.466-1.213 0-1.693 0 0.014 0 0 0 0z"></path>
</svg>
