<!-- Generated by IcoMoon.io -->
<svg version="1.1" xmlns="http://www.w3.org/2000/svg" width="32" height="32" viewBox="0 0 32 32">
<title>COINFALCON</title>
<path d="M31.802 9.312c-0.183 0.268-0.339 0.494-0.494 0.72-1.298 1.834-2.61 3.654-3.908 5.489-0.24 0.353-0.536 0.55-0.931 0.677-2.215 0.705-4.416 1.425-6.631 2.145-0.141 0.042-0.282 0.099-0.522 0.183 0.79 0.762 1.524 1.467 2.328 2.229-0.649 0.24-1.199 0.437-1.75 0.635-1.171 0.423-2.328 0.861-3.499 1.256-0.212 0.071-0.508 0.099-0.72 0.028-1.651-0.578-3.287-1.171-4.924-1.778-0.113-0.042-0.212-0.099-0.296-0.141 0.72-0.748 1.411-1.481 2.173-2.272-0.254-0.085-0.451-0.155-0.635-0.212-2.229-0.734-4.473-1.453-6.702-2.187-0.212-0.071-0.423-0.226-0.55-0.395-1.481-2.004-2.921-4.035-4.374-6.081-0.056-0.085-0.099-0.183-0.169-0.325 0.169-0.014 0.296-0.028 0.423-0.028 2.441 0 4.896 0 7.337-0.014 0.353 0 0.593 0.127 0.804 0.395 2.258 2.695 4.529 5.376 6.801 8.056 0.113 0.141 0.254 0.268 0.409 0.437 0.451-0.536 0.889-1.030 1.312-1.524 1.975-2.342 3.951-4.684 5.94-7.012 0.141-0.169 0.409-0.31 0.635-0.325 2.511-0.028 5.023-0.014 7.534-0.014 0.127 0.014 0.226 0.042 0.409 0.056z"></path>
<path d="M17.975 14.631c-0.649 0.762-1.284 1.51-1.989 2.328-0.691-0.804-1.34-1.566-2.060-2.427 1.411 0 2.709 0 3.993 0 0.014 0.028 0.028 0.056 0.056 0.099z"></path>
</svg>
