<!-- Generated by IcoMoon.io -->
<svg version="1.1" xmlns="http://www.w3.org/2000/svg" width="32" height="32" viewBox="0 0 32 32">
<title>COINCORNER</title>
<path d="M0 8.762c0-2.681 0-5.347 0-8.014 0-0.734 0-0.748 0.762-0.748 5.051 0 10.102 0 15.153 0 7.633 0.014 14.152 5.249 15.732 12.727 1.82 8.621-3.556 16.875-11.922 18.864-8.198 1.961-16.409-2.695-18.991-10.737-0.494-1.524-0.734-3.090-0.734-4.684 0-2.469 0-4.938 0-7.407zM23.605 16.705c0.014-5.164-4.966-8.818-9.862-7.21-0.226 0.071-0.466 0.226-0.607 0.395-1.538 1.891-2.356 4.049-2.413 6.476-0.071 2.624 0.734 4.981 2.413 6.998 0.226 0.268 0.578 0.508 0.917 0.607 4.811 1.326 9.538-2.258 9.552-7.266z"></path>
</svg>
