<!-- Generated by IcoMoon.io -->
<svg version="1.1" xmlns="http://www.w3.org/2000/svg" width="32" height="32" viewBox="0 0 32 32">
<title>COINEX</title>
<path d="M16.563 4.275c-5.53-0.128-10.662 4.058-11.533 9.92-0.576 3.955 0.576 7.386 3.354 10.202 4.89 4.954 13.248 4.326 17.421-1.242 0.256-0.333 0.243-0.525-0.051-0.819-1.92-1.92-3.827-3.84-5.734-5.773-0.538-0.55-1.050-1.126-1.613-1.664-0.909-0.883-2.202-0.922-3.021-0.128-0.832 0.819-0.832 2.099 0.013 2.97 0.794 0.819 2.099 0.832 2.931 0.026 0.218-0.205 0.397-0.448 0.589-0.678 0.179-0.205 0.333-0.243 0.55-0.026 0.819 0.832 1.651 1.651 2.458 2.496 0.077 0.090 0.090 0.358 0.013 0.461-1.549 2.15-4.48 3.098-6.95 2.291-2.65-0.87-4.39-3.213-4.416-5.926-0.038-3.226 2.022-5.76 5.21-6.298 1.984-0.333 3.814 0.166 5.286 1.587 1.946 1.894 3.84 3.827 5.747 5.76 1.37 1.382 2.726 2.79 4.109 4.173 0.294 0.294 0.358 0.525 0.166 0.909-1.958 4.109-5.056 7.002-9.318 8.589-2.227 0.832-4.557 1.075-6.938 0.794-3.072-0.358-5.824-1.472-8.23-3.418-2.88-2.342-4.749-5.325-5.568-8.934-0.947-4.186-0.307-8.179 1.92-11.827 2.778-4.506 6.835-7.078 12.096-7.629 4.186-0.435 7.936 0.742 11.238 3.277 1.958 1.498 3.456 3.392 4.518 5.632 0.141 0.282 0.205 0.525-0.051 0.819-1.523 1.728-3.034 3.456-4.531 5.21-0.269 0.307-0.435 0.333-0.704 0.038-0.755-0.781-1.523-1.549-2.304-2.317-0.256-0.243-0.243-0.422-0.026-0.678 0.794-0.896 1.549-1.83 2.355-2.714 0.307-0.346 0.269-0.563 0-0.883-1.907-2.202-4.25-3.61-7.142-4.096-0.23-0.038-0.461-0.090-0.704-0.102-0.384-0.013-0.755 0-1.139 0z"></path>
</svg>
