<!-- Generated by IcoMoon.io -->
<svg version="1.1" xmlns="http://www.w3.org/2000/svg" width="32" height="32" viewBox="0 0 32 32">
<title>COINNEST</title>
<path d="M8.776 5.644c2.469-0.395 5.065 0.113 7.182 1.453 1.679-1.030 3.64-1.623 5.616-1.58 3.048-0.014 6.053 1.439 7.972 3.81 1.171 1.425 1.961 3.175 2.243 4.995 0.395 2.483-0.155 5.108-1.51 7.224-1.312 2.046-3.358 3.64-5.686 4.36-2.413 0.776-5.108 0.593-7.407-0.451-0.423-0.169-0.79-0.451-1.227-0.621-1.298 0.72-2.695 1.298-4.176 1.467-2.37 0.325-4.84-0.226-6.871-1.496-1.58-1.002-2.907-2.413-3.753-4.078-1.016-1.947-1.383-4.233-1.030-6.392 0.437-2.822 2.102-5.446 4.501-7.026 1.242-0.861 2.667-1.411 4.148-1.665zM5.235 10.78c-1.27 1.256-2.032 2.991-2.131 4.755-0.113 1.877 0.536 3.795 1.792 5.22 1.481 1.75 3.852 2.709 6.138 2.511 1.453-0.127 2.864-0.677 3.993-1.608 1.623-1.284 2.653-3.287 2.737-5.347 0.028-0.635-0.056-1.284 0.198-1.891 0.409-1.171 1.651-2.004 2.907-1.947 0.014 1.171 0 2.342 0.014 3.499 0.014 1.016-0.155 2.004-0.437 2.977-0.395 1.369-1.129 2.582-1.961 3.711 1.665 0.72 3.598 0.847 5.333 0.254 1.665-0.55 3.118-1.721 4.007-3.245 0.988-1.651 1.27-3.697 0.776-5.559-0.451-1.735-1.552-3.287-3.048-4.275-1.171-0.776-2.554-1.213-3.951-1.213-2.018-0.056-4.035 0.804-5.404 2.272-1.383 1.425-2.116 3.443-2.032 5.418 0.042 0.762-0.226 1.524-0.734 2.088-0.578 0.691-1.481 1.016-2.356 1.044-0.014-1.157-0.014-2.3-0.014-3.457-0.014-2.102 0.635-4.219 1.848-5.94 0.198-0.268 0.367-0.536 0.55-0.804-0.959-0.381-1.975-0.649-3.005-0.621-1.947-0.028-3.866 0.79-5.22 2.159z"></path>
</svg>
