<!-- Generated by IcoMoon.io -->
<svg version="1.1" xmlns="http://www.w3.org/2000/svg" width="32" height="32" viewBox="0 0 32 32">
<title>COINFLOOR</title>
<path d="M15.718 6.166c0.31-0.042 0.663-0.014 0.945 0.127 0.141 0.071 0.268 0.226 0.212 0.381-0.071 0.169-0.24 0.254-0.409 0.31-0.31 0.085-0.663 0.085-0.974-0.014-0.127-0.042-0.254-0.113-0.325-0.24-0.071-0.099-0.056-0.24 0.014-0.31 0.127-0.155 0.339-0.226 0.536-0.254zM13.63 7.196c0.339-0.056 0.72-0.042 1.016 0.141 0.141 0.071 0.24 0.24 0.183 0.409-0.085 0.212-0.325 0.296-0.536 0.353-0.353 0.071-0.762 0.071-1.086-0.127-0.141-0.085-0.254-0.254-0.169-0.423 0.127-0.226 0.367-0.31 0.593-0.353zM17.764 7.182c0.339-0.042 0.72-0.014 1.016 0.169 0.141 0.085 0.254 0.268 0.169 0.437-0.099 0.198-0.325 0.268-0.536 0.31-0.353 0.056-0.748 0.028-1.072-0.155-0.141-0.085-0.254-0.254-0.183-0.423 0.127-0.226 0.381-0.296 0.607-0.339zM11.541 8.268c0.31-0.042 0.649-0.028 0.931 0.127 0.141 0.085 0.254 0.24 0.212 0.409-0.056 0.183-0.24 0.282-0.395 0.353-0.325 0.127-0.705 0.141-1.030 0.056-0.155-0.042-0.31-0.127-0.409-0.254-0.085-0.127-0.042-0.31 0.056-0.409 0.169-0.169 0.409-0.254 0.635-0.282zM15.718 8.268c0.353-0.042 0.748-0.014 1.044 0.198 0.141 0.099 0.226 0.282 0.141 0.451-0.113 0.183-0.325 0.282-0.536 0.325-0.367 0.085-0.79 0.056-1.115-0.155-0.155-0.085-0.268-0.268-0.183-0.451 0.141-0.24 0.409-0.325 0.649-0.367zM19.908 8.268c0.353-0.056 0.734-0.014 1.058 0.183 0.127 0.071 0.24 0.212 0.24 0.367-0.014 0.183-0.169 0.296-0.325 0.353-0.339 0.141-0.72 0.141-1.072 0.028-0.169-0.042-0.325-0.141-0.437-0.268-0.085-0.113-0.099-0.282 0-0.395 0.141-0.169 0.339-0.24 0.536-0.268zM9.227 9.425c0.282-0.042 0.578-0.028 0.832 0.085 0.155 0.071 0.296 0.198 0.31 0.367 0.014 0.183-0.127 0.325-0.268 0.423-0.31 0.198-0.705 0.24-1.072 0.198-0.212-0.028-0.437-0.099-0.564-0.268-0.099-0.127-0.085-0.31 0.014-0.423 0.183-0.24 0.48-0.339 0.748-0.381zM13.545 9.425c0.325-0.042 0.677-0.014 0.959 0.141 0.127 0.071 0.254 0.198 0.254 0.367 0.014 0.169-0.113 0.296-0.24 0.381-0.31 0.198-0.72 0.24-1.072 0.169-0.226-0.042-0.466-0.127-0.593-0.339-0.085-0.127-0.042-0.31 0.056-0.423 0.169-0.169 0.409-0.254 0.635-0.296zM17.905 9.425c0.353-0.056 0.734 0 1.044 0.198 0.169 0.099 0.282 0.31 0.198 0.494-0.127 0.24-0.395 0.325-0.635 0.367-0.381 0.042-0.79 0.014-1.101-0.212-0.155-0.099-0.254-0.31-0.155-0.48 0.127-0.24 0.409-0.325 0.649-0.367zM22.222 9.425c0.353-0.056 0.72 0 1.030 0.155 0.155 0.085 0.325 0.24 0.325 0.437 0 0.169-0.127 0.282-0.268 0.367-0.282 0.141-0.621 0.155-0.931 0.099-0.24-0.042-0.494-0.141-0.677-0.339-0.113-0.127-0.127-0.325-0.014-0.466 0.141-0.141 0.339-0.212 0.536-0.254zM6.688 10.667c0.31-0.042 0.635-0.042 0.917 0.099 0.155 0.071 0.296 0.226 0.282 0.409-0.014 0.198-0.155 0.339-0.31 0.437-0.339 0.212-0.748 0.268-1.143 0.212-0.212-0.042-0.452-0.127-0.564-0.339-0.085-0.169 0-0.367 0.127-0.48 0.198-0.183 0.437-0.282 0.691-0.339zM11.189 10.667c0.381-0.056 0.804-0.028 1.115 0.212 0.141 0.113 0.198 0.339 0.099 0.494-0.113 0.198-0.339 0.31-0.564 0.381-0.325 0.085-0.677 0.099-0.988-0.014-0.169-0.056-0.339-0.155-0.409-0.325-0.056-0.141-0.014-0.296 0.071-0.409 0.183-0.183 0.437-0.282 0.677-0.339zM15.69 10.667c0.367-0.056 0.748-0.028 1.072 0.169 0.141 0.085 0.268 0.24 0.254 0.423 0 0.198-0.155 0.325-0.31 0.409-0.353 0.183-0.762 0.198-1.143 0.099-0.198-0.056-0.395-0.155-0.508-0.339-0.085-0.127-0.071-0.296 0.014-0.423 0.141-0.183 0.381-0.282 0.621-0.339zM20.176 10.667c0.395-0.056 0.818-0.014 1.157 0.212 0.141 0.099 0.254 0.24 0.24 0.423-0.014 0.212-0.198 0.339-0.381 0.423-0.367 0.141-0.776 0.127-1.157 0-0.183-0.071-0.381-0.183-0.48-0.381-0.071-0.141-0.028-0.31 0.071-0.423 0.155-0.141 0.367-0.212 0.55-0.254zM24.677 10.667c0.395-0.056 0.818-0.014 1.171 0.198 0.169 0.113 0.353 0.296 0.31 0.522-0.056 0.24-0.31 0.353-0.522 0.409-0.409 0.085-0.861 0.014-1.213-0.198-0.183-0.113-0.367-0.325-0.282-0.55 0.056-0.226 0.31-0.325 0.536-0.381zM4.021 12.007c0.31-0.042 0.635-0.042 0.917 0.085 0.155 0.085 0.296 0.226 0.282 0.409 0 0.212-0.155 0.367-0.31 0.48-0.353 0.24-0.79 0.31-1.199 0.254-0.212-0.028-0.423-0.113-0.55-0.282-0.113-0.155-0.085-0.367 0.028-0.494 0.198-0.254 0.522-0.381 0.832-0.451zM8.691 12.007c0.353-0.056 0.734-0.042 1.030 0.155 0.155 0.099 0.254 0.282 0.212 0.48-0.056 0.24-0.296 0.395-0.508 0.494-0.367 0.141-0.776 0.169-1.157 0.042-0.183-0.071-0.367-0.183-0.423-0.367s0.042-0.381 0.169-0.494c0.198-0.169 0.437-0.268 0.677-0.31zM13.362 12.007c0.353-0.056 0.72-0.014 1.030 0.155 0.183 0.113 0.325 0.31 0.268 0.522-0.056 0.226-0.268 0.367-0.48 0.451-0.325 0.127-0.705 0.155-1.044 0.056-0.212-0.056-0.409-0.169-0.522-0.339-0.099-0.155-0.071-0.353 0.042-0.494 0.183-0.198 0.451-0.31 0.705-0.353zM18.046 12.007c0.353-0.056 0.748-0.014 1.058 0.183 0.169 0.099 0.31 0.254 0.325 0.466 0 0.183-0.127 0.325-0.268 0.423-0.31 0.183-0.691 0.226-1.030 0.169-0.254-0.042-0.522-0.141-0.705-0.353-0.127-0.141-0.141-0.395-0.014-0.536 0.141-0.226 0.395-0.31 0.635-0.353zM22.674 12.007c0.381-0.071 0.79-0.014 1.143 0.183 0.169 0.099 0.325 0.24 0.353 0.451 0.014 0.198-0.113 0.367-0.268 0.451-0.325 0.198-0.734 0.198-1.101 0.113-0.254-0.056-0.508-0.183-0.663-0.395-0.099-0.141-0.113-0.367 0-0.508 0.113-0.169 0.325-0.254 0.536-0.296zM27.344 12.007c0.409-0.056 0.847 0 1.199 0.226 0.169 0.113 0.339 0.254 0.367 0.466 0.014 0.183-0.113 0.353-0.268 0.437-0.282 0.155-0.621 0.155-0.931 0.113-0.282-0.056-0.564-0.169-0.776-0.381-0.127-0.127-0.226-0.325-0.127-0.508 0.099-0.226 0.325-0.31 0.536-0.353zM1.030 13.474c0.31-0.071 0.649-0.085 0.959 0.028 0.183 0.071 0.367 0.226 0.367 0.437 0.014 0.226-0.155 0.409-0.31 0.536-0.325 0.24-0.748 0.339-1.157 0.325-0.24-0.014-0.508-0.085-0.677-0.268-0.141-0.155-0.113-0.395 0-0.55 0.183-0.282 0.508-0.437 0.818-0.508zM5.884 13.474c0.353-0.071 0.72-0.085 1.044 0.071 0.169 0.085 0.324 0.24 0.324 0.437 0.014 0.212-0.141 0.395-0.296 0.508-0.353 0.254-0.832 0.353-1.256 0.268-0.24-0.042-0.494-0.141-0.607-0.367-0.085-0.183-0.028-0.395 0.085-0.522 0.183-0.212 0.452-0.339 0.705-0.395zM10.737 13.474c0.367-0.085 0.762-0.071 1.101 0.099 0.183 0.099 0.339 0.268 0.339 0.48 0 0.24-0.183 0.409-0.367 0.522-0.325 0.198-0.72 0.24-1.086 0.198-0.24-0.042-0.48-0.141-0.649-0.339-0.127-0.155-0.127-0.409 0-0.564 0.155-0.212 0.409-0.339 0.663-0.395zM15.591 13.46c0.367-0.085 0.762-0.056 1.101 0.113 0.169 0.085 0.325 0.226 0.381 0.409 0.042 0.169-0.014 0.353-0.141 0.48-0.212 0.226-0.536 0.31-0.832 0.325-0.339 0.014-0.705-0.042-0.974-0.268-0.169-0.127-0.268-0.353-0.198-0.564 0.099-0.268 0.395-0.423 0.663-0.494zM20.473 13.46c0.423-0.085 0.889-0.028 1.242 0.212 0.155 0.113 0.296 0.282 0.296 0.48 0 0.183-0.113 0.339-0.268 0.437-0.31 0.198-0.691 0.24-1.044 0.169-0.268-0.042-0.522-0.155-0.72-0.353-0.141-0.141-0.212-0.367-0.113-0.55 0.113-0.226 0.367-0.339 0.607-0.395zM25.256 13.474c0.395-0.099 0.818-0.056 1.185 0.113 0.183 0.085 0.353 0.212 0.451 0.395 0.085 0.155 0.085 0.339-0.014 0.48-0.141 0.183-0.367 0.268-0.593 0.31-0.437 0.056-0.903-0.028-1.256-0.282-0.183-0.127-0.339-0.353-0.282-0.593 0.056-0.226 0.282-0.367 0.508-0.423zM30.095 13.474c0.409-0.099 0.861-0.042 1.242 0.141 0.226 0.113 0.437 0.268 0.522 0.508 0.056 0.155 0 0.339-0.127 0.451-0.169 0.155-0.409 0.212-0.635 0.226-0.423 0.014-0.847-0.099-1.185-0.353-0.169-0.127-0.31-0.325-0.282-0.55 0.042-0.24 0.268-0.381 0.466-0.423zM3.175 14.984c0.296-0.028 0.607-0.014 0.875 0.113 0.183 0.085 0.324 0.268 0.31 0.48-0.014 0.24-0.169 0.423-0.339 0.55-0.325 0.24-0.734 0.339-1.129 0.325-0.282-0.014-0.593-0.085-0.762-0.325-0.141-0.183-0.085-0.466 0.056-0.635 0.226-0.296 0.621-0.451 0.988-0.508zM8.155 14.984c0.339-0.042 0.705-0.028 1.002 0.155 0.169 0.099 0.31 0.282 0.296 0.48 0 0.24-0.183 0.452-0.381 0.578-0.395 0.24-0.875 0.31-1.326 0.198-0.226-0.071-0.466-0.198-0.55-0.423-0.085-0.212 0-0.451 0.141-0.593 0.24-0.212 0.522-0.339 0.818-0.395zM13.192 14.984c0.353-0.056 0.72-0.014 1.030 0.155 0.198 0.113 0.353 0.296 0.353 0.522 0.014 0.226-0.141 0.423-0.325 0.55-0.31 0.212-0.705 0.268-1.072 0.226-0.282-0.042-0.578-0.141-0.762-0.381-0.141-0.169-0.155-0.423-0.028-0.607 0.169-0.268 0.494-0.409 0.804-0.466zM18.215 14.984c0.381-0.056 0.79-0.014 1.129 0.198 0.198 0.127 0.367 0.325 0.353 0.564-0.014 0.254-0.226 0.466-0.451 0.564-0.494 0.226-1.115 0.183-1.566-0.141-0.198-0.155-0.339-0.423-0.24-0.677 0.141-0.296 0.466-0.451 0.776-0.508zM23.252 14.984c0.423-0.071 0.875 0 1.227 0.254 0.169 0.113 0.31 0.296 0.339 0.494 0.014 0.183-0.071 0.353-0.212 0.466-0.226 0.183-0.522 0.24-0.804 0.24-0.381 0-0.776-0.127-1.058-0.395-0.169-0.169-0.268-0.423-0.169-0.649 0.127-0.226 0.409-0.353 0.677-0.409zM28.275 14.984c0.451-0.071 0.917 0.014 1.284 0.268 0.183 0.127 0.353 0.31 0.395 0.536 0.028 0.183-0.071 0.353-0.226 0.466-0.198 0.141-0.451 0.198-0.691 0.198-0.409 0-0.832-0.127-1.157-0.395-0.183-0.155-0.31-0.409-0.24-0.649 0.113-0.24 0.395-0.367 0.635-0.423zM5.178 16.677c0.325-0.056 0.691-0.042 0.988 0.113 0.169 0.085 0.31 0.24 0.339 0.437 0.042 0.226-0.071 0.451-0.226 0.593-0.324 0.31-0.776 0.451-1.213 0.437-0.31-0.014-0.663-0.099-0.847-0.367-0.141-0.198-0.127-0.48 0.014-0.663 0.212-0.31 0.578-0.48 0.945-0.55zM10.427 16.677c0.353-0.056 0.734-0.028 1.058 0.141 0.198 0.113 0.367 0.31 0.367 0.536 0.014 0.254-0.155 0.494-0.367 0.635-0.395 0.268-0.917 0.339-1.383 0.212-0.226-0.071-0.451-0.198-0.564-0.409s-0.071-0.466 0.071-0.649c0.183-0.268 0.508-0.409 0.818-0.466zM15.675 16.677c0.423-0.071 0.875-0.014 1.213 0.24 0.198 0.141 0.325 0.381 0.282 0.621-0.028 0.226-0.198 0.395-0.381 0.508-0.353 0.212-0.79 0.254-1.185 0.169-0.282-0.071-0.55-0.212-0.705-0.466-0.127-0.198-0.113-0.466 0.014-0.649 0.183-0.24 0.48-0.367 0.762-0.423zM20.882 16.677c0.409-0.085 0.832-0.028 1.199 0.183 0.212 0.127 0.381 0.31 0.437 0.536 0.042 0.212-0.042 0.423-0.198 0.564-0.24 0.226-0.593 0.296-0.917 0.296-0.395 0-0.804-0.141-1.072-0.437-0.155-0.169-0.24-0.437-0.141-0.649 0.113-0.282 0.409-0.437 0.691-0.494zM26.145 16.677c0.48-0.085 0.988 0.014 1.383 0.31 0.169 0.127 0.31 0.296 0.339 0.508 0.042 0.198-0.056 0.409-0.212 0.522-0.226 0.183-0.508 0.24-0.776 0.24-0.423 0-0.847-0.141-1.157-0.423-0.198-0.169-0.325-0.437-0.24-0.691 0.113-0.268 0.395-0.409 0.663-0.466zM7.45 18.511c0.353-0.056 0.734-0.042 1.058 0.127 0.198 0.113 0.367 0.31 0.381 0.536 0.014 0.282-0.155 0.536-0.367 0.705-0.409 0.31-0.959 0.423-1.467 0.296-0.24-0.056-0.452-0.198-0.578-0.395-0.141-0.212-0.099-0.508 0.042-0.72 0.198-0.296 0.564-0.494 0.931-0.55zM12.966 18.497c0.381-0.056 0.804-0.014 1.129 0.212 0.198 0.127 0.339 0.325 0.353 0.564s-0.113 0.48-0.296 0.621c-0.367 0.296-0.875 0.395-1.326 0.296-0.282-0.056-0.578-0.198-0.734-0.451-0.155-0.24-0.141-0.55 0.028-0.776 0.198-0.254 0.522-0.409 0.847-0.466zM18.384 18.497c0.409-0.071 0.861-0.014 1.213 0.212 0.212 0.141 0.395 0.353 0.423 0.607 0.028 0.24-0.099 0.48-0.296 0.635-0.282 0.226-0.649 0.296-0.988 0.268-0.395-0.014-0.79-0.169-1.044-0.494-0.169-0.226-0.198-0.55-0.042-0.776 0.169-0.254 0.451-0.395 0.734-0.451zM23.944 18.483c0.451-0.056 0.931 0.042 1.298 0.325 0.183 0.141 0.339 0.353 0.367 0.593 0.014 0.226-0.099 0.451-0.282 0.578-0.296 0.226-0.677 0.268-1.030 0.226-0.409-0.056-0.804-0.24-1.044-0.564-0.169-0.226-0.198-0.55-0.014-0.776 0.155-0.226 0.437-0.339 0.705-0.381zM9.891 20.501c0.395-0.071 0.832-0.042 1.171 0.169 0.226 0.141 0.395 0.381 0.395 0.663 0 0.325-0.212 0.621-0.48 0.79-0.494 0.325-1.185 0.381-1.707 0.071-0.282-0.169-0.48-0.522-0.395-0.861 0.141-0.451 0.593-0.734 1.016-0.832zM15.675 20.487c0.395-0.056 0.818-0.014 1.171 0.198 0.254 0.155 0.451 0.423 0.466 0.72 0 0.339-0.226 0.621-0.494 0.776-0.536 0.296-1.242 0.268-1.721-0.099-0.268-0.198-0.451-0.564-0.325-0.889 0.099-0.395 0.508-0.635 0.903-0.705zM21.333 20.501c0.395-0.085 0.832-0.042 1.185 0.155 0.24 0.127 0.466 0.325 0.564 0.593 0.085 0.24 0.042 0.508-0.113 0.72-0.226 0.282-0.593 0.409-0.959 0.423-0.48 0.014-1.002-0.155-1.312-0.55-0.183-0.226-0.24-0.55-0.099-0.818 0.141-0.296 0.437-0.451 0.734-0.522zM12.614 22.688c0.409-0.099 0.847-0.042 1.199 0.169 0.24 0.155 0.451 0.409 0.48 0.705 0.042 0.339-0.141 0.677-0.423 0.875-0.536 0.423-1.383 0.451-1.919 0.028-0.296-0.212-0.451-0.607-0.339-0.959 0.141-0.437 0.564-0.72 1.002-0.818zM18.653 22.674c0.48-0.099 1.002 0 1.383 0.325 0.212 0.183 0.381 0.437 0.381 0.72 0.014 0.339-0.198 0.649-0.48 0.818-0.593 0.353-1.411 0.268-1.919-0.198-0.268-0.24-0.409-0.635-0.268-0.988 0.127-0.367 0.522-0.607 0.903-0.677zM15.633 25.072c0.635-0.141 1.411 0.099 1.707 0.72 0.169 0.353 0.085 0.79-0.169 1.086-0.48 0.55-1.369 0.649-1.989 0.282-0.282-0.155-0.508-0.437-0.578-0.748-0.071-0.296 0.014-0.621 0.226-0.847 0.183-0.268 0.48-0.423 0.804-0.494z"></path>
</svg>
