<!-- Generated by IcoMoon.io -->
<svg version="1.1" xmlns="http://www.w3.org/2000/svg" width="32" height="32" viewBox="0 0 32 32">
<title>COINSECURE</title>
<path d="M2.54 25.721c0.931-0.325 1.806-0.762 2.638-1.355-0.212-0.268-0.409-0.522-0.607-0.79-0.804-1.072-1.425-2.243-1.82-3.527-0.212-0.677-0.409-1.355-0.508-2.060-0.113-0.861-0.141-1.721-0.127-2.582 0-0.635 0.099-1.284 0.212-1.905 0.141-0.847 0.409-1.665 0.748-2.455 0.494-1.185 1.143-2.272 1.961-3.245 0.113-0.141 0.141-0.226-0.042-0.353-0.734-0.48-1.51-0.875-2.328-1.171-0.028-0.014-0.071-0.028-0.127-0.056 0.056-0.099 0.113-0.183 0.169-0.268 1.369-1.651 2.991-2.977 4.882-3.979 1.002-0.522 2.046-0.931 3.132-1.242 0.988-0.254 1.989-0.452 3.019-0.494 0.832-0.028 1.651-0.028 2.483 0.028 0.705 0.042 1.411 0.141 2.102 0.31 0.875 0.212 1.735 0.48 2.582 0.818 2.018 0.804 3.767 2.004 5.277 3.556 1.679 1.735 2.935 3.739 3.683 6.053 0.113 0.353 0.212 0.691 0.325 1.044 0.042 0.155 0.014 0.254-0.183 0.254-1.778 0-3.556 0-5.333 0-0.169 0-0.226-0.099-0.268-0.212-0.381-0.945-0.903-1.82-1.552-2.61-1.27-1.51-2.808-2.582-4.656-3.231-1.425-0.494-2.878-0.635-4.346-0.494-1.891 0.169-3.598 0.861-5.122 2.004-1.51 1.143-2.624 2.582-3.344 4.332-0.367 0.889-0.578 1.806-0.705 2.765-0.113 0.875-0.085 1.735 0.042 2.596 0.169 1.185 0.536 2.314 1.115 3.372 1.34 2.441 3.316 4.092 5.968 4.952 0.931 0.296 1.891 0.451 2.864 0.466 2.399 0.042 4.571-0.663 6.476-2.131 1.453-1.115 2.526-2.526 3.217-4.219 0.071-0.169 0.169-0.226 0.353-0.226 1.735 0.014 3.471 0 5.206 0 0.254 0 0.296 0.042 0.24 0.268-0.296 1.115-0.691 2.201-1.227 3.231-0.945 1.82-2.187 3.414-3.739 4.769-1.481 1.27-3.118 2.258-4.952 2.907-0.818 0.282-1.679 0.48-2.526 0.677-1.227 0.282-2.483 0.325-3.739 0.254-0.79-0.042-1.566-0.183-2.342-0.325-1.425-0.268-2.765-0.776-4.049-1.439-1.919-1.044-3.541-2.384-4.91-4.049-0.042-0.042-0.071-0.099-0.099-0.141-0.028-0.028-0.028-0.042-0.042-0.099zM7.012 8.889c0.423-0.395 0.762-0.748 1.129-1.058 1.679-1.369 3.598-2.173 5.757-2.384 1.27-0.127 2.511 0 3.725 0.324 1.143 0.296 2.215 0.79 3.189 1.481 0.127 0.099 0.212 0.056 0.325-0.042 0.381-0.367 0.762-0.734 1.157-1.101 0.028-0.028 0.056-0.071 0.113-0.141-0.339-0.226-0.677-0.466-1.016-0.677-1.594-0.988-3.33-1.58-5.178-1.764-1.369-0.141-2.723-0.071-4.078 0.24-1.058 0.24-2.074 0.607-3.034 1.115-1.228 0.635-2.328 1.481-3.287 2.497-0.113 0.127-0.127 0.198 0.014 0.31 0.353 0.296 0.691 0.607 1.030 0.931 0.071 0.071 0.113 0.183 0.155 0.268zM22.406 25.989c-0.056-0.071-0.099-0.113-0.127-0.141-0.353-0.339-0.72-0.663-1.072-1.030-0.169-0.169-0.268-0.169-0.466-0.042-1.623 1.101-3.429 1.665-5.376 1.778-1.101 0.071-2.201-0.071-3.259-0.367-1.679-0.466-3.175-1.284-4.444-2.497-0.198-0.183-0.381-0.395-0.578-0.593-0.071 0.071-0.127 0.113-0.169 0.155-0.353 0.325-0.705 0.649-1.058 0.974-0.212 0.183-0.212 0.183-0.014 0.395 0.734 0.776 1.552 1.439 2.469 2.004 1.735 1.058 3.612 1.679 5.644 1.834 1.453 0.113 2.864-0.028 4.261-0.409 1.213-0.325 2.342-0.847 3.4-1.51 0.268-0.169 0.522-0.367 0.79-0.55zM6.843 22.871c-0.042-0.071-0.071-0.099-0.085-0.127-0.367-0.55-0.776-1.086-1.115-1.651-0.621-1.058-1.016-2.215-1.185-3.429-0.099-0.705-0.099-1.425-0.113-2.145-0.014-1.058 0.226-2.088 0.578-3.090 0.409-1.157 1.002-2.201 1.778-3.146 0.113-0.141 0.113-0.226-0.014-0.353-0.367-0.339-0.734-0.677-1.101-1.016-0.113-0.099-0.198-0.113-0.296 0.014-0.452 0.677-0.959 1.312-1.354 2.018-0.832 1.481-1.298 3.048-1.467 4.713-0.169 1.623-0.028 3.217 0.409 4.783 0.381 1.326 0.959 2.554 1.75 3.683 0.24 0.339 0.508 0.677 0.804 1.058 0.494-0.451 0.945-0.889 1.411-1.312z"></path>
</svg>
