<!-- Generated by IcoMoon.io -->
<svg version="1.1" xmlns="http://www.w3.org/2000/svg" width="32" height="32" viewBox="0 0 32 32">
<title>COINGI</title>
<path d="M0 21.503c0.099-0.494 0.169-0.988 0.282-1.481 0.522-2.328 1.862-4.12 3.739-5.545 2.3-1.735 4.91-2.61 7.788-2.737 0.451-0.014 0.903-0.028 1.354-0.028 0.325-0.014 0.466 0.127 0.451 0.48-0.028 0.621 0 1.256 0 1.877 0 0.55 0 0.536-0.55 0.578-1.778 0.099-3.513 0.423-5.164 1.115-1.496 0.621-2.836 1.481-3.824 2.794-1.75 2.314-2.032 4.811-0.832 7.436 1.058 2.314 2.935 3.767 5.22 4.769 1.213 0.536 2.469 0.917 3.795 1.072 0.056 0 0.113 0.042 0.169 0.056 0 0.042-0.014 0.085-0.014 0.127-0.635-0.056-1.284-0.056-1.919-0.155-1.848-0.282-3.612-0.818-5.22-1.792-2.201-1.326-3.922-3.062-4.755-5.545-0.212-0.635-0.296-1.326-0.437-1.975-0.028-0.099-0.056-0.198-0.085-0.31 0-0.254 0-0.494 0-0.734z"></path>
<path d="M31.972 12.317c-0.042 0.099-0.113 0.183-0.141 0.282-0.903 2.667-2.737 4.529-5.15 5.841-1.961 1.072-4.064 1.637-6.293 1.707-0.437 0.014-0.875 0-1.312 0.014-0.296 0-0.381-0.141-0.381-0.423 0.014-0.663 0-1.326 0-2.004 0-0.451 0.056-0.494 0.508-0.522 1.439-0.071 2.864-0.282 4.233-0.734 1.75-0.564 3.316-1.439 4.557-2.836 1.862-2.088 2.314-5.122 1.143-7.647-1.115-2.399-3.005-3.937-5.39-4.91-0.988-0.381-2.018-0.621-3.034-0.917-0.113-0.042-0.226-0.113-0.339-0.169 0.536 0 1.072 0 1.594 0 0.099 0.028 0.198 0.085 0.296 0.099 2.201 0.423 4.247 1.213 6.039 2.582 1.58 1.228 2.794 2.723 3.457 4.642 0.056 0.155 0.127 0.282 0.198 0.437 0.014 1.51 0.014 3.033 0.014 4.557z"></path>
<path d="M31.972 16.945c-0.085 0.395-0.155 0.804-0.254 1.199-0.508 2.187-1.735 3.894-3.485 5.235-1.891 1.453-4.021 2.272-6.392 2.455-0.945 0.085-1.905 0.014-2.864 0.014-0.226 0-0.296-0.099-0.296-0.325 0-0.691 0.014-1.383 0-2.074 0-0.282 0.113-0.367 0.381-0.353 0.818 0.014 1.651 0.071 2.469 0 3.838-0.353 7.012-1.877 9.143-5.22 0.48-0.748 0.832-1.552 1.002-2.427 0.014-0.099 0.071-0.183 0.127-0.367 0.071 0.268 0.127 0.451 0.169 0.649 0 0.409 0 0.818 0 1.213z"></path>
<path d="M31.972 22.942c-0.085 0.409-0.155 0.832-0.254 1.242-0.48 2.102-1.665 3.753-3.302 5.093-1.961 1.594-4.261 2.399-6.744 2.653-0.832 0.085-1.679 0.014-2.511 0.014-0.339 0-0.494-0.155-0.48-0.522 0.028-0.635 0.014-1.284 0-1.919 0-0.325 0.113-0.409 0.437-0.381 3.344 0.31 6.406-0.437 9.101-2.469 1.75-1.326 2.963-3.048 3.471-5.206 0.014-0.085 0.042-0.169 0.099-0.353 0.085 0.31 0.127 0.508 0.183 0.72 0 0.381 0 0.762 0 1.129z"></path>
<path d="M13.587 0c0 0.804 0.014 1.594 0.028 2.399 0.014 0.381-0.24 0.353-0.494 0.325-1.129-0.141-2.258-0.071-3.372 0.113-3.33 0.578-6.109 2.046-8.014 4.938-0.578 0.889-0.959 1.862-1.185 2.892-0.042 0-0.085 0-0.127-0.014 0-0.663-0.056-1.312 0.014-1.961 0.268-2.582 1.566-4.586 3.57-6.18 1.594-1.27 3.443-1.989 5.418-2.413 0.085-0.014 0.169-0.071 0.254-0.099 1.298 0 2.61 0 3.908 0z"></path>
<path d="M0.48 16.663c-0.155-0.663-0.127-1.354-0.042-2.032 0.31-2.582 1.637-4.571 3.654-6.138 1.891-1.467 4.063-2.258 6.42-2.469 0.917-0.085 1.848-0.014 2.78-0.014 0.24 0 0.325 0.113 0.325 0.353 0 0.691-0.014 1.383 0 2.074 0 0.282-0.099 0.353-0.381 0.325-1.989-0.183-3.937 0.028-5.813 0.705-2.596 0.931-4.698 2.483-6.011 4.952-0.395 0.705-0.635 1.481-0.931 2.243z"></path>
</svg>
