<!-- Generated by IcoMoon.io -->
<svg version="1.1" xmlns="http://www.w3.org/2000/svg" width="32" height="32" viewBox="0 0 32 32">
<title>COINONE</title>
<path d="M13.263 0.254c3.767-0.691 7.746 0.085 11.019 2.046 3.231 1.919 5.757 5.023 6.942 8.607-0.663 0.832-1.256 1.707-1.891 2.554-0.635 0.832-1.227 1.707-1.877 2.54 1.256 1.693 2.497 3.414 3.767 5.108-1.75 5.333-6.533 9.524-12.064 10.568-3.81 0.762-7.887 0.099-11.231-1.891-3.344-1.947-5.94-5.136-7.139-8.818-0.028-0.099-0.099-0.31-0.127-0.409-0.635-2.131-0.818-4.388-0.536-6.589 0.014-0.113 0.042-0.367 0.056-0.494 0.607-3.781 2.638-7.323 5.601-9.75 1.538-1.298 3.33-2.272 5.235-2.921 0.734-0.24 1.481-0.423 2.243-0.55zM12.12 7.69c-2.427 1.129-4.317 3.358-4.981 5.94h-0.028c-0.042 0.198-0.085 0.381-0.127 0.578-0.409 2.074-0.085 4.303 0.931 6.152 0.141 0.226 0.268 0.466 0.409 0.691h0.014c1.806 2.822 5.263 4.444 8.593 4.092 2.751-0.226 5.249-1.877 6.787-4.12h0.014c1.227-1.679 2.455-3.344 3.697-5.023-0.578-0.804-1.185-1.608-1.764-2.427h-0.042c-1.397-1.877-2.624-3.993-4.642-5.291-2.554-1.735-6.067-1.919-8.861-0.593z"></path>
</svg>
