<!-- Generated by IcoMoon.io -->
<svg version="1.1" xmlns="http://www.w3.org/2000/svg" width="32" height="32" viewBox="0 0 32 32">
<title>COLX</title>
<path d="M11.725 22.448c-2.074 0-4.148 0.056-6.208-0.028-0.55-0.028-1.157-0.381-1.623-0.734-2.328-1.735-2.921-4.092-2.709-6.942 0.254-3.429 0.155-6.871 0.212-10.314 0-0.099 0-0.198 0.014-0.296 0.127-1.312 3.132-4.078 4.43-4.092 4.049-0.014 8.085 0 12.134-0.028 0.734 0 1.27 0.212 1.735 0.776 0.677 0.818 1.467 1.566 2.102 2.427 0.296 0.409 0.466 1.044 0.395 1.524-0.028 0.212-0.79 0.381-1.242 0.466-1.157 0.212-2.046-0.198-2.78-1.143-0.254-0.325-0.832-0.564-1.27-0.564-3.372-0.056-6.744-0.042-10.116-0.042-1.199 0-2.272 0.974-2.286 2.173-0.042 3.81-0.042 7.619-0.014 11.429 0 1.086 1.002 2.004 2.074 2.004 3.414 0 6.815-0.042 10.229 0 0.931 0.014 1.369-0.55 1.877-1.129 0.522-0.593 2.624-0.945 3.245-0.494 0.607 0.451 0.536 1.086 0.113 1.58-0.903 1.072-1.848 2.116-2.85 3.090-0.268 0.254-0.79 0.339-1.199 0.339-2.074 0.028-4.148 0.014-6.208 0.014-0.056 0-0.056-0.014-0.056-0.014z"></path>
<path d="M30.73 20.713c0 2.243 0.028 4.473-0.028 6.716-0.014 0.48-0.339 0.959-0.522 1.439-0.014 0.028-0.042 0.042-0.071 0.071-1.552 2.427-3.683 3.259-6.589 3.005-3.118-0.282-6.279-0.028-9.411-0.113-0.593-0.014-1.27-0.353-1.721-0.748-0.79-0.705-1.496-1.538-2.116-2.399-0.282-0.381-0.381-0.974-0.339-1.453 0.014-0.155 0.691-0.325 1.086-0.381 1.129-0.169 2.074 0.113 2.822 1.072 0.24 0.31 0.79 0.508 1.213 0.508 3.443 0.028 6.885 0.014 10.328 0 1.058 0 2.046-0.945 2.060-2.018 0.028-3.838 0.028-7.69 0-11.527 0-1.030-1.058-2.004-2.088-2.004-3.273-0.014-6.547 0.014-9.82-0.042-0.931-0.014-1.58 0.254-2.116 1.016-0.522 0.72-2.511 1.171-3.175 0.621-0.282-0.24-0.409-1.143-0.198-1.439 0.79-1.115 1.735-2.116 2.681-3.104 0.212-0.226 0.663-0.296 1.016-0.31 4.374-0.042 8.748-0.056 13.136-0.042 0.353 0 0.691 0.282 1.044 0.451 0.056 0.028 0.085 0.113 0.127 0.155 2.427 1.792 3.076 4.247 2.723 7.125-0.169 1.115-0.042 2.272-0.042 3.4z"></path>
</svg>
