<?xml version="1.0" encoding="utf-8"?>
<!-- Generator: Adobe Illustrator 22.1.0, SVG Export Plug-In . SVG Version: 6.00 Build 0)  -->
<svg version="1.1" id="Layer_1" xmlns="http://www.w3.org/2000/svg" xmlns:xlink="http://www.w3.org/1999/xlink" x="0px" y="0px"
	 viewBox="0 0 226.8 226.8" style="enable-background:new 0 0 226.8 226.8;" xml:space="preserve">
<g>
	<path d="M83.1,159.1c-14.7,0-29.4,0.4-44-0.2c-3.9-0.2-8.2-2.7-11.5-5.2c-16.5-12.3-20.7-29-19.2-49.2c1.8-24.3,1.1-48.7,1.5-73.1
		c0-0.7,0-1.4,0.1-2.1c0.9-9.3,22.2-28.9,31.4-29c28.7-0.1,57.3,0,86-0.2c5.2,0,9,1.5,12.3,5.5c4.8,5.8,10.4,11.1,14.9,17.2
		c2.1,2.9,3.3,7.4,2.8,10.8c-0.2,1.5-5.6,2.7-8.8,3.3c-8.2,1.5-14.5-1.4-19.7-8.1c-1.8-2.3-5.9-4-9-4c-23.9-0.4-47.8-0.3-71.7-0.3
		c-8.5,0-16.1,6.9-16.2,15.4c-0.3,27-0.3,54-0.1,81c0,7.7,7.1,14.2,14.7,14.2c24.2,0,48.3-0.3,72.5,0c6.6,0.1,9.7-3.9,13.3-8
		c3.7-4.2,18.6-6.7,23-3.5c4.3,3.2,3.8,7.7,0.8,11.2c-6.4,7.6-13.1,15-20.2,21.9c-1.9,1.8-5.6,2.4-8.5,2.4
		c-14.7,0.2-29.4,0.1-44,0.1C83.1,159.2,83.1,159.1,83.1,159.1z"/>
	<path d="M217.8,146.8c0,15.9,0.2,31.7-0.2,47.6c-0.1,3.4-2.4,6.8-3.7,10.2c-0.1,0.2-0.3,0.3-0.5,0.5c-11,17.2-26.1,23.1-46.7,21.3
		c-22.1-2-44.5-0.2-66.7-0.8c-4.2-0.1-9-2.5-12.2-5.3c-5.6-5-10.6-10.9-15-17c-2-2.7-2.7-6.9-2.4-10.3c0.1-1.1,4.9-2.3,7.7-2.7
		c8-1.2,14.7,0.8,20,7.6c1.7,2.2,5.6,3.6,8.6,3.6c24.4,0.2,48.8,0.1,73.2,0c7.5,0,14.5-6.7,14.6-14.3c0.2-27.2,0.2-54.5,0-81.7
		c0-7.3-7.5-14.2-14.8-14.2c-23.2-0.1-46.4,0.1-69.6-0.3c-6.6-0.1-11.2,1.8-15,7.2c-3.7,5.1-17.8,8.3-22.5,4.4
		c-2-1.7-2.9-8.1-1.4-10.2c5.6-7.9,12.3-15,19-22c1.5-1.6,4.7-2.1,7.2-2.2c31-0.3,62-0.4,93.1-0.3c2.5,0,4.9,2,7.4,3.2
		c0.4,0.2,0.6,0.8,0.9,1.1c17.2,12.7,21.8,30.1,19.3,50.5C216.9,130.6,217.8,138.8,217.8,146.8z"/>
</g>
</svg>
