<!-- Generated by IcoMoon.io -->
<svg version="1.1" xmlns="http://www.w3.org/2000/svg" width="32" height="32" viewBox="0 0 32 32">
<title>COPAY</title>
<path d="M8.576 16.96c-0.435 0.627-0.96 1.126-1.574 1.536-1.254 0.819-2.611 1.267-4.122 1.216-1.344-0.038-2.266-0.819-2.522-2.15-0.23-1.178-0.051-2.304 0.358-3.405 0.486-1.318 1.203-2.496 2.33-3.379 0.781-0.627 1.638-1.101 2.637-1.28 0.653-0.115 1.318-0.141 1.958 0.051 0.384 0.115 0.717 0.307 0.922 0.666 0.282 0.499 0.205 0.998-0.090 1.459-0.384 0.627-0.973 0.986-1.702 1.088-0.090 0.013-0.179 0.013-0.256-0.013-0.41-0.077-0.55-0.346-0.384-0.73 0.038-0.090 0.077-0.102 0.166-0.102 0.653 0.077 1.382-0.461 1.485-1.088 0.064-0.384-0.064-0.858-0.64-0.922-0.499-0.051-0.973 0.051-1.421 0.23-1.139 0.435-1.984 1.229-2.662 2.202-0.678 0.986-1.114 2.074-1.242 3.264-0.077 0.678-0.051 1.357 0.154 2.022 0.282 0.934 0.973 1.421 1.946 1.395 1.037-0.026 1.894-0.474 2.701-1.075 0.794-0.589 1.37-1.382 1.856-2.214 0.218-0.371 0.422-0.755 0.627-1.126 0.358-0.627 0.819-1.178 1.485-1.498 0.397-0.192 0.832-0.282 1.267-0.243 0.691 0.038 1.139 0.448 1.306 1.178 0.115 0.538 0.090 1.075-0.038 1.6-0.038 0.128 0.013 0.192 0.102 0.256 0.282 0.154 0.563 0.128 0.819-0.038 0.41-0.269 0.627-0.678 0.781-1.126 0.154-0.486 0.294-0.986 0.435-1.472 0.115-0.397 0.384-0.64 0.781-0.73 0.282-0.064 0.576-0.102 0.87-0.154-0.154 0.269-0.307 0.499-0.422 0.742-0.128 0.243-0.218 0.499-0.307 0.755 0.154-0.205 0.294-0.422 0.448-0.627 0.243-0.32 0.525-0.614 0.87-0.832 0.205-0.128 0.435-0.205 0.678-0.205 0.358 0 0.614 0.154 0.755 0.474 0.192 0.422 0.23 0.858 0.179 1.318-0.141 1.267-0.717 2.317-1.613 3.213-0.026 0.026-0.038 0.051-0.064 0.077 0 0.013 0.013 0.026 0.013 0.038 0.141-0.038 0.307-0.064 0.435-0.141 0.218-0.128 0.435-0.269 0.627-0.435 0.64-0.576 1.062-1.318 1.395-2.099 0.128-0.294 0.23-0.614 0.371-0.909 0.307-0.666 0.73-1.254 1.357-1.651 0.525-0.333 1.088-0.461 1.702-0.307 0.32 0.077 0.55 0.256 0.691 0.55 0.115-0.154 0.23-0.32 0.358-0.461 0.192-0.205 0.422-0.346 0.717-0.358 0.23-0.013 0.448-0.038 0.678-0.051-0.653 1.050-0.973 2.189-1.216 3.366-0.051 0.243-0.051 0.512-0.051 0.768 0 0.307 0.179 0.41 0.448 0.256 0.179-0.102 0.358-0.256 0.486-0.422 0.486-0.64 0.832-1.357 1.050-2.125 0.077-0.282 0.192-0.563 0.294-0.832 0.282-0.678 0.794-1.075 1.536-1.165 0.090-0.013 0.166-0.026 0.256-0.038 0.128-0.013 0.141 0.051 0.090 0.154-0.013 0.013-0.013 0.026-0.026 0.038-0.614 0.73-0.883 1.613-1.126 2.496-0.128 0.448-0.192 0.909-0.166 1.37 0.013 0.128 0.026 0.256 0.064 0.384 0.051 0.154 0.154 0.192 0.307 0.141 0.307-0.090 0.499-0.32 0.678-0.563 0.525-0.704 0.934-1.472 1.216-2.304 0.115-0.333 0.205-0.666 0.294-0.998 0.141-0.538 0.461-0.896 1.037-0.96 0.269-0.038 0.55-0.077 0.858-0.115-0.653 0.768-0.794 1.702-1.024 2.586-0.282 1.088-0.512 2.189-0.794 3.277-0.218 0.858-0.653 1.6-1.408 2.112-0.768 0.525-1.6 0.73-2.496 0.448-0.576-0.179-0.845-0.806-0.576-1.306 0.23-0.435 0.794-0.474 1.062-0.102-0.051 0.179-0.128 0.32-0.141 0.474-0.026 0.474 0.294 0.73 0.768 0.64 0.397-0.077 0.704-0.307 0.909-0.64 0.166-0.269 0.333-0.563 0.422-0.858 0.256-0.845 0.486-1.702 0.678-2.573-0.115 0.166-0.23 0.358-0.358 0.512-0.256 0.307-0.525 0.614-0.794 0.909s-0.64 0.41-1.037 0.435c-0.358 0.026-0.627-0.154-0.768-0.512-0.166-0.397-0.154-0.806-0.115-1.267-0.051 0.077-0.077 0.128-0.102 0.166-0.294 0.525-0.614 1.050-1.062 1.472-0.218 0.218-0.474 0.397-0.781 0.448-0.358 0.064-0.614-0.077-0.768-0.41-0.141-0.307-0.179-0.64-0.166-0.973 0-0.358 0.026-0.704 0.038-1.037-0.128 0.243-0.243 0.512-0.384 0.768-0.307 0.563-0.64 1.114-1.126 1.536-0.307 0.269-0.653 0.461-1.075 0.448-0.32 0-0.538-0.141-0.691-0.422-0.166-0.294-0.205-0.627-0.218-0.96 0-0.102 0-0.192-0.038-0.294-0.038 0.064-0.077 0.128-0.128 0.205-0.32 0.525-0.678 1.024-1.165 1.408-0.538 0.435-1.165 0.678-1.856 0.73-0.218 0.013-0.435 0.013-0.653 0-0.32-0.026-0.602-0.128-0.794-0.448-0.064 0.333-0.128 0.627-0.192 0.934-0.166 0.73-0.32 1.472-0.486 2.202-0.013 0.051-0.026 0.090-0.038 0.141-0.102 0.358-0.333 0.563-0.717 0.602-0.243 0.026-0.474 0.051-0.717 0.077 0.627-1.779 0.973-3.635 1.446-5.504-0.499 0.41-0.998 0.499-1.562 0.218-0.064 0.141-0.128 0.294-0.192 0.435-0.256 0.538-0.576 1.037-1.062 1.395-0.538 0.397-1.165 0.563-1.843 0.499s-1.139-0.576-1.242-1.331c0.038-0.166 0.026-0.256 0.013-0.397zM12.531 14.093c-0.051-0.486-0.397-0.717-0.845-0.576-0.141 0.038-0.282 0.102-0.384 0.205-0.179 0.166-0.358 0.358-0.499 0.563-0.384 0.602-0.64 1.267-0.794 1.958-0.090 0.397-0.115 0.806-0.038 1.216 0.090 0.474 0.461 0.691 0.934 0.55 0.307-0.090 0.538-0.294 0.717-0.55 0.32-0.448 0.538-0.934 0.73-1.434 0.038-0.090 0.013-0.141-0.064-0.192-0.243-0.192-0.397-0.435-0.448-0.742-0.077-0.435 0.013-0.909 0.691-0.998zM21.12 15.539c0.013 0.128 0.013 0.256 0.026 0.371 0.038 0.256 0.205 0.358 0.448 0.269 0.154-0.051 0.294-0.141 0.41-0.256 0.397-0.358 0.691-0.781 0.922-1.254 0.32-0.653 0.627-1.306 0.947-1.958 0.115-0.218 0.090-0.307-0.154-0.461-0.090-0.064-0.23-0.077-0.346-0.077-0.384 0.013-0.704 0.179-0.96 0.448-0.755 0.819-1.165 1.805-1.293 2.918zM17.843 13.99c0-0.077 0-0.154-0.013-0.243-0.038-0.282-0.192-0.397-0.448-0.294-0.192 0.090-0.397 0.205-0.525 0.358-0.64 0.717-1.062 1.549-1.331 2.47-0.090 0.32-0.115 0.653 0 0.986 0.090 0.243 0.256 0.346 0.486 0.243 0.205-0.090 0.397-0.205 0.55-0.371 0.41-0.422 0.64-0.973 0.87-1.51 0.192-0.512 0.384-1.050 0.41-1.638z"></path>
<path d="M12.992 19.341c-0.154 0.627-0.499 1.024-1.114 1.165-1.754 0.422-3.482 0.896-5.158 1.574-0.806 0.333-1.613 0.678-2.406 1.024-0.051 0.026-0.102 0.051-0.166 0.064-0.218-0.435-0.166-0.986 0.179-1.318 0.179-0.179 0.41-0.333 0.653-0.422 1.587-0.653 3.251-1.101 4.928-1.485 0.96-0.218 1.933-0.397 2.906-0.589 0.051 0 0.102 0 0.179-0.013z"></path>
<path d="M15.77 19.776c0.051-0.435 0.397-0.819 0.883-0.909 0.768-0.141 1.536-0.282 2.304-0.384 0.986-0.128 1.971-0.179 2.957-0.128 0.755 0.038 1.498 0.128 2.24 0.218 0.23 0.026 0.269 0.102 0.256 0.294 0 0.115-0.051 0.141-0.166 0.141-0.512-0.026-1.024-0.064-1.536-0.064-2.317-0.026-4.608 0.192-6.848 0.819-0.013 0-0.051 0-0.090 0.013z"></path>
</svg>
