<!-- Generated by IcoMoon.io -->
<svg version="1.1" xmlns="http://www.w3.org/2000/svg" width="32" height="32" viewBox="0 0 32 32">
<title>CORE_WRAITH_WALLET</title>
<path d="M11.386 29.093c-3.795-9.101-7.591-18.215-11.386-27.344 0.042 0 0.071-0.014 0.113-0.014 0.635 0 1.27 0 1.905 0 0.099 0 0.141 0.042 0.169 0.113 0.296 0.72 0.593 1.453 0.903 2.173 0.339 0.818 0.677 1.623 1.016 2.441 0.339 0.804 0.677 1.623 1.016 2.427 0.339 0.818 0.677 1.623 1.016 2.441 0.409 0.988 0.818 1.975 1.228 2.963 0.353 0.832 0.691 1.679 1.044 2.511 0.437 1.058 0.889 2.116 1.326 3.175 0.395 0.931 0.776 1.877 1.171 2.808 0.155 0.381 0.31 0.762 0.48 1.143 0.014 0.014 0.014 0.028 0.042 0.071 0.085-0.183 0.155-0.339 0.226-0.508 0.24-0.593 0.494-1.185 0.734-1.778 0.367-0.889 0.734-1.778 1.101-2.667 0.395-0.945 0.804-1.891 1.199-2.85 0.325-0.762 0.635-1.538 0.945-2.3 0.381-0.931 0.776-1.862 1.157-2.794 0.353-0.847 0.705-1.693 1.058-2.54 0.423-1.016 0.847-2.032 1.27-3.048 0.367-0.875 0.72-1.735 1.072-2.61 0.155-0.367 0.31-0.734 0.466-1.101 0.014-0.042 0.085-0.099 0.127-0.099 0.663 0 1.326 0 1.989 0 0.014 0 0.028 0.014 0.056 0.014-3.81 9.143-7.605 18.258-11.4 27.386-0.014 0-0.028 0-0.042-0.014z"></path>
<path d="M20.148 1.707c-1.848 4.444-3.697 8.875-5.531 13.291-0.014 0-0.028 0-0.028 0.014-1.862-4.43-3.725-8.861-5.573-13.305 3.711 0 7.407 0 11.132 0z"></path>
<path d="M20.487 29.108c-0.113-0.282-0.24-0.564-0.353-0.847-0.79-1.877-1.566-3.753-2.356-5.63-0.494-1.185-1.002-2.384-1.496-3.57-0.042-0.099-0.014-0.169 0.014-0.254 0.691-1.651 1.369-3.302 2.060-4.952 0.72-1.735 1.439-3.471 2.159-5.206 0.945-2.272 1.891-4.557 2.836-6.829 0.042-0.099 0.085-0.127 0.198-0.127 2.765 0 5.545 0 8.31 0 0.042 0 0.085 0 0.155 0-3.824 9.143-7.647 18.286-11.471 27.414-0.028 0-0.042 0-0.056 0zM20.487 28.078c0.014 0 0.028 0 0.042 0 3.612-8.635 7.238-17.27 10.864-25.919-0.085 0-0.141-0.014-0.183-0.014-0.974 0-1.947 0-2.907 0-1.481 0-2.949 0-4.43 0-0.085 0-0.141 0-0.183 0.099-0.437 1.044-0.875 2.088-1.312 3.132-1.072 2.554-2.145 5.108-3.217 7.661-0.818 1.933-1.623 3.88-2.441 5.813-0.028 0.056-0.028 0.127 0 0.183 0.564 1.34 1.129 2.681 1.693 4.007 0.578 1.383 1.157 2.765 1.75 4.148 0.085 0.31 0.212 0.593 0.325 0.889z"></path>
</svg>
