<?xml version="1.0" encoding="utf-8"?>
<!-- Generator: Adobe Illustrator 22.1.0, SVG Export Plug-In . SVG Version: 6.00 Build 0)  -->
<svg version="1.1" id="Layer_1" xmlns="http://www.w3.org/2000/svg" xmlns:xlink="http://www.w3.org/1999/xlink" x="0px" y="0px"
	 viewBox="0 0 226.8 226.8" style="enable-background:new 0 0 226.8 226.8;" xml:space="preserve">
<g>
	<path d="M52.9,61c13.3,0.1,22.7,11.2,19.6,23.3c-2.7,10.6-15.5,16.8-26.7,13C35,93.6,29.7,82.6,34.1,72.5
		C37.1,65.6,44.6,61,52.9,61z"/>
	<path d="M173.6,88.3c-14.2-0.1-23.5-11.5-19.9-23.7c2-7,7.1-11,14-12.9c9.3-2.7,20.5,2.2,24.1,10.7c5,11.5-2.9,24.6-15.5,25.8
		C175.2,88.3,174.1,88.3,173.6,88.3z"/>
	<path d="M104.3,166.2c-0.2-12.7,14.2-22,27.6-17.1c9.8,3.6,14.5,12.6,11.9,22.2c-2.3,8.6-12.7,14.7-22.1,13.2
		c-7.5-1.3-13.2-4.9-16.1-12.1C104.9,170.5,104.7,168.3,104.3,166.2z"/>
	<path d="M52,111.3c9,0,16.2,6.6,16.3,15c0.1,8.5-7.2,15.3-16.3,15.3c-9.2,0-16.5-6.7-16.5-15.1C35.5,118,42.8,111.3,52,111.3z"/>
	<path d="M130.5,59.2c-9-0.2-16.2-7-16.1-15.2c0.2-8.5,7.7-15.1,17-14.9c8.8,0.2,15.8,6.9,15.6,15.3C147,52.9,139.7,59.4,130.5,59.2
		z"/>
	<path d="M168.8,158.3c-8.1,0.8-16.8-6.2-16.2-15.6c0.4-5.9,4.5-10.9,11.2-13.1c7.2-2.4,16,1,19.4,7.5
		C188.8,147.7,179.6,159.1,168.8,158.3z"/>
	<path d="M62.7,175.5c-7.9,0-14.5-6-14.6-13.2c-0.1-7.3,6.4-13.5,14.2-13.6c8-0.1,14.7,6,14.7,13.4
		C77.1,169.4,70.6,175.4,62.7,175.5z"/>
	<path d="M92.4,20.4c8,0,14.5,5.9,14.5,13.2c-0.1,7.4-6.4,13.2-14.4,13.3C84.4,46.9,78,41,78,33.6C78,26.1,84.3,20.4,92.4,20.4z"/>
	<path d="M211,117.3c0,7.4-6.3,13.2-14.2,13.1c-7.8-0.1-13.9-5.8-14-13c0-7.5,6-13.1,14.1-13C205.2,104.4,211,109.8,211,117.3z"/>
	<path d="M80.5,178.8c7,0,12.5,5.2,12.4,11.7c-0.1,6.4-5.6,11.4-12.5,11.3c-7,0-12.5-5.2-12.4-11.7
		C68.1,183.8,73.7,178.8,80.5,178.8z"/>
	<path d="M56.9,43.9c-6.9,0-12.4-5-12.5-11.4c-0.1-6.2,5.5-11.4,12.4-11.5c7.1-0.1,12.6,5,12.5,11.5C69.3,39,63.8,43.9,56.9,43.9z"
		/>
	<path d="M202.5,88.7c0-6.2,5.1-10.9,11.9-10.9c7.1,0,12.4,4.8,12.4,11.2c-0.1,6.1-5.6,11.3-12.2,11.3
		C207.8,100.3,202.5,95.2,202.5,88.7z"/>
	<path d="M30.1,35c6,0.1,10.5,4.3,10.4,9.8c-0.1,5.4-4.8,9.6-10.7,9.5c-5.7-0.1-10.3-4.4-10.3-9.7C19.5,39.2,24.2,34.9,30.1,35z"/>
	<path d="M105.9,195.3c5.9,0,10.5,4.3,10.5,9.7c0,5.5-4.6,9.6-10.6,9.6c-5.9,0-10.5-4.3-10.5-9.7C95.4,199.5,100,195.3,105.9,195.3z
		"/>
	<path d="M215.6,52c5.8,0,10.1,3.8,10.2,9.1c0.1,5.5-4.3,9.7-10.1,9.7c-5.9,0-10.1-3.9-10.1-9.6C205.6,55.8,209.6,52,215.6,52z"/>
	<path d="M134.6,216.7c-4.7,0.1-8.6-3.4-8.6-7.8c-0.1-4.4,3.6-7.9,8.3-8.1c4.8-0.1,8.8,3.4,8.8,7.9
		C143.1,213.2,139.4,216.7,134.6,216.7z"/>
	<path d="M19.7,65.1c0,4.4-3.8,7.7-8.6,7.7c-4.8-0.1-8.4-3.5-8.3-7.9c0.1-4.5,3.6-7.7,8.6-7.6C16.2,57.2,19.7,60.6,19.7,65.1z"/>
	<path d="M205,43.8c-5,0-8.4-3.1-8.4-7.4c0-4.2,3.7-7.6,8.4-7.6c4.5-0.1,8.3,3.6,8.2,7.8C213.1,40.8,209.7,43.8,205,43.8z"/>
	<path d="M159,193.6c3.7,0,6.7,2.7,6.6,6.2c0,3.4-2.8,6-6.4,6.1c-3.7,0.1-6.7-2.6-6.8-6C152.4,196.3,155.2,193.6,159,193.6z"/>
	<path d="M6.7,95C3,95-0.1,92.2,0,88.8c0.1-3.2,3-5.9,6.6-5.9c3.7,0,6.7,2.8,6.7,6.1C13.2,92.3,10.3,94.9,6.7,95z"/>
	<path d="M184.2,15.7c3.5,0.1,6.3,2.6,6.3,5.7c0,3.3-2.9,5.8-6.7,5.7c-3.6-0.1-6-2.5-6-5.9C177.9,17.9,180.5,15.7,184.2,15.7z"/>
	<path d="M178.1,186.8c0,2.4-2.1,4.3-4.7,4.3c-2.6,0-4.7-1.9-4.7-4.3c0-2.3,2.2-4.3,4.7-4.3C176,182.5,178.2,184.5,178.1,186.8z"/>
	<path d="M10.7,102.9c2.8,0,4.6,1.7,4.5,4.2c0,2.4-1.9,4.2-4.3,4.2c-2.4,0.1-4.7-1.9-4.8-4.2C6,104.9,8.2,102.9,10.7,102.9z"/>
	<path d="M164.8,12.3c2.4,0,4.2,1.6,4.2,3.9c0,2.4-1.7,4.1-4.3,4.2c-2.5,0-4.3-1.8-4.2-4.2C160.6,13.9,162.4,12.3,164.8,12.3z"/>
	<path d="M181.4,171.9c1.3,1.4,2.9,2.5,2.8,3.2c-0.3,1-1.6,2.3-2.6,2.5c-0.7,0.1-2.3-1.4-2.4-2.3C179,174.5,180.3,173.4,181.4,171.9
		z"/>
	<path d="M19.9,120.3c-1,0.6-2.1,1.7-3,1.5c-0.9-0.2-1.6-1.5-2.4-2.4c0.9-0.7,1.7-2,2.7-2.1c0.9-0.1,1.9,1.1,2.8,1.8
		C19.9,119.5,19.9,119.9,19.9,120.3z"/>
	<path d="M149.8,12.1c1.2,1.6,2.5,2.5,2.4,3.3c-0.1,0.8-1.3,2.1-2.1,2.2c-0.7,0.1-2.1-1.2-2.2-2C147.7,14.8,148.8,13.8,149.8,12.1z"
		/>
</g>
</svg>
