<!-- Generated by IcoMoon.io -->
<svg version="1.1" xmlns="http://www.w3.org/2000/svg" width="32" height="32" viewBox="0 0 32 32">
<title>COSS</title>
<path d="M7.464 8.607c1.877 0.014 3.203 1.58 2.765 3.287-0.381 1.496-2.187 2.37-3.767 1.834-1.524-0.522-2.272-2.074-1.651-3.499 0.423-0.974 1.481-1.623 2.653-1.623z"></path>
<path d="M24.494 12.459c-2.004-0.014-3.316-1.623-2.808-3.344 0.282-0.988 1.002-1.552 1.975-1.82 1.312-0.381 2.892 0.31 3.4 1.51 0.705 1.623-0.409 3.471-2.187 3.64-0.155 0.014-0.31 0.014-0.381 0.014z"></path>
<path d="M14.716 23.45c-0.028-1.792 2.004-3.104 3.894-2.413 1.383 0.508 2.046 1.778 1.679 3.132-0.325 1.213-1.792 2.074-3.118 1.862-1.058-0.183-1.862-0.691-2.272-1.707-0.099-0.268-0.127-0.578-0.183-0.875z"></path>
<path d="M7.337 15.704c1.27 0 2.286 0.931 2.3 2.116 0.014 1.199-1.016 2.159-2.3 2.159-1.298 0-2.328-0.945-2.328-2.131 0-1.199 1.030-2.145 2.328-2.145z"></path>
<path d="M18.413 8.353c-1.27-0.028-2.286-0.988-2.272-2.145 0.028-1.199 1.086-2.13 2.399-2.102 1.242 0.028 2.229 0.974 2.201 2.159 0 1.199-1.030 2.116-2.328 2.088z"></path>
<path d="M23.817 22.335c-1.143 0.113-2.37-0.875-2.286-2.201 0.056-0.832 0.635-1.538 1.58-1.848 1.016-0.339 2.258 0.141 2.737 1.058 0.79 1.496-0.508 3.104-2.032 2.991z"></path>
<path d="M8.847 24.762c-1.115 0-2.046-0.847-2.060-1.862-0.014-1.030 0.903-1.905 2.004-1.919 1.129-0.014 2.074 0.847 2.074 1.891 0.014 1.030-0.903 1.877-2.018 1.891z"></path>
<path d="M13.037 2.878c1.129 0 2.046 0.832 2.046 1.862-0.014 1.044-0.903 1.862-2.032 1.877-1.143 0-2.046-0.832-2.046-1.877 0-1.058 0.889-1.862 2.032-1.862z"></path>
<path d="M29.771 16.55c0 1.044-0.889 1.862-2.004 1.848-1.101-0.014-1.961-0.818-1.975-1.834 0-1.058 0.847-1.848 1.989-1.834 1.171 0 1.989 0.762 1.989 1.82z"></path>
<path d="M11.358 25.227c0.988 0 1.764 0.734 1.75 1.651-0.014 0.903-0.79 1.608-1.764 1.594-0.988 0-1.764-0.734-1.75-1.651 0.014-0.889 0.804-1.594 1.764-1.594z"></path>
<path d="M8.028 6.194c-0.974 0-1.75-0.705-1.764-1.608-0.014-0.875 0.776-1.608 1.75-1.623 1.002-0.014 1.778 0.705 1.764 1.623 0 0.917-0.776 1.608-1.75 1.608z"></path>
<path d="M28.571 12.515c0-0.875 0.72-1.538 1.679-1.538 1.002 0 1.75 0.677 1.75 1.58-0.014 0.861-0.79 1.594-1.721 1.594-0.959 0-1.707-0.72-1.707-1.637z"></path>
<path d="M4.247 4.938c0.847 0.014 1.481 0.607 1.467 1.383-0.014 0.762-0.677 1.354-1.51 1.34-0.804-0.014-1.453-0.621-1.453-1.369 0-0.762 0.663-1.369 1.496-1.354z"></path>
<path d="M14.942 27.556c0.832 0 1.481 0.607 1.481 1.369 0 0.776-0.649 1.355-1.496 1.355-0.832 0-1.481-0.607-1.481-1.369 0.014-0.762 0.663-1.355 1.496-1.355z"></path>
<path d="M30.42 7.337c0.818 0 1.425 0.536 1.439 1.284 0.014 0.776-0.607 1.369-1.425 1.369-0.832 0-1.425-0.55-1.425-1.354 0-0.762 0.564-1.298 1.411-1.298z"></path>
<path d="M18.991 30.575c-0.663 0.014-1.213-0.48-1.213-1.101-0.014-0.621 0.508-1.115 1.171-1.143 0.677-0.014 1.242 0.48 1.242 1.115s-0.522 1.129-1.199 1.129z"></path>
<path d="M2.78 9.185c0 0.621-0.536 1.086-1.213 1.086-0.677-0.014-1.185-0.494-1.171-1.115 0.014-0.635 0.508-1.086 1.213-1.072 0.677-0.014 1.171 0.466 1.171 1.101z"></path>
<path d="M28.924 6.18c-0.705 0-1.185-0.437-1.185-1.044 0-0.593 0.522-1.072 1.185-1.072 0.635-0.014 1.171 0.508 1.157 1.101s-0.494 1.016-1.157 1.016z"></path>
<path d="M22.434 27.316c0.522 0 0.945 0.381 0.931 0.875 0 0.48-0.395 0.847-0.903 0.861-0.522 0.014-0.945-0.367-0.959-0.847 0-0.508 0.395-0.889 0.931-0.889z"></path>
<path d="M0.945 13.404c-0.522 0-0.959-0.395-0.945-0.875 0.014-0.451 0.423-0.832 0.931-0.832 0.522 0 0.945 0.395 0.945 0.861-0.014 0.466-0.423 0.832-0.931 0.847z"></path>
<path d="M25.989 2.215c0.494 0.014 0.889 0.367 0.889 0.804 0 0.466-0.409 0.818-0.945 0.804-0.508-0.014-0.847-0.353-0.847-0.832 0.014-0.466 0.381-0.776 0.903-0.776z"></path>
<path d="M25.129 26.356c0 0.339-0.296 0.607-0.663 0.607s-0.663-0.268-0.663-0.607c0-0.325 0.31-0.607 0.663-0.607 0.367 0 0.677 0.282 0.663 0.607z"></path>
<path d="M1.51 14.519c0.395 0 0.649 0.24 0.635 0.593 0 0.339-0.268 0.593-0.607 0.593-0.339 0.014-0.663-0.268-0.677-0.593-0.014-0.31 0.296-0.593 0.649-0.593z"></path>
<path d="M23.252 1.735c0.339 0 0.593 0.226 0.593 0.55 0 0.339-0.24 0.578-0.607 0.593-0.353 0-0.607-0.254-0.593-0.593 0.014-0.325 0.268-0.55 0.607-0.55z"></path>
<path d="M25.594 24.254c0.183 0.198 0.409 0.353 0.395 0.451-0.042 0.141-0.226 0.325-0.367 0.353-0.099 0.014-0.325-0.198-0.339-0.325-0.028-0.113 0.155-0.268 0.31-0.48z"></path>
<path d="M2.808 16.974c-0.141 0.085-0.296 0.24-0.423 0.212s-0.226-0.212-0.339-0.339c0.127-0.099 0.24-0.282 0.381-0.296 0.127-0.014 0.268 0.155 0.395 0.254-0.014 0.056-0.014 0.113-0.014 0.169z"></path>
<path d="M21.136 1.707c0.169 0.226 0.353 0.353 0.339 0.466s-0.183 0.296-0.296 0.31c-0.099 0.014-0.296-0.169-0.31-0.282-0.028-0.113 0.127-0.254 0.268-0.494z"></path>
</svg>
