<!-- Generated by IcoMoon.io -->
<svg version="1.1" xmlns="http://www.w3.org/2000/svg" width="32" height="32" viewBox="0 0 32 32">
<title>COV</title>
<path d="M18.004 26.723c-5.94-0.014-10.808-4.854-10.794-10.751 0.014-5.87 4.896-10.681 10.794-10.653 6.025 0.028 10.85 4.769 10.864 10.667 0.014 5.926-4.868 10.751-10.864 10.737zM18.088 6.815c-5.15-0.014-9.326 4.063-9.34 9.143-0.014 5.15 4.092 9.227 9.298 9.256 5.079 0.028 9.27-4.134 9.27-9.227 0.028-5.023-4.12-9.143-9.227-9.171z"></path>
<path d="M17.397 0c4.205 0.099 7.478 1.129 10.37 3.287 0.353 0.268 0.748 0.55 0.508 1.101-0.212 0.508-0.762 0.607-1.298 0.212-1.439-1.086-2.991-1.919-4.727-2.413-4.797-1.355-9.185-0.522-13.178 2.441-0.113 0.085-0.226 0.183-0.353 0.268-0.381 0.254-0.776 0.268-1.058-0.099-0.31-0.395-0.226-0.776 0.169-1.101 1.806-1.496 3.838-2.554 6.095-3.104 1.326-0.325 2.709-0.466 3.471-0.593z"></path>
<path d="M18.046 32c-3.598-0.056-6.843-1.115-9.735-3.273-0.339-0.254-0.691-0.522-0.522-1.030 0.183-0.55 0.776-0.663 1.34-0.226 1.326 1.016 2.78 1.806 4.374 2.286 4.614 1.411 8.931 0.762 12.938-1.933 0.141-0.099 0.282-0.198 0.423-0.296 0.381-0.268 0.705-0.155 0.974 0.169 0.268 0.339 0.226 0.705-0.085 1.002-0.198 0.183-0.423 0.339-0.649 0.494-2.723 1.834-5.757 2.751-9.058 2.808z"></path>
<path d="M5.841 26.173c-0.113-0.085-0.367-0.226-0.55-0.437-4.332-5.277-4.43-13.87-0.198-19.16 0.198-0.24 0.593-0.395 0.917-0.437 0.155-0.014 0.466 0.324 0.508 0.536 0.028 0.254-0.113 0.578-0.268 0.804-0.917 1.298-1.679 2.681-2.13 4.219-1.354 4.698-0.607 9.044 2.272 12.995 0.099 0.141 0.226 0.268 0.31 0.423 0.268 0.536-0.099 1.086-0.861 1.058z"></path>
<path d="M4.684 14.519c0.367-2.808 1.411-5.22 3.245-7.28 2.018-2.272 4.529-3.711 7.506-4.317 0.141-0.028 0.296-0.056 0.437-0.071 0.451-0.042 0.804 0.113 0.875 0.593 0.071 0.508-0.198 0.762-0.677 0.889-1.002 0.282-2.032 0.494-2.963 0.917-3.767 1.735-6.025 4.698-6.815 8.762-0.042 0.212-0.085 0.437-0.127 0.649-0.099 0.423-0.381 0.649-0.804 0.607-0.466-0.056-0.663-0.381-0.677-0.748z"></path>
<path d="M16 29.192c-2.258-0.367-4.162-1.143-5.855-2.384-2.794-2.060-4.586-4.783-5.277-8.212-0.028-0.141-0.056-0.296-0.071-0.437-0.028-0.451 0.127-0.79 0.607-0.861 0.508-0.071 0.762 0.226 0.889 0.691 0.268 0.917 0.437 1.891 0.832 2.751 1.693 3.781 4.642 6.039 8.677 6.914 0.296 0.071 0.635 0.198 0.818 0.409 0.127 0.155 0.141 0.564 0.028 0.734-0.169 0.212-0.494 0.31-0.649 0.395z"></path>
<path d="M19.612 2.737c1.383 0.268 2.497 0.55 3.683 1.002 1.806 0.691 3.316 1.82 4.628 3.231 0.353 0.381 0.55 0.776 0.141 1.228-0.31 0.339-0.804 0.254-1.213-0.183-1.961-2.088-4.36-3.344-7.21-3.739-0.508-0.071-0.861-0.282-0.832-0.832 0.014-0.466 0.325-0.705 0.804-0.705z"></path>
<path d="M19.556 29.277c-0.409-0.056-0.734-0.254-0.762-0.72s0.24-0.72 0.705-0.79c1.651-0.226 3.245-0.691 4.656-1.608 0.889-0.578 1.679-1.284 2.497-1.961 0.522-0.437 1.016-0.423 1.312 0.071 0.254 0.423 0.028 0.705-0.24 0.974-2.046 2.102-4.515 3.4-7.407 3.908-0.24 0.042-0.48 0.085-0.762 0.127z"></path>
<path d="M21.136 15.097c0 1.086 0 2.173 0 3.259 0 0.649-0.268 1.002-0.748 0.974-0.635-0.028-0.72-0.48-0.72-0.988 0-2.201 0-4.402 0-6.589 0-0.621 0.31-1.058 0.734-1.002 0.55 0.085 0.748 0.466 0.748 1.016-0.028 1.115-0.014 2.215-0.014 3.33z"></path>
<path d="M18.159 16.55c0 0.649-0.014 1.284 0 1.933 0.014 0.494-0.198 0.832-0.705 0.861-0.522 0.028-0.748-0.31-0.748-0.804 0-1.34 0-2.667 0-4.007 0-0.48 0.198-0.847 0.734-0.818 0.508 0.028 0.734 0.339 0.72 0.847 0 0.649 0 1.312 0 1.989z"></path>
<path d="M15.196 17.693c0 0.325 0.014 0.635 0 0.959-0.028 0.423-0.282 0.677-0.72 0.677s-0.691-0.268-0.705-0.691c-0.028-0.635-0.028-1.27 0-1.919 0.014-0.437 0.31-0.748 0.705-0.663 0.268 0.056 0.564 0.395 0.691 0.677s0.028 0.649 0.028 0.959z"></path>
</svg>
