<?xml version="1.0" encoding="utf-8"?>
<!-- Generator: Adobe Illustrator 22.1.0, SVG Export Plug-In . SVG Version: 6.00 Build 0)  -->
<svg version="1.1" id="Layer_1" xmlns="http://www.w3.org/2000/svg" xmlns:xlink="http://www.w3.org/1999/xlink" x="0px" y="0px"
	 viewBox="0 0 226.8 226.8" style="enable-background:new 0 0 226.8 226.8;" xml:space="preserve">
<g id="_x37_JCA0w_1_">
	<g>
		<path d="M127.6,189.4C85.5,189.3,51,155,51.1,113.2c0.1-41.6,34.7-75.7,76.5-75.5c42.7,0.2,76.9,33.8,77,75.6
			C204.7,155.3,170.1,189.5,127.6,189.4z M128.2,48.3C91.7,48.2,62.1,77.1,62,113.1c-0.1,36.5,29,65.4,65.9,65.6
			c36,0.2,65.7-29.3,65.7-65.4C193.8,77.7,164.4,48.5,128.2,48.3z"/>
		<path d="M123.3,0c29.8,0.7,53,8,73.5,23.3c2.5,1.9,5.3,3.9,3.6,7.8c-1.5,3.6-5.4,4.3-9.2,1.5c-10.2-7.7-21.2-13.6-33.5-17.1
			c-34-9.6-65.1-3.7-93.4,17.3c-0.8,0.6-1.6,1.3-2.5,1.9c-2.7,1.8-5.5,1.9-7.5-0.7c-2.2-2.8-1.6-5.5,1.2-7.8
			c12.8-10.6,27.2-18.1,43.2-22C108.1,1.9,117.9,0.9,123.3,0z"/>
		<path d="M127.9,226.8c-25.5-0.4-48.5-7.9-69-23.2c-2.4-1.8-4.9-3.7-3.7-7.3c1.3-3.9,5.5-4.7,9.5-1.6c9.4,7.2,19.7,12.8,31,16.2
			c32.7,10,63.3,5.4,91.7-13.7c1-0.7,2-1.4,3-2.1c2.7-1.9,5-1.1,6.9,1.2c1.9,2.4,1.6,5-0.6,7.1c-1.4,1.3-3,2.4-4.6,3.5
			C172.8,219.9,151.3,226.4,127.9,226.8z"/>
		<path d="M41.4,185.5c-0.8-0.6-2.6-1.6-3.9-3.1C6.8,145,6.1,84.1,36.1,46.6c1.4-1.7,4.2-2.8,6.5-3.1c1.1-0.1,3.3,2.3,3.6,3.8
			c0.2,1.8-0.8,4.1-1.9,5.7c-6.5,9.2-11.9,19-15.1,29.9c-9.6,33.3-4.3,64.1,16.1,92.1c0.7,1,1.6,1.9,2.2,3
			C49.4,181.8,46.8,185.7,41.4,185.5z"/>
		<path d="M33.2,102.9c2.6-19.9,10-37,23-51.6C70.5,35.2,88.3,25,109.4,20.7c1-0.2,2.1-0.4,3.1-0.5c3.2-0.3,5.7,0.8,6.2,4.2
			c0.5,3.6-1.4,5.4-4.8,6.3c-7.1,2-14.4,3.5-21,6.5C66.2,49.5,50.2,70.5,44.6,99.3c-0.3,1.5-0.6,3.1-0.9,4.6c-0.7,3-2.7,4.6-5.7,4.3
			C34.7,107.8,33.3,105.5,33.2,102.9z"/>
		<path d="M113.4,206.9c-16-2.6-29.5-8.1-41.5-16.9c-19.8-14.6-32.5-33.9-37.4-58.2c-0.2-1-0.4-2.1-0.5-3.1
			c-0.2-3.2,0.9-5.6,4.3-6.1c3.6-0.5,5.4,1.6,6.3,4.9c1.9,6.5,3.1,13.4,5.9,19.5c12,26.8,32.9,42.8,61.5,49c2.1,0.5,4.5,1.4,5.8,2.9
			c0.9,1.1,1,4,0.2,5.2C116.8,205.6,114.5,206.3,113.4,206.9z"/>
		<path d="M139,19.4c9.8,1.9,17.7,3.9,26.1,7.1c12.8,4.9,23.5,12.9,32.8,22.9c2.5,2.7,3.9,5.5,1,8.7c-2.2,2.4-5.7,1.8-8.6-1.3
			c-13.9-14.8-30.9-23.7-51.1-26.5c-3.6-0.5-6.1-2-5.9-5.9C133.4,21.1,135.6,19.4,139,19.4z"/>
		<path d="M138.6,207.5c-2.9-0.4-5.2-1.8-5.4-5.1c-0.2-3.3,1.7-5.1,5-5.6c11.7-1.6,23-4.9,33-11.4c6.3-4.1,11.9-9.1,17.7-13.9
			c3.7-3.1,7.2-3,9.3,0.5c1.8,3,0.2,5-1.7,6.9c-14.5,14.9-32,24.1-52.5,27.7C142.3,206.9,140.6,207.2,138.6,207.5z"/>
		<path d="M149.8,107c0,7.7,0,15.4,0,23.1c0,4.6-1.9,7.1-5.3,6.9c-4.5-0.2-5.1-3.4-5.1-7c0-15.6,0-31.2,0-46.7
			c0-4.4,2.2-7.5,5.2-7.1c3.9,0.6,5.3,3.3,5.3,7.2C149.7,91.3,149.8,99.1,149.8,107z"/>
		<path d="M128.7,117.3c0,4.6-0.1,9.1,0,13.7c0.1,3.5-1.4,5.9-5,6.1c-3.7,0.2-5.3-2.2-5.3-5.7c0-9.5,0-18.9,0-28.4
			c0-3.4,1.4-6,5.2-5.8c3.6,0.2,5.2,2.4,5.1,6C128.7,107.8,128.7,112.5,128.7,117.3z"/>
		<path d="M107.7,125.4c0,2.3,0.1,4.5,0,6.8c-0.2,3-2,4.8-5.1,4.8c-3.1,0-4.9-1.9-5-4.9c-0.2-4.5-0.2-9,0-13.6
			c0.1-3.1,2.2-5.3,5-4.7c1.9,0.4,4,2.8,4.9,4.8C108.4,120.6,107.7,123.2,107.7,125.4z"/>
	</g>
</g>
</svg>
