<?xml version="1.0" encoding="utf-8"?>
<!-- Generator: Adobe Illustrator 22.1.0, SVG Export Plug-In . SVG Version: 6.00 Build 0)  -->
<svg version="1.1" id="Layer_1" xmlns="http://www.w3.org/2000/svg" xmlns:xlink="http://www.w3.org/1999/xlink" x="0px" y="0px"
	 viewBox="0 0 226.8 226.8" style="enable-background:new 0 0 226.8 226.8;" xml:space="preserve">
<g>
	<path d="M147.8,127.1c15.3,15.3,30.3,30.3,45.6,45.6c-2.2,2.1-4.4,4.1-6.5,6.3c-7,7.3-14.7,13.5-23.6,18.4
		c-9.5,5.3-19.6,8.8-30.3,10.7c-0.5,0.1-0.9,0.2-1.5,0.3c0,6.1,0,12.2,0,18.3c-9.6,0-19.1,0-28.8,0c0-6,0-12.1,0-17.8
		c-5.9-1.6-11.7-2.7-17.2-4.6c-22.5-7.7-39.8-22-51.9-42.4c-9-15.2-13.2-31.7-13-49.3c0.3-23.6,8.3-44.4,23.8-62.2
		c13.7-15.7,30.9-25.6,51.2-30.2c1.8-0.4,3.6-0.8,5.4-1c1.3-0.1,1.6-0.7,1.6-1.9c-0.1-5,0-10.1,0-15.1c0-0.5,0-0.9,0-1.5
		c9.6,0,19.1,0,28.8,0c0,0.5,0.1,1,0.1,1.4c0,5.2,0,10.4,0,15.7c0,1,0.3,1.4,1.3,1.5c10.9,1.8,21.2,5.5,30.9,10.9
		c8.9,5,16.7,11.4,23.8,18.8c1.9,2,4,3.9,5.9,5.7c-15.3,15.3-30.3,30.3-45.6,45.6c-2.7-2.8-5.5-5.6-8.3-8.4
		c-9.5-9.7-23.2-12.7-35.5-7.2c-11.3,5-17.8,13.8-18.9,26.1c-1.1,12.1,3.6,21.9,13.5,29c4,2.9,8.5,4.7,13.4,5.2
		c5.1,0.6,10,0.2,14.9-1.4c6.3-2,10.9-6.2,15.3-10.8C144.1,130.9,146,129,147.8,127.1z M146.8,162.7c-23.9,14.7-54.7,10-73.2-10.8
		c-17.9-20.2-19.4-50.5-3.3-72.1c8.9-12,20.7-19.6,35.5-22.4c14.7-2.8,28.5-0.1,41.2,7.6c3.1-3.1,6.1-6.1,9.1-9.1
		c-22.4-16.5-62.3-18.9-89.4,8.6c-27.3,27.6-27,72.7,1.4,99.9c27.4,26.2,66.2,23.3,88,7.3C152.9,168.7,149.9,165.8,146.8,162.7z"/>
</g>
</svg>
