<!-- Generated by IcoMoon.io -->
<svg version="1.1" xmlns="http://www.w3.org/2000/svg" width="32" height="32" viewBox="0 0 32 32">
<title>CPC</title>
<path d="M20.854 17.933c2.159 2.159 4.275 4.275 6.434 6.434-0.31 0.296-0.621 0.578-0.917 0.889-0.988 1.030-2.074 1.905-3.33 2.596-1.34 0.748-2.765 1.242-4.275 1.51-0.071 0.014-0.127 0.028-0.212 0.042 0 0.861 0 1.721 0 2.582-1.355 0-2.695 0-4.064 0 0-0.847 0-1.707 0-2.511-0.832-0.226-1.651-0.381-2.427-0.649-3.175-1.086-5.616-3.104-7.323-5.982-1.27-2.145-1.862-4.473-1.834-6.956 0.042-3.33 1.171-6.265 3.358-8.776 1.933-2.215 4.36-3.612 7.224-4.261 0.254-0.056 0.508-0.113 0.762-0.141 0.183-0.014 0.226-0.099 0.226-0.268-0.014-0.705 0-1.425 0-2.131 0-0.071 0-0.127 0-0.212 1.354 0 2.695 0 4.063 0 0 0.071 0.014 0.141 0.014 0.198 0 0.734 0 1.467 0 2.215 0 0.141 0.042 0.198 0.183 0.212 1.538 0.254 2.991 0.776 4.36 1.538 1.256 0.705 2.356 1.608 3.358 2.653 0.268 0.282 0.564 0.55 0.832 0.804-2.159 2.159-4.275 4.275-6.434 6.434-0.381-0.395-0.776-0.79-1.171-1.185-1.34-1.369-3.273-1.792-5.009-1.016-1.594 0.705-2.511 1.947-2.667 3.683-0.155 1.707 0.508 3.090 1.905 4.092 0.564 0.409 1.199 0.663 1.891 0.734 0.72 0.085 1.411 0.028 2.102-0.198 0.889-0.282 1.538-0.875 2.159-1.524 0.268-0.268 0.536-0.536 0.79-0.804zM20.713 22.956c-3.372 2.074-7.718 1.411-10.328-1.524-2.526-2.85-2.737-7.125-0.466-10.173 1.256-1.693 2.921-2.765 5.009-3.161 2.074-0.395 4.021-0.014 5.813 1.072 0.437-0.437 0.861-0.861 1.284-1.284-3.16-2.328-8.79-2.667-12.614 1.213-3.852 3.894-3.81 10.258 0.198 14.095 3.866 3.697 9.34 3.287 12.416 1.030-0.451-0.423-0.875-0.832-1.312-1.27z"></path>
</svg>
