<!-- Generated by IcoMoon.io -->
<svg version="1.1" xmlns="http://www.w3.org/2000/svg" width="32" height="32" viewBox="0 0 32 32">
<title>CPT</title>
<path d="M19.471 25.623c-0.028 0.042-0.056 0.085-0.099 0.127-1.467 1.594-2.949 3.189-4.416 4.783-0.042 0.042-0.071 0.071-0.113 0.113-0.099 0.141-0.198 0.198-0.381 0.113-0.099-0.042-0.254-0.042-0.367 0-0.155 0.056-0.226 0.014-0.325-0.099-0.818-0.917-1.637-1.834-2.455-2.765-1.256-1.411-2.511-2.822-3.767-4.233-0.085-0.099-0.183-0.198-0.254-0.296-0.042-0.056-0.056-0.155-0.028-0.198 0.042-0.056 0.141-0.099 0.198-0.085 1.439 0.254 2.864 0.508 4.303 0.762 0.099 0.014 0.198 0.056 0.282 0.099 1.552 0.748 3.189 1.030 4.91 0.861 0.212-0.014 0.437 0.042 0.649 0.071 0.494 0.085 0.988 0.183 1.481 0.254 0.169 0.028 0.268 0.071 0.296 0.254-0.014 0.071 0.042 0.141 0.085 0.24z"></path>
<path d="M20.543 8.381c0.296-0.056 0.607-0.127 0.903-0.183 2.413-0.466 4.84-0.917 7.252-1.383 0.141-0.028 0.24-0.014 0.339 0.113 0.085 0.113 0.226 0.198 0.367 0.254 0.099 0.042 0.141 0.085 0.155 0.198 0.212 1.877 0.409 3.753 0.621 5.63 0 0.056-0.056 0.141-0.099 0.183-0.268 0.226-0.55 0.169-0.861 0.042-2.046-0.875-4.106-1.75-6.152-2.624-0.127-0.056-0.24-0.141-0.325-0.254-0.564-0.72-1.242-1.326-2.018-1.82-0.056-0.028-0.099-0.071-0.155-0.099-0.014-0.014-0.014-0.028-0.028-0.056z"></path>
<path d="M9.594 1.34c0.042 0.169 0.085 0.325 0.127 0.48 0.522 2.159 1.044 4.303 1.566 6.462 0.042 0.183-0.014 0.254-0.141 0.381-0.353 0.339-0.705 0.325-1.157 0.198-1.891-0.55-3.795-1.044-5.7-1.566-0.24-0.071-0.325-0.339-0.183-0.536 1.002-1.34 2.004-2.695 3.005-4.035 0.042-0.056 0.085-0.127 0.155-0.155 0.734-0.395 1.481-0.79 2.215-1.185 0.028-0.028 0.056-0.028 0.113-0.042z"></path>
<path d="M5.531 28.148c0.071-0.296 0.127-0.55 0.183-0.804 0.282-1.199 0.564-2.413 0.861-3.612 0.014-0.085 0.085-0.198 0.155-0.212 0.155-0.042 0.296-0.141 0.48 0.056 2.145 2.427 4.303 4.825 6.462 7.238 0.071 0.071 0.127 0.141 0.056 0.254s-0.141 0.085-0.24 0.071c-1.552-0.282-3.118-0.564-4.67-0.861-0.24-0.042-0.466-0.183-0.691-0.296-0.847-0.451-1.637-0.988-2.384-1.594-0.085-0.085-0.155-0.183-0.212-0.24z"></path>
<path d="M7.577 14.434c-0.028 0.536-0.071 1.044-0.071 1.552 0 0.437 0.056 0.861 0.056 1.298 0 0.296-0.071 0.593-0.113 0.889-0.226 1.27-0.466 2.54-0.691 3.81-0.028 0.141-0.071 0.226-0.226 0.24-0.042 0-0.099 0.014-0.127 0.042-0.183 0.183-0.324 0.085-0.508-0.028-1.58-1.016-3.16-2.032-4.741-3.034-0.113-0.071-0.183-0.141-0.127-0.282 0-0.014 0.014-0.028 0-0.042-0.099-0.31 0.113-0.423 0.325-0.564 2.018-1.256 4.021-2.511 6.025-3.767 0.071-0.042 0.127-0.071 0.198-0.113z"></path>
<path d="M22.871 30.547c-0.085 0.042-0.155 0.071-0.226 0.113-1.778 0.748-3.64 1.157-5.573 1.284-0.607 0.042-1.157-0.028-1.707-0.268-0.042-0.028-0.099-0.042-0.155-0.056-0.183-0.042-0.325-0.113-0.296-0.339 0-0.014 0-0.028-0.014-0.042-0.183-0.254-0.014-0.409 0.155-0.593 1.467-1.58 2.921-3.16 4.388-4.755 0.099-0.099 0.169-0.169 0.325-0.085 0.071 0.042 0.155 0.056 0.226 0.028 0.183-0.056 0.268 0.042 0.353 0.198 0.776 1.397 1.566 2.794 2.342 4.176 0.071 0.113 0.127 0.212 0.183 0.339z"></path>
<path d="M28.473 25.481c-0.014 0.071-0.028 0.099-0.042 0.141-0.042 0.141-0.099 0.296-0.127 0.437-0.085 0.564-0.395 0.974-0.804 1.355-1.27 1.213-2.681 2.215-4.261 2.963-0.155 0.071-0.24 0.071-0.325-0.099-0.818-1.467-1.637-2.935-2.455-4.388-0.071-0.113-0.099-0.212 0.028-0.31 0.014-0.014 0.042-0.042 0.042-0.071 0.042-0.282 0.254-0.268 0.48-0.282 2.272-0.085 4.529-0.183 6.801-0.282 0.169-0.014 0.31 0 0.367 0.198 0.028 0.085 0.127 0.141 0.198 0.226 0.028 0.056 0.071 0.099 0.099 0.113z"></path>
<path d="M24.071 19.118c0.071 0.071 0.113 0.127 0.155 0.169 1.298 1.637 2.596 3.287 3.88 4.924 0.056 0.071 0.113 0.198 0.085 0.268-0.042 0.155-0.113 0.282-0.353 0.296-2.314 0.071-4.628 0.169-6.942 0.268-0.183 0.014-0.268-0.071-0.409-0.183-0.268-0.24-0.141-0.437-0.071-0.691 0.113-0.423 0.353-0.72 0.72-0.974 1.369-0.959 2.3-2.272 2.85-3.852 0.028-0.056 0.056-0.127 0.085-0.226z"></path>
<path d="M11.499 8.409c-0.127-0.494-0.24-0.974-0.353-1.453-0.437-1.806-0.875-3.626-1.312-5.432-0.071-0.282-0.071-0.282 0.198-0.381 0.437-0.155 0.861-0.31 1.298-0.452 0.099-0.028 0.226-0.028 0.31 0.014 0.974 0.395 1.947 0.79 2.921 1.185 0.127 0.056 0.169 0.113 0.183 0.254 0 0.141 0.085 0.296 0.169 0.409 0.056 0.085 0.085 0.141 0.028 0.24-0.875 1.707-1.764 3.414-2.638 5.122-0.028 0.042-0.056 0.099-0.099 0.127-0.226 0.113-0.451 0.24-0.705 0.367z"></path>
<path d="M16.099 2.384c0.31 0.071 0.621 0.141 0.945 0.226 1.75 0.409 3.499 0.818 5.249 1.228 0.155 0.042 0.367 0.268 0.367 0.423 0 0.042-0.042 0.099-0.085 0.127-1.101 1.086-2.187 2.173-3.302 3.259-0.056 0.056-0.183 0.085-0.254 0.056-0.353-0.085-0.691-0.183-1.030-0.296-0.071-0.028-0.155-0.085-0.183-0.155-0.677-1.481-1.34-2.963-2.004-4.444-0.071-0.127 0.127-0.437 0.296-0.423z"></path>
<path d="M19.358 7.831c0.381-0.381 0.734-0.748 1.101-1.101 0.734-0.734 1.481-1.453 2.215-2.201 0.099-0.099 0.183-0.141 0.325-0.085 0.183 0.071 0.381 0.042 0.55-0.099 0.099-0.085 0.183-0.085 0.296-0.028 1.637 0.677 3.273 1.34 4.91 2.004 0.071 0.028 0.113 0.113 0.169 0.183-0.071 0.042-0.127 0.127-0.198 0.141-2.667 0.508-5.347 1.016-8.014 1.538-0.296 0.056-0.55 0.056-0.818-0.113-0.169-0.099-0.339-0.155-0.536-0.24z"></path>
<path d="M26.949 18.441c0.818 0 1.637 0 2.455 0 0.24 0 0.254 0.014 0.212 0.254-0.282 1.764-0.564 3.541-0.832 5.305-0.028 0.183-0.127 0.226-0.282 0.268s-0.198-0.042-0.254-0.127c-1.34-1.693-2.681-3.4-4.007-5.093-0.099-0.127-0.099-0.423 0-0.536 0.042-0.042 0.127-0.056 0.198-0.056 0.832 0 1.665 0 2.497 0 0.014 0 0.014 0 0.014-0.014z"></path>
<path d="M0.367 19.527c0.169-0.085 0.296-0.169 0.452-0.212 0.056-0.014 0.155 0.014 0.212 0.042 1.016 0.635 2.018 1.284 3.034 1.933 0.621 0.395 1.242 0.79 1.862 1.185 0.099 0.071 0.155 0.127 0.113 0.254-0.028 0.071-0.028 0.155 0 0.212 0.085 0.198 0 0.296-0.141 0.409-0.889 0.691-1.778 1.397-2.653 2.102-0.113 0.099-0.183 0.085-0.268-0.028-1.185-1.651-2.018-3.471-2.497-5.446-0.056-0.155-0.085-0.31-0.113-0.451z"></path>
<path d="M7.69 14.011c-0.071 0.085-0.113 0.198-0.198 0.24-2.145 1.34-4.303 2.681-6.462 4.021-0.056 0.042-0.155 0.028-0.226 0.028 0-0.071-0.028-0.169-0.014-0.226 0.663-1.637 1.34-3.259 2.018-4.896 0.056-0.141 0.127-0.183 0.282-0.212 0.169-0.028 0.339-0.127 0.48-0.254 0.099-0.085 0.155-0.113 0.268-0.071 1.199 0.353 2.384 0.691 3.584 1.030 0.155 0.042 0.254 0.113 0.212 0.296 0.028 0.014 0.042 0.028 0.056 0.042z"></path>
<path d="M16.875 0.042c1.566 0.056 3.076 0.339 4.557 0.832 0.085 0.028 0.183 0.113 0.226 0.198 0.339 0.705 0.663 1.411 1.016 2.102 0.113 0.226-0.099 0.325-0.141 0.48-0.014 0.028-0.169 0.042-0.24 0.028-2.032-0.48-4.064-0.959-6.081-1.425-0.113-0.028-0.155-0.085-0.198-0.183-0.056-0.141-0.127-0.282-0.226-0.409-0.071-0.071-0.085-0.127-0.056-0.226 0.155-0.423 0.31-0.832 0.466-1.256 0.042-0.127 0.113-0.169 0.24-0.155 0.141 0 0.296 0 0.437 0.014z"></path>
<path d="M10.441 9.171c-1.228 1.044-2.046 2.342-2.54 3.908-1.326-1.891-2.638-3.739-3.937-5.587 0.155-0.056 5.898 1.439 6.476 1.679z"></path>
<path d="M17.623 7.337c-1.75-0.282-3.429-0.113-5.079 0.55 0.028-0.085 0.042-0.127 0.056-0.169 0.832-1.594 1.651-3.203 2.483-4.797 0.028-0.071 0.127-0.141 0.198-0.141 0.127 0.014 0.282-0.071 0.367 0.127 0.635 1.439 1.298 2.878 1.947 4.317 0.014 0.028 0.014 0.056 0.028 0.113z"></path>
<path d="M3.739 7.548c0.085 0.113 0.141 0.169 0.183 0.226 1.256 1.778 2.526 3.57 3.781 5.347 0.042 0.056 0.085 0.113 0.099 0.169 0.056 0.155-0.056 0.282-0.212 0.24-1.242-0.367-2.483-0.72-3.725-1.086-0.099-0.028-0.155-0.071-0.155-0.183-0.014-0.226-0.141-0.409-0.325-0.508-0.099-0.056-0.141-0.113-0.127-0.24 0.141-1.242 0.282-2.469 0.423-3.711 0-0.071 0.028-0.127 0.056-0.254z"></path>
<path d="M0.452 18.102c-0.014-0.254-0.042-0.508-0.056-0.762-0.071-1.27-0.127-2.554-0.183-3.824-0.014-0.24 0.042-0.494 0.099-0.734 0.198-0.762 0.395-1.538 0.607-2.342 0.085 0.056 0.113 0.071 0.141 0.099 0.437 0.423 0.875 0.847 1.312 1.256 0.099 0.085 0.127 0.169 0.071 0.296-0.113 0.254-0.042 0.494 0.141 0.677 0.099 0.099 0.099 0.198 0.056 0.31-0.677 1.608-1.34 3.217-2.004 4.825-0.028 0.071-0.085 0.141-0.113 0.212-0.028 0-0.056 0-0.071-0.014z"></path>
<path d="M30.349 18.427c0.353-0.085 0.564 0.071 0.734 0.381 0.141 0.268 0.353 0.508 0.508 0.762 0.056 0.085 0.085 0.212 0.056 0.31-0.381 1.693-1.016 3.273-1.933 4.741-0.042 0.071-0.155 0.127-0.226 0.141-0.056 0-0.127-0.099-0.183-0.155-0.099-0.099-0.169-0.226-0.282-0.296-0.099-0.071-0.113-0.127-0.099-0.226 0.282-1.792 0.564-3.584 0.847-5.376 0.028-0.198 0.099-0.282 0.296-0.254 0.099 0 0.183-0.028 0.282-0.028z"></path>
<path d="M3.203 25.735c0.621-0.494 1.227-0.988 1.834-1.467 0.353-0.282 0.705-0.564 1.058-0.847 0.056-0.042 0.169-0.071 0.212-0.028 0.056 0.028 0.099 0.141 0.071 0.212-0.324 1.425-0.663 2.836-1.002 4.261-0.014 0.042-0.028 0.071-0.056 0.141-0.79-0.677-1.481-1.425-2.116-2.272z"></path>
<path d="M3.485 7.619c-0.071 0.663-0.141 1.27-0.212 1.877-0.071 0.649-0.155 1.312-0.226 1.961-0.014 0.127-0.042 0.198-0.169 0.226s-0.226 0.127-0.367-0.014c-0.423-0.437-0.861-0.847-1.298-1.27-0.127-0.113-0.169-0.226-0.085-0.381 0.254-0.536 0.48-1.072 0.734-1.594 0.042-0.099 0.141-0.183 0.226-0.24 0.381-0.226 0.776-0.437 1.171-0.649 0.155-0.085 0.24-0.028 0.226 0.085z"></path>
<path d="M28.966 13.347c-0.155 0-0.296 0-0.451 0-1.369 0-2.737 0-4.106 0.014-0.169 0-0.24-0.042-0.296-0.212-0.212-0.79-0.55-1.524-0.988-2.215-0.014-0.028-0.042-0.071-0.071-0.141 2.004 0.847 3.965 1.679 5.926 2.511 0 0 0 0.028-0.014 0.042z"></path>
<path d="M29.009 6.25c-0.099-0.028-0.155-0.042-0.198-0.056-1.623-0.663-3.259-1.326-4.882-1.989-0.141-0.056-0.198-0.113-0.141-0.268 0 0 0-0.014 0-0.014-0.113-0.339 0.141-0.466 0.353-0.621 0.071-0.056 0.141-0.099 0.212-0.155 0.113-0.099 0.226-0.155 0.395-0.071 0.113 0.042 0.282 0.014 0.395-0.014 0.099-0.028 0.169-0.028 0.24 0.042 1.157 1.002 2.314 1.989 3.457 2.991 0.056 0.028 0.099 0.071 0.169 0.155z"></path>
<path d="M7.647 18.102c0.282 1.326 0.804 2.526 1.637 3.626-0.056 0.028-0.099 0.056-0.155 0.085-0.564 0.226-1.143 0.437-1.707 0.649-0.113 0.042-0.169 0.014-0.282-0.042-0.31-0.169-0.226-0.395-0.169-0.649 0.226-1.171 0.437-2.356 0.649-3.527 0.014-0.056 0.028-0.099 0.028-0.141z"></path>
<path d="M30.335 13.079c-0.212-1.905-0.423-3.81-0.635-5.714 0.014 0 0.028-0.014 0.042-0.014 0.028 0.042 0.071 0.085 0.099 0.141 0.353 0.72 0.72 1.439 1.072 2.159 0.042 0.099 0.056 0.24 0.028 0.339-0.169 0.974-0.353 1.947-0.536 2.935-0.014 0.056-0.028 0.099-0.028 0.155-0.014 0-0.028 0-0.042 0z"></path>
<path d="M21.841 1.058c0.917 0.282 1.778 0.677 2.526 1.115 0.014 0.24 0.028 0.423 0.042 0.607 0 0.042-0.014 0.113-0.056 0.141-0.099 0.099-0.226 0.169-0.339 0.254-0.183 0.155-0.353 0.296-0.607 0.071-0.085-0.071-0.268-0.028-0.395-0.056-0.056-0.014-0.155-0.028-0.169-0.071-0.339-0.663-0.663-1.355-1.002-2.060z"></path>
<path d="M11.33 23.577c-0.818-0.141-1.608-0.282-2.384-0.423-0.466-0.085-0.945-0.169-1.411-0.254-0.071-0.014-0.127-0.071-0.183-0.113 0.056-0.042 0.099-0.113 0.155-0.141 0.593-0.226 1.185-0.451 1.764-0.677 0.099-0.042 0.183-0.056 0.268 0.042 0.508 0.593 1.101 1.101 1.764 1.524-0.014-0.014 0 0 0.028 0.042z"></path>
<path d="M11.81 0.536c0.423-0.085 0.804-0.183 1.185-0.254 0.325-0.056 0.663-0.099 0.988-0.155 0.127-0.014 0.198 0.014 0.254 0.127 0.226 0.409 0.466 0.804 0.677 1.213 0.028 0.056 0.028 0.169-0.014 0.212s-0.155 0.071-0.212 0.056c-0.931-0.367-1.848-0.748-2.765-1.129-0.028 0-0.042-0.014-0.113-0.071z"></path>
<path d="M31.111 10.187c0.042 0.141 0.099 0.268 0.141 0.395 0.183 0.72 0.353 1.425 0.522 2.145 0.014 0.071-0.042 0.183-0.099 0.226-0.155 0.113-0.339 0.212-0.508 0.31-0.183 0.113-0.367 0.113-0.536-0.028-0.042-0.042-0.085-0.113-0.071-0.155 0.169-0.945 0.339-1.891 0.522-2.85-0.014-0.014 0-0.014 0.028-0.042z"></path>
<path d="M6.688 2.963c-0.945 1.27-1.891 2.54-2.836 3.795-0.014 0-0.028-0.014-0.056-0.014 0.028-0.268 0.071-0.536 0.071-0.79 0-0.423 0.198-0.72 0.494-1.016 0.72-0.734 1.481-1.397 2.328-1.975z"></path>
<path d="M14.377 0.085c0.55-0.028 1.086-0.056 1.679-0.085-0.085 0.24-0.141 0.423-0.212 0.607-0.099 0.254-0.183 0.508-0.282 0.762-0.014 0.056-0.099 0.113-0.155 0.113-0.113 0-0.24 0.099-0.325-0.042-0.226-0.423-0.466-0.832-0.691-1.256 0-0.014 0-0.042-0.014-0.099z"></path>
<path d="M13.771 31.817c-1.51-0.198-2.949-0.607-4.332-1.227 0.494 0.085 1.002 0.183 1.496 0.268 0.818 0.155 1.637 0.296 2.455 0.451 0.141 0.028 0.268 0.056 0.268 0.24 0.014 0.071 0.071 0.155 0.113 0.268z"></path>
<path d="M19.429 24.198c0.056 0.113 0.113 0.24 0.155 0.367 0.014 0.042-0.014 0.113-0.042 0.155-0.141 0.268-0.353 0.282-0.621 0.226-0.409-0.099-0.818-0.155-1.242-0.226 0.607-0.183 1.171-0.339 1.75-0.522z"></path>
<path d="M31.012 18.441c0.325 0 0.593 0 0.903 0-0.056 0.339-0.113 0.663-0.169 0.988-0.014 0-0.042 0.014-0.056 0.014-0.212-0.31-0.423-0.635-0.677-1.002z"></path>
<path d="M2.907 6.702c0.127 0.141 0.24 0.24 0.31 0.353 0.042 0.071 0.014 0.24-0.042 0.268-0.296 0.183-0.621 0.353-0.931 0.522-0.014-0.014-0.028-0.028-0.056-0.042 0.226-0.353 0.466-0.705 0.72-1.101z"></path>
<path d="M28.134 5.249c-0.903-0.79-1.82-1.566-2.723-2.356 0.014-0.014 0.028-0.028 0.042-0.042 0.988 0.677 1.891 1.467 2.681 2.399z"></path>
<path d="M0.056 14.843c0.056 1.101 0.113 2.187 0.169 3.287-0.028 0-0.056 0-0.085 0-0.141-1.086-0.183-2.187-0.085-3.287z"></path>
<path d="M3.697 5.771c-0.028 0.296-0.056 0.593-0.099 0.889-0.028 0.198-0.212 0.24-0.353 0.099-0.226-0.212-0.226-0.212-0.042-0.452 0.141-0.183 0.296-0.367 0.437-0.55 0.014 0 0.042 0.014 0.056 0.014z"></path>
<path d="M20.36 23.732c-0.099 0.282-0.169 0.522-0.268 0.748-0.028 0.042-0.127 0.085-0.198 0.085-0.226-0.014-0.183-0.24-0.268-0.367-0.014-0.028 0.071-0.127 0.127-0.169 0.183-0.099 0.367-0.183 0.607-0.296z"></path>
<path d="M28.374 26.427c0.071-0.268 0.155-0.536 0.226-0.804 0.042-0.155 0.155-0.127 0.254-0.127 0.042 0 0.141 0.028 0.141 0.042 0 0.071 0 0.169-0.042 0.226-0.169 0.24-0.353 0.466-0.536 0.691-0.028-0.014-0.042-0.028-0.042-0.028z"></path>
<path d="M15.563 31.972c-0.226-0.014-0.437-0.028-0.663-0.056-0.042 0-0.071-0.085-0.113-0.127 0.056-0.028 0.113-0.085 0.155-0.071 0.212 0.056 0.423 0.141 0.621 0.212 0.014 0.014 0.014 0.028 0 0.042z"></path>
<path d="M31.422 13.291c0.127-0.071 0.24-0.141 0.395-0.226 0.014 0.113 0.028 0.183 0.028 0.268-0.155 0-0.282 0-0.409 0 0-0.028 0-0.028-0.014-0.042z"></path>
<path d="M29.517 24.959c-0.127 0.169-0.226 0.325-0.367 0.522 0-0.183 0.24-0.508 0.367-0.522z"></path>
</svg>
