<?xml version="1.0" encoding="utf-8"?>
<!-- Generator: Adobe Illustrator 22.1.0, SVG Export Plug-In . SVG Version: 6.00 Build 0)  -->
<svg version="1.1" id="Layer_1" xmlns="http://www.w3.org/2000/svg" xmlns:xlink="http://www.w3.org/1999/xlink" x="0px" y="0px"
	 viewBox="0 0 226.8 226.8" style="enable-background:new 0 0 226.8 226.8;" xml:space="preserve">
<g>
	<path d="M138,181.6c-0.2,0.3-0.4,0.6-0.7,0.9c-10.4,11.3-20.9,22.6-31.3,33.9c-0.3,0.3-0.5,0.5-0.8,0.8c-0.7,1-1.4,1.4-2.7,0.8
		c-0.7-0.3-1.8-0.3-2.6,0c-1.1,0.4-1.6,0.1-2.3-0.7c-5.8-6.5-11.6-13-17.4-19.6c-8.9-10-17.8-20-26.7-30c-0.6-0.7-1.3-1.4-1.8-2.1
		c-0.3-0.4-0.4-1.1-0.2-1.4c0.3-0.4,1-0.7,1.4-0.6c10.2,1.8,20.3,3.6,30.5,5.4c0.7,0.1,1.4,0.4,2,0.7c11,5.3,22.6,7.3,34.8,6.1
		c1.5-0.1,3.1,0.3,4.6,0.5c3.5,0.6,7,1.3,10.5,1.8c1.2,0.2,1.9,0.5,2.1,1.8C137.3,180.4,137.7,180.9,138,181.6z"/>
	<path d="M145.6,59.4c2.1-0.4,4.3-0.9,6.4-1.3c17.1-3.3,34.3-6.5,51.4-9.8c1-0.2,1.7-0.1,2.4,0.8c0.6,0.8,1.6,1.4,2.6,1.8
		c0.7,0.3,1,0.6,1.1,1.4c1.5,13.3,2.9,26.6,4.4,39.9c0,0.4-0.4,1-0.7,1.3c-1.9,1.6-3.9,1.2-6.1,0.3c-14.5-6.2-29.1-12.4-43.6-18.6
		c-0.9-0.4-1.7-1-2.3-1.8c-4-5.1-8.8-9.4-14.3-12.9c-0.4-0.2-0.7-0.5-1.1-0.7C145.7,59.7,145.7,59.6,145.6,59.4z"/>
	<path d="M68,9.5c0.3,1.2,0.6,2.3,0.9,3.4c3.7,15.3,7.4,30.5,11.1,45.8c0.3,1.3-0.1,1.8-1,2.7c-2.5,2.4-5,2.3-8.2,1.4
		c-13.4-3.9-26.9-7.4-40.4-11.1c-1.7-0.5-2.3-2.4-1.3-3.8c7.1-9.5,14.2-19.1,21.3-28.6c0.3-0.4,0.6-0.9,1.1-1.1
		c5.2-2.8,10.5-5.6,15.7-8.4C67.4,9.6,67.6,9.6,68,9.5z"/>
	<path d="M39.2,199.5c0.5-2.1,0.9-3.9,1.3-5.7c2-8.5,4-17.1,6.1-25.6c0.1-0.6,0.6-1.4,1.1-1.5c1.1-0.3,2.1-1,3.4,0.4
		c15.2,17.2,30.5,34.2,45.8,51.3c0.5,0.5,0.9,1,0.4,1.8c-0.5,0.8-1,0.6-1.7,0.5c-11-2-22.1-4-33.1-6.1c-1.7-0.3-3.3-1.3-4.9-2.1
		c-6-3.2-11.6-7-16.9-11.3C40.1,200.6,39.6,199.9,39.2,199.5z"/>
	<path d="M53.7,102.3c-0.2,3.8-0.5,7.4-0.5,11c0,3.1,0.4,6.1,0.4,9.2c0,2.1-0.5,4.2-0.8,6.3c-1.6,9-3.3,18-4.9,27
		c-0.2,1-0.5,1.6-1.6,1.7c-0.3,0-0.7,0.1-0.9,0.3c-1.3,1.3-2.3,0.6-3.6-0.2c-11.2-7.2-22.4-14.4-33.6-21.5c-0.8-0.5-1.3-1-0.9-2
		c0-0.1,0.1-0.2,0-0.3c-0.7-2.2,0.8-3,2.3-4c14.3-8.9,28.5-17.8,42.7-26.7C52.8,102.8,53.2,102.6,53.7,102.3z"/>
	<path d="M162.1,216.5c-0.6,0.3-1.1,0.5-1.6,0.8c-12.6,5.3-25.8,8.2-39.5,9.1c-4.3,0.3-8.2-0.2-12.1-1.9c-0.3-0.2-0.7-0.3-1.1-0.4
		c-1.3-0.3-2.3-0.8-2.1-2.4c0-0.1,0-0.2-0.1-0.3c-1.3-1.8-0.1-2.9,1.1-4.2c10.4-11.2,20.7-22.4,31.1-33.7c0.7-0.7,1.2-1.2,2.3-0.6
		c0.5,0.3,1.1,0.4,1.6,0.2c1.3-0.4,1.9,0.3,2.5,1.4c5.5,9.9,11.1,19.8,16.6,29.6C161.3,214.9,161.7,215.6,162.1,216.5z"/>
	<path d="M201.8,180.6c-0.1,0.5-0.2,0.7-0.3,1c-0.3,1-0.7,2.1-0.9,3.1c-0.6,4-2.8,6.9-5.7,9.6c-9,8.6-19,15.7-30.2,21
		c-1.1,0.5-1.7,0.5-2.3-0.7c-5.8-10.4-11.6-20.8-17.4-31.1c-0.5-0.8-0.7-1.5,0.2-2.2c0.1-0.1,0.3-0.3,0.3-0.5c0.3-2,1.8-1.9,3.4-2
		c16.1-0.6,32.1-1.3,48.2-2c1.2-0.1,2.2,0,2.6,1.4c0.2,0.6,0.9,1,1.4,1.6C201.3,180.2,201.6,180.5,201.8,180.6z"/>
	<path d="M170.6,135.5c0.5,0.5,0.8,0.9,1.1,1.2c9.2,11.6,18.4,23.3,27.5,34.9c0.4,0.5,0.8,1.4,0.6,1.9c-0.3,1.1-0.8,2-2.5,2.1
		c-16.4,0.5-32.8,1.2-49.2,1.9c-1.3,0.1-1.9-0.5-2.9-1.3c-1.9-1.7-1-3.1-0.5-4.9c0.8-3,2.5-5.1,5.1-6.9c9.7-6.8,16.3-16.1,20.2-27.3
		C170.2,136.7,170.4,136.2,170.6,135.5z"/>
	<path d="M81.5,59.6c-0.9-3.5-1.7-6.9-2.5-10.3c-3.1-12.8-6.2-25.7-9.3-38.5c-0.5-2-0.5-2,1.4-2.7c3.1-1.1,6.1-2.2,9.2-3.2
		C81,4.7,81.9,4.7,82.5,5c6.9,2.8,13.8,5.6,20.7,8.4c0.9,0.4,1.2,0.8,1.3,1.8c0,1,0.6,2.1,1.2,2.9c0.4,0.6,0.6,1,0.2,1.7
		C99.7,31.9,93.4,44,87.2,56.1c-0.2,0.3-0.4,0.7-0.7,0.9C84.9,57.8,83.3,58.7,81.5,59.6z"/>
	<path d="M114.1,16.9c2.2,0.5,4.4,1,6.7,1.6c12.4,2.9,24.8,5.8,37.2,8.7c1.1,0.3,2.6,1.9,2.6,3c0,0.3-0.3,0.7-0.6,0.9
		c-7.8,7.7-15.5,15.4-23.4,23.1c-0.4,0.4-1.3,0.6-1.8,0.4c-2.5-0.6-4.9-1.3-7.3-2.1c-0.5-0.2-1.1-0.6-1.3-1.1
		c-4.8-10.5-9.5-21-14.2-31.5C111.5,19,112.9,16.8,114.1,16.9z"/>
	<path d="M137.2,55.5c2.7-2.7,5.2-5.3,7.8-7.8c5.2-5.2,10.5-10.3,15.7-15.6c0.7-0.7,1.3-1,2.3-0.6c1.3,0.5,2.7,0.3,3.9-0.7
		c0.7-0.6,1.3-0.6,2.1-0.2c11.6,4.8,23.2,9.5,34.8,14.2c0.5,0.2,0.8,0.8,1.2,1.3c-0.5,0.3-0.9,0.9-1.4,1
		c-18.9,3.6-37.9,7.2-56.8,10.9c-2.1,0.4-3.9,0.4-5.8-0.8C139.8,56.5,138.6,56.1,137.2,55.5z"/>
	<path d="M191,130.7c5.8,0,11.6,0,17.4,0c1.7,0,1.8,0.1,1.5,1.8c-2,12.5-4,25.1-5.9,37.6c-0.2,1.3-0.9,1.6-2,1.9
		c-1.1,0.3-1.4-0.3-1.8-0.9c-9.5-12-19-24.1-28.4-36.1c-0.7-0.9-0.7-3,0-3.8c0.3-0.3,0.9-0.4,1.4-0.4c5.9,0,11.8,0,17.7,0
		C191,130.8,191,130.8,191,130.7z"/>
	<path d="M2.6,138.4c1.2-0.6,2.1-1.2,3.2-1.5c0.4-0.1,1.1,0.1,1.5,0.3c7.2,4.5,14.3,9.1,21.5,13.7c4.4,2.8,8.8,5.6,13.2,8.4
		c0.7,0.5,1.1,0.9,0.8,1.8c-0.2,0.5-0.2,1.1,0,1.5c0.6,1.4,0,2.1-1,2.9c-6.3,4.9-12.6,9.9-18.8,14.9c-0.8,0.7-1.3,0.6-1.9-0.2
		c-8.4-11.7-14.3-24.6-17.7-38.6C3,140.5,2.8,139.4,2.6,138.4z"/>
	<path d="M54.5,99.3c-0.5,0.6-0.8,1.4-1.4,1.7c-15.2,9.5-30.5,19-45.8,28.5c-0.4,0.3-1.1,0.2-1.6,0.2c0-0.5-0.2-1.2-0.1-1.6
		c4.7-11.6,9.5-23.1,14.3-34.7c0.4-1,0.9-1.3,2-1.5c1.2-0.2,2.4-0.9,3.4-1.8c0.7-0.6,1.1-0.8,1.9-0.5c8.5,2.5,16.9,4.9,25.4,7.3
		c1.1,0.3,1.8,0.8,1.5,2.1C54.3,99.1,54.4,99.2,54.5,99.3z"/>
	<path d="M119.6,0.3c11.1,0.4,21.8,2.4,32.3,5.9c0.6,0.2,1.3,0.8,1.6,1.4c2.4,5,4.7,10,7.2,14.9c0.8,1.6-0.7,2.3-1,3.4
		c-0.1,0.2-1.2,0.3-1.7,0.2c-14.4-3.4-28.8-6.8-43.1-10.1c-0.8-0.2-1.1-0.6-1.4-1.3c-0.4-1-0.9-2-1.6-2.9c-0.5-0.5-0.6-0.9-0.4-1.6
		c1.1-3,2.2-5.9,3.3-8.9c0.3-0.9,0.8-1.2,1.7-1.1C117.5,0.2,118.6,0.2,119.6,0.3z"/>
	<path d="M74,65c-8.7,7.4-14.5,16.6-18,27.7c-9.4-13.4-18.7-26.5-27.9-39.6C29.2,52.7,69.9,63.3,74,65z"/>
	<path d="M124.9,52c-12.4-2-24.3-0.8-36,3.9c0.2-0.6,0.3-0.9,0.4-1.2C95.2,43.4,101,32,106.9,20.7c0.2-0.5,0.9-1,1.4-1
		c0.9,0.1,2-0.5,2.6,0.9c4.5,10.2,9.2,20.4,13.8,30.6C124.8,51.4,124.8,51.6,124.9,52z"/>
	<path d="M26.5,53.5c0.6,0.8,1,1.2,1.3,1.6C36.7,67.7,45.7,80.4,54.6,93c0.3,0.4,0.6,0.8,0.7,1.2c0.4,1.1-0.4,2-1.5,1.7
		c-8.8-2.6-17.6-5.1-26.4-7.7c-0.7-0.2-1.1-0.5-1.1-1.3c-0.1-1.6-1-2.9-2.3-3.6c-0.7-0.4-1-0.8-0.9-1.7c1-8.8,2-17.5,3-26.3
		C26.1,54.8,26.3,54.4,26.5,53.5z"/>
	<path d="M3.2,128.3c-0.1-1.8-0.3-3.6-0.4-5.4c-0.5-9-0.9-18.1-1.3-27.1c-0.1-1.7,0.3-3.5,0.7-5.2C3.6,85.2,5,79.7,6.5,74
		c0.6,0.4,0.8,0.5,1,0.7c3.1,3,6.2,6,9.3,8.9c0.7,0.6,0.9,1.2,0.5,2.1c-0.8,1.8-0.3,3.5,1,4.8c0.7,0.7,0.7,1.4,0.4,2.2
		c-4.8,11.4-9.5,22.8-14.2,34.2c-0.2,0.5-0.6,1-0.8,1.5C3.5,128.4,3.3,128.4,3.2,128.3z"/>
	<path d="M215.1,130.6c2.5-0.6,4,0.5,5.2,2.7c1,1.9,2.5,3.6,3.6,5.4c0.4,0.6,0.6,1.5,0.4,2.2c-2.7,12-7.2,23.2-13.7,33.6
		c-0.3,0.5-1.1,0.9-1.6,1c-0.4,0-0.9-0.7-1.3-1.1c-0.7-0.7-1.2-1.6-2-2.1c-0.7-0.5-0.8-0.9-0.7-1.6c2-12.7,4-25.4,6-38.1
		c0.2-1.4,0.7-2,2.1-1.8C213.8,130.8,214.4,130.6,215.1,130.6z"/>
	<path d="M22.7,182.4c4.4-3.5,8.7-7,13-10.4c2.5-2,5-4,7.5-6c0.4-0.3,1.2-0.5,1.5-0.2c0.4,0.2,0.7,1,0.5,1.5
		c-2.3,10.1-4.7,20.1-7.1,30.2c-0.1,0.3-0.2,0.5-0.4,1C32.1,193.7,27.2,188.4,22.7,182.4z"/>
	<path d="M24.7,54c-0.5,4.7-1,9-1.5,13.3c-0.5,4.6-1.1,9.3-1.6,13.9c-0.1,0.9-0.3,1.4-1.2,1.6c-0.9,0.2-1.6,0.9-2.6-0.1
		c-3-3.1-6.1-6-9.2-9C7.7,72.9,7.4,72.1,8,71c1.8-3.8,3.4-7.6,5.2-11.3c0.3-0.7,1-1.3,1.6-1.7c2.7-1.6,5.5-3.1,8.3-4.6
		C24.2,52.8,24.8,53.2,24.7,54z"/>
	<path d="M205.3,94.6c-1.1,0-2.1,0-3.2,0c-9.7,0-19.4,0-29.1,0.1c-1.2,0-1.7-0.3-2.1-1.5c-1.5-5.6-3.9-10.8-7-15.7
		c-0.1-0.2-0.3-0.5-0.5-1c14.2,6,28.1,11.9,42,17.8C205.4,94.3,205.4,94.5,205.3,94.6z"/>
	<path d="M205.6,44.3c-0.7-0.2-1.1-0.3-1.4-0.4c-11.5-4.7-23.1-9.4-34.6-14.1c-1-0.4-1.4-0.8-1-1.9c0,0,0-0.1,0-0.1
		c-0.8-2.4,1-3.3,2.5-4.4c0.5-0.4,1-0.7,1.5-1.1c0.8-0.7,1.6-1.1,2.8-0.5c0.8,0.3,2,0.1,2.8-0.1c0.7-0.2,1.2-0.2,1.7,0.3
		c8.2,7.1,16.4,14.1,24.5,21.2C204.8,43.4,205.1,43.7,205.6,44.3z"/>
	<path d="M54.2,128.3c2,9.4,5.7,17.9,11.6,25.7c-0.4,0.2-0.7,0.4-1.1,0.6c-4,1.6-8.1,3.1-12.1,4.6c-0.8,0.3-1.2,0.1-2-0.3
		c-2.2-1.2-1.6-2.8-1.2-4.6c1.6-8.3,3.1-16.7,4.6-25C54.1,128.9,54.2,128.6,54.2,128.3z"/>
	<path d="M215,92.7c-1.5-13.5-3-27-4.5-40.5c0.1,0,0.2-0.1,0.3-0.1c0.2,0.3,0.5,0.6,0.7,1c2.5,5.1,5.1,10.2,7.6,15.3
		c0.3,0.7,0.4,1.7,0.2,2.4c-1.2,6.9-2.5,13.8-3.8,20.8c-0.1,0.4-0.2,0.7-0.2,1.1C215.2,92.7,215.1,92.7,215,92.7z"/>
	<path d="M154.8,7.5c6.5,2,12.6,4.8,17.9,7.9c0.1,1.7,0.2,3,0.3,4.3c0,0.3-0.1,0.8-0.4,1c-0.7,0.7-1.6,1.2-2.4,1.8
		c-1.3,1.1-2.5,2.1-4.3,0.5c-0.6-0.5-1.9-0.2-2.8-0.4c-0.4-0.1-1.1-0.2-1.2-0.5C159.5,17.4,157.2,12.5,154.8,7.5z"/>
	<path d="M80.3,167.1c-5.8-1-11.4-2-16.9-3c-3.3-0.6-6.7-1.2-10-1.8c-0.5-0.1-0.9-0.5-1.3-0.8c0.4-0.3,0.7-0.8,1.1-1
		c4.2-1.6,8.4-3.2,12.5-4.8c0.7-0.3,1.3-0.4,1.9,0.3c3.6,4.2,7.8,7.8,12.5,10.8C80,166.7,80.1,166.8,80.3,167.1z"/>
	<path d="M83.7,3.8c3-0.6,5.7-1.3,8.4-1.8c2.3-0.4,4.7-0.7,7-1.1c0.9-0.1,1.4,0.1,1.8,0.9c1.6,2.9,3.3,5.7,4.8,8.6
		c0.2,0.4,0.2,1.2-0.1,1.5c-0.3,0.3-1.1,0.5-1.5,0.4c-6.6-2.6-13.1-5.3-19.6-8C84.3,4.3,84.2,4.2,83.7,3.8z"/>
	<path d="M220.5,72.2c0.3,1,0.7,1.9,1,2.8c1.3,5.1,2.5,10.1,3.7,15.2c0.1,0.5-0.3,1.3-0.7,1.6c-1.1,0.8-2.4,1.5-3.6,2.2
		c-1.3,0.8-2.6,0.8-3.8-0.2c-0.3-0.3-0.6-0.8-0.5-1.1c1.2-6.7,2.4-13.4,3.7-20.2C220.2,72.4,220.3,72.4,220.5,72.2z"/>
	<path d="M47.4,21C40.7,30,34,39,27.3,47.9c-0.1,0-0.2-0.1-0.4-0.1c0.2-1.9,0.5-3.8,0.5-5.6c0-3,1.4-5.1,3.5-7.2
		C36,29.8,41.4,25.1,47.4,21z"/>
	<path d="M101.9,0.6c3.9-0.2,7.7-0.4,11.9-0.6c-0.6,1.7-1,3-1.5,4.3c-0.7,1.8-1.3,3.6-2,5.4c-0.1,0.4-0.7,0.8-1.1,0.8
		c-0.8,0-1.7,0.7-2.3-0.3c-1.6-3-3.3-5.9-4.9-8.9C102,1.2,102,1,101.9,0.6z"/>
	<path d="M97.6,225.5c-10.7-1.4-20.9-4.3-30.7-8.7c3.5,0.6,7.1,1.3,10.6,1.9c5.8,1.1,11.6,2.1,17.4,3.2c1,0.2,1.9,0.4,1.9,1.7
		C96.9,224.1,97.3,224.7,97.6,225.5z"/>
	<path d="M137.7,171.5c0.4,0.8,0.8,1.7,1.1,2.6c0.1,0.3-0.1,0.8-0.3,1.1c-1,1.9-2.5,2-4.4,1.6c-2.9-0.7-5.8-1.1-8.8-1.6
		C129.6,173.9,133.6,172.8,137.7,171.5z"/>
	<path d="M219.8,130.7c2.3,0,4.2,0,6.4,0c-0.4,2.4-0.8,4.7-1.2,7c-0.1,0-0.3,0.1-0.4,0.1C223.1,135.6,221.6,133.3,219.8,130.7z"/>
	<path d="M20.6,47.5c0.9,1,1.7,1.7,2.2,2.5c0.3,0.5,0.1,1.7-0.3,1.9c-2.1,1.3-4.4,2.5-6.6,3.7c-0.1-0.1-0.2-0.2-0.4-0.3
		C17.1,52.8,18.8,50.3,20.6,47.5z"/>
	<path d="M199.4,37.2c-6.4-5.6-12.9-11.1-19.3-16.7c0.1-0.1,0.2-0.2,0.3-0.3C187.4,25,193.8,30.6,199.4,37.2z"/>
	<path d="M0.4,105.2c0.4,7.8,0.8,15.5,1.2,23.3c-0.2,0-0.4,0-0.6,0C0,120.8-0.3,113,0.4,105.2z"/>
	<path d="M26.2,40.9c-0.2,2.1-0.4,4.2-0.7,6.3c-0.2,1.4-1.5,1.7-2.5,0.7c-1.6-1.5-1.6-1.5-0.3-3.2c1-1.3,2.1-2.6,3.1-3.9
		C25.9,40.8,26.1,40.9,26.2,40.9z"/>
	<path d="M144.3,168.2c-0.7,2-1.2,3.7-1.9,5.3c-0.2,0.3-0.9,0.6-1.4,0.6c-1.6-0.1-1.3-1.7-1.9-2.6c-0.1-0.2,0.5-0.9,0.9-1.2
		C141.3,169.6,142.6,169,144.3,168.2z"/>
	<path d="M201.1,187.3c0.5-1.9,1.1-3.8,1.6-5.7c0.3-1.1,1.1-0.9,1.8-0.9c0.3,0,1,0.2,1,0.3c0,0.5,0,1.2-0.3,1.6
		c-1.2,1.7-2.5,3.3-3.8,4.9C201.2,187.4,201.1,187.3,201.1,187.3z"/>
	<path d="M110.3,226.6c-1.6-0.1-3.1-0.2-4.7-0.4c-0.3,0-0.5-0.6-0.8-0.9c0.4-0.2,0.8-0.6,1.1-0.5c1.5,0.4,3,1,4.4,1.5
		C110.4,226.4,110.4,226.5,110.3,226.6z"/>
	<path d="M222.7,94.2c0.9-0.5,1.7-1,2.8-1.6c0.1,0.8,0.2,1.3,0.2,1.9c-1.1,0-2,0-2.9,0C222.8,94.3,222.8,94.3,222.7,94.2z"/>
	<path d="M209.2,176.9c-0.9,1.2-1.6,2.3-2.6,3.7C206.6,179.3,208.3,177,209.2,176.9z"/>
</g>
</svg>
