<!-- Generated by IcoMoon.io -->
<svg version="1.1" xmlns="http://www.w3.org/2000/svg" width="32" height="32" viewBox="0 0 32 32">
<title>CPX</title>
<path d="M31.309 28.783c-5.093-6.335-10.173-12.67-15.436-19.231-5.164 6.462-10.215 12.783-15.266 19.104-0.155-0.056-0.31-0.099-0.466-0.155 0.226-2.554-0.931-5.15 1.072-7.647 4.882-6.067 9.608-12.247 14.575-18.582 0.621 0.649 1.228 1.199 1.721 1.834 4.233 5.418 8.395 10.878 12.684 16.24 1.185 1.481 1.792 2.949 1.608 4.825-0.113 1.129-0.014 2.272-0.014 3.4-0.169 0.085-0.325 0.141-0.48 0.212z"></path>
<path d="M19.076 20.868c0 1.933-1.693 3.57-3.64 3.527-1.792-0.042-3.316-1.707-3.33-3.64-0.014-1.989 1.566-3.612 3.485-3.584 2.018 0.042 3.485 1.608 3.485 3.697z"></path>
</svg>
