<?xml version="1.0" encoding="utf-8"?>
<!-- Generator: Adobe Illustrator 22.1.0, SVG Export Plug-In . SVG Version: 6.00 Build 0)  -->
<svg version="1.1" id="Layer_1" xmlns="http://www.w3.org/2000/svg" xmlns:xlink="http://www.w3.org/1999/xlink" x="0px" y="0px"
	 viewBox="0 0 226.8 226.8" style="enable-background:new 0 0 226.8 226.8;" xml:space="preserve">
<g>
	<path d="M221.9,204c-36.1-44.9-72.1-89.8-109.4-136.3C75.9,113.5,40.1,158.3,4.3,203.1c-1.1-0.4-2.2-0.7-3.3-1.1
		c1.6-18.1-6.6-36.5,7.6-54.2c34.6-43,68.1-86.8,103.3-131.7c4.4,4.6,8.7,8.5,12.2,13c30,38.4,59.5,77.1,89.9,115.1
		c8.4,10.5,12.7,20.9,11.4,34.2c-0.8,8-0.1,16.1-0.1,24.1C224.1,203.1,223,203.5,221.9,204z"/>
	<path d="M135.2,147.9c0,13.7-12,25.3-25.8,25c-12.7-0.3-23.5-12.1-23.6-25.8c-0.1-14.1,11.1-25.6,24.7-25.4
		C124.8,122,135.2,133.1,135.2,147.9z"/>
</g>
</svg>
