<?xml version="1.0" encoding="utf-8"?>
<!-- Generator: Adobe Illustrator 22.0.1, SVG Export Plug-In . SVG Version: 6.00 Build 0)  -->
<svg version="1.1" id="Layer_1" xmlns="http://www.w3.org/2000/svg" xmlns:xlink="http://www.w3.org/1999/xlink" x="0px" y="0px"
	 viewBox="0 0 250 250" style="enable-background:new 0 0 250 250;" xml:space="preserve">
<style type="text/css">
	.st0{stroke:#FFFFFF;stroke-miterlimit:10;}
</style>
<g>
	<path class="st0" d="M125,19C66.4,19,19,66.5,19,125c0,58.6,47.5,106,106,106c58.6,0,106-47.5,106-106C231,66.5,183.5,19,125,19z
		 M125,210.6c-47.2,0-85.5-38.3-85.5-85.5c0-47.2,38.3-85.5,85.5-85.5c36.6,0,67.8,23,80,55.3h-36.9c-9.5-13.6-25.3-22.4-43.1-22.4
		c-29.1,0-52.7,23.6-52.7,52.7c0,29.1,23.6,52.7,52.7,52.7c17.2,0,32.5-8.2,42.1-21h37.4C191.9,188.3,161,210.6,125,210.6z
		 M157.4,125c0,17.9-14.5,32.4-32.4,32.4c-17.9,0-32.4-14.5-32.4-32.4c0-17.9,14.5-32.4,32.4-32.4C142.9,92.6,157.4,107.1,157.4,125
		z"/>
	<path class="st0" d="M125,0C56,0,0,56,0,125s56,125,125,125c69,0,125-56,125-125S194,0,125,0z M125,241.2
		c-64.2,0-116.2-52-116.2-116.2S60.8,8.8,125,8.8c64.2,0,116.2,52,116.2,116.2C241.2,189.2,189.2,241.2,125,241.2z"/>
</g>
</svg>
