<!-- Generated by IcoMoon.io -->
<svg version="1.1" xmlns="http://www.w3.org/2000/svg" width="32" height="32" viewBox="0 0 32 32">
<title>CRB</title>
<path d="M16 2.432c-7.501 0-13.568 6.080-13.568 13.568 0 7.501 6.080 13.568 13.568 13.568 7.501 0 13.568-6.080 13.568-13.568s-6.080-13.568-13.568-13.568zM16 26.957c-6.042 0-10.944-4.902-10.944-10.944s4.902-10.944 10.944-10.944c4.685 0 8.678 2.944 10.24 7.078h-4.723c-1.216-1.741-3.238-2.867-5.517-2.867-3.725 0-6.746 3.021-6.746 6.746s3.021 6.746 6.746 6.746c2.202 0 4.16-1.050 5.389-2.688h4.787c-1.613 4.019-5.568 6.874-10.176 6.874zM20.147 16c0 2.291-1.856 4.147-4.147 4.147s-4.147-1.856-4.147-4.147c0-2.291 1.856-4.147 4.147-4.147s4.147 1.856 4.147 4.147z"></path>
<path d="M16 0c-8.832 0-16 7.168-16 16s7.168 16 16 16c8.832 0 16-7.168 16-16s-7.168-16-16-16zM16 30.874c-8.218 0-14.874-6.656-14.874-14.874s6.656-14.874 14.874-14.874c8.218 0 14.874 6.656 14.874 14.874s-6.656 14.874-14.874 14.874z"></path>
</svg>
