<?xml version="1.0" encoding="utf-8"?>
<!-- Generator: Adobe Illustrator 22.1.0, SVG Export Plug-In . SVG Version: 6.00 Build 0)  -->
<svg version="1.1" id="Layer_1" xmlns="http://www.w3.org/2000/svg" xmlns:xlink="http://www.w3.org/1999/xlink" x="0px" y="0px"
	 viewBox="0 0 226.8 226.8" style="enable-background:new 0 0 226.8 226.8;" xml:space="preserve">
<g>
	<path d="M140.7,6c0.3-2.4,0.4-4.1,0.7-6c8.5,0,16.7,0,25.3,0c0,14.9,0,29.4,0,44.3c-8.2,2.4-16.3,4.8-24.9,7.3
		c-0.3-2.2-0.5-3.8-0.8-5.5c-1.3-6.9-5.1-11.5-12-13.6c-16.6-5-31.4,3.8-34.6,20.8c-0.6,3.4-1.1,6.9-1.1,10.4
		c-0.1,18.3-0.1,36.6-0.1,54.9c0,1.9,0.1,3.9,0.2,5.8c0.8,11.2,2.4,12.4,13.3,10.7c19.8-3.2,39.6-6.3,60.2-9.5
		c0,8.9,0.1,17.6-0.1,26.2c0,0.9-1.9,2.4-3.1,2.6c-24.7,4.3-49.3,9-74.2,12.4c-12.2,1.7-19.2-4.3-22.8-16.3
		c-1.4-4.8-2.6-9.9-2.6-14.9c-0.3-27-0.3-54.1-0.1-81.1c0-5,1.1-10.1,2.3-14.9C76,1.9,113.2-5.3,135.9,4
		C137.3,4.6,138.7,5.2,140.7,6z"/>
	<path d="M68.6,226.8c0-7.8-0.1-15,0.1-22.1c0-1.2,1.6-3.2,2.7-3.4c31.6-5.4,63.2-10.5,95.2-15.8c0,8.6,0,16.6,0,25.2
		C134.2,215.9,101.9,221.3,68.6,226.8z"/>
</g>
</svg>
