<!-- Generated by IcoMoon.io -->
<svg version="1.1" xmlns="http://www.w3.org/2000/svg" width="32" height="32" viewBox="0 0 32 32">
<title>CREDO</title>
<path d="M19.852 0.847c0.042-0.339 0.056-0.578 0.099-0.847 1.199 0 2.356 0 3.57 0 0 2.102 0 4.148 0 6.25-1.157 0.339-2.3 0.677-3.513 1.030-0.042-0.31-0.071-0.536-0.113-0.776-0.183-0.974-0.72-1.623-1.693-1.919-2.342-0.705-4.43 0.536-4.882 2.935-0.085 0.48-0.155 0.974-0.155 1.467-0.014 2.582-0.014 5.164-0.014 7.746 0 0.268 0.014 0.55 0.028 0.818 0.113 1.58 0.339 1.75 1.877 1.51 2.794-0.451 5.587-0.889 8.494-1.34 0 1.256 0.014 2.483-0.014 3.697 0 0.127-0.268 0.339-0.437 0.367-3.485 0.607-6.956 1.27-10.469 1.75-1.721 0.24-2.709-0.607-3.217-2.3-0.198-0.677-0.367-1.397-0.367-2.102-0.042-3.81-0.042-7.633-0.014-11.443 0-0.705 0.155-1.425 0.325-2.102 1.369-5.319 6.617-6.335 9.82-5.023 0.198 0.085 0.395 0.169 0.677 0.282z"></path>
<path d="M9.679 32c0-1.101-0.014-2.116 0.014-3.118 0-0.169 0.226-0.451 0.381-0.48 4.459-0.762 8.917-1.481 13.432-2.229 0 1.213 0 2.342 0 3.556-4.571 0.734-9.129 1.496-13.827 2.272z"></path>
</svg>
