<!-- Generated by IcoMoon.io -->
<svg version="1.1" xmlns="http://www.w3.org/2000/svg" width="32" height="32" viewBox="0 0 32 32">
<title>CRPT</title>
<path d="M29.248 25.485c0.269 0.282 0.474 0.512 0.678 0.73-3.2 4.262-9.843 7.13-16.627 5.146-6.81-1.984-11.546-8.179-11.507-15.475 0.038-7.552 5.005-13.171 11.149-15.13 6.899-2.189 13.606 0.653 16.973 4.992-0.205 0.218-0.422 0.448-0.704 0.742-3.738-4.134-8.32-5.978-13.824-5.133-3.814 0.589-6.925 2.522-9.306 5.555-4.8 6.093-4.019 14.835 1.766 20.096 6.067 5.517 15.77 5.133 21.402-1.523z"></path>
<path d="M25.651 10.074c-0.179 0.192-0.307 0.346-0.461 0.486-0.077 0.077-0.179 0.141-0.269 0.205-4.25-5.018-10.47-3.994-13.517-0.768-3.2 3.405-3.162 8.73 0.077 12.122 3.123 3.264 9.331 4.096 13.517-0.922 0.192 0.269 0.384 0.538 0.576 0.806-1.216 2.214-5.478 4.71-9.869 3.712-4.314-0.973-7.539-4.659-7.821-8.986-0.294-4.493 2.381-8.55 6.63-10.048 4.019-1.421 8.704-0.013 11.136 3.392z"></path>
<path d="M25.293 25.254c0.256 0.243 0.486 0.461 0.704 0.678-2.88 2.867-8.589 4.173-13.414 2.086-4.531-1.971-8.154-7.117-7.731-11.098 0.307 0 0.614 0 0.986 0 0.589 4.634 2.867 8.128 7.206 9.997 4.301 1.843 8.384 1.178 12.25-1.664z"></path>
<path d="M5.901 15.13c-0.358 0-0.653 0-0.922 0-0.653-2.918 2.432-8.077 6.093-10.266 4.723-2.829 10.842-2.368 14.989 1.178-0.23 0.243-0.461 0.486-0.717 0.755-3.802-2.803-7.898-3.52-12.237-1.651-4.326 1.843-6.592 5.299-7.206 9.984z"></path>
<path d="M26.381 7.795c0.243-0.282 0.461-0.525 0.717-0.819 0.294 0.32 0.512 0.55 0.781 0.845-0.256 0.269-0.486 0.512-0.768 0.819-0.269-0.307-0.486-0.563-0.73-0.845z"></path>
<path d="M27.098 23.437c0.282 0.269 0.512 0.486 0.794 0.755-0.243 0.294-0.461 0.538-0.717 0.845-0.294-0.269-0.512-0.486-0.806-0.755 0.243-0.282 0.461-0.538 0.73-0.845z"></path>
</svg>
