<?xml version="1.0" encoding="utf-8"?>
<!-- Generator: Adobe Illustrator 22.1.0, SVG Export Plug-In . SVG Version: 6.00 Build 0)  -->
<svg version="1.1" id="Layer_1" xmlns="http://www.w3.org/2000/svg" xmlns:xlink="http://www.w3.org/1999/xlink" x="0px" y="0px"
	 viewBox="0 0 250 250" style="enable-background:new 0 0 250 250;" xml:space="preserve">
<g>
	<g>
		<path d="M228.5,199.1c2.1,2.2,3.7,4,5.3,5.7c-25,33.3-76.9,55.7-129.9,40.2C50.7,229.5,13.7,181.1,14,124.1
			C14.3,65.1,53.1,21.2,101.1,5.9c53.9-17.1,106.3,5.1,132.6,39c-1.6,1.7-3.3,3.5-5.5,5.8c-29.2-32.3-65-46.7-108-40.1
			C90.4,15.2,66.1,30.3,47.5,54C10,101.6,16.1,169.9,61.3,211C108.7,254.1,184.5,251.1,228.5,199.1z"/>
		<path d="M200.4,78.7c-1.4,1.5-2.4,2.7-3.6,3.8c-0.6,0.6-1.4,1.1-2.1,1.6c-33.2-39.2-81.8-31.2-105.6-6
			c-25,26.6-24.7,68.2,0.6,94.7c24.4,25.5,72.9,32,105.6-7.2c1.5,2.1,3,4.2,4.5,6.3c-9.5,17.3-42.8,36.8-77.1,29
			c-33.7-7.6-58.9-36.4-61.1-70.2c-2.3-35.1,18.6-66.8,51.8-78.5C144.8,41.1,181.4,52.1,200.4,78.7z"/>
		<path d="M197.6,197.3c2,1.9,3.8,3.6,5.5,5.3C180.6,225,136,235.2,98.3,218.9c-35.4-15.4-63.7-55.6-60.4-86.7c2.4,0,4.8,0,7.7,0
			c4.6,36.2,22.4,63.5,56.3,78.1C135.5,224.7,167.4,219.5,197.6,197.3z"/>
		<path d="M46.1,118.2c-2.8,0-5.1,0-7.2,0c-5.1-22.8,19-63.1,47.6-80.2c36.9-22.1,84.7-18.5,117.1,9.2c-1.8,1.9-3.6,3.8-5.6,5.9
			c-29.7-21.9-61.7-27.5-95.6-12.9C68.6,54.6,50.9,81.6,46.1,118.2z"/>
		<path d="M206.1,60.9c1.9-2.2,3.6-4.1,5.6-6.4c2.3,2.5,4,4.3,6.1,6.6c-2,2.1-3.8,4-6,6.4C209.7,65.1,208,63.1,206.1,60.9z"/>
		<path d="M211.7,183.1c2.2,2.1,4,3.8,6.2,5.9c-1.9,2.3-3.6,4.2-5.6,6.6c-2.3-2.1-4-3.8-6.3-5.9
			C207.9,187.5,209.6,185.5,211.7,183.1z"/>
	</g>
</g>
</svg>
