<?xml version="1.0" encoding="utf-8"?>
<!-- Generator: Adobe Illustrator 22.1.0, SVG Export Plug-In . SVG Version: 6.00 Build 0)  -->
<svg version="1.1" id="Layer_1" xmlns="http://www.w3.org/2000/svg" xmlns:xlink="http://www.w3.org/1999/xlink" x="0px" y="0px"
	 viewBox="0 0 226.8 226.8" style="enable-background:new 0 0 226.8 226.8;" xml:space="preserve">
<g>
	<path d="M134.8,75.5c26.6,35.8,58.6,24.5,92,9.5c-0.8,2.2-1.1,3.8-1.9,5c-16.5,26.9-33.1,53.8-49.4,80.7c-2.6,4.3-4.9,5.1-9.7,2.9
		c-22.9-10.8-47.2-12.9-72-9c-6.3,1-9.6-0.6-10.8-7.9c28.8-6.1,56.9-3.9,85.3,7c12-19.2,24.1-38.6,37.1-59.5
		c-5.6,1.1-9.6,1.7-13.6,2.6c-24,5.7-43.2-2.8-59.4-20.2C128.9,82.9,129.1,81.9,134.8,75.5z"/>
	<path d="M22.7,104.5c14.5,23.4,28,45.3,41.6,67.1c-5.1,4.8-8.5,4.9-12.4-1.6C35.1,142.1,18,114.5,0,85.1c3.6,1.3,5.4,2,7.3,2.7
		c9.9,3.4,19.6,7.6,29.8,10c18.7,4.4,35.7,0.1,48.6-14.3C96,72,104.9,59.2,114.5,46.7c4.4,4.2,5.6,9.1,0.8,14.8
		c-9.4,11-17.9,23-28.5,32.6c-14.1,12.9-31.7,16.3-50.6,12.7C32.4,106.1,28.5,105.5,22.7,104.5z"/>
</g>
</svg>
