<!-- Generated by IcoMoon.io -->
<svg version="1.1" xmlns="http://www.w3.org/2000/svg" width="32" height="32" viewBox="0 0 32 32">
<title>CRW</title>
<path d="M19.019 10.653c3.753 5.051 8.268 3.457 12.981 1.34-0.113 0.31-0.155 0.536-0.268 0.705-2.328 3.795-4.67 7.591-6.97 11.386-0.367 0.607-0.691 0.72-1.369 0.409-3.231-1.524-6.66-1.82-10.159-1.27-0.889 0.141-1.354-0.085-1.524-1.115 4.064-0.861 8.028-0.55 12.035 0.988 1.693-2.709 3.4-5.446 5.235-8.395-0.79 0.155-1.355 0.24-1.919 0.367-3.386 0.804-6.095-0.395-8.381-2.85-0.494-0.522-0.466-0.663 0.339-1.566z"></path>
<path d="M3.203 14.744c2.046 3.302 3.951 6.392 5.87 9.467-0.72 0.677-1.199 0.691-1.75-0.226-2.37-3.936-4.783-7.831-7.323-11.979 0.508 0.183 0.762 0.282 1.030 0.381 1.397 0.48 2.765 1.072 4.205 1.411 2.638 0.621 5.037 0.014 6.857-2.018 1.453-1.623 2.709-3.429 4.064-5.192 0.621 0.593 0.79 1.284 0.113 2.088-1.326 1.552-2.526 3.245-4.021 4.6-1.989 1.82-4.473 2.3-7.139 1.792-0.536-0.099-1.086-0.183-1.905-0.325z"></path>
</svg>
