<!-- Generated by IcoMoon.io -->
<svg version="1.1" xmlns="http://www.w3.org/2000/svg" width="32" height="32" viewBox="0 0 32 32">
<title>CRYPTOX</title>
<path d="M27.132 2.794v0c-1.143-0.847-2.765-0.607-3.598 0.522l-7.111 9.566-7.111-9.552c-0.847-1.143-2.469-1.383-3.598-0.522v0c-1.143 0.847-1.383 2.469-0.536 3.598l8.042 10.822-8.042 10.822c-0.847 1.143-0.607 2.751 0.536 3.598v0c1.143 0.847 2.765 0.607 3.598-0.536l7.111-9.566 7.111 9.566c0.847 1.143 2.469 1.383 3.598 0.536v0c1.143-0.847 1.383-2.469 0.522-3.598l-8.028-10.836 8.028-10.808c0.861-1.143 0.621-2.765-0.522-3.612z"></path>
<path d="M26.286 0.353v0c-1.143-0.847-2.765-0.607-3.598 0.536l-7.111 9.566-7.111-9.566c-0.847-1.143-2.469-1.383-3.598-0.536v0c-1.143 0.847-1.383 2.469-0.522 3.598l8.028 10.822-8.028 10.822c-0.847 1.143-0.607 2.765 0.522 3.598v0c1.143 0.847 2.765 0.607 3.598-0.522l7.111-9.566 7.111 9.566c0.847 1.143 2.469 1.383 3.598 0.522v0c1.143-0.847 1.383-2.469 0.536-3.598l-8.042-10.822 8.042-10.822c0.847-1.129 0.607-2.751-0.536-3.598z"></path>
</svg>
