<!-- Generated by IcoMoon.io -->
<svg version="1.1" xmlns="http://www.w3.org/2000/svg" width="32" height="32" viewBox="0 0 32 32">
<title>CRYPTSY</title>
<path d="M6.914 14.067c0.804-0.847 1.383-0.903 1.877-0.226 0.24-0.141 0.451-0.31 0.705-0.409 0.409-0.155 0.649-0.042 0.818 0.353 0.282 0.649 0.55 1.312 0.818 1.961 0.042 0.099 0.085 0.198 0.169 0.381 0.155-0.494 0.282-0.917 0.423-1.34 0.099-0.339 0.198-0.677 0.31-1.016 0.113-0.353 0.296-0.466 0.649-0.367 0.169 0.042 0.339 0.127 0.494 0.226 0.339 0.226 0.395 0.423 0.24 0.818-0.55 1.397-1.115 2.808-1.665 4.205-0.423 1.086-1.171 1.481-2.342 1.453-0.24 0-0.466-0.071-0.55-0.325-0.099-0.282-0.113-0.578 0.071-0.818 0.099-0.113 0.325-0.141 0.494-0.169 0.564-0.056 0.959-0.353 1.058-0.861 0.028-0.141 0.028-0.31-0.028-0.437-0.508-1.030-1.030-2.060-1.538-3.090-0.014-0.042-0.056-0.056-0.127-0.127-0.155 0.423-0.48 0.466-0.847 0.48-0.437 0.014-0.762 0.325-0.889 0.818-0.056 0.198-0.085 0.409-0.085 0.607-0.014 0.409 0 0.818 0 1.227 0 0.31-0.099 0.48-0.409 0.55-0.226 0.056-0.48 0.056-0.705 0-0.282-0.056-0.409-0.254-0.409-0.55 0-1.115 0-2.243 0-3.358 0-0.296 0.141-0.466 0.423-0.536 0.522-0.127 0.903 0.056 1.044 0.55z"></path>
<path d="M0.155 14.547c0-0.508-0.014-1.030 0-1.538 0.014-0.959 0.607-1.665 1.524-1.891 0.635-0.155 1.27-0.113 1.891 0.099 0.847 0.296 1.298 0.959 1.27 1.82-0.014 0.381-0.141 0.536-0.522 0.607-0.141 0.028-0.296 0.028-0.437 0.014-0.409-0.056-0.508-0.169-0.564-0.593-0.056-0.437-0.31-0.677-0.748-0.691-0.593-0.014-0.875 0.24-0.875 0.832-0.014 0.917-0.014 1.82 0 2.737 0 0.508 0.282 0.79 0.734 0.804 0.536 0.028 0.818-0.198 0.889-0.734 0.028-0.24 0.028-0.494 0.325-0.578 0.339-0.099 0.691-0.141 0.988 0.056 0.113 0.085 0.198 0.282 0.212 0.437 0.071 0.818-0.254 1.453-0.988 1.834-0.818 0.423-1.679 0.437-2.526 0.099-0.734-0.282-1.086-0.889-1.143-1.651-0.056-0.55-0.028-1.115-0.028-1.665 0 0 0 0 0 0z"></path>
<path d="M15.45 17.594c0 0.593 0 1.185 0 1.778 0 0.395-0.099 0.564-0.395 0.663-0.367 0.127-0.832 0.042-1.002-0.212-0.071-0.113-0.099-0.282-0.099-0.423 0-1.764 0-3.513 0-5.277 0-0.409 0.127-0.578 0.494-0.663 0.395-0.099 0.748 0.042 0.917 0.339 0.028 0.042 0.042 0.085 0.056 0.113 0.254-0.155 0.494-0.339 0.762-0.437 0.607-0.226 1.298 0 1.707 0.536 0.296 0.395 0.466 0.832 0.466 1.326 0 0.282 0 0.564 0 0.861 0 0.691-0.296 1.227-0.832 1.651s-1.284 0.367-1.778-0.099c-0.071-0.056-0.113-0.141-0.169-0.212-0.056 0.028-0.085 0.042-0.127 0.056zM16.818 15.774c0 0 0 0 0 0 0-0.127 0.014-0.254 0-0.381-0.028-0.381-0.268-0.621-0.621-0.635-0.381-0.028-0.677 0.183-0.72 0.578-0.028 0.296-0.028 0.593 0 0.889 0.028 0.325 0.381 0.593 0.691 0.593 0.325 0 0.621-0.282 0.649-0.635 0.014-0.127 0-0.268 0-0.409z"></path>
<path d="M28.628 16.113c0.212-0.677 0.395-1.27 0.578-1.877 0.056-0.169 0.099-0.353 0.155-0.522 0.099-0.268 0.254-0.395 0.522-0.31 0.268 0.071 0.55 0.226 0.776 0.395s0.155 0.423 0.071 0.663c-0.268 0.677-0.536 1.354-0.818 2.032-0.296 0.748-0.578 1.481-0.875 2.229-0.451 1.101-1.27 1.425-2.342 1.383-0.24-0.014-0.466-0.099-0.522-0.353-0.071-0.282-0.099-0.578 0.113-0.804 0.085-0.085 0.268-0.113 0.409-0.127 0.296-0.028 0.593-0.085 0.818-0.296 0.339-0.325 0.409-0.734 0.198-1.143-0.48-0.959-0.959-1.919-1.439-2.878-0.183-0.367-0.169-0.536 0.042-0.748 0.282-0.282 0.804-0.451 1.058-0.31 0.127 0.071 0.226 0.226 0.282 0.367 0.296 0.677 0.578 1.369 0.861 2.046 0.014 0.056 0.042 0.127 0.113 0.254z"></path>
<path d="M19.005 14.349c0-0.734 0-1.467 0-2.187 0-0.409 0.085-0.55 0.48-0.621 0.24-0.042 0.494 0 0.734 0.056 0.226 0.056 0.296 0.268 0.296 0.494 0 0.339 0 0.691 0 1.030 0 0.31 0.028 0.325 0.339 0.339 0.212 0 0.409 0 0.621 0 0.31 0.014 0.466 0.212 0.466 0.55 0 0.31-0.169 0.536-0.437 0.55-0.226 0.014-0.451 0.014-0.691 0-0.226-0.014-0.31 0.085-0.31 0.31 0.014 0.508 0 1.002 0 1.51 0 0.296 0.071 0.353 0.367 0.367 0.141 0.014 0.268 0 0.409 0.014 0.395 0.028 0.607 0.254 0.607 0.649 0 0.409-0.183 0.649-0.593 0.649-0.423 0-0.875-0.014-1.284-0.113-0.663-0.155-1.016-0.649-1.030-1.326 0.014-0.762 0.028-1.51 0.028-2.272 0 0 0 0 0 0z"></path>
<path d="M24.014 18.131c-0.522 0.042-1.002-0.071-1.439-0.353-0.353-0.226-0.437-0.536-0.24-0.875 0.183-0.31 0.395-0.367 0.72-0.198 0.325 0.183 0.649 0.339 1.030 0.31 0.042 0 0.099 0 0.141-0.014 0.169-0.028 0.353-0.085 0.339-0.268-0.014-0.113-0.155-0.24-0.268-0.296-0.169-0.085-0.367-0.127-0.55-0.183s-0.367-0.113-0.55-0.183c-0.494-0.212-0.818-0.536-0.832-1.101-0.014-0.593 0.212-1.058 0.734-1.326 0.79-0.395 1.594-0.31 2.37 0.056 0.353 0.155 0.395 0.437 0.226 0.776-0.183 0.353-0.381 0.423-0.748 0.296-0.282-0.099-0.564-0.155-0.861-0.198-0.099-0.014-0.226 0.042-0.31 0.113-0.127 0.085-0.127 0.226 0.014 0.31 0.113 0.071 0.254 0.113 0.381 0.155 0.226 0.071 0.466 0.113 0.691 0.198 0.748 0.24 1.129 0.79 1.044 1.481-0.085 0.734-0.635 1.242-1.397 1.312-0.155 0-0.325-0.014-0.494-0.014z"></path>
<path d="M31.704 13.446c0 0.226-0.198 0.409-0.423 0.409-0.24 0-0.423-0.198-0.423-0.437s0.198-0.437 0.437-0.437c0.226 0.014 0.409 0.226 0.409 0.466zM31.422 13.714c0.028-0.028 0.071-0.056 0.099-0.085-0.028-0.141-0.042-0.296-0.113-0.423-0.014-0.028-0.24-0.028-0.296 0.028-0.071 0.085-0.113 0.268-0.056 0.325 0.071 0.085 0.24 0.113 0.367 0.155z"></path>
<path d="M31.422 13.714c-0.127-0.042-0.282-0.071-0.353-0.155-0.042-0.056-0.014-0.254 0.056-0.325 0.042-0.056 0.268-0.071 0.296-0.028 0.071 0.127 0.071 0.282 0.113 0.423-0.056 0.028-0.085 0.056-0.113 0.085z"></path>
</svg>
