<!-- Generated by IcoMoon.io -->
<svg version="1.1" xmlns="http://www.w3.org/2000/svg" width="32" height="32" viewBox="0 0 32 32">
<title>CRYPTONIT</title>
<path d="M17.679 18.356c-0.099 0.014-0.212 0.056-0.325 0.056-0.889 0-1.778 0-2.681 0-0.254 0-0.409 0-0.437-0.353-0.113-1.27-0.48-2.483-0.974-3.668-0.578-1.411-1.213-2.808-1.637-4.261-0.367-1.27-0.325-2.582 0.268-3.852 0.437-0.931 1.016-1.693 1.792-2.37 1.058-0.917 1.679-2.116 1.989-3.471 0.042-0.183 0.141-0.508 0.24-0.522 0.325-0.028 0.296 0.296 0.339 0.508 0.268 1.453 1.058 2.568 2.116 3.556 1.496 1.397 2.399 3.090 2.145 5.192-0.141 1.171-0.593 2.272-1.086 3.344-0.748 1.651-1.397 3.344-1.693 5.15-0.028 0.212-0.028 0.437-0.056 0.691z"></path>
<path d="M24 10.455c2.3 0.071 3.64 0.974 4.36 2.822 0.395 1.002 0.395 2.145-0.141 3.203-0.48 0.931-1.199 1.58-2.074 2.060-0.353 0.183-0.818 0.183-1.227 0.226-0.056 0-0.212-0.296-0.198-0.451 0.014-0.494-0.071-0.931-0.409-1.34-0.508-0.635-1.538-0.945-2.272-0.593-0.762 0.367-1.383 0.889-1.552 1.778-0.014 0.085-0.169 0.212-0.268 0.212-0.621 0.028-1.242 0.028-1.862 0.014-0.085 0-0.254-0.198-0.24-0.268 0.325-1.877 0.889-3.668 1.947-5.263 0.621-0.945 1.481-1.608 2.483-2.046 0.536-0.24 1.143-0.282 1.453-0.353z"></path>
<path d="M13.813 18.413c-0.663 0-1.326 0.014-1.975-0.014-0.099 0-0.212-0.169-0.282-0.282-0.367-0.705-0.804-1.355-1.58-1.679-0.55-0.226-1.115-0.24-1.665 0.042-0.494 0.254-0.959 0.522-1.044 1.129-0.028 0.24 0 0.494-0.014 0.748-0.014 0.381-0.141 0.409-0.508 0.395-1.298-0.071-2.032-0.988-2.85-1.778-0.212-0.212-0.268-0.578-0.367-0.889-0.494-1.651-0.042-3.513 1.369-4.656 1.129-0.931 2.427-1.101 3.852-0.79 0.974 0.212 1.764 0.748 2.455 1.354 0.536 0.466 0.875 1.199 1.227 1.862 0.762 1.397 1.256 2.878 1.383 4.557z"></path>
<path d="M15.901 32.085c-0.028-0.028-0.127-0.099-0.169-0.198-0.268-0.663-0.748-1.157-1.213-1.665-1.284-1.383-1.623-3.019-1.199-4.84 0.254-1.086 0.536-2.173 0.818-3.245 0.028-0.113 0.24-0.268 0.367-0.268 0.988-0.028 1.975-0.014 2.963-0.014 0.212 0 0.282 0.113 0.339 0.31 0.212 0.903 0.409 1.806 0.691 2.695 0.325 1.002 0.395 2.046 0.169 3.034-0.155 0.705-0.564 1.397-0.988 2.004-0.522 0.79-1.171 1.467-1.778 2.187z"></path>
<path d="M9.566 26.413c-1.764-0.071-2.907-1.651-2.37-3.287 0.155-0.466 0.409-0.818 0.79-1.101 0.324-0.24 0.452-0.198 0.564 0.198 0.141 0.508 0.282 1.002 0.861 1.213 0.55 0.198 1.030 0.071 1.383-0.395 0.169-0.212 0.522-0.353 0.564-0.564 0.113-0.621 0.508-0.635 0.974-0.593 0.099 0.014 0.198 0 0.296 0 1.002 0.014 1.072-0.198 0.705 1.002-0.381 1.242-1.115 2.258-2.145 2.991-0.466 0.296-1.086 0.353-1.623 0.536z"></path>
<path d="M23.492 21.869c1.608 0.677 1.905 2.751 0.607 3.795-1.199 0.959-2.356 0.832-3.527 0-1.157-0.832-1.693-2.060-2.102-3.372-0.099-0.296 0.014-0.437 0.325-0.437 0.423 0.014 0.847 0 1.284 0.014 0.254 0.014 0.395 0.127 0.494 0.395 0.212 0.691 0.691 1.129 1.425 1.227 0.72 0.099 1.242-0.325 1.34-1.058 0-0.183 0.085-0.367 0.155-0.564z"></path>
<path d="M10.243 20.106c-0.014-0.451 0.437-0.847 0.903-0.847 3.062 0.028 6.123 0.056 9.185 0.028 0.395 0 0.734-0.056 1.058 0.212 0.494 0.423 0.395 1.101-0.198 1.34-0.268 0.113-0.55 0.127-0.861 0.099-0.621-0.056-1.242-0.014-1.862-0.014-2.342 0-4.684 0.014-7.026 0.014-0.169 0-0.353-0.028-0.522-0.056-0.437-0.071-0.663-0.339-0.677-0.776z"></path>
</svg>
