<!-- Generated by IcoMoon.io -->
<svg version="1.1" xmlns="http://www.w3.org/2000/svg" width="32" height="32" viewBox="0 0 32 32">
<title>CRYPTOPIA</title>
<path d="M12.811 9.312l1.905 3.287 1.891 3.287-1.891 3.287-1.905 3.273h-7.577l-1.905-3.273-1.905-3.287 3.81-6.575h3.795z"></path>
<path d="M26.765 1.369l3.81 6.575-3.81 6.575h-7.577l-1.905-3.287-1.891-3.287 1.891-3.287 1.905-3.287h3.781z"></path>
<path d="M26.765 17.425l1.905 3.287 1.905 3.273-1.905 3.287-1.905 3.302h-7.577l-1.905-3.302-1.891-3.287 1.891-3.273 1.905-3.287h3.781z"></path>
<path d="M13.63 8.325l2.159 3.739 2.145 3.739 0.099 0.169-0.099 0.169-2.145 3.739v0.014l-2.159 3.725-0.099 0.183h-9.016l-0.099-0.183-4.416-7.647 0.099-0.169 2.145-3.739 2.272-3.908h9.030l0.085 0.169zM15.196 12.416l-2.060-3.57h-8.226l-2.060 3.57-2.046 3.556 2.046 3.57 2.060 3.556h8.226l2.060-3.556 2.046-3.57-2.046-3.556z"></path>
<path d="M27.584 0.296l2.145 3.739 2.159 3.739 0.099 0.183-0.099 0.169-2.145 3.725-2.145 3.739-0.099 0.169h-9.044l-0.099-0.169-2.145-3.739-2.258-3.908 0.099-0.183 2.145-3.739 2.258-3.908h9.044l0.085 0.183zM29.136 4.388l-2.046-3.57h-8.212l-4.092 7.139 2.046 3.556 2.046 3.57h8.212l2.046-3.57h0.014l2.046-3.556-2.060-3.57z"></path>
<path d="M27.584 16.353l2.145 3.739 2.258 3.908-0.099 0.169-2.159 3.739-2.145 3.739-0.099 0.183h-9.044l-0.099-0.183-2.159-3.739-2.145-3.739-0.099-0.169 0.099-0.169 2.145-3.739 2.258-3.908h9.044l0.099 0.169zM29.136 20.43l-2.046-3.556h-8.212l-2.046 3.57-2.074 3.541 2.046 3.57 2.046 3.556h8.24l2.046-3.556h0.014l2.046-3.57-2.060-3.556z"></path>
</svg>
