<!-- Generated by IcoMoon.io -->
<svg version="1.1" xmlns="http://www.w3.org/2000/svg" width="32" height="32" viewBox="0 0 32 32">
<title>CSC</title>
<path d="M29.996 26.624c-2.427 2.667-5.333 4.346-8.861 5.108 0-0.861 0-1.679 0-2.497 0-0.889-0.085-1.030-0.945-1.242-1.566-0.395-3.146-0.381-4.713 0.028-0.734 0.198-0.847 0.353-0.847 1.115 0 0.847 0 1.679 0 2.596-3.541-0.762-6.462-2.441-8.903-5.122 0.776-0.451 1.496-0.903 2.258-1.298 0.536-0.268 0.649-0.663 0.508-1.171-0.451-1.665-1.27-3.118-2.511-4.332-0.395-0.395-0.776-0.437-1.27-0.113-0.691 0.451-1.425 0.832-2.145 1.242-1.157-1.637-1.185-7.944-0.028-10.159 0.748 0.423 1.51 0.818 2.229 1.284 0.452 0.282 0.818 0.24 1.185-0.113 1.27-1.213 2.102-2.681 2.554-4.374 0.141-0.508 0.014-0.903-0.522-1.171-0.762-0.381-1.467-0.832-2.243-1.284 2.413-2.667 5.319-4.346 8.861-5.122 0.014 0.226 0.028 0.409 0.028 0.593 0 0.635 0 1.27 0 1.905 0 0.804 0.113 0.988 0.903 1.185 1.566 0.381 3.146 0.381 4.713-0.014 0.776-0.198 0.889-0.367 0.889-1.185 0-0.804 0-1.623 0-2.427 2.78 0.282 7.337 2.907 8.776 5.051-0.776 0.452-1.552 0.903-2.328 1.354-1.002 0.578-2.018 1.157-3.019 1.75-0.339 0.198-0.55 0.198-0.875-0.042-5.376-3.965-12.924-1.608-14.998 4.656-2.060 6.222 2.554 12.642 9.101 12.698 2.229 0.014 4.219-0.677 6.011-2.004 0.141-0.113 0.437-0.183 0.578-0.113 1.862 1.044 3.711 2.116 5.616 3.217z"></path>
<path d="M16.226 21.841c0.593-0.931 1.34-1.764 1.129-3.076-0.635 0.663-1.27 1.030-2.074 1.030-1.594-0.014-2.723-1.411-2.258-2.935 0.198-0.635 0.578-1.242 0.974-1.792 0.508-0.72 1.143-1.34 1.693-2.032 0.776-0.974 1.524-1.975 2.3-2.991-0.056-0.028-0.014-0.014 0 0 1.171 1.524 2.356 3.019 3.499 4.557 0.466 0.621 0.931 1.256 1.242 1.947 0.494 1.101 0.155 2.187-0.762 2.808-0.945 0.649-2.173 0.578-3.034-0.169-0.113-0.099-0.226-0.212-0.353-0.325-0.325 0.663-0.183 1.072 1.030 2.977-1.143 0-2.229 0-3.386 0z"></path>
</svg>
