<?xml version="1.0" encoding="utf-8"?>
<!-- Generator: Adobe Illustrator 22.1.0, SVG Export Plug-In . SVG Version: 6.00 Build 0)  -->
<svg version="1.1" id="Layer_1" xmlns="http://www.w3.org/2000/svg" xmlns:xlink="http://www.w3.org/1999/xlink" x="0px" y="0px"
	 viewBox="0 0 226.8 226.8" style="enable-background:new 0 0 226.8 226.8;" xml:space="preserve">
<g>
	<path d="M212.6,188.7c-17.2,18.9-37.8,30.8-62.8,36.2c0-6.1,0-11.9,0-17.7c0-6.3-0.6-7.3-6.7-8.8c-11.1-2.8-22.3-2.7-33.4,0.2
		c-5.2,1.4-6,2.5-6,7.9c0,6,0,11.9,0,18.4c-25.1-5.4-45.8-17.3-63.1-36.3c5.5-3.2,10.6-6.4,16-9.2c3.8-1.9,4.6-4.7,3.6-8.3
		c-3.2-11.8-9-22.1-17.8-30.7c-2.8-2.8-5.5-3.1-9-0.8c-4.9,3.2-10.1,5.9-15.2,8.8c-8.2-11.6-8.4-56.3-0.2-72
		c5.3,3,10.7,5.8,15.8,9.1c3.2,2,5.8,1.7,8.4-0.8c9-8.6,14.9-19,18.1-31c1-3.6,0.1-6.4-3.7-8.3c-5.4-2.7-10.4-5.9-15.9-9.1
		C57.8,17.4,78.4,5.5,103.5,0c0.1,1.6,0.2,2.9,0.2,4.2c0,4.5,0,9,0,13.5c0,5.7,0.8,7,6.4,8.4c11.1,2.7,22.3,2.7,33.4-0.1
		c5.5-1.4,6.3-2.6,6.3-8.4c0-5.7,0-11.5,0-17.2c19.7,2,52,20.6,62.2,35.8c-5.5,3.2-11,6.4-16.5,9.6c-7.1,4.1-14.3,8.2-21.4,12.4
		c-2.4,1.4-3.9,1.4-6.2-0.3C129.8,29.8,76.3,46.5,61.6,90.9c-14.6,44.1,18.1,89.6,64.5,90c15.8,0.1,29.9-4.8,42.6-14.2
		c1-0.8,3.1-1.3,4.1-0.8C186,173.3,199.1,180.9,212.6,188.7z"/>
	<path d="M115,154.8c4.2-6.6,9.5-12.5,8-21.8c-4.5,4.7-9,7.3-14.7,7.3c-11.3-0.1-19.3-10-16-20.8c1.4-4.5,4.1-8.8,6.9-12.7
		c3.6-5.1,8.1-9.5,12-14.4c5.5-6.9,10.8-14,16.3-21.2c-0.4-0.2-0.1-0.1,0,0c8.3,10.8,16.7,21.4,24.8,32.3c3.3,4.4,6.6,8.9,8.8,13.8
		c3.5,7.8,1.1,15.5-5.4,19.9c-6.7,4.6-15.4,4.1-21.5-1.2c-0.8-0.7-1.6-1.5-2.5-2.3c-2.3,4.7-1.3,7.6,7.3,21.1
		C130.9,154.8,123.2,154.8,115,154.8z"/>
</g>
</svg>
