<?xml version="1.0" encoding="utf-8"?>
<!-- Generator: Adobe Illustrator 22.1.0, SVG Export Plug-In . SVG Version: 6.00 Build 0)  -->
<svg version="1.1" id="Layer_1" xmlns="http://www.w3.org/2000/svg" xmlns:xlink="http://www.w3.org/1999/xlink" x="0px" y="0px"
	 viewBox="0 0 226.8 226.8" style="enable-background:new 0 0 226.8 226.8;" xml:space="preserve">
<g>
	<path d="M173.6,146.4c11.7,16.8,23.3,33.5,34.8,50.2c-32.2,33.1-100.8,46.3-151.7,1.7C8,155.6,5.4,80.3,51.1,33.8
		c45.5-46.3,117.1-42.4,156.4-4.7c-11.7,16.5-23.5,33.1-35.4,50c-2.6-1.6-4.7-3-6.8-4.3c-21.3-13.2-49.5-10.4-66.4,7
		c-12.3,12.6-16.6,27.7-11.2,44.6c5.8,18.3,19.3,28.6,37.6,32.5c15.3,3.2,29.6,0.2,42.5-8.7C169.5,149,171.3,147.9,173.6,146.4z"/>
</g>
</svg>
