<!-- Generated by IcoMoon.io -->
<svg version="1.1" xmlns="http://www.w3.org/2000/svg" width="32" height="32" viewBox="0 0 32 32">
<title>CTR</title>
<path d="M24.494 20.656c1.651 2.37 3.287 4.727 4.91 7.083-4.543 4.67-14.222 6.533-21.404 0.24-6.871-6.025-7.238-16.649-0.79-23.21 6.42-6.533 16.522-5.982 22.067-0.663-1.651 2.328-3.316 4.67-4.995 7.055-0.367-0.226-0.663-0.423-0.959-0.607-3.005-1.862-6.984-1.467-9.369 0.988-1.735 1.778-2.342 3.908-1.58 6.293 0.818 2.582 2.723 4.035 5.305 4.586 2.159 0.451 4.176 0.028 5.996-1.227 0.24-0.169 0.494-0.325 0.818-0.536z"></path>
</svg>
