<!-- Generated by IcoMoon.io -->
<svg version="1.1" xmlns="http://www.w3.org/2000/svg" width="32" height="32" viewBox="0 0 32 32">
<title>CTXC</title>
<path d="M31.647 28.501c-1.129-0.198-2.074-0.353-3.019-0.55-3.527-0.705-7.069-1.411-10.596-2.159-0.296-0.056-0.536-0.31-0.818-0.48 0.254-0.183 0.494-0.451 0.776-0.55 1.383-0.409 2.794-0.776 4.176-1.171 0.917-0.254 0.988-0.367 0.663-1.27-2.215-6.222-4.43-12.444-6.646-18.667-0.113-0.296-0.254-0.593-0.282-0.903-0.014-0.212 0.127-0.451 0.212-0.677 0.198 0.085 0.466 0.127 0.578 0.282 0.254 0.325 0.437 0.72 0.649 1.072 4.6 8 9.199 16.014 13.799 24.014 0.169 0.31 0.282 0.593 0.508 1.058z"></path>
<path d="M15.139 2.709c0.818 2.3 1.58 4.43 2.342 6.561 0.804 2.286 1.623 4.557 2.399 6.843 0.099 0.268-0.014 0.621-0.028 0.931-0.282-0.127-0.649-0.183-0.847-0.395-1.115-1.157-2.187-2.342-3.245-3.556-0.451-0.522-0.762-0.564-1.242 0-3.16 3.767-6.363 7.506-9.552 11.245-1.312 1.538-2.624 3.090-3.937 4.628-0.113 0.141-0.226 0.31-0.381 0.395-0.183 0.099-0.395 0.127-0.607 0.183-0.014-0.226-0.071-0.466-0.014-0.649 0.099-0.296 0.296-0.55 0.452-0.832 4.741-8.226 9.467-16.451 14.208-24.691 0.099-0.169 0.226-0.339 0.451-0.663z"></path>
<path d="M31.972 29.912c-10.13 0-20.275 0-30.645 0 3.231-3.824 6.392-7.549 9.566-11.287 0.071 0.042 0.141 0.071 0.212 0.113-0.268 0.917-0.536 1.82-0.79 2.737-0.24 0.804-0.494 1.608-0.691 2.427-0.226 0.917-0.085 1.157 0.804 1.34 0.762 0.169 1.199 0.395 1.439 1.312 0.31 1.171 1.27 2.060 2.469 2.497 0.861 0.31 1.806 0.649 2.695 0.607 1.298-0.071 2.582-0.48 3.443-1.594 0.325-0.437 0.649-0.635 1.185-0.536 3.302 0.635 6.603 1.256 9.905 1.891 0.169 0.028 0.31 0.155 0.466 0.226-0.042 0.099-0.042 0.183-0.056 0.268z"></path>
</svg>
