<?xml version="1.0" encoding="utf-8"?>
<!-- Generator: Adobe Illustrator 22.1.0, SVG Export Plug-In . SVG Version: 6.00 Build 0)  -->
<svg version="1.1" id="Layer_1" xmlns="http://www.w3.org/2000/svg" xmlns:xlink="http://www.w3.org/1999/xlink" x="0px" y="0px"
	 viewBox="0 0 226.8 226.8" style="enable-background:new 0 0 226.8 226.8;" xml:space="preserve">
<g>
	<path d="M224.3,202c-8-1.4-14.7-2.5-21.4-3.9c-25-5-50.1-10-75.1-15.3c-2.1-0.4-3.8-2.2-5.8-3.4c1.8-1.3,3.5-3.2,5.5-3.9
		c9.8-2.9,19.8-5.5,29.6-8.3c6.5-1.8,7-2.6,4.7-9c-15.7-44.1-31.4-88.2-47.1-132.3c-0.8-2.1-1.8-4.2-2-6.4c-0.1-1.5,0.9-3.2,1.5-4.8
		c1.4,0.6,3.3,0.9,4.1,2c1.8,2.3,3.1,5.1,4.6,7.6c32.6,56.7,65.2,113.5,97.8,170.2C221.9,196.7,222.7,198.7,224.3,202z"/>
	<path d="M107.3,19.2c5.8,16.3,11.2,31.4,16.6,46.5c5.7,16.2,11.5,32.3,17,48.5c0.7,1.9-0.1,4.4-0.2,6.6c-2-0.9-4.6-1.3-6-2.8
		c-7.9-8.2-15.5-16.6-23-25.2c-3.2-3.7-5.4-4-8.8,0c-22.4,26.7-45.1,53.2-67.7,79.7c-9.3,10.9-18.6,21.9-27.9,32.8
		c-0.8,1-1.6,2.2-2.7,2.8c-1.3,0.7-2.8,0.9-4.3,1.3c-0.1-1.6-0.5-3.3-0.1-4.6c0.7-2.1,2.1-3.9,3.2-5.9
		C37,140.6,70.5,82.3,104.1,23.9C104.8,22.7,105.7,21.5,107.3,19.2z"/>
	<path d="M226.6,212c-71.8,0-143.7,0-217.2,0c22.9-27.1,45.3-53.5,67.8-80c0.5,0.3,1,0.5,1.5,0.8c-1.9,6.5-3.8,12.9-5.6,19.4
		c-1.7,5.7-3.5,11.4-4.9,17.2c-1.6,6.5-0.6,8.2,5.7,9.5c5.4,1.2,8.5,2.8,10.2,9.3c2.2,8.3,9,14.6,17.5,17.7
		c6.1,2.2,12.8,4.6,19.1,4.3c9.2-0.5,18.3-3.4,24.4-11.3c2.3-3.1,4.6-4.5,8.4-3.8c23.4,4.5,46.8,8.9,70.2,13.4
		c1.2,0.2,2.2,1.1,3.3,1.6C226.7,210.8,226.7,211.4,226.6,212z"/>
</g>
</svg>
