<?xml version="1.0" encoding="utf-8"?>
<!-- Generator: Adobe Illustrator 22.1.0, SVG Export Plug-In . SVG Version: 6.00 Build 0)  -->
<svg version="1.1" id="Layer_1" xmlns="http://www.w3.org/2000/svg" xmlns:xlink="http://www.w3.org/1999/xlink" x="0px" y="0px"
	 viewBox="0 0 226.8 226.8" style="enable-background:new 0 0 226.8 226.8;" xml:space="preserve">
<g>
	<path d="M90.5,38.4c8.5-2.8,12.8-0.4,16.1,7.9c15.8,40.3,32.3,80.2,48.5,120.3c0.8,2,1.7,4,3.2,7.6c6-14.7,11.5-28,16.9-41.3
		c11.7-29,23.7-57.8,35-87c3.1-7.9,7.2-10.5,16-7.6c-2.5,6.4-4.9,12.8-7.5,19.1c-16.9,41.3-34,82.6-50.9,123.9
		c-1.9,4.6-3.5,8-9.8,7.9c-5.9-0.1-7.5-3.2-9.2-7.5c-18.4-45.2-37-90.4-55.5-135.5C92.2,43.6,91.4,40.9,90.5,38.4z"/>
	<path d="M93.5,96.8c-2,2.1-4,4.2-5.9,6.1c-25.5-16.8-51.5-15.7-66.9,2.2c-13.8,16.1-13.4,44.8,0.9,60.3c15.8,17.1,41.2,17.6,65,1
		c2.1,1.9,4.3,3.8,6.6,5.8c-17.5,21.1-54.9,22.2-76.5,2.5C-4.9,155-5.7,116.1,15.2,95.4C36,74.7,73.6,75,93.5,96.8z"/>
</g>
</svg>
