<!-- Generated by IcoMoon.io -->
<svg version="1.1" xmlns="http://www.w3.org/2000/svg" width="32" height="32" viewBox="0 0 32 32">
<title>CV</title>
<path d="M12.769 5.418c1.199-0.395 1.806-0.056 2.272 1.115 2.229 5.686 4.557 11.316 6.843 16.974 0.113 0.282 0.24 0.564 0.451 1.072 0.847-2.074 1.623-3.951 2.384-5.827 1.651-4.092 3.344-8.155 4.938-12.275 0.437-1.115 1.016-1.481 2.258-1.072-0.353 0.903-0.691 1.806-1.058 2.695-2.384 5.827-4.797 11.654-7.182 17.481-0.268 0.649-0.494 1.129-1.383 1.115-0.832-0.014-1.058-0.451-1.298-1.058-2.596-6.377-5.22-12.755-7.831-19.118-0.155-0.367-0.268-0.748-0.395-1.101z"></path>
<path d="M13.192 13.658c-0.282 0.296-0.564 0.593-0.832 0.861-3.598-2.37-7.266-2.215-9.439 0.31-1.947 2.272-1.891 6.321 0.127 8.508 2.229 2.413 5.813 2.483 9.171 0.141 0.296 0.268 0.607 0.536 0.931 0.818-2.469 2.977-7.746 3.132-10.794 0.353s-3.16-8.268-0.212-11.189c2.935-2.921 8.24-2.878 11.048 0.198z"></path>
</svg>
