<!-- Generated by IcoMoon.io -->
<svg version="1.1" xmlns="http://www.w3.org/2000/svg" width="32" height="32" viewBox="0 0 32 32">
<title>CVC</title>
<path d="M17.834 17.242c1.284-0.635 2.102-1.933 2.102-3.372 0-2.074-1.679-3.753-3.739-3.753s-3.739 1.693-3.739 3.753c0 1.439 0.818 2.737 2.102 3.372v4.628h3.273v-4.628M16.198 27.993c-6.603 0-11.965-5.39-11.965-11.993s5.362-11.993 11.965-11.993c5.39 0 9.947 3.584 11.443 8.494h4.12c-1.594-7.153-7.958-12.501-15.563-12.501-8.818 0-15.958 7.168-15.958 16s7.139 16 15.944 16c7.605 0 13.968-5.347 15.563-12.501h-4.12c-1.496 4.91-6.053 8.494-11.429 8.494"></path>
</svg>
