<?xml version="1.0" encoding="utf-8"?>
<!-- Generator: Adobe Illustrator 22.0.1, SVG Export Plug-In . SVG Version: 6.00 Build 0)  -->
<svg version="1.1" id="Layer_1" xmlns="http://www.w3.org/2000/svg" xmlns:xlink="http://www.w3.org/1999/xlink" x="0px" y="0px"
	 viewBox="0 0 226.8 226.8" style="enable-background:new 0 0 226.8 226.8;" xml:space="preserve">
<style type="text/css">
	.st0{stroke:#FFFFFF;stroke-miterlimit:10;}
</style>
<path class="st0" d="M126.4,122.2c9.1-4.5,14.9-13.7,14.9-23.9c0-14.7-11.9-26.6-26.5-26.6S88.3,83.7,88.3,98.3
	c0,10.2,5.8,19.4,14.9,23.9V155h23.2L126.4,122.2 M114.8,198.4c-46.8,0-84.8-38.2-84.8-85s38-85,84.8-85c38.2,0,70.5,25.4,81.1,60.2
	h29.2C213.8,37.9,168.7,0,114.8,0C52.3,0,1.7,50.8,1.7,113.4s50.6,113.4,113,113.4c53.9,0,99-37.9,110.3-88.6h-29.2
	C185.2,173,152.9,198.4,114.8,198.4"/>
</svg>
