<!-- Generated by IcoMoon.io -->
<svg version="1.1" xmlns="http://www.w3.org/2000/svg" width="32" height="32" viewBox="0 0 32 32">
<title>CVT</title>
<path d="M15.549 7.026c3.908 3.824 7.817 7.647 11.838 11.57 0-3.838 0-7.633 0-11.654 1.623 1.594 3.062 2.977 4.473 4.402 0.155 0.155 0.113 0.522 0.113 0.79 0 4.049-0.014 8.099 0.014 12.148 0.014 0.917-0.395 1.086-1.227 1.199-2.173 0.296-3.697-0.522-5.164-2.116-3.132-3.372-6.476-6.533-9.693-9.82-0.353-0.367-0.593-0.988-0.607-1.51-0.071-1.623-0.028-3.259-0.028-4.882 0.085-0.042 0.183-0.085 0.282-0.127z"></path>
<path d="M14.97 25.425c-1.806 0-3.598 0.014-5.404-0.014-0.226 0-0.494-0.226-0.677-0.409-2.822-2.836-5.658-5.686-8.494-8.522-0.099-0.099-0.155-0.212-0.395-0.536 0.466-0.381 0.959-0.748 1.397-1.171 2.384-2.37 4.741-4.769 7.153-7.111 0.367-0.353 0.988-0.593 1.51-0.621 1.566-0.085 3.146-0.028 4.882 0.212-2.864 2.935-5.728 5.87-8.649 8.875 2.963 3.034 5.87 6.025 8.79 9.002-0.042 0.099-0.085 0.198-0.113 0.296z"></path>
</svg>
