<?xml version="1.0" encoding="utf-8"?>
<!-- Generator: Adobe Illustrator 22.1.0, SVG Export Plug-In . SVG Version: 6.00 Build 0)  -->
<svg version="1.1" id="Layer_1" xmlns="http://www.w3.org/2000/svg" xmlns:xlink="http://www.w3.org/1999/xlink" x="0px" y="0px"
	 viewBox="0 0 226.8 226.8" style="enable-background:new 0 0 226.8 226.8;" xml:space="preserve">
<g>
	<path d="M110.2,49.8c27.7,27.1,55.4,54.2,83.9,82c0-27.2,0-54.1,0-82.6c11.5,11.3,21.7,21.1,31.7,31.2c1.1,1.1,0.8,3.7,0.8,5.6
		c0,28.7-0.1,57.4,0.1,86.1c0.1,6.5-2.8,7.7-8.7,8.5c-15.4,2.1-26.2-3.7-36.6-15c-22.2-23.9-45.9-46.3-68.7-69.6
		c-2.5-2.6-4.2-7-4.3-10.7c-0.5-11.5-0.2-23.1-0.2-34.6C108.8,50.4,109.5,50.1,110.2,49.8z"/>
	<path d="M106.1,180.2c-12.8,0-25.5,0.1-38.3-0.1c-1.6,0-3.5-1.6-4.8-2.9C43,157.1,22.9,136.9,2.8,116.8c-0.7-0.7-1.1-1.5-2.8-3.8
		c3.3-2.7,6.8-5.3,9.9-8.3c16.9-16.8,33.6-33.8,50.7-50.4c2.6-2.5,7-4.2,10.7-4.4c11.1-0.6,22.3-0.2,34.6,1.5
		c-20.3,20.8-40.6,41.6-61.3,62.9c21,21.5,41.6,42.7,62.3,63.8C106.6,178.8,106.3,179.5,106.1,180.2z"/>
</g>
</svg>
