<!-- Generated by IcoMoon.io -->
<svg version="1.1" xmlns="http://www.w3.org/2000/svg" width="32" height="32" viewBox="0 0 32 32">
<title>DADI</title>
<path d="M19.344 6.392c1.594 0.099 3.217 0.014 4.769 0.339 4.741 1.002 8 5.305 7.817 10.201-0.212 5.714-4.6 9.34-8.607 9.679-2.582 0.212-5.192 0.198-7.788 0.198-1.256 0-2.13-0.959-2.145-2.060-0.014-1.143 0.931-2.046 2.258-2.074 1.735-0.042 3.471 0.014 5.206-0.028 0.72-0.014 1.453-0.085 2.173-0.212 2.653-0.466 4.938-3.203 4.67-6.349-0.24-2.85-2.554-5.263-5.418-5.404-1.919-0.099-3.838-0.042-5.757-0.071-0.494-0.014-1.002-0.042-1.496-0.155-1.002-0.24-1.693-1.157-1.637-2.074 0.056-1.030 0.861-1.834 1.989-1.862 1.326-0.042 2.653-0.014 3.965-0.014 0-0.042 0-0.071 0-0.113z"></path>
<path d="M14.631 18.681c-1.862 0-3.739-0.014-5.601 0-0.72 0-1.34-0.183-1.82-0.748-0.889-1.058-0.55-2.667 0.734-3.189 0.451-0.183 0.974-0.24 1.467-0.254 3.513-0.014 7.012-0.014 10.526 0 0.367 0 0.734 0.028 1.072 0.127 0.988 0.268 1.665 1.185 1.594 2.116-0.071 1.030-0.861 1.848-1.961 1.933-0.776 0.056-1.552 0.028-2.328 0.028-1.213-0.014-2.441-0.014-3.683-0.014 0 0 0 0 0 0z"></path>
<path d="M5.15 6.49c1.002 0 2.004-0.028 3.005 0.014 1.171 0.042 1.848 0.663 1.961 1.693 0.127 1.086-0.451 1.961-1.538 2.258-0.268 0.071-0.536 0.141-0.804 0.141-1.778 0.014-3.556 0.056-5.333-0.014-1.608-0.056-2.455-1.016-2.272-2.413 0.127-1.002 0.677-1.594 1.693-1.651 1.086-0.056 2.187-0.014 3.287-0.028 0 0.014 0 0.014 0 0z"></path>
</svg>
