<?xml version="1.0" encoding="utf-8"?>
<!-- Generator: Adobe Illustrator 22.1.0, SVG Export Plug-In . SVG Version: 6.00 Build 0)  -->
<svg version="1.1" id="Layer_1" xmlns="http://www.w3.org/2000/svg" xmlns:xlink="http://www.w3.org/1999/xlink" x="0px" y="0px"
	 viewBox="0 0 226.8 226.8" style="enable-background:new 0 0 226.8 226.8;" xml:space="preserve">
<g>
	<path d="M137.1,45.3c11.3,0.7,22.8,0.1,33.8,2.4c33.6,7.1,56.7,37.6,55.4,72.3c-1.5,40.5-32.6,66.2-61,68.6
		c-18.3,1.5-36.8,1.4-55.2,1.4c-8.9,0-15.1-6.8-15.2-14.6c-0.1-8.1,6.6-14.5,16-14.7c12.3-0.3,24.6,0.1,36.9-0.2
		c5.1-0.1,10.3-0.6,15.4-1.5c18.8-3.3,35-22.7,33.1-45c-1.7-20.2-18.1-37.3-38.4-38.3c-13.6-0.7-27.2-0.3-40.8-0.5
		c-3.5-0.1-7.1-0.3-10.6-1.1c-7.1-1.7-12-8.2-11.6-14.7c0.4-7.3,6.1-13,14.1-13.2c9.4-0.3,18.8-0.1,28.1-0.1
		C137.1,45.8,137.1,45.6,137.1,45.3z"/>
	<path d="M103.7,132.4c-13.2,0-26.5-0.1-39.7,0c-5.1,0-9.5-1.3-12.9-5.3c-6.3-7.5-3.9-18.9,5.2-22.6c3.2-1.3,6.9-1.7,10.4-1.8
		c24.9-0.1,49.7-0.1,74.6,0c2.6,0,5.2,0.2,7.6,0.9c7,1.9,11.8,8.4,11.3,15c-0.5,7.3-6.1,13.1-13.9,13.7c-5.5,0.4-11,0.2-16.5,0.2
		C121.2,132.4,112.5,132.4,103.7,132.4C103.7,132.4,103.7,132.4,103.7,132.4z"/>
	<path d="M36.5,46c7.1,0,14.2-0.2,21.3,0.1c8.3,0.3,13.1,4.7,13.9,12c0.9,7.7-3.2,13.9-10.9,16c-1.9,0.5-3.8,1-5.7,1
		c-12.6,0.1-25.2,0.4-37.8-0.1C5.9,74.6-0.1,67.8,1.2,57.9c0.9-7.1,4.8-11.3,12-11.7C20.9,45.8,28.7,46.1,36.5,46
		C36.5,46.1,36.5,46.1,36.5,46z"/>
</g>
</svg>
