<!-- Generated by IcoMoon.io -->
<svg version="1.1" xmlns="http://www.w3.org/2000/svg" width="32" height="32" viewBox="0 0 32 32">
<title>DAEDALUS</title>
<path d="M9.425 15.224c0.296-0.508 0.55-0.931 0.804-1.354 0.056 0.014 0.071 0.014 0.085 0.028 0.409 0.367 0.381 0.353 0.141 0.847-0.24 0.48-0.466 0.988-0.635 1.496-0.113 0.325-0.325 0.268-0.55 0.268-0.24 0-0.339-0.141-0.381-0.353-0.056-0.282-0.113-0.564-0.169-0.847 0-0.028-0.028-0.056-0.056-0.113-0.959 0.268-1.919 0.522-2.878 0.79-0.141 0.042-0.24 0.056-0.367-0.071-1.834-1.975-3.683-3.951-5.531-5.94-0.028-0.028-0.028-0.042-0.042-0.071 1.679-2.229 3.358-4.473 5.051-6.73 0.198 0.113 0.367 0.212 0.55 0.31-0.282 0.621-0.564 1.242-0.847 1.848-0.536 1.171-1.072 2.342-1.608 3.499-0.071 0.169-0.056 0.268 0.071 0.395 0.974 0.931 1.933 1.862 2.892 2.794 0.056 0.056 0.141 0.113 0.212 0.169-0.494 0.339-0.564 0.353-0.945-0.014-1.016-0.959-2.018-1.933-3.005-2.921-0.042-0.042-0.042-0.198-0.014-0.268 0.367-0.832 0.748-1.665 1.129-2.497 0.028-0.056 0.042-0.113 0.028-0.198-0.889 1.185-1.792 2.37-2.681 3.556 0.028 0.071 0.028 0.099 0.056 0.127 1.58 1.665 3.16 3.33 4.727 5.009 0.212 0.226 0.409 0.282 0.705 0.198 0.917-0.268 1.848-0.494 2.78-0.762 0.254-0.071 0.353 0 0.381 0.254 0.014 0.155 0.056 0.31 0.099 0.55z"></path>
<path d="M25.651 12.162c0.141-0.085 0.268-0.141 0.367-0.24 0.903-0.889 1.792-1.778 2.681-2.667 0.169-0.169 0.198-0.296 0.099-0.522-0.748-1.623-1.481-3.245-2.229-4.868-0.042-0.099-0.085-0.198-0.141-0.325 0.155-0.113 0.31-0.24 0.494-0.381 1.693 2.257 3.386 4.501 5.079 6.758-0.113 0.127-0.212 0.254-0.31 0.367-1.693 1.806-3.386 3.612-5.079 5.432-0.226 0.24-0.437 0.31-0.748 0.212-0.705-0.212-1.411-0.381-2.131-0.578-0.099-0.028-0.198-0.042-0.296-0.056-0.24-0.042-0.367 0.042-0.381 0.296 0 0.071-0.028 0.141-0.028 0.212-0.071 0.663-0.212 0.79-0.832 0.762-0.339-0.762-0.663-1.524-1.016-2.3 0.099-0.099 0.24-0.226 0.423-0.409 0.268 0.451 0.522 0.889 0.79 1.326 0.028 0 0.042-0.014 0.071-0.014 0.014-0.141 0.042-0.268 0.042-0.409 0.028-0.367 0.085-0.409 0.437-0.31 0.875 0.24 1.75 0.451 2.624 0.72 0.381 0.113 0.635 0.042 0.903-0.24 1.496-1.623 3.005-3.231 4.501-4.839 0.042-0.056 0.085-0.113 0.169-0.212-0.889-1.185-1.778-2.384-2.667-3.584-0.014 0.014-0.028 0.014-0.056 0.028 0.169 0.381 0.339 0.776 0.522 1.157 0.212 0.48 0.423 0.959 0.649 1.439 0.085 0.169 0.085 0.282-0.056 0.423-1.016 0.988-2.004 1.989-3.019 2.991-0.24 0.226-0.451 0.183-0.861-0.169z"></path>
<path d="M17.143 26.794c-0.31 0-0.578 0-0.875 0 0-0.395 0-0.79 0-1.185 0-0.593 0.014-1.185 0-1.764 0-0.212 0.056-0.296 0.268-0.339 1.030-0.226 1.989-0.635 2.78-1.355 0.226-0.212 0.437-0.437 0.649-0.649 0.014 0 0.042 0 0.056 0 0.508 0.282 0.508 0.325 0.099 0.748-0.748 0.762-1.594 1.355-2.624 1.679-0.762 0.24-0.79 0.466-0.226 1.044 0.198 0.198 0.339 0.437 0.48 0.677 0.099 0.169 0.198 0.254 0.381 0.212 0.014 0 0.042 0 0.056-0.014 1.058-0.183 0.917-0.028 1.27-1.044 0.113-0.31 0.226-0.635 0.325-0.945 0.085-0.268 0.296-0.155 0.451-0.155 0.183 0.014 0.198 0.169 0.141 0.31-0.226 0.663-0.437 1.34-0.691 2.004-0.056 0.141-0.254 0.268-0.409 0.31-0.339 0.099-0.691 0.141-1.044 0.198-0.24 0.042-0.367 0.169-0.451 0.409-0.31 0.903-0.988 1.383-1.905 1.369-0.903-0.014-1.608-0.536-1.919-1.425-0.042-0.113-0.155-0.24-0.268-0.268-0.381-0.113-0.762-0.212-1.157-0.268-0.183-0.028-0.31-0.085-0.367-0.254-0.24-0.691-0.494-1.383-0.734-2.074-0.028-0.071 0.042-0.254 0.071-0.254 0.155-0.014 0.339-0.028 0.437 0.056 0.127 0.099 0.183 0.282 0.24 0.451 0.141 0.367 0.268 0.748 0.395 1.129 0.071 0.226 0.212 0.353 0.451 0.367 0.268 0.028 0.578 0.183 0.79 0.099 0.198-0.071 0.282-0.409 0.437-0.607 0.169-0.212 0.367-0.395 0.564-0.593 0.24-0.24 0.24-0.409-0.056-0.578-0.198-0.113-0.423-0.198-0.649-0.268-1.002-0.353-1.834-0.931-2.511-1.75-0.226-0.268-0.169-0.437 0.141-0.55 0.056-0.028 0.155 0 0.212 0.028 0.071 0.042 0.127 0.113 0.183 0.169 0.847 0.945 1.919 1.51 3.146 1.764 0.268 0.056 0.339 0.169 0.325 0.437-0.014 0.945 0 1.905 0 2.85-0.325 0-0.635 0-0.945 0 0.042 0.395 0.578 0.832 1.072 0.903 0.55 0.085 1.213-0.31 1.411-0.875zM14.97 25.552c-0.31 0.212-0.339 0.381-0.099 0.564 0.042-0.212 0.071-0.395 0.099-0.564zM16.931 26.145c0.099-0.085 0.198-0.141 0.198-0.169-0.028-0.113-0.085-0.226-0.141-0.353-0.028 0.014-0.056 0.014-0.071 0.028 0 0.141 0.014 0.282 0.014 0.494z"></path>
<path d="M22.067 17.877c-0.734 0.099-1.383 0.183-2.046 0.268-0.014 0.071-0.028 0.127-0.028 0.183-0.071 0.451-0.141 0.917-0.24 1.369-0.042 0.198-0.028 0.31 0.169 0.395 0.79 0.339 0.621 0.31 0.818-0.367 0.071-0.268 0.113-0.55 0.141-0.832 0.042-0.268 0.381-0.466 0.607-0.31 0.042 0.028 0.071 0.127 0.071 0.183-0.056 0.776-0.268 1.51-0.578 2.229-0.085 0.183-0.198 0.24-0.381 0.155-0.395-0.198-0.776-0.381-1.199-0.578-0.113 0.127-0.212 0.268-0.325 0.409-0.466 0.607-1.072 1.030-1.764 1.369-0.169 0.085-0.282 0.268-0.437 0.367-0.169 0.113-0.367 0.198-0.593 0.31 0-2.526 0-4.966 0-7.422 0.466 0.028 0.578 0.113 0.578 0.607 0.028 1.679 0.042 3.358 0.056 5.037 0 0.169 0 0.339 0 0.522 1.58-0.522 2.511-2.243 2.3-3.457-0.014 0-0.028-0.014-0.056-0.014-0.804 0.127-0.705-0.042-0.762 0.762-0.014 0.24-0.014 0.494-0.056 0.734-0.014 0.099-0.127 0.226-0.212 0.254-0.155 0.028-0.339-0.014-0.339-0.212-0.028-0.593-0.056-1.185-0.056-1.778 0-0.198 0.183-0.226 0.339-0.24 0.79-0.127 1.58-0.254 2.356-0.381 0.099-0.014 0.198-0.042 0.31-0.071-0.113-0.748-0.494-1.355-0.861-1.947 0.409-0.494 0.522-0.494 0.79 0.056 0.254 0.522 0.48 1.058 0.691 1.594 0.071 0.169 0.141 0.212 0.325 0.183 0.367-0.071 0.734-0.099 1.129-0.155-0.085 0.593-0.155 1.157-0.226 1.721-0.056 0.451-0.113 0.917-0.198 1.369-0.042 0.212-0.113 0.437-0.226 0.621-0.451 0.72-0.931 1.425-1.397 2.145-0.071 0.099-0.169 0.198-0.282 0.24s-0.254 0-0.381 0c0.014-0.113-0.014-0.254 0.042-0.353 0.437-0.72 0.875-1.439 1.326-2.145 0.183-0.282 0.325-0.564 0.353-0.917 0.071-0.635 0.169-1.227 0.24-1.905z"></path>
<path d="M12.571 18.328c-0.028 1.213 0.522 2.131 1.34 2.907 0.395 0.367 0.832 0.635 1.397 0.649 0.099 0 0.226 0.141 0.254 0.24 0.042 0.141 0.042 0.31 0.028 0.451-0.014 0.113-0.085 0.31-0.127 0.31-0.155-0.014-0.381-0.042-0.437-0.141-0.141-0.282-0.381-0.367-0.635-0.48-0.748-0.339-1.34-0.861-1.82-1.51-0.042-0.071-0.099-0.127-0.155-0.212-0.466 0.24-0.917 0.466-1.425 0.734-0.451-0.861-0.649-1.75-0.748-2.695 0.55-0.056 0.593-0.014 0.705 0.48 0.071 0.325 0.141 0.663 0.226 0.974 0.085 0.268 0.183 0.296 0.423 0.183 0.113-0.056 0.226-0.085 0.31-0.169s0.155-0.226 0.141-0.339c-0.056-0.508-0.155-1.016-0.254-1.566-0.649-0.085-1.326-0.183-2.046-0.282 0.071 0.593 0.155 1.129 0.198 1.665 0.028 0.55 0.254 1.002 0.578 1.425 0.353 0.48 0.649 0.988 0.959 1.481 0.071 0.113 0.113 0.226 0.155 0.339 0.056 0.141 0.099 0.31-0.085 0.367-0.169 0.056-0.353 0.085-0.48-0.113-0.508-0.79-1.016-1.58-1.524-2.37-0.042-0.071-0.099-0.141-0.099-0.212-0.141-1.030-0.282-2.060-0.423-3.104-0.014-0.085 0-0.155 0-0.282 0.353 0.042 0.705 0.071 1.030 0.141 0.268 0.056 0.325-0.042 0.423-0.268 0.212-0.536 0.451-1.058 0.705-1.58 0.085-0.155 0.169-0.437 0.451-0.31 0.254 0.113 0.268 0.282 0.085 0.649-0.198 0.395-0.381 0.804-0.564 1.199-0.056 0.127-0.085 0.268-0.141 0.451 0.212 0.042 0.395 0.071 0.578 0.099 0.621 0.099 1.242 0.183 1.862 0.282 0.494 0.085 0.593 0.198 0.593 0.691 0 0.508 0 1.016 0 1.552-0.212 0-0.367 0-0.621 0 0-0.325 0-0.649 0-0.988-0.014-0.621-0.014-0.621-0.649-0.663-0.056 0.014-0.113 0.014-0.212 0.014z"></path>
<path d="M13.037 15.549c-0.254-0.24-0.55-0.508-0.832-0.79-0.268-0.268-0.254-0.353 0.028-0.578 0.931-0.734 1.919-1.298 3.146-1.354 0.056 0 0.127 0 0.212 0 0 2.836 0 5.672 0 8.508-0.466 0-0.578-0.085-0.578-0.522-0.028-1.975-0.028-3.951-0.042-5.94 0-0.437 0-0.861 0-1.298-0.522 0-1.623 0.494-2.060 0.917 0.056 0.056 0.099 0.113 0.155 0.169 0.494 0.508 0.437 0.536 0.988 0.155 0.226-0.155 0.31-0.099 0.339 0.183 0.014 0.254-0.056 0.423-0.282 0.593-0.494 0.339-0.917 0.776-1.185 1.326-0.113 0.226-0.282 0.099-0.423 0.042s-0.282-0.141-0.155-0.325c0.212-0.353 0.437-0.705 0.691-1.086z"></path>
<path d="M18.836 15.534c0.282 0.437 0.536 0.847 0.79 1.256-0.339 0.325-0.536 0.325-0.748-0.014-0.578-0.917-1.383-1.538-2.455-1.792-0.028-0.014-0.071-0.028-0.099-0.028-0.014 0-0.014-0.014-0.028-0.028 0-0.677 0-1.383 0-2.074 0.437-0.127 0.593-0.014 0.621 0.409 0.014 0.31 0 0.635 0.014 0.945 0 0.099 0.071 0.226 0.155 0.268 0.353 0.198 0.72 0.381 1.086 0.55 0.071 0.028 0.183 0.028 0.24 0 0.198-0.155 0.381-0.325 0.635-0.536-0.409-0.226-0.762-0.451-1.143-0.635-0.24-0.113-0.367-0.296-0.409-0.536-0.042-0.212 0.056-0.296 0.254-0.24 0.198 0.071 0.395 0.141 0.564 0.254 0.536 0.353 1.044 0.734 1.566 1.115 0.028 0.014 0.042 0.056 0.071 0.099-0.381 0.325-0.748 0.649-1.115 0.988z"></path>
<path d="M11.076 13.813c-0.621-0.593-1.227-1.185-1.848-1.778-0.113-0.113-0.226-0.212-0.339-0.31-0.325-0.325-0.677-0.381-1.086-0.169-0.268 0.141-0.55 0.24-0.818 0.367-0.155 0.071-0.578-0.141-0.564-0.31 0-0.071 0.085-0.183 0.169-0.212 0.705-0.31 1.354-0.705 2.159-0.72s1.608-0.113 2.413-0.155c0.367-0.014 0.48 0.339 0.705 0.55 0 0.028-0.014 0.071-0.014 0.099-0.79 0.042-1.566 0.099-2.399 0.141 0.705 0.705 1.397 1.369 2.060 2.046-0.155 0.155-0.296 0.296-0.437 0.451z"></path>
<path d="M19.979 11.019c0.226-0.268 0.437-0.508 0.861-0.48 0.959 0.085 1.919 0.127 2.878 0.183 0.085 0 0.183 0.028 0.254 0.071 0.395 0.169 0.776 0.353 1.157 0.522 0.113 0.056 0.226 0.141 0.437 0.254-0.183 0.141-0.31 0.254-0.451 0.353-0.056 0.028-0.155 0.014-0.212 0-0.31-0.127-0.621-0.254-0.917-0.409-0.381-0.198-0.72-0.141-1.016 0.155-0.677 0.663-1.34 1.312-2.018 1.975-0.056 0.056-0.127 0.127-0.198 0.183-0.042-0.028-0.071-0.056-0.085-0.071-0.339-0.31-0.353-0.353-0.014-0.691 0.48-0.494 0.974-0.974 1.467-1.453 0.085-0.085 0.155-0.169 0.268-0.296-0.832-0.056-1.608-0.113-2.384-0.183-0.028-0.028-0.028-0.071-0.028-0.113z"></path>
<path d="M20.261 12.501c-0.127 0.169-0.198 0.282-0.31 0.367-0.071 0.042-0.198 0.071-0.268 0.042-0.395-0.169-0.79-0.381-1.185-0.55-0.254-0.113-0.508-0.141-0.818-0.056-0.24 0.071-0.522 0-0.79-0.014-0.014-0.028-0.014-0.056-0.028-0.085 0.593-0.536 1.185-1.086 1.806-1.608 0.31-0.254 0.536-0.24 0.889-0.014-0.24 0.226-0.466 0.437-0.691 0.649-0.395 0.367-0.381 0.381 0.099 0.607 0.437 0.183 0.832 0.423 1.298 0.663z"></path>
<path d="M11.513 12.529c0.635-0.325 1.213-0.635 1.792-0.931-0.325-0.339-0.649-0.691-1.016-1.072 0.339-0.099 0.621-0.183 0.832 0 0.621 0.522 1.199 1.086 1.834 1.665-0.296 0.169-0.578 0.169-0.818 0.099-0.282-0.085-0.522-0.056-0.762 0.056-0.353 0.155-0.705 0.296-1.030 0.494-0.24 0.141-0.409 0.113-0.578-0.071-0.056-0.085-0.127-0.127-0.254-0.24z"></path>
</svg>
