<?xml version="1.0" encoding="utf-8"?>
<!-- Generator: Adobe Illustrator 22.1.0, SVG Export Plug-In . SVG Version: 6.00 Build 0)  -->
<svg version="1.1" id="Layer_1" xmlns="http://www.w3.org/2000/svg" xmlns:xlink="http://www.w3.org/1999/xlink" x="0px" y="0px"
	 viewBox="0 0 226.8 226.8" style="enable-background:new 0 0 226.8 226.8;" xml:space="preserve">
<g>
	<path d="M113.2,0c37.6,37.6,75.6,75.6,113.3,113.3c-37.8,37.8-75.8,75.8-113.5,113.5C75.3,189.2,37.3,151.2-0.3,113.5
		C37.3,75.9,75.4,37.8,113.2,0z M194.2,113.3c-0.7-0.9-1.1-1.5-1.6-2c-25.9-25.9-51.7-51.7-77.6-77.6c-1.7-1.7-2.7-1.5-4.3,0.1
		C85,59.5,59.2,85.2,33.5,111c-0.6,0.6-1.1,1.3-2.1,2.5c1.7,0,2.6,0,3.6,0c14,0,28-0.1,42,0c2.4,0,4-0.8,5.7-2.4
		c9.2-9.3,18.4-18.5,27.7-27.8c2.6-2.6,2.6-2.6,5.3,0.1c9.2,9.2,18.4,18.3,27.5,27.6c1.7,1.7,3.4,2.5,5.9,2.5c14-0.1,28,0,42,0
		C191.9,113.5,192.8,113.4,194.2,113.3z"/>
</g>
</svg>
