<!-- Generated by IcoMoon.io -->
<svg version="1.1" xmlns="http://www.w3.org/2000/svg" width="32" height="32" viewBox="0 0 32 32">
<title>DAI</title>
<path d="M15.972 0c5.305 5.305 10.667 10.667 15.986 15.986-5.333 5.333-10.695 10.695-16.014 16.014-5.319-5.305-10.681-10.667-15.986-15.986 5.305-5.305 10.681-10.681 16.014-16.014zM27.4 15.986c-0.099-0.127-0.155-0.212-0.226-0.282-3.654-3.654-7.295-7.295-10.949-10.949-0.24-0.24-0.381-0.212-0.607 0.014-3.626 3.626-7.266 7.252-10.892 10.892-0.085 0.085-0.155 0.183-0.296 0.353 0.24 0 0.367 0 0.508 0 1.975 0 3.951-0.014 5.926 0 0.339 0 0.564-0.113 0.804-0.339 1.298-1.312 2.596-2.61 3.908-3.922 0.367-0.367 0.367-0.367 0.748 0.014 1.298 1.298 2.596 2.582 3.88 3.894 0.24 0.24 0.48 0.353 0.832 0.353 1.975-0.014 3.951 0 5.926 0 0.113 0 0.24-0.014 0.437-0.028z"></path>
</svg>
