<!-- Generated by IcoMoon.io -->
<svg version="1.1" xmlns="http://www.w3.org/2000/svg" width="32" height="32" viewBox="0 0 32 32">
<title>DAO-alt</title>
<path d="M11.217 22.166h5.122c2.751 0 5.305-1.425 5.305-6.166 0-4.727-3.132-6.265-5.22-6.265h-5.22v5.728h-1.199v1.044h1.199v5.658zM12.825 16.508h3.175v-1.044h-3.175v-4.176h3.57c1.425 0 3.57 1.143 3.57 4.698s-1.75 4.628-3.626 4.628h-3.513v-4.106z"></path>
<path d="M16 0c-8.832 0-16 7.168-16 16s7.168 16 16 16 16-7.168 16-16c0-8.832-7.168-16-16-16zM23.986 23.986h-15.972v-15.972h15.972v15.972z"></path>
</svg>
