<?xml version="1.0" encoding="utf-8"?>
<!-- Generator: Adobe Illustrator 22.1.0, SVG Export Plug-In . SVG Version: 6.00 Build 0)  -->
<svg version="1.1" id="Layer_1" xmlns="http://www.w3.org/2000/svg" xmlns:xlink="http://www.w3.org/1999/xlink" x="0px" y="0px"
	 viewBox="0 0 226.8 226.8" style="enable-background:new 0 0 226.8 226.8;" xml:space="preserve">
<g>
	<path d="M163.4,91.7c0.2-2.9,0.4-4.6,0.4-6.3c0-21.1,0-42.2,0-63.2c0-2.9,0-5.7,0.2-8.6c0.5-8.2,5.7-13.3,13.9-13.5
		c8.3-0.2,13.8,4.5,14.8,12.7c0.2,1.3,0.2,2.7,0.2,4.1c0,43.7,0.3,87.3-0.1,131c-0.6,56.4-55.4,93.5-108.2,73.6
		c-30.7-11.6-50.2-40-50.6-72.8c-0.3-24.2,6.9-45.3,24.2-62.6c24.1-24,66.3-26.4,92.9-5.2C154.9,83.9,158.6,87.4,163.4,91.7z
		 M113.7,92c-21.8,0.9-37.1,10.5-46.3,28.8c-6.9,13.8-7.2,28.5-3.1,43.2c10,35.4,53.7,48.7,81.9,25c19.6-16.5,24.7-48.4,11-71.9
		C147.3,100.4,132.1,92.2,113.7,92z"/>
</g>
</svg>
