<!-- Generated by IcoMoon.io -->
<svg version="1.1" xmlns="http://www.w3.org/2000/svg" width="32" height="32" viewBox="0 0 32 32">
<title>DAT</title>
<path d="M23.055 12.938c0.028-0.409 0.056-0.649 0.056-0.889 0-2.977 0-5.954 0-8.917 0-0.409 0-0.804 0.028-1.213 0.071-1.157 0.804-1.877 1.961-1.905 1.171-0.028 1.947 0.635 2.088 1.792 0.028 0.183 0.028 0.381 0.028 0.578 0 6.166 0.042 12.317-0.014 18.483-0.085 7.958-7.817 13.192-15.266 10.384-4.332-1.637-7.083-5.644-7.139-10.272-0.042-3.414 0.974-6.392 3.414-8.832 3.4-3.386 9.355-3.725 13.108-0.734 0.536 0.423 1.058 0.917 1.735 1.524zM16.042 12.981c-3.076 0.127-5.235 1.481-6.533 4.064-0.974 1.947-1.016 4.021-0.437 6.095 1.411 4.995 7.577 6.871 11.556 3.527 2.765-2.328 3.485-6.829 1.552-10.145-1.397-2.356-3.541-3.513-6.138-3.541z"></path>
</svg>
