<!-- Generated by IcoMoon.io -->
<svg version="1.1" xmlns="http://www.w3.org/2000/svg" width="32" height="32" viewBox="0 0 32 32">
<title>DATA</title>
<path d="M28.924 6.265l2.554-2.554c0.607-0.607 0.48-1.707-0.282-2.455s-1.848-0.875-2.455-0.268l-9.129 9.129c-2.808-2.060-6.773-1.806-9.312 0.72s-2.78 6.504-0.72 9.312l-3.189 3.189c-0.776-1.030-1.425-2.243-1.891-3.668-1.072-3.259-0.776-6.829 0.945-9.778 2.709-4.6 7.534-6.589 12.12-6.011 0.988 0.127 1.877-0.593 1.933-1.58 0.071-1.115-0.762-2.088-1.862-2.201-4.586-0.494-9.34 1.030-12.854 4.543-5.827 5.827-6.166 15.055-1.044 21.347l-2.921 2.921c-0.578 0.578-0.437 1.665 0.31 2.413s1.834 0.903 2.413 0.325l5.418-5.418c0 0 0 0 0 0l3.683-3.683c2.596 1.072 5.7 0.55 7.817-1.566s2.624-5.206 1.566-7.817l4.176-4.176c3.062 4.656 2.455 11.104-1.764 15.323-2.681 2.681-6.279 3.908-9.735 3.654-0.832-0.056-1.566 0.593-1.637 1.425l-0.042 0.508c-0.085 0.945 0.621 1.75 1.58 1.806 4.43 0.254 8.988-1.355 12.43-4.797 5.714-5.714 6.377-14.519 1.891-20.642M17.82 18.328c-1.34 1.34-3.513 1.34-4.854 0s-1.34-3.513 0-4.854 3.513-1.34 4.854 0 1.34 3.513 0 4.854"></path>
</svg>
