<?xml version="1.0" encoding="utf-8"?>
<!-- Generator: Adobe Illustrator 22.0.1, SVG Export Plug-In . SVG Version: 6.00 Build 0)  -->
<svg version="1.1" id="Layer_1" xmlns="http://www.w3.org/2000/svg" xmlns:xlink="http://www.w3.org/1999/xlink" x="0px" y="0px"
	 viewBox="0 0 226.8 226.8" style="enable-background:new 0 0 226.8 226.8;" xml:space="preserve">
<style type="text/css">
	.st0{stroke:#FFFFFF;stroke-miterlimit:10;}
</style>
<path class="st0" d="M205,44.4l18.1-18.1c4.3-4.3,3.4-12.1-2-17.4S208,2.7,203.7,7l-33.9,33.9l-1.2,1.2l-29.6,29.6
	c-19.9-14.6-48-12.8-66,5.1s-19.7,46.1-5.1,66l-22.6,22.6c-5.5-7.3-10.1-15.9-13.4-26c-7.6-23.1-5.5-48.4,6.7-69.3
	c19.2-32.6,53.4-46.7,85.9-42.6c7,0.9,13.3-4.2,13.7-11.2c0.5-7.9-5.4-14.8-13.2-15.6C92.5-2.8,58.8,8,33.9,32.9
	C-7.4,74.2-9.8,139.6,26.5,184.2L5.8,204.9C1.7,209,2.7,216.7,8,222c5.3,5.3,13,6.4,17.1,2.3L47.4,202l0,0l16.1-16.1c0,0,0,0,0,0
	l26.1-26.1c18.4,7.6,40.4,3.9,55.4-11.1s18.6-36.9,11.1-55.4l29.6-29.6c21.7,33,17.4,78.7-12.5,108.6c-19,19-44.5,27.7-69,25.9
	c-5.9-0.4-11.1,4.2-11.6,10.1l-0.3,3.6c-0.6,6.7,4.4,12.4,11.2,12.8c31.4,1.8,63.7-9.6,88.1-34C232.1,150.2,236.8,87.8,205,44.4
	 M126.3,129.9c-9.5,9.5-24.9,9.5-34.4,0s-9.5-24.9,0-34.4s24.9-9.5,34.4,0S135.8,120.4,126.3,129.9"/>
</svg>
