<?xml version="1.0" encoding="utf-8"?>
<!-- Generator: Adobe Illustrator 22.1.0, SVG Export Plug-In . SVG Version: 6.00 Build 0)  -->
<svg version="1.1" id="Layer_1" xmlns="http://www.w3.org/2000/svg" xmlns:xlink="http://www.w3.org/1999/xlink" x="0px" y="0px"
	 viewBox="0 0 250 250" style="enable-background:new 0 0 250 250;" xml:space="preserve">
<g>
	<path d="M59.5,95.8c0.5,0.3,1.6,0.7,2.4,1.5c7.8,7.4,15.5,14.8,23.2,22.2c3.9,3.8,7.9,7.6,11.8,11.3c2.8,2.6,2.9,3.9,0.2,6.7
		c-8,8.6-16.1,17.1-24.2,25.7c-2.4,2.5-4.6,5.1-7.1,7.5c-0.8,0.7-2.4,1.4-3.3,1c-1-0.4-1.9-1.8-2.2-2.9c-0.6-2.2-0.7-4.6-1-6.9
		c-0.3-2-1.3-3.1-3.3-3.3c-10.5-1.3-20.9-2.7-31.4-4.1c-0.5-0.1-1-0.2-1.6-0.2c-3.8-0.7-4.6-2.5-2.6-5.9c4.9-7.9,9.7-15.8,14.6-23.7
		c4.9-7.9,9.8-15.8,14.6-23.7C52.6,96.3,53.2,95.9,59.5,95.8z"/>
	<path d="M155,197.4c0-3.9,0-7.8,0-11.7c0-1.8,0.8-3.3,2.4-4.3c15.5-10,30.9-20.1,46.4-29.9c1.2-0.7,3.2-0.8,4.6-0.4
		c2.4,0.7,4.6,0.8,7,0.4c1.4-0.2,3.4,0.2,4.5,1.1c5.7,4.6,11.2,9.4,16.7,14.2c3.2,2.8,2.9,5.9-0.7,8.3
		c-17.3,11.4-34.6,22.9-51.9,34.2c-2.6,1.7-3.7,3.7-3.4,6.7c0.2,1.9,0.3,3.7,0.4,5.6c0.1,2.3-0.9,3.9-3,4.8c-2.2,0.9-3.9,0-5.4-1.7
		c-5.5-6.4-10.9-13-16.4-19.3C154,203.1,154.7,200.2,155,197.4z"/>
	<path d="M89.3,199.6c-3.4,0.9-6.3-0.8-9.1-3.7c-4-4.1-8.2-7.9-12.3-11.8c-2.9-2.8-3-5-0.4-8c4.4-4.8,8.8-9.6,13.3-14.3
		c6.3-6.7,12.6-13.4,19-20.1c2.9-3.1,5.2-3.1,8.2-0.1c12.3,12.4,24.7,24.9,37,37.3c2.8,2.9,2.3,6.3-1.3,8.1
		c-7.2,3.6-14.3,7.2-21.6,10.5c-2.3,1-5.3,1-7.9,1.1C106.1,199,98,199.2,89.3,199.6z"/>
	<path d="M174.5,73.7c0.3-3.4,2.4-5.9,6-6.6c8.3-1.6,16.6-3,25-4.6c1.5-0.3,2.9-0.5,4.4-0.8c4.8-0.9,6.2-0.3,8.8,3.7
		c6.2,9.5,12.3,19,18.5,28.4c3.5,5.3,3.4,7-0.3,12.1c-6.1,8.3-12.3,16.6-18.4,24.9c-3.2,4.3-8,4.2-10.8-0.5
		c-9.2-15.3-18.3-30.6-27.5-45.9c-1.4-2.4-2.9-4.7-4.2-7.1C175.2,76.2,174.9,74.9,174.5,73.7z"/>
	<path d="M161.8,80.2c-0.9,7.9-1.7,15.1-2.6,22.3c-1.3,11.5-2.5,23-3.8,34.6c-1.3,11.4-2.6,22.9-4,34.3c-0.1,1-0.9,1.9-1.3,2.8
		c-0.9-0.5-2-0.8-2.8-1.5c-3.5-3.2-6.9-6.6-10.4-9.9c-9.2-8.8-18.3-17.6-27.5-26.5c-2.2-2.2-2.2-2.7-0.1-5
		c15.9-16.9,31.7-33.8,47.6-50.7c0.4-0.4,0.8-1,1.3-1.3c0.8-0.5,1.8-0.8,2.6-1.3C161.3,79,161.7,79.9,161.8,80.2z"/>
	<path d="M156.3,172c1.2-8.7,2.3-16.7,3.3-24.7c2.8-20.6,5.6-41.2,8.4-61.8c0.2-1.6,0.4-3.1,0.8-4.6c0.2-0.7,0.8-1.5,1.4-1.7
		c0.4-0.1,1.4,0.6,1.7,1.1c2.3,3.7,4.5,7.4,6.8,11.1c8.3,13.9,16.6,27.9,25,41.8c1.3,2.2,2,4.1,0.5,6.6c-0.7,1.1-0.3,2.8-0.8,4.1
		c-0.4,1.2-0.9,2.7-1.8,3.3c-13.6,8.9-27.2,17.7-40.8,26.5c-0.8,0.5-2.2,0.7-3.1,0.4C156.9,173.6,156.6,172.3,156.3,172z"/>
	<path d="M103.6,129.8c-1.1-0.7-2.2-1.2-2.9-1.9c-7.3-7-14.6-14-21.9-20.9c-4.4-4.2-8.8-8.5-13.3-12.8c-1.2-1.1-2.4-2.5-1.5-4
		c0.6-1.1,2.2-2.1,3.4-2.3c19.5-3.6,39-7,58.5-10.5c8.8-1.6,17.5-3.2,26.3-4.6c1-0.2,2.1,0.4,3.2,0.7c-0.4,1-0.4,2.3-1.1,3.1
		c-8.3,9-16.6,17.8-25,26.7c-7.6,8.1-15.3,16.2-22.9,24.3C105.7,128.4,104.7,129,103.6,129.8z"/>
	<path d="M68.3,81.7c0.6-0.6,1.2-1.2,1.9-1.7c24.1-16.7,48.2-33.4,72.3-50c3.2-2.2,4.1-1.9,5.7,1.6c3.8,8.4,7.6,16.7,11.5,25.1
		c1.3,2.7,0.4,7.4-1.9,9.3c-0.8,0.6-2.1,0.8-3.1,1c-19.6,3.6-39.3,7.2-58.9,10.8c-8.2,1.5-16.5,3-24.7,4.5c-0.8,0.1-1.5,0.1-2.3,0.2
		C68.5,82.2,68.4,82,68.3,81.7z"/>
	<path d="M11.6,99.9c-4.3,0-6.5-3.9-4.4-7.5c3.8-6.7,7.7-13.4,11.5-20c2-3.4,4-6.8,5.9-10.3c1.3-2.3,2.9-4,5.2-5.3
		C41.5,50,53,43.2,64.4,36.5c0.5-0.3,1-0.7,1.6-0.9c2-0.8,4-0.9,5.7,0.6c1.8,1.5,2,3.5,1.2,5.5c-1.6,3.7-3.4,7.4-5.1,11
		c-3.7,7.6-7.4,15.2-11,22.8c-0.8,1.7-2,2.8-3.9,3.4c-3.1,0.9-5.1,3-6.3,6.2c-0.5,1.4-1.8,2.9-3.1,3.4c-10,3.8-20.1,7.4-30.2,11
		C12.6,99.7,11.9,99.8,11.6,99.9z"/>
	<path d="M128.5,23.9c1.4,0,2.9-0.2,4.2,0.1c1.2,0.3,2.6,0.9,3.2,1.9c0.8,1.4,0.2,2.9-1.2,3.9c-2.8,2-5.6,3.9-8.5,5.9
		C106.1,49.5,86.1,63.3,66,77.1c-0.7,0.5-1.7,0.3-2.6,0.5c0-0.9-0.3-1.9,0.1-2.7c5.9-13.3,11.8-26.5,17.8-39.7c1-2.3,2.1-4.5,3-6.8
		c0.8-1.9,2-2.8,4.1-2.9c4.6-0.2,9.1-0.5,13.7-0.6C110.8,24.6,119.6,24.3,128.5,23.9C128.5,23.9,128.5,23.9,128.5,23.9z"/>
	<path d="M0.1,111.4c0.1-1.9,1.4-2.6,2.9-3.1c6.6-2.1,13.2-4.3,19.9-6.4c6.8-2.2,13.5-4.4,20.3-6.5c1-0.3,2.1,0,3.1,0
		c-0.2,1-0.2,2.2-0.7,3.1c-9.5,15.5-19,31-28.6,46.4c-0.6,0.9-2,1.8-3,1.8c-0.8,0-2-1.2-2.4-2.2c-3.8-10.6-7.5-21.3-11.3-31.9
		C0.3,112.2,0.2,111.8,0.1,111.4z"/>
	<path d="M250.1,146.8c-0.4,1.5-0.8,3.1-1.2,4.7c-0.9,3.3-1.8,6.7-2.7,9.9c-1,3.2-3.7,4.1-6.2,2c-5.9-4.9-11.7-9.8-17.4-14.9
		c-0.9-0.8-1.2-2.4-1.5-3.7c-0.4-1.7-0.2-3.6-0.7-5.2c-0.5-1.7-0.4-3.2,0.7-4.6c5.2-7.1,10.4-14.2,15.6-21.4
		c0.4-0.5,0.7-1.1,1.2-1.4c1.2-0.6,2.7-1.6,3.7-1.3c1.1,0.4,2.4,1.9,2.7,3.1c1.4,6.8,2.5,13.7,3.7,20.5
		C248.7,138.6,249.4,142.7,250.1,146.8z"/>
	<path d="M176,63.1c-0.4-0.2-1.2-0.4-1.7-1c-1.9-2.1-4.2-3.2-7-3.7c-0.9-0.2-2.1-1-2.5-1.9c-4.1-8.8-8.2-17.7-12.1-26.5
		c-0.3-0.7-0.3-2.3,0.2-2.6c0.7-0.4,2-0.3,2.8,0.1c13.5,6.8,27,13.6,40.5,20.5c3.7,1.9,7.5,3.8,11.2,5.8c0.7,0.4,1.5,1.5,1.4,2.1
		c-0.1,0.7-1.2,1.5-2,1.6c-9.8,1.9-19.6,3.6-29.4,5.4C177.1,62.9,176.8,63,176,63.1z"/>
</g>
</svg>
