<!-- Generated by IcoMoon.io -->
<svg version="1.1" xmlns="http://www.w3.org/2000/svg" width="32" height="32" viewBox="0 0 32 32">
<title>DBC</title>
<path d="M7.616 12.262c0.064 0.038 0.205 0.090 0.307 0.192 0.998 0.947 1.984 1.894 2.97 2.842 0.499 0.486 1.011 0.973 1.51 1.446 0.358 0.333 0.371 0.499 0.026 0.858-1.024 1.101-2.061 2.189-3.098 3.29-0.307 0.32-0.589 0.653-0.909 0.96-0.102 0.090-0.307 0.179-0.422 0.128-0.128-0.051-0.243-0.23-0.282-0.371-0.077-0.282-0.090-0.589-0.128-0.883-0.038-0.256-0.166-0.397-0.422-0.422-1.344-0.166-2.675-0.346-4.019-0.525-0.064-0.013-0.128-0.026-0.205-0.026-0.486-0.090-0.589-0.32-0.333-0.755 0.627-1.011 1.242-2.022 1.869-3.034s1.254-2.022 1.869-3.034c0.384-0.602 0.461-0.653 1.267-0.666z"></path>
<path d="M19.84 25.267c0-0.499 0-0.998 0-1.498 0-0.23 0.102-0.422 0.307-0.55 1.984-1.28 3.955-2.573 5.939-3.827 0.154-0.090 0.41-0.102 0.589-0.051 0.307 0.090 0.589 0.102 0.896 0.051 0.179-0.026 0.435 0.026 0.576 0.141 0.73 0.589 1.434 1.203 2.138 1.818 0.41 0.358 0.371 0.755-0.090 1.062-2.214 1.459-4.429 2.931-6.643 4.378-0.333 0.218-0.474 0.474-0.435 0.858 0.026 0.243 0.038 0.474 0.051 0.717 0.013 0.294-0.115 0.499-0.384 0.614-0.282 0.115-0.499 0-0.691-0.218-0.704-0.819-1.395-1.664-2.099-2.47-0.282-0.294-0.192-0.666-0.154-1.024z"></path>
<path d="M11.43 25.549c-0.435 0.115-0.806-0.102-1.165-0.474-0.512-0.525-1.050-1.011-1.574-1.51-0.371-0.358-0.384-0.64-0.051-1.024 0.563-0.614 1.126-1.229 1.702-1.83 0.806-0.858 1.613-1.715 2.432-2.573 0.371-0.397 0.666-0.397 1.050-0.013 1.574 1.587 3.162 3.187 4.736 4.774 0.358 0.371 0.294 0.806-0.166 1.037-0.922 0.461-1.83 0.922-2.765 1.344-0.294 0.128-0.678 0.128-1.011 0.141-1.037 0.051-2.074 0.077-3.187 0.128z"></path>
<path d="M22.336 9.434c0.038-0.435 0.307-0.755 0.768-0.845 1.062-0.205 2.125-0.384 3.2-0.589 0.192-0.038 0.371-0.064 0.563-0.102 0.614-0.115 0.794-0.038 1.126 0.474 0.794 1.216 1.574 2.432 2.368 3.635 0.448 0.678 0.435 0.896-0.038 1.549-0.781 1.062-1.574 2.125-2.355 3.187-0.41 0.55-1.024 0.538-1.382-0.064-1.178-1.958-2.342-3.917-3.52-5.875-0.179-0.307-0.371-0.602-0.538-0.909-0.102-0.141-0.141-0.307-0.192-0.461z"></path>
<path d="M20.71 10.266c-0.115 1.011-0.218 1.933-0.333 2.854-0.166 1.472-0.32 2.944-0.486 4.429-0.166 1.459-0.333 2.931-0.512 4.39-0.013 0.128-0.115 0.243-0.166 0.358-0.115-0.064-0.256-0.102-0.358-0.192-0.448-0.41-0.883-0.845-1.331-1.267-1.178-1.126-2.342-2.253-3.52-3.392-0.282-0.282-0.282-0.346-0.013-0.64 2.035-2.163 4.058-4.326 6.093-6.49 0.051-0.051 0.102-0.128 0.166-0.166 0.102-0.064 0.23-0.102 0.333-0.166 0.064 0.128 0.115 0.243 0.128 0.282z"></path>
<path d="M20.006 22.016c0.154-1.114 0.294-2.138 0.422-3.162 0.358-2.637 0.717-5.274 1.075-7.91 0.026-0.205 0.051-0.397 0.102-0.589 0.026-0.090 0.102-0.192 0.179-0.218 0.051-0.013 0.179 0.077 0.218 0.141 0.294 0.474 0.576 0.947 0.87 1.421 1.062 1.779 2.125 3.571 3.2 5.35 0.166 0.282 0.256 0.525 0.064 0.845-0.090 0.141-0.038 0.358-0.102 0.525-0.051 0.154-0.115 0.346-0.23 0.422-1.741 1.139-3.482 2.266-5.222 3.392-0.102 0.064-0.282 0.090-0.397 0.051-0.102-0.064-0.141-0.23-0.179-0.269z"></path>
<path d="M13.261 16.614c-0.141-0.090-0.282-0.154-0.371-0.243-0.934-0.896-1.869-1.792-2.803-2.675-0.563-0.538-1.126-1.088-1.702-1.638-0.154-0.141-0.307-0.32-0.192-0.512 0.077-0.141 0.282-0.269 0.435-0.294 2.496-0.461 4.992-0.896 7.488-1.344 1.126-0.205 2.24-0.41 3.366-0.589 0.128-0.026 0.269 0.051 0.41 0.090-0.051 0.128-0.051 0.294-0.141 0.397-1.062 1.152-2.125 2.278-3.2 3.418-0.973 1.037-1.958 2.074-2.931 3.11-0.090 0.102-0.218 0.179-0.358 0.282z"></path>
<path d="M8.742 10.458c0.077-0.077 0.154-0.154 0.243-0.218 3.085-2.138 6.17-4.275 9.254-6.4 0.41-0.282 0.525-0.243 0.73 0.205 0.486 1.075 0.973 2.138 1.472 3.213 0.166 0.346 0.051 0.947-0.243 1.19-0.102 0.077-0.269 0.102-0.397 0.128-2.509 0.461-5.030 0.922-7.539 1.382-1.050 0.192-2.112 0.384-3.162 0.576-0.102 0.013-0.192 0.013-0.294 0.026-0.038-0.038-0.051-0.064-0.064-0.102z"></path>
<path d="M1.485 12.787c-0.55 0-0.832-0.499-0.563-0.96 0.486-0.858 0.986-1.715 1.472-2.56 0.256-0.435 0.512-0.87 0.755-1.318 0.166-0.294 0.371-0.512 0.666-0.678 1.498-0.87 2.97-1.741 4.429-2.598 0.064-0.038 0.128-0.090 0.205-0.115 0.256-0.102 0.512-0.115 0.73 0.077 0.23 0.192 0.256 0.448 0.154 0.704-0.205 0.474-0.435 0.947-0.653 1.408-0.474 0.973-0.947 1.946-1.408 2.918-0.102 0.218-0.256 0.358-0.499 0.435-0.397 0.115-0.653 0.384-0.806 0.794-0.064 0.179-0.23 0.371-0.397 0.435-1.28 0.486-2.573 0.947-3.866 1.408-0.090 0.026-0.179 0.038-0.218 0.051z"></path>
<path d="M16.448 3.059c0.179 0 0.371-0.026 0.538 0.013 0.154 0.038 0.333 0.115 0.41 0.243 0.102 0.179 0.026 0.371-0.154 0.499-0.358 0.256-0.717 0.499-1.088 0.755-2.573 1.766-5.133 3.533-7.706 5.299-0.090 0.064-0.218 0.038-0.333 0.064 0-0.115-0.038-0.243 0.013-0.346 0.755-1.702 1.51-3.392 2.278-5.082 0.128-0.294 0.269-0.576 0.384-0.87 0.102-0.243 0.256-0.358 0.525-0.371 0.589-0.026 1.165-0.064 1.754-0.077 1.114-0.038 2.24-0.077 3.379-0.128 0 0 0 0 0 0z"></path>
<path d="M0.013 14.259c0.013-0.243 0.179-0.333 0.371-0.397 0.845-0.269 1.69-0.55 2.547-0.819 0.87-0.282 1.728-0.563 2.598-0.832 0.128-0.038 0.269 0 0.397 0-0.026 0.128-0.026 0.282-0.090 0.397-1.216 1.984-2.432 3.968-3.661 5.939-0.077 0.115-0.256 0.23-0.384 0.23-0.102 0-0.256-0.154-0.307-0.282-0.486-1.357-0.96-2.726-1.446-4.083 0-0.051-0.013-0.102-0.026-0.154z"></path>
<path d="M32.013 18.79c-0.051 0.192-0.102 0.397-0.154 0.602-0.115 0.422-0.23 0.858-0.346 1.267-0.128 0.41-0.474 0.525-0.794 0.256-0.755-0.627-1.498-1.254-2.227-1.907-0.115-0.102-0.154-0.307-0.192-0.474-0.051-0.218-0.026-0.461-0.090-0.666-0.064-0.218-0.051-0.41 0.090-0.589 0.666-0.909 1.331-1.818 1.997-2.739 0.051-0.064 0.090-0.141 0.154-0.179 0.154-0.077 0.346-0.205 0.474-0.166 0.141 0.051 0.307 0.243 0.346 0.397 0.179 0.87 0.32 1.754 0.474 2.624 0.090 0.525 0.179 1.050 0.269 1.574z"></path>
<path d="M22.528 8.077c-0.051-0.026-0.154-0.051-0.218-0.128-0.243-0.269-0.538-0.41-0.896-0.474-0.115-0.026-0.269-0.128-0.32-0.243-0.525-1.126-1.050-2.266-1.549-3.392-0.038-0.090-0.038-0.294 0.026-0.333 0.090-0.051 0.256-0.038 0.358 0.013 1.728 0.87 3.456 1.741 5.184 2.624 0.474 0.243 0.96 0.486 1.434 0.742 0.090 0.051 0.192 0.192 0.179 0.269-0.013 0.090-0.154 0.192-0.256 0.205-1.254 0.243-2.509 0.461-3.763 0.691-0.038 0-0.077 0.013-0.179 0.026z"></path>
</svg>
