<?xml version="1.0" encoding="utf-8"?>
<!-- Generator: Adobe Illustrator 22.1.0, SVG Export Plug-In . SVG Version: 6.00 Build 0)  -->
<svg version="1.1" id="Layer_1" xmlns="http://www.w3.org/2000/svg" xmlns:xlink="http://www.w3.org/1999/xlink" x="0px" y="0px"
	 viewBox="0 0 226.8 226.8" style="enable-background:new 0 0 226.8 226.8;" xml:space="preserve">
<g>
	<path d="M104.9,1c5.7,0,11.3,0,17,0c1.1,0.3,2.2,0.7,3.3,0.8c46.5,6.4,78.3,31.6,94.4,75.7c3.3,9,4.2,19,6.2,28.5
		c0,5.3,0,10.7,0,16c-0.4,2.4-0.8,4.9-1.1,7.3c-7.6,51.8-49,91.2-101.2,96c-55,5.1-104.9-29.8-118.8-83.3c-1.7-6.5-2.6-13.3-3.8-20
		c0-6,0-12,0-18c0.3-1.1,0.7-2.2,0.9-3.3C8.5,54.6,33.6,23.2,77.3,7.2C86.1,4,95.7,3,104.9,1z M208.3,80.9
		c-11.6,4-22.9,7.9-34.3,11.8c4.3,14,4.3,27.7,0,41.7c11.5,3.9,22.7,7.8,34.4,11.8C215.7,124.3,215.6,102.8,208.3,80.9z M52.8,92.6
		c-11.7-4-22.9-7.8-34.4-11.8c-7.3,22-7.2,43.4,0,65.3c11.6-4,23-7.9,34.4-11.9C48.4,120.2,48.5,106.6,52.8,92.6z M94.2,212.1
		c2.4-12.3,4.6-23.9,6.9-35.7c-14.5-3.2-26.2-10-36-20.9c-9.2,8-18.2,15.8-27.5,23.9C52.9,196.5,71.5,207.3,94.2,212.1z
		 M132.5,212.1c22.8-4.7,41.3-15.5,56.6-32.7c-9.3-8-18.3-15.9-27.4-23.8c-9.9,10.9-21.8,17.7-36.1,20.8
		C128,188.4,130.2,200,132.5,212.1z M37.6,47.6c9.2,8,18.2,15.8,27.4,23.8c9.9-10.9,21.8-17.6,36.1-20.8c-2.3-12-4.6-23.7-6.9-35.6
		C71.5,19.8,52.9,30.4,37.6,47.6z M125.6,50.7c14.5,3,26.3,10.1,36.2,20.7c9.2-8.1,18.2-15.9,27.3-23.8
		c-15.5-17.1-33.9-27.8-56.5-32.5C130.3,27.1,128,38.7,125.6,50.7z"/>
	<path d="M196.8,119.3c-3.8-0.2-6-2-6.1-5.8c-0.1-3.9,2.2-5.8,5.8-5.9c3.4,0,5.6,1.9,5.8,5.5C202.4,116.8,200.4,118.8,196.8,119.3z"
		/>
	<path d="M36.1,113.2c-0.2,4.4-2.4,6.3-6,6.3c-3.4-0.1-5.6-2.1-5.6-5.6c0-3.7,1.9-5.9,5.7-6C34.1,107.8,35.9,110,36.1,113.2z"/>
	<path d="M71.7,191.4c-3.7-0.4-5.9-2.6-5.7-6.2c0.2-3.6,2.6-5.7,6.4-5.4c3.5,0.3,5.5,2.4,5.4,5.8C77.7,189.3,75.4,191.2,71.7,191.4z
		"/>
	<path d="M161,185.5c-0.4,3.5-2.2,5.7-6.1,5.7c-3.6,0-5.7-2.2-5.8-5.5c-0.1-3.6,2-6,5.8-6.1C158.6,179.5,160.7,181.6,161,185.5z"/>
	<path d="M71.8,47.5c-3.5-0.4-5.9-2.1-5.9-5.9c0-3.5,2-5.5,5.5-5.7c3.8-0.2,6.2,2,6.3,5.5C77.8,44.9,75.6,47.1,71.8,47.5z"/>
	<path d="M154.6,47.4c-3.5-0.3-5.7-2.3-5.7-6c0.1-3.4,2.2-5.5,5.7-5.6c3.7-0.1,6.1,2.2,6.1,5.8C160.8,45,158.6,47.2,154.6,47.4z"/>
</g>
</svg>
