<!-- Generated by IcoMoon.io -->
<svg version="1.1" xmlns="http://www.w3.org/2000/svg" width="32" height="32" viewBox="0 0 32 32">
<title>DBET</title>
<path d="M14.801 0.141c0.804 0 1.594 0 2.399 0 0.155 0.042 0.31 0.099 0.466 0.113 6.561 0.903 11.048 4.459 13.319 10.681 0.466 1.27 0.593 2.681 0.875 4.021 0 0.748 0 1.51 0 2.258-0.056 0.339-0.113 0.691-0.155 1.030-1.072 7.309-6.914 12.868-14.279 13.545-7.76 0.72-14.801-4.205-16.762-11.753-0.24-0.917-0.367-1.877-0.536-2.822 0-0.847 0-1.693 0-2.54 0.042-0.155 0.099-0.31 0.127-0.466 0.945-6.504 4.487-10.935 10.653-13.192 1.242-0.452 2.596-0.593 3.894-0.875zM29.39 11.414c-1.637 0.564-3.231 1.115-4.84 1.665 0.607 1.975 0.607 3.908 0 5.884 1.623 0.55 3.203 1.101 4.854 1.665 1.030-3.090 1.016-6.123-0.014-9.213zM7.45 13.065c-1.651-0.564-3.231-1.101-4.854-1.665-1.030 3.104-1.016 6.123 0 9.213 1.637-0.564 3.245-1.115 4.854-1.679-0.621-1.975-0.607-3.894 0-5.87zM13.291 29.926c0.339-1.735 0.649-3.372 0.974-5.037-2.046-0.451-3.697-1.411-5.079-2.949-1.298 1.129-2.568 2.229-3.88 3.372 2.159 2.413 4.783 3.936 7.986 4.614zM18.695 29.926c3.217-0.663 5.827-2.187 7.986-4.614-1.312-1.129-2.582-2.243-3.866-3.358-1.397 1.538-3.076 2.497-5.093 2.935 0.339 1.693 0.649 3.33 0.974 5.037zM5.305 6.716c1.298 1.129 2.568 2.229 3.866 3.358 1.397-1.538 3.076-2.483 5.093-2.935-0.325-1.693-0.649-3.344-0.974-5.023-3.203 0.677-5.827 2.173-7.986 4.6zM17.721 7.153c2.046 0.423 3.711 1.425 5.108 2.921 1.298-1.143 2.568-2.243 3.852-3.358-2.187-2.413-4.783-3.922-7.972-4.586-0.325 1.693-0.649 3.33-0.988 5.023z"></path>
<path d="M27.767 16.832c-0.536-0.028-0.847-0.282-0.861-0.818-0.014-0.55 0.31-0.818 0.818-0.832 0.48 0 0.79 0.268 0.818 0.776 0.014 0.522-0.268 0.804-0.776 0.875z"></path>
<path d="M5.093 15.972c-0.028 0.621-0.339 0.889-0.847 0.889-0.48-0.014-0.79-0.296-0.79-0.79 0-0.522 0.268-0.832 0.804-0.847 0.55-0.014 0.804 0.296 0.832 0.748z"></path>
<path d="M10.116 27.005c-0.522-0.056-0.832-0.367-0.804-0.875s0.367-0.804 0.903-0.762c0.494 0.042 0.776 0.339 0.762 0.818-0.014 0.522-0.339 0.79-0.861 0.818z"></path>
<path d="M22.716 26.173c-0.056 0.494-0.31 0.804-0.861 0.804-0.508 0-0.804-0.31-0.818-0.776-0.014-0.508 0.282-0.847 0.818-0.861 0.522-0.014 0.818 0.282 0.861 0.832z"></path>
<path d="M10.13 6.702c-0.494-0.056-0.832-0.296-0.832-0.832 0-0.494 0.282-0.776 0.776-0.804 0.536-0.028 0.875 0.282 0.889 0.776s-0.296 0.804-0.832 0.861z"></path>
<path d="M21.813 6.688c-0.494-0.042-0.804-0.324-0.804-0.847 0.014-0.48 0.31-0.776 0.804-0.79 0.522-0.014 0.861 0.31 0.861 0.818 0.014 0.48-0.296 0.79-0.861 0.818z"></path>
</svg>
