<!-- Generated by IcoMoon.io -->
<svg version="1.1" xmlns="http://www.w3.org/2000/svg" width="32" height="32" viewBox="0 0 32 32">
<title>DCT</title>
<path d="M0 7.612v16.775h3.232v-13.501h4.353c3.366 0 4.847 1.211 7.136 6.145 2.313 4.986 4.892 7.356 9.47 7.356h7.809v-3.184h-7.809c-2.917 0-4.354-1.032-6.508-5.562s-4.443-8.029-10.098-8.029h-7.585zM24.191 7.612c-3.228 0-5.462 1.178-7.31 3.621 0.667 0.991 1.257 2.073 1.804 3.184 1.658-2.896 3.062-3.62 5.505-3.62h7.809v-3.184h-7.809zM13.386 17.566c-1.644 2.784-3.128 3.548-5.801 3.548h-2.917v3.274h2.917c3.601 0 5.837-1.419 7.543-3.619-0.614-0.935-1.176-1.983-1.71-3.133l-0.032-0.070z"></path>
</svg>
