<!-- Generated by IcoMoon.io -->
<svg version="1.1" xmlns="http://www.w3.org/2000/svg" width="32" height="32" viewBox="0 0 32 32">
<title>DDD</title>
<path d="M14.976 10.483c0-0.73 0.026-1.446-0.013-2.176-0.038-0.678 0.294-1.062 0.87-1.306 5.312-2.24 11.354 0.154 13.555 5.478 1.818 4.416 0.64 9.702-3.827 12.736-1.907 1.306-4.045 2.278-6.106 3.354-1.216 0.64-2.304 1.408-3.123 2.56-0.23 0.32-0.717 0.73-0.986 0.666-0.371-0.090-0.819-0.512-0.96-0.896-0.845-2.419-0.922-4.851 0.141-7.232 1.293-2.893 3.379-5.133 6.157-6.643 1.523-0.832 3.187-1.395 4.762-2.125 0.256-0.115 0.41-0.461 0.614-0.704-0.294-0.102-0.614-0.346-0.883-0.294-4.864 0.986-9.088 3.29-12.71 6.63-1.267 1.165-2.317 2.56-3.43 3.891-0.41 0.486-0.87 0.909-1.395 0.461-0.307-0.256-0.486-0.986-0.358-1.37 0.525-1.472 1.19-2.906 1.843-4.326 0.256-0.576 0.691-1.075 0.922-1.664 0.128-0.32 0.115-0.87-0.077-1.101-0.192-0.218-0.794-0.333-1.075-0.192-1.766 0.87-3.494 1.843-5.235 2.752-0.346 0.179-0.73 0.384-1.114 0.397-0.704 0.013-1.088-0.858-0.576-1.408 1.562-1.677 3.174-3.315 4.8-4.928 0.166-0.166 0.614-0.179 0.87-0.090 1.498 0.538 2.97 1.126 4.454 1.702 1.408 0.538 2.842-0.41 2.867-1.907 0.013-0.742 0.013-1.498 0.013-2.266zM15.552 24.538c-0.717 0.986-0.806 4.634-0.141 5.389 1.446-1.011 2.893-1.997 4.109-2.842-1.216-0.781-2.586-1.664-3.968-2.547z"></path>
<path d="M13.901 9.523c0 0.986 0.013 1.984 0 2.97-0.013 1.037-0.499 1.51-1.446 1.139-2.586-1.050-5.21-2.061-7.654-3.405-1.178-0.64-2.010-1.946-2.906-3.034-0.512-0.627-0.154-1.293 0.653-1.51 1.203-0.32 2.381-0.166 3.546 0.218 1.549 0.499 2.931-0.486 2.906-2.15-0.013-1.19 0.307-2.227 0.998-3.162 0.576-0.794 1.267-0.781 1.818 0.038 1.69 2.573 2.317 5.427 2.099 8.474-0.013 0.141-0.013 0.282-0.013 0.422zM4.096 6.707c-0.243 0.077-0.486 0.154-0.717 0.243 0.128 0.205 0.243 0.41 0.371 0.602 0.102 0.141 0.23 0.269 0.346 0.397 0.832 0.909 1.024 0.909 1.664-0.179 0.090-0.154-0.038-0.64-0.166-0.691-0.474-0.192-0.986-0.256-1.498-0.371zM10.138 3.878c0.141 0.128 0.307 0.41 0.461 0.41 0.384-0.013 0.768-0.115 1.114-0.269 0.128-0.051 0.23-0.41 0.166-0.55-0.179-0.486-0.435-0.96-0.691-1.421-0.051-0.128-0.192-0.269-0.294-0.256-0.102 0-0.243 0.154-0.269 0.269-0.166 0.55-0.307 1.114-0.486 1.818z"></path>
</svg>
