<?xml version="1.0" encoding="utf-8"?>
<!-- Generator: Adobe Illustrator 22.1.0, SVG Export Plug-In . SVG Version: 6.00 Build 0)  -->
<svg version="1.1" id="Layer_1" xmlns="http://www.w3.org/2000/svg" xmlns:xlink="http://www.w3.org/1999/xlink" x="0px" y="0px"
	 viewBox="0 0 250 250" style="enable-background:new 0 0 250 250;" xml:space="preserve">
<g>
	<path d="M117,81.9c0-5.7,0.2-11.3-0.1-17c-0.3-5.3,2.3-8.3,6.8-10.2c41.5-17.5,88.7,1.2,105.9,42.8c14.2,34.5,5,75.8-29.9,99.5
		c-14.9,10.2-31.6,17.8-47.7,26.2c-9.5,5-18,11-24.4,20c-1.8,2.5-5.6,5.7-7.7,5.2c-2.9-0.7-6.4-4-7.5-7c-6.6-18.9-7.2-37.9,1.1-56.5
		c10.1-22.6,26.4-40.1,48.1-51.9c11.9-6.5,24.9-10.9,37.2-16.6c2-0.9,3.2-3.6,4.8-5.5c-2.3-0.8-4.8-2.7-6.9-2.3
		c-38,7.7-71,25.7-99.3,51.8c-9.9,9.1-18.1,20-26.8,30.4c-3.2,3.8-6.8,7.1-10.9,3.6c-2.4-2-3.8-7.7-2.8-10.7
		c4.1-11.5,9.3-22.7,14.4-33.8c2-4.5,5.4-8.4,7.2-13c1-2.5,0.9-6.8-0.6-8.6c-1.5-1.7-6.2-2.6-8.4-1.5c-13.8,6.8-27.3,14.4-40.9,21.5
		c-2.7,1.4-5.7,3-8.7,3.1c-5.5,0.1-8.5-6.7-4.5-11c12.2-13.1,24.8-25.9,37.5-38.5c1.3-1.3,4.8-1.4,6.8-0.7
		c11.7,4.2,23.2,8.8,34.8,13.3c11,4.2,22.2-3.2,22.4-14.9C117,93.8,117,87.9,117,81.9z M121.5,191.7c-5.6,7.7-6.3,36.2-1.1,42.1
		c11.3-7.9,22.6-15.6,32.1-22.2C143,205.5,132.3,198.6,121.5,191.7z"/>
	<path d="M108.6,74.4c0,7.7,0.1,15.5,0,23.2c-0.1,8.1-3.9,11.8-11.3,8.9c-20.2-8.2-40.7-16.1-59.8-26.6c-9.2-5-15.7-15.2-22.7-23.7
		c-4-4.9-1.2-10.1,5.1-11.8c9.4-2.5,18.6-1.3,27.7,1.7c12.1,3.9,22.9-3.8,22.7-16.8c-0.1-9.3,2.4-17.4,7.8-24.7
		c4.5-6.2,9.9-6.1,14.2,0.3c13.2,20.1,18.1,42.4,16.4,66.2C108.6,72.2,108.6,73.3,108.6,74.4z M32,52.4c-1.9,0.6-3.8,1.2-5.6,1.9
		c1,1.6,1.9,3.2,2.9,4.7c0.8,1.1,1.8,2.1,2.7,3.1c6.5,7.1,8,7.1,13-1.4c0.7-1.2-0.3-5-1.3-5.4C40,53.8,36,53.3,32,52.4z M79.2,30.3
		c1.1,1,2.4,3.2,3.6,3.2c3-0.1,6-0.9,8.7-2.1c1-0.4,1.8-3.2,1.3-4.3c-1.4-3.8-3.4-7.5-5.4-11.1C87,15,85.9,13.9,85.1,14
		c-0.8,0-1.9,1.2-2.1,2.1C81.7,20.4,80.6,24.8,79.2,30.3z"/>
</g>
</svg>
