<?xml version="1.0" encoding="utf-8"?>
<!-- Generator: Adobe Illustrator 22.0.1, SVG Export Plug-In . SVG Version: 6.00 Build 0)  -->
<svg version="1.1" id="Layer_1" xmlns="http://www.w3.org/2000/svg" xmlns:xlink="http://www.w3.org/1999/xlink" x="0px" y="0px"
	 viewBox="0 0 226.8 226.8" style="enable-background:new 0 0 226.8 226.8;" xml:space="preserve">
<style type="text/css">
	.st0{stroke:#FFFFFF;stroke-miterlimit:10;}
</style>
<g transform="translate(-108)">
	<path class="st0" d="M219.9,2.5c12.2,0,22,9.9,22,22v177c0,12.2-9.9,22-22,22c-12.2,0-22-9.9-22-22v-177
		C197.9,12.4,207.7,2.5,219.9,2.5z M219.9,9.5c-8.3,0-15,6.7-15,15v177c0,8.3,6.7,15,15,15s15-6.7,15-15v-177
		C234.8,16.2,228.1,9.5,219.9,9.5z"/>
	<path class="st0" d="M315.5,168.2c-6.1,10.5-19.5,14.1-30.1,8.1L132.2,87.8c-10.5-6.1-14.1-19.5-8.1-30.1
		c6.1-10.5,19.5-14.1,30.1-8.1l153.2,88.5C318,144.3,321.6,157.7,315.5,168.2 M309.4,164.7c4.1-7.2,1.7-16.3-5.5-20.4L150.7,55.8
		c-7.2-4.1-16.3-1.6-20.4,5.6c-4.1,7.1-1.6,16.2,5.5,20.3L289,170.2C296.1,174.3,305.3,171.9,309.4,164.7L309.4,164.7"/>
	<path class="st0" d="M315.5,57.8c6.1,10.5,2.5,24-8.1,30.1l-153.2,88.5c-10.5,6.1-24,2.5-30.1-8.1c-6.1-10.5-2.5-24,8.1-30.1
		l153.2-88.5C296,43.6,309.5,47.2,315.5,57.8 M309.4,61.3c-4.1-7.2-13.3-9.6-20.4-5.5l0,0l-153.2,88.5c-7.1,4.2-9.5,13.3-5.4,20.5
		c4.1,7.1,13.2,9.5,20.3,5.5L304,81.7C311.1,77.6,313.6,68.4,309.4,61.3"/>
</g>
</svg>
