<!-- Generated by IcoMoon.io -->
<svg version="1.1" xmlns="http://www.w3.org/2000/svg" width="32" height="32" viewBox="0 0 32 32">
<title>DENT</title>
<path d="M15.788 0.353c1.721 0 3.104 1.397 3.104 3.104v24.974c0 1.721-1.397 3.104-3.104 3.104-1.721 0-3.104-1.397-3.104-3.104v-24.974c0-1.707 1.383-3.104 3.104-3.104zM15.788 1.34c-1.171 0-2.116 0.945-2.116 2.116v24.974c0 1.171 0.945 2.116 2.116 2.116s2.116-0.945 2.116-2.116v-24.974c-0.014-1.171-0.959-2.116-2.116-2.116z"></path>
<path d="M29.277 23.732c-0.861 1.481-2.751 1.989-4.247 1.143l-21.616-12.487c-1.481-0.861-1.989-2.751-1.143-4.247 0.861-1.481 2.751-1.989 4.247-1.143l21.616 12.487c1.496 0.875 2.004 2.765 1.143 4.247M28.416 23.238c0.578-1.016 0.24-2.3-0.776-2.878l-21.616-12.487c-1.016-0.578-2.3-0.226-2.878 0.79-0.578 1.002-0.226 2.286 0.776 2.864l21.616 12.487c1.002 0.578 2.3 0.24 2.878-0.776v0"></path>
<path d="M29.277 8.155c0.861 1.481 0.353 3.386-1.143 4.247l-21.616 12.487c-1.481 0.861-3.386 0.353-4.247-1.143-0.861-1.481-0.353-3.386 1.143-4.247l21.616-12.487c1.496-0.861 3.4-0.353 4.247 1.143M28.416 8.649c-0.578-1.016-1.877-1.354-2.878-0.776v0l-21.616 12.487c-1.002 0.593-1.34 1.877-0.762 2.892 0.578 1.002 1.862 1.34 2.864 0.776l21.63-12.501c1.002-0.578 1.355-1.877 0.762-2.878"></path>
</svg>
