<!-- Generated by IcoMoon.io -->
<svg version="1.1" xmlns="http://www.w3.org/2000/svg" width="32" height="32" viewBox="0 0 32 32">
<title>DERIBIT</title>
<path d="M5.235 15.986c0-1.496 0-2.991 0-4.473 0-0.578 0-0.578-0.564-0.578-1.369 0-2.723 0-4.092 0-0.452 0-0.48-0.028-0.48-0.48 0-1.383 0-2.78 0-4.162 0-0.339 0.113-0.452 0.452-0.452 1.369 0.014 2.723 0 4.092 0 0.593 0 0.593 0 0.593-0.607 0-1.34 0-2.681 0-4.021 0-0.466 0.028-0.494 0.508-0.494 1.369 0 2.751 0 4.12 0 0.423 0 0.466 0.042 0.466 0.466 0 1.397 0 2.794 0 4.19 0 0.437 0.028 0.466 0.451 0.466 1.397 0 2.794-0.014 4.19 0 0.325 0 0.423-0.113 0.423-0.437-0.014-1.397 0-2.794 0-4.19 0-0.48 0.028-0.508 0.494-0.508 1.369 0 2.723 0 4.092 0 0.48 0 0.508 0.028 0.508 0.494 0 1.383 0 2.78 0 4.162 0 0.452 0.014 0.48 0.48 0.466 1.594-0.056 3.118 0.198 4.557 0.861 2.695 1.228 4.543 3.245 5.517 6.039 0.367 1.058 0.578 2.159 0.55 3.287-0.028 1.905-0.494 3.711-1.524 5.347-1.298 2.074-3.104 3.485-5.39 4.317-1.199 0.437-2.441 0.536-3.711 0.55-0.48 0.014-0.494 0.028-0.494 0.508 0 1.369 0 2.751 0 4.12 0 0.437-0.028 0.466-0.451 0.466-1.369 0-2.751 0-4.12 0-0.48 0-0.508-0.028-0.508-0.494 0-1.383 0-2.78 0-4.162 0-0.451 0-0.437-0.451-0.437-1.425 0-2.85 0.014-4.261 0-0.296 0-0.367 0.099-0.367 0.367 0.014 1.411 0 2.822 0 4.233 0 0.466-0.028 0.508-0.494 0.508-1.369 0-2.751 0-4.12 0-0.437 0-0.466-0.028-0.466-0.451 0-1.369 0-2.751 0-4.12 0-0.494-0.014-0.508-0.522-0.508-1.354 0-2.709 0-4.049 0-0.508 0-0.55-0.042-0.55-0.536 0-1.369 0-2.751 0-4.12 0-0.451 0.028-0.466 0.48-0.466 1.383 0 2.78 0 4.162 0 0.452 0 0.48-0.028 0.48-0.48 0-1.594 0-3.132 0-4.67zM16.353 21.093c0 0 0 0 0 0 0.903 0 1.806 0 2.709 0 0.917 0 1.834 0.028 2.751-0.028 0.522-0.028 1.058-0.155 1.524-0.353 1.82-0.79 2.85-2.187 3.118-4.148 0.24-1.735-0.734-3.838-2.229-4.769-0.931-0.578-1.933-0.861-3.034-0.861-3.471 0.014-6.928 0-10.399 0-0.466 0-0.466 0-0.466 0.466 0 3.062 0 6.138 0 9.199 0 0.48 0 0.494 0.494 0.494 1.848 0 3.697 0 5.531 0z"></path>
</svg>
