<?xml version="1.0" encoding="utf-8"?>
<!-- Generator: Adobe Illustrator 22.0.1, SVG Export Plug-In . SVG Version: 6.00 Build 0)  -->
<svg version="1.1" id="Layer_1" xmlns="http://www.w3.org/2000/svg" xmlns:xlink="http://www.w3.org/1999/xlink" x="0px" y="0px"
	 viewBox="0 0 226.8 226.8" style="enable-background:new 0 0 226.8 226.8;" xml:space="preserve">
<style type="text/css">
	.st0{stroke:#FFFFFF;stroke-miterlimit:10;}
</style>
<g>
	<path class="st0" d="M47.6,199.4h-3.3V28.1h4.2c7.6,0,13.7-6.1,13.7-13.7c0,0,0,0,0,0l0,0c0-7.6-6.1-13.7-13.7-13.7c0,0,0,0,0,0
		H29.4c-8,0-14.4,6.5-14.4,14.4c0,0,0,0,0,0V212c0,8.2,6.6,14.8,14.8,14.8c0,0,0,0,0,0h17.8c7.6,0,13.7-6.1,13.7-13.7l0,0
		C61.3,205.5,55.2,199.4,47.6,199.4z"/>
	<path class="st0" d="M196.7,55.5C187.4,39,173.7,25.3,157.2,16C140.4,6.4,121.7,1.6,101,1.6h-4.3C89.1,1.6,83,7.8,83,15.3
		c0,0,0,0,0,0c0,7.6,6.1,13.7,13.7,13.7h3.6c15,0,28.7,3.6,41,10.9c12.2,7.1,22.2,17.4,29.1,29.8c7.1,12.6,10.7,26.8,10.7,42.6
		c0,15.6-3.5,29.6-10.5,42.2c-7,12.6-14.8,24.3-26.8,31.4s-22.8,13.4-37.7,13.4h-8.4c-7.6,0-13.7,6.1-13.7,13.7
		c0,7.6,6.1,13.7,13.7,13.7h6.9c20.9,0,37.8-6.3,54-17.1c17.6-11.7,28.3-24.6,38-41.4s14.5-35.6,14.5-56.4S206.2,72.3,196.7,55.5"/>
</g>
</svg>
