<!-- Generated by IcoMoon.io -->
<svg version="1.1" xmlns="http://www.w3.org/2000/svg" width="32" height="32" viewBox="0 0 32 32">
<title>DEW</title>
<path d="M6.716 28.134h-0.466v-24.169h0.593c1.072 0 1.933-0.861 1.933-1.933 0 0 0 0 0 0v0c0-1.072-0.861-1.933-1.933-1.933 0 0 0 0 0 0h-2.695c-1.129 0-2.032 0.917-2.032 2.032 0 0 0 0 0 0v27.781c0 1.157 0.931 2.088 2.088 2.088 0 0 0 0 0 0h2.511c1.072 0 1.933-0.861 1.933-1.933v0c0-1.072-0.861-1.933-1.933-1.933z"></path>
<path d="M27.753 7.831c-1.312-2.328-3.245-4.261-5.573-5.573-2.37-1.355-5.009-2.032-7.929-2.032h-0.607c-1.072 0-1.933 0.875-1.933 1.933 0 0 0 0 0 0 0 1.072 0.861 1.933 1.933 1.933h0.508c2.116 0 4.049 0.508 5.785 1.538 1.721 1.002 3.132 2.455 4.106 4.205 1.002 1.778 1.51 3.781 1.51 6.011 0 2.201-0.494 4.176-1.481 5.954s-2.088 3.429-3.781 4.43-3.217 1.891-5.319 1.891h-1.185c-1.072 0-1.933 0.861-1.933 1.933s0.861 1.933 1.933 1.933h0.974c2.949 0 5.333-0.889 7.619-2.413 2.483-1.651 3.993-3.471 5.362-5.841s2.046-5.023 2.046-7.958-0.691-5.573-2.032-7.944"></path>
</svg>
