<!-- Generated by IcoMoon.io -->
<svg version="1.1" xmlns="http://www.w3.org/2000/svg" width="32" height="32" viewBox="0 0 32 32">
<title>DGD</title>
<path d="M9.199 11.767h4.416v1.439h-4.416v-1.439zM20.205 18.328h-10.286v5.235h10.272c1.425 0 2.681-1.199 2.681-2.638 0-1.383-1.171-2.596-2.667-2.596z"></path>
<path d="M15.986 0c-8.832 0-15.986 7.153-15.986 15.986s7.153 15.986 15.986 15.986c8.832 0 15.986-7.153 15.986-15.986 0.014-8.832-7.153-15.986-15.986-15.986zM16.494 7.139h7.704v1.538h-6.053v4.515h4.416v-1.425h-3.076v-1.552h4.727v4.515h-7.704c-0.014 0.014-0.014-7.591-0.014-7.591zM7.732 7.224h4.825v1.848h-4.825c0 0 0-1.848 0-1.848zM7.563 10.215h6.053v-3.076h1.75v7.591h-7.802c0 0.014 0-4.515 0-4.515zM20.444 25.51h-12.684v-9.129h12.67c2.455 0 4.459 2.060 4.459 4.571s-1.989 4.557-4.444 4.557v0z"></path>
</svg>
