<?xml version="1.0" encoding="utf-8"?>
<!-- Generator: Adobe Illustrator 22.0.1, SVG Export Plug-In . SVG Version: 6.00 Build 0)  -->
<svg version="1.1" id="Layer_1" xmlns="http://www.w3.org/2000/svg" xmlns:xlink="http://www.w3.org/1999/xlink" x="0px" y="0px"
	 viewBox="0 0 226.8 226.8" style="enable-background:new 0 0 226.8 226.8;" xml:space="preserve">
<path d="M65.2,83.4h31.3v10.2H65.2V83.4z M143.2,129.9H70.3V167h72.8c10.1,0,19-8.5,19-18.7C162.1,138.5,153.8,129.9,143.2,129.9z"
	/>
<path d="M113.3,0C50.7,0,0,50.7,0,113.3c0,62.6,50.7,113.3,113.3,113.3c62.6,0,113.3-50.7,113.3-113.3C226.7,50.7,175.9,0,113.3,0z
	 M116.9,50.6h54.6v10.9h-42.9v32h31.3V83.4h-21.8V72.4h33.5v32h-54.6C116.9,104.5,116.9,50.6,116.9,50.6z M54.8,51.2H89v13.1H54.8
	C54.8,64.3,54.8,51.2,54.8,51.2z M53.6,72.4h42.9V50.6h12.4v53.8H53.6C53.6,104.5,53.6,72.4,53.6,72.4z M144.9,180.8H55v-64.7h89.8
	c17.4,0,31.6,14.6,31.6,32.4S162.3,180.8,144.9,180.8L144.9,180.8z"/>
</svg>
