<?xml version="1.0" encoding="utf-8"?>
<!-- Generator: Adobe Illustrator 22.0.1, SVG Export Plug-In . SVG Version: 6.00 Build 0)  -->
<svg version="1.1" id="Layer_1" xmlns="http://www.w3.org/2000/svg" xmlns:xlink="http://www.w3.org/1999/xlink" x="0px" y="0px"
	 viewBox="0 0 226.8 226.8" style="enable-background:new 0 0 226.8 226.8;" xml:space="preserve">
<g>
	<g>
		<path d="M7,63.6c0,29.2,0,112.8,0,112.8c0,5.1,3,9.6,7.6,11.7l85.5,38.1c4.2,1.9,9-1.2,9-5.8v-117c0-2.5-1.5-4.8-3.8-5.8
			L16.1,57.7C11.8,55.9,7,59,7,63.6z M55.3,121c5.5-0.4,10.5,6.8,11.1,16c0.6,9.2-3.4,17-9,17.3c-5.5,0.4-10.5-6.8-11.1-16
			C45.8,129.1,49.8,121.4,55.3,121z"/>
		<path d="M220.2,176.4c0,0,0-83.6,0-112.8c0-4.6-4.8-7.7-9-5.8l-89.3,39.9c-2.3,1-3.8,3.3-3.8,5.8v117c0,4.6,4.8,7.7,9,5.8
			l85.5-38.1C217.3,186,220.2,181.5,220.2,176.4z M160.9,173.3c-0.6,9.2-5.5,16.4-11.1,16c-5.5-0.4-9.5-8.1-9-17.3
			c0.6-9.2,5.5-16.4,11.1-16C157.5,156.4,161.5,164.1,160.9,173.3z M198.8,108.3c-0.6,9.2-5.5,16.4-11.1,16c-5.5-0.4-9.5-8.1-9-17.3
			c0.6-9.2,5.5-16.4,11.1-16C195.3,91.4,199.4,99.1,198.8,108.3z"/>
		<path d="M20.5,49.9L111,90.3c1.7,0.7,3.6,0.7,5.2,0l90.5-40.4c5.1-2.3,5.1-9.6-0.1-11.8L118.6,1c-1.6-0.7-3.3-1-5-1
			c-1.7,0-3.4,0.3-5,1l-88,37.1C15.5,40.3,15.4,47.6,20.5,49.9z M162.5,33.4c9.2-0.1,16.7,4.4,16.7,10c0,5.6-7.4,10.1-16.6,10.2
			c-9.2,0.1-16.7-4.4-16.7-10C145.8,38,153.3,33.4,162.5,33.4z M113.6,33.4c9.2-0.1,16.7,4.4,16.7,10s-7.4,10.1-16.6,10.2
			c-9.2,0.1-16.7-4.4-16.7-10C96.9,38,104.4,33.4,113.6,33.4z M64.7,33.4c9.2-0.1,16.7,4.4,16.7,10c0,5.6-7.4,10.1-16.6,10.2
			c-9.2,0-16.7-4.4-16.7-10C48.1,38,55.5,33.4,64.7,33.4z"/>
	</g>
</g>
</svg>
