<!-- Generated by IcoMoon.io -->
<svg version="1.1" xmlns="http://www.w3.org/2000/svg" width="32" height="32" viewBox="0 0 32 32">
<title>DICE</title>
<path d="M0.988 8.974c0 4.12 0 15.915 0 15.915 0 0.72 0.423 1.355 1.072 1.651l12.063 5.376c0.593 0.268 1.27-0.169 1.27-0.818v-16.508c0-0.353-0.212-0.677-0.536-0.818l-12.586-5.63c-0.607-0.254-1.284 0.183-1.284 0.832zM7.802 17.072c0.776-0.056 1.481 0.959 1.566 2.258s-0.48 2.399-1.27 2.441c-0.776 0.056-1.481-0.959-1.566-2.258-0.071-1.298 0.494-2.384 1.27-2.441z"></path>
<path d="M31.069 24.889c0 0 0-11.795 0-15.915 0-0.649-0.677-1.086-1.27-0.818l-12.6 5.63c-0.325 0.141-0.536 0.466-0.536 0.818v16.508c0 0.649 0.677 1.086 1.27 0.818l12.064-5.376c0.663-0.31 1.072-0.945 1.072-1.665zM22.702 24.451c-0.085 1.298-0.776 2.314-1.566 2.258-0.776-0.056-1.34-1.143-1.27-2.441 0.085-1.298 0.776-2.314 1.566-2.258s1.355 1.143 1.27 2.441zM28.049 15.28c-0.085 1.298-0.776 2.314-1.566 2.257-0.776-0.056-1.34-1.143-1.27-2.441 0.085-1.298 0.776-2.314 1.566-2.258 0.776 0.056 1.355 1.143 1.27 2.441z"></path>
<path d="M2.892 7.041l12.769 5.7c0.24 0.099 0.508 0.099 0.734 0l12.769-5.7c0.72-0.325 0.72-1.354-0.014-1.665l-12.416-5.235c-0.226-0.099-0.466-0.141-0.705-0.141s-0.48 0.042-0.705 0.141l-12.416 5.235c-0.72 0.31-0.734 1.34-0.014 1.665zM22.928 4.713c1.298-0.014 2.356 0.621 2.356 1.411s-1.044 1.425-2.342 1.439c-1.298 0.014-2.356-0.621-2.356-1.411-0.014-0.79 1.044-1.439 2.342-1.439zM16.028 4.713c1.298-0.014 2.356 0.621 2.356 1.411s-1.044 1.425-2.342 1.439c-1.298 0.014-2.356-0.621-2.356-1.411-0.014-0.79 1.044-1.439 2.342-1.439zM9.129 4.713c1.298-0.014 2.356 0.621 2.356 1.411s-1.044 1.425-2.342 1.439c-1.298 0-2.356-0.621-2.356-1.411s1.044-1.439 2.342-1.439z"></path>
</svg>
