<?xml version="1.0" encoding="utf-8"?>
<!-- Generator: Adobe Illustrator 22.1.0, SVG Export Plug-In . SVG Version: 6.00 Build 0)  -->
<svg version="1.1" id="Layer_1" xmlns="http://www.w3.org/2000/svg" xmlns:xlink="http://www.w3.org/1999/xlink" x="0px" y="0px"
	 viewBox="0 0 226.8 226.8" style="enable-background:new 0 0 226.8 226.8;" xml:space="preserve">
<g>
	<path d="M0,106.9c1.2-6.3,2.1-12.6,3.6-18.9C14.1,42.7,50,9.1,95.8,1.5c1.8-0.3,3.6-1,5.4-1.5c8.3,0,16.7,0,25,0
		c9.8,2.7,20,4.4,29.3,8.3c41,17.3,64.5,48.4,70.6,92.5c0.3,2,0.9,4,1.4,6c0,4.5,0,9.1,0,13.6c-1.2,6.3-2.2,12.6-3.7,18.9
		c-11.1,47.2-49.9,81.4-97.9,86.7C63.8,232.9,8.2,188.2,1.3,126c-0.2-1.8-0.9-3.6-1.3-5.5C0,116,0,111.5,0,106.9z M224.6,113.4
		C224.6,51.9,175,2.2,113.8,2.2c-61.4,0-111,49.7-111,111c0,62,49.3,111.4,111.1,111.4C175.3,224.6,224.7,175,224.6,113.4z"/>
	<path d="M114,11.1C171,11.2,216.2,57,216,114.2c-0.2,56.6-46.1,101.9-102.8,101.7c-56.7-0.2-101.8-46.1-101.7-103.5
		C11.7,56.4,57.6,10.9,114,11.1z M59.1,161.5c3.7,0.2,7.4,0.4,11.2,0.7c0.1,2,0.4,3.6,0.2,5c-0.8,5.3,1.5,6.8,6.6,6.7
		c14-0.3,28,0.1,42-0.2c34-0.8,59.9-24.5,61.6-56.3c1.8-33.3-19.7-59.1-54.3-63.2c-16.3-1.9-32.9-0.5-49.4-1
		c-5.3-0.2-6.7,1.4-6.7,6.6c0,5.1,1.6,6.9,6.5,6.3c1.8-0.2,3.6,0.2,5.4,0.3c0,3.8,0,7.1,0,11c-7.9,0-15.4,0-23.1,0
		c0,4.4,0,8.3,0,12.3c3.9,0.2,7.4,0.4,10.9,0.6c0,3.8,0,7.1,0,10.8c-5.9,0-11.4,0.3-16.8-0.1c-5.3-0.4-6.8,1.4-6.7,6.6
		c0,5,1.5,6.7,6.5,6.3c5.6-0.4,11.3-0.1,17-0.1c0,4.1,0,7.5,0,11.4c-3.9,0-7.2,0-10.8,0c0,4.3,0,8.2,0,12.3c3.9,0.2,7.4,0.4,11,0.6
		c0,3.7,0,7,0,10.5c-3.9,0.2-7.4,0.3-11.5,0.5c0.2,4.6,0.4,8.5,0.6,12.4c-4,0-8,0-12.5,0c0,3.3-0.2,6.1,0.1,8.9
		c0.1,1.1,1.3,2.7,2.3,3c7.4,2.2,10.3,0,10.2-7.5C59.3,164.5,59.2,163,59.1,161.5z"/>
	<path d="M107.3,148.4c0-15.6,0-30.9,0-47c-3.8-0.2-7.3-0.4-11.3-0.5c0-3.4,0-6.7,0-10.6c3.3-0.2,6.9-0.4,11-0.6
		c0.2-3.8,0.4-7.5,0.5-11.1c14.2-3.6,30.2,1.9,38.3,12.8c8.5,11.6,9.1,30.1,1.3,42.5C139.5,145.9,124.5,151.5,107.3,148.4z"/>
	<path d="M83,137.5c-3.5-0.2-7.1-0.4-11.1-0.6c0-3.5,0-6.8,0-10.5c3.4,0,6.7,0,10.9,0c0,3.9,0,7.6,0,11.3L83,137.5z"/>
	<path d="M82.8,137.7c3.6,0,7.1,0,11.2,0c0,3.8,0,7,0,10.8c-3.2,0-6.5,0-10.3,0c-0.2-3.6-0.4-7.3-0.7-11
		C83,137.5,82.8,137.7,82.8,137.7z"/>
	<path d="M71.8,112.6c0-3.5,0-6.6,0-10.2c3.6,0,6.9,0,10.1,0C84.2,113,83.3,113.9,71.8,112.6z"/>
</g>
</svg>
