<!-- Generated by IcoMoon.io -->
<svg version="1.1" xmlns="http://www.w3.org/2000/svg" width="32" height="32" viewBox="0 0 32 32">
<title>DIM</title>
<path d="M0 15.083c0.169-0.889 0.296-1.778 0.508-2.667 1.481-6.392 6.547-11.132 13.009-12.205 0.254-0.042 0.508-0.141 0.762-0.212 1.171 0 2.356 0 3.527 0 1.383 0.381 2.822 0.621 4.134 1.171 5.785 2.441 9.101 6.829 9.961 13.051 0.042 0.282 0.127 0.564 0.198 0.847 0 0.635 0 1.284 0 1.919-0.169 0.889-0.31 1.778-0.522 2.667-1.566 6.66-7.041 11.485-13.813 12.233-8.762 0.974-16.607-5.333-17.58-14.109-0.028-0.254-0.127-0.508-0.183-0.776 0-0.635 0-1.27 0-1.919zM31.69 16c0-8.677-6.998-15.69-15.633-15.69-8.663 0-15.661 7.012-15.661 15.661 0 8.748 6.956 15.718 15.675 15.718 8.663 0 15.633-6.998 15.619-15.69z"></path>
<path d="M16.085 1.566c8.042 0.014 14.42 6.476 14.392 14.547-0.028 7.986-6.504 14.377-14.504 14.349s-14.363-6.504-14.349-14.603c0.028-7.901 6.504-14.321 14.462-14.293zM8.339 22.787c0.522 0.028 1.044 0.056 1.58 0.099 0.014 0.282 0.056 0.508 0.028 0.705-0.113 0.748 0.212 0.959 0.931 0.945 1.975-0.042 3.951 0.014 5.926-0.028 4.797-0.113 8.451-3.457 8.691-7.944 0.254-4.698-2.78-8.339-7.661-8.917-2.3-0.268-4.642-0.071-6.97-0.141-0.748-0.028-0.945 0.198-0.945 0.931 0 0.72 0.226 0.974 0.917 0.889 0.254-0.028 0.508 0.028 0.762 0.042 0 0.536 0 1.002 0 1.552-1.115 0-2.173 0-3.259 0 0 0.621 0 1.171 0 1.735 0.55 0.028 1.044 0.056 1.538 0.085 0 0.536 0 1.002 0 1.524-0.832 0-1.608 0.042-2.37-0.014-0.748-0.056-0.959 0.198-0.945 0.931 0 0.705 0.212 0.945 0.917 0.889 0.79-0.056 1.594-0.014 2.399-0.014 0 0.578 0 1.058 0 1.608-0.55 0-1.016 0-1.524 0 0 0.607 0 1.157 0 1.735 0.55 0.028 1.044 0.056 1.552 0.085 0 0.522 0 0.988 0 1.481-0.55 0.028-1.044 0.042-1.623 0.071 0.028 0.649 0.056 1.199 0.085 1.75-0.564 0-1.129 0-1.764 0 0 0.466-0.028 0.861 0.014 1.256 0.014 0.155 0.183 0.381 0.324 0.423 1.044 0.31 1.453 0 1.439-1.058-0.014-0.198-0.028-0.409-0.042-0.621z"></path>
<path d="M15.139 20.938c0-2.201 0-4.36 0-6.631-0.536-0.028-1.030-0.056-1.594-0.071 0-0.48 0-0.945 0-1.496 0.466-0.028 0.974-0.056 1.552-0.085 0.028-0.536 0.056-1.058 0.071-1.566 2.004-0.508 4.261 0.268 5.404 1.806 1.199 1.637 1.284 4.247 0.183 5.996-1.072 1.693-3.189 2.483-5.616 2.046z"></path>
<path d="M11.711 19.4c-0.494-0.028-1.002-0.056-1.566-0.085 0-0.494 0-0.959 0-1.481 0.48 0 0.945 0 1.538 0 0 0.55 0 1.072 0 1.594l0.028-0.028z"></path>
<path d="M11.683 19.429c0.508 0 1.002 0 1.58 0 0 0.536 0 0.988 0 1.524-0.451 0-0.917 0-1.453 0-0.028-0.508-0.056-1.030-0.099-1.552 0 0-0.028 0.028-0.028 0.028z"></path>
<path d="M10.13 15.887c0-0.494 0-0.931 0-1.439 0.508 0 0.974 0 1.425 0 0.325 1.496 0.198 1.623-1.425 1.439z"></path>
</svg>
