<!-- Generated by IcoMoon.io -->
<svg version="1.1" xmlns="http://www.w3.org/2000/svg" width="32" height="32" viewBox="0 0 32 32">
<title>DIME</title>
<path d="M32 15.238c0 0.536 0 1.072 0 1.594-0.028 0.127-0.071 0.254-0.085 0.381-0.085 1.298-0.339 2.554-0.748 3.795-2.963 8.945-12.952 13.446-21.573 9.623-5.263-2.342-8.367-6.448-9.383-12.134-0.099-0.55-0.155-1.101-0.226-1.651 0-0.536 0-1.072 0-1.594 0.056-0.395 0.099-0.79 0.155-1.185 0.578-4.332 2.54-7.915 5.996-10.554 4.966-3.767 10.469-4.515 16.198-2.060 5.291 2.257 8.395 6.42 9.411 12.092 0.127 0.564 0.183 1.129 0.254 1.693zM1.199 16.014c-0.014 8.155 6.631 14.801 14.801 14.801 8.141 0 14.801-6.617 14.815-14.758 0-8.141-6.645-14.787-14.815-14.787-8.141-0.014-14.801 6.617-14.801 14.744z"></path>
<path d="M18.427 7.915c0 1.171 0 2.342 0 3.513 0 0.254 0.085 0.409 0.296 0.55 2.892 1.933 2.907 6.166 0.014 8.099-0.226 0.155-0.31 0.325-0.31 0.578 0.014 2.314 0 4.642 0.014 6.956 0 0.339-0.099 0.451-0.437 0.508-1.34 0.198-2.681 0.198-4.021 0-0.325-0.042-0.409-0.183-0.409-0.494 0.014-2.3 0-4.586 0.014-6.885 0-0.325-0.085-0.522-0.367-0.72-2.822-1.905-2.808-6.123 0.028-8.028 0.254-0.169 0.339-0.353 0.339-0.649-0.014-2.3 0-4.614-0.014-6.914 0-0.339 0.099-0.452 0.437-0.508 1.326-0.198 2.653-0.198 3.979 0 0.367 0.056 0.451 0.198 0.437 0.536-0.014 1.171 0 2.314 0 3.457z"></path>
<path d="M11.005 27.259c-4.176-2.046-6.561-5.319-7.238-9.919 1.651 0 3.259 0 4.854 0 0.268 0.691 0.451 1.425 0.804 2.060 0.381 0.691 0.931 1.284 1.397 1.933 0.099 0.127 0.212 0.296 0.212 0.437 0.014 1.764 0.014 3.513 0 5.277 0 0.042-0.014 0.099-0.028 0.212z"></path>
<path d="M23.309 17.326c1.665 0 3.259 0 4.882 0-0.353 4.247-3.259 8.212-7.196 9.891-0.014-0.127-0.028-0.226-0.028-0.339 0-1.679 0-3.358 0-5.037 0-0.141 0.028-0.325 0.113-0.395 1.185-1.129 1.905-2.511 2.229-4.12z"></path>
<path d="M8.691 14.744c-1.651 0-3.259 0-4.868 0 0.353-4.515 3.64-8.48 7.224-9.877 0 0.945 0 1.877 0 2.794 0 0.847 0 1.707 0 2.554 0 0.141-0.042 0.339-0.127 0.423-1.185 1.143-1.905 2.511-2.229 4.106z"></path>
<path d="M21.009 4.825c4.162 2.032 6.561 5.305 7.238 9.905-1.651 0-3.259 0-4.882 0-0.169-0.508-0.325-1.044-0.522-1.552-0.367-0.931-0.931-1.721-1.637-2.427-0.113-0.113-0.212-0.282-0.212-0.437-0.014-1.778-0.014-3.541-0.014-5.319-0.014-0.028 0-0.071 0.028-0.169z"></path>
</svg>
