<?xml version="1.0" encoding="utf-8"?>
<!-- Generator: Adobe Illustrator 22.1.0, SVG Export Plug-In . SVG Version: 6.00 Build 0)  -->
<svg version="1.1" id="Layer_1" xmlns="http://www.w3.org/2000/svg" xmlns:xlink="http://www.w3.org/1999/xlink" x="0px" y="0px"
	 viewBox="0 0 226.8 226.8" style="enable-background:new 0 0 226.8 226.8;" xml:space="preserve">
<g>
	<path d="M226.8,108c0,3.8,0,7.6,0,11.3c-0.2,0.9-0.5,1.8-0.6,2.7c-0.6,9.2-2.4,18.1-5.3,26.9c-21,63.4-91.8,95.3-152.9,68.2
		c-37.3-16.6-59.3-45.7-66.5-86c-0.7-3.9-1.1-7.8-1.6-11.7c0-3.8,0-7.6,0-11.3c0.4-2.8,0.7-5.6,1.1-8.4c4.1-30.7,18-56.1,42.5-74.8
		c35.2-26.7,74.2-32,114.8-14.6c37.5,16,59.5,45.5,66.7,85.7C225.9,100,226.3,104,226.8,108z M8.5,113.5
		c-0.1,57.8,47,104.9,104.9,104.9c57.7,0,104.9-46.9,105-104.6C218.4,56.1,171.3,9,113.4,9C55.7,8.9,8.5,55.9,8.5,113.5z"/>
	<path d="M130.6,56.1c0,8.3,0,16.6,0,24.9c0,1.8,0.6,2.9,2.1,3.9c20.5,13.7,20.6,43.7,0.1,57.4c-1.6,1.1-2.2,2.3-2.2,4.1
		c0.1,16.4,0,32.9,0.1,49.3c0,2.4-0.7,3.2-3.1,3.6c-9.5,1.4-19,1.4-28.5,0c-2.3-0.3-2.9-1.3-2.9-3.5c0.1-16.3,0-32.5,0.1-48.8
		c0-2.3-0.6-3.7-2.6-5.1c-20-13.5-19.9-43.4,0.2-56.9c1.8-1.2,2.4-2.5,2.4-4.6c-0.1-16.3,0-32.7-0.1-49c0-2.4,0.7-3.2,3.1-3.6
		c9.4-1.4,18.8-1.4,28.2,0c2.6,0.4,3.2,1.4,3.1,3.8C130.5,39.9,130.6,48,130.6,56.1z"/>
	<path d="M78,193.2c-29.6-14.5-46.5-37.7-51.3-70.3c11.7,0,23.1,0,34.4,0c1.9,4.9,3.2,10.1,5.7,14.6c2.7,4.9,6.6,9.1,9.9,13.7
		c0.7,0.9,1.5,2.1,1.5,3.1c0.1,12.5,0.1,24.9,0,37.4C78.2,192,78.1,192.4,78,193.2z"/>
	<path d="M165.2,122.8c11.8,0,23.1,0,34.6,0c-2.5,30.1-23.1,58.2-51,70.1c-0.1-0.9-0.2-1.6-0.2-2.4c0-11.9,0-23.8,0-35.7
		c0-1,0.2-2.3,0.8-2.8C157.8,144,162.9,134.2,165.2,122.8z"/>
	<path d="M61.6,104.5c-11.7,0-23.1,0-34.5,0c2.5-32,25.8-60.1,51.2-70c0,6.7,0,13.3,0,19.8c0,6,0,12.1,0,18.1c0,1-0.3,2.4-0.9,3
		C69,83.5,63.9,93.2,61.6,104.5z"/>
	<path d="M148.9,34.2c29.5,14.4,46.5,37.6,51.3,70.2c-11.7,0-23.1,0-34.6,0c-1.2-3.6-2.3-7.4-3.7-11c-2.6-6.6-6.6-12.2-11.6-17.2
		c-0.8-0.8-1.5-2-1.5-3.1c-0.1-12.6-0.1-25.1-0.1-37.7C148.6,35.2,148.7,34.9,148.9,34.2z"/>
</g>
</svg>
