<?xml version="1.0" encoding="utf-8"?>
<!-- Generator: Adobe Illustrator 22.1.0, SVG Export Plug-In . SVG Version: 6.00 Build 0)  -->
<svg version="1.1" id="Layer_1" xmlns="http://www.w3.org/2000/svg" xmlns:xlink="http://www.w3.org/1999/xlink" x="0px" y="0px"
	 viewBox="0 0 226.8 226.8" style="enable-background:new 0 0 226.8 226.8;" xml:space="preserve">
<g>
	<path d="M111,28.4c-28.9,59.9-57.9,119.8-87.4,181c4.3,0.4,7.3,0.9,10.3,0.9c42.1,0,84.1,0,126.2,0c2.7,0,5.5-0.1,8.1,0.4
		c4.1,0.7,7.2,3.6,6.6,7.5c-0.5,2.8-3.4,5.5-5.9,7.5c-1.5,1.2-4.2,1-6.4,1c-49.4,0.1-98.9,0.2-148.3,0c-11.2,0-14.4-6-9.5-16
		c32-65.6,64-131.3,95.9-196.9c1.5-3.1,2.9-6.3,4.7-9.2c4-6.3,10-6.2,14,0.1c1.1,1.6,1.9,3.5,2.7,5.2
		c32.1,66.4,64.3,132.8,96.4,199.1c1.1,2.2,2.2,4.5,2.8,6.8c1.1,4-0.2,7.3-4,9.3c-4.1,2.1-7.2,0.3-9.4-3.2c-1.7-2.7-3.2-5.5-4.6-8.4
		c-27.3-56.4-54.7-112.8-82-169.2c-2.6-5.4-5.3-10.8-8-16.3C112.5,28.2,111.7,28.3,111,28.4z"/>
</g>
</svg>
