<!-- Generated by IcoMoon.io -->
<svg version="1.1" xmlns="http://www.w3.org/2000/svg" width="32" height="32" viewBox="0 0 32 32">
<title>DLT</title>
<path d="M15.661 4.007c-4.078 8.451-8.169 16.903-12.332 25.538 0.607 0.056 1.030 0.127 1.453 0.127 5.94 0 11.866 0 17.806 0 0.381 0 0.776-0.014 1.143 0.056 0.578 0.099 1.016 0.508 0.931 1.058-0.071 0.395-0.48 0.776-0.832 1.058-0.212 0.169-0.593 0.141-0.903 0.141-6.97 0.014-13.954 0.028-20.924 0-1.58 0-2.032-0.847-1.34-2.258 4.515-9.256 9.030-18.526 13.531-27.781 0.212-0.437 0.409-0.889 0.663-1.298 0.564-0.889 1.411-0.875 1.975 0.014 0.155 0.226 0.268 0.494 0.381 0.734 4.529 9.369 9.072 18.737 13.601 28.092 0.155 0.31 0.31 0.635 0.395 0.959 0.155 0.564-0.028 1.030-0.564 1.312-0.578 0.296-1.016 0.042-1.326-0.451-0.24-0.381-0.451-0.776-0.649-1.185-3.852-7.958-7.718-15.915-11.57-23.873-0.367-0.762-0.748-1.524-1.129-2.3-0.099 0.028-0.212 0.042-0.31 0.056z"></path>
</svg>
