<!-- Generated by IcoMoon.io -->
<svg version="1.1" xmlns="http://www.w3.org/2000/svg" width="32" height="32" viewBox="0 0 32 32">
<title>DMD</title>
<path d="M6.157 12.056l-5.912 1.142c-0.156 0.84-0.245 1.807-0.245 2.794 0 0.002 0 0.005 0 0.008v-0c0 1 0.093 1.978 0.268 2.928l5.889 1.029-0-7.9zM15.999 14.679l3.698-7.333h-7.396zM7.346 12.302v7.396l7.333-3.698zM24.246 11.175l-3.422-3.422-3.481 6.903zM10.278 6.969l-5.515-2.205 2.197 5.523zM27.235 4.762l-5.523 2.197 3.318 3.318zM24.653 19.698v-7.396l-7.333 3.698zM27.237 27.235l-2.197-5.523-3.318 3.318zM21.108 5.92l5.27-2.097c-1.803-1.538-3.951-2.683-6.313-3.302l1.043 5.398zM31.999 16c0-1-0.093-1.978-0.268-2.928l-5.889-1.029v7.9l5.912-1.142c0.156-0.84 0.245-1.806 0.245-2.794 0-0.003 0-0.005 0-0.008v0zM26.072 10.876l5.374 0.938c-0.626-2.316-1.758-4.423-3.271-6.196l-2.102 5.258zM10.287 25.040l-3.318-3.318-2.205 5.515zM26.079 21.108l2.097 5.27c1.538-1.803 2.683-3.951 3.302-6.313l-5.398 1.043zM26.381 28.174l-5.258-2.102-0.939 5.374c2.316-0.626 4.423-1.758 6.196-3.272zM24.246 20.824l-6.903-3.481 3.481 6.903zM12.043 6.157h7.9l-1.142-5.913c-0.84-0.156-1.807-0.245-2.795-0.245-0.002 0-0.004 0-0.006 0h0c-1 0-1.979 0.093-2.928 0.268l-1.029 5.889zM19.956 25.842h-7.9l1.142 5.912c0.84 0.156 1.806 0.245 2.794 0.245 0.003 0 0.005 0 0.008 0h-0c1 0 1.978-0.093 2.928-0.268l1.028-5.889zM15.999 17.32l-3.698 7.333h7.396zM5.619 3.826l5.257 2.102 0.939-5.374c-2.316 0.626-4.423 1.758-6.196 3.272zM7.753 11.175l6.903 3.481-3.481-6.903zM5.92 10.891l-2.097-5.27c-1.538 1.803-2.683 3.951-3.302 6.313l5.399-1.043zM7.753 20.824l3.422 3.422 3.481-6.903zM10.891 26.079l-5.27 2.097c1.803 1.538 3.951 2.683 6.313 3.302l-1.043-5.398zM5.928 21.123l-5.374-0.939c0.626 2.316 1.758 4.423 3.271 6.196l2.102-5.258z"></path>
</svg>
