<?xml version="1.0" encoding="utf-8"?>
<!-- Generator: Adobe Illustrator 22.1.0, SVG Export Plug-In . SVG Version: 6.00 Build 0)  -->
<svg version="1.1" id="Layer_1" xmlns="http://www.w3.org/2000/svg" xmlns:xlink="http://www.w3.org/1999/xlink" x="0px" y="0px"
	 viewBox="0 0 226.8 226.8" style="enable-background:new 0 0 226.8 226.8;" xml:space="preserve">
<g>
	<path d="M96.9,226.8c-17.9,0-35.7-0.1-53.6,0c-8.2,0.1-14.4-3.2-18.5-10.4c-6.5-11.3-13-22.6-19.6-33.9c-3.8-6.5-3-12.7,0.6-18.9
		c7-11.8,13.6-23.9,20.8-35.5c6.2-9.9,6.5-18.9,0-29C18.8,87.1,12.1,74.3,5,61.8C1.9,56.3,1.8,50.5,5,45c6.4-11.4,12.9-22.7,19.5-34
		C28.8,3.7,35.1,0,43.9,0c35.2,0.2,70.4,0.2,105.5,0.1c8.5,0,14.4,3.7,18.6,10.9c17.3,30.1,34.6,60.3,52,90.4
		c4.6,7.9,5.4,15.7,0.6,23.8c-6.8,11.7-13.5,23.5-20.3,35.3c-10.6,18.4-21.2,36.7-31.7,55.1c-4.3,7.6-10.4,11.5-19.5,11.3
		C131.8,226.4,114.4,226.7,96.9,226.8C96.9,226.7,96.9,226.7,96.9,226.8z M65.8,57c2.3,4,4.1,6.8,5.7,9.7
		c7.3,12.7,14.8,25.3,21.8,38.1c3.6,6.6,3,13.7-0.8,20.2c-7.9,13.6-15.9,27.1-23.8,40.6c-2.1,3.6-1.5,4.9,2.8,5.4
		c0.9,0.1,1.9,0.1,2.8,0.1c14.6,0,29.3,0.1,43.9,0.1c7.5,0,13.3-3.4,17.1-9.9c7.2-12.3,14.2-24.7,21.5-36.9
		c4.4-7.4,4.3-14.6,0.1-21.9c-7.3-12.6-14.5-25.1-21.8-37.7c-3.7-6.3-9.4-9.4-16.6-9.4c-13.7-0.1-27.4-0.1-41.1,0.1
		C73.8,55.6,70.3,56.4,65.8,57z"/>
</g>
</svg>
