<!-- Generated by IcoMoon.io -->
<svg version="1.1" xmlns="http://www.w3.org/2000/svg" width="32" height="32" viewBox="0 0 32 32">
<title>DMT</title>
<path d="M13.672 32c-2.526 0-5.037-0.014-7.563 0-1.157 0.014-2.032-0.451-2.61-1.467-0.917-1.594-1.834-3.189-2.765-4.783-0.536-0.917-0.423-1.792 0.085-2.667 0.988-1.665 1.919-3.372 2.935-5.009 0.875-1.397 0.917-2.667 0-4.092-1.101-1.693-2.046-3.499-3.048-5.263-0.437-0.776-0.452-1.594 0-2.37 0.903-1.608 1.82-3.203 2.751-4.797 0.607-1.030 1.496-1.552 2.737-1.552 4.966 0.028 9.933 0.028 14.885 0.014 1.199 0 2.032 0.522 2.624 1.538 2.441 4.247 4.882 8.508 7.337 12.755 0.649 1.115 0.762 2.215 0.085 3.358-0.959 1.651-1.905 3.316-2.864 4.981-1.496 2.596-2.991 5.178-4.473 7.774-0.607 1.072-1.467 1.623-2.751 1.594-2.441-0.071-4.896-0.028-7.365-0.014 0-0.014 0-0.014 0 0zM9.284 8.042c0.325 0.564 0.578 0.959 0.804 1.369 1.030 1.792 2.088 3.57 3.076 5.376 0.508 0.931 0.423 1.933-0.113 2.85-1.115 1.919-2.243 3.824-3.358 5.728-0.296 0.508-0.212 0.691 0.395 0.762 0.127 0.014 0.268 0.014 0.395 0.014 2.060 0 4.134 0.014 6.194 0.014 1.058 0 1.877-0.48 2.413-1.397 1.016-1.735 2.004-3.485 3.034-5.206 0.621-1.044 0.607-2.060 0.014-3.090-1.030-1.778-2.046-3.541-3.076-5.319-0.522-0.889-1.326-1.326-2.342-1.326-1.933-0.014-3.866-0.014-5.799 0.014-0.508 0.014-1.002 0.127-1.637 0.212z"></path>
</svg>
