<!-- Generated by IcoMoon.io -->
<svg version="1.1" xmlns="http://www.w3.org/2000/svg" width="32" height="32" viewBox="0 0 32 32">
<title>DNT</title>
<path d="M29.078 20.539c-1.213-0.071-0.536-1.989-1.072-4.176-0.635-2.427 0.296-4.106 1.552-4.035 0.578 0.085 1.143 0.325 1.608 0.677-0.212-1.058-0.607-2.060-1.143-2.991-1.115-1.848-3.527-4.543-6.561-6.66v20.289c0 1.129-0.917 2.046-2.046 2.046-0.79 0-1.524-0.451-1.862-1.171-3.753 2.328-8.663 1.171-10.991-2.582s-1.157-8.663 2.582-10.991c2.497-1.552 5.658-1.594 8.212-0.127v-7.873c-0.014-0.607 0.268-1.199 0.734-1.58-3.922-1.806-8.339-2.187-12.106 1.143-6.321 5.616-9.481 13.46-6.321 21.263 0.071 0.169 0.141 0.339 0.198 0.466 0.099-0.183 0.212-0.353 0.367-0.508 1.651-1.679 3.471 1.75 7.337 3.739 2.455 1.242 3.866 2.892 4.402 4.444 3.598 0.437 7.295-0.141 10.258-1.848 3.866-2.215 6.123-6.25 6.928-10.356-0.564 0.508-1.298 0.804-2.074 0.832zM15.9 4.595c0.903-0.028 1.75 1.044 1.778 1.552s-0.776 0.296-1.651 0.607c-0.974 0.339-1.679 0.028-1.721-0.466-0.028-0.508 0.649-1.651 1.594-1.693z"></path>
<path d="M13.91 20.68c1.947 1.115 4.303 0.677 4.741-1.82 0.24-1.453 0.099-3.697-1.171-4.402-4.247-2.427-7.802 3.795-3.57 6.222"></path>
</svg>
