<?xml version="1.0" encoding="utf-8"?>
<!-- Generator: Adobe Illustrator 22.0.1, SVG Export Plug-In . SVG Version: 6.00 Build 0)  -->
<svg version="1.1" id="Layer_1" xmlns="http://www.w3.org/2000/svg" xmlns:xlink="http://www.w3.org/1999/xlink" x="0px" y="0px"
	 viewBox="0 0 226.8 226.8" style="enable-background:new 0 0 226.8 226.8;" xml:space="preserve">
<style type="text/css">
	.st0{stroke:#FFFFFF;stroke-miterlimit:10;}
</style>
<g transform="translate(-.01-.03)">
	<g>
		<path class="st0" d="M206.1,145.6c-8.6-0.5-3.8-14.1-7.6-29.6c-4.5-17.2,2.1-29.1,11-28.6c4.1,0.6,8.1,2.3,11.4,4.8
			c-1.5-7.5-4.3-14.6-8.1-21.2c-7.9-13.1-25-32.2-46.5-47.2v143.8c0,8-6.5,14.5-14.5,14.5c-5.6,0-10.8-3.2-13.2-8.3
			c-26.6,16.5-61.4,8.3-77.9-18.3S52.5,94.1,79,77.6c17.7-11,40.1-11.3,58.2-0.9V20.9c-0.1-4.3,1.9-8.5,5.2-11.2
			C114.6-3.1,83.3-5.8,56.6,17.8c-44.8,39.8-67.2,95.4-44.8,150.7c0.5,1.2,1,2.4,1.4,3.3c0.7-1.3,1.5-2.5,2.6-3.6
			c11.7-11.9,24.6,12.4,52,26.5c17.4,8.8,27.4,20.5,31.2,31.5c25.5,3.1,51.7-1,72.7-13.1c27.4-15.7,43.4-44.3,49.1-73.4
			C216.8,143.3,211.6,145.4,206.1,145.6z M112.7,32.6c6.4-0.2,12.4,7.4,12.6,11s-5.5,2.1-11.7,4.3c-6.9,2.4-11.9,0.2-12.2-3.3
			C101.2,41,106,32.9,112.7,32.6z"/>
		<path class="st0" d="M98.6,146.6c13.8,7.9,30.5,4.8,33.6-12.9c1.7-10.3,0.7-26.2-8.3-31.2C93.8,85.3,68.6,129.4,98.6,146.6"/>
	</g>
</g>
</svg>
