<?xml version="1.0" encoding="utf-8"?>
<!-- Generator: Adobe Illustrator 22.1.0, SVG Export Plug-In . SVG Version: 6.00 Build 0)  -->
<svg version="1.1" id="Layer_1" xmlns="http://www.w3.org/2000/svg" xmlns:xlink="http://www.w3.org/1999/xlink" x="0px" y="0px"
	 viewBox="0 0 226.8 226.8" style="enable-background:new 0 0 226.8 226.8;" xml:space="preserve">
<g>
	<path d="M121.6,84.8c-15.8-2.2-29.3,0.3-41.6,8.1c-21,13.2-31.3,37.1-26.7,61.5c4.4,23.5,22.9,41.9,46.9,46.8
		c34.9,7,69.3-20.1,69.8-55.9c0.5-42.8,0.2-85.7,0.2-128.5c0-9.4,4.4-15.4,11.4-15.2c7,0.2,12,6,11.9,15.4
		c-0.3,40.9,0.2,81.8-0.2,122.7c-0.3,37.5-17.2,65.3-52.1,79.9c-27.7,11.5-54.9,7.6-79.1-10.4c-29.7-22.2-40.5-59.2-28.4-93.8
		c11.9-34,45.4-56.3,81.9-54.5c1.2,0.1,2.4,0,4.8,0c-1.8-1.9-2.8-3.1-3.9-4.2c-4.4-4.6-9.1-8.9-13.2-13.7
		c-4.2-4.8-3.5-11.6,1.1-15.8c3.9-3.6,11.1-3.9,15.2,0.1c12.9,12.7,25.6,25.5,38.1,38.6c4.4,4.6,4.4,10.8-0.2,15.5
		c-12.6,13-25.3,25.8-38.2,38.5c-4.1,4.1-11.5,3.4-15.6-0.7c-4.1-4.2-4.5-11.1-0.5-15.5c4.5-4.9,9.4-9.5,14-14.3
		C118.8,88.1,119.8,86.8,121.6,84.8z"/>
</g>
</svg>
