<!-- Generated by IcoMoon.io -->
<svg version="1.1" xmlns="http://www.w3.org/2000/svg" width="32" height="32" viewBox="0 0 32 32">
<title>DOCK</title>
<path d="M17.157 11.965c-2.229-0.31-4.134 0.042-5.87 1.143-2.963 1.862-4.416 5.235-3.767 8.677 0.621 3.316 3.231 5.912 6.617 6.603 4.924 0.988 9.778-2.836 9.848-7.887 0.071-6.039 0.028-12.092 0.028-18.131 0-1.326 0.621-2.173 1.608-2.145s1.693 0.847 1.679 2.173c-0.042 5.771 0.028 11.541-0.028 17.312-0.042 5.291-2.427 9.213-7.351 11.273-3.908 1.623-7.746 1.072-11.161-1.467-4.19-3.132-5.714-8.353-4.007-13.235 1.679-4.797 6.406-7.944 11.556-7.69 0.169 0.014 0.339 0 0.677 0-0.254-0.268-0.395-0.437-0.55-0.593-0.621-0.649-1.284-1.256-1.862-1.933-0.593-0.677-0.494-1.637 0.155-2.229 0.55-0.508 1.566-0.55 2.145 0.014 1.82 1.792 3.612 3.598 5.376 5.446 0.621 0.649 0.621 1.524-0.028 2.187-1.778 1.834-3.57 3.64-5.39 5.432-0.578 0.578-1.623 0.48-2.201-0.099-0.578-0.593-0.635-1.566-0.071-2.187 0.635-0.691 1.326-1.34 1.975-2.018 0.226-0.183 0.367-0.367 0.621-0.649z"></path>
</svg>
