<?xml version="1.0" encoding="utf-8"?>
<!-- Generator: Adobe Illustrator 22.0.1, SVG Export Plug-In . SVG Version: 6.00 Build 0)  -->
<svg version="1.1" id="Layer_1" xmlns="http://www.w3.org/2000/svg" xmlns:xlink="http://www.w3.org/1999/xlink" x="0px" y="0px"
	 viewBox="0 0 226.8 226.8" style="enable-background:new 0 0 226.8 226.8;" xml:space="preserve">
<style type="text/css">
	.st0{stroke:#FFFFFF;stroke-miterlimit:10;}
</style>
<path class="st0" d="M76.4,0C83,0,87.7,5.3,87.7,11.9V214c0,6.6-5.3,11.9-11.3,11.9c-6.6,0-11.3-5.3-11.3-11.9V11.9
	C65.1,5.3,69.8,0,76.4,0 M113.5,0c6.6,0,11.3,5.3,11.3,11.9V214c0,6.6-5.3,11.9-11.3,11.9c-6.6,0-11.3-5.3-11.3-11.9V11.9
	C101.6,5.3,106.9,0,113.5,0 M150.6,0c6.6,0,11.3,5.3,11.3,11.9V214c0,6.6-5.3,11.9-11.3,11.9c-6.6,0-11.3-5.3-11.3-11.9V11.9
	C138.7,5.3,144,0,150.6,0 M187.7,0c6.6,0,11.3,5.3,11.3,11.9v75.5c0,6.6-5.3,11.9-11.3,11.9c-6.6,0-11.3-5.3-11.3-11.9V11.9
	C175.8,5.3,181.1,0,187.7,0 M39.3,226C32.7,226,28,220.7,28,214v-74.9c0-6.6,5.3-11.9,11.3-11.9c6.6,0,11.3,5.3,11.3,11.9v75.5
	C51.2,220.7,45.9,226,39.3,226"/>
</svg>
