<!-- Generated by IcoMoon.io -->
<svg version="1.1" xmlns="http://www.w3.org/2000/svg" width="32" height="32" viewBox="0 0 32 32">
<title>DPY</title>
<path d="M10.78 0c0.931 0 1.594 0.748 1.594 1.679v28.515c0 0.931-0.748 1.679-1.594 1.679-0.931 0-1.594-0.748-1.594-1.679v-28.515c0-0.931 0.663-1.679 1.594-1.679M16.014 0c0.931 0 1.594 0.748 1.594 1.679v28.515c0 0.931-0.748 1.679-1.594 1.679-0.931 0-1.594-0.748-1.594-1.679v-28.515c-0.085-0.931 0.663-1.679 1.594-1.679M21.249 0c0.931 0 1.594 0.748 1.594 1.679v28.515c0 0.931-0.748 1.679-1.594 1.679-0.931 0-1.594-0.748-1.594-1.679v-28.515c-0.085-0.931 0.663-1.679 1.594-1.679M26.483 0c0.931 0 1.594 0.748 1.594 1.679v10.653c0 0.931-0.748 1.679-1.594 1.679-0.931 0-1.594-0.748-1.594-1.679v-10.653c-0.085-0.931 0.663-1.679 1.594-1.679M5.545 31.887c-0.931 0-1.594-0.748-1.594-1.693v-10.568c0-0.931 0.748-1.679 1.594-1.679 0.931 0 1.594 0.748 1.594 1.679v10.653c0.085 0.861-0.663 1.608-1.594 1.608"></path>
</svg>
