<?xml version="1.0" encoding="utf-8"?>
<!-- Generator: Adobe Illustrator 22.0.1, SVG Export Plug-In . SVG Version: 6.00 Build 0)  -->
<svg version="1.1" id="Layer_1" xmlns="http://www.w3.org/2000/svg" xmlns:xlink="http://www.w3.org/1999/xlink" x="0px" y="0px"
	 viewBox="0 0 226.8 226.8" style="enable-background:new 0 0 226.8 226.8;" xml:space="preserve">
<g>
	<path d="M7.9,127.4c0.9-5.1,3.3-9.5,6.4-13.5c1.5-1.9,3.1-3.7,4.7-5.5c0.6-0.6,0.7-1.2,0.5-2c-0.6-2.3-1-4.7-1.5-7.3
		c-0.3-0.1-1-0.1-1.7-0.3c-3.1-0.6-4.8-2.6-5-5.7c-0.2-3,0.8-5.5,2.6-7.8c2.7-3.6,6.3-6.1,10.3-8c2.7-1.3,4.4-3,5.6-5.9
		c2.4-6.3,6.7-11.4,12-15.6c0.4-0.3,0.8-0.6,1.1-1.1c-5.6,0.9-11,2.5-16.4,4.4c0-0.3,0-0.5,0.1-0.6C30.1,48,34.9,37.9,41.9,29
		c11.7-15,26.9-24.1,45.8-26.7c6-0.8,12.1-0.8,18.2,0c0.5,0.1,1.1,0,1.6-0.3c3-1.6,5.8-1.8,8.7,0.3c0.3,0.2,0.8,0.2,1.2,0.2
		c2.9-0.4,5.7-0.4,8.4,0.7c3.7,1.5,6.2,4,7.7,7.9c-1,0.3-1.9,0.4-2.7,0.7c-1.6,0.7-3.2,1.5-4.8,2.4c-0.4,0.2-0.7,0.9-0.6,1.3
		c0.6,3.6-0.9,6.2-3.6,8.4c-0.8,0.7-1.7,1.5-2.3,2.4c-2.9,4.2-4.9,8.9-5.5,14c0,0.4,0,0.9-0.1,1.3c2.7-0.4,5.2-0.9,7.8-1.2
		c2.7-0.3,5.3-0.3,8,0.5c1.7,0.5,3.2,1.5,4.2,3c0.2,0.3,0.8,0.6,1.2,0.5c2.4-0.1,4.4,0.8,5.9,2.6c0.2,0.2,0.8,0.4,1.1,0.3
		c5.4-1.4,9.1,1.3,10.9,4.9c0.4,0.9,2.6,1,3.3,0.3c0.3-0.3,0.5-0.6,0.7-1c1-1.2,1.5-2.3,0.6-3.9c-1.2-2.3-1-4.9,0.5-7.1
		c0.7-1.2,0.8-2.3,0.6-3.5c-0.3-2.1-1.3-3.8-3.1-5.1c-0.4-0.2-0.7-0.5-1-0.8c3.6-3.7,9.1-4.5,13.8-1.8c1.5,0.9,2.9,2.2,4.3,3.2
		c0.4,0.3,1,0.6,1.5,0.6c1.6-0.1,3,0.4,4.1,1.5c0.3,0.3,0.6,0.6,0.9,0.7c7.3,3,11.9,8.6,15,15.6c2.4,5.6,3.4,11.5,3.6,17.5
		c0.2,6.4-0.3,12.8-1.4,19.1c-0.1,0.4-0.4,0.7-0.6,1.2c9.9,14.4,10.4,30.1,5.6,46.7c2-1.2,3.8-2.3,5.6-3.4c0.3-0.2,0.7-0.4,1-0.6
		c0.7-0.5,1.5-0.7,2.2-0.1c0.7,0.6,0.6,1.4,0.4,2.2c-0.6,2.2-1.4,4.4-1.8,6.7c-1,6.8,0.6,13.1,4,19c1.6,2.7,3.6,5.2,5.5,7.7
		c0.9,1.2,0.9,2.3-0.4,2.8c-6.3,2.9-10.3,7.9-12.9,14.1c-1.4,3.3-2.2,6.8-3.2,10.3c-0.2,0.8-0.5,1.5-1.4,1.7
		c-0.9,0.2-1.5-0.4-1.9-1.2c-1.8-3.5-3.6-7-5.3-10.5c-0.3-0.6-0.7-1.3-1-1.9c-2.1,0.4-3.8,1.1-5.1,2.9c-1.4,1.9-3.1,3.4-4.7,5.2
		c0.4,0.2,0.8,0.4,1.1,0.6c6.4,3.3,9.7,9.5,9.1,16.6c-0.4,3.7-1.1,7.2-2.8,10.4c-2.6,4.9-6.7,7.7-12.2,8.6c-0.2,0-0.4,0.2-0.7,0.2
		c-1.5,0-3,0-4.6,0c-1.2-0.3-2.4-0.6-3.8-0.9c0.8-0.8,1.4-1.5,2-2.2c2.3-2.6,3.9-5.5,4-9c0.1-4.7-1.1-6.1-5.7-6.4
		c-2.2-0.1-4.6,0-6.7,0.7c-2.1,0.7-4.2,1.7-6.4,1.5c-2.2-0.2-4.1,0.1-6.1,1.1c-2.8,1.4-5.9,1.4-9,1.7c-0.5,0-1,0.2-1.4,0.5
		c-3.2,2.2-6.7,2.7-10.4,1.9c-0.7-0.1-1.5-0.1-2.1,0.2c-5.3,2.4-10.8,3.2-16.6,1.7c-0.8-0.2-1.6-0.2-2.4-0.1
		c-6.1,1.1-11.9,0.4-17.3-2.8c-0.8-0.5-1.6-0.7-2.6-0.7c-5.6,0.3-10.8-0.9-15.2-4.7c-0.1-0.1-0.3-0.1-0.4-0.1
		c-0.1,0.3-0.1,0.6-0.1,0.9c-0.7,3.4-4.3,4.7-6.9,2.6c-2-1.7-3.4-3.7-4.7-6c-1.2-2.1-2.5-4.1-5.1-5.1c-4.6-1.8-7.1-5.4-6.9-10.6
		c0-0.2-0.1-0.4-0.1-0.4c-1.8,1.1-3.5,2.3-5.3,3.2c-1.3,0.7-2.6,0.4-3.7-0.5c-1.9-1.6-3.3-3.6-4.2-5.9c-1-2.8-1.3-5.7-1-8.7
		c0.1-1.1,0-2.1-0.5-3.2c-0.9-1.9-1.4-3.9-2-5.9c-0.1-0.3-0.2-0.6-0.3-1.1c-0.5,0.4-0.8,0.7-1.1,0.9c-1.7,1-3.3,2.1-5.1,2.9
		c-1.8,0.8-3.6,0.2-4.7-1.5c-0.9-1.5-1.7-3-2.3-4.6c-2-6-0.9-11.6,2.3-16.9c0.2-0.4,0.4-1,0.3-1.4c-0.8-2.7-0.8-5.3-0.1-8
		c0.1-0.3,0.1-0.8-0.1-1.1c-0.5-0.9-1-1.7-1.6-2.5c-0.5,0.2-1,0.4-1.5,0.6c-3.9,1.3-6.8,0.2-8.5-3.6c-0.5-1-0.7-2.2-1.1-3.3
		C7.9,129.2,7.9,128.3,7.9,127.4z M199.7,105.4c-1.3-5.4-3.5-10.2-6.6-14.6c-0.9-1.4-1.6-1.7-3.1-1c-1.1,0.5-2.2,1.3-2.9,2.2
		c-0.8,1-1.2,2.3-1.7,3.5c-0.4,0.9-0.5,1.9-0.8,2.9c-0.1-1.6-0.1-3.2,0.1-4.8c0.4-2.4,1.3-4.6,3.9-5.5c0.8-0.3,1.6-0.4,2.5-0.5
		c-1.3-2.5-2.6-5-4-7.4c-0.1-0.3-0.7-0.4-1.1-0.4c-2.4,0.3-3.8,1.7-4.5,3.9c-0.2,0.5-0.3,1.1-0.4,1.7c-0.3-1.2-0.4-2.5-0.2-3.6
		c0.3-1.9,1.9-2.9,3.5-3.8c-2.6-3.3-4.9-6.6-9.4-7.6c-0.2,0.8-0.6,1.6-0.6,2.3c0.2,1.5,0.6,2.9,1,4.3c0.2,0.8,0.4,1.5-0.4,2
		c-0.9,0.6-1.5,0.1-2.1-0.6c-0.9-0.9-1.8-1.8-2.8-2.6c-0.9-0.7-1.7-0.4-1.9,0.7c-0.1,0.7-0.2,1.4-0.1,2.1c0.2,2.2,0.5,4.4,0.8,6.6
		c-0.8-1.4-1.5-2.8-2-4.3c-0.6-1.8-0.9-3.7-0.3-5.6c0.7-2.3,2.9-3,4.8-1.5c0.2,0.2,0.4,0.3,0.7,0.6c0.1-2.2-0.7-4.5,1.7-5.8
		c-2.6-2.9-6-4.6-9.8-4.8c-0.6,0-1.2-0.3-1.7-0.1c-1,0.4-1.6,1.8-1.4,2.8c0.2,1.3,0.9,2.4,1.9,3.2c0.6,0.5,1,1,0.6,1.9
		c-0.4,0.8-1.1,0.8-1.9,0.6c-1-0.2-2-0.4-3.1-0.4c-3.2,0-4.8,2.5-3.6,5.3c-1.8-1.3-2-3-0.8-4.7c0.9-1.3,2.1-2,3.7-2.3
		c0.6-0.1,1.1-0.2,1.4-0.2c-0.3-1.8-0.8-3.5-0.7-5.2c0.1-2.1,2-2.7,3.7-3.1c-1.5-4.2-5.3-6.2-9.9-5.4c-0.6,0.1-1.1,0.1-1.7,0.2
		c-1.4-6.2-5.8-7.6-9.9-5.2c0.5,1.2,1.2,2.3,1.6,3.5c0.5,1.6,1.3,2.7,2.6,3.7c1.2,1,2.3,2.2,3.2,3.5c0.8,1.1,1.3,2.4,1.9,3.6
		c-0.1,0.1-0.2,0.1-0.3,0.2c-0.2-0.3-0.4-0.6-0.6-1c-1.4-2.1-2.9-4.1-5-5.6c-1.2-0.8-2.4-1.1-3.7-0.7c-1.6,0.5-2.8,1.6-3.7,3
		c2.8,4.1,3,4.6,3.1,6.5c-2.7-2.7-4.9-5.5-6.2-9.3c0.6,0.5,1,0.8,1.3,1.1c1.3-2.1,3.2-3,5.7-3.2c-0.7-3.3-2.3-5.9-5.2-7.3
		c-3.2-1.5-6,0-8.8,1.9c0.9-1.8,2-2.9,3.5-3.6c1.1-0.5,1.4-1.3,0.5-2.1c-0.9-0.8-2-1.5-3.2-1.8c-4.7-1-9.2,0.1-13.9,1.3
		c0.4,1.6,0.7,3.1,1.1,4.7c2.4-0.6,3.4-0.3,4.4,1.2c1.2,1.9,1.5,4,1.7,6.3c-1.1,0.1-2.1,0.1-3.1,0.2c-0.2-0.9-0.2-1.7-0.4-2.4
		c-0.2-0.8-0.4-1.5-0.7-2.5c-0.9,1-1.6,1.8-2.5,2.9c-0.9-2-1.9-3.7-2.5-5.6c-2.2-7.1-1.1-13.8,2.1-20.3c1.2-2.4,2.7-4.7,4.1-7.1
		c-1.9-0.4-3.7-1.2-4.7-3.3c2.7,1.7,5.1,1.6,7.7-0.4c-1.1-0.5-2.2-0.8-3.3-1.4c-1.1-0.6-2-1.4-2.6-2.8c3.7,2.5,5.3,3.1,7,2.5
		c0-0.1,0-0.2-0.1-0.2c-0.4-0.2-0.9-0.4-1.3-0.6c-4.1-2.1-6.6-5.3-6.3-10.1c0.1-1.2-0.7-1.5-1.6-1.8c-0.8,2.4-0.2,4.8,0.3,7.1
		C111.6,9,111.1,6.6,111,4c-2.5,0.7-3.5,2.7-5,4.7c0-1.2,0-2.2,0-3c-0.2-0.1-0.3-0.1-0.4-0.1c-7-1-14-0.8-20.9,0.5
		C72,8.3,60.9,14,51.6,23c-8.9,8.6-15,18.9-19.6,30.2c-0.1,0.2-0.1,0.4-0.2,0.7c2.7-0.7,5.3-1.4,7.9-2c5.7-1.2,11.4-2.3,17.2-1.6
		c4.7,0.5,7.1,2.6,7.9,6.7c0.1,0.5,0.1,1,0.2,1.6c8.5-2.9,16.7-4.2,23.9,3.1c0.4-0.4,0.8-0.8,1.3-1.1c2.3-1.6,4.5-3.4,7-4.8
		c1.7-0.9,3.7-1.6,5.6-1.8c4.4-0.5,8,2.3,9.3,6.9c-0.9,0.4-1.9,0.7-2.9,1.1c-0.3-0.5-0.5-0.9-0.7-1.3c-1.8-3.4-4.1-4.5-7.6-3
		c-2.6,1.1-5,2.7-7.3,4.3c-1.9,1.4-3.5,3.1-5.3,4.8c-0.3-0.4-0.6-0.9-0.9-1.3c-2.6-3.9-6.3-5.8-10.9-5.8c-4.6-0.1-8.8,1.3-12.9,3.3
		c-0.9,0.5-1.8,1-2.8,1.5c0.3-1.8,0.6-3.4,0.8-5.1c0.4-3.1-1-4.9-4.1-5.6c-0.5-0.1-0.9-0.2-1.4-0.2c-1.7,0-3.7-0.5-5.1,0.2
		c-8.7,4.4-15.2,10.9-18.9,20c-0.6,1.5-0.3,2.4,1.3,2.9c0.7,0.2,1.7,0.4,2.3,0.1c1.7-0.7,3.3-1.6,4.9-2.6c0.9-0.5,1.6-1.3,2.3-1.9
		c-0.1,0.5-0.3,0.8-0.5,1.2c-1,2.4-2.2,4.8-3,7.3c-0.8,2.7-0.1,4.1,2.2,5.5c-0.1,0-0.2,0.1-0.3,0.1c-2.6-0.2-4.1-2.1-3.6-5
		c0.1-0.9,0.4-1.8,0.6-2.9c-2.2,1.5-4.3,1.7-6.4,0.5c-1.6,1.7-2.8,4.7-2.9,6.9c-0.2,3.3,1.9,5.2,5.2,4.6c0.3-0.1,0.6-0.1,0.9-0.2
		c0.3-0.1,0.6-0.1,0.9-0.2c-1.6,1.5-3.4,2.5-5.5,2.5c-2,0-3.2-1.3-4.2-2.9c-0.1,0.1-0.2,0.1-0.3,0.1c-0.1,0.1-0.2,0.2-0.3,0.2
		c-3.9,4.4-5.3,9.3-3.3,15c0.8,2.2,2.7,2.6,4.1,0.7c0.9-1.2,1.5-2.6,2.2-4c0.4-0.7,0.6-1.6,0.9-2.4c0.2,2.5-0.2,4.9-1.3,7.1
		c-0.9,1.7-2.3,2.6-4.2,2.7c-0.5,0-1.1-0.1-1.6-0.1c-0.1,0.2-0.1,0.4-0.2,0.5c-0.1,0.4-0.2,0.8-0.3,1.2c-0.6,3.3-0.7,6.6,1,9.7
		c1,1.7,1.8,1.7,3.6,1c0.5-0.2,1-0.6,1.3-1c0.9-1.2,1.8-2.5,2.6-3.9c0.5-0.8,0.7-1.8,1.1-2.7c0.1,1.3,0.1,2.5-0.2,3.7
		c-0.8,4.2-3.1,7.5-8.2,6.9c-0.3,0-0.9,0.4-1.1,0.8c-1.9,4.3-1.5,8.3,1.5,11.9c0.7,0.8,0.9,1.4,0.4,2.5c-1.9,4.5-0.6,8.8,3.4,11.4
		c0.8,0.5,1.6,0.9,2.2,1.3c-0.4,1.8-0.9,3.5-1,5.3c-0.2,2.7,0.8,5,3.3,6.4c2.4,1.3,4.6,1.7,6.9-0.7c-0.7,2.6-2.5,3.1-4.5,3.4
		c0.2,5.4,3,11,9.4,12.9c0.4,0.1,0.7,0.6,0.9,1c0.6,1.3,0.9,2.9,1.6,4c1,1.5,2.7,2.4,4.6,2.1c1.8-0.3,2.9-1.8,3.4-3.5
		c0.3-1.2,0.4-2.4,0.6-3.5c1.8,2.8,0.9,7.1-2.2,8.9c-0.8,0.5-1.1,1.1-1.2,2c-0.2,3,0.9,5.3,3.5,6.9c1.2,0.7,2.5,1.3,3.8,1.7
		c0.8,0.3,1.1,0.7,1.6,1.3c1.2,1.5,2.3,3.2,3.8,4.4c2.1,1.9,4.5,1.8,6.9,0.4c0.5-0.3,1.1-0.7,1.5-1c0.2,0.1,0.3,0.1,0.3,0.2
		c3.8,5.1,9.1,6.4,15.1,6c0.6,0,1-0.1,1.1-0.8c0.4-3.1,0.6-6.1-1.5-9.1c0.4,0.3,0.5,0.4,0.7,0.5c2.6,2.4,3.6,5.3,3.2,8.7
		c-0.1,0.7-0.3,1.4,0.6,1.9c4.8,2.7,9.9,3.3,15.3,2.1c0.7-0.2,0.8-0.5,0.7-1.2c-0.3-1.7-1-3.1-2.4-4.1c-1-0.7-2.1-1.2-3-1.7
		c3.9-0.1,7.6,2.6,8.6,6.5c0.2,0.7,0.5,1.1,1.2,1.2c4.9,0.8,9.5-0.2,13.8-2.6c0.7-0.4,1.2-0.4,2-0.1c1,0.4,2.2,0.7,3.3,0.7
		c1.8,0,3.5-0.3,5-1.5c-1.3,0-2.5,0.1-3.7,0c-3.6-0.3-7.3-0.5-10.9-0.9c-7.7-0.9-15.1-2.8-21.9-6.5c-9.4-5.1-15.9-12.5-18.4-23.2
		c-1.5-6.4-0.2-11.9,4.1-16.8c0.1-0.1,0.2-0.3,0.4-0.5c-7.4-4-12.4-9.5-12.2-18.4c-3.6-0.3-7-0.7-10.5-1c-6.1-0.5-10-4.3-10.5-10.4
		c0-0.3,0-0.7-0.2-0.8c-1.1-0.3-0.7-1.1-0.6-1.7c0.6-4.7,1.3-9.3,1.9-14c-0.1,0-0.2,0.1-0.3,0.1c-0.4-0.5-1-1-1-1.5
		c-0.1-5.6-0.2-11.3,0.8-16.8c0.4-2.4,0.6-2.5,3-2.2c0.1,0,0.1-0.1,0.3-0.1c1.2-7.2,2.3-14.5,3.5-21.9c0.5,0,0.9,0.1,1.3,0.1
		c7.1,0.9,14.1,1.8,21.2,2.8c0.8,0.1,1.3,0,1.7-0.8c2.5-4.1,6.3-6.2,11-6.9c0.9-0.1,1.8-0.4,2.5-0.9c4.7-2.9,9.7-3.5,14.9-1.6
		c4.5,1.7,8.2,4.6,11.2,8.4c1.7,2.2,3.2,4.5,3,7.5c2.2,0.3,4.2,0.6,6.5,0.9c-0.1,0.9-0.3,1.7-0.3,2.5c0,0.5,0,1.2,0.3,1.6
		c0.8,1.1,1.7,2.1,2.6,3.1c1.9-0.6,2.4-0.2,2.4,1.7c0,0.4,0,0.9,0,1.3c-0.8,6.2-1.7,12.4-2.5,18.6c0,0.3-0.1,0.8,0.1,1
		c0.9,1.3,1.8,2.6,2.5,3.7c1.2-0.3,2.2-0.8,3.2-0.9c0.7-0.1,1.1-0.3,1.6-0.9c3.7-4.9,8.6-7.7,14.8-7.7c2.3,0,2.8,0.8,2.2,3
		c-0.8,2.7-1.4,5.5-2.1,8.2c-0.1,0.4,0,1.2,0.2,1.2c1.9,0.8,3,2.3,3.9,4c0.4,0.9,1.6,0.9,2.4,0.3c0.9-0.6,2-1.2,3-1.4
		c0.7-0.2,1.3-0.4,1.8-0.9c1.9-1.5,3.7-3.2,5.8-4.4c2.6-1.6,5.6-2.3,8.7-1.6c1.9,0.4,2.4,1.2,1.8,3.1c-0.1,0.4-0.2,0.8-0.4,1.3
		c-1.2,3.7-0.4,7,2.5,9.5c2.1,1.8,3.3,4.1,4.5,6.6c0.4,0.9,0.7,1.7,1.1,2.6c2.8-1.2,3.1-1.4,3.8-4c1-3.6,1.9-7.2,2.7-10.8
		c0.4-2,0.5-4.2,0.7-6.5c-3.4,1.7-5.7,4.2-8.3,6.3c2-3.6,3.5-7.6,8.3-8.6c-0.1-1.9-0.3-3.7-0.4-5.6c-0.1-1.3-0.6-2.5-1.5-3.4
		c-1.2-1.2-2.1-1.3-3.3-0.2c-1,0.9-1.9,2-2.7,3C194,105.8,196.4,104.1,199.7,105.4z M130.4,159.1c0.9,0.7,1.7,1.4,2.5,2
		c0.5,0.4,1.3,1,0.7,1.7c-0.6,0.7-1.2,0-1.7-0.4c-1.8-1.6-3.8-2.8-6-3.6c-8.7-2.8-17.4-2.7-26,0c-5.6,1.7-10.4,4.7-13.4,9.9
		c-1,1.8-1.9,3.8-2.1,5.8c-0.2,3.1,0.5,6.3,1.6,9.3c3.2,8.8,9.4,14.7,17.8,18.3c14,6,28.6,7.8,43.6,4.1
		c15.2-3.8,27.8-11.7,37.7-23.9c2-2.5,3.8-5.2,5.8-7.9c-0.7,1.9-1.3,3.6-2,5.3c0.2,0,0.3,0,0.4,0c0.9-0.3,1.8-0.5,2.6-0.8
		c1.6-0.5,2-0.3,2.8,1.2c1.4,2.7,2.8,5.5,4.2,8.2c0.1,0.3,0.3,0.5,0.6,0.9c2.4-8,6-15,12.9-20.1c-6.1-0.8-11.6-2.6-16-6.3
		c2.5,0.9,5.2,2,8,2.9c2.8,0.9,5.8,0.9,9,0.7c-5.7-7.8-8.9-16.3-8-26.1c-2.9,4.2-6.5,7.6-10.7,10.3c1.7-1.8,3.5-3.7,5.1-5.6
		c1.6-2,2.8-4.3,3.9-7.1c-0.7,0.4-1,0.6-1.4,0.8c-2.6,1.6-5.3,3.2-7.9,4.7c-1.6,0.9-2.4,0.6-3.1-1.1c-0.9-2.3-2-4.6-3-6.9
		c-0.2-0.5-0.6-0.8-1-1.4c-0.8,3.1-1.8,5.9-4.6,7.4c-2.2,1.2-6.4,1.1-8.3-0.4c3.7,0.7,6.9,0.2,9.2-3c1.1-1.6,1.9-3.3,1.8-5.2
		c-2.2,2.3-4.9,2.4-8,2.2c4.1-0.7,6.1-1.7,6.9-3.5c-6.4,2-12.3,1.5-16.9-4.1c-0.3,2.9,2.1,4,3.9,5.8c-2.3-0.6-3.7-2.2-4.9-3.9
		c-1.4,2.6-2,5.2-1.4,8c-2.1-2.5-1.3-5.3-0.7-8.1c-1.1-0.4-2.1-0.7-3.2-1.1c-2,4.4-4.2,5.7-7.6,4.6c3.6-1,5.1-3.6,5.8-7.2
		c-2.2,2.1-4.6,2.3-7.3,2.1c4-0.6,5.4-1.5,5.9-3.6c-0.6,0.2-1.1,0.3-1.6,0.4c-4.9,1.5-9.3,0.7-13.1-2.9c-0.3-0.3-0.5-0.6-0.8-0.9
		c-0.2-0.1-0.5-0.1-0.8-0.2c0,0.3-0.2,0.6-0.1,0.8c0.1,0.3,0.3,0.6,0.4,0.8c1.2,1.9,2.8,3.5,4.9,4.5c-2.4-0.4-4.2-1.8-5.8-3.5
		c-0.2-0.3-0.8-0.6-1-0.5c-0.4,0.2-0.9,0.6-1,1c-0.2,1.2-0.2,2.4-0.1,3.6c0,0.8,0.4,1.6,0.5,2.4c-1.1-0.9-1.8-2-2.7-2.9
		c-0.3-0.3-0.9-0.7-1.3-0.7c-4.3,0.3-7.4,2.4-9.3,6.2c-0.8,1.6-1.3,3.5-1.8,5.3c-0.3,1-0.6,1.7-1.8,1.8c-1.3,0.2-2.6,0.5-3.9,0.7
		c-2.2,0.4-2.6,0.8-2.9,3.1c-0.1,0.9,0,1.7,0,2.6c0,0.8,0.5,1.2,1.3,1.4c4.6,1.2,9.3,2.5,13.9,3.7c1.7,0.5,2.5,0,2.8-1.8
		c0.2-1.6,0.1-3.3,0.3-5c0-0.4,0.4-1.1,0.8-1.2c0.7-0.2,1.1,0.4,1.1,1.1c0,1.4,0.1,2.9,0,4.3c-0.2,3-1.1,4.1-4.1,4.9
		C131.9,155.1,131.8,157.2,130.4,159.1z M86.3,123.6c-0.6,3.7-0.8,7.3,0.3,10.9c-0.1,0-0.2,0.1-0.3,0.1c-0.7-2.2-1.4-4.4-2.1-6.7
		c-0.4,0-0.8,0.1-1.3,0.1c-0.5,0-0.9-0.1-1.4-0.2c0.9-0.4,1.8-0.7,2.6-1c0-0.1-0.1-0.2-0.1-0.4c-3,0.5-5.8,0.3-8.5-1.3
		c-0.1,0.1-0.1,0.3-0.2,0.4c0.8,0.6,1.6,1.2,2.4,1.8c0,0.1,0,0.1-0.1,0.2c-1-0.5-1.9-0.9-3.1-1.4c-0.4,1.3-0.8,2.7-1.1,4
		c-0.7,4.3,0.8,8,3,11.6c0.5,0.8,0.7,1.5,0.6,2.5c-0.4,2.8,0.1,5.4,1.3,7.9c2.1,4.2,5.6,6.9,9.7,8.9c0.3,0.1,0.8,0,1-0.2
		c5.6-4.3,12.1-6.2,19-7c1.6-0.2,3.2-0.3,4.6-0.4c0.1-1.6,0.3-3.1,0.4-4.5c0-0.3-0.1-0.6-0.2-0.9c-1-2.4-1-4.8-0.2-7.3
		c0.2-0.6,0.1-1-0.4-1.3c-1-0.5-2-1-2.9-1.5c-0.2-3.2-0.5-6.3-0.7-9.5c-0.8,0.3-1.3,0.5-1.9,0.6c-0.5,0.1-1,0.2-1.5,0.2
		c3.1-1.6,3.3-1.9,2.4-3.4c-1.2,0.3-2.3,0.6-3.7,1c1-0.8,1.8-1.3,2.6-1.9c-1.7,0.4-3.2,0.9-4.8,0.9c-1.5,0-3.1-0.6-4.6-0.9
		c0,0.1-0.1,0.2-0.1,0.2c1.2,0.6,2.3,1.2,3.5,1.8c0,0,0,0.1,0,0.1c-1.3-0.2-2.6-0.4-4.1-0.7c-0.3,3.8,0.6,7.4,1.5,11
		c-2.5-3.9-3.7-8.1-2.6-12.7c-0.7,0-1.3,0.1-2.1,0.1c0.7-0.4,1.2-0.8,1.7-1.1c-1.5-0.1-2.9,0.2-4.2,0c-1.3-0.2-2.5-0.9-3.8-1.4
		c-0.1,0.1-0.1,0.1-0.2,0.2c0.8,0.7,1.7,1.3,2.5,2c0,0.1,0,0.1-0.1,0.2C88.3,124.3,87.4,124,86.3,123.6z M90.7,109.6
		c-2.3-2.1-2.6-5-0.6-6.8c1.7-1.6,4.6-1.4,6,0.3c1.7,2.2,0.9,5-2,6.9c0.2,0.8,0.3,1.7,0.5,2.6c0.5-0.1,0.8-0.1,1.3-0.2
		c-0.5-1.2,0.2-1.8,0.9-2.5c0.7-0.7,1.2-1.7,1.4-2.7c0.4-1.9,0-3.7-1.6-5.1c2.7,1.4,3.2,5.8,1,8.3c-1.6,1.8-1.6,1.8,0.7,2.5
		c-0.3,0.9-0.7,1.9-0.9,2.8c-0.1,0.9,0,1.9,0,3c1.6-1.2,2.9-2.4,4.4-3.3c1.5-1,3.2-1.2,4.9-0.9c-0.1,2-0.2,4-0.3,5.9
		c0.2,0,0.3,0,0.5,0c1-7.1,2-14.2,3-21.3c-10.5-1.4-20.9-2.7-31.4-4.1c-1.1,8.2-2.1,16.2-3.1,24.2c0.9,0.4,1.6,0.2,2.4-0.4
		c1.2-0.9,2.6-1.8,4-2.4c1.5-0.7,3.1-0.6,4.6-0.1c0,0.4,0,0.7,0,0.9c0,0.2,0,0.5,0,0.7c0.1,0,0.2,0.1,0.4,0.1
		C87.9,115.4,89.3,112.5,90.7,109.6z M177.3,43.6c-0.1,0-0.2-0.1-0.3-0.1c0.2-2.2,0.7-4.4-1-6.5c-0.8,2.6-2.4,4.2-4.7,5.2
		c1.8-1.6,3.3-3.3,3.3-5.9c-0.5,0.3-0.9,0.6-1.2,1c-1.7,2.7-4.1,4.2-7.3,4.5c-1.5,0.1-3,0-4.5,0c-0.3,0-0.5,0.2-0.8,0.4
		c0.1,0.2,0.2,0.5,0.4,0.6c0.8,0.4,1.6,0.8,2.4,1c1.2,0.2,2.4,0.2,3.8,0.3c-2.7,1.1-5,0.9-7.3-0.8c-0.1,1.9,0.8,3.2,2.1,4
		c1.2,0.8,2.7,1.1,4.3,1.7c-1.3,0.2-2.6,0.3-3.9,0.6c-0.4,0.1-0.9,0.2-1.1,0.5c-0.8,1.2-1.5,2.5-2.2,3.8c2.7,1.2,4.7,3.4,6,6.2
		c1.9-2.4,2.8-5,2.8-7.9c0-1.1,0.4-1.3,1.5-1.2c0.9,0.1,1.9,0.1,2.6-0.3c1.2-0.7,1.5-0.2,1.9,0.8c1.9,4.5,2.9,9.2,2.6,14.1
		c-0.1,1.7,0.2,2.1,2,2.4c0.6-3,0.6-6,0.1-9c-0.6-3.2-1.7-6.2-3.3-9.1c-0.4-0.7-0.5-1.1,0.6-1.4c1.2-0.3,2.4-1,3.4-1.7
		c0.5-0.4,0.9-0.4,1.3,0c0.7,0.8,1.5,1.5,2.1,2.3c5.8,7.4,7.2,15.9,6.4,24.9c-0.2,1.9-0.3,3.5,0.9,5.2c1.2,1.6,1.9,3.5,2.9,5.3
		c0.4-1.2,0.6-2.4,0.7-3.6c0.9-7.4,0.9-14.8-0.8-22.2c-1.5-6.2-4.1-11.8-8.9-16.2c-1.6-1.5-3.4-2.7-5.3-3.6
		C178.4,40.5,177.8,42,177.3,43.6z M119,89.7c-2.8-0.4-5.5-0.6-8.1-1.2c-2.3-0.5-3.8-0.1-5,2c-0.4,0.7-1.1,0.6-1.4-0.2
		c-0.3-0.7-0.5-1.4-0.6-2.1c-0.1-0.6-0.4-1-1-0.9c-1,0.1-2,0.3-3,0.4c-2.2,0.1-3.9,1.1-5.4,2.6c-0.9,0.9-1.4,0.9-1.9-0.4
		c-0.3-0.7-0.5-1.4-0.6-2.1c-0.2-0.7-0.2-1.4-0.4-2.5c-0.5,0.6-0.7,1-1,1.4c-0.4,0.4-0.8,1.1-1.3,1.2c-2.3,0.5-4,1.9-5.4,3.8
		c-0.5,0.7-1.1,0.6-1.4-0.2c-0.3-0.6-0.6-1.3-0.6-1.9c-0.1-1.7,0-3.5,0-5.3c-2.6-0.4-5-0.7-7.5-1.1c-1.2,3.3-3.4,5.7-6.6,6.7
		c-1.9,0.6-2.5,1.6-2.7,3.4c-0.1,1.4-0.4,2.8-0.6,4.3c3.4,0.4,6.7,0.8,10,1.3c0.3-2.5,0.7-4.9,1-7.4c12.7,1.7,25.2,3.3,37.9,5
		c-0.3,2.4-0.6,4.6-0.9,6.9c4.3,0.7,8.5,1.4,12.8,2.1c0.3-2.1,0.6-4.2,0.8-6.2C121.8,97.5,118.8,94.9,119,89.7z M89.6,86
		c0.2,0,0.3,0.1,0.5,0.1c1-2.5,2.1-5.1,3.1-7.6c0.4-0.9,0.7-1.9,1.3-2.7c2.6-3.1,6.3-3.7,10-4.1c-4.2,1.1-7.9,2.8-10,7
		c3.3,1.6,3.8,2.4,5.5,7.8c2.1-0.4,3-1.2,3.5-3.2c0.2-0.7,0.4-1.3,0.6-1.9c0.3-1.1,0.8-2.3,0.9-3.4c0.5-4,5.7-6.9,9.5-5.2
		c-5.1,0.5-7.9,2.5-8,5.8c1.6,0.4,3,1.2,3.8,2.7c0.8,1.4,1.3,2.9,1.9,4.4c0.1,0,0.2,0,0.3,0c-0.1-1.4-0.2-2.7-0.4-4.1
		c0.1,0,0.1-0.1,0.2-0.1c0.5,1.1,1,2.3,1.6,3.5c1-0.8,2.1-1.6,3.1-2.5c0.6-0.5,1.1-0.7,1.8-0.6c2.5,0.3,5,0.6,7.5,0.8
		c0.3-1.3,0-2.4-1-4.1c-1.8-2.9-4.1-5.3-6.8-7.4c-6.2-4.6-13.3-6-20.5-0.9c-0.3,0.2-0.8,0.3-1.2,0.4c-1.2,0.2-2.4,0.4-3.5,0.7
		c-4.1,1.3-7,3.9-8.7,8C87.4,80.7,88.9,83,89.6,86z M155.6,207.1c0,0.1,0,0.1,0.1,0.2c0.4,0,0.9,0,1.3-0.1c1.5-0.5,3-1.3,4.6-1.7
		c3.6-0.8,7.2-1,10.8,0c2.7,0.8,4.5,2.5,5.1,5.4c0.8,4,0.2,7.8-1.8,11.3c-0.2,0.4-0.4,0.7-0.7,1.3c5-0.2,8.9-2,11.5-6.2
		c1.8-2.8,2.5-5.9,2.9-9.2c0.9-6.9-2.3-12.5-8.7-15c-0.7-0.3-1.2-0.2-1.8,0.3c-5.2,4.5-10.9,8.2-17.2,11.1
		C159.6,205.5,157.6,206.3,155.6,207.1z M136.5,120c-2.3-3.3-4.7-6.8-7.1-10.2c-0.2-0.3-0.7-0.5-1.1-0.5c-3.2-0.6-6.4-1.1-9.7-1.6
		c-2.1-0.4-4.3-0.7-6.5-1.1c-0.5,3.8-1,7.5-1.6,11.3c5.9,1.1,11.5,2.2,17.2,3.2c1.3,0.2,2.3,0.6,2.7,2.1c0,0.1,0.2,0.2,0.3,0.4
		C132.8,122.7,135.4,122.9,136.5,120z M74.2,101.2c-0.4-0.1-0.5-0.1-0.7-0.2c-5.5-0.7-10.9-1.3-16.4-2c-0.9-0.1-1.2,0.1-1.2,0.9
		c-0.2,3.5-0.4,7-0.7,10.5c-0.1,0.8,0.2,1.1,1,1.2c3.9,0.4,7.8,0.9,11.6,1.4c1.6,0.2,3.1,0.3,4.8,0.5
		C73.1,109.4,73.7,105.3,74.2,101.2z M176.7,49.6c3.2,5.7,4.3,11.9,3.2,18.5c0,0.2,0.2,0.7,0.4,0.8c2.7,1.8,4.7,4.2,6.6,6.7
		c0.3,0.4,0.7,0.7,1.1,1.1c2.8-9.1-1.4-24.6-7.6-29C179.2,48.3,178,48.9,176.7,49.6z M71.5,122.2c0.3-2.1,0.5-4.2,0.8-6.3
		c-3.6-0.4-7.2-0.9-10.8-1.3c-0.4,2.2-0.7,4.2-1.1,6.3c4.3,1.4,6.6,4.2,7.3,8.4c0.1,0.3,0.5,0.7,0.8,0.8c0.6,0.2,1.2,0.1,1.6,0.2
		c1-2.7,2-5.2,2.9-7.7C72.7,122.4,72.1,122.3,71.5,122.2z M73.2,142.6c-1-2.6-1.9-5.1-2.9-7.7c-4.9-0.6-9.9-1.2-15-1.9
		c-0.1,0.3-0.1,0.4-0.1,0.5c0,4,3.4,7.7,7.4,8.1c1.3,0.1,2.5,0.3,3.8,0.4C68.7,142.2,70.9,142.4,73.2,142.6z M112.3,135.9
		c0.7,0.4,1-0.1,1.2-0.8c1.2-2.9,3.3-4.7,6.4-5.2c0.7-0.1,1.3-0.1,2.1-0.2c0.3-2.1,0.6-4.2,0.9-6.4c-4.3-0.8-8.5-1.6-12.7-2.3
		c-0.5,1.3-0.4,2.3,0.1,3.4c0.4,0.8,0.7,1.7,0.8,2.6C111.5,129.9,111.9,132.8,112.3,135.9z M157.5,111.4c-1.8-0.8-3.8-0.7-5.9,0.5
		c-3.4,1.9-5.6,4.8-7.6,7.9c2.5,2.9,7.9,4.3,11.4,3.1c0.1-2,0.1-4,0.5-5.9C156.2,115.2,156.9,113.3,157.5,111.4z M183.5,119.5
		c-4.1-2-10.3,2.7-13.3,7.2c2.7,3.2,8.3,4.2,12.6,2.2C181.8,125.7,182.6,122.5,183.5,119.5z M129.7,9.5c-0.9-2.3-2.7-3.7-5-4.4
		c-2.8-0.9-5.7-0.7-8.6-0.3c-0.8,0.1-0.7,0.6-0.7,1.2c0.1,3.7,3.4,8.2,6.6,9.3c1.2-1.2,2.2-2.5,3.4-3.4
		C126.8,10.9,128.3,10.3,129.7,9.5z M158.3,31.6c0.1,0.2,0.2,0.4,0.3,0.5c1.6,2.2,2.9,4.5,2.7,7.3c0,0.2,0.4,0.6,0.6,0.6
		c1.4,0.1,2.8,0.4,4.2,0.2c2.6-0.3,4.4-1.7,5.6-4c0.2-0.3,0.1-0.9-0.1-1.1c-1.9-2-4-3.7-6.6-4.7C162.7,29.7,160.4,29.8,158.3,31.6z
		 M17.9,115.3c-2.7,3.6-5.3,7.3-6.1,11.9c-0.3,1.9-0.1,3.6,1,5.3c0.6,1,1.5,1.3,2.5,1.1c0.5-0.1,1.1-0.4,1.6-0.5
		c0.7-0.2,0.9-0.6,0.9-1.3c-0.2-2.6,0.4-5,1.3-7.5c0.4-0.9,0.5-2,0.3-3C19.1,119.3,18.5,117.4,17.9,115.3z M27.3,79.7
		c-3.7,1.9-7.2,4-10,7.1c-1.3,1.5-2.4,3.2-2.5,5.3c-0.1,2.5,0.9,3.6,3.4,3.4c0.4,0,0.9-0.4,1-0.7c1.2-3.1,3-5.7,5.4-8
		c0.5-0.5,0.9-1.1,1.1-1.7C26.3,83.4,26.8,81.6,27.3,79.7z M62.6,97.4c0.4-2.4,0.8-4.6,1.1-6.9c0.1-0.8,0.4-1.2,1.3-1.4
		c3.6-0.9,6.2-3,7.7-6.4c0.1-0.3,0.3-0.5,0.4-0.8c3.1,0.4,6.1,0.9,9.1,1.3c0.3-0.9,0.5-1.6,0.8-2.4c-4.1-0.5-8.1-1.1-12.1-1.6
		c-0.1,0.4-0.2,0.7-0.2,1c-0.8,3.5-2.8,6.1-6.2,6.9c-2.4,0.5-2.9,1.8-3.1,3.8c-0.2,2-0.6,4.1-0.9,6.2C61.1,97.2,61.8,97.3,62.6,97.4
		z M173.3,51.7c-1.5,0.2-2.7,0.3-4,0.5c-0.1,3.1-1.1,5.9-3,8.5c3.7,0.6,6.8,2.4,9.6,5C176.2,60.6,175.1,56,173.3,51.7z M28.4,166.1
		c-0.8-1.2-1.5-2.1-2-3.2c-1.2-2.5-1.1-5.2-0.7-7.8c0.1-0.3,0.1-0.8-0.1-1c-0.8-0.7-1.6-1.3-2.5-2c-2.9,5.3-3.3,10.6-0.2,15.9
		c0.4,0.7,0.8,1,1.6,0.5C25.8,167.8,27.1,167,28.4,166.1z M134.1,110.7c0.1-0.2,0.2-0.3,0.3-0.4c0.7-5,1.4-9.9,2.1-14.9
		c0-0.2,0.1-0.6,0-0.7c-1.1-1.2-2.2-2.5-3.3-3.8c-0.1,0.3-0.2,0.5-0.2,0.6c-0.7,4.7-1.3,9.3-2,14c0,0.2-0.1,0.5,0,0.7
		C131.9,107.7,133,109.2,134.1,110.7z M110,87c0,0.1,0,0.2,0,0.2c1.7,0.2,3.4,0.5,5,0.7c1.7,0.3,3.4,0.5,5.2,0.8
		c-0.1,2.5,0.5,4.6,2.3,6.2c1.3,1.1,2.9,2,4.4,2.8c0.6,0.3,0.9,0.6,0.8,1.3c-0.3,1.9-0.6,3.8-0.8,5.7c0,0.3,0.1,0.6,0.2,0.9
		c0.2-0.3,0.5-0.5,0.6-0.8c0.3-2.1,0.5-4.2,0.9-6.3c0.2-1,0-1.5-1-1.9c-3.9-1.5-5.7-4.4-5.6-8.6c0-0.7,0.1-1.5,0.2-2.3
		c-1.9-0.2-3.7-0.5-5.5-0.7c-0.6,0-1.3,0.2-1.8,0.4c-1.2,0.6-2.3,1.7-3.8,1.1C110.7,86.6,110.3,86.9,110,87z M123.6,149.9
		c-2.6-0.7-5-1.3-7.5-2c-0.4,2.4-0.7,4.6-1.1,6.8c2.4,0.3,4.6,0.6,6.5,0.8c0.6-0.3,0.9-0.6,1.2-0.7c1-0.3,1.4-1,1.2-1.9
		c-0.2-0.6-0.7-1.1-1.1-1.7c0-0.1,0.2-0.3,0.3-0.5C123.2,150.6,123.3,150.3,123.6,149.9z M68,131.3c-1.4-0.4-1.4-0.4-1.7-1.9
		c-0.7-3.2-2.4-5.6-5.4-7.1c-0.7-0.3-1.4-0.6-2.1-0.9c0.4-2.3,0.7-4.6,1.1-7c-0.7-0.1-1.3-0.1-1.9-0.2c-0.4,2.8-0.8,5.5-1.2,8.3
		c4.2,1.2,6.7,4,8,8c0.1,0.2,0.3,0.5,0.5,0.6C66.1,131.1,67.1,131.2,68,131.3z M104.8,123.6c-0.2-2.6-0.3-4.9-0.5-7.2
		c-3.2,1.2-5.2,3.7-6.6,6.8C100,124.7,103.1,124.8,104.8,123.6z M37.7,180.7c-0.1,3.6,0.9,6.8,3.5,9.3c0.2,0.2,0.6,0.3,0.8,0.2
		c1-0.6,1.9-1.2,2.5-1.6c-1-2-1.8-3.7-2.7-5.5c-0.1-0.2-0.2-0.5-0.4-0.5C40.2,182,39,181.4,37.7,180.7z M94.1,122.2
		c0.1-2.4,0.3-4.7,0.4-6.9c-3.1,0.7-5.3,2.8-7.1,5.6C89.6,122.5,92,122.8,94.1,122.2z M84,118.6c-2.6-0.4-6.4,2-7.7,5.2
		c1.9,1.2,4,1.8,5.9,1.3C82.9,122.7,83.5,120.7,84,118.6z M94.5,80.5c-1.1,2.8-1.8,5.4-0.8,8.2c1.6-0.9,3.1-1.7,4.6-2.5
		C97.6,84,97,81.7,94.5,80.5z M83.3,89.5c1.5-0.9,3-1.8,4.5-2.7c0.1-0.1,0.2-0.3,0.3-0.5c0.1-1.7-2-4.4-3.8-4.7
		C83.2,84,82.8,87,83.3,89.5z M105.1,88.4c1.7-1.1,3.2-2,4.6-2.9c0.2-0.1,0.4-0.4,0.4-0.6c0-1.3-1.8-3.8-3.1-4.1
		c-0.3-0.1-0.8,0.3-0.9,0.5c-0.4,1.3-0.8,2.7-1,4C105,86.3,105.1,87.3,105.1,88.4z M122.4,131.3c-3.5-0.6-7.4,2.3-7.9,6.1
		c0.4-0.4,0.7-0.7,0.9-0.9c0.6-0.8,1.1-1.6,1.7-2.3c0.9-1,2.1-1.7,3.5-1.6c0.2,0.6,0.4,1.1,0.6,1.8
		C121.7,133.2,122,132.3,122.4,131.3z M123.3,129.2c1.1-1.3,1.6-4.9,0.8-5.6C123.8,125.5,123.5,127.4,123.3,129.2z"/>
	<path d="M100.3,8.2c1.1,0,2.2,0,3.2,0c1,0,1.1,0.4,1,1.2c-0.3,1.9-0.2,3.8,0.7,5.6c0.4,0.7,0,1-0.6,1.2c-4.5,1.8-8.6,4.3-12.6,7.2
		c-10.3,7.5-18.4,17.1-25,28c-0.2,0.3-0.3,0.7-0.6,0.9c-0.2,0.1-0.8,0.1-0.9,0c-3.2-5.3-8.3-5.7-13.6-5.4c-4.3,0.3-8.5,1.6-12.5,3.1
		c-0.5,0.2-1,0.1-1.5,0.2c0.1-0.5,0-1.1,0.2-1.6c2.9-8.5,7.7-15.8,14.2-21.9c9.6-9.2,21.3-14.4,34.3-16.8C91,9.1,95.6,8.6,100.2,8
		C100.2,8.1,100.3,8.1,100.3,8.2z M103.3,9.1c-0.5,0-1.1,0-1.7,0c-3.4,0.3-6.8,0.5-10.1,0.9c-9,1.1-17.6,3.6-25.6,8
		c-12.2,6.6-21.2,16.2-26.4,29.3c-0.2,0.5-0.3,1-0.6,1.8c0.6-0.2,1-0.4,1.4-0.5c4.9-1.7,10-3,15.2-2.7c3.3,0.2,6.4,1,8.9,3.4
		c0.6,0.5,1,1.2,1.6,1.8c9.4-15.4,21.3-28.1,37.8-35.7C103.7,13.3,103.5,11.3,103.3,9.1z"/>
	<path d="M69,55.3c0.2-0.6,0.3-1,0.4-1.3c7.6-14.7,18-26.8,32.6-35c0.1-0.1,0.3-0.2,0.4-0.2c4-1.9,2.6-2.1,5.9,1.1
		c0.6,0.6,0.6,1.1,0,1.7c-5.4,6-10.2,12.4-14.2,19.4c-2.6,4.5-4.8,9.2-6.1,14.3c-0.2,0.8-0.4,1.1-1.3,0.7
		c-5.1-2.8-10.5-2.7-15.9-1.1C70.3,55.1,69.8,55.2,69,55.3z M105.4,18.4c-15.7,7.7-26.6,20.1-34.7,35.3c5.6-1.4,11-1.4,16.3,1.2
		C91,41.7,99,31,107.8,20.8C107,20,106.3,19.3,105.4,18.4z"/>
	<path d="M111.2,23.2c-0.1,0.3-0.2,0.7-0.4,1c-6,9.8-5.8,19.6-0.1,29.5c0.2,0.4,0.4,0.9,0.4,1.5c-3.2-1.9-6.4-3.3-10.2-3
		c-3.7,0.3-6.7,2.1-9.5,4.4c-0.1,0-0.2-0.1-0.3-0.1c0-0.4-0.1-0.9,0-1.2c3.3-10.1,7.4-19.8,14.5-27.8c1.3-1.5,2.8-2.7,4.3-4
		c0.3-0.3,0.7-0.3,1.1-0.5C111,23,111.1,23.1,111.2,23.2z M92.4,54.4c5.2-3.5,10.7-4.3,16.7-1.4c-2.3-4.4-3.6-8.7-3.7-13.3
		c-0.1-4.7,0.9-9.1,2.8-13.3C100.2,34.3,95.9,44.1,92.4,54.4z"/>
	<path d="M163.2,107.7c0.1-1.7,0.6-3.2,2-4.2c1.9-1.2,3.6-0.1,5.3,0.9c0.3-1.7,0.8-3.3,2.4-4.2c0.4-0.2,1-0.3,1.4-0.5
		c-1,1.2-2.2,2.1-2.7,3.3c-0.5,1.2-0.4,2.7-0.7,4.4c-0.3-0.5-0.4-0.8-0.5-1c-0.6-1.7-2-2.8-3.6-2.7c-1.2,0-2.2,1.1-2.8,2.8
		c-0.1,0.5-0.3,0.9-0.5,1.3C163.4,107.8,163.3,107.7,163.2,107.7z"/>
	<path d="M44.7,99.7c-0.8,1.7-2,3-4.1,3c2.4-1,3.3-3.2,4.1-5.7c0.4,2,1.2,3.3,2.9,3.8c1.9,0.5,3.1-0.7,4.2-2
		C51.1,102,47.9,102.4,44.7,99.7z"/>
	<path d="M140.3,152.5c0.5-1,0.8-2.3,1.6-3.1c1.2-1.3,2.8-2.3,4.2-3.3c0.5-0.4,1.3-0.5,1.6,0.2c0.3,0.7-0.2,1.1-0.8,1.5
		c-1.1,0.7-2.1,1.4-3.1,2.3c-0.5,0.5-1,1.2-1.3,1.9c-0.4,1.1,0,1.7,1.1,1.8c3.7,0.5,7.4,1,11.2,1.5c6.3,0.8,12.6,1.6,18.9,2.5
		c0.7,0.1,1.4,0.3,1.3,1.2c-0.2,0.8-0.8,0.9-1.5,0.7c-0.5-0.1-1-0.2-1.4-0.1c-0.3,0-0.7,0.2-0.8,0.5c-1.9,4.8-5.7,6.9-10.5,7.6
		c-4.3,0.6-8.3-0.2-11.8-2.8c-2.5-1.9-3.8-4.4-3.9-7.5c0-1.2-0.4-1.5-1.5-1.6C141.6,155.6,140.6,154.5,140.3,152.5z M147.3,155.2
		c-0.5,2.7,0.1,5.3,1.9,7.1c4,3.9,8.8,4.4,13.9,2.9c0,0,0.1-0.1,0.2-0.3c-0.3-0.2-0.6-0.4-0.8-0.5c1.4-1.9,0.9-3-1.7-3.5
		c0.3-1.2,0.6-2.4,0.9-3.8C156.9,156.4,152.1,155.8,147.3,155.2z"/>
	<path d="M122.5,184.4c-3.5-1.4-7.4-3-11.4-4.3c-4-1.3-8.2-1.7-12.4-0.2c-1.1,0.4-2.2,1-3.2,1.5c0.9-1.6,3.8-3.5,6.5-4.1
		c3.3-0.7,6.5-0.3,9.6,0.8C115.8,179.7,119.4,182,122.5,184.4z"/>
	<path d="M127.3,167.8c2.9,0,5.3,2.8,4.8,4.9c-0.1,0.3-0.5,0.7-0.8,0.7c-0.3,0-0.8-0.3-1-0.6c-0.3-0.5-0.3-1.1-0.6-1.7
		c-0.6-1.3-1.5-1.7-2.8-1.1c-0.6,0.3-1.1,0.7-1.7,0.9c-0.4,0.1-0.9-0.1-1.4-0.1c0.1-0.5,0-1.2,0.2-1.4
		C125.4,168.8,126.7,168.2,127.3,167.8z"/>
	<path d="M114.5,166.5c-0.2,0.1-0.4,0.6-0.8,0.7c-0.3,0.1-0.8-0.3-1-0.6c-0.3-0.3-0.3-0.8-0.5-1.2c-0.7-1.4-1.5-1.7-2.9-0.8
		c-0.4,0.3-0.8,0.7-1.3,0.9c-0.4,0.1-1,0.1-1.3-0.1c-0.2-0.2-0.3-0.9-0.1-1.2c0.7-1.3,3.3-2.3,4.8-2
		C112.9,162.6,114.5,164.7,114.5,166.5z"/>
</g>
</svg>
