<!-- Generated by IcoMoon.io -->
<svg version="1.1" xmlns="http://www.w3.org/2000/svg" width="32" height="32" viewBox="0 0 32 32">
<title>DRGN</title>
<path d="M1.115 17.975c0.127-0.72 0.466-1.34 0.903-1.905 0.212-0.268 0.437-0.522 0.663-0.776 0.085-0.085 0.099-0.169 0.071-0.282-0.085-0.325-0.141-0.663-0.212-1.030-0.042-0.014-0.141-0.014-0.24-0.042-0.437-0.085-0.677-0.367-0.705-0.804-0.028-0.423 0.113-0.776 0.367-1.101 0.381-0.508 0.889-0.861 1.453-1.129 0.381-0.183 0.621-0.423 0.79-0.832 0.339-0.889 0.945-1.608 1.693-2.201 0.056-0.042 0.113-0.085 0.155-0.155-0.79 0.127-1.552 0.353-2.314 0.621 0-0.042 0-0.071 0.014-0.085 0.494-1.481 1.171-2.907 2.159-4.162 1.651-2.116 3.795-3.4 6.462-3.767 0.847-0.113 1.707-0.113 2.568 0 0.071 0.014 0.155 0 0.226-0.042 0.423-0.226 0.818-0.254 1.228 0.042 0.042 0.028 0.113 0.028 0.169 0.028 0.409-0.056 0.804-0.056 1.185 0.099 0.522 0.212 0.875 0.564 1.086 1.115-0.141 0.042-0.268 0.056-0.381 0.099-0.226 0.099-0.451 0.212-0.677 0.339-0.056 0.028-0.099 0.127-0.085 0.183 0.085 0.508-0.127 0.875-0.508 1.185-0.113 0.099-0.24 0.212-0.325 0.339-0.409 0.593-0.691 1.256-0.776 1.975 0 0.056 0 0.127-0.014 0.183 0.381-0.056 0.734-0.127 1.101-0.169 0.381-0.042 0.748-0.042 1.129 0.071 0.24 0.071 0.451 0.212 0.593 0.423 0.028 0.042 0.113 0.085 0.169 0.071 0.339-0.014 0.621 0.113 0.832 0.367 0.028 0.028 0.113 0.056 0.155 0.042 0.762-0.198 1.284 0.183 1.538 0.691 0.056 0.127 0.367 0.141 0.466 0.042 0.042-0.042 0.071-0.085 0.099-0.141 0.141-0.169 0.212-0.325 0.085-0.55-0.169-0.325-0.141-0.691 0.071-1.002 0.099-0.169 0.113-0.325 0.085-0.494-0.042-0.296-0.183-0.536-0.437-0.72-0.056-0.028-0.099-0.071-0.141-0.113 0.508-0.522 1.284-0.635 1.947-0.254 0.212 0.127 0.409 0.31 0.607 0.452 0.056 0.042 0.141 0.085 0.212 0.085 0.226-0.014 0.423 0.056 0.578 0.212 0.042 0.042 0.085 0.085 0.127 0.099 1.030 0.423 1.679 1.213 2.116 2.201 0.339 0.79 0.48 1.623 0.508 2.469 0.028 0.903-0.042 1.806-0.198 2.695-0.014 0.056-0.056 0.099-0.085 0.169 1.397 2.032 1.467 4.247 0.79 6.589 0.282-0.169 0.536-0.325 0.79-0.48 0.042-0.028 0.099-0.056 0.141-0.085 0.099-0.071 0.212-0.099 0.31-0.014s0.085 0.198 0.056 0.31c-0.085 0.31-0.198 0.621-0.254 0.945-0.141 0.959 0.085 1.848 0.564 2.681 0.226 0.381 0.508 0.734 0.776 1.086 0.127 0.169 0.127 0.325-0.056 0.395-0.889 0.409-1.453 1.115-1.82 1.989-0.198 0.466-0.31 0.959-0.451 1.453-0.028 0.113-0.071 0.212-0.198 0.24s-0.212-0.056-0.268-0.169c-0.254-0.494-0.508-0.988-0.748-1.481-0.042-0.085-0.099-0.183-0.141-0.268-0.296 0.056-0.536 0.155-0.72 0.409-0.198 0.268-0.437 0.48-0.663 0.734 0.056 0.028 0.113 0.056 0.155 0.085 0.903 0.466 1.369 1.34 1.284 2.342-0.056 0.522-0.155 1.016-0.395 1.467-0.367 0.691-0.945 1.086-1.721 1.213-0.028 0-0.056 0.028-0.099 0.028-0.212 0-0.423 0-0.649 0-0.169-0.042-0.339-0.085-0.536-0.127 0.113-0.113 0.198-0.212 0.282-0.31 0.325-0.367 0.55-0.776 0.564-1.27 0.014-0.663-0.155-0.861-0.804-0.903-0.31-0.014-0.649 0-0.945 0.099s-0.593 0.24-0.903 0.212c-0.31-0.028-0.578 0.014-0.861 0.155-0.395 0.198-0.832 0.198-1.27 0.24-0.071 0-0.141 0.028-0.198 0.071-0.451 0.31-0.945 0.381-1.467 0.268-0.099-0.014-0.212-0.014-0.296 0.028-0.748 0.339-1.524 0.451-2.342 0.24-0.113-0.028-0.226-0.028-0.339-0.014-0.861 0.155-1.679 0.056-2.441-0.395-0.113-0.071-0.226-0.099-0.367-0.099-0.79 0.042-1.524-0.127-2.145-0.663-0.014-0.014-0.042-0.014-0.056-0.014-0.014 0.042-0.014 0.085-0.014 0.127-0.099 0.48-0.607 0.663-0.974 0.367-0.282-0.24-0.48-0.522-0.663-0.847-0.169-0.296-0.353-0.578-0.72-0.72-0.649-0.254-1.002-0.762-0.974-1.496 0-0.028-0.014-0.056-0.014-0.056-0.254 0.155-0.494 0.325-0.748 0.451-0.183 0.099-0.367 0.056-0.522-0.071-0.268-0.226-0.466-0.508-0.593-0.832-0.141-0.395-0.183-0.804-0.141-1.227 0.014-0.155 0-0.296-0.071-0.451-0.127-0.268-0.198-0.55-0.282-0.832-0.014-0.042-0.028-0.085-0.042-0.155-0.071 0.056-0.113 0.099-0.155 0.127-0.24 0.141-0.466 0.296-0.72 0.409s-0.508 0.028-0.663-0.212c-0.127-0.212-0.24-0.423-0.325-0.649-0.282-0.847-0.127-1.637 0.325-2.384 0.028-0.056 0.056-0.141 0.042-0.198-0.113-0.381-0.113-0.748-0.014-1.129 0.014-0.042 0.014-0.113-0.014-0.155-0.071-0.127-0.141-0.24-0.226-0.353-0.071 0.028-0.141 0.056-0.212 0.085-0.55 0.183-0.959 0.028-1.199-0.508-0.071-0.141-0.099-0.31-0.155-0.466 0-0.099 0-0.226 0-0.353zM28.176 14.871c-0.183-0.762-0.494-1.439-0.931-2.060-0.127-0.198-0.226-0.24-0.437-0.141-0.155 0.071-0.31 0.183-0.409 0.31-0.113 0.141-0.169 0.325-0.24 0.494-0.056 0.127-0.071 0.268-0.113 0.409-0.014-0.226-0.014-0.451 0.014-0.677 0.056-0.339 0.183-0.649 0.55-0.776 0.113-0.042 0.226-0.056 0.353-0.071-0.183-0.353-0.367-0.705-0.564-1.044-0.014-0.042-0.099-0.056-0.155-0.056-0.339 0.042-0.536 0.24-0.635 0.55-0.028 0.071-0.042 0.155-0.056 0.24-0.042-0.169-0.056-0.353-0.028-0.508 0.042-0.268 0.268-0.409 0.494-0.536-0.367-0.466-0.691-0.931-1.326-1.072-0.028 0.113-0.085 0.226-0.085 0.325 0.028 0.212 0.085 0.409 0.141 0.607 0.028 0.113 0.056 0.212-0.056 0.282-0.127 0.085-0.212 0.014-0.296-0.085-0.127-0.127-0.254-0.254-0.395-0.367-0.127-0.099-0.24-0.056-0.268 0.099-0.014 0.099-0.028 0.198-0.014 0.296 0.028 0.31 0.071 0.621 0.113 0.931-0.113-0.198-0.212-0.395-0.282-0.607-0.085-0.254-0.127-0.522-0.042-0.79 0.099-0.325 0.409-0.423 0.677-0.212 0.028 0.028 0.056 0.042 0.099 0.085 0.014-0.31-0.099-0.635 0.24-0.818-0.367-0.409-0.847-0.649-1.383-0.677-0.085 0-0.169-0.042-0.24-0.014-0.141 0.056-0.226 0.254-0.198 0.395 0.028 0.183 0.127 0.339 0.268 0.451 0.085 0.071 0.141 0.141 0.085 0.268-0.056 0.113-0.155 0.113-0.268 0.085-0.141-0.028-0.282-0.056-0.437-0.056-0.451 0-0.677 0.353-0.508 0.748-0.254-0.183-0.282-0.423-0.113-0.663 0.127-0.183 0.296-0.282 0.522-0.325 0.085-0.014 0.155-0.028 0.198-0.028-0.042-0.254-0.113-0.494-0.099-0.734 0.014-0.296 0.282-0.381 0.522-0.437-0.212-0.593-0.748-0.875-1.397-0.762-0.085 0.014-0.155 0.014-0.24 0.028-0.198-0.875-0.818-1.072-1.397-0.734 0.071 0.169 0.169 0.325 0.226 0.494 0.071 0.226 0.183 0.381 0.367 0.522 0.169 0.141 0.325 0.31 0.451 0.494 0.113 0.155 0.183 0.339 0.268 0.508-0.014 0.014-0.028 0.014-0.042 0.028-0.028-0.042-0.056-0.085-0.085-0.141-0.198-0.296-0.409-0.578-0.705-0.79-0.169-0.113-0.339-0.155-0.522-0.099-0.226 0.071-0.395 0.226-0.522 0.423 0.395 0.578 0.423 0.649 0.437 0.917-0.381-0.381-0.691-0.776-0.875-1.312 0.085 0.071 0.141 0.113 0.183 0.155 0.183-0.296 0.451-0.423 0.804-0.452-0.099-0.466-0.325-0.832-0.734-1.030-0.451-0.212-0.847 0-1.242 0.268 0.127-0.254 0.282-0.409 0.494-0.508 0.155-0.071 0.198-0.183 0.071-0.296s-0.282-0.212-0.451-0.254c-0.663-0.141-1.298 0.014-1.961 0.183 0.056 0.226 0.099 0.437 0.155 0.663 0.339-0.085 0.48-0.042 0.621 0.169 0.169 0.268 0.212 0.564 0.24 0.889-0.155 0.014-0.296 0.014-0.437 0.028-0.028-0.127-0.028-0.24-0.056-0.339-0.028-0.113-0.056-0.212-0.099-0.353-0.127 0.141-0.226 0.254-0.353 0.409-0.127-0.282-0.268-0.522-0.353-0.79-0.31-1.002-0.155-1.947 0.296-2.864 0.169-0.339 0.381-0.663 0.578-1.002-0.268-0.056-0.522-0.169-0.663-0.466 0.381 0.24 0.72 0.226 1.086-0.056-0.155-0.071-0.31-0.113-0.466-0.198s-0.282-0.198-0.367-0.395c0.522 0.353 0.748 0.437 0.988 0.353 0-0.014 0-0.028-0.014-0.028-0.056-0.028-0.127-0.056-0.183-0.085-0.578-0.296-0.931-0.748-0.889-1.425 0.014-0.169-0.099-0.212-0.226-0.254-0.113 0.339-0.028 0.677 0.042 1.002-0.155-0.325-0.226-0.663-0.24-1.030-0.353 0.099-0.494 0.381-0.705 0.663 0-0.169 0-0.31 0-0.423-0.028-0.014-0.042-0.014-0.056-0.014-0.988-0.141-1.975-0.113-2.949 0.071-1.792 0.31-3.358 1.115-4.67 2.384-1.256 1.213-2.116 2.667-2.765 4.261-0.014 0.028-0.014 0.056-0.028 0.099 0.381-0.099 0.748-0.198 1.115-0.282 0.804-0.169 1.608-0.325 2.427-0.226 0.663 0.071 1.002 0.367 1.115 0.945 0.014 0.071 0.014 0.141 0.028 0.226 1.199-0.409 2.356-0.593 3.372 0.437 0.056-0.056 0.113-0.113 0.183-0.155 0.325-0.226 0.635-0.48 0.988-0.677 0.24-0.127 0.522-0.226 0.79-0.254 0.621-0.071 1.129 0.324 1.312 0.974-0.127 0.056-0.268 0.099-0.409 0.155-0.042-0.071-0.071-0.127-0.099-0.183-0.254-0.48-0.578-0.635-1.072-0.423-0.367 0.155-0.705 0.381-1.030 0.607-0.268 0.198-0.494 0.437-0.748 0.677-0.042-0.056-0.085-0.127-0.127-0.183-0.367-0.55-0.889-0.818-1.538-0.818-0.649-0.014-1.242 0.183-1.82 0.466-0.127 0.071-0.254 0.141-0.395 0.212 0.042-0.254 0.085-0.48 0.113-0.72 0.056-0.437-0.141-0.691-0.578-0.79-0.071-0.014-0.127-0.028-0.198-0.028-0.24 0-0.522-0.071-0.72 0.028-1.228 0.621-2.145 1.538-2.667 2.822-0.085 0.212-0.042 0.339 0.183 0.409 0.099 0.028 0.24 0.056 0.324 0.014 0.24-0.099 0.466-0.226 0.691-0.367 0.127-0.071 0.226-0.183 0.325-0.268-0.014 0.071-0.042 0.113-0.071 0.169-0.141 0.339-0.31 0.677-0.423 1.030-0.113 0.381-0.014 0.578 0.31 0.776-0.014 0-0.028 0.014-0.042 0.014-0.367-0.028-0.578-0.296-0.508-0.705 0.014-0.127 0.056-0.254 0.085-0.409-0.31 0.212-0.607 0.24-0.903 0.071-0.226 0.24-0.395 0.663-0.409 0.974-0.028 0.466 0.268 0.734 0.734 0.649 0.042-0.014 0.085-0.014 0.127-0.028s0.085-0.014 0.127-0.028c-0.226 0.212-0.48 0.353-0.776 0.353-0.282 0-0.452-0.183-0.593-0.409-0.014 0.014-0.028 0.014-0.042 0.014-0.014 0.014-0.028 0.028-0.042 0.028-0.55 0.621-0.748 1.312-0.466 2.116 0.113 0.31 0.381 0.367 0.578 0.099 0.127-0.169 0.212-0.367 0.31-0.564 0.056-0.099 0.085-0.226 0.127-0.339 0.028 0.353-0.028 0.691-0.183 1.002-0.127 0.24-0.325 0.367-0.593 0.381-0.071 0-0.155-0.014-0.226-0.014-0.014 0.028-0.014 0.056-0.028 0.071-0.014 0.056-0.028 0.113-0.042 0.169-0.085 0.466-0.099 0.931 0.141 1.369 0.141 0.24 0.254 0.24 0.508 0.141 0.071-0.028 0.141-0.085 0.183-0.141 0.127-0.169 0.254-0.353 0.367-0.55 0.071-0.113 0.099-0.254 0.155-0.381 0.014 0.183 0.014 0.353-0.028 0.522-0.113 0.593-0.437 1.058-1.157 0.974-0.042 0-0.127 0.056-0.155 0.113-0.268 0.607-0.212 1.171 0.212 1.679 0.099 0.113 0.127 0.198 0.056 0.353-0.268 0.635-0.085 1.242 0.48 1.608 0.113 0.071 0.226 0.127 0.31 0.183-0.056 0.254-0.127 0.494-0.141 0.748-0.028 0.381 0.113 0.705 0.466 0.903 0.339 0.183 0.649 0.24 0.974-0.099-0.099 0.367-0.353 0.437-0.635 0.48 0.028 0.762 0.423 1.552 1.326 1.82 0.056 0.014 0.099 0.085 0.127 0.141 0.085 0.183 0.127 0.409 0.226 0.564 0.141 0.212 0.381 0.339 0.649 0.296 0.254-0.042 0.409-0.254 0.48-0.494 0.042-0.169 0.056-0.339 0.085-0.494 0.254 0.395 0.127 1.002-0.31 1.256-0.113 0.071-0.155 0.155-0.169 0.282-0.028 0.423 0.127 0.748 0.494 0.974 0.169 0.099 0.353 0.183 0.536 0.24 0.113 0.042 0.155 0.099 0.226 0.183 0.169 0.212 0.325 0.451 0.536 0.621 0.296 0.268 0.635 0.254 0.974 0.056 0.071-0.042 0.155-0.099 0.212-0.141 0.028 0.014 0.042 0.014 0.042 0.028 0.536 0.72 1.284 0.903 2.13 0.847 0.085 0 0.141-0.014 0.155-0.113 0.056-0.437 0.085-0.861-0.212-1.284 0.056 0.042 0.071 0.056 0.099 0.071 0.367 0.339 0.508 0.748 0.451 1.227-0.014 0.099-0.042 0.198 0.085 0.268 0.677 0.381 1.397 0.466 2.159 0.296 0.099-0.028 0.113-0.071 0.099-0.169-0.042-0.24-0.141-0.437-0.339-0.578-0.141-0.099-0.296-0.169-0.423-0.24 0.55-0.014 1.072 0.367 1.213 0.917 0.028 0.099 0.071 0.155 0.169 0.169 0.691 0.113 1.34-0.028 1.947-0.367 0.099-0.056 0.169-0.056 0.282-0.014 0.141 0.056 0.31 0.099 0.466 0.099 0.254 0 0.494-0.042 0.705-0.212-0.183 0-0.353 0.014-0.522 0-0.508-0.042-1.030-0.071-1.538-0.127-1.086-0.127-2.13-0.395-3.090-0.917-1.326-0.72-2.243-1.764-2.596-3.273-0.212-0.903-0.028-1.679 0.578-2.37 0.014-0.014 0.028-0.042 0.056-0.071-1.044-0.564-1.75-1.34-1.721-2.596-0.508-0.042-0.988-0.099-1.481-0.141-0.861-0.071-1.411-0.607-1.481-1.467 0-0.042 0-0.099-0.028-0.113-0.155-0.042-0.099-0.155-0.085-0.24 0.085-0.663 0.183-1.312 0.268-1.975-0.014 0-0.028 0.014-0.042 0.014-0.056-0.071-0.141-0.141-0.141-0.212-0.014-0.79-0.028-1.594 0.113-2.37 0.056-0.339 0.085-0.353 0.423-0.31 0.014 0 0.014-0.014 0.042-0.014 0.169-1.016 0.325-2.046 0.494-3.090 0.071 0 0.127 0.014 0.183 0.014 1.002 0.127 1.989 0.254 2.991 0.395 0.113 0.014 0.183 0 0.24-0.113 0.353-0.578 0.889-0.875 1.552-0.974 0.127-0.014 0.254-0.056 0.353-0.127 0.663-0.409 1.369-0.494 2.102-0.226 0.635 0.24 1.157 0.649 1.58 1.185 0.24 0.31 0.451 0.635 0.423 1.058 0.31 0.042 0.593 0.085 0.917 0.127-0.014 0.127-0.042 0.24-0.042 0.353 0 0.071 0 0.169 0.042 0.226 0.113 0.155 0.24 0.296 0.367 0.437 0.268-0.085 0.339-0.028 0.339 0.24 0 0.056 0 0.127 0 0.183-0.113 0.875-0.24 1.75-0.353 2.624 0 0.042-0.014 0.113 0.014 0.141 0.127 0.183 0.254 0.367 0.353 0.522 0.169-0.042 0.31-0.113 0.451-0.127 0.099-0.014 0.155-0.042 0.226-0.127 0.522-0.691 1.213-1.086 2.088-1.086 0.325 0 0.395 0.113 0.31 0.423-0.113 0.381-0.198 0.776-0.296 1.157-0.014 0.056 0 0.169 0.028 0.169 0.268 0.113 0.423 0.325 0.55 0.564 0.056 0.127 0.226 0.127 0.339 0.042 0.127-0.085 0.282-0.169 0.423-0.198 0.099-0.028 0.183-0.056 0.254-0.127 0.268-0.212 0.522-0.451 0.818-0.621 0.367-0.226 0.79-0.325 1.227-0.226 0.268 0.056 0.339 0.169 0.254 0.437-0.014 0.056-0.028 0.113-0.056 0.183-0.169 0.522-0.056 0.988 0.353 1.34 0.296 0.254 0.466 0.578 0.635 0.931 0.056 0.127 0.099 0.24 0.155 0.367 0.395-0.169 0.437-0.198 0.536-0.564 0.141-0.508 0.268-1.016 0.381-1.524 0.056-0.282 0.071-0.593 0.099-0.917-0.48 0.24-0.804 0.593-1.171 0.889 0.282-0.508 0.494-1.072 1.171-1.213-0.014-0.268-0.042-0.522-0.056-0.79-0.014-0.183-0.085-0.353-0.212-0.48-0.169-0.169-0.296-0.183-0.466-0.028-0.141 0.127-0.268 0.282-0.381 0.423 0.141-0.536 0.48-0.776 0.945-0.593zM18.399 22.448c0.127 0.099 0.24 0.198 0.353 0.282 0.071 0.056 0.183 0.141 0.099 0.24s-0.169 0-0.24-0.056c-0.254-0.226-0.536-0.395-0.847-0.508-1.227-0.395-2.455-0.381-3.668 0-0.79 0.24-1.467 0.663-1.891 1.397-0.141 0.254-0.268 0.536-0.296 0.818-0.028 0.437 0.071 0.889 0.226 1.312 0.451 1.242 1.326 2.074 2.511 2.582 1.975 0.847 4.035 1.101 6.152 0.578 2.145-0.536 3.922-1.651 5.319-3.372 0.282-0.353 0.536-0.734 0.818-1.115-0.099 0.268-0.183 0.508-0.282 0.748 0.028 0 0.042 0 0.056 0 0.127-0.042 0.254-0.071 0.367-0.113 0.226-0.071 0.282-0.042 0.395 0.169 0.198 0.381 0.395 0.776 0.593 1.157 0.014 0.042 0.042 0.071 0.085 0.127 0.339-1.129 0.847-2.116 1.82-2.836-0.861-0.113-1.637-0.367-2.258-0.889 0.353 0.127 0.734 0.282 1.129 0.409s0.818 0.127 1.27 0.099c-0.804-1.101-1.256-2.3-1.129-3.683-0.409 0.593-0.917 1.072-1.51 1.453 0.24-0.254 0.494-0.522 0.72-0.79 0.226-0.282 0.395-0.607 0.55-1.002-0.099 0.056-0.141 0.085-0.198 0.113-0.367 0.226-0.748 0.451-1.115 0.663-0.226 0.127-0.339 0.085-0.437-0.155-0.127-0.325-0.282-0.649-0.423-0.974-0.028-0.071-0.085-0.113-0.141-0.198-0.113 0.437-0.254 0.832-0.649 1.044-0.31 0.169-0.903 0.155-1.171-0.056 0.522 0.099 0.974 0.028 1.298-0.423 0.155-0.226 0.268-0.466 0.254-0.734-0.31 0.325-0.691 0.339-1.129 0.31 0.578-0.099 0.861-0.24 0.974-0.494-0.903 0.282-1.735 0.212-2.384-0.578-0.042 0.409 0.296 0.564 0.55 0.818-0.325-0.085-0.522-0.31-0.691-0.55-0.198 0.367-0.282 0.734-0.198 1.129-0.296-0.353-0.183-0.748-0.099-1.143-0.155-0.056-0.296-0.099-0.451-0.155-0.282 0.621-0.593 0.804-1.072 0.649 0.508-0.141 0.72-0.508 0.818-1.016-0.31 0.296-0.649 0.325-1.030 0.296 0.564-0.085 0.762-0.212 0.832-0.508-0.085 0.028-0.155 0.042-0.226 0.056-0.691 0.212-1.312 0.099-1.848-0.409-0.042-0.042-0.071-0.085-0.113-0.127-0.028-0.014-0.071-0.014-0.113-0.028 0 0.042-0.028 0.085-0.014 0.113 0.014 0.042 0.042 0.085 0.056 0.113 0.169 0.268 0.395 0.494 0.691 0.635-0.339-0.056-0.593-0.254-0.818-0.494-0.028-0.042-0.113-0.085-0.141-0.071-0.056 0.028-0.127 0.085-0.141 0.141-0.028 0.169-0.028 0.339-0.014 0.508 0 0.113 0.056 0.226 0.071 0.339-0.155-0.127-0.254-0.282-0.381-0.409-0.042-0.042-0.127-0.099-0.183-0.099-0.607 0.042-1.044 0.339-1.312 0.875-0.113 0.226-0.183 0.494-0.254 0.748-0.042 0.141-0.085 0.24-0.254 0.254-0.183 0.028-0.367 0.071-0.55 0.099-0.31 0.056-0.367 0.113-0.409 0.437-0.014 0.127 0 0.24 0 0.367 0 0.113 0.071 0.169 0.183 0.198 0.649 0.169 1.312 0.353 1.961 0.522 0.24 0.071 0.353 0 0.395-0.254 0.028-0.226 0.014-0.466 0.042-0.705 0-0.056 0.056-0.155 0.113-0.169 0.099-0.028 0.155 0.056 0.155 0.155 0 0.198 0.014 0.409 0 0.607-0.028 0.423-0.155 0.578-0.578 0.691 0.014 0.296 0 0.593-0.198 0.861zM12.176 17.439c-0.085 0.522-0.113 1.030 0.042 1.538-0.014 0-0.028 0.014-0.042 0.014-0.099-0.31-0.198-0.621-0.296-0.945-0.056 0-0.113 0.014-0.183 0.014s-0.127-0.014-0.198-0.028c0.127-0.056 0.254-0.099 0.367-0.141 0-0.014-0.014-0.028-0.014-0.056-0.423 0.071-0.818 0.042-1.199-0.183-0.014 0.014-0.014 0.042-0.028 0.056 0.113 0.085 0.226 0.169 0.339 0.254 0 0.014 0 0.014-0.014 0.028-0.141-0.071-0.268-0.127-0.437-0.198-0.056 0.183-0.113 0.381-0.155 0.564-0.099 0.607 0.113 1.129 0.423 1.637 0.071 0.113 0.099 0.212 0.085 0.353-0.056 0.395 0.014 0.762 0.183 1.115 0.296 0.593 0.79 0.974 1.369 1.256 0.042 0.014 0.113 0 0.141-0.028 0.79-0.607 1.707-0.875 2.681-0.988 0.226-0.028 0.451-0.042 0.649-0.056 0.014-0.226 0.042-0.437 0.056-0.635 0-0.042-0.014-0.085-0.028-0.127-0.141-0.339-0.141-0.677-0.028-1.030 0.028-0.085 0.014-0.141-0.056-0.183-0.141-0.071-0.282-0.141-0.409-0.212-0.028-0.451-0.071-0.889-0.099-1.34-0.113 0.042-0.183 0.071-0.268 0.085-0.071 0.014-0.141 0.028-0.212 0.028 0.437-0.226 0.466-0.268 0.339-0.48-0.169 0.042-0.325 0.085-0.522 0.141 0.141-0.113 0.254-0.183 0.367-0.268-0.24 0.056-0.451 0.127-0.677 0.127-0.212 0-0.437-0.085-0.649-0.127 0 0.014-0.014 0.028-0.014 0.028 0.169 0.085 0.325 0.169 0.494 0.254 0 0 0 0.014 0 0.014-0.183-0.028-0.367-0.056-0.578-0.099-0.042 0.536 0.085 1.044 0.212 1.552-0.353-0.55-0.522-1.143-0.367-1.792-0.099 0-0.183 0.014-0.296 0.014 0.099-0.056 0.169-0.113 0.24-0.155-0.212-0.014-0.409 0.028-0.593 0s-0.353-0.127-0.536-0.198c-0.014 0.014-0.014 0.014-0.028 0.028 0.113 0.099 0.24 0.183 0.353 0.282 0 0.014 0 0.014-0.014 0.028-0.113-0.042-0.24-0.085-0.395-0.141zM12.797 15.464c-0.325-0.296-0.367-0.705-0.085-0.959 0.24-0.226 0.649-0.198 0.847 0.042 0.24 0.31 0.127 0.705-0.282 0.974 0.028 0.113 0.042 0.24 0.071 0.367 0.071-0.014 0.113-0.014 0.183-0.028-0.071-0.169 0.028-0.254 0.127-0.353s0.169-0.24 0.198-0.381c0.056-0.268 0-0.522-0.226-0.72 0.381 0.198 0.451 0.818 0.141 1.171-0.226 0.254-0.226 0.254 0.099 0.353-0.042 0.127-0.099 0.268-0.127 0.395-0.014 0.127 0 0.268 0 0.423 0.226-0.169 0.409-0.339 0.621-0.466 0.212-0.141 0.451-0.169 0.691-0.127-0.014 0.282-0.028 0.564-0.042 0.832 0.028 0 0.042 0 0.071 0 0.141-1.002 0.282-2.004 0.423-3.005-1.481-0.198-2.949-0.381-4.43-0.578-0.155 1.157-0.296 2.286-0.437 3.414 0.127 0.056 0.226 0.028 0.339-0.056 0.169-0.127 0.367-0.254 0.564-0.339 0.212-0.099 0.437-0.085 0.649-0.014 0 0.056 0 0.099 0 0.127s0 0.071 0 0.099c0.014 0 0.028 0.014 0.056 0.014 0.155-0.367 0.353-0.776 0.55-1.185zM25.016 6.152c-0.014 0-0.028-0.014-0.042-0.014 0.028-0.31 0.099-0.621-0.141-0.917-0.113 0.367-0.339 0.593-0.663 0.734 0.254-0.226 0.466-0.466 0.466-0.832-0.071 0.042-0.127 0.085-0.169 0.141-0.24 0.381-0.578 0.593-1.030 0.635-0.212 0.014-0.423 0-0.635 0-0.042 0-0.071 0.028-0.113 0.056 0.014 0.028 0.028 0.071 0.056 0.085 0.113 0.056 0.226 0.113 0.339 0.141 0.169 0.028 0.339 0.028 0.536 0.042-0.381 0.155-0.705 0.127-1.030-0.113-0.014 0.268 0.113 0.452 0.296 0.564 0.169 0.113 0.381 0.155 0.607 0.24-0.183 0.028-0.367 0.042-0.55 0.085-0.056 0.014-0.127 0.028-0.155 0.071-0.113 0.169-0.212 0.353-0.31 0.536 0.381 0.169 0.663 0.48 0.847 0.875 0.268-0.339 0.395-0.705 0.395-1.115 0-0.155 0.056-0.183 0.212-0.169 0.127 0.014 0.268 0.014 0.367-0.042 0.169-0.099 0.212-0.028 0.268 0.113 0.268 0.635 0.409 1.298 0.367 1.989-0.014 0.24 0.028 0.296 0.282 0.339 0.085-0.423 0.085-0.847 0.014-1.27-0.085-0.452-0.24-0.875-0.466-1.284-0.056-0.099-0.071-0.155 0.085-0.198 0.169-0.042 0.339-0.141 0.48-0.24 0.071-0.056 0.127-0.056 0.183 0 0.099 0.113 0.212 0.212 0.296 0.324 0.818 1.044 1.016 2.243 0.903 3.513-0.028 0.268-0.042 0.494 0.127 0.734 0.169 0.226 0.268 0.494 0.409 0.748 0.056-0.169 0.085-0.339 0.099-0.508 0.127-1.044 0.127-2.088-0.113-3.132-0.212-0.875-0.578-1.665-1.256-2.286-0.226-0.212-0.48-0.381-0.748-0.508-0.056 0.226-0.141 0.437-0.212 0.663zM16.79 12.656c-0.395-0.056-0.776-0.085-1.143-0.169-0.325-0.071-0.536-0.014-0.705 0.282-0.056 0.099-0.155 0.085-0.198-0.028-0.042-0.099-0.071-0.198-0.085-0.296-0.014-0.085-0.056-0.141-0.141-0.127-0.141 0.014-0.282 0.042-0.423 0.056-0.31 0.014-0.55 0.155-0.762 0.367-0.127 0.127-0.198 0.127-0.268-0.056-0.042-0.099-0.071-0.198-0.085-0.296-0.028-0.099-0.028-0.198-0.056-0.353-0.071 0.085-0.099 0.141-0.141 0.198-0.056 0.056-0.113 0.155-0.183 0.169-0.325 0.071-0.564 0.268-0.762 0.536-0.071 0.099-0.155 0.085-0.198-0.028-0.042-0.085-0.085-0.183-0.085-0.268-0.014-0.24 0-0.494 0-0.748-0.367-0.056-0.705-0.099-1.058-0.155-0.169 0.466-0.48 0.804-0.931 0.945-0.268 0.085-0.353 0.226-0.381 0.48-0.014 0.198-0.056 0.395-0.085 0.607 0.48 0.056 0.945 0.113 1.411 0.183 0.042-0.353 0.099-0.691 0.141-1.044 1.792 0.24 3.556 0.466 5.347 0.705-0.042 0.339-0.085 0.649-0.127 0.974 0.607 0.099 1.199 0.198 1.806 0.296 0.042-0.296 0.085-0.593 0.113-0.875-0.607-0.254-1.030-0.621-1.002-1.354zM12.642 12.134c0.028 0 0.042 0.014 0.071 0.014 0.141-0.353 0.296-0.72 0.437-1.072 0.056-0.127 0.099-0.268 0.183-0.381 0.367-0.437 0.889-0.522 1.411-0.578-0.593 0.155-1.115 0.395-1.411 0.988 0.466 0.226 0.536 0.339 0.776 1.101 0.296-0.056 0.423-0.169 0.494-0.451 0.028-0.099 0.056-0.183 0.085-0.268 0.042-0.155 0.113-0.325 0.127-0.48 0.071-0.564 0.804-0.974 1.34-0.734-0.72 0.071-1.115 0.353-1.129 0.818 0.226 0.056 0.423 0.169 0.536 0.381 0.113 0.198 0.183 0.409 0.268 0.621 0.014 0 0.028 0 0.042 0-0.014-0.198-0.028-0.381-0.056-0.578 0.014 0 0.014-0.014 0.028-0.014 0.071 0.155 0.141 0.325 0.226 0.494 0.141-0.113 0.296-0.226 0.437-0.353 0.085-0.071 0.155-0.099 0.254-0.085 0.353 0.042 0.705 0.085 1.058 0.113 0.042-0.183 0-0.339-0.141-0.578-0.254-0.409-0.578-0.748-0.959-1.044-0.875-0.649-1.877-0.847-2.892-0.127-0.042 0.028-0.113 0.042-0.169 0.056-0.169 0.028-0.339 0.056-0.494 0.099-0.578 0.183-0.988 0.55-1.227 1.129 0.395 0.183 0.607 0.508 0.705 0.931zM21.954 29.22c0 0.014 0 0.014 0.014 0.028 0.056 0 0.127 0 0.183-0.014 0.212-0.071 0.423-0.183 0.649-0.24 0.508-0.113 1.016-0.141 1.524 0 0.381 0.113 0.635 0.353 0.72 0.762 0.113 0.564 0.028 1.101-0.254 1.594-0.028 0.056-0.056 0.099-0.099 0.183 0.705-0.028 1.256-0.282 1.623-0.875 0.254-0.395 0.353-0.832 0.409-1.298 0.127-0.974-0.325-1.764-1.227-2.116-0.099-0.042-0.169-0.028-0.254 0.042-0.734 0.635-1.538 1.157-2.427 1.566-0.296 0.141-0.578 0.254-0.861 0.367zM19.259 16.931c-0.325-0.466-0.663-0.959-1.002-1.439-0.028-0.042-0.099-0.071-0.155-0.071-0.451-0.085-0.903-0.155-1.369-0.226-0.296-0.056-0.607-0.099-0.917-0.155-0.071 0.536-0.141 1.058-0.226 1.594 0.832 0.155 1.623 0.31 2.427 0.451 0.183 0.028 0.325 0.085 0.381 0.296 0 0.014 0.028 0.028 0.042 0.056 0.296-0.127 0.663-0.099 0.818-0.508zM10.469 14.279c-0.056-0.014-0.071-0.014-0.099-0.028-0.776-0.099-1.538-0.183-2.314-0.282-0.127-0.014-0.169 0.014-0.169 0.127-0.028 0.494-0.056 0.988-0.099 1.481-0.014 0.113 0.028 0.155 0.141 0.169 0.55 0.056 1.101 0.127 1.637 0.198 0.226 0.028 0.437 0.042 0.677 0.071 0.071-0.578 0.155-1.157 0.226-1.735zM24.931 6.998c0.451 0.804 0.607 1.679 0.451 2.61 0 0.028 0.028 0.099 0.056 0.113 0.381 0.254 0.663 0.593 0.931 0.945 0.042 0.056 0.099 0.099 0.155 0.155 0.395-1.284-0.198-3.471-1.072-4.092-0.169 0.085-0.339 0.169-0.522 0.268zM10.088 17.242c0.042-0.296 0.071-0.593 0.113-0.889-0.508-0.056-1.016-0.127-1.524-0.183-0.056 0.31-0.099 0.593-0.155 0.889 0.607 0.198 0.931 0.593 1.030 1.185 0.014 0.042 0.071 0.099 0.113 0.113 0.085 0.028 0.169 0.014 0.226 0.028 0.141-0.381 0.282-0.734 0.409-1.086-0.042-0.028-0.127-0.042-0.212-0.056zM10.328 20.12c-0.141-0.367-0.268-0.72-0.409-1.086-0.691-0.085-1.397-0.169-2.116-0.268-0.014 0.042-0.014 0.056-0.014 0.071 0 0.564 0.48 1.086 1.044 1.143 0.183 0.014 0.353 0.042 0.536 0.056 0.325 0.028 0.635 0.056 0.959 0.085zM15.845 19.175c0.099 0.056 0.141-0.014 0.169-0.113 0.169-0.409 0.466-0.663 0.903-0.734 0.099-0.014 0.183-0.014 0.296-0.028 0.042-0.296 0.085-0.593 0.127-0.903-0.607-0.113-1.199-0.226-1.792-0.325-0.071 0.183-0.056 0.325 0.014 0.48 0.056 0.113 0.099 0.24 0.113 0.367 0.056 0.409 0.113 0.818 0.169 1.256zM22.222 15.718c-0.254-0.113-0.536-0.099-0.832 0.071-0.48 0.268-0.79 0.677-1.072 1.115 0.353 0.409 1.115 0.607 1.608 0.437 0.014-0.282 0.014-0.564 0.071-0.832 0.042-0.254 0.141-0.522 0.226-0.79zM25.891 16.861c-0.578-0.282-1.453 0.381-1.877 1.016 0.381 0.451 1.171 0.593 1.778 0.31-0.141-0.451-0.028-0.903 0.099-1.326zM18.3 1.34c-0.127-0.325-0.381-0.522-0.705-0.621-0.395-0.127-0.804-0.099-1.213-0.042-0.113 0.014-0.099 0.085-0.099 0.169 0.014 0.522 0.48 1.157 0.931 1.312 0.169-0.169 0.31-0.353 0.48-0.48 0.198-0.141 0.409-0.226 0.607-0.339zM22.335 4.459c0.014 0.028 0.028 0.056 0.042 0.071 0.226 0.31 0.409 0.635 0.381 1.030 0 0.028 0.056 0.085 0.085 0.085 0.198 0.014 0.395 0.056 0.593 0.028 0.367-0.042 0.621-0.24 0.79-0.564 0.028-0.042 0.014-0.127-0.014-0.155-0.268-0.282-0.564-0.522-0.931-0.663-0.325-0.099-0.649-0.085-0.945 0.169zM2.526 16.268c-0.381 0.508-0.748 1.030-0.861 1.679-0.042 0.268-0.014 0.508 0.141 0.748 0.085 0.141 0.212 0.183 0.353 0.155 0.071-0.014 0.155-0.056 0.226-0.071 0.099-0.028 0.127-0.085 0.127-0.183-0.028-0.367 0.056-0.705 0.183-1.058 0.056-0.127 0.071-0.282 0.042-0.423-0.042-0.282-0.127-0.55-0.212-0.847zM3.852 11.245c-0.522 0.268-1.016 0.564-1.411 1.002-0.183 0.212-0.339 0.451-0.353 0.748-0.014 0.353 0.127 0.508 0.48 0.48 0.056 0 0.127-0.056 0.141-0.099 0.169-0.437 0.423-0.804 0.762-1.129 0.071-0.071 0.127-0.155 0.155-0.24 0.085-0.24 0.155-0.494 0.226-0.762zM8.832 13.742c0.056-0.339 0.113-0.649 0.155-0.974 0.014-0.113 0.056-0.169 0.183-0.198 0.508-0.127 0.875-0.423 1.086-0.903 0.014-0.042 0.042-0.071 0.056-0.113 0.437 0.056 0.861 0.127 1.284 0.183 0.042-0.127 0.071-0.226 0.113-0.339-0.578-0.071-1.143-0.155-1.707-0.226-0.014 0.056-0.028 0.099-0.028 0.141-0.113 0.494-0.395 0.861-0.875 0.974-0.339 0.071-0.409 0.254-0.437 0.536s-0.085 0.578-0.127 0.875c0.085 0.014 0.183 0.028 0.296 0.042zM24.451 7.295c-0.212 0.028-0.381 0.042-0.564 0.071-0.014 0.437-0.155 0.832-0.423 1.199 0.522 0.085 0.959 0.339 1.355 0.705 0.042-0.72-0.113-1.369-0.367-1.975zM4.007 23.436c-0.113-0.169-0.212-0.296-0.282-0.451-0.169-0.353-0.155-0.734-0.099-1.101 0.014-0.042 0.014-0.113-0.014-0.141-0.113-0.099-0.226-0.183-0.353-0.282-0.409 0.748-0.466 1.496-0.028 2.243 0.056 0.099 0.113 0.141 0.226 0.071 0.183-0.099 0.367-0.212 0.55-0.339zM18.921 15.619c0.014-0.028 0.028-0.042 0.042-0.056 0.099-0.705 0.198-1.397 0.296-2.102 0-0.028 0.014-0.085 0-0.099-0.155-0.169-0.31-0.353-0.466-0.536-0.014 0.042-0.028 0.071-0.028 0.085-0.099 0.663-0.183 1.312-0.282 1.975 0 0.028-0.014 0.071 0 0.099 0.127 0.212 0.282 0.423 0.437 0.635zM15.52 12.275c0 0.014 0 0.028 0 0.028 0.24 0.028 0.48 0.071 0.705 0.099 0.24 0.042 0.48 0.071 0.734 0.113-0.014 0.353 0.071 0.649 0.325 0.875 0.183 0.155 0.409 0.282 0.621 0.395 0.085 0.042 0.127 0.085 0.113 0.183-0.042 0.268-0.085 0.536-0.113 0.804 0 0.042 0.014 0.085 0.028 0.127 0.028-0.042 0.071-0.071 0.085-0.113 0.042-0.296 0.071-0.593 0.127-0.889 0.028-0.141 0-0.212-0.141-0.268-0.55-0.212-0.804-0.621-0.79-1.213 0-0.099 0.014-0.212 0.028-0.325-0.268-0.028-0.522-0.071-0.776-0.099-0.085 0-0.183 0.028-0.254 0.056-0.169 0.085-0.325 0.24-0.536 0.155-0.056 0.014-0.113 0.056-0.155 0.071zM17.439 21.15c-0.367-0.099-0.705-0.183-1.058-0.282-0.056 0.339-0.099 0.649-0.155 0.959 0.339 0.042 0.649 0.085 0.917 0.113 0.085-0.042 0.127-0.085 0.169-0.099 0.141-0.042 0.198-0.141 0.169-0.268-0.028-0.085-0.099-0.155-0.155-0.24 0-0.014 0.028-0.042 0.042-0.071 0.014-0.014 0.028-0.056 0.071-0.113zM9.594 18.526c-0.198-0.056-0.198-0.056-0.24-0.268-0.099-0.451-0.339-0.79-0.762-1.002-0.099-0.042-0.198-0.085-0.296-0.127 0.056-0.325 0.099-0.649 0.155-0.988-0.099-0.014-0.183-0.014-0.268-0.028-0.056 0.395-0.113 0.776-0.169 1.171 0.593 0.169 0.945 0.564 1.129 1.129 0.014 0.028 0.042 0.071 0.071 0.085 0.113 0 0.254 0.014 0.381 0.028zM14.787 17.439c-0.028-0.367-0.042-0.691-0.071-1.016-0.451 0.169-0.734 0.522-0.931 0.959 0.325 0.212 0.762 0.226 1.002 0.056zM5.319 25.496c-0.014 0.508 0.127 0.959 0.494 1.312 0.028 0.028 0.085 0.042 0.113 0.028 0.141-0.085 0.268-0.169 0.353-0.226-0.141-0.282-0.254-0.522-0.381-0.776-0.014-0.028-0.028-0.071-0.056-0.071-0.169-0.085-0.339-0.169-0.522-0.268zM13.277 17.242c0.014-0.339 0.042-0.663 0.056-0.974-0.437 0.099-0.748 0.395-1.002 0.79 0.31 0.226 0.649 0.268 0.945 0.183zM11.852 16.734c-0.367-0.056-0.903 0.282-1.086 0.734 0.268 0.169 0.564 0.254 0.832 0.183 0.099-0.339 0.183-0.621 0.254-0.917zM13.333 11.358c-0.155 0.395-0.254 0.762-0.113 1.157 0.226-0.127 0.437-0.24 0.649-0.353-0.099-0.31-0.183-0.635-0.536-0.804zM11.753 12.628c0.212-0.127 0.423-0.254 0.635-0.381 0.014-0.014 0.028-0.042 0.042-0.071 0.014-0.24-0.282-0.621-0.536-0.663-0.155 0.339-0.212 0.762-0.141 1.115zM14.829 12.473c0.24-0.155 0.451-0.282 0.649-0.409 0.028-0.014 0.056-0.056 0.056-0.085 0-0.183-0.254-0.536-0.437-0.578-0.042-0.014-0.113 0.042-0.127 0.071-0.056 0.183-0.113 0.381-0.141 0.564-0.014 0.141 0 0.282 0 0.437zM17.27 18.526c-0.494-0.085-1.044 0.325-1.115 0.861 0.056-0.056 0.099-0.099 0.127-0.127 0.085-0.113 0.155-0.226 0.24-0.325 0.127-0.141 0.296-0.24 0.494-0.226 0.028 0.085 0.056 0.155 0.085 0.254 0.071-0.169 0.113-0.296 0.169-0.437zM17.397 18.229c0.155-0.183 0.226-0.691 0.113-0.79-0.042 0.268-0.085 0.536-0.113 0.79z"></path>
<path d="M14.152 1.157c0.155 0 0.31 0 0.451 0s0.155 0.056 0.141 0.169c-0.042 0.268-0.028 0.536 0.099 0.79 0.056 0.099 0 0.141-0.085 0.169-0.635 0.254-1.213 0.607-1.778 1.016-1.453 1.058-2.596 2.413-3.527 3.951-0.028 0.042-0.042 0.099-0.085 0.127-0.028 0.014-0.113 0.014-0.127 0-0.451-0.748-1.171-0.804-1.919-0.762-0.607 0.042-1.199 0.226-1.764 0.437-0.071 0.028-0.141 0.014-0.212 0.028 0.014-0.071 0-0.155 0.028-0.226 0.409-1.199 1.086-2.229 2.004-3.090 1.355-1.298 3.005-2.032 4.84-2.37 0.621-0.113 1.27-0.183 1.919-0.268 0 0.014 0.014 0.014 0.014 0.028zM14.575 1.284c-0.071 0-0.155 0-0.24 0-0.48 0.042-0.959 0.071-1.425 0.127-1.27 0.155-2.483 0.508-3.612 1.129-1.721 0.931-2.991 2.286-3.725 4.134-0.028 0.071-0.042 0.141-0.085 0.254 0.085-0.028 0.141-0.056 0.198-0.071 0.691-0.24 1.411-0.423 2.145-0.381 0.466 0.028 0.903 0.141 1.256 0.48 0.085 0.071 0.141 0.169 0.226 0.254 1.326-2.173 3.005-3.965 5.333-5.037-0.014-0.296-0.042-0.578-0.071-0.889z"></path>
<path d="M9.735 7.802c0.028-0.085 0.042-0.141 0.056-0.183 1.072-2.074 2.54-3.781 4.6-4.938 0.014-0.014 0.042-0.028 0.056-0.028 0.564-0.268 0.367-0.296 0.832 0.155 0.085 0.085 0.085 0.155 0 0.24-0.762 0.847-1.439 1.75-2.004 2.737-0.367 0.635-0.677 1.298-0.861 2.018-0.028 0.113-0.056 0.155-0.183 0.099-0.72-0.395-1.481-0.381-2.243-0.155-0.071 0.028-0.141 0.042-0.254 0.056zM14.871 2.596c-2.215 1.086-3.753 2.836-4.896 4.981 0.79-0.198 1.552-0.198 2.3 0.169 0.564-1.862 1.693-3.372 2.935-4.811-0.113-0.113-0.212-0.212-0.339-0.339z"></path>
<path d="M15.69 3.273c-0.014 0.042-0.028 0.099-0.056 0.141-0.847 1.383-0.818 2.765-0.014 4.162 0.028 0.056 0.056 0.127 0.056 0.212-0.451-0.268-0.903-0.466-1.439-0.423-0.522 0.042-0.945 0.296-1.34 0.621-0.014 0-0.028-0.014-0.042-0.014 0-0.056-0.014-0.127 0-0.169 0.466-1.425 1.044-2.794 2.046-3.922 0.183-0.212 0.395-0.381 0.607-0.564 0.042-0.042 0.099-0.042 0.155-0.071 0 0 0.014 0.014 0.028 0.028zM13.037 7.676c0.734-0.494 1.51-0.607 2.356-0.198-0.325-0.621-0.508-1.228-0.522-1.877-0.014-0.663 0.127-1.284 0.395-1.877-1.129 1.115-1.735 2.497-2.229 3.951z"></path>
<path d="M23.026 15.196c0.014-0.24 0.085-0.451 0.282-0.593 0.268-0.169 0.508-0.014 0.748 0.127 0.042-0.24 0.113-0.466 0.339-0.593 0.056-0.028 0.141-0.042 0.198-0.071-0.141 0.169-0.31 0.296-0.381 0.466s-0.056 0.381-0.099 0.621c-0.042-0.071-0.056-0.113-0.071-0.141-0.085-0.24-0.282-0.395-0.508-0.381-0.169 0-0.31 0.155-0.395 0.395-0.014 0.071-0.042 0.127-0.071 0.183-0.014 0-0.028-0.014-0.042-0.014z"></path>
<path d="M6.307 14.067c-0.113 0.24-0.282 0.423-0.578 0.423 0.339-0.141 0.466-0.451 0.578-0.804 0.056 0.282 0.169 0.466 0.409 0.536 0.268 0.071 0.437-0.099 0.593-0.282-0.099 0.451-0.55 0.508-1.002 0.127z"></path>
<path d="M19.795 21.517c0.071-0.141 0.113-0.325 0.226-0.437 0.169-0.183 0.395-0.325 0.593-0.466 0.071-0.056 0.183-0.071 0.226 0.028s-0.028 0.155-0.113 0.212c-0.155 0.099-0.296 0.198-0.437 0.325-0.071 0.071-0.141 0.169-0.183 0.268-0.056 0.155 0 0.24 0.155 0.254 0.522 0.071 1.044 0.141 1.58 0.212 0.889 0.113 1.778 0.226 2.667 0.353 0.099 0.014 0.198 0.042 0.183 0.169-0.028 0.113-0.113 0.127-0.212 0.099-0.071-0.014-0.141-0.028-0.198-0.014-0.042 0-0.099 0.028-0.113 0.071-0.268 0.677-0.804 0.974-1.481 1.072-0.607 0.085-1.171-0.028-1.665-0.395-0.353-0.268-0.536-0.621-0.55-1.058 0-0.169-0.056-0.212-0.212-0.226-0.282-0.028-0.423-0.183-0.466-0.466zM20.783 21.898c-0.071 0.381 0.014 0.748 0.268 1.002 0.564 0.55 1.242 0.621 1.961 0.409 0 0 0.014-0.014 0.028-0.042-0.042-0.028-0.085-0.056-0.113-0.071 0.198-0.268 0.127-0.423-0.24-0.494 0.042-0.169 0.085-0.339 0.127-0.536-0.677-0.099-1.355-0.183-2.032-0.268z"></path>
<path d="M17.284 26.018c-0.494-0.198-1.044-0.423-1.608-0.607s-1.157-0.24-1.75-0.028c-0.155 0.056-0.31 0.141-0.451 0.212 0.127-0.226 0.536-0.494 0.917-0.578 0.466-0.099 0.917-0.042 1.354 0.113 0.593 0.226 1.101 0.55 1.538 0.889z"></path>
<path d="M17.961 23.675c0.409 0 0.748 0.395 0.677 0.691-0.014 0.042-0.071 0.099-0.113 0.099s-0.113-0.042-0.141-0.085c-0.042-0.071-0.042-0.155-0.085-0.24-0.085-0.183-0.212-0.24-0.395-0.155-0.085 0.042-0.155 0.099-0.24 0.127-0.056 0.014-0.127-0.014-0.198-0.014 0.014-0.071 0-0.169 0.028-0.198 0.198-0.085 0.381-0.169 0.466-0.226z"></path>
<path d="M16.155 23.492c-0.028 0.014-0.056 0.085-0.113 0.099-0.042 0.014-0.113-0.042-0.141-0.085-0.042-0.042-0.042-0.113-0.071-0.169-0.099-0.198-0.212-0.24-0.409-0.113-0.056 0.042-0.113 0.099-0.183 0.127-0.056 0.014-0.141 0.014-0.183-0.014-0.028-0.028-0.042-0.127-0.014-0.169 0.099-0.183 0.466-0.325 0.677-0.282 0.212 0.056 0.437 0.353 0.437 0.607z"></path>
</svg>
