<!-- Generated by IcoMoon.io -->
<svg version="1.1" xmlns="http://www.w3.org/2000/svg" width="32" height="32" viewBox="0 0 32 32">
<title>DROP</title>
<path d="M16.282 0.353c0.042 0.367 0.085 0.734 0.113 1.101 0.155 2.342 0.325 4.684 0.466 7.026 0.099 1.707 0.169 3.429 0.268 5.136 0.226 3.908 0.31 7.817 0.226 11.725-0.042 1.862-0.212 3.711-0.339 5.559-0.028 0.451-0.31 0.705-0.705 0.734-0.381 0.014-0.705-0.24-0.79-0.663-0.071-0.423-0.127-0.861-0.155-1.284-0.24-3.16-0.31-6.335-0.254-9.51 0.028-1.905 0.071-3.81 0.155-5.714 0.141-2.963 0.325-5.926 0.522-8.889 0.113-1.693 0.268-3.386 0.409-5.079 0-0.042 0.014-0.099 0.014-0.141 0.028 0 0.056 0 0.071 0z"></path>
<path d="M15.365 2.37c-0.028 0.296-0.056 0.593-0.085 0.889-0.296 2.836-0.607 5.672-0.861 8.508-0.127 1.354-0.141 2.709-0.169 4.063-0.042 1.608-0.071 3.231-0.042 4.84 0.028 1.693 0.099 3.372 0.183 5.051 0.071 1.34 0.198 2.667 0.296 4.007 0.014 0.169 0.028 0.353 0.014 0.522-0.028 0.367-0.254 0.621-0.564 0.677-0.282 0.042-0.621-0.099-0.734-0.423-0.296-0.832-0.621-1.651-0.804-2.497-0.423-1.919-0.607-3.866-0.663-5.827-0.071-2.088 0.014-4.176 0.212-6.265 0.24-2.384 0.55-4.755 1.086-7.083 0.466-2.060 1.044-4.078 1.82-6.039 0.056-0.155 0.141-0.31 0.212-0.466 0.028 0.028 0.071 0.042 0.099 0.042z"></path>
<path d="M17.256 2.399c0.071 0.155 0.155 0.31 0.212 0.466 0.451 1.411 0.959 2.808 1.355 4.247 0.353 1.242 0.621 2.526 0.847 3.795 0.423 2.384 0.748 4.783 0.832 7.21 0.056 1.594 0.085 3.203 0.056 4.797-0.028 1.679-0.226 3.344-0.621 4.966-0.198 0.832-0.508 1.651-0.762 2.469-0.028 0.099-0.085 0.183-0.127 0.268-0.141 0.268-0.381 0.353-0.649 0.31-0.282-0.042-0.48-0.212-0.536-0.494-0.042-0.183-0.042-0.367-0.028-0.564 0.141-2.159 0.325-4.317 0.409-6.476 0.071-1.707 0.056-3.429 0.056-5.15-0.014-1.721-0.014-3.429-0.127-5.15-0.141-2.187-0.395-4.36-0.621-6.547-0.127-1.242-0.254-2.497-0.381-3.739-0.014-0.141 0-0.282 0-0.423 0.028 0.028 0.056 0.028 0.085 0.014z"></path>
<path d="M13.037 6.504c-0.099 0.381-0.169 0.776-0.282 1.157-0.536 1.919-0.903 3.866-1.171 5.841-0.198 1.411-0.381 2.822-0.48 4.247-0.085 1.227-0.056 2.483-0.042 3.711 0 1.608 0.198 3.189 0.494 4.769 0.155 0.832 0.367 1.651 0.55 2.483 0.042 0.169 0.071 0.339 0.056 0.508-0.014 0.282-0.169 0.494-0.451 0.578-0.268 0.085-0.508 0.028-0.649-0.212-0.254-0.423-0.522-0.861-0.72-1.312-0.437-1.030-0.607-2.131-0.776-3.231-0.31-2.004-0.423-4.007-0.367-6.025 0.071-2.413 0.466-4.755 1.228-7.041 0.395-1.199 0.861-2.384 1.369-3.541 0.296-0.691 0.734-1.326 1.101-1.989 0.042 0.014 0.099 0.028 0.141 0.056z"></path>
<path d="M19.626 6.49c0.339 0.578 0.705 1.143 1.002 1.75 0.734 1.51 1.298 3.076 1.721 4.698 0.282 1.115 0.564 2.243 0.72 3.372 0.226 1.594 0.339 3.217 0.212 4.825-0.099 1.369-0.198 2.723-0.367 4.092-0.155 1.256-0.423 2.497-1.002 3.654-0.113 0.226-0.24 0.466-0.395 0.663-0.212 0.282-0.48 0.353-0.762 0.24s-0.409-0.339-0.395-0.691c0-0.127 0.028-0.254 0.071-0.381 0.451-1.552 0.677-3.146 0.875-4.755 0.282-2.356 0.24-4.727 0.071-7.083-0.085-1.227-0.254-2.469-0.466-3.683-0.282-1.665-0.635-3.302-0.974-4.952-0.099-0.494-0.254-0.974-0.395-1.453-0.014-0.085-0.028-0.155-0.056-0.24 0.056-0.014 0.099-0.042 0.141-0.056z"></path>
<path d="M22.928 12.078c0.31 0.564 0.649 1.115 0.931 1.693 0.621 1.284 1.27 2.554 1.608 3.951 0.522 2.131 0.663 4.275 0.268 6.434-0.24 1.326-0.748 2.568-1.679 3.598-0.155 0.183-0.339 0.466-0.593 0.296-0.141-0.085-0.155-0.409-0.155-0.621-0.014-0.212 0.056-0.423 0.099-0.635 0.536-2.286 0.917-4.6 0.847-6.97-0.056-1.721-0.282-3.414-0.705-5.079-0.198-0.776-0.437-1.552-0.663-2.328-0.028-0.099-0.042-0.183-0.056-0.282 0.028-0.028 0.071-0.042 0.099-0.056z"></path>
<path d="M9.764 11.993c-0.169 0.578-0.339 1.143-0.508 1.721-0.395 1.369-0.72 2.751-0.875 4.176-0.169 1.524-0.226 3.048-0.071 4.571 0.113 1.030 0.31 2.046 0.494 3.062 0.113 0.593 0.254 1.185 0.381 1.778 0.028 0.113 0.056 0.24 0.042 0.339-0.028 0.155-0.071 0.395-0.169 0.437-0.113 0.042-0.353-0.042-0.451-0.155-0.31-0.367-0.635-0.748-0.861-1.185-0.988-1.792-1.213-3.767-1.157-5.771 0.042-1.425 0.212-2.85 0.691-4.205 0.226-0.621 0.494-1.227 0.776-1.834 0.395-0.847 0.804-1.679 1.228-2.511 0.099-0.183 0.254-0.325 0.381-0.48 0.042 0.028 0.071 0.042 0.099 0.056z"></path>
</svg>
