<?xml version="1.0" encoding="utf-8"?>
<!-- Generator: Adobe Illustrator 22.1.0, SVG Export Plug-In . SVG Version: 6.00 Build 0)  -->
<svg version="1.1" id="Layer_1" xmlns="http://www.w3.org/2000/svg" xmlns:xlink="http://www.w3.org/1999/xlink" x="0px" y="0px"
	 viewBox="0 0 226.8 226.8" style="enable-background:new 0 0 226.8 226.8;" xml:space="preserve">
<g>
	<path d="M115.4,2.5c0.3,2.6,0.6,5.2,0.8,7.8c1.1,16.6,2.3,33.2,3.3,49.8c0.7,12.1,1.2,24.3,1.9,36.4c1.6,27.7,2.2,55.4,1.6,83.1
		c-0.3,13.2-1.5,26.3-2.4,39.4c-0.2,3.2-2.2,5-5,5.2c-2.7,0.1-5-1.7-5.6-4.7c-0.5-3-0.9-6.1-1.1-9.1c-1.7-22.4-2.2-44.9-1.8-67.4
		c0.2-13.5,0.5-27,1.1-40.5c1-21,2.3-42,3.7-63c0.8-12,1.9-24,2.9-36c0-0.3,0.1-0.7,0.1-1C115.1,2.5,115.3,2.5,115.4,2.5z"/>
	<path d="M108.9,16.8c-0.2,2.1-0.4,4.2-0.6,6.3c-2.1,20.1-4.3,40.2-6.1,60.3c-0.9,9.6-1,19.2-1.2,28.8c-0.3,11.4-0.5,22.9-0.3,34.3
		c0.2,12,0.7,23.9,1.3,35.8c0.5,9.5,1.4,18.9,2.1,28.4c0.1,1.2,0.2,2.5,0.1,3.7c-0.2,2.6-1.8,4.4-4,4.8c-2,0.3-4.4-0.7-5.2-3
		c-2.1-5.9-4.4-11.7-5.7-17.7c-3-13.6-4.3-27.4-4.7-41.3c-0.5-14.8,0.1-29.6,1.5-44.4c1.7-16.9,3.9-33.7,7.7-50.2
		c3.3-14.6,7.4-28.9,12.9-42.8c0.4-1.1,1-2.2,1.5-3.3C108.4,16.7,108.7,16.8,108.9,16.8z"/>
	<path d="M122.3,17c0.5,1.1,1.1,2.2,1.5,3.3c3.2,10,6.8,19.9,9.6,30.1c2.5,8.8,4.4,17.9,6,26.9c3,16.9,5.3,33.9,5.9,51.1
		c0.4,11.3,0.6,22.7,0.4,34c-0.2,11.9-1.6,23.7-4.4,35.2c-1.4,5.9-3.6,11.7-5.4,17.5c-0.2,0.7-0.6,1.3-0.9,1.9
		c-1,1.9-2.7,2.5-4.6,2.2c-2-0.3-3.4-1.5-3.8-3.5c-0.3-1.3-0.3-2.6-0.2-4c1-15.3,2.3-30.6,2.9-45.9c0.5-12.1,0.4-24.3,0.4-36.5
		c-0.1-12.2-0.1-24.3-0.9-36.5c-1-15.5-2.8-30.9-4.4-46.4c-0.9-8.8-1.8-17.7-2.7-26.5c-0.1-1,0-2,0-3
		C121.9,17.1,122.1,17.1,122.3,17z"/>
	<path d="M92.4,46.1c-0.7,2.7-1.2,5.5-2,8.2c-3.8,13.6-6.4,27.4-8.3,41.4c-1.4,10-2.7,20-3.4,30.1c-0.6,8.7-0.4,17.6-0.3,26.3
		c0,11.4,1.4,22.6,3.5,33.8c1.1,5.9,2.6,11.7,3.9,17.6c0.3,1.2,0.5,2.4,0.4,3.6c-0.1,2-1.2,3.5-3.2,4.1c-1.9,0.6-3.6,0.2-4.6-1.5
		c-1.8-3-3.7-6.1-5.1-9.3c-3.1-7.3-4.3-15.1-5.5-22.9c-2.2-14.2-3-28.4-2.6-42.7c0.5-17.1,3.3-33.7,8.7-49.9
		c2.8-8.5,6.1-16.9,9.7-25.1c2.1-4.9,5.2-9.4,7.8-14.1C91.7,45.8,92.1,45.9,92.4,46.1z"/>
	<path d="M139.1,46c2.4,4.1,5,8.1,7.1,12.4c5.2,10.7,9.2,21.8,12.2,33.3c2,7.9,4,15.9,5.1,23.9c1.6,11.3,2.4,22.8,1.5,34.2
		c-0.7,9.7-1.4,19.3-2.6,29c-1.1,8.9-3,17.7-7.1,25.9c-0.8,1.6-1.7,3.3-2.8,4.7c-1.5,2-3.4,2.5-5.4,1.7c-2-0.8-2.9-2.4-2.8-4.9
		c0-0.9,0.2-1.8,0.5-2.7c3.2-11,4.8-22.3,6.2-33.7c2-16.7,1.7-33.5,0.5-50.2c-0.6-8.7-1.8-17.5-3.3-26.1c-2-11.8-4.5-23.4-6.9-35.1
		c-0.7-3.5-1.8-6.9-2.8-10.3c-0.1-0.6-0.2-1.1-0.4-1.7C138.5,46.3,138.8,46.1,139.1,46z"/>
	<path d="M162.5,85.6c2.2,4,4.6,7.9,6.6,12c4.4,9.1,9,18.1,11.4,28c3.7,15.1,4.7,30.3,1.9,45.6c-1.7,9.4-5.3,18.2-11.9,25.5
		c-1.1,1.3-2.4,3.3-4.2,2.1c-1-0.6-1.1-2.9-1.1-4.4c-0.1-1.5,0.4-3,0.7-4.5c3.8-16.2,6.5-32.6,6-49.4c-0.4-12.2-2-24.2-5-36
		c-1.4-5.5-3.1-11-4.7-16.5c-0.2-0.7-0.3-1.3-0.4-2C162,85.8,162.3,85.7,162.5,85.6z"/>
	<path d="M69.2,85c-1.2,4.1-2.4,8.1-3.6,12.2c-2.8,9.7-5.1,19.5-6.2,29.6c-1.2,10.8-1.6,21.6-0.5,32.4c0.8,7.3,2.2,14.5,3.5,21.7
		c0.8,4.2,1.8,8.4,2.7,12.6c0.2,0.8,0.4,1.7,0.3,2.4c-0.2,1.1-0.5,2.8-1.2,3.1c-0.8,0.3-2.5-0.3-3.2-1.1c-2.2-2.6-4.5-5.3-6.1-8.4
		c-7-12.7-8.6-26.7-8.2-40.9c0.3-10.1,1.5-20.2,4.9-29.8c1.6-4.4,3.5-8.7,5.5-13c2.8-6,5.7-11.9,8.7-17.8c0.7-1.3,1.8-2.3,2.7-3.4
		C68.8,84.8,69,84.9,69.2,85z"/>
</g>
</svg>
