<!-- Generated by IcoMoon.io -->
<svg version="1.1" xmlns="http://www.w3.org/2000/svg" width="32" height="32" viewBox="0 0 32 32">
<title>DRT</title>
<path d="M27.104 15.831c-0.113 4.388-1.75 7.577-5.079 9.877-0.198 0.141-0.409 0.268-0.578 0.437-0.494 0.494-0.564 1.086-0.212 1.608 0.353 0.536 0.931 0.72 1.566 0.437 0.353-0.155 0.691-0.367 0.988-0.593 4.698-3.598 6.519-8.339 5.545-14.152-0.056-0.31-0.141-0.621-0.155-0.931-0.028-0.677 0.353-1.185 0.959-1.312 0.564-0.113 1.072 0.155 1.284 0.818 0.522 1.538 0.705 3.16 0.621 4.769-0.198 3.979-1.608 7.506-4.275 10.497-1.891 2.102-4.19 3.584-6.899 4.444-0.296 0.099-0.621 0.169-0.917 0.169-0.578 0.014-1.030-0.212-1.213-0.804-0.183-0.55 0.071-0.959 0.466-1.298 0.155-0.127 0.367-0.198 0.55-0.31 0.578-0.381 0.818-0.875 0.677-1.411-0.169-0.635-0.663-0.988-1.411-1.002-0.099 0-0.212 0.028-0.31 0.028-0.621-0.014-1.115-0.395-1.242-0.931-0.141-0.564 0.183-1.143 0.818-1.411 0.451-0.198 0.931-0.325 1.369-0.55 2.596-1.256 4.205-3.316 4.825-6.123 0.071-0.296 0.056-0.635-0.028-0.931-0.155-0.522-0.607-0.776-1.129-0.79-0.494-0.028-0.889 0.212-1.101 0.677-0.155 0.353-0.268 0.72-0.367 1.101-0.889 3.189-4.557 4.91-6.857 4.261-0.24-0.071-0.48-0.085-0.734-0.099-0.677-0.042-1.129 0.226-1.34 0.776-0.226 0.578-0.028 1.143 0.55 1.538 0.198 0.141 0.437 0.226 0.635 0.381 0.466 0.367 0.607 0.917 0.395 1.411-0.24 0.564-0.705 0.776-1.27 0.691-0.409-0.056-0.818-0.198-1.199-0.367-4.317-1.877-6.66-5.164-7.055-9.862-0.014-0.212-0.014-0.423-0.042-0.635-0.113-0.72-0.621-1.199-1.242-1.213-0.677-0.014-1.256 0.494-1.242 1.284 0 0.945 0.056 1.905 0.268 2.808 1.171 4.966 4.106 8.423 8.931 10.201 0.296 0.113 0.607 0.183 0.889 0.31 0.705 0.325 0.959 0.917 0.72 1.538-0.254 0.635-0.818 0.917-1.538 0.705-2.441-0.691-4.6-1.877-6.448-3.612-3.372-3.090-5.093-7.026-5.277-11.598-0.056-1.383 0.282-2.78 0.466-4.162 0.028-0.198 0.127-0.395 0.212-0.593 0.226-0.508 0.635-0.734 1.185-0.677 0.536 0.056 0.917 0.466 0.988 1.072 0.042 0.31-0.014 0.635 0.042 0.945 0.085 0.522 0.395 0.903 0.931 1.002 0.522 0.099 0.988-0.014 1.284-0.508 0.127-0.212 0.226-0.437 0.367-0.635 0.353-0.508 0.832-0.677 1.369-0.508 0.522 0.169 0.818 0.621 0.804 1.228-0.014 0.282-0.085 0.55-0.141 0.832-0.466 2.907 0.226 5.489 2.229 7.69 0.212 0.226 0.437 0.451 0.705 0.635 0.578 0.409 1.157 0.367 1.608-0.099 0.437-0.437 0.508-1.086 0.127-1.637-0.155-0.226-0.367-0.423-0.564-0.621-2.258-2.427-2.37-5.87-0.282-8.423 0.127-0.169 0.296-0.31 0.409-0.48 0.339-0.508 0.31-1.115-0.042-1.566-0.381-0.48-0.875-0.593-1.51-0.31-0.226 0.099-0.423 0.254-0.635 0.353-0.494 0.24-0.959 0.155-1.34-0.24-0.367-0.381-0.423-0.974-0.099-1.453 0.198-0.282 0.451-0.536 0.705-0.762 3.245-2.878 7.986-3.527 11.894-1.637 0.31 0.155 0.621 0.339 0.945 0.452 0.621 0.212 1.171 0.014 1.467-0.48 0.325-0.536 0.268-1.199-0.198-1.637-0.254-0.226-0.564-0.409-0.875-0.564-5.037-2.483-10.892-1.693-15.097 2.046-0.24 0.212-0.452 0.452-0.705 0.635-0.494 0.353-1.030 0.325-1.453-0.056s-0.536-1.002-0.212-1.524c0.141-0.24 0.339-0.452 0.536-0.635 6.236-5.757 15.365-5.728 21.503-0.226 0.282 0.254 0.564 0.536 0.79 0.847 0.339 0.48 0.282 1.058-0.085 1.453-0.395 0.423-0.889 0.508-1.425 0.226-0.212-0.113-0.409-0.268-0.635-0.381-0.536-0.254-1.030-0.141-1.439 0.282-0.367 0.381-0.48 0.847-0.254 1.354 0.127 0.282 0.325 0.55 0.451 0.832 0.254 0.522 0.099 0.974-0.31 1.326s-0.875 0.437-1.355 0.127c-0.282-0.198-0.55-0.437-0.818-0.663-2.215-1.848-4.755-2.427-7.563-1.834-0.339 0.071-0.677 0.183-0.988 0.353-0.593 0.325-0.804 0.917-0.607 1.51s0.734 0.917 1.411 0.818c0.24-0.028 0.48-0.113 0.72-0.169 3.146-0.734 6.109 0.847 7.266 3.88 0.099 0.268 0.169 0.536 0.296 0.79 0.296 0.55 0.847 0.79 1.425 0.621 0.564-0.169 0.875-0.55 0.903-1.143 0.014-0.169-0.028-0.353-0.028-0.522 0.014-0.748 0.437-1.27 1.058-1.34 0.578-0.071 1.101 0.268 1.27 1.002 0.226 0.889 0.31 1.792 0.395 2.342zM12.289 16.198c-0.183 1.665 1.242 3.852 3.668 3.88 2.102 0.028 3.767-1.693 3.767-3.81 0-2.173-1.594-3.781-3.753-3.781-2.13 0-3.668 1.552-3.683 3.711z"></path>
</svg>
