<?xml version="1.0" encoding="utf-8"?>
<!-- Generator: Adobe Illustrator 22.1.0, SVG Export Plug-In . SVG Version: 6.00 Build 0)  -->
<svg version="1.1" id="Layer_1" xmlns="http://www.w3.org/2000/svg" xmlns:xlink="http://www.w3.org/1999/xlink" x="0px" y="0px"
	 viewBox="0 0 226.8 226.8" style="enable-background:new 0 0 226.8 226.8;" xml:space="preserve">
<g>
	<path d="M192.1,112.2c-0.8,31.1-12.4,53.7-36,70c-1.4,1-2.9,1.9-4.1,3.1c-3.5,3.5-4,7.7-1.5,11.4c2.5,3.8,6.6,5.1,11.1,3.1
		c2.5-1.1,4.9-2.6,7-4.2c33.3-25.5,46.2-59.1,39.3-100.3c-0.4-2.2-1-4.4-1.1-6.6c-0.2-4.8,2.5-8.4,6.8-9.3c4-0.8,7.6,1.1,9.1,5.8
		c3.7,10.9,5,22.4,4.4,33.8c-1.4,28.2-11.4,53.2-30.3,74.4c-13.4,14.9-29.7,25.4-48.9,31.5c-2.1,0.7-4.4,1.2-6.5,1.2
		c-4.1,0.1-7.3-1.5-8.6-5.7c-1.3-3.9,0.5-6.8,3.3-9.2c1.1-0.9,2.6-1.4,3.9-2.2c4.1-2.7,5.8-6.2,4.8-10c-1.2-4.5-4.7-7-10-7.1
		c-0.7,0-1.5,0.2-2.2,0.2c-4.4-0.1-7.9-2.8-8.8-6.6c-1-4,1.3-8.1,5.8-10c3.2-1.4,6.6-2.3,9.7-3.9c18.4-8.9,29.8-23.5,34.2-43.4
		c0.5-2.1,0.4-4.5-0.2-6.6c-1.1-3.7-4.3-5.5-8-5.6c-3.5-0.2-6.3,1.5-7.8,4.8c-1.1,2.5-1.9,5.1-2.6,7.8
		c-6.3,22.6-32.3,34.8-48.6,30.2c-1.7-0.5-3.4-0.6-5.2-0.7c-4.8-0.3-8,1.6-9.5,5.5c-1.6,4.1-0.2,8.1,3.9,10.9c1.4,1,3.1,1.6,4.5,2.7
		c3.3,2.6,4.3,6.5,2.8,10c-1.7,4-5,5.5-9,4.9c-2.9-0.4-5.8-1.4-8.5-2.6c-30.6-13.3-47.2-36.6-50-69.9c-0.1-1.5-0.1-3-0.3-4.5
		c-0.8-5.1-4.4-8.5-8.8-8.6c-4.8-0.1-8.9,3.5-8.8,9.1c0,6.7,0.4,13.5,1.9,19.9c8.3,35.2,29.1,59.7,63.3,72.3
		c2.1,0.8,4.3,1.3,6.3,2.2c5,2.3,6.8,6.5,5.1,10.9c-1.8,4.5-5.8,6.5-10.9,5c-17.3-4.9-32.6-13.3-45.7-25.6
		C13.5,178.4,1.3,150.5,0,118.1c-0.4-9.8,2-19.7,3.3-29.5c0.2-1.4,0.9-2.8,1.5-4.2c1.6-3.6,4.5-5.2,8.4-4.8c3.8,0.4,6.5,3.3,7,7.6
		c0.3,2.2-0.1,4.5,0.3,6.7c0.6,3.7,2.8,6.4,6.6,7.1c3.7,0.7,7-0.1,9.1-3.6c0.9-1.5,1.6-3.1,2.6-4.5c2.5-3.6,5.9-4.8,9.7-3.6
		c3.7,1.2,5.8,4.4,5.7,8.7c-0.1,2-0.6,3.9-1,5.9c-3.3,20.6,1.6,38.9,15.8,54.5c1.5,1.6,3.1,3.2,5,4.5c4.1,2.9,8.2,2.6,11.4-0.7
		c3.1-3.1,3.6-7.7,0.9-11.6c-1.1-1.6-2.6-3-4-4.4c-16-17.2-16.8-41.6-2-59.7c0.9-1.2,2.1-2.2,2.9-3.4c2.4-3.6,2.2-7.9-0.3-11.1
		c-2.7-3.4-6.2-4.2-10.7-2.2c-1.6,0.7-3,1.8-4.5,2.5c-3.5,1.7-6.8,1.1-9.5-1.7c-2.6-2.7-3-6.9-0.7-10.3c1.4-2,3.2-3.8,5-5.4
		c23-20.4,56.6-25,84.3-11.6c2.2,1.1,4.4,2.4,6.7,3.2c4.4,1.5,8.3,0.1,10.4-3.4c2.3-3.8,1.9-8.5-1.4-11.6c-1.8-1.6-4-2.9-6.2-4
		c-35.7-17.6-77.2-12-107,14.5c-1.7,1.5-3.2,3.2-5,4.5c-3.5,2.5-7.3,2.3-10.3-0.4c-3-2.7-3.8-7.1-1.5-10.8c1-1.7,2.4-3.2,3.8-4.5
		c44.2-40.8,108.9-40.6,152.4-1.6c2,1.8,4,3.8,5.6,6c2.4,3.4,2,7.5-0.6,10.3c-2.8,3-6.3,3.6-10.1,1.6c-1.5-0.8-2.9-1.9-4.5-2.7
		c-3.8-1.8-7.3-1-10.2,2c-2.6,2.7-3.4,6-1.8,9.6c0.9,2,2.3,3.9,3.2,5.9c1.8,3.7,0.7,6.9-2.2,9.4c-2.9,2.5-6.2,3.1-9.6,0.9
		c-2-1.4-3.9-3.1-5.8-4.7C137,54.4,119,50.3,99.1,54.5c-2.4,0.5-4.8,1.3-7,2.5c-4.2,2.3-5.7,6.5-4.3,10.7c1.4,4.2,5.2,6.5,10,5.8
		c1.7-0.2,3.4-0.8,5.1-1.2c22.3-5.2,43.3,6,51.5,27.5c0.7,1.9,1.2,3.8,2.1,5.6c2.1,3.9,6,5.6,10.1,4.4c4-1.2,6.2-3.9,6.4-8.1
		c0.1-1.2-0.2-2.5-0.2-3.7c0.1-5.3,3.1-9,7.5-9.5c4.1-0.5,7.8,1.9,9,7.1C190.9,101.9,191.5,108.3,192.1,112.2z M87.1,114.8
		c-1.3,11.8,8.8,27.3,26,27.5c14.9,0.2,26.7-12,26.7-27c0-15.4-11.3-26.8-26.6-26.8C98.1,88.5,87.2,99.5,87.1,114.8z"/>
</g>
</svg>
