<!-- Generated by IcoMoon.io -->
<svg version="1.1" xmlns="http://www.w3.org/2000/svg" width="32" height="32" viewBox="0 0 32 32">
<title>DSX</title>
<path d="M0 16.038c0-1.446 0-2.893 0-4.339 0-0.333 0.013-0.346 0.346-0.346 1.434 0 2.88-0.013 4.314 0 1.024 0.013 1.958 0.32 2.79 0.922 1.562 1.152 2.24 3.187 1.715 5.043-0.538 1.946-2.381 3.418-4.544 3.418-1.434 0-2.88 0-4.314 0-0.294 0-0.307-0.013-0.307-0.307 0-1.472 0-2.931 0-4.39 0 0 0 0 0 0z"></path>
<path d="M17.536 14.451c0.090 0.013 0.141 0.026 0.205 0.038 1.28 0.115 2.394 1.126 2.701 2.368 0.41 1.702-0.691 3.494-2.56 3.84-0.256 0.051-0.512 0.038-0.768 0.038-1.779 0-3.558 0-5.35 0-0.179 0-0.346 0-0.525-0.013-0.051 0-0.102-0.038-0.154-0.051 0.026-0.051 0.026-0.115 0.064-0.154 0.371-0.384 0.755-0.755 1.139-1.126 0.55-0.55 1.114-1.101 1.664-1.664 0.013-0.013 0.013-0.038 0-0.013-0.422-0.141-0.858-0.243-1.254-0.422-1.216-0.589-1.933-2.010-1.651-3.341 0.243-1.126 0.909-1.92 1.971-2.355 0.397-0.166 0.794-0.218 1.229-0.218 1.984 0 3.968 0 5.965 0 0.077 0 0.141 0.038 0.218 0.064-0.038 0.077-0.064 0.166-0.115 0.218-0.909 0.909-1.818 1.818-2.726 2.714 0 0-0.013 0.026-0.051 0.077z"></path>
<path d="M27.405 20.736c-1.472 0-2.931 0-4.403 0-0.064 0-0.115 0-0.179 0-0.051-0.013-0.128-0.038-0.128-0.064-0.013-0.051 0.013-0.115 0.051-0.154 0.538-0.627 1.075-1.242 1.613-1.856 0.704-0.819 1.408-1.638 2.112-2.445 0.115-0.128 0.090-0.218-0.013-0.333-1.114-1.28-2.227-2.573-3.341-3.866-0.128-0.154-0.256-0.294-0.384-0.448-0.102-0.115-0.051-0.192 0.090-0.205 0.051-0.013 0.102 0 0.154 0 2.957 0 5.914 0 8.87 0 0.077 0 0.154 0.051 0.23 0.077-0.038 0.064-0.064 0.141-0.102 0.205-1.306 1.421-2.598 2.842-3.917 4.262-0.102 0.115-0.115 0.192 0 0.307 1.19 1.293 2.381 2.586 3.571 3.878 0.115 0.128 0.243 0.256 0.346 0.397 0.038 0.051 0.064 0.128 0.102 0.179-0.077 0.026-0.141 0.064-0.218 0.064-1.472 0-2.957 0-4.454 0 0 0 0 0 0 0z"></path>
</svg>
