<!-- Generated by IcoMoon.io -->
<svg version="1.1" xmlns="http://www.w3.org/2000/svg" width="32" height="32" viewBox="0 0 32 32">
<title>DTA</title>
<path d="M30.221 21.414c-0.358 0.23-0.73 0.474-1.114 0.704-2.47 1.446-4.941 2.893-7.424 4.314-1.536 0.883-3.098 1.741-4.634 2.624-1.101 0.627-2.189 1.293-3.29 1.933-0.474 0.269-0.934 0.55-1.408 0.819-0.346 0.192-0.653 0.166-1.024-0.038-1.344-0.806-2.726-1.562-4.070-2.342-1.549-0.909-3.098-1.818-4.646-2.739-0.077-0.051-0.141-0.115-0.192-0.166-0.128-0.525-0.166-20.454-0.026-21.235 1.562-0.909 3.149-1.843 4.749-2.739 1.562-0.896 3.149-1.766 4.672-2.611 0.806 0.256 17.971 10.138 18.394 10.637 0.013 3.558 0.013 7.168 0.013 10.842zM6.72 27.994c0.038-0.154 0.090-0.256 0.090-0.358 0-6.362 0-12.71 0-19.149-1.254-0.563-2.291-1.459-3.571-1.984-0.141 0.64-0.128 18.88 0 19.456 1.126 0.666 2.266 1.318 3.482 2.035zM28.813 10.662c-5.709-3.302-11.29-6.528-16.896-9.766-1.178 0.653-2.342 1.306-3.571 1.997 0.243 0.179 0.422 0.358 0.64 0.474 0.64 0.384 1.306 0.73 1.946 1.114 1.306 0.781 2.586 1.587 3.904 2.342 1.229 0.717 2.483 1.395 3.725 2.099 0.371 0.205 0.73 0.448 1.101 0.666 0.55 0.32 1.114 0.614 1.664 0.934 1.139 0.666 2.266 1.331 3.405 1.997 0.294 0.179 0.602 0.179 0.909 0.013 0.998-0.589 2.010-1.178 3.174-1.869zM12.339 30.669c5.722-3.302 11.315-6.541 16.922-9.779 0.013-1.357 0.026-2.637 0-4.058-2.637 1.37-5.030 2.88-7.488 4.262-3.123 1.754-6.208 3.597-9.306 5.402-0.038 1.37-0.090 2.701-0.128 4.173zM11.469 6.554c-0.064-0.026-0.115-0.051-0.179-0.077-1.178 0.704-2.394 1.357-3.469 2.086-0.141 2.099-0.077 13.504 0.077 14.029 0.461-0.090 2.65-1.331 3.469-1.971 0.038-0.307 0.102-0.666 0.102-1.024 0.013-4.122 0-8.256 0-12.378 0-0.218 0-0.435 0-0.666zM12.352 6.451c0 1.485 0 2.842 0 4.186 4.109 2.368 8.192 4.71 12.288 7.078 0.154-0.538 0.179-3.264 0.038-4.173-4.032-2.317-8.115-4.672-12.326-7.091zM20.646 16.486c-4.096 2.368-8.154 4.723-12.262 7.104 1.19 0.704 2.342 1.37 3.507 2.061 4.109-2.394 8.218-4.685 12.326-7.13-1.229-0.704-2.368-1.344-3.571-2.035zM19.635 15.91c-2.445-1.472-4.838-2.816-7.283-4.186-0.026 0.179-0.038 0.282-0.038 0.384 0.013 2.598 0.026 5.184 0.038 7.782 0 0.026 0.026 0.038 0.038 0.051s0.038 0.013 0.154 0.064c2.291-1.306 4.634-2.675 7.091-4.096z"></path>
</svg>
