<?xml version="1.0" encoding="utf-8"?>
<!-- Generator: Adobe Illustrator 22.1.0, SVG Export Plug-In . SVG Version: 6.00 Build 0)  -->
<svg version="1.1" id="Layer_1" xmlns="http://www.w3.org/2000/svg" xmlns:xlink="http://www.w3.org/1999/xlink" x="0px" y="0px"
	 viewBox="0 0 250 250" style="enable-background:new 0 0 250 250;" xml:space="preserve">
<g>
	<path d="M236.1,167.3c-2.8,1.8-5.7,3.7-8.7,5.5c-19.3,11.3-38.6,22.6-58,33.7c-12,6.9-24.2,13.6-36.2,20.5
		c-8.6,4.9-17.1,10.1-25.7,15.1c-3.7,2.1-7.3,4.3-11,6.4c-2.7,1.5-5.1,1.3-8-0.3c-10.5-6.3-21.3-12.2-31.8-18.3
		c-12.1-7.1-24.2-14.2-36.3-21.4c-0.6-0.4-1.1-0.9-1.5-1.3c-1-4.1-1.3-159.8-0.2-165.9c12.2-7.1,24.6-14.4,37.1-21.4
		C68,12.9,80.4,6.1,92.3-0.5c6.3,2,140.4,79.2,143.7,83.1C236.1,110.4,236.1,138.6,236.1,167.3z M52.5,218.7c0.3-1.2,0.7-2,0.7-2.8
		c0-49.7,0-99.3,0-149.6c-9.8-4.4-17.9-11.4-27.9-15.5c-1.1,5-1,147.5,0,152C34.1,208,43,213.1,52.5,218.7z M225.1,83.3
		c-44.6-25.8-88.2-51-132-76.3c-9.2,5.1-18.3,10.2-27.9,15.6c1.9,1.4,3.3,2.8,5,3.7c5,3,10.2,5.7,15.2,8.7
		c10.2,6.1,20.2,12.4,30.5,18.3c9.6,5.6,19.4,10.9,29.1,16.4c2.9,1.6,5.7,3.5,8.6,5.2c4.3,2.5,8.7,4.8,13,7.3
		c8.9,5.2,17.7,10.4,26.6,15.6c2.3,1.4,4.7,1.4,7.1,0.1C208.1,93.3,216,88.7,225.1,83.3z M96.4,239.6
		c44.7-25.8,88.4-51.1,132.2-76.4c0.1-10.6,0.2-20.6,0-31.7c-20.6,10.7-39.3,22.5-58.5,33.3c-24.4,13.7-48.5,28.1-72.7,42.2
		C97.1,217.7,96.7,228.1,96.4,239.6z M89.6,51.2c-0.5-0.2-0.9-0.4-1.4-0.6C79,56.1,69.5,61.2,61.1,66.9
		c-1.1,16.4-0.6,105.5,0.6,109.6c3.6-0.7,20.7-10.4,27.1-15.4c0.3-2.4,0.8-5.2,0.8-8c0.1-32.2,0-64.5,0-96.7
		C89.6,54.7,89.6,53,89.6,51.2z M96.5,50.4c0,11.6,0,22.2,0,32.7c32.1,18.5,64,36.8,96,55.3c1.2-4.2,1.4-25.5,0.3-32.6
		C161.3,87.7,129.4,69.3,96.5,50.4z M161.3,128.8c-32,18.5-63.7,36.9-95.8,55.5c9.3,5.5,18.3,10.7,27.4,16.1
		c32.1-18.7,64.2-36.6,96.3-55.7C179.6,139.2,170.7,134.2,161.3,128.8z M153.4,124.3c-19.1-11.5-37.8-22-56.9-32.7
		c-0.2,1.4-0.3,2.2-0.3,3c0.1,20.3,0.2,40.5,0.3,60.8c0,0.2,0.2,0.3,0.3,0.4c0.1,0.1,0.3,0.1,1.2,0.5
		C115.9,146.1,134.2,135.4,153.4,124.3z"/>
</g>
</svg>
