<!-- Generated by IcoMoon.io -->
<svg version="1.1" xmlns="http://www.w3.org/2000/svg" width="32" height="32" viewBox="0 0 32 32">
<title>DTR</title>
<path d="M16.627 0c1.050 0.397 2.061 0.87 2.534 1.971 0.243 0.563 0.435 1.19 0.448 1.792 0.026 8.166 0.026 16.32 0.013 24.486 0 1.638-0.896 2.918-2.419 3.52-0.192 0.077-0.384 0.154-0.576 0.23-0.461 0-0.922 0-1.37 0-1.050-0.384-2.061-0.87-2.534-1.971-0.243-0.563-0.435-1.19-0.448-1.792-0.026-8.166-0.026-16.32-0.013-24.486 0-1.638 0.896-2.918 2.419-3.52 0.192-0.077 0.384-0.154 0.576-0.23 0.448 0 0.909 0 1.37 0z"></path>
<path d="M32 19.251c-0.41 1.126-0.973 2.099-2.125 2.637-2.368 1.114-5.184-0.563-5.235-3.174-0.051-3.187-0.038-6.374 0-9.549 0.013-1.69 1.293-3.11 2.982-3.469 1.562-0.32 3.226 0.499 3.955 1.958 0.154 0.32 0.282 0.653 0.422 0.973 0 3.546 0 7.078 0 10.624z"></path>
<path d="M0 22.003c0.41-1.126 0.973-2.099 2.125-2.637 2.33-1.101 5.133 0.512 5.235 3.098 0.077 2.035 0.077 4.070-0.013 6.106-0.064 1.549-0.947 2.624-2.394 3.2-0.192 0.077-0.384 0.154-0.576 0.23-0.461 0-0.922 0-1.37 0-1.536-0.461-2.534-1.459-2.995-2.995-0.013-2.342-0.013-4.672-0.013-7.002z"></path>
</svg>
