<?xml version="1.0" encoding="utf-8"?>
<!-- Generator: Adobe Illustrator 22.1.0, SVG Export Plug-In . SVG Version: 6.00 Build 0)  -->
<svg version="1.1" id="Layer_1" xmlns="http://www.w3.org/2000/svg" xmlns:xlink="http://www.w3.org/1999/xlink" x="0px" y="0px"
	 viewBox="0 0 250 250" style="enable-background:new 0 0 250 250;" xml:space="preserve">
<style type="text/css">
	.st0{display:none;stroke:#FFFFFF;stroke-miterlimit:10;}
</style>
<g transform="translate(-1.3-1)">
	<path class="st0" d="M1.3,1.4h246.1v246.1H1.3V1.4z"/>
</g>
<g>
	<path d="M129.9,0c8.2,3.1,16.1,6.8,19.8,15.4c1.9,4.4,3.4,9.3,3.5,14c0.2,63.8,0.2,127.5,0.1,191.3c0,12.8-7,22.8-18.9,27.5
		c-1.5,0.6-3,1.2-4.5,1.8c-3.6,0-7.2,0-10.7,0c-8.2-3-16.1-6.8-19.8-15.4c-1.9-4.4-3.4-9.3-3.5-14c-0.2-63.8-0.2-127.5-0.1-191.3
		c0-12.8,7-22.8,18.9-27.5c1.5-0.6,3-1.2,4.5-1.8C122.7,0,126.3,0,129.9,0z"/>
	<path d="M250,150.4c-3.2,8.8-7.6,16.4-16.6,20.6c-18.5,8.7-40.5-4.4-40.9-24.8c-0.4-24.9-0.3-49.8,0-74.6
		c0.1-13.2,10.1-24.3,23.3-27.1C228,42,241,48.4,246.7,59.8c1.2,2.5,2.2,5.1,3.3,7.6C250,95.1,250,122.7,250,150.4z"/>
	<path d="M0,171.9c3.2-8.8,7.6-16.4,16.6-20.6c18.2-8.6,40.1,4,40.9,24.2c0.6,15.9,0.6,31.8-0.1,47.7c-0.5,12.1-7.4,20.5-18.7,25
		c-1.5,0.6-3,1.2-4.5,1.8c-3.6,0-7.2,0-10.7,0c-12-3.6-19.8-11.4-23.4-23.4C0,208.3,0,190.1,0,171.9z"/>
</g>
</svg>
