<?xml version="1.0" encoding="utf-8"?>
<!-- Generator: Adobe Illustrator 22.1.0, SVG Export Plug-In . SVG Version: 6.00 Build 0)  -->
<svg version="1.1" id="Layer_1" xmlns="http://www.w3.org/2000/svg" xmlns:xlink="http://www.w3.org/1999/xlink" x="0px" y="0px"
	 viewBox="0 0 226.8 226.8" style="enable-background:new 0 0 226.8 226.8;" xml:space="preserve">
<g>
	<path d="M183,0c0,25.9,0,50.4,0,76.4c-22.2-12.8-43.7-25.1-66.3-38.2C139.2,25.3,160.6,13,183,0z"/>
	<path d="M116.8,188.7c22.5-13,43.8-25.3,66-38.1c0,25.7,0,50.3,0,76.2C160.8,214.1,139.4,201.7,116.8,188.7z"/>
	<path d="M43.1,74.4c22.2,12.8,43.6,25.1,66,38.1c-22.3,12.9-43.8,25.3-66,38.2C43.1,124.9,43.1,100.3,43.1,74.4z"/>
</g>
</svg>
