<!-- Generated by IcoMoon.io -->
<svg version="1.1" xmlns="http://www.w3.org/2000/svg" width="32" height="32" viewBox="0 0 32 32">
<title>DXT</title>
<path d="M25.82 0c0 3.654 0 7.111 0 10.78-3.132-1.806-6.166-3.541-9.354-5.39 3.175-1.82 6.194-3.556 9.355-5.39z"></path>
<path d="M16.48 26.624c3.175-1.834 6.18-3.57 9.312-5.376 0 3.626 0 7.097 0 10.751-3.104-1.792-6.123-3.541-9.312-5.376z"></path>
<path d="M6.081 10.497c3.132 1.806 6.152 3.541 9.312 5.376-3.146 1.82-6.18 3.57-9.312 5.39 0-3.64 0-7.111 0-10.765z"></path>
</svg>
