<?xml version="1.0" encoding="utf-8"?>
<!-- Generator: Adobe Illustrator 22.1.0, SVG Export Plug-In . SVG Version: 6.00 Build 0)  -->
<svg version="1.1" id="Layer_1" xmlns="http://www.w3.org/2000/svg" xmlns:xlink="http://www.w3.org/1999/xlink" x="0px" y="0px"
	 viewBox="0 0 226.8 226.8" style="enable-background:new 0 0 226.8 226.8;" xml:space="preserve">
<g>
	<path d="M226.7,113.6c0,62.5-51,113.4-113.3,113.2C50.5,226.6,0,175.8,0,113C0,50,50.9-0.1,114.7,0
		C176.7,0.1,226.8,50.9,226.7,113.6z M131.7,39.6c-1.3,0.9-2.2,1.3-2.9,2C109.4,61,90,80.5,70.4,99.8c-3.2,3.2-2,5.2,0.6,7.7
		c10.2,10,20.5,20.1,30.4,30.3c3.2,3.3,6.2,4.1,10.5,2.7c13.7-4.2,27.4-8.3,41.2-12.3c4.3-1.2,5.5-3.3,4.1-7.7
		c-7.8-25.1-15.4-50.3-23.1-75.4C133.6,43.4,132.6,41.8,131.7,39.6z M152.6,139c-0.3-0.6-0.6-1.2-1-1.8c-13.9,4-27.9,7.8-41.7,12
		c-4.4,1.3-7.3,0.6-10.5-2.6c-5.9-6.1-12-11.8-18.1-17.7c-4.6-4.4-9.2-8.8-13.9-13.2c-0.4,0.3-0.8,0.5-1.2,0.8
		c9.2,23.5,18.5,47.1,28.3,71.9C114.6,171.4,133.6,155.2,152.6,139z"/>
</g>
</svg>
