<!-- Generated by IcoMoon.io -->
<svg version="1.1" xmlns="http://www.w3.org/2000/svg" width="32" height="32" viewBox="0 0 32 32">
<title>EBTC</title>
<path d="M31.986 16.028c0 8.818-7.196 16-15.986 15.972-8.875-0.028-16-7.196-16-16.056 0-8.889 7.182-15.958 16.183-15.944 8.748 0.014 15.817 7.182 15.802 16.028zM18.582 5.587c-0.183 0.127-0.31 0.183-0.409 0.282-2.737 2.737-5.474 5.489-8.24 8.212-0.451 0.451-0.282 0.734 0.085 1.086 1.439 1.411 2.892 2.836 4.289 4.275 0.451 0.466 0.875 0.578 1.481 0.381 1.933-0.593 3.866-1.171 5.813-1.735 0.607-0.169 0.776-0.466 0.578-1.086-1.101-3.541-2.173-7.097-3.259-10.638-0.071-0.24-0.212-0.466-0.339-0.776zM21.531 19.612c-0.042-0.085-0.085-0.169-0.141-0.254-1.961 0.564-3.936 1.101-5.884 1.693-0.621 0.183-1.030 0.085-1.481-0.367-0.832-0.861-1.693-1.665-2.554-2.497-0.649-0.621-1.298-1.242-1.961-1.862-0.056 0.042-0.113 0.071-0.169 0.113 1.298 3.316 2.61 6.646 3.993 10.145 2.836-2.399 5.517-4.684 8.198-6.97z"></path>
</svg>
