<!-- Generated by IcoMoon.io -->
<svg version="1.1" xmlns="http://www.w3.org/2000/svg" width="32" height="32" viewBox="0 0 32 32">
<title>ECA</title>
<path d="M30.519 9.806c-0.832 0-1.496-0.607-1.496-1.369 0-0.409 0.198-0.804 0.536-1.044l-12.021-6.307c-0.31 0.79-1.213 1.185-2.004 0.875-0.395-0.155-0.705-0.466-0.875-0.875l-12.134 6.377c0.254 0.24 0.395 0.578 0.395 0.917 0 0.762-0.677 1.369-1.496 1.369-0.085 0-0.169-0.014-0.254-0.028v12.811c0.099-0.014 0.212-0.028 0.31-0.028 0.832 0 1.51 0.607 1.51 1.369 0 0.296-0.113 0.593-0.31 0.832l11.951 6.293c0.212-0.818 1.044-1.312 1.862-1.101 0.536 0.141 0.959 0.564 1.101 1.101l12.092-6.349c-0.494-0.212-0.818-0.691-0.832-1.227 0-0.762 0.677-1.369 1.496-1.369 0.24 0 0.494 0.056 0.705 0.155v-12.487c-0.183 0.056-0.353 0.085-0.536 0.085zM14.18 21.446c3.048 0.466 4.868-0.55 4.868-0.55 1.566-0.578 2.37-2.004 2.37-2.004 0.099-0.268 0.212-0.522 0.339-0.762 0.367-0.705 1.157-1.086 1.947-0.931 0.071 0.014 0.127 0.028 0.198 0.056 0.423 0.127 0.72 0.494 0.79 0.917 0.085 0.677-0.282 1.439-0.282 1.439l3.838 2.032c0.325 0.141 0.466 0.508 0.339 0.832s-0.748 0.141-0.748 0.141l-4.021-2.018c-0.988 1.439-2.653 2.384-2.653 2.384-1.679 1.242-4.416 1.369-4.416 1.369v3.654c0 0.155-0.028 0.296-0.113 0.437-0.099 0.198-0.296 0.325-0.508 0.325-0.254-0.014-0.48-0.155-0.578-0.381-0.071-0.141-0.113-0.282-0.113-0.437v-3.513c-1.594-0.113-3.838-0.959-3.838-0.959-2.201-0.734-3.499-2.667-3.499-2.667l-3.16 1.552c-0.282 0.198-0.635 0.268-0.988 0.212-0.212-0.042-0.367-0.226-0.381-0.451 0-0.254 0.155-0.466 0.381-0.564l3.541-1.862c-1.016-1.905-0.974-3.287-0.974-3.287-0.071-1.383 0.254-2.751 0.959-3.937l-3.556-1.834c-0.649-0.339-0.31-0.818-0.31-0.818 0.353-0.494 1.044-0.198 1.044-0.198l3.598 1.778c0.79-0.931 1.764-1.693 2.836-2.258 2.004-1.185 4.459-1.143 4.459-1.143v-3.993c0.099-0.621 0.578-0.593 0.578-0.593 0.226-0.028 0.451 0.056 0.607 0.226 0.071 0.085 0.113 0.198 0.113 0.31v4.035c2.286 0.113 3.217 0.762 3.217 0.762 1.467 0.663 2.751 1.665 3.739 2.921l3.683-1.891c0.254-0.169 0.564-0.24 0.875-0.212 0.198 0.042 0.367 0.183 0.423 0.381 0.113 0.381-0.325 0.649-0.325 0.649l-17.58 8.875c0.917 1.397 3.302 1.975 3.302 1.975v0z"></path>
<path d="M12.938 11.245c0 0-3.485 1.213-3.104 5.785l9.989-5.093c0 0.014-2.794-2.286-6.885-0.691"></path>
<path d="M2.328 8.466c0 0.405-0.328 0.734-0.734 0.734s-0.734-0.328-0.734-0.734c0-0.405 0.328-0.734 0.734-0.734s0.734 0.328 0.734 0.734z"></path>
<path d="M16.889 0.734c0 0.405-0.328 0.734-0.734 0.734s-0.734-0.328-0.734-0.734c0-0.405 0.328-0.734 0.734-0.734s0.734 0.328 0.734 0.734z"></path>
<path d="M16.889 31.266c0 0.405-0.328 0.734-0.734 0.734s-0.734-0.328-0.734-0.734c0-0.405 0.328-0.734 0.734-0.734s0.734 0.328 0.734 0.734z"></path>
<path d="M2.328 23.774c0 0.405-0.328 0.734-0.734 0.734s-0.734-0.328-0.734-0.734c0-0.405 0.328-0.734 0.734-0.734s0.734 0.328 0.734 0.734z"></path>
<path d="M31.055 23.407c0 0.405-0.328 0.734-0.734 0.734s-0.734-0.328-0.734-0.734c0-0.405 0.328-0.734 0.734-0.734s0.734 0.328 0.734 0.734z"></path>
<path d="M31.055 8.466c0 0.405-0.328 0.734-0.734 0.734s-0.734-0.328-0.734-0.734c0-0.405 0.328-0.734 0.734-0.734s0.734 0.328 0.734 0.734z"></path>
</svg>
