<?xml version="1.0" encoding="utf-8"?>
<!-- Generator: Adobe Illustrator 22.0.1, SVG Export Plug-In . SVG Version: 6.00 Build 0)  -->
<svg version="1.1" id="Layer_1" xmlns="http://www.w3.org/2000/svg" xmlns:xlink="http://www.w3.org/1999/xlink" x="0px" y="0px"
	 viewBox="0 0 226.8 226.8" style="enable-background:new 0 0 226.8 226.8;" xml:space="preserve">
<style type="text/css">
	.st0{stroke:#FFFFFF;stroke-miterlimit:10;}
</style>
<g>
	<path class="st0" d="M216.3,69.5c-5.9,0-10.6-4.3-10.6-9.7c0-2.9,1.4-5.7,3.8-7.4L124.3,7.7c-2.2,5.6-8.6,8.4-14.2,6.2
		c-2.8-1.1-5-3.3-6.2-6.2l-86,45.2c1.8,1.7,2.8,4.1,2.8,6.5c0,5.4-4.8,9.7-10.6,9.7c-0.6,0-1.2-0.1-1.8-0.2v90.8
		c0.7-0.1,1.5-0.2,2.2-0.2c5.9,0,10.7,4.3,10.7,9.7c0,2.1-0.8,4.2-2.2,5.9l84.7,44.6c1.5-5.8,7.4-9.3,13.2-7.8c3.8,1,6.8,4,7.8,7.8
		l85.7-45c-3.5-1.5-5.8-4.9-5.9-8.7c0-5.4,4.8-9.7,10.6-9.7c1.7,0,3.5,0.4,5,1.1V68.9C218.8,69.3,217.6,69.5,216.3,69.5z M100.5,152
		c21.6,3.3,34.5-3.9,34.5-3.9c11.1-4.1,16.8-14.2,16.8-14.2c0.7-1.9,1.5-3.7,2.4-5.4c2.6-5,8.2-7.7,13.8-6.6
		c0.5,0.1,0.9,0.2,1.4,0.4c3,0.9,5.1,3.5,5.6,6.5c0.6,4.8-2,10.2-2,10.2l27.2,14.4c2.3,1,3.3,3.6,2.4,5.9c-0.9,2.3-5.3,1-5.3,1
		L168.8,146c-7,10.2-18.8,16.9-18.8,16.9c-11.9,8.8-31.3,9.7-31.3,9.7v25.9c0,1.1-0.2,2.1-0.8,3.1c-0.7,1.4-2.1,2.3-3.6,2.3
		c-1.8-0.1-3.4-1.1-4.1-2.7c-0.5-1-0.8-2-0.8-3.1v-24.9c-11.3-0.8-27.2-6.8-27.2-6.8c-15.6-5.2-24.8-18.9-24.8-18.9l-22.4,11
		c-2,1.4-4.5,1.9-7,1.5c-1.5-0.3-2.6-1.6-2.7-3.2c0-1.8,1.1-3.3,2.7-4l25.1-13.2c-7.2-13.5-6.9-23.3-6.9-23.3
		c-0.5-9.8,1.8-19.5,6.8-27.9l-25.2-13c-4.6-2.4-2.2-5.8-2.2-5.8c2.5-3.5,7.4-1.4,7.4-1.4l25.5,12.6c5.6-6.6,12.5-12,20.1-16
		c14.2-8.4,31.6-8.1,31.6-8.1V28.4c0.7-4.4,4.1-4.2,4.1-4.2c1.6-0.2,3.2,0.4,4.3,1.6c0.5,0.6,0.8,1.4,0.8,2.2v28.6
		c16.2,0.8,22.8,5.4,22.8,5.4c10.4,4.7,19.5,11.8,26.5,20.7l26.1-13.4c1.8-1.2,4-1.7,6.2-1.5c1.4,0.3,2.6,1.3,3,2.7
		c0.8,2.7-2.3,4.6-2.3,4.6L77.1,138C83.6,147.9,100.5,152,100.5,152L100.5,152z"/>
	<path class="st0" d="M91.7,79.7c0,0-24.7,8.6-22,41l70.8-36.1C140.5,84.7,120.7,68.4,91.7,79.7"/>
	<circle class="st0" cx="11.3" cy="60" r="5.2"/>
	<circle class="st0" cx="114.5" cy="5.2" r="5.2"/>
	<circle class="st0" cx="114.5" cy="221.6" r="5.2"/>
	<circle class="st0" cx="11.3" cy="168.5" r="5.2"/>
	<circle class="st0" cx="214.9" cy="165.9" r="5.2"/>
	<circle class="st0" cx="214.9" cy="60" r="5.2"/>
</g>
</svg>
