<?xml version="1.0" encoding="utf-8"?>
<!-- Generator: Adobe Illustrator 22.0.1, SVG Export Plug-In . SVG Version: 6.00 Build 0)  -->
<svg version="1.1" id="Layer_1" xmlns="http://www.w3.org/2000/svg" xmlns:xlink="http://www.w3.org/1999/xlink" x="0px" y="0px"
	 viewBox="0 0 226.8 226.8" style="enable-background:new 0 0 226.8 226.8;" xml:space="preserve">
<style type="text/css">
	.st0{stroke:#FFFFFF;stroke-miterlimit:10;}
</style>
<g>
	<path class="st0" d="M150.4,187.4l-41.5-27.9l-25.2,17c-2,1.3-4.5,1.3-6.5,0.1l0.5,0.4l66,47.8c2.7,1.9,6.4,1.3,8.3-1.3
		c0.7-1,1.1-2.2,1.1-3.5v-27.5C153,190.4,152,188.5,150.4,187.4"/>
	<path class="st0" d="M143.6,131.5l-25.7-18.6l-41,29.7c-1.5,1.1-2.5,2.9-2.4,4.8v24.2c0,4.7,5.3,7.5,9.2,4.9l66.2-44.6
		C147.9,133,145.4,132.8,143.6,131.5z"/>
	<path class="st0" d="M150.4,94.2l-41.5-27.9l-25.2,17c-2.3,1.5-5.3,1.3-7.3-0.6c0.2,0.2,0.5,0.4,0.7,0.6l66.5,48.2
		c2.7,1.9,6.4,1.3,8.3-1.3c0.7-1,1.1-2.2,1.1-3.5V99.2C153,97.2,152,95.3,150.4,94.2z"/>
	<path class="st0" d="M76.9,49.4l66.7-48.3c2.7-1.9,6.4-1.3,8.3,1.3c0.7,1,1.1,2.2,1.1,3.5v27.5c0,2-1,3.8-2.6,4.9l-66.8,45
		c-2.7,1.8-6.4,1.1-8.2-1.6c-0.7-1-1-2.1-1-3.3V54.2C74.4,52.3,75.3,50.5,76.9,49.4z"/>
</g>
</svg>
