<!-- Generated by IcoMoon.io -->
<svg version="1.1" xmlns="http://www.w3.org/2000/svg" width="32" height="32" viewBox="0 0 32 32">
<title>ECC</title>
<path d="M21.22 26.441l-5.855-3.936-3.556 2.399c-0.282 0.183-0.635 0.183-0.917 0.014l0.071 0.056 9.312 6.744c0.381 0.268 0.903 0.183 1.171-0.183 0.099-0.141 0.155-0.31 0.155-0.494v-3.88c-0.014-0.296-0.155-0.564-0.381-0.72"></path>
<path d="M20.261 18.554l-3.626-2.624-5.785 4.19c-0.212 0.155-0.353 0.409-0.339 0.677v3.414c0 0.663 0.748 1.058 1.298 0.691l9.34-6.293c-0.282 0.155-0.635 0.127-0.889-0.056z"></path>
<path d="M21.22 13.291l-5.855-3.937-3.556 2.399c-0.325 0.212-0.748 0.183-1.030-0.085 0.028 0.028 0.071 0.056 0.099 0.085l9.383 6.801c0.381 0.268 0.903 0.183 1.171-0.183 0.099-0.141 0.155-0.31 0.155-0.494v-3.88c0-0.282-0.141-0.55-0.367-0.705z"></path>
<path d="M10.85 6.97l9.411-6.815c0.381-0.268 0.903-0.183 1.171 0.183 0.099 0.141 0.155 0.31 0.155 0.494v3.88c0 0.282-0.141 0.536-0.367 0.691l-9.425 6.349c-0.381 0.254-0.903 0.155-1.157-0.226-0.099-0.141-0.141-0.296-0.141-0.466v-3.414c0-0.268 0.127-0.522 0.353-0.677z"></path>
</svg>
