<?xml version="1.0" encoding="utf-8"?>
<!-- Generator: Adobe Illustrator 22.0.1, SVG Export Plug-In . SVG Version: 6.00 Build 0)  -->
<svg version="1.1" id="Layer_1" xmlns="http://www.w3.org/2000/svg" xmlns:xlink="http://www.w3.org/1999/xlink" x="0px" y="0px"
	 viewBox="0 0 226.8 226.8" style="enable-background:new 0 0 226.8 226.8;" xml:space="preserve">
<style type="text/css">
	.st0{stroke:#FFFFFF;stroke-miterlimit:10;}
</style>
<g>
	<path class="st0" d="M88.9,37.4c12.1-11.2,22.6-23.9,32-37.4c1.5,0.6,2.5,1.5,3,2.8c7.8,14.4,18.8,26.7,30.1,38.3
		c7.4,7.2,12.9,16.5,14.8,26.7c2.5,11.4-4.4,23.9-15.2,28.1c-8,3-17.3,2.5-24.8-1.1c-1.5-0.6-3.8-2.1-4.7-0.2
		c1.5,9.9,6.4,18.4,11.2,26.9c1.1,1.9-0.9,3.2-2.1,4.4c-4.7,4.4-8.7,9.5-13.8,13.5c-1.5-0.6-2.7-1.9-3.6-3
		c-4.4-4.6-9.1-9.1-13.5-13.7c0-0.4-0.2-1.1-0.2-1.5c4.9-8.7,11.2-17.3,12.7-27.3c-1.7-0.2-3.2,0-4.7,0.6
		c-8.2,3.2-17.4,3.8-25.6,0.6c-8-3-14.2-10.6-15.2-19.1c-0.8-6.4,1.1-12.7,4-18.2C76.6,49.5,82.4,43.2,88.9,37.4"/>
	<path class="st0" d="M42.6,138.2c12.3-7.4,27.9-8.3,41-2.7c0.9,0.4,1.3,0.6,2.1,1.1c4.2,1.7,7.8,4.4,11.2,7.2
		c7.6,6.4,13.8,14.6,21.6,20.9c7.6-7,14.6-14.8,22.2-21.8c10.8-9.9,26.5-12.7,40.6-9.9c21.8,4.4,38.1,26.5,36.6,48.7
		c-0.8,14-7.8,27.9-19.3,35.8c-8,5.3-17.3,9.3-26.9,9.1c-12.7,0.6-25.2-5.1-34.1-13.8c-17.1-16.9-33.4-34.1-50.4-51
		c-4.9-5.3-11.8-9.1-19.1-9.7c-5.3-0.2-10.6,0.9-15.4,3.4c-7.4,3.8-12.3,11.6-13.5,19.7c-1.5,8.5,1.7,18,8.2,23.9
		c10,9.7,27.7,9.5,37.5-0.4c2.5-2.1,4.7-6.3,8.7-4.6c2.5,1.5,4.2,3.8,6.3,5.7c1.7,1.9,4.2,3.4,4.4,6.1c0,2.7-2.5,4.4-4.2,6.1
		c-4.6,4.7-9.7,8.5-15.9,11c-11.8,4.6-25.4,4.7-37.2-0.4c-18.6-8.3-30.5-29.4-27.7-49.7C21,158.7,29.7,145.2,42.6,138.2
		 M151.1,160.6c-5.9,6.1-12.1,11.9-18,18c0,0.4,0.2,1.3,0.2,1.7c7.2,6.6,13.5,14,20.9,20.3c10,8.5,26.2,7.4,35.5-1.7
		c9.1-8.7,11.2-24.1,4.2-34.7c-4.6-7.2-12.7-11.8-21.2-11.9C164.5,151.9,156.6,155.1,151.1,160.6L151.1,160.6z"/>
</g>
</svg>
