<!-- Generated by IcoMoon.io -->
<svg version="1.1" xmlns="http://www.w3.org/2000/svg" width="32" height="32" viewBox="0 0 32 32">
<title>EDG</title>
<path d="M12.543 5.277c1.707-1.58 3.189-3.372 4.515-5.277 0.212 0.085 0.353 0.212 0.423 0.395 1.101 2.032 2.653 3.767 4.247 5.404 1.044 1.016 1.82 2.328 2.088 3.767 0.353 1.608-0.621 3.372-2.145 3.965-1.129 0.423-2.441 0.353-3.499-0.155-0.212-0.085-0.536-0.296-0.663-0.028 0.212 1.397 0.903 2.596 1.58 3.795 0.155 0.268-0.127 0.451-0.296 0.621-0.663 0.621-1.227 1.34-1.947 1.905-0.212-0.085-0.381-0.268-0.508-0.423-0.621-0.649-1.284-1.284-1.905-1.933 0-0.056-0.028-0.155-0.028-0.212 0.691-1.227 1.58-2.441 1.792-3.852-0.24-0.028-0.451 0-0.663 0.085-1.157 0.451-2.455 0.536-3.612 0.085-1.129-0.423-2.004-1.496-2.145-2.695-0.113-0.903 0.155-1.792 0.564-2.568 0.466-1.171 1.284-2.060 2.201-2.878"></path>
<path d="M6.011 19.499c1.735-1.044 3.937-1.171 5.785-0.381 0.127 0.056 0.183 0.085 0.296 0.155 0.593 0.24 1.101 0.621 1.58 1.016 1.072 0.903 1.947 2.060 3.048 2.949 1.072-0.988 2.060-2.088 3.132-3.076 1.524-1.397 3.739-1.792 5.728-1.397 3.076 0.621 5.376 3.739 5.164 6.871-0.113 1.975-1.101 3.936-2.723 5.051-1.129 0.748-2.441 1.312-3.795 1.284-1.792 0.085-3.556-0.72-4.811-1.947-2.413-2.384-4.713-4.811-7.111-7.196-0.691-0.748-1.665-1.284-2.695-1.369-0.748-0.028-1.496 0.127-2.173 0.48-1.044 0.536-1.735 1.637-1.905 2.78-0.212 1.199 0.24 2.54 1.157 3.372 1.411 1.369 3.908 1.34 5.291-0.056 0.353-0.296 0.663-0.889 1.227-0.649 0.353 0.212 0.593 0.536 0.889 0.804 0.24 0.268 0.593 0.48 0.621 0.861 0 0.381-0.353 0.621-0.593 0.861-0.649 0.663-1.369 1.199-2.243 1.552-1.665 0.649-3.584 0.663-5.249-0.056-2.624-1.171-4.303-4.148-3.908-7.012 0.24-2.004 1.467-3.908 3.287-4.896M21.319 22.66c-0.832 0.861-1.707 1.679-2.54 2.54 0 0.056 0.028 0.183 0.028 0.24 1.016 0.931 1.905 1.975 2.949 2.864 1.411 1.199 3.697 1.044 5.009-0.24 1.284-1.227 1.58-3.4 0.593-4.896-0.649-1.016-1.792-1.665-2.991-1.679-1.157-0.056-2.272 0.395-3.048 1.171v0z"></path>
</svg>
