<!-- Generated by IcoMoon.io -->
<svg version="1.1" xmlns="http://www.w3.org/2000/svg" width="32" height="32" viewBox="0 0 32 32">
<title>EDGE_WALLET</title>
<path d="M0.564 31.041c0.31-0.861 0.593-1.651 0.875-2.441 1.284-3.541 2.582-7.069 3.852-10.61 0.141-0.367 0.325-0.494 0.705-0.494 2.511 0.014 5.009-0.014 7.52 0.014 0.522 0 0.762-0.169 0.931-0.649 1.228-3.429 2.483-6.857 3.725-10.286 0.155-0.452 0.325-0.889 0.48-1.34 0.085-0.254 0.254-0.367 0.536-0.367 4.148 0 8.296 0 12.459 0 0.099 0 0.198 0.028 0.339 0.056-0.141 0.48-0.254 0.931-0.409 1.369-0.395 1.101-0.832 2.201-1.242 3.316-0.536 1.496-1.058 3.005-1.594 4.487-0.395 1.072-0.818 2.145-1.199 3.231-0.409 1.115-0.776 2.243-1.185 3.372-0.296 0.818-0.621 1.623-0.917 2.441-0.296 0.804-0.564 1.608-0.861 2.413-0.437 1.199-0.875 2.413-1.312 3.612-0.183 0.508-0.381 1.016-0.55 1.538-0.085 0.268-0.212 0.367-0.494 0.367-7.069-0.014-14.138 0-21.22-0.014-0.099 0.014-0.212 0-0.437-0.014z"></path>
<path d="M0 14.053c0.367-1.030 0.705-1.989 1.058-2.949 1.227-3.344 2.469-6.688 3.668-10.060 0.169-0.466 0.381-0.621 0.889-0.621 3.485 0.028 6.97 0.014 10.455 0.014 0.607 0 0.649 0.085 0.437 0.677-0.564 1.538-1.115 3.076-1.679 4.614-0.508 1.397-1.044 2.794-1.552 4.205-0.451 1.242-0.903 2.469-1.326 3.725-0.113 0.339-0.296 0.451-0.649 0.437-3.612-0.014-7.238 0-10.85-0.014-0.141 0-0.254-0.014-0.452-0.028z"></path>
</svg>
