<?xml version="1.0" encoding="utf-8"?>
<!-- Generator: Adobe Illustrator 22.1.0, SVG Export Plug-In . SVG Version: 6.00 Build 0)  -->
<svg version="1.1" id="Layer_1" xmlns="http://www.w3.org/2000/svg" xmlns:xlink="http://www.w3.org/1999/xlink" x="0px" y="0px"
	 viewBox="0 0 250 250" style="enable-background:new 0 0 250 250;" xml:space="preserve">
<path d="M88.2,223.4l21.4,21.5c6.7,6.7,17.6,6.7,24.3,0c0,0,0,0,0,0l21.5-21.5l-33.7-33.7"/>
<path d="M208.8,74.2l-33.7,33.7l-33.7-33.7l33.7-33.7L208.8,74.2"/>
<path d="M166.8,212.4l78.2-78.3c6.7-6.7,6.7-17.7,0-24.4l-21.5-21.5l-90.4,90.5"/>
<path d="M164.5,118.6L74.2,209l-33.7-33.7l90.2-90.4L164.5,118.6"/>
<g>
	<path d="M5,139.9l21.5,21.5l33.8-33.7L26.6,94L5.1,115.5C-1.6,122.2-1.7,133.2,5,139.9z"/>
	<path d="M161,26.6L139.6,5.1c-6.7-6.7-17.6-6.7-24.3,0c0,0,0,0,0,0L37,83.4l33.7,33.7L161,26.6z"/>
</g>
</svg>
