<?xml version="1.0" encoding="utf-8"?>
<!-- Generator: Adobe Illustrator 22.1.0, SVG Export Plug-In . SVG Version: 6.00 Build 0)  -->
<svg version="1.1" id="Layer_1" xmlns="http://www.w3.org/2000/svg" xmlns:xlink="http://www.w3.org/1999/xlink" x="0px" y="0px"
	 viewBox="0 0 226.8 226.8" style="enable-background:new 0 0 226.8 226.8;" xml:space="preserve">
<g>
	<path d="M226.8,113.8c0.9,62.8-52.2,113.5-113.5,113.4C56.9,227.1-0.2,182.4,0,113.3C0.2,47,52.7,0.3,112.8,0
		C178-0.3,227.8,52.7,226.8,113.8z M114.3,11.8C60.8,10.7,12.5,53.6,11.6,112.1c-0.9,55.6,42.8,102.8,100.7,103.4
		c58.8,0.6,102.1-45.6,103.3-100.1C216.7,56.2,167.7,11.2,114.3,11.8z"/>
	<path d="M110.7,132.7c-18.8-1-37.4-2.1-55.4-7.4c-5.4-1.6-10.9-3.7-15.6-6.7c-6.7-4.2-6.5-9.9,0.1-14.2c8.5-5.5,18.3-7.4,28.1-9.1
		c29.3-5.1,58.6-5.2,87.8,0.1c8.5,1.5,16.7,4.6,24.9,7.6c3.9,1.4,7.9,3.9,7.8,8.9c-0.1,4.9-4,7.4-8,8.9c-7,2.6-14.1,5.6-21.4,6.6
		C143,129.7,126.8,131,110.7,132.7z"/>
	<path d="M110.2,143.9c16.9-0.1,33.1,0.9,48.8,5.3c3.7,1,7.6,2.2,10.8,4.2c2.5,1.6,5.3,4.3,6,7c1.1,4.2-2.9,6.3-6.1,7.8
		c-3.8,1.7-7.8,3.3-11.8,4.2c-20.6,4.6-41.4,7.1-62.4,4.3c-11.8-1.6-23.6-3.6-35.3-5.9c-3.7-0.7-7.3-2.8-10.4-5
		c-4.3-3.2-4.3-7.5,0.2-10.3c4.2-2.7,9-4.8,13.9-6.1C79.1,145,94.9,143.7,110.2,143.9z"/>
	<path d="M114.6,46.7c12.2,1.5,26.8,3,41.3,5.4c5.5,0.9,11,3.2,15.9,6c6.1,3.4,6,9.2-0.2,12.5c-5,2.7-10.4,4.8-16,6
		c-29.8,6.3-59.7,5.9-89.5-0.2c-4.9-1-9.8-3.1-14.2-5.5c-7.3-4.1-7.4-9.8,0.2-13.3c7.2-3.4,15.2-5.9,23.1-7.1
		C87.4,48.5,99.7,48,114.6,46.7z"/>
</g>
</svg>
