<!-- Generated by IcoMoon.io -->
<svg version="1.1" xmlns="http://www.w3.org/2000/svg" width="32" height="32" viewBox="0 0 32 32">
<title>EDR</title>
<path d="M32 16.056c0.127 8.861-7.365 16.014-16.014 16-7.958-0.014-16.014-6.321-15.986-16.071 0.028-9.354 7.436-15.944 15.915-15.986 9.199-0.042 16.226 7.436 16.085 16.056zM16.127 1.665c-7.549-0.155-14.363 5.898-14.49 14.152-0.127 7.845 6.039 14.504 14.208 14.589 8.296 0.085 14.406-6.434 14.575-14.123 0.155-8.353-6.758-14.702-14.293-14.617z"></path>
<path d="M15.619 18.723c-2.653-0.141-5.277-0.296-7.817-1.044-0.762-0.226-1.538-0.522-2.201-0.945-0.945-0.593-0.917-1.397 0.014-2.004 1.199-0.776 2.582-1.044 3.965-1.284 4.134-0.72 8.268-0.734 12.388 0.014 1.199 0.212 2.356 0.649 3.513 1.072 0.55 0.198 1.115 0.55 1.101 1.256-0.014 0.691-0.564 1.044-1.129 1.256-0.988 0.367-1.989 0.79-3.019 0.931-2.258 0.325-4.543 0.508-6.815 0.748z"></path>
<path d="M15.549 20.303c2.384-0.014 4.67 0.127 6.885 0.748 0.522 0.141 1.072 0.31 1.524 0.593 0.353 0.226 0.748 0.607 0.847 0.988 0.155 0.593-0.409 0.889-0.861 1.101-0.536 0.24-1.101 0.466-1.665 0.593-2.907 0.649-5.841 1.002-8.804 0.607-1.665-0.226-3.33-0.508-4.981-0.832-0.522-0.099-1.030-0.395-1.467-0.705-0.607-0.451-0.607-1.058 0.028-1.453 0.593-0.381 1.27-0.677 1.961-0.861 2.145-0.621 4.374-0.804 6.533-0.776z"></path>
<path d="M16.169 6.589c1.721 0.212 3.781 0.423 5.827 0.762 0.776 0.127 1.552 0.452 2.243 0.847 0.861 0.48 0.847 1.298-0.028 1.764-0.705 0.381-1.467 0.677-2.258 0.847-4.205 0.889-8.423 0.832-12.628-0.028-0.691-0.141-1.383-0.437-2.004-0.776-1.030-0.578-1.044-1.383 0.028-1.877 1.016-0.48 2.145-0.832 3.259-1.002 1.721-0.282 3.457-0.353 5.559-0.536z"></path>
</svg>
