<!-- Generated by IcoMoon.io -->
<svg version="1.1" xmlns="http://www.w3.org/2000/svg" width="32" height="32" viewBox="0 0 32 32">
<title>EIDOO</title>
<path d="M11.29 28.595l2.739 2.752c0.858 0.858 2.253 0.858 3.11 0 0 0 0 0 0 0l2.752-2.752-4.314-4.314z"></path>
<path d="M26.726 9.498l-4.314 4.314-4.314-4.314 4.314-4.314 4.314 4.314z"></path>
<path d="M21.35 27.187l10.010-10.022c0.858-0.858 0.858-2.266 0-3.123l-2.752-2.752-11.571 11.584z"></path>
<path d="M21.056 15.181l-11.558 11.571-4.314-4.314 11.546-11.571 4.326 4.314z"></path>
<path d="M0.64 17.907l2.752 2.752 4.326-4.314-4.314-4.314-2.752 2.752c-0.858 0.858-0.87 2.266-0.013 3.123z"></path>
<path d="M20.608 3.405l-2.739-2.752c-0.858-0.858-2.253-0.858-3.11 0 0 0 0 0 0 0l-10.022 10.022 4.314 4.314 11.558-11.584z"></path>
</svg>
