<?xml version="1.0" encoding="utf-8"?>
<!-- Generator: Adobe Illustrator 22.1.0, SVG Export Plug-In . SVG Version: 6.00 Build 0)  -->
<svg version="1.1" id="Layer_1" xmlns="http://www.w3.org/2000/svg" xmlns:xlink="http://www.w3.org/1999/xlink" x="0px" y="0px"
	 viewBox="0 0 226.8 226.8" style="enable-background:new 0 0 226.8 226.8;" xml:space="preserve">
<g>
	<path d="M2.9,143.9c4.9-2.9,9.4-5.5,14-8.1c12.9-7.5,25.8-14.9,38.7-22.5c1.5-0.9,2.6-0.8,4.1,0.1c17.2,10,34.4,19.9,51.6,29.9
		c1.8,1,3.1,1,4.9-0.2c3.3-2.3,6.9-4.1,10.4-6.2c7.1-4.1,14.2-8.1,21.2-12.2c6.4-3.7,12.8-7.4,19.2-11.2c1.4-0.8,2.6-1,4.1-0.1
		c16.8,9.9,33.6,19.7,50.5,29.5c0.7,0.4,1.3,0.9,2.2,1.5c-0.5,0.5-0.8,0.9-1.3,1.2c-17.1,9.9-34.1,19.7-51.2,29.6
		c-18.5,10.7-37.1,21.2-55.6,31.9c-1.6,0.9-2.8,1-4.5,0.1c-27.7-16.2-55.5-32.3-83.2-48.4c-7.7-4.5-15.4-9-23.1-13.5
		C4.4,145,3.8,144.6,2.9,143.9z"/>
	<path d="M2.8,50.3c3.6-2.1,6.7-3.9,9.8-5.7c14.3-8.3,28.7-16.6,43-25c1.4-0.8,2.5-0.8,3.9,0c17,9.9,34.1,19.7,51.2,29.6
		c1.9,1.1,3.4,1.3,5.5,0c10.8-6.4,21.8-12.5,32.7-18.8c6-3.5,12.1-7,18.1-10.5c1.5-0.9,2.7-1.1,4.3-0.1
		c16.9,9.9,33.8,19.7,50.7,29.6c0.6,0.4,1.2,0.8,2.1,1.5c-3.9,2.3-7.4,4.4-10.9,6.4c-14.1,8.1-28.2,16.3-42.3,24.4
		c-18.4,10.6-36.8,21.1-55.2,31.7c-1.6,0.9-2.8,0.8-4.3,0C78.4,94.2,45.5,75.1,12.5,56C9.5,54.2,6.5,52.4,2.8,50.3z"/>
</g>
</svg>
