<!-- Generated by IcoMoon.io -->
<svg version="1.1" xmlns="http://www.w3.org/2000/svg" width="32" height="32" viewBox="0 0 32 32">
<title>ELA</title>
<path d="M0.409 20.303c0.691-0.409 1.326-0.776 1.975-1.143 1.82-1.058 3.64-2.102 5.46-3.175 0.212-0.127 0.367-0.113 0.578 0.014 2.427 1.411 4.854 2.808 7.28 4.219 0.254 0.141 0.437 0.141 0.691-0.028 0.466-0.325 0.974-0.578 1.467-0.875 1.002-0.578 2.004-1.143 2.991-1.721 0.903-0.522 1.806-1.044 2.709-1.58 0.198-0.113 0.367-0.141 0.578-0.014 2.37 1.397 4.741 2.78 7.125 4.162 0.099 0.056 0.183 0.127 0.31 0.212-0.071 0.071-0.113 0.127-0.183 0.169-2.413 1.397-4.811 2.78-7.224 4.176-2.61 1.51-5.235 2.991-7.845 4.501-0.226 0.127-0.395 0.141-0.635 0.014-3.908-2.286-7.831-4.557-11.739-6.829-1.086-0.635-2.173-1.27-3.259-1.905-0.071-0.042-0.155-0.099-0.282-0.198z"></path>
<path d="M0.395 7.097c0.508-0.296 0.945-0.55 1.383-0.804 2.018-1.171 4.049-2.342 6.067-3.527 0.198-0.113 0.353-0.113 0.55 0 2.399 1.397 4.811 2.78 7.224 4.176 0.268 0.155 0.48 0.183 0.776 0 1.524-0.903 3.076-1.764 4.614-2.653 0.847-0.494 1.707-0.988 2.554-1.481 0.212-0.127 0.381-0.155 0.607-0.014 2.384 1.397 4.769 2.78 7.153 4.176 0.085 0.056 0.169 0.113 0.296 0.212-0.55 0.325-1.044 0.621-1.538 0.903-1.989 1.143-3.979 2.3-5.968 3.443-2.596 1.496-5.192 2.977-7.788 4.473-0.226 0.127-0.395 0.113-0.607 0-4.656-2.709-9.298-5.404-13.954-8.099-0.423-0.254-0.847-0.508-1.369-0.804z"></path>
</svg>
