<?xml version="1.0" encoding="utf-8"?>
<!-- Generator: Adobe Illustrator 22.1.0, SVG Export Plug-In . SVG Version: 6.00 Build 0)  -->
<svg version="1.1" id="Layer_1" xmlns="http://www.w3.org/2000/svg" xmlns:xlink="http://www.w3.org/1999/xlink" x="0px" y="0px"
	 viewBox="0 0 226.8 226.8" style="enable-background:new 0 0 226.8 226.8;" xml:space="preserve">
<g>
	<path d="M39.2,135.7C75.8,90.4,112.4,45.2,148.9,0c0.7,0.3,1.5,0.6,2.2,0.9c-8.3,31.6-16.6,63.2-25.4,97c22.2,0,42.5,0,62.8,0
		c0.4,1,0.8,2.1,1.2,3.1c-39.9,41.9-79.8,83.9-119.8,125.8c-0.9-0.5-1.9-1-2.8-1.4c10.3-28,20.7-55.9,31.9-86.4
		c-20.8,0-39.6,0-58.4,0C40.2,137.9,39.7,136.8,39.2,135.7z"/>
</g>
</svg>
