<!-- Generated by IcoMoon.io -->
<svg version="1.1" xmlns="http://www.w3.org/2000/svg" width="32" height="32" viewBox="0 0 32 32">
<title>ELECTRUM_STRATIS</title>
<path d="M15.949 0.205c0.73 0.294 1.446 0.602 2.163 0.883 1.907 0.73 3.878 1.165 5.901 1.421 1.37 0.179 2.752 0.256 4.122 0.435 0.909 0.115 1.293 0.589 1.293 1.498 0 2.202 0.051 4.403-0.013 6.592-0.128 3.738-0.87 7.334-2.637 10.662-0.806 1.536-1.792 2.931-2.931 4.237-1.843 2.099-4.006 3.75-6.502 4.966-1.587 0.781-1.126 0.742-2.675 0-2.317-1.101-4.352-2.624-6.093-4.493-2.714-2.906-4.48-6.31-5.338-10.202-0.461-2.099-0.666-4.224-0.653-6.374 0-1.766 0-3.533 0-5.286 0-1.088 0.32-1.485 1.382-1.638 0.653-0.090 1.318-0.115 1.984-0.166 2.906-0.256 5.734-0.794 8.461-1.856 0.512-0.192 1.011-0.448 1.536-0.678zM13.35 7.347c0 0.858 0 1.613 0 2.47-1.050 0-1.997 0-2.995 0 0 0.55 0 1.011 0 1.536 0.64 0 1.229 0 1.83 0 0 2.726 0 5.376 0 8.090-0.307 0.013-0.563 0.026-0.819 0.051-0.256 0.013-0.512 0.038-0.781 0.051 0 0.602 0 1.139 0 1.728 0.909 0.026 1.766 0.038 2.714 0.064 0 0.909 0 1.715 0 2.509 0.512 0 0.934 0 1.434 0 0-0.435 0-0.806 0-1.178 0-0.384 0-0.781 0-1.216 0.499 0 0.87 0 1.331 0 0.026 0.832 0.038 1.613 0.064 2.406 0.512 0 0.934 0 1.459 0 0-0.858 0-1.651 0-2.47 0.243-0.038 0.384-0.064 0.525-0.077 0.538-0.090 1.088-0.141 1.626-0.256 2.048-0.486 2.726-2.227 2.406-4.070-0.141-0.832-0.64-1.395-1.421-1.715-0.179-0.077-0.371-0.166-0.602-0.269 0.141-0.115 0.218-0.192 0.307-0.256 1.318-0.896 1.152-3.238-0.013-4.070-0.576-0.41-1.216-0.614-1.894-0.73-0.269-0.051-0.538-0.128-0.87-0.205 0-0.819 0-1.587 0-2.355-0.512 0-0.934 0-1.434 0 0 0.435 0.013 0.806 0 1.178s-0.026 0.73-0.051 1.088c-0.474 0-0.858 0-1.331 0 0-0.832 0-1.6 0-2.458-0.525 0.038-0.947 0.090-1.485 0.154z"></path>
<path d="M14.912 19.494c0-1.114 0-2.189 0-3.251 0.064-0.051 0.090-0.090 0.115-0.102 1.203-0.154 2.394-0.115 3.469 0.499 0.96 0.538 0.96 1.779 0.038 2.394-0.205 0.128-0.435 0.256-0.666 0.294-0.819 0.115-1.651 0.192-2.47 0.269-0.154 0-0.294-0.064-0.486-0.102z"></path>
<path d="M14.899 14.554c0-1.024 0-1.971 0-2.982 1.037-0.128 2.035-0.166 2.957 0.333 0.512 0.282 0.704 0.768 0.64 1.344-0.064 0.55-0.41 0.883-0.896 1.088-0.845 0.333-1.728 0.294-2.701 0.218z"></path>
</svg>
