<!-- Generated by IcoMoon.io -->
<svg version="1.1" xmlns="http://www.w3.org/2000/svg" width="32" height="32" viewBox="0 0 32 32">
<title>ELECTRUM</title>
<path d="M26.074 21.862c0.026 0.218 0.064 0.422 0.090 0.627s0.051 0.397 0.064 0.602c0.013 0.307 0.051 0.614 0.038 0.922-0.026 0.538-0.051 1.075-0.102 1.613-0.051 0.486-0.166 0.96-0.307 1.421-0.269 0.819-0.678 1.562-1.318 2.138-0.499 0.448-1.088 0.794-1.779 0.922-0.358 0.064-0.717 0.179-1.088 0.154-0.32-0.026-0.653-0.077-0.973-0.141-1.075-0.205-2.061-0.627-2.982-1.19-0.602-0.371-1.178-0.781-1.779-1.19-0.038 0.026-0.090 0.064-0.154 0.102-1.139 0.883-2.368 1.626-3.75 2.074-0.41 0.128-0.845 0.205-1.267 0.282-1.011 0.179-1.946-0.077-2.803-0.576-0.55-0.32-0.986-0.781-1.331-1.344-0.397-0.64-0.653-1.344-0.794-2.086-0.090-0.499-0.166-0.998-0.166-1.51 0-0.461 0-0.934 0.013-1.395 0.013-0.371 0.077-0.73 0.102-1.101 0.013-0.102 0.013-0.205 0.026-0.346-0.32-0.141-0.64-0.269-0.947-0.422-0.934-0.435-1.818-0.96-2.611-1.613-0.832-0.678-1.51-1.485-1.882-2.509-0.32-0.883-0.32-1.766 0-2.637 0.397-1.088 1.126-1.92 2.010-2.637 0.973-0.768 2.061-1.357 3.213-1.818 0.192-0.077 0.218-0.141 0.179-0.346-0.038-0.23-0.090-0.461-0.102-0.691-0.026-0.474-0.064-0.947-0.051-1.434 0.026-0.986 0.102-1.958 0.435-2.893 0.307-0.896 0.781-1.69 1.549-2.266 0.538-0.41 1.152-0.678 1.843-0.781 0.589-0.077 1.165-0.051 1.741 0.038 0.346 0.051 0.691 0.166 1.037 0.294 0.883 0.32 1.728 0.742 2.509 1.28 0.397 0.269 0.794 0.55 1.216 0.858 0.102-0.077 0.218-0.154 0.32-0.23 0.73-0.576 1.523-1.075 2.355-1.472 0.563-0.269 1.139-0.486 1.754-0.64 0.781-0.192 1.549-0.218 2.33-0.077 0.602 0.115 1.139 0.397 1.613 0.781 0.858 0.704 1.344 1.626 1.638 2.688 0.256 0.947 0.333 1.92 0.294 2.893-0.026 0.563 0.013 1.152-0.154 1.702-0.051 0.154 0.026 0.243 0.192 0.307 0.704 0.269 1.37 0.602 2.010 0.986 0.768 0.461 1.485 0.986 2.086 1.638 0.525 0.563 0.947 1.203 1.178 1.933 0.269 0.87 0.256 1.741-0.077 2.611-0.371 0.96-1.011 1.728-1.792 2.368-0.998 0.819-2.099 1.446-3.302 1.92-0.090 0.051-0.179 0.115-0.32 0.192zM15.949 22.272c0.73-0.026 1.446-0.051 2.15-0.090 0.371-0.026 0.73-0.077 1.101-0.102 0.179-0.013 0.294-0.090 0.384-0.23 0.614-0.832 1.165-1.715 1.69-2.598 0.589-0.998 1.114-2.010 1.574-3.072 0.077-0.166 0.077-0.32-0.013-0.486-0.166-0.307-0.307-0.627-0.461-0.934-0.781-1.626-1.715-3.162-2.765-4.621-0.115-0.166-0.256-0.23-0.448-0.243-0.371-0.026-0.742-0.064-1.114-0.077-0.858-0.038-1.715-0.077-2.573-0.090-0.371-0.013-0.742 0.026-1.114 0.051-0.576 0.038-1.165 0.090-1.741 0.128-0.166 0.013-0.294 0.090-0.384 0.23-0.384 0.576-0.794 1.152-1.165 1.741-0.768 1.229-1.446 2.496-2.061 3.814-0.090 0.192-0.102 0.358 0 0.538 0.358 0.691 0.691 1.395 1.050 2.086 0.64 1.229 1.395 2.394 2.189 3.52 0.102 0.141 0.218 0.23 0.422 0.243 0.371 0.013 0.742 0.077 1.101 0.102 0.755 0.038 1.472 0.064 2.176 0.090zM14.886 5.158c-0.026-0.026-0.038-0.064-0.064-0.102-0.051-0.051-0.102-0.102-0.166-0.141-1.139-0.819-2.33-1.536-3.738-1.792-0.474-0.090-0.934-0.102-1.408 0-0.858 0.179-1.446 0.666-1.869 1.395-0.333 0.602-0.512 1.242-0.614 1.92-0.141 0.973-0.128 1.946 0 2.906 0.013 0.102 0.026 0.205 0.051 0.307 0.051 0 0.090 0.013 0.115 0 0.499-0.128 0.998-0.256 1.498-0.397 0.883-0.256 1.792-0.397 2.701-0.525 0.282-0.038 0.435-0.166 0.589-0.358 0.397-0.486 0.794-0.973 1.203-1.434 0.55-0.602 1.126-1.178 1.702-1.779zM6.029 20.518c0.038-0.102 0.064-0.166 0.090-0.23 0.064-0.23 0.102-0.448 0.166-0.678 0.115-0.41 0.23-0.832 0.358-1.242 0.243-0.717 0.512-1.434 0.781-2.138 0.064-0.166 0.077-0.294 0.013-0.448-0.499-1.203-0.934-2.445-1.216-3.712-0.038-0.192-0.102-0.384-0.154-0.563-0.038-0.013-0.051-0.026-0.077-0.026-0.051 0.013-0.102 0.026-0.154 0.038-0.883 0.384-1.728 0.832-2.509 1.408-0.563 0.422-1.062 0.909-1.434 1.51-0.576 0.934-0.64 1.894-0.115 2.88 0.346 0.64 0.832 1.139 1.395 1.587 0.589 0.461 1.229 0.858 1.907 1.19 0.307 0.154 0.614 0.282 0.947 0.422zM7.066 22.285c-0.051 0.435-0.102 0.806-0.128 1.19-0.038 0.922-0.013 1.843 0.218 2.739 0.154 0.627 0.397 1.216 0.832 1.728 0.589 0.704 1.357 0.998 2.24 0.986 0.755-0.013 1.472-0.23 2.163-0.538 0.704-0.307 1.357-0.704 1.971-1.139 0.192-0.128 0.371-0.269 0.589-0.435-0.102-0.090-0.192-0.141-0.256-0.205-0.55-0.563-1.101-1.114-1.626-1.702-0.41-0.448-0.781-0.947-1.178-1.408-0.090-0.102-0.205-0.205-0.333-0.23-0.384-0.090-0.768-0.141-1.152-0.205-0.832-0.115-1.638-0.307-2.445-0.538-0.269-0.090-0.563-0.154-0.896-0.243zM24.819 9.664c0.051-0.435 0.115-0.858 0.128-1.28 0.026-0.691 0-1.37-0.102-2.061-0.115-0.73-0.32-1.408-0.717-2.035-0.333-0.512-0.781-0.883-1.357-1.088-0.794-0.282-1.587-0.179-2.368 0.038-0.422 0.128-0.832 0.294-1.229 0.486-0.704 0.333-1.344 0.755-1.958 1.216-0.23 0.166-0.218 0.218-0.013 0.422 0.333 0.333 0.678 0.666 1.011 1.011 0.64 0.678 1.254 1.382 1.818 2.112 0.102 0.128 0.218 0.205 0.397 0.218 0.32 0.026 0.627 0.077 0.934 0.141 0.96 0.179 1.92 0.371 2.867 0.666 0.179 0.064 0.371 0.102 0.589 0.154zM25.843 20.493c0.090-0.026 0.128-0.026 0.166-0.038 0.064-0.013 0.128-0.038 0.179-0.064 0.832-0.384 1.651-0.806 2.381-1.37 0.563-0.422 1.062-0.922 1.434-1.523 0.563-0.922 0.614-1.856 0.115-2.829-0.371-0.704-0.909-1.242-1.523-1.715-0.794-0.614-1.677-1.062-2.586-1.459-0.038-0.013-0.102-0.013-0.141-0.013-0.026 0.038-0.038 0.051-0.038 0.077-0.141 0.525-0.282 1.062-0.435 1.587-0.243 0.883-0.563 1.741-0.909 2.598-0.064 0.166-0.064 0.32 0 0.486 0.205 0.538 0.435 1.075 0.614 1.626 0.23 0.717 0.422 1.434 0.627 2.163 0.026 0.154 0.064 0.294 0.115 0.474zM16.922 26.829c0.512 0.333 0.934 0.64 1.382 0.922 0.986 0.602 2.010 1.062 3.174 1.152 0.666 0.051 1.28-0.064 1.843-0.435 0.755-0.499 1.126-1.242 1.37-2.061 0.141-0.486 0.205-0.998 0.256-1.498 0.064-0.768 0.026-1.549-0.077-2.304-0.013-0.090-0.038-0.179-0.064-0.294-0.307 0.077-0.589 0.154-0.87 0.23-0.538 0.141-1.075 0.294-1.626 0.397-0.614 0.128-1.242 0.23-1.869 0.32-0.192 0.026-0.32 0.115-0.448 0.269-0.781 0.998-1.587 1.958-2.509 2.816-0.179 0.141-0.346 0.282-0.563 0.486zM21.261 10.214c0.141 0.218 0.256 0.358 0.346 0.499 0.563 0.909 1.126 1.818 1.587 2.765 0.102 0.205 0.192 0.397 0.307 0.589 0.026 0.038 0.102 0.077 0.154 0.077 0.026 0 0.077-0.064 0.090-0.115 0.090-0.256 0.192-0.512 0.269-0.781 0.192-0.653 0.371-1.293 0.55-1.946 0.013-0.064 0.026-0.128 0.026-0.192 0.013-0.115-0.038-0.192-0.166-0.23-0.218-0.051-0.422-0.128-0.64-0.179-0.691-0.179-1.395-0.346-2.086-0.512-0.128 0-0.243 0.026-0.435 0.026zM24.55 20.954c0.026-0.41-0.678-2.867-0.909-3.174-0.115 0.038-0.141 0.141-0.192 0.23-0.358 0.666-0.717 1.344-1.088 1.997-0.307 0.525-0.653 1.037-0.973 1.562-0.038 0.064-0.051 0.141-0.090 0.218 0.563-0.026 2.867-0.614 3.251-0.832zM10.586 10.24c-0.192-0.038-0.346-0.038-0.499 0.013-0.307 0.090-0.614 0.154-0.922 0.23-0.563 0.141-1.126 0.294-1.69 0.435-0.128 0.038-0.179 0.115-0.166 0.23 0.013 0.090 0.038 0.166 0.051 0.243 0.166 0.627 0.333 1.267 0.525 1.894 0.090 0.294 0.205 0.589 0.307 0.883 0.179-0.051 0.179-0.051 0.256-0.205 0.602-1.203 1.267-2.368 2.022-3.482 0.051-0.077 0.077-0.154 0.115-0.243zM13.645 8.422c1.549 0 3.072 0 4.634 0-0.218-0.333-0.486-0.589-0.73-0.858-0.256-0.282-0.525-0.55-0.794-0.819-0.256-0.256-0.499-0.538-0.794-0.73-0.525 0.346-2.125 2.022-2.317 2.406zM13.645 23.462c-0.013 0.026-0.026 0.064-0.038 0.090 0.742 0.832 1.472 1.677 2.342 2.406 0.294-0.282 0.576-0.525 0.832-0.781 0.269-0.269 0.538-0.538 0.781-0.832 0.23-0.282 0.55-0.486 0.717-0.883-0.358 0.026-0.653 0.038-0.96 0.051s-0.614 0.038-0.922 0.051c-0.32 0.013-0.64 0.013-0.96 0-0.307-0.013-0.614-0.038-0.922-0.051-0.269-0.013-0.576-0.026-0.87-0.051zM10.611 21.811c-0.064-0.128-0.090-0.192-0.128-0.269-0.32-0.512-0.653-1.011-0.947-1.536-0.384-0.666-0.742-1.344-1.114-2.022-0.051-0.102-0.090-0.192-0.23-0.205-0.192 0.602-0.384 1.203-0.563 1.805-0.102 0.358-0.192 0.73-0.282 1.101-0.051 0.218-0.038 0.243 0.166 0.346 0.051 0.026 0.090 0.051 0.141 0.064 0.73 0.192 1.472 0.371 2.202 0.563 0.218 0.064 0.448 0.090 0.755 0.154z"></path>
<path d="M15.45 13.094c0.077 0.038 0.102 0.051 0.115 0.051 0.525 0.026 0.538 0.013 0.538-0.499 0-0.243 0-0.486 0-0.73 0.269-0.090 0.525-0.051 0.794-0.026 0.013 0.077 0.026 0.154 0.026 0.218 0 0.256 0 0.512 0 0.768 0 0.282 0.013 0.294 0.282 0.358 0.243 0.051 0.499 0.102 0.73 0.179 0.397 0.128 0.717 0.371 0.858 0.768 0.179 0.499 0.115 1.152-0.307 1.51-0.064 0.051-0.141 0.090-0.256 0.154 0.141 0.090 0.192 0.141 0.256 0.166 0.563 0.205 0.832 0.563 0.858 1.165 0.026 0.486-0.038 0.947-0.358 1.344-0.218 0.256-0.486 0.41-0.781 0.525-0.333 0.128-0.678 0.166-1.024 0.205-0.269 0.026-0.32 0.090-0.333 0.358 0 0.282-0.013 0.576-0.013 0.858 0 0.026-0.013 0.038-0.026 0.077-0.192 0.115-0.397 0.051-0.602 0.064-0.115 0-0.166-0.102-0.166-0.23 0.013-0.282 0-0.576 0.013-0.858 0.013-0.141-0.038-0.192-0.166-0.205-0.026 0-0.064 0-0.090 0-0.397-0.013-0.397-0.013-0.41 0.397 0 0.218 0 0.448 0 0.666 0 0.205-0.038 0.243-0.243 0.256-0.013 0-0.026 0-0.026 0-0.486 0-0.563 0.064-0.538-0.499 0.013-0.256 0-0.525 0-0.806-0.55-0.077-1.062 0-1.574-0.051-0.064-0.333 0.038-0.602 0.128-0.922 0.141 0 0.269 0 0.41 0 0.346-0.013 0.461-0.128 0.461-0.461 0-1.114 0.013-2.227 0.013-3.341 0-0.32-0.141-0.461-0.461-0.461-0.166 0-0.333 0-0.499 0-0.077-0.218-0.090-0.461-0.038-0.832 0.256-0.077 0.512-0.026 0.781-0.038 0.256-0.013 0.499 0 0.768 0 0.154-0.448 0-0.883 0.102-1.318 0.256 0 0.499 0 0.794 0-0.013 0.41-0.013 0.806-0.013 1.19zM15.411 17.421c-0.013 0-0.013 0 0 0-0.013 0.218-0.013 0.422-0.013 0.64s0.038 0.269 0.269 0.256c0.397-0.026 0.781-0.038 1.165-0.102 0.269-0.038 0.525-0.141 0.73-0.358 0.282-0.294 0.282-0.73-0.038-0.986-0.166-0.128-0.358-0.256-0.55-0.282-0.435-0.064-0.883-0.064-1.331-0.077-0.179 0-0.218 0.051-0.23 0.23-0.013 0.23 0 0.448 0 0.678zM15.398 14.976v0c0 0.205 0 0.397 0 0.602 0 0.102 0.051 0.205 0.154 0.205 0.422-0.013 0.845 0.038 1.242-0.154 0.282-0.128 0.435-0.358 0.435-0.653 0-0.269-0.154-0.499-0.422-0.627-0.384-0.205-0.806-0.154-1.216-0.179-0.166-0.013-0.205 0.064-0.205 0.256 0.013 0.192 0.013 0.371 0.013 0.55z"></path>
</svg>
