<!-- Generated by IcoMoon.io -->
<svg version="1.1" xmlns="http://www.w3.org/2000/svg" width="32" height="32" viewBox="0 0 32 32">
<title>ELEC</title>
<path d="M5.531 19.146c5.164-6.392 10.328-12.769 15.478-19.146 0.099 0.042 0.212 0.085 0.31 0.127-1.171 4.459-2.342 8.917-3.584 13.686 3.132 0 5.996 0 8.861 0 0.056 0.141 0.113 0.296 0.169 0.437-5.63 5.912-11.259 11.838-16.903 17.75-0.127-0.071-0.268-0.141-0.395-0.198 1.453-3.951 2.921-7.887 4.501-12.19-2.935 0-5.587 0-8.24 0-0.056-0.155-0.127-0.31-0.198-0.466z"></path>
</svg>
