<?xml version="1.0" encoding="utf-8"?>
<!-- Generator: Adobe Illustrator 22.0.1, SVG Export Plug-In . SVG Version: 6.00 Build 0)  -->
<svg version="1.1" id="Layer_1" xmlns="http://www.w3.org/2000/svg" xmlns:xlink="http://www.w3.org/1999/xlink" x="0px" y="0px"
	 viewBox="0 0 226.8 226.8" style="enable-background:new 0 0 226.8 226.8;" xml:space="preserve">
<style type="text/css">
	.st0{stroke:#FFFFFF;stroke-miterlimit:10;}
</style>
<g>
	
		<ellipse transform="matrix(8.248056e-02 -0.9966 0.9966 8.248056e-02 52.2121 282.3328)" class="st0" cx="179.4" cy="112.8" rx="47.4" ry="47.4"/>
	<circle class="st0" cx="119.6" cy="24.8" r="22.8"/>
	<circle class="st0" cx="119.6" cy="200.9" r="22.8"/>
	<g transform="translate(-.04)">
		<path class="st0" d="M109.2,147c1.4,0.5,2.8,0.7,4.3,0.7c7.9,0,14.3-6.4,14.2-14.3c0-7.9-6.4-14.3-14.3-14.2
			c-4.8,0-9.3,2.5-12,6.5v0.1c-0.4,0.6-0.8,1.2-1,1.9c-15.7,27.8-47.4,9.2-47.4,9.2c-16.3-9.7-37.5-4.4-47.2,11.9
			S1.4,186.3,17.8,196c5.3,3.2,11.4,4.9,17.6,4.9c12.8,0,24.6-7.1,30.5-18.6v-0.1c1-1.9,1.8-4,2.5-6.1
			C84.8,138.5,109.2,147,109.2,147"/>
		<path class="st0" d="M101.1,96.5L101.1,96.5c0.7,1.3,1.6,2.5,2.6,3.5c5.5,5.6,14.6,5.6,20.1,0.1c5.6-5.5,5.6-14.6,0.1-20.1
			c-3.4-3.4-8.4-4.9-13.1-3.9h-0.1c-0.7,0.1-1.5,0.3-2.1,0.7c-30.8,8.5-40-27-40-27l0,0c-4.6-18.4-23.3-29.6-41.7-24.9
			S-2.8,48,1.8,66.4S25.1,96,43.5,91.4c0.7-0.2,1.4-0.4,2.1-0.6h0.1c2.1-0.7,4.1-1.6,6.1-2.6C89.9,73.1,101.1,96.5,101.1,96.5z"/>
	</g>
</g>
</svg>
