<!-- Generated by IcoMoon.io -->
<svg version="1.1" xmlns="http://www.w3.org/2000/svg" width="32" height="32" viewBox="0 0 32 32">
<title>ELF</title>
<path d="M25.867 9.257c3.681 0.305 6.418 3.536 6.113 7.217s-3.536 6.418-7.217 6.113c-3.681-0.305-6.418-3.536-6.113-7.217s3.536-6.418 7.217-6.113z"></path>
<path d="M20.092 3.499c0 1.777-1.44 3.217-3.217 3.217s-3.217-1.44-3.217-3.217c0-1.777 1.44-3.217 3.217-3.217s3.217 1.44 3.217 3.217z"></path>
<path d="M20.092 28.346c0 1.777-1.44 3.217-3.217 3.217s-3.217-1.44-3.217-3.217c0-1.777 1.44-3.217 3.217-3.217s3.217 1.44 3.217 3.217z"></path>
<path d="M15.402 20.741c0.198 0.071 0.395 0.099 0.607 0.099 1.115 0 2.018-0.903 2.004-2.018 0-1.115-0.903-2.018-2.018-2.004-0.677 0-1.312 0.353-1.693 0.917v0.014c-0.056 0.085-0.113 0.169-0.141 0.268-2.215 3.922-6.688 1.298-6.688 1.298-2.3-1.369-5.291-0.621-6.66 1.679s-0.621 5.291 1.693 6.66c0.748 0.451 1.608 0.691 2.483 0.691 1.806 0 3.471-1.002 4.303-2.624v-0.014c0.141-0.268 0.254-0.564 0.353-0.861 2.314-5.305 5.757-4.106 5.757-4.106"></path>
<path d="M14.259 13.616v0c0.099 0.183 0.226 0.353 0.367 0.494 0.776 0.79 2.060 0.79 2.836 0.014 0.79-0.776 0.79-2.060 0.014-2.836-0.48-0.48-1.185-0.691-1.848-0.55h-0.014c-0.099 0.014-0.212 0.042-0.296 0.099-4.346 1.199-5.644-3.81-5.644-3.81v0c-0.649-2.596-3.287-4.176-5.884-3.513s-4.19 3.259-3.541 5.855 3.287 4.176 5.884 3.527c0.099-0.028 0.198-0.056 0.296-0.085h0.014c0.296-0.099 0.578-0.226 0.861-0.367 5.376-2.13 6.956 1.171 6.956 1.171z"></path>
</svg>
