<!-- Generated by IcoMoon.io -->
<svg version="1.1" xmlns="http://www.w3.org/2000/svg" width="32" height="32" viewBox="0 0 32 32">
<title>EMC2</title>
<path d="M2.963 20.938l-3.034 5.996h7.055l3.034-5.996h-7.055"></path>
<path d="M6.984 13.009l-3.034 5.968h7.055l3.034-5.982-7.055 0.014"></path>
<path d="M11.005 5.079l-3.034 5.968h7.055l3.034-5.968h-7.055"></path>
<path d="M9.989 20.938l-3.034 5.996h7.055l3.034-5.996h-7.055"></path>
<path d="M14.011 13.009l-3.034 5.982h7.055l3.034-5.982h-7.055"></path>
<path d="M18.032 5.079l-3.034 5.982h7.055l3.048-5.982h-7.069"></path>
<path d="M16.917 20.938l-3.034 5.996h7.055l3.034-5.996h-7.055"></path>
<path d="M20.938 13.009l-3.034 5.982h7.055l3.034-5.982h-7.055"></path>
<path d="M24.959 5.079l-3.034 5.982h7.055l3.034-5.982h-7.055"></path>
</svg>
