<?xml version="1.0" encoding="utf-8"?>
<!-- Generator: Adobe Illustrator 22.0.1, SVG Export Plug-In . SVG Version: 6.00 Build 0)  -->
<svg version="1.1" id="Layer_1" xmlns="http://www.w3.org/2000/svg" xmlns:xlink="http://www.w3.org/1999/xlink" x="0px" y="0px"
	 viewBox="0 0 226.8 226.8" style="enable-background:new 0 0 226.8 226.8;" xml:space="preserve">
<style type="text/css">
	.st0{stroke:#FFFFFF;stroke-miterlimit:10;}
</style>
<g>
	<path class="st0" d="M21,148.4l-21.5,42.5h50L71,148.4H21"/>
	<path class="st0" d="M49.5,92.2L28,134.5h50l21.5-42.4L49.5,92.2"/>
	<path class="st0" d="M78,36L56.5,78.3h50L128,36H78"/>
</g>
<g>
	<path class="st0" d="M70.8,148.4l-21.5,42.5h50l21.5-42.5H70.8"/>
	<path class="st0" d="M99.3,92.2l-21.5,42.4h50l21.5-42.4L99.3,92.2"/>
	<path class="st0" d="M127.8,36l-21.5,42.4h50L177.9,36H127.8"/>
</g>
<g>
	<path class="st0" d="M119.9,148.4l-21.5,42.5h50l21.5-42.5H119.9"/>
	<path class="st0" d="M148.4,92.2l-21.5,42.4h50l21.5-42.4L148.4,92.2"/>
	<path class="st0" d="M176.9,36l-21.5,42.4h50L226.9,36H176.9"/>
</g>
</svg>
