<!-- Generated by IcoMoon.io -->
<svg version="1.1" xmlns="http://www.w3.org/2000/svg" width="32" height="32" viewBox="0 0 32 32">
<title>ENG</title>
<path d="M29.601 7.746c-0.028-0.014-0.071-0.042-0.099-0.056-2.173-1.242-4.346-2.497-6.504-3.739-2.272-1.298-4.543-2.61-6.815-3.908l-0.085-0.042-0.085 0.028c-0.155 0.056-0.268 0.113-0.381 0.169-1.975 1.157-3.951 2.314-5.926 3.471-2.441 1.439-4.91 2.878-7.337 4.317-0.31 0.141-0.296 0.466-0.296 0.649 0 0.042 0 0.085 0 0.141 0 3.64-0.014 7.266-0.014 10.907l-0.014 4.049c-0.014 0.24 0.085 0.451 0.268 0.536 2.822 1.594 5.63 3.203 8.451 4.797l4.981 2.836c0.113 0.071 0.226 0.113 0.325 0.113 0.085 0 0.169-0.028 0.24-0.085l7.224-4.162c2.046-1.185 4.106-2.37 6.138-3.541 0.226-0.099 0.367-0.339 0.339-0.55l0.028-15.323c0.028-0.353-0.268-0.508-0.437-0.607M16.056 8.705l5.94 3.457-5.926 3.414-2.018-1.143c-1.326-0.748-2.667-1.51-3.993-2.258l5.996-3.471M22.801 11.697l-6.448-3.753c-0.183-0.127-0.409-0.127-0.578-0.014l-6.533 3.781-5.94-3.344 4.148-2.427c2.878-1.679 5.742-3.358 8.621-5.037 2.638 1.524 5.277 3.034 7.915 4.543 1.608 0.931 3.217 1.848 4.84 2.78l-6.025 3.471M2.892 9.072l5.912 3.344 0.127 7.379c-0.014 0.226 0.099 0.437 0.282 0.522 1.312 0.748 2.624 1.51 3.937 2.258l2.526 1.453v6.885l-12.783-7.266v-14.575M9.623 12.882l6.039 3.414-0.014 6.787-5.912-3.4-0.113-6.801M16.466 24.014l2.526-1.453c1.298-0.748 2.596-1.481 3.894-2.229l0.042-0.028c0.071-0.042 0.169-0.099 0.226-0.198l0.042-0.056v-0.056c-0.014-1.623-0.014-3.287-0.014-4.882 0-0.903 0-1.806 0-2.695l6.039-3.485-0.014 5.94-0.014 8.677c-2.695 1.552-5.404 3.104-8.099 4.656l-4.642 2.681 0.014-6.871M16.466 23.083v-6.787l5.954-3.429v6.801c-1.975 1.129-3.965 2.272-5.954 3.414"></path>
<path d="M15.873 1.707c-0.169 0.014-0.325 0.127-0.409 0.296s-0.071 0.367 0.028 0.508c0.099 0.155 0.268 0.24 0.451 0.24 0.028 0 0.071 0 0.113-0.014 0.226-0.042 0.381-0.183 0.423-0.381 0.042-0.169 0-0.353-0.127-0.48-0.113-0.141-0.296-0.198-0.48-0.169M16.226 3.937c-0.183-0.099-0.395-0.099-0.564 0.014-0.141 0.085-0.24 0.226-0.254 0.409-0.014 0.169 0.056 0.339 0.169 0.423 0.099 0.099 0.226 0.141 0.367 0.141 0.085 0 0.155-0.014 0.24-0.056 0.198-0.085 0.325-0.268 0.325-0.466 0-0.183-0.113-0.367-0.282-0.466M16.24 6.138c-0.183-0.113-0.395-0.113-0.564-0.014-0.155 0.085-0.254 0.226-0.268 0.409s0.071 0.367 0.198 0.452c0.099 0.071 0.212 0.113 0.339 0.113 0.085 0 0.155-0.014 0.24-0.056 0.183-0.085 0.31-0.24 0.31-0.423 0.014-0.198-0.085-0.367-0.254-0.48M7.548 20.487c-0.183 0.056-0.324 0.198-0.367 0.395s0.028 0.409 0.169 0.508c0.085 0.085 0.198 0.127 0.325 0.127 0.042 0 0.085 0 0.113-0.014 0.169-0.042 0.31-0.155 0.367-0.296 0.085-0.183 0.056-0.409-0.085-0.564s-0.339-0.212-0.522-0.155M24.085 21.531c0.042 0 0.085 0 0.127-0.014 0.169-0.042 0.296-0.155 0.339-0.296 0.099-0.183 0.056-0.409-0.085-0.578-0.141-0.155-0.339-0.212-0.522-0.155s-0.31 0.212-0.353 0.409c-0.042 0.198 0.028 0.395 0.169 0.508 0.085 0.085 0.198 0.127 0.325 0.127M5.686 21.587c-0.183 0.071-0.31 0.24-0.339 0.451-0.014 0.212 0.085 0.423 0.254 0.508 0.071 0.042 0.169 0.071 0.254 0.071 0.071 0 0.141-0.014 0.226-0.056 0.169-0.071 0.282-0.226 0.296-0.381 0.042-0.183-0.028-0.395-0.183-0.522-0.169-0.099-0.353-0.127-0.508-0.071M25.905 22.617c0.056 0 0.127-0.014 0.183-0.028 0.183-0.071 0.31-0.226 0.325-0.381 0.056-0.183-0.014-0.381-0.155-0.522-0.141-0.127-0.339-0.169-0.508-0.113s-0.31 0.212-0.339 0.409c-0.028 0.198 0.042 0.395 0.183 0.508 0.085 0.085 0.198 0.127 0.31 0.127M4.275 22.73c-0.155-0.085-0.339-0.085-0.494 0-0.169 0.085-0.268 0.268-0.268 0.466 0 0.212 0.113 0.381 0.268 0.466 0.071 0.042 0.155 0.056 0.226 0.056 0.099 0 0.198-0.028 0.282-0.085 0.169-0.113 0.268-0.296 0.24-0.466 0.014-0.183-0.085-0.353-0.254-0.437M27.429 23.605c0.085 0.071 0.198 0.113 0.31 0.113 0.071 0 0.127-0.014 0.198-0.042 0.183-0.085 0.31-0.254 0.325-0.409 0.042-0.198-0.056-0.409-0.24-0.522-0.169-0.113-0.367-0.113-0.522-0.014-0.155 0.085-0.254 0.254-0.254 0.437-0.028 0.169 0.056 0.353 0.183 0.437"></path>
</svg>
