<?xml version="1.0" encoding="utf-8"?>
<!-- Generator: Adobe Illustrator 22.0.1, SVG Export Plug-In . SVG Version: 6.00 Build 0)  -->
<svg version="1.1" id="Layer_1" xmlns="http://www.w3.org/2000/svg" xmlns:xlink="http://www.w3.org/1999/xlink" x="0px" y="0px"
	 viewBox="0 0 226.8 226.8" style="enable-background:new 0 0 226.8 226.8;" xml:space="preserve">
<style type="text/css">
	.st0{stroke:#FFFFFF;stroke-miterlimit:10;}
</style>
<g>
	<path class="st0" d="M209.8,54.9c-0.2-0.1-0.5-0.3-0.7-0.4C193.7,45.7,178.3,36.8,163,28c-16.1-9.2-32.2-18.5-48.3-27.7L114.1,0
		l-0.6,0.2c-1.1,0.4-1.9,0.8-2.7,1.2c-14,8.2-28,16.4-42,24.6C51.5,36.2,34,46.4,16.8,56.6c-2.2,1-2.1,3.3-2.1,4.6c0,0.3,0,0.6,0,1
		c0,25.8-0.1,51.5-0.1,77.3l-0.1,28.7c-0.1,1.7,0.6,3.2,1.9,3.8c20,11.3,39.9,22.7,59.9,34l35.3,20.1c0.8,0.5,1.6,0.8,2.3,0.8
		c0.6,0,1.2-0.2,1.7-0.6l51.2-29.5c14.5-8.4,29.1-16.8,43.5-25.1c1.6-0.7,2.6-2.4,2.4-3.9l0.2-108.6C213.1,56.7,211,55.6,209.8,54.9
		 M113.8,61.7l42.1,24.5l-42,24.2l-14.3-8.1c-9.4-5.3-18.9-10.7-28.3-16L113.8,61.7 M161.6,82.9l-45.7-26.6
		c-1.3-0.9-2.9-0.9-4.1-0.1L65.5,83L23.4,59.3l29.4-17.2c20.4-11.9,40.7-23.8,61.1-35.7c18.7,10.8,37.4,21.5,56.1,32.2
		c11.4,6.6,22.8,13.1,34.3,19.7L161.6,82.9 M20.5,64.3L62.4,88l0.9,52.3c-0.1,1.6,0.7,3.1,2,3.7c9.3,5.3,18.6,10.7,27.9,16
		l17.9,10.3l0,48.8l-90.6-51.5L20.5,64.3 M68.2,91.3l42.8,24.2l-0.1,48.1L69,139.5L68.2,91.3 M116.7,170.2l17.9-10.3
		c9.2-5.3,18.4-10.5,27.6-15.8l0.3-0.2c0.5-0.3,1.2-0.7,1.6-1.4l0.3-0.4v-0.4c-0.1-11.5-0.1-23.3-0.1-34.6c0-6.4,0-12.8,0-19.1
		l42.8-24.7l-0.1,42.1l-0.1,61.5c-19.1,11-38.3,22-57.4,33l-32.9,19L116.7,170.2 M116.7,163.6l0-48.1l42.2-24.3v48.2
		C144.9,147.4,130.8,155.5,116.7,163.6"/>
	<path class="st0" d="M112.5,12.1c-1.2,0.1-2.3,0.9-2.9,2.1c-0.6,1.2-0.5,2.6,0.2,3.6c0.7,1.1,1.9,1.7,3.2,1.7c0.2,0,0.5,0,0.8-0.1
		c1.6-0.3,2.7-1.3,3-2.7c0.3-1.2,0-2.5-0.9-3.4C115.1,12.3,113.8,11.9,112.5,12.1 M115,27.9c-1.3-0.7-2.8-0.7-4,0.1
		c-1,0.6-1.7,1.6-1.8,2.9c-0.1,1.2,0.4,2.4,1.2,3c0.7,0.7,1.6,1,2.6,1c0.6,0,1.1-0.1,1.7-0.4c1.4-0.6,2.3-1.9,2.3-3.3
		C117,29.9,116.2,28.6,115,27.9 M115.1,43.5c-1.3-0.8-2.8-0.8-4-0.1c-1.1,0.6-1.8,1.6-1.9,2.9c-0.1,1.3,0.5,2.6,1.4,3.2
		c0.7,0.5,1.5,0.8,2.4,0.8c0.6,0,1.1-0.1,1.7-0.4c1.3-0.6,2.2-1.7,2.2-3C117,45.5,116.3,44.3,115.1,43.5 M53.5,145.2
		c-1.3,0.4-2.3,1.4-2.6,2.8c-0.3,1.4,0.2,2.9,1.2,3.6c0.6,0.6,1.4,0.9,2.3,0.9c0.3,0,0.6,0,0.8-0.1c1.2-0.3,2.2-1.1,2.6-2.1
		c0.6-1.3,0.4-2.9-0.6-4C56.2,145.2,54.8,144.8,53.5,145.2 M170.7,152.6c0.3,0,0.6,0,0.9-0.1c1.2-0.3,2.1-1.1,2.4-2.1
		c0.7-1.3,0.4-2.9-0.6-4.1c-1-1.1-2.4-1.5-3.7-1.1c-1.3,0.4-2.2,1.5-2.5,2.9c-0.3,1.4,0.2,2.8,1.2,3.6
		C169,152.3,169.8,152.6,170.7,152.6 M40.3,153c-1.3,0.5-2.2,1.7-2.4,3.2c-0.1,1.5,0.6,3,1.8,3.6c0.5,0.3,1.2,0.5,1.8,0.5
		c0.5,0,1-0.1,1.6-0.4c1.2-0.5,2-1.6,2.1-2.7c0.3-1.3-0.2-2.8-1.3-3.7C42.7,152.8,41.4,152.6,40.3,153 M183.6,160.3
		c0.4,0,0.9-0.1,1.3-0.2c1.3-0.5,2.2-1.6,2.3-2.7c0.4-1.3-0.1-2.7-1.1-3.7c-1-0.9-2.4-1.2-3.6-0.8c-1.2,0.4-2.2,1.5-2.4,2.9
		c-0.2,1.4,0.3,2.8,1.3,3.6C182,160,182.8,160.3,183.6,160.3 M30.3,161.1c-1.1-0.6-2.4-0.6-3.5,0c-1.2,0.6-1.9,1.9-1.9,3.3
		c0,1.5,0.8,2.7,1.9,3.3c0.5,0.3,1.1,0.4,1.6,0.4c0.7,0,1.4-0.2,2-0.6c1.2-0.8,1.9-2.1,1.7-3.3C32.2,162.9,31.5,161.7,30.3,161.1
		 M194.4,167.3c0.6,0.5,1.4,0.8,2.2,0.8c0.5,0,0.9-0.1,1.4-0.3c1.3-0.6,2.2-1.8,2.3-2.9c0.3-1.4-0.4-2.9-1.7-3.7
		c-1.2-0.8-2.6-0.8-3.7-0.1c-1.1,0.6-1.8,1.8-1.8,3.1C192.9,165.4,193.5,166.7,194.4,167.3"/>
</g>
</svg>
