<?xml version="1.0" encoding="utf-8"?>
<!-- Generator: Adobe Illustrator 22.1.0, SVG Export Plug-In . SVG Version: 6.00 Build 0)  -->
<svg version="1.1" id="Layer_1" xmlns="http://www.w3.org/2000/svg" xmlns:xlink="http://www.w3.org/1999/xlink" x="0px" y="0px"
	 viewBox="0 0 250 250" style="enable-background:new 0 0 250 250;" xml:space="preserve">
<style type="text/css">
	.st0{stroke:#FFFFFF;stroke-miterlimit:10;}
</style>
<path class="st0" d="M122.3,249.4c-1.3-0.3-2.6-0.5-3.9-0.5c-2.9-0.3-6-0.3-8.9-0.8c-4.7-0.8-9.2-1.6-13.6-2.6
	c-4.7-1.3-9.4-2.9-13.9-4.4c-7.3-2.4-14.4-5.8-20.7-10.2c-5.2-3.4-10.5-7.1-15.4-11.3c-4.4-3.9-8.6-8.4-12.8-12.6
	c-2.6-2.9-5.2-6-7.6-9.4c-3.1-4.4-6-8.9-8.6-13.6c-2.4-4.2-4.4-8.4-6.3-12.8c-1.6-3.9-2.9-7.9-4.2-12c-1-3.4-1.8-7.1-2.6-10.5
	s-1-6.8-1.6-10.2c-0.3-2.4-0.3-5-0.5-7.3c0-0.3-0.3-0.3-0.3-0.5v-12c0.3-1.3,0.5-2.6,0.5-3.9c0.3-5.5,1.3-11,2.4-16.5
	c1.6-7.9,4.2-15.7,7.3-23c3.9-8.9,8.9-17.3,14.7-25.1c2.4-3.1,5-6,7.6-8.9c3.1-3.4,6.3-6.5,9.7-9.7c6-5.2,12.6-9.9,19.6-14.1
	c5.8-3.4,11.8-6.3,18.1-8.6c5-1.8,9.9-3.4,14.9-4.7c3.7-1,7.3-1.6,11.3-2.1c3.1-0.5,6.5-0.5,9.9-0.8c3.1-0.3,6.5-0.5,9.7-0.5
	c3.9,0,7.9,0.5,11.8,1c3.4,0.3,7.1,0.8,10.5,1.3c2.4,0.3,4.7,0.8,7.1,1.6c4.4,1.3,8.9,2.6,13.3,4.2c3.1,1,6,2.6,9.2,3.9
	c2.9,1.3,5.8,2.6,8.4,4.4c4.4,2.6,8.9,5.5,13.1,8.6c3.7,2.6,7.1,5.5,10.2,8.6c3.4,3.1,6.8,6.5,9.7,9.9c4.4,5.2,8.4,10.7,12,16.5
	c4.4,7.3,8.1,14.9,10.7,23c1.3,3.7,2.6,7.3,3.4,11.3c1,4.2,1.8,8.4,2.4,12.8c0.5,3.9,0.8,7.9,1,11.8c0,0.3,0.3,0.5,0.3,0.5v9.7
	c-0.3,1.3-0.3,2.6-0.5,4.2l-1.6,12.6c-0.5,3.1-1,6.3-1.8,9.4c-1.6,6-3.4,11.8-6,17.5c-2.6,6.3-5.8,12.3-9.7,18.1
	c-2.6,3.9-5.5,7.9-8.6,11.8c-2.6,3.1-5.2,6-8.1,8.9c-5,5.2-10.5,9.7-16.2,13.9c-6,4.4-12.6,8.1-19.4,11.3
	c-6.8,3.1-13.9,5.8-20.9,7.6c-4.4,1-8.9,1.8-13.3,2.6c-3.7,0.5-7.3,0.8-11,1c-1,0-2.4,0.3-3.4,0.5
	C127.3,249.4,124.9,249.4,122.3,249.4z M126,245.8c32.7-0.3,61-11.8,84.5-34.5c22.5-22,35.1-49.5,36.1-81.1
	c1.6-37.9-12.3-70.1-40.6-95.5c-22-19.9-48.4-30.1-78-30.6c-34.8-0.5-64.6,11.8-89,36.9c-22,22.5-33.5,49.7-34,81.4
	c-0.8,37.2,13.3,68.6,40.8,93.4C68.6,235.8,95.3,245.5,126,245.8L126,245.8z"/>
<path class="st0" d="M86.2,50.5c1.3-0.3,2.4-0.3,3.7-0.5c0.5,0,1.3-0.3,1.8-0.3h110.7c1.6-0.3,2.6,0.5,3.4,1.8
	c3.1,5.2,5.2,10.7,6.8,16.5c1,3.7,1.3,7.6,2.1,11.3c0.3,1.3,0.3,2.6,0.3,3.7c0,0.5-0.3,1.3-0.8,1.8l-9.4,7.9
	c-2.9,2.4-5.5,4.7-8.1,7.1c-0.8,0.5-1.6,1.3-2.4,1.8c0,0,0,0.3,0.3,0.3h20.4c0,1.6,0.3,3.1,0.3,4.4c0,7.3,0.3,14.7,0.3,22
	c0,3.7-0.3,7.1-0.5,10.7c0,0.5-0.3,0.8-0.8,1.3c-3.9,3.4-7.9,6.5-11.8,9.9c-2.6,2.9-5.5,5.5-8.6,8.1h19.4c-0.3,2.4-0.3,4.4-0.5,6.8
	s-0.5,4.7-1,7.1c-0.3,1.8-0.5,3.9-0.8,5.8l-1.6,8.6c-0.5,2.1-1,4.4-1.8,6.3c-0.3,0.8-1.3,1.6-2.4,2.1c-5.2,3.1-10.2,6-15.4,9.2
	c-5,2.9-9.9,5.5-14.7,8.1c-1.3,0.8-2.4,1.3-3.7,2.1c-1.6,0.8-3.1,1.6-5.2,1.6h-59.4c-4.2,0-8.4-0.8-12.6-1.6
	c-4.4-1-8.4-2.6-12.3-4.7c-3.1-1.8-6-4.2-9.2-6.3c-2.1-1.6-3.9-3.4-5.8-5.2c-2.4-2.4-4.4-5-6.3-7.3c-2.6-3.4-5.2-6.8-7.3-10.5
	c-3.9-6.3-8.4-12.3-11.5-19.1c-2.1-5-4.2-9.9-6-14.9c-1.3-3.9-1.8-7.9-2.4-12c-0.5-3.7-0.8-7.3-0.8-10.7c0-3.4,0.5-6.8,1-10.2
	c0-0.3,0-0.8-0.3-1c-6.5,23.3-2.1,45,9.2,66c-1.3-1.3-2.6-2.6-3.7-4.2c-2.1-2.9-4.4-5.8-6.3-8.6c-2.6-4.4-5-8.9-7.1-13.6
	c-1.8-4.2-3.1-8.4-4.4-12.6c-0.8-3.1-1.3-6.3-1.6-9.2c-0.5-3.7-0.8-7.1-0.8-10.7c0-3.4,0.5-6.8,1-10.2c0.8-4.2,1.6-8.4,2.6-12.6
	c0.5-2.6,1.6-5.2,2.6-7.9c1.6-3.7,2.9-7.3,4.7-10.7c2.1-3.7,4.4-7.3,6.8-10.7c1.8-2.6,3.9-5,6.3-7.3c2.9-3.1,6-6.3,9.2-9.2
	c3.4-3.1,7.3-5.8,11-8.4c5.8-4.2,12.3-7.6,18.8-10.2c4.4-1.8,8.9-3.4,13.3-4.7c4.7-1.3,9.4-2.1,14.1-2.9c7.6-1.3,15.4-1.6,23.3-1.3
	c4.4,0.3,9.2,1,13.6,1.6c1.8,0.3,3.9,0.3,5.8,0.8c5,1.3,9.9,2.9,14.7,4.2c0.5,0.3,1,0.5,1.8,0.8c-30.1-2.9-57.3,5-82.7,20.2
	C86.2,50.3,86.2,50.5,86.2,50.5L86.2,50.5z M76,140.3c1,2.1,2.1,3.9,3.1,5.5c2.4,3.4,4.7,6.8,7.3,10.2c0.8,1,1,2.4,2.9,2.4h98.1
	c0.5,0,1,0,1.3-0.3c3.4-2.9,6.8-5.5,9.9-8.4c3.1-2.6,6.3-5.5,9.7-8.1c0.3-0.3,0.8-0.5,1.6-1C164.9,140.3,120.7,140.3,76,140.3
	L76,140.3z M209.2,84.6c-0.8-0.3-1.3-0.3-2.1-0.3H90.9c-2.1,0-3.7,0.8-5.2,2.1c-3.1,2.9-5.5,6.5-7.3,10.2c-1,1.6-1.6,3.4-2.6,5.5
	h110.4c1.3,0,2.9,0,3.7-1.3c0.5-0.8,1.3-1.3,2.1-1.8c5-4.2,9.7-8.1,14.7-12.3C207.6,86.1,208.4,85.4,209.2,84.6z M200.3,194.2
	c-0.5-0.3-1-0.3-1.6-0.3H94.5c-5.2,0-10.5-0.3-15.7-0.5c-4.4-0.3-8.6-1.8-12.6-3.9c-1.3-0.8-2.6-1.6-4.2-2.4c0.5,0.5,0.5,1,0.8,1.3
	c3.4,3.4,6.8,7.1,10.2,10.2c3.9,3.7,8.1,6.5,12.8,8.9c5,2.6,10.2,4.2,15.7,4.4c3.4,0.3,7.1,0.3,10.5,0.3h53.4c1.3,0,2.4-0.3,3.7-0.8
	c2.1-1,4.2-2.4,6.5-3.4c7.3-3.9,14.7-8.1,22-12C198.4,195.3,199.5,194.7,200.3,194.2L200.3,194.2z"/>
</svg>
