<!-- Generated by IcoMoon.io -->
<svg version="1.1" xmlns="http://www.w3.org/2000/svg" width="32" height="32" viewBox="0 0 32 32">
<title>ENJ</title>
<path d="M15.654 31.923c-0.166-0.038-0.333-0.064-0.499-0.064-0.371-0.038-0.768-0.038-1.139-0.102-0.602-0.102-1.178-0.205-1.741-0.333-0.602-0.166-1.203-0.371-1.779-0.563-0.934-0.307-1.843-0.742-2.65-1.306-0.666-0.435-1.344-0.909-1.971-1.446-0.563-0.499-1.101-1.075-1.638-1.613-0.333-0.371-0.666-0.768-0.973-1.203-0.397-0.563-0.768-1.139-1.101-1.741-0.307-0.538-0.563-1.075-0.806-1.638-0.205-0.499-0.371-1.011-0.538-1.536-0.128-0.435-0.23-0.909-0.333-1.344s-0.128-0.87-0.205-1.306c-0.038-0.307-0.038-0.64-0.064-0.934 0-0.038-0.038-0.038-0.038-0.064v-1.536c0.038-0.166 0.064-0.333 0.064-0.499 0.038-0.704 0.166-1.408 0.307-2.112 0.205-1.011 0.538-2.010 0.934-2.944 0.499-1.139 1.139-2.214 1.882-3.213 0.307-0.397 0.64-0.768 0.973-1.139 0.397-0.435 0.806-0.832 1.242-1.242 0.768-0.666 1.613-1.267 2.509-1.805 0.742-0.435 1.51-0.806 2.317-1.101 0.64-0.23 1.267-0.435 1.907-0.602 0.474-0.128 0.934-0.205 1.446-0.269 0.397-0.064 0.832-0.064 1.267-0.102 0.397-0.038 0.832-0.064 1.242-0.064 0.499 0 1.011 0.064 1.51 0.128 0.435 0.038 0.909 0.102 1.344 0.166 0.307 0.038 0.602 0.102 0.909 0.205 0.563 0.166 1.139 0.333 1.702 0.538 0.397 0.128 0.768 0.333 1.178 0.499 0.371 0.166 0.742 0.333 1.075 0.563 0.563 0.333 1.139 0.704 1.677 1.101 0.474 0.333 0.909 0.704 1.306 1.101 0.435 0.397 0.87 0.832 1.242 1.267 0.563 0.666 1.075 1.37 1.536 2.112 0.563 0.934 1.037 1.907 1.37 2.944 0.166 0.474 0.333 0.934 0.435 1.446 0.128 0.538 0.23 1.075 0.307 1.638 0.064 0.499 0.102 1.011 0.128 1.51 0 0.038 0.038 0.064 0.038 0.064v1.242c-0.038 0.166-0.038 0.333-0.064 0.538l-0.205 1.613c-0.064 0.397-0.128 0.806-0.23 1.203-0.205 0.768-0.435 1.51-0.768 2.24-0.333 0.806-0.742 1.574-1.242 2.317-0.333 0.499-0.704 1.011-1.101 1.51-0.333 0.397-0.666 0.768-1.037 1.139-0.64 0.666-1.344 1.242-2.074 1.779-0.768 0.563-1.613 1.037-2.483 1.446-0.87 0.397-1.779 0.742-2.675 0.973-0.563 0.128-1.139 0.23-1.702 0.333-0.474 0.064-0.934 0.102-1.408 0.128-0.128 0-0.307 0.038-0.435 0.064-0.307 0.013-0.614 0.013-0.947 0.013zM16.128 31.462c4.186-0.038 7.808-1.51 10.816-4.416 2.88-2.816 4.493-6.336 4.621-10.381 0.205-4.851-1.574-8.973-5.197-12.224-2.816-2.547-6.195-3.853-9.984-3.917-4.454-0.064-8.269 1.51-11.392 4.723-2.816 2.88-4.288 6.362-4.352 10.419-0.102 4.762 1.702 8.781 5.222 11.955 2.918 2.56 6.336 3.802 10.266 3.84v0z"></path>
<path d="M11.034 6.464c0.166-0.038 0.307-0.038 0.474-0.064 0.064 0 0.166-0.038 0.23-0.038h14.17c0.205-0.038 0.333 0.064 0.435 0.23 0.397 0.666 0.666 1.37 0.87 2.112 0.128 0.474 0.166 0.973 0.269 1.446 0.038 0.166 0.038 0.333 0.038 0.474 0 0.064-0.038 0.166-0.102 0.23l-1.203 1.011c-0.371 0.307-0.704 0.602-1.037 0.909-0.102 0.064-0.205 0.166-0.307 0.23 0 0 0 0.038 0.038 0.038h2.611c0 0.205 0.038 0.397 0.038 0.563 0 0.934 0.038 1.882 0.038 2.816 0 0.474-0.038 0.909-0.064 1.37 0 0.064-0.038 0.102-0.102 0.166-0.499 0.435-1.011 0.832-1.51 1.267-0.333 0.371-0.704 0.704-1.101 1.037h2.483c-0.038 0.307-0.038 0.563-0.064 0.87s-0.064 0.602-0.128 0.909c-0.038 0.23-0.064 0.499-0.102 0.742l-0.205 1.101c-0.064 0.269-0.128 0.563-0.23 0.806-0.038 0.102-0.166 0.205-0.307 0.269-0.666 0.397-1.306 0.768-1.971 1.178-0.64 0.371-1.267 0.704-1.882 1.037-0.166 0.102-0.307 0.166-0.474 0.269-0.205 0.102-0.397 0.205-0.666 0.205h-7.603c-0.538 0-1.075-0.102-1.613-0.205-0.563-0.128-1.075-0.333-1.574-0.602-0.397-0.23-0.768-0.538-1.178-0.806-0.269-0.205-0.499-0.435-0.742-0.666-0.307-0.307-0.563-0.64-0.806-0.934-0.333-0.435-0.666-0.87-0.934-1.344-0.499-0.806-1.075-1.574-1.472-2.445-0.269-0.64-0.538-1.267-0.768-1.907-0.166-0.499-0.23-1.011-0.307-1.536-0.064-0.474-0.102-0.934-0.102-1.37s0.064-0.87 0.128-1.306c0-0.038 0-0.102-0.038-0.128-0.832 2.982-0.269 5.76 1.178 8.448-0.166-0.166-0.333-0.333-0.474-0.538-0.269-0.371-0.563-0.742-0.806-1.101-0.333-0.563-0.64-1.139-0.909-1.741-0.23-0.538-0.397-1.075-0.563-1.613-0.102-0.397-0.166-0.806-0.205-1.178-0.064-0.474-0.102-0.909-0.102-1.37 0-0.435 0.064-0.87 0.128-1.306 0.102-0.538 0.205-1.075 0.333-1.613 0.064-0.333 0.205-0.666 0.333-1.011 0.205-0.474 0.371-0.934 0.602-1.37 0.269-0.474 0.563-0.934 0.87-1.37 0.23-0.333 0.499-0.64 0.806-0.934 0.371-0.397 0.768-0.806 1.178-1.178 0.435-0.397 0.934-0.742 1.408-1.075 0.742-0.538 1.574-0.973 2.406-1.306 0.563-0.23 1.139-0.435 1.702-0.602 0.602-0.166 1.203-0.269 1.805-0.371 0.973-0.166 1.971-0.205 2.982-0.166 0.563 0.038 1.178 0.128 1.741 0.205 0.23 0.038 0.499 0.038 0.742 0.102 0.64 0.166 1.267 0.371 1.882 0.538 0.064 0.038 0.128 0.064 0.23 0.102-3.853-0.371-7.334 0.64-10.586 2.586 0.090-0.102 0.090-0.077 0.090-0.077v0zM9.728 17.958c0.128 0.269 0.269 0.499 0.397 0.704 0.307 0.435 0.602 0.87 0.934 1.306 0.102 0.128 0.128 0.307 0.371 0.307h12.557c0.064 0 0.128 0 0.166-0.038 0.435-0.371 0.87-0.704 1.267-1.075 0.397-0.333 0.806-0.704 1.242-1.037 0.038-0.038 0.102-0.064 0.205-0.128-5.76-0.038-11.418-0.038-17.139-0.038v0zM26.778 10.829c-0.102-0.038-0.166-0.038-0.269-0.038h-14.874c-0.269 0-0.474 0.102-0.666 0.269-0.397 0.371-0.704 0.832-0.934 1.306-0.128 0.205-0.205 0.435-0.333 0.704h14.131c0.166 0 0.371 0 0.474-0.166 0.064-0.102 0.166-0.166 0.269-0.23 0.64-0.538 1.242-1.037 1.882-1.574 0.115-0.077 0.218-0.166 0.32-0.269zM25.638 24.858c-0.064-0.038-0.128-0.038-0.205-0.038h-13.338c-0.666 0-1.344-0.038-2.010-0.064-0.563-0.038-1.101-0.23-1.613-0.499-0.166-0.102-0.333-0.205-0.538-0.307 0.064 0.064 0.064 0.128 0.102 0.166 0.435 0.435 0.87 0.909 1.306 1.306 0.499 0.474 1.037 0.832 1.638 1.139 0.64 0.333 1.306 0.538 2.010 0.563 0.435 0.038 0.909 0.038 1.344 0.038h6.835c0.166 0 0.307-0.038 0.474-0.102 0.269-0.128 0.538-0.307 0.832-0.435 0.934-0.499 1.882-1.037 2.816-1.536 0.102-0.090 0.243-0.166 0.346-0.23v0z"></path>
</svg>
