<!-- Generated by IcoMoon.io -->
<svg version="1.1" xmlns="http://www.w3.org/2000/svg" width="32" height="32" viewBox="0 0 32 32">
<title>ENTERPRISE</title>
<path d="M0.307 16.192c0.205 0.832 0.883 1.19 1.6 1.446 1.126 0.397 2.291 0.32 3.456 0.141 2.266-0.371 4.39-1.19 6.451-2.163 3.046-1.434 5.901-3.187 8.55-5.274 1.459-1.152 2.842-2.394 3.942-3.904 0.205-0.294 0.397-0.602 0.563-0.922 0.55-1.062 0.538-1.523-0.026-2.534 1.139 0.282 1.779 1.549 1.37 2.752-0.384 1.114-1.075 2.035-1.856 2.893-1.843 2.035-4.045 3.648-6.362 5.094-2.765 1.728-5.683 3.136-8.755 4.198-2.010 0.691-4.058 1.28-6.208 1.165-0.563-0.026-1.139-0.166-1.677-0.358-0.653-0.23-1.011-0.717-0.986-1.446 0-0.166-0.038-0.32-0.051-0.486-0.013-0.192-0.013-0.397-0.013-0.602z"></path>
<path d="M16.755 0.192c0.154 0.051 0.32 0.090 0.474 0.141 0.627 0.23 0.883 0.704 0.73 1.37-0.128 0.55-0.422 1.024-0.781 1.459-1.011 1.28-2.304 2.266-3.635 3.174-0.333 0.23-0.858-0.013-0.909-0.41-0.013-0.102 0.102-0.269 0.192-0.346 0.64-0.512 1.318-0.986 1.946-1.523 0.742-0.627 1.408-1.331 1.766-2.266 0.269-0.73 0-1.229-0.742-1.434-0.23-0.064-0.474-0.115-0.717-0.166 0.563 0 1.114 0 1.677 0z"></path>
<path d="M14.4 31.834c0.486-0.102 0.96-0.243 1.446-0.282 1.395-0.141 2.726-0.499 4.032-1.024 2.112-0.845 4.122-1.869 5.978-3.2 0.32-0.23 0.64-0.486 0.96-0.73 0.090-0.064 0.179-0.115 0.269-0.179 0.026 0.026 0.064 0.051 0.090 0.077-0.102 0.166-0.179 0.397-0.32 0.512-2.573 1.984-5.325 3.622-8.538 4.365-0.166 0.038-0.333 0.051-0.486 0.102-0.358 0.115-0.717 0.243-1.075 0.371-0.781-0.013-1.574-0.013-2.355-0.013z"></path>
<path d="M18.726 31.834c0.461-0.307 0.973-0.282 1.587-0.243-0.23 0.102-0.384 0.166-0.538 0.243-0.346 0-0.691 0-1.050 0z"></path>
<path d="M27.533 5.197c1.075 0.87 1.254 1.946 0.499 3.379-0.717 1.382-1.754 2.509-2.867 3.571-2.125 1.997-4.518 3.648-7.040 5.094-2.547 1.459-5.197 2.675-7.987 3.597-1.562 0.512-3.136 0.922-4.774 1.088-0.947 0.090-1.894 0.128-2.816-0.154-0.294-0.090-0.576-0.218-0.845-0.371-0.358-0.218-0.589-0.538-0.678-0.947-0.077-0.358-0.192-0.717-0.269-1.088 0.486 1.062 1.459 1.242 2.445 1.344 1.37 0.154 2.714-0.090 4.032-0.397 3.482-0.819 6.72-2.291 9.83-4.032 2.355-1.318 4.582-2.816 6.605-4.595 1.267-1.114 2.47-2.278 3.302-3.763 0.269-0.474 0.474-0.998 0.576-1.51 0.102-0.422 0-0.858-0.013-1.216z"></path>
<path d="M2.010 22.899c0.461 0.346 0.96 0.627 1.51 0.666 0.909 0.064 1.83 0.154 2.739 0.051 2.906-0.333 5.619-1.331 8.269-2.509 3.226-1.434 6.246-3.187 9.050-5.338 0.614-0.474 1.19-0.973 1.792-1.472 0.384-0.32 0.627-0.333 0.858-0.090 0.269 0.294 0.307 0.832 0.013 1.101-0.448 0.41-0.909 0.806-1.382 1.178-2.112 1.677-4.365 3.136-6.746 4.39-2.765 1.472-5.645 2.701-8.691 3.482-1.357 0.346-2.739 0.589-4.147 0.538-0.896-0.038-1.754-0.179-2.496-0.755-0.435-0.307-0.538-0.794-0.768-1.242z"></path>
<path d="M1.664 9.562c-0.026 0.064-0.038 0.128-0.064 0.192-0.282 0.883 0.064 1.498 0.96 1.754 0.717 0.205 1.446 0.179 2.176 0.077 2.227-0.282 4.275-1.101 6.272-2.086 2.074-1.011 4.019-2.227 5.773-3.712 0.998-0.845 1.933-1.741 2.547-2.906 0.179-0.333 0.294-0.73 0.346-1.114 0.077-0.563-0.23-0.96-0.742-1.216 0.653 0.077 1.344 0.077 1.805 0.64 0.422 0.512 0.346 1.101 0.115 1.664-0.474 1.126-1.28 1.997-2.15 2.829-1.587 1.523-3.392 2.739-5.286 3.84-2.214 1.293-4.518 2.342-6.989 3.021-1.114 0.307-2.253 0.538-3.418 0.435-0.435-0.038-0.896-0.166-1.293-0.346-0.486-0.218-0.73-0.653-0.678-1.216 0.064-0.666 0.307-1.267 0.627-1.856z"></path>
<path d="M22.131 1.485c0.64 0.218 1.318 0.371 1.6 1.075 0.243 0.602 0.128 1.203-0.128 1.766-0.41 0.909-1.011 1.69-1.69 2.419-1.856 1.984-4.058 3.546-6.362 4.941-2.33 1.408-4.8 2.534-7.386 3.418-0.23 0.077-0.474 0.154-0.704 0.23-0.422 0.128-0.678-0.038-0.73-0.486-0.051-0.461 0.141-0.691 0.589-0.87 1.536-0.602 3.085-1.152 4.582-1.843 2.573-1.178 4.954-2.688 7.142-4.493 1.050-0.87 2.061-1.805 2.816-2.97 0.32-0.486 0.55-1.037 0.755-1.574 0.218-0.55 0.064-1.075-0.371-1.498-0.051-0.026-0.090-0.064-0.115-0.115z"></path>
<path d="M30.912 10.931c0.41 0.909 0.474 1.882 0.026 2.88-0.448 1.011-1.101 1.882-1.843 2.688-1.664 1.818-3.597 3.328-5.658 4.659-1.293 0.832-2.65 1.574-3.981 2.355-0.102 0.064-0.218 0.115-0.346 0.141-0.269 0.051-0.525 0.026-0.691-0.23-0.141-0.218-0.090-0.563 0.115-0.768 0.115-0.115 0.256-0.218 0.397-0.294 1.882-1.011 3.699-2.125 5.414-3.379 1.869-1.37 3.635-2.842 5.069-4.672 0.538-0.678 1.024-1.395 1.28-2.24 0.115-0.384 0.154-0.794 0.218-1.139z"></path>
<path d="M8.883 29.837c2.061 0.486 4.045 0.051 5.99-0.525 4.237-1.267 8.077-3.328 11.622-5.952 1.472-1.088 2.842-2.291 3.93-3.776 0.512-0.691 0.934-1.434 1.139-2.355 0 1.267-0.090 1.933-1.037 3.251-1.126 1.574-2.586 2.816-4.134 3.955-3.238 2.381-6.771 4.186-10.598 5.414-1.459 0.474-2.931 0.794-4.48 0.768-0.896-0.013-1.664-0.371-2.432-0.781z"></path>
<path d="M12.237 31.13c0.896-0.090 1.741-0.128 2.573-0.256 1.37-0.218 2.675-0.64 3.968-1.152 3.238-1.28 6.246-2.97 8.934-5.197 1.165-0.96 2.227-2.010 3.008-3.328 0.026 0.013 0.064 0.038 0.090 0.051-0.192 0.384-0.358 0.794-0.589 1.165-0.858 1.382-2.022 2.47-3.29 3.443-2.56 1.971-5.376 3.469-8.41 4.544-1.562 0.55-3.162 0.998-4.851 0.909-0.474 0-0.922-0.102-1.434-0.179z"></path>
<path d="M6.003 28.006c1.715 0.742 3.379 0.499 5.043 0.179 1.651-0.307 3.238-0.845 4.813-1.446 0.32-0.128 0.627-0.102 0.909 0.115 0.205 0.166 0.23 0.371 0.026 0.55-0.128 0.115-0.294 0.192-0.448 0.256-1.51 0.576-3.046 1.075-4.634 1.382-1.139 0.218-2.278 0.346-3.43 0.205-0.909-0.115-1.587-0.589-2.278-1.242z"></path>
<path d="M31.578 14.157c0.218 0.858 0.179 1.677-0.205 2.483-0.576 1.19-1.408 2.202-2.368 3.098-0.883 0.819-1.83 1.587-2.765 2.368-0.128 0.115-0.282 0.218-0.435 0.282-0.282 0.115-0.499-0.013-0.538-0.32-0.038-0.333 0.115-0.563 0.384-0.755 1.344-0.986 2.637-2.048 3.75-3.302 0.55-0.614 1.037-1.306 1.51-1.984 0.358-0.55 0.589-1.178 0.666-1.869z"></path>
<path d="M5.709 4.122c-0.128 0.154-0.294 0.294-0.397 0.461-0.154 0.243-0.307 0.499-0.384 0.768-0.115 0.371 0.077 0.64 0.448 0.742 0.627 0.166 1.254 0.026 1.856-0.128 1.062-0.256 2.074-0.678 3.008-1.254 0.243-0.154 0.448-0.166 0.653 0.051 0.218 0.243 0.205 0.474-0.090 0.627-0.64 0.346-1.267 0.691-1.933 0.973-1.050 0.461-2.138 0.832-3.29 0.896-0.32 0.013-0.64 0-0.947-0.077-0.576-0.141-0.794-0.614-0.576-1.178 0.269-0.614 1.024-1.536 1.651-1.882z"></path>
<path d="M3.085 7.014c-0.026 0.294-0.077 0.589-0.064 0.87 0.013 0.358 0.23 0.602 0.576 0.742 0.55 0.218 1.114 0.205 1.677 0.115 0.691-0.115 1.37-0.294 2.048-0.461 0.384-0.090 0.512 0 0.486 0.397-0.038 0.461-0.282 0.755-0.704 0.883-1.114 0.358-2.253 0.576-3.43 0.486-0.256-0.013-0.525-0.102-0.768-0.205-0.602-0.256-0.832-0.627-0.627-1.254 0.179-0.563 0.499-1.088 0.755-1.638 0 0.026 0.026 0.038 0.051 0.064z"></path>
<path d="M3.635 25.574c0.73 0.563 1.574 0.755 2.458 0.755 0.755 0 1.523-0.051 2.278-0.128 0.474-0.051 0.858 0.077 1.126 0.461 0.192 0.269 0.090 0.538-0.218 0.576-1.139 0.166-2.278 0.23-3.405 0.013-0.73-0.141-1.331-0.461-1.754-1.101-0.141-0.192-0.32-0.384-0.486-0.576z"></path>
<path d="M12.966 2.662c0.102-0.154 0.205-0.269 0.269-0.397 0.115-0.192 0.23-0.397 0.307-0.602 0.154-0.422-0.026-0.755-0.461-0.845-0.307-0.064-0.627-0.038-0.947-0.051-0.115 0-0.218 0.026-0.333 0.013 0.768-0.218 1.536-0.435 2.342-0.294 0.704 0.128 0.96 0.589 0.691 1.242-0.090 0.218-0.218 0.422-0.32 0.627-0.32 0.64-0.896 0.614-1.549 0.307z"></path>
<path d="M0.602 13.069c0.064 0.55 0.32 0.973 0.781 1.28 0.243 0.166 0.269 0.998 0.038 1.203-0.064 0.051-0.256 0.038-0.346-0.013-0.474-0.294-0.768-0.704-0.704-1.306 0.038-0.384 0.077-0.768 0.115-1.152 0.038-0.013 0.077-0.013 0.115-0.013z"></path>
<path d="M29.658 8.013c0.243 0.512 0.627 0.909 0.563 1.51-0.384-0.179-0.678-0.934-0.563-1.51z"></path>
<path d="M8.653 1.958c0.563-0.256 1.126-0.512 1.69-0.768 0.013 0.026 0.026 0.038 0.026 0.064-0.55 0.269-1.114 0.538-1.664 0.819-0.026-0.051-0.038-0.090-0.051-0.115z"></path>
</svg>
