<?xml version="1.0" encoding="utf-8"?>
<!-- Generator: Adobe Illustrator 22.1.0, SVG Export Plug-In . SVG Version: 6.00 Build 0)  -->
<svg version="1.1" id="Layer_1" xmlns="http://www.w3.org/2000/svg" xmlns:xlink="http://www.w3.org/1999/xlink" x="0px" y="0px"
	 viewBox="0 0 226.8 226.8" style="enable-background:new 0 0 226.8 226.8;" xml:space="preserve">
<g>
	<path d="M32.9,80.1c4,0,7.5-0.1,11.1,0c2.2,0.1,4.3,0.4,6.5,0.5c9.2,0.5,18.4,1,27.6,1.6c0.8,0.1,1.9,0.7,2.4,1.4
		c3.9,6.2,7.8,12.5,11.6,18.7c0.6,1,1.1,1.9-0.7,2.3c-7.2,1.7-14.4,3.4-21.6,5.2c-1.4,0.3-2.3,0.1-3.3-0.8
		C55.7,99.9,45,90.8,34.3,81.7C33.8,81.3,33.5,80.8,32.9,80.1z"/>
	<path d="M193.8,79c-0.7,0.9-0.9,1.4-1.3,1.8c-7.2,6.3-14.4,12.5-21.6,18.8c-3.7,3.2-7.4,6.4-11.1,9.7c-1,0.9-1.9,1.1-3.3,0.8
		c-7-1.9-14.1-3.6-21.2-5.3c-1.5-0.4-1.6-0.9-0.9-2.1c4.1-6.5,8.1-13,12.2-19.4c0.4-0.7,1.5-1.2,2.3-1.3c6.5-0.5,13.1-0.8,19.7-1.2
		c7.5-0.5,15-1.1,22.4-1.6C191.7,78.9,192.4,79,193.8,79z"/>
	<path d="M165.4,115.6c1.1-0.1,1.6-0.2,2.1-0.2c7.2,0.8,14.4,1.6,21.7,2.3c3.5,0.4,7,0.7,10.5,1c3.7,0.3,7.3,0.6,11,1
		c0.7,0.1,1.6,0.5,2,1.1c4,7,7.9,14,12.1,21.5c-1.9,0.5-3.6,0.9-5.3,1.3c-6.1,1.2-12.3,2.4-18.5,3.5c-0.9,0.2-2.2-0.2-2.9-0.8
		c-10.4-9.5-20.7-19.1-31-28.6C166.6,117.1,166.2,116.5,165.4,115.6z"/>
	<path d="M146.9,152.6c1.6,2,3.3,3.9,4.9,5.9c7.9,9.6,15.7,19.2,23.5,28.8c0.6,0.7,0.9,2,0.7,2.9c-1.8,7-3.9,14-5.8,21.1
		c-0.5,1.8-1.1,2-2.6,0.9c-6.1-4.2-12.2-8.2-18.3-12.3c-0.8-0.5-1.5-1.8-1.5-2.8c-0.6-13.7-1.1-27.4-1.7-41.1c0-1.1,0-2.1,0-3.2
		C146.4,152.8,146.6,152.7,146.9,152.6z"/>
	<path d="M108.4,165.6c-0.4,5.1-0.8,10.2-1.2,15.3c-0.8,9.6-1.6,19.1-2.3,28.7c-0.1,1.6-0.5,2.7-2,3.5c-6.3,3.6-12.5,7.2-18.7,10.9
		c-1.4,0.8-1.9,0.2-2.2-1.1c-1.2-5.8-1.9-11.8-3.8-17.4c-1.7-5,0.3-8,3.4-11.3c8.4-9.1,16.7-18.4,25-27.6c0.4-0.4,0.9-0.8,1.3-1.2
		C108,165.3,108.2,165.5,108.4,165.6z"/>
	<path d="M12.5,174.3c1.4-2.4,2.7-4.8,4.2-7.2c2.7-4.5,5.3-9.1,8.1-13.5c0.6-0.9,2.2-1.6,3.4-1.7c6.3-0.7,12.6-1.1,19-1.7
		c7.6-0.6,15.2-1.3,22.8-1.9c0.5,0,1,0,2.1,0c-1.4,1.3-2.3,2.1-3.3,3c-10,9.2-20,18.3-29.9,27.5c-1.2,1.1-2.5,1.5-3.9,1.1
		c-7.3-1.7-14.6-3.5-21.8-5.2C13,174.7,12.9,174.6,12.5,174.3z"/>
	<path d="M193,147.4c-1.3,0-2.1,0.1-3,0c-12.9-1-25.8-2-38.6-3c-1.4-0.1-2.9-0.3-4.3-0.7c-0.8-0.2-1.6-0.8-2-1.4
		c-3.8-6.4-7.5-12.8-11.2-19.3c-0.2-0.3-0.2-0.8-0.4-1.4c4.1-0.9,8.1-1.9,12.1-2.8c3.5-0.8,7-1.4,10.5-2.3c1.5-0.4,2.6-0.3,3.8,0.8
		c6.9,6.3,13.9,12.6,20.9,18.9c3.6,3.2,7.2,6.5,10.7,9.8C192,146.2,192.3,146.6,193,147.4z"/>
	<path d="M92.4,121.6c-2.1,3.6-4.1,6.9-6,10.1c-2.1,3.5-4.3,7-6.4,10.5c-0.8,1.3-1.8,1.9-3.3,2c-3.6,0.2-7.2,0.5-10.8,0.8
		c-10.5,0.8-21,1.7-31.5,2.5c-0.4,0-0.8-0.1-1.7-0.2c0.7-0.8,1.1-1.4,1.6-1.9c9.6-8.7,19.3-17.4,28.8-26.2c2.8-2.6,5.4-3.8,9.4-2.5
		C78.9,118.9,85.4,120,92.4,121.6z"/>
	<path d="M81.7,31c1.9,2.2,3.5,3.9,4.9,5.7C92.3,43.8,98,50.9,103.7,58c2.3,2.9,4.6,5.7,6.9,8.6c0.5,0.6,0.8,1.6,0.6,2.3
		c-2,7.3-4.2,14.6-6.3,21.8c-0.4,1.3-1.1,1.3-2.1,0.6c-6.2-4.3-12.5-8.5-18.7-12.9c-0.7-0.5-1.3-1.6-1.3-2.4
		c-0.5-14.3-0.8-28.6-1.2-42.9C81.5,32.7,81.6,32.2,81.7,31z"/>
	<path d="M152.8,77.1c1.4-1.2,2.3-2,3.2-2.7c10.3-8.9,20.6-17.9,30.8-26.8c1.1-1,2.1-1.3,3.5-0.9c7.1,1.9,14.2,3.6,21.3,5.4
		c1.1,0.3,1.4,0.9,0.8,1.9c-4.1,6.6-8.3,13.2-12.5,19.8c-0.4,0.6-1.5,1.1-2.4,1.1c-14.1,0.9-28.2,1.7-42.3,2.5
		C154.7,77.4,154.1,77.2,152.8,77.1z"/>
	<path d="M56,12.6c4.5,3,8.6,5.8,12.8,8.7c2.3,1.5,4.5,3.2,6.8,4.6c1.4,0.9,1.9,1.9,1.9,3.5c0.3,12.3,0.7,24.7,1.1,37
		c0.1,2.3,0.2,4.7,0.4,7.6c-0.8-0.8-1.3-1.1-1.6-1.5c-9.2-11.3-18.3-22.7-27.5-34c-0.9-1.1-0.9-2-0.5-3.4c1.7-5.3,3.1-10.6,4.7-16
		C54.6,17.1,55.3,15,56,12.6z"/>
	<path d="M120.2,134.1c7.1,4.6,13.9,9,20.6,13.5c0.6,0.4,1.1,1.4,1.1,2.2c0.7,14.6,1.4,29.1,2.1,43.7c0,0.3-0.1,0.5-0.3,1.3
		c-1.5-1.7-2.7-3-3.9-4.4c-7.7-9.1-15.3-18.4-23.3-27.4c-3-3.3-2.9-6.4-1.8-10.2c1.6-5.3,2.9-10.7,4.3-16
		C119.5,135.9,119.8,135.1,120.2,134.1z"/>
	<path d="M148.5,31.5c0,2,0.2,4.1,0,6.1c-0.5,5.5-1.2,11-1.8,16.6c-0.8,7.5-1.5,14.9-2.3,22.4c-0.1,0.8-0.7,1.8-1.4,2.2
		c-6.4,3.7-12.8,7.2-19.2,10.9c-1.6,0.9-1.9,0.3-2.2-1.2c-1.3-6.6-2.7-13.1-4.1-19.7c-0.5-2.4-0.3-4.4,1.7-6.5
		c9.4-9.8,18.6-19.8,27.8-29.8c0.4-0.4,0.6-1,0.8-1.5C148.1,31.1,148.3,31.3,148.5,31.5z"/>
	<path d="M61.5,110.2c-1.2,0.1-2.1,0.3-2.9,0.2c-11.9-0.7-23.8-1.5-35.6-2.3c-2.2-0.1-4.5-0.1-6.7-0.5c-1-0.2-2.2-0.8-2.8-1.7
		c-3.9-6-7.6-12.1-11.3-18.2c-0.8-1.3-0.6-1.8,1-2.2c7.3-1.8,14.6-3.7,22-5.5c0.8-0.2,1.9,0.1,2.5,0.7c11.1,9.4,22.1,18.8,33.1,28.2
		C60.9,109.2,61.1,109.6,61.5,110.2z"/>
	<path d="M77,194c-0.1-0.7-0.2-1.1-0.1-1.5c0.5-6,1-11.9,1.6-17.9c0.8-8.7,1.7-17.3,2.6-26c0.1-0.7,0.8-1.6,1.4-1.9
		c6.4-3.7,12.9-7.4,19.4-11.1c1.2-0.7,1.8-0.6,2.1,0.9c1.3,6.9,2.7,13.7,4.1,20.6c0.3,1.7,0,2.9-1.1,4.1
		c-9.5,10.5-18.9,21.1-28.4,31.6C78.1,193.2,77.7,193.5,77,194z"/>
	<path d="M116.4,59.3c0.1-1.4,0.1-2.8,0.2-4.2c0.5-4.6,1-9.3,1.6-13.9c0.7-6.4,1.5-12.7,2.2-19.1c0.3-2.5,0.6-5,0.8-7.5
		c0.1-1.6,0.7-2.6,2.2-3.4c5.9-3.2,11.8-6.4,17.6-9.7c1.5-0.9,2.2-0.5,2.5,1.2c1.3,6.8,2.7,13.6,4.1,20.4c0.4,2,0,3.6-1.6,5.2
		c-9.4,9.9-18.6,20-27.9,30c-0.4,0.4-0.9,0.8-1.3,1.3C116.8,59.4,116.6,59.3,116.4,59.3z"/>
	<path d="M83.9,27.7c11.5-5.1,22.6-10,34.3-15.2c-1.9,16.6-3.6,32.7-5.4,48.8c-0.2,0.1-0.5,0.2-0.7,0.3
		C102.8,50.5,93.6,39.4,83.9,27.7z"/>
	<path d="M61.3,115.1c-10.6,9.7-21.1,19.3-32,29.2c-0.5-0.7-0.9-1.2-1.1-1.8c-4-9.7-8-19.4-12-29.2c-0.7-1.6-0.3-2.4,1.5-2.2
		c5.5,0.4,10.9,0.7,16.4,1.1c7.1,0.5,14.3,1,21.4,1.5c1.8,0.1,3.7,0.4,5.5,0.6C61.1,114.6,61.2,114.8,61.3,115.1z"/>
	<path d="M198.1,82c2,5.3,3.8,9.9,5.6,14.5c2.1,5.4,4.2,10.9,6.3,16.3c0.9,2.3,0.7,2.6-1.8,2.4c-8.4-0.8-16.8-1.5-25.2-2.3
		c-5.7-0.5-11.5-1.1-17.2-1.7c-0.4,0-0.7-0.3-1.5-0.6C175.6,101.1,186.7,91.7,198.1,82z"/>
	<path d="M47,42.1c9.8,11.8,19.4,23.4,29,35c-0.1,0.2-0.2,0.4-0.3,0.6c-2.5-0.1-4.9-0.2-7.4-0.4C57,76.6,45.7,75.7,34.4,75
		c-2.1-0.1-2.4-0.4-1.5-2.3c4.4-9.7,8.9-19.4,13.3-29.1C46.3,43.2,46.6,42.8,47,42.1z"/>
	<path d="M148.6,148c14.4,1.2,28.8,2.4,43.8,3.6c-5,10.8-9.8,21-14.9,31.9c-10-11.9-19.6-23.4-29.2-34.9
		C148.3,148.4,148.4,148.2,148.6,148z"/>
	<path d="M141.1,197.9c-4.6,1.8-8.6,3.3-12.6,4.8c-5.9,2.2-11.8,4.2-17.6,6.4c-1.8,0.7-2.3,0.2-2.1-1.5c0.5-6.3,1-12.6,1.5-18.9
		c0.4-5.5,0.7-10.9,1.1-16.4c0.2-2.5,0.4-5,0.5-7.5c0.2-0.1,0.4-0.2,0.7-0.3C122,175.6,131.4,186.5,141.1,197.9z"/>
	<path d="M148.5,73.1c1.7-14.3,3.5-28.7,5.3-43.5c10.3,5.3,20.1,10.3,30.6,15.7c-12,9.7-23.6,19-35.1,28.3
		C149,73.4,148.7,73.2,148.5,73.1z"/>
	<path d="M42.5,181.2c11.2-10,22-19.7,33.2-29.7c0.1,1.1,0.3,1.7,0.3,2.2c-0.7,7.3-1.5,14.5-2.2,21.8c-0.5,5-0.9,10.1-1.3,15.1
		c-0.4,5.1-0.4,5.1-5,2.8c-7.3-3.6-14.7-7.1-22.1-10.6C44.6,182.3,43.8,181.9,42.5,181.2z"/>
</g>
</svg>
