<!-- Generated by IcoMoon.io -->
<svg version="1.1" xmlns="http://www.w3.org/2000/svg" width="32" height="32" viewBox="0 0 32 32">
<title>EOSDAC</title>
<path d="M4.642 11.302c0.564 0 1.058-0.014 1.566 0 0.31 0.014 0.607 0.056 0.917 0.071 1.298 0.071 2.596 0.141 3.894 0.226 0.113 0.014 0.268 0.099 0.339 0.198 0.55 0.875 1.101 1.764 1.637 2.638 0.085 0.141 0.155 0.268-0.099 0.325-1.016 0.24-2.032 0.48-3.048 0.734-0.198 0.042-0.325 0.014-0.466-0.113-1.524-1.284-3.034-2.568-4.543-3.852-0.071-0.056-0.113-0.127-0.198-0.226z"></path>
<path d="M27.344 11.146c-0.099 0.127-0.127 0.198-0.183 0.254-1.016 0.889-2.032 1.764-3.048 2.653-0.522 0.451-1.044 0.903-1.566 1.369-0.141 0.127-0.268 0.155-0.466 0.113-0.988-0.268-1.989-0.508-2.991-0.748-0.212-0.056-0.226-0.127-0.127-0.296 0.578-0.917 1.143-1.834 1.721-2.737 0.056-0.099 0.212-0.169 0.325-0.183 0.917-0.071 1.848-0.113 2.78-0.169 1.058-0.071 2.116-0.155 3.16-0.226 0.099-0.042 0.198-0.028 0.395-0.028z"></path>
<path d="M23.337 16.31c0.155-0.014 0.226-0.028 0.296-0.028 1.016 0.113 2.032 0.226 3.062 0.325 0.494 0.056 0.988 0.099 1.481 0.141 0.522 0.042 1.030 0.085 1.552 0.141 0.099 0.014 0.226 0.071 0.282 0.155 0.564 0.988 1.115 1.975 1.707 3.034-0.268 0.071-0.508 0.127-0.748 0.183-0.861 0.169-1.735 0.339-2.61 0.494-0.127 0.028-0.31-0.028-0.409-0.113-1.467-1.34-2.921-2.695-4.374-4.035-0.071-0.085-0.127-0.169-0.24-0.296z"></path>
<path d="M20.727 21.531c0.226 0.282 0.466 0.55 0.691 0.832 1.115 1.355 2.215 2.709 3.316 4.064 0.085 0.099 0.127 0.282 0.099 0.409-0.254 0.988-0.55 1.975-0.818 2.977-0.071 0.254-0.155 0.282-0.367 0.127-0.861-0.593-1.721-1.157-2.582-1.735-0.113-0.071-0.212-0.254-0.212-0.395-0.085-1.933-0.155-3.866-0.24-5.799 0-0.155 0-0.296 0-0.451 0.042 0 0.071-0.014 0.113-0.028z"></path>
<path d="M15.295 23.365c-0.056 0.72-0.113 1.439-0.169 2.159-0.113 1.355-0.226 2.695-0.325 4.049-0.014 0.226-0.071 0.381-0.282 0.494-0.889 0.508-1.764 1.016-2.638 1.538-0.198 0.113-0.268 0.028-0.31-0.155-0.169-0.818-0.268-1.665-0.536-2.455-0.24-0.705 0.042-1.129 0.48-1.594 1.185-1.284 2.356-2.596 3.527-3.894 0.056-0.056 0.127-0.113 0.183-0.169 0.014-0.014 0.042 0.014 0.071 0.028z"></path>
<path d="M1.764 24.593c0.198-0.339 0.381-0.677 0.593-1.016 0.381-0.635 0.748-1.284 1.143-1.905 0.085-0.127 0.31-0.226 0.48-0.24 0.889-0.099 1.778-0.155 2.681-0.24 1.072-0.085 2.145-0.183 3.217-0.268 0.071 0 0.141 0 0.296 0-0.198 0.183-0.325 0.296-0.466 0.423-1.411 1.298-2.822 2.582-4.219 3.88-0.169 0.155-0.353 0.212-0.55 0.155-1.030-0.24-2.060-0.494-3.076-0.734-0.028 0-0.042-0.014-0.099-0.056z"></path>
<path d="M27.231 20.797c-0.183 0-0.296 0.014-0.423 0-1.82-0.141-3.64-0.282-5.446-0.423-0.198-0.014-0.409-0.042-0.607-0.099-0.113-0.028-0.226-0.113-0.282-0.198-0.536-0.903-1.058-1.806-1.58-2.723-0.028-0.042-0.028-0.113-0.056-0.198 0.578-0.127 1.143-0.268 1.707-0.395 0.494-0.113 0.988-0.198 1.481-0.325 0.212-0.056 0.367-0.042 0.536 0.113 0.974 0.889 1.961 1.778 2.949 2.667 0.508 0.451 1.016 0.917 1.51 1.383 0.071 0.028 0.113 0.085 0.212 0.198z"></path>
<path d="M13.037 17.157c-0.296 0.508-0.578 0.974-0.847 1.425-0.296 0.494-0.607 0.988-0.903 1.481-0.113 0.183-0.254 0.268-0.466 0.282-0.508 0.028-1.016 0.071-1.524 0.113-1.481 0.113-2.963 0.24-4.444 0.353-0.056 0-0.113-0.014-0.24-0.028 0.099-0.113 0.155-0.198 0.226-0.268 1.354-1.227 2.723-2.455 4.064-3.697 0.395-0.367 0.762-0.536 1.326-0.353 0.903 0.31 1.82 0.466 2.808 0.691z"></path>
<path d="M11.527 4.374c0.268 0.31 0.494 0.55 0.691 0.804 0.804 1.002 1.608 2.004 2.413 3.005 0.325 0.409 0.649 0.804 0.974 1.213 0.071 0.085 0.113 0.226 0.085 0.325-0.282 1.030-0.593 2.060-0.889 3.076-0.056 0.183-0.155 0.183-0.296 0.085-0.875-0.607-1.764-1.199-2.638-1.82-0.099-0.071-0.183-0.226-0.183-0.339-0.071-2.018-0.113-4.035-0.169-6.053-0.014-0.056 0-0.127 0.014-0.296z"></path>
<path d="M21.559 10.878c0.198-0.169 0.325-0.282 0.451-0.381 1.453-1.256 2.907-2.526 4.346-3.781 0.155-0.141 0.296-0.183 0.494-0.127 1.002 0.268 2.004 0.508 3.005 0.762 0.155 0.042 0.198 0.127 0.113 0.268-0.578 0.931-1.171 1.862-1.764 2.794-0.056 0.085-0.212 0.155-0.339 0.155-1.989 0.127-3.979 0.24-5.968 0.353-0.071 0-0.155-0.028-0.339-0.042z"></path>
<path d="M7.901 1.778c0.635 0.423 1.213 0.818 1.806 1.228 0.325 0.212 0.635 0.452 0.959 0.649 0.198 0.127 0.268 0.268 0.268 0.494 0.042 1.735 0.099 3.485 0.155 5.22 0.014 0.325 0.028 0.663 0.056 1.072-0.113-0.113-0.183-0.155-0.226-0.212-1.298-1.594-2.582-3.203-3.88-4.797-0.127-0.155-0.127-0.282-0.071-0.48 0.24-0.748 0.437-1.496 0.663-2.257 0.071-0.282 0.169-0.578 0.268-0.917z"></path>
<path d="M16.959 18.921c1.002 0.649 1.961 1.27 2.907 1.905 0.085 0.056 0.155 0.198 0.155 0.31 0.099 2.060 0.198 4.106 0.296 6.166 0 0.042-0.014 0.071-0.042 0.183-0.212-0.24-0.381-0.423-0.55-0.621-1.086-1.284-2.159-2.596-3.287-3.866-0.423-0.466-0.409-0.903-0.254-1.439 0.226-0.748 0.409-1.51 0.607-2.258 0.071-0.127 0.113-0.24 0.169-0.381z"></path>
<path d="M20.952 4.444c0 0.282 0.028 0.578 0 0.861-0.071 0.776-0.169 1.552-0.254 2.342-0.113 1.058-0.212 2.102-0.325 3.16-0.014 0.113-0.099 0.254-0.198 0.31-0.903 0.522-1.806 1.016-2.709 1.538-0.226 0.127-0.268 0.042-0.31-0.169-0.183-0.931-0.381-1.848-0.578-2.78-0.071-0.339-0.042-0.621 0.24-0.917 1.326-1.383 2.624-2.794 3.922-4.205 0.056-0.056 0.085-0.141 0.113-0.212 0.042 0.014 0.071 0.042 0.099 0.071z"></path>
<path d="M8.677 15.549c-0.169 0.014-0.296 0.042-0.409 0.028-1.679-0.099-3.358-0.212-5.023-0.325-0.31-0.014-0.635-0.014-0.945-0.071-0.141-0.028-0.31-0.113-0.395-0.24-0.55-0.847-1.072-1.707-1.594-2.568-0.113-0.183-0.085-0.254 0.141-0.31 1.030-0.254 2.060-0.522 3.104-0.776 0.113-0.028 0.268 0.014 0.353 0.099 1.566 1.326 3.118 2.653 4.67 3.979 0.014 0.042 0.042 0.099 0.099 0.183z"></path>
<path d="M10.864 27.372c-0.014-0.099-0.028-0.155-0.014-0.212 0.071-0.847 0.141-1.679 0.226-2.526 0.113-1.227 0.24-2.441 0.367-3.668 0.014-0.099 0.113-0.226 0.198-0.268 0.903-0.522 1.82-1.044 2.737-1.566 0.169-0.099 0.254-0.085 0.296 0.127 0.183 0.974 0.381 1.933 0.578 2.907 0.042 0.24 0 0.409-0.155 0.578-1.34 1.481-2.667 2.977-4.007 4.459-0.071 0.056-0.127 0.099-0.226 0.169z"></path>
<path d="M16.423 8.367c0.014-0.198 0.014-0.395 0.028-0.593 0.071-0.649 0.141-1.312 0.226-1.961 0.099-0.903 0.212-1.792 0.31-2.695 0.042-0.353 0.085-0.705 0.113-1.058 0.014-0.226 0.099-0.367 0.31-0.48 0.832-0.452 1.665-0.903 2.483-1.369 0.212-0.127 0.31-0.071 0.353 0.169 0.183 0.959 0.381 1.919 0.578 2.878 0.056 0.282 0 0.508-0.226 0.734-1.326 1.397-2.624 2.822-3.936 4.233-0.056 0.056-0.127 0.113-0.183 0.183 0-0.028-0.028-0.042-0.056-0.042z"></path>
<path d="M11.838 3.908c1.623-0.72 3.189-1.411 4.84-2.145-0.268 2.342-0.508 4.614-0.762 6.885-0.028 0.014-0.071 0.028-0.099 0.042-1.312-1.566-2.61-3.132-3.979-4.783z"></path>
<path d="M8.649 16.24c-1.496 1.369-2.977 2.723-4.515 4.12-0.071-0.099-0.127-0.169-0.155-0.254-0.564-1.369-1.129-2.737-1.693-4.12-0.099-0.226-0.042-0.339 0.212-0.31 0.776 0.056 1.538 0.099 2.314 0.155 1.002 0.071 2.018 0.141 3.019 0.212 0.254 0.014 0.522 0.056 0.776 0.085 0.014 0.042 0.028 0.071 0.042 0.113z"></path>
<path d="M27.951 11.57c0.282 0.748 0.536 1.397 0.79 2.046 0.296 0.762 0.593 1.538 0.889 2.3 0.127 0.325 0.099 0.367-0.254 0.339-1.185-0.113-2.37-0.212-3.556-0.325-0.804-0.071-1.623-0.155-2.427-0.24-0.056 0-0.099-0.042-0.212-0.085 1.594-1.34 3.16-2.667 4.769-4.035z"></path>
<path d="M6.631 5.94c1.383 1.665 2.737 3.302 4.092 4.938-0.014 0.028-0.028 0.056-0.042 0.085-0.353-0.014-0.691-0.028-1.044-0.056-1.594-0.099-3.189-0.226-4.783-0.325-0.296-0.014-0.339-0.056-0.212-0.325 0.621-1.369 1.256-2.737 1.877-4.106 0.014-0.056 0.056-0.113 0.113-0.212z"></path>
<path d="M20.966 20.882c2.032 0.169 4.064 0.339 6.18 0.508-0.705 1.524-1.383 2.963-2.102 4.501-1.411-1.679-2.765-3.302-4.12-4.924 0-0.028 0.014-0.056 0.042-0.085z"></path>
<path d="M19.908 27.922c-0.649 0.254-1.213 0.466-1.778 0.677-0.832 0.31-1.665 0.593-2.483 0.903-0.254 0.099-0.325 0.028-0.296-0.212 0.071-0.889 0.141-1.778 0.212-2.667 0.056-0.776 0.099-1.538 0.155-2.314 0.028-0.353 0.056-0.705 0.071-1.058 0.028-0.014 0.056-0.028 0.099-0.042 1.326 1.566 2.653 3.104 4.021 4.713z"></path>
<path d="M20.952 10.314c0.24-2.018 0.494-4.049 0.748-6.138 1.453 0.748 2.836 1.453 4.317 2.215-1.693 1.369-3.33 2.681-4.952 3.993-0.042-0.028-0.085-0.056-0.113-0.071z"></path>
<path d="M5.996 25.566c1.58-1.411 3.104-2.78 4.684-4.19 0.014 0.155 0.042 0.24 0.042 0.31-0.099 1.030-0.212 2.046-0.31 3.076-0.071 0.705-0.127 1.425-0.183 2.131-0.056 0.72-0.056 0.72-0.705 0.395-1.030-0.508-2.074-1.002-3.118-1.496-0.113-0.071-0.226-0.127-0.409-0.226z"></path>
</svg>
