<!-- Generated by IcoMoon.io -->
<svg version="1.1" xmlns="http://www.w3.org/2000/svg" width="32" height="32" viewBox="0 0 32 32">
<title>EQUA</title>
<path d="M17.143 6.575c0 0-6.561 0.959-7.52 8.212 0 0-1.016 8.113 7.337 10.3 0.578 0.155 1.171 0.226 1.778 0.226h0.409c1.764 0 3.203 1.439 3.203 3.203v0c0 1.679-1.284 3.076-2.949 3.203-4.106 0.268-9.608-1.721-13.178-6.533 0 0-6.998-9.989 0.635-19.175 1.778-2.215 4.12-3.88 6.787-4.882 3.132-1.171 7.732-1.919 11.711 1.199 0 0 5.333 4.106 2.596 10.808 0 0-1.919 5.333-8.48 5.742l-0.917-0.056c-1.665-0.042-2.991-1.425-2.949-3.104 0-0.141 0.014-0.268 0.042-0.409 0.226-1.425 1.439-2.497 2.892-2.54l0.931-0.056c0 0 3.146-0.141 2.878-3.824-0.014 0-0.282-3.273-5.206-2.314"></path>
</svg>
