<?xml version="1.0" encoding="utf-8"?>
<!-- Generator: Adobe Illustrator 22.0.1, SVG Export Plug-In . SVG Version: 6.00 Build 0)  -->
<svg version="1.1" id="Layer_1" xmlns="http://www.w3.org/2000/svg" xmlns:xlink="http://www.w3.org/1999/xlink" x="0px" y="0px"
	 viewBox="0 0 226.8 226.8" style="enable-background:new 0 0 226.8 226.8;" xml:space="preserve">
<style type="text/css">
	.st0{stroke:#FFFFFF;stroke-miterlimit:10;}
</style>
<path class="st0" d="M121.5,46.6c0,0-46.5,6.8-53.3,58.2c0,0-7.2,57.5,52,73c4.1,1.1,8.3,1.6,12.6,1.6h2.9
	c12.5,0,22.7,10.2,22.7,22.7l0,0c0,11.9-9.1,21.8-20.9,22.7c-29.1,1.9-68.1-12.2-93.4-46.3c0,0-49.6-70.8,4.5-135.9
	C61.2,26.9,77.8,15.1,96.7,8c22.2-8.3,54.8-13.6,83,8.5c0,0,37.8,29.1,18.4,76.6c0,0-13.6,37.8-60.1,40.7l-6.5-0.4
	c-11.8-0.3-21.2-10.1-20.9-22c0-1,0.1-1.9,0.3-2.9c1.6-10.1,10.2-17.7,20.5-18l6.6-0.4c0,0,22.3-1,20.4-27.1
	C158.3,63,156.4,39.8,121.5,46.6"/>
</svg>
