<!-- Generated by IcoMoon.io -->
<svg version="1.1" xmlns="http://www.w3.org/2000/svg" width="32" height="32" viewBox="0 0 32 32">
<title>ERC</title>
<path d="M16.014 29.376c-5.503 0-10.215-3.316-12.261-8.056l1.721-0.593c1.806 4.035 5.841 6.843 10.54 6.843 5.333 0 9.806-3.612 11.146-8.508l-3.358 1.086c-1.481 2.78-4.416 4.684-7.788 4.684-3.499 0-6.533-2.046-7.944-5.009l3.344-1.171-0.663 3.471 21.249-6.928c-0.423-8.466-7.422-15.196-15.986-15.196-8.847 0-16.014 7.168-16.014 16.014 0 0.832 0.071 1.665 0.183 2.469l16.734-5.362-0.917 3.104 11.048-3.626c-1.467-4.698-5.855-8.127-11.034-8.127-5.898 0-10.765 4.43-11.457 10.145l-1.877 0.593c0.423-6.998 6.236-12.557 13.347-12.557 6.575 0 12.049 4.755 13.164 11.019l-15.28 5.009 0.72-3.33-14.138 4.586c1.75 6.942 8.042 12.078 15.52 12.078 8.339 0 15.182-6.377 15.944-14.519l-2.794 0.903c-1.129 6.236-6.589 10.977-13.15 10.977zM16.014 7.196c3.132 0 5.884 1.637 7.45 4.092l-4.021 1.354 0.79-3.034-12.698 4.049c1.016-3.725 4.43-6.462 8.48-6.462z"></path>
</svg>
