<!-- Generated by IcoMoon.io -->
<svg version="1.1" xmlns="http://www.w3.org/2000/svg" width="32" height="32" viewBox="0 0 32 32">
<title>ETHERSCAN</title>
<path d="M25.024 17.574c0-2.214 0-4.262 0-6.31 0-0.781 0.064-1.562 0.051-2.342-0.013-0.794-0.448-1.318-1.229-1.498-0.256-0.064-0.512-0.102-0.768-0.102-2.291-0.090-2.778 0.384-2.765 2.65 0.013 3.123 0.013 6.246 0 9.382 0 1.19-0.589 1.664-1.83 1.434-0.026-0.294-0.090-0.614-0.090-0.947 0-2.586 0.013-5.158 0.013-7.744 0-1.37-0.397-1.766-1.766-1.792-0.525-0.013-1.050 0-1.562 0.077-1.126 0.166-1.485 0.666-1.472 1.805 0.051 3.046 0.090 6.093 0.102 9.152 0 0.986-0.422 1.741-1.498 2.214-0.038-0.371-0.102-0.666-0.102-0.947 0-2.214 0-4.429 0.013-6.643 0.013-1.702-0.384-2.138-2.086-2.189-0.538-0.013-1.101 0.064-1.626 0.166-0.768 0.154-1.101 0.755-1.075 1.83 0.038 2.138 0.090 4.275 0.115 6.413 0.013 1.766-0.256 2.074-2.010 2.317-1.766 0.243-2.483-0.102-3.11-1.626-3.264-7.757-1.114-15.155 5.146-20.058 3.622-2.829 7.846-3.328 12.25-2.368 5.555 1.216 9.024 4.813 11.123 9.92 0.474 1.152 0.243 2.202-0.653 2.995-1.51 1.357-3.098 2.637-4.646 3.942-0.064 0.077-0.166 0.102-0.525 0.269z"></path>
<path d="M6.579 27.661c9.971-0.781 18.086-5.043 24.589-12.608 0.333 1.69 0.346 3.341 0.026 4.979-0.819 4.198-3.162 7.36-6.771 9.613-6.874 4.301-14.374 2.138-17.843-1.984z"></path>
</svg>
