<!-- Generated by IcoMoon.io -->
<svg version="1.1" xmlns="http://www.w3.org/2000/svg" width="32" height="32" viewBox="0 0 32 32">
<title>ETHERDELTA</title>
<path d="M32 22.138c-1.030 0.071-2.018 0.127-3.005 0.198-2.215 0.141-4.444 0.254-6.66 0.409-0.437 0.028-0.691-0.085-0.931-0.48-1.623-2.624-3.259-5.235-4.896-7.845-0.071-0.099-0.127-0.212-0.198-0.325 4.825-3.019 9.623-6.025 14.519-9.072 0.395 5.771 0.776 11.429 1.171 17.115z"></path>
<path d="M15.958 15.675c0.31 0.48 0.621 0.959 0.931 1.439 0.762 1.199 1.51 2.413 2.272 3.598 0.593 0.917 1.213 1.806 1.806 2.723 0.155 0.24 0.325 0.325 0.607 0.31 2.681-0.169 5.347-0.325 8.028-0.48 0.593-0.028 1.171-0.056 1.792 0-4.487 2.328-8.974 4.67-13.474 6.998-0.691-4.882-1.383-9.721-2.074-14.547 0.042-0.014 0.071-0.028 0.113-0.042z"></path>
<path d="M0.593 23.675c-0.169-5.46-0.339-10.935-0.508-16.409 0.042-0.014 0.071-0.028 0.113-0.042 0.198 0.324 0.367 0.677 0.621 0.959 0.945 1.072 1.143 2.328 1.143 3.711-0.028 2.794 0.085 5.587 0.141 8.381 0.014 0.705 0.042 1.411 0.099 2.116 0.014 0.155 0.141 0.353 0.282 0.451 0.367 0.254 0.776 0.48 1.157 0.705 0 0.042-0.014 0.085-0.014 0.127-1.016 0-2.032 0-3.034 0z"></path>
<path d="M7.323 3.753c0.296 0.945 0.607 1.891 0.889 2.836 0.056 0.183-0.014 0.409-0.056 0.607-0.818 3.316-1.623 6.617-2.441 9.919-0.155 0.635-0.282 1.27-0.395 1.905-0.028 0.127 0.042 0.325 0.141 0.423 0.282 0.339 0.593 0.649 0.903 0.959-0.014 0.028-0.028 0.071-0.042 0.099-0.945-0.212-1.905-0.423-2.85-0.635 1.242-5.404 2.483-10.751 3.725-16.099 0.042 0 0.085-0.014 0.127-0.014z"></path>
<path d="M9.947 18.258c-0.169-0.071-0.24-0.099-0.31-0.127-0.818-0.423-1.637-0.861-2.441-1.284 2.61-4.91 5.192-9.778 7.788-14.66 0.028 0 0.056 0.014 0.085 0.014 0.042 0.536 0.071 1.072 0.099 1.608 0.028 0.423 0.056 0.861 0.042 1.284 0 0.169-0.056 0.353-0.141 0.508-0.988 1.862-2.004 3.711-3.019 5.573-0.959 1.778-1.905 3.556-2.85 5.333-0.056 0.113-0.042 0.325 0.028 0.451 0.212 0.409 0.451 0.804 0.72 1.298z"></path>
<path d="M22.928 2.921c-0.014 0.127-0.028 0.254-0.056 0.395-0.155 0.748-0.31 1.496-0.48 2.229-0.042 0.198-0.141 0.395-0.268 0.536-0.494 0.55-1.016 1.086-1.538 1.623-1.044 1.086-2.116 2.145-3.146 3.245-1.284 1.354-2.54 2.723-3.795 4.106-0.099 0.113-0.141 0.325-0.113 0.466 0.085 0.451 0.212 0.875 0.24 1.383-0.734-0.677-1.453-1.354-2.173-2.018 3.767-4.035 7.492-8.028 11.217-12.035 0.028 0.014 0.071 0.042 0.113 0.071z"></path>
<path d="M14.166 29.954c-4.261-1.693-8.522-3.4-12.783-5.108 0-0.028 0-0.042 0-0.071 0.085-0.014 0.169-0.042 0.254-0.042 1.030-0.042 2.046-0.056 3.076-0.113 0.437-0.014 0.79 0.085 1.171 0.31 2.667 1.594 5.347 3.16 8.014 4.727 0.099 0.056 0.198 0.141 0.296 0.212 0 0.042-0.014 0.071-0.028 0.085z"></path>
<path d="M11.654 16.451c0.861 0.818 1.75 1.608 2.568 2.455 0.226 0.24 0.282 0.677 0.367 1.030 0.72 2.794 1.439 5.587 2.159 8.381 0.014 0.042 0.014 0.085-0.085 0.155-1.707-3.979-3.414-7.958-5.122-11.936 0.042-0.028 0.085-0.056 0.113-0.085z"></path>
<path d="M15.422 28.36c-2.61-3.316-5.22-6.631-7.831-9.947 0.014-0.028 0.042-0.056 0.056-0.085 0.198 0.113 0.395 0.212 0.593 0.325 0.55 0.296 1.072 0.635 1.651 0.861 0.776 0.296 1.213 0.875 1.594 1.566 1.27 2.3 2.582 4.586 3.88 6.871 0.056 0.099 0.099 0.226 0.155 0.325-0.028 0.042-0.071 0.071-0.099 0.085z"></path>
<path d="M4.43 21.22c0.437 0.099 0.875 0.183 1.326 0.282 0.607 0.141 1.213 0.268 1.82 0.423 0.169 0.042 0.353 0.127 0.466 0.24 0.903 0.917 1.792 1.834 2.695 2.751 1.228 1.256 2.455 2.511 3.683 3.767 0.071 0.071 0.113 0.141 0.113 0.282-3.386-2.54-6.772-5.079-10.159-7.619 0.014-0.028 0.028-0.085 0.056-0.127z"></path>
</svg>
