<!-- Generated by IcoMoon.io -->
<svg version="1.1" xmlns="http://www.w3.org/2000/svg" width="32" height="32" viewBox="0 0 32 32">
<title>ETHFINEX</title>
<path d="M16.042 6.081c0.635 0.917 1.256 1.792 1.862 2.667 1.693 2.427 3.358 4.868 5.065 7.28 0.254 0.367 0.296 0.635 0.099 1.030-1.425 2.751-2.822 5.503-4.205 8.268-0.198 0.409-0.423 0.55-0.889 0.536-1.326-0.028-2.638-0.028-3.965 0-0.381 0.014-0.564-0.113-0.734-0.437-1.425-2.822-2.864-5.63-4.275-8.466-0.099-0.198-0.127-0.564 0-0.734 2.314-3.372 4.656-6.73 7.041-10.145z"></path>
<path d="M0 16.536c2.159-3.316 4.233-6.49 6.349-9.721 1.312 1.369 2.582 2.695 3.852 4.035-1.213 1.764-2.399 3.499-3.598 5.206-0.24 0.339-0.268 0.607-0.071 0.988 1.397 2.653 2.765 5.333 4.134 8 0.127 0.24 0.24 0.48 0.367 0.762-0.663 0.155-1.129 0.042-1.623-0.423-2.963-2.892-5.982-5.742-9.002-8.593-0.113-0.113-0.268-0.169-0.409-0.254z"></path>
<path d="M25.721 6.815c2.102 3.231 4.176 6.406 6.279 9.623-0.875 0.847-1.75 1.679-2.61 2.497-2.215 2.102-4.444 4.19-6.631 6.321-0.508 0.494-1.002 0.734-1.735 0.55 0.296-0.593 0.593-1.171 0.889-1.764 1.171-2.286 2.342-4.571 3.541-6.843 0.254-0.48 0.268-0.804-0.056-1.27-1.199-1.665-2.342-3.358-3.527-5.079 1.284-1.34 2.554-2.667 3.852-4.035z"></path>
</svg>
