<!-- Generated by IcoMoon.io -->
<svg version="1.1" xmlns="http://www.w3.org/2000/svg" width="32" height="32" viewBox="0 0 32 32">
<title>ETHFINEX1</title>
<path d="M16.028 6.25c1.115 1.608 2.229 3.203 3.344 4.797 1.171 1.693 2.342 3.386 3.527 5.079 0.24 0.339 0.296 0.578 0.099 0.974-1.425 2.751-2.822 5.517-4.219 8.282-0.183 0.367-0.395 0.536-0.818 0.522-1.312-0.028-2.624-0.028-3.951 0-0.381 0-0.607-0.099-0.79-0.451-1.397-2.794-2.822-5.573-4.219-8.367-0.113-0.212-0.141-0.607-0.014-0.776 2.272-3.316 4.557-6.603 6.857-9.905 0.028-0.042 0.085-0.085 0.183-0.155z"></path>
<path d="M25.637 6.928c2.088 3.217 4.148 6.377 6.081 9.354-0.79 0.889-1.481 1.764-2.272 2.54-2.258 2.201-4.571 4.332-6.829 6.533-0.494 0.48-0.988 0.621-1.693 0.494 0.494-0.974 0.988-1.919 1.467-2.85 1.002-1.947 2.004-3.908 3.034-5.855 0.212-0.395 0.198-0.663-0.071-1.030-1.199-1.693-2.37-3.414-3.584-5.164 1.298-1.34 2.554-2.667 3.866-4.021z"></path>
<path d="M6.335 6.928c1.312 1.369 2.582 2.695 3.838 4.021-1.213 1.764-2.384 3.485-3.584 5.192-0.24 0.353-0.254 0.607-0.056 0.974 1.383 2.653 2.751 5.305 4.12 7.972 0.127 0.24 0.24 0.48 0.367 0.748-0.691 0.198-1.171 0-1.665-0.466-3.062-2.949-6.138-5.855-9.27-8.818 2.074-3.203 4.134-6.377 6.25-9.623z"></path>
</svg>
