<!-- Generated by IcoMoon.io -->
<svg version="1.1" xmlns="http://www.w3.org/2000/svg" width="32" height="32" viewBox="0 0 32 32">
<title>ETHOS</title>
<path d="M18.723 5.954c-2.088-4.952-7.802-7.28-12.755-5.192-1.157 0.494-2.215 1.199-3.104 2.088-1.369 1.369-1.369 3.584 0 4.952s3.584 1.369 4.952 0c0.254-0.254 0.55-0.452 0.875-0.593 0.677-0.282 1.453-0.282 2.13 0 0.494 0.212 0.903 0.55 1.213 1.002s0.466 0.988 0.466 1.524c0 1.933 1.566 3.499 3.499 3.499s3.499-1.566 3.499-3.499c0-1.284-0.268-2.582-0.776-3.781z"></path>
<path d="M15.986 18.751c-1.933 0-3.499 1.566-3.499 3.499 0 0.367-0.071 0.734-0.212 1.058-0.212 0.494-0.55 0.903-1.002 1.213-0.226 0.155-0.466 0.268-0.72 0.339-0.988 0.31-2.060 0.028-2.78-0.72v0c-0.24-0.254-0.437-0.536-0.564-0.861-0.282-0.677-0.268-1.439 0.014-2.102 0.212-0.494 0.55-0.903 1.002-1.213s0.988-0.466 1.524-0.466c1.933 0 3.499-1.566 3.499-3.499s-1.566-3.499-3.499-3.499c-5.376 0-9.75 4.36-9.75 9.75 0 2.526 0.974 4.952 2.737 6.773 3.739 3.88 9.905 3.993 13.771 0.254 1.905-1.834 2.991-4.374 2.977-7.026 0.014-1.933-1.566-3.499-3.499-3.499"></path>
<path d="M30.928 5.305c-0.677-1.326-1.651-2.483-2.85-3.372 0 0 0 0 0 0-4.317-3.217-10.427-2.314-13.63 2.004-1.256 1.679-1.933 3.725-1.919 5.827 0 1.933 1.566 3.499 3.499 3.499s3.499-1.566 3.499-3.499c0-0.367 0.071-0.734 0.212-1.058 0.212-0.494 0.55-0.903 1.002-1.213 0.226-0.155 0.466-0.268 0.72-0.339 0.832-0.254 1.75-0.113 2.441 0.409v0c0.339 0.254 0.621 0.578 0.804 0.959 0.367 0.72 0.395 1.566 0.085 2.314-0.212 0.494-0.55 0.903-1.002 1.213-0.226 0.155-0.466 0.268-0.72 0.339-0.268 0.085-0.536 0.127-0.818 0.127-1.933 0-3.499 1.566-3.499 3.499s1.566 3.499 3.499 3.499c5.39 0 9.75-4.374 9.75-9.75 0-1.566-0.367-3.090-1.072-4.459z"></path>
<path d="M31.224 18.455c-1.524-3.612-5.065-5.954-8.974-5.954-1.933 0-3.499 1.566-3.499 3.499s1.566 3.499 3.499 3.499c0.367 0 0.734 0.071 1.058 0.212 0.494 0.212 0.903 0.55 1.213 1.002 0.508 0.762 0.607 1.721 0.254 2.582-0.127 0.325-0.325 0.607-0.564 0.861v0c-0.254 0.254-0.55 0.466-0.875 0.607-0.691 0.296-1.453 0.296-2.145 0.014-0.494-0.212-0.903-0.55-1.213-1.002s-0.466-0.988-0.466-1.524c0-1.933-1.566-3.499-3.499-3.499s-3.499 1.566-3.499 3.499c0 5.376 4.346 9.75 9.735 9.75 2.638 0 5.164-1.058 6.998-2.963v0c2.723-2.808 3.499-6.97 1.975-10.582z"></path>
<path d="M9.75 12.487c-0.367 0-0.734-0.071-1.058-0.212-0.494-0.212-0.903-0.55-1.213-1.002-0.734-1.086-0.593-2.54 0.339-3.471 1.369-1.369 1.369-3.584 0-4.952s-3.584-1.369-4.952 0c-3.81 3.81-3.81 9.975-0.014 13.785 1.834 1.834 4.317 2.864 6.899 2.864 1.933 0 3.499-1.566 3.499-3.499s-1.566-3.513-3.499-3.513z"></path>
</svg>
