<?xml version="1.0" encoding="utf-8"?>
<!-- Generator: Adobe Illustrator 22.0.1, SVG Export Plug-In . SVG Version: 6.00 Build 0)  -->
<svg version="1.1" id="Layer_1" xmlns="http://www.w3.org/2000/svg" xmlns:xlink="http://www.w3.org/1999/xlink" x="0px" y="0px"
	 viewBox="0 0 226.8 226.8" style="enable-background:new 0 0 226.8 226.8;" xml:space="preserve">
<style type="text/css">
	.st0{stroke:#FFFFFF;stroke-miterlimit:10;}
</style>
<g>
	<path class="st0" d="M132.7,42.2C117.9,7.1,77.4-9.4,42.3,5.4c-8.2,3.5-15.7,8.5-22,14.8c-9.7,9.7-9.7,25.4,0,35.1s25.4,9.7,35.1,0
		c1.8-1.8,3.9-3.2,6.2-4.2c4.8-2,10.3-2,15.1,0c3.5,1.5,6.4,3.9,8.6,7.1c2.2,3.2,3.3,7,3.3,10.8c0,13.7,11.1,24.8,24.8,24.8
		s24.8-11.1,24.8-24.8C138.2,59.9,136.3,50.7,132.7,42.2z"/>
	<g>
		<path class="st0" d="M113.3,132.9c-13.7,0-24.8,11.1-24.8,24.8c0,2.6-0.5,5.2-1.5,7.5c-1.5,3.5-3.9,6.4-7.1,8.6
			c-1.6,1.1-3.3,1.9-5.1,2.4c-7,2.2-14.6,0.2-19.7-5.1l0,0c-1.7-1.8-3.1-3.8-4-6.1c-2-4.8-1.9-10.2,0.1-14.9
			c1.5-3.5,3.9-6.4,7.1-8.6c3.2-2.2,7-3.3,10.8-3.3c13.7,0,24.8-11.1,24.8-24.8S82.8,88.6,69.1,88.6C31,88.6,0,119.5,0,157.7
			c0,17.9,6.9,35.1,19.4,48c26.5,27.5,70.2,28.3,97.6,1.8c13.5-13,21.2-31,21.1-49.8C138.2,144,127,132.9,113.3,132.9"/>
		<path class="st0" d="M219.2,37.6c-4.8-9.4-11.7-17.6-20.2-23.9c0,0,0,0,0,0c-30.6-22.8-73.9-16.4-96.6,14.2
			c-8.9,11.9-13.7,26.4-13.6,41.3c0,13.7,11.1,24.8,24.8,24.8s24.8-11.1,24.8-24.8c0-2.6,0.5-5.2,1.5-7.5c1.5-3.5,3.9-6.4,7.1-8.6
			c1.6-1.1,3.3-1.9,5.1-2.4c5.9-1.8,12.4-0.8,17.3,2.9l0,0c2.4,1.8,4.4,4.1,5.7,6.8c2.6,5.1,2.8,11.1,0.6,16.4
			c-1.5,3.5-3.9,6.4-7.1,8.6c-1.6,1.1-3.3,1.9-5.1,2.4c-1.9,0.6-3.8,0.9-5.8,0.9c-13.7,0-24.8,11.1-24.8,24.8s11.1,24.8,24.8,24.8
			c38.2,0,69.1-31,69.1-69.1C226.8,58.1,224.2,47.3,219.2,37.6z"/>
	</g>
	<g>
		<path class="st0" d="M221.3,130.8c-10.8-25.6-35.9-42.2-63.6-42.2c-13.7,0-24.8,11.1-24.8,24.8c0,13.7,11.1,24.8,24.8,24.8
			c2.6,0,5.2,0.5,7.5,1.5c3.5,1.5,6.4,3.9,8.6,7.1c3.6,5.4,4.3,12.2,1.8,18.3c-0.9,2.3-2.3,4.3-4,6.1l0,0c-1.8,1.8-3.9,3.3-6.2,4.3
			c-4.9,2.1-10.3,2.1-15.2,0.1c-3.5-1.5-6.4-3.9-8.6-7.1c-2.2-3.2-3.3-7-3.3-10.8c0-13.7-11.1-24.8-24.8-24.8S88.7,144,88.7,157.7
			c0,38.1,30.8,69.1,69,69.1c18.7,0,36.6-7.5,49.6-21h0C226.6,185.9,232.1,156.4,221.3,130.8z"/>
		<path class="st0" d="M69.1,88.5c-2.6,0-5.2-0.5-7.5-1.5c-3.5-1.5-6.4-3.9-8.6-7.1c-5.2-7.7-4.2-18,2.4-24.6
			c9.7-9.7,9.7-25.4,0-35.1s-25.4-9.7-35.1,0c-27,27-27,70.7-0.1,97.7c13,13,30.6,20.3,48.9,20.3c13.7,0,24.8-11.1,24.8-24.8
			S82.8,88.5,69.1,88.5z"/>
	</g>
</g>
</svg>
