<!-- Generated by IcoMoon.io -->
<svg version="1.1" xmlns="http://www.w3.org/2000/svg" width="32" height="32" viewBox="0 0 32 32">
<title>ETN</title>
<path d="M21.644 12.317l2.653 2.018 1.679 1.27-1.877 0.959-3.767 1.919 1.298 0.889 1.806 1.256-1.947 1.002-11.979 6.18c1.989 1.101 4.233 1.665 6.504 1.665 7.45 0 13.489-6.039 13.489-13.489 0-3.161-1.101-6.222-3.132-8.635l-4.727 4.966z"></path>
<path d="M10.356 20.374l-2.653-2.018-1.679-1.27 1.877-0.959 3.767-1.919-1.298-0.889-1.806-1.256 14.575-7.506c-2.145-1.34-4.614-2.046-7.139-2.046-7.45 0-13.489 6.039-13.489 13.489 0 3.457 1.312 6.617 3.457 9.002l4.388-4.628z"></path>
<path d="M5.15 25.877c-2.37-2.61-3.824-6.081-3.824-9.877-0.014-8.099 6.575-14.688 14.674-14.688 2.991 0 5.898 0.903 8.353 2.61l1.312-0.677c-2.695-2.032-6.039-3.245-9.665-3.245-8.818 0-16 7.182-16 16 0 4.176 1.608 7.986 4.233 10.836l0.917-0.959z"></path>
<path d="M27.175 6.49c2.187 2.568 3.499 5.884 3.499 9.51 0 8.099-6.589 14.688-14.688 14.688-2.737 0-5.432-0.762-7.746-2.215l-1.34 0.691c2.667 1.848 5.841 2.85 9.101 2.85 8.818 0 16-7.182 16-16 0-3.993-1.481-7.661-3.908-10.469l-0.917 0.945z"></path>
<path d="M8.494 17.312l3.838 2.907-8.663 9.115 17.213-8.875-3.104-2.145 5.728-2.935-3.838-2.907 8.663-9.129-17.213 8.889 3.104 2.145-5.728 2.935"></path>
</svg>
