<?xml version="1.0" encoding="utf-8"?>
<!-- Generator: Adobe Illustrator 22.0.1, SVG Export Plug-In . SVG Version: 6.00 Build 0)  -->
<svg version="1.1" id="Layer_1" xmlns="http://www.w3.org/2000/svg" xmlns:xlink="http://www.w3.org/1999/xlink" x="0px" y="0px"
	 viewBox="0 0 226.8 226.8" style="enable-background:new 0 0 226.8 226.8;" xml:space="preserve">
<style type="text/css">
	.st0{stroke:#FFFFFF;stroke-miterlimit:10;}
</style>
<g>
	<path class="st0" d="M153.4,87.3l18.8,14.3l11.9,9l-13.3,6.8L144.1,131l9.2,6.3l12.8,8.9l-13.8,7.1l-84.9,43.8
		c14.1,7.8,30,11.8,46.1,11.8c52.8,0,95.6-42.8,95.6-95.6c0-22.4-7.8-44.1-22.2-61.2L153.4,87.3z"/>
	<path class="st0" d="M73.4,144.4l-18.8-14.3l-11.9-9l13.3-6.8l26.7-13.6l-9.2-6.3l-12.8-8.9l13.8-7.1L164,32.3
		c-15.2-9.5-32.7-14.5-50.6-14.5c-52.8,0-95.6,42.8-95.6,95.6c0,24.5,9.3,46.9,24.5,63.8L73.4,144.4z"/>
	<path class="st0" d="M36.5,183.4c-16.8-18.5-27.1-43.1-27.1-70C9.3,56,56,9.3,113.4,9.3c21.2,0,41.8,6.4,59.2,18.5l9.3-4.8
		C162.8,8.6,139.1,0,113.4,0C50.9,0,0,50.9,0,113.4C0,143,11.4,170,30,190.2L36.5,183.4z"/>
	<path class="st0" d="M192.6,46c15.5,18.2,24.8,41.7,24.8,67.4c0,57.4-46.7,104.1-104.1,104.1c-19.4,0-38.5-5.4-54.9-15.7l-9.5,4.9
		c18.9,13.1,41.4,20.2,64.5,20.2c62.5,0,113.4-50.9,113.4-113.4c0-28.3-10.5-54.3-27.7-74.2L192.6,46z"/>
</g>
<path class="st0" d="M60.2,122.7l27.2,20.6L26,207.9L148,145l-22-15.2l40.6-20.8l-27.2-20.6l61.4-64.7l-122,63l22,15.2L60.2,122.7"
	/>
</svg>
