<!-- Generated by IcoMoon.io -->
<svg version="1.1" xmlns="http://www.w3.org/2000/svg" width="32" height="32" viewBox="0 0 32 32">
<title>ETORO</title>
<path d="M17.58 21.898c-1.383 0-2.765 0.014-4.134-0.014-0.649-0.014-0.861 0.24-0.889 0.889-0.071 2.342 1.496 3.795 3.88 3.527 1.016-0.113 1.961-0.451 2.681-1.213 0.325-0.339 0.593-0.367 0.974-0.141 0.677 0.409 1.355 0.79 2.046 1.157 0.451 0.24 0.522 0.55 0.169 0.875-0.621 0.564-1.213 1.213-1.933 1.608-2.681 1.453-5.46 1.538-8.212 0.198-2.13-1.030-3.273-2.765-3.273-5.178 0-1.75 0-3.513 0-5.263 0-3.386 1.58-5.446 4.868-6.335 2.257-0.607 4.416-0.381 6.448 0.804 1.792 1.044 2.709 2.653 2.78 4.727 0.028 1.058 0.028 2.131 0 3.203-0.014 0.847-0.296 1.129-1.143 1.143-1.439 0.028-2.85 0-4.261 0.014 0 0 0 0 0 0zM15.944 18.864c0 0 0 0 0 0 0.691 0 1.383 0.014 2.074 0 1.397 0 1.764-0.451 1.213-1.75-0.24-0.578-0.804-1.143-1.355-1.439-1.298-0.677-2.667-0.55-3.979 0.085-0.988 0.48-1.383 1.284-1.326 2.37 0.028 0.508 0.226 0.734 0.748 0.72 0.861 0 1.735 0.014 2.624 0.014z"></path>
<path d="M6.716 18.963c-2.13-0.381-3.979-0.959-5.418-2.399-1.397-1.397-1.721-3.443-0.705-5.192 0.734-1.228 1.608-2.384 2.511-3.513 1.326-1.665 2.723-3.273 4.092-4.896 0.155-0.183 0.325-0.395 0.536-0.522 0.127-0.085 0.395-0.099 0.494-0.028 0.099 0.085 0.141 0.325 0.113 0.48-0.056 0.24-0.198 0.452-0.282 0.691-0.635 1.693-1.369 3.372-1.848 5.108-0.564 2.018 0.296 3.062 2.37 3.161 0.155 0.014 0.31 0 0.466 0.014 0.437 0.014 0.381 0.212 0.155 0.451-0.071 0.071-0.127 0.141-0.198 0.198-1.284 1.284-1.862 2.864-1.862 4.67 0 0.409 0.042 0.818-0.028 1.213-0.056 0.226-0.296 0.423-0.395 0.564z"></path>
<path d="M32 13.601c-0.028 1.524-0.734 2.695-1.933 3.584-1.284 0.959-2.765 1.439-4.332 1.721-0.494 0.085-0.691-0.071-0.691-0.564-0.014-0.691-0.028-1.383-0.113-2.060-0.169-1.425-0.79-2.624-1.778-3.654-0.183-0.183-0.31-0.437-0.451-0.649 0.24-0.028 0.48-0.071 0.72-0.099 0.183-0.028 0.381-0.014 0.564-0.042 1.58-0.254 2.3-1.157 1.961-2.709-0.282-1.312-0.762-2.582-1.213-3.838-0.268-0.762-0.663-1.481-0.959-2.243-0.071-0.183 0.056-0.437 0.099-0.663 0.198 0.056 0.395 0.085 0.578 0.155 0.085 0.028 0.141 0.127 0.198 0.198 2.060 2.526 4.134 5.037 6.166 7.591 0.734 0.931 1.213 2.018 1.185 3.273z"></path>
</svg>
