<!-- Generated by IcoMoon.io -->
<svg version="1.1" xmlns="http://www.w3.org/2000/svg" width="32" height="32" viewBox="0 0 32 32">
<title>ETP</title>
<path d="M10.243 6.914c0 1.58-1.284 2.864-2.864 2.864s-2.878-1.284-2.878-2.864 1.284-2.864 2.864-2.864 2.878 1.284 2.878 2.864"></path>
<path d="M19.273 3.513c0 1.552-1.256 2.808-2.808 2.808s-2.808-1.256-2.808-2.808 1.27-2.808 2.822-2.808 2.794 1.256 2.794 2.808z"></path>
<path d="M27.302 6.787c0 1.538-1.242 2.794-2.78 2.794s-2.794-1.256-2.794-2.794 1.242-2.78 2.78-2.78c1.552-0.014 2.794 1.242 2.794 2.78v0"></path>
<path d="M31.732 12.529c0 1.524-1.227 2.751-2.751 2.751-1.524 0.014-2.765-1.213-2.78-2.737s1.213-2.765 2.737-2.78c0.014 0 0.028 0 0.042 0 1.524 0.014 2.751 1.256 2.751 2.765"></path>
<path d="M31.732 20.261c0 1.496-1.213 2.695-2.695 2.695s-2.695-1.213-2.695-2.695c0-1.496 1.213-2.695 2.695-2.695 1.496 0 2.695 1.199 2.695 2.695v0"></path>
<path d="M27.922 26.286c0 1.27-1.030 2.286-2.286 2.286-1.27 0-2.286-1.030-2.286-2.286 0-1.27 1.030-2.286 2.286-2.286 1.256-0.014 2.286 1.016 2.286 2.286 0-0.014 0-0.014 0 0z"></path>
<path d="M21.122 29.051c0 1.185-0.959 2.131-2.145 2.131s-2.131-0.959-2.131-2.145 0.959-2.131 2.145-2.131c1.171 0 2.131 0.959 2.131 2.145v0z"></path>
<path d="M14.815 28.995c0 1.171-0.959 2.131-2.13 2.131s-2.13-0.959-2.13-2.131 0.959-2.131 2.13-2.131c1.185 0 2.13 0.945 2.13 2.131z"></path>
<path d="M9.284 26.018c0 0.974-0.79 1.778-1.778 1.778-0.974 0-1.778-0.79-1.778-1.778 0-0.974 0.79-1.778 1.778-1.778 0.988 0.014 1.778 0.804 1.778 1.778v0"></path>
<path d="M1.679 12.981l2.921 4.741 2.399-4.741h1.524v8.917h-1.171v-3.471l0.113-3.753-2.427 4.684h-0.903l-2.921-4.67 0.113 3.739v3.471h-1.171v-8.917h1.524z"></path>
<path d="M13.474 21.996l-3.372-9.115h1.496l2.469 7.153 2.469-7.153h1.51l-3.386 9.129h-1.185"></path>
<path d="M19.499 20.91c0.607 0.127 1.312 0.212 1.792 0.212 0.254 0 0.508-0.028 0.762-0.085 0.226-0.056 0.437-0.141 0.635-0.254 0.169-0.099 0.31-0.254 0.423-0.423 0.099-0.155 0.155-0.353 0.155-0.593 0-0.367-0.085-0.663-0.268-0.875-0.198-0.24-0.451-0.451-0.762-0.621-0.339-0.198-0.691-0.367-1.058-0.508-0.395-0.155-0.776-0.353-1.143-0.578s-0.677-0.508-0.931-0.861c-0.268-0.367-0.395-0.832-0.395-1.397 0-0.395 0.085-0.762 0.24-1.058s0.381-0.55 0.649-0.748c0.268-0.198 0.578-0.339 0.931-0.423s0.705-0.127 1.072-0.127c0.353 0 0.72 0.014 1.072 0.056 0.367 0.042 0.72 0.113 1.072 0.226l0.071 0.028 0.198 0.071-0.127 1.002c0 0-0.917-0.169-1.284-0.198-0.127-0.014-0.254-0.056-0.395-0.071s-0.339-0.028-0.593-0.028c-0.24 0-0.48 0.028-0.705 0.085-0.212 0.042-0.381 0.127-0.536 0.24-0.141 0.099-0.254 0.24-0.339 0.395s-0.127 0.339-0.127 0.564c0 0.367 0.085 0.649 0.268 0.861 0.198 0.24 0.451 0.451 0.762 0.621 0.339 0.183 0.691 0.353 1.058 0.494 0.395 0.155 0.79 0.339 1.143 0.564 0.367 0.226 0.677 0.522 0.931 0.861 0.268 0.367 0.395 0.847 0.395 1.411 0 0.437-0.085 0.818-0.268 1.143-0.169 0.31-0.423 0.578-0.72 0.776s-0.635 0.339-1.002 0.423-0.748 0.127-1.129 0.127c-0.395 0-0.804-0.028-1.199-0.071s-0.79-0.127-1.185-0.254l-0.056-0.014-0.24-0.113v-1.030"></path>
</svg>
