<?xml version="1.0" encoding="utf-8"?>
<!-- Generator: Adobe Illustrator 22.0.1, SVG Export Plug-In . SVG Version: 6.00 Build 0)  -->
<svg version="1.1" id="Layer_1" xmlns="http://www.w3.org/2000/svg" xmlns:xlink="http://www.w3.org/1999/xlink" x="0px" y="0px"
	 viewBox="0 0 226.8 226.8" style="enable-background:new 0 0 226.8 226.8;" xml:space="preserve">
<style type="text/css">
	.st0{stroke:#FFFFFF;stroke-miterlimit:10;}
</style>
<g transform="translate(0-30)">
	<path class="st0" d="M72.6,79c0,11.2-9.1,20.3-20.3,20.3S31.9,90.2,31.9,79S41,58.7,52.2,58.7S72.6,67.8,72.6,79"/>
	<path class="st0" d="M136.6,54.9c0,11-8.9,19.9-19.9,19.9s-19.9-8.9-19.9-19.9s9-19.9,20-19.9S136.6,43.9,136.6,54.9z"/>
	<path class="st0" d="M193.5,78.1c0,10.9-8.8,19.8-19.7,19.8S154,89,154,78.1s8.8-19.7,19.7-19.7C184.7,58.3,193.5,67.2,193.5,78.1
		L193.5,78.1"/>
	<path class="st0" d="M224.9,118.8c0,10.8-8.7,19.5-19.5,19.5c-10.8,0.1-19.6-8.6-19.7-19.4s8.6-19.6,19.4-19.7c0.1,0,0.2,0,0.3,0
		C216.2,99.3,224.9,108.1,224.9,118.8"/>
	<path class="st0" d="M224.9,173.6c0,10.6-8.6,19.1-19.1,19.1s-19.1-8.6-19.1-19.1c0-10.6,8.6-19.1,19.1-19.1
		C216.4,154.5,224.9,163,224.9,173.6L224.9,173.6"/>
	<path class="st0" d="M197.9,216.3c0,9-7.3,16.2-16.2,16.2c-9,0-16.2-7.3-16.2-16.2c0-9,7.3-16.2,16.2-16.2
		C190.6,200,197.9,207.3,197.9,216.3C197.9,216.2,197.9,216.2,197.9,216.3z"/>
	<path class="st0" d="M149.7,235.9c0,8.4-6.8,15.1-15.2,15.1s-15.1-6.8-15.1-15.2s6.8-15.1,15.2-15.1
		C142.9,220.7,149.7,227.5,149.7,235.9L149.7,235.9z"/>
	<path class="st0" d="M105,235.5c0,8.3-6.8,15.1-15.1,15.1s-15.1-6.8-15.1-15.1s6.8-15.1,15.1-15.1C98.3,220.4,105,227.1,105,235.5z
		"/>
	<path class="st0" d="M65.8,214.4c0,6.9-5.6,12.6-12.6,12.6c-6.9,0-12.6-5.6-12.6-12.6c0-6.9,5.6-12.6,12.6-12.6
		C60.2,201.9,65.8,207.5,65.8,214.4L65.8,214.4"/>
	<path class="st0" d="M11.9,122l20.7,33.6l17-33.6h10.8v63.2h-8.3v-24.6l0.8-26.6l-17.2,33.2h-6.4L8.6,134.1l0.8,26.5v24.6H1.1V122
		H11.9z"/>
</g>
<g>
	<path class="st0" d="M95.5,155.9L71.6,91.3h10.6L99.7,142l17.5-50.7h10.7l-24,64.7h-8.4"/>
	<path class="st0" d="M138.2,148.2c4.3,0.9,9.3,1.5,12.7,1.5c1.8,0,3.6-0.2,5.4-0.6c1.6-0.4,3.1-1,4.5-1.8c1.2-0.7,2.2-1.8,3-3
		c0.7-1.1,1.1-2.5,1.1-4.2c0-2.6-0.6-4.7-1.9-6.2c-1.4-1.7-3.2-3.2-5.4-4.4c-2.4-1.4-4.9-2.6-7.5-3.6c-2.8-1.1-5.5-2.5-8.1-4.1
		s-4.8-3.6-6.6-6.1c-1.9-2.6-2.8-5.9-2.8-9.9c0-2.8,0.6-5.4,1.7-7.5c1.1-2.1,2.7-3.9,4.6-5.3c1.9-1.4,4.1-2.4,6.6-3s5-0.9,7.6-0.9
		c2.5,0,5.1,0.1,7.6,0.4c2.6,0.3,5.1,0.8,7.6,1.6l0.5,0.2l1.4,0.5l-0.9,7.1c0,0-6.5-1.2-9.1-1.4c-0.9-0.1-1.8-0.4-2.8-0.5
		s-2.4-0.2-4.2-0.2c-1.7,0-3.4,0.2-5,0.6c-1.5,0.3-2.7,0.9-3.8,1.7c-1,0.7-1.8,1.7-2.4,2.8c-0.6,1.1-0.9,2.4-0.9,4
		c0,2.6,0.6,4.6,1.9,6.1c1.4,1.7,3.2,3.2,5.4,4.4c2.4,1.3,4.9,2.5,7.5,3.5c2.8,1.1,5.6,2.4,8.1,4c2.6,1.6,4.8,3.7,6.6,6.1
		c1.9,2.6,2.8,6,2.8,10c0,3.1-0.6,5.8-1.9,8.1c-1.2,2.2-3,4.1-5.1,5.5s-4.5,2.4-7.1,3s-5.3,0.9-8,0.9c-2.8,0-5.7-0.2-8.5-0.5
		s-5.6-0.9-8.4-1.8l-0.4-0.1l-1.7-0.8V147"/>
</g>
</svg>
