<!-- Generated by IcoMoon.io -->
<svg version="1.1" xmlns="http://www.w3.org/2000/svg" width="32" height="32" viewBox="0 0 32 32">
<title>EUR</title>
<path d="M16.128 32c-8.819 0-16-7.181-16-16s7.181-16 16-16c8.819 0 16 7.181 16 16s-7.181 16-16 16v0zM16.128 1.562c-7.962 0-14.438 6.477-14.438 14.438s6.477 14.438 14.438 14.438c7.962 0 14.438-6.477 14.438-14.438s-6.477-14.438-14.438-14.438v0z"></path>
<path d="M21.555 21.069c-1.050 1.114-2.406 1.728-3.802 1.728-2.291 0-4.275-1.613-5.21-3.942h6.374c0.55 0 0.998-0.448 0.998-0.998s-0.448-0.998-0.998-0.998h-6.886c-0.038-0.333-0.064-0.666-0.064-0.998 0-0.384 0.026-0.755 0.077-1.126h6.861c0.55 0 0.998-0.448 0.998-0.998s-0.448-0.998-0.998-0.998h-6.323c0.96-2.266 2.906-3.814 5.158-3.814 1.395 0 2.752 0.614 3.802 1.728 0.384 0.397 1.011 0.422 1.408 0.038s0.422-1.011 0.038-1.408c-1.421-1.536-3.29-2.368-5.235-2.368-3.328 0-6.182 2.419-7.296 5.811h-2.675c-0.55 0-0.998 0.448-0.998 0.998s0.448 0.998 0.998 0.998h2.253c-0.038 0.371-0.064 0.742-0.064 1.126 0 0.333 0.013 0.666 0.051 0.998h-2.24c-0.55 0-0.998 0.448-0.998 0.998s0.448 0.998 0.998 0.998h2.637c1.075 3.456 3.955 5.939 7.334 5.939 1.958 0 3.814-0.832 5.261-2.342 0.384-0.397 0.358-1.037-0.038-1.408-0.41-0.384-1.037-0.371-1.421 0.038z"></path>
</svg>
