<!-- Generated by IcoMoon.io -->
<svg version="1.1" xmlns="http://www.w3.org/2000/svg" width="32" height="32" viewBox="0 0 32 32">
<title>EVN</title>
<path d="M31.898 26.931c0.102 2.010-1.395 3.942-3.251 4.646-1.843 0.704-4.083 0.218-5.478-1.242-1.587-1.651-3.52-2.138-5.606-1.28-0.627 0.256-1.229 0.73-1.702 1.229-2.586 2.662-7.168 1.843-8.486-1.6-0.819-2.138-0.307-4.378 1.638-5.952 1.651-1.331 4.147-1.421 5.926-0.179 0.755 0.525 1.382 1.229 2.15 1.715 1.907 1.19 4.557 0.742 6.042-0.96 1.536-1.754 4.365-2.086 6.374-0.87 1.562 0.986 2.534 2.893 2.394 4.493z"></path>
<path d="M32 5.069c0.077 3.226-3.328 6.208-7.066 4.71-0.717-0.294-1.408-0.794-1.958-1.357-2.010-2.061-5.402-1.933-7.283 0.243-1.088 1.267-2.598 1.613-4.25 1.459-2.061-0.192-3.853-1.792-4.314-3.84-0.422-1.894 0.128-3.93 1.997-5.338 1.856-1.382 4.992-1.229 6.707 0.678 1.242 1.37 2.854 1.92 4.762 1.459 1.024-0.243 1.83-0.768 2.522-1.523 2.483-2.701 7.206-1.779 8.448 1.664 0.23 0.602 0.294 1.242 0.435 1.843z"></path>
<path d="M19.43 10.842c2.931-0.013 5.158 2.189 5.184 5.107 0.026 2.778-2.176 5.082-5.069 5.158-2.854 0.064-5.222-2.291-5.222-5.12 0-2.906 2.214-5.133 5.107-5.146z"></path>
<path d="M10.189 16c0.166 2.368-2.15 5.21-5.363 5.043-2.253-0.115-4.966-2.202-4.826-5.312 0.128-2.675 2.355-4.864 5.133-4.877 2.726 0 5.133 2.33 5.056 5.146z"></path>
</svg>
