<?xml version="1.0" encoding="utf-8"?>
<!-- Generator: Adobe Illustrator 22.1.0, SVG Export Plug-In . SVG Version: 6.00 Build 0)  -->
<svg version="1.1" id="Layer_1" xmlns="http://www.w3.org/2000/svg" xmlns:xlink="http://www.w3.org/1999/xlink" x="0px" y="0px"
	 viewBox="0 0 250 250" style="enable-background:new 0 0 250 250;" xml:space="preserve">
<g>
	<path d="M249.2,210.4c0.8,15.7-10.9,30.8-25.4,36.3c-14.4,5.5-31.9,1.7-42.8-9.7c-12.4-12.9-27.5-16.7-43.8-10
		c-4.9,2-9.6,5.7-13.3,9.6c-20.2,20.8-56,14.4-66.3-12.5c-6.4-16.7-2.4-34.2,12.8-46.5c12.9-10.4,32.4-11.1,46.3-1.4
		c5.9,4.1,10.8,9.6,16.8,13.4c14.9,9.3,35.6,5.8,47.2-7.5c12-13.7,34.1-16.3,49.8-6.8C242.7,183,250.3,197.9,249.2,210.4z"/>
	<path d="M250,39.6c0.6,25.2-26,48.5-55.2,36.8c-5.6-2.3-11-6.2-15.3-10.6c-15.7-16.1-42.2-15.1-56.9,1.9
		c-8.5,9.9-20.3,12.6-33.2,11.4c-16.1-1.5-30.1-14-33.7-30c-3.3-14.8,1-30.7,15.6-41.7c14.5-10.8,39-9.6,52.4,5.3
		c9.7,10.7,22.3,15,37.2,11.4c8-1.9,14.3-6,19.7-11.9c19.4-21.1,56.3-13.9,66,13C248.4,29.9,248.9,34.9,250,39.6z"/>
	<path d="M151.8,84.7c22.9-0.1,40.3,17.1,40.5,39.9c0.2,21.7-17,39.7-39.6,40.3c-22.3,0.5-40.8-17.9-40.8-40
		C111.9,102.2,129.2,84.8,151.8,84.7z"/>
	<path d="M79.6,125c1.3,18.5-16.8,40.7-41.9,39.4C20.1,163.5-1.1,147.2,0,122.9c1-20.9,18.4-38,40.1-38.1
		C61.4,84.8,80.2,103,79.6,125z"/>
</g>
</svg>
