<!-- Generated by IcoMoon.io -->
<svg version="1.1" xmlns="http://www.w3.org/2000/svg" width="32" height="32" viewBox="0 0 32 32">
<title>EVX</title>
<path d="M5.108 27.711c0.212-0.141 0.395-0.24 0.55-0.395 4.261-4.247 8.522-8.508 12.755-12.783 0.226-0.226 0.423-0.578 0.466-0.903 0.169-1.143 1.058-2.046 2.215-2.13 1.072-0.085 2.187 0.649 2.399 1.735 0.141 0.748 0.55 1.227 1.044 1.707 1.383 1.355 2.737 2.737 4.106 4.106 0.155 0.155 0.325 0.31 0.508 0.48 1.312-4.247 0.254-10.272-4.529-14.123-4.868-3.922-11.556-4.106-16.55-0.536-5.079 3.64-6.66 9.947-5.249 14.561 0.127-0.085 0.254-0.141 0.339-0.226 0.959-0.945 1.919-1.891 2.85-2.864 0.155-0.155 0.24-0.423 0.282-0.649 0.226-1.242 1.129-2.102 2.272-2.159 1.213-0.056 2.13 0.691 2.469 1.989 0.056 0.226 0.226 0.451 0.395 0.621 0.578 0.578 1.185 1.129 1.792 1.693-0.578 0.55-1.058 1.002-1.651 1.566-0.31-0.353-0.677-0.734-1.016-1.143-0.268-0.31-0.48-0.325-0.903-0.198-0.55 0.169-1.199 0.169-1.764 0.056-0.395-0.071-0.635-0.056-0.931 0.226-1.566 1.594-3.146 3.16-4.727 4.741-0.099 0.099-0.212 0.198-0.325 0.296-2.878-4.698-2.991-13.164 3.104-18.963 6.406-6.081 16.381-5.841 22.504 0.494 6.067 6.279 5.982 16.282-0.198 22.434-6.222 6.18-16 6.109-22.208 0.367zM8.522 27.443c0.296 0.183 0.508 0.339 0.748 0.466 2.667 1.496 5.517 2.074 8.55 1.637 4.698-0.677 8.127-3.16 10.384-7.309 0.169-0.325 0.183-0.536-0.099-0.818-1.735-1.707-3.457-3.443-5.178-5.178-0.268-0.268-0.48-0.24-0.818-0.169-0.522 0.113-1.101 0.169-1.594 0.028-0.451-0.113-0.677-0.028-0.974 0.268-3.513 3.527-7.041 7.055-10.568 10.582-0.127 0.141-0.254 0.282-0.451 0.494zM9.707 15.944c0.014-0.593-0.395-1.072-0.974-1.101-0.522-0.028-1.072 0.48-1.101 1.016-0.028 0.55 0.437 1.044 1.002 1.072 0.621 0.014 1.058-0.395 1.072-0.988zM21.249 14.914c0.593 0 1.058-0.437 1.058-1.016 0-0.536-0.508-1.058-1.044-1.058-0.564 0-1.030 0.451-1.030 1.044-0.014 0.607 0.409 1.030 1.016 1.030z"></path>
</svg>
