<!-- Generated by IcoMoon.io -->
<svg version="1.1" xmlns="http://www.w3.org/2000/svg" width="32" height="32" viewBox="0 0 32 32">
<title>EXC</title>
<path d="M10.61 17.284c1.002-0.578 1.975-1.129 2.935-1.679 2.822-1.623 5.63-3.259 8.466-4.868 0.183-0.099 0.423-0.071 0.72-0.127-0.099 0.762-0.183 1.397-0.282 2.046-0.155 1.058-0.31 2.102-0.466 3.16-0.056 0.395-0.198 0.691-0.593 0.917-6.589 3.781-13.164 7.591-19.739 11.4-0.31 0.169-0.593 0.381-0.917 0.508-0.169 0.071-0.409 0.042-0.578-0.014-0.056-0.014-0.071-0.282-0.042-0.437 0.212-1.467 0.437-2.949 0.663-4.416 0-0.028 0-0.071 0.014-0.099 0.028-0.536 0.254-0.875 0.748-1.143 1.242-0.663 2.441-1.397 3.668-2.102 0.113-0.071 0.212-0.141 0.367-0.226-0.24-0.423-0.466-0.818-0.691-1.227-1.072-1.862-2.145-3.725-3.231-5.587-0.254-0.437-0.198-0.691 0.254-0.945 3.132-1.806 6.265-3.612 9.397-5.418 3.922-2.272 7.845-4.529 11.781-6.787 0.254-0.141 0.494-0.409 0.832-0.226 0.085 0.042 0.198 0.183 0.183 0.268-0.254 1.707-0.536 3.429-0.804 5.136-0.042 0.254-0.155 0.409-0.381 0.536-4.571 2.582-9.086 5.192-13.601 7.788-0.451 0.254-0.508 0.466-0.24 0.917 0.508 0.861 1.002 1.721 1.538 2.624z"></path>
<path d="M31.76 15.887c-0.226 1.425-0.437 2.765-0.663 4.106-0.071 0.409-0.113 0.818-0.226 1.213-0.056 0.183-0.198 0.381-0.353 0.466-2.836 1.651-5.672 3.287-8.508 4.924-2.977 1.721-5.954 3.443-8.931 5.164-0.466 0.268-0.734 0.212-1.002-0.254-0.945-1.651-1.891-3.302-2.864-4.938-0.155-0.254-0.141-0.381 0.141-0.55 1.467-0.832 2.921-1.665 4.36-2.526 0.268-0.155 0.409-0.127 0.55 0.155 0.155 0.31 0.339 0.593 0.508 0.889 0.198 0.325 0.423 0.381 0.734 0.198 4.981-2.878 9.961-5.757 14.942-8.635 0.24-0.141 0.466-0.282 0.705-0.395 0.268-0.155 0.621 0.014 0.607 0.183z"></path>
</svg>
