<?xml version="1.0" encoding="utf-8"?>
<!-- Generator: Adobe Illustrator 22.1.0, SVG Export Plug-In . SVG Version: 6.00 Build 0)  -->
<svg version="1.1" id="Layer_1" xmlns="http://www.w3.org/2000/svg" xmlns:xlink="http://www.w3.org/1999/xlink" x="0px" y="0px"
	 viewBox="0 0 226.8 226.8" style="enable-background:new 0 0 226.8 226.8;" xml:space="preserve">
<g>
	<path d="M75.2,122.5c7.1-4.1,14-8,20.8-11.9c20-11.5,39.9-23.1,60-34.5c1.3-0.7,3-0.5,5.1-0.9c-0.7,5.4-1.3,9.9-2,14.5
		c-1.1,7.5-2.2,14.9-3.3,22.4c-0.4,2.8-1.4,4.9-4.2,6.5c-46.7,26.8-93.3,53.8-139.9,80.8c-2.2,1.2-4.2,2.7-6.5,3.6
		c-1.2,0.5-2.9,0.3-4.1-0.1c-0.4-0.1-0.5-2-0.3-3.1c1.5-10.4,3.1-20.9,4.7-31.3c0-0.2,0-0.5,0.1-0.7c0.2-3.8,1.8-6.2,5.3-8.1
		c8.8-4.7,17.3-9.9,26-14.9c0.8-0.5,1.5-1,2.6-1.6c-1.7-3-3.3-5.8-4.9-8.7c-7.6-13.2-15.2-26.4-22.9-39.6c-1.8-3.1-1.4-4.9,1.8-6.7
		c22.2-12.8,44.4-25.6,66.6-38.4c27.8-16.1,55.6-32.1,83.5-48.1c1.8-1,3.5-2.9,5.9-1.6c0.6,0.3,1.4,1.3,1.3,1.9
		c-1.8,12.1-3.8,24.3-5.7,36.4c-0.3,1.8-1.1,2.9-2.7,3.8C130,60.5,98,79,66,97.4c-3.2,1.8-3.6,3.3-1.7,6.5
		C67.9,110,71.4,116.1,75.2,122.5z"/>
	<path d="M225.1,112.6c-1.6,10.1-3.1,19.6-4.7,29.1c-0.5,2.9-0.8,5.8-1.6,8.6c-0.4,1.3-1.4,2.7-2.5,3.3
		c-20.1,11.7-40.2,23.3-60.3,34.9c-21.1,12.2-42.2,24.4-63.3,36.6c-3.3,1.9-5.2,1.5-7.1-1.8c-6.7-11.7-13.4-23.4-20.3-35
		c-1.1-1.8-1-2.7,1-3.9c10.4-5.9,20.7-11.8,30.9-17.9c1.9-1.1,2.9-0.9,3.9,1.1c1.1,2.2,2.4,4.2,3.6,6.3c1.4,2.3,3,2.7,5.2,1.4
		c35.3-20.4,70.6-40.8,105.9-61.2c1.7-1,3.3-2,5-2.8C222.7,110.2,225.2,111.4,225.1,112.6z"/>
</g>
</svg>
