<!-- Generated by IcoMoon.io -->
<svg version="1.1" xmlns="http://www.w3.org/2000/svg" width="32" height="32" viewBox="0 0 32 32">
<title>EXMO</title>
<path d="M21.432 10.794l-4.19 11.57-0.028 0.071-0.776-1.58-1.608 0.748 4.205-11.626 1.608-0.748 0.79 1.566zM31.901 11.076l-4.19 11.584-0.762-1.58-1.608 0.748 0.099-0.268 4.19-11.584 1.608-0.748 0.762 1.58-0.099 0.268zM22.956 21.093l2.469-6.801-1.608 0.748-0.762-1.58-2.469 6.815 0.762 1.58 1.608-0.762zM9.623 14.377h-7.351l1.256 1.199-1.256 1.213h7.351l1.242-1.213-1.242-1.199zM1.256 19.429h11.894l-1.242 1.199 1.242 1.199h-11.894l-1.256-1.199 1.256-1.199zM4.896 9.326h11.894l-1.242 1.199 1.242 1.199h-11.894l-1.256-1.199 1.256-1.199z"></path>
</svg>
