<!-- Generated by IcoMoon.io -->
<svg version="1.1" xmlns="http://www.w3.org/2000/svg" width="32" height="32" viewBox="0 0 32 32">
<title>EXODUS</title>
<path d="M17.856 31.936c0-2.406 0-4.813-0.013-7.219 0-2.176 0-4.352 0-6.528 0-0.115 0-0.243 0-0.461 0.154 0.141 0.243 0.218 0.32 0.282 4.557 4.557 9.101 9.101 13.658 13.658 0.077 0.077 0.154 0.166 0.218 0.256-1.075 0-2.163 0-3.238 0-0.691-0.205-1.318-0.512-1.843-1.037-1.997-2.022-4.006-4.019-6.016-6.029-0.077-0.077-0.154-0.141-0.294-0.256 0 0.205 0 0.32 0 0.435 0 1.702 0.013 3.405-0.013 5.094-0.013 0.704-0.077 1.408-0.806 1.805-0.64 0-1.306 0-1.971 0z"></path>
<path d="M0.192 31.872c0.115-0.102 0.23-0.205 0.346-0.32 4.326-4.326 8.653-8.653 12.992-12.992 0.102-0.102 0.205-0.192 0.307-0.282 0.038 0.013 0.064 0.013 0.102 0.026 0 4.544 0 9.088 0 13.632-0.666 0-1.331 0-1.997 0-0.614-0.282-0.806-0.806-0.806-1.421-0.013-1.677 0-3.354 0-5.043 0-0.115 0-0.23 0-0.435-0.141 0.128-0.218 0.192-0.294 0.269-1.894 1.894-3.776 3.789-5.683 5.67-0.269 0.269-0.602 0.474-0.922 0.666-0.243 0.141-0.538 0.205-0.819 0.294-1.011 0-2.035 0-3.046 0-0.064 0-0.128-0.038-0.179-0.064z"></path>
<path d="M0.192 0.077c0.96 0 1.907-0.026 2.867 0 0.781 0.026 1.485 0.32 2.035 0.883 1.894 1.894 3.789 3.802 5.683 5.696 0.090 0.090 0.141 0.205 0.218 0.307 0.038-0.026 0.077-0.038 0.115-0.064 0-0.115 0.013-0.23 0.013-0.346 0-1.664-0.013-3.341 0.013-5.005 0-0.307 0.102-0.64 0.23-0.922 0.166-0.358 0.474-0.563 0.896-0.55 0.461 0 0.909 0 1.37 0 0.205 0 0.307 0.077 0.307 0.294 0 0.077 0 0.141 0 0.218 0 4.237 0 8.486 0 12.723 0 0.141-0.026 0.282-0.038 0.486-0.166-0.154-0.269-0.243-0.371-0.333-4.339-4.339-8.666-8.678-13.005-13.005-0.102-0.115-0.23-0.218-0.333-0.32 0-0.026 0-0.038 0-0.064z"></path>
<path d="M0.192 5.798c0.102 0.090 0.205 0.166 0.307 0.269 3.2 3.213 6.413 6.413 9.613 9.626 0.307 0.307 0.307 0.307 0 0.627-3.2 3.213-6.413 6.426-9.626 9.626-0.090 0.090-0.205 0.179-0.307 0.269 0-0.973 0-1.946 0-2.918 0.026-0.064 0.051-0.115 0.064-0.179 0.179-0.87 0.602-1.587 1.229-2.214 1.549-1.523 3.072-3.072 4.621-4.608 0.23-0.23 0.218-0.346 0-0.563-1.613-1.6-3.213-3.213-4.813-4.813-0.141-0.141-0.307-0.294-0.384-0.474-0.256-0.55-0.474-1.101-0.704-1.651 0-0.998 0-1.997 0-2.995z"></path>
<path d="M17.869 14.106c0-0.026-0.013-0.141-0.013-0.243 0-4.454 0-8.896 0-13.35 0-0.435 0.013-0.435 0.435-0.435 0.371 0 0.742 0 1.114 0 0.589 0 0.973 0.282 1.114 0.845 0.090 0.333 0.128 0.691 0.128 1.050 0.013 1.677 0 3.354 0 5.043 0 0.115 0 0.218 0 0.422 0.166-0.154 0.243-0.23 0.333-0.32 1.997-1.997 4.006-4.006 6.003-6.003 0.691-0.704 1.523-1.050 2.509-1.037 0.704 0.013 1.408 0 2.112 0 0.115 0 0.218 0 0.269 0-4.646 4.672-9.331 9.357-14.003 14.029z"></path>
<path d="M31.962 26.15c-0.077-0.077-0.166-0.154-0.243-0.23-3.2-3.2-6.413-6.413-9.613-9.613-0.307-0.307-0.307-0.307 0-0.602 3.2-3.2 6.413-6.413 9.613-9.613 0.077-0.077 0.166-0.154 0.294-0.282 0.013 0.179 0.026 0.282 0.026 0.384 0 0.717 0.013 1.434 0 2.15-0.013 0.96-0.346 1.818-1.024 2.496-1.613 1.638-3.251 3.264-4.89 4.877-0.218 0.218-0.23 0.346 0 0.563 1.613 1.587 3.2 3.187 4.8 4.787 0.742 0.742 1.126 1.651 1.114 2.714 0 0.666 0 1.331 0 1.997 0 0.115 0 0.218 0 0.333-0.013 0.026-0.051 0.026-0.077 0.038z"></path>
<path d="M0.218 0.115c0.128 0.051 0.243 0.102 0.371 0.154"></path>
<path d="M32.013 0.115c-0.128 0.051-0.243 0.102-0.371 0.154"></path>
<path d="M0.218 5.837c0.051 0.128 0.102 0.243 0.154 0.371"></path>
<path d="M32.013 5.837c-0.051 0.128-0.102 0.243-0.154 0.371"></path>
<path d="M18.010 13.888c-0.038 0.115-0.077 0.23-0.128 0.346"></path>
<path d="M17.894 17.779c0.051 0.128 0.102 0.243 0.154 0.371"></path>
<path d="M0.346 25.843c-0.038 0.115-0.077 0.23-0.128 0.346"></path>
<path d="M31.885 25.843c0.038 0.115 0.077 0.23 0.128 0.346"></path>
</svg>
