<!-- Generated by IcoMoon.io -->
<svg version="1.1" xmlns="http://www.w3.org/2000/svg" width="32" height="32" viewBox="0 0 32 32">
<title>EXP</title>
<path d="M1.862 15.972c0-2.229 0.028-4.473-0.014-6.702-0.014-0.72 0.254-1.213 0.861-1.566 4.247-2.469 8.494-4.938 12.741-7.422 0.522-0.31 1.002-0.24 1.496 0.042 4.219 2.469 8.451 4.924 12.67 7.393 0.578 0.339 0.875 0.818 0.861 1.566-0.028 4.473-0.028 8.931 0 13.404 0 0.762-0.24 1.256-0.931 1.665-4.12 2.37-8.24 4.783-12.332 7.224-0.72 0.423-1.326 0.367-1.989-0.014-3.64-2.102-7.28-4.205-10.935-6.307-0.55-0.31-1.086-0.663-1.651-0.945-0.607-0.296-0.804-0.762-0.804-1.411 0.042-2.314 0.028-4.628 0.028-6.928zM15.746 3.090c0-0.296 0.014-0.451 0-0.607-0.042-0.254-0.113-0.508-0.169-0.762-0.226 0.085-0.48 0.141-0.677 0.268-2.314 1.34-4.628 2.681-6.942 4.049-0.268 0.169-0.48 0.437-0.72 0.663 0.339 0.24 0.663 0.536 1.044 0.691 0.226 0.099 0.55-0.014 0.818 0 0.353 0.014 0.861-0.056 1.016 0.141 1.086 1.354 2.159 1.101 3.287 0.113 0.042-0.028 0.085-0.056 0.127-0.071 0.663-0.212 0.903-0.607 0.72-1.312-0.127-0.508-0.183-1.086 0.466-1.369 0.875-0.381 1.228-1.016 1.030-1.806zM16.677 29.051c0 0.198-0.014 0.282 0 0.353 0.042 0.282 0.099 0.564 0.155 0.861 0.268-0.099 0.564-0.169 0.818-0.325 2.272-1.312 4.543-2.653 6.801-3.993 0.282-0.169 0.494-0.423 0.734-0.649-0.381-0.268-0.748-0.564-1.143-0.804-0.127-0.071-0.353 0-0.522 0.028-0.804 0.113-1.467-0.071-2.018-0.748-0.423-0.508-1.171-0.48-1.679-0.056-0.296 0.24-0.578 0.508-0.917 0.649-0.691 0.296-0.959 0.734-0.705 1.481 0.226 0.677 0.056 1.242-0.621 1.58-0.72 0.381-1.086 0.917-0.903 1.623zM23.337 7.407c0.635 0.183 1.143-0.056 1.58-0.494 0.254-0.24 0.24-0.423-0.056-0.593-0.409-0.24-0.818-0.494-1.242-0.734-2.131-1.242-4.289-2.469-6.406-3.739-0.494-0.296-0.621-0.183-0.607 0.339 0.014 0.48 0.028 0.959 0 1.439-0.014 0.423 0.099 0.748 0.508 0.917 0.917 0.381 1.242 1.030 0.945 1.989-0.141 0.466 0.056 0.748 0.522 0.931 0.367 0.141 0.72 0.367 1.030 0.621 0.649 0.536 1.411 0.564 2.004-0.042 0.466-0.494 1.002-0.804 1.721-0.635zM8.818 24.423c-0.339 0.127-0.861 0.24-1.284 0.494-0.593 0.367-0.564 0.508 0.042 0.861 2.243 1.312 4.501 2.61 6.758 3.908 0.339 0.198 0.72 0.325 1.072 0.494 0.042-0.395 0.113-0.776 0.127-1.171 0.014-0.494 0.127-1.030-0.466-1.326-0.861-0.437-1.185-1.101-0.889-2.060 0.169-0.536-0.056-0.903-0.593-1.143-0.367-0.169-0.705-0.395-1.002-0.663-0.607-0.522-1.213-0.55-1.792 0-0.494 0.466-0.988 0.945-1.975 0.607zM16.705 18.892c0.042 0.705 0.085 1.411 0.141 2.116 0.028 0.353 0.169 0.578 0.593 0.466 2.991-0.762 4.727-3.513 4.007-6.73-0.085-0.395-0.282-0.494-0.649-0.296-0.705 0.381-1.411 0.818-2.159 1.115-1.58 0.607-2.483 1.538-1.933 3.33zM16.282 10.85c-0.564 0.099-1.143 0.169-1.707 0.282-0.931 0.198-1.594 0.832-2.272 1.439-0.339 0.31-0.381 0.437 0 0.663 1.185 0.72 2.37 1.453 3.57 2.145 0.155 0.085 0.437 0.085 0.593-0.014 1.199-0.691 2.384-1.411 3.57-2.13 0.367-0.212 0.409-0.437 0.071-0.748-1.101-0.959-2.258-1.721-3.824-1.637zM3.048 18.85c0 1.016 0 2.032 0 3.048 0 0.748 0.056 0.79 0.691 0.437 1.312-0.705 2.638-1.411 3.951-2.116 0.663-0.353 0.776-0.705 0.437-1.411-0.085-0.183-0.212-0.353-0.268-0.55-0.254-0.974-0.832-1.439-1.877-1.242-0.508 0.099-0.875-0.141-1.072-0.635-0.113-0.282-0.24-0.621-0.466-0.776-0.353-0.24-0.79-0.339-1.185-0.508-0.071 0.282-0.183 0.55-0.183 0.832-0.042 0.988-0.028 1.961-0.028 2.921zM29.235 18.864c0-1.044-0.014-2.074 0-3.118 0.014-0.578-0.282-0.804-0.734-0.536-0.395 0.24-0.762 0.635-0.974 1.044-0.296 0.564-0.677 0.847-1.312 0.776-0.226-0.028-0.48-0.056-0.677 0.014-0.254 0.099-0.564 0.24-0.705 0.451-0.282 0.437-0.508 0.931-0.691 1.425-0.155 0.437-0.339 0.903 0.282 1.227 1.397 0.705 2.765 1.467 4.148 2.201 0.423 0.226 0.649 0.183 0.649-0.381 0-1.016 0.014-2.060 0.014-3.104zM15.422 18.892c0.042 0 0.085 0 0.127 0 0-0.578 0.028-1.171-0.014-1.75-0.014-0.24-0.141-0.593-0.325-0.691-1.199-0.691-2.441-1.312-3.668-1.975-0.339-0.183-0.466-0.056-0.494 0.268-0.056 0.607-0.169 1.199-0.169 1.806 0.028 2.187 1.637 4.219 3.739 4.84 0.564 0.169 0.776-0.014 0.79-0.522 0.028-0.663 0.014-1.326 0.014-1.975zM3.048 11.951c0 0.536-0.028 1.072 0.014 1.594 0.014 0.282 0.169 0.776 0.226 0.776 0.395-0.028 0.974-0.042 1.143-0.296 0.663-0.974 1.425-1.27 2.483-0.734 0.028 0.014 0.056 0.028 0.071 0.014 0.282-0.254 0.593-0.48 0.818-0.776 0.042-0.056-0.169-0.423-0.339-0.522-1.256-0.748-2.54-1.467-3.824-2.187-0.55-0.31-0.593-0.282-0.607 0.381 0 0.578 0.014 1.157 0.014 1.75zM29.235 11.965c0-0.635 0-1.27 0-1.891 0-0.395-0.071-0.578-0.522-0.31-1.284 0.762-2.582 1.481-3.866 2.243-0.155 0.099-0.353 0.466-0.296 0.536 0.226 0.296 0.649 0.79 0.79 0.734 1.199-0.536 2.018-0.169 2.653 0.903 0.042 0.085 0.155 0.141 0.24 0.169 0.593 0.254 0.988 0.014 1.002-0.621 0.014-0.607 0-1.185 0-1.764zM9.030 14.194c-0.155-0.226-0.367-0.564-0.607-0.861-0.028-0.042-0.282 0.014-0.31 0.071-0.494 0.903-1.213 0.578-1.919 0.367-0.183-0.056-0.494-0.085-0.564 0-0.296 0.367-0.861 0.635-0.691 1.256 0.226 0.861 0.818 1.467 1.453 1.355 1.030-0.183 1.665 0.155 1.905 1.185 0.014 0.071 0.056 0.141 0.113 0.198 0.099 0.127 0.212 0.24 0.31 0.367 0.056-0.155 0.169-0.325 0.141-0.48-0.155-1.101-0.24-2.201 0.169-3.457zM23.563 18.088c0.056 0.028 0.113 0.056 0.169 0.085 0.169-0.339 0.395-0.663 0.494-1.016 0.198-0.621 0.55-0.875 1.185-0.748 0.903 0.183 1.481-0.169 1.834-1.030 0.141-0.353 0.381-0.649 0.014-1.016s-0.593-0.861-1.298-0.55c-0.578 0.268-1.284 0.48-1.693-0.381-0.028-0.071-0.339-0.099-0.423-0.028-0.325 0.268-0.466 0.607-0.353 1.072 0.127 0.593 0.198 1.199 0.212 1.806 0.014 0.621-0.085 1.213-0.141 1.806zM7.831 9.016c0.056 0.014 0.113 0.028 0.169 0.028-0.212 0.578 0.141 0.917 0.48 1.27 0.268 0.282 0.409 0.663 0.663 0.959 0.183 0.24 0.423 0.522 0.677 0.578 0.155 0.028 0.508-0.31 0.578-0.55 0.212-0.762 0.55-1.284 1.411-1.312 0.127 0 0.282-0.028 0.353-0.113 0.169-0.183 0.296-0.409 0.451-0.621-0.212-0.056-0.451-0.198-0.635-0.141-0.705 0.24-1.227-0.014-1.679-0.536-0.113-0.127-0.24-0.339-0.381-0.353-0.55-0.071-1.129-0.141-1.679-0.056-0.183 0.042-0.282 0.55-0.409 0.847zM24.437 9.397c0.014-1.115-0.155-1.227-1.016-1.369-0.705-0.113-1.115 0.24-1.51 0.663-0.423 0.451-0.861 0.635-1.496 0.437-0.212-0.071-0.48 0.085-0.734 0.127 0.169 0.198 0.296 0.536 0.494 0.578 0.945 0.212 1.594 0.649 1.891 1.651 0.141 0.508 0.931 0.466 1.030-0.028 0.127-0.677 0.621-1.002 0.988-1.467 0.212-0.212 0.31-0.494 0.353-0.593zM12.233 22.914c-0.127-0.268-0.141-0.381-0.212-0.451-0.677-0.677-1.369-1.34-2.018-2.032-0.409-0.423-0.607-0.113-0.832 0.169-0.339 0.423-0.649 0.875-0.988 1.284-0.282 0.339-0.367 1.651-0.085 1.834 0.31 0.212 1.637 0.085 1.933-0.183 0.593-0.536 1.129-1.199 2.201-0.621zM20.219 22.702c0.832-0.226 1.411 0.085 1.891 0.705 0.536 0.72 1.284 0.409 1.961 0.367 0.085 0 0.198-0.141 0.254-0.24 0.268-0.55 0.113-1.284-0.282-1.764-0.31-0.367-0.564-0.804-0.861-1.199-0.226-0.296-0.48-0.451-0.79-0.071-0.254 0.325-0.508 0.635-0.79 0.917-0.451 0.451-0.917 0.861-1.383 1.284zM7.365 21.418c-1.044 0.55-2.159 1.143-3.273 1.735-0.452 0.24-0.339 0.423 0.028 0.621 0.578 0.325 1.129 0.677 1.707 0.988 0.141 0.071 0.353 0.099 0.494 0.042 0.494-0.212 0.988-1.256 0.959-1.848-0.028-0.48 0.042-0.974 0.085-1.538zM24.889 21.404c0.071 0.48 0.198 0.889 0.169 1.284-0.071 0.776 0.212 1.355 0.72 1.905 0.254 0.268 0.48 0.339 0.79 0.141 0.564-0.339 1.129-0.663 1.693-1.002 0.296-0.169 0.353-0.367 0.014-0.55-1.129-0.593-2.258-1.185-3.386-1.778zM7.45 10.596c-0.071-0.593-0.183-1.143-0.183-1.693 0-0.536-0.423-1.524-0.875-1.721-0.127-0.056-0.353-0.042-0.48 0.028-0.578 0.31-1.129 0.663-1.707 0.988-0.353 0.198-0.268 0.395 0.014 0.55 1.101 0.649 2.215 1.27 3.231 1.848zM24.917 10.554c0.988-0.564 2.088-1.171 3.16-1.792 0.282-0.169 0.353-0.367 0-0.55-0.564-0.325-1.129-0.677-1.693-0.988-0.127-0.071-0.395-0.071-0.466 0-0.423 0.452-0.917 0.847-0.861 1.594 0.028 0.578-0.085 1.157-0.141 1.735zM15.746 6.984c0-0.381 0.028-0.762-0.014-1.143-0.014-0.183-0.155-0.367-0.24-0.55-0.198 0.198-0.437 0.367-0.593 0.593-0.071 0.113 0.042 0.339 0.071 0.508 0.141 1.143 0.127 1.129-0.903 1.679-0.183 0.099-0.325 0.296-0.48 0.451 0.254 0.141 0.508 0.395 0.762 0.409 1.157 0.056 1.383-0.183 1.383-1.354 0.014-0.183 0.014-0.381 0.014-0.593zM17.453 6.011c0.042-0.042 0.071-0.085 0.113-0.127-0.24-0.212-0.466-0.423-0.705-0.635-0.085 0.226-0.24 0.437-0.254 0.663-0.028 0.663-0.042 1.312 0 1.975 0.014 0.296 0.141 0.847 0.226 0.847 0.578 0.028 1.171 0.48 1.75 0.014 0.183-0.155 0.367-0.395 0-0.508-1.157-0.325-1.538-1.016-1.129-2.145 0.014-0.042 0-0.071 0-0.085zM16.677 25.369c0 0.437 0 0.861 0 1.298 0 0.339 0.169 0.381 0.437 0.24 0.451-0.24 0.466-0.635 0.367-1.044-0.226-0.959 0-1.693 1.002-2.032 0.028-0.014 0.056-0.014 0.071-0.028 0.085-0.085 0.155-0.169 0.24-0.254-0.127-0.042-0.254-0.127-0.381-0.113-1.735 0.169-1.735 0.169-1.735 1.933zM15.549 25.355c0-1.552 0-1.566-1.143-1.834-0.268-0.071-0.564-0.028-0.847-0.028 0.212 0.183 0.381 0.423 0.635 0.536 0.677 0.296 0.875 0.762 0.677 1.453-0.071 0.268-0.155 0.578-0.085 0.818 0.085 0.24 0.367 0.409 0.55 0.607 0.071-0.183 0.183-0.367 0.198-0.564 0.042-0.325 0.014-0.663 0.014-0.988z"></path>
</svg>
