<?xml version="1.0" encoding="utf-8"?>
<!-- Generator: Adobe Illustrator 22.1.0, SVG Export Plug-In . SVG Version: 6.00 Build 0)  -->
<svg version="1.1" id="Layer_1" xmlns="http://www.w3.org/2000/svg" xmlns:xlink="http://www.w3.org/1999/xlink" x="0px" y="0px"
	 viewBox="0 0 226.8 226.8" style="enable-background:new 0 0 226.8 226.8;" xml:space="preserve">
<g>
	<path d="M13.2,113.2c0-15.8,0.2-31.7-0.1-47.5c-0.1-5.1,1.8-8.6,6.1-11.1c30.1-17.5,60.2-35,90.3-52.6c3.7-2.2,7.1-1.7,10.6,0.3
		c29.9,17.5,59.9,34.9,89.8,52.4c4.1,2.4,6.2,5.8,6.1,11.1c-0.2,31.7-0.2,63.3,0,95c0,5.4-1.7,8.9-6.6,11.8
		c-29.2,16.8-58.4,33.9-87.4,51.2c-5.1,3-9.4,2.6-14.1-0.1c-25.8-14.9-51.6-29.8-77.5-44.7c-3.9-2.2-7.7-4.7-11.7-6.7
		c-4.3-2.1-5.7-5.4-5.7-10C13.3,145.9,13.2,129.5,13.2,113.2z M111.6,21.9c0-2.1,0.1-3.2,0-4.3c-0.3-1.8-0.8-3.6-1.2-5.4
		c-1.6,0.6-3.4,1-4.8,1.9c-16.4,9.5-32.8,19-49.2,28.7c-1.9,1.2-3.4,3.1-5.1,4.7c2.4,1.7,4.7,3.8,7.4,4.9c1.6,0.7,3.9-0.1,5.8,0
		c2.5,0.1,6.1-0.4,7.2,1C79.4,63,87,61.2,95,54.2c0.3-0.2,0.6-0.4,0.9-0.5c4.7-1.5,6.4-4.3,5.1-9.3c-0.9-3.6-1.3-7.7,3.3-9.7
		C110.5,32,113,27.5,111.6,21.9z M118.2,205.9c0,1.4-0.1,2,0,2.5c0.3,2,0.7,4,1.1,6.1c1.9-0.7,4-1.2,5.8-2.3
		c16.1-9.3,32.2-18.8,48.2-28.3c2-1.2,3.5-3,5.2-4.6c-2.7-1.9-5.3-4-8.1-5.7c-0.9-0.5-2.5,0-3.7,0.2c-5.7,0.8-10.4-0.5-14.3-5.3
		c-3-3.6-8.3-3.4-11.9-0.4c-2.1,1.7-4.1,3.6-6.5,4.6c-4.9,2.1-6.8,5.2-5,10.5c1.6,4.8,0.4,8.8-4.4,11.2
		C119.5,197.1,116.9,200.9,118.2,205.9z M165.4,52.5c4.5,1.3,8.1-0.4,11.2-3.5c1.8-1.7,1.7-3-0.4-4.2c-2.9-1.7-5.8-3.5-8.8-5.2
		C152.3,30.8,137,22.1,122,13.1c-3.5-2.1-4.4-1.3-4.3,2.4c0.1,3.4,0.2,6.8,0,10.2c-0.1,3,0.7,5.3,3.6,6.5c6.5,2.7,8.8,7.3,6.7,14.1
		c-1,3.3,0.4,5.3,3.7,6.6c2.6,1,5.1,2.6,7.3,4.4c4.6,3.8,10,4,14.2-0.3C156.5,53.5,160.3,51.3,165.4,52.5z M62.5,173.1
		c-2.4,0.9-6.1,1.7-9.1,3.5c-4.2,2.6-4,3.6,0.3,6.1c15.9,9.3,31.9,18.5,47.9,27.7c2.4,1.4,5.1,2.3,7.6,3.5c0.3-2.8,0.8-5.5,0.9-8.3
		c0.1-3.5,0.9-7.3-3.3-9.4c-6.1-3.1-8.4-7.8-6.3-14.6c1.2-3.8-0.4-6.4-4.2-8.1c-2.6-1.2-5-2.8-7.1-4.7c-4.3-3.7-8.6-3.9-12.7,0
		C73,172.1,69.5,175.5,62.5,173.1z M118.4,133.9c0.3,5,0.6,10,1,15c0.2,2.5,1.2,4.1,4.2,3.3c21.2-5.4,33.5-24.9,28.4-47.7
		c-0.6-2.8-2-3.5-4.6-2.1c-5,2.7-10,5.8-15.3,7.9C120.9,114.6,114.5,121.2,118.4,133.9z M115.4,76.9c-4,0.7-8.1,1.2-12.1,2
		c-6.6,1.4-11.3,5.9-16.1,10.2c-2.4,2.2-2.7,3.1,0,4.7c8.4,5.1,16.8,10.3,25.3,15.2c1.1,0.6,3.1,0.6,4.2-0.1
		c8.5-4.9,16.9-10,25.3-15.1c2.6-1.5,2.9-3.1,0.5-5.3C134.7,81.7,126.5,76.3,115.4,76.9z M21.6,133.6c0,7.2,0,14.4,0,21.6
		c0,5.3,0.4,5.6,4.9,3.1c9.3-5,18.7-10,28-15c4.7-2.5,5.5-5,3.1-10c-0.6-1.3-1.5-2.5-1.9-3.9c-1.8-6.9-5.9-10.2-13.3-8.8
		c-3.6,0.7-6.2-1-7.6-4.5c-0.8-2-1.7-4.4-3.3-5.5c-2.5-1.7-5.6-2.4-8.4-3.6c-0.5,2-1.3,3.9-1.3,5.9
		C21.5,119.9,21.6,126.8,21.6,133.6z M207.2,133.7c0-7.4-0.1-14.7,0-22.1c0.1-4.1-2-5.7-5.2-3.8c-2.8,1.7-5.4,4.5-6.9,7.4
		c-2.1,4-4.8,6-9.3,5.5c-1.6-0.2-3.4-0.4-4.8,0.1c-1.8,0.7-4,1.7-5,3.2c-2,3.1-3.6,6.6-4.9,10.1c-1.1,3.1-2.4,6.4,2,8.7
		c9.9,5,19.6,10.4,29.4,15.6c3,1.6,4.6,1.3,4.6-2.7C207.1,148.5,207.2,141.1,207.2,133.7z M109.3,133.9c0.3,0,0.6,0,0.9,0
		c0-4.1,0.2-8.3-0.1-12.4c-0.1-1.7-1-4.2-2.3-4.9c-8.5-4.9-17.3-9.3-26-14c-2.4-1.3-3.3-0.4-3.5,1.9c-0.4,4.3-1.2,8.5-1.2,12.8
		c0.2,15.5,11.6,29.9,26.5,34.3c4,1.2,5.5-0.1,5.6-3.7C109.4,143.2,109.3,138.5,109.3,133.9z M21.6,84.7c0,3.8-0.2,7.6,0.1,11.3
		c0.1,2,1.2,5.5,1.6,5.5c2.8-0.2,6.9-0.3,8.1-2.1c4.7-6.9,10.1-9,17.6-5.2c0.2,0.1,0.4,0.2,0.5,0.1c2-1.8,4.2-3.4,5.8-5.5
		c0.3-0.4-1.2-3-2.4-3.7c-8.9-5.3-18-10.4-27.1-15.5c-3.9-2.2-4.2-2-4.3,2.7C21.5,76.4,21.6,80.5,21.6,84.7z M207.2,84.8
		c0-4.5,0-9,0-13.4c0-2.8-0.5-4.1-3.7-2.2c-9.1,5.4-18.3,10.5-27.4,15.9c-1.1,0.7-2.5,3.3-2.1,3.8c1.6,2.1,4.6,5.6,5.6,5.2
		c8.5-3.8,14.3-1.2,18.8,6.4c0.3,0.6,1.1,1,1.7,1.2c4.2,1.8,7,0.1,7.1-4.4C207.3,93,207.2,88.9,207.2,84.8z M64,100.6
		c-1.1-1.6-2.6-4-4.3-6.1c-0.2-0.3-2,0.1-2.2,0.5c-3.5,6.4-8.6,4.1-13.6,2.6c-1.3-0.4-3.5-0.6-4,0c-2.1,2.6-6.1,4.5-4.9,8.9
		c1.6,6.1,5.8,10.4,10.3,9.6c7.3-1.3,11.8,1.1,13.5,8.4c0.1,0.5,0.4,1,0.8,1.4c0.7,0.9,1.5,1.7,2.2,2.6c0.4-1.1,1.2-2.3,1-3.4
		C61.7,117.3,61.1,109.5,64,100.6z M167,128.2c0.4,0.2,0.8,0.4,1.2,0.6c1.2-2.4,2.8-4.7,3.5-7.2c1.4-4.4,3.9-6.2,8.4-5.3
		c6.4,1.3,10.5-1.2,13-7.3c1-2.5,2.7-4.6,0.1-7.2c-2.6-2.6-4.2-6.1-9.2-3.9c-4.1,1.9-9.1,3.4-12-2.7c-0.2-0.5-2.4-0.7-3-0.2
		c-2.3,1.9-3.3,4.3-2.5,7.6c0.9,4.2,1.4,8.5,1.5,12.8C168.1,119.8,167.4,124,167,128.2z M55.5,63.9c0.4,0.1,0.8,0.2,1.2,0.2
		c-1.5,4.1,1,6.5,3.4,9c1.9,2,2.9,4.7,4.7,6.8c1.3,1.7,3,3.7,4.8,4.1c1.1,0.2,3.6-2.2,4.1-3.9c1.5-5.4,3.9-9.1,10-9.3
		c0.9,0,2-0.2,2.5-0.8c1.2-1.3,2.1-2.9,3.2-4.4c-1.5-0.4-3.2-1.4-4.5-1c-5,1.7-8.7-0.1-11.9-3.8c-0.8-0.9-1.7-2.4-2.7-2.5
		c-3.9-0.5-8-1-11.9-0.4C57.1,58.2,56.4,61.8,55.5,63.9z M173.2,66.6c0.1-7.9-1.1-8.7-7.2-9.7c-5-0.8-7.9,1.7-10.7,4.7
		c-3,3.2-6.1,4.5-10.6,3.1c-1.5-0.5-3.4,0.6-5.2,0.9c1.2,1.4,2.1,3.8,3.5,4.1c6.7,1.5,11.3,4.6,13.4,11.7c1,3.6,6.6,3.3,7.3-0.2
		c0.9-4.8,4.4-7.1,7-10.4C172.2,69.3,172.9,67.3,173.2,66.6z M86.7,162.4c-0.9-1.9-1-2.7-1.5-3.2c-4.8-4.8-9.7-9.5-14.3-14.4
		c-2.9-3-4.3-0.8-5.9,1.2c-2.4,3-4.6,6.2-7,9.1c-2,2.4-2.6,11.7-0.6,13c2.2,1.5,11.6,0.6,13.7-1.3C75.3,163,79.1,158.3,86.7,162.4z
		 M143.3,160.9c5.9-1.6,10,0.6,13.4,5c3.8,5.1,9.1,2.9,13.9,2.6c0.6,0,1.4-1,1.8-1.7c1.9-3.9,0.8-9.1-2-12.5c-2.2-2.6-4-5.7-6.1-8.5
		c-1.6-2.1-3.4-3.2-5.6-0.5c-1.8,2.3-3.6,4.5-5.6,6.5C149.9,155,146.6,157.9,143.3,160.9z M52.2,151.8c-7.4,3.9-15.3,8.1-23.2,12.3
		c-3.2,1.7-2.4,3,0.2,4.4c4.1,2.3,8,4.8,12.1,7c1,0.5,2.5,0.7,3.5,0.3c3.5-1.5,7-8.9,6.8-13.1C51.4,159.3,51.9,155.8,52.2,151.8z
		 M176.4,151.7c0.5,3.4,1.4,6.3,1.2,9.1c-0.5,5.5,1.5,9.6,5.1,13.5c1.8,1.9,3.4,2.4,5.6,1c4-2.4,8-4.7,12-7.1
		c2.1-1.2,2.5-2.6,0.1-3.9C192.4,160.1,184.4,155.9,176.4,151.7z M52.8,75.1c-0.5-4.2-1.3-8.1-1.3-12c0-3.8-3-10.8-6.2-12.2
		c-0.9-0.4-2.5-0.3-3.4,0.2c-4.1,2.2-8,4.7-12.1,7c-2.5,1.4-1.9,2.8,0.1,3.9C37.7,66.6,45.6,71,52.8,75.1z M176.6,74.8
		c7-4,14.8-8.3,22.4-12.7c2-1.2,2.5-2.6,0-3.9c-4-2.3-8-4.8-12-7c-0.9-0.5-2.8-0.5-3.3,0c-3,3.2-6.5,6-6.1,11.3
		C177.8,66.6,177,70.7,176.6,74.8z M111.6,49.5c0-2.7,0.2-5.4-0.1-8.1c-0.1-1.3-1.1-2.6-1.7-3.9c-1.4,1.4-3.1,2.6-4.2,4.2
		c-0.5,0.8,0.3,2.4,0.5,3.6c1,8.1,0.9,8-6.4,11.9c-1.3,0.7-2.3,2.1-3.4,3.2c1.8,1,3.6,2.8,5.4,2.9c8.2,0.4,9.8-1.3,9.8-9.6
		C111.6,52.4,111.6,51,111.6,49.5z M123.7,42.6c0.3-0.3,0.5-0.6,0.8-0.9c-1.7-1.5-3.3-3-5-4.5c-0.6,1.6-1.7,3.1-1.8,4.7
		c-0.2,4.7-0.3,9.3,0,14c0.1,2.1,1,6,1.6,6c4.1,0.2,8.3,3.4,12.4,0.1c1.3-1.1,2.6-2.8,0-3.6c-8.2-2.3-10.9-7.2-8-15.2
		C123.8,42.9,123.7,42.7,123.7,42.6z M118.2,179.8c0,3.1,0,6.1,0,9.2c0,2.4,1.2,2.7,3.1,1.7c3.2-1.7,3.3-4.5,2.6-7.4
		c-1.6-6.8,0-12,7.1-14.4c0.2-0.1,0.4-0.1,0.5-0.2c0.6-0.6,1.1-1.2,1.7-1.8c-0.9-0.3-1.8-0.9-2.7-0.8
		C118.2,167.3,118.2,167.3,118.2,179.8z M110.2,179.7c0-11,0-11.1-8.1-13c-1.9-0.5-4-0.2-6-0.2c1.5,1.3,2.7,3,4.5,3.8
		c4.8,2.1,6.2,5.4,4.8,10.3c-0.5,1.9-1.1,4.1-0.6,5.8c0.6,1.7,2.6,2.9,3.9,4.3c0.5-1.3,1.3-2.6,1.4-4
		C110.4,184.4,110.2,182,110.2,179.7z"/>
</g>
</svg>
