<!-- Generated by IcoMoon.io -->
<svg version="1.1" xmlns="http://www.w3.org/2000/svg" width="32" height="32" viewBox="0 0 32 32">
<title>EXTSTOCK</title>
<path d="M8.451 25.721c-2.751 0.071-5.489 0.155-8.226 0.226-0.113-0.367 0.071-7.041 0.226-8.325 0.353 0.254 0.607 0.564 0.889 0.832 0.31 0.296 0.607 0.607 0.903 0.903 0.282 0.282 0.578 0.578 0.917 0.903 4.205-4.205 8.381-8.381 12.6-12.614 1.848 1.82 3.626 3.626 5.432 5.418-0.847 0.818-1.665 1.623-2.511 2.441-0.875-0.875-1.806-1.792-2.765-2.765-3.386 3.4-6.73 6.758-10.102 10.159 0.917 0.917 1.792 1.806 2.681 2.695-0.014 0.056-0.028 0.085-0.042 0.127z"></path>
<path d="M25.947 9.185c-0.931-0.931-1.877-1.877-2.836-2.85 0.085-0.042 0.127-0.071 0.155-0.071 0.861-0.028 1.735-0.071 2.596-0.099 1.637-0.042 3.287-0.085 4.924-0.113 0.226 0 0.451 0 0.663 0 0.113 0.324-0.085 7.746-0.24 8.423-0.903-0.903-1.778-1.778-2.695-2.695-4.219 4.219-8.395 8.409-12.543 12.557-1.792-1.792-3.556-3.556-5.362-5.376 0.79-0.79 1.637-1.637 2.54-2.526 0.945 0.945 1.877 1.862 2.78 2.765 3.358-3.344 6.674-6.66 10.018-10.018z"></path>
<path d="M9.58 12.825c-0.889 0.903-1.721 1.75-2.582 2.624-1.228-1.228-2.455-2.455-3.725-3.725-0.931 0.959-1.834 1.877-2.751 2.822-0.155-0.409-0.437-7.676-0.353-8.409 0.395-0.155 7.436-0.014 8.494 0.183-0.931 0.945-1.834 1.862-2.751 2.808 1.242 1.256 2.469 2.483 3.668 3.697z"></path>
<path d="M22.152 19.005c0.847-0.832 1.637-1.623 2.483-2.469 1.242 1.242 2.511 2.511 3.824 3.81 0.917-0.945 1.806-1.862 2.723-2.751 0.042 0.014 0.071 0.028 0.113 0.056 0.085 2.737 0.183 5.474 0.282 8.296-2.794-0.056-5.545-0.141-8.296-0.24-0.014-0.028-0.028-0.056-0.042-0.085 0.889-0.903 1.778-1.806 2.723-2.765-1.284-1.284-2.54-2.568-3.81-3.852z"></path>
</svg>
