<!-- Generated by IcoMoon.io -->
<svg version="1.1" xmlns="http://www.w3.org/2000/svg" width="32" height="32" viewBox="0 0 32 32">
<title>EXX</title>
<path d="M9.947 12.67h-4.19c-1.806 0-3.287 1.467-3.287 3.287s1.467 3.287 3.287 3.287h4.642l-1.764 2.046h-2.878c-2.949-0.014-5.333-2.399-5.333-5.333 0-2.949 2.384-5.333 5.333-5.333h2.878l1.764 2.046h-0.451zM12.332 14.928h-6.73v2.046h6.73l0.875-1.016-0.875-1.030z"></path>
<path d="M23.337 10.794h-2.892l-2.102 2.427c-0.056 0.056-0.099 0.113-0.155 0.155-0.127 0.113-0.282 0.198-0.466 0.198-0.169 0-0.325-0.071-0.451-0.183-0.056-0.042-0.113-0.113-0.155-0.169l-2.088-2.427h-2.878l3.824 4.444c0.071 0.113 0.113 0.24 0.113 0.367 0 0.141-0.042 0.282-0.127 0.381-0.042 0.056-0.113 0.141-0.155 0.183l-4.233 4.924h2.892l2.681-3.118c0.042-0.056 0.113-0.127 0.169-0.183 0.113-0.113 0.268-0.169 0.437-0.169s0.325 0.071 0.451 0.183l2.822 3.287h2.892l-4.261-4.952c-0.028-0.042-0.071-0.085-0.099-0.127-0.099-0.113-0.155-0.268-0.155-0.423s0.056-0.296 0.155-0.423c0.028-0.042 0.056-0.071 0.099-0.113l3.683-4.261z"></path>
<path d="M30.998 10.808h-2.85l-2.060 2.399c-0.042 0.056-0.099 0.113-0.141 0.155-0.113 0.113-0.282 0.183-0.451 0.183s-0.325-0.056-0.437-0.169c-0.042-0.042-0.113-0.113-0.155-0.169l-0.141-0.155-1.425 1.651 0.325 0.367 0.085 0.113c0.071 0.099 0.113 0.226 0.113 0.367s-0.056 0.268-0.127 0.381c-0.042 0.056-0.113 0.127-0.155 0.183l-0.31 0.353 1.425 1.651 0.198-0.226c0.056-0.056 0.113-0.127 0.169-0.169 0.113-0.113 0.268-0.169 0.437-0.169s0.325 0.056 0.437 0.169l2.78 3.231h2.836l-4.162-4.868c-0.028-0.042-0.071-0.085-0.099-0.127-0.099-0.113-0.155-0.254-0.155-0.409s0.056-0.296 0.155-0.409c0.028-0.028 0.071-0.071 0.099-0.113l3.612-4.219z"></path>
</svg>
