<?xml version="1.0" encoding="utf-8"?>
<!-- Generator: Adobe Illustrator 22.1.0, SVG Export Plug-In . SVG Version: 6.00 Build 0)  -->
<svg version="1.1" id="Layer_1" xmlns="http://www.w3.org/2000/svg" xmlns:xlink="http://www.w3.org/1999/xlink" x="0px" y="0px"
	 viewBox="0 0 226.8 226.8" style="enable-background:new 0 0 226.8 226.8;" xml:space="preserve">
<g>
	<path d="M225.8,120.4c-0.9,5-1.6,10-2.6,15c-10.7,52.7-58.7,90.5-112.8,89.2C56.9,223.1,11,182.8,2.8,130c-0.5-2.9-1.1-5.9-1.6-8.8
		c0-5.7,0-11.4,0-17.1c0.3-1.4,0.7-2.9,0.8-4.3C7.5,51.4,43.5,12.1,91.3,2.4c4.7-0.9,9.4-1.6,14.1-2.4c5.4,0,10.8,0,16.2,0
		c1.3,0.3,2.6,0.6,3.9,0.8c48.6,5.2,88.2,41.3,97.9,89.3c0.9,4.7,1.6,9.4,2.4,14.1C225.8,109.6,225.8,115,225.8,120.4z M7.8,112.1
		C7.7,170.4,55.1,217.9,113.4,218c58.3,0.1,105.8-47.3,105.9-105.6C219.4,54.1,172,6.6,113.7,6.5C55.4,6.4,7.9,53.8,7.8,112.1z"/>
	<path d="M138.6,72.8c3.4-10.8,6.5-20.5,14-28.5c1.9,11.2,6.5,15.7,14.5,14.5c8.3-1.3,11.7-7.6,9.8-20c22.7,21.1,34.6,46.4,33,76.5
		c-2.2,41.3-22.9,70.9-61.2,86.8c-28.1,11.6-55.9,8.9-82.6-6c0.7-0.1,1.4-0.3,2-0.2c17.6,0.7,29.8-8.1,39-22.1
		c7.1-10.9,10.9-23.3,14.3-35.7c1.6-5.6,3-11.3,4.3-17c0.6-2.5,1.7-3.4,4.3-3.5c3.6,0,7.2-0.2,10.7-0.7c4.4-0.6,6.8-3.7,8-7.6
		c1.4-4.5-2.2-8.9-7.6-9.5c-2.8-0.3-5.6-0.1-8.3-0.1c-0.8-7.6,0.3-9,7.2-9.3c2.8-0.1,5.7-0.2,8.5-0.6c4.5-0.5,7.8-3.8,8.1-7.7
		c0.4-4.2-2.4-7.8-7.2-8.9c-1.6-0.4-3.3-0.4-4.9-0.5C142.9,72.7,141.3,72.8,138.6,72.8z"/>
	<path d="M101.5,92c0.1,7-0.6,7.7-7.2,7.8c-4,0.1-8.1,0-12.1,0.6c-5.1,0.7-8,4.3-7.9,8.8c0.1,4.4,3.8,8.2,8.7,8.7
		c3.8,0.4,7.7,0.5,12.5,0.8c-5.1,19.4-10,38-15.1,57.7c-6-7.2-12.4-9.3-19.7-6.5c-7,2.7-9.3,8.4-8.5,15.8
		C20,162.2,4,107.5,30.9,62.9c30.8-51.1,93.3-57.5,131.9-33.1c-1,0.2-1.6,0.5-2.2,0.4c-18.6-1-32,8-42.2,22.6
		c-3.7,5.4-6.8,11.3-9.8,17.1c-1.3,2.5-2.7,3.6-5.5,3.5c-4.2-0.2-8.4-0.2-12.6,0c-5.2,0.2-8.4,3-8.9,7.7c-0.5,4.2,2.4,8.5,7.2,9.5
		C92.9,91.4,97.3,91.6,101.5,92z"/>
</g>
</svg>
