<!-- Generated by IcoMoon.io -->
<svg version="1.1" xmlns="http://www.w3.org/2000/svg" width="32" height="32" viewBox="0 0 32 32">
<title>FAIR</title>
<path d="M31.859 16.988c-0.127 0.705-0.226 1.411-0.367 2.116-1.51 7.436-8.282 12.769-15.915 12.586-7.548-0.212-14.025-5.898-15.182-13.347-0.071-0.409-0.155-0.832-0.226-1.242 0-0.804 0-1.608 0-2.413 0.042-0.198 0.099-0.409 0.113-0.607 0.776-6.829 5.855-12.374 12.6-13.742 0.663-0.127 1.326-0.226 1.989-0.339 0.762 0 1.524 0 2.286 0 0.183 0.042 0.367 0.085 0.55 0.113 6.857 0.734 12.444 5.827 13.813 12.6 0.127 0.663 0.226 1.326 0.339 1.989 0 0.762 0 1.524 0 2.286zM1.101 15.817c-0.014 8.226 6.674 14.928 14.899 14.942s14.928-6.674 14.942-14.899c0.014-8.226-6.674-14.928-14.899-14.942s-14.928 6.674-14.942 14.899z"></path>
<path d="M19.556 10.272c0.48-1.524 0.917-2.892 1.975-4.021 0.268 1.58 0.917 2.215 2.046 2.046 1.171-0.183 1.651-1.072 1.383-2.822 3.203 2.977 4.882 6.547 4.656 10.794-0.31 5.827-3.231 10.004-8.635 12.247-3.965 1.637-7.887 1.256-11.654-0.847 0.099-0.014 0.198-0.042 0.282-0.028 2.483 0.099 4.205-1.143 5.503-3.118 1.002-1.538 1.538-3.287 2.018-5.037 0.226-0.79 0.423-1.594 0.607-2.399 0.085-0.353 0.24-0.48 0.607-0.494 0.508 0 1.016-0.028 1.51-0.099 0.621-0.085 0.959-0.522 1.129-1.072 0.198-0.635-0.31-1.256-1.072-1.34-0.395-0.042-0.79-0.014-1.171-0.014-0.113-1.072 0.042-1.27 1.016-1.312 0.395-0.014 0.804-0.028 1.199-0.085 0.635-0.071 1.101-0.536 1.143-1.086 0.056-0.593-0.339-1.101-1.016-1.256-0.226-0.056-0.466-0.056-0.691-0.071-0.226 0-0.451 0.014-0.832 0.014z"></path>
<path d="M14.321 12.981c0.014 0.988-0.085 1.086-1.016 1.101-0.564 0.014-1.143 0-1.707 0.085-0.72 0.099-1.129 0.607-1.115 1.242 0.014 0.621 0.536 1.157 1.227 1.227 0.536 0.056 1.086 0.071 1.764 0.113-0.72 2.737-1.411 5.362-2.13 8.141-0.847-1.016-1.75-1.312-2.78-0.917-0.988 0.381-1.312 1.185-1.199 2.229-4.543-3.316-6.801-11.034-3.005-17.326 4.346-7.21 13.164-8.113 18.61-4.67-0.141 0.028-0.226 0.071-0.31 0.056-2.624-0.141-4.515 1.129-5.954 3.189-0.522 0.762-0.959 1.594-1.383 2.413-0.183 0.353-0.381 0.508-0.776 0.494-0.593-0.028-1.185-0.028-1.778 0-0.734 0.028-1.185 0.423-1.256 1.086-0.071 0.593 0.339 1.199 1.016 1.34 0.578 0.113 1.199 0.141 1.792 0.198z"></path>
</svg>
