<!-- Generated by IcoMoon.io -->
<svg version="1.1" xmlns="http://www.w3.org/2000/svg" width="32" height="32" viewBox="0 0 32 32">
<title>FC2</title>
<path d="M22.459 9.584h-6.692l0.416-2.811h7.867l0.937-6.771h-16.926l-3.894 27.199h8.991l1.566-10.577h6.754l0.98-7.040zM7.901 25.559h-2.092l3.531-24.496h2.092l-3.53 24.496z"></path>
<path d="M26.905 26.026c-0.12-0.366-0.244-0.745-0.244-1.449v-2.307c0-0.183 0-0.523-2.664-3.12-0.076-0.074-0.179-0.119-0.293-0.119-0.118 0-0.224 0.048-0.3 0.126l-0 0c-0.074 0.076-0.119 0.179-0.119 0.293 0 0.118 0.048 0.224 0.127 0.3l0 0c1.033 1.008 2.217 2.252 2.411 2.589v2.238c0 0.838 0.152 1.301 0.286 1.71 0.104 0.318 0.186 0.569 0.186 0.974 0 0.411-0.342 0.52-0.522 0.52-0.125 0-0.236-0.041-0.314-0.115-0.093-0.088-0.14-0.225-0.14-0.406v-4.13c0-0.691-0.526-1.406-1.407-1.406v-0.829c-0-0.226-0.183-0.408-0.409-0.408-0 0-0 0-0 0h-5.545c-0.226 0-0.408 0.183-0.409 0.408v0 10.034h-0.35c-0.158 0-0.285 0.128-0.285 0.285 0 0 0 0 0 0v0 0.499c0 0.158 0.128 0.285 0.285 0.285h7.062c0 0 0 0 0 0 0.157 0 0.285-0.128 0.285-0.285 0-0 0-0 0-0v0-0.499c0-0 0-0 0-0 0-0.158-0.128-0.285-0.285-0.285h-0.35v-8.367c0.466 0 0.568 0.41 0.568 0.568v4.13c0 0.523 0.218 0.84 0.402 1.014 0.234 0.222 0.551 0.345 0.891 0.345 0.66 0 1.361-0.477 1.361-1.359 0-0.538-0.116-0.892-0.228-1.234zM22.953 24.627c-0 0.158-0.128 0.285-0.285 0.285h-3.875c-0 0-0 0-0 0-0.157 0-0.285-0.128-0.285-0.285 0-0 0-0 0-0v0-2.931c0-0.157 0.128-0.285 0.285-0.285h3.875c0.157 0 0.285 0.128 0.285 0.285v2.931z"></path>
</svg>
