<!-- Generated by IcoMoon.io -->
<svg version="1.1" xmlns="http://www.w3.org/2000/svg" width="32" height="32" viewBox="0 0 32 32">
<title>FCCE</title>
<path d="M0 10.568c2.808 1.637 5.404 3.16 8.212 4.811-2.822 1.651-5.432 3.189-8.212 4.811 0-3.287 0-6.335 0-9.623z"></path>
<path d="M11.88 15.379c2.85-1.665 5.432-3.175 8.183-4.783 0 3.259 0 6.293 0 9.552-2.737-1.58-5.333-3.104-8.183-4.769z"></path>
<path d="M23.788 20.19c0-3.316 0-6.335 0-9.608 2.737 1.594 5.333 3.104 8.212 4.783-2.794 1.651-5.404 3.175-8.212 4.825z"></path>
</svg>
