<!-- Generated by IcoMoon.io -->
<svg version="1.1" xmlns="http://www.w3.org/2000/svg" width="32" height="32" viewBox="0 0 32 32">
<title>FCOIN</title>
<path d="M3.189 6.448c-1.707 0.099-3.175-1.538-3.189-3.189-0.014-1.806 1.496-3.316 3.231-3.302 1.707 0.028 3.132 1.467 3.175 3.175 0.042 1.792-1.439 3.4-3.217 3.316z"></path>
<path d="M0.028 12.078c-0.113-1.623 1.34-3.245 3.189-3.245 1.778 0 3.231 1.538 3.189 3.33-0.042 1.75-1.538 3.175-3.203 3.175-1.778 0-3.287-1.58-3.175-3.259z"></path>
<path d="M3.189 18.201c1.566 0.028 2.667 1.199 2.681 2.681 0.014 1.594-1.199 2.737-2.667 2.737-1.496 0-2.667-1.171-2.667-2.695-0.014-1.496 1.199-2.723 2.653-2.723z"></path>
<path d="M9.778 3.259c0.014-1.538 1.171-2.751 2.681-2.737 1.538 0.014 2.653 1.199 2.653 2.709 0 1.496-1.115 2.681-2.624 2.709-1.524 0.014-2.667-1.228-2.709-2.681z"></path>
<path d="M12.43 14.773c-1.411 0.056-2.667-1.213-2.638-2.709 0.028-1.481 1.213-2.695 2.723-2.667 1.326 0.028 2.61 1.086 2.61 2.723-0.014 1.51-1.256 2.723-2.695 2.653z"></path>
<path d="M19.753 12.063c-0.042-0.847 0.677-1.764 1.735-1.721 0.959 0.028 1.665 0.72 1.679 1.707 0.014 1.157-0.917 1.778-1.707 1.778-0.903 0-1.75-0.762-1.707-1.764z"></path>
<path d="M4.91 30.265c0.028 0.889-0.705 1.75-1.707 1.735-1.016-0.014-1.707-0.762-1.721-1.735-0.014-0.988 0.748-1.764 1.764-1.75 0.903 0.014 1.679 0.748 1.665 1.75z"></path>
<path d="M12.444 19.189c0.959-0.028 1.693 0.734 1.707 1.707 0.028 0.931-0.79 1.764-1.693 1.75-0.988-0.014-1.693-0.734-1.721-1.75-0.014-0.917 0.79-1.764 1.707-1.707z"></path>
<path d="M21.46 1.496c0.959-0.056 1.721 0.818 1.721 1.735-0.014 1.072-0.903 1.721-1.693 1.721-0.974 0-1.693-0.748-1.735-1.735-0.028-0.945 0.875-1.806 1.707-1.721z"></path>
<path d="M29.432 3.259c-0.042-0.734 0.593-1.256 1.213-1.242 0.748 0.028 1.213 0.508 1.242 1.27 0.014 0.734-0.593 1.242-1.256 1.242-0.607 0.014-1.284-0.564-1.199-1.27z"></path>
<path d="M31.859 12.176c0.056 0.762-0.607 1.242-1.227 1.242-0.677-0.014-1.185-0.55-1.199-1.256-0.014-0.663 0.494-1.256 1.227-1.256 0.663 0 1.256 0.522 1.199 1.27z"></path>
<path d="M13.601 30.166c0.042 0.649-0.48 1.129-1.044 1.143-0.691 0.014-1.143-0.451-1.157-1.115 0-0.635 0.423-1.101 1.072-1.129 0.734-0.028 1.185 0.593 1.129 1.101z"></path>
<path d="M22.603 20.981c0.085 0.578-0.494 1.129-1.086 1.115-0.578-0.014-1.072-0.494-1.086-1.072-0.028-0.691 0.607-1.171 1.101-1.171 0.508 0.014 1.157 0.466 1.072 1.129z"></path>
</svg>
