<!-- Generated by IcoMoon.io -->
<svg version="1.1" xmlns="http://www.w3.org/2000/svg" width="32" height="32" viewBox="0 0 32 32">
<title>FCT</title>
<path d="M5.111 16.671c8.975 0 13.419-7.414 13.419-7.414l0.564 0.13-0.303-5.506-3.225 4.411 0.428 0.185s-3.794 5.636-10.731 5.636c-3.215 0-4.484-1.83-4.977-3.458-0.158 0.787-0.261 1.703-0.286 2.639l-0 0.021c0.556 1.789 1.945 3.357 5.111 3.357z"></path>
<path d="M3.702 20.378c4.271 1.019 10.167-0.715 14.113-4.162s5.246-6.59 5.246-6.59l0.564 0.13-0.304-5.506-3.225 4.412 0.428 0.184s-1.648 3.62-6.070 6.525c-4.422 2.905-8.53 3.010-10.454 2.657-1.7-0.312-3.021-1.488-3.915-2.579 0.102 0.973 0.291 1.919 0.557 2.833 0.725 0.963 1.715 1.776 3.060 2.097z"></path>
<path d="M18.811 20.508c3.534-2.233 6.070-6.091 6.070-6.091l0.434 0.152-0.282-5.593-3.225 4.503 0.493 0.223s-1.517 2.666-5.896 5.289c-4.379 2.623-7.243 3.406-10.731 3.035-2.066-0.219-3.57-1.318-4.583-2.418 0.373 0.952 0.776 1.76 1.24 2.526l-0.041-0.072c1.042 1.122 2.385 2.045 4.055 2.24 4.813 0.563 8.932-1.561 12.465-3.794z"></path>
<path d="M21.256 23.316c3.642-2.553 6.162-6.129 6.162-6.129l0.634 0.276-0.276-5.593-3.268 4.39 0.569 0.211s-2.601 3.349-5.739 5.43c-3.138 2.081-6.715 3.626-10.341 3.626-2.101 0-3.882-0.648-5.263-1.426 0.632 0.757 1.304 1.435 2.032 2.050l0.024 0.020c1.208 0.691 2.53 1.177 3.857 1.177 4.617 0 7.967-1.479 11.609-4.032z"></path>
<path d="M31.797 10.666l-3.208 4.422 0.737 0.304s-1.626 4.054-5.441 7.349c-2.906 2.51-7.674 5.333-12.075 5.333-1.647 0-3.164-0.318-4.432-0.724 0.836 0.555 1.795 1.061 2.804 1.468l0.109 0.039c0.928 0.25 1.884 0.409 2.819 0.409 2.775 0 6.373-1.106 11.099-4.509s7.197-8.737 7.197-8.737l0.672 0.152-0.282-5.506z"></path>
<path d="M26.556 23.771s-1.447 2.081-6.52 4.406c-2.75 1.261-5.429 1.484-7.305 1.424 1.056 0.244 2.268 0.383 3.514 0.383 0.132 0 0.264-0.002 0.395-0.005l-0.020 0c1.267-0.122 2.638-0.408 4.034-0.957 3.871-1.525 6.861-4.732 6.861-4.732l0.244 0.147 0.114-2.227-1.577 1.382 0.26 0.178z"></path>
</svg>
