<?xml version="1.0" encoding="utf-8"?>
<!-- Generator: Adobe Illustrator 22.1.0, SVG Export Plug-In . SVG Version: 6.00 Build 0)  -->
<svg version="1.1" id="Layer_1" xmlns="http://www.w3.org/2000/svg" xmlns:xlink="http://www.w3.org/1999/xlink" x="0px" y="0px"
	 viewBox="0 0 226.8 226.8" style="enable-background:new 0 0 226.8 226.8;" xml:space="preserve">
<g>
	<path d="M118.2,226.5c-33.3-0.2-58.2-9.6-79.4-28.1c-23.6-20.7-36.3-47.2-38.2-78.3c-2-31,7.6-58.9,28.3-82
		c22.8-25.4,52-38.3,86.4-37.7c27.1,0.4,51.4,9.3,71.9,27.4c26.6,23.4,39.8,53,39.2,88.5c-0.3,20.5-5.9,39.7-17.1,57
		C186.7,208,154.5,225.3,118.2,226.5z M144.2,113.5c0-6.2,0-12.4,0-18.6c0-2.9,0.1-5.7,0-8.6c0-1.4-0.3-3-2-3.4
		c-1.3-0.3-2.7-0.4-4.1-0.4c-16.6,0-33.3,0-49.9,0c-1.2,0-2.5,0.2-3.6,0.7c-0.8,0.4-1.6,1.4-1.8,2.3c-0.4,1.8-0.4,3.6-0.5,5.4
		c0,8.8-0.1,17.6,0,26.4c0.1,7.9,0.5,15.7,0.6,23.6c0,1.5,0.6,2.2,1.8,2.5c1,0.3,2,0.5,3.1,0.5c13.4,0,26.8,0,40.1,0
		c3.9,0,7.7,0,11.6,0c3.7-0.1,4.7-1.2,4.7-4.8C144.2,130.6,144.2,122.1,144.2,113.5z"/>
</g>
</svg>
