<!-- Generated by IcoMoon.io -->
<svg version="1.1" xmlns="http://www.w3.org/2000/svg" width="32" height="32" viewBox="0 0 32 32">
<title>FLASH</title>
<path d="M16.677 31.958c-4.698-0.028-8.212-1.355-11.203-3.965-3.33-2.921-5.122-6.66-5.39-11.048-0.282-4.374 1.072-8.31 3.993-11.57 3.217-3.584 7.337-5.404 12.19-5.319 3.824 0.056 7.252 1.312 10.145 3.866 3.753 3.302 5.616 7.478 5.531 12.487-0.042 2.892-0.832 5.601-2.413 8.042-3.189 4.896-7.732 7.337-12.854 7.506zM20.346 16.014c0-0.875 0-1.75 0-2.624 0-0.409 0.014-0.804 0-1.213 0-0.198-0.042-0.423-0.282-0.48-0.183-0.042-0.381-0.056-0.578-0.056-2.342 0-4.698 0-7.041 0-0.169 0-0.353 0.028-0.508 0.099-0.113 0.056-0.226 0.198-0.254 0.325-0.056 0.254-0.056 0.508-0.071 0.762 0 1.242-0.014 2.483 0 3.725 0.014 1.115 0.071 2.215 0.085 3.33 0 0.212 0.085 0.31 0.254 0.353 0.141 0.042 0.282 0.071 0.437 0.071 1.891 0 3.781 0 5.658 0 0.55 0 1.086 0 1.637 0 0.522-0.014 0.663-0.169 0.663-0.677 0-1.199 0-2.399 0-3.612z"></path>
</svg>
