<!-- Generated by IcoMoon.io -->
<svg version="1.1" xmlns="http://www.w3.org/2000/svg" width="32" height="32" viewBox="0 0 32 32">
<title>FLO</title>
<path d="M16 0c-8.837 0-15.999 7.163-15.999 15.999 0 8.839 7.162 16.001 15.999 16.001s15.999-7.162 15.999-16.001c-0-8.836-7.162-15.999-15.999-15.999zM16 29.784c-7.6 0-13.784-6.184-13.784-13.784s6.184-13.784 13.784-13.784c7.601 0 13.785 6.183 13.785 13.784s-6.184 13.784-13.785 13.784z"></path>
<path d="M12.553 19.451c2.095 1.049 4.802 1.049 6.896 0-0.191-0.954-0.116-0.337-0.191-0.814-1.909 0.974-4.596 0.983-6.512 0-0.053 0.366-0.019-0.023-0.193 0.814z"></path>
<path d="M14.508 18.447c0.739 0.366 2.242 0.366 2.988 0-0.006-1.002 0.399-4.581 2.135-7.822 0 0 0.431-0.817 0.229-2.085-0.199-1.268-2.004-2.864-3.4-3.946-0.108-0.085-0.245-0.131-0.384-0.144v-0.003c-0.025-0.002-0.051-0.003-0.075-0.002-0.025-0.002-0.048 0-0.072 0.002 0 0 0 0.002-0.002 0.003-0.137 0.013-0.275 0.059-0.384 0.144-1.395 1.082-3.202 2.677-3.401 3.946s0.232 2.085 0.232 2.085c1.732 3.241 2.134 6.82 2.134 7.822zM12.336 20.010s-0.871 1.321-1.224 1.559c-0.356 0.242-0.614 0-0.614 0s-0.281-0.179-0.677-0.746c-0.046-0.071-0.136-0.075-0.167 0-0.324 0.815-0.382 1.099-0.451 1.458-0.071 0.366-0.071 0.654 0.023 0.912 0.095 0.219 0.33 0.497 0.752 0.576 0.427 0.078 1.036 0.108 1.422-0.177 0.383-0.284 0.438-0.317 0.974-1.053 0.533-0.738 1.033-2.059 1.033-2.059l-1.070-0.471zM9.493 15.359s0.66-0.351 1.338 0.201c1.368 1.113 1.548 1.745 1.79 2.166 0.24 0.418 1.412 0.672 1.412 0.672s-0.249-2.853-1.435-4.526c-1.188-1.674-1.853-2.064-2.86-2.523-0.821-0.374-2.429-0.111-2.736 0-1.379 0.415-1.778 2.2-1.778 2.2s-0.216 0.886-0.129 2.474c0.144 2.334 0.796 3.694 0.796 3.694s0.069 0.147 0.258 0.076c0.298-0.115 1.507-0.832 2.664-2.621 0.362-0.587 0.366-1.143 0.389-1.391s0.29-0.421 0.29-0.421zM17.495 20.762c-1.493 0.176-1.493 0.176-2.988 0 0 0-0.383 0.34-1.102 1.585s-0.425 1.602 0 2.425c0.567 1.089 2.102 2.534 2.296 2.678 0.067 0.049 0.148 0.085 0.235 0.101l0.004 0.001v0.003h0.12v-0.003c0.090-0.017 0.17-0.052 0.239-0.103l-0.002 0.001c0.193-0.144 1.731-1.589 2.295-2.678 0.426-0.823 0.719-1.18 0-2.425s-1.098-1.585-1.098-1.585zM22.348 20.824c-0.031-0.075-0.119-0.071-0.169 0-0.392 0.566-0.673 0.746-0.673 0.746s-0.261 0.242-0.614 0c-0.357-0.239-1.226-1.559-1.226-1.559l-1.072 0.471s0.5 1.321 1.036 2.059c0.536 0.736 0.59 0.768 0.974 1.053 0.383 0.285 0.994 0.255 1.419 0.177 0.425-0.079 0.66-0.357 0.755-0.576 0.093-0.258 0.093-0.546 0.023-0.912-0.070-0.359-0.128-0.643-0.453-1.458zM26.779 13.548s-0.402-1.785-1.78-2.2c-0.306-0.111-1.914-0.374-2.735 0-1.007 0.459-1.673 0.849-2.86 2.523-1.19 1.673-1.435 4.526-1.435 4.526s1.211-0.254 1.414-0.672c0.201-0.42 0.417-1.053 1.786-2.166 0.678-0.553 1.338-0.201 1.338-0.201s0.27 0.173 0.293 0.421c0.023 0.247 0.026 0.804 0.388 1.391 1.154 1.788 2.367 2.506 2.664 2.621 0.19 0.071 0.255-0.076 0.255-0.076s0.654-1.36 0.799-3.694c0.083-1.589-0.129-2.475-0.129-2.475z"></path>
</svg>
