<?xml version="1.0" encoding="utf-8"?>
<!-- Generator: Adobe Illustrator 22.1.0, SVG Export Plug-In . SVG Version: 6.00 Build 0)  -->
<svg version="1.1" id="Layer_1" xmlns="http://www.w3.org/2000/svg" xmlns:xlink="http://www.w3.org/1999/xlink" x="0px" y="0px"
	 viewBox="0 0 226.8 226.8" style="enable-background:new 0 0 226.8 226.8;" xml:space="preserve">
<g>
	<path d="M194.2,77c-1.3,2.5-2,4.9-3.5,6.5c-3.5,3.9-7.2,7.5-11,11.1c-4.2,4-8.3,3.9-12.4-0.2c-15.5-15.5-31-31-46.5-46.5
		c-5-4.9-9.5-5-14.3-0.1c-3.8,3.8-7.5,7.5-11.3,11.3c-4.3,4.4-4.3,8.5,0.1,13c4.1,4.2,8.4,8.4,12.6,12.6c4.3,4.3,4.3,8.4,0.2,12.7
		c-3.7,3.8-7.5,7.6-11.3,11.3c-3.7,3.6-8.1,3.6-11.9-0.1c-4.3-4.2-8.5-8.6-12.8-12.8c-4.6-4.6-9-4.6-13.5,0
		c-11.5,11.5-22.9,22.9-34.4,34.4c-4.9,4.9-9.3,4.9-14.3-0.1c-3.7-3.8-7.9-7.2-9.3-12.7c-1.4-5.5-0.1-10.3,3.8-14.3
		c17.5-17.5,35-35,52.5-52.5C72,35.4,87.2,20.4,102.1,5.2c7.2-7.3,16.2-6.6,22.9,0c15.7,15.4,31.2,31.1,46.8,46.7
		c6,6,12.2,12,18,18.1C191.6,71.9,192.7,74.4,194.2,77z"/>
	<path d="M113.5,226.7c-5.7,0.8-9.5-2.6-13.1-6.1C88.5,208.9,76.8,197,65,185.2c-9.2-9.2-18.5-18.4-27.6-27.7
		c-5.7-5.8-5.6-9.5,0.1-15.4c3-3.1,6-6.1,9-9c4.6-4.5,8.7-4.5,13.2,0c15.3,15.2,30.5,30.5,45.8,45.7c1.3,1.3,2.8,2.7,4.4,3.5
		c3.1,1.4,6.2,1.2,8.8-1.4c4.6-4.6,9.3-9.2,13.8-13.8c3.6-3.7,3.4-7.3-0.4-11.2c-4.3-4.4-8.7-8.7-13-13.1c-4-4.1-4.1-9.1-0.2-13.1
		c3.5-3.6,7-7.1,10.5-10.6c4.3-4.1,8.9-4,13,0.2c4.3,4.3,8.5,8.6,12.8,12.8c4.2,4.1,8,4.1,12.3-0.1c11.3-11.2,22.5-22.4,33.7-33.6
		c0.8-0.8,1.5-1.5,2.3-2.2c4.2-3.8,8.1-3.9,12.3-0.1c2.4,2.1,4.6,4.4,6.8,6.8c5.9,6.3,5,16.4-0.4,21.8c-32.5,32.2-64.7,64.6-97,96.9
		C121.9,224.7,118.4,227.3,113.5,226.7z"/>
</g>
</svg>
