<!-- Generated by IcoMoon.io -->
<svg version="1.1" xmlns="http://www.w3.org/2000/svg" width="32" height="32" viewBox="0 0 32 32">
<title>FOTA</title>
<path d="M27.4 10.864c-0.183 0.353-0.282 0.691-0.494 0.917-0.494 0.55-1.016 1.058-1.552 1.566-0.593 0.564-1.171 0.55-1.75-0.028-2.187-2.187-4.374-4.374-6.561-6.561-0.705-0.691-1.34-0.705-2.018-0.014-0.536 0.536-1.058 1.058-1.594 1.594-0.607 0.621-0.607 1.199 0.014 1.834 0.578 0.593 1.185 1.185 1.778 1.778 0.607 0.607 0.607 1.185 0.028 1.792-0.522 0.536-1.058 1.072-1.594 1.594-0.522 0.508-1.143 0.508-1.679-0.014-0.607-0.593-1.199-1.213-1.806-1.806-0.649-0.649-1.27-0.649-1.905 0-1.623 1.623-3.231 3.231-4.854 4.854-0.691 0.691-1.312 0.691-2.018-0.014-0.522-0.536-1.115-1.016-1.312-1.792s-0.014-1.453 0.536-2.018c2.469-2.469 4.938-4.938 7.407-7.407 2.13-2.145 4.275-4.261 6.377-6.406 1.016-1.030 2.286-0.931 3.231 0 2.215 2.173 4.402 4.388 6.603 6.589 0.847 0.847 1.721 1.693 2.54 2.554 0.254 0.268 0.409 0.621 0.621 0.988z"></path>
<path d="M16.014 31.986c-0.804 0.113-1.34-0.367-1.848-0.861-1.679-1.651-3.33-3.33-4.995-4.995-1.298-1.298-2.61-2.596-3.894-3.908-0.804-0.818-0.79-1.34 0.014-2.173 0.423-0.437 0.847-0.861 1.27-1.27 0.649-0.635 1.228-0.635 1.862 0 2.159 2.145 4.303 4.303 6.462 6.448 0.183 0.183 0.395 0.381 0.621 0.494 0.437 0.198 0.875 0.169 1.242-0.198 0.649-0.649 1.312-1.298 1.947-1.947 0.508-0.522 0.48-1.030-0.056-1.58-0.607-0.621-1.227-1.227-1.834-1.848-0.564-0.578-0.578-1.284-0.028-1.848 0.494-0.508 0.988-1.002 1.481-1.496 0.607-0.578 1.256-0.564 1.834 0.028 0.607 0.607 1.199 1.213 1.806 1.806 0.593 0.578 1.129 0.578 1.735-0.014 1.594-1.58 3.175-3.16 4.755-4.741 0.113-0.113 0.212-0.212 0.325-0.31 0.593-0.536 1.143-0.55 1.735-0.014 0.339 0.296 0.649 0.621 0.959 0.959 0.832 0.889 0.705 2.314-0.056 3.076-4.586 4.543-9.129 9.115-13.686 13.672-0.466 0.437-0.959 0.804-1.651 0.72z"></path>
</svg>
