<!-- Generated by IcoMoon.io -->
<svg version="1.1" xmlns="http://www.w3.org/2000/svg" width="32" height="32" viewBox="0 0 32 32">
<title>FOXBIT</title>
<path d="M28.219 27.781c-0.296-0.141-0.466-0.183-0.593-0.282-1.524-1.086-3.146-1.086-4.698-0.212-1.397 0.776-2.723 1.707-4.035 2.653-1.27 0.903-2.54 1.778-4.134 1.989-4.233 0.564-8.804-1.707-9.552-6.843-0.268-1.862-0.014-3.711 0.748-5.446 0.734-1.651 1.961-2.78 3.668-3.372 0.169-0.056 0.325-0.127 0.395-0.141-0.48-1.143-1.072-2.215-1.411-3.358-1.608-5.559 2.088-11.499 7.732-12.557 5.616-1.044 10.907 2.54 11.88 8.155 1.016 5.799-2.963 10.836-8.254 11.668-2.963 0.466-5.63-0.226-7.986-2.088-0.325-0.254-0.508-0.198-0.734 0.071-1.044 1.27-1.354 2.695-0.79 4.247 0.508 1.425 1.665 2.046 3.118 2.159 1.411 0.113 2.737-0.24 4.064-0.649 1.524-0.48 3.062-0.889 4.684-0.847 2.582 0.071 4.952 1.735 5.686 4.007 0.099 0.198 0.127 0.451 0.212 0.847zM21.573 24.24c0 0.056 0 0.127-0.014 0.183-0.593 0.494-1.425 0.72-1.891 1.538 0.776-0.198 1.453-0.353 2.215-0.113-0.423 0.847-1.312 1.34-1.524 2.399 2.102-1.566 4.148-2.935 6.843-1.637-0.494-2.229-4.515-3.838-7.041-2.949 0.466 0.198 0.931 0.381 1.411 0.578z"></path>
</svg>
