<?xml version="1.0" encoding="utf-8"?>
<!-- Generator: Adobe Illustrator 22.1.0, SVG Export Plug-In . SVG Version: 6.00 Build 0)  -->
<svg version="1.1" id="Layer_1" xmlns="http://www.w3.org/2000/svg" xmlns:xlink="http://www.w3.org/1999/xlink" x="0px" y="0px"
	 viewBox="0 0 250 250" style="enable-background:new 0 0 250 250;" xml:space="preserve">
<g>
	<path d="M134,250c-6.7,0-13.4,0-20.1,0c-1.2-0.4-2.3-1-3.6-1.1c-27.1-3.1-50.6-14.3-70.8-32.5c0,0-0.1,0.1-0.1,0.1
		c1.4-2.5,3.2-4.8,4.1-7.4c5.5-16.5,10.6-33.1,16.3-49.5c9.8-28.1,21.4-55.5,37.6-80.6c2.4-3.8,5.2-5.6,9.7-5.2
		c8.6,0.7,17.2,0.7,25.7,1.6c19.8,2,39.6,4.2,58.3,11.7c5.1,2.1,9.7,5,15.7,8.1C203,83.4,196.7,74.8,188,67.8
		c-12-9.5-25.9-14.5-40.8-16.8c-8-1.3-16-1.9-25.9-3.1c18.7-17.7,36.4-32.8,64-27.5c-1.3-2.2-2.2-3.8-3.3-5.8c1.2,0.2,1.6,0.2,2,0.4
		c0.8,0.3,1.5,0.7,2.2,1.1c30.7,18.1,50.8,44.3,59.6,79c1.7,6.6,2.6,13.5,3.9,20.2c0,6.3,0,12.6,0,18.9c-0.5,2.2-1.1,4.4-1.4,6.7
		c-6.5,49.8-42,90.8-90.5,104.1C150.1,247.2,142,248.4,134,250z M142.1,129.3c-14.5-0.1-26.3,11.6-26.4,26.3
		c-0.1,14.6,11.8,26.6,26.2,26.6c14.1,0,25.9-11.8,26.1-26.1C168.3,141.5,156.5,129.4,142.1,129.3z"/>
	<path d="M39.6,216.4C9.8,187.1-3.9,151.9,1,110.2c0.5-4,3.3-8.6,6.4-11.4c13.9-12.4,31.2-17.5,49-21.1c5.1-1,10.2-1.6,17.1-2.6
		c-21.2,45.7-33.7,92.2-34,141.4C39.5,216.5,39.6,216.4,39.6,216.4z"/>
	<path d="M154.6,4.5c-28.8,3-46.7,21.1-63.1,41.7c-2.3,2.9-6.3,5.1-10,6.3C68.7,57,55.3,60,42.9,65.2C26.7,71.9,13.3,82.7,3.9,98
		c-1.8-18.4,22.7-56.2,48-74.6C83.9,0,127-4.9,154.6,4.5z"/>
</g>
</svg>
