<!-- Generated by IcoMoon.io -->
<svg version="1.1" xmlns="http://www.w3.org/2000/svg" width="32" height="32" viewBox="0 0 32 32">
<title>FSN</title>
<path d="M17.152 32c-0.858 0-1.715 0-2.573 0-0.154-0.051-0.294-0.128-0.461-0.141-3.469-0.397-6.477-1.83-9.062-4.16 0 0-0.013 0.013-0.013 0.013 0.179-0.32 0.41-0.614 0.525-0.947 0.704-2.112 1.357-4.237 2.086-6.336 1.254-3.597 2.739-7.104 4.813-10.317 0.307-0.486 0.666-0.717 1.242-0.666 1.101 0.090 2.202 0.090 3.29 0.205 2.534 0.256 5.069 0.538 7.462 1.498 0.653 0.269 1.242 0.64 2.010 1.037-0.486-1.51-1.293-2.611-2.406-3.507-1.536-1.216-3.315-1.856-5.222-2.15-1.024-0.166-2.048-0.243-3.315-0.397 2.394-2.266 4.659-4.198 8.192-3.52-0.166-0.282-0.282-0.486-0.422-0.742 0.154 0.026 0.205 0.026 0.256 0.051 0.102 0.038 0.192 0.090 0.282 0.141 3.93 2.317 6.502 5.67 7.629 10.112 0.218 0.845 0.333 1.728 0.499 2.586 0 0.806 0 1.613 0 2.419-0.064 0.282-0.141 0.563-0.179 0.858-0.832 6.374-5.376 11.622-11.584 13.325-0.986 0.282-2.022 0.435-3.046 0.64zM18.189 16.55c-1.856-0.013-3.366 1.485-3.379 3.366-0.013 1.869 1.51 3.405 3.354 3.405 1.805 0 3.315-1.51 3.341-3.341 0.038-1.869-1.472-3.418-3.315-3.43z"></path>
<path d="M5.069 27.699c-3.814-3.75-5.568-8.256-4.941-13.594 0.064-0.512 0.422-1.101 0.819-1.459 1.779-1.587 3.994-2.24 6.272-2.701 0.653-0.128 1.306-0.205 2.189-0.333-2.714 5.85-4.314 11.802-4.352 18.099 0 0 0.013-0.013 0.013-0.013z"></path>
<path d="M19.789 0.576c-3.686 0.384-5.978 2.701-8.077 5.338-0.294 0.371-0.806 0.653-1.28 0.806-1.638 0.576-3.354 0.96-4.941 1.626-2.074 0.858-3.789 2.24-4.992 4.198-0.23-2.355 2.906-7.194 6.144-9.549 4.096-2.995 9.613-3.622 13.146-2.419z"></path>
</svg>
