<?xml version="1.0" encoding="utf-8"?>
<!-- Generator: Adobe Illustrator 22.1.0, SVG Export Plug-In . SVG Version: 6.00 Build 0)  -->
<svg version="1.1" id="Layer_1" xmlns="http://www.w3.org/2000/svg" xmlns:xlink="http://www.w3.org/1999/xlink" x="0px" y="0px"
	 viewBox="0 0 250 250" style="enable-background:new 0 0 250 250;" xml:space="preserve">
<path d="M231.2,0c-72.2,37.8-99.7,69.6-99.7,69.6l-4.3,30.1c-4.3,5.1-7.8-0.9-7.8-0.9l-2.6-15.5l-20.6,19.7
	c0,37.8-7.8,50.7-7.8,50.7c-3.4,5.1-6.8,0.9-6.8,0.9L80,115.1l-12.9,11.2l0.9,62.7c-12-2.6-14.6-32.6-14.6-32.6
	c-9.5,8.6-7.7,39.5-7.7,39.5l-21.5-27.5l12.9,31.8L7,183.8L30.2,207c-12,11.2-1.7,19.7-1.7,19.7c-2.6-7.8,4.3-10.3,4.3-10.3
	c10.3-5.1,8.6,9.5,8.6,9.5l-17.2,20.6c-2.6,4.3,1.7,3.4,1.7,3.4l20.6-22.3c12,15.5,26.7,12,26.7,12c-18-7.7-18-25.8-18-25.8
	c15.5,24.9,41.3,16.3,41.3,16.3C67.2,225.1,66.4,207,66.4,207c64.4,12.9,80.7-5.1,80.7-5.1l-76.5-3.4c18-18.9,64.4-11.2,64.4-11.2
	l40.4-53.2l50.3-59.6c4.7-5.6,8.6-12,11.3-18.8C251.6,18.3,231.2,0,231.2,0 M93.7,174.4c0,0,73.8-105.7,109-130.6
	C202.8,43.8,165,108.3,93.7,174.4"/>
</svg>
