<!-- Generated by IcoMoon.io -->
<svg version="1.1" xmlns="http://www.w3.org/2000/svg" width="32" height="32" viewBox="0 0 32 32">
<title>FTC</title>
<path d="M29.594 0c-9.242 4.838-12.762 8.909-12.762 8.909l-0.55 3.853c-0.55 0.653-0.998-0.115-0.998-0.115l-0.333-1.984-2.637 2.522c0 4.838-0.998 6.49-0.998 6.49-0.435 0.653-0.87 0.115-0.87 0.115l-0.205-5.056-1.651 1.434 0.115 8.026c-1.536-0.333-1.869-4.173-1.869-4.173-1.216 1.101-0.986 5.056-0.986 5.056l-2.752-3.52 1.651 4.070-3.853-2.099 2.97 2.97c-1.536 1.434-0.218 2.522-0.218 2.522-0.333-0.998 0.55-1.318 0.55-1.318 1.318-0.653 1.101 1.216 1.101 1.216l-2.202 2.637c-0.333 0.55 0.218 0.435 0.218 0.435l2.637-2.854c1.536 1.984 3.418 1.536 3.418 1.536-2.304-0.986-2.304-3.302-2.304-3.302 1.984 3.187 5.286 2.086 5.286 2.086-3.75-0.64-3.853-2.957-3.853-2.957 8.243 1.651 10.33-0.653 10.33-0.653l-9.792-0.435c2.304-2.419 8.243-1.434 8.243-1.434l5.171-6.81 6.438-7.629c0.602-0.717 1.101-1.536 1.446-2.406 1.869-4.787-0.742-7.13-0.742-7.13zM11.994 22.323c0 0 9.446-13.53 13.952-16.717 0.013 0-4.826 8.256-13.952 16.717z"></path>
</svg>
