<?xml version="1.0" encoding="utf-8"?>
<!-- Generator: Adobe Illustrator 22.1.0, SVG Export Plug-In . SVG Version: 6.00 Build 0)  -->
<svg version="1.1" id="Layer_1" xmlns="http://www.w3.org/2000/svg" xmlns:xlink="http://www.w3.org/1999/xlink" x="0px" y="0px"
	 viewBox="0 0 250 250" style="enable-background:new 0 0 250 250;" xml:space="preserve">
<path d="M244.2,49H163l-24.1,61.1H63V78.6h75.9L150,49H35c-3,0-5.4,2.4-5.4,5.4l0,0v55.7H11.1L0,139.7h29.6v55.6
	c0,3,2.4,5.5,5.5,5.5h55.6l11.1-29.6H63v-31.5h63l-24.1,61.1h37l25.9-61.1h79.7c3,0,5.4-2.4,5.4-5.4V54.8
	C250,51.6,247.4,49,244.2,49z M218.5,105.4c0,2.6-2.1,4.7-4.7,4.7l0,0h-37.9l13-31.5h24.9c2.6,0,4.7,2.1,4.7,4.7V105.4z"/>
</svg>
