<!-- Generated by IcoMoon.io -->
<svg version="1.1" xmlns="http://www.w3.org/2000/svg" width="32" height="32" viewBox="0 0 32 32">
<title>FUEL</title>
<path d="M31.258 6.272h-10.394l-3.085 7.821h-9.715v-4.032h9.715l1.421-3.789h-14.72c-0.384 0-0.691 0.307-0.691 0.691v0 7.13h-2.368l-1.421 3.789h3.789v7.117c0 0.384 0.307 0.704 0.704 0.704h7.117l1.421-3.789h-4.966v-4.032h8.064l-3.085 7.821h4.736l3.315-7.821h10.202c0.384 0 0.691-0.307 0.691-0.691v-10.176c0.013-0.41-0.32-0.742-0.73-0.742zM27.968 13.491c0 0.333-0.269 0.602-0.602 0.602v0h-4.851l1.664-4.032h3.187c0.333 0 0.602 0.269 0.602 0.602v2.829z"></path>
</svg>
