<!-- Generated by IcoMoon.io -->
<svg version="1.1" xmlns="http://www.w3.org/2000/svg" width="32" height="32" viewBox="0 0 32 32">
<title>FUN</title>
<path d="M1.806 16.028c0 0.875 0.085 1.75 0.24 2.61l-1.778 0.339c0.183 0.974 0.452 1.919 0.804 2.836l1.693-0.649c0.31 0.818 0.705 1.594 1.171 2.342l-1.538 0.945c0.522 0.832 1.115 1.623 1.778 2.356l1.34-1.213c0.593 0.649 1.242 1.242 1.933 1.764l-1.086 1.439c0.79 0.593 1.623 1.115 2.511 1.552l0.804-1.623c0.776 0.395 1.594 0.705 2.441 0.945l-0.494 1.75c0.945 0.268 1.919 0.451 2.907 0.536l0.169-1.806c0.437 0.042 0.875 0.056 1.298 0.056 0.437 0 0.889-0.014 1.312-0.056l0.169 1.806c0.988-0.085 1.947-0.268 2.907-0.536l-0.494-1.735c0.847-0.24 1.651-0.55 2.441-0.945l0.804 1.594c0.889-0.437 1.721-0.959 2.511-1.552l-1.086-1.439c0.691-0.522 1.34-1.115 1.933-1.764l1.34 1.213c0.663-0.734 1.256-1.524 1.778-2.356l-1.538-0.959c0.466-0.748 0.847-1.524 1.171-2.342l1.693 0.649c0.353-0.917 0.621-1.877 0.804-2.836l-1.778-0.325c0.155-0.861 0.24-1.735 0.24-2.61v-0.028h1.806c0-0.988-0.099-1.975-0.282-2.935l-1.778 0.339c-0.155-0.861-0.409-1.707-0.72-2.511l1.693-0.663c-0.353-0.917-0.804-1.806-1.326-2.638l-1.538 0.959c-0.466-0.748-0.988-1.439-1.58-2.088l1.34-1.228c-0.663-0.734-1.397-1.397-2.187-1.989l-1.086 1.439c-0.705-0.522-1.439-0.988-2.229-1.383l0.804-1.623c-0.889-0.437-1.806-0.79-2.751-1.058l-0.494 1.735c-0.847-0.24-1.707-0.395-2.568-0.48l0.169-1.806c-0.48-0.042-0.959-0.071-1.453-0.071-0.508 0-1.002 0.028-1.496 0.071l0.169 1.806c-0.875 0.085-1.735 0.24-2.568 0.48l-0.536-1.707c-0.945 0.268-1.862 0.621-2.751 1.072l0.804 1.623c-0.776 0.395-1.524 0.861-2.229 1.383l-1.072-1.453c-0.79 0.593-1.51 1.256-2.173 1.989l1.34 1.213c-0.593 0.649-1.115 1.34-1.58 2.088l-1.538-0.959c-0.522 0.832-0.959 1.721-1.312 2.638l1.693 0.649c-0.31 0.818-0.55 1.665-0.705 2.511l-1.806-0.296c-0.183 0.959-0.268 1.947-0.268 2.921 0 0 0 0.014 0 0.014h1.806zM17.623 27.231l-0.099-0.677c1.002-0.141 1.989-0.437 2.907-0.861l0.282 0.621c-0.988 0.466-2.032 0.776-3.090 0.917v0zM27.33 16.014c0 1.086-0.155 2.159-0.451 3.189l-0.649-0.198c0.282-0.974 0.423-1.989 0.423-3.005v-0.014h0.677v0.028zM25.524 9.877c0.593 0.903 1.044 1.891 1.34 2.935l-0.649 0.198c-0.282-0.974-0.72-1.905-1.27-2.751l0.578-0.381zM24.959 21.771l0.578 0.367c-0.578 0.903-1.298 1.735-2.116 2.441l-0.451-0.508c0.776-0.663 1.439-1.439 1.989-2.3v0zM20.698 5.7c0.988 0.452 1.891 1.030 2.709 1.735l-0.451 0.508c-0.762-0.663-1.623-1.213-2.554-1.637l0.296-0.607zM18.977 13.22h1.58l2.060 3.048v-3.048h1.623v5.503h-1.608l-2.060-3.019v3.019h-1.594v-5.503zM16 4.684c0.536 0 1.072 0.042 1.594 0.113l-0.099 0.677c-1.002-0.141-2.032-0.141-3.034 0l-0.099-0.677c0.55-0.071 1.086-0.113 1.637-0.113zM12.727 13.22h1.693v3.358c0 0.296 0.085 0.536 0.254 0.705s0.395 0.254 0.691 0.254c0.296 0 0.522-0.085 0.691-0.254s0.254-0.395 0.254-0.705v-3.358h1.693v3.273c0 0.31-0.056 0.621-0.155 0.917-0.099 0.282-0.268 0.55-0.48 0.762s-0.437 0.367-0.677 0.451c-0.325 0.127-0.72 0.183-1.185 0.183-0.296 0-0.578-0.014-0.875-0.056-0.31-0.042-0.578-0.113-0.79-0.226s-0.409-0.268-0.578-0.48c-0.169-0.212-0.296-0.409-0.367-0.635-0.099-0.353-0.155-0.663-0.155-0.931l-0.014-3.259zM14.49 26.568l-0.099 0.677c-1.072-0.155-2.116-0.451-3.090-0.903l0.282-0.621c0.917 0.409 1.891 0.705 2.907 0.847zM11.273 5.714l0.282 0.621c-0.917 0.423-1.778 0.974-2.554 1.651l-0.451-0.508c0.832-0.734 1.75-1.312 2.723-1.764zM7.76 13.22h4.19v1.185h-2.469v0.959h2.13v1.101h-2.13v2.258h-1.721v-5.503zM9.030 24.071l-0.451 0.508c-0.818-0.705-1.524-1.524-2.116-2.441l0.578-0.367c0.55 0.861 1.213 1.637 1.989 2.3zM6.462 9.905l0.578 0.367c-0.55 0.861-0.974 1.778-1.256 2.751l-0.663-0.183c0.296-1.044 0.748-2.032 1.34-2.935v0zM5.347 16.028c0 1.016 0.141 2.032 0.437 3.005l-0.649 0.198c-0.31-1.030-0.466-2.116-0.466-3.189l0.677-0.014z"></path>
</svg>
