<?xml version="1.0" encoding="utf-8"?>
<!-- Generator: Adobe Illustrator 22.0.1, SVG Export Plug-In . SVG Version: 6.00 Build 0)  -->
<svg version="1.1" id="Layer_1" xmlns="http://www.w3.org/2000/svg" xmlns:xlink="http://www.w3.org/1999/xlink" x="0px" y="0px"
	 viewBox="0 0 226.8 226.8" style="enable-background:new 0 0 226.8 226.8;" xml:space="preserve">
<style type="text/css">
	.st0{stroke:#FFFFFF;stroke-miterlimit:10;}
</style>
<path class="st0" d="M12.8,113.6c0,6.2,0.6,12.4,1.7,18.5l-12.6,2.4c1.3,6.9,3.2,13.6,5.7,20.1l12-4.6c2.2,5.8,5,11.3,8.3,16.6
	L17,173.3c3.7,5.9,7.9,11.5,12.6,16.7l9.5-8.6c4.2,4.6,8.8,8.8,13.7,12.5l-7.7,10.2c5.6,4.2,11.5,7.9,17.8,11l5.7-11.5
	c5.5,2.8,11.3,5,17.3,6.7l-3.5,12.4c6.7,1.9,13.6,3.2,20.6,3.8l1.2-12.8c3.1,0.3,6.2,0.4,9.2,0.4c3.1,0,6.3-0.1,9.3-0.4l1.2,12.8
	c7-0.6,13.8-1.9,20.6-3.8l-3.5-12.3c6-1.7,11.7-3.9,17.3-6.7L164,215c6.3-3.1,12.2-6.8,17.8-11l-7.7-10.2c4.9-3.7,9.5-7.9,13.7-12.5
	l9.5,8.6c4.7-5.2,8.9-10.8,12.6-16.7l-10.9-6.8c3.3-5.3,6-10.8,8.3-16.6l12,4.6c2.5-6.5,4.4-13.3,5.7-20.1l-12.6-2.3
	c1.1-6.1,1.7-12.3,1.7-18.5v-0.2l12.8,0c0-7-0.7-14-2-20.8l-12.6,2.4c-1.1-6.1-2.9-12.1-5.1-17.8l12-4.7c-2.5-6.5-5.7-12.8-9.4-18.7
	l-10.9,6.8c-3.3-5.3-7-10.2-11.2-14.8l9.5-8.7c-4.7-5.2-9.9-9.9-15.5-14.1l-7.7,10.2c-5-3.7-10.2-7-15.8-9.8l5.7-11.5
	c-6.3-3.1-12.8-5.6-19.5-7.5l-3.5,12.3c-6-1.7-12.1-2.8-18.2-3.4l1.2-12.8c-3.4-0.3-6.8-0.5-10.3-0.5c-3.6,0-7.1,0.2-10.6,0.5
	l1.2,12.8c-6.2,0.6-12.3,1.7-18.2,3.4L82.2,4.5C75.5,6.4,69,8.9,62.7,12.1l5.7,11.5c-5.5,2.8-10.8,6.1-15.8,9.8L45,23.1
	c-5.6,4.2-10.7,8.9-15.4,14.1l9.5,8.6c-4.2,4.6-7.9,9.5-11.2,14.8l-10.9-6.8c-3.7,5.9-6.8,12.2-9.3,18.7l12,4.6
	c-2.2,5.8-3.9,11.8-5,17.8L1.9,92.8C0.6,99.6,0,106.6,0,113.5c0,0,0,0.1,0,0.1L12.8,113.6z M124.9,193l-0.7-4.8
	c7.1-1,14.1-3.1,20.6-6.1l2,4.4C139.8,189.8,132.4,192,124.9,193L124.9,193z M193.7,113.5c0,7.7-1.1,15.3-3.2,22.6l-4.6-1.4
	c2-6.9,3-14.1,3-21.3v-0.1l4.8,0L193.7,113.5L193.7,113.5z M180.9,70c4.2,6.4,7.4,13.4,9.5,20.8l-4.6,1.4c-2-6.9-5.1-13.5-9-19.5
	L180.9,70z M176.9,154.3l4.1,2.6c-4.1,6.4-9.2,12.3-15,17.3l-3.2-3.6C168.3,165.9,173,160.4,176.9,154.3L176.9,154.3z M146.7,40.4
	c7,3.2,13.4,7.3,19.2,12.3l-3.2,3.6c-5.4-4.7-11.5-8.6-18.1-11.6L146.7,40.4z M134.5,93.7h11.2l14.6,21.6V93.7h11.5v39h-11.4
	l-14.6-21.4v21.4h-11.3V93.7z M113.4,33.2c3.8,0,7.6,0.3,11.3,0.8l-0.7,4.8c-7.1-1-14.4-1-21.5,0l-0.7-4.8
	C105.7,33.5,109.5,33.2,113.4,33.2z M90.2,93.7h12v23.8c0,2.1,0.6,3.8,1.8,5c1.2,1.2,2.8,1.8,4.9,1.8c2.1,0,3.7-0.6,4.9-1.8
	c1.2-1.2,1.8-2.8,1.8-5V93.7h12v23.2c0,2.2-0.4,4.4-1.1,6.5c-0.7,2-1.9,3.9-3.4,5.4c-1.5,1.5-3.1,2.6-4.8,3.2
	c-2.3,0.9-5.1,1.3-8.4,1.3c-2.1,0-4.1-0.1-6.2-0.4c-2.2-0.3-4.1-0.8-5.6-1.6c-1.5-0.8-2.9-1.9-4.1-3.4c-1.2-1.5-2.1-2.9-2.6-4.5
	c-0.7-2.5-1.1-4.7-1.1-6.6L90.2,93.7L90.2,93.7z M102.7,188.3l-0.7,4.8c-7.6-1.1-15-3.2-21.9-6.4l2-4.4
	C88.6,185.2,95.5,187.3,102.7,188.3z M79.9,40.5l2,4.4c-6.5,3-12.6,6.9-18.1,11.7l-3.2-3.6C66.5,47.8,73,43.7,79.9,40.5z M55,93.7
	h29.7v8.4H67.2v6.8h15.1v7.8H67.2v16H55V93.7z M64,170.6l-3.2,3.6c-5.8-5-10.8-10.8-15-17.3l4.1-2.6C53.8,160.4,58.5,165.9,64,170.6
	z M45.8,70.2l4.1,2.6c-3.9,6.1-6.9,12.6-8.9,19.5L36.3,91C38.4,83.6,41.6,76.6,45.8,70.2L45.8,70.2z M37.9,113.6
	c0,7.2,1,14.4,3.1,21.3l-4.6,1.4c-2.2-7.3-3.3-15-3.3-22.6L37.9,113.6z"/>
</svg>
