<!-- Generated by IcoMoon.io -->
<svg version="1.1" xmlns="http://www.w3.org/2000/svg" width="32" height="32" viewBox="0 0 32 32">
<title>FXT</title>
<path d="M4.868 6.914c3.048 3.048 6.081 6.067 9.072 9.072-4.656 4.642-9.354 9.312-13.94 13.898 0.353-0.593 0.776-1.298 1.199-2.018 2.342-3.866 4.684-7.732 7.041-11.598 0.198-0.325 0.155-0.593 0.028-0.917-1.115-2.737-2.215-5.46-3.33-8.198-0.028-0.071-0.042-0.155-0.071-0.24z"></path>
<path d="M1.806 0c1.439 0.861 2.864 1.721 4.289 2.596 2.61 1.58 5.22 3.175 7.831 4.769 0.564 0.339 1.129 0.72 1.721 1.016 0.226 0.113 0.564 0.127 0.79 0.042 2.836-1.129 5.658-2.272 8.395-3.372-2.963 2.949-6.011 5.968-9.030 8.974-4.6-4.586-9.312-9.27-14.025-13.954 0-0.028 0.014-0.056 0.028-0.071z"></path>
<path d="M29.884 32c-2.413-1.481-4.825-2.963-7.238-4.43-2.215-1.355-4.43-2.695-6.66-4.021-0.155-0.085-0.437-0.056-0.607 0.014-2.145 0.847-4.275 1.721-6.406 2.582-0.691 0.282-1.383 0.55-2.145 0.748 0.367-0.381 0.748-0.762 1.115-1.129 2.526-2.54 5.065-5.079 7.577-7.619 0.282-0.296 0.451-0.296 0.734 0 4.487 4.515 8.988 9.030 13.474 13.531 0.085 0.085 0.155 0.169 0.24 0.254-0.042 0.028-0.071 0.042-0.085 0.071z"></path>
<path d="M31.788 2.018c-0.536 0.903-1.072 1.82-1.623 2.723-1.481 2.441-2.963 4.868-4.444 7.309-0.734 1.199-1.439 2.399-2.187 3.584-0.24 0.381-0.254 0.705-0.085 1.101 1.086 2.653 2.173 5.305 3.259 7.958 0.042 0.099 0.071 0.212 0.014 0.381-0.395-0.395-0.79-0.776-1.171-1.171-2.441-2.427-4.882-4.868-7.323-7.309-0.113-0.113-0.198-0.24-0.325-0.339-0.226-0.198-0.183-0.353 0.014-0.55 1.326-1.326 2.653-2.653 3.979-3.979 1.961-1.961 3.936-3.937 5.898-5.898 1.242-1.242 2.483-2.497 3.725-3.739 0.056-0.056 0.127-0.099 0.198-0.155 0.028 0.028 0.056 0.056 0.071 0.085z"></path>
</svg>
