<!-- Generated by IcoMoon.io -->
<svg version="1.1" xmlns="http://www.w3.org/2000/svg" width="32" height="32" viewBox="0 0 32 32">
<title>FYB_SE</title>
<path d="M25.157 3.626c1.58 0 3.062-0.099 4.515 0.028 1.298 0.113 1.919 0.917 2.046 2.215 0.028 0.296 0.042 0.607 0.042 0.903 0 1.256-0.099 1.425-1.298 2.173 1.51 0.423 1.51 1.58 1.524 2.751 0.014 3.048-0.339 3.414-3.386 3.429-1.129 0-2.258 0-3.443 0 0-3.908 0-7.718 0-11.499zM28.092 13.122c0.959-0.183 1.157-0.734 0.959-2.356-0.085-0.705-0.155-0.762-0.959-0.72 0 0.988 0 1.989 0 3.076zM28.12 5.418c0 0.945 0 1.792 0 2.638 0.889 0.169 0.917-0.437 0.917-0.959 0-0.635 0.268-1.439-0.917-1.679z"></path>
<path d="M27.668 23.422c-0.607 0.028-1.143 0.056-1.764 0.099 0 0.889 0 1.75 0 2.695 0.691 0 1.383 0 2.145 0 0 0.776 0 1.453 0 2.201-1.693 0-3.429 0-5.22 0 0-3.88 0-7.774 0-11.739 1.665 0 3.316 0 5.037 0 0 0.691 0 1.369 0 2.116-0.649 0.028-1.256 0.056-1.947 0.085 0 0.734 0 1.453 0 2.286 0.55 0.028 1.129 0.056 1.75 0.085 0 0.734 0 1.383 0 2.173z"></path>
<path d="M15.069 24.296c0.931 0 1.75 0 2.709 0 0 0.564-0.056 1.101 0.028 1.608 0.042 0.268 0.31 0.508 0.466 0.748 0.212-0.254 0.564-0.48 0.607-0.748 0.113-0.79-0.028-1.524-0.804-2.004-0.677-0.423-1.312-0.931-1.975-1.383-1.213-0.832-1.354-2.695-0.945-4.247 0.296-1.101 1.369-1.665 2.892-1.693 0.198 0 0.409 0 0.607 0.014 2.243 0.183 3.090 1.326 2.681 3.654-0.804 0-1.637 0-2.497 0-0.042-0.451-0.042-0.847-0.141-1.227-0.042-0.183-0.268-0.423-0.423-0.423s-0.395 0.212-0.48 0.395c-0.268 0.635 0.014 1.411 0.621 1.834 0.663 0.466 1.355 0.875 1.989 1.355 1.256 0.974 1.806 3.81 0.959 5.136-0.254 0.395-0.705 0.79-1.143 0.917-0.818 0.226-1.707 0.395-2.54 0.31-1.679-0.169-2.399-0.988-2.596-2.667-0.071-0.48-0.014-0.988-0.014-1.58z"></path>
<path d="M21.869 3.527c0.903 0 1.735 0 2.638 0-0.889 3.795-2.751 7.351-1.975 11.429-1.058 0-1.891 0-2.921 0 0.635-3.993-1.044-7.591-1.989-11.4 0.889 0 1.707 0 2.667 0 0.212 1.185 0.437 2.413 0.663 3.654 0.056 0.014 0.099 0.028 0.155 0.042 0.24-1.242 0.494-2.469 0.762-3.725z"></path>
<path d="M17.397 3.541c0 0.734 0 1.397 0 2.159-0.635 0.042-1.256 0.071-1.947 0.113 0 0.691 0 1.34 0 2.046 0.564 0.028 1.115 0.071 1.707 0.099 0 0.705 0 1.369 0 2.088-0.564 0.028-1.086 0.056-1.75 0.085 0 1.58 0 3.161 0 4.811-1.058 0-1.975 0-2.935 0 0-3.824 0-7.591 0-11.414 1.637 0.014 3.217 0.014 4.924 0.014z"></path>
<path d="M3.443 9.002c0.127-0.056 0.254-0.085 0.381-0.071 0.056 0.014 0.085-0.014 0.113-0.056 0.028-0.028 0.042-0.071 0.085-0.085 0.155-0.071 0.155-0.212 0.099-0.31s-0.014-0.169 0.028-0.212c0.127-0.155 0.198-0.367 0.31-0.536 0.085-0.127 0.141-0.254 0.226-0.381 0.099-0.155 0.169-0.254 0.127-0.31-0.085-0.127-0.085-0.31-0.212-0.409-0.014-0.014-0.014-0.028-0.014-0.056 0.056-0.042 0.127-0.113 0.198-0.141 0.099-0.028 0.127-0.099 0.155-0.169 0.042-0.099 0.042-0.198 0.056-0.296 0.014-0.056 0.014-0.113 0.028-0.169 0.014-0.085 0.056-0.127 0.127-0.155 0.113-0.042 0.198-0.141 0.254-0.24 0.042-0.071 0.085-0.056 0.127-0.042 0.113 0.056 0.212 0.141 0.324 0.198 0.042-0.085 0.099-0.183 0.127-0.296 0-0.014 0.028-0.042 0.028-0.056-0.056-0.085 0.042-0.169 0-0.254-0.071-0.155-0.056-0.31 0.028-0.466 0.099 0.014 0.212-0.042 0.31 0.071 0.014 0.014 0.071 0.028 0.099 0.014 0.268-0.014 0.508 0.113 0.762 0.212 0.014 0.014 0.042 0.014 0.071 0.028 0.028-0.056 0.042-0.113 0.071-0.155 0.042-0.056 0.028-0.113-0.028-0.127-0.085-0.014-0.056-0.042-0.028-0.099 0.071-0.155 0.169-0.296 0.155-0.48 0-0.099-0.014-0.183-0.085-0.254-0.028-0.028-0.042-0.085-0.071-0.141 0.155-0.028 0.282 0 0.409-0.056 0.099-0.042 0.141 0.014 0.155 0.127 0 0.071 0.028 0.113 0.099 0.155 0.099 0.071 0.183 0.169 0.268 0.268 0.056 0.071 0.085 0.141 0.183 0.141 0.014 0 0.042 0.028 0.056 0.056 0.028 0.042 0.056 0.085 0.113 0.085 0.014 0 0.042 0 0.042 0 0.071 0.071 0.099 0.169 0.24 0.141 0.071-0.014 0.155 0.071 0.24 0.056 0 0 0.014-0.014 0.014-0.014 0.127 0.155 0.367 0.212 0.395 0.452 0 0.014 0.028 0.042 0.056 0.056 0.042 0.014 0.085 0 0.113 0 0 0.056-0.014 0.099 0 0.127 0.014 0.042 0.056 0.085 0.099 0.099 0.085 0.014 0.085 0.099 0.113 0.155 0.014 0.028 0.014 0.071-0.056 0.071-0.014 0-0.042 0.056-0.042 0.056 0.042 0.042 0.014 0.071 0 0.099-0.014 0.071 0.014 0.141 0.042 0.212 0.042 0.085 0.056 0.141 0 0.24s0 0.169 0.113 0.198c0.099 0.028 0.113 0.113 0.141 0.198 0.028 0.056-0.014 0.113-0.085 0.127-0.056 0.014-0.042 0.056-0.042 0.085 0 0.141 0.099 0.31 0.212 0.423 0.071 0.071 0.113 0.141 0.155 0.226 0.014 0.028 0.056 0.028 0.085 0.056 0 0-0.014 0.042-0.014 0.056s0.014 0.028 0.014 0.028c-0.141 0.042-0.085 0.155-0.085 0.24 0 0.127-0.028 0.226-0.113 0.324-0.042 0.042-0.099 0.113 0.028 0.141 0 0 0.014 0.042 0 0.042-0.071 0.071 0.028 0.141 0 0.226-0.014 0.028 0.056 0.099 0.085 0.141 0.113 0.099 0.169 0.226 0.212 0.367 0.014 0.085 0.099 0.155 0.099 0.254 0 0.028 0.028 0.056-0.014 0.085-0.071 0.028-0.127 0.099-0.212 0.071-0.099-0.028-0.198-0.014-0.296 0.028-0.042 0.028-0.056 0.014-0.099-0.014-0.056-0.042-0.085-0.014-0.085 0.042 0 0.028-0.014 0.056-0.028 0.085-0.014 0.014-0.028 0.056-0.071 0.014-0.028-0.014-0.028-0.099-0.099-0.042-0.014 0-0.056-0.028-0.085-0.042-0.014 0-0.028-0.014-0.042 0-0.056 0-0.099 0.014-0.155 0.028s-0.085 0-0.085-0.071c0 0-0.042-0.028-0.056-0.014-0.056 0.014 0 0.042 0 0.056 0 0.028-0.014 0.056-0.014 0.071 0 0.028-0.014 0.056-0.014 0.071 0.014 0.014 0.042 0.028 0.071 0.028-0.028 0.014-0.042 0.014-0.071 0.028 0 0 0 0.028 0.014 0.042 0.071 0.113 0.085 0.212-0.028 0.31-0.071-0.028-0.169-0.113-0.24 0.028 0.028 0.014 0.042 0.014 0.099 0.028-0.099 0.028-0.071 0.155-0.169 0.169-0.085 0.014-0.169 0.042-0.254 0.056 0.042 0.028 0.099 0.056 0.127 0.085 0.014 0.028 0.014 0.071 0.014 0.099 0 0.014-0.042 0.028-0.071 0.028 0.014 0.014 0.028 0.028 0.028 0.042 0 0.028 0.014 0.056 0.014 0.085 0 0.085 0.014 0.169-0.071 0.226-0.028 0.014 0.042 0.085-0.028 0.113-0.042 0.014-0.085 0.028-0.113 0.071s-0.028 0.099-0.028 0.141c0.014 0.085-0.056 0.071-0.113 0.113 0.071 0 0.113 0 0.155 0.014 0.056 0.014 0.071 0.056 0.042 0.113-0.028 0.042-0.056 0.085-0.085 0.127 0.099 0.113 0.099 0.113 0.254 0.127-0.014 0.056-0.042 0.113-0.014 0.155 0.014 0.042 0.085 0.056 0.127 0.071-0.085 0.099-0.141 0.226-0.24 0.282-0.071 0.042-0.099 0.113-0.155 0.155-0.071 0.071-0.071 0.155-0.099 0.24-0.042 0.099-0.014 0.226-0.056 0.31-0.028 0.056 0.028 0.127-0.056 0.169-0.056 0.028-0.085 0.099-0.169 0.099-0.056 0-0.141 0.042-0.071 0.141 0.042 0.042-0.028 0.028-0.028 0.042-0.042 0.042-0.113 0-0.127 0.028-0.014 0.113-0.099 0.042-0.141 0.056-0.014 0-0.042 0.014-0.042 0.014-0.014 0.113-0.127 0.141-0.183 0.226-0.014 0.014-0.014 0.042-0.014 0.056 0.014 0.099-0.099 0.071-0.099 0.056-0.071-0.099-0.141-0.014-0.183 0.014-0.056 0.028-0.141 0.085-0.113 0.169 0.014 0.071-0.042 0.071-0.071 0.099-0.042 0.056-0.056 0.141-0.085 0.226-0.042-0.028-0.071-0.056-0.099-0.071s-0.014-0.014-0.056 0.042c-0.014 0.028-0.056 0.028-0.085 0.056-0.014 0 0.014 0.056 0.014 0.056-0.169 0.085-0.212 0.155-0.169 0.325 0.014 0.071-0.085 0.014-0.071 0.071 0.028 0.014 0.056 0.014 0.085 0.028-0.071 0.071-0.127 0.141-0.198 0.212-0.085 0.071-0.212 0.042-0.268 0.155 0.056 0.113-0.014 0.198-0.042 0.282-0.028 0.099-0.085 0.198-0.141 0.282-0.014 0.014-0.085 0.014-0.113 0-0.056-0.042-0.113-0.099-0.169-0.169-0.028 0.141-0.042 0.268 0.085 0.367 0.071 0.056 0.071 0.113 0.042 0.212-0.028 0.071-0.056 0.141-0.042 0.226 0.014 0.155 0.014 0.155-0.056 0.226-0.042 0.042-0.028 0.085-0.028 0.127 0 0.071 0.071 0.127 0.042 0.212 0 0.014 0.028 0.028 0.042 0.042 0.113 0.085 0.113 0.085 0.056 0.226 0 0.014-0.014 0.028-0.014 0.042-0.042-0.056-0.071-0.099-0.113-0.141-0.014-0.028-0.028-0.071-0.056-0.071-0.071-0.014-0.056 0.056-0.071 0.085-0.014 0.042 0 0.099-0.071 0.113 0.085 0.042 0 0.169 0.071 0.212 0.099 0.056 0.014 0.056-0.028 0.099-0.028 0.042-0.028 0.099 0.028 0.141 0.071 0.042 0.042 0.085 0.014 0.141-0.071 0.155-0.071 0.198 0 0.367 0.028 0.071 0.085 0.127-0.042 0.155 0 0 0 0.042 0.014 0.042 0.042 0.042 0.071 0.071 0.071 0.127 0 0.113 0 0.113 0.085 0.212-0.028 0.028-0.056 0.056-0.099 0.099 0.056 0.028 0.113 0.085 0.183 0.085 0.183 0.014 0.183 0.014 0.198 0.169 0 0.028 0 0.042 0.014 0.085 0.071-0.099 0.141-0.183 0.198-0.268 0.113 0.183 0.127 0.437 0.423 0.508 0-0.085 0-0.155 0-0.24 0.014 0 0.028-0.014 0.028-0.014 0.014 0.042 0.056 0.071 0.056 0.113 0 0.056 0 0.113 0.085 0.127 0.014 0 0.014 0.071 0.014 0.099 0 0-0.028 0.014-0.028 0-0.014-0.014-0.042-0.056-0.056 0 0 0.014 0.014 0.056 0.028 0.056 0.099-0.028 0.099 0.071 0.198 0.141-0.085-0.014-0.127-0.014-0.169-0.028-0.014 0-0.042 0-0.042 0-0.014 0.014 0.113 0.155 0.127 0.141 0.056-0.056 0.085-0.014 0.127 0.028 0.014 0.014 0.028 0.028 0.042 0.028s0.056-0.056 0.056-0.014c-0.014 0.155 0.071 0.268 0.183 0.353 0.071 0.056 0.085 0.113 0.042 0.198-0.014 0.014 0 0.042 0 0.071s0 0.042 0 0.085c-0.042 0-0.085 0-0.127 0-0.056-0.014-0.099 0.028-0.127 0.071-0.042 0.056-0.085 0.127-0.127 0.198 0.056 0.014 0.113 0.042 0.169 0.056 0 0.014 0 0.028 0 0.028-0.028 0-0.056 0-0.085 0.014-0.085 0.028-0.141 0.127-0.085 0.198 0.127 0.155 0.042 0.24-0.071 0.353-0.042-0.056-0.099-0.113-0.141-0.183 0 0.028-0.028 0.085 0 0.099 0.042 0.071 0.099 0.127 0.099 0.212 0 0.028 0.042 0.056 0.071 0.085-0.042 0.028-0.042 0.071-0.042 0.113-0.014 0.071-0.071 0.028-0.113 0.042 0-0.028-0.028-0.056-0.014-0.071 0.028-0.028 0.056-0.071-0.014-0.056s-0.155 0.028-0.226 0.071c-0.071 0.042-0.085 0.127-0.099 0.212 0 0.056-0.028 0.113-0.056 0.155-0.141-0.113-0.141-0.113-0.198-0.508-0.028 0.042-0.056 0.085-0.071 0.113-0.014 0.071 0 0.141 0 0.198 0 0.028-0.014 0.071-0.028 0.099-0.014 0.042-0.099 0.056-0.014 0.113-0.042 0.028-0.085 0.056-0.127 0.085s-0.071 0.085-0.113 0.113c-0.042 0.014-0.099 0.014-0.155 0.014-0.014 0-0.028-0.056-0.056-0.014 0 0.014 0.014 0.056 0.042 0.056 0.071 0.014 0.056 0.042 0.014 0.056-0.099 0.042-0.198 0.071-0.31 0.099 0.014 0.028 0.042 0.071 0.056 0.127s0.028 0.127-0.014 0.183c-0.042 0.056-0.071 0.141-0.099 0.212-0.014 0.028-0.014 0.071 0.042 0.099 0.113 0.056 0.113 0.099 0.056 0.226-0.014 0.056-0.127 0.113-0.028 0.183-0.014 0.014-0.042 0.014-0.056 0.028s-0.042 0.028-0.056 0.028c0.141 0.028 0.056 0.141 0.085 0.212 0 0-0.014 0.014-0.014 0.028-0.056-0.014-0.127-0.028-0.24-0.056 0.099 0.127 0.183 0.226 0.254 0.325-0.042 0.028-0.099 0.042-0.127 0.085-0.028 0.028 0.028 0.113-0.071 0.099 0 0.014 0 0.042 0 0.042 0.127 0.042 0.113 0.141 0.113 0.24 0 0.056 0 0.099 0 0.141-0.042 0.028-0.071-0.056-0.085 0-0.014 0.028 0.042 0.071 0.028 0.085-0.014 0.028-0.071 0.028-0.071 0.056 0 0.099-0.014 0.198 0.042 0.296s0.056 0.099-0.042 0.169c-0.014 0.014-0.042 0.028-0.056 0.056 0.099 0.099-0.028 0.183-0.028 0.268 0 0.042 0.028 0.113 0 0.127-0.056 0.042 0.042 0.085 0 0.099-0.056 0.014-0.085 0.028-0.071 0.085 0.014 0.085-0.056 0.042-0.085 0.071-0.014 0.014-0.028 0.014-0.028 0.028-0.042 0.155-0.155 0.296-0.155 0.451 0 0.113-0.113 0.212-0.056 0.339 0 0-0.014 0.028-0.028 0.028-0.127-0.042-0.099 0.113-0.169 0.127-0.014-0.014-0.028-0.014-0.028-0.028-0.113-0.169-0.113-0.169-0.324-0.113-0.099 0.028-0.183 0.085-0.31 0.014-0.071-0.042-0.183-0.014-0.268 0-0.014 0-0.042 0.028-0.056 0.056-0.014 0.042-0.042 0.056-0.042 0-0.014-0.099-0.071-0.042-0.127-0.056 0.028 0.085 0.071 0.169 0.113 0.268-0.085 0-0.155 0-0.212 0 0 0-0.014-0.028-0.014-0.042 0.056-0.071-0.028-0.056-0.042-0.042-0.042 0.028-0.085 0.071-0.113 0.113-0.056 0.085-0.113 0.169-0.155 0.254-0.042 0.071-0.113 0.141 0 0.24 0.056 0.056 0.056 0.169 0.113 0.24 0.014 0.028 0 0.071-0.014 0.099-0.028 0.056-0.071 0.099-0.113 0.155-0.028 0.042-0.113 0.085-0.155 0.071-0.113-0.028-0.212-0.127-0.353-0.099-0.028 0.014-0.056 0-0.085 0.014-0.254 0.127-0.282 0.141-0.55 0.099-0.014 0-0.028 0-0.028 0-0.042-0.127-0.155-0.028-0.226-0.071-0.071 0.071-0.085-0.014-0.099-0.042-0.014-0.042 0.028-0.056 0.071-0.056 0.028 0 0.042-0.028 0.071-0.042 0.042-0.014 0.028-0.028 0.014-0.056-0.014-0.042-0.014-0.099-0.014-0.155 0-0.042 0.014-0.056 0.056-0.071 0.113-0.056 0.085-0.056 0.028-0.183-0.042-0.113-0.085-0.226-0.169-0.31 0.042-0.127-0.099-0.198-0.113-0.31-0.014-0.085-0.071-0.155-0.071-0.24 0-0.071-0.042-0.127-0.071-0.198 0.042-0.042 0.085 0.014 0.113 0.042 0.056 0.056 0.099 0.113 0.198 0.056-0.014-0.071-0.028-0.141-0.056-0.198s-0.085-0.099-0.141-0.141c0.056-0.071 0.113-0.042 0.169-0.042 0.028 0 0.085 0.042 0.085 0.042 0.028-0.028 0.056-0.071 0.071-0.113 0.028-0.071-0.042-0.183-0.127-0.212-0.071-0.014-0.099-0.056-0.099-0.127 0-0.155-0.099-0.254-0.183-0.353-0.113-0.127-0.113-0.127-0.127-0.226 0-0.028-0.028-0.071-0.042-0.099-0.014-0.014-0.042-0.028-0.042-0.042-0.014-0.085 0.042-0.198-0.099-0.226-0.014-0.085-0.028-0.169-0.042-0.254s-0.099-0.014-0.141-0.071c0.014-0.056-0.014-0.141 0.028-0.226 0.042-0.071 0.042-0.169-0.085-0.212-0.056-0.014-0.085-0.085-0.113-0.141-0.014-0.014-0.014-0.056-0.014-0.056 0.056-0.056 0.113-0.099 0.014-0.169 0 0 0.014-0.028 0.014-0.042 0.042-0.099 0.071-0.198 0.127-0.339-0.056 0.042-0.071 0.042-0.071 0.056-0.099 0.141-0.141 0.141-0.212-0.014 0-0.014 0-0.028 0-0.042 0.042-0.014 0.099-0.028 0.141-0.056 0.056-0.042 0.071 0.014 0.113 0.028 0.014 0 0.042-0.042 0.056-0.056s0.014-0.028 0-0.042c-0.014-0.014-0.042-0.028-0.056-0.028-0.071 0.056-0.141 0.056-0.212 0 0 0-0.042 0.028-0.056 0.028-0.028 0-0.056-0.014-0.056-0.028-0.014-0.014-0.028-0.071-0.014-0.071 0.042-0.042 0.099-0.071 0.141-0.099 0.028-0.028-0.014-0.113-0.056-0.127-0.014 0-0.014 0.014-0.042 0.042 0-0.085 0-0.155 0-0.226-0.014 0-0.028-0.014-0.028-0.014-0.014 0.042-0.028 0.085-0.028 0.113-0.113-0.042-0.141-0.099-0.127-0.155 0.028-0.085 0.056-0.155 0.085-0.24 0.028-0.071-0.028-0.127-0.042-0.183-0.014-0.085-0.056-0.155 0-0.268 0.028-0.071 0-0.183-0.042-0.268-0.028-0.071-0.042-0.113 0-0.169 0.028-0.028 0.028-0.085 0.042-0.113 0.056-0.085 0.127-0.085 0.198-0.028 0.113 0.085 0.127 0.198 0.113 0.31 0 0.014 0.014 0.042 0.028 0.042s0.042 0 0.056-0.014c0.028-0.042 0.071-0.099 0.085-0.141 0.028-0.056 0.028-0.127 0.056-0.183 0.028-0.042 0.014-0.056 0-0.085s0-0.071 0-0.099c0.014-0.056 0.056-0.113 0.071-0.169-0.085-0.042 0.042-0.099 0-0.141-0.141 0.085-0.085 0-0.113-0.056-0.014-0.042-0.028-0.085-0.042-0.127-0.014-0.113 0.028-0.183 0.113-0.254 0.127-0.099 0.127-0.099 0.085-0.254 0-0.014 0-0.042 0-0.071s0-0.056 0-0.113c0.056 0.028 0.085 0.056 0.127 0.056 0.028 0 0.099 0.028 0.099-0.042 0-0.014 0.014-0.042 0.014-0.042 0.056-0.014 0.113-0.014 0.169-0.042 0.042-0.014 0.056-0.071 0.085-0.113 0.127-0.099 0.183-0.24 0.113-0.395-0.014-0.042-0.028-0.071 0-0.113s0.042-0.113 0.071-0.155c0.071-0.099 0.028-0.183 0-0.282-0.014-0.056-0.113-0.056-0.071-0.155 0.014-0.042-0.042-0.113-0.071-0.183-0.014-0.056-0.042-0.127-0.042-0.183-0.014-0.071 0-0.141 0-0.198 0-0.028-0.028-0.056-0.042-0.085 0.071-0.014 0.141-0.028 0.226-0.042 0.071-0.014 0.141-0.028 0.226-0.028-0.042-0.127 0.028-0.226 0.099-0.31 0.071-0.113 0.028-0.198-0.014-0.282-0.042-0.099-0.113-0.183-0.183-0.268-0.014-0.014-0.014-0.028-0.028-0.028-0.127 0.042-0.113-0.099-0.183-0.155-0.071-0.042-0.127-0.113-0.183-0.169 0-0.014 0-0.028 0.014-0.042 0-0.056 0.014-0.113 0-0.169-0.014-0.028-0.014-0.042 0.014-0.071 0.071-0.071 0.085-0.169 0.099-0.254 0.014-0.056 0.014-0.127 0.042-0.183 0.042-0.071 0.056-0.155 0.042-0.226 0-0.099-0.042-0.212-0.056-0.31-0.014-0.085-0.028-0.183-0.071-0.24-0.071-0.099-0.028-0.169 0.014-0.24 0.056-0.155 0.071-0.212-0.028-0.339-0.042-0.056 0.056-0.085 0.028-0.127 0.099 0 0.099-0.099 0.085-0.141-0.042-0.099-0.028-0.226-0.099-0.325-0.056-0.071-0.042-0.155 0.014-0.212 0.127-0.127 0.198-0.268 0.183-0.451 0-0.042-0.014-0.085 0.028-0.127 0.071-0.056 0.113-0.155 0.155-0.226 0.099-0.155 0.212-0.31 0.367-0.409 0.127-0.071 0.268-0.198 0.423-0.071 0.141-0.014 0.268 0.099 0.423 0.056 0.014 0 0.042 0.042 0.056 0 0.042-0.085 0.085-0.155 0.127-0.24 0 0 0-0.014 0-0.028-0.085-0.042 0.028-0.099 0-0.141-0.071-0.071-0.042-0.141-0.042-0.212 0-0.085-0.014-0.155-0.113-0.183-0.071-0.028-0.155-0.071-0.183-0.169-0.014-0.056-0.014-0.071 0.014-0.113 0.071-0.099 0.127-0.198 0.198-0.31 0.028-0.042 0.042-0.071 0.014-0.113 0.042-0.028 0.085-0.028 0.113-0.071 0.071-0.113 0.099-0.226 0.198-0.325 0.028-0.028 0.014-0.113 0.014-0.169s-0.014-0.099 0.042-0.141c0.099-0.071 0.099-0.183 0.099-0.296s0-0.226 0-0.339c0-0.085 0-0.169 0.056-0.226 0.056-0.071 0.056-0.155 0.028-0.212-0.127-0.141-0.042-0.31-0.099-0.451zM6.166 21.46c0.028-0.028 0.056-0.056 0.085-0.085 0.056-0.056 0.056-0.085-0.042-0.099-0.056-0.014-0.042-0.028-0.056-0.071-0.028-0.085-0.071-0.155-0.155-0.155s-0.042-0.085-0.085-0.099c-0.028 0.042-0.056 0.085-0.085 0.127-0.085-0.056-0.155-0.113-0.226-0.169-0.014 0-0.028 0.014-0.042 0.014-0.056 0-0.113 0-0.169-0.014-0.014 0-0.028-0.014-0.042 0-0.141 0.071-0.141 0.071-0.254-0.014-0.028 0.056-0.071 0.113-0.113 0.183 0.183-0.028 0.339-0.028 0.494-0.071 0.042-0.014 0.056 0 0.085 0.014 0.014 0.014 0.028 0.028 0.028 0.028 0.071-0.028 0.127 0 0.169 0.042 0.099 0.071 0.014 0.141 0 0.212 0 0 0.028 0.014 0.042 0.014s0.042-0.028 0.056-0.028c0.056 0.127 0.212 0.071 0.31 0.169zM6.871 20.952c-0.014-0.014-0.014-0.014-0.028-0.028-0.056 0.042-0.113 0.085-0.169 0.127-0.071 0.056-0.155 0.042-0.212 0.042-0.014 0.085-0.028 0.155-0.042 0.212 0.056 0.028 0.113 0.014 0.155-0.042 0.042-0.042 0.071-0.113 0.141-0.042 0.014-0.014 0.042-0.042 0.042-0.056-0.028-0.042-0.042-0.085 0.014-0.113 0.042-0.014 0.071-0.056 0.099-0.099z"></path>
<path d="M7.111 23.76c0.042 0.056 0.071 0.099 0.099 0.141 0.014-0.028 0.028-0.056 0.056-0.099 0.014-0.014 0.042-0.028 0.042-0.014 0.056 0.071 0.099 0.028 0.127-0.014s0.042-0.099 0.085-0.113c0.056-0.028 0.127-0.014 0.212-0.014 0 0.071 0.042 0.155-0.085 0.141-0.014 0-0.042 0-0.042 0.014-0.014 0.071-0.014 0.155-0.127 0.127-0.028 0.056-0.056 0.127-0.099 0.183-0.028 0.042-0.014 0.099-0.099 0.099-0.042 0-0.071 0.071-0.071 0.127 0.014 0.099 0 0.198 0 0.296 0.056 0.028 0.113 0.042 0.183 0.071-0.014 0.028-0.014 0.042-0.028 0.042-0.056 0.028-0.113 0.056-0.169 0.099-0.042 0.028-0.085 0.113-0.056 0.127 0.071 0.085 0 0.127-0.042 0.141-0.113 0.042-0.183 0.113-0.254 0.212-0.042 0.056-0.099 0.099 0.028 0.113 0.014 0 0.014 0.014 0.014 0.028-0.014 0.099-0.127 0.183-0.268 0.198 0-0.056-0.028-0.127 0.028-0.183 0.056-0.042 0.042-0.071 0.014-0.113-0.071-0.113-0.028-0.254-0.141-0.353-0.014 0 0.014-0.056 0.028-0.071 0.014-0.028 0.028-0.042 0.056-0.071-0.085-0.028 0-0.071-0.014-0.113-0.056-0.141-0.028-0.282 0.085-0.395 0.028-0.028 0.042-0.071 0.071-0.099 0.085-0.113 0.099-0.282 0.268-0.325 0.056-0.056 0.071-0.127 0.099-0.183z"></path>
<path d="M5.446 24.875c0.085 0 0.141 0 0.198 0-0.028 0.141-0.056 0.268-0.085 0.395-0.028 0.085-0.099 0.141-0.113 0.226-0.014 0.056-0.028 0.085 0 0.141 0.014 0.014 0.014 0.028 0 0.042-0.028 0.085-0.183 0.127-0.071 0.254-0.169 0.042-0.056 0.183-0.099 0.268s-0.099 0.169-0.127 0.268c-0.028 0.085 0 0.183-0.056 0.268-0.028 0.042-0.028 0.099-0.042 0.141 0 0.014-0.042 0.028-0.056 0.028s-0.028-0.028-0.028-0.042c0-0.127 0.014-0.268-0.042-0.395-0.028-0.056 0.014-0.169 0.042-0.24 0.056-0.127 0.099-0.268 0.141-0.395 0.028-0.071 0.042-0.141 0.127-0.169 0.042-0.014 0.099-0.056 0.028-0.127 0 0 0.014-0.042 0.014-0.042 0.085 0.014 0.042-0.099 0.099-0.113 0-0.169 0.141-0.31 0.071-0.508z"></path>
</svg>
