<!-- Generated by IcoMoon.io -->
<svg version="1.1" xmlns="http://www.w3.org/2000/svg" width="32" height="32" viewBox="0 0 32 32">
<title>FYB_SG</title>
<path d="M10.399 2.187c1.284 0 2.483-0.085 3.668 0.028 1.044 0.099 1.552 0.748 1.665 1.792 0.028 0.24 0.028 0.494 0.028 0.734 0 1.016-0.085 1.157-1.058 1.764 1.227 0.339 1.227 1.284 1.242 2.243 0.014 2.483-0.268 2.78-2.751 2.78-0.917 0-1.834 0-2.794 0 0-3.175 0-6.265 0-9.34zM12.783 9.905c0.776-0.141 0.945-0.593 0.776-1.919-0.071-0.578-0.127-0.621-0.776-0.593 0 0.818 0 1.623 0 2.511zM12.811 3.654c0 0.776 0 1.453 0 2.145 0.72 0.141 0.748-0.353 0.748-0.776 0-0.522 0.212-1.185-0.748-1.369z"></path>
<path d="M31.944 5.517c-0.889 0-1.608 0-2.455 0 0-0.494 0.042-0.959-0.014-1.411-0.028-0.212-0.254-0.395-0.395-0.593-0.127 0.183-0.339 0.367-0.353 0.55-0.042 0.847-0.042 1.693-0.042 2.526 0 0.959-0.014 1.905 0.028 2.864 0.014 0.212 0.24 0.423 0.367 0.635 0.155-0.212 0.451-0.423 0.451-0.635 0-0.564 0.353-1.185-0.325-1.707-0.212-0.155-0.085-0.762-0.127-1.213 0.959 0 1.834 0 2.765 0 0 1.637 0 3.259 0 4.938-0.621-0.085-1.326 0.423-1.693-0.536-0.748 0.818-1.594 0.959-2.54 0.494s-1.298-1.27-1.284-2.272c0.014-1.665-0.014-3.316 0.028-4.981 0.028-1.157 0.621-1.919 1.778-2.116 0.691-0.127 1.467-0.085 2.159 0.099 0.832 0.212 1.397 0.832 1.496 1.75 0.071 0.522 0.099 1.016 0.155 1.608z"></path>
<path d="M20.233 8.183c0.748 0 1.425 0 2.201 0 0 0.451-0.042 0.889 0.014 1.312 0.028 0.212 0.254 0.409 0.381 0.607 0.169-0.198 0.451-0.381 0.494-0.607 0.099-0.635-0.028-1.228-0.649-1.623-0.55-0.339-1.072-0.748-1.608-1.115-0.988-0.677-1.101-2.187-0.762-3.443 0.24-0.889 1.101-1.355 2.356-1.383 0.169 0 0.325 0 0.494 0.014 1.82 0.155 2.511 1.072 2.173 2.963-0.663 0-1.326 0-2.032 0-0.042-0.367-0.042-0.691-0.113-1.002-0.042-0.141-0.226-0.353-0.339-0.353-0.127 0-0.325 0.169-0.381 0.325-0.212 0.508 0.014 1.143 0.508 1.496 0.536 0.381 1.101 0.705 1.608 1.101 1.016 0.79 1.467 3.090 0.776 4.176-0.198 0.325-0.564 0.649-0.931 0.734-0.663 0.183-1.397 0.325-2.074 0.254-1.355-0.141-1.947-0.804-2.102-2.159-0.056-0.409-0.014-0.804-0.014-1.298z"></path>
<path d="M7.718 2.116c0.734 0 1.411 0 2.145 0-0.72 3.090-2.243 5.968-1.608 9.284-0.861 0-1.538 0-2.37 0 0.522-3.245-0.847-6.166-1.623-9.27 0.72 0 1.383 0 2.173 0 0.169 0.959 0.353 1.961 0.536 2.963 0.042 0.014 0.085 0.014 0.127 0.028 0.212-0.988 0.423-1.989 0.621-3.005z"></path>
<path d="M4.092 2.131c0 0.593 0 1.129 0 1.764-0.522 0.028-1.016 0.056-1.58 0.099 0 0.564 0 1.086 0 1.665 0.451 0.028 0.903 0.056 1.383 0.085 0 0.578 0 1.101 0 1.693-0.452 0.028-0.875 0.042-1.425 0.071 0 1.284 0 2.568 0 3.908-0.861 0-1.608 0-2.384 0 0-3.104 0-6.166 0-9.27 1.34-0.014 2.624-0.014 4.007-0.014z"></path>
<path d="M19.612 6.885c0 0.536 0 0.988 0 1.496-0.988 0-1.947 0-2.963 0 0-0.494 0-0.974 0-1.496 0.988 0 1.947 0 2.963 0z"></path>
<path d="M10.427 27.64c0.099-0.014 0.198-0.042 0.296-0.056 0.071-0.183 0.127-0.198 0.296-0.071 0.113 0.085 0.226 0.198 0.339 0.282 0.155 0.127 0.296 0.099 0.381-0.085 0.028-0.042 0.028-0.127 0-0.183-0.127-0.24-0.353-0.367-0.55-0.508-0.183-0.141-0.183-0.127-0.141-0.353 0.014-0.042-0.014-0.085-0.028-0.127-0.099-0.169-0.198-0.339-0.296-0.522-0.056-0.099-0.127-0.212-0.198-0.31-0.014 0-0.028 0.014-0.056 0.014 0 0.056-0.014 0.127 0 0.183 0.014 0.085 0.056 0.155 0.085 0.226 0.071 0.183 0 0.254-0.183 0.226-0.155-0.014-0.31-0.042-0.466-0.028-0.169 0-0.254-0.099-0.31-0.24-0.028 0.028-0.056 0.042-0.071 0.056-0.056 0.099-0.141 0.099-0.226 0.085-0.099-0.014-0.198-0.028-0.296-0.056-0.056-0.014-0.113-0.042-0.155-0.085-0.071-0.056-0.141-0.113-0.183-0.183-0.028-0.042-0.056-0.113-0.042-0.169 0.014-0.113-0.014-0.169-0.113-0.212-0.028-0.014-0.071-0.071-0.071-0.099 0.014-0.155 0-0.325 0.056-0.48 0.042-0.141 0.127-0.282 0.226-0.409 0.099-0.141 0.155-0.282 0.155-0.451 0-0.028-0.014-0.056-0.028-0.085-0.014 0.014-0.042 0.014-0.042 0.028-0.071 0.226-0.24 0.409-0.395 0.578-0.071 0.085-0.085 0.212-0.127 0.325-0.042 0.141-0.071 0.282-0.113 0.409-0.028 0.099-0.028 0.169 0.056 0.24 0.141 0.099 0.141 0.254 0.127 0.395 0 0.014-0.071 0.056-0.099 0.042-0.155-0.042-0.31-0.085-0.452-0.141-0.042-0.014-0.085-0.056-0.113-0.099-0.113-0.155-0.254-0.212-0.437-0.226-0.113 0-0.198 0.042-0.24 0.155-0.014 0.028-0.028 0.042-0.028 0.071-0.113 0.226-0.113 0.226-0.339 0.127-0.071-0.028-0.127-0.028-0.169 0.042-0.014 0.028-0.042 0.056-0.071 0.085-0.127 0.141-0.212 0.141-0.339 0.014-0.028-0.028-0.056-0.056-0.085-0.085-0.085-0.071-0.169-0.071-0.212 0.042s-0.127 0.127-0.226 0.113c-0.056 0-0.113-0.014-0.169-0.014-0.212 0-0.268-0.071-0.31-0.282-0.014-0.113-0.056-0.212-0.099-0.325 0-0.014-0.028-0.028-0.056-0.056-0.071 0.141-0.085 0.282-0.056 0.423 0.014 0.085 0.028 0.155 0.028 0.24 0 0.141-0.099 0.198-0.226 0.113-0.183-0.127-0.367-0.24-0.437-0.48-0.028-0.099-0.099-0.183-0.212-0.198-0.071 0-0.113 0.014-0.099 0.099 0.014 0.226 0.071 0.437 0.254 0.607s0.169 0.24-0.042 0.381c-0.071 0.042-0.141 0.113-0.183 0.183-0.099 0.127-0.198 0.169-0.339 0.071-0.071-0.056-0.127-0.056-0.183 0.014-0.113 0.113-0.226 0.127-0.31 0-0.113-0.141-0.198-0.31-0.254-0.48-0.042-0.127-0.099-0.212-0.24-0.254-0.169-0.056-0.198-0.141-0.085-0.268 0.099-0.113 0.212-0.212 0.31-0.31 0.071-0.085 0.155-0.155 0.127-0.31-0.071 0.056-0.127 0.099-0.198 0.141-0.085 0.056-0.155 0.127-0.24 0.169-0.056 0.028-0.155 0.028-0.212 0-0.085-0.042-0.127-0.155-0.071-0.24 0.071-0.113 0.169-0.226 0.254-0.325 0.028-0.042 0.113-0.071 0.056-0.141-0.056-0.056-0.113-0.113-0.198-0.056-0.056 0.028-0.099 0.071-0.141 0.113-0.056 0.056-0.113 0.113-0.183 0.169-0.141 0.113-0.24 0.099-0.339-0.056-0.113-0.141-0.155-0.155-0.268-0.099-0.155 0.085-0.169 0.113-0.085 0.268 0.212 0.381 0.437 0.762 0.649 1.157 0.113 0.212 0.212 0.423 0.31 0.635 0.141 0.296 0.056 0.466-0.268 0.522-0.085 0.014-0.169 0.028-0.254 0.028-0.296 0-0.593-0.014-0.889 0-0.494 0-0.72-0.282-0.818-0.705-0.071-0.296-0.028-0.593 0.085-0.875 0.31-0.748 0.607-1.51 0.917-2.258 0.056-0.127 0.099-0.254 0.085-0.395-0.014-0.155 0.042-0.296 0.141-0.409 0.127-0.155 0.183-0.325 0.141-0.522-0.056-0.353 0.141-0.593 0.339-0.832 0.296-0.381 0.536-0.79 0.705-1.242 0.042-0.113 0.099-0.24 0.183-0.325 0.155-0.183 0.254-0.367 0.325-0.593 0.056-0.155 0.127-0.325 0.226-0.451 0.141-0.169 0.155-0.353 0.141-0.564-0.014-0.127-0.014-0.226 0.056-0.339 0.028-0.056 0.028-0.141 0.028-0.212-0.028-0.141 0.028-0.254 0.155-0.325s0.268-0.141 0.409-0.212c0.042-0.028 0.099-0.085 0.113-0.141 0.056-0.268 0.113-0.55 0.155-0.818 0-0.028 0-0.071 0.014-0.085 0.183-0.268 0.324-0.55 0.649-0.677 0.127-0.056 0.254-0.127 0.367-0.212 0.141-0.113 0.296-0.155 0.466-0.155 0.085 0 0.169-0.028 0.226-0.071 0.282-0.24 0.564-0.494 0.818-0.762 0.183-0.198 0.367-0.353 0.663-0.339 0.071 0 0.169-0.056 0.24-0.099 0.141-0.099 0.268-0.113 0.423-0.014 0.042 0.028 0.113 0.028 0.141 0.014 0.127-0.056 0.24-0.028 0.325 0.085 0.127 0.169 0.282 0.296 0.48 0.381 0.183 0.085 0.226 0.254 0.099 0.451-0.099 0.155-0.085 0.268 0.014 0.409 0.113 0.141 0.099 0.296 0.014 0.466-0.056 0.113-0.085 0.226-0.127 0.339-0.056 0.127-0.113 0.24-0.169 0.367-0.028 0.071-0.071 0.141-0.113 0.212 0.014 0.014 0.028 0.028 0.042 0.042 0.113-0.071 0.212-0.127 0.325-0.198s0.226-0.169 0.339-0.24c0.099-0.056 0.183-0.141 0.212-0.254s0.071-0.24 0.127-0.353c0.042-0.099 0.042-0.198-0.042-0.268-0.127-0.113-0.183-0.254-0.198-0.423-0.014-0.113-0.042-0.212-0.056-0.325 0-0.056 0-0.113 0.014-0.169 0.028-0.127 0.127-0.155 0.24-0.113 0.141 0.056 0.268 0.127 0.395 0.198 0.028 0.014 0.085 0.028 0.099 0.014 0.099-0.099 0.226-0.085 0.353-0.085 0.169 0 0.353 0 0.522-0.014 0.042 0 0.085-0.014 0.127 0.014 0.127 0.056 0.198 0 0.24-0.099 0.141-0.325 0.409-0.466 0.72-0.564 0.268-0.085 0.494-0.226 0.649-0.48 0.056-0.099 0.198-0.155 0.31-0.198 0.141-0.042 0.24-0.113 0.325-0.226 0.056-0.071 0.127-0.141 0.212-0.169 0.127-0.056 0.226-0.141 0.325-0.24 0.071-0.071 0.155-0.141 0.24-0.169 0.071-0.028 0.169-0.014 0.226 0.028 0.085 0.071 0.155 0.071 0.254 0.056 0.183-0.028 0.367-0.042 0.55-0.056 0.212-0.014 0.282 0.042 0.296 0.254 0.014 0.099 0.042 0.183 0.056 0.268 0.014 0 0.028 0 0.042 0 0.056-0.056 0.099-0.127 0.155-0.183 0.155-0.169 0.282-0.198 0.48-0.071 0.085 0.056 0.212 0.071 0.268 0.141 0.113 0.155 0.254 0.198 0.423 0.254 0.113 0.028 0.198 0.141 0.296 0.212 0.127 0.113 0.254 0.226 0.395 0.339 0.198 0.141 0.212 0.226 0.056 0.409-0.028 0.042-0.056 0.085-0.071 0.155 0.056-0.014 0.113-0.028 0.155-0.042 0.127-0.028 0.254-0.056 0.353 0.056s0.113 0.254 0.071 0.395c-0.014 0.056-0.042 0.113-0.071 0.183 0.056-0.014 0.099-0.014 0.127-0.028 0.099-0.014 0.183 0.014 0.24 0.113s0.127 0.198 0.183 0.282c0.085 0.127 0.085 0.226 0 0.353-0.071 0.099-0.155 0.198-0.24 0.296-0.127 0.155-0.212 0.325-0.24 0.508-0.014 0.127-0.099 0.212-0.212 0.282-0.071 0.042-0.127 0.127-0.183 0.198s-0.127 0.141-0.141 0.226c-0.042 0.183-0.226 0.198-0.339 0.296-0.155 0.127-0.268 0.099-0.409 0.028-0.113-0.056-0.226-0.113-0.339-0.141-0.198-0.056-0.367 0.014-0.508 0.141-0.127 0.113-0.113 0.268-0.099 0.423 0.014 0.014 0.028 0.014 0.042 0.028 0.071-0.085 0.155-0.169 0.212-0.268 0.071-0.113 0.183-0.141 0.31-0.113 0.155 0.028 0.212 0.169 0.127 0.31-0.028 0.042-0.042 0.071-0.085 0.099-0.071 0.071-0.085 0.141-0.056 0.226 0.042 0.113 0.085 0.212 0.212 0.24 0.113 0.028 0.198-0.014 0.24-0.127 0.014-0.056 0.042-0.113 0.056-0.169 0.028-0.099 0.085-0.155 0.198-0.169 0.056-0.014 0.113-0.028 0.169-0.028 0.198-0.028 0.339-0.127 0.395-0.296 0.085-0.212 0.212-0.353 0.423-0.423 0.169-0.056 0.24-0.198 0.31-0.353 0.028-0.085 0.071-0.169 0.099-0.254 0.085-0.198 0.24-0.296 0.451-0.31 0.169-0.014 0.325 0.028 0.409 0.198 0.085 0.183 0.212 0.31 0.409 0.367 0.042 0.014 0.085 0.056 0.141 0.071 0.028 0.014 0.085 0.014 0.099 0 0.071-0.071 0.141-0.071 0.226-0.042 0.169 0.056 0.339 0.113 0.522 0.169s0.226 0.155 0.113 0.31c-0.042 0.056-0.085 0.113-0.141 0.155-0.183 0.155-0.296 0.339-0.367 0.578-0.056 0.183-0.155 0.367-0.226 0.55-0.028 0.071-0.056 0.155-0.056 0.24 0.198-0.169 0.339-0.367 0.395-0.607 0.042-0.183 0.141-0.325 0.296-0.409 0.268-0.155 0.423-0.395 0.494-0.705 0.042-0.198 0.169-0.353 0.353-0.437 0.169-0.085 0.353-0.155 0.522-0.226 0.183-0.056 0.282 0 0.31 0.183 0.028 0.254 0.155 0.466 0.254 0.691 0.127 0.296 0.325 0.451 0.593 0.564 0.183 0.085 0.183 0.183 0.028 0.296-0.056 0.042-0.113 0.071-0.169 0.099-0.31 0.169-0.466 0.48-0.578 0.79-0.014 0.014 0.028 0.071 0.028 0.071 0.042 0 0.113-0.014 0.113-0.028 0.127-0.353 0.466-0.508 0.72-0.734 0.071-0.056 0.155-0.099 0.254-0.127 0.169-0.056 0.282 0.014 0.339 0.183 0.028 0.085 0.085 0.169 0.141 0.24 0.212 0.325 0.536 0.508 0.875 0.663 0.099 0.042 0.183 0.113 0.282 0.183 0.085 0.071 0.198 0.099 0.296 0.071 0.254-0.085 0.508-0.042 0.762 0.028 0.183 0.042 0.24 0.014 0.353-0.113 0.085-0.099 0.198-0.198 0.296-0.296 0.028-0.028 0.042-0.085 0.042-0.113-0.014-0.226 0.056-0.325 0.282-0.325 0.353 0 0.705 0 1.058 0.014 0.099 0 0.212 0.056 0.296 0.127 0.183 0.127 0.367 0.254 0.522 0.409 0.085 0.085 0.141 0.212 0.198 0.339 0.056 0.113 0.099 0.24 0.169 0.339 0.155 0.198 0.169 0.381 0.028 0.593-0.014 0.014-0.028 0.042-0.028 0.056s0 0.014-0.014 0.042c0.099 0.071 0.212 0.085 0.31 0.071 0.169-0.042 0.325-0.028 0.437 0.127 0.028 0.056 0.127 0.071 0.198 0.085 0.212 0.028 0.296 0.127 0.226 0.339-0.028 0.071-0.056 0.141-0.085 0.212-0.183 0.423-0.367 0.847-0.536 1.27-0.028 0.071-0.028 0.127 0.056 0.155 0.339 0.113 0.367 0.339 0.212 0.649-0.071 0.141-0.141 0.296-0.198 0.451-0.056 0.127-0.169 0.169-0.296 0.212-0.127 0.028-0.254 0.071-0.395 0.113 0.169 0.085 0.339 0.113 0.508 0.056 0.325-0.113 0.663-0.169 1.016-0.113 0.099 0.014 0.198-0.014 0.31 0 0.155 0 0.226 0.071 0.24 0.226 0.014 0.099 0.014 0.198 0.028 0.296 0 0.042 0.014 0.085 0 0.113-0.028 0.071-0.071 0.127-0.113 0.183-0.056-0.042-0.113-0.071-0.155-0.127-0.042-0.042-0.056-0.099-0.071-0.141-0.028-0.127-0.113-0.127-0.212-0.085-0.127 0.042-0.183 0.141-0.24 0.254-0.085 0.212-0.155 0.24-0.367 0.183s-0.437-0.056-0.649-0.014c-0.113 0.028-0.212 0.099-0.31 0.155s-0.183 0.141-0.282 0.183c-0.155 0.071-0.325 0.042-0.466-0.056-0.071-0.042-0.127-0.099-0.198-0.141-0.155-0.113-0.31-0.127-0.466-0.014-0.141 0.099-0.268 0.085-0.409 0-0.056-0.042-0.127-0.056-0.198-0.085-0.141-0.071-0.296-0.113-0.423-0.212-0.113-0.071-0.183-0.099-0.296-0.028-0.056 0.028-0.099 0.056-0.155 0.099-0.141 0.099-0.24 0.056-0.268-0.113-0.042-0.226-0.141-0.409-0.325-0.564-0.028-0.014-0.056-0.042-0.085-0.056-0.014 0-0.028 0-0.042 0 0.056 0.226 0.127 0.437 0.183 0.649 0.056 0.226 0 0.31-0.226 0.353-0.24 0.042-0.466 0.099-0.705 0.141-0.099 0.014-0.198 0.014-0.296 0.014-0.141-0.014-0.282 0.014-0.395 0.099-0.353 0.268-0.762 0.296-1.185 0.325-0.056 0-0.127 0.014-0.155 0.056-0.141 0.155-0.325 0.24-0.536 0.254-0.423 0.014-0.776 0.212-1.101 0.437-0.056 0.042-0.127 0.085-0.169 0.127-0.183 0.155-0.381 0.254-0.621 0.282-0.099 0.014-0.183 0.071-0.268 0.127-0.226 0.155-0.451 0.325-0.691 0.48-0.085 0.056-0.169 0.056-0.254-0.014-0.212-0.155-0.353-0.367-0.437-0.607-0.042-0.113-0.099-0.212-0.155-0.325-0.014 0-0.028 0.014-0.042 0.014-0.014 0.042-0.014 0.085-0.028 0.113-0.028 0.085-0.042 0.169-0.071 0.254s-0.085 0.169-0.071 0.24c0.056 0.127 0.141 0.24 0.24 0.339 0.071 0.071 0.155 0.113 0.226 0.183 0.113 0.099 0.099 0.226 0 0.339s-0.198 0.226-0.282 0.339c-0.155 0.212-0.593 0.268-0.79 0.085-0.085-0.071-0.169-0.141-0.268-0.226-0.113 0.198-0.127 0.381-0.085 0.578 0.014 0.099 0.028 0.198 0.028 0.282 0 0.028-0.014 0.071-0.042 0.085-0.014 0.014-0.056-0.014-0.085-0.028-0.085-0.071-0.155-0.155-0.24-0.226-0.042-0.042-0.099-0.071-0.169-0.127 0.014 0.071 0.014 0.099 0.014 0.141 0.028 0.141 0.014 0.254-0.071 0.367-0.042 0.056-0.071 0.113-0.099 0.183-0.071 0.198-0.141 0.24-0.367 0.183-0.141-0.042-0.268-0.056-0.395 0.028 0.056 0.113 0.169 0.183 0.282 0.141 0.155-0.056 0.268-0.056 0.395 0.071 0.028 0.028 0.113 0.028 0.169 0.014 0.042 0 0.099-0.056 0.141-0.056 0.071 0 0.183 0 0.212 0.042 0.042 0.056 0.056 0.169 0.028 0.226-0.071 0.169-0.155 0.325-0.254 0.48-0.071 0.127-0.155 0.127-0.254 0.028-0.028-0.028-0.042-0.056-0.071-0.085s-0.056-0.042-0.085-0.071c-0.028 0.042-0.056 0.071-0.056 0.113 0 0.056 0.014 0.113 0.014 0.169 0 0.014 0 0.028 0 0.042 0.014 0.113-0.042 0.183-0.155 0.198-0.155 0.014-0.31 0.254-0.466 0-0.042-0.056-0.085-0.113-0.127-0.183-0.071-0.099-0.141-0.155-0.268-0.155-0.071 0-0.155-0.071-0.226-0.127-0.113-0.085-0.212-0.169-0.325-0.268-0.071-0.071-0.141-0.127-0.198-0.212-0.113-0.141-0.226-0.226-0.409-0.254-0.226-0.028-0.339-0.212-0.325-0.437 0.014-0.085 0.056-0.127 0.141-0.141 0.042 0 0.085 0 0.127 0.014 0.339 0.071 0.677 0.141 1.016 0.212 0.014 0 0.028 0 0.042 0 0.028-0.141-0.028-0.254-0.198-0.325-0.113-0.042-0.24-0.085-0.353-0.127-0.099-0.042-0.423-0.127-0.536-0.113-0.141 0.014-0.268 0.042-0.367 0.155-0.056 0.071-0.127 0.042-0.169-0.014s-0.085-0.127-0.127-0.183c-0.071-0.099-0.141-0.183-0.282-0.155-0.085 0.014-0.141-0.042-0.155-0.113-0.028-0.113-0.099-0.155-0.198-0.141-0.169 0.028-0.282-0.042-0.423-0.141-0.198-0.155-0.423-0.282-0.635-0.423-0.056-0.042-0.099-0.028-0.155 0.028-0.155 0.141-0.282 0.296-0.339 0.494-0.014 0.028-0.028 0.056-0.042 0.099-0.085 0.183-0.24 0.198-0.381 0.056-0.014-0.014-0.042-0.042-0.056-0.071-0.169-0.325-0.466-0.494-0.762-0.635-0.099-0.056-0.198-0.113-0.31-0.169 0.014-0.085 0.028-0.113 0.028-0.127z"></path>
</svg>
