<?xml version="1.0" encoding="utf-8"?>
<!-- Generator: Adobe Illustrator 22.0.1, SVG Export Plug-In . SVG Version: 6.00 Build 0)  -->
<svg version="1.1" id="Layer_1" xmlns="http://www.w3.org/2000/svg" xmlns:xlink="http://www.w3.org/1999/xlink" x="0px" y="0px"
	 viewBox="0 0 226.8 226.8" style="enable-background:new 0 0 226.8 226.8;" xml:space="preserve">
<style type="text/css">
	.st0{stroke:#FFFFFF;stroke-miterlimit:10;}
</style>
<g>
	<path class="st0" d="M87.7,75.5H213v28.1H87.7V75.5z"/>
	<path class="st0" d="M213,122.3H87.7v28.1h93.1v26.4c-12.5,10.8-36.9,16.3-36.9,16.3c-71.8,12.5-94.7-48.9-94.7-48.9
		C28.4,73.4,78.8,45.3,78.8,45.3C140.7,7.9,187,55.7,187,55.7l21.8-21.3C172.5-7.2,116.3,0.6,116.3,0.6c-91,9.4-103,85.8-103,85.8
		c-15.1,61.4,26.5,103.5,26.5,103.5c75.9,77,173.7,6.2,173.7,6.2v-73.9H213V122.3z"/>
</g>
</svg>
