<!-- Generated by IcoMoon.io -->
<svg version="1.1" xmlns="http://www.w3.org/2000/svg" width="32" height="32" viewBox="0 0 32 32">
<title>GAME</title>
<path d="M12.374 10.653h17.679v3.965h-17.679v-3.965z"></path>
<path d="M30.053 17.256h-17.679v3.965h13.136v3.725c-1.764 1.524-5.206 2.3-5.206 2.3-10.13 1.764-13.362-6.899-13.362-6.899-2.935-9.989 4.176-13.954 4.176-13.954 8.734-5.277 15.266 1.467 15.266 1.467l3.076-3.005c-5.122-5.87-13.051-4.769-13.051-4.769-12.839 1.326-14.533 12.106-14.533 12.106-2.131 8.663 3.739 14.603 3.739 14.603 10.709 10.864 24.508 0.875 24.508 0.875v-10.427h-0.071v0.014z"></path>
</svg>
