<!-- Generated by IcoMoon.io -->
<svg version="1.1" xmlns="http://www.w3.org/2000/svg" width="32" height="32" viewBox="0 0 32 32">
<title>GATECOIN</title>
<path d="M13.982 0.226c2.497-0.325 5.093-0.056 7.45 0.804 3.725 1.326 6.899 4.106 8.72 7.619 2.455 4.586 2.427 10.413-0.085 14.97-2.088 3.908-5.869 6.857-10.159 7.915-3.795 0.931-7.958 0.466-11.4-1.411-3.443-1.834-6.194-4.981-7.506-8.663-1.594-4.346-1.157-9.369 1.171-13.362 2.427-4.261 6.928-7.309 11.81-7.873zM14.335 1.721c-3.090 0.381-6.039 1.764-8.268 3.922-2.907 2.751-4.6 6.758-4.444 10.765 0.042 5.489 3.626 10.723 8.677 12.854 2.723 1.171 5.813 1.552 8.705 0.875 3.612-0.734 6.899-2.963 8.959-6.025 1.848-2.709 2.723-6.067 2.427-9.326-0.367-4.275-2.751-8.296-6.307-10.681-2.836-1.933-6.363-2.765-9.75-2.384zM4.769 12.656c1.157-4.035 4.684-7.28 8.804-8.099 0.607-0.085 1.185 0.48 1.101 1.101 0.014 3.372 0.014 6.744 0 10.116 0.056 0.55-0.409 1.058-0.959 1.058-2.624 0.014-5.263 0-7.887 0.014 0.198 2.37 1.213 4.684 2.907 6.363 1.453 1.51 3.386 2.497 5.432 2.907 0.804 0.183 0.593 1.58-0.254 1.496-4.303-0.691-8.014-4.064-9.185-8.24-0.663-2.187-0.649-4.557 0.042-6.716zM7.379 10.624c1.919 0.028 3.852 0.014 5.771 0-0.014-1.002 0.028-2.004-0.014-3.005-0.042-0.691-0.889-1.115-1.496-0.79-1.75 0.818-3.231 2.173-4.261 3.795zM6.575 12.162c-0.437 0.974-0.607 2.032-0.734 3.076 2.088-0.014 4.176 0.014 6.265-0.014 0.55 0.071 1.058-0.409 1.030-0.945 0.028-0.705 0-1.425 0.014-2.116-2.187 0-4.388 0.014-6.575 0zM17.34 5.644c-0.042-0.593 0.522-1.171 1.129-1.086 2.794 0.564 5.333 2.229 7.012 4.515 1.411 1.877 2.201 4.19 2.3 6.533 0.085 2.568-0.677 5.178-2.187 7.28-1.721 2.413-4.388 4.162-7.309 4.698-0.522 0.141-1.002-0.367-0.945-0.875 0.014-1.312-0.028-2.61 0.028-3.922 0.113-0.762 1.312-0.832 1.524-0.099 0.113 0.748-0.014 1.51 0.056 2.258 0.085 0.48 0.663 0.705 1.086 0.508 3.429-1.439 5.954-4.882 6.18-8.607-2.582 0-5.164 0-7.746 0-0.593 0.056-1.143-0.466-1.115-1.058-0.028-3.386-0.028-6.772-0.014-10.145zM18.921 7.577c-0.042 1.016 0 2.032-0.014 3.048 1.919 0 3.838 0.014 5.771-0.014-1.044-1.623-2.526-2.977-4.289-3.795-0.578-0.296-1.411 0.071-1.467 0.762zM18.907 12.176c0.014 0.762-0.028 1.538 0.028 2.314 0.056 0.48 0.508 0.804 0.988 0.748 2.088 0.014 4.176 0 6.265 0.014-0.071-1.058-0.31-2.088-0.72-3.062-2.187-0.028-4.374-0.014-6.561-0.014z"></path>
</svg>
