<!-- Generated by IcoMoon.io -->
<svg version="1.1" xmlns="http://www.w3.org/2000/svg" width="32" height="32" viewBox="0 0 32 32">
<title>GATEIO</title>
<path d="M12.515 15.774l-0.282-0.282c-0.212-0.212-0.564-0.056-0.564 0.24v3.979c0 0.183 0.141 0.339 0.325 0.339h3.979c0.296 0 0.437-0.353 0.24-0.578-0.127-0.127-0.127-0.339 0-0.466l4.219-4.247c0.127-0.127 0.127-0.339 0-0.48l-0.381-0.381c-0.212-0.212-0.056-0.564 0.24-0.564h3.979c0.183 0 0.339 0.141 0.339 0.325v3.979c0 0.296-0.353 0.437-0.578 0.24l-0.268-0.268c-0.127-0.141-0.339-0.141-0.466 0l-7.139 7.125c-0.127 0.127-0.339 0.127-0.48 0l-8.72-8.72c-0.127-0.127-0.127-0.339 0-0.48l12.092-12.063c0.127-0.127 0.127-0.339 0-0.48l-2.836-2.836c-0.127-0.127-0.339-0.127-0.48 0l-15.633 15.633c-0.127 0.127-0.127 0.339 0 0.48l15.633 15.633c0.127 0.127 0.339 0.127 0.48 0l15.633-15.633c0.127-0.127 0.127-0.339 0-0.466l-9.199-9.199c-0.127-0.127-0.339-0.127-0.466 0l-9.185 9.171c-0.141 0.127-0.353 0.127-0.48 0v0z"></path>
</svg>
