<!-- Generated by IcoMoon.io -->
<svg version="1.1" xmlns="http://www.w3.org/2000/svg" width="32" height="32" viewBox="0 0 32 32">
<title>GBP</title>
<path d="M16 32c-8.819 0-16-7.181-16-16s7.181-16 16-16 16 7.181 16 16-7.181 16-16 16v0zM16 1.562c-7.962 0-14.438 6.477-14.438 14.438s6.477 14.438 14.438 14.438 14.438-6.477 14.438-14.438-6.477-14.438-14.438-14.438v0z"></path>
<path d="M22.477 21.888v0l-0.128 0.026c-0.077 0.013-0.128 0.026-0.179 0.051l-0.051 0.026c-0.883 0.448-1.83 0.678-2.765 0.678-0.166 0-0.499-0.051-0.96-0.141-0.461-0.077-0.973-0.166-1.51-0.269s-1.062-0.192-1.587-0.282c-0.525-0.090-0.922-0.128-1.242-0.128-0.218 0-0.435 0.013-0.653 0.026l-0.934 0.090 0.64-0.691c0.064-0.064 0.128-0.141 0.179-0.205 0.282-0.333 0.525-0.691 0.704-1.050s0.307-0.755 0.397-1.19c0.077-0.422 0.115-0.909 0.115-1.434 0-0.243-0.026-0.474-0.090-0.704l-0.102-0.435 3.558-0.013c0.064 0 0.115-0.026 0.166-0.038 0.397-0.128 0.653-0.474 0.653-0.87 0-0.435-0.32-0.819-0.755-0.896-0.026-0.013-0.064-0.013-0.090-0.013v0c-0.013 0-0.026 0-0.026 0h-3.955l-0.077-0.256c-0.41-1.318-0.614-2.419-0.614-3.302 0-0.422 0.077-0.845 0.243-1.229 0.154-0.384 0.371-0.73 0.653-1.024 0.269-0.294 0.614-0.525 1.011-0.691s0.832-0.256 1.318-0.256c1.971 0 3.021 0.934 3.187 2.867 0 0.013 0 0.026 0.013 0.038l0.013 0.090v0.013c0 0.038 0.013 0.102 0.038 0.166 0.090 0.614 0.589 1.050 1.19 1.050 0.614 0 1.126-0.474 1.19-1.075v0l0.013-0.166c0 0 0-0.026 0-0.038v-0.026c-0.064-0.768-0.256-1.459-0.55-2.048s-0.678-1.088-1.152-1.485c-0.474-0.397-1.050-0.704-1.702-0.909s-1.382-0.307-2.163-0.307c-0.845 0-1.626 0.128-2.317 0.358-0.691 0.243-1.306 0.589-1.805 1.037s-0.896 0.998-1.165 1.651c-0.307 0.704-0.448 1.446-0.448 2.253 0 0.384 0.051 0.845 0.154 1.382 0.077 0.435 0.205 0.922 0.358 1.472l0.128 0.461h-2.022c-0.461 0.038-0.832 0.435-0.832 0.909s0.358 0.858 0.819 0.909l0.090 0.013h2.47l0.064 0.282c0.090 0.435 0.141 0.87 0.141 1.318 0 0.64-0.064 1.229-0.179 1.728s-0.294 0.934-0.525 1.318c-0.23 0.384-0.512 0.717-0.832 0.998-0.333 0.282-0.704 0.538-1.126 0.755-0.678 0.23-1.434 0.627-1.306 1.344 0.102 0.589 0.666 1.011 1.254 0.934 0.013 0 0.013 0 0.038-0.013 1.651-0.755 3.162-1.139 4.467-1.139 0.166 0 0.41 0.026 0.704 0.090 0.294 0.051 0.627 0.128 0.986 0.205s0.73 0.166 1.101 0.269c0.384 0.102 0.742 0.192 1.101 0.269s0.678 0.154 0.96 0.218c0.294 0.064 0.525 0.090 0.691 0.090h0.051c1.331 0 2.739-0.55 2.803-0.576 0.128-0.051 0.525-0.205 0.525-0.205 0.627-0.141 1.024-0.755 0.883-1.37-0.115-0.576-0.666-0.973-1.229-0.909z"></path>
</svg>
