<!-- Generated by IcoMoon.io -->
<svg version="1.1" xmlns="http://www.w3.org/2000/svg" width="32" height="32" viewBox="0 0 32 32">
<title>GEMZ</title>
<path d="M8.658 15.047h14.558l-7.222-10.61zM15.96 29.261l7.335-13.224h-14.741zM15.395 3.564h-6.077c0 0.015 0.002 0.030 0 0.046l-0.938 10.099 7.014-10.144zM16.594 3.564l6.892 10.124-0.91-10.080c-0.001-0.015 0.001-0.030 0.001-0.044h-5.983zM24.468 15.979l-7.202 12.993 14.424-14.54zM7.275 14.94l1.056-11.376h-0.616l-7.728 9.789zM0.283 14.429l14.384 14.538-7.276-12.99zM24.592 14.942l7.409-1.586-7.851-9.791h-0.585z"></path>
</svg>
