<!-- Generated by IcoMoon.io -->
<svg version="1.1" xmlns="http://www.w3.org/2000/svg" width="32" height="32" viewBox="0 0 32 32">
<title>GENERIC_ASSET</title>
<path d="M0.028 15.012c0.085-0.578 0.141-1.157 0.24-1.721 1.129-6.448 5.996-11.527 12.36-12.896 7.972-1.721 15.944 2.808 18.54 10.511 3.062 9.072-2.526 18.808-11.908 20.755-0.649 0.141-1.312 0.183-1.975 0.282-0.085 0.014-0.183 0.042-0.268 0.056-0.663 0-1.326 0-2.004 0-0.085-0.014-0.155-0.042-0.24-0.056-0.832-0.127-1.679-0.212-2.483-0.395-6.152-1.425-10.991-6.561-12.021-12.783-0.099-0.578-0.169-1.171-0.24-1.75 0-0.663 0-1.34 0-2.004zM16.014 1.101c-8.212-0.014-14.914 6.674-14.928 14.899-0.014 8.198 6.66 14.899 14.885 14.928 8.212 0.028 14.942-6.688 14.942-14.914 0.014-8.212-6.674-14.914-14.899-14.914z"></path>
<path d="M16.028 4.021c6.617 0.014 11.979 5.404 11.965 12.007-0.014 6.617-5.404 11.979-12.007 11.965-6.617-0.014-11.979-5.404-11.965-12.007 0.014-6.617 5.39-11.979 12.007-11.965zM5.079 16.014c0 6.011 4.91 10.921 10.935 10.921 6.011 0 10.921-4.924 10.921-10.935s-4.91-10.921-10.935-10.921c-6.025 0.014-10.921 4.924-10.921 10.935z"></path>
<path d="M15.478 19.4c0.056-0.451 0.099-0.903 0.198-1.34 0.198-0.861 0.72-1.51 1.453-1.989 0.282-0.183 0.564-0.367 0.875-0.536 1.044-0.564 1.538-1.467 1.707-2.61 0.127-0.818-0.113-1.538-0.649-2.145-1.369-1.552-4.049-1.947-5.728-0.24-0.649 0.663-0.974 1.467-1.002 2.384-0.014 0.296-0.169 0.494-0.409 0.536-0.325 0.042-0.578-0.183-0.578-0.508 0-0.945 0.282-1.82 0.847-2.568 1.101-1.453 2.582-2.074 4.388-1.905 1.171 0.113 2.187 0.593 3.019 1.425 1.115 1.129 1.397 2.455 0.903 3.965-0.353 1.086-1.044 1.891-1.989 2.483-0.268 0.169-0.536 0.339-0.804 0.508-0.776 0.48-1.115 1.185-1.157 2.060-0.014 0.339 0 0.663 0 1.002 0 0.325-0.169 0.55-0.466 0.564s-0.494-0.183-0.522-0.508c-0.014-0.099-0.014-0.212-0.028-0.31 0-0.099 0-0.183 0-0.282-0.028 0.014-0.042 0.014-0.056 0.014z"></path>
<path d="M16.028 21.404c0.536 0 0.988 0.451 0.988 0.988s-0.466 0.988-1.002 0.988c-0.536 0-0.974-0.451-0.974-0.988s0.437-0.988 0.988-0.988z"></path>
</svg>
