<!-- Generated by IcoMoon.io -->
<svg version="1.1" xmlns="http://www.w3.org/2000/svg" width="32" height="32" viewBox="0 0 32 32">
<title>GENERIC_PLATFORM</title>
<path d="M23.591 26.469c-0.48 0-0.931 0-1.369 0-0.113 0-0.226 0-0.325 0-0.466 0-0.663-0.198-0.663-0.663 0-0.536 0-1.086 0-1.623 0-0.127 0-0.268 0-0.466-2.272 1.101-4.557 1.27-6.942 0.451 0 0.141 0 0.254 0 0.367 0 1.058 0 2.116 0 3.175 0 0.522-0.169 0.691-0.691 0.691-1.369 0-2.737 0-4.106 0-0.198 0-0.339 0.056-0.48 0.212-0.409 0.48-1.072 0.607-1.623 0.339s-0.861-0.832-0.79-1.467c0.071-0.564 0.55-1.072 1.115-1.171 0.621-0.113 1.199 0.169 1.496 0.734 0.056 0.099 0.099 0.198 0.141 0.296 1.27 0 2.54 0 3.838 0 0.014-0.113 0.028-0.212 0.028-0.325 0-1.030 0-2.046 0-3.076 0-0.198-0.071-0.31-0.254-0.409-2.469-1.467-3.908-3.626-4.317-6.462-0.028-0.155-0.028-0.31-0.042-0.494-0.578 0-1.143 0-1.75 0 0 0.127 0 0.254 0 0.381 0 1.75 0 3.499 0 5.263 0 0.085 0 0.183 0 0.268-0.014 0.423-0.198 0.607-0.607 0.607-0.734 0-1.481 0.014-2.215 0-0.198 0-0.325 0.042-0.452 0.198-0.423 0.522-1.086 0.677-1.665 0.395-0.564-0.268-0.889-0.875-0.79-1.467 0.113-0.663 0.621-1.129 1.284-1.185 0.522-0.056 1.072 0.24 1.326 0.748 0.099 0.212 0.226 0.282 0.452 0.268 0.48-0.014 0.974 0 1.453 0 0.028 0 0.071-0.014 0.141-0.014 0-0.113 0.014-0.226 0.014-0.339 0-1.82 0-3.64 0-5.46 0-0.578 0.169-0.734 0.748-0.734 0.677 0 1.34 0 2.060 0 0.099-1.312 0.451-2.554 1.129-3.753-0.451 0-0.832 0-1.213 0-0.268 0-0.522 0-0.79 0-0.437-0.014-0.621-0.183-0.635-0.621-0.014-0.325 0-0.635 0-0.959 0-0.339 0-0.339-0.353-0.339-0.705 0-1.411 0-2.116 0-0.635 0-0.79-0.155-0.79-0.776 0-1.467 0-2.935 0-4.402 0-0.155 0-0.31 0-0.437-0.748-0.508-1.002-1.058-0.79-1.735 0.183-0.578 0.72-0.974 1.354-0.974 0.607 0 1.143 0.409 1.312 1.016 0.198 0.663-0.071 1.213-0.79 1.679 0 1.51 0 3.034 0 4.586 0.296 0 0.593 0 0.875 0 0.593 0 1.185 0 1.792 0 0.381 0 0.564 0.183 0.578 0.564 0.014 0.437 0 0.875 0 1.354 0.48 0 0.917 0 1.354 0 0.31 0 0.649 0.071 0.917-0.028 0.254-0.099 0.409-0.409 0.621-0.621 1.411-1.439 3.118-2.314 5.122-2.582 0.071-0.014 0.127-0.014 0.212-0.028 0-1.143 0-2.272 0-3.414-0.042-0.014-0.085-0.028-0.113-0.028-0.72 0-1.439 0-2.145-0.014-0.183 0-0.24 0.113-0.325 0.226-0.55 0.818-1.693 0.875-2.272 0.099-0.466-0.607-0.353-1.481 0.254-1.947 0.607-0.48 1.481-0.381 1.933 0.254 0.198 0.268 0.395 0.325 0.677 0.325 0.776-0.014 1.566-0.014 2.342 0 0.55 0 0.705 0.169 0.705 0.72 0 1.129 0 2.243 0 3.372 0 0.113 0 0.212 0 0.353 0.564 0.071 1.101 0.141 1.679 0.212 0-0.155 0-0.324 0-0.48 0-0.522 0-1.058 0-1.58 0-0.508 0.183-0.691 0.705-0.691 0.861 0 1.721 0 2.582 0 0.113 0 0.212 0 0.339 0 0.014-0.113 0.028-0.198 0.028-0.282 0-0.381 0-0.748 0-1.129 0.014-0.423-0.014-0.748-0.423-1.058-0.621-0.466-0.578-1.439 0-1.989s1.51-0.494 2.032 0.127c0.508 0.607 0.409 1.51-0.226 1.989-0.085 0.071-0.183 0.127-0.31 0.198 0 0.169 0 0.367 0 0.564 0 0.635 0 1.284 0 1.919 0 0.536-0.183 0.705-0.72 0.705-0.832 0-1.679 0-2.511 0-0.127 0-0.24 0-0.381 0-0.028 0.085-0.056 0.155-0.056 0.24 0 0.522 0 1.030 0 1.552 0 0.169 0.056 0.254 0.212 0.31 0.282 0.099 0.536 0.226 0.875 0.367 0-0.24 0-0.423 0-0.621 0-0.536 0.183-0.72 0.72-0.72 1.623 0 3.245 0 4.854 0 0.113 0 0.212-0.014 0.339-0.014 0-0.578 0-1.115 0-1.679-0.085-0.056-0.183-0.113-0.268-0.183-0.494-0.353-0.705-0.974-0.522-1.552s0.705-0.959 1.312-0.959c0.607 0 1.143 0.381 1.34 0.945 0.183 0.578 0 1.228-0.508 1.552-0.226 0.155-0.296 0.31-0.282 0.564 0.014 0.536 0 1.086 0 1.623 0 0.607-0.155 0.776-0.762 0.776-1.58 0-3.146 0-4.727 0-0.127 0-0.254 0-0.437 0 0 0.31-0.014 0.593 0 0.875 0 0.056 0.071 0.141 0.127 0.183 1.608 1.227 2.667 2.822 3.203 4.811 0.113 0 0.226 0 0.353 0 1.298 0 2.596 0 3.894 0 0.536 0 0.691 0.155 0.691 0.677 0 1.58 0 3.175 0 4.755 0 0.522-0.155 0.677-0.691 0.677-0.339 0-0.677 0-1.030 0-0.113 0-0.212 0.014-0.353 0.014 0 0.198 0 0.381 0 0.55 0 1.115 0 2.229 0 3.344 0 0.198 0.042 0.325 0.24 0.451 0.536 0.339 0.748 0.974 0.564 1.566-0.169 0.564-0.72 0.974-1.312 0.988-0.578 0.014-1.143-0.395-1.34-0.959-0.198-0.578-0.014-1.242 0.522-1.566 0.24-0.155 0.282-0.31 0.282-0.564-0.014-1.383 0-2.78 0-4.162 0-0.522 0.183-0.705 0.691-0.705 0.451 0 0.903 0 1.369 0 0-1.34 0-2.667 0-4.007-1.213 0-2.427 0-3.64 0 0 0.381 0 0.748 0 1.115-0.056 2.709-1.157 4.91-3.231 6.631-0.254 0.212-0.367 0.409-0.353 0.734 0.028 0.593 0.014 1.185 0.014 1.778 0 0.014 0.014 0.042 0.028 0.099 0.099 0 0.226 0.014 0.339 0.014 0.423 0 0.861 0 1.284 0 0.55 0 0.72 0.169 0.72 0.705 0 1.086 0 2.187 0 3.273 0.099 0.056 0.198 0.113 0.282 0.183 0.494 0.353 0.705 0.974 0.522 1.552s-0.705 0.974-1.312 0.974c-0.607 0-1.143-0.367-1.34-0.945-0.198-0.564-0.014-1.213 0.494-1.552 0.24-0.155 0.31-0.325 0.296-0.593-0.014-0.72 0-1.425 0-2.145-0.028-0.113-0.042-0.226-0.056-0.381zM17.227 23.619c4.176 0.014 7.591-3.358 7.591-7.534 0-4.459-3.668-7.647-7.619-7.619s-7.464 3.189-7.534 7.436c-0.099 4.332 3.443 7.746 7.563 7.718zM28.021 4.021c0-0.183-0.155-0.339-0.325-0.339-0.183 0-0.353 0.183-0.353 0.367 0.014 0.183 0.169 0.325 0.353 0.325 0.169-0.014 0.325-0.169 0.325-0.353zM12.938 3.457c0-0.169-0.169-0.325-0.353-0.325-0.198 0-0.353 0.169-0.339 0.367 0.014 0.169 0.183 0.325 0.367 0.31 0.169-0.014 0.325-0.183 0.325-0.353zM4.035 2.907c0 0.198 0.127 0.339 0.324 0.339s0.339-0.127 0.339-0.325c0-0.198-0.127-0.339-0.325-0.339-0.212 0-0.339 0.127-0.339 0.325zM28.289 25.566c0-0.183-0.155-0.325-0.339-0.325-0.198 0-0.339 0.169-0.325 0.367 0.014 0.183 0.169 0.325 0.353 0.31s0.31-0.155 0.31-0.353zM8.31 27.711c0-0.183-0.141-0.339-0.325-0.353s-0.353 0.155-0.353 0.353c0 0.183 0.155 0.325 0.339 0.325s0.339-0.141 0.339-0.325zM24.141 30.363c-0.183 0-0.339 0.141-0.339 0.325 0 0.198 0.155 0.353 0.353 0.339 0.183 0 0.339-0.155 0.325-0.339 0-0.169-0.155-0.325-0.339-0.325zM2.85 22.448c0-0.183-0.141-0.339-0.325-0.339-0.198 0-0.353 0.155-0.339 0.353 0 0.183 0.169 0.325 0.339 0.325 0.183 0 0.325-0.155 0.325-0.339zM23.266 1.072c-0.198 0-0.325 0.141-0.325 0.339s0.141 0.325 0.339 0.325c0.198 0 0.325-0.141 0.325-0.339s-0.141-0.339-0.339-0.325z"></path>
<path d="M24.169 16.071c0.028 3.683-3.090 6.843-6.773 6.899-3.753 0.056-7.041-2.892-7.083-6.857-0.042-3.922 3.104-6.885 6.702-6.998 3.781-0.113 7.139 2.907 7.153 6.956zM17.242 21.912c3.189 0.014 5.855-2.61 5.87-5.785 0.014-3.273-2.582-5.926-5.813-5.94-3.287-0.028-5.912 2.568-5.926 5.855-0.028 3.217 2.638 5.898 5.869 5.87z"></path>
</svg>
