<!-- Generated by IcoMoon.io -->
<svg version="1.1" xmlns="http://www.w3.org/2000/svg" width="32" height="32" viewBox="0 0 32 32">
<title>GENERIC_OTC</title>
<path d="M11.273 16.155c-0.085 0.607-0.127 1.256-0.282 1.891-0.578 2.413-2.215 3.81-4.698 3.965-0.776 0.056-1.594 0-2.37-0.169-1.792-0.395-2.977-1.51-3.527-3.259-0.522-1.623-0.536-3.259-0.056-4.91 0.649-2.229 2.286-3.556 4.713-3.697 0.776-0.042 1.594 0.028 2.356 0.212 2.116 0.508 3.203 2.018 3.626 4.064 0.127 0.607 0.155 1.242 0.24 1.905zM2.667 15.944c0.141 0.832 0.198 1.651 0.423 2.427 0.381 1.27 1.284 1.862 2.596 1.862 1.242-0.014 2.145-0.649 2.511-1.891 0.466-1.566 0.451-3.146-0.028-4.698-0.381-1.199-1.256-1.806-2.483-1.834-1.242-0.028-2.201 0.593-2.582 1.806-0.226 0.748-0.296 1.538-0.437 2.328z"></path>
<path d="M31.986 14.053c-0.832 0-1.623 0.028-2.399-0.028-0.127-0.014-0.31-0.325-0.353-0.522-0.183-0.832-0.621-1.397-1.467-1.594-1.143-0.254-1.919 0.169-2.37 1.34-0.494 1.284-0.564 2.638-0.367 3.993 0.085 0.607 0.254 1.227 0.494 1.806 0.367 0.875 1.072 1.27 1.877 1.171 1.016-0.127 1.623-0.607 1.806-1.58 0.085-0.466 0.282-0.593 0.72-0.578 0.663 0.028 1.34 0 2.088 0-0.071 1.453-0.522 2.61-1.764 3.273-1.651 0.889-3.4 1.002-5.164 0.325-1.171-0.451-1.919-1.355-2.342-2.511-0.748-2.046-0.762-4.12-0.028-6.152 0.818-2.258 2.836-3.358 5.39-2.977 0.663 0.099 1.34 0.282 1.933 0.564 1.355 0.663 1.891 1.877 1.947 3.471z"></path>
<path d="M18.116 12.162c0 0.423 0 0.705 0 0.988 0 2.653 0 5.305 0 7.958 0 0.762-0.014 0.776-0.762 0.79-0.381 0-0.776 0-1.157 0-0.691-0.014-0.72-0.028-0.72-0.748 0-2.695 0-5.404 0-8.099 0-0.24 0-0.48 0-0.832-0.339 0-0.621 0-0.903 0-0.621 0-1.256 0-1.877 0-0.141 0-0.339 0.042-0.423-0.042-0.494-0.409-0.183-0.974-0.254-1.467-0.042-0.31 0.113-0.508 0.451-0.508 0.198 0 0.381-0.014 0.578-0.014 2.511 0 5.009 0 7.52 0 1.002 0 1.016 0 1.002 0.988 0 0.31-0.028 0.621-0.042 1.002-1.115-0.014-2.187-0.014-3.414-0.014z"></path>
</svg>
