<!-- Generated by IcoMoon.io -->
<svg version="1.1" xmlns="http://www.w3.org/2000/svg" width="32" height="32" viewBox="0 0 32 32">
<title>GENISIS_TRADING</title>
<path d="M18.836 0c0.494 0.056 1.002 0.113 1.496 0.169 3.429 0.381 6.42 1.75 9.016 4.007 0.014 0.014 0.028 0.042 0.071 0.085-1.383 1.665-2.78 3.344-4.176 5.037-0.296-0.24-0.578-0.466-0.875-0.677-1.552-1.199-3.259-2.032-5.206-2.328-3.062-0.466-5.799 0.141-8.071 2.342-1.552 1.51-2.497 3.344-2.85 5.474-0.437 2.653-0.085 5.192 1.34 7.506 1.538 2.497 3.81 3.908 6.716 4.247 2.54 0.296 4.952-0.127 7.196-1.411 0.451-0.254 0.635-0.536 0.621-1.072-0.042-1.199-0.014-2.399-0.014-3.598 0 0 0 0 0 0 2.131 0 4.261 0 6.434 0 0 0.113 0 0.198 0 0.296 0 2.258 0 4.515 0 6.773 0 0.183-0.042 0.31-0.183 0.423-2.991 2.469-6.392 4.035-10.243 4.543-3.527 0.466-6.956 0.127-10.215-1.397-4.106-1.933-6.772-5.108-8.085-9.439-0.339-1.129-0.536-2.272-0.621-3.443 0-0.071-0.028-0.141-0.056-0.198 0-0.832 0-1.665 0-2.497 0.014-0.056 0.042-0.099 0.042-0.155 0.071-0.564 0.127-1.143 0.226-1.693 1.171-6.716 6.702-11.965 13.503-12.825 0.409-0.056 0.818-0.113 1.228-0.155 0.903-0.014 1.806-0.014 2.709-0.014z"></path>
<path d="M24.099 19.753c-0.832 0-1.665 0.014-2.483 0.014-1.27 0-2.526 0-3.795 0-0.099 0-0.198 0-0.325 0 0-2.145 0-4.275 0-6.42 2.201 0 4.388 0 6.589 0 0 0.056 0.014 0.113 0.014 0.155 0 2.032 0 4.078 0 6.109 0.014 0.056 0 0.099 0 0.141 0 0.014 0 0 0 0z"></path>
</svg>
