<?xml version="1.0" encoding="utf-8"?>
<!-- Generator: Adobe Illustrator 22.1.0, SVG Export Plug-In . SVG Version: 6.00 Build 0)  -->
<svg version="1.1" id="Layer_1" xmlns="http://www.w3.org/2000/svg" xmlns:xlink="http://www.w3.org/1999/xlink" x="0px" y="0px"
	 viewBox="0 0 226.8 226.8" style="enable-background:new 0 0 226.8 226.8;" xml:space="preserve">
<g>
	<path d="M198.3,151.5c-6.9,0-13.9,0-20.8,0c-2.2,0-3.2,0.6-3.7,3.1c-2.7,13-10.5,21.7-23.1,25.9c-4.1,1.4-4.1,1.3-4.1,5.7
		c0,4.1,0,8.2-0.2,12.3c-0.2,3.7-2.8,6.2-6.2,6.5c-3.3,0.3-6.5-1.8-7.4-5.3c-0.5-2-0.4-4.2-0.5-6.3c-0.1-2.7-0.1-5.3,0-8
		c0.1-2.4-0.7-3.5-3.2-3.4c-2.8,0.1-5.7,0.1-8.5,0c-2.4-0.1-3.3,0.8-3.3,3.3c0.1,8.7,0.1,17.4,0,26.2c0,1.5-0.2,3-0.7,4.4
		c-1.2,3.1-4.5,4.7-7.8,4.1c-3-0.6-5.3-3.1-5.4-6.4c-0.1-9.2-0.1-18.3-0.1-27.5c0-3.7-0.2-3.9-3.9-4c-2.8,0-5.7,0-8.5,0
		c-2,0-3,0.8-2.9,2.9c0,2.2,0,4.5-0.1,6.7c-0.2,4.6-3,7.6-7,7.5c-4.2-0.1-7-3.1-7.2-7.7c-0.1-2.1-0.2-4.3,0-6.4
		c0.2-2.4-0.8-3.6-3.1-4.2c-6.7-1.8-12.3-5.5-16.8-10.8c-3.7-4.3-6.1-9.2-7.1-14.7c-0.7-3.5-0.9-3.7-4.6-3.7c-8.5,0-17.1,0.1-25.6,0
		c-5.1-0.1-8.1-3.9-7.2-8.7c0.6-3.2,3-5.3,6.7-5.3c8.5-0.1,16.9,0,25.4,0c4.3,0,4.4,0,4.4-4.3c0-2.6-0.1-5.2,0-7.7
		c0.1-2.4-0.8-3.4-3.2-3.4c-4,0-8,0.2-12-0.2c-2-0.2-4.4-1.2-5.8-2.7c-3.4-3.8-1-10.1,4.2-10.9c4.1-0.6,8.3-0.4,12.5-0.4
		c4.3,0,4.3,0,4.3-4.3c0-2.3,0-4.6,0-6.9c0-3.7-0.1-3.8-4-3.8c-11,0-21.9,0-32.9,0c-1.6,0-3.2-0.2-4.6-0.8c-2.9-1.2-4.6-4.5-4-7.1
		c0.7-3.7,3.2-5.9,6.8-6c11.7-0.1,23.3,0,35-0.1c3.8,0,3.9-0.2,4.7-3.9c2.8-12.5,10.3-20.8,22.4-25c4.5-1.6,4.6-1.4,4.6-6.3
		c0-4,0-8,0.3-12c0.2-2.9,1.8-5.1,4.6-5.9c2.6-0.8,5.2-0.6,7.1,1.6c0.9,1.1,1.8,2.6,1.9,4c0.3,4.4,0.4,8.9,0.4,13.3
		c0,2.5,0.8,3.6,3.4,3.5c2.9-0.1,5.9-0.1,8.8,0c2.5,0.1,3.2-0.9,3.2-3.3c-0.1-10.8-0.1-21.5,0-32.3c0-4.7,3.1-7.6,7.6-7.2
		c3.8,0.3,6.4,3.2,6.4,7.5c0.1,9.3,0,18.5,0,27.8c0,7.5,0,7.5,7.5,7.5c8.6-0.1,7.4,1.2,7.5-7.5c0-2.7-0.1-5.3,0.1-8
		c0.2-3.4,2.3-6.1,5-6.9c3.2-0.9,6.1,0,7.9,2.8c0.6,0.8,1,1.9,1,2.9c0.2,4.7,0.3,9.4,0.3,14.1c0,2.1,0.6,3.2,2.8,3.8
		c10.9,3,18.5,9.9,22.9,20.3c0.8,2,1.5,4.1,1.7,6.1c0.2,2.5,1.4,3.1,3.6,3.1c9.9-0.1,19.8,0,29.6,0c2.7,0,4.8,1.1,6.2,3.4
		c2.9,5-0.7,10.6-6.8,10.6c-8.4,0.1-16.7,0-25.1,0c-6.7,0-6.7,0-6.7,6.8c0,1.7,0,3.4-0.1,5.1c-0.2,2.2,0.6,3.3,3,3.2
		c3.4-0.1,6.8,0,10.1,0c0.8,0,1.6,0,2.4,0.1c4.1,0.5,7.1,3.6,7,7.2c-0.1,3.7-3,6.6-7.1,6.9c-3.8,0.2-7.7,0.1-11.5,0.2
		c-3.8,0-4,0.2-3.9,3.9c0,2.5-0.1,5-0.1,7.5c0,3.8,0.2,4,3.9,4c13.5,0,27.1,0,40.6,0c3.9,0,6.2,1.4,7.2,4.3c1.8,4.9-1.5,9.7-6.9,9.7
		C212.4,151.5,205.4,151.5,198.3,151.5z M57.3,115c0,10.9,0,21.7,0,32.6c0,2,0,4.2,0.5,6.1c2.9,10.5,11.6,16.9,22.5,16.9
		c19.7,0,39.3,0,59,0c2.6,0,5.3-0.4,7.9-1c9-2.4,15.9-11.2,15.9-20.5c0.1-22.6,0-45.2,0-67.8c0-12.1-10.7-21.8-21.6-21.7
		c-20.9,0.1-41.8,0-62.7,0c-1.6,0-3.3,0-4.8,0.4C64,62.9,57,71.2,57.2,82.2C57.5,93.1,57.3,104.1,57.3,115z"/>
	<path d="M141.9,115.3c0,9.6,0,19.2,0,28.8c0,6.6-3.6,10.4-10.2,10.4c-16.4,0.1-32.8,0.1-49.1,0c-2.7,0-2.9-0.4-2-3
		c1-3.2,2.3-6.4,3.1-9.7c0.7-2.9,2.3-3.5,5-3.5c11.3,0.1,22.6,0.1,33.9,0.1c1.4,0,3,0.3,3.2-1.9c0.2-2.2-0.5-3.3-2.9-3.2
		c-11,0.1-22.1,0.1-33.1-0.1c-2.1,0-4.3-0.3-6.2-1c-3.1-1.2-4.7-3.7-4.8-7.1c-0.1-13.8-0.1-27.6,0-41.4c0-4.8,3.5-8.3,8.3-8.3
		c15.2-0.1,30.4-0.2,45.7-0.1c5.6,0,9,3.7,9.2,9.7c0.2,5.8,0.1,11.6,0.1,17.4C141.9,106.8,141.9,111,141.9,115.3z M110.3,117.3
		C110.3,117.3,110.3,117.3,110.3,117.3c4.2,0,8.4-0.1,12.5,0c2,0,3-0.6,2.9-2.7c-0.1-6.8-0.1-13.5,0-20.3c0-1.9-0.7-2.7-2.7-2.7
		c-8.5,0-17.1,0-25.6,0c-2.1,0-2.8,0.9-2.8,2.9c0.1,6.7,0,13.3,0,20c0,2.1,0.8,2.9,2.9,2.9C101.8,117.3,106,117.3,110.3,117.3z"/>
</g>
</svg>
