<!-- Generated by IcoMoon.io -->
<svg version="1.1" xmlns="http://www.w3.org/2000/svg" width="32" height="32" viewBox="0 0 32 32">
<title>GIN</title>
<path d="M27.979 21.376c-0.974 0-1.961 0-2.935 0-0.31 0-0.451 0.085-0.522 0.437-0.381 1.834-1.481 3.062-3.259 3.654-0.578 0.198-0.578 0.183-0.578 0.804 0 0.578 0 1.157-0.028 1.735-0.028 0.522-0.395 0.875-0.875 0.917-0.466 0.042-0.917-0.254-1.044-0.748-0.071-0.282-0.056-0.593-0.071-0.889-0.014-0.381-0.014-0.748 0-1.129 0.014-0.339-0.099-0.494-0.451-0.48-0.395 0.014-0.804 0.014-1.199 0-0.339-0.014-0.466 0.113-0.466 0.466 0.014 1.227 0.014 2.455 0 3.697 0 0.212-0.028 0.423-0.099 0.621-0.169 0.437-0.635 0.663-1.101 0.578-0.423-0.085-0.748-0.437-0.762-0.903-0.014-1.298-0.014-2.582-0.014-3.88 0-0.522-0.028-0.55-0.55-0.564-0.395 0-0.804 0-1.199 0-0.282 0-0.423 0.113-0.409 0.409 0 0.31 0 0.635-0.014 0.945-0.028 0.649-0.423 1.072-0.988 1.058-0.593-0.014-0.988-0.437-1.016-1.086-0.014-0.296-0.028-0.607 0-0.903 0.028-0.339-0.113-0.508-0.437-0.593-0.945-0.254-1.735-0.776-2.37-1.524-0.522-0.607-0.861-1.298-1.002-2.074-0.099-0.494-0.127-0.522-0.649-0.522-1.199 0-2.413 0.014-3.612 0-0.72-0.014-1.143-0.55-1.016-1.227 0.085-0.451 0.423-0.748 0.945-0.748 1.199-0.014 2.384 0 3.584 0 0.607 0 0.621 0 0.621-0.607 0-0.367-0.014-0.734 0-1.086 0.014-0.339-0.113-0.48-0.452-0.48-0.564 0-1.129 0.028-1.693-0.028-0.282-0.028-0.621-0.169-0.818-0.381-0.48-0.536-0.141-1.425 0.593-1.538 0.578-0.085 1.171-0.056 1.764-0.056 0.607 0 0.607 0 0.607-0.607 0-0.325 0-0.649 0-0.974 0-0.522-0.014-0.536-0.564-0.536-1.552 0-3.090 0-4.642 0-0.226 0-0.452-0.028-0.649-0.113-0.409-0.169-0.649-0.635-0.564-1.002 0.099-0.522 0.452-0.832 0.959-0.847 1.651-0.014 3.287 0 4.938-0.014 0.536 0 0.55-0.028 0.663-0.55 0.395-1.764 1.453-2.935 3.16-3.527 0.635-0.226 0.649-0.198 0.649-0.889 0-0.564 0-1.129 0.042-1.693 0.028-0.409 0.254-0.72 0.649-0.832 0.367-0.113 0.734-0.085 1.002 0.226 0.127 0.155 0.254 0.367 0.268 0.564 0.042 0.621 0.056 1.256 0.056 1.877 0 0.353 0.113 0.508 0.48 0.494 0.409-0.014 0.832-0.014 1.242 0 0.353 0.014 0.451-0.127 0.451-0.466-0.014-1.524-0.014-3.034 0-4.557 0-0.663 0.437-1.072 1.072-1.016 0.536 0.042 0.903 0.452 0.903 1.058 0.014 1.312 0 2.61 0 3.922 0 1.058 0 1.058 1.058 1.058 1.213-0.014 1.044 0.169 1.058-1.058 0-0.381-0.014-0.748 0.014-1.129 0.028-0.48 0.325-0.861 0.705-0.974 0.451-0.127 0.861 0 1.115 0.395 0.085 0.113 0.141 0.268 0.141 0.409 0.028 0.663 0.042 1.326 0.042 1.989 0 0.296 0.085 0.452 0.395 0.536 1.538 0.423 2.61 1.397 3.231 2.864 0.113 0.282 0.212 0.578 0.24 0.861 0.028 0.353 0.198 0.437 0.508 0.437 1.397-0.014 2.794 0 4.176 0 0.381 0 0.677 0.155 0.875 0.48 0.409 0.705-0.099 1.496-0.959 1.496-1.185 0.014-2.356 0-3.541 0-0.945 0-0.945 0-0.945 0.959 0 0.24 0 0.48-0.014 0.72-0.028 0.31 0.085 0.466 0.423 0.451 0.48-0.014 0.959 0 1.425 0 0.113 0 0.226 0 0.339 0.014 0.578 0.071 1.002 0.508 0.988 1.016-0.014 0.522-0.423 0.931-1.002 0.974-0.536 0.028-1.086 0.014-1.623 0.028-0.536 0-0.564 0.028-0.55 0.55 0 0.353-0.014 0.705-0.014 1.058 0 0.536 0.028 0.564 0.55 0.564 1.905 0 3.824 0 5.728 0 0.55 0 0.875 0.198 1.016 0.607 0.254 0.691-0.212 1.369-0.974 1.369-1.016-0.071-2.004-0.071-3.005-0.071zM8.085 16.226c0 1.538 0 3.062 0 4.6 0 0.282 0 0.593 0.071 0.861 0.409 1.481 1.637 2.384 3.175 2.384 2.78 0 5.545 0 8.325 0 0.367 0 0.748-0.056 1.115-0.141 1.27-0.339 2.243-1.58 2.243-2.892 0.014-3.189 0-6.377 0-9.566 0-1.707-1.51-3.076-3.048-3.062-2.949 0.014-5.898 0-8.847 0-0.226 0-0.466 0-0.677 0.056-1.411 0.409-2.399 1.58-2.37 3.132 0.042 1.538 0.014 3.090 0.014 4.628z"></path>
<path d="M20.021 16.268c0 1.355 0 2.709 0 4.064 0 0.931-0.508 1.467-1.439 1.467-2.314 0.014-4.628 0.014-6.928 0-0.381 0-0.409-0.056-0.282-0.423 0.141-0.451 0.325-0.903 0.437-1.369 0.099-0.409 0.325-0.494 0.705-0.494 1.594 0.014 3.189 0.014 4.783 0.014 0.198 0 0.423 0.042 0.451-0.268s-0.071-0.466-0.409-0.451c-1.552 0.014-3.118 0.014-4.67-0.014-0.296 0-0.607-0.042-0.875-0.141-0.437-0.169-0.663-0.522-0.677-1.002-0.014-1.947-0.014-3.894 0-5.841 0-0.677 0.494-1.171 1.171-1.171 2.145-0.014 4.289-0.028 6.448-0.014 0.79 0 1.27 0.522 1.298 1.369 0.028 0.818 0.014 1.637 0.014 2.455-0.028 0.621-0.028 1.213-0.028 1.82zM15.563 16.55c0 0 0 0 0 0 0.593 0 1.185-0.014 1.764 0 0.282 0 0.423-0.085 0.409-0.381-0.014-0.959-0.014-1.905 0-2.864 0-0.268-0.099-0.381-0.381-0.381-1.199 0-2.413 0-3.612 0-0.296 0-0.395 0.127-0.395 0.409 0.014 0.945 0 1.877 0 2.822 0 0.296 0.113 0.409 0.409 0.409 0.607-0.014 1.199-0.014 1.806-0.014z"></path>
</svg>
