<!-- Generated by IcoMoon.io -->
<svg version="1.1" xmlns="http://www.w3.org/2000/svg" width="32" height="32" viewBox="0 0 32 32">
<title>GLOBITEX</title>
<path d="M15.901 32c-1.467-1.538-2.935-3.090-4.332-4.543 3.457-3.527 6.998-7.139 10.554-10.751 1.467 1.552 2.949 3.118 4.374 4.628-3.4 3.414-6.97 7.012-10.596 10.667z"></path>
<path d="M15.901 0c1.552 1.566 3.062 3.076 4.487 4.515-3.527 3.598-7.069 7.224-10.568 10.808-1.552-1.58-3.062-3.104-4.444-4.529 3.443-3.541 6.984-7.168 10.526-10.794z"></path>
<path d="M27.358 20.557c-3.556-3.612-7.083-7.21-10.568-10.751 1.425-1.425 2.949-2.949 4.473-4.473 3.485 3.541 7.055 7.153 10.582 10.737-1.397 1.397-2.907 2.907-4.487 4.487z"></path>
<path d="M0.141 15.915c1.34-1.425 2.808-2.963 4.275-4.529 3.626 3.683 7.196 7.28 10.723 10.864-1.411 1.439-2.892 2.963-4.43 4.529-3.541-3.64-7.083-7.266-10.568-10.864z"></path>
</svg>
