<?xml version="1.0" encoding="utf-8"?>
<!-- Generator: Adobe Illustrator 22.0.1, SVG Export Plug-In . SVG Version: 6.00 Build 0)  -->
<svg version="1.1" id="Layer_1" xmlns="http://www.w3.org/2000/svg" xmlns:xlink="http://www.w3.org/1999/xlink" x="0px" y="0px"
	 viewBox="0 0 226.8 226.8" style="enable-background:new 0 0 226.8 226.8;" xml:space="preserve">
<style type="text/css">
	.st0{stroke:#FFFFFF;stroke-miterlimit:10;}
</style>
<g>
	<path class="st0" d="M206.2,56.7l-8.3,8.3c6.6,10.4,8.7,23.5,4.2,36c-7.6,21.2-31.1,32.4-52.5,24.8c-3-1.1-5.9-2.5-8.3-4.2
		l-26.7,26.7L91.1,125c-10.8,7.2-24.7,9.3-37.7,4.7c-22-8-33.4-32-25.4-53.9c1.1-3.4,2.8-6.5,4.7-9.3l-10-10l-1.9,3.2
		C10.3,76.8,4.6,96.5,4.6,116.8c-0.2,60.5,49.1,110,109.6,110h0.2c60.5,0,109.6-49.1,109.8-109.6c0-20.1-5.5-39.8-15.9-57.1
		L206.2,56.7"/>
	<path class="st0" d="M45,78.9c-2.8,3.8-4.5,8.5-4.5,13.7c0,12.3,10,22.4,22.4,22.4c5.1,0,9.9-1.7,13.7-4.7L45,78.9"/>
	<path class="st0" d="M154.8,108.3c3.6,2.5,7.8,3.8,12.5,3.8c12.3,0,22.4-10,22.4-22.4c0-4.5-1.3-8.9-3.8-12.5L154.8,108.3"/>
	<path class="st0" d="M114.8,131.8l-90.6-91l3.6-3.8C50.1,13.3,80.6,0,113.4,0h0.2c33.2,0,65,14.2,87.2,38.9l3.4,3.8L114.8,131.8
		 M38.9,40.8l75.9,76l74.9-74.5c-20.1-20.1-47.4-31.7-75.9-31.7h-0.2C85.4,10.6,59,21.2,38.9,40.8"/>
</g>
</svg>
