<!-- Generated by IcoMoon.io -->
<svg version="1.1" xmlns="http://www.w3.org/2000/svg" width="32" height="32" viewBox="0 0 32 32">
<title>GNO</title>
<path d="M29.093 8l-1.171 1.171c0.931 1.467 1.227 3.316 0.593 5.079-1.072 2.991-4.388 4.571-7.407 3.499-0.423-0.155-0.832-0.353-1.171-0.593l-3.767 3.767-3.316-3.287c-1.524 1.016-3.485 1.312-5.319 0.663-3.104-1.129-4.713-4.515-3.584-7.605 0.155-0.48 0.395-0.917 0.663-1.312l-1.411-1.411-0.268 0.452c-1.481 2.413-2.286 5.192-2.286 8.056-0.028 8.536 6.928 15.52 15.464 15.52h0.028c8.536 0 15.464-6.928 15.492-15.464 0-2.836-0.776-5.616-2.243-8.056l-0.296-0.48"></path>
<path d="M6.349 11.132c-0.395 0.536-0.635 1.199-0.635 1.933 0 1.735 1.411 3.161 3.161 3.161 0.72 0 1.397-0.24 1.933-0.663l-4.459-4.43"></path>
<path d="M21.841 15.28c0.508 0.353 1.101 0.536 1.764 0.536 1.735 0 3.16-1.411 3.16-3.16 0-0.635-0.183-1.256-0.536-1.764l-4.388 4.388"></path>
<path d="M16.198 18.596l-12.783-12.839 0.508-0.536c3.146-3.344 7.45-5.22 12.078-5.22h0.028c4.684 0 9.171 2.004 12.303 5.489l0.48 0.536-12.614 12.571M5.489 5.757l10.709 10.723 10.568-10.511c-2.836-2.836-6.688-4.473-10.709-4.473h-0.028c-3.979 0-7.704 1.496-10.54 4.261"></path>
</svg>
