<!-- Generated by IcoMoon.io -->
<svg version="1.1" xmlns="http://www.w3.org/2000/svg" width="32" height="32" viewBox="0 0 32 32">
<title>GNX</title>
<path d="M29.338 11.418c-0.064 0.448-0.371 0.717-0.704 0.986-1.446 1.165-2.893 2.33-4.339 3.507-0.115 0.090-0.23 0.205-0.346 0.32 0.282 0.166 0.55 0.333 0.819 0.486 1.28 0.755 2.547 1.523 3.827 2.266 0.512 0.307 0.717 0.73 0.704 1.318-0.026 1.254-0.013 2.509-0.026 3.763 0 0.051 0 0.102 0 0.192-4.237-2.765-8.448-5.504-12.685-8.256 2.611-1.907 5.222-3.789 7.846-5.696-0.422-0.269-0.832-0.525-1.242-0.794-2.074-1.318-4.147-2.65-6.221-3.968-0.307-0.205-0.589-0.192-0.896 0-2.419 1.536-4.851 3.059-7.27 4.595-0.461 0.294-0.858 0.294-1.318 0.013-1.114-0.691-2.266-1.331-3.392-1.984-0.051-0.026-0.090-0.051-0.154-0.102 0.205-0.128 0.397-0.256 0.589-0.384 3.994-2.522 7.987-5.043 11.981-7.578 0.038-0.026 0.077-0.051 0.102-0.077 0.013 0 0.026 0 0.026 0 0.026 0.026 0.051 0.051 0.077 0.064 4.019 2.573 8.026 5.158 12.032 7.731 0.282 0.179 0.525 0.384 0.589 0.73 0 0.115 0 0.23 0 0.333-0.013 0.026-0.026 0.051-0.026 0.090 0 0.576-0.013 1.165 0 1.741 0 0.166 0.026 0.346 0.026 0.512 0 0.064 0 0.128 0 0.192z"></path>
<path d="M3.866 18.854c0.013-0.051 0.026-0.102 0.026-0.166 0-1.69 0-3.392 0-5.082 0-0.717 0-1.434 0.013-2.15 0-0.154 0.026-0.294 0.038-0.461 0.064 0.026 0.102 0.051 0.154 0.077 0.704 0.41 1.408 0.819 2.112 1.216 0.192 0.102 0.384 0.179 0.576 0.269 0.755 0.358 1.114 0.973 1.101 1.792 0 0.525-0.038 1.037-0.038 1.562 0 1.574 0 3.136 0.013 4.71 0 0.358 0.141 0.602 0.435 0.806 2.598 1.715 5.21 3.418 7.808 5.146 0.333 0.218 0.614 0.23 0.96 0.026 1.754-1.050 3.52-2.086 5.274-3.136 0.32-0.192 0.602-0.205 0.934 0 1.139 0.73 2.304 1.434 3.456 2.15 0.026 0.013 0.051 0.038 0.090 0.064-3.379 2.125-6.746 4.237-10.112 6.349-0.090 0-0.179 0-0.282 0-0.115-0.064-0.23-0.115-0.333-0.192-3.93-2.496-7.859-4.992-11.789-7.501-0.192-0.128-0.358-0.269-0.448-0.486 0.013-1.651 0.013-3.328 0.013-4.992z"></path>
</svg>
