<?xml version="1.0" encoding="utf-8"?>
<!-- Generator: Adobe Illustrator 22.1.0, SVG Export Plug-In . SVG Version: 6.00 Build 0)  -->
<svg version="1.1" id="Layer_1" xmlns="http://www.w3.org/2000/svg" xmlns:xlink="http://www.w3.org/1999/xlink" x="0px" y="0px"
	 viewBox="0 0 250 250" style="enable-background:new 0 0 250 250;" xml:space="preserve">
<g>
	<path d="M229.2,89.2c-0.5,3.5-2.9,5.6-5.5,7.7c-11.3,9.1-22.6,18.2-33.9,27.4c-0.9,0.7-1.8,1.6-2.7,2.5c2.2,1.3,4.3,2.6,6.4,3.8
		c10,5.9,19.9,11.9,29.9,17.7c4,2.4,5.6,5.7,5.5,10.3c-0.2,9.8-0.1,19.6-0.2,29.4c0,0.4,0,0.8,0,1.5c-33.1-21.6-66-43-99.1-64.5
		c20.4-14.9,40.8-29.6,61.3-44.5c-3.3-2.1-6.5-4.1-9.7-6.2c-16.2-10.3-32.4-20.7-48.6-31c-2.4-1.6-4.6-1.5-7,0
		c-18.9,12-37.9,23.9-56.8,35.9c-3.6,2.3-6.7,2.3-10.3,0.1C49.8,73.9,40.8,68.9,32,63.8c-0.4-0.2-0.7-0.4-1.2-0.8c1.6-1,3.1-2,4.6-3
		C66.6,40.3,97.8,20.6,129,0.8c0.3-0.2,0.6-0.4,0.8-0.6c0.1,0,0.2,0,0.2,0c0.2,0.2,0.4,0.4,0.6,0.5c31.4,20.1,62.7,40.3,94,60.4
		c2.2,1.4,4.1,3,4.6,5.7c0,0.9,0,1.8,0,2.6c-0.1,0.2-0.2,0.4-0.2,0.7c0,4.5-0.1,9.1,0,13.6c0,1.3,0.2,2.7,0.2,4
		C229.2,88.2,229.2,88.7,229.2,89.2z"/>
	<path d="M30.2,147.3c0.1-0.4,0.2-0.8,0.2-1.3c0-13.2,0-26.5,0-39.7c0-5.6,0-11.2,0.1-16.8c0-1.2,0.2-2.3,0.3-3.6
		c0.5,0.2,0.8,0.4,1.2,0.6c5.5,3.2,11,6.4,16.5,9.5c1.5,0.8,3,1.4,4.5,2.1c5.9,2.8,8.7,7.6,8.6,14c0,4.1-0.3,8.1-0.3,12.2
		c0,12.3,0,24.5,0.1,36.8c0,2.8,1.1,4.7,3.4,6.3c20.3,13.4,40.7,26.7,61,40.2c2.6,1.7,4.8,1.8,7.5,0.2c13.7-8.2,27.5-16.3,41.2-24.5
		c2.5-1.5,4.7-1.6,7.3,0c8.9,5.7,18,11.2,27,16.8c0.2,0.1,0.4,0.3,0.7,0.5c-26.4,16.6-52.7,33.1-79,49.6c-0.7,0-1.4,0-2.2,0
		c-0.9-0.5-1.8-0.9-2.6-1.5c-30.7-19.5-61.4-39-92.1-58.6c-1.5-1-2.8-2.1-3.5-3.8C30.2,173.4,30.2,160.3,30.2,147.3z"/>
</g>
</svg>
