<?xml version="1.0" encoding="utf-8"?>
<!-- Generator: Adobe Illustrator 22.1.0, SVG Export Plug-In . SVG Version: 6.00 Build 0)  -->
<svg version="1.1" id="Layer_1" xmlns="http://www.w3.org/2000/svg" xmlns:xlink="http://www.w3.org/1999/xlink" x="0px" y="0px"
	 viewBox="0 0 226.8 226.8" style="enable-background:new 0 0 226.8 226.8;" xml:space="preserve">
<g>
	<path d="M90.7,102.3c3.9,6.5,7.6,12.5,11.2,18.6c5.9,9.7,11.7,19.5,17.6,29.2c0.8,1.3,0.8,2.3,0,3.6c-7,11.5-14,23.1-20.8,34.7
		c-0.9,1.6-2.1,2.3-3.9,2.7c-40.6,8-80.5-16.5-91.8-56.1c-11.7-41.6,12.1-85,53.5-97.4c42.5-12.7,87.5,12.2,99.1,55
		c0.6,2.3,1,4.6,1.5,6.9c0.5,2.5,0.4,2.7-2.3,2.7c-20.4,0-40.9,0-61.3,0C92.8,102.1,92,102.2,90.7,102.3z M79.4,128.2
		c2.7-0.1,5-1.3,6.5-3.9c1.5-2.7,1.6-5.4-0.1-8.1c-1.6-2.6-3.4-5.1-5.1-7.6c-6.1-9-12.2-18-18.4-26.9c-1.6-2.3-4.1-2.8-6.2-1.6
		c-2.1,1.3-2.9,3.6-1.8,6c5.9,12.6,11.8,25.2,17.7,37.8C73.6,126.7,76,128,79.4,128.2z"/>
	<path d="M178.3,192.4c0.5-1,0.8-1.6,1.1-2.1c7.3-12.2,14.6-24.3,22-36.5c0.9-1.4,0.9-2.5,0.1-3.9c-7.3-11.9-14.4-23.9-21.6-35.9
		c-0.4-0.7-0.8-1.4-1.4-2.5c0.9-0.1,1.5-0.3,2.1-0.3c6.8,0,13.6,0,20.4,0c1.4,0,2.2,0.5,2.8,1.6c7.5,12.5,15,25,22.6,37.5
		c0.7,1.2,0.6,2.1-0.1,3.2c-7.3,12.1-14.7,24.3-21.9,36.5c-1.1,1.9-2.4,2.7-4.6,2.6c-6.2-0.2-12.5,0-18.7-0.1
		C180.3,192.6,179.5,192.5,178.3,192.4z"/>
	<path d="M107,192.4c0.4-0.9,0.7-1.5,1-2.1c7.3-12.2,14.7-24.4,22.1-36.6c0.9-1.4,0.8-2.4-0.1-3.8c-7.4-12.2-14.7-24.4-22.1-36.6
		c-0.3-0.5-0.5-1.1-0.9-1.9c1-0.1,1.7-0.2,2.4-0.2c6.6,0,13.2,0,19.7,0c1.6,0,2.5,0.6,3.3,1.9c7.4,12.4,14.9,24.8,22.4,37.2
		c0.7,1.1,0.7,2,0,3.2c-7.5,12.4-15,24.7-22.4,37.2c-0.9,1.5-1.9,2.1-3.7,2c-6.4-0.1-12.9,0-19.3,0
		C108.8,192.6,108.1,192.5,107,192.4z"/>
	<path d="M142.7,192.4c0.5-0.9,0.7-1.5,1.1-2.1c7.3-12.2,14.6-24.3,22-36.4c0.9-1.4,0.9-2.5,0-4c-7.3-12-14.5-24-21.7-36.1
		c-0.4-0.7-0.8-1.4-1.4-2.4c1-0.1,1.7-0.2,2.3-0.2c6.6,0,13.3,0,19.9,0c1.5,0,2.4,0.4,3.2,1.8c7.4,12.4,14.9,24.8,22.4,37.2
		c0.8,1.3,0.8,2.3,0,3.6c-7.4,12.2-14.8,24.5-22.2,36.8c-0.9,1.5-1.9,2.2-3.8,2.2c-6.4-0.1-12.9,0-19.3,0
		C144.5,192.6,143.8,192.5,142.7,192.4z"/>
</g>
</svg>
