<!-- Generated by IcoMoon.io -->
<svg version="1.1" xmlns="http://www.w3.org/2000/svg" width="32" height="32" viewBox="0 0 32 32">
<title>GO</title>
<path d="M12.797 14.434c0.55 0.917 1.072 1.764 1.58 2.624 0.832 1.369 1.651 2.751 2.483 4.12 0.113 0.183 0.113 0.325 0 0.508-0.988 1.623-1.975 3.259-2.935 4.896-0.127 0.226-0.296 0.325-0.55 0.381-5.728 1.129-11.358-2.328-12.952-7.915-1.651-5.87 1.707-11.993 7.548-13.742 5.996-1.792 12.346 1.721 13.982 7.76 0.085 0.325 0.141 0.649 0.212 0.974 0.071 0.353 0.056 0.381-0.325 0.381-2.878 0-5.771 0-8.649 0-0.099-0.014-0.212 0-0.395 0.014zM11.203 18.088c0.381-0.014 0.705-0.183 0.917-0.55 0.212-0.381 0.226-0.762-0.014-1.143-0.226-0.367-0.48-0.72-0.72-1.072-0.861-1.27-1.721-2.54-2.596-3.795-0.226-0.325-0.578-0.395-0.875-0.226-0.296 0.183-0.409 0.508-0.254 0.847 0.832 1.778 1.665 3.556 2.497 5.333 0.226 0.395 0.564 0.578 1.044 0.607z"></path>
<path d="M25.157 27.146c0.071-0.141 0.113-0.226 0.155-0.296 1.030-1.721 2.060-3.429 3.104-5.15 0.127-0.198 0.127-0.353 0.014-0.55-1.030-1.679-2.032-3.372-3.048-5.065-0.056-0.099-0.113-0.198-0.198-0.353 0.127-0.014 0.212-0.042 0.296-0.042 0.959 0 1.919 0 2.878 0 0.198 0 0.31 0.071 0.395 0.226 1.058 1.764 2.116 3.527 3.189 5.291 0.099 0.169 0.085 0.296-0.014 0.451-1.030 1.707-2.074 3.429-3.090 5.15-0.155 0.268-0.339 0.381-0.649 0.367-0.875-0.028-1.764 0-2.638-0.014-0.113 0.014-0.226 0-0.395-0.014z"></path>
<path d="M15.097 27.146c0.056-0.127 0.099-0.212 0.141-0.296 1.030-1.721 2.074-3.443 3.118-5.164 0.127-0.198 0.113-0.339-0.014-0.536-1.044-1.721-2.074-3.443-3.118-5.164-0.042-0.071-0.071-0.155-0.127-0.268 0.141-0.014 0.24-0.028 0.339-0.028 0.931 0 1.862 0 2.78 0 0.226 0 0.353 0.085 0.466 0.268 1.044 1.75 2.102 3.499 3.16 5.249 0.099 0.155 0.099 0.282 0 0.451-1.058 1.75-2.116 3.485-3.16 5.249-0.127 0.212-0.268 0.296-0.522 0.282-0.903-0.014-1.82 0-2.723 0-0.085-0.014-0.183-0.028-0.339-0.042z"></path>
<path d="M20.134 27.146c0.071-0.127 0.099-0.212 0.155-0.296 1.030-1.721 2.060-3.429 3.104-5.136 0.127-0.198 0.127-0.353 0-0.564-1.030-1.693-2.046-3.386-3.062-5.093-0.056-0.099-0.113-0.198-0.198-0.339 0.141-0.014 0.24-0.028 0.325-0.028 0.931 0 1.877 0 2.808 0 0.212 0 0.339 0.056 0.451 0.254 1.044 1.75 2.102 3.499 3.16 5.249 0.113 0.183 0.113 0.325 0 0.508-1.044 1.721-2.088 3.457-3.132 5.192-0.127 0.212-0.268 0.31-0.536 0.31-0.903-0.014-1.82 0-2.723 0-0.099-0.028-0.198-0.042-0.353-0.056z"></path>
</svg>
