<!-- Generated by IcoMoon.io -->
<svg version="1.1" xmlns="http://www.w3.org/2000/svg" width="32" height="32" viewBox="0 0 32 32">
<title>GRC</title>
<path d="M30.385 13.769h-13.691v0.981h13.803c-0.028-0.329-0.063-0.657-0.112-0.981z"></path>
<path d="M31.58 12.361v0.014h-14.887v0.783h14.207l0.044 0.253c0.14 0.779 0.22 1.676 0.22 2.591v0c0 7.062-4.996 13.302-11.878 14.836l-0.309 0.068-1.259-6.846 0.276-0.070c2.125-0.539 3.944-1.908 5.060-3.789h-6.36v0.969h2.081c-0.796 0.435-1.744 0.691-2.752 0.691-0.003 0-0.006 0-0.009 0h0c-3.23 0-5.849-2.619-5.849-5.849s2.619-5.849 5.849-5.849c0.003 0 0.006 0 0.009 0 1.244 0 2.396 0.389 3.342 1.053l-0.019-0.012h11.917c-2.041-6.481-8.097-11.177-15.249-11.177-8.828 0-15.986 7.156-15.986 15.986 0 8.829 7.158 15.986 15.986 15.986s15.986-7.157 15.986-15.986c0-1.257-0.145-2.481-0.42-3.653zM14.051 0.924c0.631-0.079 1.274-0.12 1.913-0.12 6.202 0 11.727 3.709 14.074 9.449l0.171 0.421h-7.961l-0.091-0.104c-1.519-1.724-3.731-2.806-6.196-2.806-0.2 0-0.398 0.007-0.594 0.021l0.026-0.002-0.267 0.019-1.404-6.838 0.327-0.041zM17.281 31.148c-0.432 0.037-0.875 0.056-1.316 0.056-6.713 0-12.714-4.496-14.593-10.934l-0.085-0.289 7.65-2.324c-0.126-0.532-0.199-1.084-0.199-1.653 0-3.030 1.877-5.626 4.526-6.697l-1.584-7.254c-6.085 1.865-10.306 7.556-10.306 13.951 0 0.586 0.036 1.176 0.105 1.759l5.636-1.691v-0.068c0-2.915 1.446-5.631 3.818-7.275-0.030-0.083-0.053-0.17-0.053-0.264 0-0.429 0.348-0.776 0.776-0.776v0c0 0 0 0 0 0 0.429 0 0.776 0.348 0.776 0.776 0 0 0 0 0 0v0c0 0 0 0 0 0 0 0.429-0.348 0.776-0.776 0.776-0.11 0-0.215-0.023-0.309-0.064l0.005 0.002c-2.252 1.524-3.627 4.081-3.627 6.825 0 0.094 0.001 0.188 0.005 0.282l0.008 0.236-6.765 2.030-0.050-0.35c-0.101-0.66-0.158-1.422-0.158-2.197v-0c0-6.775 4.549-12.792 11.062-14.63l0.311-0.087 1.706 7.81c0.634-0.202 1.363-0.319 2.119-0.319 0.001 0 0.002 0 0.002 0h-0c0.825 0 1.627 0.142 2.392 0.411 0.141-0.168 0.345-0.282 0.583-0.282 0 0 0 0 0 0 0.426 0 0.772 0.345 0.772 0.772v0c0 0 0 0 0 0 0 0.426-0.345 0.772-0.772 0.772-0 0-0 0-0 0v0c-0.314 0-0.582-0.189-0.703-0.459-0.725-0.274-1.485-0.422-2.273-0.422-3.548 0-6.433 2.885-6.433 6.433s2.885 6.434 6.433 6.434c0.898 0 1.784-0.199 2.599-0.558 0.094-0.32 0.377-0.558 0.728-0.558 0.426 0 0.772 0.345 0.772 0.772s-0.345 0.772-0.772 0.772c-0.203 0-0.384-0.082-0.521-0.21-0.757 0.319-1.566 0.502-2.39 0.55l1.225 7.915-0.325 0.028z"></path>
<path d="M9.098 18.245l-0.972 0.295c0.821 2.538 2.825 4.526 5.361 5.323 0.133-0.235 0.376-0.4 0.666-0.4 0.424 0.006 0.766 0.351 0.766 0.776s-0.342 0.771-0.765 0.776h-0.001c-0.344 0-0.626-0.227-0.728-0.537-2.784-0.832-4.99-2.992-5.881-5.762l-5.5 1.671c1.896 6.025 7.577 10.207 13.92 10.207 0.314-0.001 0.629-0.011 0.939-0.030l-1.137-7.344c-3.115-0.085-5.742-2.146-6.667-4.975zM17.91 17.926c-0.208 0.004-0.374 0.173-0.374 0.382s0.167 0.378 0.374 0.382h0c0.208-0.004 0.374-0.173 0.374-0.382s-0.167-0.378-0.374-0.382h-0zM15.964 7.155c2.5 0 4.882 1.059 6.56 2.909h6.77c-2.346-5.271-7.529-8.65-13.33-8.65-0.503 0-1.010 0.026-1.509 0.077l1.165 5.67c0.114-0.004 0.229-0.006 0.345-0.006z"></path>
<path d="M23.842 20.039c-1.12 2.18-3.085 3.796-5.423 4.47l1.042 5.663c5.591-1.377 9.822-6.004 10.849-11.56h-11.525c-0.127 0.363-0.469 0.626-0.874 0.626-0.513 0-0.93-0.418-0.93-0.931s0.417-0.93 0.93-0.93c0.405 0 0.747 0.262 0.874 0.626h11.617c0.051-0.362 0.090-0.725 0.113-1.093h-10.033c-0.127 0.363-0.469 0.626-0.875 0.626-0.513 0-0.93-0.417-0.93-0.931s0.417-0.931 0.93-0.931c0.405 0 0.748 0.263 0.875 0.626h10.059c0.002-0.1 0.013-0.197 0.013-0.297 0-0.214-0.015-0.429-0.024-0.644h-13.836v4.235h7.376l-0.227 0.444z"></path>
<path d="M19.989 16.605c0 0.211-0.171 0.382-0.382 0.382s-0.382-0.171-0.382-0.382c0-0.211 0.171-0.382 0.382-0.382s0.382 0.171 0.382 0.382z"></path>
<path d="M16.527 14.75c-0.127-0.363-0.469-0.626-0.875-0.626-0.512 0-0.93 0.417-0.93 0.931s0.417 0.93 0.93 0.93c0.405 0 0.747-0.262 0.875-0.626h0.167v-0.61h-0.167zM15.652 15.437c-0.211-0-0.381-0.171-0.381-0.381v0c0-0 0-0 0-0 0-0.211 0.171-0.381 0.381-0.381h0c0.211 0 0.382 0.171 0.382 0.382s-0.171 0.382-0.382 0.382v0zM16.603 19.595c-0.127-0.363-0.469-0.626-0.875-0.626-0.513 0-0.93 0.417-0.93 0.931s0.417 0.931 0.93 0.931c0.406 0 0.747-0.263 0.875-0.626h0.090v-0.61h-0.090zM15.729 20.281c-0.211 0-0.382-0.171-0.382-0.382s0.171-0.382 0.382-0.382v0c0.21 0 0.381 0.171 0.381 0.382s-0.171 0.382-0.381 0.382zM14.718 13.159c-0.127-0.363-0.469-0.626-0.874-0.626-0.513 0-0.93 0.417-0.93 0.931s0.417 0.931 0.93 0.931c0.405 0 0.747-0.262 0.874-0.626h1.975v-0.61h-1.976zM13.844 13.846c-0.21-0-0.381-0.171-0.381-0.381 0-0 0-0.001 0-0.001v0c0-0 0-0 0-0.001 0-0.21 0.171-0.381 0.381-0.381v0c0.21 0 0.381 0.171 0.381 0.382v0c-0 0.21-0.171 0.381-0.381 0.382h-0z"></path>
</svg>
