<!-- Generated by IcoMoon.io -->
<svg version="1.1" xmlns="http://www.w3.org/2000/svg" width="32" height="32" viewBox="0 0 32 32">
<title>GREENADDRESS</title>
<path d="M2.432 13.606c-0.026-3.354 0.563-6.438 1.779-9.408 0.128-0.294 0.269-0.41 0.602-0.448 3.84-0.41 7.539-1.318 10.893-3.328 0.32-0.192 0.538-0.166 0.845 0.013 2.957 1.766 6.182 2.688 9.562 3.149 0.486 0.064 0.986 0.090 1.472 0.205 0.166 0.038 0.346 0.23 0.422 0.397 0.883 2.112 1.446 4.314 1.677 6.605 0.346 3.43 0.115 6.797-1.062 10.048-2.061 5.632-6.106 9.152-11.827 10.778-0.512 0.141-1.152 0.090-1.677-0.051-6.336-1.728-10.304-5.811-11.981-12.147-0.525-1.958-0.717-3.955-0.704-5.811zM28.186 13.453c-0.090-1.101-0.090-2.214-0.294-3.29-0.294-1.523-0.717-3.008-1.126-4.506-0.038-0.141-0.256-0.32-0.41-0.333-1.523-0.179-3.059-0.307-4.582-0.486-1.869-0.218-3.712-0.576-5.402-1.459-0.154-0.077-0.397-0.077-0.563-0.013-1.459 0.576-2.918 1.139-4.352 1.779-1.92 0.87-3.725 1.933-5.21 3.456-1.216 1.254-2.048 2.714-2.15 4.48-0.115 2.074 0.038 4.134 0.55 6.144 1.472 5.734 5.043 9.446 10.701 11.162 0.499 0.154 0.96 0.141 1.446-0.026 4.224-1.472 7.424-4.147 9.434-8.166 1.395-2.739 1.907-5.683 1.958-8.742z"></path>
<path d="M15.117 11.059c0.141-0.461 0.256-0.87 0.384-1.331 0.87 0.243 1.702 0.486 2.598 0.73 0.218-0.73 0.435-1.434 0.653-2.189 0.41 0.115 0.794 0.218 1.203 0.333-0.179 0.627-0.32 1.203-0.499 1.779-0.102 0.294-0.026 0.41 0.269 0.486 0.883 0.23 0.704 0.256 0.934-0.499 0.141-0.461 0.269-0.922 0.422-1.434 0.41 0.115 0.781 0.218 1.216 0.333-0.166 0.602-0.307 1.19-0.499 1.754-0.115 0.346-0.026 0.486 0.282 0.64 0.499 0.256 0.986 0.525 1.421 0.87 1.357 1.075 0.678 3.507-0.742 3.917-0.077 0.026-0.141 0.051-0.294 0.102 0.154 0.128 0.256 0.218 0.371 0.307 0.742 0.589 1.062 1.318 0.87 2.291-0.384 1.92-1.754 2.893-3.686 2.586-0.397-0.064-0.794-0.115-1.216-0.179-0.218 0.73-0.422 1.446-0.64 2.189-0.397-0.115-0.781-0.218-1.203-0.346 0.205-0.742 0.397-1.446 0.602-2.202-0.384-0.115-0.704-0.205-1.075-0.32-0.218 0.742-0.435 1.446-0.653 2.176-0.397-0.115-0.768-0.218-1.203-0.333 0.205-0.742 0.397-1.459 0.614-2.24-0.858-0.256-1.69-0.499-2.573-0.768 0.23-0.499 0.448-0.96 0.666-1.434 0.269 0.077 0.486 0.128 0.717 0.192 0.602 0.166 0.768 0.064 0.934-0.538 0.41-1.395 0.806-2.803 1.203-4.198 0.141-0.474 0.269-0.947 0.397-1.434 0.128-0.499-0.026-0.794-0.512-0.973-0.141-0.051-0.294-0.102-0.448-0.141-0.166-0.013-0.307-0.064-0.512-0.128zM17.779 16.346c-0.282 0.96-0.55 1.869-0.794 2.79-0.026 0.077 0.077 0.256 0.154 0.282 0.934 0.269 1.856 0.614 2.867 0.422 0.589-0.115 0.947-0.448 1.088-1.011 0.128-0.55-0.051-1.011-0.499-1.37-0.819-0.653-1.779-0.883-2.816-1.114zM18.163 15.014c0.768 0.307 1.536 0.512 2.33 0.448 0.666-0.051 1.062-0.41 1.178-0.947 0.128-0.602-0.026-1.114-0.614-1.434-0.64-0.346-1.344-0.576-2.086-0.896-0.294 1.024-0.55 1.907-0.806 2.829z"></path>
<path d="M8.576 11.162c1.587 0 3.187 0 4.787 0 0.115 0.346 0.051 0.499-0.333 0.499-1.37-0.013-2.739-0.013-4.096 0-0.384 0-0.486-0.128-0.358-0.499z"></path>
<path d="M8.282 14.566c-0.077-0.333-0.077-0.538 0.294-0.538 1.114 0.013 2.24 0 3.354 0.013 0.115 0 0.23 0.166 0.346 0.256-0.090 0.090-0.166 0.256-0.256 0.256-1.229 0.013-2.47 0.013-3.738 0.013z"></path>
<path d="M11.046 16.998c0.064 0.307 0.102 0.538-0.269 0.538-0.832 0-1.677 0.013-2.509-0.013-0.102 0-0.243-0.141-0.282-0.243-0.026-0.051 0.128-0.256 0.205-0.256 0.947-0.038 1.894-0.026 2.854-0.026z"></path>
</svg>
