<?xml version="1.0" encoding="utf-8"?>
<!-- Generator: Adobe Illustrator 22.1.0, SVG Export Plug-In . SVG Version: 6.00 Build 0)  -->
<svg version="1.1" id="Layer_1" xmlns="http://www.w3.org/2000/svg" xmlns:xlink="http://www.w3.org/1999/xlink" x="0px" y="0px"
	 viewBox="0 0 226.8 226.8" style="enable-background:new 0 0 226.8 226.8;" xml:space="preserve">
<g>
	<path d="M211.9,113.5c0,17.4-0.1,34.8,0.1,52.2c0,3.1-1,4.9-3.7,6.4c-30.6,17.5-61.2,35.2-91.7,52.9c-2.3,1.3-3.8,1.3-6.1,0
		c-30.5-17.7-61.1-35.4-91.7-52.9c-2.7-1.5-3.8-3.2-3.8-6.4c0.2-35,0.2-70,0.1-105c0-3.2,1.2-4.8,3.8-6.3
		C49.4,37.1,79.8,19.7,110,2.1c2.6-1.5,4.4-1.6,7-0.1c30.4,17.6,60.8,35.1,91.3,52.5c2.6,1.5,3.4,3.2,3.4,6.1
		c-0.1,17.6-0.1,35.1-0.1,52.7C211.8,113.5,211.9,113.5,211.9,113.5z M19.6,113.6c0,0,0.1,0,0.1,0c0,16.7,0.1,33.3-0.1,50
		c0,2.8,0.9,4.3,3.3,5.7c29.2,16.7,58.3,33.5,87.3,50.4c2.4,1.4,4.2,1.3,6.6-0.1c28.9-16.8,57.9-33.5,87-50.2c2.5-1.5,3.6-3,3.6-6
		c-0.1-33.5,0-67,0.1-100.4c0-2.9-0.9-4.6-3.5-6.1c-29-16.7-58-33.5-86.9-50.3c-2.7-1.6-4.8-1.5-7.4,0.1
		C81,23.5,52.2,40.2,23.3,56.8c-2.9,1.7-3.8,3.6-3.8,6.9C19.7,80.3,19.6,97,19.6,113.6z"/>
	<path d="M109,160.1c-4.8-3-9.3-5.4-13.2-8.4c-6-4.5-12.3-9-17.5-14.4c-13.3-14.1-13.5-33.3-0.5-47.6c4.9-5.4,10.8-10.3,16.9-14.3
		c10.6-6.9,21.9-12.9,32.8-19.5c8.6-5.3,17.1-10.9,25.5-16.6c2.1-1.4,3.5-1.6,5.7-0.3c12.9,7.6,26,14.9,38.9,22.6
		c1.4,0.9,2.7,3.3,2.8,4.9c0.2,31.2,0.2,62.4,0.1,93.6c0,1.7-1.4,4-2.9,4.9c-12.9,7.7-25.9,15.2-39,22.5c-1.3,0.7-4.1,0.6-5-0.4
		c-7.5-8.1-15.1-8.7-23.7-1.4c-3.3,2.8-7.5,4.4-11.8,6.8c5.2,3.3,9.8,6.2,15.3,9.6c-6.9,3.9-13,7.5-19.3,10.9
		c-0.5,0.3-1.5,0-2.1-0.3c-5.9-3.3-11.7-6.7-18.3-10.5c2.6-1.7,4.6-3.1,6.6-4.3c12.1-7,24.4-13.5,36.1-21
		c9.1-5.9,17.9-12.5,25.9-19.8c10.2-9.4,16.2-21.4,18-35.3c0.1-0.9,0.3-1.8,0.3-2.7c0-0.6-0.1-1.2-0.2-2.3c-1.6-0.1-3.2-0.2-4.8-0.2
		c-19.5,0-39.1,0.1-58.6-0.1c-3.3,0-5.2,1-6.8,3.9c-3.6,6.8-7.6,13.3-11.9,20.8c15.6,0,30.3,0,45,0c0.2,0.3,0.3,0.7,0.5,1
		c-1.1,1-2.2,2.2-3.5,3.1c-9.8,6.3-19.6,12.5-29.5,18.7c-12.5,7.9-25.1,15.8-37.7,23.5c-1.1,0.7-3.2,0.9-4.3,0.3
		c-13.3-7.5-26.6-15.1-39.7-22.9c-1.3-0.7-2.5-2.7-2.5-4.2c-0.1-31.5-0.1-63,0.1-94.5c0-1.5,1.1-3.6,2.4-4.3
		C42.3,54.1,55.6,46.4,68.9,39c1.2-0.7,4.1-0.4,5,0.5c7.3,7.7,14.6,8.4,22.9,1.4c3.4-2.9,7.8-4.6,12.5-7.2c-2.8-1.8-5-3.2-7.2-4.6
		c-2.3-1.5-4.6-2.9-7.6-4.9c6.3-3.7,12.1-7,18-10.3c0.6-0.3,1.8-0.2,2.5,0.2c5.7,3.1,11.3,6.4,17.6,10c-2.9,1.9-5.2,3.6-7.7,5
		c-11.4,6.6-23.1,12.8-34.1,20C81.8,55,72.7,61.3,65,68.9c-25.7,25.3-25.4,63.5,0.3,88.9c5.1,5.1,11.2,9.2,16.8,13.8
		c2.2,1.8,4,1.9,6.5,0.3C95,168,101.7,164.3,109,160.1z M180.3,104.7c-0.4-2.3-0.5-3.9-0.9-5.5c-4.8-21-19.2-34.4-36.1-45.8
		c-0.7-0.5-2.2-0.8-2.9-0.4c-7.3,4.1-14.6,8.4-22.4,13c4.7,3,9,5.5,13.1,8.3c11,7.4,21.6,15.2,26.2,28.5c0.3,0.8,1.5,1.7,2.3,1.7
		C166.2,104.8,173,104.7,180.3,104.7z"/>
</g>
</svg>
