<!-- Generated by IcoMoon.io -->
<svg version="1.1" xmlns="http://www.w3.org/2000/svg" width="32" height="32" viewBox="0 0 32 32">
<title>GRID</title>
<path d="M29.898 16.014c0 2.455-0.014 4.91 0.014 7.365 0 0.437-0.141 0.691-0.522 0.903-4.317 2.469-8.635 4.966-12.938 7.464-0.325 0.183-0.536 0.183-0.861 0-4.303-2.497-8.621-4.995-12.938-7.464-0.381-0.212-0.536-0.451-0.536-0.903 0.028-4.938 0.028-9.877 0.014-14.815 0-0.451 0.169-0.677 0.536-0.889 4.303-2.441 8.593-4.896 12.854-7.379 0.367-0.212 0.621-0.226 0.988-0.014 4.289 2.483 8.578 4.952 12.882 7.407 0.367 0.212 0.48 0.451 0.48 0.861-0.014 2.483-0.014 4.952-0.014 7.436 0.028 0.028 0.042 0.028 0.042 0.028zM2.765 16.028c0 0 0.014 0 0.014 0 0 2.356 0.014 4.698-0.014 7.055 0 0.395 0.127 0.607 0.466 0.804 4.12 2.356 8.226 4.727 12.317 7.111 0.339 0.198 0.593 0.183 0.931-0.014 4.078-2.37 8.169-4.727 12.275-7.083 0.353-0.212 0.508-0.423 0.508-0.847-0.014-4.727 0-9.453 0.014-14.166 0-0.409-0.127-0.649-0.494-0.861-4.092-2.356-8.183-4.727-12.261-7.097-0.381-0.226-0.677-0.212-1.044 0.014-4.049 2.37-8.113 4.727-12.19 7.069-0.409 0.24-0.536 0.508-0.536 0.974 0.028 2.342 0.014 4.698 0.014 7.041z"></path>
<path d="M15.379 22.589c-0.677-0.423-1.312-0.762-1.862-1.185-0.847-0.635-1.735-1.27-2.469-2.032-1.877-1.989-1.905-4.698-0.071-6.716 0.691-0.762 1.524-1.453 2.384-2.018 1.496-0.974 3.090-1.82 4.628-2.751 1.213-0.748 2.413-1.538 3.598-2.342 0.296-0.198 0.494-0.226 0.804-0.042 1.82 1.072 3.668 2.102 5.489 3.189 0.198 0.127 0.381 0.466 0.395 0.691 0.028 4.402 0.028 8.804 0.014 13.206 0 0.24-0.198 0.564-0.409 0.691-1.82 1.086-3.654 2.145-5.503 3.175-0.183 0.099-0.578 0.085-0.705-0.056-1.058-1.143-2.131-1.227-3.344-0.198-0.466 0.395-1.058 0.621-1.665 0.959 0.734 0.466 1.383 0.875 2.159 1.355-0.974 0.55-1.834 1.058-2.723 1.538-0.071 0.042-0.212 0-0.296-0.042-0.832-0.466-1.651-0.945-2.582-1.481 0.367-0.24 0.649-0.437 0.931-0.607 1.707-0.988 3.443-1.905 5.093-2.963 1.284-0.832 2.526-1.764 3.654-2.794 1.439-1.326 2.286-3.019 2.54-4.981 0.014-0.127 0.042-0.254 0.042-0.381 0-0.085-0.014-0.169-0.028-0.325-0.226-0.014-0.451-0.028-0.677-0.028-2.751 0-5.517 0.014-8.268-0.014-0.466 0-0.734 0.141-0.959 0.55-0.508 0.959-1.072 1.877-1.679 2.935 2.201 0 4.275 0 6.349 0 0.028 0.042 0.042 0.099 0.071 0.141-0.155 0.141-0.31 0.31-0.494 0.437-1.383 0.889-2.765 1.764-4.162 2.638-1.764 1.115-3.541 2.229-5.319 3.316-0.155 0.099-0.451 0.127-0.607 0.042-1.877-1.058-3.753-2.131-5.601-3.231-0.183-0.099-0.353-0.381-0.353-0.593-0.014-4.444-0.014-8.889 0.014-13.333 0-0.212 0.155-0.508 0.339-0.607 1.862-1.101 3.739-2.187 5.616-3.231 0.169-0.099 0.578-0.056 0.705 0.071 1.030 1.086 2.060 1.185 3.231 0.198 0.48-0.409 1.101-0.649 1.764-1.016-0.395-0.254-0.705-0.452-1.016-0.649-0.325-0.212-0.649-0.409-1.072-0.691 0.889-0.522 1.707-0.988 2.54-1.453 0.085-0.042 0.254-0.028 0.353 0.028 0.804 0.437 1.594 0.903 2.483 1.411-0.409 0.268-0.734 0.508-1.086 0.705-1.608 0.931-3.259 1.806-4.811 2.822-1.27 0.832-2.554 1.721-3.64 2.794-3.626 3.57-3.584 8.959 0.042 12.543 0.72 0.72 1.58 1.298 2.37 1.947 0.31 0.254 0.564 0.268 0.917 0.042 0.903-0.55 1.848-1.072 2.878-1.665zM25.439 14.773c-0.056-0.325-0.071-0.55-0.127-0.776-0.677-2.963-2.709-4.854-5.093-6.462-0.099-0.071-0.31-0.113-0.409-0.056-1.030 0.578-2.060 1.185-3.16 1.834 0.663 0.423 1.27 0.776 1.848 1.171 1.552 1.044 3.048 2.145 3.697 4.021 0.042 0.113 0.212 0.24 0.325 0.24 0.931 0.042 1.891 0.028 2.921 0.028z"></path>
</svg>
