<!-- Generated by IcoMoon.io -->
<svg version="1.1" xmlns="http://www.w3.org/2000/svg" width="32" height="32" viewBox="0 0 32 32">
<title>GRS</title>
<path d="M16.183 21.136c0.945 0 1.735-0.353 2.342-1.072s0.917-1.834 0.917-3.358c0-1.989-0.437-3.541-1.298-4.67-0.635-0.832-1.453-1.242-2.455-1.242-0.931 0-1.707 0.367-2.328 1.101s-0.945 1.877-0.945 3.4c0 1.975 0.423 3.513 1.27 4.6 0.663 0.832 1.496 1.242 2.497 1.242zM22.603 28.515c-0.649-0.282-1.933-0.437-3.866-0.494-2.822-0.071-4.981-0.226-6.49-0.437-0.593 0.635-1.030 1.227-1.326 1.778s-0.451 1.058-0.451 1.524v0.085l0.014 0.042c1.721 0.635 3.584 0.988 5.531 0.988 2.723 0 5.291-0.677 7.549-1.891v-0.028c0-0.056 0.014-0.127 0.014-0.183-0.028-0.649-0.339-1.115-0.974-1.383z"></path>
<path d="M16 0c-8.832 0-16 7.168-16 16 0 6.208 3.527 11.584 8.705 14.236l0.056-0.085c0.155-0.212 0.325-0.437 0.522-0.691 0.085-0.113 0.72-0.79 1.919-2.032-0.649-0.381-1.115-0.734-1.383-1.044s-0.409-0.649-0.409-1.044c0-0.437 0.183-0.945 0.536-1.538s1.185-1.425 2.469-2.497c-1.044-0.508-1.862-1.227-2.427-2.145s-0.847-1.933-0.847-3.048c0-1.707 0.635-3.16 1.919-4.388s2.921-1.834 4.924-1.834c1.594 0 2.991 0.381 4.176 1.143 1.058-1.044 1.848-1.919 2.37-2.638 0.691-0.974 1.030-1.862 1.030-2.667 0-0.621-0.183-1.115-0.564-1.524-0.381-0.395-0.832-0.593-1.355-0.593-0.48 0-0.903 0.141-1.284 0.423s-0.663 0.691-0.847 1.228h-0.268c0.113-0.889 0.423-1.566 0.917-2.032s1.115-0.705 1.848-0.705c0.79 0 1.439 0.254 1.975 0.762 0.522 0.508 0.79 1.101 0.79 1.792 0 0.494-0.113 0.988-0.339 1.481-0.353 0.776-0.931 1.594-1.721 2.455-1.185 1.298-1.933 2.074-2.229 2.342h2.54c0.522 0 0.875-0.014 1.086-0.056s0.395-0.113 0.564-0.226c0.169-0.113 0.31-0.282 0.437-0.494h0.268l-0.945 2.441h-2.638c0.607 0.875 0.903 1.947 0.903 3.245 0 1.608-0.607 2.977-1.834 4.106-1.227 1.143-2.878 1.707-4.938 1.707-0.847 0-1.721-0.127-2.61-0.381-0.55 0.48-0.917 0.889-1.115 1.242s-0.296 0.663-0.296 0.917c0 0.212 0.099 0.423 0.31 0.621s0.607 0.339 1.213 0.437c0.353 0.056 1.227 0.099 2.624 0.127 2.582 0.056 4.247 0.155 5.009 0.268 1.157 0.169 2.088 0.593 2.794 1.298 0.691 0.705 1.044 1.566 1.044 2.596v0.113c4.261-2.878 7.069-7.746 7.069-13.277 0.028-8.875-7.139-16.042-15.972-16.042z"></path>
</svg>
