<!-- Generated by IcoMoon.io -->
<svg version="1.1" xmlns="http://www.w3.org/2000/svg" width="32" height="32" viewBox="0 0 32 32">
<title>GTC</title>
<path d="M16.325 15.986c0 4.444 0 8.903 0 13.347 0 0.325-0.014 0.677-0.085 0.988-0.198 0.889-0.818 1.397-1.735 1.411-3.471 0.014-6.956 0.028-10.427 0-1.383-0.014-2.018-0.974-1.566-2.272 0.141-0.409 0.268-0.832 0.48-1.185 0.804-1.34 0.931-2.794 0.917-4.317-0.042-5.714-0.028-11.429-0.014-17.129 0-1.623 0.296-3.175 1.383-4.473 1.115-1.312 2.511-2.131 4.247-2.187 1.665-0.056 3.344-0.028 5.009 0 0.945 0.014 1.566 0.564 1.721 1.481 0.056 0.325 0.056 0.663 0.056 1.002 0 4.444 0 8.889 0.014 13.333 0 0 0 0 0 0z"></path>
<path d="M18.61 23.238c0-2.088 0-4.19 0-6.279 0-1.34 0.48-1.806 1.82-1.806 2.469 0 4.952 0 7.422 0.014 1.439 0 2.145 1.002 1.51 2.286-0.748 1.496-0.959 3.048-0.903 4.698 0.071 1.566 0.028 3.146 0.014 4.713-0.028 2.624-2.116 4.783-4.727 4.882-1.044 0.042-2.088 0.028-3.146 0-1.34-0.042-2.004-0.72-2.004-2.060 0-2.173 0-4.303 0.014-6.448-0.014 0-0.014 0 0 0z"></path>
<path d="M18.596 6.66c0-1.524-0.014-3.048 0-4.571 0.014-1.242 0.705-1.933 1.961-1.933 0.931-0.014 1.862 0 2.78 0 3.104 0 5.235 2.145 5.249 5.249 0.014 1.834 0.014 3.668 0 5.503 0 1.637-0.663 2.286-2.3 2.286-1.933 0-3.852 0.014-5.785 0-1.256-0.014-1.919-0.677-1.933-1.947 0.014-1.538 0.014-3.062 0.028-4.586 0 0 0 0 0 0z"></path>
</svg>
