<?xml version="1.0" encoding="utf-8"?>
<!-- Generator: Adobe Illustrator 22.1.0, SVG Export Plug-In . SVG Version: 6.00 Build 0)  -->
<svg version="1.1" id="Layer_1" xmlns="http://www.w3.org/2000/svg" xmlns:xlink="http://www.w3.org/1999/xlink" x="0px" y="0px"
	 viewBox="0 0 226.8 226.8" style="enable-background:new 0 0 226.8 226.8;" xml:space="preserve">
<g>
	<path d="M115.7,113.3c0,31.5,0,63.1,0,94.6c0,2.3-0.1,4.8-0.6,7c-1.4,6.3-5.8,9.9-12.3,10c-24.6,0.1-49.3,0.2-73.9,0
		c-9.8-0.1-14.3-6.9-11.1-16.1c1-2.9,1.9-5.9,3.4-8.4c5.7-9.5,6.6-19.8,6.5-30.6c-0.3-40.5-0.2-81-0.1-121.4
		c0-11.5,2.1-22.5,9.8-31.7C45.3,7.4,55.2,1.6,67.5,1.2C79.3,0.8,91.2,1,103,1.2c6.7,0.1,11.1,4,12.2,10.5c0.4,2.3,0.4,4.7,0.4,7.1
		C115.6,50.3,115.6,81.8,115.7,113.3C115.7,113.3,115.7,113.3,115.7,113.3z"/>
	<path d="M131.9,164.7c0-14.8,0-29.7,0-44.5c0-9.5,3.4-12.8,12.9-12.8c17.5,0,35.1,0,52.6,0.1c10.2,0,15.2,7.1,10.7,16.2
		c-5.3,10.6-6.8,21.6-6.4,33.3c0.5,11.1,0.2,22.3,0.1,33.4c-0.2,18.6-15,33.9-33.5,34.6c-7.4,0.3-14.8,0.2-22.3,0
		c-9.5-0.3-14.2-5.1-14.2-14.6C131.8,195,131.8,179.9,131.9,164.7C131.8,164.7,131.8,164.7,131.9,164.7z"/>
	<path d="M131.8,47.2c0-10.8-0.1-21.6,0-32.4c0.1-8.8,5-13.7,13.9-13.7c6.6-0.1,13.2,0,19.7,0c22,0,37.1,15.2,37.2,37.2
		c0.1,13,0.1,26,0,39c0,11.6-4.7,16.2-16.3,16.2c-13.7,0-27.3,0.1-41,0c-8.9-0.1-13.6-4.8-13.7-13.8C131.7,68.8,131.7,58,131.8,47.2
		C131.8,47.2,131.8,47.2,131.8,47.2z"/>
</g>
</svg>
