<?xml version="1.0" encoding="utf-8"?>
<!-- Generator: Adobe Illustrator 22.1.0, SVG Export Plug-In . SVG Version: 6.00 Build 0)  -->
<svg version="1.1" id="Layer_1" xmlns="http://www.w3.org/2000/svg" xmlns:xlink="http://www.w3.org/1999/xlink" x="0px" y="0px"
	 viewBox="0 0 250 250" style="enable-background:new 0 0 250 250;" xml:space="preserve">
<g>
	<path d="M116.7,169.5c0,22.6,0,45.3,0,67.9c0,0.5,0,1,0,1.6c0,0.9-0.3,1.4-1.3,1.3c-0.3,0-0.6,0-0.8,0c-20.5,0-41-0.1-61.5,0
		c-18.3,0.1-35-13.2-38.4-32.5c-0.4-2.3-0.6-4.8-0.6-7.1c0-33.2,0-66.3,0-99.5c0-0.4,0-0.8,0-1.1c0-1,0.4-1.5,1.4-1.4
		c0.3,0,0.6,0,0.8,0c32.7,0,65.4,0,98.1,0c2.3,0,2.3,0,2.3,2.4C116.7,123.8,116.7,146.6,116.7,169.5z"/>
	<path d="M131.7,169.4c0-22.9,0-45.7,0-68.6c0-2.2,0-2.2,2.3-2.2c32.7,0,65.4,0,98.1,0c2.1,0,2.1,0,2.1,2c0,33.8,0,67.7,0,101.5
		c0,17.5-13.2,33.8-30.4,37.3c-2.8,0.6-5.8,0.9-8.7,0.9c-20.5,0.1-40.9,0-61.4,0c-2,0-2,0-2-2C131.7,215.3,131.7,192.4,131.7,169.4z
		"/>
	<path d="M180.1,45.2c0.4,0,0.9,0,1.4,0c16.2,0,32.5,0,48.7,0c9,0,16.7,5.8,19.1,14.5c3,10.6-5.1,22.5-16.1,23.6
		c-1.5,0.2-3.1,0.2-4.6,0.3c-31.2,0-62.5,0-93.7,0c-0.5,0-1,0-1.6,0c-1.2,0.1-1.6-0.4-1.6-1.7c0-7.2,0-14.3,0-21.5
		c0-0.3,0.1-0.7,0-1c-0.2-0.4-0.6-1-1-1c-4.3-0.1-8.7,0-13-0.1c-1.2,0-1,0.8-1,1.6c0,7,0,14,0,21c0,0.5,0.1,1-0.1,1.4
		c-0.2,0.4-0.7,0.8-1.1,1.1c-0.2,0.1-0.6,0-1,0c-31.7,0-63.3,0-95,0c-8.8,0-16.5-5.8-18.8-14.1c-3.1-10.9,4.7-22.7,15.9-24
		c1.3-0.2,2.6-0.2,3.9-0.3c15.6,0,31.1,0,46.7,0c0.4,0,0.7,0,1.3,0c-2-1.6-4-3.1-5.7-4.7c-2.1-2-4.2-4.1-5.8-6.5
		c-4.8-6.8-4.3-14.2,1.1-20.6c2.2-2.6,4.7-4.9,7.9-6.2c5.1-2.1,9.9-1.2,14.5,1.3c5.7,3,10.1,7.5,14.2,12.3c6.1,7.1,11.2,15,16,23
		c0.6,1.1,1.3,1.5,2.6,1.5c7.1-0.1,14.2-0.1,21.3,0c1.5,0,2.3-0.5,3.1-1.7c4.5-6.8,9-13.7,13.8-20.2c4.1-5.6,9-10.6,15.1-14.2
		c4.2-2.5,8.7-3.9,13.7-2.5c7.3,1.9,14.4,10.9,14.2,18.2c-0.1,5-2.5,9-5.8,12.5C186.1,40,183.1,42.5,180.1,45.2z M107.1,45.2
		c-0.2-0.5-0.3-0.8-0.5-1c-5.1-8.3-10.4-16.4-17.1-23.6c-3.4-3.7-7.1-7-11.7-9.2c-2.7-1.3-5.6-2-8.6-1.2c-3.3,0.8-5.7,2.9-7.9,5.4
		c-4.7,5.5-5,11.1-0.7,16.9c3.7,5,8.6,8.5,13.7,11.8c0.8,0.5,2,0.9,3,0.9c9.1,0.1,18.2,0,27.2,0C105.3,45.2,106.1,45.2,107.1,45.2z
		 M141.3,45.1c0.5,0.1,0.9,0.1,1.2,0.1c9.7,0,19.5,0,29.2,0c0.7,0,1.4-0.3,2-0.6c2.9-2,5.8-4,8.5-6.2c3.2-2.6,6-5.6,7.7-9.4
		c1-2.3,1.3-4.6,0.7-7c-1-3.8-3.4-6.7-6.3-9.1c-2.8-2.4-6.1-3.4-9.8-2.6c-4.7,1-8.4,3.7-11.8,6.9c-8.3,7.6-14.4,16.9-20.3,26.4
		C142,43.9,141.7,44.4,141.3,45.1z"/>
</g>
</svg>
