<!-- Generated by IcoMoon.io -->
<svg version="1.1" xmlns="http://www.w3.org/2000/svg" width="32" height="32" viewBox="0 0 32 32">
<title>GTO</title>
<path d="M14.938 21.696c0 2.893 0 5.798 0 8.691 0 0.064 0 0.128 0 0.205 0 0.115-0.038 0.179-0.166 0.166-0.038 0-0.077 0-0.102 0-2.624 0-5.248-0.013-7.872 0-2.342 0.013-4.48-1.69-4.915-4.16-0.051-0.294-0.077-0.614-0.077-0.909 0-4.25 0-8.486 0-12.736 0-0.051 0-0.102 0-0.141 0-0.128 0.051-0.192 0.179-0.179 0.038 0 0.077 0 0.102 0 4.186 0 8.371 0 12.557 0 0.294 0 0.294 0 0.294 0.307 0 2.906 0 5.824 0 8.755z"></path>
<path d="M16.858 21.683c0-2.931 0-5.85 0-8.781 0-0.282 0-0.282 0.294-0.282 4.186 0 8.371 0 12.557 0 0.269 0 0.269 0 0.269 0.256 0 4.326 0 8.666 0 12.992 0 2.24-1.69 4.326-3.891 4.774-0.358 0.077-0.742 0.115-1.114 0.115-2.624 0.013-5.235 0-7.859 0-0.256 0-0.256 0-0.256-0.256 0-2.944 0-5.875 0-8.819z"></path>
<path d="M23.053 5.786c0.051 0 0.115 0 0.179 0 2.074 0 4.16 0 6.234 0 1.152 0 2.138 0.742 2.445 1.856 0.384 1.357-0.653 2.88-2.061 3.021-0.192 0.026-0.397 0.026-0.589 0.038-3.994 0-8 0-11.994 0-0.064 0-0.128 0-0.205 0-0.154 0.013-0.205-0.051-0.205-0.218 0-0.922 0-1.83 0-2.752 0-0.038 0.013-0.090 0-0.128-0.026-0.051-0.077-0.128-0.128-0.128-0.55-0.013-1.114 0-1.664-0.013-0.154 0-0.128 0.102-0.128 0.205 0 0.896 0 1.792 0 2.688 0 0.064 0.013 0.128-0.013 0.179s-0.090 0.102-0.141 0.141c-0.026 0.013-0.077 0-0.128 0-4.058 0-8.102 0-12.16 0-1.126 0-2.112-0.742-2.406-1.805-0.397-1.395 0.602-2.906 2.035-3.072 0.166-0.026 0.333-0.026 0.499-0.038 1.997 0 3.981 0 5.978 0 0.051 0 0.090 0 0.166 0-0.256-0.205-0.512-0.397-0.73-0.602-0.269-0.256-0.538-0.525-0.742-0.832-0.614-0.87-0.55-1.818 0.141-2.637 0.282-0.333 0.602-0.627 1.011-0.794 0.653-0.269 1.267-0.154 1.856 0.166 0.73 0.384 1.293 0.96 1.818 1.574 0.781 0.909 1.434 1.92 2.048 2.944 0.077 0.141 0.166 0.192 0.333 0.192 0.909-0.013 1.818-0.013 2.726 0 0.192 0 0.294-0.064 0.397-0.218 0.576-0.87 1.152-1.754 1.766-2.586 0.525-0.717 1.152-1.357 1.933-1.818 0.538-0.32 1.114-0.499 1.754-0.32 0.934 0.243 1.843 1.395 1.818 2.33-0.013 0.64-0.32 1.152-0.742 1.6-0.333 0.358-0.717 0.678-1.101 1.024zM13.709 5.786c-0.026-0.064-0.038-0.102-0.064-0.128-0.653-1.062-1.331-2.099-2.189-3.021-0.435-0.474-0.909-0.896-1.498-1.178-0.346-0.166-0.717-0.256-1.101-0.154-0.422 0.102-0.73 0.371-1.011 0.691-0.602 0.704-0.64 1.421-0.090 2.163 0.474 0.64 1.101 1.088 1.754 1.51 0.102 0.064 0.256 0.115 0.384 0.115 1.165 0.013 2.33 0 3.482 0 0.102 0 0.205 0 0.333 0zM18.086 5.773c0.064 0.013 0.115 0.013 0.154 0.013 1.242 0 2.496 0 3.738 0 0.090 0 0.179-0.038 0.256-0.077 0.371-0.256 0.742-0.512 1.088-0.794 0.41-0.333 0.768-0.717 0.986-1.203 0.128-0.294 0.166-0.589 0.090-0.896-0.128-0.486-0.435-0.858-0.806-1.165-0.358-0.307-0.781-0.435-1.254-0.333-0.602 0.128-1.075 0.474-1.51 0.883-1.062 0.973-1.843 2.163-2.598 3.379-0.051 0.038-0.090 0.102-0.141 0.192z"></path>
</svg>
