<!-- Generated by IcoMoon.io -->
<svg version="1.1" xmlns="http://www.w3.org/2000/svg" width="32" height="32" viewBox="0 0 32 32">
<title>GUARDA</title>
<path d="M1.92 5.773c0-0.653 0-1.306 0-1.958 0-0.307 0.128-0.461 0.435-0.538 4.467-1.075 8.934-2.176 13.389-3.251 0.166-0.038 0.346-0.038 0.512 0 4.134 0.998 8.269 2.010 12.403 3.021 0.346 0.090 0.704 0.166 1.050 0.256 0.192 0.038 0.307 0.141 0.32 0.358 0.013 0.282 0.038 0.563 0.051 0.845 0.090 4.122-0.307 8.192-1.357 12.186-0.755 2.842-1.83 5.555-3.443 8.038-2.189 3.328-5.094 5.773-8.858 7.142-0.269 0.102-0.512 0.102-0.781 0-2.189-0.806-4.16-1.971-5.875-3.571-2.483-2.304-4.173-5.133-5.389-8.269-1.024-2.65-1.651-5.402-2.035-8.218-0.307-1.997-0.461-4.019-0.422-6.042zM4.403 7.501c0.026 0.486 0.051 0.973 0.064 1.446 0.051 1.715 0.23 3.43 0.538 5.12 0.563 3.098 1.498 6.067 3.162 8.755 1.766 2.842 4.16 4.941 7.322 6.131 0.269 0.102 0.512 0.192 0.819 0.077 2.688-0.986 4.877-2.624 6.605-4.89 1.715-2.253 2.803-4.8 3.52-7.526 0.896-3.405 1.254-6.886 1.114-10.406-0.026-0.602-0.013-0.602-0.576-0.73-3.469-0.845-6.938-1.677-10.406-2.534-0.397-0.102-0.755-0.090-1.152 0-1.587 0.397-3.187 0.781-4.787 1.178-1.933 0.474-3.866 0.947-5.798 1.408-0.243 0.064-0.346 0.179-0.346 0.422-0.026 0.538-0.064 1.050-0.077 1.549z"></path>
<path d="M23.514 10.662c-0.026 2.854-0.397 5.658-1.536 8.32-0.87 2.022-2.112 3.75-3.994 4.954-0.538 0.346-1.139 0.589-1.702 0.883-0.282 0.141-0.55 0.128-0.845 0.013-2.099-0.819-3.686-2.24-4.838-4.147-1.165-1.92-1.779-4.032-2.138-6.234-0.243-1.549-0.307-3.11-0.269-4.685 0-0.294 0.102-0.422 0.384-0.499 2.355-0.563 4.698-1.139 7.040-1.702 0.154-0.038 0.333-0.026 0.474 0 2.342 0.563 4.698 1.139 7.040 1.702 0.256 0.064 0.384 0.179 0.384 0.435 0 0.333 0 0.64 0 0.96z"></path>
</svg>
