<!-- Generated by IcoMoon.io -->
<svg version="1.1" xmlns="http://www.w3.org/2000/svg" width="32" height="32" viewBox="0 0 32 32">
<title>GUP</title>
<path d="M16.218 10.688l4.506-4.506c-1.344-2.163-2.842-4.224-4.493-6.17-1.651 1.946-3.149 4.019-4.493 6.195l4.48 4.48z"></path>
<path d="M25.421 15.181c-1.216-2.675-2.445-5.171-3.853-7.59l-5.35 5.35-5.325-5.325c-1.331 2.291-2.509 4.685-3.674 7.283-1.267 3.52-3.341 7.309-1.562 10.688 3.072 5.824 10.278 8.077 16.102 5.005 2.138-1.126 3.878-2.88 5.005-5.005 1.779-3.366-0.077-6.886-1.344-10.406"></path>
</svg>
