<?xml version="1.0" encoding="utf-8"?>
<!-- Generator: Adobe Illustrator 22.0.1, SVG Export Plug-In . SVG Version: 6.00 Build 0)  -->
<svg version="1.1" id="Layer_1" xmlns="http://www.w3.org/2000/svg" xmlns:xlink="http://www.w3.org/1999/xlink" x="0px" y="0px"
	 viewBox="0 0 250 250" style="enable-background:new 0 0 250 250;" xml:space="preserve">
<style type="text/css">
	.st0{stroke:#FFFFFF;stroke-miterlimit:10;}
</style>
<g transform="translate(-295)">
	<path class="st0" d="M421.7,83.5l35.2-35.2c-10.5-16.9-22.2-33-35.1-48.2c-12.9,15.2-24.6,31.4-35.1,48.4L421.7,83.5z"/>
	<path class="st0" d="M493.6,118.6c-9.5-20.9-19.1-40.4-30.1-59.3l-41.8,41.8l-41.6-41.6c-10.4,17.9-19.6,36.6-28.7,56.9
		c-9.9,27.5-26.1,57.1-12.2,83.5c24,45.5,80.3,63.1,125.8,39.1c16.7-8.8,30.3-22.5,39.1-39.1C518,173.6,503.5,146.1,493.6,118.6"/>
</g>
</svg>
