<!-- Generated by IcoMoon.io -->
<svg version="1.1" xmlns="http://www.w3.org/2000/svg" width="32" height="32" viewBox="0 0 32 32">
<title>GUSD</title>
<path d="M0.141 20.966c-0.042-4.924 3.386-9.524 8.353-10.624 1.397-0.31 1.665-1.016 1.947-2.088 1.284-4.938 5.249-8.014 10.145-8.24 5.347-0.254 10.342 3.739 11.146 9.171 0.409 2.765 0.014 5.347-1.496 7.676-1.707 2.638-4.021 4.501-7.252 4.966-0.734 0.099-1.016 0.48-1.129 1.115-0.959 5.263-5.164 8.988-10.624 9.058-4.91 0.056-9.439-3.104-10.653-8.353-0.212-0.875-0.296-1.792-0.437-2.681zM12.289 9.877c5.813 0 11.471 0 17.284 0-0.226-2.54-1.439-4.402-3.259-5.813-2.667-2.060-5.686-2.455-8.804-1.115-2.935 1.27-4.614 3.584-5.22 6.928zM19.668 22.279c-5.785 0-11.372 0-16.931 0-0.48 1.566 1.679 5.009 4.049 6.377 2.822 1.651 6.758 1.524 9.411-0.522 1.848-1.425 3.316-3.175 3.471-5.855zM19.767 12.261c-2.54 0-4.938 0-7.379 0 0 2.596 0 5.051 0 7.534 2.511 0 4.896 0 7.379 0 0-2.554 0-4.981 0-7.534zM10.018 19.81c0-2.54 0-4.952 0-7.337-3.33-0.48-7.929 4.402-7.266 7.337 2.37 0 4.755 0 7.266 0zM22.236 19.584c3.57 0.071 7.549-4.275 7.153-7.337-2.356 0-4.713 0-7.153 0 0 2.526 0 4.91 0 7.337z"></path>
</svg>
