<!-- Generated by IcoMoon.io -->
<svg version="1.1" xmlns="http://www.w3.org/2000/svg" width="32" height="32" viewBox="0 0 32 32">
<title>GVT</title>
<path d="M0.294 7.834c0.909 0 1.818 0 2.752 0-0.474 4.736 0.922 8.742 4.531 11.853 2.624 2.253 5.722 3.29 9.165 3.046 8-0.576 12.006-7.36 12.032-11.955-6.63 0-13.248 0-20.045 0 0.256 0.742 0.41 1.472 0.73 2.112 1.267 2.496 3.315 3.917 6.144 4.045 2.765 0.115 4.915-1.062 6.4-3.379 0.294-0.448 0.576-0.653 1.114-0.614 0.717 0.051 1.446 0.013 2.266 0.013-0.077 0.256-0.115 0.461-0.192 0.64-1.549 3.878-5.811 6.579-9.83 6.221-4.685-0.422-8.384-3.533-9.216-7.885-0.218-1.114-0.115-2.278-0.179-3.43-0.026-0.563 0.205-0.704 0.755-0.704 7.040 0.026 14.080 0.013 21.12 0.013 1.229 0 2.47 0 3.699 0 0.819 4.288-0.858 10.842-6.374 14.822-5.402 3.891-12.698 3.981-18.061 0.307-5.811-3.994-7.603-10.662-6.81-15.104z"></path>
</svg>
