<?xml version="1.0" encoding="utf-8"?>
<!-- Generator: Adobe Illustrator 22.0.1, SVG Export Plug-In . SVG Version: 6.00 Build 0)  -->
<svg version="1.1" id="Layer_1" xmlns="http://www.w3.org/2000/svg" xmlns:xlink="http://www.w3.org/1999/xlink" x="0px" y="0px"
	 viewBox="0 0 250 250" style="enable-background:new 0 0 250 250;" xml:space="preserve">
<style type="text/css">
	.st0{stroke:#FFFFFF;stroke-miterlimit:10;}
</style>
<g>
	<g>
		<path class="st0" d="M2.3,61.2c7.1,0,14.2,0,21.5,0c-3.7,37,7.2,68.3,35.4,92.6c20.5,17.6,44.7,25.7,71.6,23.8
			c62.5-4.5,93.8-57.5,94-93.4c-51.8,0-103.5,0-156.6,0c2,5.8,3.2,11.5,5.7,16.5c9.9,19.5,25.9,30.6,48,31.6
			c21.6,0.9,38.4-8.3,50-26.4c2.3-3.5,4.5-5.1,8.7-4.8c5.6,0.4,11.3,0.1,17.7,0.1c-0.6,2-0.9,3.6-1.5,5
			c-12.1,30.3-45.4,51.4-76.8,48.6c-36.6-3.3-65.5-27.6-72-61.6c-1.7-8.7-0.9-17.8-1.4-26.8c-0.2-4.4,1.6-5.5,5.9-5.5
			c55,0.2,110,0.1,165,0.1c9.6,0,19.3,0,28.9,0c6.4,33.5-6.7,84.7-49.8,115.8c-42.2,30.4-99.2,31.1-141.1,2.4
			C10.1,148-3.9,95.9,2.3,61.2z"/>
	</g>
</g>
</svg>
