<!-- Generated by IcoMoon.io -->
<svg version="1.1" xmlns="http://www.w3.org/2000/svg" width="32" height="32" viewBox="0 0 32 32">
<title>GXS</title>
<path d="M1.637 1.651c2.032-2.131 5.742-2.215 7.845-0.155 2.187 2.145 4.36 4.303 6.504 6.49 2.286-2.173 4.416-4.487 6.716-6.646 2.187-1.975 5.898-1.735 7.831 0.48 1.989 2.088 1.961 5.714-0.113 7.746-2.116 2.159-4.275 4.289-6.42 6.434 2.187 2.258 4.473 4.416 6.631 6.702 1.947 2.131 1.764 5.771-0.353 7.732-2.074 2.102-5.799 2.102-7.873 0-2.159-2.116-4.261-4.275-6.406-6.406-2.286 2.201-4.459 4.501-6.773 6.688-2.215 1.961-5.94 1.665-7.845-0.578-1.919-2.074-1.877-5.616 0.127-7.633 1.877-1.933 3.781-3.824 5.7-5.714 0.804 0.804 1.608 1.608 2.413 2.413-1.877 1.947-3.866 3.795-5.714 5.771-1.256 1.284-0.155 3.668 1.608 3.64 1.058 0.099 1.792-0.79 2.483-1.453 1.834-1.862 3.697-3.711 5.531-5.573-3.965-4.049-8.028-8.028-12.007-12.092-2.074-2.088-2.018-5.827 0.113-7.845M3.951 7.069c2.116 2.215 4.317 4.332 6.476 6.504 1.044-1.058 2.088-2.102 3.146-3.146-2.088-2.088-4.162-4.205-6.279-6.279-0.677-0.734-1.82-1.002-2.709-0.48-1.213 0.593-1.608 2.413-0.635 3.4M24.663 4.205c-3.979 3.908-7.873 7.887-11.838 11.81 1.072 1.030 2.13 2.074 3.175 3.132 0.804-0.79 1.594-1.58 2.384-2.384 0.804 0.804 1.608 1.608 2.413 2.399-0.79 0.804-1.58 1.594-2.37 2.384 2.145 2.159 4.247 4.36 6.462 6.448 1.129 1.185 3.302 0.466 3.626-1.101 0.353-1.101-0.451-2.060-1.199-2.751-3.527-3.513-7.041-7.026-10.554-10.554 0.804-0.804 1.608-1.608 2.399-2.413 0.804 0.79 1.594 1.594 2.413 2.37 2.102-2.187 4.332-4.247 6.406-6.448 1.044-1.016 0.621-2.963-0.705-3.513-0.875-0.437-1.961-0.113-2.61 0.621v0z"></path>
</svg>
