<?xml version="1.0" encoding="utf-8"?>
<!-- Generator: Adobe Illustrator 22.0.1, SVG Export Plug-In . SVG Version: 6.00 Build 0)  -->
<svg version="1.1" id="Layer_1" xmlns="http://www.w3.org/2000/svg" xmlns:xlink="http://www.w3.org/1999/xlink" x="0px" y="0px"
	 viewBox="0 0 226.8 226.8" style="enable-background:new 0 0 226.8 226.8;" xml:space="preserve">
<style type="text/css">
	.st0{stroke:#FFFFFF;stroke-miterlimit:10;}
</style>
<path class="st0" d="M11.6,11.7C26-3.4,52.3-4,67.2,10.6c15.5,15.2,30.9,30.5,46.1,46c16.2-15.4,31.3-31.8,47.6-47.1
	c15.5-14,41.8-12.3,55.5,3.4c14.1,14.8,13.9,40.5-0.8,54.9c-15,15.3-30.3,30.4-45.5,45.6c15.5,16,31.7,31.3,47,47.5
	c13.8,15.1,12.5,40.9-2.5,54.8c-14.7,14.9-41.1,14.9-55.8,0c-15.3-15-30.2-30.3-45.4-45.4c-16.2,15.6-31.6,31.9-48,47.4
	c-15.7,13.9-42.1,11.8-55.6-4.1c-13.6-14.7-13.3-39.8,0.9-54.1c13.3-13.7,26.8-27.1,40.4-40.5c5.7,5.7,11.4,11.4,17.1,17.1
	c-13.3,13.8-27.4,26.9-40.5,40.9c-8.9,9.1-1.1,26,11.4,25.8c7.5,0.7,12.7-5.6,17.6-10.3c13-13.2,26.2-26.3,39.2-39.5
	C67.8,124.3,39,96.1,10.8,67.3C-3.9,52.5-3.5,26,11.6,11.7 M28,50.1c15,15.7,30.6,30.7,45.9,46.1c7.4-7.5,14.8-14.9,22.3-22.3
	C81.4,59.1,66.7,44.1,51.7,29.4c-4.8-5.2-12.9-7.1-19.2-3.4C23.9,30.2,21.1,43.1,28,50.1 M174.8,29.8
	c-28.2,27.7-55.8,55.9-83.9,83.7c7.6,7.3,15.1,14.7,22.5,22.2c5.7-5.6,11.3-11.2,16.9-16.9c5.7,5.7,11.4,11.4,17.1,17
	c-5.6,5.7-11.2,11.3-16.8,16.9c15.2,15.3,30.1,30.9,45.8,45.7c8,8.4,23.4,3.3,25.7-7.8c2.5-7.8-3.2-14.6-8.5-19.5
	c-25-24.9-49.9-49.8-74.8-74.8c5.7-5.7,11.4-11.4,17-17.1c5.7,5.6,11.3,11.3,17.1,16.8c14.9-15.5,30.7-30.1,45.4-45.7
	c7.4-7.2,4.4-21-5-24.9C187.1,22.3,179.4,24.6,174.8,29.8L174.8,29.8z"/>
</svg>
