<!-- Generated by IcoMoon.io -->
<svg version="1.1" xmlns="http://www.w3.org/2000/svg" width="32" height="32" viewBox="0 0 32 32">
<title>HADAX</title>
<path d="M20.473 10.723c0.014 1.651-0.649 2.949-1.58 4.162-0.804 1.044-1.75 1.947-2.695 2.85-2.709 2.681-4.571 5.884-5.785 9.467-0.24 0.705-0.451 1.425-0.621 2.173-0.071 0.353-0.141 0.367-0.409 0.127-4.557-3.993-4.825-10.794-0.635-15.153 0.536-0.564 1.157-1.030 1.707-1.58 2.286-2.328 3.795-5.065 4.332-8.31 0.226-1.326 0.31-2.667 0.183-4.007-0.014-0.113-0.071-0.24 0.071-0.31 0.127-0.056 0.212 0.056 0.296 0.127 1.199 1.058 2.187 2.286 3.019 3.64 1.185 1.919 1.82 4.007 2.088 6.222 0.028 0.24 0.014 0.451 0.028 0.593z"></path>
<path d="M16.268 32c-1.129-0.014-2.243-0.226-3.358-0.508-0.155-0.042-0.282-0.085-0.24-0.282 0.028-0.169 0.014-0.325 0.268-0.353 0.593-0.056 0.974-0.409 1.129-0.974 0.071-0.254 0.127-0.508 0.155-0.776 0.127-1.764 0.959-3.231 2.018-4.586 1.044-1.326 2.3-2.455 3.443-3.697 1.891-2.060 3.429-4.332 4.36-6.998 0.028-0.099 0.028-0.254 0.183-0.268s0.198 0.141 0.24 0.24c0.79 1.411 1.312 2.921 1.594 4.515 0.254 1.355 0.409 2.723 0.282 4.106-0.268 3.076-1.566 5.601-4.049 7.464-1.778 1.355-3.767 2.102-6.025 2.116z"></path>
</svg>
