<?xml version="1.0" encoding="utf-8"?>
<!-- Generator: Adobe Illustrator 22.1.0, SVG Export Plug-In . SVG Version: 6.00 Build 0)  -->
<svg version="1.1" id="Layer_1" xmlns="http://www.w3.org/2000/svg" xmlns:xlink="http://www.w3.org/1999/xlink" x="0px" y="0px"
	 viewBox="0 0 226.8 226.8" style="enable-background:new 0 0 226.8 226.8;" xml:space="preserve">
<g>
	<path d="M169.6,0c-4,9.7-8.1,19.3-12.1,29c-12.2,29.2-24.4,58.3-36.6,87.5c-2.3,5.4-4.5,10.8-6.8,16.2c-0.2,0.6-0.5,1.1-1.1,2.2
		C94.2,89.5,75.7,44.8,57.1,0c7.6,0,15.2,0,22.8,0c0.2,0.9,0.3,1.8,0.6,2.6c3.9,9.7,7.8,19.3,11.7,29c6.5,16.2,13,32.4,19.5,48.6
		c0.3,0.8,0.7,1.5,1.3,2.8c0.6-1.1,0.9-1.7,1.2-2.3c9.7-23.5,19.5-47.1,29.2-70.7c1.4-3.3,2.5-6.7,3.8-10C154.7,0,162.1,0,169.6,0z"
		/>
	<path d="M113,175.5c0.6-0.9,0.9-1.4,1.2-1.9c11.3-27.4,22.6-54.8,33.9-82.2c1.3-3.1,2.5-6.3,3.9-9.3c0.3-0.7,1.3-1.5,1.9-1.5
		c6.6-0.1,13.1-0.1,19.7,0c0.2,0,0.4,0.1,1,0.3c-20.4,48.7-40.8,97.3-61.2,146c-0.2,0-0.5,0-0.7,0c-20.1-48.6-40.3-97.2-60.5-146.1
		c1.1-0.1,1.8-0.2,2.6-0.2c5.9,0,11.7,0,17.6,0c1.7,0,2.5,0.5,3.2,2.1c5.5,13.9,11.1,27.7,16.7,41.6c6.6,16.4,13.2,32.8,19.8,49.2
		C112.2,173.9,112.5,174.4,113,175.5z"/>
</g>
</svg>
