<!-- Generated by IcoMoon.io -->
<svg version="1.1" xmlns="http://www.w3.org/2000/svg" width="32" height="32" viewBox="0 0 32 32">
<title>HAV</title>
<path d="M23.929 0c-0.564 1.369-1.143 2.723-1.707 4.092-1.721 4.12-3.443 8.226-5.164 12.346-0.325 0.762-0.635 1.524-0.959 2.286-0.028 0.085-0.071 0.155-0.155 0.31-2.653-6.406-5.263-12.713-7.887-19.034 1.072 0 2.145 0 3.217 0 0.028 0.127 0.042 0.254 0.085 0.367 0.55 1.369 1.101 2.723 1.651 4.092 0.917 2.286 1.834 4.571 2.751 6.857 0.042 0.113 0.099 0.212 0.183 0.395 0.085-0.155 0.127-0.24 0.169-0.325 1.369-3.316 2.751-6.646 4.12-9.975 0.198-0.466 0.353-0.945 0.536-1.411 1.058 0 2.102 0 3.16 0z"></path>
<path d="M15.944 24.762c0.085-0.127 0.127-0.198 0.169-0.268 1.594-3.866 3.189-7.732 4.783-11.598 0.183-0.437 0.353-0.889 0.55-1.312 0.042-0.099 0.183-0.212 0.268-0.212 0.931-0.014 1.848-0.014 2.78 0 0.028 0 0.056 0.014 0.141 0.042-2.878 6.871-5.757 13.728-8.635 20.6-0.028 0-0.071 0-0.099 0-2.836-6.857-5.686-13.714-8.536-20.614 0.155-0.014 0.254-0.028 0.367-0.028 0.832 0 1.651 0 2.483 0 0.24 0 0.353 0.071 0.451 0.296 0.776 1.961 1.566 3.908 2.356 5.869 0.931 2.314 1.862 4.628 2.794 6.942 0.014 0.056 0.056 0.127 0.127 0.282z"></path>
</svg>
