<!-- Generated by IcoMoon.io -->
<svg version="1.1" xmlns="http://www.w3.org/2000/svg" width="32" height="32" viewBox="0 0 32 32">
<title>HITBTC</title>
<path d="M28.981 4.642l1.383-0.226 0.875 0.508-4.938 2.935 0.847-1.989z"></path>
<path d="M10.258 13.065l-0.409 3.429-2.159 2.060c-2.441-1.397-4.91-2.751-7.323-4.176l5.489-1.947 4.402 0.635z"></path>
<path d="M11.725 7.295l0.071 2.907-1.552 2.864 4.487-3.245 5.136-1.439-0.296 2.892-2.413 1.778-3.33 0.847-3.584-0.832-9.905 1.312c3.781-2.37 7.577-4.797 11.386-7.083z"></path>
<path d="M10.258 13.065l6.914-0.014-1.157 3.485-2.314 2.201-2.568-2.328-0.875-3.344zM17.171 13.051l3.513 0.071 2.526 1.425v0.014l0.917 6.208-0.889 5.954-4.755-8.296-1.312-5.376z"></path>
<path d="M23.21 14.533l1.016 1.679 1.961 2.342 1.975 4.162-1.651 0.282-2.272-3.302z"></path>
<path d="M23.817 10.836l0.282 2.13-0.889 1.58-6.039-1.496 3.711-2.102 2.935-0.113zM23.21 14.533l3.316 8.466-3.287 3.725-0.028-12.19z"></path>
<path d="M20.727 6.928l3.429-1.82 0.79 2.413-1.129 3.316-2.399-1.623z"></path>
<path d="M24.226 16.212c0.748 0 1.496 0 2.243 0 0.564 2.159 1.129 4.332 1.693 6.504l-3.936-6.504z"></path>
<path d="M19.88 8.381l0.847-1.439c1.002 1.242 2.004 2.511 3.005 3.753l0.085 0.127-6.646 2.215 2.709-4.656-9.637 4.684 1.481-5.771 8.155 1.086z"></path>
<path d="M24.155 5.108l4.811-0.452-5.15 6.18z"></path>
<path d="M28.981 4.642l2.878-3.527-0.621 3.81z"></path>
<path d="M26.511 22.998l1.369 0.776-4.656 2.949 1.425-3.005z"></path>
<path d="M23.817 10.836l3.062 5.065-3.668-1.369z"></path>
<path d="M17.171 13.051l0.677 4.148-0.959 2.892-1.891 0.24-1.298-1.594 1.002 4.755-0.254 7.125-6.772-12.063 2.681-1.030 3.344 1.213z"></path>
<path d="M10.258 13.065c1.157 1.877 2.3 3.795 3.443 5.672l-6.025-0.183 2.582-5.489z"></path>
<path d="M17.171 13.051l6.053 13.672-6.335-6.631z"></path>
<path d="M13.7 18.737l3.189 1.355-2.441 10.526z"></path>
</svg>
