<?xml version="1.0" encoding="utf-8"?>
<!-- Generator: Adobe Illustrator 22.0.1, SVG Export Plug-In . SVG Version: 6.00 Build 0)  -->
<svg version="1.1" id="Layer_1" xmlns="http://www.w3.org/2000/svg" xmlns:xlink="http://www.w3.org/1999/xlink" x="0px" y="0px"
	 viewBox="0 0 250 250" style="enable-background:new 0 0 250 250;" xml:space="preserve">
<style type="text/css">
	.st0{stroke:#FFFFFF;stroke-miterlimit:10;}
</style>
<path class="st0" d="M125.8,0c69,0,125,56,125,125c0,69-56,125-125,125c-69,0-125-56-125-125C0.8,56,56.7,0,125.8,0L125.8,0z
	 M30.3,193h190.4v0.5c5.7-7.9,10.4-16.5,14-25.7l-36.9-59.9L155,178.3c-1,1.6-3.2,2.2-4.8,1.2l0,0c-1.6-1-2.2-3.2-1.2-4.8l28.3-46.4
	c-1.6,0.6-3.4,0-4.3-1.4l-48.7-80.3l-45.4,74.7c-1,1.6-3.1,2.2-4.8,1.2l31.9,52.2c1,1.6,0.5,3.8-1.2,4.8l0,0c-1.6,1-3.8,0.5-4.8-1.2
	l-42.9-70.3l-38.9,63.5C21.5,179.1,25.6,186.3,30.3,193L30.3,193z M215.5,200.3H36c2,2.4,4.2,4.8,6.4,7h166.6
	C211.3,205.1,213.4,202.7,215.5,200.3L215.5,200.3z M201.1,214.7H50.4c2.6,2.2,5.3,4.3,8.1,6.2H193
	C195.8,219,198.5,216.9,201.1,214.7L201.1,214.7z M181.1,228.3H70.5c3.8,2,7.7,3.9,11.7,5.5h87.2
	C173.4,232.1,177.3,230.3,181.1,228.3L181.1,228.3z M141.3,241.1h-31.2c5.1,0.7,10.3,1,15.6,1C131,242.1,136.2,241.8,141.3,241.1
	L141.3,241.1z M126.3,36.6c0.8,0.5,1.4,1.3,1.6,2.2l51.1,84.4c0.3,0.5,0.4,1,0.5,1.5l14.9-24.4c0.2-0.9,0.8-1.7,1.6-2.2l0,0
	c1.6-1,3.8-0.5,4.8,1.2l37,60.1c3.3-10.8,5.1-22.3,5.1-34.3c0-64.7-52.4-117.1-117.1-117.1C61.1,7.9,8.6,60.3,8.6,125
	c0,13.4,2.3,26.3,6.4,38.2l39.2-64.1c1-1.6,3.2-2.2,4.8-1.2l0,0c0.8,0.5,1.4,1.3,1.6,2.2l11.8,19.3c0-0.7,0.1-1.4,0.5-2.1l48.5-79.8
	C122.5,36.1,124.7,35.5,126.3,36.6L126.3,36.6z"/>
</svg>
