<!-- Generated by IcoMoon.io -->
<svg version="1.1" xmlns="http://www.w3.org/2000/svg" width="32" height="32" viewBox="0 0 32 32">
<title>HKG</title>
<path d="M16.102 0c8.832 0 16 7.168 16 16s-7.168 16-16 16c-8.832 0-16-7.168-16-16s7.155-16 16-16v0zM3.878 24.704h24.371v0.064c0.73-1.011 1.331-2.112 1.792-3.29l-4.723-7.667-5.478 9.011c-0.128 0.205-0.41 0.282-0.614 0.154v0c-0.205-0.128-0.282-0.41-0.154-0.614l3.622-5.939c-0.205 0.077-0.435 0-0.55-0.179l-6.234-10.278-5.811 9.562c-0.128 0.205-0.397 0.282-0.614 0.154l4.083 6.682c0.128 0.205 0.064 0.486-0.154 0.614v0c-0.205 0.128-0.486 0.064-0.614-0.154l-5.491-8.998-4.979 8.128c0.422 0.973 0.947 1.894 1.549 2.752v0zM27.584 25.638h-22.976c0.256 0.307 0.538 0.614 0.819 0.896h21.325c0.294-0.282 0.563-0.589 0.832-0.896v0zM25.741 27.482h-19.29c0.333 0.282 0.678 0.55 1.037 0.794h17.216c0.358-0.243 0.704-0.512 1.037-0.794v0zM23.181 29.222h-14.157c0.486 0.256 0.986 0.499 1.498 0.704h11.162c0.512-0.218 1.011-0.448 1.498-0.704v0zM18.086 30.861h-3.994c0.653 0.090 1.318 0.128 1.997 0.128s1.344-0.038 1.997-0.128v0zM16.166 4.685c0.102 0.064 0.179 0.166 0.205 0.282l6.541 10.803c0.038 0.064 0.051 0.128 0.064 0.192l1.907-3.123c0.026-0.115 0.102-0.218 0.205-0.282v0c0.205-0.128 0.486-0.064 0.614 0.154l4.736 7.693c0.422-1.382 0.653-2.854 0.653-4.39 0-8.282-6.707-14.989-14.989-14.989-8.282-0.013-15.002 6.694-15.002 14.976 0 1.715 0.294 3.366 0.819 4.89l5.018-8.205c0.128-0.205 0.41-0.282 0.614-0.154v0c0.102 0.064 0.179 0.166 0.205 0.282l1.51 2.47c0-0.090 0.013-0.179 0.064-0.269l6.208-10.214c0.141-0.179 0.422-0.256 0.627-0.115v0z"></path>
</svg>
