<!-- Generated by IcoMoon.io -->
<svg version="1.1" xmlns="http://www.w3.org/2000/svg" width="32" height="32" viewBox="0 0 32 32">
<title>HMC</title>
<path d="M25.989 28.444c0-0.296 0-0.494 0-0.691 0-5.601 0-11.217 0-16.818 0-0.353-0.071-0.593-0.409-0.776-1.665-0.931-3.316-1.905-4.966-2.85-0.113-0.056-0.226-0.099-0.423-0.198 0 0.395 0 0.734 0 1.058 0 1.030 0 2.060-0.014 3.076 0 0.183-0.028 0.423-0.155 0.55-1.326 1.354-2.653 2.681-4.049 4.078-1.086-1.101-2.088-2.215-3.203-3.203-0.762-0.677-1.016-1.397-0.974-2.399 0.071-2.074 0.014-4.148 0.028-6.222 0-0.268 0.085-0.564 0.212-0.804 0.494-0.917 1.044-1.806 1.552-2.723 0.155-0.282 0.339-0.409 0.677-0.437 7.675-0.72 14.462 3.668 16.945 10.963 2.032 5.996 0 13.164-4.882 17.157-0.085 0.056-0.169 0.113-0.339 0.24z"></path>
<path d="M5.996 3.556c0 0.282 0 0.48 0 0.663 0 5.573 0.014 11.146-0.014 16.72 0 0.48 0.141 0.734 0.564 0.959 1.58 0.875 3.132 1.792 4.684 2.695 0.155 0.085 0.31 0.169 0.55 0.296 0-2.243 0-4.43 0-6.716 1.411 1.439 2.737 2.808 4.12 4.219 1.453-1.481 2.78-2.85 4.106-4.205 0.056 0.028 0.113 0.042 0.169 0.071 0 0.183 0 0.367 0 0.55 0 2.991 0.014 5.982-0.014 8.974 0 0.325-0.099 0.677-0.254 0.959-0.494 0.917-1.016 1.82-1.566 2.709-0.113 0.198-0.395 0.381-0.621 0.395-7.139 0.72-13.503-2.991-16.423-9.552-2.822-6.307-0.917-14.222 4.444-18.582 0.042-0.028 0.099-0.056 0.254-0.155z"></path>
</svg>
