<?xml version="1.0" encoding="utf-8"?>
<!-- Generator: Adobe Illustrator 22.1.0, SVG Export Plug-In . SVG Version: 6.00 Build 0)  -->
<svg version="1.1" id="Layer_1" xmlns="http://www.w3.org/2000/svg" xmlns:xlink="http://www.w3.org/1999/xlink" x="0px" y="0px"
	 viewBox="0 0 226.8 226.8" style="enable-background:new 0 0 226.8 226.8;" xml:space="preserve">
<g>
	<path d="M184.2,201.6c0-2.1,0-3.5,0-4.9c0-39.7,0-79.5,0-119.2c0-2.5-0.5-4.2-2.9-5.5c-11.8-6.6-23.5-13.5-35.2-20.2
		c-0.8-0.4-1.6-0.7-3-1.4c0,2.8,0,5.2,0,7.5c0,7.3,0,14.6-0.1,21.8c0,1.3-0.2,3-1.1,3.9c-9.4,9.6-18.8,19-28.7,28.9
		c-7.7-7.8-14.8-15.7-22.7-22.7c-5.4-4.8-7.2-9.9-6.9-17c0.5-14.7,0.1-29.4,0.2-44.1c0-1.9,0.6-4,1.5-5.7c3.5-6.5,7.4-12.8,11-19.3
		c1.1-2,2.4-2.9,4.8-3.1c54.4-5.1,102.5,26,120.1,77.7c14.4,42.5,0,93.3-34.6,121.6C186,200.3,185.4,200.7,184.2,201.6z"/>
	<path d="M42.5,25.2c0,2,0,3.4,0,4.7c0,39.5,0.1,79-0.1,118.5c0,3.4,1,5.2,4,6.8c11.2,6.2,22.2,12.7,33.2,19.1
		c1.1,0.6,2.2,1.2,3.9,2.1c0-15.9,0-31.4,0-47.6c10,10.2,19.4,19.9,29.2,29.9c10.3-10.5,19.7-20.2,29.1-29.8
		c0.4,0.2,0.8,0.3,1.2,0.5c0,1.3,0,2.6,0,3.9c0,21.2,0.1,42.4-0.1,63.6c0,2.3-0.7,4.8-1.8,6.8c-3.5,6.5-7.2,12.9-11.1,19.2
		c-0.8,1.4-2.8,2.7-4.4,2.8C75,230.8,29.9,204.5,9.2,158C-10.8,113.3,2.7,57.2,40.7,26.3C41,26.1,41.4,25.9,42.5,25.2z"/>
</g>
</svg>
