<!-- Generated by IcoMoon.io -->
<svg version="1.1" xmlns="http://www.w3.org/2000/svg" width="32" height="32" viewBox="0 0 32 32">
<title>HMQ</title>
<path d="M2.189 17.984c0.922-1.165 1.638-2.458 2.406-3.725 0.32-0.525 0.358-1.114 0.141-1.69-0.358-0.909-0.461-1.856-0.512-2.816-0.102-1.766 0.474-3.366 1.28-4.902 0.64-1.229 1.408-2.381 2.445-3.328 0.474-0.435 1.011-0.73 1.638-0.934 0.64-0.205 1.242-0.32 1.843 0.026 0.064 0.038 0.128 0.051 0.205 0.051 0.435-0.013 0.87 0.026 1.28 0.23 0.102 0.064 0.23 0 0.358-0.038 1.421-0.512 2.867-0.883 4.39-0.781 1.267 0.090 2.509 0.32 3.738 0.678 1.114 0.32 2.163 0.742 3.136 1.37 2.278 1.498 3.686 3.622 4.403 6.221 0.333 1.19 0.474 2.406 0.474 3.187 0 2.586-0.461 4.621-1.306 6.579-0.589 1.37-1.178 2.739-1.702 4.134-0.486 1.293-0.858 2.624-1.011 4.006-0.026 0.23-0.038 0.461-0.051 0.678s-0.013 0.422 0.179 0.576c0.090 0.064 0.128 0.154-0.038 0.205-0.128 0.026-0.090 0.128-0.051 0.218 0.282 0.666 0.307 1.37 0.205 2.061-0.077 0.486-0.384 0.845-0.858 0.986-0.602 0.192-1.216 0.346-1.83 0.499-0.397 0.102-0.794 0-1.178-0.090-0.768-0.192-1.523-0.269-2.33-0.141-0.678 0.115-1.37 0.115-2.061 0.051-0.538-0.051-1.024-0.333-1.51-0.538-0.909-0.397-1.587-1.050-2.176-1.83-0.499-0.666-0.973-1.357-1.651-1.843-0.41-0.294-0.819-0.666-1.408-0.55-0.051 0.013-0.115-0.013-0.154 0.013-0.486 0.256-1.088 0.269-1.51 0.666-0.346 0.333-0.806 0.499-1.216 0.73-0.090 0.051-0.269 0.064-0.205 0.256 0.013 0.051-0.090 0.090-0.141 0.090-0.538-0.038-1.075 0.102-1.613 0.013-0.461-0.077-0.832-0.269-1.062-0.653-0.474-0.781-0.666-1.613-0.371-2.509 0.154-0.486-0.115-0.806-0.422-1.075-0.256-0.23-0.333-0.486-0.294-0.806 0.026-0.192 0.090-0.371 0.23-0.525 0.154-0.154 0.192-0.307-0.038-0.41-0.384-0.192-0.486-0.563-0.294-0.973 0.461-0.96 0-1.434-0.934-1.869"></path>
<path d="M11.571 3.418c-0.013-0.013-0.051-0.038-0.051-0.038-0.038 0.026-0.013 0.051 0.013 0.077 0.013 0.026 0.026 0.038 0.038 0.064 0.102 0.243 0.243 0.474 0.41 0.678 0.051 0.064 0.102 0.141 0.192 0.141 0.243 0 0.32 0.179 0.422 0.346 0.23 0.41 0.218 0.397 0.64 0.192 1.062-0.525 2.202-0.832 3.379-0.883 1.254-0.051 2.483 0.128 3.686 0.461 2.381 0.64 4.237 1.984 5.453 4.134 1.267 2.24 1.51 4.659 1.139 7.181-0.141 0.934-0.486 1.805-0.806 2.675-0.576 1.626-1.139 3.238-1.472 4.941-0.038 0.205-0.090 0.422-0.128 0.64 0.166-0.141 0.154-0.333 0.192-0.512 0.41-1.933 1.101-3.789 1.818-5.632 0.486-1.242 0.781-2.522 0.845-3.853 0.077-1.664-0.154-3.277-0.794-4.826-0.858-2.086-2.266-3.674-4.314-4.659-1.37-0.653-2.816-0.986-4.326-1.114-1.6-0.141-3.136 0.128-4.57 0.858-0.461 0.23-0.55 0.218-0.845-0.205-0.077-0.102-0.115-0.256-0.269-0.269-0.256-0.013-0.422-0.166-0.589-0.333-0.026-0.026-0.038-0.051-0.064-0.064"></path>
<path d="M12.454 7.309c0 0 0.013 0.013 0.013 0.013s0 0 0.013 0c-0.013 0-0.026 0-0.026-0.013-0.051-0.205 0.013-0.474-0.269-0.576 0-0.013 0-0.013 0-0.026 0 0-0.013-0.013-0.013-0.013 0 0.013 0.013 0.013 0.026 0.026 0.038 0.218 0.026 0.461 0.256 0.589"></path>
<path d="M21.67 26.125c0 0-0.013-0.013-0.013-0.013 0.013 0 0.013 0.013 0.013 0.013 0.090 0.166 0.090 0.41 0.397 0.358 0.422-0.064 0.832-0.115 1.254-0.141 0.256-0.013 0.384-0.154 0.435-0.371 0.051-0.179 0.051-0.346 0.026-0.602-0.102 0.32-0.179 0.576-0.512 0.589-0.538 0.038-1.062 0.090-1.6 0.166"></path>
<path d="M12.109 5.965c-0.013-0.026-0.026-0.077-0.064-0.051-0.026 0.013-0.013 0.064 0.026 0.077 0.013 0.192 0.064 0.397 0.205 0.499 0.205 0.154 0.256 0.358 0.333 0.576 0.026 0.102 0.077 0.205 0.090 0.307 0.051 0.218 0.141 0.205 0.294 0.090 1.229-0.883 2.637-1.152 4.096-1.19 0.781-0.026 1.536 0.166 2.291 0.358 2.15 0.55 3.878 1.69 5.030 3.635 0.755 1.28 1.139 2.688 1.216 4.173 0.051 0.934 0.013 1.882-0.269 2.778-0.448 1.421-0.87 2.842-1.178 4.301-0.051 0.243-0.128 0.499-0.154 0.742s-0.102 0.486-0.064 0.73c0.013-0.026 0.026-0.064 0.038-0.090 0.282-1.677 0.742-3.302 1.306-4.902 0.666-1.83 0.794-3.699 0.371-5.594-0.717-3.162-2.586-5.286-5.734-6.208-1.382-0.41-2.79-0.589-4.237-0.333-0.934 0.166-1.818 0.499-2.624 1.011-0.256 0.166-0.397 0.128-0.525-0.141-0.077-0.154-0.128-0.333-0.192-0.499-0.026-0.154-0.090-0.256-0.256-0.269"></path>
<path d="M22.669 18.675c0-0.256 0-0.512 0.038-0.768 0.192-1.741-0.23-3.328-1.37-4.672-0.627-0.742-1.459-1.242-2.342-1.626-1.408-0.602-2.829-0.64-4.262-0.115-0.755 0.282-1.395 0.742-1.984 1.28-0.038-0.102-0.026-0.205 0-0.307 0.141-0.115 0.269-0.256 0.422-0.358 1.613-1.114 3.379-1.434 5.274-0.883 2.278 0.653 3.725 2.15 4.352 4.429 0.192 0.73 0.23 1.472 0.141 2.227-0.090 0.691-0.038 1.408-0.166 2.099-0.013 0.102-0.038 0.218 0.064 0.282 0.090-0.781 0.128-1.562 0.256-2.342 0.243-1.408 0.051-2.752-0.563-4.032-1.408-2.957-4.736-4.045-7.411-3.277-0.896 0.256-1.664 0.742-2.368 1.344-0.026-0.102-0.026-0.218 0-0.333 0.256-0.179 0.499-0.384 0.781-0.55 2.176-1.318 4.39-1.203 6.566-0.064 2.419 1.267 3.61 4.045 3.238 6.63-0.179 1.267-0.307 2.547-0.371 3.827 0.038-0.256 0.064-0.499 0.090-0.755 0.102-0.96 0.205-1.907 0.41-2.854 0.358-1.638 0.154-3.213-0.602-4.698-0.947-1.856-2.483-2.982-4.518-3.405-1.51-0.32-2.957-0.192-4.339 0.525-0.448 0.23-0.832 0.55-1.254 0.832-0.026-0.115-0.026-0.23 0-0.346 0.499-0.294 0.986-0.64 1.523-0.845 1.152-0.435 2.342-0.563 3.558-0.435 1.395 0.154 2.624 0.653 3.674 1.574 1.203 1.062 1.92 2.394 2.202 3.968 0.166 0.922 0.179 1.843-0.038 2.778-0.205 0.934-0.307 1.894-0.397 2.854 0.090-0.397 0.154-0.806 0.23-1.203 0.141-0.768 0.32-1.536 0.486-2.304 0.154-0.73 0.115-1.472 0.013-2.214-0.256-1.843-1.062-3.405-2.509-4.595-1.101-0.896-2.381-1.331-3.776-1.498-1.574-0.192-3.034 0.115-4.365 0.998-0.205 0.128-0.358 0.333-0.614 0.397 0-0.051 0-0.090 0-0.141 0.154-0.179 0.307-0.346 0.512-0.461 0.576-0.307 1.152-0.602 1.779-0.806 1.178-0.371 2.355-0.32 3.558-0.064 2.406 0.512 4.122 1.882 5.094 4.147 0.576 1.331 0.781 2.752 0.525 4.173-0.218 1.19-0.499 2.381-0.691 3.584-0.038 0.243-0.077 0.474-0.128 0.73 0.102-0.038 0.090-0.090 0.090-0.128 0.115-0.602 0.218-1.216 0.346-1.818 0.166-0.832 0.422-1.638 0.589-2.458 0.218-1.011 0.166-2.035-0.038-3.046-0.371-1.792-1.229-3.29-2.701-4.416-1.088-0.832-2.342-1.242-3.674-1.434-1.562-0.23-3.034 0-4.416 0.806-0.294 0.166-0.525 0.422-0.845 0.525-0.038-0.090-0.026-0.166-0.013-0.256 0.102 0 0.154-0.077 0.23-0.128 0.614-0.435 1.254-0.858 2.010-1.050 1.472-0.358 2.931-0.294 4.378 0.154 1.933 0.589 3.43 1.702 4.403 3.482 0.666 1.216 0.973 2.522 0.998 3.904 0.013 0.576-0.013 1.152-0.166 1.702-0.435 1.523-0.755 3.072-0.973 4.659 0.077-0.026 0.077-0.090 0.077-0.128 0.141-0.96 0.358-1.907 0.602-2.842 0.179-0.678 0.422-1.331 0.563-2.010 0.218-1.075 0.205-2.176 0.013-3.264-0.333-1.792-1.114-3.341-2.496-4.544-1.101-0.96-2.394-1.459-3.802-1.728-1.958-0.371-3.789-0.115-5.453 1.037-0.102 0.077-0.205 0.179-0.358 0.154-0.013-0.077-0.051-0.154 0.038-0.218 0.128-0.013 0.218-0.115 0.32-0.179 0.384-0.256 0.806-0.486 1.229-0.653 1.178-0.486 2.394-0.589 3.635-0.422 1.267 0.166 2.483 0.486 3.571 1.165 2.394 1.51 3.482 3.776 3.648 6.541 0.064 1.062-0.077 2.099-0.41 3.123-0.397 1.19-0.589 2.419-0.909 3.635-0.013 0.038-0.013 0.090 0.051 0.102 0.064-0.038 0.064-0.115 0.077-0.179 0.166-0.845 0.384-1.677 0.627-2.509 0.205-0.717 0.499-1.408 0.64-2.125 0.384-1.971 0.23-3.917-0.602-5.773-0.653-1.446-1.638-2.586-3.008-3.392-1.011-0.602-2.125-0.922-3.29-1.114-1.907-0.307-3.686-0.013-5.312 1.075-0.141 0.090-0.269 0.141-0.422 0.026-0.038 0.179 0.051 0.307 0.051 0.448-0.192 0-0.371 0.038-0.563-0.013-0.013-0.090 0-0.205-0.141-0.192-0.294 0.013-0.602 0.013-0.896 0.013-0.128 0-0.166 0.077-0.154 0.192-0.064 0.077-0.064 0.179-0.064 0.269-0.013 0.589-0.051 1.19-0.064 1.779-0.013 1.114-0.166 2.214-0.128 3.328 0.026 0.973 0.026 1.958-0.038 2.931-0.038 0.55-0.141 1.088-0.115 1.638 0.013 0.32 0.090 0.64 0.102 0.973 0.026 0.858 0.026 1.728 0.051 2.586 0 0.282 0.013 0.563 0.013 0.845 0 0.218 0.077 0.294 0.294 0.192 0.435-0.064 0.87 0.013 1.293 0 0.051 0.077-0.102 0.269 0.115 0.243 0.499-0.090 0.934 0.102 1.37 0.307 0.614 0.282 1.178 0.678 1.741 1.050 1.075 0.691 2.24 1.19 3.405 1.702 0.371 0.166 0.717 0.448 1.101 0.499 0.589 0.077 0.922 0.435 1.254 0.832 0.23 0.269 0.448 0.538 0.691 0.806 0.115 0.115 0.243 0.243 0.435 0.192 0.435-0.115 0.883-0.166 1.331-0.23 0.563-0.090 0.87-0.602 0.691-1.178-0.090 0.499-0.358 0.755-0.858 0.794-0.435 0.038-0.858 0.128-1.28 0.205-0.154 0.026-0.282-0.013-0.384-0.128s-0.205-0.218-0.294-0.346c-0.32-0.422-0.55-0.896-0.909-1.306-0.115-0.141-0.243-0.282-0.422-0.294s-0.307-0.102-0.448-0.192c-0.192-0.115-0.384-0.243-0.589-0.358-1.485-0.845-3.059-1.536-4.531-2.406-0.602-0.358-1.242-0.627-1.971-0.602 0-0.051 0-0.115 0-0.179 0.102 0 0.192-0.013 0.294 0 0.576 0.038 1.101 0.243 1.6 0.512 1.331 0.73 2.662 1.446 4.019 2.125 0.461 0.23 0.896 0.499 1.318 0.781 0.205 0.141 0.486 0.102 0.678 0.282 0.205 0.205 0.384 0.435 0.55 0.678 0.256 0.371 0.461 0.768 0.768 1.101 0.077 0.090 0.154 0.179 0.294 0.141 0.461-0.115 0.934-0.154 1.408-0.218 0.269-0.038 0.422-0.192 0.512-0.435 0.077-0.205 0.090-0.41 0.051-0.627-0.064 0.013-0.051 0.064-0.064 0.102-0.102 0.333-0.294 0.538-0.678 0.576-0.371 0.026-0.73 0.090-1.101 0.141-0.525 0.064-0.563 0.051-0.832-0.422s-0.512-0.96-0.781-1.446c-0.102-0.192-0.218-0.397-0.422-0.461-0.218-0.064-0.358-0.205-0.525-0.32-0.205-0.141-0.384-0.307-0.589-0.448-1.408-0.947-2.957-1.651-4.48-2.368-0.627-0.294-1.306-0.499-2.022-0.307v-0.192c0.538-0.154 1.062-0.038 1.587 0.128 0.781 0.243 1.485 0.64 2.202 1.011 1.203 0.614 2.445 1.178 3.494 2.074 0.077 0.064 0.154 0.166 0.256 0.192 0.333 0.064 0.512 0.307 0.666 0.563 0.141 0.23 0.269 0.474 0.41 0.717-0.115-0.397-0.269-0.781-0.422-1.165s-0.384-0.691-0.73-0.947c-0.397-0.294-0.704-0.691-1.114-0.973-1.267-0.896-2.65-1.562-4.096-2.099-0.73-0.269-1.485-0.41-2.24-0.064 0-0.064 0-0.141 0-0.205 0.474-0.218 0.973-0.218 1.472-0.128 0.909 0.154 1.728 0.55 2.547 0.947 1.306 0.627 2.573 1.293 3.546 2.394 0.026 0.026 0.051 0.051 0.090 0.064 0.269 0.077 0.384 0.294 0.512 0.512 0.051 0.077 0.064 0.179 0.23 0.294-0.269-0.602-0.397-1.139-0.806-1.626-0.806-0.973-1.741-1.728-2.867-2.278-0.909-0.435-1.805-0.883-2.816-1.011-0.691-0.090-1.344 0.013-1.907 0.474-0.026-0.090-0.038-0.192 0.026-0.282 0.614-0.422 1.318-0.499 2.022-0.371 1.472 0.256 2.765 0.947 4.019 1.728 0.845 0.538 1.434 1.357 2.112 2.099-0.013-0.243-0.102-0.448-0.141-0.653h0.23c0.090 0.013 0.166 0.026 0.256 0.038 0 0.192 0.077 0.282 0.282 0.256 0.243-0.026 0.486-0.026 0.73 0 0.205 0.013 0.32-0.026 0.32-0.243 0.064-0.077 0.064-0.154 0.064-0.243-0.026-1.293-0.051-2.547 0.013-3.802"></path>
<path d="M3.11 19.571c0.794 0.55 0.87 0.947 0.602 1.664-0.218 0.576-0.192 0.64 0.282 1.024 0.166 0.128 0.179 0.282 0.064 0.435-0.435 0.614-0.422 0.819 0.077 1.37 0.307 0.346 0.474 0.717 0.32 1.229-0.243 0.781-0.064 1.536 0.358 2.227 0.166 0.269 0.384 0.499 0.704 0.576 0.512 0.115 1.037 0.090 1.562 0.064 0.141 0 0.243-0.090 0.358-0.179-0.102-0.077-0.179-0.064-0.256-0.051-0.333 0.051-0.653-0.013-0.973-0.013-0.435 0-0.794-0.192-1.024-0.55-0.461-0.704-0.653-1.498-0.435-2.317 0.128-0.499 0-0.858-0.333-1.19-0.384-0.384-0.422-0.883-0.077-1.306 0.154-0.179 0.115-0.294-0.051-0.41-0.32-0.205-0.397-0.486-0.294-0.819 0.038-0.141 0.090-0.282 0.141-0.422 0.141-0.397 0.064-0.73-0.243-1.011-0.243-0.218-0.486-0.435-0.819-0.525"></path>
<path d="M3.11 17.485c0.691-1.024 1.318-2.086 1.907-3.174 0.218-0.397 0.307-0.845 0.179-1.306-0.179-0.64-0.384-1.267-0.461-1.92-0.154-1.242-0.154-2.47 0.23-3.661 0.589-1.805 1.446-3.482 2.688-4.941 0.589-0.691 1.267-1.254 2.202-1.408 0.141-0.026 0.282-0.064 0.41-0.115 0.243-0.102 0.474-0.064 0.691 0.038 0.179 0.090 0.358 0.192 0.538 0.294 0.154 0.077 0.307 0.179 0.474 0.141 0.282-0.064 0.499 0.051 0.704 0.205 0.179 0.128 0.358 0.154 0.576 0.064 0.845-0.358 1.728-0.614 2.65-0.717 0.678-0.077 1.357-0.141 2.035-0.064 0.73 0.090 1.459 0.23 2.189 0.346 2.573 0.435 4.749 1.587 6.4 3.635 1.165 1.459 1.856 3.123 2.189 4.954 0.23 1.254 0.282 2.534 0.154 3.789-0.102 1.101-0.307 2.176-0.678 3.226-0.41 1.126-0.883 2.214-1.331 3.315-0.691 1.741-1.357 3.482-1.613 5.35-0.064 0.448-0.102 0.896-0.038 1.357 0.013-0.499 0.064-0.998 0.154-1.498 0.307-1.741 0.934-3.379 1.6-5.005 0.499-1.216 1.075-2.419 1.498-3.674 0.602-1.754 0.845-3.558 0.781-5.402-0.064-1.587-0.371-3.123-0.998-4.595-0.896-2.086-2.317-3.725-4.314-4.813-2.010-1.101-4.198-1.574-6.477-1.664-1.434-0.064-2.829 0.23-4.16 0.742-0.102 0.038-0.23 0.115-0.333 0.064-0.461-0.205-0.96-0.256-1.459-0.282-0.064 0-0.141-0.038-0.205-0.064-0.474-0.23-0.96-0.256-1.472-0.026-0.282 0.128-0.602 0.141-0.87 0.294-0.678 0.397-1.242 0.934-1.741 1.523-0.845 1.024-1.472 2.163-2.022 3.354-0.525 1.126-0.832 2.304-0.819 3.546 0 0.947 0.051 1.894 0.397 2.79 0.32 0.832 0.333 1.6-0.154 2.368-0.742 1.178-1.421 2.406-2.278 3.494"></path>
<path d="M3.251 18.074c0.026-0.051 0.051-0.090 0.077-0.128 0.115-0.166 0.243-0.32 0.358-0.499 0.627-0.96 1.165-1.971 1.715-2.982 0.282-0.512 0.333-1.050 0.154-1.587s-0.307-1.101-0.384-1.677c-0.179-1.357-0.102-2.688 0.397-3.981 0.602-1.549 1.306-3.046 2.381-4.339 0.512-0.614 1.101-1.152 1.946-1.254 0.179-0.026 0.358-0.077 0.538-0.141 0.256-0.102 0.461-0.038 0.666 0.115 0.192 0.141 0.384 0.282 0.576 0.435 0.115 0.090 0.243 0.141 0.371 0.115 0.218-0.026 0.384 0.051 0.525 0.192 0.243 0.256 0.486 0.243 0.794 0.090 1.216-0.589 2.534-0.819 3.878-0.806 1.331 0.013 2.624 0.294 3.891 0.666 2.854 0.832 4.966 2.547 6.234 5.248 1.126 2.394 1.293 4.915 0.896 7.501-0.23 1.446-0.806 2.765-1.344 4.109-0.678 1.715-1.357 3.43-1.728 5.235-0.141 0.678-0.205 1.37-0.218 2.099 0.026-0.064 0.038-0.077 0.038-0.090 0.090-0.755 0.179-1.523 0.358-2.266 0.41-1.664 1.037-3.238 1.69-4.813 0.397-0.986 0.858-1.933 1.152-2.957 0.704-2.445 0.794-4.915 0.166-7.386-0.435-1.715-1.229-3.251-2.458-4.557-0.973-1.024-2.099-1.792-3.405-2.317-1.523-0.614-3.136-0.973-4.787-1.050-1.549-0.077-3.046 0.179-4.467 0.806-0.192 0.077-0.371 0.077-0.525-0.026-0.269-0.179-0.538-0.307-0.883-0.269-0.166 0.013-0.333-0.064-0.461-0.166-0.448-0.358-0.909-0.333-1.459-0.192-0.781 0.205-1.395 0.602-1.933 1.178-1.037 1.088-1.741 2.381-2.355 3.738-0.589 1.293-0.896 2.637-0.806 4.058 0.051 0.794 0.115 1.587 0.41 2.33 0.256 0.666 0.243 1.318-0.102 1.933-0.704 1.229-1.382 2.483-2.253 3.61"></path>
<path d="M3.43 19.187c-0.064-0.051-0.102-0.102-0.141-0.179-0.166-0.32-0.205-0.627-0.038-0.934"></path>
<path d="M2.598 19.469c-0.051-0.051-0.371-0.384-0.41-0.448-0.166-0.32-0.154-0.73 0-1.037"></path>
<path d="M3.11 19.213c0.41 0.128 0.717 0.397 1.011 0.704 0.205 0.218 0.256 0.499 0.205 0.794-0.038 0.154-0.077 0.307-0.128 0.461-0.154 0.461-0.115 0.602 0.256 0.909 0.218 0.179 0.23 0.294 0.051 0.512-0.346 0.435-0.32 0.806 0.077 1.203 0.333 0.346 0.474 0.717 0.333 1.229-0.23 0.819-0.038 1.587 0.435 2.291 0.166 0.243 0.41 0.397 0.73 0.435 0.435 0.051 0.858 0.038 1.293 0.038 0.051 0 0.102-0.013 0.154-0.026 0.064-0.026 0.154-0.051 0.141-0.141-0.013-0.102-0.115-0.051-0.179-0.051-0.294-0.013-0.602 0-0.896-0.026-0.384-0.026-0.73-0.141-0.947-0.486-0.448-0.73-0.653-1.51-0.422-2.342 0.115-0.422 0-0.742-0.282-1.037-0.41-0.435-0.448-0.87-0.090-1.344 0.141-0.179 0.064-0.269-0.090-0.358-0.307-0.192-0.346-0.461-0.269-0.781 0.038-0.141 0.102-0.282 0.141-0.422 0.077-0.269 0.115-0.538-0.090-0.781-0.243-0.307-0.525-0.576-0.909-0.704-0.064-0.013-0.128-0.051-0.179-0.090"></path>
<path d="M24.832 26.022c0.038-0.896 0.218-1.779 0.448-2.637 0.486-1.869 1.229-3.661 1.971-5.44 0.794-1.92 1.139-3.917 1.024-5.99-0.102-1.83-0.55-3.558-1.485-5.158-1.037-1.779-2.496-3.059-4.378-3.878-1.318-0.563-2.688-0.883-4.109-1.024-1.715-0.179-3.379 0.026-4.954 0.768-0.307 0.141-0.55 0.115-0.794-0.115-0.102-0.102-0.205-0.23-0.384-0.218-0.307 0.038-0.563-0.090-0.768-0.294-0.397-0.384-0.794-0.435-1.331-0.307-0.794 0.192-1.421 0.576-1.946 1.19-0.781 0.922-1.357 1.984-1.869 3.085-0.653 1.395-1.101 2.816-0.986 4.39 0.064 0.806 0.128 1.613 0.422 2.381 0.205 0.55 0.192 1.114-0.077 1.626-0.653 1.242-1.293 2.496-2.138 3.61-0.32 0.422-0.154 0.922 0.307 1.178 0.858 0.474 1.293 0.986 0.87 1.907-0.013 0.026-0.013 0.051-0.026 0.077-0.102 0.346-0.051 0.486 0.23 0.704 0.243 0.192 0.269 0.333 0.077 0.576-0.294 0.358-0.269 0.742 0.051 1.088 0.294 0.307 0.499 0.666 0.358 1.126-0.218 0.768-0.077 1.498 0.307 2.189 0.179 0.307 0.422 0.486 0.806 0.525s0.781 0.026 1.165 0.038c0.154 0 0.282-0.038 0.397-0.205-0.461-0.038-0.883 0-1.293-0.064-0.307-0.051-0.55-0.179-0.717-0.448-0.41-0.704-0.602-1.459-0.397-2.253 0.102-0.41 0.026-0.755-0.282-1.011-0.371-0.307-0.346-0.96-0.077-1.267 0.115-0.128 0.115-0.23-0.038-0.32-0.358-0.23-0.358-0.55-0.256-0.909 0.243-0.819 0.192-0.986-0.474-1.523-0.102-0.077-0.192-0.154-0.32-0.179-0.179-0.038-0.294-0.179-0.358-0.333-0.141-0.346-0.141-0.691 0.090-1.011 0.781-1.062 1.344-2.253 1.933-3.43 0.23-0.448 0.269-0.934 0.115-1.421-0.486-1.549-0.55-3.123-0.205-4.723 0.154-0.678 0.448-1.318 0.717-1.958 0.499-1.139 1.037-2.266 1.869-3.213 0.397-0.448 0.819-0.883 1.472-0.973 0.294-0.038 0.576-0.102 0.845-0.205 0.166-0.064 0.32-0.013 0.435 0.102 0.192 0.179 0.358 0.358 0.55 0.538 0.115 0.115 0.23 0.256 0.397 0.243 0.294-0.026 0.461 0.141 0.614 0.346 0.166 0.218 0.346 0.243 0.602 0.128 1.203-0.602 2.496-0.87 3.84-0.883 1.485 0 2.931 0.256 4.339 0.73 2.022 0.678 3.661 1.882 4.826 3.686 1.626 2.509 1.984 5.274 1.6 8.179-0.154 1.19-0.576 2.304-1.011 3.418-0.704 1.792-1.408 3.571-1.805 5.466-0.141 0.691-0.282 1.382-0.205 2.099"></path>
<path d="M24.73 24.563c0.102-0.486 0.205-0.973 0.333-1.459 0.435-1.702 1.050-3.328 1.715-4.941 0.627-1.51 0.998-3.059 1.037-4.698 0.038-1.613-0.192-3.187-0.781-4.685-0.666-1.69-1.702-3.098-3.187-4.16-1.114-0.806-2.368-1.293-3.686-1.613-1.446-0.346-2.893-0.525-4.378-0.294-0.883 0.128-1.715 0.397-2.509 0.794-0.154 0.077-0.346 0.192-0.499 0.038-0.282-0.282-0.589-0.486-0.986-0.589-0.243-0.064-0.41-0.333-0.576-0.538-0.205-0.23-0.422-0.358-0.73-0.205-0.090 0.038-0.192 0.051-0.282 0.064-0.832 0.064-1.408 0.55-1.894 1.178-0.73 0.934-1.242 2.010-1.728 3.085-0.474 1.050-0.845 2.138-0.858 3.302-0.013 1.050 0.051 2.099 0.41 3.098 0.192 0.525 0.141 1.075-0.102 1.574-0.602 1.203-1.178 2.406-1.971 3.494-0.256 0.358-0.141 0.883 0.205 1.050 0.87 0.448 1.318 1.037 0.896 1.882-0.013 0.013 0 0.038-0.013 0.051-0.102 0.282-0.051 0.512 0.205 0.704 0.243 0.179 0.243 0.307 0.064 0.55-0.256 0.346-0.23 0.691 0.038 0.998 0.32 0.358 0.461 0.73 0.333 1.229-0.192 0.755-0.013 1.472 0.397 2.125 0.102 0.154 0.23 0.269 0.41 0.307 0.499 0.090 0.998 0.128 1.498 0.064 0.102-0.013 0.205-0.038 0.218-0.192-0.41-0.013-0.806 0-1.203-0.051-0.282-0.038-0.512-0.154-0.653-0.384-0.41-0.678-0.576-1.408-0.397-2.176 0.102-0.41 0-0.73-0.256-1.024-0.294-0.346-0.346-0.819-0.064-1.178 0.115-0.141 0.102-0.218-0.038-0.32-0.294-0.205-0.333-0.499-0.23-0.819 0.013-0.051 0.026-0.102 0.051-0.154 0.192-0.435 0.115-0.806-0.23-1.126-0.179-0.166-0.346-0.358-0.589-0.435-0.077-0.026-0.128-0.077-0.179-0.154-0.243-0.358-0.23-0.832 0.038-1.19 0.102-0.128 0.192-0.256 0.269-0.397 0.55-0.934 1.024-1.907 1.472-2.906 0.154-0.358 0.23-0.755 0.128-1.139-0.141-0.538-0.307-1.062-0.358-1.626-0.077-0.832-0.102-1.651 0-2.483 0.128-0.934 0.486-1.779 0.832-2.637 0.461-1.114 0.96-2.202 1.741-3.136 0.307-0.358 0.64-0.691 1.126-0.768 0.358-0.064 0.717-0.102 1.062-0.218 0.128-0.038 0.243 0.013 0.333 0.102 0.179 0.166 0.294 0.371 0.448 0.55 0.179 0.218 0.307 0.486 0.653 0.461 0.090 0 0.154 0.090 0.205 0.154 0.077 0.102 0.154 0.192 0.218 0.294 0.115 0.154 0.218 0.205 0.41 0.090 1.152-0.653 2.406-0.934 3.725-0.986 1.843-0.051 3.584 0.397 5.261 1.114 1.498 0.64 2.701 1.677 3.61 3.008 1.152 1.69 1.702 3.584 1.766 5.619 0.051 1.587-0.141 3.149-0.717 4.646-0.64 1.677-1.293 3.354-1.741 5.107-0.115 0.678-0.243 1.293-0.269 1.946"></path>
<path d="M24.32 24.013c0.013-0.051 0.038-0.115 0.051-0.166 0.269-1.754 0.832-3.418 1.421-5.082 0.243-0.704 0.55-1.382 0.73-2.099 0.486-1.92 0.499-3.866-0.026-5.786-0.691-2.47-2.099-4.39-4.429-5.555-1.254-0.627-2.598-0.947-3.981-1.101-1.702-0.179-3.328 0.077-4.838 0.909-0.397 0.218-0.55 0.192-0.742-0.243-0.154-0.371-0.525-0.371-0.755-0.589 0.090 0.218 0.192 0.41 0.294 0.602 0.038 0.077 0.102 0.166 0.192 0.179 0.205 0.013 0.256 0.166 0.32 0.307 0.051 0.115 0.102 0.23 0.154 0.333 0.077 0.166 0.166 0.205 0.346 0.102 1.318-0.755 2.726-1.165 4.275-1.088 1.050 0.051 2.074 0.269 3.085 0.589 2.65 0.819 4.48 2.522 5.491 5.107 0.41 1.062 0.627 2.163 0.666 3.302 0.051 1.178-0.038 2.355-0.41 3.469-0.55 1.651-1.152 3.277-1.536 4.979-0.154 0.589-0.282 1.203-0.307 1.83"></path>
<path d="M24.294 22.669c0.013-0.064 0.038-0.128 0.051-0.192 0.243-1.152 0.589-2.266 0.96-3.379 0.256-0.794 0.602-1.574 0.794-2.381 0.422-1.728 0.422-3.482-0.038-5.21-0.653-2.458-2.048-4.352-4.365-5.504-1.024-0.512-2.112-0.781-3.238-0.96-1.856-0.282-3.635-0.051-5.286 0.922-0.358 0.205-0.486 0.179-0.653-0.205-0.141-0.307-0.294-0.576-0.627-0.666-0.013 0.128 0.218 0.627 0.358 0.678 0.179 0.051 0.218 0.179 0.282 0.32 0.051 0.128 0.102 0.256 0.141 0.397 0.064 0.218 0.154 0.282 0.384 0.128 0.461-0.307 0.973-0.538 1.498-0.717 1.6-0.55 3.213-0.461 4.826-0.102 2.035 0.461 3.75 1.421 4.979 3.149 1.626 2.278 2.010 4.826 1.549 7.526-0.141 0.832-0.486 1.6-0.73 2.394-0.346 1.28-0.704 2.509-0.883 3.802"></path>
<path d="M25.446 29.338c0 0.026-0.013 0.064-0.026 0.090-0.115 0.563-0.448 0.922-1.011 1.062-0.499 0.115-0.998 0.218-1.485 0.371-0.205 0.064-0.435 0.038-0.653 0-0.512-0.102-0.986-0.333-1.485-0.474-0.41-0.128-0.819-0.051-1.229-0.038-0.614 0.013-1.229-0.090-1.843-0.141-1.408-0.115-2.522-0.794-3.443-1.818-0.474-0.525-0.96-1.037-1.446-1.549-0.333-0.346-0.742-0.589-1.203-0.768-0.461-0.192-0.87-0.205-1.293 0.051-0.141 0.090-0.294 0.154-0.461 0.192-0.294 0.064-0.512 0.23-0.678 0.486 0.32-0.115 0.666-0.115 0.96-0.282 0.307-0.179 0.666-0.192 0.973-0.102 0.448 0.141 0.845 0.384 1.19 0.704 0.576 0.538 1.062 1.152 1.536 1.779 0.538 0.73 1.178 1.318 2.010 1.702 0.768 0.358 1.536 0.666 2.406 0.576 0.55-0.051 1.101-0.038 1.651-0.141s1.101 0.051 1.638 0.166c0.525 0.115 1.062 0.243 1.587 0.064 0.435-0.141 0.883-0.23 1.331-0.358 0.781-0.205 1.152-0.781 0.973-1.574"></path>
<path d="M9.536 26.214c0.282-0.051 0.576-0.090 0.806-0.269 0.077-0.064 0.166-0.102 0.256-0.128 0.666-0.154 1.254 0.102 1.779 0.448 0.666 0.435 1.178 1.062 1.69 1.664 0.678 0.781 1.421 1.446 2.394 1.83 0.806 0.32 1.651 0.307 2.496 0.41 0.486 0.064 0.96-0.077 1.446-0.026 0.55 0.064 1.050 0.307 1.562 0.474 0.371 0.115 0.73 0.166 1.114 0.051 0.435-0.141 0.883-0.23 1.331-0.333 0.64-0.166 1.024-0.819 0.845-1.459-0.294 0.832-0.448 0.96-1.331 1.126-0.294 0.051-0.602 0.102-0.87 0.205-0.384 0.141-0.742 0.090-1.101-0.064-0.166-0.064-0.32-0.154-0.474-0.23-0.435-0.218-0.845-0.525-1.344-0.486-0.486 0.026-0.96-0.051-1.434-0.115-1.754-0.205-3.238-0.909-4.493-2.189-0.704-0.717-1.331-1.562-2.47-1.728-0.461-0.064-0.858-0.102-1.229 0.205-0.115 0.090-0.256 0.166-0.397 0.192-0.269 0.051-0.448 0.205-0.576 0.422"></path>
<path d="M25.062 28.378c-0.013 0.013-0.038 0.013-0.038 0.026-0.115 0.627-0.525 0.922-1.126 0.998-0.371 0.051-0.742 0.128-1.114 0.23-0.269 0.077-0.499 0.038-0.742-0.077-0.294-0.154-0.563-0.358-0.832-0.563-0.41-0.294-0.832-0.576-1.382-0.486-0.077 0.013-0.154-0.013-0.23-0.038-0.448-0.115-0.909-0.23-1.357-0.346-1.293-0.307-2.47-0.87-3.494-1.741-0.576-0.499-1.165-0.973-1.779-1.421-0.512-0.371-1.062-0.282-1.613-0.269-0.192 0-0.435 0.077-0.602 0.243s-0.333 0.294-0.576 0.358c-0.154 0.038-0.282 0.179-0.384 0.358 0.243-0.026 0.448-0.077 0.602-0.23 0.102-0.090 0.205-0.166 0.333-0.205 0.627-0.166 1.216-0.051 1.779 0.23 0.589 0.307 1.024 0.794 1.51 1.242 0.461 0.422 0.883 0.883 1.395 1.254 0.934 0.666 1.997 0.998 3.123 1.152 0.448 0.064 0.883 0.205 1.331 0.154 0.269-0.026 0.55 0 0.806 0.090 0.371 0.128 0.717 0.346 1.075 0.512 0.32 0.154 0.64 0.346 0.998 0.256 0.499-0.141 0.998-0.23 1.485-0.346 0.627-0.154 0.986-0.755 0.832-1.382"></path>
<path d="M24.845 27.904c-0.013 0-0.013 0-0.026 0.013-0.013 0.026-0.013 0.051-0.026 0.077-0.128 0.512-0.461 0.768-0.973 0.832-0.358 0.051-0.717 0.090-1.062 0.205-0.384 0.115-0.691 0.026-0.973-0.23-0.333-0.294-0.653-0.602-0.986-0.883-0.192-0.154-0.397-0.32-0.653-0.307-0.243 0.013-0.448-0.051-0.666-0.141-0.358-0.128-0.73-0.269-1.101-0.397-1.306-0.422-2.522-1.024-3.597-1.856-0.486-0.371-0.998-0.691-1.51-1.037-0.602-0.397-1.216-0.269-1.818-0.115-0.205 0.051-0.474 0.141-0.602 0.384-0.102 0.192-0.32 0.243-0.448 0.397-0.026 0.026-0.090 0.013-0.115 0.038-0.051 0.051-0.179 0.128-0.038 0.192 0.102 0.051 0.192-0.064 0.269-0.128 0.013 0 0.013-0.013 0.013-0.013 0.346-0.32 0.73-0.499 1.216-0.397 0.064 0.013 0.128 0.026 0.179 0 0.282-0.090 0.538 0 0.794 0.115 0.525 0.256 0.973 0.602 1.408 0.986 0.87 0.768 1.766 1.498 2.854 1.92 0.781 0.307 1.6 0.499 2.406 0.691 0.166 0.038 0.32 0.128 0.486 0.090 0.461-0.077 0.832 0.115 1.19 0.346 0.307 0.205 0.589 0.422 0.896 0.614 0.205 0.128 0.422 0.243 0.691 0.179 0.448-0.102 0.896-0.205 1.344-0.282 0.627-0.102 0.986-0.653 0.845-1.293z"></path>
<path d="M24.627 27.379c-0.102 0.563-0.435 0.845-0.998 0.883-0.371 0.038-0.73 0.102-1.088 0.192-0.269 0.064-0.461 0-0.653-0.166-0.346-0.294-0.589-0.691-0.896-1.011-0.218-0.243-0.422-0.525-0.768-0.563-0.218-0.026-0.41-0.102-0.602-0.192-0.294-0.128-0.576-0.282-0.858-0.397-1.498-0.627-2.944-1.357-4.288-2.278-0.461-0.32-0.973-0.589-1.523-0.717-0.243-0.064-0.499-0.090-0.717 0.051-0.115 0.077-0.243 0.128-0.384 0.166-0.154 0.038-0.307 0.051-0.32 0.282 0 0.064-0.051 0.115-0.128 0.102-0.192-0.013-0.205 0.102-0.205 0.256 0.371-0.192 0.781-0.154 1.165-0.269 0.154-0.051 0.333 0.038 0.486 0.090 0.358 0.128 0.691 0.32 1.011 0.525 0.499 0.333 0.973 0.704 1.459 1.050 1.024 0.717 2.15 1.203 3.328 1.6 0.422 0.141 0.832 0.397 1.28 0.422 0.55 0.026 0.922 0.294 1.293 0.627 0.269 0.243 0.538 0.486 0.819 0.717 0.192 0.166 0.397 0.205 0.64 0.128 0.205-0.064 0.41-0.102 0.614-0.141 0.154-0.026 0.307-0.051 0.474-0.077 0.691-0.115 0.986-0.538 0.858-1.28"></path>
<path d="M8.627 26.445c-0.371-0.013-0.717-0.038-1.075-0.051-0.346-0.013-0.602-0.154-0.742-0.461-0.32-0.653-0.486-1.331-0.307-2.048 0.090-0.358 0-0.64-0.205-0.909-0.32-0.41-0.346-0.755-0.077-1.178 0.064-0.102 0.090-0.192-0.026-0.269-0.32-0.243-0.307-0.563-0.205-0.909 0.192-0.64-0.013-1.152-0.602-1.485-0.474-0.269-0.614-0.858-0.294-1.306 0.192-0.269 0.358-0.55 0.499-0.832 0.397-0.768 0.755-1.549 1.101-2.342 0.179-0.41 0.23-0.87 0.090-1.293-0.256-0.781-0.32-1.587-0.358-2.394-0.051-1.088 0.154-2.138 0.55-3.149 0.461-1.178 0.896-2.381 1.6-3.443 0.269-0.41 0.55-0.832 1.011-1.011 0.486-0.179 1.024-0.243 1.549-0.282 0.115-0.013 0.102-0.051 0.077-0.090-0.102-0.141-0.179-0.333-0.422-0.256-0.269 0.077-0.525 0.128-0.806 0.166-0.397 0.051-0.717 0.218-0.986 0.512-0.141 0.154-0.282 0.294-0.397 0.461-0.64 0.845-1.075 1.805-1.498 2.752-0.666 1.498-1.114 3.034-0.922 4.685 0.064 0.55 0.090 1.114 0.282 1.638 0.23 0.64 0.192 1.267-0.102 1.869-0.538 1.101-1.037 2.227-1.741 3.238-0.256 0.371-0.090 0.781 0.282 1.024 0.755 0.499 1.088 0.934 0.755 1.766-0.115 0.307-0.090 0.563 0.192 0.781 0.179 0.128 0.179 0.294 0.051 0.461-0.282 0.397-0.269 0.678 0.038 1.050 0.243 0.294 0.41 0.614 0.294 1.024-0.205 0.717-0.051 1.382 0.256 2.022 0.115 0.256 0.307 0.422 0.602 0.461 0.435 0.038 0.858 0.051 1.293 0.026 0.115-0.064 0.205-0.090 0.243-0.23"></path>
<path d="M11.302 3.533c-0.077-0.256-0.205-0.384-0.461-0.294-0.077 0.026-0.154 0.038-0.23 0.038-0.666 0.064-1.267 0.23-1.651 0.832-0.090 0.141-0.192 0.256-0.269 0.397-0.525 0.819-0.883 1.702-1.242 2.598-0.499 1.216-0.896 2.458-0.819 3.789 0.038 0.717 0.051 1.459 0.294 2.138 0.192 0.55 0.192 1.088-0.026 1.6-0.486 1.139-0.947 2.278-1.651 3.302-0.23 0.346-0.090 0.781 0.256 1.024 0.448 0.307 0.87 0.666 0.768 1.306-0.026 0.166-0.064 0.333-0.115 0.486-0.077 0.23-0.038 0.435 0.154 0.589 0.205 0.166 0.218 0.333 0.064 0.55-0.23 0.32-0.192 0.614 0.051 0.909 0.269 0.333 0.371 0.691 0.269 1.126-0.166 0.691 0 1.344 0.333 1.958 0.077 0.141 0.205 0.243 0.371 0.269 0.435 0.064 0.883 0.051 1.318 0.051 0.128 0 0.218-0.051 0.23-0.205-0.384-0.013-0.755 0-1.139-0.038-0.282-0.026-0.461-0.179-0.563-0.41-0.294-0.64-0.435-1.306-0.269-2.010 0.077-0.307 0.013-0.589-0.192-0.819-0.333-0.371-0.307-0.742-0.077-1.139 0.064-0.115 0.064-0.192-0.026-0.282-0.282-0.23-0.269-0.538-0.179-0.845 0.179-0.614 0.013-1.088-0.512-1.434-0.474-0.32-0.576-0.845-0.243-1.318 0.090-0.128 0.179-0.269 0.243-0.41 0.435-0.858 0.819-1.741 1.165-2.637 0.154-0.397 0.218-0.819 0.077-1.229-0.179-0.538-0.23-1.088-0.294-1.638-0.090-0.986-0.051-1.958 0.218-2.918 0.205-0.73 0.499-1.446 0.768-2.163 0.32-0.845 0.678-1.664 1.216-2.406 0.282-0.384 0.627-0.614 1.126-0.653 0.32 0.026 0.678-0.051 1.037-0.115"></path>
<path d="M9.203 25.664c-0.358-0.013-0.691-0.051-1.024-0.051-0.307 0-0.474-0.166-0.576-0.422-0.256-0.614-0.384-1.254-0.23-1.907 0.064-0.282 0.013-0.55-0.154-0.755-0.307-0.358-0.269-0.717-0.077-1.101 0.051-0.102 0.064-0.179-0.026-0.256-0.269-0.243-0.243-0.538-0.154-0.858 0.154-0.525-0.038-1.062-0.499-1.357-0.23-0.141-0.294-0.333-0.333-0.563-0.064-0.346 0.102-0.602 0.269-0.883 0.397-0.704 0.653-1.485 0.947-2.24 0.269-0.666 0.333-1.318 0.179-2.061-0.346-1.549-0.333-3.11 0.23-4.634 0.141-0.397 0.256-0.806 0.397-1.203 0.32-0.909 0.627-1.83 1.203-2.637 0.218-0.307 0.499-0.499 0.896-0.538 0.384-0.026 0.755-0.064 1.139-0.179-0.077-0.243-0.205-0.333-0.435-0.269-0.192 0.051-0.397 0.077-0.602 0.090-0.512 0.026-0.883 0.256-1.152 0.678-0.102 0.154-0.218 0.307-0.294 0.474-0.819 1.613-1.523 3.264-1.792 5.056-0.154 1.037-0.051 2.086 0.205 3.098 0.141 0.55 0.166 1.088-0.038 1.613-0.435 1.075-0.832 2.176-1.472 3.162-0.192 0.282-0.077 0.73 0.154 0.909 0.704 0.525 0.973 0.973 0.691 1.715-0.090 0.23-0.064 0.474 0.141 0.653 0.179 0.154 0.166 0.307 0.038 0.512-0.192 0.269-0.141 0.614 0.064 0.883 0.23 0.294 0.333 0.627 0.23 1.011-0.154 0.64-0.013 1.254 0.243 1.856 0.077 0.179 0.205 0.307 0.41 0.333 0.397 0.038 0.794 0.051 1.19 0.051 0.115 0.013 0.23 0 0.23-0.179"></path>
<path d="M9.498 25.293c-0.307-0.013-0.602-0.051-0.883-0.038-0.346 0.013-0.512-0.166-0.627-0.461-0.205-0.576-0.282-1.165-0.166-1.766 0.051-0.256 0.013-0.512-0.141-0.704-0.269-0.346-0.243-0.678-0.077-1.037 0.051-0.102 0.051-0.179-0.026-0.256-0.218-0.23-0.218-0.512-0.115-0.794 0.205-0.55-0.077-0.947-0.422-1.306-0.333-0.333-0.435-0.794-0.192-1.203 0.102-0.154 0.179-0.32 0.256-0.499 0.32-0.768 0.589-1.549 0.845-2.342 0.077-0.23 0.102-0.461 0.102-0.704 0-0.576-0.218-1.126-0.243-1.69-0.051-0.96-0.090-1.907 0.154-2.842 0.256-0.986 0.589-1.933 0.896-2.906 0.179-0.538 0.397-1.075 0.717-1.549 0.179-0.243 0.384-0.41 0.704-0.448 0.397-0.038 0.794-0.051 1.178-0.154-0.038-0.269-0.179-0.32-0.41-0.282-0.23 0.051-0.448 0.077-0.678 0.090-0.41 0.013-0.704 0.192-0.922 0.538-0.064 0.102-0.141 0.205-0.192 0.307-0.755 1.549-1.357 3.149-1.664 4.851-0.192 1.075-0.115 2.15 0.141 3.2 0.128 0.538 0.154 1.062-0.026 1.562-0.384 1.037-0.717 2.099-1.318 3.059-0.154 0.256-0.077 0.691 0.115 0.858 0.717 0.614 0.87 0.973 0.64 1.677-0.064 0.205-0.077 0.397 0.090 0.563 0.179 0.166 0.192 0.346 0.064 0.563-0.141 0.23-0.179 0.512 0.013 0.742 0.256 0.333 0.32 0.678 0.243 1.088-0.115 0.614 0 1.216 0.269 1.779 0.077 0.166 0.205 0.256 0.397 0.256 0.358 0 0.73 0.013 1.088 0.013 0.102-0.013 0.192-0.026 0.192-0.166"></path>
<path d="M11.584 5.133c-0.013-0.282-0.154-0.358-0.384-0.307-0.192 0.038-0.384 0.077-0.576 0.064-0.589-0.026-0.896 0.32-1.114 0.794-0.038 0.077-0.077 0.154-0.115 0.243-0.589 1.498-1.139 3.008-1.37 4.595-0.154 1.024-0.064 2.061 0.166 3.072 0.051 0.243 0.102 0.486 0.051 0.73-0.23 1.229-0.666 2.394-1.229 3.494-0.141 0.269-0.128 0.704 0.064 0.858 0.525 0.448 0.806 0.973 0.55 1.677-0.064 0.192-0.026 0.358 0.115 0.512s0.141 0.294 0.038 0.486c-0.141 0.269-0.154 0.538 0.051 0.819 0.179 0.243 0.256 0.538 0.179 0.858-0.128 0.576-0.013 1.139 0.166 1.69 0.064 0.218 0.205 0.346 0.448 0.346 0.32 0 0.64 0 0.947 0.013 0.115 0 0.218-0.038 0.256-0.205-0.307 0-0.576-0.013-0.858 0-0.294 0.013-0.461-0.128-0.55-0.397-0.179-0.563-0.282-1.126-0.166-1.715 0.051-0.243 0.026-0.486-0.115-0.691-0.23-0.32-0.192-0.64-0.064-0.973 0.038-0.102 0.051-0.179-0.026-0.269-0.179-0.218-0.192-0.474-0.102-0.73 0.179-0.499-0.051-0.883-0.333-1.242-0.346-0.422-0.397-0.781-0.128-1.267 0.077-0.141 0.154-0.294 0.205-0.461 0.23-0.704 0.474-1.408 0.678-2.112 0.102-0.371 0.166-0.755 0.077-1.152-0.282-1.267-0.333-2.56-0.064-3.827 0.205-0.947 0.499-1.869 0.768-2.803 0.154-0.55 0.346-1.088 0.64-1.587 0.154-0.269 0.371-0.397 0.678-0.41 0.358-0.013 0.73-0.064 1.114-0.102"></path>
<path d="M10.112 24.486c-0.294 0-0.538-0.013-0.794 0-0.269 0.013-0.41-0.115-0.486-0.358-0.154-0.55-0.243-1.126-0.141-1.702 0.038-0.205 0.013-0.422-0.090-0.589-0.205-0.32-0.166-0.64-0.051-0.96 0.026-0.090 0.026-0.154-0.026-0.218-0.166-0.218-0.154-0.474-0.090-0.704 0.128-0.474-0.064-0.858-0.333-1.216-0.077-0.102-0.141-0.218-0.179-0.346-0.090-0.333 0.026-0.614 0.154-0.909 0.294-0.73 0.461-1.498 0.653-2.253 0.102-0.41 0.154-0.832 0.090-1.254-0.205-1.139-0.256-2.291-0.051-3.443 0.154-0.832 0.371-1.664 0.576-2.496 0.154-0.653 0.32-1.306 0.614-1.907 0.115-0.23 0.269-0.358 0.55-0.384 0.397-0.026 0.794-0.013 1.178-0.102-0.013-0.243-0.115-0.333-0.358-0.294-0.141 0.026-0.294 0.064-0.448 0.038-0.64-0.064-1.011 0.256-1.19 0.845-0.013 0.038-0.038 0.077-0.051 0.115-0.486 1.446-0.96 2.906-1.178 4.429-0.128 0.922-0.064 1.83 0.077 2.739 0.038 0.282 0.128 0.563 0.090 0.858-0.154 1.178-0.55 2.291-1.037 3.366-0.141 0.32-0.102 0.653 0.102 0.922 0.346 0.41 0.614 0.858 0.422 1.446-0.077 0.218-0.064 0.435 0.090 0.627 0.115 0.128 0.090 0.269 0.026 0.422-0.115 0.256-0.141 0.512 0.038 0.781 0.166 0.256 0.205 0.55 0.154 0.858-0.102 0.563 0 1.114 0.166 1.638 0.038 0.128 0.115 0.192 0.269 0.218 0.294 0.038 0.576 0.013 0.87 0.038 0.179 0 0.282-0.038 0.384-0.205"></path>
<path d="M11.802 6.182c0.013-0.282-0.128-0.333-0.346-0.307-0.166 0.026-0.333 0.064-0.499 0.038-0.653-0.090-0.87 0.307-1.037 0.832-0.307 0.973-0.486 1.984-0.755 2.97-0.282 1.037-0.346 2.074-0.269 3.136 0.038 0.474 0.192 0.934 0.166 1.408-0.051 1.216-0.422 2.342-0.87 3.469-0.115 0.307-0.090 0.614 0.102 0.883 0.294 0.422 0.512 0.87 0.333 1.408-0.064 0.192-0.038 0.371 0.064 0.525 0.102 0.141 0.102 0.282 0.026 0.448-0.102 0.23-0.102 0.474 0.038 0.704 0.141 0.243 0.192 0.525 0.128 0.794-0.102 0.525 0 1.037 0.128 1.536 0.013 0.077 0.038 0.205 0.128 0.205 0.333 0.026 0.666 0.038 0.998 0.038 0.064 0 0.115-0.064 0.115-0.128 0-0.077-0.077-0.051-0.115-0.051-0.154 0-0.32-0.013-0.474-0.013-0.23 0-0.358-0.090-0.41-0.307-0.128-0.525-0.192-1.062-0.115-1.6 0.026-0.205 0.013-0.422-0.090-0.589-0.154-0.282-0.128-0.563-0.051-0.845 0.026-0.102 0.051-0.179 0-0.269-0.128-0.205-0.115-0.435-0.064-0.666 0.051-0.243 0.038-0.486-0.051-0.73-0.090-0.218-0.243-0.41-0.307-0.64-0.102-0.346-0.026-0.678 0.102-1.024 0.256-0.742 0.397-1.536 0.55-2.317 0.064-0.32 0.102-0.653 0.051-0.973-0.192-1.088-0.218-2.176-0.051-3.264 0.128-0.845 0.32-1.702 0.486-2.547 0.115-0.589 0.23-1.178 0.461-1.728 0.102-0.256 0.256-0.371 0.538-0.371 0.333 0.038 0.704 0 1.088-0.026"></path>
<path d="M11.891 6.707c0.013-0.243-0.064-0.346-0.32-0.307-0.218 0.038-0.435 0.013-0.666 0.038-0.525 0.051-0.525 0.051-0.691 0.563-0.282 0.909-0.397 1.856-0.614 2.79-0.307 1.28-0.397 2.56-0.23 3.853 0.090 0.653 0.090 1.293-0.064 1.933-0.179 0.755-0.294 1.523-0.602 2.24-0.102 0.23-0.026 0.474 0.102 0.704 0.23 0.41 0.435 0.819 0.307 1.331-0.051 0.192-0.051 0.397 0.064 0.589 0.064 0.115 0.051 0.23 0 0.358-0.064 0.205-0.102 0.422 0.013 0.64 0.128 0.23 0.166 0.512 0.115 0.768-0.077 0.422-0.013 0.845 0.064 1.254 0.064 0.422 0.077 0.422 0.486 0.422 0.128 0 0.269 0 0.397 0.013 0.102 0 0.192-0.013 0.166-0.154-0.806-0.077-0.794-0.090-0.883-0.858-0.064-0.589 0.077-1.178-0.115-1.779-0.115-0.371-0.051-0.819-0.038-1.216 0.013-0.499-0.013-0.947-0.23-1.408-0.115-0.243-0.115-0.538-0.038-0.806 0.269-0.883 0.371-1.792 0.512-2.688 0.090-0.589-0.077-1.152-0.077-1.741 0-0.474-0.077-0.96-0.013-1.421 0.128-1.062 0.294-2.125 0.461-3.187 0.077-0.512 0.166-1.024 0.307-1.523 0.064-0.243 0.192-0.371 0.461-0.371 0.384 0.013 0.755-0.026 1.126-0.038"></path>
<path d="M9.766 22.182c0 0.128 0 0.269 0 0.397s0.026 0.269 0.038 0.397c0.051 0.538 0.051 0.538 0.576 0.538 0.102 0 0.243 0.051 0.243-0.102 0-0.128-0.154-0.090-0.23-0.077-0.23 0.026-0.307-0.077-0.333-0.282-0.115-0.768-0.038-1.549-0.128-2.317-0.051-0.461-0.077-0.947-0.026-1.421 0.013-0.128-0.013-0.256-0.038-0.397-0.077-0.384-0.269-0.768-0.166-1.165 0.102-0.461 0.166-0.934 0.23-1.408 0.090-0.704 0.192-1.421 0.115-2.138-0.090-0.96-0.090-1.933 0.026-2.906 0.090-0.794 0.166-1.574 0.256-2.368 0.051-0.486 0.102-0.96 0.205-1.434 0.038-0.179 0.115-0.269 0.333-0.256 0.307 0.013 0.614-0.026 0.922-0.038 0.102 0 0.192 0 0.179-0.154-0.013-0.128-0.077-0.154-0.192-0.141-0.243 0.013-0.499 0.026-0.742 0.038-0.486 0.013-0.486 0.013-0.589 0.486-0.192 0.832-0.294 1.677-0.422 2.522-0.115 0.768-0.282 1.523-0.282 2.304 0 0.678 0.064 1.357 0.102 2.035 0.064 1.139-0.218 2.253-0.486 3.354-0.077 0.307-0.051 0.576 0.064 0.87 0.141 0.358 0.282 0.73 0.218 1.126-0.077 0.499 0.102 0.986 0.013 1.485 0 0.013 0 0.013 0 0.026 0.179 0.32 0.128 0.678 0.115 1.024"></path>
<path d="M10.419 13.376c0.026-0.474 0.013-0.832 0.051-1.203 0.064-0.742 0.077-1.498 0.128-2.24 0.038-0.653 0.064-1.306 0.141-1.946 0.026-0.179 0.090-0.218 0.256-0.218 0.294 0 0.602-0.013 0.896-0.026 0.077 0 0.205 0.051 0.166-0.115-0.026-0.090 0-0.205-0.179-0.192-0.294 0.038-0.576 0.038-0.87 0.038-0.205 0-0.269 0.077-0.294 0.269-0.141 0.819-0.205 1.638-0.294 2.47-0.090 0.922-0.256 1.856-0.218 2.79 0.026 0.512 0.064 1.024 0.077 1.536 0.026 1.037-0.141 2.048-0.32 3.072-0.051 0.307-0.064 0.589 0.026 0.883 0.090 0.333 0.179 0.666 0.141 1.011-0.051 0.461 0.077 0.922 0 1.382 0 0.038 0.013 0.090 0.026 0.128 0.077 0.256 0.090 0.512 0.064 0.781-0.038 0.41 0.013 0.806 0.064 1.216 0.013 0.064 0.013 0.154 0.115 0.141 0.141-0.013 0.294 0.064 0.397-0.064 0.064-0.077 0-0.115-0.090-0.115-0.115 0-0.205 0-0.218-0.154-0.090-0.781-0.051-1.562-0.077-2.355-0.013-0.448 0.013-0.896-0.013-1.344-0.038-0.717-0.102-1.408-0.026-2.125 0.115-1.242 0.154-2.483 0.051-3.622"></path>
<path d="M23.987 25.946c-0.077 0.512-0.435 0.589-0.858 0.614-0.461 0.026-0.934 0.102-1.395 0.154 0.192 0.397 0.205 0.41 0.614 0.346 0.371-0.064 0.755-0.102 1.126-0.141 0.269-0.026 0.41-0.166 0.486-0.41 0.064-0.179 0.064-0.384 0.026-0.563"></path>
<path d="M23.616 24.947c-0.154 0.371-0.205 0.422-0.589 0.448-0.397 0.038-0.794 0.064-1.178 0.102-0.077 0.013-0.23-0.038-0.205 0.115 0.026 0.128 0.038 0.307 0.269 0.282 0.422-0.051 0.858-0.102 1.28-0.128 0.218-0.013 0.32-0.115 0.358-0.307 0.026-0.166 0.038-0.346 0.064-0.512"></path>
<path d="M21.504 24.922c0.102 0.154 0.038 0.384 0.256 0.384 0.435-0.013 0.883-0.064 1.318-0.090 0.166-0.013 0.256-0.102 0.282-0.256 0.013-0.090 0.026-0.192 0.038-0.294 0.013-0.090 0.013-0.179 0.013-0.256-0.051 0.435-0.358 0.448-0.691 0.461-0.397 0-0.781 0.026-1.216 0.051"></path>
<path d="M23.168 24.077c-0.115 0.205-0.307 0.205-0.499 0.205-0.346 0-0.678 0.026-1.024 0.051-0.090 0-0.218-0.038-0.179 0.128 0.026 0.115 0 0.269 0.218 0.243 0.371-0.038 0.73-0.077 1.101-0.064 0.282 0.013 0.384-0.102 0.371-0.358 0-0.064 0.013-0.141 0.013-0.205"></path>
<path d="M22.938 23.526c-0.077 0.179-0.166 0.166-0.269 0.166-0.371 0.013-0.73 0.026-1.101 0.038-0.090 0-0.23-0.038-0.205 0.141 0.026 0.115 0.026 0.243 0.205 0.23 0.397-0.026 0.794-0.038 1.178-0.051 0.141 0 0.192-0.064 0.179-0.192 0.013-0.077 0.013-0.166 0.013-0.333"></path>
<path d="M22.003 23.526v-0.013c0.205 0 0.41 0 0.602 0 0.179 0 0.102-0.154 0.128-0.23 0.038-0.141-0.077-0.102-0.154-0.090-0.371 0.013-0.73 0.038-1.101 0.051-0.218 0.013-0.23 0.013-0.205 0.077 0.026 0.115 0.026 0.256 0.23 0.23 0.166-0.051 0.333-0.026 0.499-0.026"></path>
<path d="M24.090 24.23c0.013-0.154 0.038-0.371 0.064-0.666-0.128 0.282-0.064 0.512-0.064 0.666"></path>
<path d="M8.064 27.584c0.218-0.051 0.358-0.128 0.448-0.269-0.166 0.013-0.333 0.051-0.448 0.269"></path>
<path d="M12.147 22.976c-0.090 0.013-0.192-0.064-0.256 0.026-0.013 0.026 0 0.115 0.026 0.115 0.115 0.038 0.154-0.077 0.23-0.141"></path>
<path d="M21.632 26.586c0.013 0.013 0.026 0.051 0.051 0.064 0.038 0.026 0.038-0.013 0.038-0.026-0.013-0.026-0.038-0.038-0.051-0.051-0.013 0-0.026 0-0.038 0.013"></path>
<path d="M12.608 7.654c0-0.013-0.013-0.026-0.013-0.051 0 0-0.013 0.013-0.013 0.013 0 0.013 0 0.026 0.013 0.038 0 0.013 0 0 0.013 0"></path>
<path d="M21.082 24.627c-0.013-0.013-0.013-0.026-0.026-0.038 0 0.013-0.013 0.026-0.013 0.038 0 0 0.013 0.013 0.013 0.026 0.013 0 0.013-0.013 0.026-0.026"></path>
<path d="M11.494 3.328c0-0.013-0.013-0.026-0.013-0.038-0.026 0.013-0.038 0.013-0.064 0.026 0.013 0.013 0.026 0.026 0.038 0.026 0 0 0.026 0 0.038-0.013"></path>
<path d="M8.051 27.584c0-0.013-0.013-0.013-0.013-0.013-0.013 0-0.013 0.013-0.013 0.013 0 0.013 0.013 0.013 0.013 0.013s0.013-0.013 0.013-0.013z"></path>
<path d="M8.614 27.251c0 0-0.013 0.013-0.013 0.013s0.013 0.013 0.013 0.013c0 0 0.013 0 0.013-0.013"></path>
<path d="M9.152 26.854l0.013-0.013c-0.013-0.013-0.026-0.013-0.038-0.013 0 0-0.013 0.013-0.013 0.013 0.013 0 0.026 0.013 0.038 0.013"></path>
<path d="M21.606 26.47c0 0-0.013-0.013-0.013-0.013s-0.013 0.013-0.013 0.013c0 0.013 0 0.013 0.013 0.013s0.013-0.013 0.013-0.013"></path>
<path d="M21.555 26.368c0 0-0.013-0.013-0.013-0.013s-0.013 0.013-0.013 0.013c0 0.013 0 0.013 0.013 0.013 0 0 0.013-0.013 0.013-0.013"></path>
<path d="M21.504 26.266c0 0-0.013-0.013-0.013-0.013s-0.013 0.013-0.013 0.013c0 0.013 0.013 0.013 0.013 0.013 0-0.013 0-0.013 0.013-0.013"></path>
<path d="M3.059 19.354c-0.64-0.141-0.986-1.011-0.742-1.306"></path>
<path d="M3.11 19.213c-1.229-0.87-0.051-1.651 0.013-1.728"></path>
<path d="M13.146 15.782c0.384-0.41 0.794-0.781 1.306-1.024 1.587-0.781 3.61-0.525 4.954 0.64 0.64 0.55 1.088 1.229 1.357 2.035-0.051 0.205 0.038 0.422 0 0.64-0.128 0.026-0.090-0.077-0.102-0.141-0.422-1.766-1.984-3.149-3.802-3.341-1.651-0.179-2.918 0.422-3.802 1.843-0.051 0.090-0.128 0.166-0.102 0.32 0.346-0.397 0.717-0.73 1.178-0.947 1.229-0.589 2.47-0.512 3.712-0.013 1.421 0.576 2.445 1.549 2.906 3.034 0 0.205 0.013 0.41 0.013 0.614-0.166-0.013-0.115-0.166-0.141-0.243-0.269-1.216-0.947-2.125-1.984-2.778-0.768-0.486-1.6-0.781-2.509-0.819-1.498-0.064-2.65 0.55-3.405 1.869-0.064-0.576 0.064-1.114 0.384-1.613 0.013-0.026 0.026-0.051 0.038-0.077M12.928 16.794c-0.013-0.013-0.013-0.038-0.026-0.051-0.013 0.026-0.038 0.051-0.051 0.077 0 0.013 0.013 0.038 0.013 0.051 0.013-0.026 0.038-0.064 0.064-0.077"></path>
<path d="M12.736 17.702c0.973-1.178 2.24-1.459 3.661-1.178 1.523 0.307 2.816 1.011 3.738 2.317 0.269 0.384 0.461 0.806 0.602 1.254-0.013 0.141 0.064 0.269 0.013 0.41-0.141-0.013-0.166-0.154-0.192-0.243-0.525-1.779-1.818-2.778-3.494-3.341-1.037-0.358-2.086-0.422-3.11 0.064-0.525 0.243-0.896 0.64-1.229 1.088-0.013-0.141-0.013-0.256 0.013-0.371"></path>
<path d="M12.736 18.381c0.819-0.845 1.83-1.050 2.931-0.883 1.344 0.205 2.547 0.755 3.584 1.626 0.589 0.486 1.024 1.088 1.318 1.792 0.038 0.090 0.090 0.166 0.154 0.243 0.013 0.141 0.013 0.269 0.026 0.41-0.154-0.102-0.23-0.282-0.294-0.435-0.563-1.37-1.613-2.24-2.918-2.842-0.832-0.384-1.69-0.653-2.624-0.627-0.858 0.026-1.6 0.333-2.15 1.011-0.077-0.102-0.038-0.192-0.026-0.294"></path>
<path d="M12.723 19.098c0.832-0.666 1.779-0.781 2.778-0.55 1.6 0.384 3.046 1.050 4.211 2.24 0.294 0.307 0.55 0.64 0.755 1.024 0.077 0.141 0.205 0.218 0.282 0.346v0.32c-0.179-0.115-0.294-0.294-0.384-0.474-0.666-1.203-1.702-1.984-2.906-2.56-0.704-0.333-1.434-0.627-2.214-0.755-0.934-0.141-1.792 0-2.509 0.678-0.038-0.090-0.026-0.179-0.013-0.269"></path>
<path d="M12.723 19.968c-0.064 0.090-0.051 0.179-0.026 0.282 0 0.128-0.051 0.269 0.026 0.384 0 0.064 0 0.141 0 0.205-0.051 0.192-0.026 0.384 0 0.563v0.192c-0.013 0.205-0.077 0.41 0 0.614 0 0.051 0 0.115 0 0.179-0.051 0.397-0.051 0.397-0.435 0.422-0.013 0-0.013 0-0.026 0-0.435 0.013-0.87-0.051-1.293 0-0.166-0.038-0.154-0.154-0.154-0.282 0-2.739 0.013-5.466 0-8.205 0-1.331 0.051-2.662-0.013-3.994 0.026-0.589 0.051-1.19 0.064-1.779 0-0.102 0.013-0.192 0.064-0.269h1.19c0.192 0.038 0.371 0.013 0.563 0.013 0.026 0.090 0.064 0.166 0.090 0.243-0.090 0.064-0.051 0.141-0.038 0.218v0.589c-0.026 0.090-0.026 0.179 0.013 0.256-0.038 0.23-0.013 0.448-0.013 0.678 0 0.051 0 0.090 0 0.141 0 0.166 0 0.333 0 0.499-0.026 0.115-0.026 0.23 0 0.346v0.512c-0.026 0.102-0.026 0.218 0 0.333 0 0.166 0 0.333 0 0.499-0.026 0.102-0.038 0.205 0 0.307 0 0.051-0.013 0.102-0.013 0.154 0 0.064-0.026 0.141 0.026 0.166 0.077 0.038 0.128-0.038 0.179-0.077 1.306-1.088 2.803-1.523 4.48-1.331 2.97 0.346 5.21 2.88 5.222 5.875 0 0.371-0.038 0.742 0.026 1.114-0.064 1.254-0.026 2.509-0.038 3.763 0 0.090-0.013 0.179-0.064 0.243-0.448-0.051-0.896-0.051-1.344 0-0.090-0.013-0.166-0.026-0.256-0.038v0h-0.23c0-0.051-0.026-0.115 0.013-0.166v-0.346c0.064-0.192-0.064-0.397 0.013-0.602-0.013-0.141-0.013-0.269-0.026-0.41 0.090-0.218-0.077-0.435 0.026-0.653 0.038-0.141-0.026-0.269-0.013-0.41 0.064-0.218-0.064-0.435 0.013-0.653 0-0.205-0.013-0.41-0.013-0.614 0.051-0.256-0.090-0.512 0.013-0.755 0.038-0.205-0.051-0.422 0-0.64-0.038-0.23-0.051-0.474-0.102-0.704-0.666-2.854-3.917-4.083-6.298-2.394-0.525 0.384-0.973 0.832-1.216 1.459l-0.013 0.013c0 0.026-0.013 0.038-0.013 0.064-0.307 0.486-0.435 1.024-0.384 1.613 0 0.077 0 0.154 0 0.23-0.026 0.115-0.026 0.23 0 0.358 0 0.102 0 0.218 0 0.333-0.026 0.102-0.051 0.205 0.026 0.282-0.077 0.141-0.026 0.282-0.051 0.422-0.013 0.090-0.038 0.192 0 0.282-0.026 0.166-0.038 0.32 0.026 0.474"></path>
<path d="M20.966 22.771v0"></path>
<path d="M13.133 15.923c0 0.026-0.013 0.038-0.013 0.064 0-0.013 0-0.038 0.013-0.064"></path>
</svg>
