<?xml version="1.0" encoding="utf-8"?>
<!-- Generator: Adobe Illustrator 22.0.1, SVG Export Plug-In . SVG Version: 6.00 Build 0)  -->
<svg version="1.1" id="Layer_1" xmlns="http://www.w3.org/2000/svg" xmlns:xlink="http://www.w3.org/1999/xlink" x="0px" y="0px"
	 viewBox="0 0 250 250" style="enable-background:new 0 0 250 250;" xml:space="preserve">
<style type="text/css">
	.st0{display:none;stroke:#FFFFFF;stroke-miterlimit:10;}
	.st1{stroke:#FFFFFF;stroke-miterlimit:10;}
</style>
<g transform="translate(-1.3-1)">
	<path class="st0" d="M1.3,1.4h246.1v246.1H1.3V1.4z"/>
	<g>
		<path class="st1" d="M18.4,141.5c7.2-9.1,12.8-19.2,18.8-29.1c2.5-4.1,2.8-8.7,1.1-13.2c-2.8-7.1-3.6-14.5-4-22
			c-0.8-13.8,3.7-26.3,10-38.3c5-9.6,11-18.6,19.1-26c3.7-3.4,7.9-5.7,12.8-7.3c5-1.6,9.7-2.5,14.4,0.2c0.5,0.3,1,0.4,1.6,0.4
			c3.4-0.1,6.8,0.2,10,1.8C103,8.5,104,8,105,7.7c11.1-4,22.4-6.9,34.3-6.1c9.9,0.7,19.6,2.5,29.2,5.3c8.7,2.5,16.9,5.8,24.5,10.7
			c17.8,11.7,28.8,28.3,34.4,48.6c2.6,9.3,3.7,18.8,3.7,24.9c0,20.2-3.6,36.1-10.2,51.4c-4.6,10.7-9.2,21.4-13.3,32.3
			c-3.8,10.1-6.7,20.5-7.9,31.3c-0.2,1.8-0.3,3.6-0.4,5.3c-0.1,1.7-0.1,3.3,1.4,4.5c0.7,0.5,1,1.2-0.3,1.6c-1,0.2-0.7,1-0.4,1.7
			c2.2,5.2,2.4,10.7,1.6,16.1c-0.6,3.8-3,6.6-6.7,7.7c-4.7,1.5-9.5,2.7-14.3,3.9c-3.1,0.8-6.2,0-9.2-0.7c-6-1.5-11.9-2.1-18.2-1.1
			c-5.3,0.9-10.7,0.9-16.1,0.4c-4.2-0.4-8-2.6-11.8-4.2c-7.1-3.1-12.4-8.2-17-14.3c-3.9-5.2-7.6-10.6-12.9-14.4
			c-3.2-2.3-6.4-5.2-11-4.3c-0.4,0.1-0.9-0.1-1.2,0.1c-3.8,2-8.5,2.1-11.8,5.2c-2.7,2.6-6.3,3.9-9.5,5.7c-0.7,0.4-2.1,0.5-1.6,2
			c0.1,0.4-0.7,0.7-1.1,0.7c-4.2-0.3-8.4,0.8-12.6,0.1c-3.6-0.6-6.5-2.1-8.3-5.1c-3.7-6.1-5.2-12.6-2.9-19.6
			c1.2-3.8-0.9-6.3-3.3-8.4c-2-1.8-2.6-3.8-2.3-6.3c0.2-1.5,0.7-2.9,1.8-4.1c1.2-1.2,1.5-2.4-0.3-3.2c-3-1.5-3.8-4.4-2.3-7.6
			c3.6-7.5,0-11.2-7.3-14.6"/>
		<path class="st1" d="M91.7,27.7c-0.1-0.1-0.4-0.3-0.4-0.3c-0.3,0.2-0.1,0.4,0.1,0.6c0.1,0.2,0.2,0.3,0.3,0.5
			c0.8,1.9,1.9,3.7,3.2,5.3c0.4,0.5,0.8,1.1,1.5,1.1c1.9,0,2.5,1.4,3.3,2.7c1.8,3.2,1.7,3.1,5,1.5c8.3-4.1,17.2-6.5,26.4-6.9
			c9.8-0.4,19.4,1,28.8,3.6c18.6,5,33.1,15.5,42.6,32.3c9.9,17.5,11.8,36.4,8.9,56.1c-1.1,7.3-3.8,14.1-6.3,20.9
			c-4.5,12.7-8.9,25.3-11.5,38.6c-0.3,1.6-0.7,3.3-1,5c1.3-1.1,1.2-2.6,1.5-4c3.2-15.1,8.6-29.6,14.2-44c3.8-9.7,6.1-19.7,6.6-30.1
			c0.6-13-1.2-25.6-6.2-37.7C202,56.6,191,44.2,175,36.5c-10.7-5.1-22-7.7-33.8-8.7c-12.5-1.1-24.5,1-35.7,6.7
			c-3.6,1.8-4.3,1.7-6.6-1.6c-0.6-0.8-0.9-2-2.1-2.1c-2-0.1-3.3-1.3-4.6-2.6C92,28,91.9,27.8,91.7,27.7"/>
		<path class="st1" d="M98.6,58.1c0,0,0.1,0.1,0.1,0.1c0,0,0,0,0.1,0C98.7,58.2,98.6,58.2,98.6,58.1c-0.4-1.6,0.1-3.7-2.1-4.5
			c0-0.1,0-0.1,0-0.2c0,0-0.1-0.1-0.1-0.1c0,0.1,0.1,0.1,0.2,0.2C96.9,55.2,96.8,57.1,98.6,58.1"/>
		<path class="st1" d="M170.6,205.1c0,0-0.1-0.1-0.1-0.1C170.6,205,170.6,205.1,170.6,205.1c0.7,1.3,0.7,3.2,3.1,2.8
			c3.3-0.5,6.5-0.9,9.8-1.1c2-0.1,3-1.2,3.4-2.9c0.4-1.4,0.4-2.7,0.2-4.7c-0.8,2.5-1.4,4.5-4,4.6
			C178.9,204.1,174.8,204.5,170.6,205.1"/>
		<path class="st1" d="M95.9,47.6c-0.1-0.2-0.2-0.6-0.5-0.4c-0.2,0.1-0.1,0.5,0.2,0.6c0.1,1.5,0.5,3.1,1.6,3.9
			c1.6,1.2,2,2.8,2.6,4.5c0.2,0.8,0.6,1.6,0.7,2.4c0.4,1.7,1.1,1.6,2.3,0.7c9.6-6.9,20.6-9,32-9.3c6.1-0.2,12,1.3,17.9,2.8
			c16.8,4.3,30.3,13.2,39.3,28.4c5.9,10,8.9,21,9.5,32.6c0.4,7.3,0.1,14.7-2.1,21.7c-3.5,11.1-6.8,22.2-9.2,33.6
			c-0.4,1.9-1,3.9-1.2,5.8c-0.2,1.9-0.8,3.8-0.5,5.7c0.1-0.2,0.2-0.5,0.3-0.7c2.2-13.1,5.8-25.8,10.2-38.3
			c5.2-14.3,6.2-28.9,2.9-43.7c-5.6-24.7-20.2-41.3-44.8-48.5c-10.8-3.2-21.8-4.6-33.1-2.6c-7.3,1.3-14.2,3.9-20.5,7.9
			c-2,1.3-3.1,1-4.1-1.1c-0.6-1.2-1-2.6-1.5-3.9C97.7,48.5,97.2,47.7,95.9,47.6"/>
		<path class="st1" d="M178.4,146.9c0-2,0-4,0.3-6c1.5-13.6-1.8-26-10.7-36.5c-4.9-5.8-11.4-9.7-18.3-12.7c-11-4.7-22.1-5-33.3-0.9
			c-5.9,2.2-10.9,5.8-15.5,10c-0.3-0.8-0.2-1.6,0-2.4c1.1-0.9,2.1-2,3.3-2.8c12.6-8.7,26.4-11.2,41.2-6.9
			c17.8,5.1,29.1,16.8,34,34.6c1.5,5.7,1.8,11.5,1.1,17.4c-0.7,5.4-0.3,11-1.3,16.4c-0.1,0.8-0.3,1.7,0.5,2.2c0.7-6.1,1-12.2,2-18.3
			c1.9-11,0.4-21.5-4.4-31.5c-11-23.1-37-31.6-57.9-25.6c-7,2-13,5.8-18.5,10.5c-0.2-0.8-0.2-1.7,0-2.6c2-1.4,3.9-3,6.1-4.3
			c17-10.3,34.3-9.4,51.3-0.5c18.9,9.9,28.2,31.6,25.3,51.8c-1.4,9.9-2.4,19.9-2.9,29.9c0.3-2,0.5-3.9,0.7-5.9
			c0.8-7.5,1.6-14.9,3.2-22.3c2.8-12.8,1.2-25.1-4.7-36.7c-7.4-14.5-19.4-23.3-35.3-26.6c-11.8-2.5-23.1-1.5-33.9,4.1
			c-3.5,1.8-6.5,4.3-9.8,6.5c-0.2-0.9-0.2-1.8,0-2.7c3.9-2.3,7.7-5,11.9-6.6c9-3.4,18.3-4.4,27.8-3.4c10.9,1.2,20.5,5.1,28.7,12.3
			c9.4,8.3,15,18.7,17.2,31c1.3,7.2,1.4,14.4-0.3,21.7c-1.6,7.3-2.4,14.8-3.1,22.3c0.7-3.1,1.2-6.3,1.8-9.4c1.1-6,2.5-12,3.8-18
			c1.2-5.7,0.9-11.5,0.1-17.3c-2-14.4-8.3-26.6-19.6-35.9c-8.6-7-18.6-10.4-29.5-11.7c-12.3-1.5-23.7,0.9-34.1,7.8
			c-1.6,1-2.8,2.6-4.8,3.1c0-0.4,0-0.7,0-1.1c1.2-1.4,2.4-2.7,4-3.6c4.5-2.4,9-4.7,13.9-6.3c9.2-2.9,18.4-2.5,27.8-0.5
			c18.8,4,32.2,14.7,39.8,32.4c4.5,10.4,6.1,21.5,4.1,32.6c-1.7,9.3-3.9,18.6-5.4,28c-0.3,1.9-0.6,3.7-1,5.7c0.8-0.3,0.7-0.7,0.7-1
			c0.9-4.7,1.7-9.5,2.7-14.2c1.3-6.5,3.3-12.8,4.6-19.2c1.7-7.9,1.3-15.9-0.3-23.8c-2.9-14-9.6-25.7-21.1-34.5
			c-8.5-6.5-18.3-9.7-28.7-11.2c-12.2-1.8-23.7,0-34.5,6.3c-2.3,1.3-4.1,3.3-6.6,4.1c-0.3-0.7-0.2-1.3-0.1-2c0.8,0,1.2-0.6,1.8-1
			c4.8-3.4,9.8-6.7,15.7-8.2c11.5-2.8,22.9-2.3,34.2,1.2c15.1,4.6,26.8,13.3,34.4,27.2c5.2,9.5,7.6,19.7,7.8,30.5
			c0.1,4.5-0.1,9-1.3,13.3c-3.4,11.9-5.9,24-7.6,36.4c0.6-0.2,0.6-0.7,0.6-1c1.1-7.5,2.8-14.9,4.7-22.2c1.4-5.3,3.3-10.4,4.4-15.7
			c1.7-8.4,1.6-17,0.1-25.5c-2.6-14-8.7-26.1-19.5-35.5c-8.6-7.5-18.7-11.4-29.7-13.5c-15.3-2.9-29.6-0.9-42.6,8.1
			c-0.8,0.6-1.6,1.4-2.8,1.2c-0.1-0.6-0.4-1.2,0.3-1.7c1-0.1,1.7-0.9,2.5-1.4c3-2,6.3-3.8,9.6-5.1c9.2-3.8,18.7-4.6,28.4-3.3
			c9.9,1.3,19.4,3.8,27.9,9.1c18.7,11.8,27.2,29.5,28.5,51.1c0.5,8.3-0.6,16.4-3.2,24.4c-3.1,9.3-4.6,18.9-7.1,28.4
			c-0.1,0.3-0.1,0.7,0.4,0.8c0.5-0.3,0.5-0.9,0.6-1.4c1.3-6.6,3-13.1,4.9-19.6c1.6-5.6,3.9-11,5-16.6c3-15.4,1.8-30.6-4.7-45.1
			c-5.1-11.3-12.8-20.2-23.5-26.5c-7.9-4.7-16.6-7.2-25.7-8.7c-14.9-2.4-28.8-0.1-41.5,8.4c-1.1,0.7-2.1,1.1-3.3,0.2
			c-0.3,1.4,0.4,2.4,0.4,3.5c-1.5,0-2.9,0.3-4.4-0.1c-0.1-0.7,0-1.6-1.1-1.5c-2.3,0.1-4.7,0.1-7,0.1c-1,0-1.3,0.6-1.2,1.5
			c-0.5,0.6-0.5,1.4-0.5,2.1c-0.1,4.6-0.4,9.3-0.5,13.9c-0.1,8.7-1.3,17.3-1,26c0.2,7.6,0.2,15.3-0.3,22.9
			c-0.3,4.3-1.1,8.5-0.9,12.8c0.1,2.5,0.7,5,0.8,7.6c0.2,6.7,0.2,13.5,0.4,20.2c0,2.2,0.1,4.4,0.1,6.6c0,1.7,0.6,2.3,2.3,1.5
			c3.4-0.5,6.8,0.1,10.1,0c0.4,0.6-0.8,2.1,0.9,1.9c3.9-0.7,7.3,0.8,10.7,2.4c4.8,2.2,9.2,5.3,13.6,8.2c8.4,5.4,17.5,9.3,26.6,13.3
			c2.9,1.3,5.6,3.5,8.6,3.9c4.6,0.6,7.2,3.4,9.8,6.5c1.8,2.1,3.5,4.2,5.4,6.3c0.9,0.9,1.9,1.9,3.4,1.5c3.4-0.9,6.9-1.3,10.4-1.8
			c4.4-0.7,6.8-4.7,5.4-9.2c-0.7,3.9-2.8,5.9-6.7,6.2c-3.4,0.3-6.7,1-10,1.6c-1.2,0.2-2.2-0.1-3-1c-0.8-0.9-1.6-1.7-2.3-2.7
			c-2.5-3.3-4.3-7-7.1-10.2c-0.9-1.1-1.9-2.2-3.3-2.3c-1.4-0.1-2.4-0.8-3.5-1.5c-1.5-0.9-3-1.9-4.6-2.8c-11.6-6.6-23.9-12-35.4-18.8
			c-4.7-2.8-9.7-4.9-15.4-4.7c0-0.4,0-0.9,0-1.4c0.8,0,1.5-0.1,2.3,0c4.5,0.3,8.6,1.9,12.5,4c10.4,5.7,20.8,11.3,31.4,16.6
			c3.6,1.8,7,3.9,10.3,6.1c1.6,1.1,3.8,0.8,5.3,2.2c1.6,1.6,3,3.4,4.3,5.3c2,2.9,3.6,6,6,8.6c0.6,0.7,1.2,1.4,2.3,1.1
			c3.6-0.9,7.3-1.2,11-1.7c2.1-0.3,3.3-1.5,4-3.4c0.6-1.6,0.7-3.2,0.4-4.9c-0.5,0.1-0.4,0.5-0.5,0.8c-0.8,2.6-2.3,4.2-5.3,4.5
			c-2.9,0.2-5.7,0.7-8.6,1.1c-4.1,0.5-4.4,0.4-6.5-3.3c-2.1-3.7-4-7.5-6.1-11.3c-0.8-1.5-1.7-3.1-3.3-3.6c-1.7-0.5-2.8-1.6-4.1-2.5
			c-1.6-1.1-3-2.4-4.6-3.5c-11-7.4-23.1-12.9-35-18.5c-4.9-2.3-10.2-3.9-15.8-2.4v-1.5c4.2-1.2,8.3-0.3,12.4,1
			c6.1,1.9,11.6,5,17.2,7.9c9.4,4.8,19.1,9.2,27.3,16.2c0.6,0.5,1.2,1.3,2,1.5c2.6,0.5,4,2.4,5.2,4.4c1.1,1.8,2.1,3.7,3.2,5.6
			c-0.9-3.1-2.1-6.1-3.3-9.1c-1.2-3-3-5.4-5.7-7.4c-3.1-2.3-5.5-5.4-8.7-7.6c-9.9-7-20.7-12.2-32-16.4c-5.7-2.1-11.6-3.2-17.5-0.5
			c0-0.5,0-1.1,0-1.6c3.7-1.7,7.6-1.7,11.5-1c7.1,1.2,13.5,4.3,19.9,7.4c10.2,4.9,20.1,10.1,27.7,18.7c0.2,0.2,0.4,0.4,0.7,0.5
			c2.1,0.6,3,2.3,4,4c0.4,0.6,0.5,1.4,1.8,2.3c-2.1-4.7-3.1-8.9-6.3-12.7c-6.3-7.6-13.6-13.5-22.4-17.8c-7.1-3.4-14.1-6.9-22-7.9
			c-5.4-0.7-10.5,0.1-14.9,3.7c-0.2-0.7-0.3-1.5,0.2-2.2c4.8-3.3,10.3-3.9,15.8-2.9c11.5,2,21.6,7.4,31.4,13.5
			c6.6,4.2,11.2,10.6,16.5,16.4c-0.1-1.9-0.8-3.5-1.1-5.1h1.8c0.7,0.1,1.3,0.2,2,0.3c0,1.5,0.6,2.2,2.2,2c1.9-0.2,3.8-0.2,5.7,0
			c1.6,0.1,2.5-0.2,2.5-1.9c0.5-0.6,0.5-1.2,0.5-1.9C178.1,166.5,177.9,156.7,178.4,146.9"/>
		<path class="st1" d="M25.6,153.9c6.2,4.3,6.8,7.4,4.7,13c-1.7,4.5-1.5,5,2.2,8c1.3,1,1.4,2.2,0.5,3.4c-3.4,4.8-3.3,6.4,0.6,10.7
			c2.4,2.7,3.7,5.6,2.5,9.6c-1.9,6.1-0.5,12,2.8,17.4c1.3,2.1,3,3.9,5.5,4.5c4,0.9,8.1,0.7,12.2,0.5c1.1,0,1.9-0.7,2.8-1.4
			c-0.8-0.6-1.4-0.5-2-0.4c-2.6,0.4-5.1-0.1-7.6-0.1c-3.4,0-6.2-1.5-8-4.3c-3.6-5.5-5.1-11.7-3.4-18.1c1-3.9,0-6.7-2.6-9.3
			c-3-3-3.3-6.9-0.6-10.2c1.2-1.4,0.9-2.3-0.4-3.2c-2.5-1.6-3.1-3.8-2.3-6.4c0.3-1.1,0.7-2.2,1.1-3.3c1.1-3.1,0.5-5.7-1.9-7.9
			c-1.9-1.7-3.8-3.4-6.4-4.1"/>
		<path class="st1" d="M25.6,137.6c5.4-8,10.3-16.3,14.9-24.8c1.7-3.1,2.4-6.6,1.4-10.2c-1.4-5-3-9.9-3.6-15
			c-1.2-9.7-1.2-19.3,1.8-28.6c4.6-14.1,11.3-27.2,21-38.6c4.6-5.4,9.9-9.8,17.2-11c1.1-0.2,2.2-0.5,3.2-0.9
			c1.9-0.8,3.7-0.5,5.4,0.3c1.4,0.7,2.8,1.5,4.2,2.3c1.2,0.6,2.4,1.4,3.7,1.1c2.2-0.5,3.9,0.4,5.5,1.6c1.4,1,2.8,1.2,4.5,0.5
			c6.6-2.8,13.5-4.8,20.7-5.6c5.3-0.6,10.6-1.1,15.9-0.5c5.7,0.7,11.4,1.8,17.1,2.7c20.1,3.4,37.1,12.4,50,28.4
			c9.1,11.4,14.5,24.4,17.1,38.7c1.8,9.8,2.2,19.8,1.2,29.6c-0.8,8.6-2.4,17-5.3,25.2c-3.2,8.8-6.9,17.3-10.4,25.9
			c-5.4,13.6-10.6,27.2-12.6,41.8c-0.5,3.5-0.8,7-0.3,10.6c0.1-3.9,0.5-7.8,1.2-11.7c2.4-13.6,7.3-26.4,12.5-39.1
			c3.9-9.5,8.4-18.9,11.7-28.7c4.7-13.7,6.6-27.8,6.1-42.2c-0.5-12.4-2.9-24.4-7.8-35.9c-7-16.3-18.1-29.1-33.7-37.6
			c-15.7-8.6-32.8-12.3-50.6-13c-11.2-0.5-22.1,1.8-32.5,5.8c-0.8,0.3-1.8,0.9-2.6,0.5c-3.6-1.6-7.5-2-11.4-2.2
			c-0.5,0-1.1-0.3-1.6-0.5C85.8,4.7,82,4.5,78,6.3c-2.2,1-4.7,1.1-6.8,2.3c-5.3,3.1-9.7,7.3-13.6,11.9C51,28.5,46.1,37.4,41.8,46.7
			c-4.1,8.8-6.5,18-6.4,27.7c0,7.4,0.4,14.8,3.1,21.8c2.5,6.5,2.6,12.5-1.2,18.5c-5.8,9.2-11.1,18.8-17.8,27.3"/>
		<path class="st1" d="M26.7,142.2c0.2-0.4,0.4-0.7,0.6-1c0.9-1.3,1.9-2.5,2.8-3.9c4.9-7.5,9.1-15.4,13.4-23.3
			c2.2-4,2.6-8.2,1.2-12.4c-1.4-4.2-2.4-8.6-3-13.1c-1.4-10.6-0.8-21,3.1-31.1C49.5,45.3,55,33.6,63.4,23.5c4-4.8,8.6-9,15.2-9.8
			c1.4-0.2,2.8-0.6,4.2-1.1c2-0.8,3.6-0.3,5.2,0.9c1.5,1.1,3,2.2,4.5,3.4c0.9,0.7,1.9,1.1,2.9,0.9c1.7-0.2,3,0.4,4.1,1.5
			c1.9,2,3.8,1.9,6.2,0.7c9.5-4.6,19.8-6.4,30.3-6.3c10.4,0.1,20.5,2.3,30.4,5.2c22.3,6.5,38.8,19.9,48.7,41
			c8.8,18.7,10.1,38.4,7,58.6c-1.8,11.3-6.3,21.6-10.5,32.1c-5.3,13.4-10.6,26.8-13.5,40.9c-1.1,5.3-1.6,10.7-1.7,16.4
			c0.2-0.5,0.3-0.6,0.3-0.7c0.7-5.9,1.4-11.9,2.8-17.7c3.2-13,8.1-25.3,13.2-37.6c3.1-7.7,6.7-15.1,9-23.1
			c5.5-19.1,6.2-38.4,1.3-57.7c-3.4-13.4-9.6-25.4-19.2-35.6c-7.6-8-16.4-14-26.6-18.1c-11.9-4.8-24.5-7.6-37.4-8.2
			c-12.1-0.6-23.8,1.4-34.9,6.3c-1.5,0.6-2.9,0.6-4.1-0.2c-2.1-1.4-4.2-2.4-6.9-2.1c-1.3,0.1-2.6-0.5-3.6-1.3
			c-3.5-2.8-7.1-2.6-11.4-1.5c-6.1,1.6-10.9,4.7-15.1,9.2c-8.1,8.5-13.6,18.6-18.4,29.2c-4.6,10.1-7,20.6-6.3,31.7
			c0.4,6.2,0.9,12.4,3.2,18.2c2,5.2,1.9,10.3-0.8,15.1c-5.5,9.6-10.8,19.4-17.6,28.2"/>
		<path class="st1" d="M28.1,150.9c-0.5-0.4-0.8-0.8-1.1-1.4c-1.3-2.5-1.6-4.9-0.3-7.3"/>
		<path class="st1" d="M21.6,153.1c-0.4-0.4-2.9-3-3.2-3.5c-1.3-2.5-1.2-5.7,0-8.1"/>
		<path class="st1" d="M25.6,151.1c3.2,1,5.6,3.1,7.9,5.5c1.6,1.7,2,3.9,1.6,6.2c-0.3,1.2-0.6,2.4-1,3.6c-1.2,3.6-0.9,4.7,2,7.1
			c1.7,1.4,1.8,2.3,0.4,4c-2.7,3.4-2.5,6.3,0.6,9.4c2.6,2.7,3.7,5.6,2.6,9.6c-1.8,6.4-0.3,12.4,3.4,17.9c1.3,1.9,3.2,3.1,5.7,3.4
			c3.4,0.4,6.7,0.3,10.1,0.3c0.4,0,0.8-0.1,1.2-0.2c0.5-0.2,1.2-0.4,1.1-1.1c-0.1-0.8-0.9-0.4-1.4-0.4c-2.3-0.1-4.7,0-7-0.2
			c-3-0.2-5.7-1.1-7.4-3.8c-3.5-5.7-5.1-11.8-3.3-18.3c0.9-3.3,0-5.8-2.2-8.1c-3.2-3.4-3.5-6.8-0.7-10.5c1.1-1.4,0.5-2.1-0.7-2.8
			c-2.4-1.5-2.7-3.6-2.1-6.1c0.3-1.1,0.8-2.2,1.1-3.3c0.6-2.1,0.9-4.2-0.7-6.1c-1.9-2.4-4.1-4.5-7.1-5.5c-0.5-0.1-1-0.4-1.4-0.7"/>
		<path class="st1" d="M195.3,204.3c0.3-7,1.7-13.9,3.5-20.6c3.8-14.6,9.6-28.6,15.4-42.5c6.2-15,8.9-30.6,8-46.8
			c-0.8-14.3-4.3-27.8-11.6-40.3c-8.1-13.9-19.5-23.9-34.2-30.3c-10.3-4.4-21-6.9-32.1-8c-13.4-1.4-26.4,0.2-38.7,6
			c-2.4,1.1-4.3,0.9-6.2-0.9c-0.8-0.8-1.6-1.8-3-1.7c-2.4,0.3-4.4-0.7-6-2.3c-3.1-3-6.2-3.4-10.4-2.4C73.8,16,68.9,19,64.8,23.8
			C58.7,31,54.2,39.3,50.2,47.9c-5.1,10.9-8.6,22-7.7,34.3c0.5,6.3,1,12.6,3.3,18.6c1.6,4.3,1.5,8.7-0.6,12.7
			c-5.1,9.7-10.1,19.5-16.7,28.2c-2.5,3.3-1.2,7.2,2.4,9.2c6.7,3.7,10.1,7.7,6.8,14.9c-0.1,0.2-0.1,0.4-0.2,0.6
			c-0.8,2.7-0.4,3.8,1.8,5.5c1.9,1.5,2.1,2.6,0.6,4.5c-2.3,2.8-2.1,5.8,0.4,8.5c2.3,2.4,3.9,5.2,2.8,8.8c-1.7,6-0.6,11.7,2.4,17.1
			c1.4,2.4,3.3,3.8,6.3,4.1c3,0.3,6.1,0.2,9.1,0.3c1.2,0,2.2-0.3,3.1-1.6c-3.6-0.3-6.9,0-10.1-0.5c-2.4-0.4-4.3-1.4-5.6-3.5
			c-3.2-5.5-4.7-11.4-3.1-17.6c0.8-3.2,0.2-5.9-2.2-7.9c-2.9-2.4-2.7-7.5-0.6-9.9c0.9-1,0.9-1.8-0.3-2.5c-2.8-1.8-2.8-4.3-2-7.1
			c1.9-6.4,1.5-7.7-3.7-11.9c-0.8-0.6-1.5-1.2-2.5-1.4c-1.4-0.3-2.3-1.4-2.8-2.6c-1.1-2.7-1.1-5.4,0.7-7.9
			c6.1-8.3,10.5-17.6,15.1-26.8c1.8-3.5,2.1-7.3,0.9-11.1C44,90.8,43.5,78.5,46.2,66c1.2-5.3,3.5-10.3,5.6-15.3
			c3.9-8.9,8.1-17.7,14.6-25.1c3.1-3.5,6.4-6.9,11.5-7.6c2.3-0.3,4.5-0.8,6.6-1.6c1.3-0.5,2.5-0.1,3.4,0.8c1.5,1.4,2.8,2.8,4.3,4.2
			c0.9,0.9,1.8,2,3.1,1.9c2.3-0.2,3.6,1.1,4.8,2.7c1.3,1.7,2.7,1.9,4.7,1c9.4-4.7,19.5-6.8,30-6.9c11.6,0,22.9,2,33.9,5.7
			c15.8,5.3,28.6,14.7,37.7,28.8c12.7,19.6,15.5,41.2,12.5,63.9c-1.2,9.3-4.5,18-7.9,26.7c-5.5,14-11,27.9-14.1,42.7
			C195.8,193.3,194.7,198.7,195.3,204.3"/>
		<path class="st1" d="M194.5,192.9c0.8-3.8,1.6-7.6,2.6-11.4c3.4-13.3,8.2-26,13.4-38.6c4.9-11.8,7.8-23.9,8.1-36.7
			c0.3-12.6-1.5-24.9-6.1-36.6c-5.2-13.2-13.3-24.2-24.9-32.5c-8.7-6.3-18.5-10.1-28.8-12.6c-11.3-2.7-22.6-4.1-34.2-2.3
			c-6.9,1-13.4,3.1-19.6,6.2c-1.2,0.6-2.7,1.5-3.9,0.3c-2.2-2.2-4.6-3.8-7.7-4.6c-1.9-0.5-3.2-2.6-4.5-4.2c-1.6-1.8-3.3-2.8-5.7-1.6
			c-0.7,0.3-1.5,0.4-2.2,0.5c-6.5,0.5-11,4.3-14.8,9.2c-5.7,7.3-9.7,15.7-13.5,24.1c-3.7,8.2-6.6,16.7-6.7,25.8
			c-0.1,8.2,0.4,16.4,3.2,24.2c1.5,4.1,1.1,8.4-0.8,12.3c-4.7,9.4-9.2,18.8-15.4,27.3c-2,2.8-1.1,6.9,1.6,8.2
			c6.8,3.5,10.3,8.1,7,14.7c-0.1,0.1,0,0.3-0.1,0.4c-0.8,2.2-0.4,4,1.6,5.5c1.9,1.4,1.9,2.4,0.5,4.3c-2,2.7-1.8,5.4,0.3,7.8
			c2.5,2.8,3.6,5.7,2.6,9.6c-1.5,5.9-0.1,11.5,3.1,16.6c0.8,1.2,1.8,2.1,3.2,2.4c3.9,0.7,7.8,1,11.7,0.5c0.8-0.1,1.6-0.3,1.7-1.5
			c-3.2-0.1-6.3,0-9.4-0.4c-2.2-0.3-4-1.2-5.1-3c-3.2-5.3-4.5-11-3.1-17c0.8-3.2,0-5.7-2-8c-2.3-2.7-2.7-6.4-0.5-9.2
			c0.9-1.1,0.8-1.7-0.3-2.5c-2.3-1.6-2.6-3.9-1.8-6.4c0.1-0.4,0.2-0.8,0.4-1.2c1.5-3.4,0.9-6.3-1.8-8.8c-1.4-1.3-2.7-2.8-4.6-3.4
			c-0.6-0.2-1-0.6-1.4-1.2c-1.9-2.8-1.8-6.5,0.3-9.3c0.8-1,1.5-2,2.1-3.1c4.3-7.3,8-14.9,11.5-22.7c1.2-2.8,1.8-5.9,1-8.9
			c-1.1-4.2-2.4-8.3-2.8-12.7c-0.6-6.5-0.8-12.9,0-19.4c1-7.3,3.8-13.9,6.5-20.6c3.6-8.7,7.5-17.2,13.6-24.5c2.4-2.8,5-5.4,8.8-6
			c2.8-0.5,5.6-0.8,8.3-1.7c1-0.3,1.9,0.1,2.6,0.8c1.4,1.3,2.3,2.9,3.5,4.3c1.4,1.7,2.4,3.8,5.1,3.6c0.7,0,1.2,0.7,1.6,1.2
			c0.6,0.8,1.2,1.5,1.7,2.3c0.9,1.2,1.7,1.6,3.2,0.7c9-5.1,18.8-7.3,29.1-7.7c14.4-0.4,28,3.1,41.1,8.7c11.7,5,21.1,13.1,28.2,23.5
			c9,13.2,13.3,28,13.8,43.9c0.4,12.4-1.1,24.6-5.6,36.3c-5,13.1-10.1,26.2-13.6,39.9C195.7,183,194.7,187.8,194.5,192.9"/>
		<path class="st1" d="M191.3,188.6c0.1-0.4,0.3-0.9,0.4-1.3c2.1-13.7,6.5-26.7,11.1-39.7c1.9-5.5,4.3-10.8,5.7-16.4
			c3.8-15,3.9-30.2-0.2-45.2c-5.4-19.3-16.4-34.3-34.6-43.4c-9.8-4.9-20.3-7.4-31.1-8.6c-13.3-1.4-26,0.6-37.8,7.1
			c-3.1,1.7-4.3,1.5-5.8-1.9c-1.2-2.9-4.1-2.9-5.9-4.6c0.7,1.7,1.5,3.2,2.3,4.7c0.3,0.6,0.8,1.3,1.5,1.4c1.6,0.1,2,1.3,2.5,2.4
			c0.4,0.9,0.8,1.8,1.2,2.6c0.6,1.3,1.3,1.6,2.7,0.8c10.3-5.9,21.3-9.1,33.4-8.5c8.2,0.4,16.2,2.1,24.1,4.6
			c20.7,6.4,35,19.7,42.9,39.9c3.2,8.3,4.9,16.9,5.2,25.8c0.4,9.2-0.3,18.4-3.2,27.1c-4.3,12.9-9,25.6-12,38.9
			C192.5,178.9,191.5,183.7,191.3,188.6"/>
		<path class="st1" d="M191.1,178.1c0.1-0.5,0.3-1,0.4-1.5c1.9-9,4.6-17.7,7.5-26.4c2-6.2,4.7-12.3,6.2-18.6
			c3.3-13.5,3.3-27.2-0.3-40.7c-5.1-19.2-16-34-34.1-43c-8-4-16.5-6.1-25.3-7.5c-14.5-2.2-28.4-0.4-41.3,7.2
			c-2.8,1.6-3.8,1.4-5.1-1.6c-1.1-2.4-2.3-4.5-4.9-5.2c-0.1,1,1.7,4.9,2.8,5.3c1.4,0.4,1.7,1.4,2.2,2.5c0.4,1,0.8,2,1.1,3.1
			c0.5,1.7,1.2,2.2,3,1c3.6-2.4,7.6-4.2,11.7-5.6c12.5-4.3,25.1-3.6,37.7-0.8c15.9,3.6,29.3,11.1,38.9,24.6
			c12.7,17.8,15.7,37.7,12.1,58.8c-1.1,6.5-3.8,12.5-5.7,18.7C195.3,158.4,192.5,168,191.1,178.1"/>
		<path class="st1" d="M200.1,230.2c0,0.2-0.1,0.5-0.2,0.7c-0.9,4.4-3.5,7.2-7.9,8.3c-3.9,0.9-7.8,1.7-11.6,2.9
			c-1.6,0.5-3.4,0.3-5.1,0c-4-0.8-7.7-2.6-11.6-3.7c-3.2-1-6.4-0.4-9.6-0.3c-4.8,0.1-9.6-0.7-14.4-1.1c-11-0.9-19.7-6.2-26.9-14.2
			c-3.7-4.1-7.5-8.1-11.3-12.1c-2.6-2.7-5.8-4.6-9.4-6c-3.6-1.5-6.8-1.6-10.1,0.4c-1.1,0.7-2.3,1.2-3.6,1.5c-2.3,0.5-4,1.8-5.3,3.8
			c2.5-0.9,5.2-0.9,7.5-2.2c2.4-1.4,5.2-1.5,7.6-0.8c3.5,1.1,6.6,3,9.3,5.5c4.5,4.2,8.3,9,12,13.9c4.2,5.7,9.2,10.3,15.7,13.3
			c6,2.8,12,5.2,18.8,4.5c4.3-0.4,8.6-0.3,12.9-1.1c4.3-0.8,8.6,0.4,12.8,1.3c4.1,0.9,8.3,1.9,12.4,0.5c3.4-1.1,6.9-1.8,10.4-2.8
			C198.6,240.9,201.5,236.4,200.1,230.2"/>
		<path class="st1" d="M75.8,205.8c2.2-0.4,4.5-0.7,6.3-2.1c0.6-0.5,1.3-0.8,2-1c5.2-1.2,9.8,0.8,13.9,3.5c5.2,3.4,9.2,8.3,13.2,13
			c5.3,6.1,11.1,11.3,18.7,14.3c6.3,2.5,12.9,2.4,19.5,3.2c3.8,0.5,7.5-0.6,11.3-0.2c4.3,0.5,8.2,2.4,12.2,3.7
			c2.9,0.9,5.7,1.3,8.7,0.4c3.4-1.1,6.9-1.8,10.4-2.6c5-1.3,8-6.4,6.6-11.4c-2.3,6.5-3.5,7.5-10.4,8.8c-2.3,0.4-4.7,0.8-6.8,1.6
			c-3,1.1-5.8,0.7-8.6-0.5c-1.3-0.5-2.5-1.2-3.7-1.8c-3.4-1.7-6.6-4.1-10.5-3.8c-3.8,0.2-7.5-0.4-11.2-0.9
			c-13.7-1.6-25.3-7.1-35.1-17.1c-5.5-5.6-10.4-12.2-19.3-13.5c-3.6-0.5-6.7-0.8-9.6,1.6c-0.9,0.7-2,1.3-3.1,1.5
			C78.2,202.9,76.8,204.1,75.8,205.8"/>
		<path class="st1" d="M197.1,222.7c-0.1,0.1-0.3,0.1-0.3,0.2c-0.9,4.9-4.1,7.2-8.8,7.8c-2.9,0.4-5.8,1-8.7,1.8
			c-2.1,0.6-3.9,0.3-5.8-0.6c-2.3-1.2-4.4-2.8-6.5-4.4c-3.2-2.3-6.5-4.5-10.8-3.8c-0.6,0.1-1.2-0.1-1.8-0.3
			c-3.5-0.9-7.1-1.8-10.6-2.7c-10.1-2.4-19.3-6.8-27.3-13.6c-4.5-3.9-9.1-7.6-13.9-11.1c-4-2.9-8.3-2.2-12.6-2.1
			c-1.5,0-3.4,0.6-4.7,1.9c-1.3,1.3-2.6,2.3-4.5,2.8c-1.2,0.3-2.2,1.4-3,2.8c1.9-0.2,3.5-0.6,4.7-1.8c0.8-0.7,1.6-1.3,2.6-1.6
			c4.9-1.3,9.5-0.4,13.9,1.8c4.6,2.4,8,6.2,11.8,9.7c3.6,3.3,6.9,6.9,10.9,9.8c7.3,5.2,15.6,7.8,24.4,9c3.5,0.5,6.9,1.6,10.4,1.2
			c2.1-0.2,4.3,0,6.3,0.7c2.9,1,5.6,2.7,8.4,4c2.5,1.2,5,2.7,7.8,2c3.9-1.1,7.8-1.8,11.6-2.7C195.5,232.3,198.3,227.6,197.1,222.7"
			/>
		<path class="st1" d="M195.4,219c-0.1,0-0.1,0-0.2,0.1c-0.1,0.2-0.1,0.4-0.2,0.6c-1,4-3.6,6-7.6,6.5c-2.8,0.4-5.6,0.7-8.3,1.6
			c-3,0.9-5.4,0.2-7.6-1.8c-2.6-2.3-5.1-4.7-7.7-6.9c-1.5-1.2-3.1-2.5-5.1-2.4c-1.9,0.1-3.5-0.4-5.2-1.1c-2.8-1-5.7-2.1-8.6-3.1
			c-10.2-3.3-19.7-8-28.1-14.5c-3.8-2.9-7.8-5.4-11.8-8.1c-4.7-3.1-9.5-2.1-14.2-0.9c-1.6,0.4-3.7,1.1-4.7,3
			c-0.8,1.5-2.5,1.9-3.5,3.1c-0.2,0.2-0.7,0.1-0.9,0.3c-0.4,0.4-1.4,1-0.3,1.5c0.8,0.4,1.5-0.5,2.1-1c0.1,0,0.1-0.1,0.1-0.1
			c2.7-2.5,5.7-3.9,9.5-3.1c0.5,0.1,1,0.2,1.4,0c2.2-0.7,4.2,0,6.2,0.9c4.1,2,7.6,4.7,11,7.7c6.8,6,13.8,11.7,22.3,15
			c6.1,2.4,12.5,3.9,18.8,5.4c1.3,0.3,2.5,1,3.8,0.7c3.6-0.6,6.5,0.9,9.3,2.7c2.4,1.6,4.6,3.3,7,4.8c1.6,1,3.3,1.9,5.4,1.4
			c3.5-0.8,7-1.6,10.5-2.2C193.7,228.3,196.5,224,195.4,219z"/>
		<path class="st1" d="M193.7,214.9c-0.8,4.4-3.4,6.6-7.8,6.9c-2.9,0.3-5.7,0.8-8.5,1.5c-2.1,0.5-3.6,0-5.1-1.3
			c-2.7-2.3-4.6-5.4-7-7.9c-1.7-1.9-3.3-4.1-6-4.4c-1.7-0.2-3.2-0.8-4.7-1.5c-2.3-1-4.5-2.2-6.7-3.1c-11.7-4.9-23-10.6-33.5-17.8
			c-3.6-2.5-7.6-4.6-11.9-5.6c-1.9-0.5-3.9-0.7-5.6,0.4c-0.9,0.6-1.9,1-3,1.3c-1.2,0.3-2.4,0.4-2.5,2.2c0,0.5-0.4,0.9-1,0.8
			c-1.5-0.1-1.6,0.8-1.6,2c2.9-1.5,6.1-1.2,9.1-2.1c1.2-0.4,2.6,0.3,3.8,0.7c2.8,1,5.4,2.5,7.9,4.1c3.9,2.6,7.6,5.5,11.4,8.2
			c8,5.6,16.8,9.4,26,12.5c3.3,1.1,6.5,3.1,10,3.3c4.3,0.2,7.2,2.3,10.1,4.9c2.1,1.9,4.2,3.8,6.4,5.6c1.5,1.3,3.1,1.6,5,1
			c1.6-0.5,3.2-0.8,4.8-1.1c1.2-0.2,2.4-0.4,3.7-0.6C192.4,224,194.7,220.7,193.7,214.9"/>
		<path class="st1" d="M68.7,207.6c-2.9-0.1-5.6-0.3-8.4-0.4c-2.7-0.1-4.7-1.2-5.8-3.6c-2.5-5.1-3.8-10.4-2.4-16
			c0.7-2.8,0-5-1.6-7.1c-2.5-3.2-2.7-5.9-0.6-9.2c0.5-0.8,0.7-1.5-0.2-2.1c-2.5-1.9-2.4-4.4-1.6-7.1c1.5-5-0.1-9-4.7-11.6
			c-3.7-2.1-4.8-6.7-2.3-10.2c1.5-2.1,2.8-4.3,3.9-6.5c3.1-6,5.9-12.1,8.6-18.3c1.4-3.2,1.8-6.8,0.7-10.1c-2-6.1-2.5-12.4-2.8-18.7
			c-0.4-8.5,1.2-16.7,4.3-24.6c3.6-9.2,7-18.6,12.5-26.9c2.1-3.2,4.3-6.5,7.9-7.9c3.8-1.4,8-1.9,12.1-2.2c0.9-0.1,0.8-0.4,0.6-0.7
			c-0.8-1.1-1.4-2.6-3.3-2c-2.1,0.6-4.1,1-6.3,1.3c-3.1,0.4-5.6,1.7-7.7,4c-1.1,1.2-2.2,2.3-3.1,3.6c-5,6.6-8.4,14.1-11.7,21.5
			c-5.2,11.7-8.7,23.7-7.2,36.6c0.5,4.3,0.7,8.7,2.2,12.8c1.8,5,1.5,9.9-0.8,14.6c-4.2,8.6-8.1,17.4-13.6,25.3c-2,2.9-0.7,6.1,2.2,8
			c5.9,3.9,8.5,7.3,5.9,13.8c-0.9,2.4-0.7,4.4,1.5,6.1c1.4,1,1.4,2.3,0.4,3.6c-2.2,3.1-2.1,5.3,0.3,8.2c1.9,2.3,3.2,4.8,2.3,8
			c-1.6,5.6-0.4,10.8,2,15.8c0.9,2,2.4,3.3,4.7,3.6c3.4,0.3,6.7,0.4,10.1,0.2C67.7,208.9,68.4,208.7,68.7,207.6"/>
		<path class="st1" d="M89.6,28.6c-0.6-2-1.6-3-3.6-2.3c-0.6,0.2-1.2,0.3-1.8,0.3c-5.2,0.5-9.9,1.8-12.9,6.5c-0.7,1.1-1.5,2-2.1,3.1
			c-4.1,6.4-6.9,13.3-9.7,20.3c-3.9,9.5-7,19.2-6.4,29.6c0.3,5.6,0.4,11.4,2.3,16.7c1.5,4.3,1.5,8.5-0.2,12.5
			c-3.8,8.9-7.4,17.8-12.9,25.8c-1.8,2.7-0.7,6.1,2,8c3.5,2.4,6.8,5.2,6,10.2c-0.2,1.3-0.5,2.6-0.9,3.8c-0.6,1.8-0.3,3.4,1.2,4.6
			c1.6,1.3,1.7,2.6,0.5,4.3c-1.8,2.5-1.5,4.8,0.4,7.1c2.1,2.6,2.9,5.4,2.1,8.8c-1.3,5.4,0,10.5,2.6,15.3c0.6,1.1,1.6,1.9,2.9,2.1
			c3.4,0.5,6.9,0.4,10.3,0.4c1,0,1.7-0.4,1.8-1.6c-3-0.1-5.9,0-8.9-0.3c-2.2-0.2-3.6-1.4-4.4-3.2c-2.3-5-3.4-10.2-2.1-15.7
			c0.6-2.4,0.1-4.6-1.5-6.4c-2.6-2.9-2.4-5.8-0.6-8.9c0.5-0.9,0.5-1.5-0.2-2.2c-2.2-1.8-2.1-4.2-1.4-6.6c1.4-4.8,0.1-8.5-4-11.2
			c-3.7-2.5-4.5-6.6-1.9-10.3c0.7-1,1.4-2.1,1.9-3.2c3.4-6.7,6.4-13.6,9.1-20.6c1.2-3.1,1.7-6.4,0.6-9.6c-1.4-4.2-1.8-8.5-2.3-12.8
			c-0.7-7.7-0.4-15.3,1.7-22.8c1.6-5.7,3.9-11.3,6-16.9c2.5-6.6,5.3-13,9.5-18.8c2.2-3,4.9-4.8,8.8-5.1C84,29.7,86.8,29.1,89.6,28.6
			"/>
		<path class="st1" d="M73.2,201.5c-2.8-0.1-5.4-0.4-8-0.4c-2.4,0-3.7-1.3-4.5-3.3c-2-4.8-3-9.8-1.8-14.9c0.5-2.2,0.1-4.3-1.2-5.9
			c-2.4-2.8-2.1-5.6-0.6-8.6c0.4-0.8,0.5-1.4-0.2-2c-2.1-1.9-1.9-4.2-1.2-6.7c1.2-4.1-0.3-8.3-3.9-10.6c-1.8-1.1-2.3-2.6-2.6-4.4
			c-0.5-2.7,0.8-4.7,2.1-6.9c3.1-5.5,5.1-11.6,7.4-17.5c2.1-5.2,2.6-10.3,1.4-16.1c-2.7-12.1-2.6-24.3,1.8-36.2
			c1.1-3.1,2-6.3,3.1-9.4c2.5-7.1,4.9-14.3,9.4-20.6c1.7-2.4,3.9-3.9,7-4.2c3-0.2,5.9-0.5,8.9-1.4c-0.6-1.9-1.6-2.6-3.4-2.1
			c-1.5,0.4-3.1,0.6-4.7,0.7c-4,0.2-6.9,2-9,5.3c-0.8,1.2-1.7,2.4-2.3,3.7c-6.4,12.6-11.9,25.5-14,39.5c-1.2,8.1-0.4,16.3,1.6,24.2
			c1.1,4.3,1.3,8.5-0.3,12.6c-3.4,8.4-6.5,17-11.5,24.7c-1.5,2.2-0.6,5.7,1.2,7.1c5.5,4.1,7.6,7.6,5.4,13.4
			c-0.7,1.8-0.5,3.7,1.1,5.1c1.4,1.2,1.3,2.4,0.3,4c-1.5,2.1-1.1,4.8,0.5,6.9c1.8,2.3,2.6,4.9,1.8,7.9c-1.2,5-0.1,9.8,1.9,14.5
			c0.6,1.4,1.6,2.4,3.2,2.6c3.1,0.3,6.2,0.4,9.3,0.4C72.3,203,73.2,202.9,73.2,201.5"/>
		<path class="st1" d="M75.5,198.6c-2.4-0.1-4.7-0.4-6.9-0.3c-2.7,0.1-4-1.3-4.9-3.6c-1.6-4.5-2.2-9.1-1.3-13.8c0.4-2,0.1-4-1.1-5.5
			c-2.1-2.7-1.9-5.3-0.6-8.1c0.4-0.8,0.4-1.4-0.2-2c-1.7-1.8-1.7-4-0.9-6.2c1.6-4.3-0.6-7.4-3.3-10.2c-2.6-2.6-3.4-6.2-1.5-9.4
			c0.8-1.2,1.4-2.5,2-3.9c2.5-6,4.6-12.1,6.6-18.3c0.6-1.8,0.8-3.6,0.8-5.5c0-4.5-1.7-8.8-1.9-13.2c-0.4-7.5-0.7-14.9,1.2-22.2
			c2-7.7,4.6-15.1,7-22.7c1.4-4.2,3.1-8.4,5.6-12.1c1.4-1.9,3-3.2,5.5-3.5c3.1-0.3,6.2-0.4,9.2-1.2c-0.3-2.1-1.4-2.5-3.2-2.2
			c-1.8,0.4-3.5,0.6-5.3,0.7c-3.2,0.1-5.5,1.5-7.2,4.2c-0.5,0.8-1.1,1.6-1.5,2.4c-5.9,12.1-10.6,24.6-13,37.9
			c-1.5,8.4-0.9,16.8,1.1,25c1,4.2,1.2,8.3-0.2,12.2c-3,8.1-5.6,16.4-10.3,23.9c-1.2,2-0.6,5.4,0.9,6.7c5.6,4.8,6.8,7.6,5,13.1
			c-0.5,1.6-0.6,3.1,0.7,4.4c1.4,1.3,1.5,2.7,0.5,4.4c-1.1,1.8-1.4,4,0.1,5.8c2,2.6,2.5,5.3,1.9,8.5c-0.9,4.8,0,9.5,2.1,13.9
			c0.6,1.3,1.6,2,3.1,2c2.8,0,5.7,0.1,8.5,0.1C74.8,199.8,75.5,199.7,75.5,198.6"/>
		<path class="st1" d="M91.8,41.1c-0.1-2.2-1.2-2.8-3-2.4c-1.5,0.3-3,0.6-4.5,0.5c-4.6-0.2-7,2.5-8.7,6.2c-0.3,0.6-0.6,1.2-0.9,1.9
			C70.1,59,65.8,70.8,64,83.2c-1.2,8-0.5,16.1,1.3,24c0.4,1.9,0.8,3.8,0.4,5.7c-1.8,9.6-5.2,18.7-9.6,27.3c-1.1,2.1-1,5.5,0.5,6.7
			c4.1,3.5,6.3,7.6,4.3,13.1c-0.5,1.5-0.2,2.8,0.9,4c1.1,1.2,1.1,2.3,0.3,3.8c-1.1,2.1-1.2,4.2,0.4,6.4c1.4,1.9,2,4.2,1.4,6.7
			c-1,4.5-0.1,8.9,1.3,13.2c0.5,1.7,1.6,2.7,3.5,2.7c2.5,0,5,0,7.4,0.1c0.9,0,1.7-0.3,2-1.6c-2.4,0-4.5-0.1-6.7,0
			c-2.3,0.1-3.6-1-4.3-3.1c-1.4-4.4-2.2-8.8-1.3-13.4c0.4-1.9,0.2-3.8-0.9-5.4c-1.8-2.5-1.5-5-0.5-7.6c0.3-0.8,0.4-1.4-0.2-2.1
			c-1.4-1.7-1.5-3.7-0.8-5.7c1.4-3.9-0.4-6.9-2.6-9.7c-2.7-3.3-3.1-6.1-1-9.9c0.6-1.1,1.2-2.3,1.6-3.6c1.8-5.5,3.7-11,5.3-16.5
			c0.8-2.9,1.3-5.9,0.6-9c-2.2-9.9-2.6-20-0.5-29.9c1.6-7.4,3.9-14.6,6-21.9c1.2-4.3,2.7-8.5,5-12.4c1.2-2.1,2.9-3.1,5.3-3.2
			C85.9,41.8,88.8,41.4,91.8,41.1"/>
		<path class="st1" d="M80.3,192.3c-2.3,0-4.2-0.1-6.2,0c-2.1,0.1-3.2-0.9-3.8-2.8c-1.2-4.3-1.9-8.8-1.1-13.3
			c0.3-1.6,0.1-3.3-0.7-4.6c-1.6-2.5-1.3-5-0.4-7.5c0.2-0.7,0.2-1.2-0.2-1.7c-1.3-1.7-1.2-3.7-0.7-5.5c1-3.7-0.5-6.7-2.6-9.5
			c-0.6-0.8-1.1-1.7-1.4-2.7c-0.7-2.6,0.2-4.8,1.2-7.1c2.3-5.7,3.6-11.7,5.1-17.6c0.8-3.2,1.2-6.5,0.7-9.8c-1.6-8.9-2-17.9-0.4-26.9
			c1.2-6.5,2.9-13,4.5-19.5c1.2-5.1,2.5-10.2,4.8-14.9c0.9-1.8,2.1-2.8,4.3-3c3.1-0.2,6.2-0.1,9.2-0.8c-0.1-1.9-0.9-2.6-2.8-2.3
			c-1.1,0.2-2.3,0.5-3.5,0.3c-5-0.5-7.9,2-9.3,6.6c-0.1,0.3-0.3,0.6-0.4,0.9c-3.8,11.3-7.5,22.7-9.2,34.6c-1,7.2-0.5,14.3,0.6,21.4
			c0.3,2.2,1,4.4,0.7,6.7c-1.2,9.2-4.3,17.9-8.1,26.3c-1.1,2.5-0.8,5.1,0.8,7.2c2.7,3.2,4.8,6.7,3.3,11.3c-0.6,1.7-0.5,3.4,0.7,4.9
			c0.9,1,0.7,2.1,0.2,3.3c-0.9,2-1.1,4,0.3,6.1c1.3,2,1.6,4.3,1.2,6.7c-0.8,4.4,0,8.7,1.3,12.8c0.3,1,0.9,1.5,2.1,1.7
			c2.3,0.3,4.5,0.1,6.8,0.3C78.7,193.9,79.5,193.6,80.3,192.3"/>
		<path class="st1" d="M93.5,49.3c0.1-2.2-1-2.6-2.7-2.4c-1.3,0.2-2.6,0.5-3.9,0.3c-5.1-0.7-6.8,2.4-8.1,6.5
			c-2.4,7.6-3.8,15.5-5.9,23.2c-2.2,8.1-2.7,16.2-2.1,24.5c0.3,3.7,1.5,7.3,1.3,11c-0.4,9.5-3.3,18.3-6.8,27.1
			c-0.9,2.4-0.7,4.8,0.8,6.9c2.3,3.3,4,6.8,2.6,11c-0.5,1.5-0.3,2.9,0.5,4.1c0.8,1.1,0.8,2.2,0.2,3.5c-0.8,1.8-0.8,3.7,0.3,5.5
			c1.1,1.9,1.5,4.1,1,6.2c-0.8,4.1,0,8.1,1,12c0.1,0.6,0.3,1.6,1,1.6c2.6,0.2,5.2,0.3,7.8,0.3c0.5,0,0.9-0.5,0.9-1
			c0-0.6-0.6-0.4-0.9-0.4c-1.2,0-2.5-0.1-3.7-0.1c-1.8,0-2.8-0.7-3.2-2.4c-1-4.1-1.5-8.3-0.9-12.5c0.2-1.6,0.1-3.3-0.7-4.6
			c-1.2-2.2-1-4.4-0.4-6.6c0.2-0.8,0.4-1.4,0-2.1c-1-1.6-0.9-3.4-0.5-5.2c0.4-1.9,0.3-3.8-0.4-5.7c-0.7-1.7-1.9-3.2-2.4-5
			c-0.8-2.7-0.2-5.3,0.8-8c2-5.8,3.1-12,4.3-18.1c0.5-2.5,0.8-5.1,0.4-7.6c-1.5-8.5-1.7-17-0.4-25.5c1-6.6,2.5-13.3,3.8-19.9
			c0.9-4.6,1.8-9.2,3.6-13.5c0.8-2,2-2.9,4.2-2.9C87.6,49.8,90.5,49.5,93.5,49.3"/>
		<path class="st1" d="M94.2,53.4c0.1-1.9-0.5-2.7-2.5-2.4c-1.7,0.3-3.4,0.1-5.2,0.3c-4.1,0.4-4.1,0.4-5.4,4.4
			c-2.2,7.1-3.1,14.5-4.8,21.8c-2.4,10-3.1,20-1.8,30.1c0.7,5.1,0.7,10.1-0.5,15.1c-1.4,5.9-2.3,11.9-4.7,17.5
			c-0.8,1.8-0.2,3.7,0.8,5.5c1.8,3.2,3.4,6.4,2.4,10.4c-0.4,1.5-0.4,3.1,0.5,4.6c0.5,0.9,0.4,1.8,0,2.8c-0.5,1.6-0.8,3.3,0.1,5
			c1,1.8,1.3,4,0.9,6c-0.6,3.3-0.1,6.6,0.5,9.8c0.5,3.3,0.6,3.3,3.8,3.3c1,0,2.1,0,3.1,0.1c0.8,0,1.5-0.1,1.3-1.2
			c-6.3-0.6-6.2-0.7-6.9-6.7c-0.5-4.6,0.6-9.2-0.9-13.9c-0.9-2.9-0.4-6.4-0.3-9.5c0.1-3.9-0.1-7.4-1.8-11c-0.9-1.9-0.9-4.2-0.3-6.3
			c2.1-6.9,2.9-14,4-21c0.7-4.6-0.6-9-0.6-13.6c0-3.7-0.6-7.5-0.1-11.1c1-8.3,2.3-16.6,3.6-24.9c0.6-4,1.3-8,2.4-11.9
			c0.5-1.9,1.5-2.9,3.6-2.9C88.4,53.8,91.3,53.5,94.2,53.4"/>
		<path class="st1" d="M77.6,174.3c0,1,0,2.1,0,3.1c0,1,0.2,2.1,0.3,3.1c0.4,4.2,0.4,4.2,4.5,4.2c0.8,0,1.9,0.4,1.9-0.8
			c0-1-1.2-0.7-1.8-0.6c-1.8,0.2-2.4-0.6-2.6-2.2c-0.9-6-0.3-12.1-1-18.1c-0.4-3.6-0.6-7.4-0.2-11.1c0.1-1-0.1-2-0.3-3.1
			c-0.6-3-2.1-6-1.3-9.1c0.8-3.6,1.3-7.3,1.8-11c0.7-5.5,1.5-11.1,0.9-16.7c-0.7-7.5-0.7-15.1,0.2-22.7c0.7-6.2,1.3-12.3,2-18.5
			c0.4-3.8,0.8-7.5,1.6-11.2c0.3-1.4,0.9-2.1,2.6-2c2.4,0.1,4.8-0.2,7.2-0.3c0.8,0,1.5,0,1.4-1.2c-0.1-1-0.6-1.2-1.5-1.1
			c-1.9,0.1-3.9,0.2-5.8,0.3c-3.8,0.1-3.8,0.1-4.6,3.8c-1.5,6.5-2.3,13.1-3.3,19.7c-0.9,6-2.2,11.9-2.2,18c0,5.3,0.5,10.6,0.8,15.9
			c0.5,8.9-1.7,17.6-3.8,26.2c-0.6,2.4-0.4,4.5,0.5,6.8c1.1,2.8,2.2,5.7,1.7,8.8c-0.6,3.9,0.8,7.7,0.1,11.6c0,0.1,0,0.1,0,0.2
			C78.1,168.8,77.7,171.6,77.6,174.3"/>
		<path class="st1" d="M82.7,105.5c0.2-3.7,0.1-6.5,0.4-9.4c0.5-5.8,0.6-11.7,1-17.5c0.3-5.1,0.5-10.2,1.1-15.2
			c0.2-1.4,0.7-1.7,2-1.7c2.3,0,4.7-0.1,7-0.2c0.6,0,1.6,0.4,1.3-0.9c-0.2-0.7,0-1.6-1.4-1.5c-2.3,0.3-4.5,0.3-6.8,0.3
			c-1.6,0-2.1,0.6-2.3,2.1c-1.1,6.4-1.6,12.8-2.3,19.3c-0.7,7.2-2,14.5-1.7,21.8c0.2,4,0.5,8,0.6,12c0.2,8.1-1.1,16-2.5,24
			c-0.4,2.4-0.5,4.6,0.2,6.9c0.7,2.6,1.4,5.2,1.1,7.9c-0.4,3.6,0.6,7.2,0,10.8c0,0.3,0.1,0.7,0.2,1c0.6,2,0.7,4,0.5,6.1
			c-0.3,3.2,0.1,6.3,0.5,9.5c0.1,0.5,0.1,1.2,0.9,1.1c1.1-0.1,2.3,0.5,3.1-0.5c0.5-0.6,0-0.9-0.7-0.9c-0.9,0-1.6,0-1.7-1.2
			c-0.7-6.1-0.4-12.2-0.6-18.4c-0.1-3.5,0.1-7-0.1-10.5c-0.3-5.6-0.8-11-0.2-16.6C83.2,124.1,83.5,114.4,82.7,105.5"/>
		<path class="st1" d="M188.7,203.7c-0.6,4-3.4,4.6-6.7,4.8c-3.6,0.2-7.3,0.8-10.9,1.2c1.5,3.1,1.6,3.2,4.8,2.7
			c2.9-0.5,5.9-0.8,8.8-1.1c2.1-0.2,3.2-1.3,3.8-3.2C189,206.7,189,205.1,188.7,203.7"/>
		<path class="st1" d="M185.8,195.9c-1.2,2.9-1.6,3.3-4.6,3.5c-3.1,0.3-6.2,0.5-9.2,0.8c-0.6,0.1-1.8-0.3-1.6,0.9
			c0.2,1,0.3,2.4,2.1,2.2c3.3-0.4,6.7-0.8,10-1c1.7-0.1,2.5-0.9,2.8-2.4C185.5,198.6,185.6,197.2,185.8,195.9"/>
		<path class="st1" d="M169.3,195.7c0.8,1.2,0.3,3,2,3c3.4-0.1,6.9-0.5,10.3-0.7c1.3-0.1,2-0.8,2.2-2c0.1-0.7,0.2-1.5,0.3-2.3
			c0.1-0.7,0.1-1.4,0.1-2c-0.4,3.4-2.8,3.5-5.4,3.6C175.7,195.3,172.7,195.5,169.3,195.7"/>
		<path class="st1" d="M182.3,189.1c-0.9,1.6-2.4,1.6-3.9,1.6c-2.7,0-5.3,0.2-8,0.4c-0.7,0-1.7-0.3-1.4,1c0.2,0.9,0,2.1,1.7,1.9
			c2.9-0.3,5.7-0.6,8.6-0.5c2.2,0.1,3-0.8,2.9-2.8C182.2,190.2,182.3,189.6,182.3,189.1"/>
		<path class="st1" d="M180.5,184.8c-0.6,1.4-1.3,1.3-2.1,1.3c-2.9,0.1-5.7,0.2-8.6,0.3c-0.7,0-1.8-0.3-1.6,1.1
			c0.2,0.9,0.2,1.9,1.6,1.8c3.1-0.2,6.2-0.3,9.2-0.4c1.1,0,1.5-0.5,1.4-1.5C180.5,186.8,180.5,186.1,180.5,184.8"/>
		<path class="st1" d="M173.2,184.8v-0.1c1.6,0,3.2,0,4.7,0c1.4,0,0.8-1.2,1-1.8c0.3-1.1-0.6-0.8-1.2-0.7c-2.9,0.1-5.7,0.3-8.6,0.4
			c-1.7,0.1-1.8,0.1-1.6,0.6c0.2,0.9,0.2,2,1.8,1.8C170.6,184.6,171.9,184.8,173.2,184.8"/>
		<path class="st1" d="M189.5,190.3c0.1-1.2,0.3-2.9,0.5-5.2C189,187.3,189.5,189.1,189.5,190.3"/>
		<path class="st1" d="M64.3,216.5c1.7-0.4,2.8-1,3.5-2.1C66.5,214.5,65.2,214.8,64.3,216.5"/>
		<path class="st1" d="M96.2,180.5c-0.7,0.1-1.5-0.5-2,0.2c-0.1,0.2,0,0.9,0.2,0.9C95.3,181.9,95.6,181,96.2,180.5"/>
		<path class="st1" d="M170.3,208.7c0.1,0.1,0.2,0.4,0.4,0.5c0.3,0.2,0.3-0.1,0.3-0.2c-0.1-0.2-0.3-0.3-0.4-0.4
			C170.5,208.6,170.4,208.6,170.3,208.7"/>
		<path class="st1" d="M99.8,60.8c0-0.1-0.1-0.2-0.1-0.4c0,0-0.1,0.1-0.1,0.1c0,0.1,0,0.2,0.1,0.3C99.7,60.9,99.7,60.8,99.8,60.8"/>
		<path class="st1" d="M166,193.4c-0.1-0.1-0.1-0.2-0.2-0.3c0,0.1-0.1,0.2-0.1,0.3c0,0,0.1,0.1,0.1,0.2
			C165.9,193.6,165.9,193.5,166,193.4"/>
		<path class="st1" d="M91.1,27c0-0.1-0.1-0.2-0.1-0.3c-0.2,0.1-0.3,0.1-0.5,0.2c0.1,0.1,0.2,0.2,0.3,0.2C90.8,27.1,91,27.1,91.1,27
			"/>
		<path class="st1" d="M64.2,216.5c0-0.1-0.1-0.1-0.1-0.1c-0.1,0-0.1,0.1-0.1,0.1c0,0.1,0.1,0.1,0.1,0.1
			C64.1,216.6,64.2,216.5,64.2,216.5z"/>
		<path class="st1" d="M68.6,213.9c0,0-0.1,0.1-0.1,0.1c0,0,0.1,0.1,0.1,0.1c0,0,0.1,0,0.1-0.1"/>
		<path class="st1" d="M72.8,210.8l0.1-0.1c-0.1-0.1-0.2-0.1-0.3-0.1c0,0-0.1,0.1-0.1,0.1C72.6,210.7,72.7,210.8,72.8,210.8"/>
		<path class="st1" d="M170.1,207.8c0,0-0.1-0.1-0.1-0.1c0,0-0.1,0.1-0.1,0.1c0,0.1,0,0.1,0.1,0.1
			C170.1,207.9,170.1,207.8,170.1,207.8"/>
		<path class="st1" d="M169.7,207c0,0-0.1-0.1-0.1-0.1c0,0-0.1,0.1-0.1,0.1c0,0.1,0,0.1,0.1,0.1C169.6,207.1,169.7,207,169.7,207"/>
		<path class="st1" d="M169.3,206.2c0,0-0.1-0.1-0.1-0.1c0,0-0.1,0.1-0.1,0.1c0,0.1,0.1,0.1,0.1,0.1
			C169.2,206.2,169.2,206.2,169.3,206.2"/>
		<path class="st1" d="M25.2,152.2c-5-1.1-7.7-7.9-5.8-10.2"/>
		<path class="st1" d="M25.6,151.1c-9.6-6.8-0.4-12.9,0.1-13.5"/>
		<path class="st1" d="M104,124.3c3-3.2,6.2-6.1,10.2-8c12.4-6.1,28.2-4.1,38.7,5c5,4.3,8.5,9.6,10.6,15.9c-0.4,1.6,0.3,3.3,0,5
			c-1,0.2-0.7-0.6-0.8-1.1c-3.3-13.8-15.5-24.6-29.7-26.1c-12.9-1.4-22.8,3.3-29.7,14.4c-0.4,0.7-1,1.3-0.8,2.5
			c2.7-3.1,5.6-5.7,9.2-7.4c9.6-4.6,19.3-4,29-0.1c11.1,4.5,19.1,12.1,22.7,23.7c0,1.6,0.1,3.2,0.1,4.8c-1.3-0.1-0.9-1.3-1.1-1.9
			c-2.1-9.5-7.4-16.6-15.5-21.7c-6-3.8-12.5-6.1-19.6-6.4c-11.7-0.5-20.7,4.3-26.6,14.6c-0.5-4.5,0.5-8.7,3-12.6
			C103.8,124.7,103.9,124.5,104,124.3 M102.3,132.2c-0.1-0.1-0.1-0.3-0.2-0.4c-0.1,0.2-0.3,0.4-0.4,0.6c0,0.1,0.1,0.3,0.1,0.4
			C101.9,132.6,102.1,132.3,102.3,132.2"/>
		<path class="st1" d="M100.8,139.3c7.6-9.2,17.5-11.4,28.6-9.2c11.9,2.4,22,7.9,29.2,18.1c2.1,3,3.6,6.3,4.7,9.8
			c-0.1,1.1,0.5,2.1,0.1,3.2c-1.1-0.1-1.3-1.2-1.5-1.9c-4.1-13.9-14.2-21.7-27.3-26.1c-8.1-2.8-16.3-3.3-24.3,0.5
			c-4.1,1.9-7,5-9.6,8.5C100.6,141.1,100.6,140.2,100.8,139.3"/>
		<path class="st1" d="M100.8,144.6c6.4-6.6,14.3-8.2,22.9-6.9c10.5,1.6,19.9,5.9,28,12.7c4.6,3.8,8,8.5,10.3,14
			c0.3,0.7,0.7,1.3,1.2,1.9c0.1,1.1,0.1,2.1,0.2,3.2c-1.2-0.8-1.8-2.2-2.3-3.4c-4.4-10.7-12.6-17.5-22.8-22.2
			c-6.5-3-13.2-5.1-20.5-4.9c-6.7,0.2-12.5,2.6-16.8,7.9C100.4,146.1,100.7,145.4,100.8,144.6"/>
		<path class="st1" d="M100.7,150.2c6.5-5.2,13.9-6.1,21.7-4.3c12.5,3,23.8,8.2,32.9,17.5c2.3,2.4,4.3,5,5.9,8
			c0.6,1.1,1.6,1.7,2.2,2.7v2.5c-1.4-0.9-2.3-2.3-3-3.7c-5.2-9.4-13.3-15.5-22.7-20c-5.5-2.6-11.2-4.9-17.3-5.9
			c-7.3-1.1-14,0-19.6,5.3C100.5,151.6,100.6,150.9,100.7,150.2"/>
	</g>
</g>
<g transform="translate(-1.3-1)">
	<path class="st1" d="M100.7,157c-0.5,0.7-0.4,1.4-0.2,2.2c0,1-0.4,2.1,0.2,3c0,0.5,0,1.1,0,1.6c-0.4,1.5-0.2,3,0,4.4v1.5
		c-0.1,1.6-0.6,3.2,0,4.8c0,0.4,0,0.9,0,1.4c-0.4,3.1-0.4,3.1-3.4,3.3c-0.1,0-0.1,0-0.2,0c-3.4,0.1-6.8-0.4-10.1,0
		c-1.3-0.3-1.2-1.2-1.2-2.2c0-21.4,0.1-42.7,0-64.1c0-10.4,0.4-20.8-0.1-31.2c0.2-4.6,0.4-9.3,0.5-13.9c0-0.8,0.1-1.5,0.5-2.1H96
		c1.5,0.3,2.9,0.1,4.4,0.1c0.2,0.7,0.5,1.3,0.7,1.9c-0.7,0.5-0.4,1.1-0.3,1.7V74c-0.2,0.7-0.2,1.4,0.1,2c-0.3,1.8-0.1,3.5-0.1,5.3
		c0,0.4,0,0.7,0,1.1c0,1.3,0,2.6,0,3.9c-0.2,0.9-0.2,1.8,0,2.7v4c-0.2,0.8-0.2,1.7,0,2.6c0,1.3,0,2.6,0,3.9c-0.2,0.8-0.3,1.6,0,2.4
		c0,0.4-0.1,0.8-0.1,1.2c0,0.5-0.2,1.1,0.2,1.3c0.6,0.3,1-0.3,1.4-0.6c10.2-8.5,21.9-11.9,35-10.4c23.2,2.7,40.7,22.5,40.8,45.9
		c0,2.9-0.3,5.8,0.2,8.7c-0.5,9.8-0.2,19.6-0.3,29.4c0,0.7-0.1,1.4-0.5,1.9c-3.5-0.4-7-0.4-10.5,0c-0.7-0.1-1.3-0.2-2-0.3l0,0h-1.8
		c0-0.4-0.2-0.9,0.1-1.3V175c0.5-1.5-0.5-3.1,0.1-4.7c-0.1-1.1-0.1-2.1-0.2-3.2c0.7-1.7-0.6-3.4,0.2-5.1c0.3-1.1-0.2-2.1-0.1-3.2
		c0.5-1.7-0.5-3.4,0.1-5.1c0-1.6-0.1-3.2-0.1-4.8c0.4-2-0.7-4,0.1-5.9c0.3-1.6-0.4-3.3,0-5c-0.3-1.8-0.4-3.7-0.8-5.5
		c-5.2-22.3-30.6-31.9-49.2-18.7c-4.1,3-7.6,6.5-9.5,11.4l-0.1,0.1c0,0.2-0.1,0.3-0.1,0.5c-2.4,3.8-3.4,8-3,12.6c0,0.6,0,1.2,0,1.8
		c-0.2,0.9-0.2,1.8,0,2.8c0,0.8,0,1.7,0,2.6c-0.2,0.8-0.4,1.6,0.2,2.2c-0.6,1.1-0.2,2.2-0.4,3.3c-0.1,0.7-0.3,1.5,0,2.2
		C100.3,154.6,100.2,155.8,100.7,157"/>
	<g>
		<path class="st1" d="M165.1,178.9L165.1,178.9"/>
		<path class="st1" d="M103.9,125.4c0,0.2-0.1,0.3-0.1,0.5C103.8,125.8,103.8,125.6,103.9,125.4"/>
	</g>
</g>
</svg>
