<?xml version="1.0" encoding="utf-8"?>
<!-- Generator: Adobe Illustrator 22.1.0, SVG Export Plug-In . SVG Version: 6.00 Build 0)  -->
<svg version="1.1" id="Layer_1" xmlns="http://www.w3.org/2000/svg" xmlns:xlink="http://www.w3.org/1999/xlink" x="0px" y="0px"
	 viewBox="0 0 226.8 226.8" style="enable-background:new 0 0 226.8 226.8;" xml:space="preserve">
<g>
	<path d="M2.9,33.8c6.4,0,12.8-0.4,19.1,0.1c9.8,0.8,19.4,3.1,28.5,6.8c13.7,5.6,25.5,13.9,35,25.4c8.2,10,13.6,21.2,16.1,33.9
		c0.3,1.6,1.1,2.2,2.7,2.2c5.8,0,11.7,0,17.5,0c1.6,0,2.4-0.5,2.7-2.2c2.7-13.2,8.4-24.9,17.2-35c8.1-9.3,17.9-16.7,29.2-21.9
		c8.2-3.8,16.7-6.8,25.7-7.8c8.1-0.9,16.2-0.8,24.4-1.1c1,0,2,0.5,3.2,0.8c-1.6,3.8-3,7.3-4.5,10.8c-1.2,2.8-2.5,5.6-3.7,8.4
		c-0.7,1.5-1.5,2.2-3.4,2.3c-15.6,0.1-29.9,4.5-42.3,14.2c-9.6,7.5-16.6,17-20,28.9c-0.6,2,0.3,2.5,2.2,2.5c6,0,12,0.1,18,0.2
		c1.3,0,2.7,0.2,4,0.4c1.5,0.2,2,1,1.3,2.5c-2.7,6.2-5.3,12.4-8.2,18.5c-0.5,1-2.2,1.8-3.4,1.9c-3.8,0.2-7.7,0.1-11.5,0.1
		c-2.6,0-2.9,0.4-2.1,3c2.8,8.5,7.3,16,13.6,22.4c10.2,10.2,22.5,16.4,36.8,18.5c3.6,0.5,7.2,0.7,10.9,1c1.6,0.1,2.6,0.5,3.2,2.1
		c2.7,6.4,5.5,12.8,8.5,19.6c-1.4,0.2-2.4,0.5-3.4,0.6c-24.7,1.6-47.3-4.2-67-19.5c-13.3-10.4-22.5-23.7-27.4-39.9
		c-0.5-1.7-0.9-3.6-1.2-5.4c-0.3-1.7-1.2-2.6-3.1-2.5c-5.7,0.1-11.5,0.1-17.2,0c-2.1,0-3,0.9-3.4,2.8c-3.9,17.7-13.3,31.9-27.1,43.4
		c-13.1,10.9-28.1,17.4-44.9,19.8c-7.7,1.1-15.6,0.7-23.4,0.9c-1.8,0.1-2.1-0.8-1.4-2.4c2.8-6.1,5.4-12.3,8.3-18.4
		c0.4-0.8,1.8-1.4,2.7-1.4c15.4-0.6,29.2-5.5,40.9-15.7c7.9-6.9,13.5-15.5,16.5-25.7c0.8-2.8,0.5-3.1-2.3-3.2c-4.1,0-8.2,0.2-12.2,0
		c-3.4-0.1-6.8-0.6-10.1-1.2c-0.4-0.1-1.1-1.4-0.9-1.9c2.7-6.4,5.4-12.7,8.3-19c0.3-0.7,1.7-1.4,2.5-1.4c4.2-0.1,8.5-0.1,12.7,0
		c2.4,0,3.1-0.7,2.5-2.9c-2.2-7.6-5.4-14.6-10.6-20.7C53,67.1,40.7,59.9,25.8,57.4c-3.9-0.7-7.9-0.9-11.8-1.5
		c-1-0.1-2.3-0.8-2.7-1.6c-3-6.5-5.9-13-8.7-19.6C2.7,34.5,2.8,34.1,2.9,33.8z"/>
</g>
</svg>
