<!-- Generated by IcoMoon.io -->
<svg version="1.1" xmlns="http://www.w3.org/2000/svg" width="32" height="32" viewBox="0 0 32 32">
<title>HOT</title>
<path d="M0.409 4.769c0.903 0 1.806-0.056 2.695 0.014 1.383 0.113 2.737 0.437 4.021 0.959 1.933 0.79 3.598 1.961 4.938 3.584 1.157 1.411 1.919 2.991 2.272 4.783 0.042 0.226 0.155 0.31 0.381 0.31 0.818 0 1.651 0 2.469 0 0.226 0 0.339-0.071 0.381-0.31 0.381-1.862 1.185-3.513 2.427-4.938 1.143-1.312 2.526-2.356 4.12-3.090 1.157-0.536 2.356-0.959 3.626-1.101 1.143-0.127 2.286-0.113 3.443-0.155 0.141 0 0.282 0.071 0.451 0.113-0.226 0.536-0.423 1.030-0.635 1.524-0.169 0.395-0.353 0.79-0.522 1.185-0.099 0.212-0.212 0.31-0.48 0.325-2.201 0.014-4.219 0.635-5.968 2.004-1.355 1.058-2.342 2.399-2.822 4.078-0.085 0.282 0.042 0.353 0.31 0.353 0.847 0 1.693 0.014 2.54 0.028 0.183 0 0.381 0.028 0.564 0.056 0.212 0.028 0.282 0.141 0.183 0.353-0.381 0.875-0.748 1.75-1.157 2.61-0.071 0.141-0.31 0.254-0.48 0.268-0.536 0.028-1.086 0.014-1.623 0.014-0.367 0-0.409 0.056-0.296 0.423 0.395 1.199 1.030 2.258 1.919 3.16 1.439 1.439 3.175 2.314 5.192 2.61 0.508 0.071 1.016 0.099 1.538 0.141 0.226 0.014 0.367 0.071 0.451 0.296 0.381 0.903 0.776 1.806 1.199 2.765-0.198 0.028-0.339 0.071-0.48 0.085-3.485 0.226-6.674-0.593-9.453-2.751-1.877-1.467-3.175-3.344-3.866-5.63-0.071-0.24-0.127-0.508-0.169-0.762-0.042-0.24-0.169-0.367-0.437-0.353-0.804 0.014-1.623 0.014-2.427 0-0.296 0-0.423 0.127-0.48 0.395-0.55 2.497-1.877 4.501-3.824 6.123-1.848 1.538-3.965 2.455-6.335 2.794-1.086 0.155-2.201 0.099-3.302 0.127-0.254 0.014-0.296-0.113-0.198-0.339 0.395-0.861 0.762-1.735 1.171-2.596 0.056-0.113 0.254-0.198 0.381-0.198 2.173-0.085 4.12-0.776 5.771-2.215 1.115-0.974 1.905-2.187 2.328-3.626 0.113-0.395 0.071-0.437-0.325-0.451-0.578 0-1.157 0.028-1.721 0-0.48-0.014-0.959-0.085-1.425-0.169-0.056-0.014-0.155-0.198-0.127-0.268 0.381-0.903 0.762-1.792 1.171-2.681 0.042-0.099 0.24-0.198 0.353-0.198 0.593-0.014 1.199-0.014 1.792 0 0.339 0 0.437-0.099 0.353-0.409-0.31-1.072-0.762-2.060-1.496-2.921-1.326-1.623-3.062-2.638-5.164-2.991-0.55-0.099-1.115-0.127-1.665-0.212-0.141-0.014-0.325-0.113-0.381-0.226-0.423-0.917-0.832-1.834-1.228-2.765 0.014-0.028 0.028-0.085 0.042-0.127z"></path>
</svg>
