<?xml version="1.0" encoding="utf-8"?>
<!-- Generator: Adobe Illustrator 22.0.1, SVG Export Plug-In . SVG Version: 6.00 Build 0)  -->
<svg version="1.1" id="Layer_1" xmlns="http://www.w3.org/2000/svg" xmlns:xlink="http://www.w3.org/1999/xlink" x="0px" y="0px"
	 viewBox="0 0 226.8 226.8" style="enable-background:new 0 0 226.8 226.8;" xml:space="preserve">
<style type="text/css">
	.st0{stroke:#FFFFFF;stroke-miterlimit:10;}
</style>
<path class="st0" d="M119.4,104.7c0,0,15-34-14.4-66.9c0,0-16.7-21.9-51.3-20.2l6.9-2.8c1.1-0.5,2.4-0.8,3.6-0.9L71,13l47.8-7.5
	c0,0,16.9-3.4,29.7,0.3c3.7,1.1,7,3.1,9.6,5.8c7.1,7.3,21.3,26.6,12,57.2c0,0-9.2,34-43.8,42.1C126.4,111,117.7,113.3,119.4,104.7"
	/>
<path class="st0" d="M125.5,114.9c0,0,36.8-4.9,49.6-47.1c0,0,10-25.7-9.5-54.3l6,4.5c1,0.7,1.9,1.6,2.7,2.6l4.3,5.3l31.3,37
	c0,0,11.7,12.7,15.2,25.6c1,3.7,1,7.6,0,11.2c-2.6,9.8-11.7,32-42.7,40c0,0-33.8,9.8-58.7-15.5C123.7,124.1,117.2,117.9,125.5,114.9
	"/>
<path class="st0" d="M117.3,123.6c0,0,21.6,30.2,64.9,21.7c0,0,27.4-3.2,43.5-33.9l-1.2,7.4c-0.2,1.2-0.5,2.4-1,3.6l-2.7,6.3
	l-17.9,45c0,0-5.7,16.3-15.5,25.4c-2.8,2.6-6.2,4.4-9.9,5.3c-9.9,2.4-33.8,4.7-55.3-18.9c0,0-24.6-25.3-13.9-59.1
	C108.3,126.3,110.8,117.7,117.3,123.6"/>
<path class="st0" d="M107,121.8c0,0-15.8,33.6,12.7,67.2c0,0,16.1,22.3,50.8,21.4l-7,2.6c-1.2,0.4-2.4,0.7-3.6,0.8l-6.8,0.7l-48,6.3
	c0,0-17,3-29.7-1.1c-3.6-1.2-6.9-3.3-9.5-6.1c-6.9-7.5-20.6-27.2-10.5-57.5c0,0,10.1-33.8,44.8-41
	C100.2,115.4,108.9,113.2,107,121.8"/>
<path class="st0" d="M101.7,112.7c0,0-36.9,4-50.8,45.8c0,0-10.7,25.4,8.1,54.5l-5.8-4.6c-1-0.8-1.8-1.7-2.6-2.6l-4.2-5.4L16,162.6
	c0,0-11.4-13-14.5-25.9c-0.9-3.7-0.8-7.6,0.2-11.3c2.8-9.8,12.5-31.7,43.6-38.9c0,0,34.1-9,58.3,17
	C103.7,103.5,110,109.9,101.7,112.7"/>
<path class="st0" d="M108.2,104.1c0,0-22-29.9-65.2-20.8c0,0-27.3,3.6-43,34.5l1-7.4c0.2-1.2,0.5-2.4,1-3.6l2.6-6.3l17.3-45.2
	c0,0,5.5-16.3,15.1-25.6c2.8-2.6,6.1-4.5,9.8-5.4c9.9-2.5,33.7-5.2,55.6,18.1c0,0,24.9,24.9,14.7,58.9
	C117.1,101.3,114.8,109.9,108.2,104.1"/>
</svg>
