<!-- Generated by IcoMoon.io -->
<svg version="1.1" xmlns="http://www.w3.org/2000/svg" width="32" height="32" viewBox="0 0 32 32">
<title>HPB</title>
<path d="M16.847 14.773c0 0 2.116-4.797-2.032-9.439 0 0-2.356-3.090-7.238-2.85l0.974-0.395c0.155-0.071 0.339-0.113 0.508-0.127l0.959-0.127 6.744-1.058c0 0 2.384-0.48 4.19 0.042 0.522 0.155 0.988 0.437 1.355 0.818 1.002 1.030 3.005 3.753 1.693 8.071 0 0-1.298 4.797-6.18 5.94 0.014 0.014-1.213 0.339-0.974-0.875"></path>
<path d="M17.707 16.212c0 0 5.192-0.691 6.998-6.646 0 0 1.411-3.626-1.34-7.661l0.847 0.635c0.141 0.099 0.268 0.226 0.381 0.367l0.607 0.748 4.416 5.22c0 0 1.651 1.792 2.145 3.612 0.141 0.522 0.141 1.072 0 1.58-0.367 1.383-1.651 4.515-6.025 5.644 0 0-4.769 1.383-8.282-2.187 0-0.014-0.917-0.889 0.254-1.312"></path>
<path d="M16.55 17.439c0 0 3.048 4.261 9.157 3.062 0 0 3.866-0.451 6.138-4.783l-0.169 1.044c-0.028 0.169-0.071 0.339-0.141 0.508l-0.381 0.889-2.526 6.349c0 0-0.804 2.3-2.187 3.584-0.395 0.367-0.875 0.621-1.397 0.748-1.397 0.339-4.769 0.663-7.802-2.667 0 0-3.471-3.57-1.961-8.339 0-0.014 0.353-1.227 1.27-0.395"></path>
<path d="M15.097 17.185c0 0-2.229 4.741 1.792 9.481 0 0 2.272 3.146 7.168 3.019l-0.988 0.367c-0.169 0.056-0.339 0.099-0.508 0.113l-0.959 0.099-6.773 0.889c0 0-2.399 0.423-4.19-0.155-0.508-0.169-0.974-0.466-1.34-0.861-0.974-1.058-2.907-3.838-1.481-8.113 0 0 1.425-4.769 6.321-5.785 0 0.042 1.228-0.268 0.959 0.945"></path>
<path d="M14.349 15.901c0 0-5.206 0.564-7.168 6.462 0 0-1.51 3.584 1.143 7.69l-0.818-0.649c-0.141-0.113-0.254-0.24-0.367-0.367l-0.593-0.762-4.289-5.333c0 0-1.608-1.834-2.046-3.654-0.127-0.522-0.113-1.072 0.028-1.594 0.395-1.383 1.764-4.473 6.152-5.489 0 0 4.811-1.27 8.226 2.399 0.014 0 0.903 0.903-0.268 1.298"></path>
<path d="M15.266 14.688c0 0-3.104-4.219-9.199-2.935 0 0-3.852 0.508-6.067 4.868l0.141-1.044c0.028-0.169 0.071-0.339 0.141-0.508l0.367-0.889 2.441-6.377c0 0 0.776-2.3 2.131-3.612 0.395-0.367 0.861-0.635 1.383-0.762 1.397-0.353 4.755-0.734 7.845 2.554 0 0 3.513 3.513 2.074 8.31 0 0-0.325 1.213-1.256 0.395"></path>
</svg>
