<!-- Generated by IcoMoon.io -->
<svg version="1.1" xmlns="http://www.w3.org/2000/svg" width="32" height="32" viewBox="0 0 32 32">
<title>HSR</title>
<path d="M8.367 3.598h6.236c-0.748 1.185-1.213 2.483-1.185 3.894 1.848 0.014 3.711 0.014 5.573 0 0.028-1.397-0.353-2.751-1.171-3.894h6.279c-0.437 0.903-1.171 1.735-1.101 2.794-0.028 4.727 0.014 9.453 0 14.18 0.621 0 1.242 0 1.862 0 0.451-0.903 0.861-1.806 1.185-2.765 1.862 0.042 3.739-0.056 5.587 0.198-1.834 1.58-2.794 3.81-3.993 5.855-4.741 0.014-9.481-0.014-14.236 0.014-0.226 1.721 0.847 2.907 2.088 3.894h-8.014c0.691-0.917 2.102-1.51 1.947-2.85 0.042-4.571 0-9.143 0.014-13.714h4.064v2.822h5.404v-3.231c-3.753 0-7.506 0-11.259 0-0.931 1.637-1.862 3.259-2.794 4.882 0.931 1.637 1.862 3.259 2.808 4.882h1.369v3.287h-4.233c-1.552-2.737-3.146-5.432-4.656-8.183v0c1.51-2.751 3.118-5.446 4.656-8.169 1.58 0 3.16 0 4.741-0.014 0.014-1.383-0.381-2.723-1.171-3.88M13.517 17.34v3.231h5.39v-3.231h-5.39z"></path>
<path d="M23.407 7.506h4.219c1.157 1.848 1.947 3.979 3.626 5.46 0.028 0.113 0.099 0.339 0.127 0.437-1.778 0.226-3.584 0.056-5.39 0.141-0.226-0.988-0.677-1.891-1.171-2.765-0.353 0-1.058 0-1.411 0v-3.273z"></path>
<path d="M19.048 24.268c1.242 0 2.497 0 3.753 0-0.028 1.58 1.086 2.568 2.187 3.499h-8.071c1.030-0.974 2.229-1.891 2.131-3.499"></path>
</svg>
