<?xml version="1.0" encoding="utf-8"?>
<!-- Generator: Adobe Illustrator 22.0.1, SVG Export Plug-In . SVG Version: 6.00 Build 0)  -->
<svg version="1.1" id="Layer_1" xmlns="http://www.w3.org/2000/svg" xmlns:xlink="http://www.w3.org/1999/xlink" x="0px" y="0px"
	 viewBox="0 0 226.8 226.8" style="enable-background:new 0 0 226.8 226.8;" xml:space="preserve">
<style type="text/css">
	.st0{stroke:#FFFFFF;stroke-miterlimit:10;}
</style>
<g transform="translate(0-240)">
	<path class="st0" d="M59.3,265.5h44.2c-5.3,8.4-8.6,17.6-8.4,27.6c13.1,0.1,26.3,0.1,39.5,0c0.2-9.9-2.5-19.5-8.3-27.6h44.5
		c-3.1,6.4-8.3,12.3-7.8,19.8c-0.2,33.5,0.1,67,0,100.5c4.4,0,8.8,0,13.2,0c3.2-6.4,6.1-12.8,8.4-19.6c13.2,0.3,26.5-0.4,39.6,1.4
		c-13,11.2-19.8,27-28.3,41.5c-33.6,0.1-67.2-0.1-100.9,0.1c-1.6,12.2,6,20.6,14.8,27.6H53c4.9-6.5,14.9-10.7,13.8-20.2
		c0.3-32.4,0-64.8,0.1-97.2h28.8v20H134v-22.9c-26.6,0-53.2,0-79.8,0c-6.6,11.6-13.2,23.1-19.8,34.6c6.6,11.6,13.2,23.1,19.9,34.6
		H64V409H34c-11-19.4-22.3-38.5-33-58l0,0c10.7-19.5,22.1-38.6,33-57.9c11.2,0,22.4,0,33.6-0.1C67.7,283.2,64.9,273.7,59.3,265.5
		 M95.8,362.9v22.9H134v-22.9H95.8z"/>
	<path class="st0" d="M165.9,293.2h29.9c8.2,13.1,13.8,28.2,25.7,38.7c0.2,0.8,0.7,2.4,0.9,3.1c-12.6,1.6-25.4,0.4-38.2,1
		c-1.6-7-4.8-13.4-8.3-19.6c-2.5,0-7.5,0-10,0L165.9,293.2z"/>
	<path class="st0" d="M135,412c8.8,0,17.7,0,26.6,0c-0.2,11.2,7.7,18.2,15.5,24.8h-57.2C127.2,429.9,135.7,423.4,135,412"/>
</g>
</svg>
