<?xml version="1.0" encoding="utf-8"?>
<!-- Generator: Adobe Illustrator 22.0.1, SVG Export Plug-In . SVG Version: 6.00 Build 0)  -->
<svg version="1.1" id="Layer_1" xmlns="http://www.w3.org/2000/svg" xmlns:xlink="http://www.w3.org/1999/xlink" x="0px" y="0px"
	 viewBox="0 0 226.8 226.8" style="enable-background:new 0 0 226.8 226.8;" xml:space="preserve">
<style type="text/css">
	.st0{stroke:#FFFFFF;stroke-miterlimit:10;}
</style>
<path class="st0" d="M145.1,76c0.1,11.7-4.6,20.9-11.2,29.5c-5.7,7.4-12.4,13.8-19.1,20.2c-19.2,19-32.4,41.7-41,67.1
	c-1.7,5-3.2,10.1-4.4,15.4c-0.5,2.5-1,2.6-2.9,0.9c-32.3-28.3-34.2-76.5-4.5-107.4c3.8-4,8.2-7.3,12.1-11.2
	c16.2-16.5,26.9-35.9,30.7-58.9c1.6-9.4,2.2-18.9,1.3-28.4c-0.1-0.8-0.5-1.7,0.5-2.2c0.9-0.4,1.5,0.4,2.1,0.9
	c8.5,7.5,15.5,16.2,21.4,25.8c8.4,13.6,12.9,28.4,14.8,44.1C145.1,73.5,145,75,145.1,76z"/>
<path class="st0" d="M115.3,226.8c-8-0.1-15.9-1.6-23.8-3.6c-1.1-0.3-2-0.6-1.7-2c0.2-1.2,0.1-2.3,1.9-2.5c4.2-0.4,6.9-2.9,8-6.9
	c0.5-1.8,0.9-3.6,1.1-5.5c0.9-12.5,6.8-22.9,14.3-32.5c7.4-9.4,16.3-17.4,24.4-26.2c13.4-14.6,24.3-30.7,30.9-49.6
	c0.2-0.7,0.2-1.8,1.3-1.9c1.1-0.1,1.4,1,1.7,1.7c5.6,10,9.3,20.7,11.3,32c1.8,9.6,2.9,19.3,2,29.1c-1.9,21.8-11.1,39.7-28.7,52.9
	C145.4,221.4,131.3,226.7,115.3,226.8z"/>
</svg>
