<?xml version="1.0" encoding="utf-8"?>
<!-- Generator: Adobe Illustrator 22.1.0, SVG Export Plug-In . SVG Version: 6.00 Build 0)  -->
<svg version="1.1" id="Layer_1" xmlns="http://www.w3.org/2000/svg" xmlns:xlink="http://www.w3.org/1999/xlink" x="0px" y="0px"
	 viewBox="0 0 226.8 226.8" style="enable-background:new 0 0 226.8 226.8;" xml:space="preserve">
<g>
	<path d="M115.8,0.5c32.5,0,65,0,97.5,0c3.2,0,3.2,0,2.9,3.2c-3.3,36.5-6.7,72.9-10,109.4c-1.9,21.3-3.9,42.6-5.9,63.9
		c-0.8,8.4-1.6,16.9-2.3,25.3c-0.1,1.7-0.9,2.4-2.5,2.8c-25.9,7-51.8,14-77.7,21c-1.5,0.4-3.3,0.4-4.8,0c-25.9-6.9-51.8-14-77.7-21
		c-1.5-0.4-2.2-1.1-2.3-2.7c-1-10.9-2-21.8-3-32.7c-2-22-4-44-6-66c-2.1-23.3-4.2-46.6-6.3-69.9C16.9,23.6,16,13.3,15,3.1
		c-0.2-2.1,0.3-2.7,2.4-2.7C50.2,0.5,83,0.5,115.8,0.5C115.8,0.5,115.8,0.5,115.8,0.5z M115.7,211.9c1.7-0.4,3.1-0.7,4.4-1
		c20.7-5.3,41.4-10.6,62.2-15.7c2.3-0.6,3.3-1.5,3.4-4c0.9-12.4,2-24.8,3.1-37.2c1.9-23.2,3.8-46.5,5.8-69.7
		c1.9-22.3,3.8-44.6,5.7-66.9c0.1-1.7-0.5-2.3-2-2.3c-2.3,0-4.7,0.1-7,0.1c-8.5,0-16.9-0.1-25.4-0.1c-15.5,0-31.1,0.1-46.6,0
		c-3.7,0-3.8,0-3.8,3.7c0,20,0.1,40,0,59.9c0,1.4-0.2,2.8-0.5,4.1c-3.3,14.9-6.6,29.8-9.8,44.6c-0.7,3.3-1.4,6.6-2.2,9.9
		c-0.3-3.3-0.5-6.5-0.3-9.7c0.2-2.4-0.7-3.6-2.9-4.5c-5.4-2.2-10.7-4.6-16.1-6.9c-0.7-0.3-1.4-0.7-2.6-1.3c1.2-0.6,2-1,2.7-1.3
		c5.5-2.5,11.1-5,16.7-7.3c1.5-0.6,2.1-1.5,2.1-3.1c0-5.1,0.1-10.1,0.1-15.2c0-0.8-0.2-1.6-0.4-2.6c-1,0.4-1.7,0.7-2.4,1
		c-5.3,2.3-10.5,4.6-15.8,7c-11,4.8-21.9,9.7-32.9,14.5c-1.5,0.7-2.3,1.6-2.2,3.4c0.1,2.3,0.2,4.7,0,7c-0.1,2.1,0.6,3.2,2.6,4
		c15.5,6.8,31,13.7,46.5,20.5c3.2,1.4,3.2,1.4,2.5,4.7c-0.1,0.6-0.1,1.2-0.1,1.7c0.4,0.1,0.6,0.3,0.8,0.3c3.6,0,7.2,0.1,10.7,0.1
		c3.4,0,3.4,0,3.4,3.3c0,18.6-0.1,37.2-0.1,55.7C115.5,209.5,115.6,210.5,115.7,211.9z"/>
	<path d="M99,90.9c0,4,0.1,7.6-0.1,11.2c0,0.6-1.1,1.4-1.9,1.7c-7.4,3.3-14.8,6.6-22.2,9.8c-0.7,0.3-1.3,0.7-2.4,1.3
		c1.3,0.6,2,1.1,2.9,1.4c7.2,3.2,14.5,6.4,21.8,9.6c1.5,0.7,2.1,1.5,2.1,3.2c-0.1,3.2,0,6.3,0,9.8c-0.9-0.3-1.5-0.4-2-0.6
		c-13.9-6.2-27.8-12.4-41.8-18.4c-1.8-0.8-2.6-1.7-2.6-3.7c0-6-0.2-4.8,4.3-6.8c13.3-6,26.7-11.9,40.1-17.8
		C97.5,91.3,98,91.2,99,90.9z"/>
	<path d="M132.1,90.7c2.6,1.1,4.6,2,6.7,2.9c12.5,5.5,25,11.1,37.5,16.6c1.7,0.7,2.3,1.7,2.2,3.5c-0.3,6.3,0.5,4.7-4.7,7
		c-12.6,5.6-25.1,11.1-37.7,16.7c-1.1,0.5-2.2,0.9-4,1.7c0-4.1-0.1-7.8,0.1-11.5c0-0.6,1.3-1.4,2.2-1.8c7.3-3.2,14.7-6.4,22-9.6
		c0.6-0.3,1.2-0.6,2.2-1.1c-0.7-0.5-1.2-0.8-1.7-1.1c-7.4-3.3-14.7-6.6-22.2-9.8c-2-0.8-2.8-1.9-2.7-4
		C132.3,97.3,132.1,94.2,132.1,90.7z"/>
	<path d="M108.5,145.9c-0.1,0-0.2,0-0.2,0c-3.8,0.1-3.8,0.1-3-3.5c3.4-15.4,6.9-30.8,10.3-46.2c0.7-3.3,1.5-6.7,2.1-10
		c0.3-1.8,1.2-2.5,3-2.4c0.8,0.1,1.6,0,2.3,0c3.7,0,3.6,0,2.8,3.5c-4.1,18-8.1,36.1-12.1,54.1C112.8,145.8,112.9,145.8,108.5,145.9z
		"/>
</g>
</svg>
