<!-- Generated by IcoMoon.io -->
<svg version="1.1" xmlns="http://www.w3.org/2000/svg" width="32" height="32" viewBox="0 0 32 32">
<title>HTML</title>
<path d="M16.339 0.071c4.586 0 9.171 0 13.757 0 0.451 0 0.451 0 0.409 0.452-0.466 5.15-0.945 10.286-1.411 15.436-0.268 3.005-0.55 6.011-0.832 9.016-0.113 1.185-0.226 2.384-0.325 3.57-0.014 0.24-0.127 0.339-0.353 0.395-3.654 0.988-7.309 1.975-10.963 2.963-0.212 0.056-0.466 0.056-0.677 0-3.654-0.974-7.309-1.975-10.963-2.963-0.212-0.056-0.31-0.155-0.325-0.381-0.141-1.538-0.282-3.076-0.423-4.614-0.282-3.104-0.564-6.208-0.847-9.312-0.296-3.287-0.593-6.575-0.889-9.862-0.113-1.439-0.24-2.892-0.381-4.332-0.028-0.296 0.042-0.381 0.339-0.381 4.628 0.014 9.256 0.014 13.884 0.014 0 0 0 0 0 0zM16.325 29.898c0.24-0.056 0.437-0.099 0.621-0.141 2.921-0.748 5.841-1.496 8.776-2.215 0.325-0.085 0.466-0.212 0.48-0.564 0.127-1.75 0.282-3.499 0.437-5.249 0.268-3.273 0.536-6.561 0.818-9.834 0.268-3.146 0.536-6.293 0.804-9.439 0.014-0.24-0.071-0.325-0.282-0.325-0.325 0-0.663 0.014-0.988 0.014-1.199 0-2.384-0.014-3.584-0.014-2.187 0-4.388 0.014-6.575 0-0.522 0-0.536 0-0.536 0.522 0 2.822 0.014 5.644 0 8.451 0 0.198-0.028 0.395-0.071 0.578-0.466 2.102-0.931 4.205-1.383 6.293-0.099 0.466-0.198 0.931-0.31 1.397-0.042-0.466-0.071-0.917-0.042-1.369 0.028-0.339-0.099-0.508-0.409-0.635-0.762-0.31-1.51-0.649-2.272-0.974-0.099-0.042-0.198-0.099-0.367-0.183 0.169-0.085 0.282-0.141 0.381-0.183 0.776-0.353 1.566-0.705 2.356-1.030 0.212-0.085 0.296-0.212 0.296-0.437 0-0.72 0.014-1.425 0.014-2.145 0-0.113-0.028-0.226-0.056-0.367-0.141 0.056-0.24 0.099-0.339 0.141-0.748 0.325-1.481 0.649-2.229 0.988-1.552 0.677-3.090 1.369-4.642 2.046-0.212 0.099-0.325 0.226-0.31 0.48 0.014 0.324 0.028 0.663 0 0.988-0.014 0.296 0.085 0.451 0.367 0.564 2.187 0.959 4.374 1.933 6.561 2.892 0.451 0.198 0.451 0.198 0.353 0.663-0.014 0.085-0.014 0.169-0.014 0.24 0.056 0.014 0.085 0.042 0.113 0.042 0.508 0 1.016 0.014 1.51 0.014 0.48 0 0.48 0 0.48 0.466 0 2.624-0.014 5.249-0.014 7.859 0.028 0.127 0.042 0.268 0.056 0.466z"></path>
<path d="M13.968 12.825c0 0.564 0.014 1.072-0.014 1.58 0 0.085-0.155 0.198-0.268 0.24-1.044 0.466-2.088 0.931-3.132 1.383-0.099 0.042-0.183 0.099-0.339 0.183 0.183 0.085 0.282 0.155 0.409 0.198 1.016 0.451 2.046 0.903 3.076 1.355 0.212 0.099 0.296 0.212 0.296 0.451-0.014 0.451 0 0.889 0 1.383-0.127-0.042-0.212-0.056-0.282-0.085-1.961-0.875-3.922-1.75-5.898-2.596-0.254-0.113-0.367-0.24-0.367-0.522 0-0.847-0.028-0.677 0.607-0.959 1.877-0.847 3.767-1.679 5.658-2.511 0.042-0.042 0.113-0.056 0.254-0.099z"></path>
<path d="M18.638 12.797c0.367 0.155 0.649 0.282 0.945 0.409 1.764 0.776 3.527 1.566 5.291 2.342 0.24 0.099 0.325 0.24 0.31 0.494-0.042 0.889 0.071 0.663-0.663 0.988-1.778 0.79-3.541 1.566-5.319 2.356-0.155 0.071-0.31 0.127-0.564 0.24 0-0.578-0.014-1.101 0.014-1.623 0-0.085 0.183-0.198 0.31-0.254 1.030-0.451 2.074-0.903 3.104-1.355 0.085-0.042 0.169-0.085 0.31-0.155-0.099-0.071-0.169-0.113-0.24-0.155-1.044-0.466-2.074-0.931-3.132-1.383-0.282-0.113-0.395-0.268-0.381-0.564 0.042-0.409 0.014-0.847 0.014-1.34z"></path>
<path d="M15.309 20.586c-0.014 0-0.028 0-0.028 0-0.536 0.014-0.536 0.014-0.423-0.494 0.48-2.173 0.974-4.346 1.453-6.519 0.099-0.466 0.212-0.945 0.296-1.411 0.042-0.254 0.169-0.353 0.423-0.339 0.113 0.014 0.226 0 0.325 0 0.522 0 0.508 0 0.395 0.494-0.578 2.54-1.143 5.093-1.707 7.633-0.127 0.621-0.113 0.621-0.734 0.635z"></path>
</svg>
