<?xml version="1.0" encoding="utf-8"?>
<!-- Generator: Adobe Illustrator 22.1.0, SVG Export Plug-In . SVG Version: 6.00 Build 0)  -->
<svg version="1.1" id="Layer_1" xmlns="http://www.w3.org/2000/svg" xmlns:xlink="http://www.w3.org/1999/xlink" x="0px" y="0px"
	 viewBox="0 0 226.8 226.8" style="enable-background:new 0 0 226.8 226.8;" xml:space="preserve">
<g>
	<path d="M56.2,114.5c0-33.5,0-67.1,0-100.6c0-2.7,0-5.4,0.2-8c0.1-2.8,1.1-3.7,3.9-3.7c10.2,0,20.3,0,30.5,0c0.7,0,1.3,0.1,2,0.3
		c1,0.2,1.7,0.9,1.8,1.9c0.2,1.3,0.4,2.7,0.4,4c0,60.6,0,121.2,0,181.8c0,10.2,0,20.3,0,30.5c0,1.1-0.1,2.2-0.2,3.3
		c-0.2,1.6-1.2,2.6-2.8,2.7c-1.5,0.1-3,0.2-4.6,0.2c-8.3,0-16.6,0-24.9,0c-1,0-1.9-0.1-2.9-0.2c-2.2-0.3-3.2-1.3-3.2-3.5
		c-0.1-2.1-0.2-4.2-0.2-6.2C56.2,182.7,56.2,148.6,56.2,114.5C56.2,114.5,56.2,114.5,56.2,114.5z"/>
	<path d="M148.6,201.7c0.7,0.1,1.4,0.2,2.1,0.3c1.5,0.3,2.5,1.3,2.8,2.8c0.1,0.4,0.2,0.8,0.2,1.2c0.3,5.1-3.4,7.6-8.1,5.4
		c-2.3-1.1-2.2-3.3-2.2-5.4c0.1-2.3,1-3.6,2.8-4C147.1,201.8,147.9,201.8,148.6,201.7z"/>
	<path d="M143.4,221.7c0.1-0.7,0.1-1.3,0.3-2c0.4-1.9,1.5-3,3.4-3.2c1-0.1,2.1-0.1,3.1,0c2.1,0.3,3.2,1.3,3.4,3.5
		c0.2,1.2,0.1,2.5-0.1,3.8c-0.2,1.3-1.1,2.4-2.5,2.6c-1.6,0.2-3.2,0.3-4.7,0C144.3,226,143.5,224.4,143.4,221.7z"/>
	<path d="M178,201.8c1.8,0,3.7,0.1,4.6,2.1c1,2.2,1,4.5-0.3,6.6c-0.4,0.6-1.3,1.1-2,1.2c-1.4,0.2-2.9,0.1-4.3,0
		c-0.4,0-0.9-0.3-1.3-0.6c-1.5-1-2.1-3.9-1.4-6.6c0.5-1.7,1.7-2.6,3.7-2.8C177.3,201.8,177.7,201.8,178,201.8z"/>
	<path d="M178,216.4c0.6,0.1,1.3,0.1,1.9,0.2c2,0.4,3,1.5,3.2,3.6c0.1,0.8,0.1,1.6,0,2.4c-0.4,2.8-1.7,4-4.5,4.1
		c-0.9,0-1.8-0.1-2.6-0.3c-1.6-0.4-2.7-1.4-2.9-3c-0.1-1.5,0-3.1,0.3-4.5C173.9,217.1,175.4,216.5,178,216.4z"/>
	<path d="M148.6,70.4c0.6,0,1.1,0,1.7,0.1c2.1,0.4,3,1.2,3.3,3.3c0.2,0.9,0.2,1.9,0.1,2.9c-0.3,2.4-1.4,3.5-3.8,3.8
		c-5.1,0.6-7-1.6-6.3-6.5C144,71.4,145.4,70.4,148.6,70.4z"/>
	<path d="M163.4,216.5c3.9-0.1,5.5,2,5,6.4c-0.3,2.4-1.3,3.4-3.7,3.7c-1.1,0.1-2.2,0.1-3.3-0.1c-1.6-0.3-2.6-1.3-2.9-2.9
		c-0.2-1.1-0.3-2.2-0.2-3.2C158.6,217.6,160,216.5,163.4,216.5z"/>
	<path d="M168.5,207c0,3.5-1.5,5-5.1,5c-0.7,0-1.4-0.1-2.1-0.2c-0.5-0.1-1.1-0.3-1.5-0.7c-2.1-1.8-1.8-4.2-1.3-6.5
		c0.3-1.7,1.7-2.6,3.7-2.8c0.3,0,0.7,0,1,0C167,201.7,168.5,203.2,168.5,207z"/>
	<path d="M178.1,109.1c-4.2-0.1-5.6-1.4-5-6.3c0.2-1.8,1.1-2.7,3-2.9c1.4-0.1,2.9-0.1,4.3,0c1.5,0.2,2.5,1.1,2.7,2.6
		c0.1,1,0.2,2.1,0.1,3.1c-0.2,2.1-1.1,2.9-3.2,3.3C179.3,109,178.7,109.1,178.1,109.1z"/>
	<path d="M163.3,123.9c-4.4,0-5.4-1.9-5-6.1c0.2-2.1,1.1-3,3.2-3.1c1.4-0.1,2.7-0.1,4.1,0c1.6,0.2,2.4,1,2.7,2.5
		c0.2,0.9,0.2,1.9,0.2,2.9c-0.1,2.2-1.1,3.2-3.3,3.6C164.6,123.8,163.9,123.8,163.3,123.9z"/>
	<path d="M148.6,123.9c-4.1,0-5.6-1.8-5.1-5.9c0.3-2.2,1.1-3.1,3.3-3.3c1.3-0.1,2.7-0.1,4,0.1c1.6,0.2,2.5,1,2.7,2.6
		c0.2,1,0.2,2.1,0.1,3.1c-0.2,2.1-1.1,2.9-3.2,3.3C149.9,123.8,149.2,123.8,148.6,123.9z"/>
	<path d="M163.3,109.1c-4.4,0-5.4-1.9-5-6.1c0.2-2.1,1.1-3,3.2-3.2c1.3-0.1,2.7-0.1,4,0c1.7,0.2,2.6,1,2.8,2.7
		c0.2,1,0.2,2.2,0.1,3.2c-0.3,2-1.1,2.7-3.1,3.1C164.6,109,164,109.1,163.3,109.1z"/>
	<path d="M163.3,94.4c-4.1-0.1-5.5-1.6-5.1-5.8c0.2-2.3,1.1-3.3,3.4-3.5c1.3-0.1,2.6-0.1,3.9,0.1c1.7,0.2,2.5,1,2.8,2.7
		c0.2,1,0.2,2.1,0.1,3.1c-0.2,2-1.1,2.8-3.1,3.2C164.6,94.3,164,94.3,163.3,94.4z"/>
	<path d="M148.6,94.4c-4-0.1-5.7-1.3-5-6.4c0.3-1.8,1.2-2.7,3-2.9c1.6-0.1,3.2,0,4.7,0.2c1.2,0.2,2,1.1,2.1,2.3
		c0.1,1.4,0.1,2.8-0.1,4.2c-0.2,1.2-1.1,2-2.4,2.2C150.3,94.3,149.5,94.3,148.6,94.4z"/>
	<path d="M148.6,109.1c-4.4,0-5.6-1.8-5.1-6.1c0.2-2,1.2-2.9,3.2-3.1c1.3-0.1,2.7-0.1,4,0c1.7,0.2,2.5,1,2.8,2.7
		c0.2,1,0.2,2.1,0.1,3.1c-0.2,2-1.1,2.8-3.1,3.2C149.9,109,149.3,109.1,148.6,109.1z"/>
	<path d="M178.1,123.8c-4.7,0-5.6-2.1-5-6.2c0.3-2,1.1-2.8,3.1-3c1.4-0.1,2.8-0.1,4.2,0.1c1.7,0.3,2.6,1.3,2.8,3.1
		c0.1,0.8,0.1,1.6,0,2.4C182.8,122.9,181.5,123.8,178.1,123.8z"/>
	<path d="M148.6,129.1c4.2,0,5.7,1.4,5,6.3c-0.3,1.9-1.2,2.8-3.2,2.9c-1.3,0.1-2.6,0.1-3.9,0c-1.7-0.2-2.6-1-2.9-2.7
		c-0.2-1-0.2-2.1-0.1-3.1c0.2-2,1.1-2.8,3-3.2C147.2,129.2,147.9,129.2,148.6,129.1z"/>
	<path d="M158.2,134c0.1-0.6,0.1-1.2,0.2-1.8c0.4-1.8,1.2-2.7,3-2.9c1.5-0.1,3,0,4.5,0.2c1.3,0.2,2.3,1.1,2.4,2.5
		c0.1,1.3,0.1,2.7-0.1,4.1c-0.2,1.3-1.2,2.1-2.5,2.2c-1.6,0.1-3.2,0.1-4.7-0.1C158.9,137.8,158.2,136.5,158.2,134z"/>
	<path d="M163.2,143.9c0.1,0,0.2,0,0.3,0c4.4,0.1,6.4,3.5,4.3,7.4c-0.4,0.7-1.3,1.5-2.1,1.6c-1.7,0.2-3.5,0.1-5.2-0.1
		c-1.4-0.2-2.3-1.3-2.4-2.7c-0.1-1.2,0-2.5,0.2-3.6c0.3-1.6,1.6-2.3,3.1-2.5C162.1,143.9,162.7,144,163.2,143.9
		C163.2,143.9,163.2,143.9,163.2,143.9z"/>
	<path d="M183.3,148.6c-0.1,0.7-0.2,1.3-0.3,2c-0.3,1.2-1,2-2.2,2.3c-1.8,0.5-3.7,0.5-5.5,0c-1.2-0.3-2-1.1-2.2-2.3
		c-0.2-1.1-0.3-2.2-0.1-3.3c0.2-2,1.1-3,3.1-3.2c1.5-0.2,3.1-0.1,4.5,0.2C182.5,144.6,183.2,146,183.3,148.6z"/>
	<path d="M172.9,133.7c0.1-3,1.3-4.3,4.3-4.4c1.1,0,2.3,0,3.4,0.2c1.3,0.2,2.3,1.1,2.4,2.4c0.1,1.2,0.2,2.4,0.1,3.6
		c-0.1,1.6-1.2,2.6-2.7,2.8c-1.5,0.2-3,0.2-4.4,0c-1.5-0.1-2.4-1.1-2.7-2.6C173,135.1,173,134.4,172.9,133.7z"/>
	<path d="M124.4,75.7c0,0.1,0,0.3,0,0.4c-0.1,1.5,0,3.2-1.7,4c-1.9,0.9-4,0.9-5.9,0c-1-0.5-1.5-1.4-1.5-2.4
		c-0.1-1.5-0.1-3.1,0.1-4.6c0.2-1.3,1.1-2.2,2.4-2.3c1.2-0.2,2.5-0.3,3.7-0.1c1.7,0.2,2.5,1.2,2.7,2.9
		C124.3,74.2,124.4,74.9,124.4,75.7C124.4,75.7,124.4,75.7,124.4,75.7z"/>
	<path d="M139.1,75.4c0,0.4,0,0.7-0.1,1c-0.1,1.6-0.2,3.2-2,3.8c-2,0.7-4,0.8-5.8-0.3c-0.6-0.3-1.1-1.1-1.2-1.8
		c-0.2-1.6-0.1-3.3-0.1-5c0-0.1,0-0.2,0.1-0.3c0.6-1.9,2.4-2.7,5.6-2.4c2,0.2,3,1.2,3.2,3.2C139.1,74.3,139.1,74.9,139.1,75.4z"/>
	<path d="M148.8,143.9c0.5,0,1,0,1.4,0c2.1,0.2,3.2,1.2,3.5,3.3c0.1,0.9,0.1,1.9,0,2.8c-0.3,2-1.2,2.9-3.2,3.1
		c-1.3,0.1-2.6,0.1-3.9,0c-1.7-0.2-2.6-1-2.8-2.7c-0.2-1-0.2-2.1-0.2-3.1c0.2-1.8,1.1-2.8,2.9-3.2c0.8-0.2,1.5-0.2,2.3-0.3
		C148.8,143.9,148.8,143.9,148.8,143.9z"/>
	<path d="M163.3,197.4c-4,0-5.4-0.9-5.1-5.8c0.1-2,1.1-3,3-3.3c1.4-0.2,2.8-0.1,4.2,0c0.5,0,1.1,0.3,1.5,0.6
		c1.9,1.6,1.6,3.8,1.3,5.9c-0.3,1.6-1.3,2.4-3.2,2.6C164.5,197.3,163.9,197.3,163.3,197.4z"/>
	<path d="M148.5,197.4c-4.1,0-5.2-1.2-5-5.2c0.1-2.5,1.3-3.8,3.7-4c1-0.1,2-0.1,3,0c0.7,0.1,1.5,0.3,2.1,0.7
		c1.9,1.6,1.6,3.7,1.2,5.8c-0.3,1.7-1.3,2.4-3.1,2.6C149.8,197.4,149.1,197.4,148.5,197.4z"/>
	<path d="M178.1,197.4c-4.3,0-5.6-1.4-5.1-5.7c0.2-2.3,1.3-3.4,3.6-3.6c1.4-0.1,2.8,0,4.1,0.2c2,0.4,2.6,1.9,2.5,4.9
		c-0.1,2.3-0.9,3.4-2.8,3.8C179.7,197.3,178.9,197.3,178.1,197.4z"/>
	<path d="M163.4,167.9c-4.3-0.1-5.6-1.5-5.2-5.7c0.2-2.3,1.3-3.5,3.6-3.6c1.4-0.1,2.7,0,4.1,0.2c1.3,0.2,2.2,1.1,2.3,2.4
		c0.1,1.4,0.1,2.8-0.1,4.2c-0.1,1.1-0.9,1.9-2.1,2.1C165.2,167.8,164.3,167.8,163.4,167.9z"/>
	<path d="M163.3,182.6c-4.2,0-5.5-1.4-5.1-5.6c0.2-2.3,1.3-3.4,3.6-3.6c1-0.1,2-0.1,3,0c2.2,0.2,3.4,1.4,3.6,3.7c0,0.6,0,1.2,0,1.8
		c-0.2,2.5-1.2,3.5-3.7,3.7C164.3,182.6,163.8,182.6,163.3,182.6z"/>
	<path d="M148.9,167.9c-0.3,0-0.4,0-0.4,0c-5,0.3-5.7-2.8-4.6-7.2c0.3-1,1.1-1.7,2.1-1.8c1.8-0.1,3.6,0,5.4,0c0.3,0,0.6,0.2,0.8,0.4
		c2,1.5,1.7,3.7,1.4,5.8c-0.3,1.7-1.3,2.5-3.2,2.7C149.8,167.9,149.2,167.9,148.9,167.9z"/>
	<path d="M178,167.9c0,0-0.1,0-0.1,0c-5.1,0.3-5.6-3.2-4.5-7.2c0.3-1,1.1-1.6,2-1.7c1.6-0.1,3.3-0.2,5-0.1c1.6,0.1,2.5,1.3,2.7,2.8
		c0.1,0.3,0.1,0.6,0.1,0.9C183.4,166.7,182.2,167.9,178,167.9z"/>
	<path d="M148.6,182.6c-0.1,0-0.1,0-0.2,0c-4.4-0.1-6.3-3.1-4.4-7.2c0.3-0.7,1.2-1.6,2-1.7c1.6-0.3,3.3-0.3,5-0.1
		c1.6,0.1,2.5,1.2,2.7,2.8c0.1,0.4,0.1,0.7,0.1,1.1C153.8,181.5,152.6,182.7,148.6,182.6z"/>
	<path d="M178,182.6c0,0-0.1,0-0.1,0c-5,0.3-5.6-3-4.6-7c0.3-1.1,1.1-1.8,2.1-1.9c1.6-0.2,3.3-0.2,4.9-0.1c1.6,0.1,2.5,1.3,2.8,2.9
		c0.1,0.3,0.1,0.7,0.1,1C183.3,181.5,182.1,182.8,178,182.6z"/>
	<path d="M124.3,89.8c0.2,3.5-1.8,4.6-4.6,4.6c-3.4,0-4.7-1.4-4.6-4.9c0-3.1,1.5-4.4,4.8-4.4C123.2,85,124.4,86.3,124.3,89.8z"/>
	<path d="M109.6,104.2c-0.1,3.6-1.3,4.9-4.8,4.8c-3.1-0.1-4.4-1.6-4.4-4.9c0.1-3.2,1.5-4.5,4.9-4.4
		C108.1,99.8,109.8,101,109.6,104.2z"/>
	<path d="M139.1,89.6c-0.1,3.5-1.4,4.8-4.8,4.7c-3.2-0.1-4.6-1.6-4.5-5.1c0.1-3,1.5-4.2,5.1-4.2C137.9,85.1,139.2,86.5,139.1,89.6z"
		/>
	<path d="M100.4,89.6c0-3.2,1.3-4.6,4.5-4.6c3.5,0,4.8,1.2,4.8,4.5c0,3.4-1.3,4.8-4.5,4.8C101.8,94.4,100.4,92.9,100.4,89.6z"/>
</g>
</svg>
