<!-- Generated by IcoMoon.io -->
<svg version="1.1" xmlns="http://www.w3.org/2000/svg" width="32" height="32" viewBox="0 0 32 32">
<title>HVN</title>
<path d="M7.929 16.155c0-4.727 0-9.467 0-14.194 0-0.381 0-0.762 0.028-1.129 0.014-0.395 0.155-0.522 0.55-0.522 1.439 0 2.864 0 4.303 0 0.099 0 0.183 0.014 0.282 0.042 0.141 0.028 0.24 0.127 0.254 0.268 0.028 0.183 0.056 0.381 0.056 0.564 0 8.55 0 17.101 0 25.651 0 1.439 0 2.864 0 4.303 0 0.155-0.014 0.31-0.028 0.466-0.028 0.226-0.169 0.367-0.395 0.381-0.212 0.014-0.423 0.028-0.649 0.028-1.171 0-2.342 0-3.513 0-0.141 0-0.268-0.014-0.409-0.028-0.31-0.042-0.452-0.183-0.452-0.494-0.014-0.296-0.028-0.593-0.028-0.875 0-4.84 0-9.651 0-14.462 0 0 0 0 0 0z"></path>
<path d="M20.966 28.459c0.099 0.014 0.198 0.028 0.296 0.042 0.212 0.042 0.353 0.183 0.395 0.395 0.014 0.056 0.028 0.113 0.028 0.169 0.042 0.72-0.48 1.072-1.143 0.762-0.325-0.155-0.31-0.466-0.31-0.762 0.014-0.325 0.141-0.508 0.395-0.564 0.127-0.028 0.24-0.028 0.339-0.042z"></path>
<path d="M20.233 31.28c0.014-0.099 0.014-0.183 0.042-0.282 0.056-0.268 0.212-0.423 0.48-0.451 0.141-0.014 0.296-0.014 0.437 0 0.296 0.042 0.451 0.183 0.48 0.494 0.028 0.169 0.014 0.353-0.014 0.536s-0.155 0.339-0.353 0.367c-0.226 0.028-0.451 0.042-0.663 0-0.282-0.056-0.395-0.282-0.409-0.663z"></path>
<path d="M25.115 28.473c0.254 0 0.522 0.014 0.649 0.296 0.141 0.31 0.141 0.635-0.042 0.931-0.056 0.085-0.183 0.155-0.282 0.169-0.198 0.028-0.409 0.014-0.607 0-0.056 0-0.127-0.042-0.183-0.085-0.212-0.141-0.296-0.55-0.198-0.931 0.071-0.24 0.24-0.367 0.522-0.395 0.042 0.014 0.099 0.014 0.141 0.014z"></path>
<path d="M25.115 30.533c0.085 0.014 0.183 0.014 0.268 0.028 0.282 0.056 0.423 0.212 0.451 0.508 0.014 0.113 0.014 0.226 0 0.339-0.056 0.395-0.24 0.564-0.635 0.578-0.127 0-0.254-0.014-0.367-0.042-0.226-0.056-0.381-0.198-0.409-0.423-0.014-0.212 0-0.437 0.042-0.635 0.071-0.254 0.282-0.339 0.649-0.353z"></path>
<path d="M20.966 9.933c0.085 0 0.155 0 0.24 0.014 0.296 0.056 0.423 0.169 0.466 0.466 0.028 0.127 0.028 0.268 0.014 0.409-0.042 0.339-0.198 0.494-0.536 0.536-0.72 0.085-0.988-0.226-0.889-0.917 0.056-0.367 0.254-0.508 0.705-0.508z"></path>
<path d="M23.055 30.547c0.55-0.014 0.776 0.282 0.705 0.903-0.042 0.339-0.183 0.48-0.522 0.522-0.155 0.014-0.31 0.014-0.466-0.014-0.226-0.042-0.367-0.183-0.409-0.409-0.028-0.155-0.042-0.31-0.028-0.451 0.042-0.395 0.24-0.55 0.72-0.55z"></path>
<path d="M23.774 29.206c0 0.494-0.212 0.705-0.72 0.705-0.099 0-0.198-0.014-0.296-0.028-0.071-0.014-0.155-0.042-0.212-0.099-0.296-0.254-0.254-0.593-0.183-0.917 0.042-0.24 0.24-0.367 0.522-0.395 0.042 0 0.099 0 0.141 0 0.536-0.014 0.748 0.198 0.748 0.734z"></path>
<path d="M25.129 15.393c-0.593-0.014-0.79-0.198-0.705-0.889 0.028-0.254 0.155-0.381 0.423-0.409 0.198-0.014 0.409-0.014 0.607 0 0.212 0.028 0.353 0.155 0.381 0.367 0.014 0.141 0.028 0.296 0.014 0.437-0.028 0.296-0.155 0.409-0.451 0.466-0.099 0.014-0.183 0.028-0.268 0.028z"></path>
<path d="M23.041 17.481c-0.621 0-0.762-0.268-0.705-0.861 0.028-0.296 0.155-0.423 0.451-0.437 0.198-0.014 0.381-0.014 0.578 0 0.226 0.028 0.339 0.141 0.381 0.353 0.028 0.127 0.028 0.268 0.028 0.409-0.014 0.31-0.155 0.451-0.466 0.508-0.085 0.014-0.183 0.014-0.268 0.028z"></path>
<path d="M20.966 17.481c-0.578 0-0.79-0.254-0.72-0.832 0.042-0.31 0.155-0.437 0.466-0.466 0.183-0.014 0.381-0.014 0.564 0.014 0.226 0.028 0.353 0.141 0.381 0.367 0.028 0.141 0.028 0.296 0.014 0.437-0.028 0.296-0.155 0.409-0.451 0.466-0.071 0-0.169 0-0.254 0.014z"></path>
<path d="M23.041 15.393c-0.621 0-0.762-0.268-0.705-0.861 0.028-0.296 0.155-0.423 0.451-0.451 0.183-0.014 0.381-0.014 0.564 0 0.24 0.028 0.367 0.141 0.395 0.381 0.028 0.141 0.028 0.31 0.014 0.451-0.042 0.282-0.155 0.381-0.437 0.437-0.099 0.028-0.183 0.042-0.282 0.042z"></path>
<path d="M23.041 13.319c-0.578-0.014-0.776-0.226-0.72-0.818 0.028-0.325 0.155-0.466 0.48-0.494 0.183-0.014 0.367-0.014 0.55 0.014 0.24 0.028 0.353 0.141 0.395 0.381 0.028 0.141 0.028 0.296 0.014 0.437-0.028 0.282-0.155 0.395-0.437 0.451-0.099 0.014-0.183 0.014-0.282 0.028z"></path>
<path d="M20.966 13.319c-0.564-0.014-0.804-0.183-0.705-0.903 0.042-0.254 0.169-0.381 0.423-0.409 0.226-0.014 0.451 0 0.663 0.028 0.169 0.028 0.282 0.155 0.296 0.325 0.014 0.198 0.014 0.395-0.014 0.593-0.028 0.169-0.155 0.282-0.339 0.31-0.085 0.042-0.198 0.042-0.325 0.056z"></path>
<path d="M20.966 15.393c-0.621 0-0.79-0.254-0.72-0.861 0.028-0.282 0.169-0.409 0.451-0.437 0.183-0.014 0.381-0.014 0.564 0 0.24 0.028 0.353 0.141 0.395 0.381 0.028 0.141 0.028 0.296 0.014 0.437-0.028 0.282-0.155 0.395-0.437 0.451-0.085 0.014-0.169 0.028-0.268 0.028z"></path>
<path d="M25.129 17.467c-0.663 0-0.79-0.296-0.705-0.875 0.042-0.282 0.155-0.395 0.437-0.423 0.198-0.014 0.395-0.014 0.593 0.014 0.24 0.042 0.367 0.183 0.395 0.437 0.014 0.113 0.014 0.226 0 0.339-0.056 0.381-0.24 0.508-0.72 0.508z"></path>
<path d="M20.966 18.215c0.593 0 0.804 0.198 0.705 0.889-0.042 0.268-0.169 0.395-0.451 0.409-0.183 0.014-0.367 0.014-0.55 0-0.24-0.028-0.367-0.141-0.409-0.381-0.028-0.141-0.028-0.296-0.014-0.437 0.028-0.282 0.155-0.395 0.423-0.451 0.099-0.014 0.198-0.014 0.296-0.028z"></path>
<path d="M22.321 18.907c0.014-0.085 0.014-0.169 0.028-0.254 0.056-0.254 0.169-0.381 0.423-0.409 0.212-0.014 0.423 0 0.635 0.028 0.183 0.028 0.325 0.155 0.339 0.353 0.014 0.183 0.014 0.381-0.014 0.578-0.028 0.183-0.169 0.296-0.353 0.31-0.226 0.014-0.451 0.014-0.663-0.014-0.296-0.056-0.395-0.24-0.395-0.593z"></path>
<path d="M23.026 20.303c0.014 0 0.028 0 0.042 0 0.621 0.014 0.903 0.494 0.607 1.044-0.056 0.099-0.183 0.212-0.296 0.226-0.24 0.028-0.494 0.014-0.734-0.014-0.198-0.028-0.325-0.183-0.339-0.381-0.014-0.169 0-0.353 0.028-0.508 0.042-0.226 0.226-0.325 0.437-0.353 0.099-0.014 0.183 0 0.254-0.014 0 0 0 0 0 0z"></path>
<path d="M25.862 20.966c-0.014 0.099-0.028 0.183-0.042 0.282-0.042 0.169-0.141 0.282-0.31 0.325-0.254 0.071-0.522 0.071-0.776 0-0.169-0.042-0.282-0.155-0.31-0.325-0.028-0.155-0.042-0.31-0.014-0.466 0.028-0.282 0.155-0.423 0.437-0.451 0.212-0.028 0.437-0.014 0.635 0.028 0.268 0.042 0.367 0.24 0.381 0.607z"></path>
<path d="M24.395 18.864c0.014-0.423 0.183-0.607 0.607-0.621 0.155 0 0.325 0 0.48 0.028 0.183 0.028 0.325 0.155 0.339 0.339 0.014 0.169 0.028 0.339 0.014 0.508-0.014 0.226-0.169 0.367-0.381 0.395s-0.423 0.028-0.621 0c-0.212-0.014-0.339-0.155-0.381-0.367-0.042-0.085-0.042-0.183-0.056-0.282z"></path>
<path d="M17.552 10.681c0 0.014 0 0.042 0 0.056-0.014 0.212 0 0.451-0.24 0.564-0.268 0.127-0.564 0.127-0.832 0-0.141-0.071-0.212-0.198-0.212-0.339-0.014-0.212-0.014-0.437 0.014-0.649 0.028-0.183 0.155-0.31 0.339-0.325 0.169-0.028 0.353-0.042 0.522-0.014 0.24 0.028 0.353 0.169 0.381 0.409 0.014 0.085 0.028 0.183 0.028 0.296 0 0 0 0 0 0z"></path>
<path d="M19.626 10.638c0 0.056 0 0.099-0.014 0.141-0.014 0.226-0.028 0.451-0.282 0.536-0.282 0.099-0.564 0.113-0.818-0.042-0.085-0.042-0.155-0.155-0.169-0.254-0.028-0.226-0.014-0.466-0.014-0.705 0-0.014 0-0.028 0.014-0.042 0.085-0.268 0.339-0.381 0.79-0.339 0.282 0.028 0.423 0.169 0.451 0.451 0.042 0.099 0.042 0.183 0.042 0.254z"></path>
<path d="M20.995 20.303c0.071 0 0.141 0 0.198 0 0.296 0.028 0.451 0.169 0.494 0.466 0.014 0.127 0.014 0.268 0 0.395-0.042 0.282-0.169 0.409-0.451 0.437-0.183 0.014-0.367 0.014-0.55 0-0.24-0.028-0.367-0.141-0.395-0.381-0.028-0.141-0.028-0.296-0.028-0.437 0.028-0.254 0.155-0.395 0.409-0.451 0.113-0.028 0.212-0.028 0.325-0.042 0 0.014 0 0.014 0 0.014z"></path>
<path d="M23.041 27.852c-0.564 0-0.762-0.127-0.72-0.818 0.014-0.282 0.155-0.423 0.423-0.466 0.198-0.028 0.395-0.014 0.593 0 0.071 0 0.155 0.042 0.212 0.085 0.268 0.226 0.226 0.536 0.183 0.832-0.042 0.226-0.183 0.339-0.451 0.367-0.071-0.014-0.155-0.014-0.24 0z"></path>
<path d="M20.952 27.852c-0.578 0-0.734-0.169-0.705-0.734 0.014-0.353 0.183-0.536 0.522-0.564 0.141-0.014 0.282-0.014 0.423 0 0.099 0.014 0.212 0.042 0.296 0.099 0.268 0.226 0.226 0.522 0.169 0.818-0.042 0.24-0.183 0.339-0.437 0.367-0.085 0.014-0.183 0.014-0.268 0.014z"></path>
<path d="M25.129 27.852c-0.607 0-0.79-0.198-0.72-0.804 0.028-0.325 0.183-0.48 0.508-0.508 0.198-0.014 0.395 0 0.578 0.028 0.282 0.056 0.367 0.268 0.353 0.691-0.014 0.325-0.127 0.48-0.395 0.536-0.099 0.042-0.212 0.042-0.325 0.056z"></path>
<path d="M23.055 23.69c-0.607-0.014-0.79-0.212-0.734-0.804 0.028-0.325 0.183-0.494 0.508-0.508 0.198-0.014 0.381 0 0.578 0.028 0.183 0.028 0.31 0.155 0.325 0.339 0.014 0.198 0.014 0.395-0.014 0.593-0.014 0.155-0.127 0.268-0.296 0.296-0.113 0.042-0.24 0.042-0.367 0.056z"></path>
<path d="M23.041 25.764c-0.593 0-0.776-0.198-0.72-0.79 0.028-0.325 0.183-0.48 0.508-0.508 0.141-0.014 0.282-0.014 0.423 0 0.31 0.028 0.48 0.198 0.508 0.522 0 0.085 0 0.169 0 0.254-0.028 0.353-0.169 0.494-0.522 0.522-0.056 0-0.127 0-0.198 0z"></path>
<path d="M21.009 23.69c-0.042 0-0.056 0-0.056 0-0.705 0.042-0.804-0.395-0.649-1.016 0.042-0.141 0.155-0.24 0.296-0.254 0.254-0.014 0.508 0 0.762 0 0.042 0 0.085 0.028 0.113 0.056 0.282 0.212 0.24 0.522 0.198 0.818-0.042 0.24-0.183 0.353-0.451 0.381-0.085 0.014-0.169 0.014-0.212 0.014z"></path>
<path d="M25.115 23.69c0 0-0.014 0-0.014 0-0.72 0.042-0.79-0.451-0.635-1.016 0.042-0.141 0.155-0.226 0.282-0.24 0.226-0.014 0.466-0.028 0.705-0.014 0.226 0.014 0.353 0.183 0.381 0.395 0.014 0.042 0.014 0.085 0.014 0.127 0.028 0.578-0.141 0.748-0.734 0.748z"></path>
<path d="M20.966 25.764c-0.014 0-0.014 0-0.028 0-0.621-0.014-0.889-0.437-0.621-1.016 0.042-0.099 0.169-0.226 0.282-0.24 0.226-0.042 0.466-0.042 0.705-0.014 0.226 0.014 0.353 0.169 0.381 0.395 0.014 0.056 0.014 0.099 0.014 0.155 0 0.564-0.169 0.734-0.734 0.72z"></path>
<path d="M25.115 25.764c0 0-0.014 0-0.014 0-0.705 0.042-0.79-0.423-0.649-0.988 0.042-0.155 0.155-0.254 0.296-0.268 0.226-0.028 0.466-0.028 0.691-0.014s0.353 0.183 0.395 0.409c0.014 0.042 0.014 0.099 0.014 0.141 0.014 0.564-0.155 0.748-0.734 0.72z"></path>
<path d="M17.538 12.67c0.028 0.494-0.254 0.649-0.649 0.649-0.48 0-0.663-0.198-0.649-0.691 0-0.437 0.212-0.621 0.677-0.621 0.466-0.014 0.635 0.169 0.621 0.663z"></path>
<path d="M15.464 14.702c-0.014 0.508-0.183 0.691-0.677 0.677-0.437-0.014-0.621-0.226-0.621-0.691 0.014-0.451 0.212-0.635 0.691-0.621 0.395 0.014 0.635 0.183 0.607 0.635z"></path>
<path d="M19.626 12.642c-0.014 0.494-0.198 0.677-0.677 0.663-0.451-0.014-0.649-0.226-0.635-0.72 0.014-0.423 0.212-0.593 0.72-0.593 0.423 0.014 0.607 0.212 0.593 0.649z"></path>
<path d="M14.166 12.642c0-0.451 0.183-0.649 0.635-0.649 0.494 0 0.677 0.169 0.677 0.635 0 0.48-0.183 0.677-0.635 0.677-0.48 0.014-0.677-0.198-0.677-0.663z"></path>
</svg>
