<!-- Generated by IcoMoon.io -->
<svg version="1.1" xmlns="http://www.w3.org/2000/svg" width="32" height="32" viewBox="0 0 32 32">
<title>HXX</title>
<path d="M13.601 1.425c0.903-0.522 1.651-1.002 2.455-1.383 0.24-0.113 0.663 0.028 0.931 0.183 2.78 1.637 5.545 3.273 8.296 4.966 0.296 0.183 0.578 0.663 0.593 1.016 0.042 3.767 0.042 7.548 0 11.316 0 0.353-0.282 0.79-0.578 1.016-0.564 0.423-1.227 0.72-1.989 1.157-0.042-0.409-0.113-0.691-0.113-0.988 0-3.57 0-7.139 0.028-10.709 0-0.691-0.395-1.002-0.931-1.312-2.709-1.58-5.404-3.189-8.099-4.783-0.169-0.099-0.296-0.24-0.593-0.48z"></path>
<path d="M15.295 7.859c-0.705 0.395-1.171 0.663-1.637 0.931-2.526 1.439-5.037 2.892-7.577 4.303-0.607 0.339-0.832 0.734-0.832 1.439 0.042 3.287 0.028 6.561 0.028 9.848 0 0.325-0.056 0.663-0.113 1.185-0.889-0.564-1.651-1.002-2.37-1.51-0.155-0.113-0.212-0.451-0.212-0.691-0.014-3.541-0.042-7.083 0-10.624 0-0.367 0.325-0.889 0.649-1.072 2.949-1.735 5.926-3.429 8.903-5.122 0.198-0.113 0.536-0.226 0.705-0.141 0.776 0.395 1.51 0.875 2.455 1.453z"></path>
<path d="M19.062 30.547c-1.002 0.564-1.778 1.030-2.61 1.425-0.198 0.099-0.55-0.028-0.776-0.169-3.034-1.778-6.053-3.556-9.044-5.376-0.31-0.198-0.593-0.72-0.593-1.086-0.042-3.429 0-6.843-0.028-10.272 0-0.705 0.198-1.143 0.832-1.439 0.536-0.254 1.044-0.564 1.707-0.931 0.028 0.494 0.071 0.832 0.071 1.157-0.014 3.245-0.014 6.504-0.042 9.75-0.014 0.635 0.31 0.917 0.79 1.199 2.935 1.707 5.855 3.429 8.776 5.15 0.24 0.141 0.466 0.296 0.917 0.593z"></path>
<path d="M22.434 11.019c-0.508-0.268-0.762-0.395-1.002-0.536-2.695-1.594-5.404-3.189-8.071-4.825-0.564-0.353-1.002-0.353-1.566-0.028-2.794 1.637-5.587 3.231-8.381 4.84-0.198 0.113-0.409 0.198-0.832 0.423 0-0.832 0.071-1.538-0.014-2.215-0.127-0.959 0.55-1.199 1.185-1.552 2.681-1.524 5.347-3.048 8-4.628 0.677-0.395 1.185-0.437 1.877 0 2.695 1.665 5.418 3.287 8.141 4.896 0.508 0.296 0.734 0.663 0.691 1.256-0.071 0.691-0.028 1.397-0.028 2.37z"></path>
<path d="M26.808 6.363c1.637 0.169 2.653 1.34 2.638 2.836-0.028 3.457-0.028 6.914 0 10.37 0 0.705-0.212 1.115-0.818 1.453-2.638 1.453-5.277 2.935-7.901 4.444-0.522 0.296-0.931 0.31-1.425-0.028-0.578-0.409-1.199-0.748-1.891-1.185 0.282-0.226 0.437-0.381 0.635-0.494 2.596-1.481 5.192-2.977 7.802-4.43 0.663-0.367 0.931-0.804 0.917-1.566-0.042-3.541-0.014-7.083-0.014-10.624 0.014-0.282 0.042-0.536 0.056-0.776z"></path>
<path d="M9.608 20.698c1.030 0.607 1.82 1.072 2.61 1.538 2.384 1.397 4.769 2.78 7.139 4.205 0.451 0.282 0.79 0.296 1.256 0.028 2.667-1.524 5.362-3.034 8.042-4.543 0.169-0.099 0.353-0.169 0.748-0.353 0 1.030 0.028 1.919-0.028 2.808-0.014 0.198-0.282 0.423-0.494 0.55-2.822 1.623-5.644 3.231-8.48 4.811-0.24 0.127-0.677 0.113-0.917-0.028-3.132-1.82-6.25-3.668-9.369-5.517-0.198-0.127-0.466-0.353-0.48-0.55-0.056-0.903-0.028-1.806-0.028-2.949z"></path>
</svg>
