<?xml version="1.0" encoding="utf-8"?>
<!-- Generator: Adobe Illustrator 22.1.0, SVG Export Plug-In . SVG Version: 6.00 Build 0)  -->
<svg version="1.1" id="Layer_1" xmlns="http://www.w3.org/2000/svg" xmlns:xlink="http://www.w3.org/1999/xlink" x="0px" y="0px"
	 viewBox="0 0 226.8 226.8" style="enable-background:new 0 0 226.8 226.8;" xml:space="preserve">
<g>
	<path d="M96.4,10.1c6.4-3.7,11.7-7.1,17.4-9.8c1.7-0.8,4.7,0.2,6.6,1.3c19.7,11.6,39.3,23.2,58.8,35.2c2.1,1.3,4.1,4.7,4.2,7.2
		c0.3,26.7,0.3,53.5,0,80.2c0,2.5-2,5.6-4.1,7.2c-4,3-8.7,5.1-14.1,8.2c-0.3-2.9-0.8-4.9-0.8-7c0-25.3,0-50.6,0.2-75.9
		c0-4.9-2.8-7.1-6.6-9.3c-19.2-11.2-38.3-22.6-57.4-33.9C99.4,12.8,98.5,11.8,96.4,10.1z"/>
	<path d="M108.4,55.7c-5,2.8-8.3,4.7-11.6,6.6C78.9,72.5,61.1,82.8,43.1,92.8c-4.3,2.4-5.9,5.2-5.9,10.2c0.3,23.3,0.2,46.5,0.2,69.8
		c0,2.3-0.4,4.7-0.8,8.4c-6.3-4-11.7-7.1-16.8-10.7c-1.1-0.8-1.5-3.2-1.5-4.9c-0.1-25.1-0.3-50.2,0-75.3c0-2.6,2.3-6.3,4.6-7.6
		c20.9-12.3,42-24.3,63.1-36.3c1.4-0.8,3.8-1.6,5-1C96.5,48.2,101.7,51.6,108.4,55.7z"/>
	<path d="M135.1,216.5c-7.1,4-12.6,7.3-18.5,10.1c-1.4,0.7-3.9-0.2-5.5-1.2c-21.5-12.6-42.9-25.2-64.1-38.1
		c-2.2-1.4-4.2-5.1-4.2-7.7c-0.3-24.3,0-48.5-0.2-72.8c0-5,1.4-8.1,5.9-10.2c3.8-1.8,7.4-4,12.1-6.6c0.2,3.5,0.5,5.9,0.5,8.2
		c-0.1,23-0.1,46.1-0.3,69.1c-0.1,4.5,2.2,6.5,5.6,8.5c20.8,12.1,41.5,24.3,62.2,36.5C130.3,213.3,131.9,214.4,135.1,216.5z"/>
	<path d="M159,78.1c-3.6-1.9-5.4-2.8-7.1-3.8C132.8,63,113.6,51.7,94.7,40.1c-4-2.5-7.1-2.5-11.1-0.2C63.8,51.5,44,62.8,24.2,74.2
		c-1.4,0.8-2.9,1.4-5.9,3c0-5.9,0.5-10.9-0.1-15.7c-0.9-6.8,3.9-8.5,8.4-11c19-10.8,37.9-21.6,56.7-32.8c4.8-2.8,8.4-3.1,13.3,0
		c19.1,11.8,38.4,23.3,57.7,34.7c3.6,2.1,5.2,4.7,4.9,8.9C158.7,66.2,159,71.2,159,78.1z"/>
	<path d="M190,45.1c11.6,1.2,18.8,9.5,18.7,20.1c-0.2,24.5-0.2,49,0,73.5c0,5-1.5,7.9-5.8,10.3c-18.7,10.3-37.4,20.8-56,31.5
		c-3.7,2.1-6.6,2.2-10.1-0.2c-4.1-2.9-8.5-5.3-13.4-8.4c2-1.6,3.1-2.7,4.5-3.5c18.4-10.5,36.8-21.1,55.3-31.4
		c4.7-2.6,6.6-5.7,6.5-11.1c-0.3-25.1-0.1-50.2-0.1-75.3C189.7,48.6,189.9,46.8,190,45.1z"/>
	<path d="M68.1,146.7c7.3,4.3,12.9,7.6,18.5,10.9c16.9,9.9,33.8,19.7,50.6,29.8c3.2,2,5.6,2.1,8.9,0.2c18.9-10.8,38-21.5,57-32.2
		c1.2-0.7,2.5-1.2,5.3-2.5c0,7.3,0.2,13.6-0.2,19.9c-0.1,1.4-2,3-3.5,3.9c-20,11.5-40,22.9-60.1,34.1c-1.7,0.9-4.8,0.8-6.5-0.2
		c-22.2-12.9-44.3-26-66.4-39.1c-1.4-0.9-3.3-2.5-3.4-3.9C67.9,161.2,68.1,154.8,68.1,146.7z"/>
</g>
</svg>
