<?xml version="1.0" encoding="utf-8"?>
<!-- Generator: Adobe Illustrator 22.1.0, SVG Export Plug-In . SVG Version: 6.00 Build 0)  -->
<svg version="1.1" id="Layer_1" xmlns="http://www.w3.org/2000/svg" xmlns:xlink="http://www.w3.org/1999/xlink" x="0px" y="0px"
	 viewBox="0 0 226.8 226.8" style="enable-background:new 0 0 226.8 226.8;" xml:space="preserve">
<g id="slcRfF_1_">
	<g>
		<path d="M100.9,0c8.3,0,16.6,0,24.9,0c4.4,0.9,8.9,1.7,13.3,2.7c1.4,0.3,2.6,1.2,3.9,1.8c-0.8,1.1-1.5,2.5-2.6,3.4
			c-10.4,8.3-17.5,18.8-20.3,31.8c-1,4.6-3.1,5.9-7.7,5.9c-31.7,0.4-58.2,21.9-65.5,52.7c-6.6,27.8,4.8,56,29.3,72.5
			c22.6,15.2,54.3,14.4,76.7-2.1c18.1-13.3,27.2-31.4,28.3-53.7c0.1-2.5-0.7-5.5,3.2-6.2c14.7-2.9,26.7-10,36-21.9
			c2.5-3.1,3.2-1,3.8,1.3c0.9,4.2,1.7,8.5,2.6,12.7c0,8.3,0,16.6,0,24.9c-0.4,1.8-0.8,3.6-1.2,5.4c-8.2,43.4-32.8,73.2-74.1,88.8
			c-8.5,3.2-17.8,4.5-26.7,6.7c-7.6,0-15.1,0-22.7,0c-1.6-0.4-3.2-0.9-4.9-1.2c-44-7.8-74.4-32.4-90.4-74.1
			c-3.3-8.5-4.6-17.8-6.8-26.7c0-7.6,0-15.1,0-22.7c0.4-2,0.9-4,1.3-6c7.9-43.7,32.5-73.7,74-89.5C83.5,3.4,92.4,2.1,100.9,0z"/>
		<path d="M220.2,53.3C220,77.8,200,97.6,175.6,97.4C151,97.3,131.2,77,131.4,52.2c0.2-24.4,20.3-44.3,44.7-44.1
			C200.7,8.4,220.4,28.5,220.2,53.3z"/>
	</g>
</g>
</svg>
