<!-- Generated by IcoMoon.io -->
<svg version="1.1" xmlns="http://www.w3.org/2000/svg" width="32" height="32" viewBox="0 0 32 32">
<title>HYDRO</title>
<path d="M14.236 0c1.171 0 2.342 0 3.513 0 0.621 0.127 1.256 0.24 1.877 0.381 0.198 0.042 0.367 0.169 0.55 0.254-0.113 0.155-0.212 0.353-0.367 0.48-1.467 1.171-2.469 2.653-2.864 4.487-0.141 0.649-0.437 0.832-1.086 0.832-4.473 0.056-8.212 3.090-9.242 7.436-0.931 3.922 0.677 7.901 4.134 10.229 3.189 2.145 7.661 2.032 10.822-0.296 2.554-1.877 3.838-4.43 3.993-7.577 0.014-0.353-0.099-0.776 0.451-0.875 2.074-0.409 3.767-1.411 5.079-3.090 0.353-0.437 0.451-0.141 0.536 0.183 0.127 0.593 0.24 1.199 0.367 1.792 0 1.171 0 2.342 0 3.513-0.056 0.254-0.113 0.508-0.169 0.762-1.157 6.123-4.628 10.328-10.455 12.529-1.199 0.451-2.511 0.635-3.767 0.945-1.072 0-2.13 0-3.203 0-0.226-0.056-0.451-0.127-0.691-0.169-6.208-1.101-10.497-4.571-12.755-10.455-0.466-1.199-0.649-2.511-0.959-3.767 0-1.072 0-2.13 0-3.203 0.056-0.282 0.127-0.564 0.183-0.847 1.115-6.166 4.586-10.399 10.441-12.628 1.157-0.437 2.413-0.621 3.612-0.917z"></path>
<path d="M31.069 7.52c-0.028 3.457-2.85 6.25-6.293 6.222-3.471-0.014-6.265-2.878-6.236-6.377 0.028-3.443 2.864-6.25 6.307-6.222 3.471 0.042 6.25 2.878 6.222 6.377z"></path>
</svg>
