<?xml version="1.0" encoding="utf-8"?>
<!-- Generator: Adobe Illustrator 22.0.1, SVG Export Plug-In . SVG Version: 6.00 Build 0)  -->
<svg version="1.1" id="Layer_1" xmlns="http://www.w3.org/2000/svg" xmlns:xlink="http://www.w3.org/1999/xlink" x="0px" y="0px"
	 viewBox="0 0 226.8 226.8" style="enable-background:new 0 0 226.8 226.8;" xml:space="preserve">
<style type="text/css">
	.st0{stroke:#FFFFFF;stroke-miterlimit:10;}
</style>
<g>
	<path class="st0" d="M100.4,23.2c23.5-4,47.6,3.4,66.9,16.7c-7.9,8.2-16.2,16.4-24.4,24.7c-19-11.3-43.9-11.1-61.8,2.6
		c-23.5,16.7-29.5,51.3-15,76c-7.9,8.5-16.2,16.7-24.1,24.9c-15.6-22.7-21.5-51.6-14.2-78.2C36,55.8,65.5,28.3,100.4,23.2"/>
	<path class="st0" d="M185.1,58.7c17.6,24.4,22.7,57,12.5,85.3c-9.1,26.1-30.6,47.9-57.3,56.1c-27.2,9.4-57.3,2.8-80.5-13.3
		c7.9-8.5,16.2-16.7,24.4-24.9c13,7.1,28.9,11.1,43.4,6.2c25.2-6.2,43.4-32,41.4-57.8c0-9.6-4-18.4-7.9-26.9
		C169.3,75.1,177.2,66.9,185.1,58.7"/>
	<circle class="st0" cx="24.7" cy="204.4" r="22.4"/>
	<circle class="st0" cx="202.7" cy="22.4" r="22.4"/>
</g>
</svg>
