<?xml version="1.0" encoding="utf-8"?>
<!-- Generator: Adobe Illustrator 22.1.0, SVG Export Plug-In . SVG Version: 6.00 Build 0)  -->
<svg version="1.1" id="Layer_1" xmlns="http://www.w3.org/2000/svg" xmlns:xlink="http://www.w3.org/1999/xlink" x="0px" y="0px"
	 viewBox="0 0 226.8 226.8" style="enable-background:new 0 0 226.8 226.8;" xml:space="preserve">
<g>
	<path d="M117.3,0c28.6,16.8,57.1,33.7,85.9,50.1c7,4,9.9,9,9.9,17.1c-0.3,31-0.3,62,0,93c0.1,7.8-2.6,12.8-9.4,16.7
		c-27.1,15.5-54,31.2-80.9,47c-6.4,3.8-12.1,3.9-18.6,0.1c-27.1-16-54.2-31.7-81.5-47.4c-6.2-3.6-9-8.3-9-15.6
		c0.2-31.4,0.2-62.9,0-94.3c-0.1-7.5,2.7-12.4,9.2-16.1c27.6-15.8,55.1-31.9,82.7-47.9c1.3-0.8,2.5-1.7,3.7-2.6
		C112,0,114.6,0,117.3,0z M40.3,90.1c-0.3,2.4-0.6,3.8-0.6,5.3c0,18.8,0.1,37.6-0.1,56.4c-0.1,4.4,2.1,6.2,5.4,8.1
		c21.1,12.1,42.1,24.3,63,36.7c3.9,2.3,6.8,2.4,10.7,0.1c21.1-12.5,42.3-24.9,63.6-37c4-2.3,5.3-5,5.3-9.5
		c-0.2-17.7-0.1-35.4-0.1-53.1c0-2.1-0.3-4.1-0.5-7c-2.8,1.4-4.8,2.3-6.7,3.3c-19.3,10.3-38.6,20.5-57.8,31
		c-6.2,3.4-11.8,3.7-18.1,0c-10.5-6.1-21.4-11.6-32.1-17.3C61.8,101.6,51.4,96,40.3,90.1z M48.6,65.4c21,11.2,40.7,21.6,60.2,32.3
		c3.6,2,6.3,1.6,9.7-0.2c15.1-8.3,30.4-16.3,45.6-24.4c4.4-2.3,8.7-4.7,13.9-7.5c-2.8-1.8-4.6-3-6.4-4.1c-13-7.6-26-15.2-39-22.7
		c-6.3-3.6-12.7-9.9-19.1-9.9c-6.4,0-12.8,6.1-19.1,9.8C79.6,47.3,64.7,56,48.6,65.4z"/>
</g>
</svg>
