<!-- Generated by IcoMoon.io -->
<svg version="1.1" xmlns="http://www.w3.org/2000/svg" width="32" height="32" viewBox="0 0 32 32">
<title>ICOS</title>
<path d="M16.55 0c4.035 2.37 8.056 4.755 12.12 7.069 0.988 0.564 1.397 1.27 1.397 2.413-0.042 4.374-0.042 8.748 0 13.122 0.014 1.101-0.367 1.806-1.326 2.356-3.824 2.187-7.619 4.402-11.414 6.631-0.903 0.536-1.707 0.55-2.624 0.014-3.824-2.258-7.647-4.473-11.499-6.688-0.875-0.508-1.27-1.171-1.27-2.201 0.028-4.43 0.028-8.875 0-13.305-0.014-1.058 0.381-1.75 1.298-2.272 3.894-2.229 7.774-4.501 11.668-6.758 0.183-0.113 0.353-0.24 0.522-0.367 0.381-0.014 0.748-0.014 1.129-0.014zM5.686 12.713c-0.042 0.339-0.085 0.536-0.085 0.748 0 2.653 0.014 5.305-0.014 7.958-0.014 0.621 0.296 0.875 0.762 1.143 2.977 1.707 5.94 3.429 8.889 5.178 0.55 0.325 0.959 0.339 1.51 0.014 2.977-1.764 5.968-3.513 8.974-5.22 0.564-0.325 0.748-0.705 0.748-1.34-0.028-2.497-0.014-4.995-0.014-7.492 0-0.296-0.042-0.578-0.071-0.988-0.395 0.198-0.677 0.325-0.945 0.466-2.723 1.453-5.446 2.892-8.155 4.374-0.875 0.48-1.665 0.522-2.554 0-1.481-0.861-3.019-1.637-4.529-2.441-1.481-0.776-2.949-1.566-4.515-2.399zM6.857 9.227c2.963 1.58 5.742 3.048 8.494 4.557 0.508 0.282 0.889 0.226 1.369-0.028 2.131-1.171 4.289-2.3 6.434-3.443 0.621-0.325 1.227-0.663 1.961-1.058-0.395-0.254-0.649-0.423-0.903-0.578-1.834-1.072-3.668-2.145-5.503-3.203-0.889-0.508-1.792-1.397-2.695-1.397s-1.806 0.861-2.695 1.383c-2.088 1.213-4.19 2.441-6.462 3.767z"></path>
</svg>
