<!-- Generated by IcoMoon.io -->
<svg version="1.1" xmlns="http://www.w3.org/2000/svg" width="32" height="32" viewBox="0 0 32 32">
<title>ICX</title>
<path d="M14.166 3.273c3.316-0.564 6.716 0.48 9.439 2.356-1.115 1.157-2.286 2.314-3.443 3.485-2.681-1.594-6.194-1.566-8.72 0.367-3.316 2.356-4.162 7.238-2.116 10.723-1.115 1.199-2.286 2.356-3.4 3.513-2.201-3.203-3.034-7.28-2.004-11.034 1.157-4.811 5.319-8.691 10.243-9.411"></path>
<path d="M26.116 8.282c2.483 3.443 3.203 8.042 1.764 12.035-1.284 3.683-4.317 6.758-8.085 7.915-3.838 1.326-8.085 0.395-11.358-1.877 1.115-1.199 2.286-2.356 3.443-3.513 1.834 1.002 4.078 1.566 6.123 0.875 3.556-0.875 6.123-4.515 5.841-8.155 0-1.354-0.564-2.596-1.115-3.795 1.157-1.171 2.272-2.328 3.386-3.485"></path>
<path d="M6.646 28.84c0 1.745-1.415 3.16-3.16 3.16s-3.16-1.415-3.16-3.16c0-1.745 1.415-3.16 3.16-3.16s3.16 1.415 3.16 3.16z"></path>
<path d="M31.76 3.16c0 1.745-1.415 3.16-3.16 3.16s-3.16-1.415-3.16-3.16c0-1.746 1.415-3.16 3.16-3.16s3.16 1.415 3.16 3.16z"></path>
</svg>
