<!-- Generated by IcoMoon.io -->
<svg version="1.1" xmlns="http://www.w3.org/2000/svg" width="32" height="32" viewBox="0 0 32 32">
<title>IDAX</title>
<path d="M12.19 24.014c0-2.413 0-4.84 0-7.252 0-0.621-0.028-0.649-0.663-0.663-0.804 0-1.608 0-2.413 0-0.48 0-0.536 0.056-0.536 0.536 0 1.538 0 3.076 0 4.6 0 0.635-0.113 0.72-0.776 0.705-0.818-0.028-1.637-0.014-2.455 0-0.578 0.014-0.776-0.127-0.776-0.705 0.014-0.917 0.071-1.82 0.071-2.737 0-0.635-0.056-1.27-0.071-1.905-0.014-0.607 0.099-0.705 0.691-0.705 0.79 0 1.58 0 2.37 0 0.72 0 0.734-0.014 0.734-0.72 0-2.85 0-5.7 0-8.564 0-0.127 0-0.254 0-0.367 0-0.296 0.141-0.48 0.451-0.48 1.044 0 2.074-0.014 3.118 0 0.325 0 0.451 0.198 0.451 0.522-0.014 2.878-0.014 5.771-0.014 8.649 0 0.183 0 0.367 0 0.564 0 0.24 0.113 0.381 0.367 0.381 0.959 0 1.919 0 2.878 0 0.254 0 0.367-0.141 0.367-0.381 0-0.155 0-0.31 0-0.466 0-4.769 0-9.552 0-14.321 0-0.113 0-0.212 0-0.325 0-0.268 0.141-0.395 0.409-0.395 1.058 0 2.102 0 3.16 0 0.282 0 0.437 0.127 0.423 0.423 0 0.113 0 0.212 0 0.324 0 4.797 0 9.58 0 14.377 0 0.014 0 0.028 0 0.042 0 0.72 0.014 0.734 0.72 0.734 0.748 0 1.496 0 2.229 0 0.564 0 0.578-0.028 0.593-0.564 0-1.453 0-2.921 0-4.374 0-0.593 0.042-0.635 0.635-0.635 0.988-0.014 1.989-0.014 2.977-0.028 0.31 0 0.48 0.127 0.466 0.437-0.014 0.423-0.071 0.832-0.071 1.256-0.014 1.185 0 2.356 0 3.541 0 0.55-0.042 0.593-0.578 0.593-0.79 0-1.58 0-2.37 0s-0.79 0-0.79 0.804c0 2.102 0 4.219 0 6.321 0 0.705-0.071 0.762-0.776 0.762-0.847 0-1.707 0-2.554 0-0.607 0-0.677-0.085-0.677-0.705 0-2.215 0-4.43 0-6.646 0-0.48-0.056-0.536-0.536-0.536-0.818 0-1.637 0-2.469 0-0.564 0-0.607 0.042-0.607 0.607 0 3.118 0 6.236 0 9.354 0 1.721 0 3.443 0 5.164 0 0.748-0.028 0.776-0.79 0.776-0.818 0-1.637 0-2.469 0-0.705 0-0.748-0.042-0.748-0.734 0.028-2.427 0.028-4.854 0.028-7.266z"></path>
</svg>
