<?xml version="1.0" encoding="utf-8"?>
<!-- Generator: Adobe Illustrator 22.1.0, SVG Export Plug-In . SVG Version: 6.00 Build 0)  -->
<svg version="1.1" id="Layer_1" xmlns="http://www.w3.org/2000/svg" xmlns:xlink="http://www.w3.org/1999/xlink" x="0px" y="0px"
	 viewBox="0 0 226.8 226.8" style="enable-background:new 0 0 226.8 226.8;" xml:space="preserve">
<g>
	<path d="M117.6,0c3.9,0.6,7.8,1.2,11.6,1.8c58.2,8.8,98.9,58.5,95.9,117.3c-2.8,55.1-45.2,99.8-100.2,105.6
		C60.7,231.5,4.3,183.2,0.8,118.5c-0.1-1.5-0.6-2.9-0.8-4.3c0-0.8,0-1.5,0-2.3c0.3-1.4,0.8-2.9,0.8-4.3C3.6,53.7,43.3,9.9,96.4,1.9
		c3.7-0.6,7.3-1.3,11-1.9C110.8,0,114.2,0,117.6,0z M113.1,6C54.3,6,6.5,53.8,6.4,112.8C6.3,172,53.7,219.6,112.8,219.7
		c59.3,0.1,107.3-47.8,107.3-106.8C220,54.1,171.9,6.1,113.1,6z"/>
	<path d="M90.8,90.3c2.1-1.6-0.5-6.9,6.2-5.9c-1.4,6.9-2.8,13.7-4.2,20.5c0.5,0.2,1.1,0.4,1.6,0.6c0.5-1.3,1.3-2.6,1.5-3.9
		c1.7-8.1,3.5-9.6,12.3-9.6c-0.7,4.5-1.4,8.9-2.1,13.8c4.3-0.8,3.4-3.5,3.7-5.5c0.9-5.2,1.4-10.5,2.4-15.7c0.2-1,2.1-1.6,3.3-2.3
		c0.4,0.3,0.8,0.6,1.1,0.8c-0.4,3.8-0.8,7.5-1.3,12c5-2.1,3.5-6.1,4.2-9c0.7-2.9,0.4-3,5.1-3.2c-0.8,4.7-1.6,9.2-2.6,15
		c3.3-4.9,6.8-7,12.3-5.7c-0.7,4.2-1.4,8.5-2.2,13.4c6.6-3.4,2.8-12.6,10.4-15.3c1.2,4.2,2.8,8.1,3.2,12c0.2,2.2-0.8,5.5-2.5,6.7
		c-1.4,1-4.5-0.2-6.2-0.3c-4.6,0.2-8.7,1.1-12.4,0.1c-1.7-0.4-2.6-4.4-3.4-6c-0.6,1.8-1.5,4.8-2.7,8.6c-4.1-4.7-0.1-9.1-1.7-13.5
		c-5.2,3-2.3,9.2-5,11.6c-8.5,0-16.3,0-24,0c-2.7,0-5.4,0.4-8-0.1c-1.2-0.2-2.5-2-2.9-3.3c-0.5-1.7-0.1-3.7-1.2-5.9
		c-1.1,2.9-2.1,5.9-3.2,8.8c-0.6,0.2-1.1,0.5-1.7,0.5c-7.3,0.1-8.1-0.8-7.3-8c0.4-3.5,0.6-7,0.9-10.5c0.3-3,2-4.1,5.3-4
		c-0.9,6.3-1.8,12.2-2.6,18.1c4.1-3.1,3.9-7.2,3.7-11.9c3.2,0,6.3,0,10.5,0c-0.4,3.8-0.7,7.9-1.1,11.9c0.4,0.1,0.7,0.1,1.1,0.2
		c0.8-2.9,1.1-6.1,2.7-8.6C85.7,94.2,88.5,92.4,90.8,90.3z"/>
	<path d="M181.7,159.7c3.3,3.3,8.5,8.4,14,13.9c-5.9,8.6-13.3,15.8-22,22.1c-5.3-5.6-10.3-10.8-14-14.7
		C166.8,174.1,174.1,167,181.7,159.7z"/>
	<path d="M50.8,195.3c-6.5-6.4-13.7-13.6-20.6-20.6c6-5.9,11.3-11.1,16.5-16.3c6.5,6.5,13.7,13.8,20.6,20.7
		C62.4,184,57.1,189.3,50.8,195.3z"/>
	<path d="M11.6,97.2c7.7,0,14.9,0,22.3,0c0,10.4,0,20.6,0,31.2c-7,0-14.2,0-22,0C9.5,118.3,10,108.2,11.6,97.2z"/>
	<path d="M97.5,214.2c0-7.8,0-15.1,0-22.3c10.5,0,20.6,0,31.1,0c0,7.2,0,14.5,0,22.2C118.1,216.2,108,215.9,97.5,214.2z"/>
	<path d="M31.1,51.4c3.7-6.5,14.3-17.1,22.7-21.7c4.9,5,10.1,10.3,15,15.3C60.7,53.1,53.4,60.3,46,67.8
		C41.3,62.6,36.4,57.2,31.1,51.4z"/>
	<path d="M181.5,66.1c-7.2-7.3-14.3-14.5-21.2-21.5c3.3-3.1,8.7-8.2,14.6-13.7c7.6,5.3,14.9,12.6,20.9,21.1
		C190.3,57.4,185.1,62.5,181.5,66.1z"/>
	<path d="M214.5,128.5c-8,0-15.2,0-22.1,0c0-10.4,0-20.5,0-31.1c6.9,0,14.2,0,22,0C216.5,107.7,216.3,117.9,214.5,128.5z"/>
	<path d="M97.7,10.9c10.4,0,20.5,0,30.9,0c0,8,0,15.2,0,22.5c-10.3,0-20.4,0-30.9,0C97.7,26.5,97.7,19.3,97.7,10.9z"/>
	<path d="M105.7,116.2c8.9-0.1,15.3,6.2,15.4,15.1c0.1,9.4-6,15.7-15.2,15.8c-9,0.1-15.4-6.2-15.5-15
		C90.2,122.8,96.5,116.3,105.7,116.2z M113.1,131.6c-0.1-4.7-3.3-8.1-7.6-8c-4.2,0.1-7.4,3.9-7.2,8.4c0.2,4.3,3.4,7.6,7.4,7.7
		C109.9,139.8,113.1,136.3,113.1,131.6z"/>
	<path d="M154.4,129.8c0.2-4.8,0.4-8.6,0.6-12.7c2.6,0,4.7,0,7.2,0c0,9.8,0,19.2,0,29.9c-5.6-4.7-10.4-8.8-16.1-13.5
		c-0.3,4.8-0.5,8.7-0.7,12.9c-2.5,0-4.6,0-7.1,0c0-9.8,0-19.3,0-29.8C143.8,121.1,148.7,125.1,154.4,129.8z"/>
	<path d="M89.8,121.2c-1.5,1.8-2.8,3.4-4,4.8c-6.7-3-10.1-2.8-12.5,0.5c-2.2,3-1.9,8.4,0.5,11c2.6,2.7,5.9,2.7,11.7-0.4
		c1.3,1.6,2.7,3.3,4,4.8c-5.2,6.4-14.4,6.9-20.7,1.6c-6.5-5.5-7.2-15.9-1.5-22.3C73.1,114.8,83.1,114.5,89.8,121.2z"/>
	<path d="M125.3,117c2.4,0,4.4,0,6.9,0c0,9.7,0,19.2,0,29.2c-2.1,0-4.2,0-6.9,0C125.3,136.6,125.3,127,125.3,117z"/>
	<path d="M152.7,99.8c-1.4,3.8-2.6,6.9-3.8,10c-0.6-0.1-1.3-0.2-1.9-0.3c0-1.9-0.2-3.8,0-5.6c0.9-5.6,1.9-11.1,2.9-16.6
		c0.4-2.4,0.5-2.4,4.6-2.8c-0.4,2.8-0.7,5.5-1.1,8.5c1.5,0,2.8,0,5,0c-0.4,4.3-0.8,8.3-1.2,12.3c0.4,0.2,0.7,0.3,1.1,0.5
		c1.2-1.8,2.5-3.7,3.7-5.5c0.7,4.2-1.8,9.5-4.9,9.3C150.6,109.1,154.9,103.6,152.7,99.8z"/>
	<path d="M154.7,62.9c-2.5-1.8-4.6-3.3-7.1-5.1c1-1.9,2-3.6,3.2-5.8c2.8,1.9,5.2,3.6,8,5.6C157.2,59.6,156,61.1,154.7,62.9z"/>
	<path d="M61.3,73c-1.9,2.7-3.3,4.8-4.9,7.2c-1.9-1.1-3.5-2-5.7-3.2c1.9-2.8,3.5-5.3,5.5-8.2C58,70.4,59.4,71.5,61.3,73z"/>
	<path d="M49.8,149.9c-1.6-3.2-2.8-5.6-4.3-8.7c2.1-0.9,3.9-1.7,6.1-2.6c1.4,2.7,2.6,5.2,3.9,8C53.6,147.7,52.1,148.6,49.8,149.9z"
		/>
	<path d="M180.2,142.4c-2.5-1.2-4.1-2-6-2.9c0.9-2.7,1.7-5.1,2.8-8.1c2.1,0.6,3.9,1.1,6.3,1.7C182.2,136.2,181.3,139,180.2,142.4z"
		/>
	<path d="M66,160.8c-2.1,1.8-3.3,2.8-4.9,4.2c-2.1-2.4-4-4.6-6.1-7.1c1.8-1.5,3.2-2.6,5-4.2C62.1,156.2,63.9,158.3,66,160.8z"/>
	<path d="M49,130.4c-2.3,0.7-3.8,1.2-6.2,2c-0.7-3.2-1.3-6.2-2.1-9.7c2.5-0.3,4.3-0.6,6.5-0.8C47.8,124.8,48.4,127.2,49,130.4z"/>
	<path d="M89,52.9c-3,1.3-5.2,2.3-7.9,3.5C80,54.6,79,53,77.7,50.8c3-1.5,5.6-2.7,8.8-4.3C87.4,48.8,88.1,50.6,89,52.9z"/>
	<path d="M185.5,106.6c-2.7,0.3-4.5,0.5-6.6,0.7c-0.6-2.9-1-5.5-1.6-8.5c2.2-0.6,4.1-1.1,6.5-1.7
		C184.3,100.4,184.8,103.1,185.5,106.6z"/>
	<path d="M123.1,48.8c-3-0.2-5.3-0.3-8.4-0.4c-0.1-2.1-0.2-3.9-0.4-6.2c3.2,0,5.9,0,9.4,0C123.6,44.5,123.4,46.4,123.1,48.8z"/>
	<path d="M171.1,82.7c2.2-1.2,3.6-1.9,5.6-3c1.5,2.8,2.8,5.3,4.3,8.2c-2.2,1-3.8,1.8-6,2.9C173.7,88.1,172.6,85.7,171.1,82.7z"/>
	<path d="M122.2,186.5c-0.5-2.6-0.8-4.2-1.1-6.3c2.9-0.7,5.5-1.3,8.5-2c0.7,2.1,1.2,3.8,2,6.2C128.3,185.1,125.6,185.7,122.2,186.5z
		"/>
	<path d="M84.6,181.1c1-2.3,1.7-3.8,2.6-5.9c2.6,0.8,5,1.6,8,2.6c-0.4,2.1-0.8,4-1.4,6.6C90.7,183.3,88,182.3,84.6,181.1z"/>
	<path d="M149.3,177.4c-3.3,1.6-5.8,2.7-8.7,4.1c-0.9-2.1-1.6-3.8-2.5-5.8c2.5-1.4,4.8-2.6,7.6-4.2
		C146.8,173.4,147.9,175,149.3,177.4z"/>
	<path d="M166.5,75.4c-2.1-2.6-3.7-4.6-5.8-7.3c1.6-1.5,2.9-2.7,4.7-4.3c2.4,2.7,4.3,4.8,6.6,7.5C170,72.7,168.5,73.9,166.5,75.4z"
		/>
	<path d="M165.4,154.7c1.7-2.5,3.1-4.6,4.8-7.2c2,1,3.7,1.9,5.9,3c-1.9,2.8-3.5,5.2-5.5,8.1C168.8,157.2,167.3,156.1,165.4,154.7z"
		/>
	<path d="M49.2,96.3c-2.3-0.7-3.7-1.1-5.8-1.7c0.8-2.9,1.6-5.7,2.6-9.1c2.3,0.9,4.1,1.5,6.5,2.4C51.3,90.9,50.3,93.4,49.2,96.3z"/>
	<path d="M68.1,171.3c1.8-2.1,2.8-3.3,4.3-4.9c2.3,1.5,4.4,3,7.1,4.7c-1,1.9-1.9,3.6-3.2,5.9C73.4,175,71,173.3,68.1,171.3z"/>
	<path d="M139.8,53.8c-3.1-1.2-5.5-2.1-8.2-3.2c0.6-2.1,1.1-3.8,1.8-6c3,1,5.6,1.8,9,2.9C141.5,49.6,140.8,51.3,139.8,53.8z"/>
	<path d="M102.8,186.1c0.4-2.4,0.8-4.1,1.2-6.3c3,0.3,5.7,0.6,8.6,0.9c0,2,0,3.6,0,5.5C109.4,186.1,106.4,186.1,102.8,186.1z"/>
	<path d="M178.6,123c0.3-3,0.5-5.6,0.7-8.4c2.1,0,3.9,0,5.9,0c0,3,0,5.7,0,9.1C182.9,123.5,180.9,123.3,178.6,123z"/>
	<path d="M69.9,55.6c1.6,2.3,2.6,3.7,3.9,5.6c-2.2,1.9-4.1,3.5-6.7,5.7c-1.3-1.5-2.6-3-4.2-4.9C65,59.9,67.2,58,69.9,55.6z"/>
	<path d="M97.1,50.1c-0.5-2.3-0.9-3.9-1.4-6.1c3-0.7,5.6-1.3,8.9-2.1c0.4,2.2,0.8,4.1,1.2,6.5C102.9,49,100.4,49.4,97.1,50.1z"/>
	<path d="M41,103.8c2.5,0.3,4.1,0.5,6.1,0.7c0,2.8,0,5.3,0,8.3c-2.1,0-4,0-6.1,0C41,110,41,107.3,41,103.8z"/>
	<path d="M157.1,172.3c-1.6-2.2-2.6-3.6-4.4-6.1c1.4-0.9,2.7-1.7,3.9-2.5c1-0.7,2.1-1.5,3.8-2.7c1.3,1.4,2.5,2.7,4.2,4.4
		C161.9,167.8,159.8,169.8,157.1,172.3z"/>
</g>
</svg>
