<!-- Generated by IcoMoon.io -->
<svg version="1.1" xmlns="http://www.w3.org/2000/svg" width="32" height="32" viewBox="0 0 32 32">
<title>IDH</title>
<path d="M16.593 0c0.55 0.085 1.101 0.169 1.637 0.254 8.212 1.242 13.954 8.254 13.531 16.55-0.395 7.774-6.377 14.081-14.138 14.899-9.058 0.959-17.016-5.855-17.51-14.984-0.014-0.212-0.085-0.409-0.113-0.607 0-0.113 0-0.212 0-0.325 0.042-0.198 0.113-0.409 0.113-0.607 0.395-7.605 5.996-13.785 13.489-14.914 0.522-0.085 1.030-0.183 1.552-0.268 0.48 0 0.959 0 1.439 0zM15.958 0.847c-8.296 0-15.041 6.744-15.055 15.069-0.014 8.353 6.674 15.069 15.012 15.083 8.367 0.014 15.139-6.744 15.139-15.069-0.014-8.296-6.801-15.069-15.097-15.083z"></path>
<path d="M12.811 12.741c0.296-0.226-0.071-0.974 0.875-0.832-0.198 0.974-0.395 1.933-0.593 2.892 0.071 0.028 0.155 0.056 0.226 0.085 0.071-0.183 0.183-0.367 0.212-0.55 0.24-1.143 0.494-1.354 1.735-1.354-0.099 0.635-0.198 1.256-0.296 1.947 0.607-0.113 0.48-0.494 0.522-0.776 0.127-0.734 0.198-1.481 0.339-2.215 0.028-0.141 0.296-0.226 0.466-0.325 0.056 0.042 0.113 0.085 0.155 0.113-0.056 0.536-0.113 1.058-0.183 1.693 0.705-0.296 0.494-0.861 0.593-1.27s0.056-0.423 0.72-0.451c-0.113 0.663-0.226 1.298-0.367 2.116 0.466-0.691 0.959-0.988 1.735-0.804-0.099 0.593-0.198 1.199-0.31 1.891 0.931-0.48 0.395-1.778 1.467-2.159 0.169 0.593 0.395 1.143 0.451 1.693 0.028 0.31-0.113 0.776-0.353 0.945-0.198 0.141-0.635-0.028-0.875-0.042-0.649 0.028-1.227 0.155-1.75 0.014-0.24-0.056-0.367-0.621-0.48-0.847-0.085 0.254-0.212 0.677-0.381 1.213-0.578-0.663-0.014-1.284-0.24-1.905-0.734 0.423-0.325 1.298-0.705 1.637-1.199 0-2.3 0-3.386 0-0.381 0-0.762 0.056-1.129-0.014-0.169-0.028-0.353-0.282-0.409-0.466-0.071-0.24-0.014-0.522-0.169-0.832-0.155 0.409-0.296 0.832-0.451 1.242-0.085 0.028-0.155 0.071-0.24 0.071-1.030 0.014-1.143-0.113-1.030-1.129 0.056-0.494 0.085-0.988 0.127-1.481 0.042-0.423 0.282-0.578 0.748-0.564-0.127 0.889-0.254 1.721-0.367 2.554 0.578-0.437 0.55-1.016 0.522-1.679 0.451 0 0.889 0 1.481 0-0.056 0.536-0.099 1.115-0.155 1.679 0.056 0.014 0.099 0.014 0.155 0.028 0.113-0.409 0.155-0.861 0.381-1.213 0.24-0.353 0.635-0.607 0.959-0.903z"></path>
<path d="M25.637 22.533c0.466 0.466 1.199 1.185 1.975 1.961-0.832 1.213-1.877 2.229-3.104 3.118-0.748-0.79-1.453-1.524-1.975-2.074 1.002-0.974 2.032-1.975 3.104-3.005z"></path>
<path d="M7.168 27.556c-0.917-0.903-1.933-1.919-2.907-2.907 0.847-0.832 1.594-1.566 2.328-2.3 0.917 0.917 1.933 1.947 2.907 2.921-0.691 0.691-1.439 1.439-2.328 2.286z"></path>
<path d="M1.637 13.714c1.086 0 2.102 0 3.146 0 0 1.467 0 2.907 0 4.402-0.988 0-2.004 0-3.104 0-0.339-1.425-0.268-2.85-0.042-4.402z"></path>
<path d="M13.757 30.222c0-1.101 0-2.131 0-3.146 1.481 0 2.907 0 4.388 0 0 1.016 0 2.046 0 3.132-1.481 0.296-2.907 0.254-4.388 0.014z"></path>
<path d="M4.388 7.252c0.522-0.917 2.018-2.413 3.203-3.062 0.691 0.705 1.425 1.453 2.116 2.159-1.143 1.143-2.173 2.159-3.217 3.217-0.663-0.734-1.354-1.496-2.102-2.314z"></path>
<path d="M25.608 9.326c-1.016-1.030-2.018-2.046-2.991-3.034 0.466-0.437 1.227-1.157 2.060-1.933 1.072 0.748 2.102 1.778 2.949 2.977-0.776 0.762-1.51 1.481-2.018 1.989z"></path>
<path d="M30.265 18.131c-1.129 0-2.145 0-3.118 0 0-1.467 0-2.892 0-4.388 0.974 0 2.004 0 3.104 0 0.296 1.453 0.268 2.892 0.014 4.388z"></path>
<path d="M13.785 1.538c1.467 0 2.892 0 4.36 0 0 1.129 0 2.145 0 3.175-1.453 0-2.878 0-4.36 0 0-0.974 0-1.989 0-3.175z"></path>
<path d="M14.914 16.395c1.256-0.014 2.159 0.875 2.173 2.131 0.014 1.326-0.847 2.215-2.145 2.229-1.27 0.014-2.173-0.875-2.187-2.116-0.028-1.312 0.861-2.229 2.159-2.243zM15.958 18.568c-0.014-0.663-0.466-1.143-1.072-1.129-0.593 0.014-1.044 0.55-1.016 1.185 0.028 0.607 0.48 1.072 1.044 1.086 0.593 0.014 1.044-0.48 1.044-1.143z"></path>
<path d="M21.785 18.314c0.028-0.677 0.056-1.213 0.085-1.792 0.367 0 0.663 0 1.016 0 0 1.383 0 2.709 0 4.219-0.79-0.663-1.467-1.242-2.272-1.905-0.042 0.677-0.071 1.227-0.099 1.82-0.353 0-0.649 0-1.002 0 0-1.383 0-2.723 0-4.205 0.776 0.635 1.467 1.199 2.272 1.862z"></path>
<path d="M12.67 17.101c-0.212 0.254-0.395 0.48-0.564 0.677-0.945-0.423-1.425-0.395-1.764 0.071-0.31 0.423-0.268 1.185 0.071 1.552 0.367 0.381 0.832 0.381 1.651-0.056 0.183 0.226 0.381 0.466 0.564 0.677-0.734 0.903-2.032 0.974-2.921 0.226-0.917-0.776-1.016-2.243-0.212-3.146 0.818-0.903 2.229-0.945 3.175 0z"></path>
<path d="M17.679 16.508c0.339 0 0.621 0 0.974 0 0 1.369 0 2.709 0 4.12-0.296 0-0.593 0-0.974 0 0-1.355 0-2.709 0-4.12z"></path>
<path d="M21.545 14.081c-0.198 0.536-0.367 0.974-0.536 1.411-0.085-0.014-0.183-0.028-0.268-0.042 0-0.268-0.028-0.536 0-0.79 0.127-0.79 0.268-1.566 0.409-2.342 0.056-0.339 0.071-0.339 0.649-0.395-0.056 0.395-0.099 0.776-0.155 1.199 0.212 0 0.395 0 0.705 0-0.056 0.607-0.113 1.171-0.169 1.735 0.056 0.028 0.099 0.042 0.155 0.071 0.169-0.254 0.353-0.522 0.522-0.776 0.099 0.593-0.254 1.34-0.691 1.312-0.917-0.071-0.31-0.847-0.621-1.383z"></path>
<path d="M21.827 8.875c-0.353-0.254-0.649-0.466-1.002-0.72 0.141-0.268 0.282-0.508 0.451-0.818 0.395 0.268 0.734 0.508 1.129 0.79-0.226 0.282-0.395 0.494-0.578 0.748z"></path>
<path d="M8.649 10.3c-0.268 0.381-0.466 0.677-0.691 1.016-0.268-0.155-0.494-0.282-0.804-0.451 0.268-0.395 0.494-0.748 0.776-1.157 0.254 0.226 0.451 0.381 0.72 0.593z"></path>
<path d="M7.026 21.15c-0.226-0.451-0.395-0.79-0.607-1.227 0.296-0.127 0.55-0.24 0.861-0.367 0.198 0.381 0.367 0.734 0.55 1.129-0.268 0.155-0.48 0.282-0.804 0.466z"></path>
<path d="M25.425 20.092c-0.353-0.169-0.578-0.282-0.847-0.409 0.127-0.381 0.24-0.72 0.395-1.143 0.296 0.085 0.55 0.155 0.889 0.24-0.155 0.437-0.282 0.832-0.437 1.312z"></path>
<path d="M9.312 22.688c-0.296 0.254-0.466 0.395-0.691 0.593-0.296-0.339-0.564-0.649-0.861-1.002 0.254-0.212 0.451-0.367 0.705-0.593 0.296 0.353 0.55 0.649 0.847 1.002z"></path>
<path d="M6.914 18.399c-0.325 0.099-0.536 0.169-0.875 0.282-0.099-0.451-0.183-0.875-0.296-1.369 0.353-0.042 0.607-0.085 0.917-0.113 0.085 0.409 0.169 0.748 0.254 1.199z"></path>
<path d="M12.557 7.464c-0.423 0.183-0.734 0.324-1.115 0.494-0.155-0.254-0.296-0.48-0.48-0.79 0.423-0.212 0.79-0.381 1.242-0.607 0.127 0.325 0.226 0.578 0.353 0.903z"></path>
<path d="M26.173 15.041c-0.381 0.042-0.635 0.071-0.931 0.099-0.085-0.409-0.141-0.776-0.226-1.199 0.31-0.085 0.578-0.155 0.917-0.24 0.071 0.466 0.141 0.847 0.24 1.34z"></path>
<path d="M17.369 6.885c-0.423-0.028-0.748-0.042-1.185-0.056-0.014-0.296-0.028-0.55-0.056-0.875 0.451 0 0.832 0 1.326 0-0.014 0.324-0.042 0.593-0.085 0.931z"></path>
<path d="M24.141 11.668c0.31-0.169 0.508-0.268 0.79-0.423 0.212 0.395 0.395 0.748 0.607 1.157-0.31 0.141-0.536 0.254-0.847 0.409-0.183-0.381-0.339-0.72-0.55-1.143z"></path>
<path d="M17.242 26.314c-0.071-0.367-0.113-0.593-0.155-0.889 0.409-0.099 0.776-0.183 1.199-0.282 0.099 0.296 0.169 0.536 0.282 0.875-0.466 0.099-0.847 0.183-1.326 0.296z"></path>
<path d="M11.937 25.552c0.141-0.325 0.24-0.536 0.367-0.832 0.367 0.113 0.705 0.226 1.129 0.367-0.056 0.296-0.113 0.564-0.198 0.931-0.437-0.155-0.818-0.296-1.298-0.466z"></path>
<path d="M21.065 25.030c-0.466 0.226-0.818 0.381-1.227 0.578-0.127-0.296-0.226-0.536-0.353-0.818 0.353-0.198 0.677-0.367 1.072-0.593 0.155 0.268 0.31 0.494 0.508 0.832z"></path>
<path d="M23.492 10.638c-0.296-0.367-0.522-0.649-0.818-1.030 0.226-0.212 0.409-0.381 0.663-0.607 0.339 0.381 0.607 0.677 0.931 1.058-0.282 0.198-0.494 0.367-0.776 0.578z"></path>
<path d="M23.337 21.827c0.24-0.353 0.437-0.649 0.677-1.016 0.282 0.141 0.522 0.268 0.832 0.423-0.268 0.395-0.494 0.734-0.776 1.143-0.254-0.198-0.466-0.353-0.734-0.55z"></path>
<path d="M6.942 13.587c-0.324-0.099-0.522-0.155-0.818-0.24 0.113-0.409 0.226-0.804 0.367-1.284 0.325 0.127 0.578 0.212 0.917 0.339-0.169 0.423-0.31 0.776-0.466 1.185z"></path>
<path d="M9.608 24.169c0.254-0.296 0.395-0.466 0.607-0.691 0.325 0.212 0.621 0.423 1.002 0.663-0.141 0.268-0.268 0.508-0.451 0.832-0.409-0.282-0.748-0.522-1.157-0.804z"></path>
<path d="M19.725 7.591c-0.437-0.169-0.776-0.296-1.157-0.452 0.085-0.296 0.155-0.536 0.254-0.847 0.423 0.141 0.79 0.254 1.27 0.409-0.127 0.296-0.226 0.536-0.367 0.889z"></path>
<path d="M14.504 26.258c0.056-0.339 0.113-0.578 0.169-0.889 0.423 0.042 0.804 0.085 1.213 0.127 0 0.282 0 0.508 0 0.776-0.451-0.014-0.875-0.014-1.383-0.014z"></path>
<path d="M25.199 17.355c0.042-0.423 0.071-0.79 0.099-1.185 0.296 0 0.55 0 0.832 0 0 0.423 0 0.804 0 1.284-0.325-0.028-0.607-0.056-0.931-0.099z"></path>
<path d="M9.862 7.845c0.226 0.325 0.367 0.522 0.55 0.79-0.31 0.268-0.578 0.494-0.945 0.804-0.183-0.212-0.367-0.423-0.593-0.691 0.296-0.296 0.607-0.564 0.988-0.903z"></path>
<path d="M13.7 7.069c-0.071-0.324-0.127-0.55-0.198-0.861 0.423-0.099 0.79-0.183 1.256-0.296 0.056 0.31 0.113 0.578 0.169 0.917-0.409 0.085-0.762 0.141-1.228 0.24z"></path>
<path d="M5.785 14.646c0.353 0.042 0.578 0.071 0.861 0.099 0 0.395 0 0.748 0 1.171-0.296 0-0.564 0-0.861 0 0-0.395 0-0.776 0-1.27z"></path>
<path d="M22.166 24.31c-0.226-0.31-0.367-0.508-0.621-0.861 0.198-0.127 0.381-0.24 0.55-0.353 0.141-0.099 0.296-0.212 0.536-0.381 0.183 0.198 0.353 0.381 0.593 0.621-0.381 0.339-0.677 0.621-1.058 0.974z"></path>
</svg>
