<!-- Generated by IcoMoon.io -->
<svg version="1.1" xmlns="http://www.w3.org/2000/svg" width="32" height="32" viewBox="0 0 32 32">
<title>IFC</title>
<path d="M24.589 23.537c-3.778 0-6.505-2.249-8.712-4.567-2.285 2.381-4.925 4.567-8.508 4.567-4.787 0-7.37-3.922-7.37-7.613 0-3.708 2.531-7.462 7.37-7.462 3.663 0 6.285 2.232 8.533 4.629 2.311-2.409 4.999-4.629 8.686-4.629 4.866 0 7.492 3.922 7.492 7.611-0 3.709-2.574 7.463-7.492 7.463zM18.584 16.040c2.040 2.168 3.753 3.521 6.005 3.521 2.595 0 3.516-1.879 3.516-3.488 0-1.35-0.74-3.636-3.516-3.636-2.256 0-4.129 1.618-6.005 3.602zM7.369 12.438c-3.23 0-3.394 2.904-3.394 3.486 0 1.351 0.715 3.637 3.394 3.637 2.155 0 3.986-1.591 5.829-3.542-1.862-2.020-3.614-3.581-5.829-3.581z"></path>
</svg>
