<?xml version="1.0" encoding="utf-8"?>
<!-- Generator: Adobe Illustrator 22.0.1, SVG Export Plug-In . SVG Version: 6.00 Build 0)  -->
<svg version="1.1" id="Layer_1" xmlns="http://www.w3.org/2000/svg" xmlns:xlink="http://www.w3.org/1999/xlink" x="0px" y="0px"
	 viewBox="0 0 226.8 226.8" style="enable-background:new 0 0 226.8 226.8;" xml:space="preserve">
<style type="text/css">
	.st0{stroke:#FFFFFF;stroke-miterlimit:10;}
</style>
<g transform="translate(-413)">
	<path class="st0" d="M513.1,0c16.8,10.1,32.7,21.7,49.4,32c-20.5,36.5-41,73.1-61.5,109.7c-8.2-14.6-15.8-29.6-23.9-44.3
		C488.7,64.8,501.9,32.8,513.1,0z"/>
	<path class="st0" d="M459.7,226.8c34.8-64.7,71-128.8,105.4-193.7c9.2,16.5,18.4,33,27.7,49.5c-26.7,48-53.6,95.9-80.1,144
		C495,226.6,477.4,226.4,459.7,226.8"/>
	<path class="st0" d="M516.1,226.5c14.7-25.8,28.7-52.1,43.6-77.7c8.9,11.6,17.9,23.2,26.8,34.9
		C563.1,198.2,539.6,212.4,516.1,226.5"/>
</g>
</svg>
