<!-- Generated by IcoMoon.io -->
<svg version="1.1" xmlns="http://www.w3.org/2000/svg" width="32" height="32" viewBox="0 0 32 32">
<title>IGNIS</title>
<path d="M14.123 0c2.37 1.425 4.614 3.062 6.97 4.515-2.892 5.15-5.785 10.314-8.677 15.478-1.157-2.060-2.229-4.176-3.372-6.25 1.637-4.6 3.499-9.115 5.079-13.742z"></path>
<path d="M6.589 32c4.91-9.129 10.018-18.173 14.871-27.33 1.298 2.328 2.596 4.656 3.908 6.984-3.767 6.773-7.563 13.531-11.302 20.317-2.497 0-4.981-0.028-7.478 0.028"></path>
<path d="M14.547 31.958c2.074-3.64 4.049-7.351 6.152-10.963 1.256 1.637 2.526 3.273 3.781 4.924-3.302 2.046-6.617 4.049-9.933 6.039"></path>
</svg>
