<?xml version="1.0" encoding="utf-8"?>
<!-- Generator: Adobe Illustrator 22.1.0, SVG Export Plug-In . SVG Version: 6.00 Build 0)  -->
<svg version="1.1" id="Layer_1" xmlns="http://www.w3.org/2000/svg" xmlns:xlink="http://www.w3.org/1999/xlink" x="0px" y="0px"
	 viewBox="0 0 226.8 226.8" style="enable-background:new 0 0 226.8 226.8;" xml:space="preserve">
<g>
	<path d="M8.9,111.8c1-37,15.7-69.9,48.7-93.2C95.8-8.5,147.6-4,182.3,28.9c52.1,49.4,46.3,138.5-11.8,180.5
		c-39.7,28.7-94,23.3-129-13C19.4,173.6,9.4,145.9,8.9,111.8z M111.5,201.8c29.1-0.4,50.7-14.3,65.3-38.7
		c16.9-28.2,18.1-58.1,5-88.2c-12.7-29.2-41.3-50.2-74.7-48.1c-16.9,1.1-32.7,5.9-44,19.5c-29.5,35.8-32.2,88.2-6.8,127.1
		c5.3,8.2,11.5,15.5,20.6,20C87.7,198.9,99.1,202.2,111.5,201.8z"/>
	<path d="M70.7,61.2c9.1,5.4,16.9,9.8,24.4,14.6c1.4,0.9,2,3.7,2.1,5.6c0.2,6.8,0,13.6,0.1,20.5c0,2.1,0.3,4.2,0.5,7
		c3.3-0.8,6-1.3,8.7-2c7.5-1.9,14.9-4,22.4-5.7c4.1-0.9,5.5-2.9,5.5-7.1c-0.2-13.5-0.1-26.9-0.1-40.4c0-2.3,0-4.6,0-8.5
		c8.9,5.3,16.7,9.8,24.3,14.6c0.9,0.6,1.5,2.5,1.5,3.8c0,34.3,0,68.5-0.1,102.8c0,0.3-0.2,0.7-0.7,1.8c-4.6-2.8-8.9-6-13.7-8
		c-9.2-3.9-12.9-10.1-11.4-20.1c0.8-5.4,0.1-11,0.1-17.3c-2.5,0.4-4.2,0.5-5.9,0.9c-8.7,2.2-17.3,4.7-26,6.7
		c-3.9,0.9-5.2,2.8-5.1,6.7c0.2,13.6,0.1,27.3,0,40.9c0,2.1,0,4.2,0,7.2c-2.1-0.8-3.4-1.1-4.5-1.7c-5.2-3.1-10.2-6.8-15.7-9.4
		c-5.1-2.5-6.6-6-6.5-11.5c0.2-31.4,0.1-62.8,0.1-94.2C70.7,66.5,70.7,64.6,70.7,61.2z"/>
</g>
</svg>
