<!-- Generated by IcoMoon.io -->
<svg version="1.1" xmlns="http://www.w3.org/2000/svg" width="32" height="32" viewBox="0 0 32 32">
<title>IHT</title>
<path d="M1.256 15.774c0.141-5.22 2.215-9.862 6.871-13.15 5.39-3.824 12.698-3.189 17.594 1.453 7.351 6.97 6.533 19.541-1.665 25.467-5.601 4.049-13.263 3.287-18.201-1.834-3.118-3.217-4.529-7.125-4.6-11.937zM15.732 28.473c4.106-0.056 7.153-2.018 9.213-5.46 2.384-3.979 2.554-8.198 0.705-12.444-1.792-4.12-5.827-7.083-10.54-6.787-2.384 0.155-4.614 0.832-6.208 2.751-4.162 5.051-4.543 12.444-0.959 17.933 0.748 1.157 1.623 2.187 2.907 2.822 1.524 0.776 3.132 1.242 4.882 1.185z"></path>
<path d="M9.975 8.635c1.284 0.762 2.384 1.383 3.443 2.060 0.198 0.127 0.282 0.522 0.296 0.79 0.028 0.959 0 1.919 0.014 2.892 0 0.296 0.042 0.593 0.071 0.988 0.466-0.113 0.847-0.183 1.228-0.282 1.058-0.268 2.102-0.564 3.16-0.804 0.578-0.127 0.776-0.409 0.776-1.002-0.028-1.905-0.014-3.795-0.014-5.7 0-0.325 0-0.649 0-1.199 1.256 0.748 2.356 1.383 3.429 2.060 0.127 0.085 0.212 0.353 0.212 0.536 0 4.84 0 9.665-0.014 14.504 0 0.042-0.028 0.099-0.099 0.254-0.649-0.395-1.256-0.847-1.933-1.129-1.298-0.55-1.82-1.425-1.608-2.836 0.113-0.762 0.014-1.552 0.014-2.441-0.353 0.056-0.593 0.071-0.832 0.127-1.227 0.31-2.441 0.663-3.668 0.945-0.55 0.127-0.734 0.395-0.72 0.945 0.028 1.919 0.014 3.852 0 5.771 0 0.296 0 0.593 0 1.016-0.296-0.113-0.48-0.155-0.635-0.24-0.734-0.437-1.439-0.959-2.215-1.326-0.72-0.353-0.931-0.847-0.917-1.623 0.028-4.43 0.014-8.861 0.014-13.291 0-0.268 0-0.536 0-1.016z"></path>
</svg>
