<!-- Generated by IcoMoon.io -->
<svg version="1.1" xmlns="http://www.w3.org/2000/svg" width="32" height="32" viewBox="0 0 32 32">
<title>INDEPENDENT_RESERVE</title>
<path d="M30.744 31.379c-0.325-0.818-0.649-1.637-0.988-2.469-1.143 2.638-3.372 3.287-6.109 3.034 2.060-1.989 4.064-3.908 6.067-5.841 0-0.056-0.014-0.113-0.014-0.183-0.635 0.085-1.298 0.085-1.905 0.282-1.665 0.564-3.287 1.27-4.966 1.792-1.129 0.367-2.314 0.607-3.499 0.762-1.171 0.155-2.3-0.085-3.16-1.044 2.991-1.044 5.954-2.074 8.931-3.118-0.381-0.48-1.185-0.903-2.131-0.903-1.552-0.014-3.118 0.085-4.67 0.169-2.624 0.155-5.065-0.296-6.998-2.258-0.367-0.381-0.635-0.861-0.945-1.298 3.668 0.282 7.238 0.55 10.808 0.832 0.028-0.085 0.042-0.169 0.071-0.24-0.974-0.339-1.947-0.748-2.949-1.002-2.342-0.578-4.713-1.016-7.041-1.623-2.074-0.536-3.965-1.425-5.362-3.16-0.635-0.79-1.242-1.58-1.467-2.681 4.642 1.778 9.439 2.78 14.152 4.106 0.028-0.056 0.056-0.127 0.099-0.183-0.353-0.268-0.705-0.564-1.086-0.818-1.848-1.213-3.922-1.919-5.996-2.624-3.414-1.171-6.321-3.048-8.409-6.025-1.34-1.905-2.145-4.078-2.187-6.476 0-0.099 0.014-0.198 0.028-0.409 0.353 0.282 0.621 0.55 0.931 0.748 3.245 2.046 6.476 4.092 9.735 6.109 3.33 2.060 6.66 4.12 10.018 6.123 0.861 0.508 1.82 0.945 2.78 1.171 1.665 0.395 2.85 1.383 3.894 2.638 0.776 0.931 1.594 1.834 2.384 2.751-0.014 3.951-0.014 7.901-0.014 11.838z"></path>
</svg>
