<!-- Generated by IcoMoon.io -->
<svg version="1.1" xmlns="http://www.w3.org/2000/svg" width="32" height="32" viewBox="0 0 32 32">
<title>INDODAX</title>
<path d="M23.295 16.127c0.028 0.042 0.042 0.085 0.085 0.127 0.578 0.593 1.171 1.171 1.764 1.764 0.071 0.071 0.141 0.113 0.254 0.113 0.226 0 0.395 0.183 0.395 0.409s-0.169 0.395-0.395 0.423c-0.212 0.014-0.409-0.141-0.423-0.367-0.014-0.169-0.085-0.268-0.198-0.381-0.466-0.466-0.931-0.917-1.383-1.397-0.085-0.085-0.141-0.099-0.24 0-0.254 0.268-0.522 0.522-0.79 0.79 0.875 0.875 1.735 1.735 2.624 2.624-0.889 0.889-1.75 1.75-2.624 2.624 0.042 0.056 0.085 0.099 0.127 0.141 0.212 0.212 0.423 0.423 0.635 0.635 0.155 0.155 0.155 0.155 0.31 0 0.804-0.804 1.608-1.608 2.413-2.413 0.071-0.071 0.141-0.155 0.226-0.212 0.056-0.042 0.141-0.085 0.212-0.085 0.409-0.014 0.818-0.014 1.227 0 0.085 0 0.183 0.042 0.24 0.099 0.818 0.804 1.623 1.608 2.427 2.427 0.113 0.113 0.226 0.212 0.353 0.339 0.042-0.028 0.085-0.056 0.113-0.099 0.24-0.24 0.466-0.48 0.705-0.705 0.071-0.071 0.099-0.127 0.014-0.198-0.48-0.466-0.945-0.945-1.425-1.411-0.042-0.042-0.141-0.056-0.212-0.071-0.226-0.028-0.395-0.169-0.409-0.381-0.014-0.226 0.113-0.409 0.325-0.451 0.24-0.056 0.48 0.113 0.48 0.353 0 0.127 0.056 0.226 0.141 0.31 0.536 0.536 1.086 1.072 1.623 1.608 0.042 0.042 0.085 0.056 0.113 0.085-0.508 0.508-1.002 1.002-1.524 1.524-0.014-0.028-0.042-0.085-0.071-0.113-0.917-0.931-1.848-1.848-2.78-2.78-0.113-0.113-0.212-0.155-0.367-0.155-0.254 0.014-0.494 0.014-0.748 0-0.127 0-0.226 0.042-0.31 0.127-0.931 0.931-1.862 1.862-2.794 2.794-0.042 0.042-0.071 0.085-0.085 0.099-0.508-0.508-0.988-0.988-1.496-1.496 0.028-0.028 0.071-0.085 0.127-0.127 0.776-0.776 1.538-1.552 2.314-2.314 0.113-0.099 0.099-0.169 0-0.268-0.79-0.776-1.566-1.566-2.356-2.342-0.042-0.042-0.071-0.085-0.127-0.127 0.056-0.056 0.085-0.099 0.127-0.141 0.409-0.409 0.818-0.818 1.227-1.242 0.042-0.042 0.071-0.085 0.113-0.127 0.028-0.014 0.042-0.014 0.042-0.014z"></path>
<path d="M30.533 16.127c0.042 0.042 0.071 0.099 0.113 0.141 0.409 0.409 0.818 0.818 1.227 1.242 0.042 0.042 0.071 0.071 0.113 0.127-0.042 0.042-0.085 0.085-0.113 0.127-0.988 0.988-1.975 1.975-2.963 2.963-0.099 0.099-0.113 0.169 0 0.268 0.466 0.451 0.917 0.917 1.369 1.355 0.056 0.056 0.155 0.099 0.24 0.099 0.24 0.014 0.409 0.169 0.409 0.409 0 0.226-0.155 0.395-0.381 0.409-0.254 0.014-0.423-0.141-0.437-0.381-0.014-0.085-0.042-0.183-0.099-0.24-0.564-0.564-1.129-1.143-1.679-1.707-0.028-0.028-0.042-0.056-0.085-0.099 0.056-0.056 0.099-0.113 0.141-0.155 0.974-0.974 1.947-1.933 2.907-2.907 0.141-0.141 0.141-0.141 0-0.296-0.254-0.254-0.494-0.508-0.762-0.776-0.056 0.056-0.099 0.085-0.141 0.127-0.889 0.875-1.764 1.75-2.653 2.638-0.085 0.085-0.155 0.113-0.268 0.113-0.79 0-1.58 0-2.384 0-0.113 0-0.198-0.042-0.268-0.113-0.437-0.437-0.875-0.875-1.312-1.312-0.071-0.071-0.155-0.127-0.268-0.127-0.226 0-0.395-0.183-0.395-0.409s0.183-0.395 0.423-0.395c0.226 0 0.409 0.169 0.409 0.395 0 0.127 0.042 0.198 0.127 0.282 0.409 0.395 0.818 0.804 1.227 1.199 0.056 0.056 0.155 0.099 0.24 0.099 0.691 0.014 1.369 0.014 2.060 0 0.085 0 0.183-0.042 0.24-0.099 0.959-0.945 1.905-1.905 2.85-2.85 0.028-0.028 0.056-0.071 0.071-0.113 0.028-0.014 0.042-0.014 0.042-0.014z"></path>
<path d="M1.27 17.566c0 0.099 0 0.169 0 0.24 0 1.975 0 3.951 0 5.94 0 0.226 0 0.226-0.226 0.226-0.282 0-0.564-0.014-0.847 0-0.155 0-0.198-0.042-0.198-0.198 0-1.933 0-3.88 0-5.813 0-0.48 0-0.959 0-1.439 0-0.212 0-0.212 0.198-0.212 0.296 0 0.593 0 0.903 0 2.229 0 4.473 0 6.702 0 0.268 0 0.536 0.028 0.804 0.071 0.649 0.099 1.016 0.466 1.101 1.129 0.042 0.339 0.071 0.691 0.071 1.044 0 1.185 0 2.356 0 3.541 0 0.24-0.028 0.494-0.071 0.734-0.141 0.663-0.508 1.002-1.199 1.072-0.353 0.028-0.705 0.056-1.058 0.056-1.665 0-3.33 0-4.995 0-0.099 0-0.183 0.014-0.254 0.099-0.141 0.155-0.423 0.141-0.578-0.014s-0.155-0.423 0-0.593c0.155-0.155 0.409-0.169 0.564-0.014 0.085 0.085 0.169 0.113 0.268 0.113 1.764 0 3.527 0 5.291 0 0.24 0 0.494-0.028 0.734-0.071 0.494-0.085 0.79-0.409 0.861-0.917 0.014-0.155 0.028-0.325 0.028-0.48 0-1.34 0-2.695 0-4.035 0-0.155-0.028-0.325-0.056-0.48-0.099-0.494-0.367-0.748-0.861-0.818-0.24-0.028-0.466-0.056-0.705-0.056-2.37 0-4.727 0-7.097 0-0.24 0-0.24 0-0.24 0.24 0 2.131 0 4.261 0 6.406 0 0.071 0.014 0.183 0.042 0.183 0.127 0.014 0.254 0 0.381 0 0.014 0 0.028-0.056 0.028-0.085 0-0.056 0-0.099 0-0.155 0-1.975 0-3.951 0-5.94 0-0.198 0-0.198 0.198-0.198 2.243 0 4.487 0 6.73 0 0.155 0 0.31 0.014 0.466 0.042 0.437 0.071 0.649 0.31 0.649 0.776 0.014 1.298 0.028 2.582 0.028 3.88 0 0.212-0.028 0.423-0.056 0.635-0.042 0.31-0.226 0.508-0.536 0.564-0.198 0.028-0.409 0.056-0.607 0.056-1.947 0-3.894 0-5.841 0-0.141 0-0.183-0.042-0.183-0.183 0-1.58 0-3.16 0-4.727 0-0.141 0.042-0.183 0.169-0.183 1.919 0 3.838 0 5.757 0 0.339 0 0.452 0.113 0.452 0.451 0 1.115 0 2.215 0 3.33 0 0.339-0.099 0.437-0.437 0.437-1.439 0-2.864 0-4.303 0-0.113 0-0.212 0.014-0.296 0.113-0.155 0.155-0.409 0.141-0.564-0.014s-0.155-0.409 0-0.578c0.141-0.155 0.423-0.183 0.564-0.028 0.085 0.085 0.169 0.113 0.282 0.113 1.312 0 2.624 0 3.937 0 0.056 0 0.127 0 0.183-0.014 0.183-0.028 0.226-0.085 0.226-0.268 0-0.339 0-0.677 0-1.016 0-0.607 0-1.199 0-1.806 0-0.254-0.042-0.282-0.282-0.31-0.113-0.014-0.212-0.014-0.325-0.014-1.58 0-3.16 0-4.727 0-0.226 0-0.226 0-0.226 0.226 0 1.284 0 2.582 0 3.866 0 0.155 0.042 0.198 0.198 0.198 1.848 0 3.683 0 5.531 0 0.056 0 0.099 0 0.155 0 0.339-0.028 0.466-0.141 0.508-0.48 0.014-0.099 0.028-0.198 0.028-0.296 0-1.185 0-2.384 0-3.57 0-0.127-0.014-0.268-0.028-0.395-0.028-0.198-0.155-0.325-0.353-0.353-0.113-0.014-0.226-0.028-0.339-0.028-2.116 0-4.247 0-6.363 0-0.056 0-0.113 0-0.183 0z"></path>
<path d="M19.175 23.647c0.423 0 0.818 0 1.213 0 0.028 0 0.071-0.042 0.085-0.085s0-0.085 0-0.141c0-1.651 0-3.302 0-4.966 0-0.24-0.028-0.494-0.056-0.734-0.085-0.522-0.423-0.832-0.988-0.875-0.254-0.014-0.508-0.028-0.762-0.028-1.891 0-3.781 0-5.672 0-0.198 0-0.395 0.028-0.593 0.056-0.508 0.085-0.79 0.381-0.847 0.889-0.028 0.268-0.056 0.55-0.056 0.832 0 1.608 0 3.217 0 4.825 0 0.24 0 0.24 0.24 0.24 0.296 0 0.593 0 0.903 0 0.141 0 0.183-0.042 0.183-0.169 0-0.593 0-1.185 0-1.778 0-0.141 0.042-0.183 0.183-0.183 2.286 0 4.571 0 6.857 0 0.127 0 0.183 0.042 0.183 0.169-0.014 0.268-0.014 0.55 0 0.818 0 0.071 0.042 0.141 0.085 0.198 0.155 0.183 0.169 0.423 0.014 0.578s-0.437 0.169-0.607 0.014c-0.155-0.155-0.155-0.409 0-0.578 0.042-0.056 0.085-0.141 0.085-0.212 0.014-0.155 0-0.296 0-0.451 0-0.099-0.042-0.141-0.141-0.127-0.042 0-0.071 0-0.113 0-1.975 0-3.951 0-5.926 0-0.24 0-0.24 0-0.24 0.24 0 0.578 0 1.143 0 1.721 0 0.141-0.042 0.169-0.183 0.169-0.593 0-1.185 0-1.778 0-0.113 0-0.155-0.028-0.155-0.155 0-1.947 0-3.88 0.014-5.827 0-0.198 0.028-0.395 0.071-0.578 0.127-0.607 0.494-0.931 1.129-1.016 0.282-0.042 0.564-0.056 0.847-0.056 1.947 0 3.894 0 5.841 0 0.254 0 0.522 0.042 0.776 0.085 0.564 0.113 0.903 0.466 1.002 1.030 0.056 0.325 0.085 0.649 0.085 0.988 0.014 1.778 0 3.556 0 5.333 0 0.212 0 0.212-0.198 0.212-0.578 0-1.143 0-1.721 0-0.155 0-0.198-0.056-0.198-0.198 0.014-0.31 0-0.607 0-0.917 0-0.113-0.028-0.169-0.155-0.169-1.439 0-2.864 0-4.303 0-0.056 0-0.113 0.028-0.155 0.071-0.183 0.183-0.437 0.183-0.607 0.014-0.141-0.155-0.141-0.423 0-0.578 0.169-0.169 0.409-0.169 0.607 0 0.056 0.056 0.155 0.071 0.24 0.071 1.256 0 2.511 0 3.767 0 0.339 0 0.663 0.014 1.002 0.028 0.014 0.325 0.014 0.663 0.028 0.988 0.014 0.071 0.014 0.155 0.014 0.254z"></path>
<path d="M16.395 21.079c-1.129 0-2.272 0-3.4 0-0.155 0-0.212-0.042-0.198-0.198 0.014-0.762 0-1.51 0-2.272 0-0.409 0.099-0.508 0.494-0.508 1.792 0 3.598 0 5.39 0 0.325 0 0.437 0.085 0.466 0.409 0.028 0.339 0.014 0.663 0.014 1.002 0 0.071 0.028 0.141 0.085 0.198 0.155 0.169 0.155 0.423 0 0.593-0.155 0.155-0.423 0.155-0.593 0-0.155-0.155-0.155-0.409 0-0.593 0.056-0.056 0.085-0.155 0.099-0.226 0-0.254-0.014-0.508-0.014-0.776 0-0.127-0.071-0.183-0.198-0.198-0.056-0.014-0.127-0.014-0.183-0.014-1.608 0-3.203 0-4.811 0-0.056 0-0.099 0-0.155 0.014-0.127 0.014-0.198 0.085-0.198 0.226 0 0.607 0 1.213 0 1.82 0 0.042 0.071 0.071 0.113 0.099 0.028 0.014 0.056 0 0.085 0 1.989 0 3.993 0 5.982 0 0.212 0 0.212 0 0.212-0.212 0-0.72 0-1.439 0-2.145 0-0.085-0.014-0.169-0.028-0.254-0.042-0.226-0.155-0.339-0.395-0.367-0.127-0.014-0.268-0.028-0.395-0.028-1.877 0-3.739 0-5.616 0-0.169 0-0.325 0.028-0.494 0.056-0.183 0.028-0.282 0.169-0.31 0.339-0.014 0.141-0.028 0.282-0.028 0.423 0 1.34 0 2.667 0 4.007 0 0.071 0.042 0.169 0.085 0.226 0.155 0.183 0.169 0.423 0 0.578-0.155 0.141-0.423 0.155-0.578 0.014-0.169-0.155-0.183-0.423-0.014-0.578 0.085-0.071 0.099-0.155 0.099-0.254 0-1.326 0-2.653 0-3.993 0-0.169 0.014-0.353 0.042-0.522 0.071-0.451 0.31-0.649 0.79-0.677 0.113 0 0.212-0.014 0.325-0.014 1.919 0 3.838 0 5.771 0 0.212 0 0.437 0.028 0.635 0.071 0.24 0.056 0.395 0.226 0.451 0.466 0.028 0.155 0.056 0.31 0.056 0.451 0 0.889 0 1.778 0.014 2.653 0 0.141-0.042 0.169-0.169 0.169-1.129 0.014-2.272 0.014-3.429 0.014z"></path>
<path d="M26.977 20.43c-0.31 0-0.607 0-0.917 0-0.071 0-0.141 0.028-0.183 0.071-0.72 0.72-1.425 1.425-2.131 2.145-0.042 0.042-0.071 0.113-0.071 0.169 0 0.24-0.155 0.423-0.395 0.423-0.24 0.014-0.423-0.155-0.437-0.381-0.014-0.24 0.155-0.437 0.395-0.437 0.113 0 0.183-0.042 0.254-0.113 0.734-0.734 1.467-1.467 2.201-2.201 0.056-0.056 0.169-0.099 0.254-0.099 0.578-0.014 1.157 0 1.735-0.014 0.071 0 0.169-0.042 0.226-0.085 0.691-0.691 1.397-1.383 2.088-2.060 0.071-0.071 0.127-0.155 0.127-0.268 0-0.24 0.169-0.395 0.423-0.381 0.226 0 0.381 0.169 0.395 0.395 0 0.24-0.141 0.423-0.381 0.423-0.127 0-0.198 0.042-0.282 0.127-0.72 0.72-1.439 1.439-2.159 2.173-0.085 0.085-0.155 0.113-0.268 0.113-0.296 0-0.578 0-0.875 0z"></path>
<path d="M0 8.31c0.056 0.014 0.113 0.014 0.155 0.014 0.508 0 1.002 0 1.51 0 0.183 0 0.183 0 0.183 0.169 0 1.764 0 3.527 0 5.305 0 0.353 0 0.691 0 1.044 0 0.141-0.042 0.169-0.169 0.169-0.508 0-1.016 0-1.524 0-0.056 0-0.113 0-0.155 0.014 0-2.243 0-4.473 0-6.716zM0.381 8.691c0 1.989 0 3.965 0 5.94 0.381 0 0.748 0 1.115 0 0-1.989 0-3.965 0-5.94-0.381 0-0.748 0-1.115 0z"></path>
<path d="M1.312 9.256c-0.042 0.085-0.085 0.155-0.113 0.24-0.028 0.071-0.085 0.155-0.085 0.226 0 1.298 0 2.582 0 3.88 0 0.099 0.014 0.169 0.099 0.24 0.141 0.127 0.127 0.353 0 0.494-0.141 0.141-0.381 0.141-0.508 0-0.141-0.127-0.141-0.367-0.014-0.494 0.085-0.071 0.099-0.155 0.099-0.254 0-1.284 0-2.568 0-3.838 0-0.099-0.014-0.183-0.099-0.268-0.113-0.099-0.127-0.31-0.042-0.437 0.085-0.141 0.268-0.198 0.423-0.155 0.113 0.056 0.212 0.198 0.24 0.367z"></path>
<path d="M17.227 8.24c1.157 0 2.3 0 3.457 0 0.198 0 0.409 0.042 0.607 0.099 0.466 0.127 0.691 0.451 0.776 0.903 0.028 0.198 0.056 0.409 0.056 0.621 0 1.171 0 2.328 0 3.499 0 0.226-0.042 0.451-0.085 0.663-0.127 0.494-0.466 0.776-1.002 0.832-0.296 0.028-0.607 0.056-0.903 0.056-1.467 0-2.921 0-4.388 0-0.099 0-0.169 0.014-0.254 0.085-0.141 0.141-0.367 0.113-0.494-0.028s-0.127-0.367 0.014-0.494c0.141-0.141 0.353-0.155 0.494-0.014 0.071 0.071 0.141 0.099 0.24 0.099 1.538 0 3.076 0 4.614 0 0.226 0 0.437-0.028 0.663-0.056 0.437-0.071 0.677-0.353 0.734-0.818 0.014-0.155 0.028-0.31 0.028-0.466 0-1.143 0-2.272 0-3.414 0-0.169-0.028-0.339-0.056-0.494-0.085-0.395-0.353-0.607-0.734-0.663-0.198-0.028-0.409-0.056-0.621-0.056-2.060 0-4.134 0-6.194 0-0.212 0-0.212 0-0.212 0.212 0 1.862 0 3.711 0 5.573 0 0.056 0.014 0.169 0.042 0.183 0.099 0.014 0.212 0.014 0.325 0 0.014 0 0.028-0.056 0.028-0.085 0-0.042 0-0.099 0-0.155 0-1.721 0-3.443 0-5.15 0-0.183 0-0.183 0.183-0.183 1.961 0 3.908 0 5.869 0 0.141 0 0.268 0.014 0.409 0.028 0.381 0.071 0.564 0.282 0.564 0.705 0.014 0.564 0.028 1.129 0.028 1.693 0 0.635-0.014 1.27-0.014 1.905-0.014 0.734-0.353 0.832-0.861 0.832-1.129 0.014-2.243 0-3.372 0-0.635 0-1.27 0-1.905 0-0.113 0-0.155-0.028-0.155-0.155 0-1.383 0-2.751 0-4.134 0-0.127 0.042-0.155 0.155-0.155 1.665 0 3.344 0 5.009 0 0.296 0 0.395 0.099 0.395 0.395 0 0.974 0 1.933 0 2.907 0 0.296-0.099 0.395-0.381 0.395-1.256 0-2.497 0-3.753 0-0.113 0-0.198 0.014-0.268 0.099-0.127 0.127-0.353 0.113-0.48-0.014s-0.141-0.353-0.014-0.494c0.113-0.141 0.353-0.183 0.48-0.056 0.099 0.113 0.212 0.113 0.339 0.113 1.115 0 2.229 0 3.344 0 0.353 0 0.395-0.028 0.395-0.395 0-0.762 0-1.524 0-2.286 0-0.268-0.014-0.282-0.282-0.325-0.056-0.014-0.113-0.014-0.169-0.014-1.397 0-2.794 0-4.19 0-0.198 0-0.198 0-0.198 0.198 0 1.129 0 2.243 0 3.372 0 0.141 0.042 0.169 0.169 0.169 1.608 0 3.217 0 4.825 0 0.042 0 0.071 0 0.113 0 0.325-0.014 0.437-0.127 0.48-0.451 0.014-0.127 0.028-0.254 0.028-0.395 0-0.945 0-1.905 0-2.85 0-0.141-0.014-0.282-0.028-0.423-0.028-0.198-0.127-0.31-0.325-0.339-0.113-0.014-0.226-0.028-0.353-0.028-1.82 0-3.64 0-5.446 0-0.198 0-0.198 0-0.198 0.198 0 1.735 0 3.457 0 5.192 0 0.198 0 0.198-0.198 0.198-0.254 0-0.508 0-0.762 0-0.099 0-0.141-0.014-0.141-0.141 0-2.13 0-4.275 0-6.406 0-0.127 0.071-0.127 0.155-0.127 1.086 0.042 2.258 0.042 3.414 0.042 0 0 0 0 0 0z"></path>
<path d="M11.344 13.94c0-0.071 0-0.113 0-0.169 0-1.623 0-3.259 0-4.882 0-0.056-0.028-0.155-0.042-0.155-0.099-0.014-0.198-0.014-0.296 0.014-0.014 0-0.028 0.099-0.028 0.141 0 1.312 0 2.624 0 3.922 0 0.212 0 0.409 0 0.621 0 0.085-0.028 0.141-0.127 0.127 0 0-0.014 0-0.014 0-0.268 0.042-0.466-0.056-0.677-0.268-1.467-1.481-2.963-2.963-4.444-4.444-0.099-0.099-0.183-0.127-0.324-0.127-0.593 0-1.185 0-1.764 0-0.183 0-0.183 0-0.183 0.169 0 1.877 0 3.767 0 5.644 0 0.042 0 0.099 0 0.169 0.155 0 0.31 0 0.451 0 0.183 0 0.367 0 0.536 0 0.099 0 0.141-0.028 0.141-0.141 0-0.254 0-0.508 0-0.762 0-1.256 0-2.526 0-3.781 0-0.127 0.042-0.155 0.169-0.169 0.268-0.028 0.452 0.071 0.649 0.268 1.467 1.481 2.963 2.963 4.43 4.444 0.099 0.099 0.198 0.141 0.325 0.141 0.593 0 1.199-0.014 1.792 0 0.141 0 0.169-0.042 0.169-0.169 0-1.806 0-3.612 0-5.418 0-0.085-0.014-0.155-0.085-0.226-0.141-0.141-0.141-0.367 0.014-0.508 0.141-0.141 0.353-0.141 0.494-0.014 0.155 0.141 0.169 0.367 0.014 0.522-0.071 0.071-0.085 0.127-0.085 0.212 0 1.919 0 3.852 0 5.771 0 0.141-0.028 0.169-0.169 0.169-0.776 0-1.552 0-2.328 0-0.099 0-0.169-0.028-0.24-0.099-1.552-1.524-3.090-3.076-4.628-4.614-0.042-0.042-0.085-0.071-0.155-0.141 0 0.099-0.014 0.141-0.014 0.198 0 1.496 0 2.977 0 4.473 0 0.198 0 0.198-0.183 0.198-0.508 0-1.002 0-1.51 0-0.113 0-0.141-0.042-0.141-0.141 0-2.13 0-4.261 0-6.377 0-0.113 0.028-0.155 0.141-0.155 0.79 0 1.594 0 2.384 0 0.071 0 0.169 0.042 0.212 0.099 1.538 1.538 3.076 3.076 4.628 4.614 0.042 0.042 0.085 0.071 0.155 0.141 0.014-0.099 0.014-0.155 0.014-0.212 0-1.496 0-2.977 0-4.473 0-0.169 0-0.169 0.183-0.169 0.254 0 0.494 0 0.748 0 0.127 0 0.169 0.042 0.169 0.169 0 1.721 0 3.443 0 5.164 0 0.155 0 0.31 0 0.466 0 0.085-0.028 0.113-0.113 0.113-0.466 0-0.931 0-1.397 0-0.056 0-0.127-0.042-0.183-0.099-0.649-0.649-1.298-1.284-1.933-1.933-0.931-0.903-1.834-1.806-2.737-2.695-0.056-0.056-0.141-0.085-0.226-0.099-0.268-0.014-0.55 0-0.818 0-0.113 0-0.141 0.042-0.141 0.155 0 1.369 0 2.723 0 4.092 0 0.056 0.028 0.113 0.071 0.155 0.141 0.155 0.155 0.381 0.014 0.522-0.127 0.141-0.367 0.141-0.508 0.014-0.141-0.141-0.141-0.367 0-0.522 0.042-0.056 0.071-0.127 0.071-0.198 0-1.453 0-2.907 0-4.36 0-0.198 0-0.198 0.198-0.198 0.409 0 0.832 0 1.242 0 0.113 0 0.198 0.028 0.268 0.113 1.538 1.524 3.076 3.048 4.614 4.586 0.085 0.085 0.155 0.113 0.268 0.113 0.31 0 0.607 0 0.931 0z"></path>
<path d="M27.429 8.607c-0.649 0-1.284 0-1.933 0-0.099 0-0.183 0.028-0.254 0.099-0.522 0.536-1.044 1.072-1.566 1.623-0.042 0.042-0.071 0.127-0.071 0.183 0 0.79 0 1.58 0 2.37 0 0.071 0.042 0.155 0.085 0.198 0.522 0.494 1.058 0.988 1.58 1.481 0.028 0.028 0.085 0.056 0.127 0.056 0.451 0 0.889-0.014 1.34-0.014 0.593-0.014 1.185-0.014 1.778-0.028 0.254 0 0.508-0.014 0.762-0.028 0.056 0 0.127-0.042 0.155-0.085 0.367-0.564 0.72-1.143 1.072-1.707 0.028-0.042 0.042-0.085 0.042-0.127 0.014-0.578 0.028-1.157 0.028-1.735 0-0.056-0.028-0.127-0.071-0.169-0.409-0.409-0.818-0.818-1.227-1.227-0.042-0.042-0.113-0.071-0.169-0.071-0.212-0.014-0.409 0-0.621 0-0.875 0-1.75-0.014-2.61-0.028-0.127 0-0.226 0.042-0.31 0.141-0.339 0.367-0.663 0.734-1.016 1.101-0.127 0.127-0.155 0.254-0.141 0.423 0.028 0.381 0.028 0.776 0.056 1.157 0 0.155 0.014 0.31 0.028 0.466 0 0.042 0.042 0.085 0.071 0.127 0.353 0.325 0.72 0.649 1.072 0.974 0.085 0.071 0.155 0.071 0.254 0.071 0.536 0 1.086 0 1.623 0 0.423 0 0.847 0 1.27 0 0.113 0 0.183-0.028 0.24-0.127 0.24-0.367 0.494-0.748 0.734-1.115 0.042-0.071 0.071-0.141 0.071-0.226 0-0.381 0.014-0.762 0-1.129 0-0.071-0.042-0.155-0.085-0.198-0.24-0.254-0.494-0.508-0.748-0.748-0.042-0.042-0.127-0.085-0.198-0.085-0.889 0-1.778 0-2.653 0-0.056 0-0.127 0.028-0.169 0.071-0.226 0.254-0.437 0.508-0.649 0.762-0.042 0.042-0.071 0.113-0.071 0.183 0 0.367 0.014 0.734 0.028 1.101 0 0.056 0.028 0.113 0.071 0.155 0.212 0.198 0.423 0.409 0.635 0.593 0.042 0.042 0.113 0.056 0.169 0.056 0.48 0 0.974 0 1.453 0 0.127 0 0.24-0.014 0.367-0.014 0.141 0 0.282 0.014 0.381-0.141 0.113-0.155 0.367-0.127 0.508 0.014s0.141 0.367 0 0.508c-0.141 0.141-0.367 0.155-0.508 0.014-0.085-0.085-0.169-0.099-0.268-0.099-0.677 0.014-1.369 0.014-2.046 0.028-0.071 0-0.169-0.042-0.226-0.085-0.24-0.212-0.451-0.437-0.705-0.635-0.141-0.113-0.183-0.24-0.183-0.409-0.014-0.423-0.042-0.847-0.056-1.27 0-0.042 0.028-0.099 0.056-0.127 0.296-0.339 0.593-0.691 0.903-1.016 0.042-0.042 0.113-0.071 0.155-0.071 0.988 0 1.975 0 2.963 0 0.056 0 0.127 0.028 0.169 0.071 0.339 0.325 0.677 0.663 1.002 1.002 0.042 0.042 0.071 0.113 0.071 0.169 0 0.466 0 0.945 0 1.411 0 0.056-0.028 0.141-0.056 0.183-0.296 0.48-0.593 0.945-0.889 1.411-0.042 0.071-0.099 0.113-0.198 0.113-1.129 0-2.258 0-3.386 0-0.071 0-0.155-0.028-0.198-0.071-0.437-0.381-0.861-0.776-1.284-1.171-0.071-0.071-0.085-0.212-0.085-0.325-0.014-0.254 0-0.508-0.014-0.762 0-0.367-0.014-0.734-0.014-1.086 0-0.071 0.028-0.155 0.085-0.212 0.437-0.48 0.889-0.959 1.34-1.425 0.042-0.042 0.127-0.085 0.183-0.085 1.199 0 2.399 0 3.598 0 0.071 0 0.155 0.028 0.198 0.085 0.494 0.48 0.974 0.959 1.453 1.453 0.042 0.042 0.085 0.127 0.085 0.198 0 0.663 0 1.34 0 2.018 0 0.071-0.028 0.141-0.056 0.198-0.423 0.621-0.847 1.256-1.27 1.877-0.028 0.042-0.113 0.085-0.169 0.099-0.325 0.014-0.649 0-0.974 0.014-0.79 0.014-1.566 0.014-2.356 0.028-0.282 0-0.564 0.014-0.847 0.014-0.056 0-0.127-0.028-0.183-0.071-0.593-0.55-1.199-1.115-1.792-1.679-0.042-0.042-0.071-0.113-0.071-0.169 0-0.903 0-1.806 0-2.709 0-0.056 0.028-0.141 0.071-0.183 0.607-0.621 1.213-1.256 1.834-1.877 0.042-0.042 0.099-0.056 0.155-0.056 1.439 0 2.864 0 4.303 0 0.056 0 0.127 0.028 0.169 0.071 0.635 0.635 1.284 1.284 1.919 1.919 0.085 0.085 0.071 0.183 0.071 0.282 0 0.451-0.014 0.903-0.028 1.354-0.014 0.409-0.014 0.832-0.028 1.242 0 0.056-0.028 0.127-0.071 0.169-0.24 0.367-0.48 0.734-0.705 1.101-0.028 0.056-0.042 0.127-0.042 0.183 0.028 0.198-0.113 0.395-0.325 0.423-0.169 0.028-0.367-0.113-0.409-0.282-0.042-0.212 0.085-0.395 0.268-0.451 0.056-0.014 0.127-0.056 0.169-0.113 0.226-0.339 0.451-0.677 0.663-1.030 0.042-0.071 0.071-0.169 0.071-0.254 0.014-0.183 0-0.353 0.014-0.536 0.014-0.578 0.014-1.157 0.028-1.735 0-0.099-0.028-0.155-0.085-0.226-0.564-0.55-1.115-1.115-1.679-1.665-0.056-0.056-0.141-0.085-0.226-0.085-0.691-0.071-1.355-0.071-2.004-0.071z"></path>
</svg>
