<!-- Generated by IcoMoon.io -->
<svg version="1.1" xmlns="http://www.w3.org/2000/svg" width="32" height="32" viewBox="0 0 32 32">
<title>INFINITO</title>
<path d="M16.051 17.126c1.242 2.931 1.152 5.683-0.474 8.307-0.986 1.6-2.381 2.714-4.134 3.392-3.418 1.331-7.27 0.256-9.626-2.675-2.253-2.803-2.432-6.835-0.397-9.882 1.229-1.843 2.931-3.059 5.094-3.558 2.125-0.486 4.173-0.205 6.208 0.909-0.333-2.227 0.166-4.045 1.894-5.389 0.986-0.768 2.125-1.165 3.366-1.050 2.97 0.282 4.928 2.483 4.787 5.389-0.077 1.651-0.845 2.957-2.202 3.904-1.344 0.909-2.816 1.062-4.518 0.653zM8.422 25.869c2.79 0 5.018-2.189 5.030-4.928 0-2.726-2.253-5.005-4.966-5.018-2.739 0-5.030 2.253-5.043 4.966 0 2.752 2.214 4.979 4.979 4.979zM17.715 15.462c1.792-0.013 3.226-1.446 3.213-3.226s-1.459-3.187-3.264-3.174c-1.792 0-3.238 1.446-3.213 3.226 0.026 1.766 1.459 3.174 3.264 3.174z"></path>
<path d="M15.629 4.454c-2.918 0-5.837 0-8.755 0-2.176 0-3.546 1.37-3.546 3.558 0 0.614 0.013 1.229-0.013 1.83-0.038 0.781-0.474 1.318-1.114 1.421-0.294 0.051-0.499-0.013-0.486-0.358 0.013-1.306-0.090-2.624 0.090-3.904 0.32-2.432 2.317-4.147 4.774-4.16 6.042-0.026 12.070-0.038 18.112 0 2.765 0.013 4.838 2.189 4.864 4.941 0 0.832-0.013 1.677 0.013 2.509 0.013 0.461-0.115 0.666-0.614 0.666-1.011 0-1.011 0.026-1.011-0.998 0-0.691 0-1.382 0-2.086-0.013-2.048-1.37-3.418-3.418-3.418-2.97-0.013-5.926 0-8.896 0z"></path>
<path d="M29.274 17.818c-0.653-0.038-1.306-0.026-1.946-0.141-1.306-0.256-2.214-1.472-2.099-2.701 0.141-1.382 1.216-2.381 2.624-2.394 0.96-0.013 1.92-0.013 2.88 0 0.845 0.013 1.242 0.397 1.254 1.229 0.013 0.896 0.013 1.792 0 2.688-0.013 0.819-0.422 1.229-1.254 1.267-0.486 0.013-0.973 0-1.472 0 0.013 0.026 0.013 0.038 0.013 0.051zM27.814 14.336c-0.499 0.013-0.845 0.358-0.845 0.845s0.41 0.883 0.909 0.858c0.486-0.013 0.819-0.384 0.806-0.883-0.026-0.512-0.371-0.832-0.87-0.819z"></path>
<path d="M18.406 27.136c0.128-1.037 0.666-1.536 1.677-1.549 1.421-0.013 2.854-0.064 4.275 0.013 1.894 0.102 3.712-1.382 3.571-3.597-0.051-0.755 0.013-1.51-0.013-2.266-0.013-0.486 0.141-0.691 0.653-0.678 0.96 0.013 0.96-0.013 0.973 0.973 0 0.794 0.013 1.587 0 2.381-0.038 2.509-2.010 4.646-4.518 4.762-2.099 0.090-4.198 0.026-6.298 0.026-0.090 0-0.192-0.038-0.32-0.064z"></path>
</svg>
