<!-- Generated by IcoMoon.io -->
<svg version="1.1" xmlns="http://www.w3.org/2000/svg" width="32" height="32" viewBox="0 0 32 32">
<title>INK</title>
<path d="M14.18 8.875c0.494-0.155 1.044 0.113 1.256 0.593 0.494 1.101 0.931 2.229 1.439 3.344 0.31 0.663 1.34 0.748 1.75 0.141 0.677-1.101 1.213-2.272 1.877-3.386 0.536-0.691 1.524-0.353 2.272-0.423 0.776-0.056 1.355 0.917 0.917 1.58-2.131 3.908-4.289 7.817-6.42 11.725-0.353 0.705-1.524 0.705-1.848-0.028-0.48-1.129-0.847-2.314-1.298-3.457-0.268-0.748-1.439-0.861-1.834-0.155-0.663 1.171-1.242 2.384-1.891 3.541-0.325 0.522-1.002 0.437-1.524 0.437-0.508-0.028-1.115 0.113-1.51-0.31-0.353-0.339-0.409-0.917-0.155-1.326 2.004-3.711 4.035-7.436 6.025-11.175 0.226-0.451 0.437-0.974 0.945-1.101"></path>
<path d="M7.196 9.157c0.593-0.028 1.185-0.028 1.778 0 0.663 0.071 1.086 0.903 0.762 1.496-1.975 3.683-3.979 7.337-5.968 10.991-0.24 0.409-0.423 0.945-0.931 1.086-0.593 0.085-1.199 0.028-1.792 0.028-0.734 0.028-1.34-0.903-0.903-1.524 2.074-3.795 4.134-7.605 6.208-11.414 0.169-0.325 0.452-0.649 0.847-0.663"></path>
<path d="M28.219 9.185c0.649-0.183 1.326-0.056 1.975-0.099 0.508 0.014 1.157-0.085 1.524 0.353 0.452 0.451 0.325 1.326-0.254 1.608-1.171 0.734-2.314 1.51-3.513 2.215-0.748 0.508-1.848-0.353-1.524-1.199 0.282-0.677 0.691-1.298 1.016-1.961 0.198-0.339 0.367-0.776 0.776-0.917"></path>
<path d="M22.617 19.316c0.339-0.198 0.762-0.141 1.086 0.028 0.903 0.437 1.792 0.917 2.709 1.34 0.395 0.169 0.79 0.494 0.818 0.945 0.071 0.607-0.451 1.199-1.072 1.157-1.298 0-2.61 0.014-3.894 0-0.649 0-1.157-0.748-0.917-1.355 0.169-0.437 0.423-0.832 0.621-1.256 0.155-0.31 0.31-0.705 0.649-0.861"></path>
</svg>
