<?xml version="1.0" encoding="utf-8"?>
<!-- Generator: Adobe Illustrator 22.0.1, SVG Export Plug-In . SVG Version: 6.00 Build 0)  -->
<svg version="1.1" id="Layer_1" xmlns="http://www.w3.org/2000/svg" xmlns:xlink="http://www.w3.org/1999/xlink" x="0px" y="0px"
	 viewBox="0 0 226.8 226.8" style="enable-background:new 0 0 226.8 226.8;" xml:space="preserve">
<style type="text/css">
	.st0{stroke:#FFFFFF;stroke-miterlimit:10;}
</style>
<g>
	<path class="st0" d="M100.5,62.9c3.5-1.1,7.4,0.8,8.9,4.2c3.5,7.8,6.6,15.8,10.2,23.7c2.2,4.7,9.5,5.3,12.4,1
		c4.8-7.8,8.6-16.1,13.3-24c3.8-4.9,10.8-2.5,16.1-3c5.5-0.4,9.6,6.5,6.5,11.2c-15.1,27.7-30.4,55.4-45.5,83.1
		c-2.5,5-10.8,5-13.1-0.2c-3.4-8-6-16.4-9.2-24.5c-1.9-5.3-10.2-6.1-13-1.1c-4.7,8.3-8.8,16.9-13.4,25.1c-2.3,3.7-7.1,3.1-10.8,3.1
		c-3.6-0.2-7.9,0.8-10.7-2.2c-2.5-2.4-2.9-6.5-1.1-9.4c14.2-26.3,28.6-52.7,42.7-79.2C95.4,67.5,96.9,63.8,100.5,62.9"/>
	<path class="st0" d="M51,64.9c4.2-0.2,8.4-0.2,12.6,0c4.7,0.5,7.7,6.4,5.4,10.6c-14,26.1-28.2,52-42.3,77.9c-1.7,2.9-3,6.7-6.6,7.7
		c-4.2,0.6-8.5,0.2-12.7,0.2c-5.2,0.2-9.5-6.4-6.4-10.8C15.7,123.6,30.3,96.6,45,69.6C46.2,67.3,48.2,65,51,64.9"/>
	<path class="st0" d="M200,65.1c4.6-1.3,9.4-0.4,14-0.7c3.6,0.1,8.2-0.6,10.8,2.5c3.2,3.2,2.3,9.4-1.8,11.4
		c-8.3,5.2-16.4,10.7-24.9,15.7c-5.3,3.6-13.1-2.5-10.8-8.5c2-4.8,4.9-9.2,7.2-13.9C195.9,69.2,197.1,66.1,200,65.1"/>
	<path class="st0" d="M160.3,136.9c2.4-1.4,5.4-1,7.7,0.2c6.4,3.1,12.7,6.5,19.2,9.5c2.8,1.2,5.6,3.5,5.8,6.7
		c0.5,4.3-3.2,8.5-7.6,8.2c-9.2,0-18.5,0.1-27.6,0c-4.6,0-8.2-5.3-6.5-9.6c1.2-3.1,3-5.9,4.4-8.9C156.8,140.8,157.9,138,160.3,136.9
		"/>
</g>
</svg>
