<!-- Generated by IcoMoon.io -->
<svg version="1.1" xmlns="http://www.w3.org/2000/svg" width="32" height="32" viewBox="0 0 32 32">
<title>INR</title>
<path d="M16 32c-8.819 0-16-7.181-16-16s7.181-16 16-16 16 7.181 16 16-7.181 16-16 16v0zM16 1.562c-7.962 0-14.438 6.477-14.438 14.438s6.477 14.438 14.438 14.438 14.438-6.477 14.438-14.438-6.477-14.438-14.438-14.438v0z"></path>
<path d="M21.888 10.995h-1.408c-0.090-0.819-0.371-1.574-0.832-2.163h2.24c0.538 0 0.973-0.397 0.973-0.934s-0.435-0.947-0.973-0.947h-7.578c-0.026 0-0.051 0-0.077 0-0.013 0-0.038 0-0.051 0h-3.61c-0.538 0-0.973 0.41-0.973 0.947s0.435 0.934 0.973 0.934h4.301c1.357 0.102 2.778 0.627 3.149 2.163h-7.45c-0.538 0-0.973 0.435-0.973 0.973s0.435 0.973 0.973 0.973h7.347c-0.461 1.216-1.715 1.971-3.456 1.971h-3.046c-0.525 0-0.947 0.422-0.947 0.947s0.422 0.947 0.947 0.947h1.114c0 0 0.013 0 0.013 0h1.754c1.907 0.077 2.752 0.896 3.238 3.162 0.384 1.677 0.666 2.765 0.883 3.43 0.166 0.602 0.486 1.523 1.062 2.061 0.218 0.218 0.512 0.32 0.794 0.32 0.294 0 0.602-0.115 0.819-0.346 0.41-0.422 0.422-1.088 0.038-1.523 0 0 0-0.013 0-0.013-0.346-0.64-0.768-2.368-1.28-4.57-0.41-1.779-1.165-2.893-2.317-3.392 1.446-0.55 2.445-1.626 2.842-2.982h1.51c0.538 0 0.973-0.435 0.973-0.973s-0.435-0.986-0.973-0.986z"></path>
</svg>
