<!-- Generated by IcoMoon.io -->
<svg version="1.1" xmlns="http://www.w3.org/2000/svg" width="32" height="32" viewBox="0 0 32 32">
<title>INS</title>
<path d="M22.152 10.032c1.439-0.127 2.286 1.129 2.37 2.427 0.071 1.115-1.171 2.229-2.37 2.243-1.439 0-2.427-0.945-2.427-2.328 0-1.354 1.016-2.342 2.427-2.342z"></path>
<path d="M12.501 15.802c0.127 1.171-1.115 2.399-2.483 2.314-1.467-0.085-2.215-1.157-2.187-2.469s1.072-2.243 2.469-2.201c1.34 0.042 2.215 0.974 2.201 2.356z"></path>
<path d="M28.064 7.224c1.552-0.099 2.074 1.072 2.116 2.229 0.042 1.086-0.903 1.778-2.159 1.862-1.101 0.071-2.074-0.959-2.046-2.088 0.014-1.228 0.832-2.018 2.088-2.004z"></path>
<path d="M15.069 16.268c1.227 0.014 2.060 0.818 2.060 1.961 0 1.312-0.832 2.116-2.13 2.102-1.157-0.014-2.13-0.988-2.088-2.102 0.028-1.199 0.889-1.989 2.159-1.961z"></path>
<path d="M7.676 25.947c1.143 0 1.989 0.818 1.975 1.919 0 1.086-0.889 1.919-2.032 1.919-1.129-0.014-2.004-0.875-1.975-1.961 0.028-1.101 0.861-1.877 2.032-1.877z"></path>
<path d="M20.134 17.933c0.988 0 2.018 1.044 2.004 2.018-0.014 1.002-1.016 1.989-2.018 1.989s-1.989-1.002-2.004-2.004c0-0.988 1.016-2.004 2.018-2.004z"></path>
<path d="M5.376 19.711c-1.044 0.028-1.947-0.889-1.961-1.975 0-0.945 0.974-1.989 1.877-2.018 1.016-0.028 2.131 1.016 2.116 2.004 0 0.945-1.044 1.961-2.032 1.989z"></path>
<path d="M18.116 27.287c-0.014 1.086-0.818 1.891-1.919 1.891s-2.018-0.748-2.032-1.665c-0.028-1.326 0.804-2.201 2.074-2.173 1.086 0.042 1.877 0.861 1.877 1.947z"></path>
<path d="M12.162 10.667c-1.086 0-1.919-0.832-1.905-1.877 0.014-1.143 0.917-2.088 2.004-2.074 1.030 0.014 1.82 0.917 1.82 2.102 0.014 1.044-0.832 1.848-1.919 1.848z"></path>
<path d="M19.739 6.476c-0.014 1.143-0.832 1.989-1.947 1.961-0.945-0.014-1.905-1.016-1.891-1.961 0.014-1.044 0.804-2.018 2.046-2.018 1.030-0.014 1.806 0.903 1.792 2.018z"></path>
<path d="M11.866 22.504c1.157 0 1.82 0.578 1.834 1.623 0.014 1.101-0.691 1.834-1.778 1.848-1.030 0.014-1.848-0.776-1.862-1.806 0-1.016 0.691-1.665 1.806-1.665z"></path>
<path d="M31.817 15.746c0 1.101-0.663 1.778-1.735 1.778-0.974 0-1.877-0.804-1.891-1.707-0.014-0.974 0.903-1.905 1.862-1.848 1.171 0.056 1.905 0.945 1.764 1.778z"></path>
<path d="M28.332 24.183c-1.143 0-1.792-0.621-1.778-1.693 0.014-1.044 0.72-1.75 1.778-1.764 1.044-0.028 1.862 0.79 1.862 1.82-0.014 1.002-0.748 1.637-1.862 1.637z"></path>
<path d="M23.238 22.533c0.959 0 1.721 0.762 1.707 1.721-0.014 0.847-0.861 1.679-1.707 1.665-0.903-0.014-1.707-0.861-1.693-1.792 0.014-0.945 0.705-1.594 1.693-1.594z"></path>
<path d="M6.744 24.155c-0.818 0-1.721-0.889-1.693-1.651 0.028-0.861 0.931-1.735 1.764-1.75 0.776 0 1.637 0.903 1.637 1.721 0 1.016-0.663 1.679-1.707 1.679z"></path>
<path d="M1.679 15.097c-0.988-0.014-1.665-0.663-1.679-1.594-0.014-0.988 0.705-1.651 1.735-1.637 0.988 0.014 1.665 0.663 1.679 1.594 0.014 0.974-0.705 1.651-1.735 1.637z"></path>
<path d="M19.316 28.078c0-0.804 0.889-1.707 1.651-1.693 0.804 0.028 1.735 0.974 1.75 1.764 0.014 0.804-0.945 1.651-1.834 1.623-0.945-0.014-1.566-0.705-1.566-1.693z"></path>
<path d="M14.73 15.097c-0.959 0-1.651-0.663-1.651-1.608s0.691-1.637 1.637-1.637c0.832 0 1.778 0.818 1.75 1.594-0.028 0.903-0.508 1.693-1.735 1.651z"></path>
<path d="M23.534 6.631c0.875 0 1.467 0.649 1.453 1.566-0.014 0.903-0.564 1.453-1.425 1.467-0.875 0-1.496-0.578-1.51-1.397 0-1.030 0.55-1.637 1.481-1.637z"></path>
<path d="M8.494 8.127c0 1.002-0.494 1.538-1.425 1.538-0.917 0-1.467-0.578-1.453-1.538 0.014-0.917 0.536-1.467 1.411-1.481 0.917-0.042 1.453 0.508 1.467 1.481z"></path>
<path d="M27.81 14.377c0.014 0.974-0.522 1.524-1.467 1.496-0.832-0.014-1.397-0.607-1.411-1.481-0.014-1.030 0.451-1.538 1.397-1.538 0.945 0.014 1.467 0.55 1.481 1.524z"></path>
<path d="M13.333 2.78c0.959 0.014 1.566 0.578 1.566 1.453 0 0.804-0.818 1.524-1.693 1.496-0.762-0.028-1.34-0.649-1.34-1.453-0.014-0.959 0.522-1.51 1.467-1.496z"></path>
<path d="M15.309 1.34c-0.014-0.762 0.578-1.312 1.439-1.34 0.804-0.028 1.369 0.564 1.369 1.397 0 0.691-0.663 1.397-1.312 1.397-0.776 0.014-1.481-0.677-1.496-1.453z"></path>
<path d="M17.51 22.744c0 0.804-0.508 1.369-1.256 1.397-0.776 0.028-1.552-0.677-1.538-1.411 0.014-0.649 0.705-1.355 1.369-1.383 0.691-0.014 1.425 0.691 1.425 1.397z"></path>
<path d="M2.483 23.549c-0.818-0.014-1.298-0.508-1.284-1.326 0-0.72 0.649-1.467 1.242-1.467 0.691 0 1.538 0.818 1.552 1.481 0 0.663-0.762 1.326-1.51 1.312z"></path>
<path d="M9.594 6.25c-0.762-0.014-1.213-0.536-1.171-1.312 0.042-0.72 0.508-1.143 1.256-1.129 0.677 0.014 1.185 0.522 1.185 1.213 0.014 0.72-0.522 1.242-1.27 1.228z"></path>
<path d="M11.88 26.949c0.677 0 1.199 0.522 1.213 1.199 0.014 0.72-0.536 1.27-1.27 1.242-0.649-0.014-1.157-0.564-1.171-1.256 0-0.649 0.55-1.185 1.228-1.185z"></path>
<path d="M27.203 17.312c0.691 0.014 1.185 0.522 1.199 1.213 0.014 0.776-0.48 1.242-1.256 1.227-0.649-0.028-1.185-0.593-1.171-1.256s0.578-1.213 1.227-1.185z"></path>
<path d="M3.499 8.423c0.734 0.028 1.157 0.494 1.115 1.213-0.042 0.621-0.677 1.227-1.256 1.199-0.593-0.028-1.171-0.677-1.171-1.284 0.014-0.762 0.48-1.157 1.312-1.129z"></path>
<path d="M12.501 20.247c0 0.691-0.522 1.256-1.143 1.256-0.649 0-1.284-0.635-1.284-1.284 0-0.635 0.564-1.143 1.256-1.129 0.762 0.014 1.185 0.423 1.171 1.157z"></path>
<path d="M23.774 2.78c0.748-0.014 1.199 0.409 1.213 1.129 0.014 0.705-0.423 1.129-1.199 1.143-0.691 0.014-1.213-0.48-1.242-1.143-0.028-0.649 0.48-1.115 1.227-1.129z"></path>
<path d="M24.917 29.192c-0.705-0.014-1.157-0.451-1.129-1.115 0.014-0.564 0.635-1.115 1.227-1.086s1.115 0.621 1.086 1.213c-0.042 0.55-0.578 0.988-1.185 0.988z"></path>
<path d="M18.737 14.688c0.621 0.014 1.185 0.578 1.143 1.157-0.042 0.466-0.72 1.044-1.199 1.044-0.55-0.014-1.129-0.578-1.129-1.086 0-0.593 0.564-1.129 1.185-1.115z"></path>
<path d="M16.508 10.709c-0.014-0.607 0.437-1.143 0.988-1.171 0.536-0.028 1.185 0.578 1.213 1.129 0.014 0.536-0.508 1.129-1.030 1.171-0.593 0.028-1.157-0.522-1.171-1.129z"></path>
<path d="M18.102 32c-0.677-0.014-1.030-0.395-1.002-1.086 0.028-0.663 0.466-1.115 1.058-1.101 0.564 0.014 1.129 0.564 1.129 1.086 0 0.578-0.564 1.115-1.185 1.101z"></path>
<path d="M2.215 17.933c0 0.607-0.494 1.157-1.016 1.171-0.607 0.014-1.199-0.536-1.199-1.115 0.014-0.564 0.536-1.072 1.115-1.072 0.663-0.014 1.101 0.395 1.101 1.016z"></path>
<path d="M22.152 16.861c0.028-0.55 0.578-1.129 1.086-1.129 0.564 0 1.129 0.635 1.086 1.227-0.028 0.578-0.564 1.002-1.185 0.959-0.578-0.056-1.002-0.508-0.988-1.058z"></path>
<path d="M26.37 6.25c-0.593 0-0.988-0.353-0.988-0.875-0.014-0.536 0.466-0.974 1.044-0.959 0.536 0.014 0.931 0.367 0.931 0.832 0 0.564-0.423 1.002-0.988 1.002z"></path>
<path d="M31.817 19.414c0 0.536-0.395 0.988-0.903 1.002-0.466 0.014-0.931-0.494-0.945-0.988-0.014-0.593 0.339-0.945 0.917-0.931 0.635 0.014 0.931 0.31 0.931 0.917z"></path>
<path d="M6.617 5.644c-0.635 0.014-0.988-0.282-1.002-0.832-0.014-0.578 0.339-0.974 0.889-0.988s0.945 0.381 0.945 0.931c0 0.536-0.31 0.875-0.832 0.889z"></path>
<path d="M30.885 11.245c0.691 0 0.945 0.24 0.931 0.861-0.014 0.536-0.353 0.903-0.847 0.903-0.593 0-0.974-0.339-0.988-0.889-0.028-0.621 0.24-0.875 0.903-0.875z"></path>
<path d="M5.39 12.966c-0.607 0.028-0.959-0.282-0.959-0.875-0.014-0.607 0.198-0.832 0.832-0.847 0.635-0.028 0.959 0.254 0.988 0.847 0.028 0.522-0.296 0.847-0.861 0.875z"></path>
<path d="M9.637 2.455c0.014-0.578 0.381-0.903 0.974-0.861 0.466 0.028 0.847 0.466 0.832 0.945s-0.536 0.917-1.030 0.889c-0.508-0.042-0.804-0.395-0.776-0.974z"></path>
<path d="M7.661 14.095c-0.621 0-0.861-0.254-0.847-0.931 0.014-0.564 0.31-0.889 0.832-0.875 0.494 0 0.875 0.367 0.889 0.861 0.028 0.607-0.282 0.945-0.875 0.945z"></path>
</svg>
