<?xml version="1.0" encoding="utf-8"?>
<!-- Generator: Adobe Illustrator 22.1.0, SVG Export Plug-In . SVG Version: 6.00 Build 0)  -->
<svg version="1.1" id="Layer_1" xmlns="http://www.w3.org/2000/svg" xmlns:xlink="http://www.w3.org/1999/xlink" x="0px" y="0px"
	 viewBox="0 0 226.8 226.8" style="enable-background:new 0 0 226.8 226.8;" xml:space="preserve">
<g>
	<path d="M157,71.1c10.2-0.9,16.2,8,16.8,17.2c0.5,7.9-8.3,15.8-16.8,15.9c-10.2,0-17.2-6.7-17.2-16.5C139.8,78.1,147,71.1,157,71.1
		z"/>
	<path d="M88.6,112c0.9,8.3-7.9,17-17.6,16.4c-10.4-0.6-15.7-8.2-15.5-17.5c0.2-9.3,7.6-15.9,17.5-15.6
		C82.5,95.6,88.7,102.2,88.6,112z"/>
	<path d="M198.9,51.2c11-0.7,14.7,7.6,15,15.8c0.3,7.7-6.4,12.6-15.3,13.2c-7.8,0.5-14.7-6.8-14.5-14.8
		C184.2,56.7,190,51.1,198.9,51.2z"/>
	<path d="M106.8,115.3c8.7,0.1,14.6,5.8,14.6,13.9c0,9.3-5.9,15-15.1,14.9c-8.2-0.1-15.1-7-14.8-14.9
		C91.7,120.7,97.8,115.1,106.8,115.3z"/>
	<path d="M54.4,183.9c8.1,0,14.1,5.8,14,13.6c0,7.7-6.3,13.6-14.4,13.6c-8-0.1-14.2-6.2-14-13.9C40.2,189.4,46.1,183.9,54.4,183.9z"
		/>
	<path d="M142.7,127.1c7,0,14.3,7.4,14.2,14.3c-0.1,7.1-7.2,14.1-14.3,14.1c-7.1,0-14.1-7.1-14.2-14.2
		C128.4,134.3,135.6,127.1,142.7,127.1z"/>
	<path d="M38.1,139.7c-7.4,0.2-13.8-6.3-13.9-14c0-6.7,6.9-14.1,13.3-14.3c7.2-0.2,15.1,7.2,15,14.2
		C52.5,132.3,45.1,139.5,38.1,139.7z"/>
	<path d="M128.4,193.4c-0.1,7.7-5.8,13.4-13.6,13.4c-7.8,0-14.3-5.3-14.4-11.8c-0.2-9.4,5.7-15.6,14.7-15.4
		C122.8,179.9,128.4,185.7,128.4,193.4z"/>
	<path d="M86.2,75.6c-7.7,0-13.6-5.9-13.5-13.3c0.1-8.1,6.5-14.8,14.2-14.7c7.3,0.1,12.9,6.5,12.9,14.9
		C99.9,69.9,93.9,75.6,86.2,75.6z"/>
	<path d="M139.9,45.9c-0.1,8.1-5.9,14.1-13.8,13.9c-6.7-0.1-13.5-7.2-13.4-13.9c0.1-7.4,5.7-14.3,14.5-14.3
		C134.5,31.5,140,38,139.9,45.9z"/>
	<path d="M84.1,159.5c8.2,0,12.9,4.1,13,11.5c0.1,7.8-4.9,13-12.6,13.1c-7.3,0.1-13.1-5.5-13.2-12.8
		C71.3,164.1,76.2,159.5,84.1,159.5z"/>
	<path d="M225.5,111.6c0,7.8-4.7,12.6-12.3,12.6c-6.9,0-13.3-5.7-13.4-12.1c-0.1-6.9,6.4-13.5,13.2-13.1
		C221.3,99.4,226.5,105.7,225.5,111.6z"/>
	<path d="M200.8,171.4c-8.1,0-12.7-4.4-12.6-12c0.1-7.4,5.1-12.4,12.6-12.5c7.4-0.2,13.2,5.6,13.2,12.9
		C213.9,166.9,208.7,171.4,200.8,171.4z"/>
	<path d="M164.7,159.7c6.8,0,12.2,5.4,12.1,12.2c-0.1,6-6.1,11.9-12.1,11.8c-6.4-0.1-12.1-6.1-12-12.7
		C152.8,164.3,157.7,159.7,164.7,159.7z"/>
	<path d="M47.8,171.2c-5.8,0-12.2-6.3-12-11.7c0.2-6.1,6.6-12.3,12.5-12.4c5.5,0,11.6,6.4,11.6,12.2
		C59.9,166.5,55.2,171.2,47.8,171.2z"/>
	<path d="M11.9,107c-7-0.1-11.8-4.7-11.9-11.3C-0.1,88.7,5,84,12.3,84.1c7,0.1,11.8,4.7,11.9,11.3C24.3,102.3,19.2,107.1,11.9,107z"
		/>
	<path d="M136.9,199c0-5.7,6.3-12.1,11.7-12c5.7,0.2,12.3,6.9,12.4,12.5c0.1,5.7-6.7,11.7-13,11.5C141.3,210.9,136.9,206,136.9,199z
		"/>
	<path d="M104.4,107c-6.8,0-11.7-4.7-11.7-11.4c0-6.7,4.9-11.6,11.6-11.6c5.9,0,12.6,5.8,12.4,11.3
		C116.5,101.7,113.1,107.3,104.4,107z"/>
	<path d="M166.8,47c6.2,0,10.4,4.6,10.3,11.1c-0.1,6.4-4,10.3-10.1,10.4c-6.2,0-10.6-4.1-10.7-9.9C156.3,51.3,160.2,47,166.8,47z"/>
	<path d="M60.2,57.6c0,7.1-3.5,10.9-10.1,10.9c-6.5,0-10.4-4.1-10.3-10.9c0.1-6.5,3.8-10.4,10-10.5C56.3,46.8,60.1,50.7,60.2,57.6z"
		/>
	<path d="M197.1,101.9c0.1,6.9-3.7,10.8-10.4,10.6c-5.9-0.1-9.9-4.3-10-10.5c-0.1-7.3,3.2-10.9,9.9-10.9
		C193.3,91.2,197,95,197.1,101.9z"/>
	<path d="M94.5,19.7c6.8,0.1,11.1,4.1,11.1,10.3c0,5.7-5.8,10.8-12,10.6c-5.4-0.2-9.5-4.6-9.5-10.3C84,23.5,87.8,19.6,94.5,19.7z"/>
	<path d="M108.5,9.5c-0.1-5.4,4.1-9.3,10.2-9.5c5.7-0.2,9.7,4,9.7,9.9c0,4.9-4.7,9.9-9.3,9.9C113.6,19.9,108.6,15,108.5,9.5z"/>
	<path d="M124.1,161.2c0,5.7-3.6,9.7-8.9,9.9c-5.5,0.2-11-4.8-10.9-10c0.1-4.6,5-9.6,9.7-9.8C118.9,151.2,124.1,156.2,124.1,161.2z"
		/>
	<path d="M17.6,166.9c-5.8-0.1-9.2-3.6-9.1-9.4c0-5.1,4.6-10.4,8.8-10.4c4.9,0,10.9,5.8,11,10.5C28.3,162.3,22.9,167,17.6,166.9z"/>
	<path d="M68,44.3c-5.4-0.1-8.6-3.8-8.3-9.3c0.3-5.1,3.6-8.1,8.9-8c4.8,0.1,8.4,3.7,8.4,8.6C77.1,40.7,73.3,44.4,68,44.3z"/>
	<path d="M84.2,191c4.8,0,8.5,3.7,8.6,8.5c0.1,5.1-3.8,9-9,8.8c-4.6-0.1-8.2-4-8.3-8.9C75.5,194.8,79.4,191,84.2,191z"/>
	<path d="M192.8,122.7c4.9,0.1,8.4,3.7,8.5,8.6c0.1,5.5-3.4,8.8-8.9,8.7c-4.6-0.2-8.4-4.2-8.3-8.9
		C184.2,126.4,188.2,122.5,192.8,122.7z"/>
	<path d="M24.8,59.7c5.2,0.2,8.2,3.5,7.9,8.6c-0.3,4.4-4.8,8.7-8.9,8.5c-4.2-0.2-8.3-4.8-8.3-9.1C15.6,62.3,18.9,59.5,24.8,59.7z"/>
	<path d="M88.6,143.5c0,4.9-3.7,8.9-8.1,8.9c-4.6,0-9.1-4.5-9.1-9.1c0-4.5,4-8.1,8.9-8C85.7,135.4,88.7,138.3,88.6,143.5z"/>
	<path d="M168.5,19.7c5.3-0.1,8.5,2.9,8.6,8c0.1,5-3,8-8.5,8.1c-4.9,0.1-8.6-3.4-8.8-8.1C159.6,23.1,163.2,19.8,168.5,19.7z"/>
	<path d="M176.6,206.9c-5-0.1-8.2-3.2-8-7.9c0.1-4,4.5-7.9,8.7-7.7c4.2,0.2,7.9,4.4,7.7,8.6C184.7,203.8,180.9,206.9,176.6,206.9z"
		/>
	<path d="M132.8,104.1c4.4,0.1,8.4,4.1,8.1,8.2c-0.3,3.3-5.1,7.4-8.5,7.4c-3.9-0.1-8-4.1-8-7.7C124.4,107.8,128.4,104,132.8,104.1z"
		/>
	<path d="M117,75.9c-0.1-4.3,3.1-8.1,7-8.3c3.8-0.2,8.4,4.1,8.6,8c0.1,3.8-3.6,8-7.3,8.3C121.1,84.1,117.1,80.2,117,75.9z"/>
	<path d="M128.3,226.8c-4.8-0.1-7.3-2.8-7.1-7.7c0.2-4.7,3.3-7.9,7.5-7.8c4,0.1,8,4,8,7.7C136.7,223.1,132.7,226.9,128.3,226.8z"/>
	<path d="M15.7,127.1c0,4.3-3.5,8.2-7.2,8.3c-4.3,0.1-8.5-3.8-8.5-7.9c0.1-4,3.8-7.6,7.9-7.6C12.6,119.8,15.7,122.7,15.7,127.1z"/>
	<path d="M157,119.5c0.2-3.9,4.1-8,7.7-8c4,0,8,4.5,7.7,8.7c-0.2,4.1-4,7.1-8.4,6.8C159.9,126.6,156.9,123.4,157,119.5z"/>
	<path d="M186.9,44.3c-4.2,0-7-2.5-7-6.2c-0.1-3.8,3.3-6.9,7.4-6.8c3.8,0.1,6.6,2.6,6.6,5.9C193.9,41.2,190.9,44.3,186.9,44.3z"/>
	<path d="M225.5,137.6c0,3.8-2.8,7-6.4,7.1c-3.3,0.1-6.6-3.5-6.7-7c-0.1-4.2,2.4-6.7,6.5-6.6C223.4,131.2,225.5,133.3,225.5,137.6z"
		/>
	<path d="M46.9,40c-4.5,0.1-7-2-7.1-5.9c-0.1-4.1,2.4-6.9,6.3-7c3.9-0.1,6.7,2.7,6.7,6.6C52.8,37.5,50.6,39.9,46.9,40z"/>
	<path d="M218.9,79.7c4.9,0,6.7,1.7,6.6,6.1c-0.1,3.8-2.5,6.4-6,6.4c-4.2,0-6.9-2.4-7-6.3C212.3,81.5,214.2,79.7,218.9,79.7z"/>
	<path d="M38.2,91.9c-4.3,0.2-6.8-2-6.8-6.2c-0.1-4.3,1.4-5.9,5.9-6c4.5-0.2,6.8,1.8,7,6C44.5,89.4,42.2,91.7,38.2,91.9z"/>
	<path d="M68.3,17.4c0.1-4.1,2.7-6.4,6.9-6.1c3.3,0.2,6,3.3,5.9,6.7c-0.1,3.4-3.8,6.5-7.3,6.3C70.2,24,68.1,21.5,68.3,17.4z"/>
	<path d="M54.3,99.9c-4.4,0-6.1-1.8-6-6.6c0.1-4,2.2-6.3,5.9-6.2c3.5,0,6.2,2.6,6.3,6.1C60.7,97.5,58.5,99.9,54.3,99.9z"/>
</g>
</svg>
