<!-- Generated by IcoMoon.io -->
<svg version="1.1" xmlns="http://www.w3.org/2000/svg" width="32" height="32" viewBox="0 0 32 32">
<title>INT</title>
<path d="M11.711 6.928c0.183 0.155 0.367 0.31 0.536 0.48 1.284 1.27 2.554 2.54 3.838 3.81 0.705 0.705 0.705 0.705 1.397 0.014 1.27-1.27 2.554-2.554 3.824-3.824 0.183-0.183 0.381-0.339 0.705-0.621 0.028 0.437 0.056 0.691 0.056 0.945 0 2.921 0.014 5.827-0.014 8.748 0 0.536 0.141 0.931 0.536 1.284 0.494 0.451 0.931 0.959 1.425 1.411 0.353 0.325 0.325 0.55-0.028 0.861-0.409 0.367-0.734 0.847-1.185 1.171-0.72 0.536-0.889 1.227-0.875 2.088 0.042 2.61 0.014 5.206 0.014 7.817 0 0.875 0 0.875-0.903 0.875-2.878 0-5.742 0-8.621 0-0.931 0-0.931 0-0.931-0.903 0-2.737-0.014-5.474 0.014-8.212 0-0.508-0.141-0.889-0.508-1.227-0.522-0.48-1.002-1.016-1.524-1.496-0.325-0.296-0.395-0.55-0.042-0.889 0.325-0.31 0.564-0.705 0.917-0.974 0.931-0.748 1.227-1.665 1.185-2.85-0.099-2.554-0.042-5.122-0.042-7.676 0-0.254 0.028-0.508 0.028-0.776 0.071-0.014 0.127-0.042 0.198-0.056zM21.051 9.157c-0.071-0.028-0.155-0.056-0.226-0.085-0.155 0.141-0.325 0.268-0.48 0.423-1.806 1.792-3.598 3.584-5.39 5.39-1.383 1.383-2.78 2.765-4.148 4.162-0.155 0.169-0.296 0.536-0.212 0.705 0.141 0.282 0.466 0.48 0.804 0.79 0.099-0.691 0.169-1.284 0.931-1.552 0 3.795 0 7.506 0 11.4 0.282-0.254 0.437-0.367 0.564-0.494 1.171-1.157 2.328-2.328 3.499-3.499 2.074-2.074 4.148-4.162 6.236-6.222 0.409-0.409 0.564-0.72 0-1.086-0.169-0.113-0.31-0.282-0.578-0.536 0.028 0.889-0.056 1.594-1.016 1.989 0.014-3.88 0.014-7.633 0.014-11.386zM13.164 30.984c0.212 0.042 0.31 0.071 0.423 0.071 2.272 0 4.529 0 6.801 0.014 0.522 0 0.635-0.254 0.621-0.705-0.014-2.201 0-4.402-0.014-6.603 0-0.155-0.056-0.325-0.071-0.423-2.568 2.54-5.122 5.051-7.76 7.647zM12.515 9.030c0 2.413 0 4.656 0 7.111 1.185-1.199 2.229-2.243 3.245-3.33 0.099-0.099 0.056-0.494-0.071-0.635-0.522-0.578-1.086-1.115-1.637-1.651-0.48-0.466-0.974-0.931-1.538-1.496z"></path>
<path d="M7.647 3.118c1.355-0.494 2.526-0.917 3.697-1.326 1.594-0.564 3.189-1.143 4.783-1.679 0.282-0.099 0.635-0.141 0.889-0.056 2.751 0.945 5.503 1.919 8.24 2.907 0.099 0.028 0.183 0.099 0.381 0.198-0.226 0.169-0.381 0.31-0.536 0.437-2.61 1.862-5.235 3.711-7.845 5.573-0.353 0.254-0.635 0.395-1.058 0.085-2.681-1.919-5.362-3.824-8.056-5.728-0.113-0.099-0.226-0.198-0.494-0.409zM23.182 3.457c-0.268-0.127-0.423-0.24-0.607-0.296-1.735-0.621-3.471-1.256-5.235-1.834-0.409-0.127-0.931-0.127-1.34 0-1.82 0.593-3.626 1.242-5.418 1.877-0.155 0.056-0.282 0.141-0.451 0.226 0.085 0.113 0.113 0.183 0.169 0.212 1.989 1.467 3.979 2.935 5.954 4.416 0.395 0.296 0.677 0.169 1.002-0.085 1.806-1.369 3.626-2.723 5.446-4.092 0.141-0.085 0.268-0.226 0.48-0.423z"></path>
</svg>
