<?xml version="1.0" encoding="utf-8"?>
<!-- Generator: Adobe Illustrator 22.1.0, SVG Export Plug-In . SVG Version: 6.00 Build 0)  -->
<svg version="1.1" id="Layer_1" xmlns="http://www.w3.org/2000/svg" xmlns:xlink="http://www.w3.org/1999/xlink" x="0px" y="0px"
	 viewBox="0 0 226.8 226.8" style="enable-background:new 0 0 226.8 226.8;" xml:space="preserve">
<g>
	<path d="M83,49.1c1.3,1.1,2.6,2.2,3.8,3.4c9.1,9,18.1,18,27.2,27c5,5,5,5,9.9,0.1c9-9,18.1-18.1,27.1-27.1c1.3-1.3,2.7-2.4,5-4.4
		c0.2,3.1,0.4,4.9,0.4,6.7c0,20.7,0.1,41.3-0.1,62c0,3.8,1,6.6,3.8,9.1c3.5,3.2,6.6,6.8,10.1,10c2.5,2.3,2.3,3.9-0.2,6.1
		c-2.9,2.6-5.2,6-8.4,8.3c-5.1,3.8-6.3,8.7-6.2,14.8c0.3,18.5,0.1,36.9,0.1,55.4c0,6.2,0,6.2-6.4,6.2c-20.4,0-40.7,0-61.1,0
		c-6.6,0-6.6,0-6.6-6.4c0-19.4-0.1-38.8,0.1-58.2c0-3.6-1-6.3-3.6-8.7c-3.7-3.4-7.1-7.2-10.8-10.6c-2.3-2.1-2.8-3.9-0.3-6.3
		c2.3-2.2,4-5,6.5-6.9c6.6-5.3,8.7-11.8,8.4-20.2C81,91.3,81.4,73.1,81.4,55c0-1.8,0.2-3.6,0.2-5.5C82.1,49.4,82.5,49.2,83,49.1z
		 M149.2,64.9c-0.5-0.2-1.1-0.4-1.6-0.6c-1.1,1-2.3,1.9-3.4,3C131.4,80,118.7,92.7,106,105.5c-9.8,9.8-19.7,19.6-29.4,29.5
		c-1.1,1.2-2.1,3.8-1.5,5c1,2,3.3,3.4,5.7,5.6c0.7-4.9,1.2-9.1,6.6-11c0,26.9,0,53.2,0,80.8c2-1.8,3.1-2.6,4-3.5
		c8.3-8.2,16.5-16.5,24.8-24.8c14.7-14.7,29.4-29.5,44.2-44.1c2.9-2.9,4-5.1,0-7.7c-1.2-0.8-2.2-2-4.1-3.8
		c0.2,6.3-0.4,11.3-7.2,14.1C149.2,118.1,149.2,91.5,149.2,64.9z M93.3,219.6c1.5,0.3,2.2,0.5,3,0.5c16.1,0,32.1,0,48.2,0.1
		c3.7,0,4.5-1.8,4.4-5c-0.1-15.6,0-31.2-0.1-46.8c0-1.1-0.4-2.3-0.5-3C130.1,183.4,112,201.2,93.3,219.6z M88.7,64
		c0,17.1,0,33,0,50.4c8.4-8.5,15.8-15.9,23-23.6c0.7-0.7,0.4-3.5-0.5-4.5c-3.7-4.1-7.7-7.9-11.6-11.7C96.2,71.3,92.7,68,88.7,64z"/>
	<path d="M54.2,22.1c9.6-3.5,17.9-6.5,26.2-9.4c11.3-4,22.6-8.1,33.9-11.9c2-0.7,4.5-1,6.3-0.4C140.1,7.1,159.6,14,179,21
		c0.7,0.2,1.3,0.7,2.7,1.4c-1.6,1.2-2.7,2.2-3.8,3.1c-18.5,13.2-37.1,26.3-55.6,39.5c-2.5,1.8-4.5,2.8-7.5,0.6
		c-19-13.6-38-27.1-57.1-40.6C56.9,24.3,56.1,23.6,54.2,22.1z M164.3,24.5c-1.9-0.9-3-1.7-4.3-2.1c-12.3-4.4-24.6-8.9-37.1-13
		c-2.9-0.9-6.6-0.9-9.5,0c-12.9,4.2-25.7,8.8-38.4,13.3c-1.1,0.4-2,1-3.2,1.6c0.6,0.8,0.8,1.3,1.2,1.5
		c14.1,10.4,28.2,20.8,42.2,31.3c2.8,2.1,4.8,1.2,7.1-0.6c12.8-9.7,25.7-19.3,38.6-29C161.9,26.9,162.8,25.9,164.3,24.5z"/>
</g>
</svg>
