<!-- Generated by IcoMoon.io -->
<svg version="1.1" xmlns="http://www.w3.org/2000/svg" width="32" height="32" viewBox="0 0 32 32">
<title>IOC</title>
<path d="M12.536 11.055v20.565c1.039 0.24 2.232 0.377 3.457 0.377 0.002 0 0.003 0 0.005 0h-0c1.189 0 2.347-0.131 3.462-0.377v-20.565s-1.338-0.813-3.462-0.813c-2.124 0-3.462 0.813-3.462 0.813zM0 15.999c0 6.998 4.494 12.946 10.753 15.117v-6.155c-3.075-1.803-5.141-5.141-5.141-8.963s2.066-7.16 5.141-8.963v-6.155c-6.259 2.172-10.753 8.119-10.753 15.118zM21.244 0.881v6.155c3.075 1.803 5.141 5.141 5.141 8.963s-2.066 7.159-5.141 8.963v6.155c6.259-2.171 10.753-8.119 10.753-15.117s-4.494-12.946-10.753-15.118zM12.536 0.377v5.829c1.083-0.383 2.248-0.593 3.462-0.593s2.379 0.21 3.462 0.593v-5.829c-1.039-0.24-2.233-0.377-3.458-0.377-0.001 0-0.002 0-0.004 0h0c-1.189 0-2.347 0.131-3.462 0.377z"></path>
</svg>
