<?xml version="1.0" encoding="utf-8"?>
<!-- Generator: Adobe Illustrator 22.0.1, SVG Export Plug-In . SVG Version: 6.00 Build 0)  -->
<svg version="1.1" id="Layer_1" xmlns="http://www.w3.org/2000/svg" xmlns:xlink="http://www.w3.org/1999/xlink" x="0px" y="0px"
	 viewBox="0 0 226.8 226.8" style="enable-background:new 0 0 226.8 226.8;" xml:space="preserve">
<style type="text/css">
	.st0{stroke:#FFFFFF;stroke-miterlimit:10;}
</style>
<ellipse class="st0" cx="125.4" cy="109.9" rx="27.7" ry="27.7"/>
<path class="st0" d="M125.4,209.9c-13.5,0-26.6-2.6-38.9-7.9c-11.9-5-22.6-12.2-31.8-21.4s-16.4-19.9-21.4-31.8
	c-5.2-12.3-7.9-25.4-7.9-38.9S28,83.3,33.2,71c5-11.9,12.2-22.6,21.4-31.8s19.9-16.4,31.8-21.4c12.3-5.2,25.4-7.9,38.9-7.9
	s26.6,2.6,38.9,7.9c11.9,5,22.6,12.2,31.8,21.4s16.4,19.9,21.4,31.8c5.2,12.3,7.9,25.4,7.9,38.9s-2.6,26.6-7.9,38.9
	c-5,11.9-12.2,22.6-21.4,31.8S176.2,197,164.3,202C152,207.3,138.9,209.9,125.4,209.9z M125.4,15c-12.8,0-25.2,2.5-36.9,7.5
	C77.1,27.2,67,34.1,58.3,42.8C49.5,51.5,42.7,61.7,37.9,73c-4.9,11.7-7.5,24.1-7.5,36.9s2.5,25.2,7.5,36.9
	c4.8,11.3,11.6,21.5,20.3,30.2s18.9,15.6,30.2,20.3c11.7,4.9,24.1,7.5,36.9,7.5s25.2-2.5,36.9-7.5c11.3-4.8,21.5-11.6,30.2-20.3
	s15.6-18.9,20.3-30.2c4.9-11.7,7.5-24.1,7.5-36.9s-2.5-25.2-7.5-36.9c-4.8-11.3-11.6-21.5-20.3-30.2s-18.9-15.6-30.2-20.3
	C150.6,17.5,138.2,15,125.4,15z"/>
<g>
	<circle class="st0" cx="174.3" cy="28.6" r="27.7"/>
	<circle class="st0" cx="173.3" cy="197.3" r="27.7"/>
	<circle class="st0" cx="27.9" cy="116.1" r="27.7"/>
</g>
</svg>
