<!-- Generated by IcoMoon.io -->
<svg version="1.1" xmlns="http://www.w3.org/2000/svg" width="32" height="32" viewBox="0 0 32 32">
<title>ION</title>
<path d="M21.601 15.506c0 2.159-1.75 3.908-3.908 3.908s-3.908-1.75-3.908-3.908c0-2.159 1.75-3.908 3.908-3.908s3.908 1.75 3.908 3.908z"></path>
<path d="M17.693 29.616c-1.905 0-3.753-0.367-5.489-1.115-1.679-0.705-3.189-1.721-4.487-3.019s-2.314-2.808-3.019-4.487c-0.734-1.735-1.115-3.584-1.115-5.489s0.367-3.753 1.101-5.489c0.705-1.679 1.721-3.189 3.019-4.487s2.808-2.314 4.487-3.019c1.735-0.734 3.584-1.115 5.489-1.115s3.753 0.367 5.489 1.115c1.679 0.705 3.189 1.721 4.487 3.019s2.314 2.808 3.019 4.487c0.734 1.735 1.115 3.584 1.115 5.489s-0.367 3.753-1.115 5.489c-0.705 1.679-1.721 3.189-3.019 4.487s-2.794 2.314-4.473 3.019c-1.735 0.748-3.584 1.115-5.489 1.115zM17.693 2.116c-1.806 0-3.556 0.353-5.206 1.058-1.608 0.663-3.034 1.637-4.261 2.864-1.242 1.228-2.201 2.667-2.878 4.261-0.691 1.651-1.058 3.4-1.058 5.206s0.353 3.556 1.058 5.206c0.677 1.594 1.637 3.034 2.864 4.261s2.667 2.201 4.261 2.864c1.651 0.691 3.4 1.058 5.206 1.058s3.556-0.353 5.206-1.058c1.594-0.677 3.034-1.637 4.261-2.864s2.201-2.667 2.864-4.261c0.691-1.651 1.058-3.4 1.058-5.206s-0.353-3.556-1.058-5.206c-0.677-1.594-1.637-3.034-2.864-4.261s-2.667-2.201-4.261-2.864c-1.637-0.705-3.386-1.058-5.192-1.058z"></path>
<path d="M28.501 4.035c0 2.159-1.75 3.908-3.908 3.908s-3.908-1.75-3.908-3.908c0-2.159 1.75-3.908 3.908-3.908s3.908 1.75 3.908 3.908z"></path>
<path d="M28.36 27.838c0 2.159-1.75 3.908-3.908 3.908s-3.908-1.75-3.908-3.908c0-2.159 1.75-3.908 3.908-3.908s3.908 1.75 3.908 3.908z"></path>
<path d="M7.845 16.381c0 2.159-1.75 3.908-3.908 3.908s-3.908-1.75-3.908-3.908c0-2.159 1.75-3.908 3.908-3.908s3.908 1.75 3.908 3.908z"></path>
</svg>
