<!-- Generated by IcoMoon.io -->
<svg version="1.1" xmlns="http://www.w3.org/2000/svg" width="32" height="32" viewBox="0 0 32 32">
<title>IOST</title>
<path d="M16 0l-13.855 8v16l13.855 8 13.855-8v-16l-13.855-8zM16.282 25.919l-10.638-6.067 0.042-2.949 10.582 6.067 5.108-2.949-3.429-1.975-1.284 0.734-2.399-1.383 1.284-0.748-1.679-0.974-1.016 0.593-2.413-1.383 1.016-0.593-5.404-3.132 10.229-5.898 9.651 5.503-2.582 1.51-7.055-4.049-5.122 2.935 2.864 1.651 1.453-0.847 2.413 1.383-1.467 0.847 1.679 0.974 1.199-0.691 2.413 1.383-1.213 0.705 5.982 3.457-10.215 5.898z"></path>
</svg>
