<?xml version="1.0" encoding="utf-8"?>
<!-- Generator: Adobe Illustrator 22.0.1, SVG Export Plug-In . SVG Version: 6.00 Build 0)  -->
<svg version="1.1" id="Layer_1" xmlns="http://www.w3.org/2000/svg" xmlns:xlink="http://www.w3.org/1999/xlink" x="0px" y="0px"
	 viewBox="0 0 226.8 226.8" style="enable-background:new 0 0 226.8 226.8;" xml:space="preserve">
<path d="M113.4,0L15.2,56.7v113.4l98.2,56.7l98.2-56.7V56.7L113.4,0 M115.4,183.7l-75.4-43l0.3-20.9l75,43l36.2-20.9l-24.3-14
	l-9.1,5.2l-17-9.8l9.1-5.3l-11.9-6.9l-7.2,4.2l-17.1-9.8l7.2-4.2L42.9,79.1l72.5-41.8l68.4,39l-18.3,10.7l-50-28.7L79.2,79.1
	l20.3,11.7l10.3-6l17.1,9.8l-10.4,6l11.9,6.9l8.5-4.9l17.1,9.8l-8.6,5l42.4,24.5L115.4,183.7"/>
</svg>
