<?xml version="1.0" encoding="utf-8"?>
<!-- Generator: Adobe Illustrator 22.1.0, SVG Export Plug-In . SVG Version: 6.00 Build 0)  -->
<svg version="1.1" id="Layer_1" xmlns="http://www.w3.org/2000/svg" xmlns:xlink="http://www.w3.org/1999/xlink" x="0px" y="0px"
	 viewBox="0 0 226.8 226.8" style="enable-background:new 0 0 226.8 226.8;" xml:space="preserve">
<g>
	<path d="M136,119.8c7.1,6.7,13.8,13.1,20.8,19.7c-7.7,10.5-17.3,17.2-29.7,19.2c-26.2,4.4-49.6-14.1-51.6-41.4
		C73.8,94,91.3,71.5,119.2,70.9c11.9-0.2,22.5,4,31,12.5c23.1,23.2,46.1,46.6,69.1,69.9c1.8,1.8,2.2,3.5,1,5.9
		c-20.2,39.8-51.5,63.7-96.8,66.6C60.3,229.9,9.6,180.1,5.3,121.6C1.1,64.1,41.5,10.6,100,1.4c47.2-7.5,94.7,16.5,116.9,59.5
		c2.2,4.2,2.2,7.1-1.2,10.8c-10.2,11.2-20,22.8-29.9,34.2c-0.6,0.7-1.3,1.4-2.3,2.4c-6.3-6.4-12.6-12.6-18.5-19
		c-0.6-0.7,0-3.3,0.9-4.4c5.1-6.3,10.4-12.5,15.9-18.5c2.2-2.4,2.3-4,0.1-6.6c-21-24.3-47.3-35-78.9-29.2
		c-32.1,5.9-54,25.2-64.2,56.1c-17.1,51.5,17,104.4,71.1,109.9c30.6,3.1,55.4-9.1,74.4-33.1c1.5-1.9,1.4-3.2-0.3-4.9
		c-18-18.1-35.8-36.3-53.8-54.3c-6-6-16-5.6-21.5,0.4c-5.6,6.1-5.1,15.7,1,21.6c6.1,5.8,15.7,5.4,21.5-0.8
		C132.8,123.5,134.4,121.6,136,119.8z"/>
</g>
</svg>
