<!-- Generated by IcoMoon.io -->
<svg version="1.1" xmlns="http://www.w3.org/2000/svg" width="32" height="32" viewBox="0 0 32 32">
<title>IOTX</title>
<path d="M19.189 16.903c1.002 0.945 1.947 1.848 2.935 2.78-1.086 1.481-2.441 2.427-4.19 2.709-3.697 0.621-6.998-1.989-7.28-5.841-0.24-3.287 2.229-6.462 6.166-6.547 1.679-0.028 3.175 0.564 4.374 1.764 3.259 3.273 6.504 6.575 9.75 9.862 0.254 0.254 0.31 0.494 0.141 0.832-2.85 5.616-7.266 8.988-13.658 9.397-8.917 0.578-16.071-6.448-16.677-14.702-0.593-8.113 5.108-15.661 13.362-16.959 6.66-1.058 13.362 2.328 16.494 8.395 0.31 0.593 0.31 1.002-0.169 1.524-1.439 1.58-2.822 3.217-4.219 4.825-0.085 0.099-0.183 0.198-0.325 0.339-0.889-0.903-1.778-1.778-2.61-2.681-0.085-0.099 0-0.466 0.127-0.621 0.72-0.889 1.467-1.764 2.243-2.61 0.31-0.339 0.325-0.564 0.014-0.931-2.963-3.429-6.674-4.938-11.132-4.12-4.529 0.832-7.619 3.556-9.058 7.915-2.413 7.266 2.399 14.73 10.032 15.506 4.317 0.437 7.817-1.284 10.497-4.67 0.212-0.268 0.198-0.451-0.042-0.691-2.54-2.554-5.051-5.122-7.591-7.661-0.847-0.847-2.258-0.79-3.034 0.056-0.79 0.861-0.72 2.215 0.141 3.048 0.861 0.818 2.215 0.762 3.034-0.113 0.226-0.282 0.451-0.55 0.677-0.804z"></path>
</svg>
