<!-- Generated by IcoMoon.io -->
<svg version="1.1" xmlns="http://www.w3.org/2000/svg" width="32" height="32" viewBox="0 0 32 32">
<title>ITBIT</title>
<path d="M14.504 16.353c0 1.651 0 3.302 0 4.952 0.691-0.014 1.397 0.014 2.088 0.014 0.804-0.028 1.665-0.099 2.342-0.578 0.48-0.325 0.762-0.889 0.818-1.453 0.099-0.734-0.056-1.538-0.593-2.074-0.564-0.578-1.369-0.79-2.145-0.847-0.832-0.042-1.679-0.014-2.511-0.014zM14.504 10.497c0 1.453 0 2.921 0 4.374 0.705 0 1.397 0 2.102 0 0.536-0.014 1.072-0.099 1.538-0.367 0.508-0.282 0.861-0.776 0.959-1.34 0.099-0.55 0.071-1.129-0.198-1.623-0.268-0.508-0.818-0.79-1.369-0.917-0.988-0.24-2.018-0.099-3.034-0.127zM10.794 8.903h6.109c1.143 0.056 2.384 0.296 3.245 1.115 0.903 0.832 1.171 2.173 0.903 3.344-0.212 0.959-0.903 1.764-1.792 2.159 0.917 0.31 1.735 0.931 2.173 1.792 0.48 0.959 0.494 2.145 0.099 3.132-0.353 0.847-1.086 1.496-1.919 1.848-0.889 0.395-1.877 0.508-2.836 0.55h-5.982c0-0.522 0-1.044 0-1.552 0.578 0 1.171 0 1.75 0 0-3.612 0-7.224 0-10.822-0.578 0-1.171 0-1.75 0 0-0.522 0-1.044 0-1.566z"></path>
<path d="M6.095 10.314c0.593-0.466 1.199-0.917 1.806-1.369 0 1.975 0 3.951 0 5.926 0.663 0 1.312 0 1.975 0 0 0.494 0 0.988 0 1.481-0.649 0-1.312 0-1.961 0 0 1.129 0 2.243 0 3.358 0 0.353 0 0.705 0.127 1.044 0.085 0.226 0.282 0.409 0.508 0.48 0.437 0.127 0.889 0.056 1.326 0.085 0 0.508 0 1.030 0 1.552h-1.199c-0.663-0.042-1.383-0.169-1.877-0.663-0.578-0.578-0.691-1.425-0.691-2.201 0-1.213 0-2.427 0-3.64-0.508 0-1.016 0-1.51 0-0.014-0.494 0-0.974-0.014-1.467 0.508-0.014 1.016 0 1.524 0 0-1.552 0-3.062-0.014-4.586z"></path>
<path d="M27.979 10.314c0.593-0.466 1.199-0.917 1.792-1.369 0 1.975 0 3.951 0 5.926 0.649 0 1.298 0 1.947 0v1.481c-0.649 0-1.298 0-1.947 0 0 1.242 0 2.483 0 3.711 0 0.409 0.099 0.903 0.494 1.101 0.451 0.212 0.974 0.113 1.453 0.127v1.552h-1.227c-0.635-0.042-1.312-0.169-1.792-0.621-0.536-0.494-0.705-1.256-0.734-1.961 0-1.312 0-2.624 0-3.922-0.508 0-1.016 0-1.524 0 0-0.494 0-0.988 0-1.481 0.508-0.014 1.030 0 1.538 0 0-1.51 0-3.034 0-4.543z"></path>
<path d="M0.141 14.843c1.129-0.028 2.243 0.042 3.358 0.014 0 2.145 0 4.289 0 6.42 0.508 0 1.016 0 1.524 0 0 0.508 0 1.030 0 1.552h-4.882v-1.552c0.522 0 1.044 0 1.552 0 0-1.651 0-3.302 0-4.952-0.508 0-1.016 0-1.524 0 0.014-0.423-0.014-0.861 0.028-1.27 0-0.071-0.014-0.127-0.042-0.198v-0.014z"></path>
<path d="M22.053 14.871c1.115 0 2.229 0 3.344 0 0 2.145 0 4.289 0 6.42 0.508 0 1.016 0 1.524 0 0 0.508 0 1.030 0 1.552h-4.882c0-0.522 0-1.044 0-1.552 0.508 0 1.016 0 1.524 0 0-1.651 0-3.302 0-4.952-0.508 0-1.030 0-1.538 0 0.028-0.48 0.028-0.974 0.028-1.467z"></path>
<path d="M1.919 9.989c0.635-0.226 1.411 0.198 1.538 0.861 0.183 0.691-0.367 1.453-1.086 1.467-0.621 0.071-1.213-0.423-1.27-1.044-0.085-0.55 0.282-1.129 0.818-1.284z"></path>
<path d="M23.817 9.989c0.593-0.212 1.298 0.127 1.51 0.72 0.198 0.508 0 1.129-0.466 1.425-0.536 0.367-1.369 0.198-1.693-0.381-0.409-0.621-0.071-1.552 0.649-1.764z"></path>
</svg>
