<?xml version="1.0" encoding="utf-8"?>
<!-- Generator: Adobe Illustrator 22.1.0, SVG Export Plug-In . SVG Version: 6.00 Build 0)  -->
<svg version="1.1" id="Layer_1" xmlns="http://www.w3.org/2000/svg" xmlns:xlink="http://www.w3.org/1999/xlink" x="0px" y="0px"
	 viewBox="0 0 250 250" style="enable-background:new 0 0 250 250;" xml:space="preserve">
<path d="M228.7,166.6V83.3c7.4-2.8,11.2-11.1,8.3-18.6c-2.1-5.6-7.5-9.3-13.5-9.3c-3.6,0-7,1.3-9.6,3.7l-72.1-41.7
	c0.2-1,0.3-2,0.3-3c0-8-6.4-14.4-14.4-14.4s-14.4,6.4-14.4,14.4c0,0.8,0.1,1.6,0.2,2.3L39.6,59.4c-5.8-5.5-14.9-5.3-20.4,0.5
	c-5.5,5.8-5.3,14.9,0.5,20.4c1.7,1.6,3.7,2.8,6,3.4v82.5c-7.6,2.2-12.1,10.2-9.9,17.8c1.8,6.2,7.4,10.5,13.9,10.4
	c2.9,0,5.8-0.9,8.1-2.5L76.1,214v0.4H77l36.4,21c0.2,8,6.8,14.3,14.7,14.1c8-0.2,14.3-6.8,14.1-14.7l0,0c0-0.4,0-0.7-0.1-1.1
	l74.6-41c7,3.8,15.7,1.3,19.5-5.7c1.2-2.1,1.8-4.5,1.8-7C238,174.1,234.3,168.7,228.7,166.6z M177.7,134.1L177.7,134.1l-0.1-0.3
	l-0.1-0.8l-1.7-0.8l0,0l-10.8-6.5l11.3-6.8l0,0l1.8-0.8l0.1-4.3h0.1V47.8l31.4,18.1c-0.4,1.3-0.5,2.6-0.6,3.9
	c0,6.9,4.9,12.8,11.6,14.1v82c-6.7,1.4-11.5,7.3-11.5,14.1c0,2.4,0.6,4.7,1.7,6.8L177.7,205V134.1z M127.7,28.8
	c3.9,0,7.6-1.6,10.2-4.3l32.4,18.7v70l-13,7.9l-17.6-10.5c0.1-0.6,0.2-1.3,0.2-1.9c0-7-5.7-12.7-12.7-12.7c-7,0-12.7,5.7-12.7,12.7
	c0,0.8,0.1,1.6,0.2,2.4l-17,10.1L84.2,113v-70L117,24C119.7,27.1,123.6,28.8,127.7,28.8z M136.1,133.9c-4.9-4.8-12.7-4.9-17.7-0.3
	l-13.2-7.9l13.2-7.8c5,4.6,12.7,4.5,17.6-0.3l13.5,8.1L136.1,133.9z M42.9,185.6c3.1-7.3-0.4-15.8-7.7-18.8c-0.5-0.2-1-0.4-1.5-0.5
	V83.6c7.4-2.1,11.8-9.8,9.9-17.3l32.5-18.8v67.8h0.1v2.7l4.3,2.2l9.3,5.5l-10.3,6.1l0,0l-2.8,1.7l-0.6,0.6l-0.1,2.2l0,0v68.5
	L42.9,185.6z M127.7,220.5c-5.1,0-9.8,2.6-12.4,7l-31.2-18.1v-71.3l13.3-7.8l17.2,10.3c-0.1,0.8-0.2,1.5-0.2,2.3
	c0,7,5.7,12.7,12.7,12.7c7,0,12.7-5.7,12.7-12.7c0-0.6-0.1-1.3-0.2-1.9l17.6-10.6l12.5,7.5v71.6l-30.6,16.8
	C136.5,222.6,132.2,220.5,127.7,220.5z"/>
</svg>
