<!-- Generated by IcoMoon.io -->
<svg version="1.1" xmlns="http://www.w3.org/2000/svg" width="32" height="32" viewBox="0 0 32 32">
<title>ITC</title>
<path d="M29.274 21.325v-10.662c0.947-0.358 1.434-1.421 1.062-2.381-0.269-0.717-0.96-1.19-1.728-1.19-0.461 0-0.896 0.166-1.229 0.474l-9.229-5.338c0.026-0.128 0.038-0.256 0.038-0.384 0-1.024-0.819-1.843-1.843-1.843s-1.843 0.819-1.843 1.843c0 0.102 0.013 0.205 0.026 0.294l-9.459 5.466c-0.742-0.704-1.907-0.678-2.611 0.064s-0.678 1.907 0.064 2.611c0.218 0.205 0.474 0.358 0.768 0.435v10.56c-0.973 0.282-1.549 1.306-1.267 2.278 0.23 0.794 0.947 1.344 1.779 1.331 0.371 0 0.742-0.115 1.037-0.32l4.902 2.829v0.051h0.115l4.659 2.688c0.026 1.024 0.87 1.83 1.882 1.805 1.024-0.026 1.83-0.87 1.805-1.882v0c0-0.051 0-0.090-0.013-0.141l9.549-5.248c0.896 0.486 2.010 0.166 2.496-0.73 0.154-0.269 0.23-0.576 0.23-0.896 0-0.755-0.474-1.446-1.19-1.715zM22.746 17.165v0l-0.013-0.038-0.013-0.102-0.218-0.102-1.382-0.832 1.446-0.87 0.23-0.102 0.013-0.55h0.013v-8.448l4.019 2.317c-0.051 0.166-0.064 0.333-0.077 0.499 0 0.883 0.627 1.638 1.485 1.805v10.496c-0.858 0.179-1.472 0.934-1.472 1.805 0 0.307 0.077 0.602 0.218 0.87l-4.25 2.33v-9.075zM16.346 3.686c0.499 0 0.973-0.205 1.306-0.55l4.147 2.394v8.96l-1.664 1.011-2.253-1.344c0.013-0.077 0.026-0.166 0.026-0.243 0-0.896-0.73-1.626-1.626-1.626s-1.626 0.73-1.626 1.626c0 0.102 0.013 0.205 0.026 0.307l-2.176 1.293-1.728-1.050v-8.96l4.198-2.432c0.346 0.397 0.845 0.614 1.37 0.614zM17.421 17.139c-0.627-0.614-1.626-0.627-2.266-0.038l-1.69-1.011 1.69-0.998c0.64 0.589 1.626 0.576 2.253-0.038l1.728 1.037-1.715 1.050zM5.491 23.757c0.397-0.934-0.051-2.022-0.986-2.406-0.064-0.026-0.128-0.051-0.192-0.064v-10.586c0.947-0.269 1.51-1.254 1.267-2.214l4.16-2.406v8.678h0.013v0.346l0.55 0.282 1.19 0.704-1.318 0.781-0.358 0.218-0.077 0.077-0.013 0.282v8.768l-4.237-2.458zM16.346 28.224c-0.653 0-1.254 0.333-1.587 0.896l-3.994-2.317v-9.126l1.702-0.998 2.202 1.318c-0.013 0.102-0.026 0.192-0.026 0.294 0 0.896 0.73 1.626 1.626 1.626s1.626-0.73 1.626-1.626c0-0.077-0.013-0.166-0.026-0.243l2.253-1.357 1.6 0.96v9.165l-3.917 2.15c-0.333-0.474-0.883-0.742-1.459-0.742z"></path>
</svg>
