<!-- Generated by IcoMoon.io -->
<svg version="1.1" xmlns="http://www.w3.org/2000/svg" width="32" height="32" viewBox="0 0 32 32">
<title>IXT</title>
<path d="M31.915 27.245c-0.31 0.042-0.48 0.085-0.649 0.085-2.794 0-5.573 0-8.367 0.014-0.367 0-0.649-0.113-0.917-0.381-1.905-1.919-3.824-3.81-5.728-5.714-0.282-0.282-0.437-0.31-0.748 0-1.862 1.877-3.767 3.725-5.644 5.601-0.282 0.282-0.564 0.409-0.959 0.395-2.751-0.042-5.517-0.056-8.268-0.085-0.127 0-0.254-0.028-0.48-0.056 0.183-0.212 0.31-0.353 0.437-0.494 3.4-3.4 6.787-6.801 10.201-10.201 0.325-0.325 0.31-0.522 0-0.832-2.145-2.116-4.261-4.261-6.392-6.392-1.298-1.298-2.596-2.596-3.894-3.894-0.113-0.099-0.198-0.212-0.367-0.409 0.254-0.028 0.409-0.042 0.564-0.042 2.751 0 5.517 0 8.268-0.014 0.381 0 0.649 0.113 0.917 0.381 1.877 1.877 3.767 3.725 5.63 5.616 0.325 0.325 0.494 0.282 0.79-0.014 1.862-1.891 3.753-3.753 5.616-5.63 0.268-0.268 0.536-0.381 0.917-0.381 2.822 0.014 5.63 0.014 8.451 0.014 0.155 0 0.31 0.028 0.593 0.056-0.183 0.226-0.296 0.381-0.423 0.508-3.443 3.429-6.885 6.871-10.356 10.3-0.296 0.296-0.282 0.451 0 0.748 3.457 3.429 6.885 6.871 10.328 10.314 0.141 0.127 0.254 0.268 0.48 0.508z"></path>
</svg>
