<?xml version="1.0" encoding="utf-8"?>
<!-- Generator: Adobe Illustrator 22.1.0, SVG Export Plug-In . SVG Version: 6.00 Build 0)  -->
<svg version="1.1" id="Layer_1" xmlns="http://www.w3.org/2000/svg" xmlns:xlink="http://www.w3.org/1999/xlink" x="0px" y="0px"
	 viewBox="0 0 226.8 226.8" style="enable-background:new 0 0 226.8 226.8;" xml:space="preserve">
<g>
	<path d="M226.2,193.1c-2.2,0.3-3.4,0.6-4.6,0.6c-19.8,0-39.5,0-59.3,0.1c-2.6,0-4.6-0.8-6.5-2.7c-13.5-13.6-27.1-27-40.6-40.5
		c-2-2-3.1-2.2-5.3,0c-13.2,13.3-26.7,26.4-40,39.7c-2,2-4,2.9-6.8,2.8c-19.5-0.3-39.1-0.4-58.6-0.6c-0.9,0-1.8-0.2-3.4-0.4
		c1.3-1.5,2.2-2.5,3.1-3.5c24.1-24.1,48.1-48.2,72.3-72.3c2.3-2.3,2.2-3.7,0-5.9c-15.2-15-30.2-30.2-45.3-45.3
		c-9.2-9.2-18.4-18.4-27.6-27.6C2.8,36.8,2.2,36,1,34.6c1.8-0.2,2.9-0.3,4-0.3c19.5,0,39.1,0,58.6-0.1c2.7,0,4.6,0.8,6.5,2.7
		C83.4,50.2,96.8,63.3,110,76.7c2.3,2.3,3.5,2,5.6-0.1c13.2-13.4,26.6-26.6,39.8-39.9c1.9-1.9,3.8-2.7,6.5-2.7
		c20,0.1,39.9,0.1,59.9,0.1c1.1,0,2.2,0.2,4.2,0.4c-1.3,1.6-2.1,2.7-3,3.6c-24.4,24.3-48.8,48.7-73.4,73c-2.1,2.1-2,3.2,0,5.3
		c24.5,24.3,48.8,48.7,73.2,73.1C223.8,190.4,224.6,191.4,226.2,193.1z"/>
</g>
</svg>
