<!-- Generated by IcoMoon.io -->
<svg version="1.1" xmlns="http://www.w3.org/2000/svg" width="32" height="32" viewBox="0 0 32 32">
<title>JBS</title>
<path d="M16.257 32.056s-0.129-1.083 0.451-2.114 1.044-1.173 1.869-2.062c0.825-0.889 1.444-1.508 1.869-1.65s1.225 0.051 1.727 0.051c0.503 0 1.147-0.309 1.869-0.116s0.515 0.992 0.967 1.572c0.451 0.58 1.482 1.186 2.011 1.16s0.644-0.696 0.98-0.812c0.335-0.116 1.108 0.103 1.663-0.193s0.735-0.967 0.979-1.495c0.245-0.528 0.863-1.057 0.863-1.598s-0.831-2.752-2.088-4.975c-1.257-2.224-2.745-3.944-3.209-4.717s-0.986-2.533-1.605-3.171c-0.619-0.638-1.218-0.412-1.566-0.915s0.387-4.363-2.977-7.804c-3.363-3.441-9.531-4.602-14.113-1.083s-5.761 7.888-4.93 11.638c0.831 3.751 3.847 8.584 9.918 9.067s7.656-4.601 7.714-5.549-0.58-1.566-0.58-1.566-0.174 3.171-3.325 3.847c-3.151 0.677-5.665-1.489-6.535-3.847s-0.638-4.795 0.677-6.283 4.292-2.687 5.819-0.097c-0.56-0.039-3.113 0.232-3.325 0.831s1.16 3.577 2.165 4.369c1.005 0.793 2.668 0.638 3.325 0.348-0.657-0.271-1.74-0.85-2.281-1.643s-0.735-1.489-0.464-1.856c0.271-0.367 3.828 0.309 3.828 0.309s1.141-2.59-1.431-5.065c-2.572-2.475-7.463-1.798-9.609 1.102s-2.436 7.791 1.025 11.368c-4.427-1.508-6.941-8.023-2.591-13.359 4.659-5.607 10.672-2.919 12.586-1.102s4.157 4.833 2.359 8.932c1.663 0.309 1.643 2.107 1.643 2.107s1.237-0.793 1.914-0.251c0.677 0.541 0.541 1.372 0.638 1.547s1.508 2.32 1.373 2.455c-0.135 0.135-1.334-1.295-2.455-2.088s-2.707-1.083-2.707-1.083 1.779 1.063 1.817 2.378c0.039 1.314-1.856 3.48-1.856 3.48s1.566-0.019 2.417-0.444c0.85-0.425 1.179-0.908 1.701-0.908s1.682 1.198 2.417 2.204 1.45 2.436 1.45 2.436l1.121-0.986s0.425 1.314-0.29 1.952c-0.715 0.638-2.474 0.561-2.474 0.561s-0.29-0.793-1.373-1.682c-1.083-0.889-1.914-1.45-1.914-1.45s-0.928 1.121-2.958 1.121-2.726-1.18-2.726-1.18-2.049 0.464-3.132 2.803c-1.083 2.339-0.638 3.692-0.271 4.215s0.902 1.108 1.63 1.289z"></path>
</svg>
