<!-- Generated by IcoMoon.io -->
<svg version="1.1" xmlns="http://www.w3.org/2000/svg" width="32" height="32" viewBox="0 0 32 32">
<title>JNT</title>
<path d="M30.118 19.558c-3.162 2.995-6.387 3.2-10.099 1.933-0.064 0.883-0.115 1.677-0.166 2.47-0.179 3.341-1.882 5.722-4.813 7.155-2.97 1.446-5.875 1.088-8.589-0.806-0.358-0.256-0.742-0.461-1.203-0.73 1.267-1.267 2.227-2.227 3.046-3.046 1.178 0.32 2.189 0.781 3.213 0.832 2.189 0.102 3.725-1.344 3.814-3.546 0.102-2.586 0.090-5.184 0.102-7.77 0.013-4.544 0-9.088 0.013-13.632 0-0.73 0.064-1.446 0.115-2.381 1.242 0 2.394-0.013 3.546 0 1.050 0.013 0.768 0.819 0.781 1.395 0.064 4.16 0.077 8.307 0.166 12.467 0.064 3.213 3.072 4.928 5.888 3.315 0.781-0.448 1.178-0.307 1.741 0.243 0.73 0.678 1.536 1.306 2.445 2.099z"></path>
</svg>
