<?xml version="1.0" encoding="utf-8"?>
<!-- Generator: Adobe Illustrator 22.1.0, SVG Export Plug-In . SVG Version: 6.00 Build 0)  -->
<svg version="1.1" id="Layer_1" xmlns="http://www.w3.org/2000/svg" xmlns:xlink="http://www.w3.org/1999/xlink" x="0px" y="0px"
	 viewBox="0 0 250 250" style="enable-background:new 0 0 250 250;" xml:space="preserve">
<g>
	<path d="M235.3,152.8c-24.7,23.4-49.9,25-78.9,15.1c-0.5,6.9-0.9,13.1-1.3,19.3c-1.4,26.1-14.7,44.7-37.6,55.9
		c-23.2,11.3-45.9,8.5-67.1-6.3c-2.8-2-5.8-3.6-9.4-5.7c9.9-9.9,17.4-17.4,23.8-23.8c9.2,2.5,17.1,6.1,25.1,6.5
		c17.1,0.8,29.1-10.5,29.8-27.7c0.8-20.2,0.7-40.5,0.8-60.7c0.1-35.5,0-71,0.1-106.5c0-5.7,0.5-11.3,0.9-18.6c9.7,0,18.7-0.1,27.7,0
		c8.2,0.1,6,6.4,6.1,10.9c0.5,32.5,0.6,64.9,1.3,97.4c0.5,25.1,24,38.5,46,25.9c6.1-3.5,9.2-2.4,13.6,1.9
		C221.9,141.7,228.2,146.6,235.3,152.8z"/>
</g>
</svg>
