<!-- Generated by IcoMoon.io -->
<svg version="1.1" xmlns="http://www.w3.org/2000/svg" width="32" height="32" viewBox="0 0 32 32">
<title>JUBICOM</title>
<path d="M30.547 18.356c-0.578 0.325-0.564 0.325-0.931-0.24-0.127-0.198-0.31-0.367-0.451-0.564-0.141 0.198-0.282 0.395-0.409 0.607-0.254 0.423-0.494 0.861-0.762 1.298-0.155 0.254-0.325 0.282-0.522 0.028-0.085-0.099-0.155-0.212-0.254-0.296-0.31-0.296-0.296-0.578-0.042-0.903 0.113-0.141 0.183-0.325 0.31-0.578-0.691 0.409-0.691 0.409-1.157-0.226-0.071-0.085-0.141-0.169-0.268-0.31-0.099 0.183-0.183 0.31-0.254 0.437-0.254 0.494-0.494 0.988-0.776 1.467-0.226 0.395-0.353 0.381-0.635 0.042-0.113-0.127-0.226-0.24-0.339-0.367-0.042 0.014-0.085 0.014-0.127 0.028 0 0.423 0 0.847 0 1.27 0 0.649-0.451 0.931-1.058 0.649-0.085-0.042-0.169-0.169-0.183-0.268-0.028-0.183-0.014-0.367-0.014-0.55 0-2.864 0-5.714 0-8.578 0-0.621 0.028-0.649 0.649-0.649 2.695 0 5.404 0 8.099 0 0.508 0 0.578 0.056 0.578 0.564 0 2.695 0 5.404 0 8.099 0 0.875-0.353 1.242-1.213 1.34-0.085 0.014-0.183 0.014-0.282 0.014-0.974 0.028-0.988 0.014-1.185-0.931-0.056-0.268 0.028-0.381 0.296-0.367 0.085 0 0.155 0.014 0.24 0.028 0.748 0.071 1.002-0.282 0.691-1.044zM30.589 17.143c0.028-0.155 0.071-0.254 0.071-0.353 0-1.467-0.014-2.921 0-4.388 0-0.353-0.141-0.48-0.494-0.48-1.227 0.014-2.455 0-3.668 0-0.691 0-1.369-0.014-2.060 0.014-0.155 0-0.423 0.127-0.437 0.226-0.042 0.451-0.014 0.903-0.014 1.397 0.113-0.028 0.169-0.028 0.198-0.071 0.282-0.296 0.522-0.212 0.762 0.071 0.169 0.198 0.353 0.381 0.578 0.635 0.085-0.212 0.155-0.339 0.183-0.48 0.071-0.339 0.113-0.677 0.183-1.016 0.028-0.113 0.113-0.325 0.169-0.31 0.325 0.028 0.663 0.042 0.945 0.183 0.099 0.042 0.085 0.395 0.085 0.593s-0.056 0.395-0.099 0.677c0.169-0.085 0.24-0.113 0.296-0.155 0.48-0.381 0.536-0.381 0.931 0.113 0.155 0.183 0.296 0.381 0.437 0.564 0.042-0.014 0.085-0.014 0.127-0.028 0.099-0.395 0.198-0.804 0.282-1.199 0.155-0.762 0.155-0.748 0.917-0.663 0.353 0.042 0.466 0.183 0.395 0.508-0.169 0.776-0.325 1.538-0.494 2.314-0.169 0.635 0.099 1.397 0.705 1.848zM26.991 14.222c-0.042 0.014-0.085 0.014-0.127 0.028-0.099 0.409-0.198 0.832-0.282 1.242-0.014 0.071 0.028 0.183 0.085 0.254 0.282 0.423 0.564 0.832 0.847 1.242 0.113 0.169 0.226 0.183 0.367 0 0.423-0.621 0.437-0.974 0-1.58-0.282-0.395-0.593-0.79-0.889-1.185zM23.986 18.159c0.113-0.099 0.183-0.141 0.212-0.198 0.296-0.663 0.593-1.312 0.875-1.975 0.028-0.071 0.042-0.183 0-0.226-0.31-0.437-0.635-0.875-0.959-1.312-0.042 0.028-0.085 0.042-0.141 0.071 0.014 1.185 0.014 2.384 0.014 3.64z"></path>
<path d="M8.635 15.323c-0.028 0.071-0.042 0.085-0.028 0.099 0.296 0.691 0.296 0.691-0.451 0.903-0.296 0.085-0.607 0.169-0.903 0.268-0.325 0.113-0.24 0.339-0.127 0.536 0.127 0.198 0.198 0.578 0.564 0.339 0.31-0.198 0.607-0.423 0.875-0.677 0.226-0.198 0.395-0.183 0.55 0.056 0.014 0.028 0.028 0.042 0.042 0.071 0.451 0.578 0.437 0.607-0.155 1.030-0.141 0.099-0.282 0.198-0.423 0.282-0.296 0.183-0.268 0.367 0.014 0.522 0.395 0.24 0.79 0.466 1.199 0.677 0.24 0.127 0.282 0.254 0.141 0.494-0.423 0.776-0.451 0.804-1.213 0.353-1.242-0.72-2.215-1.693-2.751-3.048-0.042-0.085-0.099-0.169-0.24-0.24-0.028 0.155-0.056 0.31-0.071 0.466 0 0.917 0 1.848 0 2.765 0 0.466-0.071 0.508-0.621 0.508-0.536 0-0.607-0.056-0.621-0.522-0.014-0.847 0-1.693 0-2.526 0-0.593-0.042-0.635-0.621-0.621-0.169 0-0.325 0.028-0.578 0.042 0.353 0.367 0.127 0.564-0.127 0.705-0.649 0.367-1.312 0.734-1.975 1.058-0.339 0.155-0.988-0.395-0.903-0.762 0.028-0.113 0.212-0.198 0.353-0.254 0.423-0.183 0.861-0.353 1.298-0.607-0.564-0.014-0.776-0.339-0.875-0.776-0.071-0.296 0.014-0.423 0.31-0.451 1.086-0.071 2.173-0.141 3.273-0.226 0.296-0.028 0.607-0.042 0.903-0.099 0.099-0.014 0.282-0.155 0.282-0.183-0.056-0.155-0.127-0.339-0.24-0.423-0.183-0.127-0.635 0.085-0.72 0.296-0.169 0.409-0.804 0.508-1.129 0.169-0.099-0.099-0.268-0.183-0.395-0.169-0.861 0.056-1.735 0.141-2.596 0.226-0.466 0.042-0.593-0.042-0.649-0.466-0.056-0.451 0.028-0.578 0.48-0.621 0.31-0.042 0.437-0.183 0.423-0.494-0.014-0.635 0-1.27 0-1.891 0-0.268-0.085-0.423-0.381-0.451-0.423-0.042-0.381-0.367-0.381-0.663 0-0.325 0.226-0.367 0.494-0.367 1.481 0 2.949 0 4.43 0.014 0.141 0 0.296 0.127 0.437 0.183s0.282 0.113 0.437 0.113c1.086 0.014 2.187 0 3.287 0.014 0.466 0 0.621 0.113 0.508 0.564-0.141 0.564-0.395 1.101-0.663 1.623-0.31 0.621-0.339 0.593 0.169 1.044 0.014 0.014 0.014 0.014 0.028 0.028 0.635 0.55 0.621 0.564 0.028 1.143-0.268 0.254-0.451 0.169-0.691-0.056zM5.122 11.626c-0.113 0.141-0.31 0.282-0.31 0.437-0.042 0.536-0.042 1.072-0.042 1.608 0 0.24 0.127 0.339 0.367 0.381 0.127 0.014 0.31 0.099 0.339 0.198 0.099 0.31 0.268 0.282 0.48 0.169 0.198-0.099 0.409-0.198 0.593-0.31 0.226-0.141 0.24-0.31 0.014-0.451-0.254-0.183-0.536-0.325-0.79-0.508-0.099-0.071-0.212-0.198-0.212-0.282 0.056-0.437 0.748-0.72 1.115-0.48 0.198 0.127 0.395 0.254 0.593 0.381 0.437 0.268 0.508 0.254 0.776-0.183 0.226-0.367 0.169-0.48-0.282-0.494-0.494 0-1.002 0-1.496 0-0.268 0-0.55 0.014-0.72-0.282-0.071-0.071-0.212-0.099-0.423-0.183zM7.055 15.252c0.014 0.042 0.042 0.071 0.056 0.113 0.268-0.071 0.55-0.113 0.818-0.212 0.099-0.042 0.155-0.183 0.24-0.282-0.141-0.028-0.31-0.141-0.409-0.085-0.254 0.127-0.466 0.31-0.705 0.466zM3.499 14.265c-0.325-0.296-1.044-0.268-1.256 0.071 0.409-0.028 0.832-0.042 1.256-0.071zM3.485 13.051c0-0.042 0-0.085 0-0.127-0.409 0-0.818 0-1.228 0 0 0.042 0 0.085 0 0.127 0.409 0 0.818 0 1.228 0zM2.272 11.753c0 0.042 0 0.071 0 0.113 0.395 0 0.804 0 1.199 0 0-0.042 0-0.071 0-0.113-0.395 0-0.79 0-1.199 0z"></path>
<path d="M11.866 16.423c0-0.748 0-1.496 0-2.258 0-0.635 0.028-0.663 0.677-0.663 0.832 0 1.665 0.014 2.483-0.014 0.155 0 0.423-0.113 0.437-0.212 0.042-0.282 0-0.593-0.056-0.875-0.014-0.056-0.282-0.071-0.437-0.071-0.974 0.014-1.947 0.028-2.921 0.042-0.451 0-0.931-0.663-0.776-1.072 0.028-0.071 0.141-0.141 0.226-0.169 0.127-0.028 0.268-0.014 0.395-0.014 1.453-0.056 2.921-0.056 4.374-0.183 1.213-0.099 2.413-0.353 3.626-0.55 0.296-0.056 0.522-0.014 0.649 0.282 0.056 0.113 0.141 0.226 0.198 0.339 0.212 0.395 0.155 0.522-0.268 0.593-1.016 0.169-2.018 0.31-3.034 0.494-0.183 0.028-0.48 0.155-0.494 0.282-0.056 0.325-0.014 0.677 0.056 1.002 0.014 0.071 0.296 0.127 0.451 0.127 0.832 0.014 1.665 0 2.483 0 0.494 0 0.522 0.056 0.522 0.55 0 1.242 0.014 2.483 0.014 3.711 0 0.268-0.028 0.522-0.071 0.79-0.085 0.48-0.395 0.762-0.889 0.79-0.183 0.014-0.367 0.014-0.55 0.014-0.818 0.014-0.988-0.141-1.044-0.959-0.014-0.226 0.056-0.325 0.282-0.325 0.014 0 0.028 0 0.042 0 1.058 0.085 0.903-0.226 0.917-0.959 0-0.607-0.014-1.213 0-1.82 0-0.353-0.141-0.508-0.494-0.508-0.395 0.014-0.79-0.014-1.185-0.014-0.508 0-0.607 0.071-0.607 0.593 0 1.552 0 3.104-0.014 4.67 0 0.212-0.071 0.593-0.183 0.621-0.325 0.085-0.691 0.042-1.044 0.014-0.056 0-0.127-0.212-0.127-0.325-0.014-1.467-0.014-2.921-0.014-4.388 0-1.383-0.014-1.129-1.115-1.157-0.212 0-0.423 0-0.635 0-0.466 0.014-0.564 0.085-0.564 0.564-0.014 1.129 0 2.272 0.014 3.4 0.014 0.564-0.042 0.635-0.621 0.635-0.099 0-0.183 0-0.282 0-0.339 0.014-0.48-0.141-0.48-0.466 0.056-0.818 0.056-1.665 0.056-2.511 0 0 0 0 0 0z"></path>
<path d="M4.289 18.737c-0.042 0.056-0.085 0.127-0.141 0.183-0.889 0.776-1.919 1.27-3.034 1.623-0.127 0.042-0.367-0.042-0.437-0.141-0.155-0.212-0.24-0.48-0.325-0.734-0.014-0.028 0.141-0.141 0.24-0.155 0.917-0.24 1.735-0.649 2.511-1.199 0.296-0.212 0.988-0.028 1.143 0.31 0.014 0.028 0.014 0.056 0.042 0.113z"></path>
</svg>
