<?xml version="1.0" encoding="utf-8"?>
<!-- Generator: Adobe Illustrator 22.0.1, SVG Export Plug-In . SVG Version: 6.00 Build 0)  -->
<svg version="1.1" id="Layer_1" xmlns="http://www.w3.org/2000/svg" xmlns:xlink="http://www.w3.org/1999/xlink" x="0px" y="0px"
	 viewBox="0 0 226.8 226.8" style="enable-background:new 0 0 226.8 226.8;" xml:space="preserve">
<style type="text/css">
	.st0{stroke:#FFFFFF;stroke-miterlimit:10;}
</style>
<g>
	<path class="st0" d="M184.4,138.2l-42.2,42l-67.4-66.6L142.1,47l42.3,42.1c7.5,7.4,19.6,7.4,27.1-0.1c7.4-7.5,7.4-19.6-0.1-27.1
		L155.8,6.6c-7.5-7.4-19.6-7.4-27.1,0.1c0,0-1.4,1.1-2,1.7L49.3,85V39.2c0-10.6-8.6-19.1-19.1-19.1S11.1,28.7,11,39.2V188
		c0,10.6,8.6,19.1,19.1,19.1s19.1-8.6,19.1-19.1v-45.9l77.4,76.6c0.3,0.3,1.6,1.6,2,2c7.4,7.5,19.6,7.5,27.1,0.1l55.6-55.4
		c7.5-7.4,7.5-19.6,0.1-27.1C204,130.8,191.9,130.8,184.4,138.2z"/>
	<circle class="st0" cx="142.4" cy="113.7" r="19.3"/>
</g>
</svg>
