<!-- Generated by IcoMoon.io -->
<svg version="1.1" xmlns="http://www.w3.org/2000/svg" width="32" height="32" viewBox="0 0 32 32">
<title>KEEPKEY</title>
<path d="M7.45 7.224c0 0.437 0 0.804 0 1.227-0.861-0.099-1.171 0.564-1.594 1.058-1.143 1.298-1.143 1.298-0.099 2.653 0.183 0.226 0.324 0.48 0.536 0.677 0.31 0.296 0.663 0.55 1.002 0.818 0.042-0.042 0.099-0.085 0.141-0.127 0 0.395 0 0.776 0 1.185-0.917 0.169-1.665 0.127-2.187-0.79-0.367-0.649-0.959-1.185-1.369-1.82-0.381-0.564-0.889-0.409-1.383-0.367-0.085 0-0.212 0.268-0.212 0.409-0.014 2.455-0.014 4.924 0 7.379 0 0.155 0.169 0.466 0.24 0.451 0.423-0.042 0.959-0.014 1.228-0.254 0.663-0.593 1.199-1.312 1.806-1.989 0.353-0.395 1.256-0.621 1.707-0.409 0.113 0.056 0.198 0.226 0.212 0.353 0.028 0.282 0.014 0.578 0.014 0.903-1.143-0.042-1.453 0.945-2.046 1.552-0.748 0.776-0.72 0.818-0.071 1.651 0.31 0.409 0.607 0.832 0.945 1.213 0.282 0.296 0.635 0.536 0.959 0.79 0.056-0.042 0.099-0.085 0.155-0.113 0 0.395 0 0.776 0 1.199-0.804 0.127-1.538 0.212-2.074-0.677-0.423-0.705-1.030-1.298-1.496-1.975-0.381-0.55-0.903-0.367-1.397-0.325-0.085 0-0.198 0.31-0.198 0.48-0.014 0.818-0.014 1.651-0.014 2.511-0.55 0-1.030 0-1.594 0 0-0.31 0-0.593 0-0.875 0-6.109 0-12.205 0-18.314 0-0.452 0.014-0.832-0.508-1.129-0.212-0.113-0.198-0.72-0.169-1.086 0.014-0.141 0.325-0.339 0.522-0.367 1.157-0.198 1.735 0.296 1.735 1.467 0 1.453-0.014 2.907 0.014 4.36 0 0.282 0.085 0.776 0.212 0.804 0.451 0.099 0.959 0.226 1.355-0.268 0.452-0.55 1.002-1.030 1.397-1.623 0.593-0.804 1.354-0.79 2.229-0.635z"></path>
<path d="M26.723 14.053c0 0.861 0 1.594 0 2.328s0 1.467 0 2.243c-0.55 0-1.030 0-1.594 0 0-0.254 0-0.494 0-0.734 0-2.765 0-5.545 0-8.31 0-0.437-0.085-0.762-0.466-1.101-0.226-0.198-0.198-0.762-0.155-1.157 0.014-0.113 0.423-0.268 0.649-0.282 0.705-0.042 1.199 0.296 1.411 1.030 1.016-0.903 2.131-1.242 3.386-0.945 1.227 0.296 1.905 1.143 1.947 2.399 0.028 0.804-0.014 1.608 0.014 2.413 0.042 1.115-0.296 2.032-1.326 2.582-1.115 0.593-2.229 0.536-3.316-0.099-0.071-0.042-0.141-0.113-0.212-0.155-0.056-0.056-0.141-0.099-0.339-0.212zM30.279 11.062c0 0 0 0 0 0 0-0.353 0.014-0.72 0-1.072-0.028-0.959-0.593-1.481-1.58-1.51-1.086-0.028-1.919 0.578-1.961 1.481-0.028 0.607-0.014 1.199-0.014 1.806 0.014 1.101 0.72 1.707 1.933 1.693 1.086-0.014 1.608-0.55 1.623-1.665 0-0.24 0-0.48 0-0.734z"></path>
<path d="M16.945 18.709c-0.282-0.028-0.48-0.056-0.72-0.085-0.014-0.212-0.028-0.409-0.056-0.593-0.071-0.522 0.141-0.691 0.677-0.691 1.721 0 1.721-0.014 1.707 1.721 0 0.988-0.014 1.975 0 2.949 0.014 1.058 0.564 1.552 1.665 1.538 1.157-0.014 1.834-0.578 1.848-1.566 0.014-1.002 0-2.018 0-3.019 0-0.071-0.028-0.127-0.042-0.24-0.198-0.042-0.409-0.085-0.635-0.127 0-0.395 0-0.762 0-1.242 0.677 0 1.34-0.028 2.004 0.028 0.127 0.014 0.325 0.296 0.325 0.451 0.014 3.358 0.042 6.716-0.014 10.060 0 0.339-0.339 0.847-0.649 0.974-0.437 0.169-1.002 0.113-1.481 0-0.325-0.071-0.226-1.171 0.071-1.397 0.183-0.141 0.437-0.325 0.437-0.508 0.042-0.903 0.014-1.82 0.014-2.695-0.748 0.254-1.397 0.593-2.088 0.705-1.778 0.282-3.005-0.79-3.062-2.582-0.014-0.607 0-1.213 0-1.806 0-0.635 0-1.227 0-1.877z"></path>
<path d="M18.229 11.541c0.056 1.919 1.848 2.384 4.332 1.185 0.226 0.339 0.451 0.691 0.677 1.030-0.945 1.002-3.372 1.496-4.713 0.931-1.453-0.607-1.877-1.877-1.961-3.316-0.028-0.423 0-0.847 0.071-1.27 0.437-2.483 2.667-3.739 5.037-2.85 1.355 0.508 2.342 2.511 1.891 3.965-0.042 0.141-0.353 0.296-0.55 0.296-1.34 0.028-2.681 0.014-4.021 0.014-0.24 0.014-0.48 0.014-0.762 0.014zM21.982 10.384c0.127-1.157-0.409-1.806-1.467-1.877-1.213-0.085-2.215 0.705-2.286 1.834 0.155 0.014 0.296 0.042 0.451 0.042 1.086 0 2.173 0 3.302 0z"></path>
<path d="M10.215 21.771c0.056 1.919 1.778 2.37 4.332 1.227 0.226 0.339 0.451 0.677 0.677 1.016-1.101 1.101-3.683 1.538-4.966 0.804-1.623-0.931-1.806-2.497-1.665-4.148 0.141-1.707 0.988-2.808 2.399-3.217 1.82-0.522 3.527-0.014 4.12 1.397 0.325 0.776 0.339 1.679 0.423 2.54 0.014 0.099-0.339 0.353-0.536 0.367-1.34 0.028-2.681 0.014-4.021 0.014-0.24 0-0.48 0-0.762 0zM13.996 20.557c0.056-1.143-0.395-1.721-1.383-1.792-1.34-0.099-2.286 0.593-2.384 1.792 1.242 0 2.469 0 3.767 0z"></path>
<path d="M15.337 11.541c-0.903 0-1.764 0-2.638 0-0.861 0-1.735 0-2.596 0 0.014 1.862 1.735 2.342 4.317 1.213 0.226 0.325 0.451 0.663 0.691 1.002-1.115 1.115-3.668 1.566-4.966 0.818-1.608-0.903-1.82-2.455-1.693-4.078 0.141-1.707 0.974-2.85 2.342-3.273 2.949-0.917 5.249 1.213 4.543 4.317zM10.018 10.384c1.171 0 2.229-0.028 3.302 0.014 0.621 0.028 0.705-0.268 0.536-0.734-0.099-0.282-0.24-0.607-0.466-0.776-0.635-0.508-1.369-0.48-2.088-0.198-0.72 0.268-1.129 0.804-1.284 1.693z"></path>
</svg>
