<!-- Generated by IcoMoon.io -->
<svg version="1.1" xmlns="http://www.w3.org/2000/svg" width="32" height="32" viewBox="0 0 32 32">
<title>KENETIC-CAPITAL</title>
<path d="M11.937 25.101c-0.071-0.014-0.099 0-0.127-0.014-0.099-0.042-0.155-0.042-0.212 0.085-0.014 0.056-0.141 0.099-0.198 0.085s-0.141-0.099-0.155-0.155c0-0.071 0.042-0.183 0.099-0.226 0.085-0.071 0.099-0.127 0.085-0.226-0.042-0.226 0.028-0.409 0.226-0.536 0.085-0.042 0.141-0.099 0.155-0.198 0-0.056 0.085-0.141 0.127-0.127 0.071 0.014 0.183 0.085 0.169 0.113-0.028 0.155 0.085 0.183 0.155 0.254 0.282 0.268 0.212 0.72-0.127 0.889-0.056 0.028-0.155 0.042-0.198 0.056z"></path>
<path d="M7.619 20.854c-0.056-0.028-0.169-0.056-0.254-0.113-0.071-0.042-0.085-0.028-0.141 0.028-0.113 0.113-0.24 0.113-0.325 0.042-0.113-0.113-0.085-0.268 0.071-0.339 0.099-0.042 0.141-0.099 0.169-0.212 0.056-0.226 0.183-0.409 0.437-0.437 0.071-0.014 0.141-0.014 0.198 0 0.141 0.042 0.282 0.099 0.423 0.155 0.141 0.071 0.155 0.155 0.071 0.296-0.042 0.085-0.085 0.183-0.127 0.268-0.085 0.198-0.24 0.296-0.522 0.31z"></path>
<path d="M25.016 20.628c0 0.113-0.127 0.24-0.226 0.212-0.169-0.056-0.31-0.014-0.466 0-0.24 0.014-0.395-0.113-0.508-0.31-0.056-0.099-0.071-0.212-0.183-0.296s-0.042-0.268 0.085-0.268c0.141 0 0.212-0.071 0.325-0.113 0.31-0.113 0.635-0.056 0.762 0.31 0.042 0.141 0.056 0.296 0.183 0.395 0.014 0.014 0.014 0.056 0.028 0.071z"></path>
<path d="M20.84 24.607c0 0.014 0 0.099-0.028 0.155-0.071 0.113-0.085 0.169 0.028 0.268s0.071 0.226-0.042 0.296c-0.113 0.071-0.226 0.056-0.268-0.071-0.056-0.141-0.127-0.169-0.254-0.183-0.395-0.085-0.564-0.48-0.367-0.832 0.028-0.056 0.071-0.127 0.099-0.183 0.099-0.155 0.127-0.169 0.296-0.085 0.113 0.056 0.24 0.099 0.353 0.169 0.155 0.127 0.183 0.198 0.183 0.466z"></path>
<path d="M11.556 7.266c0.099-0.028 0.198-0.056 0.296-0.071 0.395-0.042 0.663 0.282 0.536 0.72-0.056 0.198-0.226 0.325-0.409 0.423-0.155-0.099-0.353-0.155-0.466-0.296-0.141-0.155-0.169-0.381-0.071-0.593 0.028-0.056 0.071-0.127 0.113-0.183 0 0 0 0 0 0z"></path>
<path d="M16.226 30.801c0.296 0 0.536 0.24 0.55 0.536 0 0.296-0.24 0.55-0.536 0.55s-0.536-0.254-0.536-0.55c0.014-0.296 0.24-0.536 0.522-0.536z"></path>
<path d="M16.155 7.21c0.296 0 0.536 0.226 0.55 0.522s-0.24 0.55-0.522 0.55c-0.296 0-0.494-0.198-0.508-0.508 0-0.353 0.169-0.564 0.48-0.564z"></path>
<path d="M16.72 24.522c0 0.296-0.24 0.564-0.508 0.564-0.282 0-0.522-0.254-0.522-0.564s0.198-0.522 0.494-0.522c0.325 0 0.522 0.198 0.536 0.522z"></path>
<path d="M31.52 31.45c0 0.282-0.24 0.536-0.494 0.55-0.296 0-0.55-0.254-0.55-0.564s0.198-0.522 0.494-0.508c0.325 0 0.536 0.226 0.55 0.522z"></path>
<path d="M16.72 0.762c0 0.296-0.254 0.564-0.536 0.55-0.268-0.014-0.494-0.282-0.494-0.55 0-0.282 0.24-0.536 0.508-0.536 0.325 0 0.522 0.212 0.522 0.536z"></path>
<path d="M9.016 0.734c0 0.31-0.183 0.522-0.494 0.522-0.325 0-0.536-0.198-0.536-0.508 0-0.296 0.212-0.55 0.48-0.564 0.282-0.014 0.536 0.24 0.55 0.55z"></path>
<path d="M24.776 24.578c0.028 0.296-0.282 0.522-0.508 0.522-0.296 0-0.522-0.24-0.522-0.55s0.198-0.536 0.494-0.536c0.296 0 0.536 0.254 0.536 0.564z"></path>
<path d="M24.818 7.732c-0.014 0.282-0.268 0.55-0.536 0.55-0.282 0-0.522-0.268-0.522-0.55 0.014-0.296 0.268-0.522 0.55-0.522s0.508 0.24 0.508 0.522z"></path>
<path d="M20.317 7.21c0.254-0.056 0.522 0.296 0.522 0.508 0 0.268-0.268 0.55-0.522 0.564-0.268 0.014-0.522-0.254-0.522-0.55-0.028-0.296 0.212-0.522 0.522-0.522z"></path>
<path d="M30.547 0.705c0-0.339 0.198-0.522 0.508-0.536 0.296-0.014 0.522 0.282 0.522 0.508 0 0.296-0.254 0.564-0.55 0.564-0.296-0.014-0.48-0.212-0.48-0.536z"></path>
<path d="M24.79 11.781c0 0.339-0.169 0.522-0.522 0.522-0.268 0-0.578-0.254-0.564-0.48 0.014-0.254 0.325-0.55 0.593-0.55 0.296-0.014 0.494 0.198 0.494 0.508z"></path>
<path d="M31.52 8.014c0 0.296-0.24 0.578-0.508 0.564-0.31-0.014-0.536-0.282-0.522-0.522 0.028-0.296 0.226-0.536 0.522-0.55 0.296 0 0.508 0.198 0.508 0.508z"></path>
<path d="M24.353 31.351c0 0.325-0.183 0.536-0.494 0.536-0.296 0-0.536-0.24-0.536-0.536 0-0.282 0.254-0.564 0.508-0.536 0.31 0.014 0.578 0.268 0.522 0.536z"></path>
<path d="M0.861 30.928c0.268 0 0.508 0.254 0.508 0.536 0 0.296-0.254 0.536-0.536 0.536-0.296 0-0.494-0.226-0.494-0.536 0-0.325 0.212-0.55 0.522-0.536z"></path>
<path d="M0.804 24.127c-0.268 0-0.522-0.24-0.522-0.508s0.254-0.508 0.522-0.522c0.325 0 0.55 0.198 0.55 0.508 0.014 0.254-0.282 0.55-0.55 0.522z"></path>
<path d="M8.226 24.536c0 0.296-0.24 0.55-0.522 0.55-0.268 0-0.508-0.254-0.508-0.536 0-0.296 0.254-0.55 0.536-0.55 0.296 0.014 0.494 0.226 0.494 0.536z"></path>
<path d="M31.012 16.296c-0.325 0-0.522-0.183-0.522-0.522 0-0.31 0.183-0.508 0.494-0.508s0.522 0.183 0.536 0.48c0 0.339-0.198 0.55-0.508 0.55z"></path>
<path d="M24.268 16.48c-0.339 0-0.522-0.169-0.522-0.48 0-0.325 0.198-0.55 0.508-0.55 0.395 0.014 0.536 0.268 0.522 0.536 0 0.325-0.169 0.494-0.508 0.494z"></path>
<path d="M1.369 15.788c0 0.324-0.212 0.522-0.536 0.508-0.31 0-0.494-0.212-0.494-0.522 0-0.325 0.212-0.522 0.536-0.508 0.296 0.014 0.494 0.212 0.494 0.522z"></path>
<path d="M8.226 15.972c0 0.31-0.198 0.508-0.508 0.508-0.324 0-0.522-0.198-0.522-0.522 0-0.31 0.198-0.508 0.508-0.508 0.324 0 0.522 0.212 0.522 0.522z"></path>
<path d="M31.041 24.127c-0.296 0-0.55-0.24-0.55-0.522 0-0.31 0.198-0.494 0.508-0.508 0.325-0.028 0.536 0.254 0.564 0.508 0.014 0.268-0.24 0.508-0.522 0.522z"></path>
<path d="M1.312 0.748c0.014 0.254-0.141 0.494-0.508 0.508-0.282 0-0.522-0.268-0.522-0.564 0-0.268 0.268-0.522 0.522-0.522 0.268 0.014 0.508 0.268 0.508 0.578z"></path>
<path d="M8.536 31.887c-0.325 0-0.536-0.198-0.55-0.508 0-0.268 0.254-0.508 0.522-0.522 0.31-0.028 0.522 0.24 0.536 0.494 0.028 0.282-0.226 0.536-0.508 0.536z"></path>
<path d="M0.818 7.506c0.296 0 0.536 0.24 0.55 0.536 0 0.296-0.226 0.55-0.536 0.536-0.254-0.014-0.522-0.24-0.508-0.536 0.028-0.325 0.198-0.536 0.494-0.536z"></path>
<path d="M7.182 11.795c0-0.339 0.183-0.522 0.522-0.522 0.268 0 0.508 0.24 0.522 0.522 0.014 0.31-0.198 0.508-0.536 0.508-0.324 0-0.494-0.183-0.508-0.508z"></path>
<path d="M8.226 7.76c0 0.268-0.24 0.522-0.48 0.522-0.296 0-0.55-0.268-0.536-0.578 0-0.254 0.254-0.508 0.508-0.508 0.268 0.014 0.508 0.268 0.508 0.564z"></path>
<path d="M23.323 0.818c0-0.325 0.24-0.593 0.522-0.578 0.254 0 0.508 0.296 0.508 0.578 0 0.254-0.24 0.466-0.522 0.48s-0.508-0.198-0.508-0.48z"></path>
<path d="M15.69 9.227c0-0.296 0.183-0.494 0.451-0.494 0.254 0 0.451 0.212 0.451 0.466 0.014 0.282-0.198 0.494-0.451 0.494-0.254-0.014-0.451-0.212-0.451-0.466z"></path>
<path d="M15.746 29.898c0-0.282 0.198-0.494 0.452-0.494s0.451 0.212 0.451 0.466c0 0.282-0.212 0.494-0.466 0.494-0.24 0-0.437-0.212-0.437-0.466z"></path>
<path d="M8.282 23.549c0-0.282 0.183-0.494 0.437-0.508s0.466 0.212 0.466 0.48c0 0.268-0.212 0.48-0.48 0.48-0.226 0-0.423-0.212-0.423-0.451z"></path>
<path d="M8.959 12.966c-0.268 0-0.494-0.198-0.494-0.451s0.212-0.451 0.451-0.451c0.296 0 0.48 0.169 0.48 0.451 0.014 0.282-0.183 0.451-0.437 0.451z"></path>
<path d="M23.69 23.549c0 0.254-0.212 0.451-0.451 0.451-0.254 0-0.466-0.226-0.451-0.494 0.014-0.296 0.198-0.437 0.451-0.451 0.268-0.014 0.451 0.198 0.451 0.494z"></path>
<path d="M22.998 12.966c-0.226 0.014-0.409-0.155-0.437-0.451-0.028-0.254 0.212-0.48 0.494-0.466 0.268 0.014 0.466 0.212 0.451 0.466-0.014 0.268-0.226 0.451-0.508 0.451z"></path>
<path d="M9.608 16.014c0 0.254-0.198 0.451-0.451 0.466-0.268 0.014-0.522-0.212-0.494-0.466 0.028-0.24 0.155-0.437 0.48-0.451 0.254 0.014 0.466 0.198 0.466 0.451z"></path>
<path d="M1.877 29.954c0.31 0.014 0.452 0.212 0.452 0.494 0 0.226-0.254 0.466-0.48 0.451-0.24 0-0.48-0.254-0.466-0.494 0.014-0.198 0.282-0.508 0.494-0.451z"></path>
<path d="M30.18 8.691c0 0.268-0.212 0.508-0.466 0.494s-0.451-0.212-0.437-0.48c0-0.268 0.198-0.466 0.451-0.48 0.24 0.014 0.451 0.212 0.451 0.466z"></path>
<path d="M30.476 1.735c0 0.254-0.212 0.494-0.451 0.48-0.31-0.028-0.466-0.212-0.451-0.494 0.014-0.268 0.212-0.466 0.466-0.452 0.254 0 0.451 0.212 0.437 0.466z"></path>
<path d="M23.45 19.725c0 0.254-0.212 0.451-0.466 0.451-0.254-0.014-0.437-0.212-0.437-0.48 0-0.282 0.169-0.437 0.451-0.466 0.24-0.028 0.451 0.226 0.451 0.494z"></path>
<path d="M23.746 8.79c-0.014 0.24-0.282 0.48-0.508 0.466s-0.451-0.282-0.437-0.494c0.014-0.24 0.268-0.466 0.508-0.451 0.254 0 0.451 0.226 0.437 0.48z"></path>
<path d="M29.996 15.817c0 0.282-0.212 0.48-0.466 0.48-0.254-0.014-0.437-0.212-0.437-0.48s0.198-0.451 0.466-0.451c0.268 0 0.437 0.169 0.437 0.451z"></path>
<path d="M9.101 30.519c-0.226-0.014-0.451-0.254-0.437-0.494 0.014-0.254 0.226-0.451 0.494-0.437 0.254 0 0.466 0.24 0.451 0.48-0.014 0.254-0.254 0.466-0.508 0.451z"></path>
<path d="M1.369 1.693c0.014-0.24 0.24-0.452 0.452-0.423 0.282 0.042 0.452 0.24 0.452 0.522-0.014 0.268-0.198 0.423-0.48 0.437-0.254 0-0.437-0.254-0.423-0.536z"></path>
<path d="M22.815 16.48c-0.254 0-0.451-0.212-0.451-0.451 0-0.254 0.212-0.451 0.466-0.451s0.48 0.198 0.48 0.451c0.014 0.24-0.226 0.451-0.494 0.451z"></path>
<path d="M9.101 2.526c-0.268 0-0.466-0.226-0.451-0.494s0.212-0.466 0.466-0.452c0.254 0.014 0.451 0.226 0.437 0.494 0 0.254-0.198 0.451-0.451 0.451z"></path>
<path d="M16.593 2.215c0 0.268-0.198 0.494-0.423 0.48-0.282-0.014-0.466-0.212-0.48-0.494 0-0.268 0.212-0.466 0.451-0.466 0.268 0.014 0.451 0.212 0.451 0.48z"></path>
<path d="M20.078 23.266c0 0.254-0.212 0.48-0.437 0.494-0.226 0-0.494-0.254-0.494-0.494 0-0.268 0.212-0.466 0.451-0.466 0.254 0 0.48 0.226 0.48 0.466z"></path>
<path d="M2.765 15.831c0 0.254-0.212 0.466-0.466 0.451-0.226 0-0.494-0.24-0.494-0.451 0-0.268 0.212-0.451 0.494-0.451 0.254 0.014 0.466 0.212 0.466 0.451z"></path>
<path d="M9.439 19.683c0 0.268-0.183 0.48-0.437 0.48-0.282 0-0.466-0.183-0.466-0.437 0-0.282 0.141-0.466 0.451-0.494 0.254-0.028 0.437 0.183 0.451 0.451z"></path>
<path d="M23.633 30.067c0.028 0.339-0.226 0.466-0.437 0.466-0.24 0.014-0.48-0.254-0.48-0.494 0-0.254 0.212-0.451 0.466-0.451 0.268 0 0.451 0.198 0.451 0.48z"></path>
<path d="M19.146 9.016c0-0.282 0.198-0.48 0.466-0.48 0.24 0 0.437 0.212 0.437 0.48 0 0.254-0.24 0.48-0.494 0.466-0.24 0-0.409-0.212-0.409-0.466z"></path>
<path d="M16.593 23.055c0 0.31-0.141 0.466-0.423 0.466s-0.494-0.198-0.494-0.451c0-0.254 0.212-0.451 0.451-0.466 0.31 0 0.466 0.155 0.466 0.451z"></path>
<path d="M9.185 8.79c0 0.24-0.24 0.466-0.466 0.466-0.254-0.014-0.48-0.24-0.466-0.508 0-0.212 0.24-0.451 0.451-0.451 0.282 0.028 0.466 0.226 0.48 0.494z"></path>
<path d="M30.42 30.434c0 0.254-0.183 0.451-0.423 0.451-0.24 0.014-0.48-0.24-0.494-0.48 0-0.254 0.198-0.466 0.451-0.466 0.282 0.014 0.48 0.212 0.466 0.494z"></path>
<path d="M12.952 9.058c0 0.282-0.183 0.451-0.451 0.451-0.254-0.014-0.451-0.212-0.451-0.466s0.212-0.48 0.451-0.48c0.268 0 0.451 0.212 0.451 0.494z"></path>
<path d="M29.263 22.998c0-0.296 0.141-0.451 0.423-0.451 0.31 0 0.48 0.169 0.48 0.451 0 0.254-0.198 0.466-0.451 0.466-0.24-0.014-0.437-0.212-0.451-0.466z"></path>
<path d="M1.665 22.998c0-0.296 0.169-0.451 0.466-0.451 0.282 0 0.437 0.155 0.437 0.423 0 0.282-0.198 0.494-0.452 0.48-0.24 0-0.452-0.198-0.452-0.451z"></path>
<path d="M12.106 23.224c0-0.296 0.155-0.423 0.451-0.451 0.226-0.014 0.437 0.155 0.451 0.466 0.014 0.254-0.198 0.451-0.466 0.451-0.296 0.014-0.451-0.155-0.437-0.466z"></path>
<path d="M23.153 2.526c-0.254 0-0.437-0.141-0.437-0.395-0.014-0.282 0.183-0.508 0.437-0.508 0.268 0 0.466 0.198 0.466 0.48 0 0.226-0.198 0.423-0.466 0.423z"></path>
<path d="M2.582 8.72c0 0.268-0.169 0.48-0.395 0.48s-0.508-0.24-0.508-0.437c-0.014-0.254 0.24-0.494 0.494-0.508 0.212-0.014 0.409 0.212 0.409 0.466z"></path>
<path d="M18.356 16.832c-0.198 0-0.409-0.198-0.409-0.409s0.212-0.437 0.423-0.423c0.212 0.014 0.395 0.212 0.395 0.423-0.014 0.212-0.212 0.409-0.409 0.409z"></path>
<path d="M10.032 9.679c0.014 0.198-0.198 0.423-0.395 0.423-0.212 0-0.409-0.183-0.423-0.395s0.198-0.437 0.409-0.437c0.198 0 0.409 0.212 0.409 0.409z"></path>
<path d="M18.356 18.497c0.212 0 0.395 0.212 0.395 0.423s-0.226 0.423-0.437 0.409c-0.198 0-0.395-0.24-0.381-0.437 0.014-0.212 0.226-0.409 0.423-0.395z"></path>
<path d="M2.709 2.243c0.198 0 0.409 0.212 0.409 0.423s-0.198 0.409-0.409 0.409c-0.226 0-0.381-0.183-0.381-0.451 0.014-0.226 0.169-0.395 0.381-0.381z"></path>
<path d="M18.384 13.517c0.183 0 0.367 0.212 0.381 0.409 0 0.212-0.212 0.437-0.423 0.423-0.183-0.014-0.395-0.212-0.395-0.395-0.014-0.212 0.212-0.437 0.437-0.437z"></path>
<path d="M28.727 2.681c0-0.226 0.183-0.437 0.409-0.437s0.381 0.169 0.381 0.409c0 0.24-0.155 0.409-0.381 0.409-0.198 0-0.409-0.198-0.409-0.381z"></path>
<path d="M9.256 3.231c0-0.24 0.127-0.381 0.353-0.395 0.254 0 0.423 0.155 0.423 0.395s-0.155 0.395-0.395 0.381c-0.24 0.014-0.381-0.127-0.381-0.381z"></path>
<path d="M13.855 18.878c0 0.226-0.198 0.451-0.409 0.437-0.226-0.014-0.367-0.155-0.381-0.381-0.014-0.24 0.141-0.423 0.353-0.437s0.437 0.183 0.437 0.381z"></path>
<path d="M10.032 22.603c-0.014 0.226-0.226 0.423-0.451 0.395s-0.353-0.198-0.339-0.451c0.014-0.226 0.198-0.395 0.423-0.367 0.198 0.028 0.381 0.24 0.367 0.423z"></path>
<path d="M12.684 22.067c0.014-0.24 0.198-0.423 0.395-0.409 0.226 0.014 0.409 0.198 0.395 0.409 0 0.212-0.198 0.409-0.409 0.409s-0.395-0.198-0.381-0.409z"></path>
<path d="M3.259 9.693c-0.268 0-0.437-0.169-0.423-0.409 0.014-0.183 0.212-0.381 0.409-0.381 0.212 0 0.423 0.226 0.423 0.437-0.014 0.212-0.169 0.353-0.409 0.353z"></path>
<path d="M16.466 10.511c0 0.254-0.155 0.395-0.395 0.395-0.24-0.014-0.395-0.169-0.395-0.409s0.155-0.381 0.409-0.381c0.254 0 0.395 0.141 0.381 0.395z"></path>
<path d="M10.046 12.727c0.198 0 0.409 0.198 0.423 0.395s-0.198 0.423-0.395 0.423c-0.24 0-0.395-0.169-0.395-0.437 0-0.212 0.155-0.381 0.367-0.381z"></path>
<path d="M22.716 22.617c0 0.24-0.169 0.409-0.395 0.395-0.198 0-0.395-0.226-0.381-0.437s0.212-0.409 0.423-0.395c0.212 0.014 0.367 0.198 0.353 0.437z"></path>
<path d="M19.005 21.757c0.24 0 0.395 0.155 0.381 0.395s-0.169 0.395-0.409 0.381c-0.226-0.014-0.381-0.169-0.381-0.409 0-0.226 0.155-0.367 0.409-0.367z"></path>
<path d="M15.746 21.771c0-0.24 0.169-0.423 0.381-0.423s0.395 0.198 0.395 0.423c0 0.198-0.198 0.409-0.409 0.409-0.226 0-0.381-0.155-0.367-0.409z"></path>
<path d="M15.746 3.527c0-0.24 0.155-0.423 0.381-0.423 0.212 0 0.423 0.226 0.395 0.437-0.014 0.183-0.212 0.395-0.395 0.381-0.24 0-0.381-0.141-0.381-0.395z"></path>
<path d="M29.079 29.884c-0.24 0-0.409-0.155-0.409-0.381 0-0.198 0.212-0.395 0.409-0.395 0.226 0 0.423 0.212 0.409 0.437-0.014 0.212-0.169 0.339-0.409 0.339z"></path>
<path d="M16.296 18.907c0 0.198-0.212 0.423-0.395 0.409-0.198 0-0.381-0.212-0.395-0.423-0.014-0.198 0.226-0.395 0.409-0.409 0.212 0 0.381 0.183 0.381 0.423z"></path>
<path d="M16.536 28.614c0 0.24-0.155 0.381-0.409 0.367-0.226-0.014-0.381-0.183-0.367-0.409s0.183-0.381 0.423-0.381c0.212 0 0.353 0.169 0.353 0.423z"></path>
<path d="M13.855 16.437c0 0.183-0.198 0.395-0.381 0.395-0.212 0-0.395-0.183-0.395-0.409 0-0.24 0.155-0.423 0.367-0.423 0.212 0.014 0.409 0.212 0.409 0.437z"></path>
<path d="M3.541 16.268c-0.226-0.014-0.409-0.226-0.395-0.423 0.014-0.212 0.226-0.395 0.423-0.381 0.212 0.014 0.423 0.254 0.395 0.451-0.028 0.212-0.212 0.367-0.423 0.353z"></path>
<path d="M13.079 13.94c0-0.226 0.169-0.409 0.395-0.409 0.183 0 0.395 0.198 0.395 0.381 0 0.226-0.183 0.437-0.409 0.451-0.226 0-0.381-0.183-0.381-0.423z"></path>
<path d="M21.517 13.164c0-0.226 0.198-0.423 0.423-0.423 0.212 0 0.367 0.155 0.367 0.395s-0.155 0.423-0.367 0.423c-0.212 0-0.423-0.198-0.423-0.395z"></path>
<path d="M22.773 9.665c0 0.226-0.198 0.437-0.409 0.437s-0.381-0.169-0.381-0.409c0-0.198 0.212-0.409 0.395-0.409 0.198 0 0.395 0.198 0.395 0.381z"></path>
<path d="M13.037 10.596c-0.24 0-0.395-0.169-0.381-0.409 0-0.226 0.169-0.381 0.395-0.381 0.24 0 0.395 0.169 0.395 0.437-0.014 0.226-0.169 0.367-0.409 0.353z"></path>
<path d="M2.723 29.884c-0.212-0.014-0.381-0.183-0.367-0.381 0.014-0.226 0.226-0.409 0.437-0.395 0.198 0.014 0.381 0.198 0.367 0.395-0.028 0.24-0.198 0.423-0.437 0.381z"></path>
<path d="M3.287 22.067c0.24 0 0.381 0.141 0.381 0.367 0 0.296-0.169 0.395-0.409 0.409-0.212 0.014-0.367-0.155-0.367-0.395-0.014-0.24 0.141-0.381 0.395-0.381z"></path>
<path d="M28.67 15.873c0 0.254-0.155 0.381-0.409 0.381-0.24 0-0.381-0.155-0.381-0.367s0.226-0.423 0.437-0.409c0.212 0 0.353 0.155 0.353 0.395z"></path>
<path d="M22.956 3.203c0.042 0.226-0.254 0.423-0.409 0.409s-0.395-0.198-0.381-0.409c0.014-0.212 0.212-0.423 0.409-0.423 0.24 0.014 0.395 0.183 0.381 0.423z"></path>
<path d="M18.596 10.145c0-0.254 0.141-0.395 0.381-0.395 0.226 0 0.395 0.141 0.395 0.367 0 0.212-0.198 0.423-0.423 0.423s-0.353-0.155-0.353-0.395z"></path>
<path d="M10.046 28.896c0 0.24-0.141 0.381-0.367 0.381s-0.409-0.183-0.409-0.395c0-0.24 0.169-0.395 0.409-0.395 0.254 0 0.367 0.127 0.367 0.409z"></path>
<path d="M22.236 19.16c0 0.226-0.198 0.409-0.409 0.409-0.198-0.014-0.395-0.226-0.381-0.423 0.014-0.212 0.198-0.395 0.381-0.381 0.226 0 0.409 0.183 0.409 0.395z"></path>
<path d="M21.94 16.085c0 0.24-0.155 0.395-0.395 0.395-0.183 0-0.395-0.198-0.395-0.395 0-0.24 0.155-0.395 0.395-0.395 0.254 0 0.395 0.141 0.395 0.395z"></path>
<path d="M10.046 16.071c0-0.268 0.127-0.381 0.395-0.367 0.24 0 0.395 0.169 0.381 0.409 0 0.183-0.212 0.381-0.409 0.381-0.212-0.014-0.381-0.183-0.367-0.423z"></path>
<path d="M28.557 9.693c-0.226 0-0.381-0.183-0.367-0.381 0.014-0.212 0.226-0.409 0.423-0.395 0.212 0 0.395 0.198 0.381 0.395 0 0.24-0.169 0.381-0.437 0.381z"></path>
<path d="M28.586 22.067c0.24 0 0.395 0.169 0.381 0.409-0.014 0.212-0.169 0.381-0.367 0.367-0.282-0.028-0.437-0.127-0.423-0.437 0.014-0.226 0.169-0.353 0.409-0.339z"></path>
<path d="M9.735 19.16c0-0.226 0.198-0.423 0.423-0.423 0.212 0 0.353 0.169 0.367 0.395 0 0.212-0.183 0.409-0.395 0.409-0.169 0.014-0.423-0.183-0.395-0.381z"></path>
<path d="M16.296 13.982c0 0.212-0.155 0.367-0.381 0.367-0.212 0.014-0.395-0.155-0.395-0.367-0.014-0.198 0.198-0.423 0.395-0.409 0.212 0 0.367 0.169 0.381 0.409z"></path>
<path d="M22.603 28.543c0.226 0 0.395 0.141 0.395 0.31 0 0.212-0.198 0.423-0.395 0.409-0.212 0-0.409-0.212-0.395-0.409s0.141-0.31 0.395-0.31z"></path>
<path d="M26.892 16.24c-0.183 0-0.353-0.169-0.339-0.353 0.014-0.169 0.169-0.31 0.353-0.31s0.353 0.169 0.353 0.339c-0.014 0.183-0.169 0.324-0.367 0.324z"></path>
<path d="M20.19 15.774c0.183 0.014 0.339 0.183 0.339 0.353-0.014 0.183-0.183 0.339-0.367 0.325-0.141-0.014-0.339-0.212-0.339-0.339 0-0.155 0.212-0.353 0.367-0.339z"></path>
<path d="M10.582 21.94c-0.212 0-0.31-0.113-0.296-0.325s0.141-0.339 0.353-0.339c0.169 0 0.325 0.169 0.325 0.339-0.014 0.183-0.183 0.325-0.381 0.325z"></path>
<path d="M4.529 22.18c-0.198 0-0.339-0.155-0.339-0.339 0.014-0.198 0.141-0.325 0.353-0.325 0.183 0 0.339 0.183 0.325 0.353s-0.169 0.31-0.339 0.31z"></path>
<path d="M27.302 21.517c0.212 0 0.339 0.113 0.339 0.339 0 0.212-0.113 0.325-0.31 0.325-0.183 0-0.353-0.155-0.353-0.339 0-0.169 0.141-0.325 0.325-0.325z"></path>
<path d="M13.982 20.797c0 0.183-0.141 0.339-0.31 0.353-0.198 0-0.367-0.183-0.353-0.367 0.014-0.169 0.169-0.325 0.325-0.325 0.212 0 0.339 0.141 0.339 0.339z"></path>
<path d="M27.372 9.637c0.212 0 0.31 0.099 0.31 0.31s-0.127 0.353-0.325 0.353c-0.169 0-0.325-0.141-0.325-0.325 0-0.198 0.141-0.339 0.339-0.339z"></path>
<path d="M16.056 20.064c0.212 0 0.353 0.127 0.339 0.325 0 0.198-0.155 0.353-0.339 0.339-0.183 0-0.325-0.155-0.325-0.353 0.014-0.226 0.113-0.31 0.325-0.31z"></path>
<path d="M16.353 11.894c0 0.24-0.085 0.339-0.31 0.339-0.183 0-0.353-0.155-0.339-0.339 0-0.183 0.169-0.325 0.353-0.325 0.198 0 0.296 0.099 0.296 0.325z"></path>
<path d="M3.739 28.19c0.198 0 0.339 0.155 0.325 0.353-0.014 0.183-0.169 0.325-0.367 0.31-0.169 0-0.325-0.169-0.31-0.339 0-0.183 0.169-0.325 0.353-0.325z"></path>
<path d="M28.162 3.979c-0.183 0-0.339-0.155-0.339-0.339s0.169-0.325 0.367-0.325c0.212 0 0.31 0.113 0.31 0.325-0.014 0.212-0.141 0.339-0.339 0.339z"></path>
<path d="M13.644 11.81c-0.212 0-0.31-0.085-0.325-0.31-0.014-0.24 0.085-0.353 0.296-0.353 0.198 0 0.353 0.155 0.353 0.339 0 0.169-0.155 0.325-0.325 0.325z"></path>
<path d="M20.684 14.18c-0.169 0-0.31-0.155-0.31-0.339 0-0.169 0.169-0.325 0.367-0.325 0.183 0 0.31 0.141 0.31 0.339 0 0.169-0.169 0.325-0.367 0.325z"></path>
<path d="M16.085 27.527c-0.169 0-0.325-0.155-0.339-0.325 0-0.183 0.169-0.353 0.353-0.339 0.212 0.014 0.31 0.127 0.31 0.367 0 0.198-0.113 0.296-0.325 0.296z"></path>
<path d="M21.686 21.63c0 0.212-0.099 0.31-0.31 0.31-0.198 0-0.353-0.155-0.353-0.339 0-0.169 0.155-0.325 0.325-0.325 0.198 0 0.339 0.155 0.339 0.353z"></path>
<path d="M4.487 10.286c-0.212 0-0.339-0.127-0.339-0.339 0-0.226 0.085-0.325 0.296-0.325 0.198 0 0.367 0.155 0.367 0.325 0 0.183-0.155 0.339-0.324 0.339z"></path>
<path d="M18.653 20.938c0 0.183-0.169 0.339-0.367 0.325-0.155 0-0.296-0.169-0.296-0.353 0-0.212 0.099-0.31 0.325-0.31 0.212 0.014 0.339 0.127 0.339 0.339z"></path>
<path d="M4.938 16.24c-0.183 0-0.353-0.169-0.339-0.353 0.014-0.169 0.183-0.31 0.353-0.31 0.183 0 0.339 0.141 0.339 0.325 0 0.198-0.155 0.339-0.353 0.339z"></path>
<path d="M21.954 4.106c0.183 0.014 0.339 0.169 0.31 0.339-0.014 0.212-0.155 0.339-0.353 0.324-0.212 0-0.31-0.113-0.296-0.367 0.028-0.212 0.127-0.296 0.339-0.296z"></path>
<path d="M28.444 28.529c-0.014 0.183-0.155 0.325-0.339 0.31-0.183 0-0.353-0.183-0.339-0.353 0.014-0.183 0.183-0.325 0.381-0.31 0.183 0.028 0.31 0.169 0.296 0.353z"></path>
<path d="M10.229 4.176c0.198 0 0.339 0.155 0.325 0.353s-0.141 0.31-0.339 0.31c-0.183 0-0.325-0.141-0.325-0.324 0-0.212 0.141-0.353 0.339-0.339z"></path>
<path d="M15.746 4.896c0-0.212 0.113-0.31 0.324-0.31 0.198 0 0.339 0.127 0.339 0.31 0 0.198-0.155 0.353-0.339 0.353s-0.325-0.155-0.325-0.353z"></path>
<path d="M21.968 27.344c0.198 0 0.325 0.141 0.325 0.353-0.014 0.198-0.141 0.31-0.339 0.31-0.183 0-0.339-0.169-0.325-0.353 0.014-0.198 0.141-0.325 0.339-0.31z"></path>
<path d="M10.582 27.612c0 0.183-0.141 0.325-0.325 0.339-0.183 0-0.353-0.155-0.339-0.339 0-0.198 0.127-0.325 0.325-0.325 0.212-0.014 0.339 0.113 0.339 0.325z"></path>
<path d="M3.372 3.64c0-0.212 0.099-0.325 0.296-0.325 0.183 0 0.353 0.127 0.353 0.296 0.014 0.183-0.141 0.367-0.31 0.367-0.183 0.014-0.339-0.141-0.339-0.339z"></path>
<path d="M21.418 11.019c-0.198 0-0.325-0.113-0.339-0.31-0.014-0.212 0.113-0.353 0.31-0.353 0.183-0.014 0.353 0.141 0.353 0.339 0 0.169-0.155 0.325-0.325 0.325z"></path>
<path d="M20.91 18.568c0 0.212-0.099 0.339-0.296 0.339-0.183 0-0.367-0.155-0.367-0.325 0-0.183 0.169-0.339 0.353-0.339 0.212 0 0.296 0.099 0.31 0.325z"></path>
<path d="M11.076 18.568c0-0.226 0.085-0.325 0.296-0.339 0.198-0.014 0.353 0.127 0.367 0.325 0.014 0.169-0.169 0.339-0.353 0.339-0.198 0.014-0.31-0.113-0.31-0.325z"></path>
<path d="M11.245 13.517c0.183 0 0.339 0.127 0.353 0.296 0.014 0.183-0.141 0.353-0.325 0.367-0.183 0-0.353-0.155-0.353-0.339 0-0.198 0.141-0.325 0.325-0.325z"></path>
<path d="M11.81 16.423c-0.183 0-0.353-0.127-0.367-0.296s0.155-0.367 0.325-0.367c0.155 0 0.367 0.183 0.367 0.339 0.014 0.169-0.141 0.325-0.325 0.325z"></path>
<path d="M18.596 11.358c0 0.212-0.113 0.325-0.31 0.325-0.183 0-0.353-0.155-0.339-0.31 0-0.212 0.155-0.367 0.367-0.353s0.282 0.113 0.282 0.339z"></path>
<path d="M10.286 10.653c0-0.212 0.113-0.31 0.325-0.296 0.183 0 0.339 0.155 0.339 0.31 0 0.169-0.169 0.353-0.339 0.353-0.183 0-0.325-0.169-0.325-0.367z"></path>
<path d="M5.009 4.684c0 0.155-0.099 0.254-0.254 0.268-0.169 0-0.282-0.099-0.282-0.282 0-0.155 0.099-0.254 0.254-0.268 0.169 0.014 0.282 0.113 0.282 0.282z"></path>
<path d="M11.654 11.457c0.155 0 0.268 0.113 0.268 0.268-0.014 0.155-0.127 0.268-0.268 0.268-0.169 0-0.282-0.113-0.268-0.282 0-0.169 0.099-0.268 0.268-0.254z"></path>
<path d="M5.051 27.443c0.014 0.127-0.155 0.296-0.282 0.296s-0.268-0.141-0.282-0.268c-0.014-0.127 0.155-0.296 0.282-0.296 0.113 0 0.268 0.155 0.282 0.268z"></path>
<path d="M15.802 25.707c0-0.169 0.099-0.282 0.24-0.282 0.127 0 0.296 0.155 0.296 0.296s-0.155 0.296-0.296 0.282c-0.141-0.014-0.24-0.127-0.24-0.296z"></path>
<path d="M12.713 18.187c-0.169 0-0.282-0.099-0.282-0.24 0-0.127 0.155-0.282 0.296-0.296 0.113 0 0.268 0.155 0.268 0.282 0 0.141-0.113 0.24-0.282 0.254z"></path>
<path d="M6.406 15.704c0.155 0 0.282 0.127 0.282 0.268-0.014 0.127-0.155 0.268-0.282 0.268-0.141 0-0.31-0.155-0.296-0.282 0.014-0.155 0.155-0.268 0.296-0.254z"></path>
<path d="M20.6 20.571c0 0.155-0.099 0.282-0.254 0.268-0.155 0-0.282-0.141-0.282-0.296 0-0.141 0.127-0.254 0.282-0.254 0.155 0.014 0.254 0.113 0.254 0.282z"></path>
<path d="M14.25 13.079c-0.155 0-0.254-0.099-0.254-0.268 0-0.155 0.099-0.268 0.254-0.268s0.282 0.141 0.282 0.296c-0.014 0.141-0.127 0.254-0.282 0.24z"></path>
<path d="M20.36 11.993c-0.155-0.014-0.254-0.113-0.254-0.268 0-0.141 0.127-0.268 0.268-0.268s0.282 0.141 0.268 0.296c0 0.155-0.113 0.254-0.282 0.24z"></path>
<path d="M27.33 27.457c0 0.169-0.099 0.282-0.24 0.282-0.127 0-0.296-0.155-0.282-0.296 0-0.127 0.155-0.268 0.282-0.268s0.24 0.127 0.24 0.282z"></path>
<path d="M25.82 10.624c0-0.141 0.127-0.254 0.268-0.268 0.141 0 0.282 0.155 0.268 0.296 0 0.141-0.127 0.24-0.296 0.24-0.155 0-0.254-0.099-0.24-0.268z"></path>
<path d="M10.582 5.827c0-0.155 0.113-0.268 0.254-0.268s0.268 0.127 0.268 0.268c0 0.155-0.127 0.282-0.282 0.268-0.141 0-0.24-0.099-0.24-0.268z"></path>
<path d="M16.282 6.406c0 0.155-0.113 0.254-0.268 0.254s-0.268-0.113-0.268-0.254c0-0.155 0.141-0.296 0.282-0.282 0.169 0.014 0.268 0.127 0.254 0.282z"></path>
<path d="M21.559 26.384c-0.014 0.141-0.127 0.24-0.296 0.226-0.155-0.014-0.254-0.113-0.24-0.282 0-0.141 0.127-0.254 0.268-0.254 0.155 0 0.282 0.155 0.268 0.31z"></path>
<path d="M11.132 26.286c0 0.155-0.113 0.268-0.254 0.268-0.141-0.014-0.268-0.141-0.282-0.268 0-0.155 0.127-0.282 0.282-0.268 0.169 0 0.254 0.099 0.254 0.268z"></path>
<path d="M5.771 10.907c-0.155 0-0.268-0.099-0.268-0.254 0-0.141 0.113-0.282 0.254-0.282 0.155-0.014 0.282 0.127 0.282 0.282s-0.099 0.254-0.268 0.254z"></path>
<path d="M17.862 19.64c0 0.155-0.141 0.282-0.296 0.268-0.113-0.014-0.24-0.183-0.24-0.31 0.014-0.141 0.141-0.254 0.282-0.254 0.113 0.014 0.254 0.169 0.254 0.296z"></path>
<path d="M19.231 18.187c-0.155-0.014-0.268-0.127-0.254-0.268 0.014-0.127 0.169-0.268 0.296-0.254s0.268 0.155 0.268 0.282c0 0.141-0.127 0.254-0.31 0.24z"></path>
<path d="M12.515 14.307c0.169 0 0.296 0.113 0.296 0.24 0 0.141-0.141 0.296-0.282 0.296s-0.268-0.141-0.268-0.268c-0.014-0.169 0.099-0.282 0.254-0.268z"></path>
<path d="M25.693 15.958c0 0.169-0.099 0.268-0.254 0.268-0.141 0-0.282-0.113-0.282-0.254-0.014-0.155 0.113-0.282 0.268-0.282 0.169 0.014 0.268 0.113 0.268 0.268z"></path>
<path d="M11.654 20.303c0.141 0 0.254 0.099 0.268 0.24 0 0.141-0.155 0.31-0.282 0.296-0.155-0.014-0.254-0.127-0.254-0.282s0.099-0.254 0.268-0.254z"></path>
<path d="M19.429 14.307c0.155 0 0.268 0.099 0.282 0.254 0.014 0.127-0.113 0.268-0.254 0.282s-0.296-0.127-0.296-0.268c-0.014-0.141 0.127-0.268 0.268-0.268z"></path>
<path d="M17.566 12.91c-0.183 0-0.254-0.071-0.254-0.254 0-0.169 0.099-0.282 0.24-0.282s0.268 0.141 0.268 0.268c0.014 0.155-0.085 0.254-0.254 0.268z"></path>
<path d="M6.123 21.22c0 0.127-0.127 0.268-0.268 0.268-0.113 0-0.268-0.141-0.282-0.268-0.014-0.141 0.113-0.254 0.254-0.268 0.24 0.014 0.254 0.071 0.296 0.268z"></path>
<path d="M27.386 4.713c0 0.183-0.071 0.254-0.254 0.254-0.169 0-0.282-0.127-0.268-0.296 0-0.085 0.155-0.24 0.24-0.24 0.155-0.014 0.282 0.113 0.282 0.282z"></path>
<path d="M21.277 5.503c0.183 0 0.24 0.071 0.24 0.268 0 0.155-0.099 0.268-0.226 0.268-0.141 0-0.296-0.155-0.282-0.296 0-0.169 0.085-0.24 0.268-0.24z"></path>
<path d="M25.975 20.966c0.198 0 0.268 0.056 0.268 0.24 0 0.169-0.099 0.282-0.24 0.282-0.127 0-0.282-0.141-0.282-0.268-0.028-0.127 0.099-0.254 0.254-0.254z"></path>
<path d="M11.556 7.266c-0.056 0-0.127 0-0.183 0-0.141-0.014-0.198-0.099-0.183-0.226 0.014-0.113 0.141-0.212 0.24-0.183 0.099 0.014 0.183 0.127 0.169 0.24 0 0.056-0.028 0.113-0.042 0.169v0z"></path>
<path d="M20.84 6.956c0 0.113-0.071 0.183-0.183 0.183s-0.226-0.099-0.226-0.198c0-0.113 0.113-0.226 0.212-0.212 0.099 0 0.198 0.113 0.198 0.226z"></path>
<path d="M12.586 12.839c-0.113 0-0.198-0.071-0.212-0.169s0.099-0.226 0.198-0.226c0.113 0 0.212 0.099 0.212 0.212-0.014 0.127-0.085 0.183-0.198 0.183z"></path>
<path d="M26.342 26.582c-0.042 0.042-0.113 0.113-0.198 0.141s-0.212-0.113-0.198-0.212c0.014-0.085 0.113-0.183 0.198-0.198 0.099 0 0.212 0.113 0.198 0.268z"></path>
<path d="M5.912 26.469c0 0.141-0.127 0.254-0.226 0.24-0.085-0.014-0.183-0.113-0.183-0.212s0.127-0.226 0.212-0.198c0.085 0.056 0.141 0.141 0.198 0.169z"></path>
<path d="M26.145 5.855c-0.028-0.042-0.113-0.113-0.127-0.198-0.028-0.085 0.113-0.212 0.212-0.198 0.085 0.014 0.183 0.113 0.183 0.198 0 0.099-0.127 0.212-0.268 0.198z"></path>
<path d="M12.586 19.81c-0.085 0.014-0.212-0.085-0.212-0.169-0.014-0.099 0.099-0.226 0.198-0.24 0.099 0 0.212 0.099 0.212 0.212-0.014 0.099-0.099 0.183-0.198 0.198z"></path>
<path d="M19.612 19.612c0 0.085-0.099 0.183-0.183 0.198-0.113 0.014-0.198-0.056-0.212-0.155-0.014-0.113 0.071-0.24 0.169-0.24 0.085-0.014 0.212 0.113 0.226 0.198z"></path>
<path d="M24.903 11.443c-0.113 0-0.212-0.099-0.212-0.212 0-0.085 0.141-0.198 0.24-0.183s0.155 0.071 0.155 0.183c0 0.141-0.056 0.212-0.183 0.212z"></path>
<path d="M6.942 11.443c-0.113 0-0.212-0.071-0.212-0.155s0.127-0.226 0.198-0.226c0.099 0 0.198 0.099 0.198 0.212s-0.056 0.169-0.183 0.169z"></path>
<path d="M19.626 12.684c0 0.141-0.071 0.212-0.198 0.212-0.113 0-0.169-0.071-0.169-0.198 0-0.113 0.071-0.198 0.169-0.198 0.113-0.014 0.198 0.071 0.198 0.183z"></path>
<path d="M5.672 5.446c0.113 0 0.183 0.071 0.183 0.198 0 0.099-0.085 0.183-0.198 0.198-0.099 0.014-0.183-0.071-0.169-0.198 0-0.141 0.071-0.198 0.183-0.198z"></path>
<path d="M6.801 25.651c-0.099 0.071-0.169 0.141-0.24 0.155-0.085 0.028-0.169-0.071-0.155-0.169 0.014-0.085 0.113-0.183 0.183-0.155s0.113 0.085 0.212 0.169z"></path>
<path d="M25.608 6.547c-0.099 0.071-0.155 0.127-0.226 0.155-0.071 0.014-0.183-0.113-0.169-0.198s0.085-0.155 0.169-0.127c0.071 0.014 0.127 0.085 0.226 0.169z"></path>
<path d="M6.617 6.646c-0.155 0.014-0.268-0.071-0.254-0.169 0.014-0.056 0.085-0.113 0.127-0.127 0.113-0.028 0.212 0.056 0.198 0.169 0 0.056-0.056 0.099-0.071 0.127z"></path>
</svg>
