<!-- Generated by IcoMoon.io -->
<svg version="1.1" xmlns="http://www.w3.org/2000/svg" width="32" height="32" viewBox="0 0 32 32">
<title>KICK</title>
<path d="M15.972 32c-8.804 0.014-16.014-7.196-15.972-16.071 0.042-8.861 7.238-16.014 16.183-15.929 8.734 0.085 16.014 7.182 15.817 16.409-0.183 8.593-7.224 15.619-16.028 15.591zM12.642 12.543c0.014-0.198 0.028-0.31 0.028-0.423-0.014-1.27-0.028-2.54-0.042-3.81-0.014-0.607 0.254-1.072 0.705-1.228 0.818-0.282 1.538 0.24 1.552 1.129 0.014 2.046 0.028 4.078 0.056 6.123 0.014 0.621-0.212 0.988-0.748 1.256-1.256 0.649-2.483 1.326-3.739 1.975-0.607 0.325-1.199 0.677-1.834 0.945-0.536 0.24-1.143-0.056-1.383-0.607-0.24-0.536-0.042-1.129 0.466-1.425 0.437-0.24 0.875-0.48 1.312-0.72 0.72-0.381 1.425-0.776 2.145-1.157 0.183-0.099 0.24-0.198 0.014-0.31-0.056-0.028-0.127-0.071-0.183-0.099-2.342-1.34-4.698-2.667-7.026-4.007-0.254-0.141-0.367-0.113-0.48 0.141-0.494 1.086-0.847 2.215-1.030 3.386-0.254 1.651-0.254 3.316 0.085 4.966 0.254 1.242 0.649 2.427 1.228 3.556 1.171 2.314 2.892 4.162 5.122 5.531 1.764 1.072 3.668 1.693 5.714 1.933 0.24 0.028 0.31-0.056 0.296-0.282-0.028-0.325-0.028-0.649-0.028-0.974 0-2.568 0-5.136-0.014-7.704 0-0.395-0.042-0.409-0.395-0.212-1.143 0.663-2.272 1.326-3.429 1.975-0.536 0.31-1.256 0.113-1.524-0.381-0.325-0.578-0.141-1.256 0.409-1.594 0.832-0.494 1.679-0.974 2.526-1.467 0.917-0.536 1.834-1.030 2.723-1.623 0.451-0.296 1.143-0.339 1.608 0 0.889 0.621 1.82 1.185 2.723 1.778 0.79 0.508 1.594 1.016 2.384 1.538 0.536 0.353 0.691 1.030 0.381 1.524-0.339 0.536-0.974 0.705-1.538 0.409-0.155-0.085-0.296-0.169-0.437-0.268-0.945-0.607-1.891-1.213-2.85-1.82-0.24-0.155-0.31-0.113-0.31 0.183 0 0.254 0 0.508 0 0.762 0 2.61 0 5.22 0 7.831 0 0.296 0.127 0.353 0.367 0.31 0.409-0.071 0.818-0.155 1.227-0.212 1.016-0.169 1.989-0.494 2.921-0.917 2.413-1.115 4.374-2.78 5.841-4.995 1.298-1.961 2.032-4.12 2.215-6.462 0.198-2.356-0.212-4.628-1.199-6.787-0.113-0.24-0.198-0.268-0.395-0.141-0.748 0.437-1.496 0.861-2.243 1.284-1.552 0.889-3.118 1.778-4.67 2.667-0.155 0.099-0.325 0.198-0.55 0.339 0.212 0.127 0.353 0.212 0.494 0.296 1.058 0.564 2.116 1.129 3.16 1.707 0.593 0.325 0.776 1.016 0.451 1.594-0.296 0.522-0.988 0.691-1.538 0.395-0.395-0.212-0.776-0.423-1.171-0.635-1.397-0.748-2.794-1.481-4.19-2.229-0.564-0.296-0.79-0.734-0.734-1.369 0.014-0.198 0.042-0.409 0.042-0.607 0-1.707 0-3.414 0-5.122 0-0.155 0.014-0.31 0.028-0.451 0.099-0.677 0.578-1.072 1.227-1.030 0.607 0.042 0.988 0.494 0.988 1.171 0 1.312 0 2.624 0 3.922 0 0.367 0.071 0.409 0.381 0.226 1.862-1.072 3.725-2.145 5.601-3.203 0.522-0.296 1.058-0.593 1.594-0.903 0.127-0.071 0.296-0.155 0.127-0.339-0.437-0.522-0.847-1.072-1.326-1.552-2.286-2.243-4.995-3.598-8.183-3.965-2.215-0.254-4.36 0.014-6.434 0.79-2.511 0.931-4.557 2.483-6.166 4.614-0.169 0.226-0.141 0.324 0.099 0.466 1.905 1.072 3.81 2.159 5.714 3.245 0.593 0.339 1.185 0.677 1.834 1.058z"></path>
</svg>
