<?xml version="1.0" encoding="utf-8"?>
<!-- Generator: Adobe Illustrator 22.1.0, SVG Export Plug-In . SVG Version: 6.00 Build 0)  -->
<svg version="1.1" id="Layer_1" xmlns="http://www.w3.org/2000/svg" xmlns:xlink="http://www.w3.org/1999/xlink" x="0px" y="0px"
	 viewBox="0 0 226.8 226.8" style="enable-background:new 0 0 226.8 226.8;" xml:space="preserve">
<g>
	<path d="M113.2,226.8C50.8,226.9-0.3,175.8,0,112.9C0.3,50.1,51.3-0.6,114.7,0c61.9,0.6,113.5,50.9,112.1,116.3
		C225.5,177.2,175.6,227,113.2,226.8z M89.6,88.9c0.1-1.4,0.2-2.2,0.2-3c-0.1-9-0.2-18-0.3-27c-0.1-4.3,1.8-7.6,5-8.7
		c5.8-2,10.9,1.7,11,8c0.1,14.5,0.2,28.9,0.4,43.4c0.1,4.4-1.5,7-5.3,8.9c-8.9,4.6-17.6,9.4-26.5,14c-4.3,2.3-8.5,4.8-13,6.7
		c-3.8,1.7-8.1-0.4-9.8-4.3c-1.7-3.8-0.3-8,3.3-10.1c3.1-1.7,6.2-3.4,9.3-5.1c5.1-2.7,10.1-5.5,15.2-8.2c1.3-0.7,1.7-1.4,0.1-2.2
		c-0.4-0.2-0.9-0.5-1.3-0.7c-16.6-9.5-33.3-18.9-49.8-28.4c-1.8-1-2.6-0.8-3.4,1c-3.5,7.7-6,15.7-7.3,24
		c-1.8,11.7-1.8,23.5,0.6,35.2c1.8,8.8,4.6,17.2,8.7,25.2C35,174,47.2,187.1,63,196.8c12.5,7.6,26,12,40.5,13.7
		c1.7,0.2,2.2-0.4,2.1-2c-0.2-2.3-0.2-4.6-0.2-6.9c0-18.2,0-36.4-0.1-54.6c0-2.8-0.3-2.9-2.8-1.5c-8.1,4.7-16.1,9.4-24.3,14
		c-3.8,2.2-8.9,0.8-10.8-2.7c-2.3-4.1-1-8.9,2.9-11.3c5.9-3.5,11.9-6.9,17.9-10.4c6.5-3.8,13-7.3,19.3-11.5c3.2-2.1,8.1-2.4,11.4,0
		c6.3,4.4,12.9,8.4,19.3,12.6c5.6,3.6,11.3,7.2,16.9,10.9c3.8,2.5,4.9,7.3,2.7,10.8c-2.4,3.8-6.9,5-10.9,2.9
		c-1.1-0.6-2.1-1.2-3.1-1.9c-6.7-4.3-13.4-8.6-20.2-12.9c-1.7-1.1-2.2-0.8-2.2,1.3c0,1.8,0,3.6,0,5.4c0,18.5,0,37,0,55.5
		c0,2.1,0.9,2.5,2.6,2.2c2.9-0.5,5.8-1.1,8.7-1.5c7.2-1.2,14.1-3.5,20.7-6.5c17.1-7.9,31-19.7,41.4-35.4
		c9.2-13.9,14.4-29.2,15.7-45.8c1.4-16.7-1.5-32.8-8.5-48.1c-0.8-1.7-1.4-1.9-2.8-1c-5.3,3.1-10.6,6.1-15.9,9.1
		c-11,6.3-22.1,12.6-33.1,18.9c-1.1,0.7-2.3,1.4-3.9,2.4c1.5,0.9,2.5,1.5,3.5,2.1c7.5,4,15,8,22.4,12.1c4.2,2.3,5.5,7.2,3.2,11.3
		c-2.1,3.7-7,4.9-10.9,2.8c-2.8-1.5-5.5-3-8.3-4.5c-9.9-5.3-19.8-10.5-29.7-15.8c-4-2.1-5.6-5.2-5.2-9.7c0.1-1.4,0.3-2.9,0.3-4.3
		c0-12.1,0-24.2,0-36.3c0-1.1,0.1-2.2,0.2-3.2c0.7-4.8,4.1-7.6,8.7-7.3c4.3,0.3,7,3.5,7,8.3c0,9.3,0,18.6,0,27.8
		c0,2.6,0.5,2.9,2.7,1.6c13.2-7.6,26.4-15.2,39.7-22.7c3.7-2.1,7.5-4.2,11.3-6.4c0.9-0.5,2.1-1.1,0.9-2.4c-3.1-3.7-6-7.6-9.4-11
		c-16.2-15.9-35.4-25.5-58-28.1c-15.7-1.8-30.9,0.1-45.6,5.6C61.3,29,46.8,40,35.4,55.1c-1.2,1.6-1,2.3,0.7,3.3
		c13.5,7.6,27,15.3,40.5,23C80.8,83.8,85,86.2,89.6,88.9z"/>
</g>
</svg>
