<?xml version="1.0" encoding="utf-8"?>
<!-- Generator: Adobe Illustrator 22.0.1, SVG Export Plug-In . SVG Version: 6.00 Build 0)  -->
<svg version="1.1" id="Layer_1" xmlns="http://www.w3.org/2000/svg" xmlns:xlink="http://www.w3.org/1999/xlink" x="0px" y="0px"
	 viewBox="0 0 226.8 226.8" style="enable-background:new 0 0 226.8 226.8;" xml:space="preserve">
<style type="text/css">
	.st0{stroke:#FFFFFF;stroke-miterlimit:10;}
</style>
<g>
	<path class="st0" d="M162.4,82.5h-14.6V67.8c0-5.2,4.2-9.4,9.4-9.4l0,0h5.2c5.2,0,9.4,4.2,9.4,9.4l0,0v5.2
		C171.8,78.3,167.6,82.5,162.4,82.5L162.4,82.5"/>
	<path class="st0" d="M79,82.5H64.4c-5.2,0-9.4-4.2-9.4-9.4l0,0v-5.2c0-5.2,4.2-9.4,9.4-9.4c0,0,0,0,0,0h5.2c5.2,0,9.4,4.2,9.4,9.4
		l0,0V82.5"/>
	<path class="st0" d="M69.6,171.8h-5.2c-5.2,0-9.4-4.2-9.4-9.4l0,0v-5.2c0-5.2,4.2-9.4,9.4-9.4l0,0H79v14.7
		C79,167.6,74.8,171.8,69.6,171.8"/>
	<path class="st0" d="M162.4,171.8h-5.2c-5.2,0-9.4-4.2-9.4-9.4l0,0v-14.6h14.6c5.2,0,9.4,4.2,9.4,9.4v5.2
		C171.8,167.6,167.6,171.8,162.4,171.8"/>
</g>
<g>
	<path class="st0" d="M117.7,58.4h-5.2c-5.2,0-9.4-4.2-9.4-9.4l0,0v-5.2c0-5.2,4.2-9.4,9.4-9.4h5.2c5.2,0,9.4,4.2,9.4,9.4V49
		C127.1,54.2,122.9,58.4,117.7,58.4"/>
	<path class="st0" d="M117.7,195.9h-5.2c-5.2,0-9.4-4.2-9.4-9.4v-5.2c0-5.2,4.2-9.4,9.4-9.4h5.2c5.2,0,9.4,4.2,9.4,9.4v5.2
		C127.1,191.7,122.9,195.9,117.7,195.9"/>
	<path class="st0" d="M186.5,127.2h-5.2c-5.2,0-9.4-4.2-9.4-9.4l0,0v-5.2c0-5.2,4.2-9.4,9.4-9.4h5.2c5.2,0,9.4,4.2,9.4,9.4v5.2
		C195.9,122.9,191.7,127.2,186.5,127.2L186.5,127.2"/>
	<path class="st0" d="M49,127.2h-5.2c-5.2,0-9.4-4.2-9.4-9.4l0,0v-5.2c0-5.2,4.2-9.4,9.4-9.4H49c5.2,0,9.4,4.2,9.4,9.4v5.2
		C58.4,122.9,54.2,127.2,49,127.2L49,127.2"/>
</g>
<g>
	<path class="st0" d="M141.4,205.4c-1.5-3.5,0.2-7.5,3.7-9c3.5-1.5,7.5,0.2,9,3.7c1.5,3.5-0.2,7.5-3.7,9
		C146.9,210.5,142.9,208.9,141.4,205.4"/>
	<path class="st0" d="M69.2,30.1c-1.5-3.5,0.2-7.5,3.7-9c3.5-1.5,7.5,0.2,9,3.7c1.5,3.5-0.2,7.5-3.7,9
		C74.7,35.3,70.7,33.6,69.2,30.1"/>
	<path class="st0" d="M201.9,85.4c-3.5,1.5-7.5-0.2-9-3.7s0.2-7.5,3.7-9c3.5-1.5,7.5,0.2,9,3.7C207.1,79.9,205.4,83.9,201.9,85.4"/>
	<path class="st0" d="M30.1,157.5c-3.5,1.5-7.5-0.2-9-3.7c-1.5-3.5,0.2-7.5,3.7-9c3.5-1.5,7.5,0.2,9,3.7
		C35.3,152.1,33.6,156.1,30.1,157.5"/>
</g>
<g>
	<path class="st0" d="M196.7,157.5c-3.5-1.5-5.2-5.5-3.7-9s5.5-5.2,9-3.7c3.5,1.5,5.2,5.5,3.7,9C204.2,157.3,200.2,159,196.7,157.5
		C196.7,157.5,196.7,157.5,196.7,157.5"/>
	<path class="st0" d="M24.9,85.4c-3.5-1.5-5.2-5.5-3.7-9c1.5-3.5,5.5-5.2,9-3.7c3.5,1.5,5.2,5.5,3.7,9
		C32.4,85.2,28.4,86.8,24.9,85.4C24.9,85.4,24.9,85.4,24.9,85.4"/>
	<path class="st0" d="M154.1,30.1c-1.5,3.5-5.5,5.2-9,3.7c-3.5-1.5-5.2-5.5-3.7-9c1.5-3.5,5.5-5.2,9-3.7
		C153.9,22.6,155.6,26.6,154.1,30.1C154.1,30.1,154.1,30.1,154.1,30.1"/>
	<path class="st0" d="M82,205.4c-1.5,3.5-5.5,5.2-9,3.7c-3.5-1.5-5.2-5.5-3.7-9c1.5-3.5,5.5-5.2,9-3.7
		C81.7,197.8,83.4,201.9,82,205.4C82,205.4,82,205.4,82,205.4"/>
</g>
<g>
	<path class="st0" d="M186.6,194.9c-1.3-1.3-1.3-3.5,0-4.9s3.5-1.3,4.9,0c1.3,1.3,1.3,3.5,0,4.9c0,0,0,0,0,0
		C190.1,196.2,187.9,196.2,186.6,194.9C186.6,194.9,186.6,194.9,186.6,194.9"/>
	<path class="st0" d="M31.9,40.2c-1.3-1.3-1.3-3.5,0-4.9c1.3-1.3,3.5-1.3,4.9,0c1.3,1.3,1.3,3.5,0,4.9c0,0,0,0,0,0
		C35.4,41.6,33.3,41.6,31.9,40.2C31.9,40.2,31.9,40.2,31.9,40.2"/>
	<path class="st0" d="M191.4,40.2c-1.3,1.3-3.5,1.3-4.9,0c-1.3-1.3-1.3-3.5,0-4.9c1.3-1.3,3.5-1.3,4.9,0c0,0,0,0,0,0
		C192.8,36.7,192.8,38.9,191.4,40.2"/>
	<path class="st0" d="M36.8,194.9c-1.3,1.3-3.5,1.3-4.9,0c-1.3-1.3-1.3-3.5,0-4.9c1.3-1.3,3.5-1.3,4.9,0c0,0,0,0,0,0
		C38.1,191.4,38.1,193.5,36.8,194.9"/>
</g>
<g>
	<path class="st0" d="M223.4,116.8c-1.9,0-3.4-1.5-3.4-3.4s1.5-3.4,3.4-3.4c1.9,0,3.4,1.5,3.4,3.4
		C226.8,115.3,225.3,116.8,223.4,116.8"/>
	<path class="st0" d="M3.4,116.8c-1.9,0-3.4-1.5-3.4-3.4c0-1.9,1.5-3.4,3.4-3.4c1.9,0,3.4,1.5,3.4,3.4
		C6.9,115.3,5.3,116.8,3.4,116.8"/>
	<path class="st0" d="M116.8,3.4c0,1.9-1.5,3.4-3.4,3.4c-1.9,0-3.4-1.5-3.4-3.4c0-1.9,1.5-3.4,3.4-3.4c0,0,0,0,0,0
		C115.3,0,116.8,1.5,116.8,3.4"/>
	<path class="st0" d="M116.8,223.4c0,1.9-1.5,3.4-3.4,3.4s-3.4-1.5-3.4-3.4c0-1.9,1.5-3.4,3.4-3.4c0,0,0,0,0,0
		C115.3,219.9,116.8,221.5,116.8,223.4"/>
</g>
<path class="st0" d="M136.3,101.9h5.1c3.5,0,6.3-2.8,6.3-6.3v0V79h-16.6c-3.5,0-6.3,2.8-6.3,6.3v5.2c0,6.3-5.1,11.5-11.5,11.5
	c-6.3,0-11.5-5.1-11.5-11.5l0,0v-5.4c0-3.4-2.7-6.1-6.1-6.1H79v68.7h16.7c3.4,0,6.2-2.8,6.2-6.2c0,0,0,0,0,0v-5.3
	c0-6.3,5.1-11.5,11.5-11.5v0c6.3,0,11.5,5.1,11.5,11.5v5.2c0,3.5,2.8,6.3,6.3,6.3c0,0,0,0,0,0h16.7v-16.7c0-3.5-2.8-6.3-6.3-6.3
	c0,0,0,0,0,0h-5.2c-6.3,0-11.5-5.1-11.5-11.5h0C124.9,107.1,130,101.9,136.3,101.9"/>
</svg>
