<!-- Generated by IcoMoon.io -->
<svg version="1.1" xmlns="http://www.w3.org/2000/svg" width="32" height="32" viewBox="0 0 32 32">
<title>KIN</title>
<path d="M22.914 11.64h-2.060v-2.074c0-0.734 0.593-1.326 1.326-1.326v0h0.734c0.734 0 1.326 0.593 1.326 1.326v0 0.734c0 0.748-0.593 1.34-1.326 1.34v0"></path>
<path d="M11.146 11.64h-2.060c-0.734 0-1.326-0.593-1.326-1.326v0-0.734c0-0.734 0.593-1.326 1.326-1.326 0 0 0 0 0 0h0.734c0.734 0 1.326 0.593 1.326 1.326v0 2.060"></path>
<path d="M9.82 24.24h-0.734c-0.734 0-1.326-0.593-1.326-1.326v0-0.734c0-0.734 0.593-1.326 1.326-1.326v0h2.060v2.074c0 0.72-0.593 1.312-1.326 1.312"></path>
<path d="M22.914 24.24h-0.734c-0.734 0-1.326-0.593-1.326-1.326v0-2.060h2.060c0.734 0 1.326 0.593 1.326 1.326v0.734c0 0.734-0.593 1.326-1.326 1.326"></path>
<path d="M16.607 8.24h-0.734c-0.734 0-1.326-0.593-1.326-1.326v0-0.734c0-0.734 0.593-1.326 1.326-1.326h0.734c0.734 0 1.326 0.593 1.326 1.326v0.734c0 0.734-0.593 1.326-1.326 1.326"></path>
<path d="M16.607 27.64h-0.734c-0.734 0-1.326-0.593-1.326-1.326v-0.734c0-0.734 0.593-1.326 1.326-1.326h0.734c0.734 0 1.326 0.593 1.326 1.326v0.734c0 0.734-0.593 1.326-1.326 1.326"></path>
<path d="M26.314 17.947h-0.734c-0.734 0-1.326-0.593-1.326-1.326v0-0.734c0-0.734 0.593-1.326 1.326-1.326h0.734c0.734 0 1.326 0.593 1.326 1.326v0.734c0 0.72-0.593 1.326-1.326 1.326v0"></path>
<path d="M6.914 17.947h-0.734c-0.734 0-1.326-0.593-1.326-1.326v0-0.734c0-0.734 0.593-1.326 1.326-1.326h0.734c0.734 0 1.326 0.593 1.326 1.326v0.734c0 0.72-0.593 1.326-1.326 1.326v0"></path>
<path d="M19.951 28.981c-0.212-0.494 0.028-1.058 0.522-1.27s1.058 0.028 1.27 0.522c0.212 0.494-0.028 1.058-0.522 1.27-0.494 0.198-1.058-0.028-1.27-0.522"></path>
<path d="M9.764 4.247c-0.212-0.494 0.028-1.058 0.522-1.27s1.058 0.028 1.27 0.522c0.212 0.494-0.028 1.058-0.522 1.27s-1.058-0.028-1.27-0.522"></path>
<path d="M28.487 12.049c-0.494 0.212-1.058-0.028-1.27-0.522s0.028-1.058 0.522-1.27c0.494-0.212 1.058 0.028 1.27 0.522s-0.028 1.058-0.522 1.27"></path>
<path d="M4.247 22.222c-0.494 0.212-1.058-0.028-1.27-0.522s0.028-1.058 0.522-1.27c0.494-0.212 1.058 0.028 1.27 0.522 0.212 0.508-0.028 1.072-0.522 1.27"></path>
<path d="M27.753 22.222c-0.494-0.212-0.734-0.776-0.522-1.27s0.776-0.734 1.27-0.522c0.494 0.212 0.734 0.776 0.522 1.27s-0.776 0.734-1.27 0.522c0 0 0 0 0 0"></path>
<path d="M3.513 12.049c-0.494-0.212-0.734-0.776-0.522-1.27s0.776-0.734 1.27-0.522c0.494 0.212 0.734 0.776 0.522 1.27s-0.776 0.72-1.27 0.522c0 0 0 0 0 0"></path>
<path d="M21.742 4.247c-0.212 0.494-0.776 0.734-1.27 0.522s-0.734-0.776-0.522-1.27c0.212-0.494 0.776-0.734 1.27-0.522s0.734 0.776 0.522 1.27c0 0 0 0 0 0"></path>
<path d="M11.57 28.981c-0.212 0.494-0.776 0.734-1.27 0.522s-0.734-0.776-0.522-1.27c0.212-0.494 0.776-0.734 1.27-0.522 0.48 0.198 0.72 0.776 0.522 1.27 0 0 0 0 0 0"></path>
<path d="M26.328 27.499c-0.183-0.183-0.183-0.494 0-0.691s0.494-0.183 0.691 0c0.183 0.183 0.183 0.494 0 0.691 0 0 0 0 0 0-0.198 0.183-0.508 0.183-0.691 0 0 0 0 0 0 0"></path>
<path d="M4.501 5.672c-0.183-0.183-0.183-0.494 0-0.691 0.183-0.183 0.494-0.183 0.691 0 0.183 0.183 0.183 0.494 0 0.691 0 0 0 0 0 0-0.198 0.198-0.494 0.198-0.691 0 0 0 0 0 0 0"></path>
<path d="M27.005 5.672c-0.183 0.183-0.494 0.183-0.691 0-0.183-0.183-0.183-0.494 0-0.691 0.183-0.183 0.494-0.183 0.691 0 0 0 0 0 0 0 0.198 0.198 0.198 0.508 0 0.691"></path>
<path d="M5.192 27.499c-0.183 0.183-0.494 0.183-0.691 0-0.183-0.183-0.183-0.494 0-0.691 0.183-0.183 0.494-0.183 0.691 0 0 0 0 0 0 0 0.183 0.198 0.183 0.494 0 0.691"></path>
<path d="M31.52 16.48c-0.268 0-0.48-0.212-0.48-0.48s0.212-0.48 0.48-0.48c0.268 0 0.48 0.212 0.48 0.48s-0.212 0.48-0.48 0.48"></path>
<path d="M0.48 16.48c-0.268 0-0.48-0.212-0.48-0.48s0.212-0.48 0.48-0.48c0.268 0 0.48 0.212 0.48 0.48 0.014 0.268-0.212 0.48-0.48 0.48"></path>
<path d="M16.48 0.48c0 0.268-0.212 0.48-0.48 0.48s-0.48-0.212-0.48-0.48c0-0.268 0.212-0.48 0.48-0.48 0 0 0 0 0 0 0.268 0 0.48 0.212 0.48 0.48"></path>
<path d="M16.48 31.52c0 0.268-0.212 0.48-0.48 0.48s-0.48-0.212-0.48-0.48c0-0.268 0.212-0.48 0.48-0.48 0 0 0 0 0 0 0.268-0.014 0.48 0.212 0.48 0.48"></path>
<path d="M19.231 14.377h0.72c0.494 0 0.889-0.395 0.889-0.889v0-2.342h-2.342c-0.494 0-0.889 0.395-0.889 0.889v0.734c0 0.889-0.72 1.623-1.623 1.623-0.889 0-1.623-0.72-1.623-1.623v0-0.762c0-0.48-0.381-0.861-0.861-0.861h-2.356v9.693h2.356c0.48 0 0.875-0.395 0.875-0.875 0 0 0 0 0 0v-0.748c0-0.889 0.72-1.623 1.623-1.623v0c0.889 0 1.623 0.72 1.623 1.623v0.734c0 0.494 0.395 0.889 0.889 0.889 0 0 0 0 0 0h2.356v-2.356c0-0.494-0.395-0.889-0.889-0.889 0 0 0 0 0 0h-0.734c-0.889 0-1.623-0.72-1.623-1.623v0c0-0.861 0.72-1.594 1.608-1.594"></path>
</svg>
