<!-- Generated by IcoMoon.io -->
<svg version="1.1" xmlns="http://www.w3.org/2000/svg" width="32" height="32" viewBox="0 0 32 32">
<title>KNC</title>
<path d="M14.293 0.889l10.060 7.436-10.060 5.079v-12.515"></path>
<path d="M24.353 8.325l-10.060 5.079 9.58 10.229 0.48-15.309"></path>
<path d="M14.561 31.196l-0.268-17.792 9.58 10.229-9.312 7.563"></path>
<path d="M14.293 13.404v-12.515l-6.772 7.605 1.552 15.026 5.503 7.675-0.282-17.792"></path>
<path d="M14.138 0.889h0.325v12.515h-0.325v-12.515z"></path>
<path d="M14.22 13.268l10.060-5.087 0.146 0.29-10.060 5.087-0.146-0.29z"></path>
<path d="M14.172 13.516l0.237-0.222 9.573 10.229-0.237 0.222-9.573-10.229z"></path>
<path d="M14.129 13.408l0.324-0.005 0.272 17.79-0.324 0.005-0.272-17.79z"></path>
<path d="M8.935 23.623l0.264-0.189 5.498 7.672-0.264 0.189-5.498-7.672z"></path>
<path d="M7.315 8.524l0.323-0.034 1.599 15.027-0.323 0.034-1.599-15.027z"></path>
<path d="M7.354 8.399l6.822-7.604 0.242 0.217-6.822 7.604-0.242-0.217z"></path>
<path d="M14.204 1.026l0.193-0.261 10.052 7.432-0.193 0.261-10.052-7.432z"></path>
<path d="M23.702 23.632l0.48-15.315 0.324 0.010-0.48 15.315-0.324-0.010z"></path>
<path d="M14.462 31.076l9.307-7.564 0.205 0.252-9.307 7.564-0.205-0.252z"></path>
<path d="M14.293 1.538c-0.353 0-0.635-0.282-0.635-0.635s0.282-0.635 0.635-0.635c0.353 0 0.635 0.282 0.635 0.635s-0.282 0.635-0.635 0.635"></path>
<path d="M14.293 0.409c0.268 0 0.48 0.212 0.48 0.48s-0.212 0.48-0.48 0.48c-0.268 0-0.48-0.212-0.48-0.48s0.212-0.48 0.48-0.48M14.293 0.099c-0.437 0-0.804 0.353-0.804 0.804s0.353 0.804 0.804 0.804c0.437 0 0.804-0.353 0.804-0.804s-0.367-0.804-0.804-0.804z"></path>
<path d="M7.52 9.143c-0.353 0-0.635-0.282-0.635-0.635s0.282-0.635 0.635-0.635c0.353 0 0.635 0.282 0.635 0.635s-0.282 0.635-0.635 0.635"></path>
<path d="M7.52 8.028c0.268 0 0.48 0.212 0.48 0.48s-0.212 0.48-0.48 0.48c-0.268 0-0.48-0.212-0.48-0.48s0.212-0.48 0.48-0.48v0M7.52 7.704c-0.437 0-0.804 0.353-0.804 0.804 0 0.437 0.353 0.804 0.804 0.804 0.437 0 0.804-0.353 0.804-0.804v0c-0.014-0.451-0.367-0.804-0.804-0.804z"></path>
<path d="M9.072 24.169c-0.353 0-0.635-0.282-0.635-0.635s0.282-0.635 0.635-0.635c0.353 0 0.635 0.282 0.635 0.635s-0.282 0.635-0.635 0.635"></path>
<path d="M9.072 23.055c0.268 0 0.48 0.212 0.48 0.48s-0.212 0.48-0.48 0.48c-0.268 0-0.48-0.212-0.48-0.48s0.212-0.48 0.48-0.48v0M9.072 22.73c-0.437 0-0.804 0.353-0.804 0.804s0.353 0.804 0.804 0.804c0.437 0 0.804-0.353 0.804-0.804v0c-0.014-0.451-0.367-0.804-0.804-0.804z"></path>
<path d="M24.353 8.959c-0.353 0-0.635-0.282-0.635-0.635s0.282-0.635 0.635-0.635c0.353 0 0.635 0.282 0.635 0.635s-0.282 0.635-0.635 0.635"></path>
<path d="M24.353 7.845c0.268 0 0.48 0.212 0.48 0.48s-0.212 0.48-0.48 0.48c-0.268 0-0.48-0.212-0.48-0.48s0.212-0.48 0.48-0.48M24.353 7.52c-0.437 0-0.804 0.353-0.804 0.804s0.353 0.804 0.804 0.804c0.437 0 0.804-0.353 0.804-0.804v0c-0.014-0.437-0.367-0.79-0.804-0.804z"></path>
<path d="M14.293 14.053c-0.353 0-0.635-0.282-0.635-0.635s0.282-0.635 0.635-0.635c0.353 0 0.635 0.282 0.635 0.635s-0.282 0.635-0.635 0.635"></path>
<path d="M14.293 12.924c0.268 0 0.48 0.212 0.48 0.48s-0.212 0.48-0.48 0.48c-0.268 0-0.48-0.212-0.48-0.48 0-0.254 0.212-0.48 0.48-0.48M14.293 12.614c-0.437 0-0.804 0.353-0.804 0.804s0.353 0.804 0.804 0.804c0.437 0 0.804-0.353 0.804-0.804v0c0-0.451-0.367-0.804-0.804-0.804z"></path>
<path d="M14.561 31.845c-0.353 0-0.635-0.282-0.635-0.635s0.282-0.635 0.635-0.635c0.353 0 0.635 0.282 0.635 0.635 0.014 0.339-0.282 0.635-0.635 0.635"></path>
<path d="M14.561 30.716c0.268 0 0.48 0.212 0.48 0.48s-0.212 0.48-0.48 0.48c-0.268 0-0.48-0.212-0.48-0.48 0-0.254 0.226-0.48 0.48-0.48v0M14.561 30.406c-0.437 0-0.804 0.353-0.804 0.804s0.353 0.804 0.804 0.804c0.437 0 0.804-0.353 0.804-0.804v0c0-0.451-0.353-0.804-0.804-0.804z"></path>
<path d="M23.901 24.282c-0.353 0-0.635-0.282-0.635-0.635s0.282-0.635 0.635-0.635 0.635 0.282 0.635 0.635-0.282 0.635-0.635 0.635"></path>
<path d="M23.901 23.153c0.268 0 0.48 0.212 0.48 0.48s-0.212 0.48-0.48 0.48c-0.268 0-0.48-0.212-0.48-0.48s0.212-0.48 0.48-0.48v0M23.901 22.843c-0.437 0-0.804 0.353-0.804 0.804s0.353 0.804 0.804 0.804 0.804-0.353 0.804-0.804c0-0.451-0.367-0.804-0.804-0.804z"></path>
</svg>
