<?xml version="1.0" encoding="utf-8"?>
<!-- Generator: Adobe Illustrator 22.0.1, SVG Export Plug-In . SVG Version: 6.00 Build 0)  -->
<svg version="1.1" id="Layer_1" xmlns="http://www.w3.org/2000/svg" xmlns:xlink="http://www.w3.org/1999/xlink" x="0px" y="0px"
	 viewBox="0 0 226.8 226.8" style="enable-background:new 0 0 226.8 226.8;" xml:space="preserve">
<style type="text/css">
	.st0{stroke:#FFFFFF;stroke-miterlimit:10;}
</style>
<path class="st0" d="M101.3,6.3L172.6,59l-71.3,36V6.3"/>
<path class="st0" d="M172.6,59l-71.3,36l67.9,72.5L172.6,59"/>
<path class="st0" d="M103.2,221.1L101.3,95l67.9,72.5L103.2,221.1"/>
<path class="st0" d="M101.3,95V6.3l-48,53.9l11,106.5l39,54.4L101.3,95"/>
<g>
	<rect x="100.2" y="6.3" class="st0" width="2.3" height="88.7"/>
	<rect x="97" y="75.9" transform="matrix(0.8924 -0.4512 0.4512 0.8924 -20.0226 70.07)" class="st0" width="79.9" height="2.3"/>
	
		<rect x="134.1" y="81.6" transform="matrix(0.7301 -0.6833 0.6833 0.7301 -53.2166 127.8515)" class="st0" width="2.3" height="99.3"/>
	
		<rect x="101.1" y="95" transform="matrix(0.9999 -1.527226e-02 1.527226e-02 0.9999 -2.4024 1.5804)" class="st0" width="2.3" height="126.1"/>
	
		<rect x="82.6" y="160.5" transform="matrix(0.8128 -0.5825 0.5825 0.8128 -97.2999 85.0898)" class="st0" width="2.3" height="66.9"/>
	<rect x="57.5" y="60" transform="matrix(0.9944 -0.1058 0.1058 0.9944 -11.6787 6.836)" class="st0" width="2.3" height="107.1"/>
	<rect x="40.9" y="32.2" transform="matrix(0.6678 -0.7444 0.7444 0.6678 0.8385 68.4708)" class="st0" width="72.4" height="2.3"/>
	
		<rect x="135.8" y="-11.6" transform="matrix(0.5945 -0.8041 0.8041 0.5945 29.262 123.3683)" class="st0" width="2.3" height="88.6"/>
	
		<rect x="116.6" y="112.1" transform="matrix(3.134756e-02 -0.9995 0.9995 3.134756e-02 52.2917 280.5188)" class="st0" width="108.6" height="2.3"/>
	<rect x="93.7" y="193.2" transform="matrix(0.776 -0.6307 0.6307 0.776 -92.0636 129.4276)" class="st0" width="85" height="2.3"/>
</g>
<g transform="translate(-431-4)">
	<path class="st0" d="M532.3,14.9c-2.5,0-4.5-2-4.5-4.5s2-4.5,4.5-4.5c2.5,0,4.5,2,4.5,4.5S534.8,14.9,532.3,14.9"/>
	<path class="st0" d="M532.3,6.9c1.9,0,3.4,1.5,3.4,3.4s-1.5,3.4-3.4,3.4c-1.9,0-3.4-1.5-3.4-3.4S530.4,6.9,532.3,6.9 M532.3,4.7
		c-3.1,0-5.7,2.5-5.7,5.7s2.5,5.7,5.7,5.7c3.1,0,5.7-2.5,5.7-5.7C538,7.2,535.4,4.7,532.3,4.7z"/>
	<path class="st0" d="M484.3,68.8c-2.5,0-4.5-2-4.5-4.5c0-2.5,2-4.5,4.5-4.5c2.5,0,4.5,2,4.5,4.5C488.8,66.8,486.8,68.8,484.3,68.8"
		/>
	<path class="st0" d="M484.3,60.9c1.9,0,3.4,1.5,3.4,3.4c0,1.9-1.5,3.4-3.4,3.4c-1.9,0-3.4-1.5-3.4-3.4
		C480.9,62.4,482.4,60.9,484.3,60.9L484.3,60.9 M484.3,58.6c-3.1,0-5.7,2.5-5.7,5.7c0,3.1,2.5,5.7,5.7,5.7c3.1,0,5.7-2.5,5.7-5.7
		l0,0C489.9,61.1,487.4,58.6,484.3,58.6z"/>
	<path class="st0" d="M495.3,175.3c-2.5,0-4.5-2-4.5-4.5c0-2.5,2-4.5,4.5-4.5c2.5,0,4.5,2,4.5,4.5
		C499.8,173.3,497.8,175.3,495.3,175.3"/>
	<path class="st0" d="M495.3,167.4c1.9,0,3.4,1.5,3.4,3.4s-1.5,3.4-3.4,3.4c-1.9,0-3.4-1.5-3.4-3.4S493.4,167.4,495.3,167.4
		L495.3,167.4 M495.3,165.1c-3.1,0-5.7,2.5-5.7,5.7s2.5,5.7,5.7,5.7c3.1,0,5.7-2.5,5.7-5.7l0,0C500.9,167.6,498.4,165.1,495.3,165.1
		z"/>
	<path class="st0" d="M603.6,67.5c-2.5,0-4.5-2-4.5-4.5c0-2.5,2-4.5,4.5-4.5c2.5,0,4.5,2,4.5,4.5C608.1,65.5,606.1,67.5,603.6,67.5"
		/>
	<path class="st0" d="M603.6,59.6c1.9,0,3.4,1.5,3.4,3.4c0,1.9-1.5,3.4-3.4,3.4c-1.9,0-3.4-1.5-3.4-3.4
		C600.2,61.1,601.7,59.6,603.6,59.6 M603.6,57.3c-3.1,0-5.7,2.5-5.7,5.7s2.5,5.7,5.7,5.7c3.1,0,5.7-2.5,5.7-5.7l0,0
		C609.2,59.9,606.7,57.4,603.6,57.3z"/>
	<path class="st0" d="M532.3,103.6c-2.5,0-4.5-2-4.5-4.5s2-4.5,4.5-4.5c2.5,0,4.5,2,4.5,4.5S534.8,103.6,532.3,103.6"/>
	<path class="st0" d="M532.3,95.6c1.9,0,3.4,1.5,3.4,3.4c0,1.9-1.5,3.4-3.4,3.4c-1.9,0-3.4-1.5-3.4-3.4
		C528.9,97.2,530.4,95.6,532.3,95.6 M532.3,93.4c-3.1,0-5.7,2.5-5.7,5.7s2.5,5.7,5.7,5.7c3.1,0,5.7-2.5,5.7-5.7l0,0
		C538,95.9,535.4,93.4,532.3,93.4z"/>
	<path class="st0" d="M534.2,229.7c-2.5,0-4.5-2-4.5-4.5c0-2.5,2-4.5,4.5-4.5c2.5,0,4.5,2,4.5,4.5
		C538.8,227.6,536.7,229.7,534.2,229.7"/>
	<path class="st0" d="M534.2,221.7c1.9,0,3.4,1.5,3.4,3.4c0,1.9-1.5,3.4-3.4,3.4c-1.9,0-3.4-1.5-3.4-3.4
		C530.8,223.3,532.4,221.7,534.2,221.7L534.2,221.7 M534.2,219.5c-3.1,0-5.7,2.5-5.7,5.7s2.5,5.7,5.7,5.7c3.1,0,5.7-2.5,5.7-5.7l0,0
		C539.9,222,537.4,219.5,534.2,219.5z"/>
	<path class="st0" d="M600.4,176.1c-2.5,0-4.5-2-4.5-4.5s2-4.5,4.5-4.5s4.5,2,4.5,4.5S602.9,176.1,600.4,176.1"/>
	<path class="st0" d="M600.4,168.1c1.9,0,3.4,1.5,3.4,3.4s-1.5,3.4-3.4,3.4c-1.9,0-3.4-1.5-3.4-3.4S598.5,168.1,600.4,168.1
		L600.4,168.1 M600.4,165.9c-3.1,0-5.7,2.5-5.7,5.7s2.5,5.7,5.7,5.7s5.7-2.5,5.7-5.7C606.1,168.4,603.5,165.9,600.4,165.9z"/>
</g>
</svg>
