<!-- Generated by IcoMoon.io -->
<svg version="1.1" xmlns="http://www.w3.org/2000/svg" width="32" height="32" viewBox="0 0 32 32">
<title>KORBIT</title>
<path d="M5.249 4.134c2.667-2.413 6.152-3.951 9.989-4.134v2.483c-3.16 0.183-6.039 1.425-8.254 3.414l-1.735-1.764z"></path>
<path d="M0.028 15.238c0.183-3.838 1.721-7.323 4.134-9.989l1.735 1.764c-1.961 2.215-3.231 5.079-3.414 8.254h-2.455v-0.028z"></path>
<path d="M4.162 26.751c-2.413-2.667-3.951-6.152-4.134-9.989h2.483c0.183 3.16 1.425 6.039 3.414 8.254l-1.764 1.735z"></path>
<path d="M15.266 31.972c-3.838-0.183-7.323-1.721-9.989-4.134l1.764-1.735c2.215 1.961 5.079 3.231 8.254 3.414v2.469h-0.028z"></path>
<path d="M26.78 27.866c-2.667 2.413-6.152 3.951-9.989 4.134v-2.483c3.16-0.183 6.039-1.425 8.254-3.414l1.735 1.764z"></path>
<path d="M32.028 16.762c-0.183 3.838-1.721 7.323-4.134 9.989l-1.735-1.735c1.961-2.215 3.231-5.079 3.414-8.254h2.455z"></path>
<path d="M27.866 5.22c2.413 2.667 3.951 6.152 4.134 9.989h-2.483c-0.183-3.16-1.425-6.039-3.414-8.254l1.764-1.735z"></path>
<path d="M16.79 0c3.838 0.183 7.323 1.721 9.989 4.134l-1.764 1.764c-2.215-1.989-5.079-3.231-8.254-3.414v-2.483h0.028z"></path>
<path d="M16.028 4.924c6.123 0 11.076 4.952 11.076 11.076s-4.952 11.076-11.076 11.076-11.076-4.952-11.076-11.076 4.952-11.076 11.076-11.076zM16.028 6.166c5.446 0 9.834 4.402 9.834 9.834 0 5.446-4.402 9.834-9.834 9.834s-9.834-4.402-9.834-9.834c-0.014-5.446 4.388-9.834 9.834-9.834z"></path>
</svg>
