<!-- Generated by IcoMoon.io -->
<svg version="1.1" xmlns="http://www.w3.org/2000/svg" width="32" height="32" viewBox="0 0 32 32">
<title>KORE</title>
<path d="M15.998-0.004c-8.838 0-16.002 7.165-16.002 16.002s7.164 16.003 16.002 16.003c8.838 0 16.002-7.165 16.002-16.003s-7.164-16.002-16.002-16.002zM25.142 15.997c0 2.933-1.385 5.537-3.532 7.209l-1.050-1.666c1.6-1.317 2.622-3.309 2.622-5.544 0-2.395-1.176-4.512-2.978-5.817l1.343-1.442c2.183 1.671 3.594 4.298 3.594 7.259zM18.688 11.808c1.379 0.885 2.295 2.428 2.295 4.189 0 1.45-0.62 2.753-1.609 3.663l-3.229-5.122 2.543-2.73zM21.085 3.719l-7.73 8.175 1.096-8.109h-3.696c1.609-0.692 3.381-1.076 5.243-1.076 1.802 0 3.52 0.36 5.087 1.010zM7.895 20.233c-0.656-1.225-1.041-2.68-1.041-4.224 0-0.004 0-0.008 0-0.013v0.001c0-2.407 0.934-4.593 2.455-6.226l-1.414 10.462zM2.709 15.997c0-5.21 3-9.717 7.366-11.895l-0.258 1.912c-3.338 2.071-5.562 5.766-5.562 9.983 0 3.083 1.192 5.883 3.135 7.978l-0.259 1.918c-2.713-2.433-4.421-5.965-4.421-9.896zM8.654 27.072h2.65l1.388-10.269 0.114 0.014 6.466 10.255h4.071c-2.104 1.399-4.628 2.215-7.344 2.215s-5.24-0.816-7.344-2.215zM23.831 26.73l-0.827-1.312c2.874-2.14 4.737-5.562 4.737-9.421 0-3.712-1.724-7.019-4.413-9.171l1.057-1.134c2.99 2.437 4.901 6.147 4.901 10.305 0 4.409-2.149 8.315-5.456 10.733z"></path>
</svg>
