<!-- Generated by IcoMoon.io -->
<svg version="1.1" xmlns="http://www.w3.org/2000/svg" width="32" height="32" viewBox="0 0 32 32">
<title>KRAKEN</title>
<path d="M14.998 3.231c2.765-0.183 5.587 0.381 8.085 1.623 3.668 1.806 6.603 5.065 7.986 8.917 0.607 1.693 0.931 3.499 0.931 5.305v6.702c0 0.282 0.014 0.55-0.056 0.818-0.155 0.677-0.635 1.27-1.27 1.552-0.437 0.212-0.945 0.226-1.425 0.155-1.016-0.183-1.82-1.143-1.82-2.187-0.014-2.074 0-4.148 0-6.236 0.014-0.593 0.028-1.227-0.296-1.735-0.522-0.959-1.778-1.411-2.78-1.002-0.861 0.31-1.467 1.171-1.481 2.074-0.014 2.116 0 4.219 0 6.335 0 0.395 0.028 0.79-0.099 1.171-0.212 0.748-0.832 1.355-1.58 1.552-0.974 0.268-2.102-0.169-2.596-1.058-0.339-0.55-0.31-1.199-0.31-1.806-0.014-2.088 0.014-4.19-0.014-6.279-0.028-1.058-0.889-2.032-1.947-2.159-0.691-0.099-1.411 0.127-1.905 0.607-0.451 0.423-0.705 1.030-0.705 1.651v6.109c-0.014 0.508 0.056 1.044-0.141 1.524-0.31 0.875-1.185 1.51-2.116 1.496-0.959 0.056-1.877-0.607-2.187-1.496-0.169-0.437-0.127-0.917-0.127-1.383 0-2.102 0.014-4.219 0-6.321-0.014-1.044-0.818-1.989-1.834-2.187-0.931-0.198-1.961 0.268-2.413 1.101-0.198 0.353-0.31 0.748-0.31 1.143v6.843c0.014 0.663-0.296 1.326-0.818 1.75-0.776 0.677-2.032 0.72-2.836 0.085-0.593-0.395-0.931-1.101-0.931-1.806v-6.928c0.014-2.624 0.663-5.235 1.919-7.549 1.016-1.905 2.427-3.57 4.106-4.91 2.54-2.046 5.714-3.273 8.974-3.471z"></path>
</svg>
