<?xml version="1.0" encoding="utf-8"?>
<!-- Generator: Adobe Illustrator 22.1.0, SVG Export Plug-In . SVG Version: 6.00 Build 0)  -->
<svg version="1.1" id="Layer_1" xmlns="http://www.w3.org/2000/svg" xmlns:xlink="http://www.w3.org/1999/xlink" x="0px" y="0px"
	 viewBox="0 0 226.8 226.8" style="enable-background:new 0 0 226.8 226.8;" xml:space="preserve">
<g>
	<path d="M127.7,0c6.4,1.7,12.9,3.3,19.3,5.2c12.2,3.7,23.5,9.2,34.7,17.9c-43.6,52.3-87,104.5-130.4,156.6
		c-0.5-0.2-1.1-0.4-1.6-0.6c0-2.2,0-4.4,0-6.6c0-48.4,0.1-96.8-0.1-145.2c0-5.8,1.7-9.1,6.7-11.9C68.9,8.7,82,3.6,96.2,1.6
		c1.7-0.2,3.3-1,4.9-1.6C110,0,118.8,0,127.7,0z"/>
	<path d="M0,101.1c1.1-4.8,2.3-9.7,3.4-14.5c4.4-18.4,13-34.6,25.8-48.8c2.4,6.1,2.8,142,0.5,151.9c-13.1-14.3-21.5-30.4-26.2-48.7
		c-1.1-4.5-2.3-8.9-3.5-13.4C0,118.8,0,110,0,101.1z"/>
	<path d="M194.1,192.6c-22.7-24.3-45.3-48.7-68.4-73.5C149,91.2,172,63.5,195,35.9C236.3,74.6,238.9,149.7,194.1,192.6z"/>
	<path d="M180.2,204.6c-33.3,28.2-91.7,29.7-128.5,3.5c20.5-24.7,41.1-49.3,62.2-74.7C136.1,157.3,157.9,180.7,180.2,204.6z"/>
</g>
</svg>
