<!-- Generated by IcoMoon.io -->
<svg version="1.1" xmlns="http://www.w3.org/2000/svg" width="32" height="32" viewBox="0 0 32 32">
<title>KRM</title>
<path d="M18.018 0c0.903 0.24 1.82 0.466 2.723 0.734 1.721 0.522 3.316 1.298 4.896 2.526-6.152 7.379-12.275 14.744-18.399 22.095-0.071-0.028-0.155-0.056-0.226-0.085 0-0.31 0-0.621 0-0.931 0-6.829 0.014-13.658-0.014-20.487 0-0.818 0.24-1.284 0.945-1.679 1.778-0.945 3.626-1.665 5.63-1.947 0.24-0.028 0.466-0.141 0.691-0.226 1.256 0 2.497 0 3.753 0z"></path>
<path d="M0 14.265c0.155-0.677 0.325-1.369 0.48-2.046 0.621-2.596 1.834-4.882 3.64-6.885 0.339 0.861 0.395 20.035 0.071 21.432-1.848-2.018-3.034-4.289-3.697-6.871-0.155-0.635-0.325-1.256-0.494-1.891 0-1.242 0-2.483 0-3.739z"></path>
<path d="M27.386 27.175c-3.203-3.429-6.392-6.871-9.651-10.37 3.287-3.937 6.533-7.845 9.778-11.739 5.827 5.46 6.194 16.056-0.127 22.109z"></path>
<path d="M25.425 28.868c-4.698 3.979-12.938 4.19-18.131 0.494 2.892-3.485 5.799-6.956 8.776-10.54 3.132 3.372 6.208 6.674 9.354 10.046z"></path>
</svg>
