<!-- Generated by IcoMoon.io -->
<svg version="1.1" xmlns="http://www.w3.org/2000/svg" width="32" height="32" viewBox="0 0 32 32">
<title>KRW</title>
<path d="M16.128 32c-8.819 0-16-7.181-16-16s7.181-16 16-16c8.819 0 16 7.181 16 16s-7.181 16-16 16v0zM16.128 1.562c-7.962 0-14.438 6.477-14.438 14.438s6.477 14.438 14.438 14.438c7.962 0 14.438-6.477 14.438-14.438s-6.477-14.438-14.438-14.438v0z"></path>
<path d="M26.317 16.358h-3.046l0.435-1.766h2.611c0.243 0 0.435-0.192 0.435-0.435s-0.192-0.435-0.435-0.435h-2.394l0.525-2.15c0.141-0.55 0.205-0.96 0.205-1.19 0-0.294-0.102-0.538-0.307-0.73-0.205-0.205-0.461-0.294-0.755-0.294s-0.525 0.077-0.666 0.205c-0.166 0.166-0.282 0.346-0.346 0.55-0.077 0.23-0.154 0.563-0.243 0.986l-0.589 2.637h-3.315l-0.563-2.086c-0.166-0.627-0.307-1.075-0.41-1.344-0.090-0.23-0.243-0.448-0.474-0.653-0.218-0.192-0.525-0.282-0.947-0.282-0.41 0-0.73 0.090-0.96 0.282-0.243 0.192-0.41 0.422-0.512 0.691-0.115 0.294-0.256 0.742-0.41 1.318l-0.563 2.086h-3.29l-0.589-2.624c-0.128-0.614-0.282-1.075-0.448-1.382-0.051-0.128-0.192-0.397-0.806-0.397-0.307 0-0.563 0.102-0.768 0.294-0.205 0.205-0.307 0.435-0.307 0.73 0 0.269 0.064 0.666 0.205 1.19l0.538 2.15h-2.394c-0.243 0-0.435 0.192-0.435 0.435s0.192 0.435 0.435 0.435h2.611l0.435 1.766h-3.046c-0.243 0-0.435 0.192-0.435 0.435s0.192 0.435 0.435 0.435h3.264l0.947 3.827c0.064 0.282 0.154 0.589 0.243 0.909 0.077 0.307 0.192 0.576 0.32 0.794 0.115 0.205 0.269 0.358 0.461 0.461 0.179 0.102 0.435 0.166 0.73 0.166 0.371 0 0.666-0.090 0.87-0.269 0.23-0.192 0.384-0.41 0.474-0.64 0.102-0.269 0.243-0.73 0.422-1.357l1.062-3.891h3.008l1.050 3.891c0.179 0.653 0.32 1.114 0.422 1.37 0.090 0.23 0.243 0.435 0.474 0.627 0.218 0.179 0.512 0.269 0.87 0.269 0.397 0 0.691-0.090 0.896-0.269 0.218-0.192 0.371-0.422 0.461-0.678 0.102-0.294 0.23-0.755 0.397-1.382l0.947-3.827h3.264c0.243 0 0.435-0.192 0.435-0.435 0-0.23-0.192-0.422-0.435-0.422zM21.542 14.592l-0.397 1.766h-1.997l-0.474-1.766h2.867zM16.038 11.699l0.538 2.010h-1.088l0.55-2.010zM10.496 14.592h2.867l-0.474 1.766h-1.997l-0.397-1.766zM11.802 20.403l-0.717-3.174h1.562l-0.845 3.174zM14.771 16.358l0.486-1.766h1.574l0.474 1.766h-2.534zM20.237 20.403l-0.858-3.162h1.562l-0.704 3.162z"></path>
</svg>
