<!-- Generated by IcoMoon.io -->
<svg version="1.1" xmlns="http://www.w3.org/2000/svg" width="32" height="32" viewBox="0 0 32 32">
<title>KUCOIN</title>
<path d="M26.018 19.499l-5.954 5.926-9.51-9.397 9.481-9.397 5.968 5.94c1.058 1.044 2.765 1.044 3.824-0.014 1.044-1.058 1.044-2.765-0.014-3.824l-7.845-7.802c-1.058-1.044-2.765-1.044-3.824 0.014 0 0-0.198 0.155-0.282 0.24l-10.907 10.808v-6.462c0-1.496-1.213-2.695-2.695-2.695s-2.709 1.213-2.709 2.695v20.995c0 1.496 1.213 2.695 2.695 2.695s2.695-1.213 2.695-2.695v-6.476l10.921 10.808c0.042 0.042 0.226 0.226 0.282 0.282 1.044 1.058 2.765 1.058 3.824 0.014l7.845-7.817c1.058-1.044 1.058-2.765 0.014-3.824s-2.765-1.058-3.81-0.014z"></path>
<path d="M22.801 16.042c0 1.504-1.219 2.723-2.723 2.723s-2.723-1.219-2.723-2.723c0-1.504 1.219-2.723 2.723-2.723s2.723 1.219 2.723 2.723z"></path>
</svg>
