<!-- Generated by IcoMoon.io -->
<svg version="1.1" xmlns="http://www.w3.org/2000/svg" width="32" height="32" viewBox="0 0 32 32">
<title>KUNA</title>
<path d="M0 16.071c-0.155-8.564 6.956-16.071 15.986-16.071 8.663 0 16.042 6.928 16.014 16.056-0.028 9.27-7.69 16.028-16.113 15.972-8.818-0.042-16-7.365-15.887-15.958zM31.139 16.042c0-8.31-6.73-15.055-14.914-15.182-8.099-0.127-15.323 6.434-15.393 14.984-0.056 8.508 6.744 15.351 15.139 15.337 8.339 0 15.168-6.815 15.168-15.139z"></path>
<path d="M16.847 6.504c0 0.395 0 0.762 0 1.143-0.014 0.593-0.056 0.635-0.621 0.649-0.48 0.014-0.945-0.014-1.425 0.014-0.381 0.014-0.593-0.113-0.649-0.522-0.099-0.649-0.339-1.256-0.875-1.679-0.325-0.254-0.705-0.409-1.072-0.621-0.071 0.042-0.127 0.071-0.198 0.113 0 0.353 0 0.705 0 1.058 0 0.254 0 0.522 0 0.776 0 0.875 0 0.875-0.903 0.875s-1.806 0-2.709 0c-0.226 0-0.452 0.028-0.804 0.042 0.325 0.804 0.847 1.27 1.538 1.439 0.804 0.198 1.651 0.325 2.469 0.353 1.735 0.056 3.485-0.014 5.22 0.071 0.72 0.028 1.453 0.226 2.116 0.48 0.917 0.367 1.369 1.101 1.383 2.13s-0.437 1.764-1.355 2.145c-0.621 0.254-1.312 0.423-1.989 0.508-0.72 0.085-1.453 0.028-2.187 0.056-0.423 0.014-0.635-0.127-0.621-0.593 0.014-0.974 0-1.933 0-2.907 0-0.282 0.028-0.522 0.409-0.522 0.381-0.014 0.409 0.226 0.409 0.508 0 0.621 0 1.242 0 1.877 0 0.226 0 0.466 0 0.79 1.369 0.056 2.653 0.085 3.81-0.593 1.016-0.593 0.917-2.018-0.141-2.568-0.818-0.437-1.721-0.508-2.638-0.522-1.594-0.014-3.189 0.042-4.769-0.028-0.847-0.028-1.721-0.155-2.526-0.409-1.312-0.423-2.173-1.679-2.187-3.034 0.226-0.014 0.452-0.028 0.691-0.028 1.115 0 2.229-0.014 3.358 0 0.423 0 0.578-0.141 0.564-0.564-0.028-0.72 0-1.453 0-2.145 1.058-0.325 2.328 0.071 3.005 0.945 0.254 0.339 0.466 0.72 0.635 1.115 0.296 0.691 0.282 0.705 1.185 0.578 0-0.564 0-1.157 0-1.707 1.185-0.395 2.483 0.169 2.921 1.242 0.169 0.395 0.381 0.536 0.79 0.593 1.679 0.212 3.062 0.945 4.021 2.399 0.451 0.677 0.691 1.439 0.691 2.243 0 0.451 0.169 0.635 0.578 0.762 1.34 0.451 2.441 1.242 3.203 2.469 0.268 0.423 0.254 0.748-0.014 1.171-0.762 1.227-1.862 2.004-3.203 2.469-0.296 0.099-0.55 0.169-0.55 0.578 0.042 2.737-2.3 4.543-4.642 4.84-0.451 0.056-0.72 0.169-0.917 0.621-0.381 0.875-1.496 1.425-2.483 1.284-0.127-0.014-0.31-0.212-0.339-0.353-0.056-0.31-0.014-0.649-0.028-0.959 0-0.24-0.014-0.494-0.339-0.522s-0.649-0.085-0.79 0.353c-0.099 0.31-0.226 0.607-0.395 0.889-0.578 1.016-1.467 1.538-2.638 1.58-0.649 0.028-0.705-0.028-0.72-0.663 0-0.677 0-1.369 0-2.145-1.566 0-3.062 0-4.656 0 0.155-1.242 0.635-2.145 1.594-2.751 0.974-0.621 2.088-0.762 3.217-0.776 1.735-0.028 3.485 0.028 5.22-0.028 0.691-0.028 1.397-0.212 2.060-0.437 0.593-0.198 0.903-0.72 0.917-1.355 0.014-0.663-0.339-1.115-0.889-1.383-1.115-0.522-2.314-0.522-3.612-0.48 0 0.79 0.014 1.51-0.014 2.243-0.014 0.296 0.198 0.762-0.381 0.762s-0.395-0.466-0.409-0.762c-0.014-0.861 0-1.721 0-2.582 0-0.296 0.071-0.508 0.423-0.508 1.284 0 2.582-0.071 3.838 0.325 1.326 0.423 1.919 1.242 1.862 2.568-0.042 1.030-0.607 1.735-1.524 2.018-0.875 0.268-1.806 0.423-2.709 0.466-1.637 0.071-3.273-0.014-4.896 0.042-0.734 0.028-1.496 0.183-2.201 0.395-0.621 0.183-1.072 0.663-1.383 1.411 1.51 0 2.921 0 4.416 0 0 0.959 0 1.834 0 2.723 0.79-0.014 1.298-0.395 1.623-0.931 0.31-0.522 0.48-1.129 0.762-1.778 0.635 0 1.34 0 2.046 0 0.31 0 0.409 0.169 0.409 0.451 0 0.409 0 0.804 0 1.199 0.762 0 1.157-0.296 1.355-0.945 0.198-0.677 0.198-0.677 0.931-0.734 1.115-0.085 2.145-0.437 3.019-1.157 1.891-1.566 1.877-4.444 0-6.039-0.183-0.155-0.367-0.296-0.607-0.494 0.198-0.169 0.353-0.31 0.508-0.437 2.469-2.074 1.848-5.742-1.185-6.857-0.635-0.24-1.326-0.325-2.004-0.409-0.409-0.056-0.593-0.155-0.635-0.607-0.042-0.734-0.466-1.101-1.369-1.228zM24.395 13.686c-0.494 0.832-0.945 1.608-1.369 2.328 0.437 0.748 0.889 1.51 1.355 2.3 1.199-0.296 2.159-0.959 2.892-1.961 0.198-0.268 0.169-0.494-0.028-0.748-0.72-0.974-1.665-1.608-2.85-1.919z"></path>
<path d="M11.161 15.873c0-1.27-0.014-2.54 0.014-3.795 0-0.183 0.085-0.451 0.226-0.522 0.325-0.183 0.607 0.028 0.621 0.437 0.014 0.508 0 1.030 0 1.552 0 2.060 0 4.12-0.014 6.18 0 0.212-0.056 0.508-0.198 0.607-0.325 0.226-0.649-0.014-0.649-0.451-0.014-1.355 0-2.681 0-4.007z"></path>
</svg>
