<?xml version="1.0" encoding="utf-8"?>
<!-- Generator: Adobe Illustrator 22.1.0, SVG Export Plug-In . SVG Version: 6.00 Build 0)  -->
<svg version="1.1" id="Layer_1" xmlns="http://www.w3.org/2000/svg" xmlns:xlink="http://www.w3.org/1999/xlink" x="0px" y="0px"
	 viewBox="0 0 226.8 226.8" style="enable-background:new 0 0 226.8 226.8;" xml:space="preserve">
<g>
	<path d="M95.7,27.8c-16,44.6-31.7,88.2-47.6,132.4c1.5,0.2,2.5,0.4,3.5,0.4c9.2,0,18.4-0.2,27.5,0.1c3.6,0.1,5-1.3,6.2-4.4
		c11-30.8,22.1-61.5,33.1-92.3c3.9-10.8,7.8-21.5,11.5-32.3c1-2.9,2.3-4,5.4-4c9.4,0.2,18.9,0.1,28.3,0c2.7,0,4,0.9,4.9,3.4
		c10.1,28.1,20.2,56.2,30.4,84.4c9,25,17.9,50,26.9,75c0.4,1,0.6,2,1.1,3.5c-1.9,0.1-3.6,0.4-5.2,0.4c-8.9,0-17.8-0.1-26.7,0
		c-2.7,0-4-0.9-4.9-3.4c-3.2-9.2-6.7-18.2-9.8-27.4c-0.8-2.4-2-3-4.3-3c-17.7,0.1-35.4,0.1-53,0c-2.6,0-3.7,0.9-4.6,3.3
		c-3.1,9-6.5,18-9.6,27c-0.8,2.2-1.7,3.5-4.4,3.5c-33.8-0.1-67.5,0-101.3,0c-0.8,0-1.5-0.2-2.9-0.4c2.2-6.2,4.3-12.2,6.4-18.1
		c13.4-37.2,26.8-74.5,40.2-111.7c4-11,7.8-22,11.9-33c0.5-1.4,2-3.3,3.1-3.4C72.7,27.7,83.7,27.8,95.7,27.8z M149.8,79.3
		c-0.4,0-0.8,0.1-1.1,0.1c-5.6,15.6-11.2,31.2-16.9,47.2c11.9,0,23.1,0,35,0C161,110.5,155.4,94.9,149.8,79.3z"/>
</g>
</svg>
