<!-- Generated by IcoMoon.io -->
<svg version="1.1" xmlns="http://www.w3.org/2000/svg" width="32" height="32" viewBox="0 0 32 32">
<title>LAKEBTC</title>
<path d="M15.252 0.508c2.977 0 5.757 0.875 8.085 2.37v0c-0.056-0.028-0.127-0.071-0.183-0.099-0.042-0.014-0.085-0.042-0.141-0.071-0.071-0.028-0.127-0.056-0.183-0.085-0.042-0.014-0.085-0.042-0.141-0.056-0.071-0.028-0.127-0.071-0.198-0.085-0.042-0.014-0.085-0.028-0.127-0.056-0.071-0.028-0.141-0.056-0.212-0.085-0.042-0.014-0.071-0.028-0.113-0.042-0.085-0.028-0.155-0.056-0.24-0.085-0.028-0.014-0.071-0.028-0.099-0.042-0.085-0.028-0.169-0.056-0.254-0.085-0.028-0.014-0.056-0.014-0.085-0.028-0.085-0.028-0.169-0.056-0.268-0.085l-0.071-0.014c-0.085-0.028-0.183-0.056-0.282-0.085l-0.071-0.014c-0.099-0.028-0.198-0.056-0.296-0.085v0c-1.594-0.607-3.316-0.931-5.122-0.931-4.049 0-7.704 1.637-10.356 4.289s-4.275 6.293-4.275 10.342 1.637 7.704 4.289 10.342c1.101 1.101 2.37 2.018 3.767 2.723l0.028 0.028c0.085 0.056 0.169 0.113 0.254 0.169l0.042 0.028c0.085 0.056 0.169 0.099 0.254 0.155l0.071 0.042c0.085 0.042 0.169 0.085 0.24 0.141l0.085 0.042c0.085 0.042 0.155 0.085 0.226 0.127 0.028 0.014 0.071 0.028 0.099 0.042 0.071 0.042 0.141 0.071 0.212 0.099 0.042 0.028 0.085 0.042 0.127 0.056 0.056 0.028 0.127 0.071 0.183 0.085 0.056 0.028 0.099 0.042 0.155 0.071s0.113 0.056 0.169 0.085c0.056 0.028 0.113 0.042 0.169 0.071 0.056 0.014 0.099 0.042 0.155 0.071s0.113 0.042 0.169 0.071c0.056 0.014 0.113 0.042 0.169 0.056v0c-2.624-0.677-4.952-2.046-6.815-3.894-2.709-2.737-4.388-6.476-4.388-10.61s1.679-7.873 4.388-10.582 6.448-4.388 10.582-4.388z"></path>
<path d="M30.053 15.478c0 8.174-6.627 14.801-14.801 14.801s-14.801-6.627-14.801-14.801c0-8.174 6.627-14.801 14.801-14.801s14.801 6.627 14.801 14.801z"></path>
<path d="M16.649 1.298c8.183 0 14.815 6.631 14.815 14.801s-6.631 14.801-14.815 14.801-14.787-6.631-14.787-14.801 6.617-14.801 14.787-14.801zM14.575 6.363h1.806v3.104h1.397v-3.104h1.778l0.014 3.118c0.945 0.085 1.439 0 2.384 0.339 1.256 0.451 2.145 1.354 2.173 2.907 0.014 1.383-0.423 2.286-1.623 3.005 1.383 0.325 2.384 1.143 2.61 2.624 0.099 0.847 0.085 1.764-0.282 2.54-0.395 0.889-1.185 1.552-2.074 1.933-1.002 0.437-2.116 0.578-3.203 0.564v2.455c0 0.183 0 0.367-0.028 0.536h-1.806v-2.963h-1.34v2.977h-1.82v-2.963h-3.951l0.325-2.201 1.623-0.014c0.254 0 0.466-0.212 0.437-0.451v-8.861c0.028-0.282-0.226-0.508-0.508-0.508l-1.905-0.014v-1.877h3.753c0.099 0.014 0.24-0.014 0.212-0.155v-2.991h0.028zM16.381 11.57v3.753l2.314-0.014c1.016 0 1.905-0.48 2.145-1.467 0.042-0.183 0.071-0.367 0.056-0.564-0.085-1.101-1.227-1.735-2.258-1.721l-2.258 0.014zM16.381 17.157v4.064h2.963c1.481-0.014 2.427-0.621 2.413-2.215 0-1.27-0.917-1.82-2.215-1.877l-3.16 0.028z"></path>
<path d="M16.649 1.129c4.134 0 7.873 1.679 10.582 4.388s4.388 6.448 4.388 10.582-1.679 7.873-4.388 10.582-6.448 4.388-10.582 4.388-7.873-1.679-10.582-4.388-4.388-6.448-4.388-10.582 1.679-7.873 4.388-10.582 6.462-4.388 10.582-4.388zM27.005 5.742c-2.653-2.638-6.307-4.289-10.356-4.289-4.035 0-7.704 1.637-10.342 4.289-2.653 2.638-4.289 6.307-4.289 10.342s1.637 7.704 4.289 10.342 6.307 4.289 10.342 4.289c4.049 0 7.704-1.637 10.342-4.289 2.653-2.653 4.289-6.307 4.289-10.342 0.014-4.035-1.623-7.69-4.275-10.342z"></path>
<path d="M12.332 22.928l-1.905 0.677-1.298-0.677 1.298-1.679 2.173-0.762-0.169-3.852c0 0-0.212-3.753-0.183-3.88s0.071-1.961 0.071-1.961l-1.877 0.748-1.298-0.677 0.776-1.637 2.878 0.099 1.354-0.875 0.776-1.228c0 0-0.183-1.312-0.183-1.171 0 0.155 0.508-0.522 0.508-0.522l1.298 0.677 1.862-0.663 1.298 0.677-0.875 2.145 1.044 0.988 0.847-0.339 2.229 1.129 0.48 1.919-0.663 1.51-0.536 0.762v-3.273h-6.97v10.921h6.123l-0.635 0.296c0 0-1.411 0.071-1.397 0.169s-0.917 1.961-0.917 1.961l-0.861 2.159-1.665-1.157-1.411 1.143h-0.085l-1.298-0.677c0 0 0.776-2.568 0.776-2.511-0.014 0.071-1.623-0.748-1.566-0.437zM22.222 17.030l0.113 0.169 0.691 2.892-0.79 1.453-0.028 0.014v-4.529h0.014z"></path>
<path d="M16.649 4.049c3.316 0 6.335 1.354 8.508 3.527s3.527 5.178 3.527 8.508c0 3.316-1.355 6.335-3.527 8.508-2.187 2.187-5.192 3.527-8.508 3.527s-6.335-1.355-8.508-3.527-3.527-5.178-3.527-8.508 1.354-6.335 3.527-8.508c2.187-2.173 5.192-3.527 8.508-3.527zM24.931 7.817c-2.116-2.116-5.037-3.429-8.282-3.429-3.231 0-6.166 1.312-8.282 3.429s-3.429 5.051-3.429 8.282 1.312 6.166 3.429 8.282 5.051 3.429 8.282 3.429 6.166-1.312 8.282-3.429 3.429-5.051 3.429-8.282-1.298-6.166-3.429-8.282z"></path>
<path d="M13.263 5.7h1.806v3.104l1.397-0.014v-3.104h1.778l0.014 3.118c0.945 0.085 1.439 0 2.384 0.339 1.256 0.451 2.145 1.354 2.173 2.907 0.014 1.383-0.423 2.286-1.623 3.005 1.383 0.325 2.384 1.143 2.61 2.624 0.099 0.847 0.085 1.764-0.282 2.54-0.395 0.889-1.185 1.552-2.074 1.933-1.002 0.437-2.116 0.564-3.203 0.564v2.455c0 0.183 0 0.367-0.028 0.536h-1.806v-2.991h-1.34v2.977h-1.806v-2.963h-3.951l0.325-2.201 1.623-0.014c0.254 0 0.466-0.212 0.437-0.466v-8.804c0.028-0.282-0.226-0.508-0.508-0.508l-1.905-0.014v-1.877h3.753c0.099 0.014 0.24-0.014 0.212-0.155l0.014-2.991zM15.083 10.892v3.753l2.314-0.014c1.002 0 1.905-0.48 2.145-1.467 0.042-0.183 0.071-0.367 0.056-0.564-0.085-1.101-1.227-1.735-2.258-1.721l-2.258 0.014zM15.069 16.494v4.064h2.963c1.481-0.014 2.427-0.621 2.413-2.215-0.014-1.27-0.917-1.82-2.215-1.877l-3.16 0.028z"></path>
<path d="M13.263 5.531h1.975v3.118h1.072v-3.132h2.116v0.169l0.014 2.963c0.169 0.014 0.339 0.014 0.48 0.028 0.593 0.028 1.072 0.042 1.806 0.325 0.691 0.254 1.27 0.635 1.679 1.185 0.367 0.494 0.578 1.115 0.593 1.877 0 0.72-0.099 1.312-0.367 1.834-0.226 0.423-0.55 0.79-1.016 1.115 0.593 0.183 1.115 0.48 1.51 0.875 0.451 0.452 0.748 1.030 0.861 1.778v0c0.056 0.437 0.085 0.889 0.028 1.326-0.042 0.451-0.141 0.889-0.339 1.298v0c-0.198 0.451-0.494 0.847-0.847 1.185-0.381 0.353-0.832 0.635-1.312 0.847v0c-0.508 0.226-1.058 0.367-1.608 0.466-0.494 0.085-1.002 0.113-1.496 0.113v2.286c0 0.085 0 0.183 0 0.268 0 0.099-0.014 0.198-0.028 0.296l-0.014 0.141h-2.116v-2.991h-1.016v2.977h-2.145v-2.963h-3.965l0.028-0.183 0.325-2.201 0.028-0.141h0.141l1.623-0.014c0.014 0 0.014 0 0.028 0v0c0.071-0.014 0.127-0.042 0.169-0.085s0.071-0.099 0.071-0.169c0-0.014 0-0.014 0-0.028v-8.875c0-0.085-0.028-0.155-0.085-0.212-0.071-0.056-0.141-0.099-0.226-0.099-0.014 0-0.014 0-0.028 0v0l-2.074-0.014v-2.215h3.937c0 0 0.014 0 0.028 0v-3.146h0.169zM14.914 5.855h-1.481v2.808c0 0.028 0 0.056 0 0.085-0.014 0.071-0.042 0.127-0.099 0.169v0c-0.042 0.028-0.085 0.056-0.155 0.071v0c-0.042 0-0.085 0-0.127 0h-3.584v1.552l1.75 0.014c0.014 0 0.028 0 0.056 0 0.155 0.014 0.31 0.085 0.423 0.198s0.183 0.268 0.183 0.451c0 0.014 0 0.028 0 0.042v8.818c0 0.014 0 0.042 0 0.056 0 0.155-0.056 0.282-0.155 0.395-0.099 0.099-0.226 0.169-0.367 0.169v0c-0.014 0-0.042 0-0.071 0l-1.481 0.014-0.282 1.877h3.922v2.977h1.496v-2.977h1.679v2.991h1.51c0-0.042 0-0.071 0-0.113 0-0.085 0-0.183 0-0.268v0-2.624h0.169c0.536 0 1.072-0.028 1.608-0.113 0.522-0.085 1.030-0.226 1.524-0.437v0c0.437-0.183 0.861-0.451 1.213-0.776 0.325-0.296 0.593-0.663 0.762-1.072v0c0.169-0.381 0.268-0.79 0.296-1.199 0.042-0.423 0.014-0.847-0.028-1.27v0c-0.099-0.677-0.367-1.199-0.762-1.594-0.437-0.437-1.016-0.734-1.721-0.889l-0.395-0.085 0.339-0.212c0.578-0.339 0.959-0.72 1.199-1.185 0.254-0.466 0.339-1.016 0.339-1.679-0.014-0.691-0.198-1.256-0.522-1.693-0.367-0.494-0.903-0.832-1.524-1.058-0.691-0.254-1.129-0.268-1.707-0.296-0.198 0-0.423-0.014-0.649-0.042l-0.155-0.014v-0.155l-0.014-2.963h-1.439v3.104h-1.735v-0.169l-0.014-2.907zM15.252 11.062v3.429l2.159-0.014c0.494 0 0.959-0.127 1.326-0.367 0.325-0.226 0.55-0.536 0.663-0.974v0c0.014-0.085 0.028-0.169 0.042-0.254s0.014-0.169 0-0.254c-0.028-0.466-0.268-0.847-0.621-1.101-0.409-0.31-0.945-0.466-1.467-0.466v0h-2.102zM14.928 14.646v-3.922h2.427c0.593-0.014 1.199 0.169 1.679 0.536 0.423 0.31 0.705 0.762 0.748 1.34 0 0.099 0 0.198 0 0.31 0 0.099-0.028 0.198-0.056 0.296v0c-0.127 0.508-0.409 0.903-0.79 1.157-0.423 0.282-0.945 0.423-1.51 0.423l-2.483 0.014-0.014-0.155zM15.238 16.649v3.739h2.808c0.705 0 1.27-0.155 1.665-0.48 0.381-0.325 0.593-0.832 0.593-1.58 0-0.55-0.198-0.945-0.508-1.227-0.353-0.31-0.903-0.451-1.538-0.494l-3.019 0.042zM14.914 20.557v-4.233h0.169l3.175-0.028c0.72 0.028 1.326 0.212 1.75 0.564 0.395 0.339 0.621 0.818 0.621 1.467 0 0.847-0.254 1.439-0.705 1.82s-1.086 0.55-1.862 0.564v0h-3.132l-0.014-0.155z"></path>
<path d="M14.575 6.363h1.806v3.104h1.397v-3.104h1.778l0.014 3.118c0.945 0.085 1.439 0 2.384 0.339 1.256 0.451 2.145 1.354 2.173 2.907 0.014 1.383-0.423 2.286-1.623 3.005 1.383 0.325 2.384 1.143 2.61 2.624 0.099 0.847 0.085 1.764-0.282 2.54-0.395 0.889-1.185 1.552-2.074 1.933-1.002 0.437-2.116 0.578-3.203 0.564v2.455c0 0.183 0 0.367-0.028 0.536h-1.806v-2.963h-1.34v2.977h-1.82v-2.963h-3.951l0.325-2.201 1.623-0.014c0.254 0 0.466-0.212 0.437-0.451v-8.861c0.028-0.282-0.226-0.508-0.508-0.508l-1.905-0.014v-1.877h3.753c0.099 0.014 0.24-0.014 0.212-0.155v-2.991h0.028zM16.381 11.57v3.753l2.314-0.014c1.016 0 1.905-0.48 2.145-1.467 0.042-0.183 0.071-0.367 0.056-0.564-0.071-1.101-1.227-1.735-2.258-1.721l-2.258 0.014zM16.381 17.157v4.064h2.963c1.481-0.014 2.427-0.621 2.413-2.215 0-1.27-0.917-1.82-2.215-1.877l-3.16 0.028z"></path>
<path d="M14.575 6.208h1.975v3.104h1.072v-3.118h2.116v0.169l0.014 2.963c0.169 0.014 0.339 0.014 0.48 0.028 0.593 0.028 1.072 0.056 1.806 0.325 0.691 0.254 1.27 0.635 1.679 1.185 0.367 0.494 0.578 1.115 0.593 1.877 0 0.72-0.099 1.312-0.367 1.834-0.226 0.423-0.55 0.79-1.016 1.115 0.593 0.183 1.115 0.48 1.51 0.875 0.451 0.451 0.748 1.030 0.861 1.778v0c0.056 0.437 0.085 0.889 0.028 1.326-0.042 0.451-0.141 0.889-0.325 1.298v0c-0.198 0.451-0.494 0.847-0.847 1.185-0.381 0.353-0.832 0.635-1.312 0.847v0c-0.508 0.226-1.058 0.367-1.608 0.466-0.494 0.085-1.002 0.113-1.496 0.113v2.286c0 0.085 0 0.183 0 0.268 0 0.099-0.014 0.198-0.028 0.296l-0.014 0.141h-0.141l-1.975-0.014v-2.991h-1.016v2.977h-2.159v-2.963h-3.965l0.028-0.183 0.325-2.201 0.028-0.141h0.141l1.623-0.014c0.014 0 0.014 0 0.028 0v0c0.071 0 0.127-0.042 0.169-0.085s0.071-0.099 0.071-0.169c0-0.014 0-0.014 0-0.028v-8.875c0-0.085-0.028-0.155-0.085-0.212s-0.141-0.099-0.226-0.099c-0.014 0-0.014 0-0.028 0v0l-2.074-0.014v-2.215h3.937c0 0 0.014 0 0.028 0v-3.132h0.169zM16.212 6.533h-1.481v2.808c0 0.028 0 0.056 0 0.085-0.014 0.071-0.042 0.127-0.099 0.169v0c-0.042 0.028-0.085 0.056-0.155 0.071v0c-0.042 0-0.085 0-0.127 0h-3.584v1.552l1.75 0.014c0.014 0 0.028 0 0.056 0 0.155 0.014 0.31 0.085 0.423 0.198s0.183 0.268 0.183 0.451c0 0.014 0 0.028 0 0.042v8.818c0 0.014 0 0.042 0 0.056 0 0.155-0.071 0.282-0.169 0.395-0.099 0.099-0.226 0.169-0.367 0.183v0c-0.014 0-0.042 0-0.071 0l-1.481 0.014-0.282 1.877h3.922v2.963h1.496v-2.977h1.679v2.991h1.51c0-0.042 0-0.071 0-0.113 0-0.085 0-0.183 0-0.268v0-2.624h0.169c0.536 0 1.072-0.028 1.608-0.113 0.522-0.085 1.030-0.226 1.524-0.437v0c0.437-0.183 0.861-0.451 1.213-0.776 0.325-0.296 0.593-0.663 0.776-1.072v0c0.169-0.381 0.268-0.79 0.296-1.199 0.042-0.423 0.014-0.847-0.028-1.27v0c-0.099-0.677-0.367-1.199-0.762-1.594-0.437-0.437-1.016-0.72-1.721-0.889l-0.395-0.085 0.339-0.212c0.578-0.339 0.959-0.72 1.199-1.185 0.254-0.466 0.339-1.016 0.339-1.679-0.014-0.691-0.198-1.256-0.522-1.693-0.367-0.494-0.903-0.847-1.524-1.072-0.691-0.254-1.129-0.268-1.707-0.296-0.198 0-0.423-0.014-0.649-0.042l-0.155-0.014v-0.155l-0.014-2.963h-1.453v3.090h-0.169l-1.397 0.014h-0.169v-3.062zM16.55 11.739v3.429l2.159-0.014c0.494 0 0.959-0.127 1.326-0.367 0.325-0.226 0.564-0.536 0.663-0.974v0c0.014-0.085 0.028-0.169 0.042-0.254 0-0.085 0-0.169 0-0.254-0.028-0.466-0.268-0.847-0.621-1.101-0.409-0.31-0.959-0.48-1.467-0.466v0h-2.102zM16.226 15.323v-3.922h2.427c0.593 0 1.199 0.169 1.679 0.536 0.423 0.31 0.705 0.762 0.748 1.34 0 0.099 0 0.198 0 0.31 0 0.099-0.028 0.198-0.056 0.296v0c-0.127 0.508-0.409 0.903-0.79 1.157-0.423 0.282-0.945 0.423-1.51 0.423l-2.483 0.014-0.014-0.155zM16.55 17.326v3.739h2.808c0.705-0.014 1.27-0.155 1.665-0.48 0.381-0.325 0.593-0.832 0.593-1.58 0-0.55-0.183-0.945-0.508-1.213-0.353-0.31-0.903-0.466-1.538-0.494l-3.019 0.028zM16.212 21.235v-4.233h0.169l3.175-0.028c0.72 0.028 1.326 0.212 1.75 0.564 0.395 0.339 0.621 0.818 0.621 1.467 0 0.847-0.254 1.439-0.705 1.82s-1.086 0.55-1.862 0.564v0h-3.132l-0.014-0.155z"></path>
</svg>
