<!-- Generated by IcoMoon.io -->
<svg version="1.1" xmlns="http://www.w3.org/2000/svg" width="32" height="32" viewBox="0 0 32 32">
<title>LBANK</title>
<path d="M15.351 15.76c-0.042-1.369-0.522-2.794-1.623-3.993-1.608-1.75-0.959-4.416 1.227-5.108 1.326-0.423 2.78 0.071 3.513 1.199 0.804 1.213 0.705 2.667-0.282 3.781-1.34 1.51-1.891 3.259-1.623 5.249 0.169 1.298 0.748 2.427 1.608 3.4 1.256 1.425 1.072 3.414-0.437 4.571-1.143 0.875-2.723 0.804-3.922-0.226-0.847-0.734-1.778-1.27-2.878-1.496-2.145-0.451-4.049 0.028-5.7 1.467-1.834 1.608-4.473 0.875-5.122-1.467-0.31-1.101 0.028-2.088 0.804-2.921 0.861-0.917 1.369-2.004 1.566-3.245 0.31-2.032-0.254-3.781-1.623-5.291-1.538-1.693-0.832-4.416 1.34-5.051 1.411-0.409 2.765 0.099 3.556 1.34 0.72 1.157 0.578 2.624-0.381 3.697-1.143 1.284-1.764 2.78-1.665 4.487 0.198 3.527 2.497 5.771 6.109 5.63 3.33-0.113 5.46-2.413 5.531-6.025z"></path>
<path d="M28.896 6.49c1.101 0.056 2.060 0.635 2.596 1.792 0.564 1.199 0.381 2.356-0.494 3.358-1.933 2.215-2.258 4.854-0.889 7.45 0.212 0.409 0.522 0.79 0.818 1.143 0.959 1.101 1.143 2.483 0.48 3.64-0.72 1.242-2.032 1.848-3.457 1.496-2.131-0.536-3.175-3.104-1.594-4.938 0.875-1.002 1.51-2.088 1.707-3.414 0.296-1.975-0.183-3.725-1.51-5.22-0.861-0.959-1.185-2.018-0.734-3.273 0.437-1.199 1.608-2.032 3.076-2.032z"></path>
<path d="M19.231 15.958c0-1.693 1.425-3.090 3.104-3.076 1.651 0.014 3.048 1.439 3.034 3.104-0.014 1.735-1.383 3.090-3.076 3.090-1.707-0.014-3.062-1.383-3.062-3.118z"></path>
</svg>
