<!-- Generated by IcoMoon.io -->
<svg version="1.1" xmlns="http://www.w3.org/2000/svg" width="32" height="32" viewBox="0 0 32 32">
<title>LCC</title>
<path d="M7.323 2.469c2.54 0 4.995 0 7.577 0-0.861 3.287-1.707 6.476-2.554 9.665 0.042 0.056 0.099 0.099 0.141 0.155 1.101-0.395 2.201-0.776 3.429-1.213-0.042 0.325-0.056 0.536-0.113 0.748-0.198 0.734-0.437 1.453-0.578 2.187-0.099 0.536-0.381 0.776-0.861 0.931-1.002 0.339-1.975 0.72-3.062 1.115-0.508 1.891-1.016 3.81-1.524 5.728 0.607 0.212 8.508 0.282 9.806 0.099-0.042-0.466-0.099-0.931-0.127-1.411-0.198-3.231 0.861-5.855 3.697-7.591 1.623-0.988 3.429-1.115 5.263-0.903 1.58 0.183 2.258 0.423 3.118 1.044-0.451 0.832-0.903 1.665-1.298 2.399-0.959-0.212-1.778-0.466-2.624-0.536-1.905-0.155-3.231 0.776-3.979 2.469-0.705 1.58-0.705 3.231 0 4.811 1.002 2.201 4.007 2.892 6.039 1.439 0.212-0.155 0.423-0.325 0.734-0.55 0.536 0.861 1.058 1.665 1.623 2.554-1.58 1.439-3.429 1.735-5.376 1.735-1.961 0-3.739-0.55-5.249-1.975-0.169 0.508-0.31 0.931-0.466 1.397-6.646 0-13.291 0-20.049 0 0.663-2.526 1.298-4.966 1.989-7.591-1.002 0.339-1.848 0.635-2.85 0.974 0.339-1.284 0.635-2.427 0.945-3.598 0.959-0.367 1.919-0.734 2.907-1.115 1.129-4.289 2.272-8.593 3.443-12.966z"></path>
</svg>
