<?xml version="1.0" encoding="utf-8"?>
<!-- Generator: Adobe Illustrator 22.1.0, SVG Export Plug-In . SVG Version: 6.00 Build 0)  -->
<svg version="1.1" id="Layer_1" xmlns="http://www.w3.org/2000/svg" xmlns:xlink="http://www.w3.org/1999/xlink" x="0px" y="0px"
	 viewBox="0 0 226.8 226.8" style="enable-background:new 0 0 226.8 226.8;" xml:space="preserve">
<g>
	<path d="M51.9,17.5c18,0,35.4,0,53.7,0c-6.1,23.3-12.1,45.9-18.1,68.5c0.3,0.4,0.7,0.7,1,1.1c7.8-2.8,15.6-5.5,24.3-8.6
		c-0.3,2.3-0.4,3.8-0.8,5.3c-1.4,5.2-3.1,10.3-4.1,15.5c-0.7,3.8-2.7,5.5-6.1,6.6c-7.1,2.4-14,5.1-21.7,7.9
		c-3.6,13.4-7.2,27-10.8,40.6c4.3,1.5,60.3,2,69.5,0.7c-0.3-3.3-0.7-6.6-0.9-10c-1.4-22.9,6.1-41.5,26.2-53.8
		c11.5-7,24.3-7.9,37.3-6.4c11.2,1.3,16,3,22.1,7.4c-3.2,5.9-6.4,11.8-9.2,17c-6.8-1.5-12.6-3.3-18.6-3.8
		c-13.5-1.1-22.9,5.5-28.2,17.5c-5,11.2-5,22.9,0,34.1c7.1,15.6,28.4,20.5,42.8,10.2c1.5-1.1,3-2.3,5.2-3.9
		c3.8,6.1,7.5,11.8,11.5,18.1c-11.2,10.2-24.3,12.3-38.1,12.3c-13.9,0-26.5-3.9-37.2-14c-1.2,3.6-2.2,6.6-3.3,9.9
		c-47.1,0-94.2,0-142.1,0c4.7-17.9,9.2-35.2,14.1-53.8c-7.1,2.4-13.1,4.5-20.2,6.9c2.4-9.1,4.5-17.2,6.7-25.5
		c6.8-2.6,13.6-5.2,20.6-7.9C35.5,79,43.6,48.5,51.9,17.5z"/>
</g>
</svg>
