<?xml version="1.0" encoding="utf-8"?>
<!-- Generator: Adobe Illustrator 22.0.1, SVG Export Plug-In . SVG Version: 6.00 Build 0)  -->
<svg version="1.1" id="Layer_1" xmlns="http://www.w3.org/2000/svg" xmlns:xlink="http://www.w3.org/1999/xlink" x="0px" y="0px"
	 viewBox="0 0 250 250" style="enable-background:new 0 0 250 250;" xml:space="preserve">
<style type="text/css">
	.st0{stroke:#FFFFFF;stroke-miterlimit:10;}
</style>
<path class="st0" d="M126.6,2.2C194.7,2.2,250,57.4,250,125.6c0,68.2-55.3,123.4-123.4,123.4S3.1,193.8,3.1,125.6
	C3.1,57.4,58.4,2.2,126.6,2.2L126.6,2.2z M93.3,56.1l-0.4-3.6c-1,0-2.2,0-3.6,0.1c-1.5,0-3,0-4.7,0c-1.7,0-3.4,0-5,0.1
	c-1.7,0-3.2,0-4.5,0c-1.7,0-3.5,0-5.4,0c-2,0-3.9-0.1-5.7-0.1c-1.9,0-3.6,0-5.3,0c-1.6,0-3-0.1-4.1-0.1L54,56.3
	c3,0.1,5.4,0.4,7.2,0.7c1.8,0.4,3.1,0.9,4.1,1.6c0.9,0.7,1.6,1.6,1.9,2.8c0.3,1.1,0.5,2.5,0.5,4.2V136c0,2.7-0.2,4.8-0.5,6.5
	c-0.3,1.6-1,2.9-2,3.9c-1,0.9-2.4,1.6-4.1,2.1c-1.8,0.4-4.1,0.8-7,1l0.3,3.6c1,0,2.2,0,3.7,0c1.5,0,3.1-0.1,4.8-0.1c1.7,0,3.4,0,5,0
	c1.7,0,3.2-0.1,4.6-0.1h3.6c1.3,0,2.9,0,4.6,0.1c1.7,0,3.8,0,6.2,0c11.9,0,23.9,0,35.8,0v28.8c0,2.7-0.1,4.8-0.5,6.5
	c-0.3,1.6-0.9,2.9-1.8,3.9c-0.9,0.9-2.2,1.6-3.8,2.1c-1.6,0.4-3.8,0.8-6.5,1l0.2,3.6c1,0,2.2,0,3.6,0c1.4,0,2.9-0.1,4.4-0.1
	c1.6,0,3.2,0,4.8,0c1.6,0,3.1-0.1,4.4-0.1c3.4,0,6.7,0,10.2,0.1c3.5,0.1,6.9,0.1,10.3,0.1v-3.8c-3.3-0.1-5.8-0.3-7.6-0.7
	c-1.8-0.4-3.1-0.9-3.9-1.7c-0.9-0.8-1.3-1.7-1.5-2.9c-0.1-1.2-0.2-2.6-0.2-4.2v-31.9c1.1,0.1,2.1,0.1,2.9,0.2c0.8,0,1.5,0,2.1,0h3.1
	c1.6,0,2.9,0.1,3.9,0.3c1,0.2,1.8,0.5,2.4,0.9c0.6,0.4,1.1,0.9,1.5,1.4c0.4,0.6,0.8,1.2,1.2,1.9c2.7,4.5,5.2,7.7,7.6,12
	c2.4,4.4,4.7,8.5,6.7,12.2c2,3.8,3.7,7,5.2,9.9c1.5,2.8,2.6,5,3.2,6.4c1-0.1,2-0.1,3.2-0.1c1.1,0,2.2-0.1,3.2-0.1
	c3.1,0,6.4,0,9.8,0.1c3.4,0.1,6.1,0.1,8.2,0.1l0.2-3.8c-2.5-0.2-4.4-0.5-6-0.8c-1.5-0.3-2.9-0.7-4-1.3c-1.1-0.6-2.2-1.4-3.2-2.5
	c-1-1.1-2.1-2.5-3.5-4.4c-1-1.4-2.2-3.3-3.7-5.8c-1.5-2.4-3.2-5.3-5-8.5c-1.9-3.3-3.9-6.8-6-10.7c-2.2-3.9-4.4-8-6.6-12.2
	c3-1.1,5.7-2.6,8.2-4.4c2.5-1.8,4.6-3.8,6.4-6.2c1.8-2.3,3.2-4.9,4.2-7.8c1-2.9,1.5-5.9,1.5-9.1c0-4.8-1-8.8-3.1-11.9
	c-2.1-3.1-4.9-5.5-8.2-7.4c-3.4-1.8-7.2-3.1-11.4-3.8c-4.2-0.7-8.4-1-12.6-1c-2.9,0-5.8,0.2-8.6,0.6c-2.8,0.4-5.6,0.6-8.4,0.6
	c-1.7,0-3.4,0-5.2,0c-1.8,0-3.6-0.1-5.3-0.1c-1.8,0-3.4,0-4.9,0c-1.5,0-2.8-0.1-3.9-0.1l-0.2,3.8c2.9,0.1,5.3,0.4,7,0.7
	c1.8,0.4,3.1,0.9,3.9,1.6c0.9,0.7,1.4,1.6,1.7,2.8c0.3,1.1,0.4,2.5,0.4,4.2v34.6l-40.8,0c-1.3-1.3-1.5-2.6-1.8-4.1
	c-0.3-1.5-0.5-3.5-0.5-5.9V69.5c0-2.6,0.2-4.7,0.5-6.4c0.3-1.6,1-3,2-3.9c1-1,2.4-1.6,4.1-2.1C88.1,56.6,90.4,56.3,93.3,56.1
	L93.3,56.1z M134.7,146c0.6,0.1,1.1,0.1,1.7,0.1c0.5,0,1.1,0.1,1.7,0.1h3.3c8.2,0,14.6-0.9,19.1-4.6c4.5-3.8,6.7-9.9,6.7-18.3
	c0-7.1-2.1-12.3-6.4-15.6c-4.3-3.3-10-4.9-17.1-4.9c-2.2,0-3.9,0.2-5.1,0.6c-1.2,0.4-2.1,0.9-2.7,1.7c-0.6,0.7-0.9,1.7-1,2.8
	c-0.1,1.1-0.2,2.4-0.2,3.8L134.7,146L134.7,146z"/>
</svg>
