<!-- Generated by IcoMoon.io -->
<svg version="1.1" xmlns="http://www.w3.org/2000/svg" width="32" height="32" viewBox="0 0 32 32">
<title>LDG</title>
<path d="M16.205 0.282c8.717 0 15.795 7.066 15.795 15.795s-7.078 15.795-15.795 15.795-15.808-7.066-15.808-15.795c0-8.73 7.078-15.795 15.808-15.795v0zM11.942 7.181l-0.051-0.461c-0.128 0-0.282 0-0.461 0.013-0.192 0-0.384 0-0.602 0s-0.435 0-0.64 0.013c-0.218 0-0.41 0-0.576 0-0.218 0-0.448 0-0.691 0-0.256 0-0.499-0.013-0.73-0.013-0.243 0-0.461 0-0.678 0-0.205 0-0.384-0.013-0.525-0.013l-0.077 0.486c0.384 0.013 0.691 0.051 0.922 0.090 0.23 0.051 0.397 0.115 0.525 0.205 0.115 0.090 0.205 0.205 0.243 0.358 0.038 0.141 0.064 0.32 0.064 0.538v9.011c0 0.346-0.026 0.614-0.064 0.832-0.038 0.205-0.128 0.371-0.256 0.499-0.128 0.115-0.307 0.205-0.525 0.269-0.23 0.051-0.525 0.102-0.896 0.128l0.038 0.461c0.128 0 0.282 0 0.474 0s0.397-0.013 0.614-0.013c0.218 0 0.435 0 0.64 0 0.218 0 0.41-0.013 0.589-0.013h0.461c0.166 0 0.371 0 0.589 0.013 0.218 0 0.486 0 0.794 0 1.523 0 3.059 0 4.582 0v3.686c0 0.346-0.013 0.614-0.064 0.832-0.038 0.205-0.115 0.371-0.23 0.499-0.115 0.115-0.282 0.205-0.486 0.269-0.205 0.051-0.486 0.102-0.832 0.128l0.026 0.461c0.128 0 0.282 0 0.461 0s0.371-0.013 0.563-0.013c0.205 0 0.41 0 0.614 0s0.397-0.013 0.563-0.013c0.435 0 0.858 0 1.306 0.013s0.883 0.013 1.318 0.013v-0.486c-0.422-0.013-0.742-0.038-0.973-0.090s-0.397-0.115-0.499-0.218c-0.115-0.102-0.166-0.218-0.192-0.371-0.013-0.154-0.026-0.333-0.026-0.538v-4.083c0.141 0.013 0.269 0.013 0.371 0.026 0.102 0 0.192 0 0.269 0h0.397c0.205 0 0.371 0.013 0.499 0.038s0.23 0.064 0.307 0.115c0.077 0.051 0.141 0.115 0.192 0.179 0.051 0.077 0.102 0.154 0.154 0.243 0.346 0.576 0.666 0.986 0.973 1.536 0.307 0.563 0.602 1.088 0.858 1.562 0.256 0.486 0.474 0.896 0.666 1.267 0.192 0.358 0.333 0.64 0.41 0.819 0.128-0.013 0.256-0.013 0.41-0.013 0.141 0 0.282-0.013 0.41-0.013 0.397 0 0.819 0 1.254 0.013s0.781 0.013 1.050 0.013l0.026-0.486c-0.32-0.026-0.563-0.064-0.768-0.102-0.192-0.038-0.371-0.090-0.512-0.166s-0.282-0.179-0.41-0.32c-0.128-0.141-0.269-0.32-0.448-0.563-0.128-0.179-0.282-0.422-0.474-0.742-0.192-0.307-0.41-0.678-0.64-1.088-0.243-0.422-0.499-0.87-0.768-1.37-0.282-0.499-0.563-1.024-0.845-1.562 0.384-0.141 0.73-0.333 1.050-0.563s0.589-0.486 0.819-0.794c0.23-0.294 0.41-0.627 0.538-0.998s0.192-0.755 0.192-1.165c0-0.614-0.128-1.126-0.397-1.523s-0.627-0.704-1.050-0.947c-0.435-0.23-0.922-0.397-1.459-0.486s-1.075-0.128-1.613-0.128c-0.371 0-0.742 0.026-1.101 0.077s-0.717 0.077-1.075 0.077c-0.218 0-0.435 0-0.666 0s-0.461-0.013-0.678-0.013c-0.23 0-0.435 0-0.627 0s-0.358-0.013-0.499-0.013l-0.026 0.486c0.371 0.013 0.678 0.051 0.896 0.090 0.23 0.051 0.397 0.115 0.499 0.205 0.115 0.090 0.179 0.205 0.218 0.358 0.038 0.141 0.051 0.32 0.051 0.538v4.429h-5.222c-0.166-0.166-0.192-0.333-0.23-0.525s-0.064-0.448-0.064-0.755v-8.512c0-0.333 0.026-0.602 0.064-0.819 0.038-0.205 0.128-0.384 0.256-0.499 0.128-0.128 0.307-0.205 0.525-0.269 0.243-0.064 0.538-0.102 0.909-0.128v0zM17.242 18.688c0.077 0.013 0.141 0.013 0.218 0.013 0.064 0 0.141 0.013 0.218 0.013h0.422c1.050 0 1.869-0.115 2.445-0.589 0.576-0.486 0.858-1.267 0.858-2.342 0-0.909-0.269-1.574-0.819-1.997s-1.28-0.627-2.189-0.627c-0.282 0-0.499 0.026-0.653 0.077s-0.269 0.115-0.346 0.218c-0.077 0.090-0.115 0.218-0.128 0.358s-0.026 0.307-0.026 0.486v4.39z"></path>
</svg>
