<!-- Generated by IcoMoon.io -->
<svg version="1.1" xmlns="http://www.w3.org/2000/svg" width="32" height="32" viewBox="0 0 32 32">
<title>LDOGE</title>
<path d="M29.884 13.789c0.558-0.972 0.103-1.344 0.103-1.344s0.434-2.232-0.454-2.232c0-0.496-1.323-2.253-1.447-1.364 0 0-2.501-1.984-5.167-0.517s-2.48 4.175-2.48 4.175-1.963 0.041-2.687-0.083c-0.723-0.124-2.149-0.848-2.149-0.848s1.323-1.033 0.951-2.521c0.93 0.103-0.785-2.046-0.992-2.377 0 0 0.6-5.932-0.951-6.469s-3.327 2.997-3.472 2.997c-0.145 0-0.834-0.358-1.812-0.413s-1.943 0.262-1.943 0.262-1.998-3.459-3.362-2.901c-1.364 0.558-0.964 5.794-0.923 6.525 0 0-1.281 1.426-1.261 1.901s0.289 0.579 0.289 0.579-0.124 0.889 0.041 1.302c0.165 0.413 2.232 2.315 2.377 2.687s-0.103 4.299 0.248 6.407c0.351 2.108 1.302 3.72 1.674 6.386s-0.207 5.353 0 5.539c0.207 0.186 2.315 0.186 2.604 0s0.537-2.604 0.558-4.010c0.021-1.405 0-3.431 0-3.431s1.509 0.124 1.695 0.496c0.186 0.372 0.165 2.397 0.103 3.741s-0.496 3.224-0.351 3.452c0.145 0.227 2.088 0.475 2.563 0s1.24-7.833 1.364-7.978c0.124-0.145 3.142-2.149 3.142-2.149s0.041 1.137 0.372 1.612c0.331 0.475 2.418 2.294 2.46 2.79s-2.067 3.948-1.839 4.092c0.227 0.145 2.708 0.372 3.183 0.083s1.281-2.232 1.467-3.018c0.186-0.785 0.393-2.542 0.393-2.542s2.356 1.178 2.48 1.488c0.124 0.31 0.021 2.253-0.248 3.038s-1.095 2.232-0.909 2.356c0.186 0.124 3.018 0.248 3.245 0.062s1.116-5.229 0.889-6.862c-0.227-1.633-1.075-1.426-1.157-2.129s0.186-4.258 0.021-5.312-0.641-1.364-0.641-1.571c-0-0.207 1.468-0.93 2.025-1.901zM6.433 8.691c-0.609 0-1.102-0.771-1.102-1.723s0.494-1.722 1.102-1.722 1.102 0.771 1.102 1.722c-0 0.951-0.494 1.723-1.102 1.723zM8.41 13.965c-0.744 0-1.199-0.909-1.064-1.684 0.765 0.031 1.016-0.393 1.016-0.393 0.306 0.506 1.144 0.362 1.206 0.372 0 0.713-0.413 1.705-1.158 1.705zM8.362 11.343c-0.666 0-1.206-0.336-1.206-0.751s0.54-0.751 1.206-0.751c0.666 0 1.206 0.336 1.206 0.751s-0.54 0.751-1.206 0.751zM11.201 8.691c-0.609 0-1.102-0.771-1.102-1.723s0.494-1.722 1.102-1.722 1.102 0.771 1.102 1.722-0.494 1.723-1.102 1.723z"></path>
</svg>
