<!-- Generated by IcoMoon.io -->
<svg version="1.1" xmlns="http://www.w3.org/2000/svg" width="32" height="32" viewBox="0 0 32 32">
<title>LEDGER_BLUE</title>
<path d="M26.854 0h-14.72v19.75h19.75v-14.618c0.013-2.765-2.253-5.133-5.030-5.133zM7.616 0h-2.47c-2.778 0-5.146 2.266-5.146 5.146v2.47h7.616v-7.616zM0 12.237h7.616v7.616h-7.616v-7.616zM24.282 31.987h2.47c2.778 0 5.146-2.266 5.146-5.146v-2.458h-7.616v7.603zM12.134 24.384h7.616v7.616h-7.616v-7.616zM0 24.384v2.47c0 2.778 2.266 5.146 5.146 5.146h2.47v-7.616h-7.616z"></path>
</svg>
