<!-- Generated by IcoMoon.io -->
<svg version="1.1" xmlns="http://www.w3.org/2000/svg" width="32" height="32" viewBox="0 0 32 32">
<title>LEO</title>
<path d="M0 16.198c0.028-7.337 4.529-13.277 10.892-15.407 2.243-0.748 4.543-0.931 6.914-0.677 6.039 0.663 11.683 5.136 13.418 11.697 2.243 8.452-2.554 16.988-10.667 19.471-9.284 2.836-18.342-3.062-20.19-11.922-0.099-0.494-0.198-0.988-0.254-1.496-0.071-0.621-0.085-1.242-0.113-1.665zM28.19 15.972c-0.071-0.705-0.113-1.453-0.226-2.187-0.367-2.258-1.312-4.275-2.85-5.968-2.991-3.316-6.73-4.684-11.146-4.035-3.527 0.522-6.265 2.342-8.254 5.277-1.862 2.723-2.469 5.757-1.947 9.002 0.536 3.302 2.201 5.982 4.896 7.958 2.13 1.566 4.543 2.342 7.21 2.342 1.735 0 3.414-0.282 4.967-1.030 4.727-2.272 7.125-6.095 7.351-11.358z"></path>
<path d="M10.921 23.958c0-1.608 0-3.189 0-4.811-0.296-0.014-0.536-0.028-0.762-0.042-0.212-0.014-0.423-0.028-0.663-0.042 0-0.72 0-1.383 0-2.116 0.451 0 0.889 0 1.369 0 0.113-0.691 0.071-1.298 0.042-1.947-0.48-0.028-0.917-0.042-1.411-0.071 0-0.705 0-1.369 0-2.116 0.451-0.028 0.889-0.056 1.425-0.099 0.042-1.552 0-3.104 0.028-4.642 0.55-0.155 2.413-0.198 3.302-0.056 0.141 0.494 0.042 1.030 0.056 1.552 0.014 0.508 0 1.016 0 1.51 0 0.522 0 1.058 0 1.623 0.226 0.014 0.409 0.042 0.593 0.056 0.776 0 1.538 0 2.314 0.014 0.254 0 0.522 0.042 0.818 0.071 0 0.705 0 1.369 0 2.088-1.227 0-2.413 0-3.668 0 0 0.663 0 1.27 0 1.975 1.199 0 2.413 0 3.668 0 0 0.748 0 1.411 0 2.145-0.621 0.141-1.242 0.042-1.848 0.071-0.593 0.014-1.199 0-1.834 0 0 0.72 0 1.383 0 2.116 2.653 0 5.291 0 7.972 0 0 0.945 0 1.82 0 2.695-0.028 0.028-0.042 0.042-0.056 0.056s-0.042 0.028-0.056 0.028c-0.113 0.014-0.24 0.042-0.353 0.042-3.541 0-7.083 0-10.61 0-0.085-0.014-0.141-0.056-0.325-0.099z"></path>
</svg>
