<?xml version="1.0" encoding="utf-8"?>
<!-- Generator: Adobe Illustrator 22.1.0, SVG Export Plug-In . SVG Version: 6.00 Build 0)  -->
<svg version="1.1" id="Layer_1" xmlns="http://www.w3.org/2000/svg" xmlns:xlink="http://www.w3.org/1999/xlink" x="0px" y="0px"
	 viewBox="0 0 226.8 226.8" style="enable-background:new 0 0 226.8 226.8;" xml:space="preserve">
<g>
	<path d="M0,114.8c0.2-52,32.1-94.1,77.2-109.2c15.9-5.3,32.2-6.6,49-4.8C169,5.5,209,37.2,221.3,83.7
		c15.9,59.9-18.1,120.4-75.6,138C79.9,241.8,15.7,200,2.6,137.2c-0.7-3.5-1.4-7-1.8-10.6C0.3,122.2,0.2,117.8,0,114.8z M199.8,113.2
		c-0.5-5-0.8-10.3-1.6-15.5c-2.6-16-9.3-30.3-20.2-42.3C156.8,31.9,130.3,22.2,99,26.8C74,30.5,54.6,43.4,40.5,64.2
		C27.3,83.5,23,105,26.7,128c3.8,23.4,15.6,42.4,34.7,56.4c15.1,11.1,32.2,16.6,51.1,16.6c12.3,0,24.2-2,35.2-7.3
		C181.2,177.6,198.2,150.5,199.8,113.2z"/>
	<path d="M77.4,169.8c0-11.4,0-22.6,0-34.1c-2.1-0.1-3.8-0.2-5.4-0.3c-1.5-0.1-3-0.2-4.7-0.3c0-5.1,0-9.8,0-15c3.2,0,6.3,0,9.7,0
		c0.8-4.9,0.5-9.2,0.3-13.8c-3.4-0.2-6.5-0.3-10-0.5c0-5,0-9.7,0-15c3.2-0.2,6.3-0.4,10.1-0.7c0.3-11,0-22,0.2-32.9
		c3.9-1.1,17.1-1.4,23.4-0.4c1,3.5,0.3,7.3,0.4,11c0.1,3.6,0,7.2,0,10.7c0,3.7,0,7.5,0,11.5c1.6,0.1,2.9,0.3,4.2,0.4
		c5.5,0,10.9,0,16.4,0.1c1.8,0,3.7,0.3,5.8,0.5c0,5,0,9.7,0,14.8c-8.7,0-17.1,0-26,0c0,4.7,0,9,0,14c8.5,0,17.1,0,26,0
		c0,5.3,0,10,0,15.2c-4.4,1-8.8,0.3-13.1,0.5c-4.2,0.1-8.5,0-13,0c0,5.1,0,9.8,0,15c18.8,0,37.5,0,56.5,0c0,6.7,0,12.9,0,19.1
		c-0.2,0.2-0.3,0.3-0.4,0.4c-0.1,0.1-0.3,0.2-0.4,0.2c-0.8,0.1-1.7,0.3-2.5,0.3c-25.1,0-50.2,0-75.2,0
		C79.1,170.4,78.7,170.1,77.4,169.8z"/>
</g>
</svg>
