<!-- Generated by IcoMoon.io -->
<svg version="1.1" xmlns="http://www.w3.org/2000/svg" width="32" height="32" viewBox="0 0 32 32">
<title>LGO</title>
<path d="M16.522 16c0 5.136 0 10.272 0 15.407 0 0.113 0.028 0.254-0.028 0.339-0.085 0.113-0.226 0.254-0.353 0.254s-0.31-0.113-0.367-0.226c-0.071-0.113-0.042-0.296-0.042-0.451 0-10.102 0-20.205 0-30.321 0-0.212-0.014-0.437 0.014-0.649 0.014-0.24 0.141-0.367 0.395-0.367s0.381 0.127 0.381 0.367c0.014 0.212 0 0.437 0 0.649 0 5.009 0 10.004 0 14.998 0 0 0 0 0 0z"></path>
<path d="M6.914 11.175c0-2.836 0-5.672 0-8.508 0-0.056 0-0.099 0-0.155 0.014-0.254-0.085-0.578 0.31-0.621 0.268-0.028 0.409 0.212 0.409 0.649 0 4.755 0 9.51 0 14.265 0 1.002 0 2.004 0 3.019 0 0.155 0 0.325-0.085 0.437-0.071 0.099-0.254 0.198-0.367 0.183-0.099-0.014-0.212-0.183-0.268-0.31-0.042-0.099-0.014-0.226-0.014-0.339 0.014-2.878 0.014-5.742 0.014-8.621z"></path>
<path d="M25.34 11.175c0 2.892 0 5.771 0 8.663 0 0.268 0.071 0.635-0.353 0.621-0.367-0.014-0.381-0.339-0.381-0.635 0-5.757 0-11.513 0-17.284 0-0.141 0-0.31 0.071-0.409 0.085-0.113 0.268-0.24 0.381-0.226 0.099 0.014 0.212 0.198 0.268 0.339 0.042 0.113 0.014 0.254 0.014 0.381 0 2.85 0 5.7 0 8.55z"></path>
<path d="M18.667 19.852c0 1.806 0 3.612 0 5.418 0 0.085 0 0.183 0 0.268 0 0.254-0.071 0.466-0.381 0.48-0.31 0-0.367-0.24-0.367-0.48-0.014-1.058-0.028-2.116-0.014-3.16 0-2.638 0.014-5.263 0.014-7.901 0-0.169-0.014-0.339 0.042-0.494 0.042-0.113 0.212-0.268 0.31-0.254 0.127 0.014 0.282 0.141 0.353 0.254s0.042 0.268 0.042 0.409c0 1.834 0 3.654 0 5.46z"></path>
<path d="M13.573 19.852c0-1.806 0-3.612 0-5.418 0-0.141-0.028-0.31 0.028-0.409 0.071-0.127 0.226-0.282 0.367-0.296 0.099-0.014 0.24 0.169 0.325 0.296 0.056 0.085 0.028 0.226 0.028 0.339 0 3.668 0.014 7.351 0.014 11.019 0 0.113 0.014 0.254-0.042 0.339-0.085 0.127-0.226 0.282-0.339 0.282s-0.268-0.155-0.339-0.282c-0.056-0.113-0.042-0.268-0.042-0.409 0-1.82 0-3.64 0-5.46z"></path>
<path d="M9.961 18.314c0 1.34 0 2.695 0 4.035 0 0.127 0.028 0.268-0.028 0.381-0.071 0.141-0.226 0.353-0.31 0.339-0.141-0.028-0.296-0.183-0.395-0.325-0.056-0.085-0.028-0.24-0.028-0.367 0-2.723 0-5.432 0-8.155 0-0.071 0-0.127 0-0.198 0.014-0.268 0.099-0.494 0.409-0.48s0.339 0.268 0.339 0.494c0.014 1.425 0.014 2.85 0.014 4.275 0 0 0 0 0 0z"></path>
<path d="M22.293 18.328c0-1.355 0-2.723 0-4.078 0-0.127-0.028-0.268 0.028-0.381 0.071-0.127 0.212-0.31 0.31-0.31 0.141 0.014 0.296 0.155 0.381 0.268 0.056 0.085 0.042 0.24 0.042 0.367 0 2.737 0 5.46 0 8.198 0 0.48-0.141 0.734-0.409 0.691-0.409-0.071-0.353-0.409-0.353-0.691 0-1.355 0-2.709 0-4.064z"></path>
<path d="M20.176 20.769c0-0.593 0-1.199 0-1.792 0-0.254 0.028-0.564 0.381-0.55 0.339 0.014 0.367 0.296 0.367 0.564 0 1.185 0 2.356 0 3.541 0 0.282-0.071 0.536-0.395 0.536s-0.367-0.268-0.367-0.522c0-0.578 0.014-1.171 0.014-1.778 0 0 0 0 0 0z"></path>
<path d="M11.316 20.741c0-0.564 0-1.143 0-1.707 0-0.141 0.028-0.31 0.099-0.437 0.155-0.254 0.48-0.212 0.593 0.071 0.042 0.113 0.056 0.254 0.056 0.367 0 1.143 0 2.286 0 3.429 0 0.056 0 0.127-0.014 0.183-0.028 0.226-0.113 0.48-0.367 0.423-0.155-0.028-0.353-0.282-0.367-0.437-0.028-0.621 0-1.256 0-1.891 0 0 0 0 0 0z"></path>
</svg>
