<?xml version="1.0" encoding="utf-8"?>
<!-- Generator: Adobe Illustrator 22.1.0, SVG Export Plug-In . SVG Version: 6.00 Build 0)  -->
<svg version="1.1" id="Layer_1" xmlns="http://www.w3.org/2000/svg" xmlns:xlink="http://www.w3.org/1999/xlink" x="0px" y="0px"
	 viewBox="0 0 226.8 226.8" style="enable-background:new 0 0 226.8 226.8;" xml:space="preserve">
<g>
	<path d="M117.1,113.4c0,36.4,0,72.8,0,109.2c0,0.8,0.2,1.8-0.2,2.4c-0.6,0.8-1.6,1.8-2.5,1.8c-0.9,0-2.2-0.8-2.6-1.6
		c-0.5-0.8-0.3-2.1-0.3-3.2c0-71.6,0-143.2,0-214.9c0-1.5-0.1-3.1,0.1-4.6c0.1-1.7,1-2.6,2.8-2.6c1.8,0,2.7,0.9,2.7,2.6
		c0.1,1.5,0,3.1,0,4.6C117.1,42.6,117.1,78,117.1,113.4C117.1,113.4,117.1,113.4,117.1,113.4z"/>
	<path d="M49,79.2c0-20.1,0-40.2,0-60.3c0-0.4,0-0.7,0-1.1c0.1-1.8-0.6-4.1,2.2-4.4c1.9-0.2,2.9,1.5,2.9,4.6c0,33.7,0,67.4,0,101.1
		c0,7.1,0,14.2,0,21.4c0,1.1,0,2.3-0.6,3.1c-0.5,0.7-1.8,1.4-2.6,1.3c-0.7-0.1-1.5-1.3-1.9-2.2c-0.3-0.7-0.1-1.6-0.1-2.4
		C49,119.9,49,99.6,49,79.2z"/>
	<path d="M179.6,79.2c0,20.5,0,40.9,0,61.4c0,1.9,0.5,4.5-2.5,4.4c-2.6-0.1-2.7-2.4-2.7-4.5c0-40.8,0-81.6,0-122.5
		c0-1,0-2.2,0.5-2.9c0.6-0.8,1.9-1.7,2.7-1.6c0.7,0.1,1.5,1.4,1.9,2.4c0.3,0.8,0.1,1.8,0.1,2.7C179.6,38.8,179.6,59,179.6,79.2z"/>
	<path d="M132.3,140.7c0,12.8,0,25.6,0,38.4c0,0.6,0,1.3,0,1.9c0,1.8-0.5,3.3-2.7,3.4c-2.2,0-2.6-1.7-2.6-3.4
		c-0.1-7.5-0.2-15-0.1-22.4c0-18.7,0.1-37.3,0.1-56c0-1.2-0.1-2.4,0.3-3.5c0.3-0.8,1.5-1.9,2.2-1.8c0.9,0.1,2,1,2.5,1.8
		c0.5,0.8,0.3,1.9,0.3,2.9C132.3,115,132.3,127.9,132.3,140.7z"/>
	<path d="M96.2,140.7c0-12.8,0-25.6,0-38.4c0-1-0.2-2.2,0.2-2.9c0.5-0.9,1.6-2,2.6-2.1c0.7-0.1,1.7,1.2,2.3,2.1
		c0.4,0.6,0.2,1.6,0.2,2.4c0,26,0.1,52.1,0.1,78.1c0,0.8,0.1,1.8-0.3,2.4c-0.6,0.9-1.6,2-2.4,2c-0.8,0-1.9-1.1-2.4-2
		c-0.4-0.8-0.3-1.9-0.3-2.9C96.2,166.5,96.2,153.6,96.2,140.7z"/>
	<path d="M70.6,129.8c0,9.5,0,19.1,0,28.6c0,0.9,0.2,1.9-0.2,2.7c-0.5,1-1.6,2.5-2.2,2.4c-1-0.2-2.1-1.3-2.8-2.3
		c-0.4-0.6-0.2-1.7-0.2-2.6c0-19.3,0-38.5,0-57.8c0-0.5,0-0.9,0-1.4c0.1-1.9,0.7-3.5,2.9-3.4c2.2,0.1,2.4,1.9,2.4,3.5
		C70.6,109.6,70.6,119.7,70.6,129.8C70.6,129.8,70.6,129.8,70.6,129.8z"/>
	<path d="M158,129.9c0-9.6,0-19.3,0-28.9c0-0.9-0.2-1.9,0.2-2.7c0.5-0.9,1.5-2.2,2.2-2.2c1,0.1,2.1,1.1,2.7,1.9
		c0.4,0.6,0.3,1.7,0.3,2.6c0,19.4,0,38.7,0,58.1c0,3.4-1,5.2-2.9,4.9c-2.9-0.5-2.5-2.9-2.5-4.9C158,149.1,158,139.5,158,129.9z"/>
	<path d="M143,147.2c0-4.2,0-8.5,0-12.7c0-1.8,0.2-4,2.7-3.9c2.4,0.1,2.6,2.1,2.6,4c0,8.4,0,16.7,0,25.1c0,2-0.5,3.8-2.8,3.8
		c-2.3,0-2.6-1.9-2.6-3.7C142.9,155.7,143,151.5,143,147.2C143,147.2,143,147.2,143,147.2z"/>
	<path d="M80.2,147c0-4,0-8.1,0-12.1c0-1,0.2-2.2,0.7-3.1c1.1-1.8,3.4-1.5,4.2,0.5c0.3,0.8,0.4,1.8,0.4,2.6c0,8.1,0,16.2,0,24.3
		c0,0.4,0,0.9-0.1,1.3c-0.2,1.6-0.8,3.4-2.6,3c-1.1-0.2-2.5-2-2.6-3.1C80,156,80.2,151.5,80.2,147C80.2,147,80.2,147,80.2,147z"/>
</g>
</svg>
