<!-- Generated by IcoMoon.io -->
<svg version="1.1" xmlns="http://www.w3.org/2000/svg" width="32" height="32" viewBox="0 0 32 32">
<title>LINDA</title>
<path d="M25.58 3.386c-0.282 0.042-0.564 0.085-0.847 0.141-1.608 0.325-2.977 1.115-4.219 2.159-2.215 1.848-3.922 4.106-5.319 6.617-0.494 0.903-0.931 1.834-1.383 2.751-0.085 0.169-0.155 0.24-0.367 0.198-0.748-0.141-1.467-0.339-2.13-0.705-1.016-0.536-1.608-1.383-1.806-2.497-0.339-1.989 0.071-3.767 1.524-5.22 1.016-1.030 2.215-1.75 3.668-1.961 0.988-0.141 1.975-0.056 2.963 0.183 0.212 0.056 0.451 0.042 0.663 0.014 0.282-0.042 0.466-0.226 0.522-0.522 0.056-0.31-0.042-0.55-0.296-0.734-0.451-0.282-0.945-0.437-1.453-0.536-1.397-0.254-2.78-0.212-4.12 0.353-1.086 0.466-2.032 1.143-2.878 1.947-1.101 1.044-1.877 2.286-2.173 3.781-0.24 1.157-0.24 2.314 0.113 3.457 0.423 1.397 1.354 2.384 2.61 3.090 0.734 0.409 1.524 0.691 2.356 0.917-0.198 0.409-0.381 0.818-0.578 1.213-0.691 1.383-1.481 2.695-2.427 3.908-0.113 0.141-0.212 0.169-0.381 0.113-1.157-0.381-2.314-0.705-3.527-0.875-1.002-0.155-2.004-0.198-3.005 0.056-0.578 0.141-1.086 0.395-1.538 0.79-0.042 0.042-0.099 0.085-0.169 0.141-0.155-0.367-0.31-0.72-0.437-1.072-0.705-1.933-1.016-3.936-0.917-5.996 0.169-3.358 1.298-6.377 3.414-8.988 2.286-2.85 5.235-4.684 8.79-5.531 1.623-0.395 3.273-0.508 4.938-0.381 3.034 0.24 5.799 1.256 8.254 3.048 0.042 0.028 0.085 0.071 0.127 0.099 0.014 0.014 0.014 0.028 0.028 0.042z"></path>
<path d="M14.688 23.69c0.945-1.086 1.721-2.229 2.399-3.443 0.593-1.058 1.086-2.145 1.524-3.273 0.071-0.169 0.155-0.254 0.325-0.325 3.386-1.171 6.194-3.146 8.381-5.982 0.818-1.072 1.411-2.258 1.721-3.584 0-0.028 0.028-0.042 0.042-0.113 0.155 0.254 0.31 0.466 0.451 0.705 1.157 1.862 1.905 3.88 2.173 6.039 0.564 4.557-0.607 8.621-3.556 12.134-2.243 2.681-5.122 4.402-8.522 5.206-1.721 0.409-3.457 0.522-5.22 0.353-3.048-0.296-5.799-1.369-8.24-3.217-0.028-0.014-0.056-0.042-0.099-0.085 0.056-0.014 0.085-0.014 0.113-0.014 2.004 0.042 3.795-0.621 5.446-1.707 0.183-0.127 0.381-0.254 0.564-0.381 0.113-0.085 0.198-0.099 0.325-0.028 1.298 0.677 2.638 1.27 4.078 1.637 0.804 0.212 1.608 0.339 2.441 0.325 0.79-0.014 1.51-0.268 2.173-0.649 1.016-0.593 1.877-1.383 2.596-2.314 0.818-1.030 1.58-2.102 2.356-3.16 0.169-0.24 0.24-0.494 0.226-0.79-0.028-0.522-0.437-0.804-0.931-0.607-0.31 0.127-0.522 0.367-0.72 0.635-0.437 0.593-0.931 1.143-1.496 1.608-1.129 0.945-2.441 1.439-3.908 1.524-1.51 0.085-2.991-0.085-4.459-0.423-0.042-0.028-0.099-0.042-0.183-0.071z"></path>
<path d="M19.358 14.787c0.169-0.466 0.325-0.931 0.494-1.383 0.607-1.679 1.256-3.33 2.060-4.924 0.423-0.832 0.875-1.665 1.524-2.356 0.395-0.423 0.847-0.776 1.355-1.058 0.409-0.226 0.847-0.296 1.298-0.254 0.578 0.056 1.044 0.55 1.129 1.171 0.099 0.607-0.056 1.185-0.296 1.735-0.367 0.861-0.917 1.608-1.524 2.314-1.326 1.524-2.808 2.878-4.501 3.979-0.48 0.31-0.988 0.564-1.481 0.847-0.014-0.028-0.042-0.042-0.056-0.071z"></path>
<path d="M8.367 23.788c-0.959 0.903-1.919 1.764-3.259 2.004-0.593 0.099-1.143 0-1.665-0.31-0.113-0.071-0.183-0.183-0.268-0.282-0.141-0.183-0.268-0.409-0.423-0.578-0.508-0.536-0.198-1.75 0.72-1.947 0.677-0.155 1.34-0.099 2.018 0.042 0.804 0.155 2.286 0.705 2.878 1.072z"></path>
</svg>
