<?xml version="1.0" encoding="utf-8"?>
<!-- Generator: Adobe Illustrator 22.1.0, SVG Export Plug-In . SVG Version: 6.00 Build 0)  -->
<svg version="1.1" id="Layer_1" xmlns="http://www.w3.org/2000/svg" xmlns:xlink="http://www.w3.org/1999/xlink" x="0px" y="0px"
	 viewBox="0 0 226.8 226.8" style="enable-background:new 0 0 226.8 226.8;" xml:space="preserve">
<g>
	<path d="M181.3,24c-2,0.3-4,0.6-6,1c-11.4,2.3-21.1,7.9-29.9,15.3c-15.7,13.1-27.8,29.1-37.7,46.9c-3.5,6.4-6.6,13-9.8,19.5
		c-0.6,1.2-1.1,1.7-2.6,1.4c-5.3-1-10.4-2.4-15.1-5c-7.2-3.8-11.4-9.8-12.8-17.7c-2.4-14.1,0.5-26.7,10.8-37
		c7.2-7.3,15.7-12.4,26-13.9c7-1,14-0.4,21,1.3c1.5,0.4,3.2,0.3,4.7,0.1c2-0.3,3.3-1.6,3.7-3.7c0.4-2.2-0.3-3.9-2.1-5.2
		c-3.2-2-6.7-3.1-10.3-3.8c-9.9-1.8-19.7-1.5-29.2,2.5c-7.7,3.3-14.4,8.1-20.4,13.8c-7.8,7.4-13.3,16.2-15.4,26.8
		c-1.7,8.2-1.7,16.4,0.8,24.5c3,9.9,9.6,16.9,18.5,21.9c5.2,2.9,10.8,4.9,16.7,6.5c-1.4,2.9-2.7,5.8-4.1,8.6
		c-4.9,9.8-10.5,19.1-17.2,27.7c-0.8,1-1.5,1.2-2.7,0.8c-8.2-2.7-16.4-5-25-6.2c-7.1-1.1-14.2-1.4-21.3,0.4c-4.1,1-7.7,2.8-10.9,5.6
		c-0.3,0.3-0.7,0.6-1.2,1c-1.1-2.6-2.2-5.1-3.1-7.6c-5-13.7-7.2-27.9-6.5-42.5c1.2-23.8,9.2-45.2,24.2-63.7
		C40.6,23.1,61.5,10.1,86.7,4.1c11.5-2.8,23.2-3.6,35-2.7c21.5,1.7,41.1,8.9,58.5,21.6c0.3,0.2,0.6,0.5,0.9,0.7
		C181.2,23.8,181.2,23.9,181.3,24z"/>
	<path d="M104.1,167.9c6.7-7.7,12.2-15.8,17-24.4c4.2-7.5,7.7-15.2,10.8-23.2c0.5-1.2,1.1-1.8,2.3-2.3c24-8.3,43.9-22.3,59.4-42.4
		c5.8-7.6,10-16,12.2-25.4c0-0.2,0.2-0.3,0.3-0.8c1.1,1.8,2.2,3.3,3.2,5c8.2,13.2,13.5,27.5,15.4,42.8c4,32.3-4.3,61.1-25.2,86
		c-15.9,19-36.3,31.2-60.4,36.9c-12.2,2.9-24.5,3.7-37,2.5c-21.6-2.1-41.1-9.7-58.4-22.8c-0.2-0.1-0.4-0.3-0.7-0.6
		c0.4-0.1,0.6-0.1,0.8-0.1c14.2,0.3,26.9-4.4,38.6-12.1c1.3-0.9,2.7-1.8,4-2.7c0.8-0.6,1.4-0.7,2.3-0.2c9.2,4.8,18.7,9,28.9,11.6
		c5.7,1.5,11.4,2.4,17.3,2.3c5.6-0.1,10.7-1.9,15.4-4.6c7.2-4.2,13.3-9.8,18.4-16.4c5.8-7.3,11.2-14.9,16.7-22.4
		c1.2-1.7,1.7-3.5,1.6-5.6c-0.2-3.7-3.1-5.7-6.6-4.3c-2.2,0.9-3.7,2.6-5.1,4.5c-3.1,4.2-6.6,8.1-10.6,11.4
		c-8,6.7-17.3,10.2-27.7,10.8c-10.7,0.6-21.2-0.6-31.6-3C105.1,168.2,104.7,168.1,104.1,167.9z"/>
	<path d="M137.2,104.8c1.2-3.3,2.3-6.6,3.5-9.8c4.3-11.9,8.9-23.6,14.6-34.9c3-5.9,6.2-11.8,10.8-16.7c2.8-3,6-5.5,9.6-7.5
		c2.9-1.6,6-2.1,9.2-1.8c4.1,0.4,7.4,3.9,8,8.3c0.7,4.3-0.4,8.4-2.1,12.3c-2.6,6.1-6.5,11.4-10.8,16.4
		c-9.4,10.8-19.9,20.4-31.9,28.2c-3.4,2.2-7,4-10.5,6C137.5,105.1,137.3,105,137.2,104.8z"/>
	<path d="M59.3,168.6c-6.8,6.4-13.6,12.5-23.1,14.2c-4.2,0.7-8.1,0-11.8-2.2c-0.8-0.5-1.3-1.3-1.9-2c-1-1.3-1.9-2.9-3-4.1
		c-3.6-3.8-1.4-12.4,5.1-13.8c4.8-1.1,9.5-0.7,14.3,0.3C44.6,162.1,55.1,166,59.3,168.6z"/>
</g>
</svg>
