<?xml version="1.0" encoding="utf-8"?>
<!-- Generator: Adobe Illustrator 22.0.1, SVG Export Plug-In . SVG Version: 6.00 Build 0)  -->
<svg version="1.1" id="Layer_1" xmlns="http://www.w3.org/2000/svg" xmlns:xlink="http://www.w3.org/1999/xlink" x="0px" y="0px"
	 viewBox="0 0 226.8 226.8" style="enable-background:new 0 0 226.8 226.8;" xml:space="preserve">
<style type="text/css">
	.st0{stroke:#FFFFFF;stroke-miterlimit:10;}
	.st1{font-family:'Arial-Black';}
	.st2{font-size:19.6841px;}
</style>
<g transform="translate(-119.06-8.24)">
	<g>
		<polygon class="st0" points="236.9,231.9 231.5,231.8 231.7,123.2 137.4,69.4 140.1,64.8 140.1,64.8 234.4,118.5 327.9,64.9 
			330.5,69.5 237.1,123.1 		"/>
		<path class="st0" d="M233.9,235l-98.1-56.3l-0.2-113.2l98.1-57.3l98.1,56.6l0.4,114.2L233.9,235z M141.1,175.6l92.8,53.2l93-52.9
			l-0.4-108l-92.8-53.6l-92.8,54.2L141.1,175.6z"/>
	</g>
	<path class="st0" d="M155.8,102.3l-6.9-8.1v-2.6l6.9-0.2v3.1l-4.2,0l4.2,4.8L155.8,102.3L155.8,102.3z"/>
	<path class="st0" d="M166.3,108.3l6.9-0.2v-2.6l-6.9-8.1v3.1l4.2,4.8l-4.2-0.1V108.3"/>
	<path class="st0" d="M157.7,96.3l6.1,3.5c0.4,0.2,0.7,0.8,0.7,1.4v1.4c0,0.6-0.3,0.8-0.7,0.6l-6.1-3.5c-0.4-0.2-0.7-0.8-0.7-1.4
		v-1.4C157,96.3,157.4,96,157.7,96.3"/>
	<g>
		<path class="st0" d="M149.9,106.9l54.9,31.5c0.5,0.3,1,1.1,1,1.7v2.6c0,0.6-0.4,0.9-1,0.5l-54.9-31.5c-0.5-0.3-1-1.1-1-1.7v-2.6
			C148.9,106.8,149.3,106.5,149.9,106.9z"/>
		<path class="st0" d="M149.9,114.9l77,44.1c0.5,0.3,1,1.1,1,1.7v2.6c0,0.6-0.4,0.9-1,0.5l-77-44.1c-0.5-0.3-1-1.1-1-1.7v-2.6
			C148.9,114.9,149.3,114.6,149.9,114.9"/>
		<path class="st0" d="M149.9,122.5l77,44.1c0.5,0.3,1,1.1,1,1.7v2.6c0,0.6-0.4,0.9-1,0.5l-77-44.1c-0.5-0.3-1-1.1-1-1.7V123
			C148.9,122.5,149.3,122.2,149.9,122.5"/>
		<path class="st0" d="M149.9,130.2l33.3,19.1c0.5,0.3,1,1.1,1,1.7v2.6c0,0.6-0.4,0.9-1,0.5L149.9,135c-0.5-0.3-1-1.1-1-1.7v-2.6
			C148.9,130.1,149.3,129.8,149.9,130.2"/>
		<path class="st0" d="M149.9,137.7l65.3,37.4c0.5,0.3,1,1.1,1,1.7v2.6c0,0.6-0.4,0.9-1,0.5l-65.3-37.4c-0.5-0.3-1-1.1-1-1.7v-2.6
			C148.9,137.7,149.3,137.5,149.9,137.7"/>
		<path class="st0" d="M149.9,145.4l12,6.8c0.5,0.3,1,1.1,1,1.7v2.6c0,0.6-0.4,0.9-1,0.5l-12-6.8c-0.5-0.3-1-1.1-1-1.7v-2.6
			C148.9,145.4,149.3,145,149.9,145.4"/>
	</g>
	<path class="st0" d="M156.4,172.9l-7.5-8.9v-2.9l7.5-0.2v3.4l-4.6-0.1l4.6,5.2V172.9"/>
	<path class="st0" d="M164.8,177.7l7.5-0.2v-2.9l-7.5-8.9v3.4l4.6,5.2l-4.6,0V177.7"/>
</g>
<text transform="matrix(0.69 0.39 0 1 39.6402 167.0436)" class="st0 st1 st2">/</text>
<g transform="translate(-119.06-8.24)">
	<path class="st0" d="M267.3,149.3l33.6-18.9c3.2-1.8,5.9-0.6,5.9,2.8l0.2,23.4c0,3.4-2.5,7.6-5.8,9.4L267.6,185
		c-3.2,1.8-5.9,0.6-5.9-2.8l-0.2-23.4C261.5,155.3,264,151.1,267.3,149.3"/>
	<g>
		<path class="st0" d="M282.4,123.7l3.1-1.8c6.4-3.6,11.6-1.1,11.7,5.6l0.1,14.4c0.1,6.7-5.1,15.1-11.5,18.7l-3.1,1.8
			c-6.4,3.6-11.6,1.1-11.7-5.6l-0.1-14.4C270.8,135.6,276,127.3,282.4,123.7"/>
		<path class="st0" d="M277.2,164.7c-1.3,0-2.5-0.3-3.5-0.9c-2.2-1.3-3.5-3.8-3.5-7.1l-0.1-14.4c0-3.4,1.2-7.2,3.4-10.9
			c2.2-3.6,5.2-6.6,8.4-8.4h0l3.1-1.8c3.5-2,6.9-2.3,9.3-0.9c2.2,1.3,3.5,3.8,3.5,7.1l0.1,14.4c0,3.4-1.2,7.2-3.4,10.9
			c-2.2,3.6-5.2,6.6-8.4,8.4l-3.1,1.8C281.1,164.1,279.1,164.7,277.2,164.7z M282.7,124.3c-6.2,3.5-11.1,11.5-11.1,18l0.1,14.4
			c0,2.8,1,4.8,2.7,5.8c2,1.1,4.8,0.8,7.8-0.9l3.1-1.8c6.2-3.5,11.1-11.5,11.1-18l-0.1-14.4c0-2.8-1-4.8-2.7-5.8
			c-2-1.1-4.8-0.8-7.8,0.9L282.7,124.3L282.7,124.3z"/>
	</g>
	<g>
		<path class="st0" d="M280.8,152.4c2.3-4.8,5.8-8.5,7.8-8.2s1.8,4.5-0.5,9.3c-2.3,4.8-5.8,8.5-7.8,8.2
			C278.2,161.4,278.5,157.2,280.8,152.4"/>
		<path class="st0" d="M283.1,153.9l2.6-1.5c0.7-0.4,1.2-0.1,1.2,0.6l0.1,8.1c0,0.7-0.5,1.6-1.2,1.9l-2.6,1.5
			c-0.7,0.4-1.2,0.1-1.2-0.6l-0.1-8.1C281.9,155.1,282.4,154.3,283.1,153.9"/>
	</g>
	<path class="st0" d="M218.9,52.4c-2-0.7-3.9-1.6-5.7-2.7c-5.1-3.1-5.8-5.8-2.2-8.1l9.6-6c3.9-2.4,8.4-2.1,13.4,1
		c1.6,1,3.1,2.1,4.4,3.4l-2.2,1.4c-1.2-1.3-2.6-2.5-4.2-3.4c-0.7-0.4-1.3-0.7-2-1c-0.7-0.3-1.3-0.5-2.1-0.6c-0.8-0.2-1.5-0.2-2.3,0
		c-0.9,0.2-1.7,0.5-2.4,0.9l-9.4,5.9c-2.3,1.5-1.7,3.2,1.8,5.4c1.8,1.1,3.6,1.9,5.6,2.5L218.9,52.4z"/>
	<path class="st0" d="M233.7,61.8l-2.6-1.6l10.8-6.8c0.4-0.3,0.7-0.5,0.8-0.6s0.3-0.4,0.3-0.7c0.1-0.3,0-0.6-0.3-0.9
		c-0.4-0.4-0.9-0.8-1.4-1.1c-1.6-1-2.8-1.4-3.5-1.5c-0.9,0-1.9,0.2-2.7,0.8l-10.8,6.8l-2.5-1.5l21.7-13.7l2.5,1.5l-8.6,5.4
		c1.7-0.7,3.9-0.3,6.6,1.3c1.7,1.1,2.6,2.1,2.6,3s-0.7,1.7-2.2,2.7l-10.9,6.9L233.7,61.8z"/>
	<path class="st0" d="M248.7,70.9l-2.4-1.5l1.4-0.9c-1.3,0.6-3.3,0.1-5.8-1.4c-1.8-1.1-2.8-2.1-3-2.9c-0.1-0.8,0.8-1.9,2.8-3.1
		c1.6-1,3.2-1.6,4.5-1.6s2.9,0.6,4.8,1.8l4.1,2.5l2.3-1.5c0.8-0.5,1.1-1.1,0.9-1.5c-0.2-0.5-0.9-1-2.2-1.8c-1.6-1-3.3-1.8-5-2.5
		l2-1.3c2,1,3.8,1.9,5.3,2.8c2.3,1.4,3.5,2.5,3.5,3.3c0,0.8-0.8,1.8-2.8,3 M249.3,67.5l4.1-2.6l-3.9-2.4c-1.2-0.7-2-1-2.7-1
		c-0.6,0-1.6,0.4-2.7,1.1c-1,0.6-1.7,1.3-1.8,1.7c-0.1,0.4,0.4,1,1.3,1.6l1.7,1c0.4,0.2,0.8,0.4,1.3,0.5c0.5,0.2,0.9,0.2,1.4,0.2
		C248.5,67.8,248.9,67.7,249.3,67.5"/>
	<path class="st0" d="M273.1,64.1l-2.5-1.5l3-1.9l2.5,1.5L273.1,64.1z M255.6,75.1l-2.5-1.5l15-9.4l2.5,1.5L255.6,75.1z"/>
	<path class="st0" d="M271.6,84.9l-2.5-1.5l10.8-6.8c0.4-0.3,0.7-0.5,0.8-0.6c0.1-0.2,0.3-0.4,0.3-0.7c0.1-0.3,0-0.6-0.3-0.9
		c-0.4-0.4-0.9-0.8-1.4-1.1c-1.5-0.9-2.7-1.4-3.5-1.5c-0.8-0.1-1.8,0.2-2.7,0.8l-10.8,6.8l-2.5-1.5l15-9.4l2.5,1.5l-1.8,1.2
		c1.7-0.7,3.9-0.3,6.6,1.3c1.7,1.1,2.6,2.1,2.6,3s-0.7,1.7-2.2,2.7L271.6,84.9L271.6,84.9z"/>
	<path class="st0" d="M193.2,67.9l-11.6-7.1l20.1-12.6l2.7,1.6l-18,11.4l8.9,5.4"/>
	<path class="st0" d="M216,60.1l-2.5-1.5l3-1.9l2.5,1.5L216,60.1z M198.4,71.1l-2.5-1.5l15-9.4l2.5,1.5L198.4,71.1z"/>
	<path class="st0" d="M214.5,80.9l-2.5-1.5l10.8-6.8c0.4-0.3,0.7-0.5,0.8-0.6c0.1-0.2,0.3-0.4,0.3-0.7c0.1-0.3,0-0.6-0.3-0.9
		c-0.4-0.4-0.9-0.8-1.4-1.1c-1.5-0.9-2.7-1.4-3.5-1.5c-0.8-0.1-1.8,0.2-2.7,0.8l-10.8,6.8l-2.5-1.5l15-9.4l2.5,1.5l-1.8,1.2
		c1.7-0.7,3.9-0.3,6.6,1.3c1.7,1.1,2.6,2.1,2.6,3c-0.1,0.8-0.7,1.7-2.2,2.7L214.5,80.9z"/>
	<path class="st0" d="M230.9,90.9l-3.1-1.9l1.7-7.2l-3.3,0.1l3-2.3l13.2-0.5l3.1,2.1l-12.7,0.7L230.9,90.9z M221.3,85l-2.5-1.5
		l21.7-13.7l2.5,1.5L221.3,85z"/>
</g>
</svg>
