<!-- Generated by IcoMoon.io -->
<svg version="1.1" xmlns="http://www.w3.org/2000/svg" width="32" height="32" viewBox="0 0 32 32">
<title>LINK</title>
<path d="M16.626 31.557l-0.762-0.014 0.028-15.323-13.305-7.591 0.381-0.649 13.305 7.577 13.192-7.563 0.367 0.649-13.178 7.563z"></path>
<path d="M16.203 31.994l-13.841-7.944-0.028-15.972 13.841-8.085 13.841 7.986 0.056 16.113-13.87 7.901zM3.11 23.613l13.093 7.506 13.122-7.464-0.056-15.238-13.093-7.563-13.093 7.647 0.028 15.111z"></path>
<path d="M5.184 13.271l-0.974-1.143v-0.367l0.974-0.028v0.437h-0.593l0.593 0.677v0.423z"></path>
<path d="M6.665 14.118l0.974-0.028v-0.367l-0.974-1.143v0.437l0.593 0.677-0.593-0.014v0.437"></path>
<path d="M5.452 12.425l0.861 0.494c0.056 0.028 0.099 0.113 0.099 0.198v0.198c0 0.085-0.042 0.113-0.099 0.085l-0.861-0.494c-0.056-0.028-0.099-0.113-0.099-0.198v-0.198c0-0.085 0.056-0.127 0.099-0.085"></path>
<path d="M4.351 13.92l7.746 4.444c0.071 0.042 0.141 0.155 0.141 0.24v0.367c0 0.085-0.056 0.127-0.141 0.071l-7.746-4.444c-0.071-0.042-0.141-0.155-0.141-0.24v-0.367c0-0.085 0.056-0.127 0.141-0.071z"></path>
<path d="M4.351 15.049l10.864 6.222c0.071 0.042 0.141 0.155 0.141 0.24v0.367c0 0.085-0.056 0.127-0.141 0.071l-10.864-6.222c-0.071-0.042-0.141-0.155-0.141-0.24v-0.367c0-0.071 0.056-0.113 0.141-0.071"></path>
<path d="M4.351 16.121l10.864 6.222c0.071 0.042 0.141 0.155 0.141 0.24v0.367c0 0.085-0.056 0.127-0.141 0.071l-10.864-6.222c-0.071-0.042-0.141-0.155-0.141-0.24v-0.367c0-0.071 0.056-0.113 0.141-0.071"></path>
<path d="M4.351 17.208l4.698 2.695c0.071 0.042 0.141 0.155 0.141 0.24v0.367c0 0.085-0.056 0.127-0.141 0.071l-4.698-2.695c-0.071-0.042-0.141-0.155-0.141-0.24v-0.367c0-0.085 0.056-0.127 0.141-0.071"></path>
<path d="M4.351 18.266l9.213 5.277c0.071 0.042 0.141 0.155 0.141 0.24v0.367c0 0.085-0.056 0.127-0.141 0.071l-9.213-5.277c-0.071-0.042-0.141-0.155-0.141-0.24v-0.367c0-0.071 0.056-0.099 0.141-0.071"></path>
<path d="M4.351 19.352l1.693 0.959c0.071 0.042 0.141 0.155 0.141 0.24v0.367c0 0.085-0.056 0.127-0.141 0.071l-1.693-0.959c-0.071-0.042-0.141-0.155-0.141-0.24v-0.367c0-0.071 0.056-0.127 0.141-0.071"></path>
<path d="M5.268 23.232l-1.058-1.256v-0.409l1.058-0.028v0.48l-0.649-0.014 0.649 0.734v0.494"></path>
<path d="M6.454 23.91l1.058-0.028v-0.409l-1.058-1.256v0.48l0.649 0.734h-0.649v0.48"></path>
<path d="M20.916 19.903l4.741-2.667c0.451-0.254 0.832-0.085 0.832 0.395l0.028 3.302c0 0.48-0.353 1.072-0.818 1.326l-4.741 2.681c-0.451 0.254-0.832 0.085-0.832-0.395l-0.028-3.302c0-0.494 0.353-1.086 0.818-1.34"></path>
<path d="M23.046 16.291l0.437-0.254c0.903-0.508 1.637-0.155 1.651 0.79l0.014 2.032c0.014 0.945-0.72 2.131-1.623 2.638l-0.437 0.254c-0.903 0.508-1.637 0.155-1.651-0.79l-0.014-2.032c-0.014-0.959 0.72-2.131 1.623-2.638"></path>
<path d="M22.313 22.076c-0.183 0-0.353-0.042-0.494-0.127-0.31-0.183-0.494-0.536-0.494-1.002l-0.014-2.032c0-0.48 0.169-1.016 0.48-1.538 0.31-0.508 0.734-0.931 1.185-1.185v0l0.437-0.254c0.494-0.282 0.974-0.325 1.312-0.127 0.31 0.183 0.494 0.536 0.494 1.002l0.014 2.032c0 0.48-0.169 1.016-0.48 1.538-0.31 0.508-0.734 0.931-1.185 1.185l-0.437 0.254c-0.268 0.169-0.55 0.254-0.818 0.254zM23.089 16.375c-0.875 0.494-1.566 1.623-1.566 2.54l0.014 2.032c0 0.395 0.141 0.677 0.381 0.818 0.282 0.155 0.677 0.113 1.101-0.127l0.437-0.254c0.875-0.494 1.566-1.623 1.566-2.54l-0.014-2.032c0-0.395-0.141-0.677-0.381-0.818-0.282-0.155-0.677-0.113-1.101 0.127l-0.437 0.254z"></path>
<path d="M22.82 20.34c0.325-0.677 0.818-1.199 1.101-1.157s0.254 0.635-0.071 1.312c-0.325 0.677-0.818 1.199-1.101 1.157-0.296-0.042-0.254-0.635 0.071-1.312"></path>
<path d="M23.145 20.552l0.367-0.212c0.099-0.056 0.169-0.014 0.169 0.085l0.014 1.143c0 0.099-0.071 0.226-0.169 0.268l-0.367 0.212c-0.099 0.056-0.169 0.014-0.169-0.085l-0.014-1.143c0-0.099 0.071-0.212 0.169-0.268"></path>
<path d="M14.087 6.231c-0.282-0.099-0.55-0.226-0.804-0.381-0.72-0.437-0.818-0.818-0.31-1.143l1.354-0.847c0.55-0.339 1.185-0.296 1.891 0.141 0.226 0.141 0.437 0.296 0.621 0.48l-0.31 0.198c-0.169-0.183-0.367-0.353-0.593-0.48-0.099-0.056-0.183-0.099-0.282-0.141s-0.183-0.071-0.296-0.085c-0.113-0.028-0.212-0.028-0.325 0-0.127 0.028-0.24 0.071-0.339 0.127l-1.326 0.832c-0.325 0.212-0.24 0.452 0.254 0.762 0.254 0.155 0.508 0.268 0.79 0.353l-0.325 0.183z"></path>
<path d="M16.175 7.557l-0.367-0.226 1.524-0.959c0.056-0.042 0.099-0.071 0.113-0.085s0.042-0.056 0.042-0.099c0.014-0.042 0-0.085-0.042-0.127-0.056-0.056-0.127-0.113-0.198-0.155-0.226-0.141-0.395-0.198-0.494-0.212-0.127 0-0.268 0.028-0.381 0.113l-1.524 0.959-0.353-0.212 3.062-1.933 0.353 0.212-1.213 0.762c0.24-0.099 0.55-0.042 0.931 0.183 0.24 0.155 0.367 0.296 0.367 0.423s-0.099 0.24-0.31 0.381l-1.538 0.974h0.028z"></path>
<path d="M18.291 8.841l-0.339-0.212 0.198-0.127c-0.183 0.085-0.466 0.014-0.818-0.198-0.254-0.155-0.395-0.296-0.423-0.409-0.014-0.113 0.113-0.268 0.395-0.437 0.226-0.141 0.451-0.226 0.635-0.226s0.409 0.085 0.677 0.254l0.578 0.353 0.325-0.212c0.113-0.071 0.155-0.155 0.127-0.212-0.028-0.071-0.127-0.141-0.31-0.254-0.226-0.141-0.466-0.254-0.705-0.353l0.282-0.183c0.282 0.141 0.536 0.268 0.748 0.395 0.325 0.198 0.494 0.353 0.494 0.466s-0.113 0.254-0.395 0.423M18.376 8.361l0.578-0.367-0.55-0.339c-0.169-0.099-0.282-0.141-0.381-0.141-0.085 0-0.226 0.056-0.381 0.155-0.141 0.085-0.24 0.183-0.254 0.24s0.056 0.141 0.183 0.226l0.24 0.141c0.056 0.028 0.113 0.056 0.183 0.071 0.071 0.028 0.127 0.028 0.198 0.028 0.071 0.028 0.127 0.014 0.183-0.014"></path>
<path d="M21.734 7.881l-0.353-0.212 0.423-0.268 0.353 0.212-0.423 0.268zM19.265 9.434l-0.353-0.212 2.116-1.326 0.353 0.212-2.116 1.326z"></path>
<path d="M21.522 10.816l-0.353-0.212 1.524-0.959c0.056-0.042 0.099-0.071 0.113-0.085 0.014-0.028 0.042-0.056 0.042-0.099 0.014-0.042 0-0.085-0.042-0.127-0.056-0.056-0.127-0.113-0.198-0.155-0.212-0.127-0.381-0.198-0.494-0.212s-0.254 0.028-0.381 0.113l-1.524 0.959-0.353-0.212 2.116-1.326 0.353 0.212-0.254 0.169c0.24-0.099 0.55-0.042 0.931 0.183 0.24 0.155 0.367 0.296 0.367 0.423s-0.099 0.24-0.31 0.381l-1.538 0.945z"></path>
<path d="M10.461 8.418l-1.637-1.002 2.836-1.778 0.381 0.226-2.54 1.608 1.256 0.762"></path>
<path d="M13.678 7.317l-0.353-0.212 0.423-0.268 0.353 0.212-0.423 0.268zM11.194 8.869l-0.353-0.212 2.116-1.326 0.353 0.212-2.116 1.326z"></path>
<path d="M13.466 10.252l-0.353-0.212 1.524-0.959c0.056-0.042 0.099-0.071 0.113-0.085 0.014-0.028 0.042-0.056 0.042-0.099 0.014-0.042 0-0.085-0.042-0.127-0.056-0.056-0.127-0.113-0.198-0.155-0.212-0.127-0.381-0.198-0.494-0.212s-0.254 0.028-0.381 0.113l-1.524 0.959-0.353-0.212 2.116-1.326 0.353 0.212-0.254 0.169c0.24-0.099 0.55-0.042 0.931 0.183 0.24 0.155 0.367 0.296 0.367 0.423-0.014 0.113-0.099 0.24-0.31 0.381l-1.538 0.945z"></path>
<path d="M15.78 11.663l-0.437-0.268 0.24-1.016-0.466 0.014 0.423-0.325 1.862-0.071 0.437 0.296-1.792 0.099-0.268 1.27zM14.425 10.83l-0.353-0.212 3.062-1.933 0.353 0.212-3.062 1.933z"></path>
</svg>
