<!-- Generated by IcoMoon.io -->
<svg version="1.1" xmlns="http://www.w3.org/2000/svg" width="32" height="32" viewBox="0 0 32 32">
<title>LISK_MOBILE</title>
<path d="M15.506 5.7c-3.795 0-7.591 0-11.386 0-0.705 0-0.917-0.268-0.691-0.945 0.042-0.127 0.296-0.268 0.466-0.268 0.889-0.028 1.778-0.014 2.681-0.014 3.358 0 6.716 0 10.074 0 0.705 0 0.748-0.042 0.748-0.734 0-0.282 0-0.564 0-0.847 0-0.974-0.254-1.228-1.199-1.228-3.81 0-7.619 0-11.443 0-0.79 0-1.594 0-2.384 0-0.818 0-1.086 0.254-1.086 1.101 0 4.289 0 8.578 0 12.868 0 0.734-0.042 0.762-0.776 0.72-0.353-0.014-0.508-0.127-0.508-0.508 0.014-4.444 0-8.875 0.014-13.319 0-1.199 0.988-2.088 2.257-2.102 1.947 0 3.908 0 5.855 0 2.681 0 5.347 0 8.028 0 1.637 0 2.413 0.762 2.413 2.399 0 1.665 0 1.665 1.651 1.665 2.243 0 4.473 0 6.716 0 1.58 0 2.3 0.72 2.3 2.3 0 1.439-0.014 2.878 0.014 4.332 0.014 0.55-0.282 0.55-0.677 0.578-0.437 0.014-0.55-0.169-0.55-0.578 0.014-1.439 0.014-2.878 0-4.332 0-0.875-0.198-1.072-1.072-1.086-3.824 0-7.633 0-11.443 0z"></path>
<path d="M17.227 22.476c0 4.642-3.626 8.607-8.578 8.564-5.108-0.028-8.621-3.922-8.578-8.649 0.028-4.995 3.866-8.564 8.649-8.55 4.755 0.014 8.55 3.894 8.508 8.635zM1.256 22.434c0.042 4.176 3.386 7.464 7.534 7.422 3.979-0.042 7.295-3.471 7.266-7.534-0.042-3.965-3.429-7.337-7.365-7.309-4.134 0.042-7.478 3.386-7.436 7.422z"></path>
<path d="M26.046 19.697c-1.256 0-2.497 0.014-3.753 0-1.524-0.014-2.258-0.762-2.258-2.286 0-0.734-0.014-1.481 0-2.215 0.028-1.199 0.804-2.004 2.004-2.018 2.638-0.014 5.263-0.014 7.901 0.014 1.171 0.014 2.004 0.917 2.032 2.088 0.014 0.734 0.014 1.481 0 2.215-0.014 1.284-0.847 2.145-2.116 2.159s-2.54 0-3.81 0c0 0.014 0 0.028 0 0.042zM26.018 14.349c-1.27 0-2.54-0.014-3.81 0-0.691 0-0.931 0.254-0.959 0.917-0.014 0.762-0.014 1.524 0 2.272 0.014 0.663 0.282 0.931 0.945 0.945 2.526 0.014 5.037 0.014 7.563 0 0.635 0 0.917-0.296 0.931-0.959 0.014-0.72 0.014-1.439 0-2.159-0.014-0.762-0.254-1.016-1.044-1.016-1.199 0-2.413 0-3.626 0z"></path>
<path d="M22.575 28.374c-1.496 0-2.991-0.028-4.501 0.014-0.55 0.014-0.677-0.212-0.691-0.691-0.014-0.522 0.282-0.522 0.649-0.522 2.907 0.014 5.799 0 8.705 0 1.129 0 1.27-0.141 1.27-1.284 0-1.369 0-2.737 0-4.092 0-0.353 0-0.649 0.494-0.607 0.395 0.042 0.734 0 0.72 0.593-0.042 1.524 0 3.034-0.014 4.557-0.014 1.227-0.804 2.018-2.046 2.032-1.524 0.014-3.062-0.014-4.586 0 0 0 0 0 0 0z"></path>
<path d="M24.169 7.817c0.325 0 0.649 0 0.959 0 0.522 0 0.762 0.268 0.762 0.776 0 0.649-0.014 1.284 0 1.933 0.014 0.494-0.282 0.48-0.635 0.494-0.367 0.014-0.593-0.085-0.55-0.508 0-0.042 0-0.071 0-0.113-0.014-1.354-0.014-1.369-1.411-1.354-0.466 0-0.621-0.141-0.621-0.621s0.155-0.649 0.621-0.607c0.31 0.014 0.593 0 0.875 0z"></path>
<path d="M8.945 16.748c0.141 0.155 0.226 0.24 0.282 0.325 1.439 2.427 2.878 4.854 4.332 7.266 0.212 0.353 0.212 0.578-0.085 0.889-0.705 0.734-1.354 1.538-2.074 2.258-0.226 0.226-0.593 0.353-0.917 0.395-0.508 0.071-1.044 0.014-1.665 0.014 0.141-0.212 0.198-0.325 0.282-0.409 0.762-0.832 1.524-1.693 2.314-2.511 0.282-0.296 0.268-0.522 0.071-0.847-1.058-1.75-2.074-3.527-3.132-5.263-0.254-0.409-0.282-0.734 0-1.129 0.198-0.268 0.353-0.593 0.593-0.988z"></path>
<path d="M7.619 19.005c0.339 0.564 0.635 0.988 0.861 1.467 0.071 0.141-0.042 0.395-0.141 0.564-0.593 1.058-1.199 2.116-1.834 3.146-0.212 0.353-0.155 0.55 0.099 0.847 0.705 0.804 1.354 1.651 2.695 1.101 0.014 0.099 0.028 0.183 0.042 0.282-0.508 0.494-0.959 1.072-1.538 1.467-0.324 0.226-0.832 0.141-1.185-0.254-0.705-0.818-1.453-1.608-2.159-2.427-0.127-0.155-0.226-0.48-0.141-0.621 1.044-1.848 2.13-3.64 3.302-5.573z"></path>
<path d="M22.73 16.409c-0.127-0.578 0.212-0.593 0.621-0.607 0.423-0.014 0.578 0.141 0.55 0.564-0.014 0.395-0.014 0.691-0.564 0.677-0.48-0.028-0.734-0.127-0.607-0.635z"></path>
</svg>
