<!-- Generated by IcoMoon.io -->
<svg version="1.1" xmlns="http://www.w3.org/2000/svg" width="32" height="32" viewBox="0 0 32 32">
<title>LISK_HUB</title>
<path d="M16.198 32c-0.141-0.127-0.268-0.24-0.395-0.353-0.451-0.409-0.903-0.832-1.369-1.242-0.536-0.48-1.058-0.945-1.594-1.425-0.367-0.325-0.72-0.649-1.086-0.974-0.466-0.423-0.931-0.832-1.397-1.256-0.381-0.339-0.748-0.677-1.129-1.016-0.451-0.409-0.903-0.804-1.354-1.213-0.367-0.339-0.734-0.663-1.115-1.002s-0.762-0.677-1.129-1.016c-0.353-0.325-0.72-0.649-1.072-0.974-0.212-0.198-0.437-0.381-0.635-0.578-0.042-0.042-0.056-0.113-0.085-0.169-0.014-0.028 0-0.071 0-0.113 0-6.815 0-13.63 0-20.43 0-0.014 0-0.028 0-0.042 0-0.198 0-0.198 0.183-0.198 8.113 0 16.226 0 24.339 0 0.183 0 0.183 0 0.183 0.198 0 6.843 0 13.686 0 20.515 0 0.113-0.042 0.198-0.127 0.282-0.875 0.776-1.75 1.566-2.61 2.342-0.705 0.635-1.411 1.27-2.116 1.905-0.776 0.705-1.566 1.411-2.342 2.102-0.621 0.564-1.242 1.129-1.877 1.693-0.705 0.635-1.411 1.256-2.102 1.891-0.367 0.325-0.72 0.649-1.086 0.974-0.028 0.042-0.056 0.071-0.085 0.099zM16.155 4.84c0 0 0-0.014 0 0-2.751 0-5.489 0-8.24 0-0.198 0-0.198 0-0.198 0.198 0 2.145 0 4.275 0 6.42 0 2.483 0 4.966 0 7.45 0 0.099 0.014 0.169 0.099 0.24 0.55 0.48 1.101 0.974 1.637 1.467 0.705 0.635 1.425 1.27 2.13 1.905 0.79 0.705 1.58 1.411 2.356 2.116 0.72 0.649 1.439 1.298 2.159 1.947 0.056 0.056 0.099 0.056 0.155 0 0.169-0.169 0.353-0.325 0.536-0.48 0.578-0.522 1.157-1.044 1.75-1.58 0.367-0.339 0.734-0.677 1.115-1.002 0.578-0.522 1.143-1.030 1.721-1.552 0.466-0.423 0.931-0.847 1.397-1.27 0.55-0.494 1.101-1.002 1.665-1.496 0.113-0.099 0.155-0.198 0.155-0.339 0-4.374 0-8.748 0-13.108 0-0.226 0-0.466 0-0.691 0-0.198 0-0.198-0.198-0.198-0.24 0-0.466 0-0.705 0-2.526-0.028-5.037-0.028-7.534-0.028z"></path>
<path d="M22.476 12.769c0 1.75 0 3.499 0 5.249 0 0.127-0.042 0.212-0.141 0.282-1.129 0.931-2.243 1.848-3.372 2.78-0.889 0.734-1.778 1.481-2.681 2.215-0.085 0.071-0.141 0.056-0.212 0-0.889-0.72-1.792-1.425-2.681-2.145-0.945-0.762-1.905-1.524-2.85-2.286-0.169-0.141-0.31-0.325-0.381-0.55-0.071-0.198-0.155-0.395-0.24-0.593-0.155-0.367-0.254-0.734-0.254-1.129 0.014-3.005 0-6.011 0-9.016 0-0.042 0-0.085 0-0.141 0-0.085 0.042-0.113 0.113-0.113 0.042 0 0.085 0 0.127 0 1.496 0 2.977 0 4.473 0 2.624 0 5.249-0.014 7.859-0.028 0.212 0 0.212 0 0.212 0.212 0.028 1.764 0.028 3.513 0.028 5.263z"></path>
</svg>
