<!-- Generated by IcoMoon.io -->
<svg version="1.1" xmlns="http://www.w3.org/2000/svg" width="32" height="32" viewBox="0 0 32 32">
<title>LMAX_DIGITAL</title>
<path d="M0.395 1.764c0.226-0.014 0.367-0.028 0.508-0.028 3.485 0 6.956 0 10.441 0 0.296 0 0.48 0.071 0.649 0.325 3.034 4.501 6.081 8.988 9.129 13.474 0.198 0.296 0.198 0.48 0 0.776-3.132 4.586-6.25 9.185-9.34 13.785-0.296 0.451-0.621 0.635-1.171 0.635-3.358-0.028-6.702-0.014-10.060-0.014-0.155 0-0.296-0.014-0.536-0.028 0.127-0.212 0.212-0.353 0.296-0.48 3.146-4.628 6.279-9.27 9.425-13.898 0.226-0.325 0.169-0.536-0.028-0.818-3.005-4.388-5.982-8.79-8.974-13.192-0.099-0.155-0.198-0.31-0.339-0.536z"></path>
<path d="M22.377 16.451c3.203 4.713 6.377 9.411 9.623 14.18-0.254 0.014-0.409 0.028-0.564 0.028-3.414 0-6.829 0-10.243 0-0.31 0-0.508-0.085-0.677-0.353-1.185-1.764-2.37-3.513-3.57-5.263-0.155-0.212-0.183-0.381-0.028-0.621 1.764-2.582 3.527-5.178 5.277-7.774 0.042-0.056 0.099-0.099 0.183-0.198z"></path>
<path d="M22.392 15.549c-1.115-1.637-2.173-3.189-3.231-4.755-0.748-1.115-1.51-2.215-2.258-3.33-0.141-0.212-0.198-0.367-0.028-0.621 1.115-1.623 2.201-3.259 3.316-4.868 0.085-0.127 0.296-0.24 0.451-0.24 3.64-0.014 7.266-0.014 10.907-0.014 0.042 0 0.085 0.014 0.198 0.042-3.132 4.6-6.222 9.157-9.354 13.785z"></path>
</svg>
