<!-- Generated by IcoMoon.io -->
<svg version="1.1" xmlns="http://www.w3.org/2000/svg" width="32" height="32" viewBox="0 0 32 32">
<title>LOBSTR</title>
<path d="M11.827 19.866c4.608-0.87 9.024-7.642 9.344-14.234 0.589 0.358 1.165 0.627 1.651 0.998 3.354 2.534 5.12 6.016 6.003 10.035 0.435 1.984 0.486 3.968 0.051 5.978-0.666 3.098-2.291 5.568-5.005 7.142-4.941 2.867-10.061 2.944-15.066 0.282-4.723-2.509-6.822-7.501-5.619-12.749 0.986-4.301 3.277-7.923 6.259-11.123 2.33-2.496 4.979-4.557 8.307-5.568 0.986-0.294 2.022-0.422 3.046-0.627 0.038 0.077 0.077 0.154 0.115 0.23-0.205 0.218-0.41 0.435-0.602 0.653-1.523 1.677-3.098 3.315-4.531 5.056-2.368 2.893-3.29 6.374-3.674 10.010-0.166 1.293-0.192 2.586-0.282 3.917z"></path>
</svg>
