<!-- Generated by IcoMoon.io -->
<svg version="1.1" xmlns="http://www.w3.org/2000/svg" width="32" height="32" viewBox="0 0 32 32">
<title>LOCALBITCOINS</title>
<path d="M15.873-0.099c0.903 0 1.792 0.099 2.653 0.282l-0.691 2.568c-0.635-0.127-1.298-0.183-1.961-0.183s-1.326 0.056-1.961 0.183l-0.691-2.582c0.861-0.169 1.75-0.268 2.653-0.268zM19.795 0.522c1.721 0.55 3.273 1.467 4.586 2.653l-1.877 1.877c-0.988-0.861-2.145-1.538-3.4-1.975l0.691-2.554zM25.326 4.106c1.185 1.312 2.102 2.864 2.653 4.586l-2.554 0.677c-0.437-1.27-1.115-2.413-1.975-3.4l1.877-1.862zM28.303 9.961c0.183 0.847 0.282 1.735 0.282 2.653 0 0.903-0.099 1.792-0.282 2.653l-2.554-0.691c0.127-0.635 0.183-1.298 0.183-1.961 0-0.677-0.071-1.326-0.183-1.975l2.554-0.677zM27.965 16.536c-0.55 1.721-1.467 3.273-2.653 4.586l-1.877-1.877c0.861-0.988 1.538-2.145 1.961-3.4l2.568 0.691zM24.381 22.067c-1.312 1.171-2.864 2.088-4.586 2.653l-0.691-2.568c1.27-0.423 2.427-1.101 3.4-1.975l1.877 1.891zM18.526 25.044c-0.861 0.183-1.75 0.282-2.653 0.282s-1.806-0.099-2.653-0.282l0.691-2.568c0.635 0.127 1.298 0.198 1.961 0.198s1.326-0.071 1.961-0.198l0.691 2.568zM11.951 24.705c-1.721-0.55-3.273-1.481-4.586-2.653l1.877-1.877c0.988 0.861 2.145 1.538 3.4 1.975l-0.691 2.554zM6.434 21.122c-1.185-1.312-2.102-2.864-2.653-4.586l2.554-0.691c0.437 1.27 1.115 2.427 1.975 3.4l-1.877 1.877zM3.443 15.266c-0.183-0.861-0.282-1.75-0.282-2.653 0-0.917 0.099-1.806 0.282-2.653l2.554 0.677c-0.127 0.635-0.183 1.298-0.183 1.975 0 0.663 0.071 1.326 0.183 1.961l-2.554 0.691zM3.781 8.691c0.55-1.721 1.467-3.287 2.653-4.6l1.877 1.877c-0.861 0.988-1.538 2.145-1.961 3.414l-2.568-0.691zM7.365 3.175c1.312-1.185 2.864-2.102 4.586-2.653l0.691 2.554c-1.27 0.437-2.427 1.101-3.4 1.975l-1.877-1.877z"></path>
<path d="M14.871 3.852c2.102-0.24 4.289 0.282 6.011 1.496 2.342 1.594 3.852 4.374 3.81 7.224 0.071 2.794-1.355 5.545-3.626 7.168-1.072 0.776-2.314 1.312-3.626 1.538-0.734 0.155-1.481 0.127-2.201 0.113-2.667-0.169-5.192-1.665-6.674-3.88-0.903-1.34-1.425-2.935-1.496-4.543-0.056-1.623 0.324-3.273 1.129-4.684 1.354-2.413 3.908-4.12 6.674-4.43zM15.238 6.476c0 0.536-0.042 1.058-0.028 1.594-1.030 0-2.074 0-3.104 0 0 0.564 0 1.143 0 1.707 0.409 0 0.804 0 1.213 0 0 1.891 0 3.781 0 5.672-0.409 0-0.818 0-1.213 0 0 0.564 0 1.129 0 1.693 1.030 0.014 2.074 0 3.104 0 0.071 0.522-0.028 1.058 0.028 1.594 0.437 0 0.861 0 1.298 0 0-0.522 0-1.058 0.014-1.594 0.917-0.042 1.862-0.367 2.497-1.072 0.607-0.649 0.748-1.623 0.508-2.441-0.169-0.635-0.691-1.115-1.27-1.383 0.339-0.296 0.677-0.621 0.832-1.058 0.282-0.734 0.212-1.651-0.353-2.243-0.564-0.621-1.411-0.832-2.215-0.889-0.014-0.522 0-1.058 0-1.58-0.437 0-0.875 0-1.312 0zM15.309 9.778c0.494 0.014 1.016-0.071 1.496 0.113 0.607 0.254 0.522 1.213 0 1.524-0.451 0.268-1.002 0.169-1.496 0.198 0.014-0.607 0.014-1.227 0-1.834zM15.323 13.333c0.593 0 1.227-0.071 1.792 0.183 0.691 0.325 0.649 1.467-0.028 1.778-0.55 0.254-1.171 0.141-1.764 0.169 0-0.734 0-1.439 0-2.13zM9.171 24.564c1.369 0.734 2.836 1.284 4.374 1.538 2.61 0.466 5.347 0.141 7.788-0.917 0.409-0.169 0.79-0.395 1.199-0.55-0.325 0.494-0.72 0.903-1.086 1.355-1.383 1.637-2.78 3.273-4.275 4.811-0.367 0.339-0.705 0.72-1.143 0.974-0.183 0.113-0.353-0.056-0.494-0.155-0.423-0.339-0.804-0.705-1.171-1.101-1.834-1.905-3.541-3.908-5.192-5.954z"></path>
</svg>
