<!-- Generated by IcoMoon.io -->
<svg version="1.1" xmlns="http://www.w3.org/2000/svg" width="32" height="32" viewBox="0 0 32 32">
<title>LOOM</title>
<path d="M14.321 25.242c-0.48 0.353-0.861 0.621-1.242 0.889-1.538 1.072-3.090 2.145-4.614 3.245-0.325 0.226-0.564 0.31-0.931 0.042-1.58-1.143-3.203-2.229-4.783-3.386-3.019-2.229-2.991-6.674 0.042-8.903 0.508-0.367 1.016-0.734 1.637-1.185-0.55-0.395-0.988-0.705-1.439-1.030-3.231-2.286-3.231-6.801 0-9.086 1.439-1.016 2.907-2.004 4.332-3.048 0.494-0.367 0.847-0.367 1.355 0 5.432 3.838 10.878 7.661 16.31 11.499 0.536 0.381 0.931 0.48 1.467 0.014 0.48-0.409 1.044-0.705 1.552-1.086 1.933-1.453 1.947-4.162 0-5.616-1.157-0.861-2.356-1.637-3.513-2.483-0.367-0.268-0.649-0.254-1.002 0.014-1.185 0.861-2.399 1.665-3.57 2.526-0.381 0.282-0.677 0.339-1.044 0.014-0.353-0.31-0.762-0.55-1.213-0.861 0.212-0.169 0.353-0.31 0.522-0.423 1.75-1.228 3.513-2.441 5.249-3.697 0.395-0.282 0.677-0.339 1.115-0.014 1.453 1.072 2.963 2.088 4.43 3.132 3.344 2.37 3.33 6.857 0 9.227-0.437 0.31-0.861 0.635-1.397 1.016 0.381 0.282 0.677 0.536 0.988 0.748 1.425 0.959 2.483 2.159 2.751 3.922 0.339 2.229-0.409 4.035-2.201 5.376-1.51 1.115-3.090 2.159-4.614 3.245-0.395 0.282-0.663 0.254-1.058-0.028-5.46-3.852-10.935-7.675-16.381-11.527-0.607-0.437-1.058-0.508-1.651 0-0.48 0.409-1.058 0.705-1.552 1.101-1.82 1.411-1.82 4.092 0.014 5.489 1.199 0.903 2.455 1.735 3.683 2.61 0.339 0.254 0.578 0.141 0.875-0.071 1.171-0.832 2.37-1.623 3.513-2.483 0.451-0.339 0.79-0.395 1.228 0 0.325 0.282 0.691 0.494 1.143 0.818zM8.014 15.986c0.254 0.212 0.437 0.395 0.649 0.55 4.938 3.471 9.891 6.942 14.829 10.427 0.325 0.226 0.593 0.296 0.945 0.042 1.213-0.889 2.483-1.707 3.683-2.61 1.848-1.397 1.848-4.12 0.014-5.545-0.536-0.423-1.143-0.762-1.665-1.199-0.437-0.367-0.762-0.353-1.227-0.014-1.75 1.256-3.541 2.483-5.319 3.711-0.198 0.141-0.564 0.282-0.734 0.198-0.508-0.268-0.959-0.649-1.538-1.058 2.159-1.524 4.219-2.991 6.42-4.543-0.226-0.141-0.353-0.212-0.466-0.296-5.065-3.556-10.13-7.111-15.182-10.667-0.353-0.254-0.621-0.183-0.945 0.056-1.129 0.804-2.272 1.594-3.4 2.399-2.088 1.467-2.131 4.275-0.099 5.813 0.494 0.367 1.030 0.677 1.496 1.072 0.48 0.409 0.847 0.367 1.34 0 1.707-1.27 3.457-2.469 5.206-3.654 0.226-0.155 0.607-0.296 0.804-0.198 0.508 0.254 0.959 0.635 1.552 1.044-2.173 1.524-4.219 2.963-6.363 4.473z"></path>
</svg>
