<?xml version="1.0" encoding="utf-8"?>
<!-- Generator: Adobe Illustrator 22.1.0, SVG Export Plug-In . SVG Version: 6.00 Build 0)  -->
<svg version="1.1" id="Layer_1" xmlns="http://www.w3.org/2000/svg" xmlns:xlink="http://www.w3.org/1999/xlink" x="0px" y="0px"
	 viewBox="0 0 226.8 226.8" style="enable-background:new 0 0 226.8 226.8;" xml:space="preserve">
<g>
	<path d="M101.5,178.9c-3.4,2.5-6.1,4.4-8.8,6.3c-10.9,7.6-21.9,15.2-32.7,23c-2.3,1.6-4,2.2-6.6,0.3c-11.2-8.1-22.7-15.8-33.9-24
		c-21.4-15.8-21.2-47.3,0.3-63.1c3.6-2.6,7.2-5.2,11.6-8.4c-3.9-2.8-7-5-10.2-7.3c-22.9-16.2-22.9-48.2,0-64.4
		c10.2-7.2,20.6-14.2,30.7-21.6c3.5-2.6,6-2.6,9.6,0c38.5,27.2,77.1,54.3,115.6,81.5c3.8,2.7,6.6,3.4,10.4,0.1c3.4-2.9,7.4-5,11-7.7
		c13.7-10.3,13.8-29.5,0-39.8c-8.2-6.1-16.7-11.6-24.9-17.6c-2.6-1.9-4.6-1.8-7.1,0.1c-8.4,6.1-17,11.8-25.3,17.9
		c-2.7,2-4.8,2.4-7.4,0.1c-2.5-2.2-5.4-3.9-8.6-6.1c1.5-1.2,2.5-2.2,3.7-3c12.4-8.7,24.9-17.3,37.2-26.2c2.8-2,4.8-2.4,7.9-0.1
		c10.3,7.6,21,14.8,31.4,22.2c23.7,16.8,23.6,48.6,0,65.4c-3.1,2.2-6.1,4.5-9.9,7.2c2.7,2,4.8,3.8,7,5.3
		c10.1,6.8,17.6,15.3,19.5,27.8c2.4,15.8-2.9,28.6-15.6,38.1c-10.7,7.9-21.9,15.3-32.7,23c-2.8,2-4.7,1.8-7.5-0.2
		c-38.7-27.3-77.5-54.4-116.1-81.7c-4.3-3.1-7.5-3.6-11.7,0c-3.4,2.9-7.5,5-11,7.8c-12.9,10-12.9,29,0.1,38.9
		c8.5,6.4,17.4,12.3,26.1,18.5c2.4,1.8,4.1,1,6.2-0.5c8.3-5.9,16.8-11.5,24.9-17.6c3.2-2.4,5.6-2.8,8.7,0
		C95.7,175.1,98.3,176.6,101.5,178.9z M56.8,113.3c1.8,1.5,3.1,2.8,4.6,3.9c35,24.6,70.1,49.2,105.1,73.9c2.3,1.6,4.2,2.1,6.7,0.3
		c8.6-6.3,17.6-12.1,26.1-18.5c13.1-9.9,13.1-29.2,0.1-39.3c-3.8-3-8.1-5.4-11.8-8.5c-3.1-2.6-5.4-2.5-8.7-0.1
		c-12.4,8.9-25.1,17.6-37.7,26.3c-1.4,1-4,2-5.2,1.4c-3.6-1.9-6.8-4.6-10.9-7.5c15.3-10.8,29.9-21.2,45.5-32.2
		c-1.6-1-2.5-1.5-3.3-2.1C131.4,85.7,95.5,60.5,59.7,35.3c-2.5-1.8-4.4-1.3-6.7,0.4c-8,5.7-16.1,11.3-24.1,17
		c-14.8,10.4-15.1,30.3-0.7,41.2c3.5,2.6,7.3,4.8,10.6,7.6c3.4,2.9,6,2.6,9.5,0C60.4,92.5,72.8,84,85.2,75.6
		c1.6-1.1,4.3-2.1,5.7-1.4c3.6,1.8,6.8,4.5,11,7.4C86.5,92.4,72,102.6,56.8,113.3z"/>
</g>
</svg>
