<!-- Generated by IcoMoon.io -->
<svg version="1.1" xmlns="http://www.w3.org/2000/svg" width="32" height="32" viewBox="0 0 32 32">
<title>LRC</title>
<path d="M16.183 0.395c4.769 6.603 9.51 13.235 14.279 19.852-4.769 3.908-9.524 7.831-14.265 11.767-4.825-3.936-9.637-7.873-14.462-11.781 4.825-6.589 9.651-13.206 14.448-19.838M7.704 19.471c2.102 1.693 4.19 3.429 6.293 5.108 0.014-4.586 0.014-9.185-0.014-13.771-2.060 2.907-4.19 5.771-6.279 8.663M18.37 10.878c-0.014 4.557-0.014 9.129 0 13.686 2.046-1.721 4.12-3.386 6.166-5.108-2.060-2.864-4.12-5.714-6.166-8.578"></path>
</svg>
