<?xml version="1.0" encoding="utf-8"?>
<!-- Generator: Adobe Illustrator 22.0.1, SVG Export Plug-In . SVG Version: 6.00 Build 0)  -->
<svg version="1.1" id="Layer_1" xmlns="http://www.w3.org/2000/svg" xmlns:xlink="http://www.w3.org/1999/xlink" x="0px" y="0px"
	 viewBox="0 0 226.8 226.8" style="enable-background:new 0 0 226.8 226.8;" xml:space="preserve">
<style type="text/css">
	.st0{stroke:#FFFFFF;stroke-miterlimit:10;}
</style>
<path class="st0" d="M114.7,2.8c33.8,46.8,67.4,93.8,101.2,140.7c-33.8,27.7-67.5,55.5-101.1,83.4C80.6,199,46.5,171.1,12.3,143.4
	C46.5,96.7,80.7,49.8,114.7,2.8 M54.6,138c14.9,12,29.7,24.3,44.6,36.2c0.1-32.5,0.1-65.1-0.1-97.6C84.5,97.2,69.4,117.5,54.6,138
	 M130.2,77.1c-0.1,32.3-0.1,64.7,0,97c14.5-12.2,29.2-24,43.7-36.2C159.3,117.6,144.7,97.4,130.2,77.1"/>
</svg>
