<?xml version="1.0" encoding="utf-8"?>
<!-- Generator: Adobe Illustrator 22.0.1, SVG Export Plug-In . SVG Version: 6.00 Build 0)  -->
<svg version="1.1" id="Layer_1" xmlns="http://www.w3.org/2000/svg" xmlns:xlink="http://www.w3.org/1999/xlink" x="0px" y="0px"
	 viewBox="0 0 226.8 226.8" style="enable-background:new 0 0 226.8 226.8;" xml:space="preserve">
<style type="text/css">
	.st0{stroke:#FFFFFF;stroke-miterlimit:10;}
</style>
<path class="st0" d="M112.8,0.5c1.3-0.7,2.8-0.7,4.1,0l91.2,52.4c2,1.1,2.6,3.6,1.5,5.6c-0.4,0.6-0.9,1.2-1.5,1.5l-79.3,45.7
	c-2.8-3.2-6.6-5.4-10.8-6.1V74.8c8.6-1.5,15.2-8.9,15.2-17.9c0-10-8.2-18.2-18.2-18.2s-18.2,8.1-18.2,18.2c0,8.9,6.5,16.4,15,17.9
	v24.9c-4.1,0.7-7.9,2.9-10.6,6.1L21.7,60.2c-2.7-1.6-2.8-5.5,0-7.1L112.8,0.5 M208.4,66.5c2-1.1,4.5-0.5,5.6,1.5
	c0.4,0.6,0.6,1.3,0.6,2.1l0.1,101.7c0,1.5-0.8,2.8-2.1,3.6l-88.3,50.9c-2.7,1.6-6.2-0.4-6.2-3.6l-0.1-87.2c4.3-0.7,8.2-3,10.9-6.3
	l22.1,12.6c-0.6,2.3-0.7,4.7-0.4,7.1c1.4,9.9,10.6,16.9,20.6,15.5c10-1.4,16.9-10.6,15.5-20.5c-1.4-9.9-10.6-16.9-20.6-15.5
	c-5,0.7-9.6,3.5-12.4,7.7l-21.6-12.4c1.5-4.2,1.4-8.8-0.3-13L208.4,66.5 M15.2,70.1c0-2.4,2-4.1,4.1-4.1c0.7,0,1.4,0.2,2.1,0.6
	L98,110.7c-1.7,4.1-1.8,8.7-0.3,12.9l-21.6,12.4c-2.9-4.2-7.4-7-12.4-7.7c-10-1.4-19.2,5.5-20.6,15.5c-1.4,9.9,5.5,19.1,15.5,20.5
	c10,1.4,19.2-5.5,20.6-15.5c0.3-2.4,0.2-4.8-0.4-7.1l22.1-12.6c2.8,3.3,6.6,5.5,10.8,6.3l-0.1,87.3c0,3.2-3.4,5.1-6.2,3.6
	l-88.3-50.9c-1.3-0.7-2.1-2.1-2.1-3.6L15.2,70.1"/>
</svg>
