<!-- Generated by IcoMoon.io -->
<svg version="1.1" xmlns="http://www.w3.org/2000/svg" width="32" height="32" viewBox="0 0 32 32">
<title>LUN</title>
<path d="M15.915 0.071c0.183-0.099 0.395-0.099 0.578 0l12.868 7.393c0.282 0.155 0.367 0.508 0.212 0.79-0.056 0.085-0.127 0.169-0.212 0.212l-11.189 6.448c-0.395-0.451-0.931-0.762-1.524-0.861v-3.499c1.213-0.212 2.145-1.256 2.145-2.526 0-1.411-1.157-2.568-2.568-2.568s-2.568 1.143-2.568 2.568c0 1.256 0.917 2.314 2.116 2.526v3.513c-0.578 0.099-1.115 0.409-1.496 0.861l-11.217-6.434c-0.381-0.226-0.395-0.776 0-1.002l12.854-7.422M29.404 9.383c0.282-0.155 0.635-0.071 0.79 0.212 0.056 0.085 0.085 0.183 0.085 0.296l0.014 14.349c0 0.212-0.113 0.395-0.296 0.508l-12.459 7.182c-0.381 0.226-0.875-0.056-0.875-0.508l-0.014-12.303c0.607-0.099 1.157-0.423 1.538-0.889l3.118 1.778c-0.085 0.325-0.099 0.663-0.056 1.002 0.198 1.397 1.496 2.384 2.907 2.187s2.384-1.496 2.187-2.892c-0.198-1.397-1.496-2.384-2.907-2.187-0.705 0.099-1.355 0.494-1.75 1.086l-3.048-1.75c0.212-0.593 0.198-1.242-0.042-1.834l10.808-6.236M2.145 9.891c0-0.339 0.282-0.578 0.578-0.578 0.099 0 0.198 0.028 0.296 0.085l10.808 6.222c-0.24 0.578-0.254 1.227-0.042 1.82l-3.048 1.75c-0.409-0.593-1.044-0.988-1.75-1.086-1.411-0.198-2.709 0.776-2.907 2.187-0.198 1.397 0.776 2.695 2.187 2.892s2.709-0.776 2.907-2.187c0.042-0.339 0.028-0.677-0.056-1.002l3.118-1.778c0.395 0.466 0.931 0.776 1.524 0.889l-0.014 12.317c0 0.451-0.48 0.72-0.875 0.508l-12.459-7.182c-0.183-0.099-0.296-0.296-0.296-0.508l0.028-14.349"></path>
</svg>
