<!-- Generated by IcoMoon.io -->
<svg version="1.1" xmlns="http://www.w3.org/2000/svg" width="32" height="32" viewBox="0 0 32 32">
<title>LUNO</title>
<path d="M28.233 19.683c-2.159 0-3.739-1.608-3.739-3.767 0-2.088 1.637-3.711 3.725-3.711 2.159 0 3.795 1.623 3.781 3.739s-1.665 3.753-3.767 3.739zM25.538 15.958c0 1.58 1.185 2.794 2.709 2.794 1.566 0 2.709-1.199 2.695-2.836 0-1.524-1.199-2.765-2.695-2.765-1.552 0-2.709 1.199-2.709 2.808z"></path>
<path d="M13.658 14.914c0 0.55 0 1.101 0 1.651-0.014 1.735-0.988 2.878-2.695 3.132-0.931 0.141-1.806 0-2.596-0.536-0.832-0.564-1.228-1.397-1.242-2.37-0.028-1.312-0.014-2.624 0-3.937 0-0.31 0.212-0.522 0.48-0.522 0.282 0 0.508 0.212 0.508 0.522 0 1.228 0 2.455 0 3.697 0 1.002 0.593 1.806 1.51 2.088 1.030 0.31 2.116-0.028 2.667-0.832 0.24-0.353 0.367-0.748 0.367-1.171 0.014-1.199 0-2.413 0.014-3.612 0-0.056 0-0.099 0-0.155 0.014-0.31 0.212-0.508 0.494-0.508s0.494 0.198 0.494 0.508c0 0.663 0 1.354 0 2.046 0 0 0 0 0 0z"></path>
<path d="M15.831 16.889c0-0.621-0.014-1.242 0-1.877 0.042-1.453 0.917-2.511 2.328-2.85 0.776-0.183 1.538-0.155 2.286 0.127 1.199 0.451 1.848 1.34 1.905 2.61 0.056 1.34 0.028 2.681 0.028 4.007 0 0.339-0.226 0.55-0.522 0.55-0.296-0.014-0.48-0.24-0.48-0.578 0-1.199 0-2.413 0-3.612 0-0.988-0.564-1.778-1.453-2.074-1.002-0.339-2.116-0.028-2.681 0.734-0.296 0.381-0.409 0.818-0.409 1.312 0 1.157 0 2.328 0 3.485 0 0.113 0 0.24-0.028 0.339-0.071 0.268-0.282 0.423-0.522 0.395s-0.437-0.226-0.437-0.494c-0.028-0.691-0.014-1.383-0.014-2.074 0 0 0 0 0 0z"></path>
<path d="M1.002 14.688c0 0.578 0 1.143 0 1.721 0.014 1.284 0.847 2.173 2.131 2.243 0.55 0.028 1.115 0.014 1.665 0.014 0.353 0 0.578 0.183 0.578 0.48 0.014 0.296-0.226 0.522-0.578 0.522-0.776-0.014-1.566 0.028-2.328-0.099-1.467-0.254-2.413-1.369-2.455-2.864-0.028-1.312-0.014-2.61-0.014-3.922 0-0.339 0.212-0.55 0.508-0.55s0.48 0.226 0.494 0.578c0.014 0.621 0 1.256 0 1.877z"></path>
</svg>
