<!-- Generated by IcoMoon.io -->
<svg version="1.1" xmlns="http://www.w3.org/2000/svg" width="32" height="32" viewBox="0 0 32 32">
<title>LYL</title>
<path d="M32 29.46c-4.825 0-9.58 0-14.392 0 0-0.607 0-1.213 0-1.877 3.64 0 7.252 0 10.963 0-0.212-0.367-0.353-0.663-0.522-0.945-1.792-3.104-3.598-6.208-5.39-9.312-0.071-0.113-0.127-0.24-0.198-0.353-0.155-0.226-0.127-0.423 0.071-0.621 0.31-0.296 0.607-0.607 0.903-0.903 0.325-0.31 0.423-0.296 0.649 0.113 1.086 1.905 2.173 3.795 3.273 5.7 1.496 2.596 2.977 5.192 4.459 7.788 0.071 0.099 0.099 0.226 0.183 0.409z"></path>
<path d="M14.377 27.556c0 0.691 0 1.27 0 1.905-4.797 0-9.552 0-14.377 0 0.056-0.169 0.085-0.31 0.141-0.423 1.199-2.102 2.413-4.19 3.612-6.293 1.34-2.328 2.667-4.67 4.007-6.998 0.113-0.198 0.24-0.381 0.409-0.621 0.508 0.508 0.959 0.945 1.397 1.425 0.056 0.056 0.028 0.268-0.028 0.367-1.199 2.088-2.413 4.176-3.612 6.25-0.79 1.369-1.58 2.737-2.37 4.106-0.028 0.056-0.056 0.127-0.099 0.282 3.64 0 7.252 0 10.921 0z"></path>
<path d="M11.132 14.335c-0.141-0.099-0.24-0.155-0.31-0.226-0.325-0.296-0.621-0.621-0.945-0.903-0.268-0.24-0.282-0.451-0.099-0.762 1.51-2.582 3.019-5.178 4.515-7.76 0.409-0.691 0.804-1.397 1.199-2.088 0.071-0.127 0.169-0.226 0.296-0.395 0.127 0.155 0.24 0.254 0.31 0.381 1.919 3.302 3.838 6.603 5.771 9.905 0.155 0.254 0.155 0.451-0.085 0.677-0.367 0.325-0.691 0.677-1.044 1.016-0.056 0.056-0.141 0.085-0.268 0.155-1.552-2.653-3.076-5.277-4.67-8-1.58 2.709-3.118 5.319-4.67 8z"></path>
<path d="M15.845 19.175c-0.226-0.183-0.395-0.31-0.55-0.466-0.889-0.945-1.778-1.905-2.653-2.85-0.113-0.127-0.226-0.254-0.339-0.381-0.212-0.24-0.198-0.48-0.042-0.734 0.367-0.607 0.72-1.213 1.072-1.82 0.734-1.256 1.467-2.526 2.187-3.781 0.071-0.113 0.141-0.226 0.268-0.409 0.183 0.268 0.353 0.466 0.494 0.705 1.016 1.75 2.004 3.499 3.019 5.249 0.268 0.466 0.254 0.536-0.113 0.945-0.903 0.974-1.778 1.961-2.681 2.935-0.183 0.198-0.409 0.367-0.663 0.607z"></path>
</svg>
