<?xml version="1.0" encoding="utf-8"?>
<!-- Generator: Adobe Illustrator 22.1.0, SVG Export Plug-In . SVG Version: 6.00 Build 0)  -->
<svg version="1.1" id="Layer_1" xmlns="http://www.w3.org/2000/svg" xmlns:xlink="http://www.w3.org/1999/xlink" x="0px" y="0px"
	 viewBox="0 0 226.8 226.8" style="enable-background:new 0 0 226.8 226.8;" xml:space="preserve">
<g>
	<path d="M226.8,208.8c-34.2,0-67.9,0-102,0c0-4.3,0-8.6,0-13.3c25.8,0,51.4,0,77.7,0c-1.5-2.6-2.5-4.7-3.7-6.7
		c-12.7-22-25.5-44-38.2-66c-0.5-0.8-0.9-1.7-1.4-2.5c-1.1-1.6-0.9-3,0.5-4.4c2.2-2.1,4.3-4.3,6.4-6.4c2.3-2.2,3-2.1,4.6,0.8
		c7.7,13.5,15.4,26.9,23.2,40.4c10.6,18.4,21.1,36.8,31.6,55.2C226,206.6,226.2,207.5,226.8,208.8z"/>
	<path d="M101.9,195.3c0,4.9,0,9,0,13.5c-34,0-67.7,0-101.9,0c0.4-1.2,0.6-2.2,1-3c8.5-14.9,17.1-29.7,25.6-44.6
		c9.5-16.5,18.9-33.1,28.4-49.6c0.8-1.4,1.7-2.7,2.9-4.4c3.6,3.6,6.8,6.7,9.9,10.1c0.4,0.4,0.2,1.9-0.2,2.6
		c-8.5,14.8-17.1,29.6-25.6,44.3c-5.6,9.7-11.2,19.4-16.8,29.1c-0.2,0.4-0.4,0.9-0.7,2C50.3,195.3,75.9,195.3,101.9,195.3z"/>
	<path d="M78.9,101.6c-1-0.7-1.7-1.1-2.2-1.6c-2.3-2.1-4.4-4.4-6.7-6.4c-1.9-1.7-2-3.2-0.7-5.4c10.7-18.3,21.4-36.7,32-55
		c2.9-4.9,5.7-9.9,8.5-14.8c0.5-0.9,1.2-1.6,2.1-2.8c0.9,1.1,1.7,1.8,2.2,2.7c13.6,23.4,27.2,46.8,40.9,70.2
		c1.1,1.8,1.1,3.2-0.6,4.8c-2.6,2.3-4.9,4.8-7.4,7.2c-0.4,0.4-1,0.6-1.9,1.1c-11-18.8-21.8-37.4-33.1-56.7
		C100.8,64.1,89.9,82.6,78.9,101.6z"/>
	<path d="M112.3,135.9c-1.6-1.3-2.8-2.2-3.9-3.3c-6.3-6.7-12.6-13.5-18.8-20.2c-0.8-0.9-1.6-1.8-2.4-2.7c-1.5-1.7-1.4-3.4-0.3-5.2
		c2.6-4.3,5.1-8.6,7.6-12.9c5.2-8.9,10.4-17.9,15.5-26.8c0.5-0.8,1-1.6,1.9-2.9c1.3,1.9,2.5,3.3,3.5,5c7.2,12.4,14.2,24.8,21.4,37.2
		c1.9,3.3,1.8,3.8-0.8,6.7c-6.4,6.9-12.6,13.9-19,20.8C115.7,133,114.1,134.2,112.3,135.9z"/>
</g>
</svg>
