<?xml version="1.0" encoding="utf-8"?>
<!-- Generator: Adobe Illustrator 22.1.0, SVG Export Plug-In . SVG Version: 6.00 Build 0)  -->
<svg version="1.1" id="Layer_1" xmlns="http://www.w3.org/2000/svg" xmlns:xlink="http://www.w3.org/1999/xlink" x="0px" y="0px"
	 viewBox="0 0 226.8 226.8" style="enable-background:new 0 0 226.8 226.8;" xml:space="preserve">
<g>
	<path d="M124.6,119c2-2.9,3.4-4.6,4.5-6.5c4.7-8.1,9.5-16.1,14-24.3c3.8-6.8,9.5-10.5,17.2-10.6c17-0.1,34-0.1,51,0
		c2,0,4,0.4,5.9,0.9c8.9,2.5,11,6.9,6.5,15c-12.1,21.8-24.4,43.5-36.6,65.3c-5.7,10.1-11.7,20.1-17.2,30.3
		c-3.9,7.3-9.9,10.6-17.9,10.7c-19,0-38-0.1-57,0.1c-5.7,0.1-9.4-1.9-12.3-7c-19.8-34.4-39.8-68.7-59.7-103
		C16.8,79.4,10.7,68.8,4.7,58.2c-1-1.7-2.1-3.4-2.9-5.2c-4.3-9.4-0.5-16.3,9.6-17.8c1.7-0.2,3.4-0.3,5.1-0.3
		c15.6,0,31.2,0.1,46.8-0.1c8.8-0.1,15.1,3.5,19.4,11.2c11.1,19.8,22.5,39.4,33.8,59.1C118.9,109.5,121.5,113.8,124.6,119z"/>
</g>
</svg>
