<!-- Generated by IcoMoon.io -->
<svg version="1.1" xmlns="http://www.w3.org/2000/svg" width="32" height="32" viewBox="0 0 32 32">
<title>LYM</title>
<path d="M17.58 16.79c0.282-0.409 0.48-0.649 0.635-0.917 0.663-1.143 1.34-2.272 1.975-3.429 0.536-0.959 1.34-1.481 2.427-1.496 2.399-0.014 4.797-0.014 7.196 0 0.282 0 0.564 0.056 0.832 0.127 1.256 0.353 1.552 0.974 0.917 2.116-1.707 3.076-3.443 6.138-5.164 9.213-0.804 1.425-1.651 2.836-2.427 4.275-0.55 1.030-1.397 1.496-2.526 1.51-2.681 0-5.362-0.014-8.042 0.014-0.804 0.014-1.326-0.268-1.735-0.988-2.794-4.854-5.616-9.693-8.423-14.533-0.875-1.481-1.735-2.977-2.582-4.473-0.141-0.24-0.296-0.48-0.409-0.734-0.607-1.326-0.071-2.3 1.355-2.511 0.24-0.028 0.48-0.042 0.72-0.042 2.201 0 4.402 0.014 6.603-0.014 1.242-0.014 2.13 0.494 2.737 1.58 1.566 2.794 3.175 5.559 4.769 8.339 0.339 0.621 0.705 1.228 1.143 1.961z"></path>
</svg>
