<!-- Generated by IcoMoon.io -->
<svg version="1.1" xmlns="http://www.w3.org/2000/svg" width="32" height="32" viewBox="0 0 32 32">
<title>MAN</title>
<path d="M17.439 16.183c1.101 1.016 2.145 1.862 3.048 2.836 2.356 2.54 2.116 6.476-0.466 8.776-2.526 2.243-6.448 2.046-8.734-0.466-2.201-2.413-2.187-5.996 0.071-8.395 0.889-0.945 1.891-1.778 2.751-2.568-3.132-3.16-6.053-6.123-9.086-9.185-0.042 0.367-0.099 0.691-0.099 1.030-0.014 4.317 0 8.635-0.028 12.952 0 0.776 0.212 1.242 0.889 1.679 1.369 0.875 1.862 2.526 1.383 4.021-0.48 1.453-1.848 2.469-3.358 2.483-1.552 0.028-3.005-1.016-3.471-2.483-0.48-1.51 0.014-3.132 1.383-4.021 0.691-0.437 0.861-0.931 0.861-1.693-0.042-5.164-0.042-10.314-0.042-15.464 0-0.395-0.085-0.818 0.028-1.185 0.169-0.55 0.353-1.312 0.748-1.496 0.395-0.169 1.185 0.155 1.58 0.494 1.27 1.129 2.441 2.384 3.654 3.584 2.201 2.201 4.43 4.388 6.617 6.617 0.522 0.536 0.889 0.578 1.411 0 0.804-0.875 1.679-1.707 2.54-2.54 0.593-0.578 1.27-0.804 1.905-0.127 0.593 0.635 0.353 1.27-0.198 1.82-1.058 1.030-2.116 2.074-3.386 3.33zM15.887 26.991c1.481-0.071 2.667-0.691 3.386-2.088 0.72-1.425 0.649-2.836-0.367-4.064-0.776-0.945-1.679-1.792-2.582-2.624-0.169-0.155-0.705-0.141-0.875 0.014-0.903 0.832-1.806 1.679-2.582 2.624-0.988 1.199-1.072 2.582-0.395 3.965 0.649 1.411 1.82 2.088 3.414 2.173zM5.023 26.074c-0.183-1.101-0.578-1.552-1.369-1.496-0.734 0.042-1.129 0.508-1.115 1.213 0.014 0.72 0.48 1.256 1.171 1.129 0.522-0.085 0.959-0.607 1.312-0.847z"></path>
<path d="M26.808 19.316c0-2.794-0.014-5.587 0.014-8.381 0-0.663-0.169-1.115-0.776-1.524-1.439-0.945-1.989-2.554-1.51-4.078s1.834-2.526 3.414-2.554c1.608-0.014 2.991 0.959 3.499 2.441 0.522 1.58 0.014 3.203-1.481 4.176-0.677 0.437-0.748 0.974-0.748 1.651 0 5.263 0 10.511-0.014 15.774 0 0.437 0.014 0.875-0.028 1.298-0.071 0.705-0.451 1.185-1.185 1.171-0.72-0.014-1.129-0.48-1.143-1.199-0.028-1.227-0.028-2.469-0.028-3.697 0-1.707 0-3.414 0-5.108 0 0.028-0.014 0.028-0.014 0.028zM28.247 5.065c-0.169 0-0.325 0-0.494 0-0.31 0.452-0.804 0.861-0.875 1.34-0.113 0.691 0.423 1.143 1.129 1.143 0.72 0 1.227-0.466 1.115-1.143-0.085-0.48-0.564-0.889-0.875-1.34z"></path>
</svg>
