<?xml version="1.0" encoding="utf-8"?>
<!-- Generator: Adobe Illustrator 22.1.0, SVG Export Plug-In . SVG Version: 6.00 Build 0)  -->
<svg version="1.1" id="Layer_1" xmlns="http://www.w3.org/2000/svg" xmlns:xlink="http://www.w3.org/1999/xlink" x="0px" y="0px"
	 viewBox="0 0 226.8 226.8" style="enable-background:new 0 0 226.8 226.8;" xml:space="preserve">
<g>
	<path d="M123.6,114.7c7.8,7.2,15.2,13.2,21.6,20.1c16.7,18,15,45.9-3.3,62.2c-17.9,15.9-45.7,14.5-61.9-3.3
		c-15.6-17.1-15.5-42.5,0.5-59.5c6.3-6.7,13.4-12.6,19.5-18.2C77.8,93.6,57.1,72.6,35.6,50.9c-0.3,2.6-0.7,4.9-0.7,7.3
		c-0.1,30.6,0,61.2-0.2,91.8c0,5.5,1.5,8.8,6.3,11.9c9.7,6.2,13.2,17.9,9.8,28.5c-3.4,10.3-13.1,17.5-23.8,17.6
		c-11,0.2-21.3-7.2-24.6-17.6c-3.4-10.7,0.1-22.2,9.8-28.5c4.9-3.1,6.1-6.6,6.1-12C18,113.3,18,76.8,18,40.3c0-2.8-0.6-5.8,0.2-8.4
		c1.2-3.9,2.5-9.3,5.3-10.6c2.8-1.2,8.4,1.1,11.2,3.5c9,8,17.3,16.9,25.9,25.4C76.2,65.8,92,81.3,107.5,97.1c3.7,3.8,6.3,4.1,10,0
		c5.7-6.2,11.9-12.1,18-18c4.2-4.1,9-5.7,13.5-0.9c4.2,4.5,2.5,9-1.4,12.9C140.1,98.4,132.6,105.8,123.6,114.7z M112.6,191.3
		c10.5-0.5,18.9-4.9,24-14.8c5.1-10.1,4.6-20.1-2.6-28.8c-5.5-6.7-11.9-12.7-18.3-18.6c-1.2-1.1-5-1-6.2,0.1
		c-6.4,5.9-12.8,11.9-18.3,18.6c-7,8.5-7.6,18.3-2.8,28.1C93,185.9,101.3,190.7,112.6,191.3z M35.6,184.8c-1.3-7.8-4.1-11-9.7-10.6
		c-5.2,0.3-8,3.6-7.9,8.6c0.1,5.1,3.4,8.9,8.3,8C30,190.2,33.1,186.5,35.6,184.8z"/>
	<path d="M190,136.9c0-19.8-0.1-39.6,0.1-59.4c0-4.7-1.2-7.9-5.5-10.8c-10.2-6.7-14.1-18.1-10.7-28.9c3.4-10.8,13-17.9,24.2-18.1
		c11.4-0.1,21.2,6.8,24.8,17.3c3.7,11.2,0.1,22.7-10.5,29.6c-4.8,3.1-5.3,6.9-5.3,11.7c0,37.3,0,74.5-0.1,111.8
		c0,3.1,0.1,6.2-0.2,9.2c-0.5,5-3.2,8.4-8.4,8.3c-5.1-0.1-8-3.4-8.1-8.5c-0.2-8.7-0.2-17.5-0.2-26.2c0-12.1,0-24.2,0-36.2
		C190.1,136.9,190,136.9,190,136.9z M200.2,35.9c-1.2,0-2.3,0-3.5,0c-2.2,3.2-5.7,6.1-6.2,9.5c-0.8,4.9,3,8.1,8,8.1
		c5.1,0,8.7-3.3,7.9-8.1C205.8,42,202.4,39.1,200.2,35.9z"/>
</g>
</svg>
