<?xml version="1.0" encoding="utf-8"?>
<!-- Generator: Adobe Illustrator 22.0.1, SVG Export Plug-In . SVG Version: 6.00 Build 0)  -->
<svg version="1.1" id="Layer_1" xmlns="http://www.w3.org/2000/svg" xmlns:xlink="http://www.w3.org/1999/xlink" x="0px" y="0px"
	 viewBox="0 0 226.8 226.8" style="enable-background:new 0 0 226.8 226.8;" xml:space="preserve">
<style type="text/css">
	.st0{display:none;stroke:#FFFFFF;stroke-miterlimit:10;}
	.st1{stroke:#FFFFFF;stroke-miterlimit:10;}
	.st2{display:none;}
	.st3{display:inline;stroke:#FFFFFF;stroke-miterlimit:10;}
</style>
<path class="st0" d="M218.2,125.4c0.3-3.7,0.6-7.2,0.6-11C218.8,55.7,171.1,8,112.4,8S6,55.7,6,114.4
	C6,114.8,216.5,119.8,218.2,125.4"/>
<path class="st1" d="M5.6,114.6C5.6,173.3,53.2,221,112,221s100.3-36.1,106.4-93.1C218.4,127.5,5.6,111,5.6,114.6"/>
<path class="st1" d="M71.2,35.7c11.7,0,21.3,9.5,21.3,21.3S83,78.3,71.2,78.3S49.9,68.8,49.9,57S59.4,35.7,71.2,35.7"/>
<path class="st1" d="M71.2,40.2c-9.3,0-16.8,7.5-16.8,16.8s7.5,16.8,16.8,16.8S88,66.3,88,57S80.4,40.2,71.2,40.2 M71.2,82.7
	C57,82.7,45.5,71.2,45.5,57S57,31.3,71.2,31.3S96.9,42.8,96.9,57S85.3,82.7,71.2,82.7"/>
<path class="st1" d="M140.3,34.7c18.4,0,33.3,14.9,33.3,33.3s-14.9,33.3-33.3,33.3S107,86.5,107,68.1S121.9,34.7,140.3,34.7"/>
<g>
	<path class="st1" d="M80.6,139.4l27-34.1l5.8,3.3l11.1,4.1l7.9-4.1l25.1-26.8l8.8,11.7l4.2-3.4h5.5l14,19.5l10-1.7l17.9,20.4"/>
	<path class="st1" d="M98.3,122.5l-14.6-8.1l-21.3,5.5l-9.7-32.2H35.2l-16.8,29.6L6,117.7"/>
</g>
<g>
	<path class="st1" d="M49.9,128.7c0,0-8,23.3-8,23.7c0,2.2,3.5,4,8,4s8-1.8,8-4C57.8,152.1,49.9,128.7,49.9,128.7"/>
	<path class="st1" d="M31.5,119.7c0,0-7.9,23.2-7.9,23.6c0,2.2,3.5,4,7.9,4s7.9-1.8,7.9-4C39.4,142.9,31.5,119.7,31.5,119.7"/>
</g>
<g class="st2">
	<path class="st3" d="M175.9,122.2c0,9-42.7,9-42.7,0s9.5-16.3,21.3-16.3C166.2,105.9,175.9,113.1,175.9,122.2"/>
	<path class="st3" d="M197.2,144.3c0,9-42.7,9-42.7,0S164,128,175.8,128C187.6,127.9,197.2,135.2,197.2,144.3"/>
	<path class="st3" d="M154.5,170.7c0,9-42.7,9-42.7,0s9.5-16.3,21.3-16.3S154.5,161.7,154.5,170.7"/>
</g>
<path class="st0" d="M113.6,216.4c-44,0-81.7-27.6-96.6-66.4c3,0,6.1,0.1,9.3,0.1c1.6,0.4,3.3,0.7,5.2,0.7c1.6,0,2.9-0.1,4.2-0.4
	c0.7,0,1.4,0,2.1,0.1c-0.2,0.7-0.2,0.9-0.2,1.1c0,5,5.3,8.5,12.5,8.5c7.1,0,11.1-4.4,11.4-9.2c1.1,0.1,3.4,1.2,4.5,1.3
	c29.9,3.2,31.9,8.6,31.9,8.9c0.1,0.4-0.7,2.8-6.6,6.9c-12.9,8.9-17.3,14.1-16.1,19.6c1.4,6.6,10.1,8.3,23.2,10.7
	c3.7,0.7,7.9,1.6,12.2,2.4c4.8,1.1,9.7,2.1,14.5,3c8.9,1.8,17.8,3.5,24.9,5.8C138.9,214.1,126.5,216.4,113.6,216.4"/>
<path class="st1" d="M201.6,103.2l-9.5,1.7l-13.7-19.1H174c2.8-5.4,4.3-11.5,4.3-17.6c0-20.8-17-37.8-37.8-37.8
	s-37.9,16.8-37.9,37.7c0,17.3,11.7,31.9,27.6,36.4l-0.6,0.6l-5.4,2.8l-8.9-3.2l-8.8-5.1l-12.3,15.5l-9.9-5.4l-18.9,4.9l-9.5-31.2
	H32.6l-17,29.7l-5.2,0.1c0.7-55.7,46.3-100.7,102-100.7c56.2,0,101.9,45.8,101.9,101.9v3.2L201.6,103.2z M150.1,170.1
	c-1.6,1.1-7.3,2.9-16.8,2.9s-15.3-1.8-16.8-2.9c0.4-6.2,8-11.3,16.8-11.3S149.6,163.9,150.1,170.1z M175.9,132.3
	c8.9,0,16.4,5.1,16.8,11.3c-1.6,1.1-7.4,2.9-16.8,2.9s-15.3-1.8-16.8-2.9C159.5,137.4,167,132.3,175.9,132.3z M171.3,121.5
	c-1.6,1.1-7.4,2.9-16.8,2.9c-9.4,0-15.3-1.8-16.8-2.9c0.4-6.2,8-11.3,16.8-11.3C163.4,110.2,170.9,115.3,171.3,121.5z M164.6,83.9
	l-6.6-9l-20.6,22c-14.5-1.6-25.8-13.8-25.8-28.8c0-16,13-28.9,28.9-28.9c16,0,28.9,13,28.9,28.9C169.3,73.8,167.7,79.3,164.6,83.9z
	 M159.8,204.6c-8.3-4.1-20.9-6.5-34.2-9.2c-4.7-0.9-9.5-1.9-14.2-2.9c-4.3-1-8.5-1.8-12.3-2.4c-6-1.1-13.2-2.5-15.5-3.9
	c0.8-1.2,3.2-4.1,11.9-10c3.1-2.1,12.5-8.5,10-16.7c-2.3-7.6-14.4-12.3-39-15c-2.2-0.2-4.5-0.4-7-0.7c-1.2-3.7-3-8.9-5.5-16.4
	l-4.2-12.3l-4.2,12.3c-1.4,4.1-2.5,7.4-3.5,10.3c-1.1-3.5-3.1-9.3-6.5-19.3L31.5,106l-4.2,12.3c-5.8,16.8-7.4,21.8-7.9,23.7h-5.1
	c-1.8-6.6-3-13.3-3.5-20.1l10.2-0.3l16.8-29.5h11.6l10.1,33.1l23.7-6.1l5.4,3l-11.5,14.5l7,5.5l24.6-31.1l2.9,1.7l13.3,4.9l5.8-3
	c-1.1,2.3-1.8,4.9-1.8,7.5c0,2.7,1.7,8.3,14.3,10.4c4,0.7,7,4.1,7,8.2v14.4c-1.8-1.2-3.8-2.3-6-3.1h0.1c-4.9-1.6-9.4-3.9-10.9-8.6
	c-1.1,3.9-4.2,6.1-8.2,7.6c-10.3,2.8-17.7,10.5-17.7,19.7c0,3.3,2.5,11.2,25.7,11.2c23.3,0,25.7-7.9,25.7-11.2v-17.4
	c1.6,0.6,3.3,1,5.4,1.3c4,0.7,7,4.1,7,8.2v10c0,2.3,1.7,4.4,4,4.7c2.7,0.2,4.9-1.9,4.9-4.4v-10.2c0-4.1,3-7.5,7-8.2
	c12.6-2.1,14.3-7.6,14.3-10.4c0-7.4-4.9-13.8-12.1-17.5h0.1c-0.1,0-0.2-0.1-0.4-0.1c-1.2-0.7-2.7-1.1-4-1.6c-2-1-3.8-2.3-5-4
	c-0.6-7.9-6.4-14.5-14.8-17.7h-0.1c-0.6-0.2-1.1-0.3-1.7-0.6c-4.2-1.6-7.9-3.9-9.1-8c-1.3,4.5-5.2,6.9-10.2,8.4
	c-0.3,0.1-0.8,0.2-1.1,0.4L156.9,89l8.3,11.2l6.6-5.3h1.7l14.4,19.8l10.2-1.8l15,17C208.2,162.3,188,189.7,159.8,204.6z M46.9,151.6
	l3-9l3,9C51,152.2,48.9,152.2,46.9,151.6z M28.6,142.2c0.7-2,1.7-5.2,2.9-8.6c1.2,3.5,2.3,6.8,2.9,8.8
	C32.4,142.3,30.5,142.2,28.6,142.2z M112.4,216.3c-43.3,0-80.4-27.1-95.2-65.4c2.9,0,6,0.1,9.1,0.1c1.7,0.5,3.4,0.7,5.1,0.7
	c1.4,0,2.9-0.1,4.1-0.4c0.7,0,1.4,0,2.1,0.1c-0.2,0.7-0.2,0.9-0.2,1.1c0,4.9,5.2,8.4,12.4,8.4c7,0,12.1-3.3,12.3-8
	c1.1,0.1,2.3,0.2,3.4,0.3C95,156.5,97,161.8,97,162c0.1,0.4-0.6,2.8-6.5,6.8c-12.5,8.6-16.8,13.8-15.7,19.3
	c1.3,6.5,9.9,8.2,22.8,10.6c3.7,0.7,7.8,1.4,12,2.4c4.7,1,9.6,2,14.4,3c8.6,1.8,17.5,3.5,24.6,5.7
	C137,214.1,124.7,216.3,112.4,216.3z M112.4,3.6C51.4,3.6,1.6,53.4,1.6,114.4s49.7,110.8,110.8,110.8s110.8-49.7,110.8-110.8
	S173.4,3.6,112.4,3.6z"/>
</svg>
