<!-- Generated by IcoMoon.io -->
<svg version="1.1" xmlns="http://www.w3.org/2000/svg" width="32" height="32" viewBox="0 0 32 32">
<title>MANA</title>
<path d="M0.79 16.169c0 8.282 6.716 15.012 15.012 15.012s14.152-5.093 15.012-13.136c0-0.056-30.025-2.384-30.025-1.877"></path>
<path d="M10.046 5.037c1.651 0 3.005 1.34 3.005 3.005s-1.34 3.005-3.005 3.005-3.005-1.34-3.005-3.005 1.34-3.005 3.005-3.005"></path>
<path d="M10.046 5.672c-1.312 0-2.37 1.058-2.37 2.37s1.058 2.37 2.37 2.37 2.37-1.058 2.37-2.37-1.072-2.37-2.37-2.37M10.046 11.668c-2.004 0-3.626-1.623-3.626-3.626s1.623-3.626 3.626-3.626 3.626 1.623 3.626 3.626-1.637 3.626-3.626 3.626"></path>
<path d="M19.795 4.896c2.596 0 4.698 2.102 4.698 4.698s-2.102 4.698-4.698 4.698-4.698-2.088-4.698-4.684 2.102-4.713 4.698-4.713"></path>
<path d="M11.372 19.668l3.81-4.811 0.818 0.466 1.566 0.578 1.115-0.578 3.541-3.781 1.242 1.651 0.593-0.48h0.776l1.975 2.751 1.411-0.24 2.526 2.878"></path>
<path d="M13.87 17.284l-2.060-1.143-3.005 0.776-1.369-4.543h-2.469l-2.37 4.176-1.75 0.056"></path>
<path d="M7.041 18.159c0 0-1.129 3.287-1.129 3.344 0 0.31 0.494 0.564 1.129 0.564s1.129-0.254 1.129-0.564c-0.014-0.042-1.129-3.344-1.129-3.344"></path>
<path d="M4.444 16.889c0 0-1.115 3.273-1.115 3.33 0 0.31 0.494 0.564 1.115 0.564s1.115-0.254 1.115-0.564c0-0.056-1.115-3.33-1.115-3.33"></path>
<path d="M28.444 14.561l-1.34 0.24-1.933-2.695h-0.621c0.395-0.762 0.607-1.623 0.607-2.483 0-2.935-2.399-5.333-5.333-5.333s-5.347 2.37-5.347 5.319c0 2.441 1.651 4.501 3.894 5.136l-0.085 0.085-0.762 0.395-1.256-0.451-1.242-0.72-1.735 2.187-1.397-0.762-2.667 0.691-1.34-4.402h-3.287l-2.399 4.19-0.734 0.014c0.099-7.859 6.533-14.208 14.392-14.208 7.929 0 14.377 6.462 14.377 14.377v0.451l-1.792-2.032zM21.178 24c-0.226 0.155-1.030 0.409-2.37 0.409s-2.159-0.254-2.37-0.409c0.056-0.875 1.129-1.594 2.37-1.594s2.3 0.72 2.37 1.594zM24.818 18.667c1.256 0 2.314 0.72 2.37 1.594-0.226 0.155-1.044 0.409-2.37 0.409s-2.159-0.254-2.37-0.409c0.056-0.875 1.115-1.594 2.37-1.594zM24.169 17.143c-0.226 0.155-1.044 0.409-2.37 0.409s-2.159-0.254-2.37-0.409c0.056-0.875 1.129-1.594 2.37-1.594 1.256 0 2.314 0.72 2.37 1.594zM23.224 11.838l-0.931-1.27-2.907 3.104c-2.046-0.226-3.64-1.947-3.64-4.063 0-2.258 1.834-4.078 4.078-4.078 2.258 0 4.078 1.834 4.078 4.078-0.014 0.804-0.24 1.58-0.677 2.229zM22.547 28.868c-1.171-0.578-2.949-0.917-4.825-1.298-0.663-0.127-1.34-0.268-2.004-0.409-0.607-0.141-1.199-0.254-1.735-0.339-0.847-0.155-1.862-0.353-2.187-0.55 0.113-0.169 0.451-0.578 1.679-1.411 0.437-0.296 1.764-1.199 1.411-2.356-0.325-1.072-2.032-1.735-5.503-2.116-0.31-0.028-0.635-0.056-0.988-0.099-0.169-0.522-0.423-1.256-0.776-2.314l-0.593-1.735-0.593 1.735c-0.198 0.578-0.353 1.044-0.494 1.453-0.155-0.494-0.437-1.312-0.917-2.723l-0.578-1.75-0.593 1.735c-0.818 2.37-1.044 3.076-1.115 3.344h-0.72c-0.254-0.931-0.423-1.877-0.494-2.836l1.439-0.042 2.37-4.162h1.637l1.425 4.67 3.344-0.861 0.762 0.423-1.623 2.046 0.988 0.776 3.471-4.388 0.409 0.24 1.877 0.691 0.818-0.423c-0.155 0.325-0.254 0.691-0.254 1.058 0 0.381 0.24 1.171 2.018 1.467 0.564 0.099 0.988 0.578 0.988 1.157v2.032c-0.254-0.169-0.536-0.325-0.847-0.437h0.014c-0.691-0.226-1.326-0.55-1.538-1.213-0.155 0.55-0.593 0.861-1.157 1.072-1.453 0.395-2.497 1.481-2.497 2.78 0 0.466 0.353 1.58 3.626 1.58 3.287 0 3.626-1.115 3.626-1.58v-2.455c0.226 0.085 0.466 0.141 0.762 0.183 0.564 0.099 0.988 0.578 0.988 1.157v1.411c0 0.325 0.24 0.621 0.564 0.663 0.381 0.028 0.691-0.268 0.691-0.621v-1.439c0-0.578 0.423-1.058 0.988-1.157 1.778-0.296 2.018-1.072 2.018-1.467 0-1.044-0.691-1.947-1.707-2.469h0.014c-0.014 0-0.028-0.014-0.056-0.014-0.169-0.099-0.381-0.155-0.564-0.226-0.282-0.141-0.536-0.325-0.705-0.564-0.085-1.115-0.903-2.046-2.088-2.497h-0.014c-0.085-0.028-0.155-0.042-0.24-0.085-0.593-0.226-1.115-0.55-1.284-1.129-0.183 0.635-0.734 0.974-1.439 1.185-0.042 0.014-0.113 0.028-0.155 0.056l1.947-2.060 1.171 1.58 0.931-0.748h0.24l2.032 2.794 1.439-0.254 2.116 2.399c-0.691 4.571-3.541 8.437-7.52 10.54zM6.617 21.39l0.423-1.27 0.423 1.27c-0.268 0.085-0.564 0.085-0.847 0zM4.035 20.064c0.099-0.282 0.24-0.734 0.409-1.213 0.169 0.494 0.325 0.959 0.409 1.242-0.282-0.014-0.55-0.028-0.818-0.028zM15.859 30.519c-6.109 0-11.344-3.824-13.432-9.227 0.409 0 0.847 0.014 1.284 0.014 0.24 0.071 0.48 0.099 0.72 0.099 0.198 0 0.409-0.014 0.578-0.056 0.099 0 0.198 0 0.296 0.014-0.028 0.099-0.028 0.127-0.028 0.155 0 0.691 0.734 1.185 1.75 1.185 0.988 0 1.707-0.466 1.735-1.129 0.155 0.014 0.325 0.028 0.48 0.042 4.162 0.466 4.444 1.213 4.444 1.242 0.014 0.056-0.085 0.395-0.917 0.959-1.764 1.213-2.37 1.947-2.215 2.723 0.183 0.917 1.397 1.157 3.217 1.496 0.522 0.099 1.101 0.198 1.693 0.339 0.663 0.141 1.354 0.282 2.032 0.423 1.213 0.254 2.469 0.494 3.471 0.804-1.637 0.607-3.372 0.917-5.108 0.917zM15.859 0.508c-8.607 0-15.633 7.026-15.633 15.633s7.012 15.633 15.633 15.633 15.633-7.012 15.633-15.633-7.026-15.633-15.633-15.633z"></path>
</svg>
