<!-- Generated by IcoMoon.io -->
<svg version="1.1" xmlns="http://www.w3.org/2000/svg" width="32" height="32" viewBox="0 0 32 32">
<title>MCO</title>
<path d="M15.955 0l-13.841 8v16l13.841 8 13.93-8v-16l-13.93-8zM28.611 23.265l-12.656 7.301-12.683-7.301v-14.602l12.683-7.292 12.656 7.292v14.602z"></path>
<path d="M12.401 16.448l-3.24-2.060-3.662 2.723 4.999 8.672h1.993l2.361-2.204v-1.093l-2.45-2.347zM19.51 16.448v3.691l-2.441 2.338 0.009 1.111 2.361 2.168h1.966l4.964-8.645-3.653-2.75zM9.205 12.488l13.508 0.009-1.319-5.563h-10.932z"></path>
<path d="M18.334 16.448l1.167-3.109h-7.091l1.194 3.109-0.368 3.467 5.439-0.009z"></path>
</svg>
