<!-- Generated by IcoMoon.io -->
<svg version="1.1" xmlns="http://www.w3.org/2000/svg" width="32" height="32" viewBox="0 0 32 32">
<title>MDA</title>
<path d="M18.469 32.028c-1.27 0-2.54 0-3.81 0 0.014-1.086 0.014-2.187 0.042-3.273 0-0.339-0.198-0.353-0.451-0.353-0.931 0-1.862 0-2.808 0-1.199 0-1.185 0-1.199-1.185 0-0.409 0.099-0.55 0.536-0.55 1.185 0.028 2.356 0 3.541 0.014 0.466 0.014 0.466-0.254 0.466-0.578 0-0.31 0.014-0.593-0.451-0.578-0.903 0.028-1.792 0.014-2.695 0-1.439 0-1.425 0-1.383-1.425 0.014-0.339 0.141-0.423 0.451-0.423 0.847 0.014 1.693 0 2.54 0 1.496 0 1.496 0 1.481-1.51 0-0.339-0.099-0.48-0.451-0.55-2.511-0.508-4.501-1.834-6.053-3.852-1.298-1.679-1.933-3.598-2.102-5.7-0.155-2.116 0.085-4.162 1.058-6.053 2.314-4.571 6.787-6.265 11.189-5.531 4.67 0.79 7.365 3.739 8.48 8.24 0.141 0.593 0.198 1.213 0.296 1.806 0 0.395 0 0.776 0 1.157-0.085 0.494-0.141 1.002-0.24 1.496-0.79 4.176-3.189 6.97-7.252 8.268-1.227 0.395-1.227 0.353-1.227 1.693 0 0.395 0.141 0.522 0.522 0.522 0.861-0.014 1.721 0 2.596 0 1.397 0 1.383 0 1.355 1.369 0 0.367-0.127 0.494-0.494 0.48-1.199-0.014-2.399 0.014-3.598-0.014-0.466-0.014-0.466 0.254-0.466 0.578s0 0.593 0.466 0.578c0.974-0.028 1.933-0.014 2.907-0.014 1.199 0 1.185 0 1.185 1.213 0 0.395-0.127 0.522-0.522 0.508-1.143-0.014-2.286-0.014-3.443 0-0.254 0-0.508-0.028-0.508 0.353 0.028 1.129 0.028 2.215 0.042 3.316zM21.376 11.118c-0.014-1.256-0.254-2.469-0.959-3.556-0.959-1.453-2.272-2.314-4.049-2.229-1.891 0.099-3.217 1.115-3.937 2.822-0.339 0.776-0.508 1.651-0.578 2.497-0.113 1.439 0.155 2.836 0.974 4.078 1.961 2.963 6.166 2.751 7.817-0.395 0.508-1.002 0.705-2.074 0.734-3.217z"></path>
</svg>
