<?xml version="1.0" encoding="utf-8"?>
<!-- Generator: Adobe Illustrator 22.1.0, SVG Export Plug-In . SVG Version: 6.00 Build 0)  -->
<svg version="1.1" id="Layer_1" xmlns="http://www.w3.org/2000/svg" xmlns:xlink="http://www.w3.org/1999/xlink" x="0px" y="0px"
	 viewBox="0 0 226.8 226.8" style="enable-background:new 0 0 226.8 226.8;" xml:space="preserve">
<g>
	<g>
		<path d="M130.9,227c-9,0-18,0-27,0c0.1-7.7,0.1-15.5,0.3-23.2c0-2.4-1.4-2.5-3.2-2.5c-6.6,0-13.2,0-19.9,0c-8.5,0-8.4,0-8.5-8.4
			c0-2.9,0.7-3.9,3.8-3.9c8.4,0.2,16.7,0,25.1,0.1c3.3,0.1,3.3-1.8,3.3-4.1c0-2.2,0.1-4.2-3.2-4.1c-6.4,0.2-12.7,0.1-19.1,0
			c-10.2,0-10.1,0-9.8-10.1c0.1-2.4,1-3,3.2-3c6,0.1,12,0,18,0c10.6,0,10.6,0,10.5-10.7c0-2.4-0.7-3.4-3.2-3.9
			c-17.8-3.6-31.9-13-42.9-27.3c-9.2-11.9-13.7-25.5-14.9-40.4c-1.1-15,0.6-29.5,7.5-42.9C67.3,10.2,99-1.8,130.2,3.4
			c33.1,5.6,52.2,26.5,60.1,58.4c1,4.2,1.4,8.6,2.1,12.8c0,2.8,0,5.5,0,8.2c-0.6,3.5-1,7.1-1.7,10.6c-5.6,29.6-22.6,49.4-51.4,58.6
			c-8.7,2.8-8.7,2.5-8.7,12c0,2.8,1,3.7,3.7,3.7c6.1-0.1,12.2,0,18.4,0c9.9,0,9.8,0,9.6,9.7c0,2.6-0.9,3.5-3.5,3.4
			c-8.5-0.1-17,0.1-25.5-0.1c-3.3-0.1-3.3,1.8-3.3,4.1c0,2.3,0,4.2,3.3,4.1c6.9-0.2,13.7-0.1,20.6-0.1c8.5,0,8.4,0,8.4,8.6
			c0,2.8-0.9,3.7-3.7,3.6c-8.1-0.1-16.2-0.1-24.4,0c-1.8,0-3.6-0.2-3.6,2.5C130.8,211.5,130.8,219.2,130.9,227z M151.5,78.8
			c-0.1-8.9-1.8-17.5-6.8-25.2c-6.8-10.3-16.1-16.4-28.7-15.8c-13.4,0.7-22.8,7.9-27.9,20c-2.4,5.5-3.6,11.7-4.1,17.7
			c-0.8,10.2,1.1,20.1,6.9,28.9c13.9,21,43.7,19.5,55.4-2.8C149.9,94.5,151.3,86.9,151.5,78.8z"/>
	</g>
</g>
</svg>
