<?xml version="1.0" encoding="utf-8"?>
<!-- Generator: Adobe Illustrator 22.1.0, SVG Export Plug-In . SVG Version: 6.00 Build 0)  -->
<svg version="1.1" id="Layer_1" xmlns="http://www.w3.org/2000/svg" xmlns:xlink="http://www.w3.org/1999/xlink" x="0px" y="0px"
	 viewBox="0 0 250 250" style="enable-background:new 0 0 250 250;" xml:space="preserve">
<g>
	<circle cx="103.2" cy="100.7" r="18.8"/>
	<circle cx="149.3" cy="100.7" r="18.8"/>
	<circle cx="103.2" cy="146.8" r="18.8"/>
	<circle cx="149.3" cy="146.8" r="18.8"/>
	<circle cx="195.4" cy="100.7" r="13.7"/>
	<circle cx="195.4" cy="146.8" r="13.7"/>
	<circle cx="55.4" cy="100.7" r="13.7"/>
	<circle cx="55.4" cy="146.8" r="13.7"/>
	<circle cx="103.2" cy="192.9" r="13.7"/>
	<circle cx="149.3" cy="192.9" r="13.7"/>
	<circle cx="103.2" cy="54.6" r="13.7"/>
	<circle cx="149.3" cy="54.6" r="13.7"/>
	<circle cx="103.2" cy="8.5" r="8.5"/>
	<circle cx="149.3" cy="8.5" r="8.5"/>
	<circle cx="241.5" cy="100.7" r="8.5"/>
	<circle cx="241.5" cy="146.8" r="8.5"/>
	<circle cx="9.3" cy="100.7" r="8.5"/>
	<circle cx="9.3" cy="146.8" r="8.5"/>
	<circle cx="103.2" cy="240.7" r="8.5"/>
	<circle cx="149.3" cy="240.7" r="8.5"/>
</g>
</svg>
