<!-- Generated by IcoMoon.io -->
<svg version="1.1" xmlns="http://www.w3.org/2000/svg" width="32" height="32" viewBox="0 0 32 32">
<title>MDS</title>
<path d="M15.616 12.89c0 1.329-1.077 2.406-2.406 2.406s-2.406-1.077-2.406-2.406c0-1.329 1.077-2.406 2.406-2.406s2.406 1.077 2.406 2.406z"></path>
<path d="M21.517 12.89c0 1.329-1.077 2.406-2.406 2.406s-2.406-1.077-2.406-2.406c0-1.329 1.077-2.406 2.406-2.406s2.406 1.077 2.406 2.406z"></path>
<path d="M15.616 18.79c0 1.329-1.077 2.406-2.406 2.406s-2.406-1.077-2.406-2.406c0-1.329 1.077-2.406 2.406-2.406s2.406 1.077 2.406 2.406z"></path>
<path d="M21.517 18.79c0 1.329-1.077 2.406-2.406 2.406s-2.406-1.077-2.406-2.406c0-1.329 1.077-2.406 2.406-2.406s2.406 1.077 2.406 2.406z"></path>
<path d="M26.765 12.89c0 0.969-0.785 1.754-1.754 1.754s-1.754-0.785-1.754-1.754c0-0.969 0.785-1.754 1.754-1.754s1.754 0.785 1.754 1.754z"></path>
<path d="M26.765 18.79c0 0.968-0.785 1.754-1.754 1.754s-1.754-0.785-1.754-1.754c0-0.968 0.785-1.754 1.754-1.754s1.754 0.785 1.754 1.754z"></path>
<path d="M8.845 12.89c0 0.969-0.785 1.754-1.754 1.754s-1.754-0.785-1.754-1.754c0-0.969 0.785-1.754 1.754-1.754s1.754 0.785 1.754 1.754z"></path>
<path d="M8.845 18.79c0 0.968-0.785 1.754-1.754 1.754s-1.754-0.785-1.754-1.754c0-0.968 0.785-1.754 1.754-1.754s1.754 0.785 1.754 1.754z"></path>
<path d="M14.963 24.691c0 0.968-0.785 1.754-1.754 1.754s-1.754-0.785-1.754-1.754c0-0.968 0.785-1.754 1.754-1.754s1.754 0.785 1.754 1.754z"></path>
<path d="M20.864 24.691c0 0.968-0.785 1.754-1.754 1.754s-1.754-0.785-1.754-1.754c0-0.968 0.785-1.754 1.754-1.754s1.754 0.785 1.754 1.754z"></path>
<path d="M14.963 6.989c0 0.968-0.785 1.754-1.754 1.754s-1.754-0.785-1.754-1.754c0-0.968 0.785-1.754 1.754-1.754s1.754 0.785 1.754 1.754z"></path>
<path d="M20.864 6.989c0 0.968-0.785 1.754-1.754 1.754s-1.754-0.785-1.754-1.754c0-0.968 0.785-1.754 1.754-1.754s1.754 0.785 1.754 1.754z"></path>
<path d="M14.298 1.088c0 0.601-0.487 1.088-1.088 1.088s-1.088-0.487-1.088-1.088c0-0.601 0.487-1.088 1.088-1.088s1.088 0.487 1.088 1.088z"></path>
<path d="M20.198 1.088c0 0.601-0.487 1.088-1.088 1.088s-1.088-0.487-1.088-1.088c0-0.601 0.487-1.088 1.088-1.088s1.088 0.487 1.088 1.088z"></path>
<path d="M32 12.89c0 0.601-0.487 1.088-1.088 1.088s-1.088-0.487-1.088-1.088c0-0.601 0.487-1.088 1.088-1.088s1.088 0.487 1.088 1.088z"></path>
<path d="M32 18.79c0 0.601-0.487 1.088-1.088 1.088s-1.088-0.487-1.088-1.088c0-0.601 0.487-1.088 1.088-1.088s1.088 0.487 1.088 1.088z"></path>
<path d="M2.278 12.89c0 0.601-0.487 1.088-1.088 1.088s-1.088-0.487-1.088-1.088c0-0.601 0.487-1.088 1.088-1.088s1.088 0.487 1.088 1.088z"></path>
<path d="M2.278 18.79c0 0.601-0.487 1.088-1.088 1.088s-1.088-0.487-1.088-1.088c0-0.601 0.487-1.088 1.088-1.088s1.088 0.487 1.088 1.088z"></path>
<path d="M14.298 30.81c0 0.601-0.487 1.088-1.088 1.088s-1.088-0.487-1.088-1.088c0-0.601 0.487-1.088 1.088-1.088s1.088 0.487 1.088 1.088z"></path>
<path d="M20.198 30.81c0 0.601-0.487 1.088-1.088 1.088s-1.088-0.487-1.088-1.088c0-0.601 0.487-1.088 1.088-1.088s1.088 0.487 1.088 1.088z"></path>
</svg>
