<?xml version="1.0" encoding="utf-8"?>
<!-- Generator: Adobe Illustrator 22.1.0, SVG Export Plug-In . SVG Version: 6.00 Build 0)  -->
<svg version="1.1" id="Layer_1" xmlns="http://www.w3.org/2000/svg" xmlns:xlink="http://www.w3.org/1999/xlink" x="0px" y="0px"
	 viewBox="0 0 226.8 226.8" style="enable-background:new 0 0 226.8 226.8;" xml:space="preserve">
<g>
	<path d="M226,60.3c-0.3,6.1-2.9,11.6-8.9,15.4c-1.2,0.8-2.4,2.6-2.4,4c-0.1,21.3,0,42.6-0.1,63.9c0,3.2,0.7,5.3,3.5,7.4
		c7,5,9.4,12.1,7.3,20.4c-2,8.1-7.8,12.4-15.6,13.8c-5.5,1-10.8-0.4-14.9-4.4c-1.9-1.8-3.3-1.9-5.5-0.6
		c-18.5,10.8-37,21.5-55.5,32.2c-6,3.4-11.9,6.9-18,10.1c-1.3,0.7-3.5,0.6-4.7-0.1c-23.9-13.6-47.7-27.2-71.4-41.1
		c-3.4-2-5.1-2.1-8.2,0.6c-6.7,5.8-17.8,4.9-24.5-1.3c-6.7-6.2-8-16.7-2.7-24.3c1.4-2,3.1-4,5.1-5.2c2.6-1.5,3.6-3.5,3.6-6.2
		c0-21.8,0.1-43.5-0.1-65.3c0-1.6-1.7-3.7-3.2-4.8C-2,66.3-1.8,50.3,10.1,42.5c6.8-4.4,16.2-3.8,22.1,1.8c1.9,1.8,3.5,2,5.6,0.8
		c6.1-3.4,12.2-6.8,18.3-10.3c15-8.6,30-17.3,44.9-26c3.1-1.8,6.3-3.7,9.3-5.6c2.1-1.4,4-1.3,6.2,0c23.3,13.6,46.7,27.2,70.1,40.7
		c3.1,1.8,5.8,3.2,9.7,0.1c5.7-4.4,12.6-4.9,19.2-1.5C222.3,46,225.9,51.8,226,60.3z M116.5,215.8c2-1,3.2-1.6,4.4-2.3
		c8.5-4.9,17-9.9,25.5-14.8c13.3-7.7,26.7-15.5,40-23.2c1.6-0.9,2.8-1.7,2.3-4.1c-2.2-9.4,0.7-16,8.5-21.5c1.3-0.9,2.5-2.9,2.5-4.4
		c0.2-21.8,0.1-43.5,0.1-65.3c0-4.2-2.6-5.7-6.3-3.6c-19.6,11.3-39.3,22.7-58.9,34.1c-1.1,0.6-2,2.3-2.2,3.6
		c-1.6,10.1-8.6,16.9-17.8,17.2c-10.7,0.3-18.1-5.5-20-16.2c-0.5-2.9-1.9-4.6-4.3-5.9C71.6,98.7,52.8,87.8,33.9,77
		c-5-2.9-6.9-1.9-6.9,3.8c0,21.4,0,42.8-0.1,64.2c0,2.6,0.8,4.3,3.1,5.7c6.3,3.6,9.9,9.6,8.6,16.4c-1.3,7.2,2.4,9.5,7.3,11.9
		c0.6,0.3,1.3,0.6,1.9,1c17,9.8,34,19.7,51,29.5c3.6,2.1,7.2,4.1,11.4,6.4c0.1-2.4,0.3-3.8,0.3-5.3c0-17.3,0-34.6,0-52
		c0-2.3-0.4-5.5,2.7-5.6c3.6-0.1,2.8,3.3,2.9,5.6c0.1,17.3,0,34.6,0,52C116.3,212,116.4,213.5,116.5,215.8z M110.2,10.2
		c-1.1,0.4-1.8,0.5-2.3,0.9C92.9,19.6,78,28.3,63,36.9c-6.9,4-13.8,7.9-20.7,11.8c-3,1.7-4.7,3.7-3.4,7.3c0.2,0.6,0.3,1.4,0.1,2.1
		c-0.9,4.5,1.9,6.5,5.2,8.4c9.1,5.1,18.1,10.2,27.1,15.4c8.2,4.7,16.3,9.6,24.5,14.4c2.6,1.6,4.8,2.2,7.9,0.2
		c6.3-4.1,13.2-3.9,19.6,0.1c2.5,1.6,4.3,1.5,6.7,0.1c10-5.8,20.1-11.5,30.1-17.2c7.8-4.5,15.6-9,23.5-13.3c2.8-1.5,4.6-3.3,4.3-6.9
		c-0.1-1.7,0.8-3.5,0.7-5.2c-0.1-1.3-0.6-3-1.5-3.7c-4-2.7-8.1-5.1-12.3-7.5c-17.6-10.1-35.3-20.3-52.9-30.4
		c-1.6-0.9-3.2-1.6-5.4-2.7c-0.1,2.2-0.3,3.7-0.3,5.2c0,17.1,0,34.2,0,51.2c0,1.2,0.2,2.4-0.2,3.5c-0.3,0.9-1.4,2.3-2.1,2.3
		c-1,0-2.4-1-2.8-1.9c-0.6-1.3-0.5-3-0.5-4.5c0-17,0-33.9,0-50.9C110.6,13.4,110.4,11.9,110.2,10.2z"/>
</g>
</svg>
