<!-- Generated by IcoMoon.io -->
<svg version="1.1" xmlns="http://www.w3.org/2000/svg" width="32" height="32" viewBox="0 0 32 32">
<title>MDT</title>
<path d="M31.887 8.508c-0.042 0.861-0.409 1.637-1.256 2.173-0.169 0.113-0.339 0.367-0.339 0.564-0.014 3.005 0 6.011-0.014 9.016 0 0.451 0.099 0.748 0.494 1.044 0.988 0.705 1.326 1.707 1.030 2.878-0.282 1.143-1.101 1.75-2.201 1.947-0.776 0.141-1.524-0.056-2.102-0.621-0.268-0.254-0.466-0.268-0.776-0.085-2.61 1.524-5.22 3.034-7.831 4.543-0.847 0.48-1.679 0.974-2.54 1.425-0.183 0.099-0.494 0.085-0.663-0.014-3.372-1.919-6.73-3.838-10.074-5.799-0.48-0.282-0.72-0.296-1.157 0.085-0.945 0.818-2.511 0.691-3.457-0.183s-1.129-2.356-0.381-3.429c0.198-0.282 0.437-0.564 0.72-0.734 0.367-0.212 0.508-0.494 0.508-0.875 0-3.076 0.014-6.138-0.014-9.213 0-0.226-0.24-0.522-0.452-0.677-1.665-1.199-1.637-3.457 0.042-4.557 0.959-0.621 2.286-0.536 3.118 0.254 0.268 0.254 0.494 0.282 0.79 0.113 0.861-0.48 1.721-0.959 2.582-1.453 2.116-1.213 4.233-2.441 6.335-3.668 0.437-0.254 0.889-0.522 1.312-0.79 0.296-0.198 0.564-0.183 0.875 0 3.287 1.919 6.589 3.838 9.891 5.742 0.437 0.254 0.818 0.452 1.369 0.014 0.804-0.621 1.778-0.691 2.709-0.212 0.959 0.494 1.467 1.312 1.481 2.511zM16.437 30.448c0.282-0.141 0.451-0.226 0.621-0.325 1.199-0.691 2.399-1.397 3.598-2.088 1.877-1.086 3.767-2.187 5.644-3.273 0.226-0.127 0.395-0.24 0.325-0.578-0.31-1.326 0.099-2.258 1.199-3.034 0.183-0.127 0.353-0.409 0.353-0.621 0.028-3.076 0.014-6.138 0.014-9.213 0-0.593-0.367-0.804-0.889-0.508-2.765 1.594-5.545 3.203-8.31 4.811-0.155 0.085-0.282 0.325-0.31 0.508-0.226 1.425-1.213 2.384-2.511 2.427-1.51 0.042-2.554-0.776-2.822-2.286-0.071-0.409-0.268-0.649-0.607-0.832-2.638-1.51-5.291-3.048-7.958-4.571-0.705-0.409-0.974-0.268-0.974 0.536 0 3.019 0 6.039-0.014 9.058 0 0.367 0.113 0.607 0.437 0.804 0.889 0.508 1.397 1.355 1.213 2.314-0.183 1.016 0.339 1.34 1.030 1.679 0.085 0.042 0.183 0.085 0.268 0.141 2.399 1.383 4.797 2.78 7.196 4.162 0.508 0.296 1.016 0.578 1.608 0.903 0.014-0.339 0.042-0.536 0.042-0.748 0-2.441 0-4.882 0-7.337 0-0.325-0.056-0.776 0.381-0.79 0.508-0.014 0.395 0.466 0.409 0.79 0.014 2.441 0 4.882 0 7.337 0.028 0.198 0.042 0.409 0.056 0.734zM15.549 1.439c-0.155 0.056-0.254 0.071-0.325 0.127-2.116 1.199-4.219 2.427-6.335 3.64-0.974 0.564-1.947 1.115-2.921 1.665-0.423 0.24-0.663 0.522-0.48 1.030 0.028 0.085 0.042 0.198 0.014 0.296-0.127 0.635 0.268 0.917 0.734 1.185 1.284 0.72 2.554 1.439 3.824 2.173 1.157 0.663 2.3 1.354 3.457 2.032 0.367 0.226 0.677 0.31 1.115 0.028 0.889-0.578 1.862-0.55 2.765 0.014 0.353 0.226 0.607 0.212 0.945 0.014 1.411-0.818 2.836-1.623 4.247-2.427 1.101-0.635 2.201-1.27 3.316-1.877 0.395-0.212 0.649-0.466 0.607-0.974-0.014-0.24 0.113-0.494 0.099-0.734-0.014-0.183-0.085-0.423-0.212-0.522-0.564-0.381-1.143-0.72-1.735-1.058-2.483-1.425-4.981-2.864-7.464-4.289-0.226-0.127-0.451-0.226-0.762-0.381-0.014 0.31-0.042 0.522-0.042 0.734 0 2.413 0 4.825 0 7.224 0 0.169 0.028 0.339-0.028 0.494-0.042 0.127-0.198 0.325-0.296 0.325-0.141 0-0.339-0.141-0.395-0.268-0.085-0.183-0.071-0.423-0.071-0.635 0-2.399 0-4.783 0-7.182 0-0.183-0.028-0.395-0.056-0.635z"></path>
</svg>
