<?xml version="1.0" encoding="utf-8"?>
<!-- Generator: Adobe Illustrator 22.1.0, SVG Export Plug-In . SVG Version: 6.00 Build 0)  -->
<svg version="1.1" id="Layer_1" xmlns="http://www.w3.org/2000/svg" xmlns:xlink="http://www.w3.org/1999/xlink" x="0px" y="0px"
	 viewBox="0 0 250 250" style="enable-background:new 0 0 250 250;" xml:space="preserve">
<g>
	<path d="M249,154.4c0,31.5,0,63.1,0,94.6c-39.8,0-79.7,0-119.5,0c0.1-2.1,0.3-4.1,0.3-6.2c0-2.9,1.1-4.7,4.2-5
		c2.1-0.2,4.1-0.7,6.1-1.3c17.6-4.5,31-14.5,39.4-30.8c5.8-11.2,8.9-23.2,10.2-35.7c0.1-1.1-0.3-2.3-0.5-4.1
		c-12.5,1.2-24.6,2.4-36.7,3.6c-2.6,0.3-3.3,2-3.8,4.2c-0.7,3.2-1.1,6.6-2.3,9.6c-2.8,7.2-7.4,12.7-15.3,15
		c-1.8-5.9-1.6-51,0.4-56.7c2.5,1.6,5.1,2.8,7,4.7c2.6,2.6,5.1,2.9,8.4,1.9c9.9-3,19.9-5.7,29.9-8.5c1.5-0.4,2.9-1.2,5.2-2.2
		c-11.2-21.3-28.8-32.5-52.2-36.2c0-4.6,0-8.8,0-12.9c0-2.4-1-4-3.7-4c-2.8,0-3.6,1.6-3.7,4c-0.1,2.7,0,5.4-0.1,8.1
		c-0.1,2.3,0.1,5-3.2,4.9c-2.9-0.1-2.8-2.6-2.8-4.6c-0.1-2.9-0.1-5.8-0.2-8.7c-0.1-2.5-1.5-3.7-4-3.6c-2.4,0.1-3.1,1.7-3.2,3.7
		c-0.1,2.7-0.1,5.4-0.1,8.1c-0.1,6.1-0.2,5.9-5.7,7.8c-5.1,1.7-10.3,3.4-15,6c-23,12.8-38.9,38.5-34.7,70.1
		c3.5,26.3,22.1,48.7,47.5,56c8.3,2.4,8.3,2.4,7.9,10.9c0,0.6-0.2,1.2-0.3,1.8c-36.1,0-72.2,0-108.3,0c0-39,0-78,0-117
		c1-1.3,2.3-2.4,3.1-3.8c8.4-15.5,17.1-30.8,25-46.5c12.6-25,24.8-50.1,37.1-75.3c1-2,1.4-4.2,2.1-6.4c3.7,0,7.5,0,11.2,0
		c1.1,2.2,2.3,4.4,3.4,6.6c11.1,22.6,22.2,45.3,33.4,67.9c0.9,1.9,2.1,3.7,3.9,6.7c13.8-27.9,27-54.6,40.2-81.2c3.3,0,6.6,0,10,0
		c18.7,37.9,37.4,75.7,56,113.6c6,12.2,12,24.6,18,36.8C244.5,152.5,245,156,249,154.4z"/>
	<path d="M115.8,249c0.2-2.4,0.1-5,0.6-7.3c0.2-1,1.8-2.3,2.8-2.3c1,0,2.7,1.4,2.8,2.3c0.4,2.4,0.1,4.9,0,7.3
		C119.9,249,117.9,249,115.8,249z"/>
	<path d="M108.2,144.3c0,17.4,0,34.6,0,51.8c-8.3-1.6-15-12-15.7-24.5C91.7,159.5,98.4,147.5,108.2,144.3z"/>
	<path d="M116.2,170.6c0-7,0-14.1,0-21.1c0-0.8-0.1-1.7,0-2.5c0.4-2.4-1-6.2,3.2-6.1c3.6,0.1,2.8,3.5,2.8,5.8
		c0.1,9.7,0.1,19.5,0.1,29.2c0,6,0.1,12-0.1,18c-0.1,2.4,1.1,6.1-3.2,6c-3.7-0.1-2.9-3.5-3-5.8C116,186.3,116.1,178.4,116.2,170.6
		C116.1,170.6,116.1,170.6,116.2,170.6z"/>
</g>
</svg>
