<!-- Generated by IcoMoon.io -->
<svg version="1.1" xmlns="http://www.w3.org/2000/svg" width="32" height="32" viewBox="0 0 32 32">
<title>MED</title>
<path d="M31.872 19.763c0 4.032 0 8.077 0 12.109-5.094 0-10.202 0-15.296 0 0.013-0.269 0.038-0.525 0.038-0.794 0-0.371 0.141-0.602 0.538-0.64 0.269-0.026 0.525-0.090 0.781-0.166 2.253-0.576 3.968-1.856 5.043-3.942 0.742-1.434 1.139-2.97 1.306-4.57 0.013-0.141-0.038-0.294-0.064-0.525-1.6 0.154-3.149 0.307-4.698 0.461-0.333 0.038-0.422 0.256-0.486 0.538-0.090 0.41-0.141 0.845-0.294 1.229-0.358 0.922-0.947 1.626-1.958 1.92-0.23-0.755-0.205-6.528 0.051-7.258 0.32 0.205 0.653 0.358 0.896 0.602 0.333 0.333 0.653 0.371 1.075 0.243 1.267-0.384 2.547-0.73 3.827-1.088 0.192-0.051 0.371-0.154 0.666-0.282-1.434-2.726-3.686-4.16-6.682-4.634 0-0.589 0-1.126 0-1.651 0-0.307-0.128-0.512-0.474-0.512-0.358 0-0.461 0.205-0.474 0.512-0.013 0.346 0 0.691-0.013 1.037-0.013 0.294 0.013 0.64-0.41 0.627-0.371-0.013-0.358-0.333-0.358-0.589-0.013-0.371-0.013-0.742-0.026-1.114-0.013-0.32-0.192-0.474-0.512-0.461-0.307 0.013-0.397 0.218-0.41 0.474-0.013 0.346-0.013 0.691-0.013 1.037-0.013 0.781-0.026 0.755-0.73 0.998-0.653 0.218-1.318 0.435-1.92 0.768-2.944 1.638-4.979 4.928-4.442 8.973 0.448 3.366 2.829 6.234 6.080 7.168 1.062 0.307 1.062 0.307 1.011 1.395 0 0.077-0.026 0.154-0.038 0.23-4.621 0-9.242 0-13.862 0 0-4.992 0-9.984 0-14.976 0.128-0.166 0.294-0.307 0.397-0.486 1.075-1.984 2.189-3.942 3.2-5.952 1.613-3.2 3.174-6.413 4.749-9.638 0.128-0.256 0.179-0.538 0.269-0.819 0.474 0 0.96 0 1.434 0 0.141 0.282 0.294 0.563 0.435 0.845 1.421 2.893 2.842 5.798 4.275 8.691 0.115 0.243 0.269 0.474 0.499 0.858 1.766-3.571 3.456-6.989 5.146-10.394 0.422 0 0.845 0 1.28 0 2.394 4.851 4.787 9.69 7.168 14.541 0.768 1.562 1.536 3.149 2.304 4.71 0.115 0.282 0.179 0.73 0.691 0.525z"></path>
<path d="M14.822 31.872c0.026-0.307 0.013-0.64 0.077-0.934 0.026-0.128 0.23-0.294 0.358-0.294s0.346 0.179 0.358 0.294c0.051 0.307 0.013 0.627 0 0.934-0.269 0-0.525 0-0.794 0z"></path>
<path d="M13.85 18.47c0 2.227 0 4.429 0 6.63-1.062-0.205-1.92-1.536-2.010-3.136-0.102-1.549 0.755-3.085 2.010-3.494z"></path>
<path d="M14.874 21.837c0-0.896 0-1.805 0-2.701 0-0.102-0.013-0.218 0-0.32 0.051-0.307-0.128-0.794 0.41-0.781 0.461 0.013 0.358 0.448 0.358 0.742 0.013 1.242 0.013 2.496 0.013 3.738 0 0.768 0.013 1.536-0.013 2.304-0.013 0.307 0.141 0.781-0.41 0.768-0.474-0.013-0.371-0.448-0.384-0.742 0-0.998 0.013-2.010 0.026-3.008-0.013 0-0.013 0 0 0z"></path>
</svg>
