<?xml version="1.0" encoding="utf-8"?>
<!-- Generator: Adobe Illustrator 22.1.0, SVG Export Plug-In . SVG Version: 6.00 Build 0)  -->
<svg version="1.1" id="Layer_1" xmlns="http://www.w3.org/2000/svg" xmlns:xlink="http://www.w3.org/1999/xlink" x="0px" y="0px"
	 viewBox="0 0 226.8 226.8" style="enable-background:new 0 0 226.8 226.8;" xml:space="preserve">
<g>
	<path d="M154.3,152c-1.9-4.8-3.9-9.6-5.8-14.4c-1.3-3.3-2.6-6.7-4.1-10c-1-2.3-1.8-4.7-3.8-6.4c-0.9-0.7-2-1.4-3.2-1.7
		c-3-0.8-5.6,0.3-7.7,2.5c-1.4,1.5-2.1,3.3-2.8,5.2c-2.2,6-4.5,11.9-6.7,17.8c-1.8,4.7-3.5,9.4-5.3,14.1c-0.4,1-0.8,1.9-1.4,2.9
		c-0.4-1.6-0.9-3.1-1.2-4.7c-0.9-3.6-1.8-7.2-2.7-10.7c-0.9-3.9-1.8-7.8-2.7-11.7c-1.1-4.5-2.2-8.9-3.3-13.4
		c-0.9-3.8-1.7-7.6-2.9-11.3c-1.3-4-5.9-6.6-9.9-5.3c-2.6,0.9-4.5,2.8-5.3,5.6c-1.4,4.7-2.9,9.3-4.3,14c-1.4,4.5-2.7,9.1-4.1,13.6
		c-1.4,4.8-2.7,9.6-4.1,14.4c-0.3,0.9-0.6,1.3-1.7,1.3c-3.6-0.1-7.3,0-10.9,0c-14.2,0.1-28.4,0.1-42.6,0.2c-1.1,0-1.6-0.3-2.1-1.3
		c-1.4-3-3.1-5.9-4.5-8.9c-1.4-3-2.7-6.1-3.8-9.2c-1.6-4.9-3.1-9.9-4.4-14.9c-0.8-3.1-1.2-6.2-1.7-9.3c-0.5-3.1-0.9-6.1-1.1-9.2
		C0,97.6,0,94,0,90.4c0-2.7,0-5.4,0.3-8.1c0.4-3.7,1-7.3,1.5-11c0.6-4.5,1.9-8.9,3.4-13.3c0.9-2.7,2.1-5.4,3.2-8
		c1.9-4.5,4.4-8.8,7.2-12.8c1.8-2.6,3.8-5.1,5.9-7.6c1.4-1.8,2.9-3.5,4.6-5c4.6-4.3,9.6-8.1,15.3-10.7c3.9-1.8,8-3.1,12.3-3.9
		c4.3-0.8,8.6-1.1,12.9-0.8c4.8,0.2,9.4,1.1,14,2.6c5.4,1.7,10.4,4.2,15,7.4c2.2,1.5,4.2,3.3,6.2,5c1.7,1.5,3.4,3,4.9,4.7
		c2.1,2.4,4.1,5,6.1,7.6c0.4,0.6,0.6,0.6,1.1,0c1.6-2.1,3.3-4.2,5.1-6.3c1.4-1.6,2.9-3.2,4.4-4.7c3.5-3.3,7.3-6.2,11.4-8.7
		c3.3-2,6.8-3.7,10.5-4.8c3-1,6.2-1.6,9.3-2.2c3.7-0.8,7.5-0.8,11.3-0.6c4.2,0.2,8.4,0.9,12.4,2.1c3.4,1,6.7,2.3,9.8,4.1
		c2.7,1.6,5.3,3.4,7.8,5.3c2.1,1.6,4.1,3.3,5.9,5.2c2.9,3.2,5.6,6.6,8.3,10c2.9,3.7,5.1,7.7,7.2,11.9c2.7,5.5,4.9,11.2,6.3,17.2
		c0.7,3.1,1.5,6.3,2,9.4c0.4,2.2,0.4,4.5,0.7,6.7c0.7,5.4,0.5,10.8,0.4,16.2c0,2.5-0.4,5-0.6,7.5c-0.2,2-0.4,4.1-0.7,6.1
		c-0.3,2.1-0.6,4.2-1.1,6.2c-1.2,4.8-2.4,9.6-3.8,14.3c-1.2,3.8-2.8,7.5-4.3,11.2c-1.3,3-2.8,5.9-4.3,8.8c-0.1,0.3-0.6,0.6-0.9,0.6
		c-18.8,0-37.5,0-56.3,0C154.5,152,154.4,152,154.3,152z M22,78.8c0.2,1.7,0.4,5.1,0.8,8.5c0.3,2.8,0.8,5.6,1.3,8.4
		c0.4,2.3,0.9,4.6,1.3,6.9c0.1,0.8,0.5,1,1.3,0.8c0.6-0.2,1.3-0.3,1.9-0.4c0.6-0.1,1.1-0.3,1.1-1.1c0.1-1.2,0.1-2.5,0.3-3.7
		c0.7-4,1.4-8,2.3-12c0.9-3.9,2.2-7.8,3.9-11.5c1.2-2.6,2.3-5.4,3.6-7.9c1.5-2.8,3.2-5.5,4.9-8.1c1.4-2.1,2.8-4.2,4.4-6.3
		c1.8-2.3,3.6-4.5,5.5-6.6c3.5-3.7,7.2-7.2,11.3-10.2c0.3-0.2,0.5-0.8,0.5-1.2c-0.1-1.2-0.3-2.3-0.4-3.5c0-0.6-0.3-0.8-0.8-0.7
		c-3.3,0.5-6.6,0.9-9.8,1.5c-2.1,0.4-4.2,1.1-6.2,2c-2.6,1.2-5.2,2.5-7.6,4c-1.8,1.2-3.4,2.7-5,4.2c-3.1,2.8-5.6,6.2-7.9,9.7
		c-1.2,2-2.2,4.1-3.1,6.2c-1,2.6-1.9,5.3-2.7,8.1C22.2,69.6,22.1,73.4,22,78.8z"/>
	<path d="M27.6,170.8c0.5,0,0.7-0.1,1-0.1c13.1-0.1,26.2-0.2,39.3-0.3c3.3,0,6.7-0.1,10-0.3c1.3-0.1,2.6-0.2,3.9-0.5
		c2.2-0.5,3.5-2.2,4.1-4.2c1.5-4.2,2.7-8.4,4-12.6c0.7-2.1,1.4-4.2,2-6.4c0.1-0.2,0.2-0.4,0.4-0.8c0.6,2.3,1.2,4.5,1.7,6.7
		c1,4.2,2.1,8.4,3.1,12.6c1,4.2,1.9,8.4,3,12.6c1.4,5.6,2.9,11.3,4.5,16.8c0.8,2.7,2.9,4.3,5.7,4.9c3.2,0.7,5.8-0.6,7.9-2.9
		c0.8-0.9,1.1-2.2,1.5-3.4c2.3-6,4.6-11.9,6.8-17.9c2-5.3,3.9-10.6,5.9-15.8c1-2.6,1.9-5.2,2.9-7.7c0.1-0.3,0.3-0.5,0.5-1
		c0.5,1.1,0.9,2,1.4,3c1.6,3.7,3.2,7.4,4.8,11c0.9,2.1,2.6,2.9,4.8,3.1c6.8,0.6,13.5,0.4,20.3,0.4c8.4,0.1,16.7,0.1,25.1,0.2
		c2.8,0,5.5,0.2,8.4,0.3c-1.3,1.6-2.4,3.2-3.7,4.6c-3.7,4.1-7.5,8.1-11.4,12c-2.5,2.5-5.2,4.7-8,6.9c-4.1,3.2-8.4,6.3-12.7,9.3
		c-2.4,1.7-5.1,3.2-7.7,4.5c-3.9,1.9-7.9,3.8-11.9,5.4c-4.7,1.8-9.6,3.2-14.6,4c-2.7,0.4-5.4,0.7-8.1,1.2c-5.7,1-11.3,0.2-17,0.4
		c-1.4,0-2.8-0.4-4.2-0.6c-1.7-0.3-3.5-0.6-5.2-0.9c-4.5-0.7-8.9-1.9-13.1-3.5c-4.1-1.6-8.3-3.2-12.2-5.2
		c-5.2-2.6-10.2-5.7-14.8-9.3c-3.3-2.5-6.7-4.9-9.9-7.7c-4.1-3.6-8-7.4-11.8-11.3C32,176.1,29.9,173.5,27.6,170.8z"/>
</g>
</svg>
