<!-- Generated by IcoMoon.io -->
<svg version="1.1" xmlns="http://www.w3.org/2000/svg" width="32" height="32" viewBox="0 0 32 32">
<title>MEDIC</title>
<path d="M21.771 21.446c-0.268-0.677-0.55-1.355-0.818-2.032-0.183-0.466-0.367-0.945-0.578-1.411-0.141-0.325-0.254-0.663-0.536-0.903-0.127-0.099-0.282-0.198-0.451-0.24-0.423-0.113-0.79 0.042-1.086 0.353-0.198 0.212-0.296 0.466-0.395 0.734-0.31 0.847-0.635 1.679-0.945 2.511-0.254 0.663-0.494 1.326-0.748 1.989-0.056 0.141-0.113 0.268-0.198 0.409-0.056-0.226-0.127-0.437-0.169-0.663-0.127-0.508-0.254-1.016-0.381-1.51-0.127-0.55-0.254-1.101-0.381-1.651-0.155-0.635-0.31-1.256-0.466-1.891-0.127-0.536-0.24-1.072-0.409-1.594-0.183-0.564-0.832-0.931-1.397-0.748-0.367 0.127-0.635 0.395-0.748 0.79-0.198 0.663-0.409 1.312-0.607 1.975-0.198 0.635-0.381 1.284-0.578 1.919-0.198 0.677-0.381 1.355-0.578 2.032-0.042 0.127-0.085 0.183-0.24 0.183-0.508-0.014-1.030 0-1.538 0-2.004 0.014-4.007 0.014-6.011 0.028-0.155 0-0.226-0.042-0.296-0.183-0.198-0.423-0.437-0.832-0.635-1.256s-0.381-0.861-0.536-1.298c-0.226-0.691-0.437-1.397-0.621-2.102-0.113-0.437-0.169-0.875-0.24-1.312s-0.127-0.861-0.155-1.298c-0.028-0.508-0.028-1.016-0.028-1.524 0-0.381 0-0.762 0.042-1.143 0.056-0.522 0.141-1.030 0.212-1.552 0.085-0.635 0.268-1.256 0.48-1.877 0.127-0.381 0.296-0.762 0.452-1.129 0.268-0.635 0.621-1.242 1.016-1.806 0.254-0.367 0.536-0.72 0.832-1.072 0.198-0.254 0.409-0.494 0.649-0.705 0.649-0.607 1.354-1.143 2.159-1.51 0.55-0.254 1.129-0.437 1.735-0.55s1.213-0.155 1.82-0.113c0.677 0.028 1.326 0.155 1.975 0.367 0.762 0.24 1.467 0.593 2.116 1.044 0.31 0.212 0.593 0.466 0.875 0.705 0.24 0.212 0.48 0.423 0.691 0.663 0.296 0.339 0.578 0.705 0.861 1.072 0.056 0.085 0.085 0.085 0.155 0 0.226-0.296 0.466-0.593 0.72-0.889 0.198-0.226 0.409-0.452 0.621-0.663 0.494-0.466 1.030-0.875 1.608-1.228 0.466-0.282 0.959-0.522 1.481-0.677 0.423-0.141 0.875-0.226 1.312-0.31 0.522-0.113 1.058-0.113 1.594-0.085 0.593 0.028 1.185 0.127 1.75 0.296 0.48 0.141 0.945 0.325 1.383 0.578 0.381 0.226 0.748 0.48 1.101 0.748 0.296 0.226 0.578 0.466 0.832 0.734 0.409 0.452 0.79 0.931 1.171 1.411 0.409 0.522 0.72 1.086 1.016 1.679 0.381 0.776 0.691 1.58 0.889 2.427 0.099 0.437 0.212 0.889 0.282 1.326 0.056 0.31 0.056 0.635 0.099 0.945 0.099 0.762 0.071 1.524 0.056 2.286 0 0.353-0.056 0.705-0.085 1.058-0.028 0.282-0.056 0.578-0.099 0.861-0.042 0.296-0.085 0.593-0.155 0.875-0.169 0.677-0.339 1.355-0.536 2.018-0.169 0.536-0.395 1.058-0.607 1.58-0.183 0.423-0.395 0.832-0.607 1.242-0.014 0.042-0.085 0.085-0.127 0.085-2.653 0-5.291 0-7.944 0-0.028 0-0.042 0-0.056 0zM3.104 11.118c0.028 0.24 0.056 0.72 0.113 1.199 0.042 0.395 0.113 0.79 0.183 1.185 0.056 0.325 0.127 0.649 0.183 0.974 0.014 0.113 0.071 0.141 0.183 0.113 0.085-0.028 0.183-0.042 0.268-0.056s0.155-0.042 0.155-0.155c0.014-0.169 0.014-0.353 0.042-0.522 0.099-0.564 0.198-1.129 0.325-1.693 0.127-0.55 0.31-1.101 0.55-1.623 0.169-0.367 0.325-0.762 0.508-1.115 0.212-0.395 0.452-0.776 0.691-1.143 0.198-0.296 0.395-0.593 0.621-0.889 0.254-0.324 0.508-0.635 0.776-0.931 0.494-0.522 1.016-1.016 1.594-1.439 0.042-0.028 0.071-0.113 0.071-0.169-0.014-0.169-0.042-0.325-0.056-0.494 0-0.085-0.042-0.113-0.113-0.099-0.466 0.071-0.931 0.127-1.383 0.212-0.296 0.056-0.593 0.155-0.875 0.282-0.367 0.169-0.734 0.353-1.072 0.564-0.254 0.169-0.48 0.381-0.705 0.593-0.437 0.395-0.79 0.875-1.115 1.369-0.169 0.282-0.31 0.578-0.437 0.875-0.141 0.367-0.268 0.748-0.381 1.143-0.099 0.522-0.113 1.058-0.127 1.82z"></path>
<path d="M3.894 24.099c0.071 0 0.099-0.014 0.141-0.014 1.848-0.014 3.697-0.028 5.545-0.042 0.466 0 0.945-0.014 1.411-0.042 0.183-0.014 0.367-0.028 0.55-0.071 0.31-0.071 0.494-0.31 0.578-0.593 0.212-0.593 0.381-1.185 0.564-1.778 0.099-0.296 0.198-0.593 0.282-0.903 0.014-0.028 0.028-0.056 0.056-0.113 0.085 0.325 0.169 0.635 0.24 0.945 0.141 0.593 0.296 1.185 0.437 1.778s0.268 1.185 0.423 1.778c0.198 0.79 0.409 1.594 0.635 2.37 0.113 0.381 0.409 0.607 0.804 0.691 0.451 0.099 0.818-0.085 1.115-0.409 0.113-0.127 0.155-0.31 0.212-0.48 0.325-0.847 0.649-1.679 0.959-2.526 0.282-0.748 0.55-1.496 0.832-2.229 0.141-0.367 0.268-0.734 0.409-1.086 0.014-0.042 0.042-0.071 0.071-0.141 0.071 0.155 0.127 0.282 0.198 0.423 0.226 0.522 0.451 1.044 0.677 1.552 0.127 0.296 0.367 0.409 0.677 0.437 0.959 0.085 1.905 0.056 2.864 0.056 1.185 0.014 2.356 0.014 3.541 0.028 0.395 0 0.776 0.028 1.185 0.042-0.183 0.226-0.339 0.451-0.522 0.649-0.522 0.578-1.058 1.143-1.608 1.693-0.353 0.353-0.734 0.663-1.129 0.974-0.578 0.451-1.185 0.889-1.792 1.312-0.339 0.24-0.72 0.451-1.086 0.635-0.55 0.268-1.115 0.536-1.679 0.762-0.663 0.254-1.355 0.451-2.060 0.564-0.381 0.056-0.762 0.099-1.143 0.169-0.804 0.141-1.594 0.028-2.399 0.056-0.198 0-0.395-0.056-0.593-0.085-0.24-0.042-0.494-0.085-0.734-0.127-0.635-0.099-1.256-0.268-1.848-0.494-0.578-0.226-1.171-0.451-1.721-0.734-0.734-0.367-1.439-0.804-2.088-1.312-0.466-0.353-0.945-0.691-1.397-1.086-0.578-0.508-1.129-1.044-1.665-1.594-0.325-0.31-0.621-0.677-0.945-1.058z"></path>
</svg>
