<?xml version="1.0" encoding="utf-8"?>
<!-- Generator: Adobe Illustrator 22.1.0, SVG Export Plug-In . SVG Version: 6.00 Build 0)  -->
<svg version="1.1" id="Layer_1" xmlns="http://www.w3.org/2000/svg" xmlns:xlink="http://www.w3.org/1999/xlink" x="0px" y="0px"
	 viewBox="0 0 226.8 226.8" style="enable-background:new 0 0 226.8 226.8;" xml:space="preserve">
<g>
	<path d="M11.7,57.7c2.9,1.4,5,2.3,6.9,3.3c28.6,16.5,57.3,32.8,85.8,49.5c4.4,2.6,7.7,2.4,12-0.1c28.5-16.6,57.2-33,85.8-49.5
		c1-0.6,2-1.1,3-1.7c2.7-1.5,4.4-1.1,4.4,2.3c0,35.5,0,70.9-0.1,106.4c0,1.6-1.4,3.8-2.8,4.6c-7.9,4.8-15.9,9.4-23.9,13.9
		c-4.1,2.3-4.3-0.6-4.3-3.4c0-15.2,0-30.4,0-45.7c0-4.9,0-9.7,0-14.6c0-7.5-0.9-8-7.2-4.3c-18.4,10.6-36.8,21.1-55.1,31.9
		c-4.2,2.5-7.4,2.4-11.5-0.1c-18.4-10.9-37-21.5-55.5-32.1c-5.6-3.2-6.7-2.7-6.7,3.8c-0.1,19.8,0,39.5,0,59.3c0,7.1-0.6,7.4-6.6,4
		c-6.9-3.9-13.7-8-20.6-11.8c-2.9-1.6-4.1-3.8-4.1-7.1c0-34.5,0-69,0-103.5C11,61.6,11.4,60.2,11.7,57.7z"/>
	<path d="M57.5,30.1c1.6-1.1,2.9-2.2,4.3-3.1C76.6,18.5,91.5,10,106.3,1.3c2.6-1.5,4.9-1.9,7.6-0.3c15.2,8.9,30.5,17.6,45.8,26.5
		c1.2,0.7,2.2,1.7,3.9,3c-2.4,1.6-4.2,3-6,4c-7.5,4.4-15,8.9-22.8,12.9c-1.9,1-5.1,0.9-7.1,0c-4.8-2.2-9.2-5.4-14.1-7.6
		c-1.9-0.9-4.8-0.9-6.6,0c-4.8,2.2-9.3,5.3-14,7.6c-1.7,0.8-4.4,1.4-5.8,0.6C77.7,43,68.3,37.5,59,32C58.5,31.8,58.2,31.1,57.5,30.1
		z"/>
	<path d="M164,196.6c-2.2,1.7-3.4,2.7-4.7,3.5c-15,8.7-29.9,17.4-45,25.8c-2,1.1-5.5,1.3-7.5,0.3c-15.6-8.6-30.9-17.6-46.3-26.5
		c-1-0.6-1.9-1.6-3.4-2.8c2.3-1.6,4-2.9,5.9-4c6-3.5,12.1-6.8,18-10.5c3.3-2.1,6.1-1.9,9.4,0.1c5.2,3.3,10.5,6.4,16.1,9
		c2.1,1,5.4,1,7.5,0c5.8-2.7,11.2-6.4,17-9.3c1.9-0.9,5-1.5,6.7-0.6c7.9,4.1,15.5,8.7,23.2,13.2C161.7,195.2,162.5,195.7,164,196.6z
		"/>
</g>
</svg>
