<!-- Generated by IcoMoon.io -->
<svg version="1.1" xmlns="http://www.w3.org/2000/svg" width="32" height="32" viewBox="0 0 32 32">
<title>MEDX</title>
<path d="M1.651 8.141c0.409 0.198 0.705 0.325 0.974 0.466 4.035 2.328 8.085 4.628 12.106 6.984 0.621 0.367 1.086 0.339 1.693-0.014 4.021-2.342 8.071-4.656 12.106-6.984 0.141-0.085 0.282-0.155 0.423-0.24 0.381-0.212 0.621-0.155 0.621 0.325 0 5.009 0 10.004-0.014 15.012 0 0.226-0.198 0.536-0.395 0.649-1.115 0.677-2.243 1.326-3.372 1.961-0.578 0.325-0.607-0.085-0.607-0.48 0-2.145 0-4.289 0-6.448 0-0.691 0-1.369 0-2.060 0-1.058-0.127-1.129-1.016-0.607-2.596 1.496-5.192 2.977-7.774 4.501-0.593 0.353-1.044 0.339-1.623-0.014-2.596-1.538-5.22-3.034-7.831-4.529-0.79-0.451-0.945-0.381-0.945 0.536-0.014 2.794 0 5.573 0 8.367 0 1.002-0.085 1.044-0.931 0.564-0.974-0.55-1.933-1.129-2.907-1.665-0.409-0.226-0.578-0.536-0.578-1.002 0-4.868 0-9.735 0-14.603-0.028-0.169 0.028-0.367 0.071-0.72z"></path>
<path d="M8.113 4.247c0.226-0.155 0.409-0.31 0.607-0.437 2.088-1.199 4.19-2.399 6.279-3.626 0.367-0.212 0.691-0.268 1.072-0.042 2.145 1.256 4.303 2.483 6.462 3.739 0.169 0.099 0.31 0.24 0.55 0.423-0.339 0.226-0.593 0.423-0.847 0.564-1.058 0.621-2.116 1.256-3.217 1.82-0.268 0.141-0.72 0.127-1.002 0-0.677-0.31-1.298-0.762-1.989-1.072-0.268-0.127-0.677-0.127-0.931 0-0.677 0.31-1.312 0.748-1.975 1.072-0.24 0.113-0.621 0.198-0.818 0.085-1.34-0.705-2.667-1.481-3.979-2.258-0.071-0.028-0.113-0.127-0.212-0.268z"></path>
<path d="M23.139 27.739c-0.31 0.24-0.48 0.381-0.663 0.494-2.116 1.227-4.219 2.455-6.349 3.64-0.282 0.155-0.776 0.183-1.058 0.042-2.201-1.213-4.36-2.483-6.533-3.739-0.141-0.085-0.268-0.226-0.48-0.395 0.325-0.226 0.564-0.409 0.832-0.564 0.847-0.494 1.707-0.959 2.54-1.481 0.466-0.296 0.861-0.268 1.326 0.014 0.734 0.466 1.481 0.903 2.272 1.27 0.296 0.141 0.762 0.141 1.058 0 0.818-0.381 1.58-0.903 2.399-1.312 0.268-0.127 0.705-0.212 0.945-0.085 1.115 0.578 2.187 1.227 3.273 1.862 0.113 0.056 0.226 0.127 0.437 0.254z"></path>
</svg>
