<!-- Generated by IcoMoon.io -->
<svg version="1.1" xmlns="http://www.w3.org/2000/svg" width="32" height="32" viewBox="0 0 32 32">
<title>MELIS_WALLET</title>
<path d="M29.136 23.788c-0.635 0.593-1.256 1.213-1.919 1.792-2.37 2.102-5.023 3.711-8.141 4.444-3.513 0.832-6.998 0.762-10.3-0.832-4.727-2.272-7.534-6.039-8.31-11.231-0.522-3.527 0.268-6.815 2.187-9.834 0.056-0.085 0.113-0.183 0.198-0.325-0.607 0-1.171 0-1.735 0-0.014-0.042-0.042-0.085-0.056-0.127 0.677-0.564 1.326-1.143 2.018-1.665 0.705-0.522 1.467-0.974 2.243-1.496-0.395 0-0.762 0-1.115 0-0.014-0.028-0.028-0.071-0.042-0.099 0.198-0.141 0.381-0.282 0.578-0.409 1.877-1.213 3.922-2.004 6.095-2.526 1.975-0.466 3.979-0.677 6.011-0.663 2.258 0.028 4.402 0.593 6.448 1.496 1.213 0.536 2.356 1.199 3.541 1.806 1.044 0.536 1.721 1.481 2.526 2.286 0.353 0.353 0.691 0.748 1.058 1.086 0.24 0.212 0.508 0.381 0.79 0.55 0.522 0.31 0.804 0.776 0.804 1.354s-0.24 1.115-0.79 1.312c-1.086 0.409-2.201 0.748-3.316 1.115 0.24 0.466 0.212 0.988-0.183 1.496 0.437 0.593 0.451 1.171 0 1.764 0.395 0.536 0.466 1.086 0.071 1.637-0.325 0.466-0.79 0.607-1.34 0.48-1.171-0.268-2.356-0.536-3.527-0.804-0.056-0.014-0.127-0.014-0.169-0.042-0.127-0.127-0.325-0.254-0.325-0.381s0.198-0.339 0.339-0.381c0.564-0.155 1.143-0.268 1.721-0.381 0.113-0.028 0.24-0.042 0.353-0.113-0.663-0.155-1.326-0.31-2.004-0.451-0.24-0.042-0.451-0.113-0.409-0.367 0.028-0.169 0.212-0.381 0.367-0.437 0.48-0.155 0.974-0.24 1.467-0.353 0.169-0.042 0.339-0.071 0.508-0.183-0.254-0.056-0.494-0.113-0.748-0.169-0.409-0.085-0.832-0.155-1.227-0.282-0.141-0.042-0.31-0.226-0.325-0.353s0.155-0.325 0.282-0.367c0.508-0.183 1.030-0.31 1.552-0.508-0.183-0.028-0.381-0.085-0.564-0.085-2.497 0-4.981 0-7.478 0-0.212 0-0.296 0.071-0.353 0.282-0.24 1.044-0.494 2.074-0.748 3.104-0.014 0.085-0.028 0.183-0.071 0.226-0.099 0.113-0.226 0.282-0.353 0.282s-0.31-0.155-0.353-0.268c-0.127-0.325-0.183-0.677-0.268-1.016-0.071-0.31-0.141-0.607-0.282-0.931-0.127 0.508-0.24 1.002-0.367 1.51-0.028 0.141-0.042 0.296-0.127 0.395-0.099 0.127-0.24 0.31-0.367 0.296-0.127 0-0.325-0.169-0.367-0.31-0.155-0.48-0.254-0.974-0.381-1.467-0.028-0.141-0.071-0.268-0.127-0.508-0.155 0.593-0.268 1.086-0.395 1.58-0.028 0.141-0.042 0.296-0.113 0.395-0.085 0.127-0.254 0.325-0.367 0.31-0.141-0.014-0.339-0.183-0.381-0.339-0.155-0.494-0.254-1.002-0.381-1.496-0.141-0.607-0.296-1.199-0.437-1.806-0.042-0.198-0.141-0.268-0.339-0.254-0.564 0.014-1.129 0-1.693 0.014-0.903 0.014-1.651 0.762-1.651 1.665-0.014 2.596 0 5.192-0.014 7.788 0 0.55 0 0.55-0.522 0.691-0.141 0.042-0.282 0.085-0.423 0.141 2.949-0.395 5.686 0.395 8.339 1.552 1.058 0.466 2.088 1.044 3.16 1.467 3.965 1.524 7.831 1.171 11.57-0.804 0.212-0.113 0.423-0.226 0.635-0.353 0.014 0.056 0.028 0.085 0.042 0.099zM26.54 6.829c-0.959-1.538-2.991-1.566-4.261-0.903 0.79 1.298 2.878 1.75 4.261 0.903z"></path>
<path d="M21.841 20.035c0-0.494 0.395-0.903 0.889-0.903 0.536 0 0.945 0.423 0.931 0.931-0.014 0.48-0.451 0.889-0.959 0.889-0.466 0.014-0.861-0.423-0.861-0.917z"></path>
</svg>
