<!-- Generated by IcoMoon.io -->
<svg version="1.1" xmlns="http://www.w3.org/2000/svg" width="32" height="32" viewBox="0 0 32 32">
<title>MER</title>
<path d="M14.053 0.889c0.988-1.115 2.907-1.143 3.936-0.056 0.649 0.593 0.79 1.481 0.818 2.314-0.367-0.564-0.621-1.213-1.143-1.651-0.974-0.818-2.582-0.734-3.443 0.212-0.409 0.466-0.621 1.058-0.945 1.58 0.014-0.847 0.141-1.778 0.776-2.399"></path>
<path d="M10.921 7.012c1.764 2.074 3.386 4.275 5.136 6.363 1.735-2.102 3.372-4.275 5.122-6.363-0.198 0.847-0.48 1.693-0.593 2.554-0.071 0.437 0.169 0.818 0.353 1.199 1.877 3.443 3.697 6.914 5.559 10.356 0.31 0.649 1.072 1.058 1.778 0.79 0.635-0.183 0.917-0.818 1.157-1.369 1.425-3.372 1.58-7.309 0.282-10.751-0.31-0.832-0.762-1.623-0.917-2.511 0.804 0.593 1.242 1.524 1.665 2.413 1.552 3.175 1.989 6.857 1.213 10.3-0.748 3.513-2.737 6.744-5.545 9.016-0.875 0.72-1.848 1.312-2.836 1.862-0.254-0.508-0.564-1.002-0.677-1.566-0.028-0.367 0.169-0.72 0.268-1.072 0.437-1.213 0.381-2.582-0.042-3.795-1.058-3.034-2.088-6.081-3.090-9.129-0.169-0.508-0.48-0.959-0.762-1.411 0.099 0.847-0.578 1.425-0.959 2.088-0.635 1.129-1.27 2.243-2.060 3.273-0.169-0.72-0.127-1.467-0.183-2.215-0.085 0.451-0.113 0.917-0.169 1.383-1.016-1.369-1.848-2.892-2.808-4.303-1.284 3.626-2.455 7.28-3.753 10.907-0.31-0.198-0.621-0.395-0.931-0.593-0.014 0.268-0.042 0.536-0.056 0.818 0.325 0.409 0.635 0.832 0.931 1.27-0.282-0.028-0.578-0.042-0.861-0.085 0.282 0.226 0.691 0.395 0.79 0.79 0.24 0.734 0.395 1.524 0.832 2.187 0.536 0.959 1.566 1.481 2.159 2.399-1.425-0.113-2.751-0.691-3.965-1.425-2.878-1.693-5.22-4.289-6.561-7.351-1.467-3.344-1.75-7.21-0.748-10.723 0.48-1.778 1.312-3.429 2.356-4.938 0.099 0.042 0.296 0.141 0.395 0.183-0.705 1.411-1.298 2.878-1.623 4.43-0.169-0.056-0.325-0.113-0.494-0.169 0.353 0.437 0.409 1.002 0.325 1.538-0.268 2.61 0.169 5.305 1.312 7.676 0.268 0.621 0.903 0.903 1.439 1.242 0.48-0.381 1.016-0.72 1.312-1.27 0.564-0.988 1.044-2.032 1.637-3.005 0.127 0.169 0.24 0.339 0.367 0.508-0.113-0.466-0.212-0.988 0.071-1.411 1.101-2.046 2.187-4.106 3.302-6.152 0.226-0.466 0.593-0.931 0.466-1.481-0.183-0.818-0.437-1.623-0.593-2.455M19.062 12.035c0.353-0.24 0.734-0.423 1.143-0.564-0.127-0.268-0.254-0.55-0.381-0.818-0.268 0.451-0.522 0.903-0.762 1.383M17.284 13.009c0.254 0.339 0.621 0.564 1.016 0.72-0.268-0.325-0.635-0.536-1.016-0.72M16.155 15.887c-0.226 0.226 0.155 0.578 0.381 0.353 0.24-0.212-0.169-0.564-0.381-0.353M23.407 22.307c0.268-0.113 0.522-0.226 0.79-0.353l-0.325-0.353c-0.155 0.24-0.31 0.48-0.466 0.705M5.587 27.090c-0.014 0.296-0.014 0.578-0.028 0.875 0.296 0.141 0.578 0.282 0.875 0.437-0.31-0.423-0.593-0.861-0.847-1.312M8.014 27.104c0.014 0.085 0.028 0.268 0.042 0.367 0.198 0.085 0.395 0.155 0.578 0.24-0.056-0.155-0.127-0.31-0.183-0.48-0.141-0.056-0.282-0.085-0.437-0.127"></path>
<path d="M20.176 31.633c0.691-0.593 1.397-1.185 1.989-1.891 0.451 0.296 0.748 0.748 0.917 1.256-0.818 0.353-1.665 0.663-2.511 0.959-0.099-0.071-0.296-0.24-0.395-0.325"></path>
</svg>
