<?xml version="1.0" encoding="utf-8"?>
<!-- Generator: Adobe Illustrator 22.0.1, SVG Export Plug-In . SVG Version: 6.00 Build 0)  -->
<svg version="1.1" id="Layer_1" xmlns="http://www.w3.org/2000/svg" xmlns:xlink="http://www.w3.org/1999/xlink" x="0px" y="0px"
	 viewBox="0 0 226.8 226.8" style="enable-background:new 0 0 226.8 226.8;" xml:space="preserve">
<style type="text/css">
	.st0{stroke:#FFFFFF;stroke-miterlimit:10;}
</style>
<g transform="translate(0-2)">
	<path class="st0" d="M99.6,8.3c7-7.9,20.6-8.1,27.9-0.4c4.6,4.2,5.6,10.5,5.8,16.4c-2.6-4-4.4-8.6-8.1-11.7
		c-6.9-5.8-18.3-5.2-24.4,1.5c-2.9,3.3-4.4,7.5-6.7,11.2C94.2,19.3,95.1,12.7,99.6,8.3"/>
	<path class="st0" d="M77.4,51.7c12.5,14.7,24,30.3,36.4,45.1c12.3-14.9,23.9-30.3,36.3-45.1c-1.4,6-3.4,12-4.2,18.1
		c-0.5,3.1,1.2,5.8,2.5,8.5c13.3,24.4,26.2,49,39.4,73.4c2.2,4.6,7.6,7.5,12.6,5.6c4.5-1.3,6.5-5.8,8.2-9.7
		c10.1-23.9,11.2-51.8,2-76.2c-2.2-5.9-5.4-11.5-6.5-17.8c5.7,4.2,8.8,10.8,11.8,17.1c11,22.5,14.1,48.6,8.6,73
		c-5.3,24.9-19.4,47.8-39.3,63.9c-6.2,5.1-13.1,9.3-20.1,13.2c-1.8-3.6-4-7.1-4.8-11.1c-0.2-2.6,1.2-5.1,1.9-7.6
		c3.1-8.6,2.7-18.3-0.3-26.9c-7.5-21.5-14.8-43.1-21.9-64.7c-1.2-3.6-3.4-6.8-5.4-10c0.7,6-4.1,10.1-6.8,14.8
		c-4.5,8-9,15.9-14.6,23.2c-1.2-5.1-0.9-10.4-1.3-15.7c-0.6,3.2-0.8,6.5-1.2,9.8c-7.2-9.7-13.1-20.5-19.9-30.5
		c-9.1,25.7-17.4,51.6-26.6,77.3c-2.2-1.4-4.4-2.8-6.6-4.2c-0.1,1.9-0.3,3.8-0.4,5.8c2.3,2.9,4.5,5.9,6.6,9c-2-0.2-4.1-0.3-6.1-0.6
		c2,1.6,4.9,2.8,5.6,5.6c1.7,5.2,2.8,10.8,5.9,15.5c3.8,6.8,11.1,10.5,15.3,17c-10.1-0.8-19.5-4.9-28.1-10.1
		c-20.4-12-37-30.4-46.5-52.1c-10.4-23.7-12.4-51.1-5.3-76C8,76.7,13.9,65,21.3,54.3c0.7,0.3,2.1,1,2.8,1.3
		c-5,10-9.2,20.4-11.5,31.4c-1.2-0.4-2.3-0.8-3.5-1.2c2.5,3.1,2.9,7.1,2.3,10.9c-1.9,18.5,1.2,37.6,9.3,54.4
		c1.9,4.4,6.4,6.4,10.2,8.8c3.4-2.7,7.2-5.1,9.3-9c4-7,7.4-14.4,11.6-21.3c0.9,1.2,1.7,2.4,2.6,3.6c-0.8-3.3-1.5-7,0.5-10
		c7.8-14.5,15.5-29.1,23.4-43.6c1.6-3.3,4.2-6.6,3.3-10.5C80.3,63.3,78.5,57.6,77.4,51.7 M135.1,87.3c2.5-1.7,5.2-3,8.1-4
		c-0.9-1.9-1.8-3.9-2.7-5.8C138.6,80.7,136.8,83.9,135.1,87.3 M122.5,94.2c1.8,2.4,4.4,4,7.2,5.1C127.8,97,125.2,95.5,122.5,94.2
		 M114.5,114.6c-1.6,1.6,1.1,4.1,2.7,2.5C118.9,115.6,116,113.1,114.5,114.6 M165.9,160.1c1.9-0.8,3.7-1.6,5.6-2.5l-2.3-2.5
		C168.1,156.8,167,158.5,165.9,160.1 M39.6,194c-0.1,2.1-0.1,4.1-0.2,6.2c2.1,1,4.1,2,6.2,3.1C43.4,200.3,41.4,197.2,39.6,194
		 M56.8,194.1c0.1,0.6,0.2,1.9,0.3,2.6c1.4,0.6,2.8,1.1,4.1,1.7c-0.4-1.1-0.9-2.2-1.3-3.4C58.9,194.6,57.9,194.4,56.8,194.1"/>
	<path class="st0" d="M143,226.2c4.9-4.2,9.9-8.4,14.1-13.4c3.2,2.1,5.3,5.3,6.5,8.9c-5.8,2.5-11.8,4.7-17.8,6.8
		C145.1,228,143.7,226.8,143,226.2"/>
</g>
</svg>
