<!-- Generated by IcoMoon.io -->
<svg version="1.1" xmlns="http://www.w3.org/2000/svg" width="32" height="32" viewBox="0 0 32 32">
<title>MERCADO_BITCOIN</title>
<path d="M1.608 15.986c0-2.088 0-4.162 0-6.25 0-1.354 0.607-2.356 1.778-3.034 3.485-2.032 6.984-4.049 10.483-6.067 0.183-0.113 0.367-0.212 0.564-0.31 0.409-0.198 0.832-0.296 1.312-0.325 0.79-0.042 1.453 0.198 2.102 0.578 3.541 2.046 7.083 4.092 10.624 6.138 1.129 0.649 1.721 1.637 1.721 2.963 0 4.19 0 8.381 0 12.571 0 1.326-0.593 2.314-1.721 2.963-3.541 2.060-7.083 4.092-10.624 6.138-0.169 0.099-0.325 0.198-0.508 0.282-0.409 0.198-0.818 0.282-1.284 0.31-0.79 0.042-1.453-0.198-2.102-0.578-3.541-2.046-7.083-4.092-10.624-6.138-1.129-0.649-1.721-1.637-1.721-2.963 0-2.102 0-4.19 0-6.279zM15.901 25.298c5.136 0.014 9.312-4.176 9.312-9.298 0.014-5.136-4.162-9.326-9.326-9.326-5.136 0-9.312 4.176-9.312 9.298 0 5.136 4.176 9.34 9.326 9.326z"></path>
<path d="M19.259 15.168c0.155 0.071 0.254 0.113 0.367 0.155 0.804 0.339 1.227 0.959 1.256 1.834 0.028 0.677-0.056 1.326-0.451 1.891-0.353 0.522-0.861 0.818-1.453 0.988-0.48 0.127-0.974 0.198-1.467 0.282-0.31 0.042-0.339 0.056-0.353 0.367-0.014 0.423 0 0.847 0 1.27 0 0.395-0.014 0.409-0.423 0.409-0.183 0-0.367 0-0.536 0-0.268-0.014-0.31-0.056-0.31-0.325 0-0.451 0-0.889 0-1.34 0-0.325-0.028-0.339-0.339-0.353-0.564-0.014-0.564-0.014-0.564 0.55 0 0.367 0 0.748 0 1.115-0.014 0.296-0.071 0.353-0.367 0.353-0.198 0-0.409 0-0.607 0-0.282-0.014-0.325-0.056-0.339-0.339-0.014-0.409 0-0.832 0-1.242 0-0.451 0-0.451-0.466-0.451-0.536 0-1.058 0-1.594 0-0.367 0-0.409-0.056-0.339-0.423 0.042-0.268 0.099-0.536 0.141-0.818 0.028-0.212 0.141-0.296 0.339-0.282 0.169 0.014 0.339 0.014 0.508 0 0.409-0.028 0.55-0.169 0.55-0.578 0-1.058 0-2.102 0.014-3.16 0-0.621 0.014-1.256 0.014-1.877 0-0.578-0.169-0.762-0.748-0.804-0.183-0.014-0.367-0.014-0.536-0.014-0.212 0-0.31-0.099-0.31-0.31 0-0.24 0-0.494 0-0.734 0.014-0.268 0.056-0.31 0.325-0.31 0.578 0 1.171 0 1.75 0 0.381 0 0.395-0.014 0.395-0.395 0-0.437 0-0.875 0.014-1.312 0-0.282 0.042-0.31 0.31-0.325 0.226 0 0.451 0 0.663 0 0.198 0 0.282 0.099 0.282 0.296 0 0.437 0 0.875 0 1.312 0 0.353 0.014 0.367 0.381 0.367 0.522 0 0.522 0 0.522-0.522 0-0.353 0-0.705 0-1.058 0.014-0.339 0.071-0.395 0.395-0.395 0.198 0 0.381 0 0.578 0 0.282 0.014 0.339 0.056 0.339 0.339 0 0.409 0 0.804 0 1.213 0 0.451 0 0.423 0.423 0.536 0.466 0.113 0.959 0.226 1.397 0.423 1.383 0.607 1.538 2.709 0.395 3.513-0.014 0.014-0.056 0.071-0.155 0.155zM15.012 17.481c0 0 0 0 0 0 0 0.325 0 0.663 0 0.988 0 0.282 0.042 0.325 0.31 0.325 0.31 0 0.621 0.028 0.917-0.014 0.451-0.056 0.903-0.141 1.34-0.268 0.353-0.099 0.649-0.325 0.762-0.72 0.183-0.663-0.155-1.213-0.875-1.439s-1.439-0.212-2.173-0.198c-0.212 0-0.282 0.099-0.282 0.296 0 0.339 0 0.677 0 1.030zM15.026 13.644c0 0 0 0 0 0 0 0.31 0 0.621 0 0.931 0 0.183 0.071 0.282 0.268 0.268 0.325 0 0.663 0.014 0.988-0.014 0.409-0.028 0.79-0.127 1.143-0.367 0.254-0.169 0.395-0.409 0.409-0.72 0.028-0.522-0.198-0.875-0.691-1.058-0.607-0.24-1.242-0.226-1.891-0.212-0.169 0-0.226 0.099-0.226 0.254 0 0.296 0 0.607 0 0.917z"></path>
</svg>
