<!-- Generated by IcoMoon.io -->
<svg version="1.1" xmlns="http://www.w3.org/2000/svg" width="32" height="32" viewBox="0 0 32 32">
<title>METAMASK</title>
<path d="M9.050 14.17c0.973-0.691 1.946-1.37 2.906-2.061 0.525-0.371 1.037-0.768 1.549-1.152 0.064-0.051 0.141-0.064 0.218-0.090 0.102 0.397 0.269 0.781 0.294 1.178 0.077 1.126 0.102 2.253 0.294 3.366 0.051 0.333 0.013 0.678 0.013 1.024-0.243-0.038-0.474-0.090-0.717-0.090-1.485-0.051-2.982 0.077-4.467-0.090-0.512-0.064-1.037-0.013-1.562-0.013 0.422-0.538 0.845-1.062 1.254-1.613 0.115-0.128 0.154-0.307 0.218-0.461z"></path>
<path d="M18.522 10.867c1.203 0.883 2.394 1.779 3.597 2.662 0.32 0.23 0.666 0.435 0.998 0.64 0.013 0.461 0.397 0.678 0.653 0.96 0.166 0.192 0.691 0.819 0.819 1.101-0.627 0.038-1.254 0.090-1.882 0.090-1.549 0.026-3.11-0.051-4.659 0.102 0.026-0.269 0.077-0.538 0.090-0.806 0.038-0.922 0.064-1.83 0.102-2.752 0.026-0.486 0.051-0.96 0.102-1.434 0.026-0.179 0.115-0.371 0.179-0.563z"></path>
<path d="M18.765 23.168c0.026 0.192 0.051 0.397 0.077 0.589 0.013 0.051 0.038 0.102 0.051 0.154 0.013 0.179 0.026 0.358 0.051 0.538 0.013 0.051 0.038 0.102 0.051 0.154 0 0.141 0.013 0.282 0.013 0.435-0.282-0.179-0.602-0.179-0.934-0.166-1.101 0.013-2.202 0-3.302 0.013-0.294 0-0.589 0.064-0.909 0.102 0-0.013-0.026-0.077-0.038-0.128 0.013-0.179 0.038-0.358 0.051-0.525 0.013-0.051 0.038-0.102 0.051-0.154 0.013-0.179 0.038-0.358 0.051-0.538 0.013-0.051 0.038-0.102 0.051-0.154 0.026-0.192 0.038-0.384 0.064-0.576 0.333-0.346 0.73-0.499 1.229-0.474 0.781 0.026 1.562 0.026 2.342 0 0.435-0.013 0.794 0.115 1.075 0.461 0 0.077 0.013 0.166 0.026 0.269z"></path>
<path d="M7.603 16.243c0.525 0 1.050-0.051 1.562 0.013 1.485 0.166 2.982 0.038 4.467 0.090 0.243 0.013 0.474 0.064 0.717 0.090 0 0.166 0 0.32 0 0.486-0.128 0.499-0.269 0.998-0.384 1.498-0.077 0.294-0.064 0.602-0.282 0.845-0.307-0.538-0.614-1.088-0.922-1.651-0.794 0.307-1.536 0.589-2.291 0.87-0.166-0.051-0.358-0.051-0.486-0.154-0.474-0.384-0.934-0.794-1.408-1.19-0.166-0.141-0.384-0.23-0.576-0.333-0.141-0.179-0.269-0.371-0.397-0.563z"></path>
<path d="M18.048 16.435c1.549-0.154 3.11-0.077 4.659-0.102 0.627-0.013 1.254-0.064 1.882-0.090 0.013 0.064 0.038 0.141 0.026 0.205s-0.077 0.128-0.128 0.179c-0.064 0.013-0.141 0.013-0.179 0.051-0.333 0.282-0.64 0.589-0.973 0.858-0.448 0.358-0.922 0.691-1.37 1.050-0.73-0.32-1.459-0.653-2.227-0.986-0.128 0.218-0.23 0.384-0.32 0.55-0.218 0.358-0.435 0.73-0.64 1.088-0.077-0.256-0.154-0.512-0.23-0.768-0.128-0.448-0.256-0.896-0.384-1.344-0.051-0.23-0.090-0.461-0.115-0.691z"></path>
<path d="M10.33 21.030c-0.038 0.333-0.064 0.666-0.115 0.998-0.115 0.794-0.243 1.574-0.371 2.368-0.038 0.269-0.090 0.538-0.154 0.883-0.128-0.090-0.256-0.128-0.32-0.218-0.806-1.101-1.6-2.214-2.381-3.328-0.141-0.205-0.346-0.397-0.269-0.691 1.203-0.013 2.406-0.013 3.61-0.013z"></path>
<path d="M25.562 21.030c0.077 0.269-0.102 0.474-0.243 0.653-0.794 1.088-1.6 2.176-2.406 3.264-0.064 0.090-0.179 0.141-0.346 0.282-0.179-1.472-0.358-2.829-0.525-4.198 0.102-0.026 0.205-0.090 0.294-0.090 0.589 0.026 1.178 0.064 1.766 0.090 0.486 0 0.973 0 1.459 0z"></path>
<path d="M7.987 16.832c0.192 0.115 0.397 0.205 0.576 0.333 0.474 0.384 0.922 0.806 1.408 1.19 0.128 0.102 0.32 0.102 0.486 0.154 0.064 0.064 0.115 0.141 0.179 0.205-0.090 0.038-0.166 0.077-0.32 0.154 0 0.563 0 1.152 0 1.83-0.128-0.115-0.205-0.154-0.23-0.205-0.397-0.64-0.794-1.267-1.165-1.92-0.346-0.576-0.627-1.165-0.934-1.741z"></path>
<path d="M21.952 18.586c0.461-0.346 0.922-0.678 1.37-1.050 0.333-0.269 0.653-0.576 0.973-0.858 0.038-0.038 0.115-0.038 0.179-0.051-0.192 0.384-0.371 0.781-0.589 1.152-0.448 0.755-0.909 1.51-1.37 2.253-0.077 0.128-0.179 0.256-0.32 0.461-0.038-0.179-0.064-0.269-0.064-0.371-0.013-0.307 0-0.614 0-0.922 0-0.218-0.026-0.422-0.23-0.538 0.013-0.026 0.026-0.051 0.051-0.077z"></path>
<path d="M13.632 19.354c0-0.026 0-0.051 0.026-0.077 0.23-0.23 0.218-0.55 0.282-0.845 0.128-0.499 0.256-0.998 0.384-1.498 0.026 0.038 0.090 0.064 0.090 0.102 0.038 0.563 0.077 1.126 0.102 1.677 0.038 0.832 0.064 1.677 0.102 2.509 0 0.154 0 0.307-0.064 0.461-0.256-0.806-0.576-1.574-0.922-2.33z"></path>
<path d="M18.752 19.226c0 0.038-0.013 0.077-0.013 0.128-0.23 0.704-0.269 1.459-0.538 2.138-0.038 0-0.064 0-0.102 0-0.013-0.077-0.064-0.166-0.051-0.243 0.051-0.538-0.077-1.075-0.013-1.626 0.026-0.269-0.090-0.538-0.077-0.806 0.013-0.525 0.064-1.062 0.102-1.587 0-0.038 0.051-0.077 0.090-0.102 0.128 0.448 0.256 0.896 0.384 1.344 0.064 0.243 0.141 0.499 0.218 0.755z"></path>
<path d="M18.765 23.168c-0.013-0.102-0.026-0.192-0.038-0.294 0.038 0 0.077 0 0.115 0 0 0.026 0 0.051 0 0.077-0.026 0.077-0.051 0.141-0.077 0.218z"></path>
<path d="M18.995 24.589c-0.013-0.051-0.038-0.102-0.051-0.154 0.013 0.051 0.026 0.102 0.051 0.154z"></path>
<path d="M14.016 23.462c-0.013 0.051-0.038 0.102-0.051 0.154 0.026-0.051 0.038-0.102 0.051-0.154z"></path>
<path d="M13.914 24.154c-0.013 0.051-0.038 0.102-0.051 0.154 0.026-0.064 0.038-0.102 0.051-0.154z"></path>
<path d="M29.363 3.546c-0.051 0.026-0.102 0.051-0.141 0.077 0.038-0.026 0.090-0.051 0.141-0.077z"></path>
<path d="M12.774 6.771c-0.128-0.013-0.243-0.013-0.371-0.026 0.128 0 0.256 0.013 0.371 0.026z"></path>
<path d="M29.069 15.565c0.666 1.728 1.318 3.456 1.984 5.197 0.038 0.102 0.051 0.218 0.077 0.32 0 0.23-0.154 0.243-0.333 0.23-0.973-0.038-1.933-0.064-2.906-0.102-0.013 0-0.038 0-0.051 0-0.768-0.064-1.536-0.128-2.304-0.192-0.486 0-0.96 0.013-1.446 0-0.589-0.013-1.178-0.064-1.766-0.090-0.102 0-0.192 0.064-0.294 0.090-0.55 0.294-1.101 0.576-1.651 0.87-0.32 0.179-0.627 0.397-0.973 0.512-0.269 0.090-0.448 0.243-0.589 0.461-0.038 0-0.077 0-0.115 0-0.282-0.346-0.64-0.474-1.075-0.461-0.781 0.013-1.562 0.026-2.342 0-0.499-0.013-0.896 0.128-1.229 0.474-0.051 0-0.090 0-0.141 0-0.141-0.243-0.371-0.384-0.627-0.499-0.55-0.23-1.088-0.499-1.626-0.742-0.448-0.205-0.909-0.41-1.357-0.614-1.203 0-2.406 0-3.61 0-0.256 0.038-0.512 0.077-0.768 0.090-0.742 0.038-1.485 0.064-2.227 0.102-0.038 0-0.064 0-0.102 0-0.96 0.064-1.933 0.115-2.893 0.179 0.23-0.64 0.448-1.28 0.691-1.907 0.512-1.318 1.024-2.624 1.536-3.942 0.41-0.090 0.819-0.154 1.216-0.256 1.626-0.371 3.238-0.755 4.864-1.139-0.064 0.154-0.102 0.333-0.205 0.474-0.41 0.538-0.832 1.075-1.254 1.613 0.128 0.192 0.256 0.384 0.384 0.589 0.307 0.576 0.589 1.165 0.909 1.741 0.371 0.653 0.768 1.28 1.165 1.92 0.038 0.064 0.102 0.102 0.23 0.205 0-0.678 0-1.28 0-1.83 0.154-0.077 0.243-0.115 0.32-0.154 0.691 0.154 1.382 0.269 2.061 0.461 0.32 0.090 0.614 0.23 0.96 0.179 0.346 0.755 0.666 1.523 0.922 2.33 0.064-0.154 0.077-0.307 0.064-0.461-0.026-0.832-0.064-1.677-0.102-2.509-0.026-0.563-0.064-1.126-0.102-1.677 0-0.038-0.051-0.064-0.090-0.102 0-0.166 0-0.32 0-0.486 0-0.346 0.038-0.691-0.013-1.024-0.192-1.114-0.218-2.24-0.294-3.366-0.026-0.397-0.192-0.794-0.294-1.178-0.026-0.128-0.064-0.243-0.090-0.371-0.115-0.333-0.192-0.666-0.346-0.986-0.358-0.781-0.73-1.562-1.114-2.33-0.077-0.166-0.064-0.294 0-0.448 0.077 0 0.154 0 0.218 0 0.128 0.013 0.243 0.013 0.371 0.026 1.92 0 3.84-0.013 5.747-0.013 0.422 0 0.845 0.013 1.267 0.026 0.154 0.243 0.115 0.486-0.026 0.73-0.090 0.166-0.179 0.333-0.256 0.512-0.128 0.307-0.243 0.614-0.384 0.922-0.192 0.448-0.41 0.896-0.602 1.344-0.038 0.090-0.013 0.192-0.013 0.294s0 0.205 0 0.307c-0.064 0.192-0.166 0.371-0.192 0.576-0.051 0.474-0.077 0.96-0.102 1.434-0.038 0.922-0.064 1.83-0.102 2.752-0.013 0.269-0.064 0.538-0.090 0.806 0.026 0.23 0.064 0.448 0.090 0.678-0.026 0.038-0.090 0.064-0.090 0.102-0.038 0.525-0.090 1.062-0.102 1.587 0 0.269 0.102 0.55 0.077 0.806-0.064 0.55 0.064 1.075 0.013 1.626-0.013 0.077 0.038 0.166 0.051 0.243 0.038 0 0.064 0 0.102 0 0.269-0.691 0.307-1.446 0.538-2.138 0.128-0.013 0.256-0.026 0.384-0.051 0.934-0.205 1.856-0.422 2.79-0.64 0.218 0.115 0.243 0.32 0.23 0.538 0 0.307 0 0.614 0 0.922 0 0.102 0.038 0.192 0.064 0.371 0.141-0.205 0.243-0.32 0.32-0.461 0.461-0.755 0.922-1.498 1.37-2.253 0.218-0.371 0.384-0.768 0.589-1.152 0.038-0.064 0.102-0.115 0.128-0.179 0.013-0.064-0.013-0.141-0.026-0.205-0.115-0.282-0.653-0.909-0.819-1.101-0.256-0.294-0.64-0.512-0.653-0.96 0.102 0.013 0.192 0 0.294 0.026 1.242 0.307 2.496 0.627 3.738 0.922 0.742 0.154 1.382 0.294 2.022 0.435z"></path>
<path d="M9.050 14.17c-1.626 0.384-3.238 0.755-4.864 1.139-0.41 0.090-0.819 0.166-1.216 0.256-0.41-0.448-0.832-0.896-1.267-1.37 0.166-0.128 0.32-0.243 0.486-0.371-0.154-0.384-0.576-0.474-0.819-0.794 0.218-0.166 0.422-0.307 0.678-0.486-0.307-0.218-0.576-0.41-0.845-0.602 0.013-0.038 0.013-0.090 0.026-0.102 0.461-0.179 0.474-0.538 0.384-0.947-0.256-1.126-0.486-2.253-0.717-3.379-0.026-0.154-0.026-0.333 0.026-0.474 0.474-1.19 0.973-2.368 1.459-3.558 0.026-0.051 0.064-0.102 0.115-0.179 0.141 0.051 0.269 0.102 0.397 0.154 0.090 0.090 0.166 0.192 0.282 0.269 1.51 0.986 3.021 1.946 4.531 2.931 1.779 1.152 3.546 2.317 5.325 3.469 0.205 0.128 0.41 0.243 0.614 0.371 0.026 0.128 0.064 0.243 0.090 0.371-0.077 0.026-0.154 0.051-0.218 0.090-0.525 0.384-1.024 0.781-1.549 1.152-0.973 0.691-1.946 1.37-2.918 2.061z"></path>
<path d="M18.522 10.867c0-0.102 0-0.205 0-0.307 2.086-1.331 4.16-2.662 6.246-3.994 1.306-0.832 2.611-1.664 3.917-2.509 0.179-0.115 0.333-0.294 0.499-0.435 0 0 0.038-0.013 0.038-0.013 0.051-0.026 0.102-0.051 0.141-0.077 0.23-0.154 0.384-0.102 0.486 0.166 0.422 1.126 0.858 2.24 1.28 3.366 0.064 0.166 0.064 0.384 0.026 0.563-0.243 1.165-0.499 2.317-0.755 3.469-0.102 0.474-0.115 0.474 0.307 0.73 0.038 0.026 0.077 0.051 0.166 0.128-0.282 0.205-0.55 0.397-0.858 0.64 0.23 0.166 0.435 0.307 0.691 0.486-0.307 0.256-0.576 0.486-0.883 0.742 0.179 0.141 0.333 0.243 0.55 0.41-0.435 0.461-0.858 0.896-1.28 1.331-0.64-0.141-1.28-0.282-1.92-0.435-1.242-0.307-2.496-0.614-3.738-0.922-0.090-0.026-0.192-0.013-0.294-0.026-0.333-0.218-0.678-0.41-0.998-0.64-1.229-0.883-2.419-1.779-3.622-2.675z"></path>
<path d="M0.742 21.402c0.96-0.064 1.933-0.115 2.893-0.179 0.038 0 0.064 0 0.102 0 0.742-0.038 1.485-0.064 2.227-0.102 0.256-0.013 0.512-0.064 0.768-0.090-0.077 0.294 0.128 0.486 0.269 0.691 0.794 1.114 1.587 2.227 2.381 3.328 0.064 0.090 0.179 0.128 0.32 0.218 0.064-0.346 0.115-0.614 0.154-0.883 0.128-0.794 0.256-1.574 0.371-2.368 0.051-0.333 0.077-0.666 0.115-0.998 0.448 0.205 0.909 0.41 1.357 0.614 0.538 0.243 1.075 0.512 1.626 0.742 0.269 0.115 0.486 0.243 0.627 0.499-0.602 0.358-1.216 0.73-1.818 1.088-0.794 0.486-1.587 0.973-2.381 1.459-0.064 0.013-0.128 0.026-0.192 0.038-0.038 0.013-0.077 0.026-0.115 0.038-2.278 0.627-4.557 1.254-6.874 1.894-0.064-0.141-0.128-0.256-0.166-0.397-0.55-1.779-1.101-3.558-1.651-5.338-0.026-0.064-0.013-0.166-0.013-0.256z"></path>
<path d="M18.842 22.874c0.141-0.218 0.32-0.358 0.589-0.461 0.346-0.128 0.653-0.346 0.973-0.512 0.55-0.294 1.101-0.589 1.651-0.87 0.166 1.357 0.346 2.726 0.525 4.198 0.166-0.128 0.282-0.192 0.346-0.282 0.806-1.088 1.613-2.163 2.406-3.264 0.141-0.192 0.307-0.384 0.243-0.653 0.768 0.064 1.536 0.128 2.304 0.192 0.013 0 0.038 0 0.051 0 0.973 0.038 1.933 0.064 2.906 0.102 0.179 0 0.333 0 0.333-0.23 0.205 0.192 0.141 0.41 0.064 0.627-0.512 1.626-1.011 3.251-1.523 4.864-0.23 0.73-0.23 0.73-0.96 0.525-2.022-0.563-4.058-1.126-6.080-1.69-0.115-0.064-0.23-0.115-0.333-0.179-0.832-0.563-1.651-1.126-2.483-1.677-0.32-0.218-0.653-0.397-0.986-0.602-0.038-0.038-0.026-0.064-0.026-0.090z"></path>
<path d="M22.042 25.702c-0.768 0.589-1.702 0.858-2.56 1.28-0.55 0.269-1.114 0.307-1.702 0.294-0.832-0.013-1.664-0.013-2.483 0-0.218 0-0.448 0.064-0.666 0.064-0.205 0-0.435 0.013-0.614-0.051-0.986-0.346-1.971-0.704-2.957-1.088-0.294-0.115-0.55-0.32-0.832-0.486 0.026-0.026 0.038-0.077 0.064-0.064 0.448 0.077 0.909 0.154 1.357 0.23 0.678 0.128 1.37 0.282 2.035 0.41 0.038-0.077 0.064-0.102 0.064-0.128 0-0.282 0-0.55 0.013-0.832 0.013-0.166 0.051-0.333 0.077-0.512 0.013 0.064 0.038 0.115 0.038 0.128 0.32-0.038 0.614-0.090 0.909-0.102 1.101-0.013 2.202 0 3.302-0.013 0.333 0 0.64-0.013 0.934 0.166 0.026 0.064 0.077 0.128 0.077 0.192-0.013 0.307-0.051 0.627-0.077 0.986 0.243-0.013 0.41 0 0.576-0.038 0.538-0.128 1.075-0.294 1.613-0.397 0.256-0.026 0.538-0.192 0.832-0.038z"></path>
<path d="M29.171 3.635c-0.166 0.154-0.307 0.32-0.499 0.435-1.306 0.845-2.611 1.677-3.917 2.509-2.086 1.331-4.16 2.662-6.246 3.994 0-0.102-0.013-0.205 0.013-0.294 0.192-0.448 0.397-0.896 0.602-1.344 0.128-0.307 0.243-0.614 0.384-0.922 0.077-0.179 0.166-0.346 0.256-0.512 0.141-0.243 0.179-0.486 0.026-0.73 0.589-0.179 1.178-0.346 1.754-0.538 2.33-0.806 4.646-1.626 6.963-2.432 0.23-0.077 0.448-0.115 0.666-0.166z"></path>
<path d="M13.645 10.496c-0.205-0.128-0.422-0.243-0.614-0.371-1.779-1.165-3.546-2.317-5.325-3.469-1.51-0.973-3.021-1.946-4.518-2.918-0.102-0.064-0.179-0.179-0.282-0.269 0.525 0.166 1.050 0.32 1.562 0.499 2.112 0.768 4.224 1.549 6.336 2.317 0.461 0.166 0.922 0.307 1.382 0.461-0.064 0.154-0.077 0.282 0 0.448 0.384 0.768 0.755 1.549 1.114 2.33 0.141 0.294 0.23 0.64 0.346 0.973z"></path>
</svg>
