<?xml version="1.0" encoding="utf-8"?>
<!-- Generator: Adobe Illustrator 22.1.0, SVG Export Plug-In . SVG Version: 6.00 Build 0)  -->
<svg version="1.1" id="Layer_1" xmlns="http://www.w3.org/2000/svg" xmlns:xlink="http://www.w3.org/1999/xlink" x="0px" y="0px"
	 viewBox="0 0 226.8 226.8" style="enable-background:new 0 0 226.8 226.8;" xml:space="preserve">
<g>
	<path d="M113.7,162.2c-31.3,30.4-76.3,21.9-98-3.7C-5.8,133.2-5.3,95,17.7,69.9c22-23.9,65.2-31,96-1.3
		c16.4-15.5,36-22.1,58.3-18.4c16.7,2.7,30.4,11.2,40.9,24.5c20.1,25.5,17.9,63.1-4.3,86.4C186.3,184.7,143.7,190.9,113.7,162.2z
		 M132.4,115.7c0.1,15.4,12.9,28.2,28.3,28.3c15.5,0.1,28.5-13,28.5-28.5c0-15.9-12.8-28.8-28.5-28.8
		C145.1,86.8,132.4,99.8,132.4,115.7z M66.4,87.2c-15.9,0-28.2,12.2-28.3,28c-0.1,15.7,12.3,28.3,28,28.3c15.8,0,28.3-12.3,28.3-28
		C94.4,99.8,82,87.3,66.4,87.2z"/>
</g>
</svg>
