<!-- Generated by IcoMoon.io -->
<svg version="1.1" xmlns="http://www.w3.org/2000/svg" width="32" height="32" viewBox="0 0 32 32">
<title>MFT</title>
<path d="M16.042 22.885c-4.416 4.289-10.765 3.090-13.827-0.522-3.034-3.57-2.963-8.959 0.282-12.501 3.104-3.372 9.199-4.374 13.545-0.183 2.314-2.187 5.079-3.118 8.226-2.596 2.356 0.381 4.289 1.58 5.771 3.457 2.836 3.598 2.526 8.903-0.607 12.19-3.146 3.33-9.157 4.205-13.39 0.155zM18.681 16.325c0.014 2.173 1.82 3.979 3.993 3.993 2.187 0.014 4.021-1.834 4.021-4.021 0-2.243-1.806-4.064-4.021-4.064-2.201 0.014-3.993 1.848-3.993 4.092zM9.369 12.303c-2.243 0-3.979 1.721-3.993 3.951-0.014 2.215 1.735 3.993 3.951 3.993 2.229 0 3.993-1.735 3.993-3.951s-1.75-3.979-3.951-3.993z"></path>
</svg>
