<?xml version="1.0" encoding="utf-8"?>
<!-- Generator: Adobe Illustrator 22.0.1, SVG Export Plug-In . SVG Version: 6.00 Build 0)  -->
<svg version="1.1" id="Layer_1" xmlns="http://www.w3.org/2000/svg" xmlns:xlink="http://www.w3.org/1999/xlink" x="0px" y="0px"
	 viewBox="0 0 226.8 226.8" style="enable-background:new 0 0 226.8 226.8;" xml:space="preserve">
<style type="text/css">
	.st0{stroke:#FFFFFF;stroke-miterlimit:10;}
</style>
<path class="st0" d="M82.1,83.7l49-49l-18-18l-67,67l67,67l67-67l-33.2-33.2l-18,18l15.2,15.2l-31,31L82.1,83.7"/>
<g>
	<path class="st0" d="M113.7,174.1l-49-49l-18,18l49,49l18,18l18-18l49-49l-18-18L113.7,174.1"/>
	<path class="st0" d="M174.1,113.7l18-18l34.3,34.3l-18,18L174.1,113.7z"/>
	<path class="st0" d="M18.4,147.4l-18-18l34.3-34.3l18,18L18.4,147.4z"/>
</g>
</svg>
