<!-- Generated by IcoMoon.io -->
<svg version="1.1" xmlns="http://www.w3.org/2000/svg" width="32" height="32" viewBox="0 0 32 32">
<title>MINT</title>
<path d="M31.885 19.958c-0.143-2.847-1.139-6.227-1.957-8.149s-3.006-4.943-4.128-5.125c-0.807-0.13-1.495-0.083-3.725 0s-2.396 0.652-2.42 0.937c-0.024 0.285 0.759 0.735 1.4 1.447s2.443 3.938 2.918 5.599c0.475 1.661 0.902 3.132 1.044 5.789s-0.071 4.152 0.356 4.65c0.427 0.498 5.884 0.261 6.311 0s0.344-2.301 0.202-5.148z"></path>
<path d="M21.189 11.809c-0.819-1.922-3.006-4.943-4.128-5.125-0.807-0.13-1.495-0.083-3.725 0s-2.396 0.652-2.42 0.937c-0.024 0.285 0.759 0.735 1.399 1.447s2.444 3.938 2.918 5.599c0.475 1.661 0.902 3.132 1.044 5.789s-0.071 4.152 0.356 4.65c0.427 0.498 5.884 0.261 6.311 0s0.344-2.301 0.202-5.148c-0.142-2.847-1.139-6.227-1.957-8.149z"></path>
<path d="M12.653 11.809c-0.818-1.922-3.005-4.943-4.128-5.125-0.807-0.13-1.495-0.083-3.725 0s-2.396 0.652-2.42 0.937c-0.024 0.285 0.759 0.735 1.4 1.447 0.52 0.577 1.805 2.81 2.525 4.52h-6.341l2.416 2.412h4.688c0.208 0.8 0.391 1.644 0.52 2.684h-6.592l2.416 2.412h4.359c0.082 2.257-0.063 3.553 0.328 4.009 0.427 0.498 5.883 0.261 6.31 0s0.344-2.301 0.202-5.148c-0.143-2.847-1.139-6.228-1.957-8.149z"></path>
</svg>
