<!-- Generated by IcoMoon.io -->
<svg version="1.1" xmlns="http://www.w3.org/2000/svg" width="32" height="32" viewBox="0 0 32 32">
<title>MIST</title>
<path d="M16.128 0c-8.845 0-16 7.155-16 16s7.155 16 16 16 16-7.155 16-16-7.155-16-16-16zM15.923 26.598l-6.323-8.96 6.323 3.725v5.235zM15.923 20.083l-6.4-3.763 6.4-2.803v6.566zM15.923 13.082l-6.157 2.714 6.157-10.394v7.68zM16.333 5.402l6.246 10.394-6.246-2.765c0 0.051 0-7.629 0-7.629zM16.333 26.598v-5.235l6.323-3.725-6.323 8.96zM16.333 20.083v-6.554l6.4 2.803-6.4 3.75z"></path>
</svg>
