<!-- Generated by IcoMoon.io -->
<svg version="1.1" xmlns="http://www.w3.org/2000/svg" width="32" height="32" viewBox="0 0 32 32">
<title>MITH</title>
<path d="M16.014 25.072c-4.995 0-9.975 0-14.97 0-0.367 0-0.691-0.056-0.861-0.423-0.169-0.381 0.014-0.677 0.282-0.945 1.496-1.566 3.019-3.132 4.473-4.741 0.55-0.607 0.974-1.34 1.453-2.032 1.51-2.215 3.019-4.444 4.529-6.674 0.409-0.607 0.945-0.621 1.383-0.014 1.199 1.665 2.384 3.33 3.584 4.995 0.31 0.423 0.381 0.409 0.607-0.042 1.256-2.681 2.511-5.362 3.767-8.028 0.155-0.325 0.353-0.578 0.734-0.578 0.353 0 0.578 0.183 0.734 0.48 0.959 1.721 1.961 3.414 2.892 5.164 2.074 3.894 4.459 7.591 6.942 11.217 0.155 0.226 0.31 0.466 0.395 0.72 0.141 0.437-0.056 0.762-0.508 0.875-0.113 0.028-0.24 0.028-0.367 0.028-5.023 0-10.046 0-15.069 0zM23.055 23.647c0.832 0 1.397 0 1.961 0 0.099 0 0.198-0.042 0.31-0.071-0.042-0.113-0.042-0.226-0.113-0.325-1.383-1.989-2.78-3.979-4.176-5.954-0.282-0.409-0.296-0.409-0.621-0.014-1.115 1.34-2.229 2.667-3.344 4.007-0.212 0.24-0.127 0.339 0.127 0.451 0.818 0.367 1.651 0.705 2.441 1.115 1.157 0.593 2.342 1.016 3.414 0.79zM6.279 19.64c0.028 0.028 0.042 0.042 0.071 0.071 0.014 0.056 0.028 0.113 0.042 0.155 0.508 1.143 1.002 2.286 1.51 3.429 0.127 0.296 0.254 0.198 0.395 0.014 1.298-1.707 2.596-3.414 3.894-5.122 0.113-0.141 0.113-0.24-0.014-0.367-0.339-0.367-0.663-0.748-0.988-1.129-0.155-0.183-0.282-0.198-0.48-0.071-0.663 0.423-1.34 0.818-2.018 1.227-0.593 0.353-1.185 0.691-1.75 1.086-0.254 0.169-0.437 0.451-0.663 0.705zM11.598 23.647c0.691 0 1.397 0.014 2.088-0.014 0.155 0 0.353-0.085 0.451-0.198 0.466-0.48 0.917-1.002 1.383-1.481 0.198-0.198 0.183-0.325 0-0.522-0.818-0.875-1.623-1.75-2.441-2.638-0.183-0.198-0.31-0.226-0.48 0.014-1.101 1.481-2.215 2.963-3.33 4.444-0.056 0.085-0.085 0.198-0.113 0.296 0.099 0.028 0.198 0.085 0.296 0.085 0.72 0.014 1.425 0.014 2.145 0.014zM20.543 11.57c0.014 0 0.014 0 0 0 0.014-0.282 0.028-0.578 0.014-0.861 0-0.113-0.071-0.226-0.113-0.339-0.085 0.085-0.183 0.141-0.226 0.24-0.974 2.018-1.919 4.035-2.907 6.053-0.409 0.847-0.72 1.679-0.635 2.638 0.028 0.268-0.028 0.536-0.028 0.79 0 0.099 0.071 0.183 0.113 0.282 0.085-0.042 0.183-0.085 0.24-0.141 1.101-1.312 2.201-2.624 3.302-3.951 0.071-0.085 0.113-0.212 0.127-0.325 0.042-1.453 0.071-2.921 0.113-4.388zM15.929 19.146c0.042-1.453 0.056-1.453-0.55-2.272-0.691-0.959-1.397-1.919-2.102-2.864-0.381-0.522-0.776-1.058-1.171-1.58-0.042-0.056-0.141-0.099-0.212-0.141-0.042 0.071-0.099 0.141-0.127 0.212-0.028 0.042-0.014 0.113-0.028 0.169-0.085 0.818-0.141 1.637-0.268 2.441-0.071 0.522 0.028 0.903 0.409 1.298 1.242 1.312 2.455 2.681 3.668 4.021 0.056 0.071 0.155 0.099 0.24 0.141 0.042-0.085 0.099-0.169 0.113-0.254 0.028-0.409 0.028-0.79 0.028-1.171zM21.164 15.238c-0.014 0.127-0.014 0.198-0.014 0.268-0.014 0.494-0.014 0.494 0.466 0.607 1.185 0.282 2.37 0.578 3.541 0.861 0.113 0.028 0.254 0 0.381 0-0.028-0.127-0.028-0.254-0.099-0.367-0.494-0.889-1.002-1.778-1.496-2.667-0.762-1.354-1.524-2.723-2.3-4.078-0.042-0.085-0.155-0.141-0.226-0.198-0.042 0.099-0.085 0.183-0.127 0.282-0.014 0.056 0 0.113 0 0.169-0.042 1.735-0.085 3.457-0.127 5.122zM26.469 19.019c0.028-0.677-0.099-1.002-0.48-1.086-1.284-0.325-2.582-0.635-3.866-0.945-0.085-0.014-0.183 0.028-0.282 0.042 0.028 0.085 0.028 0.198 0.071 0.268 1.312 1.877 2.61 3.739 3.922 5.601 0.042 0.071 0.155 0.099 0.226 0.141 0.042-0.085 0.113-0.169 0.113-0.254 0.127-1.284 0.212-2.568 0.296-3.767zM4.938 23.647c0.593 0 1.199 0 1.792 0 0.48 0 0.508-0.028 0.31-0.451-0.367-0.847-0.748-1.707-1.115-2.554-0.155-0.353-0.198-0.367-0.48-0.071-0.861 0.903-1.721 1.806-2.582 2.723-0.071 0.071-0.085 0.183-0.127 0.282 0.099 0.028 0.198 0.085 0.296 0.085 0.649-0.014 1.284-0.014 1.905-0.014zM28.346 23.647c0.409 0 0.818 0 1.227 0 0.254 0 0.296-0.127 0.169-0.31-0.762-1.157-1.524-2.3-2.3-3.443-0.042-0.056-0.141-0.085-0.212-0.127-0.042 0.071-0.099 0.141-0.113 0.226-0.085 1.129-0.169 2.243-0.254 3.372-0.014 0.212 0.071 0.31 0.282 0.296 0.409-0.028 0.804-0.014 1.199-0.014zM10.977 13.362c-0.014-0.028-0.056-0.141-0.099-0.254-0.099 0.085-0.212 0.141-0.282 0.24-0.804 1.185-1.608 2.356-2.413 3.556-0.056 0.099-0.056 0.226-0.099 0.339 0.127-0.028 0.254-0.028 0.367-0.085 0.691-0.409 1.369-0.818 2.046-1.242 0.113-0.071 0.226-0.24 0.254-0.381 0.085-0.705 0.141-1.397 0.226-2.173zM19.302 23.549c-0.155-0.113-0.212-0.169-0.296-0.198-0.818-0.367-1.637-0.734-2.441-1.115-0.169-0.085-0.282-0.056-0.395 0.085-0.282 0.31-0.564 0.621-0.847 0.931-0.071 0.085-0.099 0.198-0.155 0.296 0.099 0.028 0.198 0.085 0.296 0.085 1.143 0 2.286 0 3.414 0 0.127 0.014 0.226-0.042 0.423-0.085z"></path>
</svg>
