<!-- Generated by IcoMoon.io -->
<svg version="1.1" xmlns="http://www.w3.org/2000/svg" width="32" height="32" viewBox="0 0 32 32">
<title>MIXCOINS</title>
<path d="M4.741 14.504c-0.635 2.61-1.256 5.122-1.877 7.676-0.974 0-1.82 0-2.864 0 0.776-3.217 1.524-6.349 2.286-9.524 1.919-0.705 3.795-1.086 5.757-0.522 0.522 0.155 0.959 0.183 1.51 0.042 1.129-0.296 2.286-0.451 3.457-0.141 1.34 0.367 2.173 1.256 2.342 2.624 0.028 0.296 0.071 0.621 0.014 0.903-0.466 2.187-0.959 4.374-1.453 6.575-1.044 0-1.933 0-2.921 0 0.353-1.538 0.691-2.963 1.030-4.388 0.113-0.508 0.226-1.016 0.353-1.524 0.127-0.564 0.212-1.129-0.268-1.58-0.367-0.367-0.861-0.353-1.82 0.014-0.564 2.469-1.143 4.952-1.721 7.464-0.988 0-1.877 0-2.907 0 0.339-1.411 0.649-2.709 0.945-4.007 0.155-0.72 0.353-1.439 0.423-2.159 0.127-1.354-0.169-1.623-1.524-1.58-0.226 0.028-0.423 0.085-0.762 0.127z"></path>
<path d="M28.078 22.377c-0.353-0.72-0.705-1.439-1.143-2.328-0.451 0.677-0.832 1.199-1.171 1.75-0.296 0.494-0.677 0.748-1.27 0.705-0.635-0.028-1.27-0.014-2.116-0.014 0.663-1.030 1.199-1.862 1.735-2.681 0.536-0.832 1.086-1.665 1.651-2.511-0.748-1.679-1.481-3.33-2.272-5.122 1.044 0 1.947 0 2.907 0 0.353 0.72 0.705 1.453 1.157 2.37 0.621-0.875 1.129-1.608 1.679-2.399 0.875 0 1.764 0 2.78 0-0.155 0.325-0.24 0.593-0.395 0.818-0.564 0.875-1.143 1.735-1.721 2.596-1.326 2.004-1.284 1.439-0.325 3.598 0.451 1.030 0.903 2.046 1.411 3.217-0.988 0-1.848 0-2.907 0z"></path>
<path d="M22.011 12.162c-0.832 3.499-1.637 6.857-2.455 10.243-0.988 0-1.877 0-2.935 0 0.818-3.457 1.608-6.815 2.427-10.243 0.917 0 1.792 0 2.963 0z"></path>
<path d="M20.021 7.944c0.974 0 1.877 0 2.921 0-0.183 0.705-0.353 1.312-0.522 1.947-0.974 0-1.862 0-2.935 0 0.198-0.72 0.367-1.326 0.536-1.947z"></path>
</svg>
