<!-- Generated by IcoMoon.io -->
<svg version="1.1" xmlns="http://www.w3.org/2000/svg" width="32" height="32" viewBox="0 0 32 32">
<title>MKR</title>
<path d="M30.462 6.674c-0.339 0.268-0.635 0.48-0.931 0.705-2.892 2.229-5.785 4.444-8.691 6.674-0.607 0.466-1.199 0.931-1.806 1.383-0.183 0.141-0.254 0.282-0.254 0.522 0.014 3.598 0 7.196 0.014 10.808 0 0.296-0.071 0.55-0.31 0.734-0.226 0.169-0.494 0.212-0.762 0.085-0.282-0.127-0.423-0.353-0.451-0.649-0.014-0.085 0-0.169 0-0.254 0-3.739 0-7.492 0-11.231 0-0.437 0.155-0.72 0.494-0.988 4.261-3.259 8.508-6.533 12.755-9.806 0.099-0.071 0.183-0.141 0.282-0.212 0.508-0.339 1.143-0.042 1.199 0.564 0.014 0.085 0 0.169 0 0.254 0 7.153 0 14.307 0 21.46 0 0.31-0.056 0.578-0.296 0.762s-0.508 0.226-0.79 0.085c-0.282-0.127-0.423-0.353-0.437-0.663-0.014-0.198 0-0.381 0-0.578 0-6.42 0-12.854 0-19.273-0.014-0.085-0.014-0.198-0.014-0.381z"></path>
<path d="M1.524 6.688c0 0.198 0 0.296 0 0.409 0 6.504 0 13.023 0 19.527 0 0.155 0 0.325-0.042 0.48-0.085 0.353-0.437 0.593-0.776 0.564-0.353-0.028-0.663-0.339-0.691-0.691-0.014-0.099 0-0.198 0-0.31-0.014-7.125-0.014-14.25-0.014-21.376 0-0.071 0-0.141 0-0.198 0-0.31 0.141-0.536 0.409-0.677s0.536-0.127 0.79 0.071c0.818 0.635 1.651 1.256 2.469 1.891 3.541 2.723 7.083 5.446 10.624 8.169 0.296 0.226 0.423 0.508 0.423 0.861 0 3.781 0 7.563 0 11.33 0 0.028 0 0.071 0 0.099-0.028 0.48-0.367 0.847-0.776 0.832-0.451-0.014-0.734-0.353-0.734-0.861 0-3.612 0-7.224 0-10.836 0-0.24-0.071-0.395-0.268-0.55-3.203-2.441-6.406-4.91-9.608-7.365-0.508-0.381-1.002-0.776-1.51-1.157-0.071-0.056-0.155-0.113-0.296-0.212z"></path>
</svg>
