<?xml version="1.0" encoding="utf-8"?>
<!-- Generator: Adobe Illustrator 22.1.0, SVG Export Plug-In . SVG Version: 6.00 Build 0)  -->
<svg version="1.1" id="Layer_1" xmlns="http://www.w3.org/2000/svg" xmlns:xlink="http://www.w3.org/1999/xlink" x="0px" y="0px"
	 viewBox="0 0 226.8 226.8" style="enable-background:new 0 0 226.8 226.8;" xml:space="preserve">
<g>
	<path d="M215.9,47.3c-2.4,1.9-4.5,3.4-6.6,5c-20.5,15.8-41,31.5-61.6,47.3c-4.3,3.3-8.5,6.6-12.8,9.8c-1.3,1-1.8,2-1.8,3.7
		c0.1,25.5,0,51,0.1,76.6c0,2.1-0.5,3.9-2.2,5.2c-1.6,1.2-3.5,1.5-5.4,0.6c-2-0.9-3-2.5-3.2-4.6c-0.1-0.6,0-1.2,0-1.8
		c0-26.5,0-53.1,0-79.6c0-3.1,1.1-5.1,3.5-7c30.2-23.1,60.3-46.3,90.4-69.5c0.7-0.5,1.3-1,2-1.5c3.6-2.4,8.1-0.3,8.5,4
		c0.1,0.6,0,1.2,0,1.8c0,50.7,0,101.4,0,152.1c0,2.2-0.4,4.1-2.1,5.4c-1.7,1.3-3.6,1.6-5.6,0.6c-2-0.9-3-2.5-3.1-4.7
		c-0.1-1.4,0-2.7,0-4.1c0-45.5,0-91.1,0-136.6C215.9,49.4,215.9,48.6,215.9,47.3z"/>
	<path d="M10.8,47.4c0,1.4,0,2.1,0,2.9c0,46.1,0,92.3,0,138.4c0,1.1,0,2.3-0.3,3.4c-0.6,2.5-3.1,4.2-5.5,4c-2.5-0.2-4.7-2.4-4.9-4.9
		c-0.1-0.7,0-1.4,0-2.2C0,138.5,0,88,0,37.5c0-0.5,0-1,0-1.4c0-2.2,1-3.8,2.9-4.8c1.9-1,3.8-0.9,5.6,0.5c5.8,4.5,11.7,8.9,17.5,13.4
		c25.1,19.3,50.2,38.6,75.3,57.9c2.1,1.6,3,3.6,3,6.1c0,26.8,0,53.6,0,80.3c0,0.2,0,0.5,0,0.7c-0.2,3.4-2.6,6-5.5,5.9
		c-3.2-0.1-5.2-2.5-5.2-6.1c0-25.6,0-51.2,0-76.8c0-1.7-0.5-2.8-1.9-3.9C69,92,46.3,74.5,23.6,57.1c-3.6-2.7-7.1-5.5-10.7-8.2
		C12.4,48.5,11.8,48.1,10.8,47.4z"/>
</g>
</svg>
