<?xml version="1.0" encoding="utf-8"?>
<!-- Generator: Adobe Illustrator 22.0.1, SVG Export Plug-In . SVG Version: 6.00 Build 0)  -->
<svg version="1.1" id="Layer_1" xmlns="http://www.w3.org/2000/svg" xmlns:xlink="http://www.w3.org/1999/xlink" x="0px" y="0px"
	 viewBox="0 0 226.8 226.8" style="enable-background:new 0 0 226.8 226.8;" xml:space="preserve">
<g transform="translate(-195.41)">
	<path d="M233.9,147.9l-1.1-2l13.3-7.6l1.1,2L233.9,147.9z M380.4,147.6l-13.3-7.7l1.1-2l13.3,7.7L380.4,147.6z"/>
	<path d="M307.4,0.2l-89.3,50.9v103.9l69,40.2l-0.3-16.9l-54.8-32.1V69l68.4,38.6v113.3l7.8,4.1l7.1-4.1V107.6l68-38.6v77.2
		l-54.5,31.4v16.9l69.4-38.8V51.1L307.4,0.2z M308.1,95.4l-67.4-39l66.7-39.6l68.3,38.9L308.1,95.4z"/>
	<path d="M358.8,135.1l-13.4-7.7l1.1-2l13.4,7.7L358.8,135.1z M256.4,135l-1.1-2l13.4-7.6l1.1,2L256.4,135z M336.2,121.9l-13.3-7.7
		l1.1-2l13.3,7.7L336.2,121.9z M279.8,121.6l-1.1-2L292,112l1.1,2L279.8,121.6z M308.7,85.6h-2.3V70.3h2.3V85.6z M308.9,58.9h-2.3
		V43.5h2.3V58.9z M308.9,33.3h-2.3V17.9h2.3V33.3z"/>
</g>
</svg>
