<!-- Generated by IcoMoon.io -->
<svg version="1.1" xmlns="http://www.w3.org/2000/svg" width="32" height="32" viewBox="0 0 32 32">
<title>MLN</title>
<path d="M5.431 20.868l-0.155-0.282 1.877-1.072 0.155 0.282-1.877 1.072zM26.101 20.825l-1.877-1.086 0.155-0.282 1.877 1.086-0.155 0.282z"></path>
<path d="M15.801 0.028l-12.6 7.182v14.66l9.735 5.672-0.042-2.384-7.732-4.529v-10.892l9.651 5.446v15.986l1.101 0.578 1.002-0.578v-15.986l9.594-5.446v10.892l-7.69 4.43v2.384l9.792-5.474v-14.758l-12.811-7.182zM15.9 13.46l-9.51-5.503 9.411-5.587 9.637 5.489-9.538 5.601z"></path>
<path d="M23.053 19.062l-1.891-1.086 0.155-0.282 1.891 1.086-0.155 0.282zM8.605 19.048l-0.155-0.282 1.891-1.072 0.155 0.282-1.891 1.072zM19.865 17.199l-1.877-1.086 0.155-0.282 1.877 1.086-0.155 0.282zM11.907 17.157l-0.155-0.282 1.877-1.072 0.155 0.282-1.877 1.072zM15.984 12.078h-0.325v-2.159h0.325v2.159zM16.013 8.31h-0.325v-2.173h0.325v2.173zM16.013 4.698h-0.325v-2.173h0.325v2.173z"></path>
</svg>
