<?xml version="1.0" encoding="utf-8"?>
<!-- Generator: Adobe Illustrator 22.0.1, SVG Export Plug-In . SVG Version: 6.00 Build 0)  -->
<svg version="1.1" id="Layer_1" xmlns="http://www.w3.org/2000/svg" xmlns:xlink="http://www.w3.org/1999/xlink" x="0px" y="0px"
	 viewBox="0 0 250 250" style="enable-background:new 0 0 250 250;" xml:space="preserve">
<style type="text/css">
	.st0{display:none;stroke:#FFFFFF;stroke-miterlimit:10;}
	.st1{stroke:#FFFFFF;stroke-miterlimit:10;}
</style>
<g transform="translate(-1.3-1)">
	<path class="st0" d="M1.3,1.4h246.1v246.1H1.3V1.4z"/>
</g>
<title>mnx</title>
<path class="st1" d="M113.2,207.2c-39.9-5.8-70.5-40.2-70.5-81.7s30.6-75.9,70.5-81.7v-43C49.7,6.8,0,60.3,0,125.4
	s49.7,118.7,113.2,124.7V207.2z M138,43.8c35.6,5.5,63.7,33.6,69,69.3h43C244.2,53.8,197.2,6.7,138,0.8V43.8z M207,137.8
	c-5.3,35.6-33.4,63.8-69,69.3v43c59.2-5.9,106.2-53.1,112-112.3L207,137.8z"/>
</svg>
