<!-- Generated by IcoMoon.io -->
<svg version="1.1" xmlns="http://www.w3.org/2000/svg" width="32" height="32" viewBox="0 0 32 32">
<title>MOBI</title>
<path d="M14.377 18.554c-0.212 0.198-0.437 0.423-0.677 0.621-0.282 0.24-0.55 0.48-0.847 0.691-1.524 1.115-3.203 1.877-5.065 2.173-1.242 0.198-2.483 0.212-3.711-0.155-0.705-0.212-1.397-0.437-2.004-0.861-1.072-0.734-1.75-1.721-1.975-3.019-0.169-0.931-0.127-1.877 0.113-2.78 0.212-0.79 0.423-1.623 0.974-2.286 0.296-0.367 0.635-0.72 0.974-1.058 0.649-0.621 1.397-1.086 2.272-1.312 0.508-0.127 1.030-0.212 1.552-0.24 1.764-0.099 3.471 0.268 5.108 0.889 1.242 0.48 2.469 0.974 3.668 1.538 0.875 0.409 1.679 0.917 2.526 1.369 0.381 0.198 0.353 0.268 0.762-0.099 0.508-0.466 1.072-0.875 1.665-1.242 0.621-0.395 1.27-0.762 1.947-1.072 0.847-0.381 1.75-0.649 2.681-0.776 0.48-0.071 0.974-0.155 1.467-0.141 1.030 0.014 2.032 0.183 2.991 0.564 0.847 0.325 1.58 0.79 2.187 1.453 0.522 0.578 0.818 1.27 0.945 2.032 0.169 1.044 0.056 2.088-0.282 3.090-0.437 1.34-1.199 2.469-2.258 3.386-0.268 0.226-0.578 0.409-0.889 0.564-1.34 0.663-2.751 0.889-4.219 0.663-0.691-0.113-1.397-0.198-2.074-0.409-0.861-0.268-1.721-0.593-2.54-0.974-1.326-0.621-2.624-1.298-3.937-1.947-0.437-0.212-0.875-0.437-1.354-0.663zM12.67 17.58c-0.776-0.437-1.467-0.847-2.187-1.213-1.199-0.607-2.427-1.185-3.654-1.735-0.945-0.423-1.961-0.451-2.977-0.296-1.072 0.155-1.891 0.804-2.582 1.608-0.113 0.141-0.141 0.282-0.028 0.409 0.24 0.282 0.452 0.607 0.748 0.79 0.536 0.353 1.101 0.663 1.679 0.931 0.861 0.395 1.792 0.522 2.723 0.578 0.649 0.042 1.312-0.056 1.961-0.141 1.284-0.155 2.554-0.409 3.824-0.734 0.141-0.042 0.268-0.113 0.494-0.198zM19.57 15.379c0.085 0.056 0.127 0.113 0.183 0.141 1.185 0.593 2.356 1.227 3.556 1.778 0.762 0.353 1.566 0.621 2.384 0.861 0.705 0.212 1.439 0.254 2.173 0.212 0.55-0.028 1.086-0.099 1.538-0.437 0.437-0.325 0.931-0.564 1.284-0.988 0.198-0.24 0.212-0.296 0.028-0.508-0.042-0.042-0.085-0.099-0.127-0.141-0.705-0.762-1.608-1.199-2.582-1.524-1.185-0.395-2.384-0.536-3.626-0.353-0.593 0.085-1.171 0.155-1.764 0.24-1.002 0.155-2.032 0.31-3.048 0.72z"></path>
</svg>
