<?xml version="1.0" encoding="utf-8"?>
<!-- Generator: Adobe Illustrator 22.1.0, SVG Export Plug-In . SVG Version: 6.00 Build 0)  -->
<svg version="1.1" id="Layer_1" xmlns="http://www.w3.org/2000/svg" xmlns:xlink="http://www.w3.org/1999/xlink" x="0px" y="0px"
	 viewBox="0 0 226.8 226.8" style="enable-background:new 0 0 226.8 226.8;" xml:space="preserve">
<g>
	<path d="M101.9,131.5c-1.5,1.4-3.1,3-4.8,4.4c-2,1.7-3.9,3.4-6,4.9c-10.8,7.9-22.7,13.3-35.9,15.4c-8.8,1.4-17.6,1.5-26.3-1.1
		c-5-1.5-9.9-3.1-14.2-6.1c-7.6-5.2-12.4-12.2-14-21.4c-1.2-6.6-0.9-13.3,0.8-19.7c1.5-5.6,3-11.5,6.9-16.2c2.1-2.6,4.5-5.1,6.9-7.5
		c4.6-4.4,9.9-7.7,16.1-9.3c3.6-0.9,7.3-1.5,11-1.7c12.5-0.7,24.6,1.9,36.2,6.3c8.8,3.4,17.5,6.9,26,10.9c6.2,2.9,11.9,6.5,17.9,9.7
		c2.7,1.4,2.5,1.9,5.4-0.7c3.6-3.3,7.6-6.2,11.8-8.8c4.4-2.8,9-5.4,13.8-7.6c6-2.7,12.4-4.6,19-5.5c3.4-0.5,6.9-1.1,10.4-1
		c7.3,0.1,14.4,1.3,21.2,4c6,2.3,11.2,5.6,15.5,10.3c3.7,4.1,5.8,9,6.7,14.4c1.2,7.4,0.4,14.8-2,21.9c-3.1,9.5-8.5,17.5-16,24
		c-1.9,1.6-4.1,2.9-6.3,4c-9.5,4.7-19.5,6.3-29.9,4.7c-4.9-0.8-9.9-1.4-14.7-2.9c-6.1-1.9-12.2-4.2-18-6.9
		c-9.4-4.4-18.6-9.2-27.9-13.8C108.4,134.7,105.3,133.1,101.9,131.5z M89.8,124.6c-5.5-3.1-10.4-6-15.5-8.6
		c-8.5-4.3-17.2-8.4-25.9-12.3c-6.7-3-13.9-3.2-21.1-2.1c-7.6,1.1-13.4,5.7-18.3,11.4c-0.8,1-1,2-0.2,2.9c1.7,2,3.2,4.3,5.3,5.6
		c3.8,2.5,7.8,4.7,11.9,6.6c6.1,2.8,12.7,3.7,19.3,4.1c4.6,0.3,9.3-0.4,13.9-1c9.1-1.1,18.1-2.9,27.1-5.2
		C87.3,125.7,88.2,125.2,89.8,124.6z M138.7,109c0.6,0.4,0.9,0.8,1.3,1c8.4,4.2,16.7,8.7,25.2,12.6c5.4,2.5,11.1,4.4,16.9,6.1
		c5,1.5,10.2,1.8,15.4,1.5c3.9-0.2,7.7-0.7,10.9-3.1c3.1-2.3,6.6-4,9.1-7c1.4-1.7,1.5-2.1,0.2-3.6c-0.3-0.3-0.6-0.7-0.9-1
		c-5-5.4-11.4-8.5-18.3-10.8c-8.4-2.8-16.9-3.8-25.7-2.5c-4.2,0.6-8.3,1.1-12.5,1.7C153.2,105,145.9,106.1,138.7,109z"/>
</g>
</svg>
