<!-- Generated by IcoMoon.io -->
<svg version="1.1" xmlns="http://www.w3.org/2000/svg" width="32" height="32" viewBox="0 0 32 32">
<title>MONA</title>
<path d="M15.938 21.144l1.721-2.907h-3.375z"></path>
<path d="M28.056 11.634l-2.288-10.248-4.469 7.052c-1.658-0.406-3.44-0.629-5.296-0.629s-3.638 0.223-5.296 0.629l-4.469-7.052-2.288 10.248c-2.458 1.963-3.951 4.531-3.951 7.342 0 6.167 7.165 11.167 16.004 11.167s16.004-5 16.004-11.167c0-2.811-1.493-5.379-3.951-7.342zM7.104 16.328h-1.075l2.602-2.999h1.908l-3.435 2.999zM15.916 23.651l-4.428-7.784 1.093-0.622 0.987 1.734h4.837l1.032-1.743 1.083 0.641-4.603 7.775zM24.902 16.328l-3.435-2.999h1.908l2.602 2.999h-1.075z"></path>
</svg>
