<?xml version="1.0" encoding="utf-8"?>
<!-- Generator: Adobe Illustrator 22.1.0, SVG Export Plug-In . SVG Version: 6.00 Build 0)  -->
<svg version="1.1" id="Layer_1" xmlns="http://www.w3.org/2000/svg" xmlns:xlink="http://www.w3.org/1999/xlink" x="0px" y="0px"
	 viewBox="0 0 226.8 226.8" style="enable-background:new 0 0 226.8 226.8;" xml:space="preserve">
<g>
	<path d="M0,170.6c10.9-12.7,21.9-25.4,32.9-38.4c4.8,2.6,9.2,5,13.9,7.6c18.5-19.6,36.7-39.1,55.5-59c4.4,5.1,8.8,9.5,12.4,14.5
		c3.1,4.3,6.5,5.6,11.2,3.7c4.9-2,8.1-0.6,11.1,3.7c5.2,7.4,11,14.4,16.6,21.4c4,5,8.1,5.4,12.8,1c8.6-8,17.1-16.1,26.1-24.6
		c11.6,15.3,22.9,30.2,34.2,45.2c-0.4,0.3-0.7,0.6-1.1,0.9c-10.9-12-21.7-24.1-33.1-36.7c-5.8,6.3-11.4,12-16.4,18.1
		c-1.1,1.3-0.9,4.3-0.3,6.3c3.2,12.4,6.6,24.7,9.1,37.6c-4.6-5.5-9.2-11-13.8-16.5c-11.6-13.9-23.1-27.9-34.9-41.6
		c-1.8-2-5.4-4-7.8-3.6c-4.2,0.8-6.5-0.8-9-3.6c-5.3-5.9-10.8-11.6-17.3-18.5c-11.3,32.7-22.2,64.3-33,95.9c-0.4,0-0.7,0-1.1,0
		c-0.9-8.2-1.5-16.4-2.9-24.5c-0.4-2.6-2.6-5.7-4.8-6.9c-6-3.3-12.7-5.6-18.9-8.7c-3.6-1.8-6.1-1-9,1.4c-10.4,8.8-21,17.3-31.6,26
		C0.6,171.2,0.3,170.9,0,170.6z"/>
	<path d="M102.2,60.6c-1.8-2.8-4.7-5.3-5.2-8.3c-0.7-4.3,2.4-7.1,6.7-7.1c4.7-0.1,7.9,3,7.1,7.4c-0.5,2.9-3.7,5.4-5.7,8
		C104.2,60.6,103.2,60.6,102.2,60.6z"/>
	<path d="M71.5,76.5c-2,1.4-4.6,4.4-7.6,4.9c-4.1,0.7-7.2-2.3-7.2-6.8c0-4.5,2.6-7,7.1-7.1C68.3,67.4,70.6,70.1,71.5,76.5z"/>
	<path d="M136.4,76.5c0.8-6.3,2.9-9.2,7.5-9.1c4.5,0.1,7,2.7,7,7.1c0,4.6-2.9,7.5-7.1,6.8C140.9,80.9,138.4,77.9,136.4,76.5z"/>
</g>
</svg>
