<!-- Generated by IcoMoon.io -->
<svg version="1.1" xmlns="http://www.w3.org/2000/svg" width="32" height="32" viewBox="0 0 32 32">
<title>MOT</title>
<path d="M0 24.071c1.538-1.792 3.090-3.584 4.642-5.418 0.677 0.367 1.298 0.705 1.961 1.072 2.61-2.765 5.178-5.517 7.831-8.325 0.621 0.72 1.242 1.34 1.75 2.046 0.437 0.607 0.917 0.79 1.58 0.522 0.691-0.282 1.143-0.085 1.566 0.522 0.734 1.044 1.552 2.032 2.342 3.019 0.564 0.705 1.143 0.762 1.806 0.141 1.213-1.129 2.413-2.272 3.683-3.471 1.637 2.159 3.231 4.261 4.825 6.377-0.056 0.042-0.099 0.085-0.155 0.127-1.538-1.693-3.062-3.4-4.67-5.178-0.818 0.889-1.608 1.693-2.314 2.554-0.155 0.183-0.127 0.607-0.042 0.889 0.451 1.75 0.931 3.485 1.284 5.305-0.649-0.776-1.298-1.552-1.947-2.328-1.637-1.961-3.259-3.936-4.924-5.87-0.254-0.282-0.762-0.564-1.101-0.508-0.593 0.113-0.917-0.113-1.27-0.508-0.748-0.832-1.524-1.637-2.441-2.61-1.594 4.614-3.132 9.072-4.656 13.531-0.056 0-0.099 0-0.155 0-0.127-1.157-0.212-2.314-0.409-3.457-0.056-0.367-0.367-0.804-0.677-0.974-0.847-0.466-1.792-0.79-2.667-1.227-0.508-0.254-0.861-0.141-1.27 0.198-1.467 1.242-2.963 2.441-4.459 3.668-0.028-0.014-0.071-0.056-0.113-0.099z"></path>
<path d="M14.42 8.55c-0.254-0.395-0.663-0.748-0.734-1.171-0.099-0.607 0.339-1.002 0.945-1.002 0.663-0.014 1.115 0.423 1.002 1.044-0.071 0.409-0.522 0.762-0.804 1.129-0.127 0-0.268 0-0.409 0z"></path>
<path d="M10.088 10.794c-0.282 0.198-0.649 0.621-1.072 0.691-0.578 0.099-1.016-0.325-1.016-0.959s0.367-0.988 1.002-1.002c0.635-0.014 0.959 0.367 1.086 1.27z"></path>
<path d="M19.245 10.794c0.113-0.889 0.409-1.298 1.058-1.284 0.635 0.014 0.988 0.381 0.988 1.002 0 0.649-0.409 1.058-1.002 0.959-0.409-0.056-0.762-0.48-1.044-0.677z"></path>
</svg>
