<!-- Generated by IcoMoon.io -->
<svg version="1.1" xmlns="http://www.w3.org/2000/svg" width="32" height="32" viewBox="0 0 32 32">
<title>MRC</title>
<path d="M16.001 0c-8.837 0-16.001 7.164-16.001 16.001s7.164 16.001 16.001 16.001c8.837 0 16.001-7.164 16.001-16.001s-7.164-16.001-16.001-16.001zM22.172 12.094c-1.296-2.041-3.574-3.397-6.171-3.397-4.034 0-7.305 3.27-7.305 7.305 0 2.833 1.614 5.288 3.972 6.499v-9.685h1.918v4.954c0.018 0.267 0.18 1.473 1.633 1.473 1.308 0 1.445-1.239 1.456-1.619l-0-4.809h1.918v4.83c-0.020 1.421-0.934 3.516-3.374 3.516-0.645 0-1.185-0.131-1.633-0.346v2.353c0.458 0.090 0.931 0.138 1.415 0.138 2.396 0 4.523-1.154 5.855-2.936l4.397 3.252c-2.328 3.127-6.053 5.153-10.252 5.153-7.055 0-12.774-5.719-12.774-12.774s5.719-12.774 12.774-12.774c4.512 0 8.474 2.341 10.747 5.873l-4.576 2.994z"></path>
</svg>
