<!-- Generated by IcoMoon.io -->
<svg version="1.1" xmlns="http://www.w3.org/2000/svg" width="32" height="32" viewBox="0 0 32 32">
<title>MRK</title>
<path d="M23.351 20.684c-0.381 0.55-0.663 0.974-0.945 1.383-1.086 1.58-2.173 3.146-3.259 4.727-0.889 1.298-1.764 2.596-2.653 3.88-0.423 0.607-0.494 0.607-0.917-0.014-1.369-1.975-2.737-3.965-4.106-5.954-0.776-1.129-1.538-2.258-2.328-3.386-0.113-0.169-0.296-0.282-0.451-0.409-0.099 0.183-0.24 0.339-0.296 0.536-0.593 2.116-1.171 4.233-1.764 6.349-0.339 1.213-0.691 2.413-1.030 3.626-0.099 0.353-0.31 0.55-0.663 0.564-0.423 0.014-0.861 0.014-1.284-0.014-0.522-0.042-0.691-0.254-0.578-0.762 0.141-0.663 0.325-1.312 0.508-1.961 0.832-2.991 1.679-5.982 2.511-8.974 0.183-0.635 0.395-1.256 0.522-1.905 0.056-0.296-0.014-0.677-0.169-0.917-1.552-2.3-3.16-4.557-4.727-6.843-0.748-1.072-1.481-2.13-1.665-3.471-0.24-1.82 0.226-3.443 1.355-4.868 1.213-1.524 2.864-2.243 4.769-2.272 1.524-0.014 2.921 0.466 4.092 1.51 1.637 1.453 2.342 3.302 2.088 5.46-0.099 0.889-0.409 1.764-0.649 2.638-0.691 2.469-1.397 4.924-2.060 7.407-0.071 0.254-0.014 0.607 0.127 0.832 0.748 1.129 1.538 2.229 2.3 3.344 0.903 1.312 1.806 2.638 2.709 3.965 0.296 0.423 0.593 0.832 0.889 1.256 0.254 0.381 0.409 0.395 0.691 0.014 0.353-0.494 0.691-1.002 1.044-1.51 1.27-1.848 2.526-3.711 3.795-5.559 0.325-0.48 0.705-0.917 0.988-1.425 0.155-0.268 0.254-0.663 0.183-0.959-0.409-1.594-0.875-3.189-1.312-4.783-0.451-1.623-0.988-3.231-1.326-4.882-0.339-1.623 0.014-3.189 0.974-4.586 1.58-2.3 4.374-3.245 7.026-2.413 3.739 1.171 5.757 5.827 3.132 9.524-1.34 1.891-2.624 3.81-3.922 5.714-0.451 0.663-0.945 1.312-1.383 2.004-0.127 0.212-0.198 0.536-0.141 0.776 0.861 3.118 1.75 6.236 2.624 9.354 0.325 1.129 0.621 2.258 0.931 3.386 0.155 0.564-0.085 0.917-0.663 0.945-0.282 0.014-0.564 0-0.847 0-0.762 0-0.931-0.141-1.129-0.889-0.395-1.453-0.79-2.907-1.199-4.346-0.48-1.764-0.974-3.527-1.467-5.291-0.056-0.24-0.169-0.437-0.325-0.804zM29.474 6.293c0.028-2.032-1.524-3.781-3.767-3.753-2.201 0.028-4.007 2.243-3.471 4.346 0.635 2.441 1.326 4.882 2.004 7.309 0.028 0.113 0.141 0.226 0.24 0.268 0.056 0.014 0.198-0.099 0.254-0.183 1.34-1.947 2.667-3.894 4.007-5.841 0.48-0.691 0.776-1.425 0.734-2.145zM6.18 2.554c-2.356 0.028-4.092 2.159-3.513 4.43 0.183 0.734 0.621 1.411 1.044 2.046 1.143 1.75 2.356 3.471 3.541 5.192 0.071 0.113 0.226 0.155 0.339 0.24 0.085-0.127 0.198-0.226 0.226-0.367 0.649-2.3 1.298-4.614 1.933-6.914 0.649-2.356-1.143-4.656-3.57-4.628z"></path>
</svg>
