<?xml version="1.0" encoding="utf-8"?>
<!-- Generator: Adobe Illustrator 22.1.0, SVG Export Plug-In . SVG Version: 6.00 Build 0)  -->
<svg version="1.1" id="Layer_1" xmlns="http://www.w3.org/2000/svg" xmlns:xlink="http://www.w3.org/1999/xlink" x="0px" y="0px"
	 viewBox="0 0 226.8 226.8" style="enable-background:new 0 0 226.8 226.8;" xml:space="preserve">
<g>
	<path d="M165.5,146.6c-2.7,3.9-4.7,6.9-6.7,9.8c-7.7,11.2-15.4,22.3-23.1,33.5c-6.3,9.2-12.5,18.4-18.8,27.5
		c-3,4.3-3.5,4.3-6.5-0.1c-9.7-14-19.4-28.1-29.1-42.2c-5.5-8-10.9-16-16.5-24c-0.8-1.2-2.1-2-3.2-2.9c-0.7,1.3-1.7,2.4-2.1,3.8
		c-4.2,15-8.3,30-12.5,45c-2.4,8.6-4.9,17.1-7.3,25.7c-0.7,2.5-2.2,3.9-4.7,4c-3,0.1-6.1,0.1-9.1-0.1c-3.7-0.3-4.9-1.8-4.1-5.4
		c1-4.7,2.3-9.3,3.6-13.9c5.9-21.2,11.9-42.4,17.8-63.6c1.3-4.5,2.8-8.9,3.7-13.5c0.4-2.1-0.1-4.8-1.2-6.5
		c-11-16.3-22.4-32.3-33.5-48.5C6.9,67.6,1.7,60.1,0.4,50.6C-1.3,37.7,2,26.2,10,16.1C18.6,5.3,30.3,0.2,43.8,0
		c10.8-0.1,20.7,3.3,29,10.7C84.4,21,89.4,34.1,87.6,49.4c-0.7,6.3-2.9,12.5-4.6,18.7c-4.9,17.5-9.9,34.9-14.6,52.5
		c-0.5,1.8-0.1,4.3,0.9,5.9c5.3,8,10.9,15.8,16.3,23.7c6.4,9.3,12.8,18.7,19.2,28.1c2.1,3,4.2,5.9,6.3,8.9c1.8,2.7,2.9,2.8,4.9,0.1
		c2.5-3.5,4.9-7.1,7.4-10.7c9-13.1,17.9-26.3,26.9-39.4c2.3-3.4,5-6.5,7-10.1c1.1-1.9,1.8-4.7,1.3-6.8c-2.9-11.3-6.2-22.6-9.3-33.9
		c-3.2-11.5-7-22.9-9.4-34.6c-2.4-11.5,0.1-22.6,6.9-32.5c11.2-16.3,31-23,49.8-17.1c26.5,8.3,40.8,41.3,22.2,67.5
		c-9.5,13.4-18.6,27-27.8,40.5c-3.2,4.7-6.7,9.3-9.8,14.2c-0.9,1.5-1.4,3.8-1,5.5c6.1,22.1,12.4,44.2,18.6,66.3c2.3,8,4.4,16,6.6,24
		c1.1,4-0.6,6.5-4.7,6.7c-2,0.1-4,0-6,0c-5.4,0-6.6-1-8-6.3c-2.8-10.3-5.6-20.6-8.5-30.8c-3.4-12.5-6.9-25-10.4-37.5
		C167.4,150.6,166.6,149.2,165.5,146.6z M208.9,44.6c0.2-14.4-10.8-26.8-26.7-26.6c-15.6,0.2-28.4,15.9-24.6,30.8
		c4.5,17.3,9.4,34.6,14.2,51.8c0.2,0.8,1,1.6,1.7,1.9c0.4,0.1,1.4-0.7,1.8-1.3c9.5-13.8,18.9-27.6,28.4-41.4
		C207.1,54.9,209.2,49.7,208.9,44.6z M43.8,18.1c-16.7,0.2-29,15.3-24.9,31.4c1.3,5.2,4.4,10,7.4,14.5c8.1,12.4,16.7,24.6,25.1,36.8
		c0.5,0.8,1.6,1.1,2.4,1.7c0.6-0.9,1.4-1.6,1.6-2.6c4.6-16.3,9.2-32.7,13.7-49C73.7,34.2,61,17.9,43.8,18.1z"/>
</g>
</svg>
