<!-- Generated by IcoMoon.io -->
<svg version="1.1" xmlns="http://www.w3.org/2000/svg" width="32" height="32" viewBox="0 0 32 32">
<title>MSC</title>
<path d="M14.297 11.929l-3.212-7.15-11.090 21.403 8.062-1.758c-0.554-1.156-0.865-2.451-0.865-3.819 0-4.29 3.053-7.866 7.104-8.677zM32 26.183l-10.758-21.403-3.369 7.167c4.011 0.842 7.023 4.399 7.023 8.66 0 1.375-0.314 2.676-0.873 3.837l7.978 1.739z"></path>
<path d="M22.226 20.606c0 3.414-2.768 6.182-6.182 6.182s-6.182-2.768-6.182-6.182c0-3.414 2.768-6.182 6.182-6.182s6.182 2.768 6.182 6.182z"></path>
</svg>
