<!-- Generated by IcoMoon.io -->
<svg version="1.1" xmlns="http://www.w3.org/2000/svg" width="32" height="32" viewBox="0 0 32 32">
<title>MSP</title>
<path d="M4.501 11.626c-0.042 0.466-0.099 0.79-0.099 1.115 0 2.963 0 5.926-0.014 8.903 0 0.268-0.127 0.536-0.198 0.804-0.254-0.113-0.536-0.169-0.762-0.325-0.875-0.593-1.721-1.242-2.596-1.834-0.578-0.395-0.847-0.875-0.832-1.594 0.014-5.079 0-10.173 0.014-15.252 0-0.282 0.155-0.578 0.24-0.861 0.254 0.113 0.536 0.169 0.762 0.325 4.656 3.302 9.312 6.617 13.982 9.933 0.974 0.691 1.030 0.691 2.018 0 4.684-3.33 9.354-6.66 14.039-9.975 0.198-0.141 0.466-0.183 0.691-0.282 0.085 0.268 0.226 0.522 0.226 0.79 0.014 5.136 0 10.272 0.014 15.407 0 0.621-0.212 1.058-0.72 1.411-0.931 0.649-1.848 1.326-2.794 1.975-0.198 0.141-0.466 0.183-0.705 0.268-0.071-0.24-0.198-0.48-0.198-0.72-0.014-2.991 0-5.982-0.014-8.974 0-0.325-0.056-0.649-0.099-1.086-0.296 0.169-0.494 0.24-0.663 0.353-2.483 1.764-4.952 3.541-7.436 5.291-0.607 0.423-0.847 0.917-0.847 1.651 0.028 3.048-0.014 6.095 0.028 9.129 0.014 0.832-0.24 1.369-0.945 1.834-1.989 1.34-1.312 1.298-3.287 0-0.705-0.466-0.945-1.016-0.945-1.848 0.042-3.019 0-6.039 0.028-9.058 0.014-0.762-0.198-1.284-0.847-1.735-2.427-1.707-4.868-3.471-7.323-5.22-0.183-0.141-0.395-0.24-0.72-0.423z"></path>
</svg>
