<?xml version="1.0" encoding="utf-8"?>
<!-- Generator: Adobe Illustrator 22.1.0, SVG Export Plug-In . SVG Version: 6.00 Build 0)  -->
<svg version="1.1" id="Layer_1" xmlns="http://www.w3.org/2000/svg" xmlns:xlink="http://www.w3.org/1999/xlink" x="0px" y="0px"
	 viewBox="0 0 226.8 226.8" style="enable-background:new 0 0 226.8 226.8;" xml:space="preserve">
<g>
	<path d="M31.9,82.4c-0.3,3.3-0.7,5.6-0.7,7.9c0,21,0,42-0.1,63.1c0,1.9-0.9,3.8-1.4,5.7c-1.8-0.8-3.8-1.2-5.4-2.3
		c-6.2-4.2-12.2-8.8-18.4-13c-4.1-2.8-6-6.2-5.9-11.3c0.1-36,0-72.1,0.1-108.1c0-2,1.1-4.1,1.7-6.1c1.8,0.8,3.8,1.2,5.4,2.3
		c33,23.4,66,46.9,99.1,70.4c6.9,4.9,7.3,4.9,14.3,0c33.2-23.6,66.3-47.2,99.5-70.7c1.4-1,3.3-1.3,4.9-2c0.6,1.9,1.6,3.7,1.6,5.6
		c0.1,36.4,0,72.8,0.1,109.2c0,4.4-1.5,7.5-5.1,10c-6.6,4.6-13.1,9.4-19.8,14c-1.4,1-3.3,1.3-5,1.9c-0.5-1.7-1.4-3.4-1.4-5.1
		c-0.1-21.2,0-42.4-0.1-63.6c0-2.3-0.4-4.6-0.7-7.7c-2.1,1.2-3.5,1.7-4.7,2.5c-17.6,12.5-35.1,25.1-52.7,37.5c-4.3,3-6,6.5-6,11.7
		c0.2,21.6-0.1,43.2,0.2,64.7c0.1,5.9-1.7,9.7-6.7,13c-14.1,9.5-9.3,9.2-23.3,0c-5-3.3-6.7-7.2-6.7-13.1c0.3-21.4,0-42.8,0.2-64.2
		c0.1-5.4-1.4-9.1-6-12.3C71.7,110.3,54.4,97.8,37,85.4C35.7,84.4,34.2,83.7,31.9,82.4z"/>
</g>
</svg>
