<!-- Generated by IcoMoon.io -->
<svg version="1.1" xmlns="http://www.w3.org/2000/svg" width="32" height="32" viewBox="0 0 32 32">
<title>MTC</title>
<path d="M22.942 18.215c0.212-1.369-0.353-2.173-1.665-2.384-0.508-0.085-1.016-0.099-1.524-0.113-1.369-0.014-2.723 0-4.092-0.014-0.325 0-0.48 0.099-0.536 0.423-0.522 3.217-2.624 4.91-5.587 5.742-1.961 0.55-3.979 0.593-5.996 0.621-0.818 0.014-1.623-0.014-2.441 0-0.367 0.014-0.508-0.113-0.494-0.494 0.028-0.79 0.028-1.594 0-2.384-0.014-0.226-0.099-0.48-0.226-0.663-0.536-0.762-0.452-1.792 0.226-2.413 0.649-0.607 1.693-0.621 2.384-0.056 0.705 0.593 0.847 1.608 0.325 2.399-0.056 0.085-0.141 0.155-0.183 0.254-0.254 0.522-0.028 0.875 0.536 0.889 2.004 0.028 3.993-0.028 5.912-0.72 2.681-0.974 3.541-2.878 3.302-5.446-0.254-2.836-1.608-4.176-4.515-4.811-1.623-0.353-3.259-0.367-4.91-0.339-0.423 0.014-0.55 0.593-0.212 1.072 0.353 0.494 0.494 1.002 0.325 1.594-0.24 0.776-0.776 1.199-1.552 1.326-0.649 0.099-1.411-0.282-1.735-0.889-0.367-0.677-0.325-1.34 0.113-2.004 0.127-0.183 0.212-0.437 0.226-0.663 0.028-0.79 0.028-1.594 0-2.384-0.014-0.353 0.113-0.466 0.466-0.452 2.258 0.085 4.529 0.042 6.787 0.254 2.215 0.212 4.275 0.959 5.827 2.709 0.903 1.030 1.383 2.258 1.552 3.598 0.042 0.367 0.169 0.48 0.522 0.48 1.524-0.014 3.048-0.014 4.571 0 1.016 0.014 2.004 0.198 2.921 0.663 1.481 0.748 2.201 1.975 2.3 3.612 0.014 0.226-0.169 0.593 0.254 0.649 0.381 0.042 0.72 0.085 0.974-0.381 0.649-1.199 1.905-1.707 3.146-1.369 1.27 0.353 2.102 1.425 2.116 2.723 0 1.284-0.832 2.384-2.131 2.695-1.143 0.282-2.131-0.042-2.907-0.945-0.226-0.268-1.143-0.451-1.411-0.254-0.099 0.085-0.141 0.296-0.141 0.466-0.014 1.411-0.028 2.836 0 4.247 0.014 0.48-0.141 0.593-0.607 0.593-2.229-0.028-4.459 0-6.688-0.014-2.215-0.014-3.795-1.51-3.979-3.683-0.155-1.905 1.284-3.711 3.302-4.049 0.607-0.099 1.242-0.042 1.848-0.056 1.171-0.028 2.37-0.028 3.598-0.028zM23.012 23.506c0-0.861-0.014-1.651 0-2.441 0.014-0.31-0.127-0.395-0.409-0.395-1.524 0-3.048-0.014-4.557 0.014-0.861 0.014-1.481 0.691-1.453 1.496 0.028 0.818 0.593 1.369 1.496 1.369 1.481 0.014 2.977 0.014 4.459 0 0.141 0 0.268-0.028 0.466-0.042zM29.178 18.37c-0.423-0.014-0.776 0.325-0.79 0.748-0.014 0.466 0.296 0.804 0.762 0.818 0.451 0 0.776-0.296 0.79-0.748s-0.31-0.804-0.762-0.818z"></path>
</svg>
