<?xml version="1.0" encoding="utf-8"?>
<!-- Generator: Adobe Illustrator 22.1.0, SVG Export Plug-In . SVG Version: 6.00 Build 0)  -->
<svg version="1.1" id="Layer_1" xmlns="http://www.w3.org/2000/svg" xmlns:xlink="http://www.w3.org/1999/xlink" x="0px" y="0px"
	 viewBox="0 0 226.8 226.8" style="enable-background:new 0 0 226.8 226.8;" xml:space="preserve">
<g>
	<path d="M162.6,129.1c1.5-9.7-2.5-15.4-11.8-16.9c-3.6-0.6-7.2-0.7-10.8-0.8c-9.7-0.1-19.3,0-29-0.1c-2.3,0-3.4,0.7-3.8,3
		c-3.7,22.8-18.6,34.8-39.6,40.7c-13.9,3.9-28.2,4.2-42.5,4.4c-5.8,0.1-11.5-0.1-17.3,0c-2.6,0.1-3.6-0.8-3.5-3.5
		c0.2-5.6,0.2-11.3,0-16.9c-0.1-1.6-0.7-3.4-1.6-4.7c-3.8-5.4-3.2-12.7,1.6-17.1c4.6-4.3,12-4.4,16.9-0.4c5,4.2,6,11.4,2.3,17
		c-0.4,0.6-1,1.1-1.3,1.8c-1.8,3.7-0.2,6.2,3.8,6.3c14.2,0.2,28.3-0.2,41.9-5.1c19-6.9,25.1-20.4,23.4-38.6
		c-1.8-20.1-11.4-29.6-32-34.1c-11.5-2.5-23.1-2.6-34.8-2.4c-3,0.1-3.9,4.2-1.5,7.6c2.5,3.5,3.5,7.1,2.3,11.3
		c-1.7,5.5-5.5,8.5-11,9.4c-4.6,0.7-10-2-12.3-6.3c-2.6-4.8-2.3-9.5,0.8-14.2c0.9-1.3,1.5-3.1,1.6-4.7c0.2-5.6,0.2-11.3,0-16.9
		c-0.1-2.5,0.8-3.3,3.3-3.2c16,0.6,32.1,0.3,48.1,1.8c15.7,1.5,30.3,6.8,41.3,19.2c6.4,7.3,9.8,16,11,25.5c0.3,2.6,1.2,3.4,3.7,3.4
		c10.8-0.1,21.6-0.1,32.4,0c7.2,0.1,14.2,1.4,20.7,4.7c10.5,5.3,15.6,14,16.3,25.6c0.1,1.6-1.2,4.2,1.8,4.6c2.7,0.3,5.1,0.6,6.9-2.7
		c4.6-8.5,13.5-12.1,22.3-9.7c9,2.5,14.9,10.1,15,19.3c0,9.1-5.9,16.9-15.1,19.1c-8.1,2-15.1-0.3-20.6-6.7c-1.6-1.9-8.1-3.2-10-1.8
		c-0.7,0.6-1,2.1-1,3.3c-0.1,10-0.2,20.1,0,30.1c0.1,3.4-1,4.2-4.3,4.2c-15.8-0.2-31.6,0-47.4-0.1c-15.7-0.1-26.9-10.7-28.2-26.1
		c-1.1-13.5,9.1-26.3,23.4-28.7c4.3-0.7,8.8-0.3,13.1-0.4C145.4,129.1,153.9,129.1,162.6,129.1z M163.1,166.6c0-6.1-0.1-11.7,0-17.3
		c0.1-2.2-0.9-2.8-2.9-2.8c-10.8,0-21.6-0.1-32.3,0.1c-6.1,0.1-10.5,4.9-10.3,10.6c0.2,5.8,4.2,9.7,10.6,9.7
		c10.5,0.1,21.1,0.1,31.6,0C160.8,166.9,161.7,166.7,163.1,166.6z M206.8,130.2c-3-0.1-5.5,2.3-5.6,5.3c-0.1,3.3,2.1,5.7,5.4,5.8
		c3.2,0,5.5-2.1,5.6-5.3C212.3,132.8,210,130.3,206.8,130.2z"/>
</g>
</svg>
