<?xml version="1.0" encoding="utf-8"?>
<!-- Generator: Adobe Illustrator 22.0.1, SVG Export Plug-In . SVG Version: 6.00 Build 0)  -->
<svg version="1.1" id="Layer_1" xmlns="http://www.w3.org/2000/svg" xmlns:xlink="http://www.w3.org/1999/xlink" x="0px" y="0px"
	 viewBox="0 0 226.8 226.8" style="enable-background:new 0 0 226.8 226.8;" xml:space="preserve">
<style type="text/css">
	.st0{stroke:#FFFFFF;stroke-miterlimit:10;}
</style>
<path class="st0" d="M0,158.6C0,188.1,23.9,212,53.4,212V24.1H0V158.6z"/>
<path class="st0" d="M226.8,158.6c0,29.5-23.9,53.4-53.4,53.4V24.1h53.4L226.8,158.6L226.8,158.6z"/>
<path class="st0" d="M72.9,43.7C58.2,18.2,25.5,9.4,0,24.1l68.8,119.2c9.5,14.5,25.9,24,44.6,24c8.3,0,16.5-1.9,23.9-5.7l2.8-1.6
	L72.9,43.7z"/>
<path class="st0" d="M153.9,43.6C168.6,18,201.3,9.3,226.8,24L158,143.3c-9.5,14.5-25.9,24-44.6,24c-8.3,0-16.5-1.9-23.9-5.7
	l-2.8-1.6L153.9,43.6z"/>
</svg>
