<!-- Generated by IcoMoon.io -->
<svg version="1.1" xmlns="http://www.w3.org/2000/svg" width="32" height="32" viewBox="0 0 32 32">
<title>MTH</title>
<path d="M0 22.377c0 4.162 3.372 7.534 7.534 7.534v-26.511h-7.534v18.977z"></path>
<path d="M32 22.377c0 4.162-3.372 7.534-7.534 7.534v-26.511h7.534v18.977z"></path>
<path d="M10.286 6.166c-2.074-3.598-6.688-4.84-10.286-2.765l9.707 16.818c1.34 2.046 3.654 3.386 6.293 3.386 1.171 0 2.328-0.268 3.372-0.804l0.395-0.226-9.481-16.409z"></path>
<path d="M21.714 6.152c2.074-3.612 6.688-4.84 10.286-2.765l-9.707 16.832c-1.34 2.046-3.654 3.386-6.293 3.386-1.171 0-2.328-0.268-3.372-0.804l-0.395-0.226 9.481-16.423z"></path>
</svg>
