<!-- Generated by IcoMoon.io -->
<svg version="1.1" xmlns="http://www.w3.org/2000/svg" width="32" height="32" viewBox="0 0 32 32">
<title>MTN</title>
<path d="M7.845 3.414c0.861 0.183 1.75 0.31 2.582 0.578 0.564 0.169 0.776 0 1.072-0.452 0.607-0.889 1.199-1.848 2.004-2.54 2.046-1.75 4.487-1.044 5.996 0.945 0.367 0.494 0.734 1.002 0.988 1.552 0.268 0.593 0.578 0.607 1.171 0.466 0.959-0.24 1.961-0.452 2.949-0.452 2.526 0.014 4.275 2.088 3.951 4.6-0.099 0.79-0.268 1.566-0.494 2.328-0.155 0.508-0.056 0.776 0.423 1.030 1.115 0.578 2.159 1.242 2.878 2.342 1.044 1.594 0.945 3.541-0.409 4.882-0.663 0.663-1.467 1.227-2.286 1.693-0.607 0.339-0.762 0.621-0.578 1.326 0.254 0.974 0.437 2.004 0.409 3.005-0.042 2.384-2.046 4.176-5.037 3.767-0.578-0.085-1.171-0.183-1.721-0.395-0.621-0.24-0.945-0.141-1.27 0.494-0.55 1.072-1.227 2.074-2.286 2.737-1.608 1.016-3.556 0.903-4.896-0.437-0.691-0.705-1.256-1.552-1.764-2.399-0.296-0.48-0.508-0.593-1.058-0.451-0.917 0.254-1.862 0.494-2.808 0.494-2.78 0.014-4.571-2.102-4.162-4.868 0.113-0.734 0.296-1.467 0.508-2.187 0.127-0.437 0.028-0.663-0.367-0.861-1.101-0.564-2.116-1.227-2.85-2.272-1.256-1.778-1.002-4.049 0.691-5.446 0.649-0.536 1.355-0.988 2.088-1.397 0.48-0.268 0.564-0.522 0.409-1.030-0.339-1.086-0.649-2.173-0.437-3.344 0.423-2.399 1.877-3.626 4.303-3.711zM24.155 12.684c-0.169-0.113-0.339-0.282-0.55-0.381-1.721-0.832-3.034-2.074-3.81-3.838-0.212-0.494-0.48-0.635-1.002-0.437-1.834 0.72-3.697 0.705-5.531 0-0.522-0.198-0.79-0.071-1.016 0.423-0.79 1.735-2.046 3.005-3.781 3.767-0.48 0.212-0.649 0.466-0.437 0.988 0.72 1.862 0.72 3.739-0.014 5.587-0.183 0.466-0.071 0.705 0.381 0.903 1.721 0.79 3.034 2.004 3.795 3.739 0.282 0.621 0.607 0.72 1.213 0.48 1.778-0.677 3.57-0.649 5.333 0.028 0.508 0.198 0.776 0.099 1.016-0.409 0.804-1.735 2.074-3.034 3.838-3.795 0.508-0.226 0.593-0.494 0.395-1.002-0.705-1.834-0.705-3.683 0-5.531 0.056-0.113 0.099-0.268 0.169-0.522zM13.771 5.065c1.608 0.705 2.963 0.748 4.374 0.014-0.339-0.861-0.832-1.538-1.566-2.046-0.437-0.296-0.917-0.282-1.256 0.071-0.536 0.593-1.002 1.256-1.552 1.961zM5.065 18.187c0.663-1.369 0.691-2.596 0.24-3.852-0.155-0.423-0.395-0.48-0.72-0.24-0.48 0.339-0.959 0.677-1.383 1.086-0.578 0.564-0.578 1.171 0.042 1.707 0.536 0.466 1.171 0.832 1.82 1.298zM9.877 25.256c-0.635-1.594-1.58-2.554-3.175-3.062-0.113 0.804-0.296 1.566-0.31 2.314-0.014 0.691 0.452 1.143 1.129 1.101 0.762-0.042 1.51-0.226 2.356-0.353zM9.82 6.787c-0.55-0.127-1.016-0.282-1.51-0.339-1.566-0.212-2.116 0.367-1.848 1.933 0.056 0.339 0.141 0.663 0.212 1.002 0.085 0.381 0.296 0.437 0.649 0.282 1.227-0.564 2.004-1.481 2.497-2.878zM18.215 26.935c-1.594-0.72-2.935-0.734-4.43 0.028 0.494 0.649 0.903 1.27 1.397 1.82 0.437 0.466 1.058 0.564 1.524 0.085 0.55-0.55 0.974-1.213 1.51-1.933zM26.991 18.258c0.705-0.55 1.34-0.974 1.877-1.51 0.423-0.409 0.451-1.030 0.042-1.425-0.564-0.55-1.256-0.988-1.961-1.524-0.691 1.566-0.705 2.907 0.042 4.459zM25.34 9.848c0.085-0.917 0.24-1.721 0.198-2.511-0.014-0.31-0.451-0.776-0.776-0.861-0.847-0.212-1.693 0.028-2.54 0.395 0.508 1.467 1.453 2.413 3.118 2.977zM25.298 22.123c-1.637 0.635-2.596 1.58-3.104 3.16 0.804 0.127 1.538 0.282 2.272 0.325 0.564 0.028 1.072-0.282 1.072-0.903 0-0.832-0.141-1.651-0.24-2.582z"></path>
</svg>
