<?xml version="1.0" encoding="utf-8"?>
<!-- Generator: Adobe Illustrator 22.1.0, SVG Export Plug-In . SVG Version: 6.00 Build 0)  -->
<svg version="1.1" id="Layer_1" xmlns="http://www.w3.org/2000/svg" xmlns:xlink="http://www.w3.org/1999/xlink" x="0px" y="0px"
	 viewBox="0 0 226.8 226.8" style="enable-background:new 0 0 226.8 226.8;" xml:space="preserve">
<g>
	<path d="M55.6,24.2c6.1,1.3,12.4,2.2,18.3,4.1c4,1.2,5.5,0,7.6-3.2c4.3-6.3,8.5-13.1,14.2-18c14.5-12.4,31.8-7.4,42.5,6.7
		c2.6,3.5,5.2,7.1,7,11c1.9,4.2,4.1,4.3,8.3,3.3c6.8-1.7,13.9-3.2,20.9-3.2c17.9,0.1,30.3,14.8,28,32.6c-0.7,5.6-1.9,11.1-3.5,16.5
		c-1.1,3.6-0.4,5.5,3,7.3c7.9,4.1,15.3,8.8,20.4,16.6c7.4,11.3,6.7,25.1-2.9,34.6c-4.7,4.7-10.4,8.7-16.2,12
		c-4.3,2.4-5.4,4.4-4.1,9.4c1.8,6.9,3.1,14.2,2.9,21.3c-0.3,16.9-14.5,29.6-35.7,26.7c-4.1-0.6-8.3-1.3-12.2-2.8
		c-4.4-1.7-6.7-1-9,3.5c-3.9,7.6-8.7,14.7-16.2,19.4c-11.4,7.2-25.2,6.4-34.7-3.1c-4.9-5-8.9-11-12.5-17c-2.1-3.4-3.6-4.2-7.5-3.2
		c-6.5,1.8-13.2,3.5-19.9,3.5c-19.7,0.1-32.4-14.9-29.5-34.5c0.8-5.2,2.1-10.4,3.6-15.5c0.9-3.1,0.2-4.7-2.6-6.1
		c-7.8-4-15-8.7-20.2-16.1c-8.9-12.6-7.1-28.7,4.9-38.6c4.6-3.8,9.6-7,14.8-9.9c3.4-1.9,4-3.7,2.9-7.3c-2.4-7.7-4.6-15.4-3.1-23.7
		C28.1,33.5,38.4,24.8,55.6,24.2z M171.2,89.9c-1.2-0.8-2.4-2-3.9-2.7c-12.2-5.9-21.5-14.7-27-27.2c-1.5-3.5-3.4-4.5-7.1-3.1
		c-13,5.1-26.2,5-39.2,0c-3.7-1.4-5.6-0.5-7.2,3C81.2,72.2,72.3,81.2,60,86.6c-3.4,1.5-4.6,3.3-3.1,7c5.1,13.2,5.1,26.5-0.1,39.6
		c-1.3,3.3-0.5,5,2.7,6.4c12.2,5.6,21.5,14.2,26.9,26.5c2,4.4,4.3,5.1,8.6,3.4c12.6-4.8,25.3-4.6,37.8,0.2c3.6,1.4,5.5,0.7,7.2-2.9
		c5.7-12.3,14.7-21.5,27.2-26.9c3.6-1.6,4.2-3.5,2.8-7.1c-5-13-5-26.1,0-39.2C170.4,92.8,170.7,91.7,171.2,89.9z M97.6,35.9
		c11.4,5,21,5.3,31,0.1c-2.4-6.1-5.9-10.9-11.1-14.5c-3.1-2.1-6.5-2-8.9,0.5C104.8,26.2,101.5,30.9,97.6,35.9z M35.9,128.9
		c4.7-9.7,4.9-18.4,1.7-27.3c-1.1-3-2.8-3.4-5.1-1.7c-3.4,2.4-6.8,4.8-9.8,7.7c-4.1,4-4.1,8.3,0.3,12.1
		C26.8,123,31.3,125.6,35.9,128.9z M70,179c-4.5-11.3-11.2-18.1-22.5-21.7c-0.8,5.7-2.1,11.1-2.2,16.4c-0.1,4.9,3.2,8.1,8,7.8
		C58.7,181.2,64,179.9,70,179z M69.6,48.1c-3.9-0.9-7.2-2-10.7-2.4c-11.1-1.5-15,2.6-13.1,13.7c0.4,2.4,1,4.7,1.5,7.1
		c0.6,2.7,2.1,3.1,4.6,2C60.6,64.5,66.1,58,69.6,48.1z M129.1,190.9c-11.3-5.1-20.8-5.2-31.4,0.2c3.5,4.6,6.4,9,9.9,12.9
		c3.1,3.3,7.5,4,10.8,0.6C122.3,200.7,125.3,196,129.1,190.9z M191.3,129.4c5-3.9,9.5-6.9,13.3-10.7c3-2.9,3.2-7.3,0.3-10.1
		c-4-3.9-8.9-7-13.9-10.8C186.1,108.9,186,118.4,191.3,129.4z M179.6,69.8c0.6-6.5,1.7-12.2,1.4-17.8c-0.1-2.2-3.2-5.5-5.5-6.1
		c-6-1.5-12,0.2-18,2.8C161.1,59.1,167.8,65.8,179.6,69.8z M179.3,156.8c-11.6,4.5-18.4,11.2-22,22.4c5.7,0.9,10.9,2,16.1,2.3
		c4,0.2,7.6-2,7.6-6.4C181,169.2,180,163.4,179.3,156.8z"/>
</g>
</svg>
