<!-- Generated by IcoMoon.io -->
<svg version="1.1" xmlns="http://www.w3.org/2000/svg" width="32" height="32" viewBox="0 0 32 32">
<title>MUE</title>
<path d="M14.66 23.309c-4.346-1.975-8.226-1.326-11.88 1.665-0.395-0.663-0.804-1.284-1.129-1.947-4.882-9.848 1.397-21.587 12.289-22.956 1.369-0.169 2.765-0.014 4.148-0.014 0.691 0 0.818 0.296 0.691 0.945-0.889 4.727-1.735 9.467-2.61 14.194-0.423 2.356-0.861 4.698-1.284 7.055-0.056 0.339-0.141 0.649-0.226 1.058z"></path>
<path d="M27.57 13.601c1.566-3.485 0.945-6.674-1.355-9.834 4.811 3.541 7.605 11.457 4.444 18.596-3.4 7.661-11.612 10.892-18.554 9.016 0.325-0.183 0.536-0.325 0.762-0.437 2.046-1.030 3.287-2.554 3.711-4.91 1.030-5.898 2.215-11.753 3.344-17.637 0.198-1.044 0.31-1.129 1.326-0.804 2.921 0.931 5.108 2.667 6.166 5.644 0.042 0.141 0.099 0.254 0.155 0.367z"></path>
</svg>
