<?xml version="1.0" encoding="utf-8"?>
<!-- Generator: Adobe Illustrator 22.1.0, SVG Export Plug-In . SVG Version: 6.00 Build 0)  -->
<svg version="1.1" id="Layer_1" xmlns="http://www.w3.org/2000/svg" xmlns:xlink="http://www.w3.org/1999/xlink" x="0px" y="0px"
	 viewBox="0 0 226.8 226.8" style="enable-background:new 0 0 226.8 226.8;" xml:space="preserve">
<g>
	<path d="M103.9,165.2c-30.8-14-58.3-9.4-84.2,11.8c-2.8-4.7-5.7-9.1-8-13.8c-34.6-69.8,9.9-153,87.1-162.7
		c9.7-1.2,19.6-0.1,29.4-0.1c4.9,0,5.8,2.1,4.9,6.7c-6.3,33.5-12.3,67.1-18.5,100.6c-3,16.7-6.1,33.3-9.1,50
		C105.1,160.1,104.5,162.3,103.9,165.2z"/>
	<path d="M195.4,96.4c11.1-24.7,6.7-47.3-9.6-69.7c34.1,25.1,53.9,81.2,31.5,131.8c-24.1,54.3-82.3,77.2-131.5,63.9
		c2.3-1.3,3.8-2.3,5.4-3.1c14.5-7.3,23.3-18.1,26.3-34.8c7.3-41.8,15.7-83.3,23.7-125c1.4-7.4,2.2-8,9.4-5.7
		c20.7,6.6,36.2,18.9,43.7,40C194.6,94.8,195,95.6,195.4,96.4z"/>
</g>
</svg>
