<?xml version="1.0" encoding="utf-8"?>
<!-- Generator: Adobe Illustrator 22.1.0, SVG Export Plug-In . SVG Version: 6.00 Build 0)  -->
<svg version="1.1" id="Layer_1" xmlns="http://www.w3.org/2000/svg" xmlns:xlink="http://www.w3.org/1999/xlink" x="0px" y="0px"
	 viewBox="0 0 226.8 226.8" style="enable-background:new 0 0 226.8 226.8;" xml:space="preserve">
<g>
	<path d="M1,113.4c0-26.9,0-53.7,0-80.6c0-5.7,0-5.7,5.5-5.7c31.8,0,63.6,0.1,95.4-0.1c4.3,0,5.8,1.2,5.5,5.5
		c-0.4,5.1-0.3,10.2,0,15.3c0.2,3.6-1.2,4.6-4.6,4.5c-23.5-0.1-46.9-0.1-70.4-0.1c-5.6,0-5.6,0-5.6,5.6c0,37.3,0.1,74.7-0.1,112
		c0,4.3,1.3,5.5,5.5,5.5c23.3-0.2,46.7,0,70-0.2c4.1,0,5.5,1.1,5.3,5.3c-0.3,5.2-0.2,10.5,0,15.7c0.1,2.6-0.6,3.9-3.6,3.9
		c-33.1-0.1-66.2-0.1-99.3,0c-3.7,0-3.6-2.1-3.6-4.7C1,168,1,140.7,1,113.4z"/>
	<path d="M225.5,113.6c0,27.2-0.1,54.3,0.1,81.5c0,4-1.3,4.9-5.1,4.9c-32-0.1-63.9-0.1-95.9,0c-4.1,0-5.6-1.1-5.3-5.2
		c0.3-4.2,0.1-8.5,0.1-12.7c0-6.8,0-6.8,6.6-6.8c22.6,0,45.3,0,67.9,0c6.1,0,6.1,0,6.1-6.1c0-37.1,0-74.1,0-111.2
		c0-5.7,0-5.7-5.9-5.7c-23.1,0-46.1,0-69.2,0c-5.5,0-5.5,0-5.5-5.7c0-5.2,0.1-10.5,0-15.7c-0.1-2.7,0.9-3.8,3.7-3.8
		c33,0.1,65.9,0.1,98.9,0c3.8,0,3.6,2.1,3.6,4.6C225.5,59,225.5,86.3,225.5,113.6z"/>
	<path d="M51.3,98.7c9,0,15,5.9,14.9,14.8c0,8.2-7,15.1-15.2,15c-7.6,0-14.7-7.5-14.6-15.3C36.5,104.8,42.8,98.7,51.3,98.7z"/>
	<path d="M161.8,113.4c0-8.7,5.9-14.7,14.5-14.7c9,0,15.2,5.9,15.3,14.6c0.1,8-7,15.1-15.2,15.2
		C168.7,128.6,161.8,121.5,161.8,113.4z"/>
</g>
</svg>
