<!-- Generated by IcoMoon.io -->
<svg version="1.1" xmlns="http://www.w3.org/2000/svg" width="32" height="32" viewBox="0 0 32 32">
<title>MWAT</title>
<path d="M0.141 16c0-3.795 0-7.577 0-11.372 0-0.804 0-0.804 0.776-0.804 4.487 0 8.974 0.014 13.46-0.014 0.607 0 0.818 0.169 0.776 0.776-0.056 0.72-0.042 1.439 0 2.159 0.028 0.508-0.169 0.649-0.649 0.635-3.316-0.014-6.617-0.014-9.933-0.014-0.79 0-0.79 0-0.79 0.79 0 5.263 0.014 10.54-0.014 15.802 0 0.607 0.183 0.776 0.776 0.776 3.287-0.028 6.589 0 9.877-0.028 0.578 0 0.776 0.155 0.748 0.748-0.042 0.734-0.028 1.481 0 2.215 0.014 0.367-0.085 0.55-0.508 0.55-4.67-0.014-9.34-0.014-14.011 0-0.522 0-0.508-0.296-0.508-0.663 0-3.852 0-7.704 0-11.556z"></path>
<path d="M31.817 16.028c0 3.838-0.014 7.661 0.014 11.499 0 0.564-0.183 0.691-0.72 0.691-4.515-0.014-9.016-0.014-13.531 0-0.578 0-0.79-0.155-0.748-0.734 0.042-0.593 0.014-1.199 0.014-1.792 0-0.959 0-0.959 0.931-0.959 3.189 0 6.392 0 9.58 0 0.861 0 0.861 0 0.861-0.861 0-5.235 0-10.455 0-15.69 0-0.804 0-0.804-0.832-0.804-3.259 0-6.504 0-9.764 0-0.776 0-0.776 0-0.776-0.804 0-0.734 0.014-1.481 0-2.215-0.014-0.381 0.127-0.536 0.522-0.536 4.656 0.014 9.298 0.014 13.954 0 0.536 0 0.508 0.296 0.508 0.649-0.014 3.852-0.014 7.704-0.014 11.556z"></path>
<path d="M7.238 13.926c1.27 0 2.116 0.832 2.102 2.088 0 1.157-0.988 2.131-2.145 2.116-1.072 0-2.074-1.058-2.060-2.159 0.014-1.185 0.903-2.046 2.102-2.046z"></path>
<path d="M22.829 16c0-1.227 0.832-2.074 2.046-2.074 1.27 0 2.145 0.832 2.159 2.060 0.014 1.129-0.988 2.131-2.145 2.145-1.086 0.014-2.060-0.988-2.060-2.131z"></path>
</svg>
