<!-- Generated by IcoMoon.io -->
<svg version="1.1" xmlns="http://www.w3.org/2000/svg" width="32" height="32" viewBox="0 0 32 32">
<title>MYETHERWALLET</title>
<path d="M17.958 23.923c-0.589 0.141-1.19 0.205-1.792 0.205-4.262 0-7.885-3.238-8.141-8.077 0.051-0.934 0.205-1.843 0.435-2.739l-6.63-2.79c-0.691 1.882-1.037 3.878-1.037 5.888 0 8.269 7.091 14.95 15.347 14.95 1.894 0 3.789-0.358 5.555-1.062l-3.738-6.374zM16.154 0.64c-2.15 0-4.262 0.461-6.234 1.344l3.712 6.31c0.806-0.269 1.664-0.422 2.509-0.422 3.776 0 7.782 3.174 8.166 7.053l-10.726 0.051 16.755 7.13c0.832-2.010 1.242-4.173 1.165-6.362-0.026-8.294-7.078-15.104-15.347-15.104z"></path>
</svg>
