<?xml version="1.0" encoding="utf-8"?>
<!-- Generator: Adobe Illustrator 22.0.1, SVG Export Plug-In . SVG Version: 6.00 Build 0)  -->
<svg version="1.1" id="Layer_1" xmlns="http://www.w3.org/2000/svg" xmlns:xlink="http://www.w3.org/1999/xlink" x="0px" y="0px"
	 viewBox="0 0 250 250" style="enable-background:new 0 0 250 250;" xml:space="preserve">
<style type="text/css">
	.st0{stroke:#FFFFFF;stroke-miterlimit:10;}
</style>
<path class="st0" d="M0.4,141.4l43.7,44.7l40.2-40.5l39.6,39.6l40.8-39.9l40.8,40.5l44.1-43.7l-84.9-84.6L125.2,97L84,57.5
	L0.4,141.4L0.4,141.4z M75,123.5l-9.8-14.6l7.9-1l11.3,5.2L75,123.5L75,123.5z M54.1,167.2l-0.1-12.9l36-39.4l9.2,3.9L94,146.4
	l-8.7-8.1L54.1,167.2L54.1,167.2z M57,111.4l4.4-1.1l10.4,17.8L55.4,145L57,111.4L57,111.4z M124.7,104l10.5-10.3l4.5,2.5l-3,28
	l-5.3,3.5l-12.2-5.8l-10.5-32.8L124.7,104L124.7,104z M73.4,76.1l10.8-11.8l16.1,16.4l3.1,9.7L74.1,89L73.4,76.1L73.4,76.1z
	 M141.3,147.1l18.6-28.6l17.5-7.5l-3.8,34.1l-8.9-7.2L145,157.6L141.3,147.1L141.3,147.1z M117.5,144l21,11.9l2.5,6.3L124.8,178
	l-6.4-6.2L117.5,144L117.5,144z M100.7,133.7l11.6,6.6l-0.2,25.2l-13.8-12.8L100.7,133.7L100.7,133.7z M103.6,120.6l26.6,10.9
	l6,17.4l-33.4-21L103.6,120.6L103.6,120.6z M73.2,93.6l32.2,1.6l8.3,24.4l-39.5-16L73.2,93.6L73.2,93.6z M177.2,75.7l29.8,30.6
	l-24.9-2.7L177.2,75.7L177.2,75.7z M165,64.1l3.9,3.5l4.3,18.9L151.7,79L165,64.1L165,64.1z M214.7,137.3l9.4,22.3L205,177.8
	l-5.2-5.1l-0.9-11.8L214.7,137.3L214.7,137.3z M202.8,110.9l8.2,19.5l-12.5,20.5L194,110L202.8,110.9L202.8,110.9z M188.6,109.6
	l4.9,57.2l-14.9-16.1l3.2-41.7L188.6,109.6L188.6,109.6z M147,82.3l27.7,11.4l2.5,10.1l-7.5,5.1l-30.2-18.9L147,82.3L147,82.3z
	 M144.4,98.7l19,12l-21.6,11.6L144.4,98.7L144.4,98.7z M213.1,112.4l29.2,28.8l-1.7,1.9l-21.9-7.5l-10-22.6L213.1,112.4L213.1,112.4
	z M221.8,141l14.5,6.4l-9.2,8.2L221.8,141L221.8,141z M135.1,131.2l14.8-7.9l-11,19.3L135.1,131.2L135.1,131.2z M37.4,110.9L69.1,81
	l-0.2,21.2L37.4,110.9L37.4,110.9z M30.6,119.3l21.1-5.5l-1.3,26l-26.7-13.7L30.6,119.3L30.6,119.3z M18.4,130.3l30.9,15l0.3,14.1
	l-29.8-5.7L7.1,141.3L18.4,130.3L18.4,130.3z M26.3,161.3l22.7,2.3l0,10.9l-4.9,4.3L26.3,161.3z"/>
</svg>
