<!-- Generated by IcoMoon.io -->
<svg version="1.1" xmlns="http://www.w3.org/2000/svg" width="32" height="32" viewBox="0 0 32 32">
<title>MYST</title>
<path d="M0.051 18.099l5.594 5.722 5.146-5.184 5.069 5.069 5.222-5.107 5.222 5.184 5.645-5.594-10.867-10.829-5.056 5.056-5.274-5.056-10.701 10.739zM9.6 15.808l-1.254-1.869 1.011-0.128 1.446 0.666-1.203 1.331zM6.925 21.402l-0.013-1.651 4.608-5.043 1.178 0.499-0.666 3.533-1.114-1.037-3.994 3.699zM7.296 14.259l0.563-0.141 1.331 2.278-2.099 2.163 0.205-4.301zM15.962 13.312l1.344-1.318 0.576 0.32-0.384 3.584-0.678 0.448-1.562-0.742-1.344-4.198 2.048 1.907zM9.395 9.741l1.382-1.51 2.061 2.099 0.397 1.242-3.75-0.179-0.090-1.651zM18.086 18.829l2.381-3.661 2.24-0.96-0.486 4.365-1.139-0.922-2.522 2.522-0.474-1.344zM15.040 18.432l2.688 1.523 0.32 0.806-2.074 2.022-0.819-0.794-0.115-3.558zM12.89 17.114l1.485 0.845-0.026 3.226-1.766-1.638 0.307-2.432zM13.261 15.437l3.405 1.395 0.768 2.227-4.275-2.688 0.102-0.934zM9.37 11.981l4.122 0.205 1.062 3.123-5.056-2.048-0.128-1.28zM22.682 9.69l3.814 3.917-3.187-0.346-0.627-3.571zM21.12 8.205l0.499 0.448 0.55 2.419-2.752-0.96 1.702-1.907zM27.482 17.574l1.203 2.854-2.445 2.33-0.666-0.653-0.115-1.51 2.022-3.021zM25.958 14.195l1.050 2.496-1.6 2.624-0.576-5.235 1.126 0.115zM24.141 14.029l0.627 7.322-1.907-2.061 0.41-5.338 0.87 0.077zM18.816 10.534l3.546 1.459 0.32 1.293-0.96 0.653-3.866-2.419 0.96-0.986zM18.483 12.634l2.432 1.536-2.765 1.485 0.333-3.021zM27.277 14.387l3.738 3.686-0.218 0.243-2.803-0.96-1.28-2.893 0.563-0.077zM28.39 18.048l1.856 0.819-1.178 1.050-0.678-1.869zM17.293 16.794l1.894-1.011-1.408 2.47-0.486-1.459zM4.787 14.195l4.058-3.827-0.026 2.714-4.032 1.114zM3.917 15.27l2.701-0.704-0.166 3.328-3.418-1.754 0.883-0.87zM2.355 16.678l3.955 1.92 0.038 1.805-3.814-0.73-1.626-1.587 1.446-1.408zM3.366 20.646l2.906 0.294v1.395l-0.627 0.55-2.278-2.24z"></path>
</svg>
