<!-- Generated by IcoMoon.io -->
<svg version="1.1" xmlns="http://www.w3.org/2000/svg" width="32" height="32" viewBox="0 0 32 32">
<title>NANO</title>
<path d="M4.6 20.148c0 1.27-1.030 2.3-2.3 2.3s-2.3-1.030-2.3-2.3c0-1.27 1.030-2.3 2.3-2.3s2.3 1.030 2.3 2.3z"></path>
<path d="M29.742 8.72c-1.242 0-2.3 1.002-2.3 2.3 0 1.82-0.282 2.3-2.3 2.3h-0.198c-1.171 0.099-2.074 1.086-2.060 2.258v0.042c0 1.778-0.339 2.201-2.3 2.201-0.099 0-0.198 0-0.24 0.042-1.157 0.141-2.060 1.101-2.060 2.258 0 1.242 1.002 2.3 2.3 2.3 1.199 0 2.201-0.959 2.258-2.116v-0.198c0-1.637 0.522-2.258 2.258-2.3h0.042c1.199 0 2.201-0.959 2.258-2.159v-0.141c0-1.679 0.522-2.3 2.3-2.3 1.242 0 2.3-1.002 2.3-2.3 0-1.171-1.002-2.187-2.258-2.187zM16.212 13.333h-0.198c-2.018 0-2.3-0.48-2.3-2.3 0-1.242-1.002-2.3-2.3-2.3-1.242 0-2.3 1.002-2.3 2.3 0 1.82-0.282 2.258-2.3 2.258h-0.198c-1.171 0.099-2.074 1.086-2.060 2.258 0 1.242 1.002 2.3 2.3 2.3 1.199 0 2.201-0.959 2.258-2.116v-0.141c0-1.679 0.522-2.3 2.3-2.3s2.3 0.621 2.3 2.258c0 1.242 1.002 2.3 2.3 2.3s2.3-1.002 2.3-2.3c-0.028-1.157-0.945-2.13-2.102-2.215z"></path>
</svg>
