<?xml version="1.0" encoding="utf-8"?>
<!-- Generator: Adobe Illustrator 22.0.1, SVG Export Plug-In . SVG Version: 6.00 Build 0)  -->
<svg version="1.1" id="Layer_1" xmlns="http://www.w3.org/2000/svg" xmlns:xlink="http://www.w3.org/1999/xlink" x="0px" y="0px"
	 viewBox="0 0 226.8 226.8" style="enable-background:new 0 0 226.8 226.8;" xml:space="preserve">
<style type="text/css">
	.st0{stroke:#FFFFFF;stroke-miterlimit:10;}
</style>
<g>
	<circle class="st0" cx="16.3" cy="142.8" r="16.3"/>
	<path class="st0" d="M210.8,61.8c-8.8,0-16.3,7.1-16.3,16.3c0,12.9-2,16.3-16.3,16.3h-1.4c-8.3,0.7-14.7,7.7-14.6,16v0.3
		c0,12.6-2.4,15.6-16.3,15.6c-0.7,0-1.4,0-1.7,0.3c-8.2,1-14.6,7.8-14.6,16c0,8.8,7.1,16.3,16.3,16.3c8.5,0,15.6-6.8,16-15v-1.4
		c0-11.6,3.7-16,16-16.3h0.3c8.5,0,15.6-6.8,16-15.3v-1c0-11.9,3.7-16.3,16.3-16.3c8.8,0,16.3-7.1,16.3-16.3
		C226.8,69,219.7,61.8,210.8,61.8z M114.9,94.5h-1.4c-14.3,0-16.3-3.4-16.3-16.3c0-8.8-7.1-16.3-16.3-16.3
		c-8.8,0-16.3,7.1-16.3,16.3c0,12.9-2,16-16.3,16h-1.4c-8.3,0.7-14.7,7.7-14.6,16c0,8.8,7.1,16.3,16.3,16.3c8.5,0,15.6-6.8,16-15v-1
		c0-11.9,3.7-16.3,16.3-16.3s16.3,4.4,16.3,16c0,8.8,7.1,16.3,16.3,16.3s16.3-7.1,16.3-16.3C129.6,102,123.1,95.1,114.9,94.5z"/>
</g>
</svg>
