<!-- Generated by IcoMoon.io -->
<svg version="1.1" xmlns="http://www.w3.org/2000/svg" width="32" height="32" viewBox="0 0 32 32">
<title>NANO_VAULT</title>
<path d="M32.042 10.808c0.028 0.79-0.296 1.467-0.847 2.046-0.762 0.79-1.524 1.594-2.286 2.384-0.339 0.353-0.677 0.705-1.016 1.058-0.776 0.818-1.566 1.637-2.342 2.455-0.649 0.677-1.298 1.34-1.947 2.018-0.367 0.381-0.72 0.776-1.101 1.143-0.776 0.748-1.693 1.002-2.751 0.762-0.55-0.127-1.016-0.395-1.397-0.804-0.875-0.903-1.735-1.792-2.61-2.695-0.649-0.677-1.298-1.369-1.947-2.046-0.607-0.635-1.213-1.27-1.82-1.905-0.24-0.24-0.24-0.24-0.466 0-0.099 0.113-0.212 0.212-0.31 0.325-0.734 0.748-1.467 1.496-2.187 2.243-0.875 0.903-1.75 1.806-2.624 2.723-0.48 0.508-0.945 1.016-1.453 1.496-0.663 0.621-1.481 0.875-2.384 0.734-1.016-0.169-1.764-0.72-2.215-1.637-0.226-0.48-0.296-1.002-0.254-1.552 0.071-0.861 0.536-1.481 1.115-2.060 0.762-0.776 1.524-1.566 2.286-2.342 0.931-0.959 1.848-1.919 2.78-2.864 0.889-0.917 1.778-1.834 2.653-2.751 0.24-0.254 0.466-0.522 0.72-0.762 0.804-0.79 1.764-1.086 2.878-0.804 0.494 0.127 0.917 0.353 1.27 0.705 0.903 0.917 1.792 1.848 2.695 2.78 0.268 0.282 0.55 0.578 0.818 0.861 0.804 0.847 1.608 1.679 2.413 2.526 0.212 0.212 0.409 0.437 0.621 0.663 0.099 0.113 0.183 0.099 0.268 0 0.621-0.663 1.256-1.312 1.891-1.975 0.028-0.028 0.056-0.056 0.085-0.085 0.691-0.72 1.397-1.425 2.088-2.145 0.762-0.79 1.524-1.566 2.272-2.37 0.325-0.353 0.677-0.649 1.115-0.832 0.578-0.24 1.185-0.296 1.806-0.141 0.494 0.113 0.917 0.325 1.284 0.677 0.593 0.564 0.931 1.284 0.903 2.173z"></path>
</svg>
