<?xml version="1.0" encoding="utf-8"?>
<!-- Generator: Adobe Illustrator 22.0.1, SVG Export Plug-In . SVG Version: 6.00 Build 0)  -->
<svg version="1.1" id="Layer_1" xmlns="http://www.w3.org/2000/svg" xmlns:xlink="http://www.w3.org/1999/xlink" x="0px" y="0px"
	 viewBox="0 0 226.8 226.8" style="enable-background:new 0 0 226.8 226.8;" xml:space="preserve">
<style type="text/css">
	.st0{stroke:#FFFFFF;stroke-miterlimit:10;}
</style>
<path class="st0" d="M79.6,140.8c11,22.2,21.5,43.6,32.4,65.8c5.7-16.7,11.1-32.8,16.7-49.2C112.5,151.8,96.5,146.5,79.6,140.8
	 M20.3,112.2c16.7,5.7,32.8,11.1,49.1,16.7c5.5-16.3,11-32.4,16.7-49.2C63.9,90.7,42.4,101.3,20.3,112.2 M82.5,133.1
	c0.5,0.3,1,0.6,1.5,0.8c15.8,5.4,31.6,10.8,47.5,16c1.3,0.4,3.1,0.1,4.4-0.6c18.2-8.9,36.3-17.8,54.4-26.7
	c5.1-2.5,10.3-5.1,15.9-7.9c-1.2-0.5-1.9-0.8-2.5-1c-15.3-5.2-30.6-10.4-46-15.5c-1.6-0.5-3.4-0.4-4.9,0.3
	c-19.3,9.4-38.5,18.9-57.8,28.4C90.9,128.9,86.9,130.9,82.5,133.1 M149.5,91.2c-11.7-23.7-23.2-47-35-70.8
	c-12,35.6-23.8,70.3-35.8,105.8C102.7,114.3,125.9,102.8,149.5,91.2 M0,113.4c11.3-5.6,21.9-10.9,32.6-16.1
	C50.7,88.3,68.8,79.4,87,70.5c1.8-0.8,3.2-2.4,3.8-4.3c7.1-21.1,14.2-42.3,21.5-63.4c0.3-0.8,0.6-1.5,1.1-2.8
	c0.7,1.4,1.3,2.4,1.7,3.4c13.9,28.1,27.8,56.3,41.7,84.4c0.7,1.4,2.5,2.5,4,3c21,7.2,42,14.3,63,21.5c0.8,0.3,1.6,0.6,3,1.1
	c-1.9,1-3.4,1.7-4.8,2.4c-27.1,13.4-54.2,26.8-81.3,40c-2.7,1.3-4.1,3-5.1,5.8c-7,21-14.2,41.9-21.3,62.8c-0.2,0.6-0.5,1.1-0.9,2.3
	c-1.8-3.7-3.4-6.8-4.9-9.9c-12.6-25.6-25.2-51.2-37.8-76.8c-1-2.1-2.4-3.4-4.7-4.2c-21-7.1-42.1-14.2-63.1-21.4
	C2.1,114.3,1.3,113.9,0,113.4"/>
</svg>
