<!-- Generated by IcoMoon.io -->
<svg version="1.1" xmlns="http://www.w3.org/2000/svg" width="32" height="32" viewBox="0 0 32 32">
<title>NAS</title>
<path d="M11.231 19.866c1.552 3.132 3.034 6.152 4.571 9.284 0.804-2.356 1.566-4.628 2.356-6.942-2.286-0.79-4.543-1.538-6.928-2.342M2.864 15.831c2.356 0.804 4.628 1.566 6.928 2.356 0.776-2.3 1.552-4.571 2.356-6.942-3.132 1.552-6.166 3.048-9.284 4.586M11.64 18.78c0.071 0.042 0.141 0.085 0.212 0.113 2.229 0.762 4.459 1.524 6.702 2.258 0.183 0.056 0.437 0.014 0.621-0.085 2.568-1.256 5.122-2.511 7.675-3.767 0.72-0.353 1.453-0.72 2.243-1.115-0.169-0.071-0.268-0.113-0.353-0.141-2.159-0.734-4.317-1.467-6.49-2.187-0.226-0.071-0.48-0.056-0.691 0.042-2.723 1.326-5.432 2.667-8.155 4.007-0.578 0.282-1.143 0.564-1.764 0.875M21.093 12.868c-1.651-3.344-3.273-6.631-4.938-9.989-1.693 5.023-3.358 9.919-5.051 14.928 3.386-1.679 6.66-3.302 9.989-4.938M0 16c1.594-0.79 3.090-1.538 4.6-2.272 2.554-1.27 5.108-2.526 7.676-3.781 0.254-0.113 0.451-0.339 0.536-0.607 1.002-2.977 2.004-5.968 3.034-8.945 0.042-0.113 0.085-0.212 0.155-0.395 0.099 0.198 0.183 0.339 0.24 0.48 1.961 3.965 3.922 7.944 5.884 11.908 0.099 0.198 0.353 0.353 0.564 0.423 2.963 1.016 5.926 2.018 8.889 3.034 0.113 0.042 0.226 0.085 0.423 0.155-0.268 0.141-0.48 0.24-0.677 0.339-3.824 1.891-7.647 3.781-11.471 5.644-0.381 0.183-0.578 0.423-0.72 0.818-0.988 2.963-2.004 5.912-3.005 8.861-0.028 0.085-0.071 0.155-0.127 0.325-0.254-0.522-0.48-0.959-0.691-1.397-1.778-3.612-3.556-7.224-5.333-10.836-0.141-0.296-0.339-0.48-0.663-0.593-2.963-1.002-5.94-2.004-8.903-3.019-0.113-0.014-0.226-0.071-0.409-0.141"></path>
</svg>
