<!-- Generated by IcoMoon.io -->
<svg version="1.1" xmlns="http://www.w3.org/2000/svg" width="32" height="32" viewBox="0 0 32 32">
<title>NAV</title>
<path d="M7.583 7.42h6.902l-7.2 16.912h-6.902l7.2-16.912z"></path>
<path d="M25.091 7.42h6.902l-8.184 16.951h-6.902l8.184-16.951z"></path>
<path d="M7.583 7.42h6.902l9.337 16.951h-6.902l-9.337-16.951z"></path>
<path d="M7.272 24.332h-6.902l14.102-16.912-7.2 16.912z"></path>
<path d="M16.907 24.423h6.902l-16.226-17.003 9.324 17.003z"></path>
<path d="M16.907 24.423h6.902l-9.337-17.003 2.435 17.003z"></path>
<path d="M16.907 24.423h6.902l1.256-17.145-8.158 17.145z"></path>
<path d="M16.907 24.423h6.902l8.197-17.003-15.099 17.003z"></path>
</svg>
