<?xml version="1.0" encoding="utf-8"?>
<!-- Generator: Adobe Illustrator 22.0.1, SVG Export Plug-In . SVG Version: 6.00 Build 0)  -->
<svg version="1.1" id="Layer_1" xmlns="http://www.w3.org/2000/svg" xmlns:xlink="http://www.w3.org/1999/xlink" x="0px" y="0px"
	 viewBox="0 0 250 250" style="enable-background:new 0 0 250 250;" xml:space="preserve">
<style type="text/css">
	.st0{stroke:#FFFFFF;stroke-miterlimit:10;}
</style>
<g id="layer1">
	<g id="g11669" transform="matrix(1.01168 0 0 1.01168 920.285 394.86)">
		<g id="g11643">
			<path id="rect11628" class="st0" d="M-851.1-333h53.3l-55.6,130.6h-53.3L-851.1-333z"/>
			<path id="rect11633" class="st0" d="M-715.9-333h53.3l-63.2,130.9h-53.3L-715.9-333z"/>
			<path id="rect11638" class="st0" d="M-851.1-333h53.3l72.1,130.9H-779L-851.1-333z"/>
		</g>
		<path id="path11656" class="st0" d="M-853.5-202.4h-53.3L-797.9-333L-853.5-202.4z"/>
		<path id="path11659" class="st0" d="M-779.1-201.7h53.3L-851.1-333L-779.1-201.7L-779.1-201.7z"/>
		<path id="path11661" class="st0" d="M-779.1-201.7h53.3L-797.9-333L-779.1-201.7L-779.1-201.7z"/>
		<path id="path11663" class="st0" d="M-779.1-201.7h53.3l9.7-132.4L-779.1-201.7L-779.1-201.7z"/>
		<path id="path11665" class="st0" d="M-779.1-201.7h53.3l63.3-131.3L-779.1-201.7L-779.1-201.7z"/>
	</g>
</g>
</svg>
