<!-- Generated by IcoMoon.io -->
<svg version="1.1" xmlns="http://www.w3.org/2000/svg" width="32" height="32" viewBox="0 0 32 32">
<title>NBT</title>
<path d="M29.146 6.898l-5.883 19.048-1.601-5.169 5.128-16.579c-0.204-0.187-0.425-0.379-0.651-0.565l-0.028-0.022-4.891 15.739-1.601-5.172 3.845-12.326c-2.231-1.181-4.773-1.851-7.473-1.851-8.832 0-15.991 7.16-15.991 15.991 0 3.45 1.092 6.644 2.95 9.256l5.682-18.771 1.61 5.2-4.913 16.231c0.197 0.177 0.413 0.361 0.635 0.54l0.031 0.024 4.67-15.429 1.61 5.2-3.62 11.96c2.197 1.137 4.692 1.779 7.337 1.779 8.832 0 15.992-7.16 15.992-15.991 0-3.378-1.049-6.512-2.837-9.094zM16.471 26.128c-0.763 0-1.333-0.514-1.504-1.072s-5.854-19.044-5.854-19.044l2.142 0c0.61 0 1.153 0.361 1.314 0.871s5.915 19.245 5.915 19.245h-2.014zM20.534 26.124c-0.725 0-1.372-0.554-1.581-1.259s-5.707-18.853-5.707-18.853h2.072c0.689 0 1.231 0.398 1.409 0.979s5.791 19.133 5.791 19.133-1.26-0.001-1.985-0.001z"></path>
</svg>
