<?xml version="1.0" encoding="utf-8"?>
<!-- Generator: Adobe Illustrator 22.1.0, SVG Export Plug-In . SVG Version: 6.00 Build 0)  -->
<svg version="1.1" id="Layer_1" xmlns="http://www.w3.org/2000/svg" xmlns:xlink="http://www.w3.org/1999/xlink" x="0px" y="0px"
	 viewBox="0 0 226.8 226.8" style="enable-background:new 0 0 226.8 226.8;" xml:space="preserve">
<g>
	<path d="M219.6,157.5c-3.6,6.9-7.2,13.7-10.7,20.7c-2.3,4.6-4.3,9.4-6.7,14c-0.9,1.6-2.4,3.2-4,4.1c-15,8.8-30.2,17.4-45.3,26.1
		c-1.3,0.8-2.2,2.2-3.6,2.8c-1.7,0.8-3.7,1.7-5.5,1.5c-6.3-0.7-12.6-2.1-18.9-2.7c-10.8-1-21.7-1.9-32.5-2
		c-6.9-0.1-12.1-1.2-17.8-6.2c-10.9-9.4-23-17.8-35.5-25.1c-6.1-3.6-9.1-7.7-11.4-13.9c-3.7-10.2-8.6-19.9-13-29.8
		c-0.4-0.8-0.6-1.9-1.2-2.5c-4.9-4.4-3.7-9.6-3.2-15.5c1.2-13.2,1.4-26.6,1.8-39.9c0.2-6.1-0.2-12.2,0.1-18.3
		c0.1-1.9,1.2-4.1,2.6-5.5c3.7-3.8,8-7,11.7-10.8c10.4-10.5,20.7-21.2,31-31.9c1.9-1.9,3-4.6,5-6.5c1.5-1.5,3.5-3,5.5-3.3
		c6.9-1.1,13.9-1.5,20.8-2.6c13.3-2.2,26.5-4.6,39.7-7.1c2.9-0.6,5.7-2.2,8.7-2.7c2.2-0.4,5-0.4,6.8,0.6c5.4,3,10.5,6.7,15.8,9.9
		c4.2,2.5,8.3,5.4,12.8,7c5.5,2,10,4.7,14.3,8.8c3.3,3.1,8,4.7,12.3,6.8c2.5,1.2,4.1,2.8,4.5,5.8c0.3,2.4,1,4.8,2,6.9
		c4.6,9.8,9.4,19.5,14.2,29.3c0.3,0.7,0.8,1.4,0.9,2.1c0.1,1,0.1,2.4-0.5,2.9c-0.5,0.5-2,0.2-2.9-0.2c-8.6-4.1-17.1-8.3-25.6-12.4
		c-2.6-1.3-5.3-2.4-7.9-3.6c-2.5-1.1-4.3-0.2-4.9,2.4c-0.5,2.1-0.8,4.2-0.8,6.3c-0.1,27.7,0,55.4-0.1,83c0,4.3,2.3,7.7,3.6,11.4
		c2.1,6.2,6.2,10.4,10.4,14.8c0.8,0.9,1.8,1.7,2.8,2.3c3.1,1.9,5.4,1.1,7.6-2.4c4.4-7.2,8.7-14.4,13.1-21.6c0.9-1.4,1.9-2.7,2.8-4.1
		C218.8,157.1,219.2,157.3,219.6,157.5z M68.7,115.3C68.7,115.3,68.7,115.3,68.7,115.3c0,15.1,0,30.3,0.1,45.4c0,5,1.8,7,6.8,7.3
		c4.4,0.3,8.9,0.3,13.3,0c6.7-0.4,8.4-2.1,8.4-8.8c0.1-9.3,0.2-18.7-0.1-28c-0.1-3.2-1.1-6.5-2.2-9.7c-1.5-4.4-0.1-8.5,3.9-9.8
		c4.1-1.4,7.4,0.8,9.1,5.3c1.3,3.5,2.9,7.1,5.2,10c6.8,8.8,14,17.4,21.2,25.9c3.9,4.6,7.5,9.1,13.4,12c4.1,2,7.7,3.2,12,3.2
		c12,0,13-1.1,13.1-13.2c0-26.8,0-53.5,0-80.3c0-2.4-0.1-4.9-0.4-7.3c-0.5-4-2.6-6.1-6.5-6.3c-5-0.2-10.1,0-15.1,0.1
		c-3.5,0-5.2,2.2-5.9,5.3c-0.5,2.1-0.5,4.2-0.6,6.4c-0.1,7.8-0.3,15.6,0.1,23.4c0.2,3.7,1.3,7.4,2.4,11c0.8,2.7,0.7,5.1-1.1,7.3
		c-1.9,2.2-4.2,3.1-7,2.3c-2.7-0.8-4.1-2.8-4.9-5.5c-0.9-2.8-2.1-5.6-3.6-8.1c-1.6-2.6-3.6-5-5.7-7.1c-10.6-11-17.1-25.9-31.8-32.8
		c-1.7-0.8-3.5-1.9-5.3-2c-3.6-0.3-7.3-0.2-11,0c-4.3,0.2-6.6,2.4-7.1,6.8c-0.3,2.4-0.3,4.9-0.3,7.3C68.7,88.7,68.7,102,68.7,115.3z
		 M61.9,160.7c0.3-0.2,0.7-0.4,1-0.5c0.1-1.3,0.3-2.7,0.3-4c0-27.2,0-54.3,0-81.5c0-4.3-0.2-8.3-3.2-12c-2.5-3.1-8-7.1-11.2-6.5
		c-4.2,0.8-4.1,4.8-5.5,7.8c-0.1,0.1-0.1,0.3-0.1,0.4c-5.4,16.8-11,33.6-16.3,50.4c-1.7,5.5-1.1,10.5,3.6,14.9
		c9.4,8.9,18.3,18.3,27.5,27.5C59.2,158.4,60.6,159.5,61.9,160.7z M143.6,203.6c0.6-1.6,1-2.1,1-2.6c-0.6-7-1.1-14-2-20.9
		c-0.2-1.5-1.7-2.8-2.5-4.2c-1-1.8-2.6-3.7-2.7-5.6c-0.2-3.8-1.8-6.7-4.1-9.5c-7.9-9.7-15.8-19.4-23.8-29.1
		c-1.5-1.8-3.3-3.4-5.5-5.6c-0.4,2.3-0.8,3.6-0.8,4.9c-0.1,10.1-0.1,20.2-0.1,30.3c0,1,0.1,2.2,0.6,3.1c3,6,6.7,11.5,12.4,15.4
		c2,1.4,3.7,3.2,5.5,4.8C128.7,190.7,135.8,196.9,143.6,203.6z M81.3,55.6c0.9,0,1.8-0.1,2.7,0c6.9,0.8,11.2-2.6,14.1-8.5
		c1.7-3.4,3.6-6.8,5-10.3c0.6-1.4,0.8-3.3,0.3-4.7c-2.3-6.1-7-8.7-13.4-8.7c-2.2,0-4.3-1-6.5-1.5c-3.3-0.8-6.6-2.3-9.8-2
		c-3.2,0.3-7.4,1.6-9.1,4c-5,7-9,14.8-13.4,22.3c-1.3,2.2-0.4,4.2,1.8,4.7c3.3,0.8,6.7,1,10.1,1.3C65,52.4,76.9,55.4,81.3,55.6z
		 M137.6,102.3c0.3-2.1,0.7-3.5,0.8-4.9c0.1-7.2,0.6-14.4-0.1-21.5c-0.7-7-2.7-13.8-4.2-20.7c-0.3-1.3-1.1-2.6-2-3.6
		c-5.1-6-10.3-12-15.6-17.9c-2.7-3-4.8-2.5-6.5,1.2c-1.3,2.9-2.7,5.7-4.1,8.6c-2.2,4.6-4.8,9.1-1.3,14.2c0.4,0.6,0.2,1.5,0.4,2.2
		c0.7,2.2,1,4.9,2.4,6.6c9,11.4,18.3,22.5,27.5,33.8C135.5,100.8,136.3,101.3,137.6,102.3z M118.8,27.6c0.5,0.9,0.8,1.5,1.2,1.9
		c2.9,3.3,5.6,6.9,8.9,9.8c3.2,2.9,6,6,8.4,9.5c0.4,0.6,1,1.3,1.7,1.5c5.4,2,10,6.3,16.5,5.3c3.1-0.5,6.4-0.1,9.6-0.1
		c5.4-0.1,7.1-1.5,7.9-6.8c0.8-4.8,1.1-9.7,1.6-14.5c0.5-5.1-0.2-6-5.3-6.1c-3,0-6.2,0.8-9,0.2c-4.9-1-15.3-0.7-16-0.7
		C135.9,27.5,127.6,27.6,118.8,27.6z M91.7,215.3c0.4-0.1,0.7-0.1,1-0.1c14.6-2.4,29.2-4.7,43.9-7.1c0.7-0.1,1.8-0.7,1.8-1
		c-0.1-0.8-0.4-1.8-1-2.3c-9.7-8-19.3-15.9-29.2-23.7c-2.8-2.2-5.9-1.4-7.9,1.5c-0.5,0.8-0.9,1.6-1.2,2.4
		c-3.2,9.1-6.5,18.1-9.7,27.2C88.5,214.5,89.6,215.4,91.7,215.3z M193.4,190.6c-3.2-3.2-5.7-5.7-8.2-8.2c-2.9-2.8-5.7-5.5-10.2-5.1
		c-1.2,0.1-2.4-1.1-3.7-1.5c-2.1-0.8-4.2-1.8-6.3-2c-3.2-0.3-6.4-0.2-9.6-0.1c-5.6,0.1-7.1,1.7-6.9,7.2c0.2,6.1,0.6,12.1,1,18.2
		c0.4,5.6,1.2,6.2,6.5,4.4C168.1,199.5,180.1,195.2,193.4,190.6z M27.7,133.9c-0.4,0.2-0.8,0.3-1.2,0.5c0.2,1.6,0.3,3.2,0.7,4.8
		c2.7,12.5,5.5,25,8.1,37.6c0.7,3.1,2.4,3.2,4.7,2.2c4.3-1.9,8.7-3.8,12.9-5.8c7.9-3.8,8.2-5.3,2-11.7c-7.8-8-15.6-15.9-23.4-23.9
		C30.4,136.3,29,135.1,27.7,133.9z M77.2,212.2c0.3-0.3,0.7-0.6,1-0.9c-0.5-1.6-0.8-3.2-1.4-4.7c-2.7-7.3-5.5-14.6-8.1-21.9
		c-1.9-5.3-8.7-8.7-14-6.7c-4.3,1.6-8.5,3.4-12.7,5.2c-0.8,0.3-1.9,1.2-1.9,1.7c0.2,0.9,0.9,1.8,1.7,2.4c1.5,1.1,3.2,1.8,4.7,2.8
		c7.7,5.7,15.4,11.5,23.2,17.1C72.2,209,74.8,210.5,77.2,212.2z M181.2,32.9c-0.5,0.1-1,0.2-1.5,0.3c-0.3,3.4-0.4,6.9-0.9,10.3
		c-1.3,8.3,2.7,13.7,9.4,17.7c8.4,5,16.8,10,25.3,14.9c0.9,0.5,2,0.7,2.9,1c0.2-0.3,0.4-0.7,0.6-1C205.1,61.6,193.2,47.3,181.2,32.9
		z M83.2,210.4c0.7,0,1.4,0,2,0c2.9-10.2,6-20.3,8.7-30.6c0.8-3.1-1.4-5.6-4.9-5.9c-3.9-0.4-7.9-0.4-11.9-0.2
		c-4.2,0.1-5.2,1.5-4,5.6c1.7,6,3.6,12,5.5,17.9C80.1,201.6,81.7,206,83.2,210.4z M21.6,110.1c0.6,0,1.2,0.1,1.8,0.1
		c4.3-17.4,11.7-33.8,15.5-51.5c-5.1,2.6-9.7,5.6-14.2,8.6c-5,3.3-5.8,5.3-4.9,11.1c0.6,3.9,1,7.9,1.2,11.8
		C21.2,96.8,21.3,103.5,21.6,110.1z M121.7,20.3c0.2,0.7,0.4,1.3,0.7,2c8.8,0,17.7,0.1,26.5-0.1c3.1-0.1,3.9-1.7,2-4.1
		c-2.3-2.8-4.7-5.7-7.5-8C142,9,139.1,8.2,138,8.9C132.4,12.4,127.1,16.4,121.7,20.3z M106.4,217.5c0,0.5,0,1,0,1.4
		c10.4,0.7,20.9,1.4,31.3,1.9c1.6,0.1,3.7-0.9,4.9-2.1c1-1.1,1.5-3.2,1.2-4.7c-0.1-0.7-2.4-1.6-3.7-1.5c-2.2,0-4.5,0.7-6.7,1
		C124.4,214.9,115.4,216.2,106.4,217.5z M179.3,202c-0.2-0.4-0.4-0.8-0.6-1.2c-8,2.8-16.2,5.3-24.1,8.4c-2,0.8-3.6,3.2-5,5.1
		c-0.6,0.9-0.1,2.6-0.2,3.9c1.2-0.2,2.7,0,3.7-0.6c7.7-4.4,15.3-8.9,22.9-13.4C177.2,203.6,178.3,202.8,179.3,202z M20.7,131.4
		c-0.5,0-1,0-1.4,0c-2.4,4.2-3.4,8.5-1.3,13.3c2.3,5.2,4.5,10.3,6.8,15.5c0.4,0.8,1,1.5,1.5,2.2c0.3-0.1,0.5-0.3,0.8-0.4
		C25,151.8,22.9,141.6,20.7,131.4z M124.4,11.2c-2,0.1-2.9,0-3.7,0.3c-5.4,1.4-10.9,2.7-16.3,4.3c-1.6,0.5-3,1.7-4.4,2.6
		c1.7,0.9,3.5,1.9,5.2,2.8c0.4,0.2,0.9,0.2,1.3,0.1C113.2,19.9,119.1,17.3,124.4,11.2z M169.2,21.9c-6.7-4-13-8.5-21.2-11.8
		C152.6,18.5,160.1,25.2,169.2,21.9z M208.5,61.1c-0.8-7.9-15.2-26.1-20.4-26.7C195,43.4,201.8,52.2,208.5,61.1z"/>
</g>
</svg>
