<!-- Generated by IcoMoon.io -->
<svg version="1.1" xmlns="http://www.w3.org/2000/svg" width="32" height="32" viewBox="0 0 32 32">
<title>NCASH</title>
<path d="M30.984 22.222c-0.508 0.974-1.016 1.933-1.51 2.921-0.325 0.649-0.607 1.326-0.945 1.975-0.127 0.226-0.339 0.451-0.564 0.578-2.116 1.242-4.261 2.455-6.392 3.683-0.183 0.113-0.31 0.31-0.508 0.395-0.24 0.113-0.522 0.24-0.776 0.212-0.889-0.099-1.778-0.296-2.667-0.381-1.524-0.141-3.062-0.268-4.586-0.282-0.974-0.014-1.707-0.169-2.511-0.875-1.538-1.326-3.245-2.511-5.009-3.541-0.861-0.508-1.284-1.086-1.608-1.961-0.522-1.439-1.213-2.808-1.834-4.205-0.056-0.113-0.085-0.268-0.169-0.353-0.691-0.621-0.522-1.355-0.452-2.187 0.169-1.862 0.198-3.753 0.254-5.63 0.028-0.861-0.028-1.721 0.014-2.582 0.014-0.268 0.169-0.578 0.367-0.776 0.522-0.536 1.129-0.988 1.651-1.524 1.467-1.481 2.921-2.991 4.374-4.501 0.268-0.268 0.423-0.649 0.705-0.917 0.212-0.212 0.494-0.423 0.776-0.466 0.974-0.155 1.961-0.212 2.935-0.367 1.877-0.31 3.739-0.649 5.601-1.002 0.409-0.085 0.804-0.31 1.227-0.381 0.31-0.056 0.705-0.056 0.959 0.085 0.762 0.423 1.481 0.945 2.229 1.397 0.593 0.353 1.171 0.762 1.806 0.988 0.776 0.282 1.411 0.663 2.018 1.242 0.466 0.437 1.129 0.663 1.735 0.959 0.353 0.169 0.578 0.395 0.635 0.818 0.042 0.339 0.141 0.677 0.282 0.974 0.649 1.383 1.326 2.751 2.004 4.134 0.042 0.099 0.113 0.198 0.127 0.296 0.014 0.141 0.014 0.339-0.071 0.409-0.071 0.071-0.282 0.028-0.409-0.028-1.213-0.578-2.413-1.171-3.612-1.75-0.367-0.183-0.748-0.339-1.115-0.508-0.353-0.155-0.607-0.028-0.691 0.339-0.071 0.296-0.113 0.593-0.113 0.889-0.014 3.908 0 7.817-0.014 11.711 0 0.607 0.325 1.086 0.508 1.608 0.296 0.875 0.875 1.467 1.467 2.088 0.113 0.127 0.254 0.24 0.395 0.325 0.437 0.268 0.762 0.155 1.072-0.339 0.621-1.016 1.227-2.032 1.848-3.048 0.127-0.198 0.268-0.381 0.395-0.578 0.056 0.099 0.113 0.127 0.169 0.155zM9.693 16.268c0 0 0 0 0 0 0 2.131 0 4.275 0.014 6.406 0 0.705 0.254 0.988 0.959 1.030 0.621 0.042 1.256 0.042 1.877 0 0.945-0.056 1.185-0.296 1.185-1.242 0.014-1.312 0.028-2.638-0.014-3.951-0.014-0.451-0.155-0.917-0.31-1.369-0.212-0.621-0.014-1.199 0.55-1.383 0.578-0.198 1.044 0.113 1.284 0.748 0.183 0.494 0.409 1.002 0.734 1.411 0.959 1.242 1.975 2.455 2.991 3.654 0.55 0.649 1.058 1.284 1.891 1.693 0.578 0.282 1.086 0.451 1.693 0.451 1.693 0 1.834-0.155 1.848-1.862 0-3.781 0-7.549 0-11.33 0-0.339-0.014-0.691-0.056-1.030-0.071-0.564-0.367-0.861-0.917-0.889-0.705-0.028-1.425 0-2.131 0.014-0.494 0-0.734 0.31-0.832 0.748-0.071 0.296-0.071 0.593-0.085 0.903-0.014 1.101-0.042 2.201 0.014 3.302 0.028 0.522 0.183 1.044 0.339 1.552 0.113 0.381 0.099 0.72-0.155 1.030-0.268 0.31-0.593 0.437-0.988 0.325-0.381-0.113-0.578-0.395-0.691-0.776-0.127-0.395-0.296-0.79-0.508-1.143-0.226-0.367-0.508-0.705-0.804-1.002-1.496-1.552-2.413-3.654-4.487-4.628-0.24-0.113-0.494-0.268-0.748-0.282-0.508-0.042-1.030-0.028-1.552 0-0.607 0.028-0.931 0.339-1.002 0.959-0.042 0.339-0.042 0.691-0.042 1.030-0.056 1.877-0.056 3.753-0.056 5.63zM8.734 22.674c0.042-0.028 0.099-0.056 0.141-0.071 0.014-0.183 0.042-0.381 0.042-0.564 0-3.838 0-7.661 0-11.499 0-0.607-0.028-1.171-0.451-1.693-0.353-0.437-1.129-1.002-1.58-0.917-0.593 0.113-0.578 0.677-0.776 1.101-0.014 0.014-0.014 0.042-0.014 0.056-0.762 2.37-1.552 4.741-2.3 7.111-0.24 0.776-0.155 1.481 0.508 2.102 1.326 1.256 2.582 2.582 3.88 3.88 0.169 0.169 0.367 0.325 0.55 0.494zM20.261 28.727c0.085-0.226 0.141-0.296 0.141-0.367-0.085-0.988-0.155-1.975-0.282-2.949-0.028-0.212-0.24-0.395-0.353-0.593-0.141-0.254-0.367-0.522-0.381-0.79-0.028-0.536-0.254-0.945-0.578-1.34-1.115-1.369-2.229-2.737-3.358-4.106-0.212-0.254-0.466-0.48-0.776-0.79-0.056 0.325-0.113 0.508-0.113 0.691-0.014 1.425-0.014 2.85-0.014 4.275 0 0.141 0.014 0.31 0.085 0.437 0.423 0.847 0.945 1.623 1.75 2.173 0.282 0.198 0.522 0.451 0.776 0.677 1.002 0.861 2.004 1.735 3.104 2.681zM11.471 7.845c0.127 0 0.254-0.014 0.381 0 0.974 0.113 1.58-0.367 1.989-1.199 0.24-0.48 0.508-0.959 0.705-1.453 0.085-0.198 0.113-0.466 0.042-0.663-0.325-0.861-0.988-1.228-1.891-1.228-0.31 0-0.607-0.141-0.917-0.212-0.466-0.113-0.931-0.325-1.383-0.282s-1.044 0.226-1.284 0.564c-0.705 0.988-1.27 2.088-1.891 3.146-0.183 0.31-0.056 0.593 0.254 0.663 0.466 0.113 0.945 0.141 1.425 0.183 0.268 0.028 1.947 0.452 2.568 0.48zM19.414 14.434c0.042-0.296 0.099-0.494 0.113-0.691 0.014-1.016 0.085-2.032-0.014-3.034-0.099-0.988-0.381-1.947-0.593-2.921-0.042-0.183-0.155-0.367-0.282-0.508-0.72-0.847-1.453-1.693-2.201-2.526-0.381-0.423-0.677-0.353-0.917 0.169-0.183 0.409-0.381 0.804-0.578 1.213-0.31 0.649-0.677 1.284-0.183 2.004 0.056 0.085 0.028 0.212 0.056 0.31 0.099 0.31 0.141 0.691 0.339 0.931 1.27 1.608 2.582 3.175 3.88 4.769 0.085 0.071 0.198 0.141 0.381 0.282zM16.762 3.894c0.071 0.127 0.113 0.212 0.169 0.268 0.409 0.466 0.79 0.974 1.256 1.383 0.451 0.409 0.847 0.847 1.185 1.34 0.056 0.085 0.141 0.183 0.24 0.212 0.762 0.282 1.411 0.889 2.328 0.748 0.437-0.071 0.903-0.014 1.355-0.014 0.762-0.014 1.002-0.212 1.115-0.959 0.113-0.677 0.155-1.369 0.226-2.046 0.071-0.72-0.028-0.847-0.748-0.861-0.423 0-0.875 0.113-1.27 0.028-0.691-0.141-2.159-0.099-2.258-0.099-1.185-0.014-2.356 0-3.598 0zM12.938 30.377c0.056-0.014 0.099-0.014 0.141-0.014 2.060-0.339 4.12-0.663 6.194-1.002 0.099-0.014 0.254-0.099 0.254-0.141-0.014-0.113-0.056-0.254-0.141-0.325-1.369-1.129-2.723-2.243-4.12-3.344-0.395-0.31-0.832-0.198-1.115 0.212-0.071 0.113-0.127 0.226-0.169 0.339-0.451 1.284-0.917 2.554-1.369 3.838-0.127 0.325 0.028 0.451 0.325 0.437zM27.287 26.892c-0.451-0.451-0.804-0.804-1.157-1.157-0.409-0.395-0.804-0.776-1.439-0.72-0.169 0.014-0.339-0.155-0.522-0.212-0.296-0.113-0.593-0.254-0.889-0.282-0.451-0.042-0.903-0.028-1.355-0.014-0.79 0.014-1.002 0.24-0.974 1.016 0.028 0.861 0.085 1.707 0.141 2.568 0.056 0.79 0.169 0.875 0.917 0.621 1.707-0.564 3.4-1.171 5.277-1.82zM3.908 18.892c-0.056 0.028-0.113 0.042-0.169 0.071 0.028 0.226 0.042 0.451 0.099 0.677 0.381 1.764 0.776 3.527 1.143 5.305 0.099 0.437 0.339 0.451 0.663 0.31 0.607-0.268 1.228-0.536 1.82-0.818 1.115-0.536 1.157-0.748 0.282-1.651-1.101-1.129-2.201-2.243-3.302-3.372-0.155-0.183-0.353-0.353-0.536-0.522zM10.892 29.94c0.042-0.042 0.099-0.085 0.141-0.127-0.071-0.226-0.113-0.451-0.198-0.663-0.381-1.030-0.776-2.060-1.143-3.090-0.268-0.748-1.227-1.227-1.975-0.945-0.607 0.226-1.199 0.48-1.792 0.734-0.113 0.042-0.268 0.169-0.268 0.24 0.028 0.127 0.127 0.254 0.24 0.339 0.212 0.155 0.452 0.254 0.663 0.395 1.086 0.804 2.173 1.623 3.273 2.413 0.353 0.254 0.72 0.466 1.058 0.705zM25.566 4.642c-0.071 0.014-0.141 0.028-0.212 0.042-0.042 0.48-0.056 0.974-0.127 1.453-0.183 1.171 0.381 1.933 1.326 2.497 1.185 0.705 2.37 1.411 3.57 2.102 0.127 0.071 0.282 0.099 0.409 0.141 0.028-0.042 0.056-0.099 0.085-0.141-1.679-2.046-3.358-4.064-5.051-6.095zM11.739 29.686c0.099 0 0.198 0 0.282 0 0.409-1.439 0.847-2.864 1.228-4.317 0.113-0.437-0.198-0.79-0.691-0.832-0.55-0.056-1.115-0.056-1.679-0.028-0.593 0.014-0.734 0.212-0.564 0.79 0.24 0.847 0.508 1.693 0.776 2.526 0.212 0.621 0.437 1.242 0.649 1.862zM3.048 15.534c0.085 0 0.169 0.014 0.254 0.014 0.607-2.455 1.651-4.769 2.187-7.266-0.72 0.367-1.369 0.79-2.004 1.213-0.705 0.466-0.818 0.748-0.691 1.566 0.085 0.55 0.141 1.115 0.169 1.665 0.028 0.931 0.042 1.877 0.085 2.808zM17.171 2.864c0.028 0.099 0.056 0.183 0.099 0.282 1.242 0 2.497 0.014 3.739-0.014 0.437-0.014 0.55-0.24 0.282-0.578-0.325-0.395-0.663-0.804-1.058-1.129-0.198-0.155-0.607-0.268-0.762-0.169-0.79 0.494-1.538 1.058-2.3 1.608zM15.012 30.688c0 0.071 0 0.141 0 0.198 1.467 0.099 2.949 0.198 4.416 0.268 0.226 0.014 0.522-0.127 0.691-0.296 0.141-0.155 0.212-0.451 0.169-0.663-0.014-0.099-0.339-0.226-0.522-0.212-0.31 0-0.635 0.099-0.945 0.141-1.27 0.198-2.54 0.381-3.81 0.564zM25.298 28.501c-0.028-0.056-0.056-0.113-0.085-0.169-1.129 0.395-2.286 0.748-3.4 1.185-0.282 0.113-0.508 0.451-0.705 0.72-0.085 0.127-0.014 0.367-0.028 0.55 0.169-0.028 0.381 0 0.522-0.085 1.086-0.621 2.159-1.256 3.231-1.891 0.169-0.085 0.325-0.198 0.466-0.31zM2.921 18.54c-0.071 0-0.141 0-0.198 0-0.339 0.593-0.48 1.199-0.183 1.877 0.325 0.734 0.635 1.453 0.959 2.187 0.056 0.113 0.141 0.212 0.212 0.31 0.042-0.014 0.071-0.042 0.113-0.056-0.296-1.439-0.593-2.878-0.903-4.317zM17.552 1.58c-0.282 0.014-0.409 0-0.522 0.042-0.762 0.198-1.538 0.381-2.3 0.607-0.226 0.071-0.423 0.24-0.621 0.367 0.24 0.127 0.494 0.268 0.734 0.395 0.056 0.028 0.127 0.028 0.183 0.014 0.945-0.198 1.778-0.564 2.526-1.425zM23.873 3.090c-0.945-0.564-1.834-1.199-2.991-1.665 0.649 1.185 1.707 2.131 2.991 1.665zM29.418 8.621c-0.113-1.115-2.145-3.683-2.878-3.767 0.974 1.27 1.933 2.511 2.878 3.767z"></path>
</svg>
