<?xml version="1.0" encoding="utf-8"?>
<!-- Generator: Adobe Illustrator 22.0.1, SVG Export Plug-In . SVG Version: 6.00 Build 0)  -->
<svg version="1.1" id="Layer_1" xmlns="http://www.w3.org/2000/svg" xmlns:xlink="http://www.w3.org/1999/xlink" x="0px" y="0px"
	 viewBox="0 0 226.8 226.8" style="enable-background:new 0 0 226.8 226.8;" xml:space="preserve">
<style type="text/css">
	.st0{stroke:#FFFFFF;stroke-miterlimit:10;}
</style>
<path class="st0" d="M54.8,85.9v-4.5L8.7,56.5c-3,4.9-4.6,10.5-4.6,16.2v40.5l0.1,0.1L54.8,85.9z"/>
<path class="st0" d="M4.2,113.3l50.6,27.4V85.9L4.2,113.3"/>
<g transform="translate(-35)">
	<path class="st0" d="M252.5,57.1l-45.1,24.4V86l49.4,26.8V72.7C256.8,67.2,255.3,61.8,252.5,57.1"/>
	<path class="st0" d="M89.8,142.8v-2.2l-50.6-27.4l-0.1,0.1v39.8c0,6,1.8,11.7,4.9,16.7L89.8,145V142.8z"/>
</g>
<path class="st0" d="M167.7,78.5V24.8L118,51.7L167.7,78.5"/>
<path class="st0" d="M172.4,81.1v0.4l45.1-24.4c-3-5.1-7.4-9.4-12.9-12.4l-36.8-19.9v53.8"/>
<path class="st0" d="M113.5,167.2l49.4-26.7V140l-49.4-26.7L113.5,167.2"/>
<path class="st0" d="M58.8,147.4v54.1l0.6,0.3l50-27.1L58.8,147.4"/>
<g transform="translate(-35)">
	<path class="st0" d="M89.9,145.2V145L44,169.9c3,4.6,7.2,8.6,12.3,11.4l37.4,20.3v-54.1L89.9,145.2z"/>
	<path class="st0" d="M148.9,49.4l4.2,2.3l49.7-26.9L165.2,4.5c-5.1-2.8-10.8-4.2-16.6-4.3v49.4L148.9,49.4z"/>
	<path class="st0" d="M144.4,51.8l4.2-2.3V0.2c-5.4-0.1-10.8,1-15.7,3.2l-39,21.1L144.4,51.8z"/>
</g>
<path class="st0" d="M58.9,24.5L58.9,24.5l-0.1,54.7l50.6-27.4L58.9,24.5"/>
<g transform="translate(-35)">
	<path class="st0" d="M89.8,81.4l2.1-1.2l1.9-1V24.5L54.2,46c-4.3,2.7-7.9,6.3-10.5,10.6L89.8,81.4L89.8,81.4z"/>
	<path class="st0" d="M148.9,177.2l-0.3-0.2v48.8c5.8-0.1,11.5-1.6,16.6-4.3l36.9-20L153,174.9L148.9,177.2z"/>
	<path class="st0" d="M144.4,174.8l-50,27.1l36.3,19.6c5.5,3,11.7,4.4,17.9,4.3V177"/>
</g>
<path class="st0" d="M118.1,174.9l49.1,26.6l0.6-0.3v-53.1L118.1,174.9"/>
<g transform="translate(-35)">
	<path class="st0" d="M207.4,145.5l-4.7,2.5v53.1l36.8-19.9c5.3-2.9,9.7-7,12.7-11.9L207.4,145"/>
	<path class="st0" d="M207.4,145.1l44.8,24.3c3-4.9,4.6-10.5,4.6-16.2v-39.3l-49.4,26.8"/>
</g>
<path class="st0" d="M172.4,140.7l49.4-26.8v-1.2l-49.4-26.8V140.7"/>
<path class="st0" d="M162.9,140V86.6l-49.4,26.7L162.9,140"/>
</svg>
