<!-- Generated by IcoMoon.io -->
<svg version="1.1" xmlns="http://www.w3.org/2000/svg" width="32" height="32" viewBox="0 0 32 32">
<title>NEBL</title>
<path d="M7.732 12.12v-0.635l-6.504-3.513c-0.423 0.691-0.649 1.481-0.649 2.286v5.714l0.014 0.014 7.139-3.866z"></path>
<path d="M0.593 15.986l7.139 3.866v-7.732l-7.139 3.866"></path>
<path d="M30.688 8.056l-6.363 3.443v0.635l6.97 3.781v-5.658c0-0.776-0.212-1.538-0.607-2.201"></path>
<path d="M7.732 20.148v-0.31l-7.139-3.866-0.014 0.014v5.616c0 0.847 0.254 1.651 0.691 2.356l6.462-3.499v-0.31z"></path>
<path d="M23.661 11.076v-7.577l-7.012 3.795 7.012 3.781"></path>
<path d="M24.325 11.443v0.056l6.363-3.443c-0.423-0.72-1.044-1.326-1.82-1.75l-5.192-2.808v7.591"></path>
<path d="M16.014 23.591l6.97-3.767v-0.071l-6.97-3.767v7.605"></path>
<path d="M8.296 20.797v7.633l0.085 0.042 7.055-3.824-7.139-3.852"></path>
<path d="M7.746 20.487v-0.028l-6.476 3.513c0.423 0.649 1.016 1.213 1.735 1.608l5.277 2.864v-7.633l-0.536-0.325z"></path>
<path d="M16.071 6.97l0.593 0.325 7.012-3.795-5.305-2.864c-0.72-0.395-1.524-0.593-2.342-0.607v6.97l0.042-0.028z"></path>
<path d="M15.436 7.309l0.593-0.325v-6.956c-0.762-0.014-1.524 0.141-2.215 0.452l-5.503 2.977 7.125 3.852z"></path>
<path d="M8.31 3.457v0l-0.014 7.718 7.139-3.866-7.125-3.852"></path>
<path d="M7.732 11.485l0.296-0.169 0.268-0.141v-7.718l-5.587 3.034c-0.607 0.381-1.115 0.889-1.481 1.496l6.504 3.499z"></path>
<path d="M16.071 25.002l-0.042-0.028v6.885c0.818-0.014 1.623-0.226 2.342-0.607l5.206-2.822-6.928-3.753-0.578 0.325z"></path>
<path d="M15.436 24.663l-7.055 3.824 5.122 2.765c0.776 0.423 1.651 0.621 2.526 0.607v-6.885"></path>
<path d="M16.663 24.677l6.928 3.753 0.085-0.042v-7.492l-7.012 3.781"></path>
<path d="M24.325 20.529l-0.663 0.353v7.492l5.192-2.808c0.748-0.409 1.369-0.988 1.792-1.679l-6.321-3.429"></path>
<path d="M24.325 20.473l6.321 3.429c0.423-0.691 0.649-1.481 0.649-2.286v-5.545l-6.97 3.781"></path>
<path d="M24.325 19.852l6.97-3.781v-0.169l-6.97-3.781v7.732"></path>
<path d="M22.984 19.753v-7.534l-6.97 3.767 6.97 3.767"></path>
</svg>
