<?xml version="1.0" encoding="utf-8"?>
<!-- Generator: Adobe Illustrator 22.1.0, SVG Export Plug-In . SVG Version: 6.00 Build 0)  -->
<svg version="1.1" id="Layer_1" xmlns="http://www.w3.org/2000/svg" xmlns:xlink="http://www.w3.org/1999/xlink" x="0px" y="0px"
	 viewBox="0 0 226.8 226.8" style="enable-background:new 0 0 226.8 226.8;" xml:space="preserve">
<g>
	<path d="M113.7,43.1c4.5,6.5,8.9,12.7,13.2,18.9c12,17.2,23.8,34.5,35.9,51.6c1.8,2.6,2.1,4.5,0.7,7.3c-10.1,19.5-20,39-29.8,58.6
		c-1.4,2.9-3,3.9-6.3,3.8c-9.4-0.2-18.7-0.2-28.1,0c-2.7,0.1-4-0.8-5.2-3.1c-10.1-20-20.3-39.9-30.3-60c-0.7-1.4-0.9-4,0-5.2
		C80.2,91.1,96.8,67.3,113.7,43.1z"/>
	<path d="M0,117.2c15.3-23.5,30-46,45-68.9c9.3,9.7,18.3,19.1,27.3,28.6c-8.6,12.5-17,24.8-25.5,36.9c-1.7,2.4-1.9,4.3-0.5,7
		c9.9,18.8,19.6,37.8,29.3,56.7c0.9,1.7,1.7,3.4,2.6,5.4c-4.7,1.1-8,0.3-11.5-3C45.7,159.4,24.3,139.2,2.9,119
		C2.1,118.2,1,117.8,0,117.2z"/>
	<path d="M182.3,48.3c14.9,22.9,29.6,45.4,44.5,68.2c-6.2,6-12.4,11.9-18.5,17.7c-15.7,14.9-31.5,29.7-47,44.8
		c-3.6,3.5-7.1,5.2-12.3,3.9c2.1-4.2,4.2-8.3,6.3-12.5c8.3-16.2,16.6-32.4,25.1-48.5c1.8-3.4,1.9-5.7-0.4-9
		c-8.5-11.8-16.6-23.8-25-36C164.1,67.4,173.1,58,182.3,48.3z"/>
</g>
</svg>
