<!-- Generated by IcoMoon.io -->
<svg version="1.1" xmlns="http://www.w3.org/2000/svg" width="32" height="32" viewBox="0 0 32 32">
<title>NEGOCIECOINS</title>
<path d="M31.605 16c-0.014 8.677-7.012 15.661-15.69 15.647-8.663-0.014-15.661-7.041-15.633-15.704s7.041-15.661 15.704-15.633c8.635 0.014 15.633 7.041 15.619 15.69zM30.617 16c0.014-8.085-6.547-14.688-14.603-14.702-8.169-0.014-14.744 6.519-14.744 14.73s6.744 14.688 14.801 14.645c7.958-0.042 14.547-6.617 14.547-14.674z"></path>
<path d="M29.235 15.972c-0.014 7.337-5.982 13.319-13.263 13.305-7.393-0.014-13.333-5.954-13.333-13.333 0-7.337 5.996-13.277 13.362-13.263 7.295 0.028 13.249 5.996 13.235 13.291zM19.302 25.242c0.254-0.014 0.48 0.028 0.607-0.071 0.226-0.141 0.028-0.353-0.028-0.536-0.127-0.409-0.085-0.564 0.24-0.818s0.663-0.494 0.974-0.748c0.296-0.24 0.578-0.494 0.945-0.79-0.494 1.355-0.945 2.61-1.425 3.951 0.282-0.113 0.466-0.183 0.635-0.268 1.566-0.79 2.864-1.919 3.908-3.302 0.466-0.607 0.79-1.326 1.157-2.004 0.099-0.169 0.099-0.395 0.155-0.649-0.705 0.198-1.34 0.367-2.004 0.55 0.042-0.607 0.282-1.101 0.578-1.566 0.113-0.169 0.395-0.24 0.593-0.353 0.141-0.071 0.282-0.127 0.437-0.183 0.705-0.296 1.101-0.847 1.242-1.594 0.155-0.79 0.169-1.594 0.028-2.384-0.099-0.635-0.268-1.256-0.409-1.919-0.621 0.155-1.171 0.296-1.721 0.437-0.085 0.014-0.226 0.014-0.268-0.042-0.325-0.367-0.621-0.748-0.945-1.171 0.804-0.226 1.566-0.437 2.356-0.663-1.298-2.695-3.203-4.698-6.039-5.785 0.381 0.734 0.734 1.425 1.072 2.088-0.423 0.028-0.79 0.056-1.171 0.071-0.085 0-0.183 0.014-0.24-0.028-0.24-0.212-0.508-0.409-0.705-0.663-0.409-0.508-0.776-1.072-1.199-1.58-0.325-0.381-0.762-0.649-1.298-0.79 0 0.593 0 1.143 0 1.721-0.578 0-1.129 0-1.721 0 0-0.578 0-1.115 0-1.693-0.522 0.127-0.931 0.381-1.242 0.734-0.466 0.55-0.861 1.157-1.326 1.707-0.212 0.24-0.508 0.452-0.804 0.536-0.339 0.085-0.72 0.014-1.115 0.014 0.339-0.72 0.663-1.397 0.988-2.074-2.765 1.086-4.741 2.963-6.039 5.658 0.818 0.226 1.594 0.437 2.384 0.663-0.212 0.325-0.381 0.621-0.578 0.889-0.268 0.395-0.395 0.423-0.832 0.31-0.409-0.099-0.818-0.183-1.213-0.325-0.282-0.099-0.381-0.014-0.452 0.254-0.339 1.284-0.395 2.596-0.367 3.908 0.014 0.621 0.339 1.072 0.917 1.312 0.212 0.085 0.423 0.212 0.635 0.268 0.508 0.141 0.832 0.437 0.988 0.945 0.127 0.395 0.282 0.762 0.466 1.227-0.818-0.24-1.524-0.451-2.3-0.677 1.213 2.907 3.118 5.051 5.996 6.307-0.395-1.157-0.776-2.3-1.199-3.556 0.649 0.451 1.228 0.832 1.792 1.227 0.254 0.183 0.353 0.437 0.296 0.748-0.014 0.099-0.028 0.183-0.028 0.282 0 0.24 0.099 0.367 0.367 0.353 0.085 0 0.212 0.056 0.254 0.127 0.381 0.536 0.861 0.903 1.496 1.072 0.437 0.113 0.776 0.367 1.030 0.734 0.155 0.226 0.282 0.466 0.451 0.677 0.099 0.127 0.24 0.282 0.381 0.296 0.085 0.014 0.24-0.212 0.296-0.339 0.296-0.677 0.734-1.171 1.481-1.383 0.663-0.141 1.199-0.55 1.524-1.115z"></path>
<path d="M25.481 18.032c-0.127-0.014-0.212-0.042-0.325-0.056-0.339 0.974-1.016 1.806-1.072 2.907-0.113-0.141-0.212-0.268-0.339-0.437-0.663 0.564-1.326 1.129-1.989 1.693-0.536 0.451-1.072 0.903-1.651 1.312-0.536 0.395-0.72 0.847-0.381 1.496-0.212-0.056-0.353-0.085-0.522-0.127-0.339 0.79-1.002 1.157-1.764 1.397-0.564 0.183-0.945 0.593-1.227 1.115-0.071 0.141-0.141 0.296-0.24 0.494-0.155-0.24-0.282-0.437-0.409-0.649-0.339-0.55-0.804-0.917-1.439-1.101-0.621-0.169-0.847-0.381-1.453-1.256-0.085 0.014-0.198 0.028-0.325 0.056 0-0.127-0.014-0.254 0-0.367 0.042-0.395-0.113-0.691-0.409-0.931-0.183-0.141-0.381-0.296-0.593-0.423-1.086-0.621-2.032-1.439-2.935-2.3-0.099-0.099-0.198-0.183-0.31-0.282-0.113 0.099-0.226 0.169-0.296 0.226-0.141-0.48-0.268-0.974-0.437-1.453-0.183-0.466-0.409-0.917-0.635-1.383-0.085 0.014-0.183 0.028-0.339 0.056-0.056-0.945-0.113-1.877-0.169-2.794-0.014-0.169 0.042-0.339 0.071-0.494 0.127-0.607 0.437-1.101 0.861-1.538 0.254-0.268 0.494-0.564 0.705-0.875 0.353-0.508 0.677-1.016 1.213-1.34 0.056-0.028 0.099-0.169 0.085-0.254-0.254-1.058 0.155-1.891 0.861-2.624 0.367-0.381 0.861-0.452 1.34-0.367 0.381 0.056 0.691-0.042 1.002-0.254 0.663-0.466 1.369-0.889 2.201-0.959 0.776-0.056 1.552-0.071 2.328-0.056 0.367 0 0.734 0.085 1.086 0.183 0.635 0.155 1.185 0.466 1.665 0.903 0.212 0.198 0.437 0.268 0.72 0.212 1.016-0.169 1.651 0.155 2.102 1.072 0.226 0.466 0.522 0.974 0.381 1.496-0.127 0.451 0.099 0.663 0.339 0.931 0.621 0.705 1.227 1.425 1.82 2.159 0.48 0.593 0.734 1.284 0.72 2.032-0.056 0.889-0.169 1.735-0.24 2.582zM14.589 16.677c0.028 0 0.056 0 0.085 0.014-0.099 0.607-0.183 1.213-0.296 1.905 0.395-0.353 0.748-0.296 1.115-0.113 0.282 0.141 0.564 0.155 0.847 0.028 0.395-0.183 0.762-0.296 1.129 0.127 0.099-0.677-0.451-1.227-0.155-1.933 0.071 0.282 0.113 0.466 0.155 0.663 0.056 0.198 0.141 0.395 0.183 0.607 0.042 0.183 0.071 0.367 0.071 0.564-0.028 0.409-0.578 0.861-0.889 0.72-0.282-0.127-0.466 0-0.564 0.212-0.085 0.198-0.113 0.451-0.071 0.663 0.141 0.762 1.143 1.453 1.919 1.383 0.339-0.028 0.536-0.226 0.522-0.578-0.014-0.226-0.056-0.466-0.113-0.677-0.325-1.101-0.24-2.159 0.296-3.175 0.042-0.071 0.056-0.155 0.085-0.24-0.028-0.014-0.056-0.042-0.071-0.056-0.296 0.226-0.607 0.451-0.945 0.705 0.127-0.55 0.296-0.974 0.847-1.185 0.55-0.198 0.889-0.663 1.058-1.213 0.099-0.31 0.254-0.55 0.536-0.748 0.24-0.155 0.395-0.395 0.296-0.72-0.395-1.439-1.383-2.497-2.37-3.541-0.226-0.24-0.564-0.254-0.903-0.198 0.409 0.24 0.988 0.31 1.030 0.945-0.48-0.367-0.593-0.395-1.213-0.381-0.776 0.014-1.566 0.071-2.342 0.028-0.494-0.028-0.945-0.042-1.369 0.353 0.085-0.663 0.607-0.72 1.030-0.931-0.085-0.071-0.169-0.099-0.254-0.085-0.451 0.085-0.804 0.31-1.072 0.705-0.31 0.451-0.635 0.931-1.016 1.312-0.494 0.494-0.818 1.058-0.959 1.735-0.071 0.353 0.014 0.635 0.31 0.818 0.268 0.169 0.437 0.409 0.55 0.705 0.226 0.607 0.607 1.058 1.228 1.312 0.451 0.169 0.564 0.593 0.663 1.086-0.339-0.254-0.621-0.48-0.903-0.691-0.028 0.014-0.042 0.042-0.071 0.056 0.014 0.071 0.028 0.155 0.071 0.212 0.55 1.044 0.635 2.131 0.282 3.259-0.071 0.212-0.099 0.451-0.099 0.677 0 0.395 0.282 0.607 0.649 0.508 0.325-0.085 0.621-0.24 0.931-0.381 0.635-0.296 0.903-0.804 0.832-1.51-0.028-0.353-0.282-0.508-0.593-0.367-0.056 0.028-0.141 0.056-0.198 0.042-0.48-0.226-0.818-0.494-0.691-1.086 0.127-0.536 0.296-1.030 0.437-1.538zM13.093 21.362c0.028 0.875 0.72 1.552 0.494 2.427-0.141-0.31-0.198-0.649-0.353-0.945-0.564-1.129-0.734-2.286-0.367-3.499 0.056-0.183 0.028-0.381 0.042-0.578-0.113 0.014-0.155 0.028-0.183 0.056-0.522 0.776-0.762 1.594-0.536 2.526 0.183 0.79 0.353 1.58 0.494 2.37 0.127 0.677 0.395 1.284 0.959 1.721 0.085 0.071 0.198 0.127 0.353 0.226-0.056-0.339-0.099-0.578-0.127-0.832-0.028-0.24-0.113-0.508 0.155-0.748 0.085 1.002 0.635 1.665 1.397 2.201 0.31 0.212 0.607 0.226 0.917 0.042 0.804-0.48 1.355-1.143 1.481-2.102 0.014-0.056 0.042-0.127 0.071-0.212 0.325 0.578 0.071 1.115-0.042 1.707 0.691-0.423 1.129-0.959 1.27-1.707 0.141-0.72 0.296-1.439 0.437-2.159 0.085-0.466 0.198-0.945 0.198-1.425 0-0.607-0.296-1.129-0.734-1.566-0.014 0.254-0.014 0.508 0.042 0.734 0.198 0.818 0.183 1.623-0.099 2.413-0.198 0.593-0.423 1.171-0.649 1.764 0 0.014-0.028 0-0.071 0.014-0.198-0.875 0.522-1.552 0.564-2.427-0.663 0.508-1.298 0.48-1.947 0.042-0.296-0.212-0.607-0.55-0.917-0.55s-0.635 0.325-0.945 0.522c-0.607 0.409-1.242 0.564-1.905-0.014zM24.155 17.185c-0.042 0-0.085 0-0.127-0.014-0.028 0.085-0.056 0.169-0.085 0.268-0.141 0.564-0.296 1.143-0.437 1.707-0.353 1.298-1.298 1.947-2.526 2.272-0.31 0.085-0.409-0.028-0.367-0.367 0.705 0.169 1.242-0.028 1.397-0.55-0.903 0.042-1.171-0.578-1.369-1.284-0.141-0.494-0.282-0.988-0.451-1.467-0.113-0.325-0.282-0.635-0.437-1.002-0.339 0.536-0.367 1.016-0.099 1.524 0.48 0.917 0.72 1.891 0.508 2.921-0.113 0.55-0.31 1.086-0.466 1.623-0.028 0.085 0.014 0.183 0.028 0.282 0.099-0.028 0.198-0.028 0.282-0.085 0.974-0.705 1.933-1.425 2.921-2.131 0.875-0.621 1.227-1.524 1.284-2.54 0.028-0.395-0.028-0.776-0.056-1.157zM19.739 11.189c0.042-0.014 0.099-0.042 0.141-0.056 0-0.72-0.31-1.312-0.847-1.834 0.198 0.071 0.395 0.155 0.522 0.31 0.198 0.24 0.367 0.508 0.522 0.776 0.226 0.409 0.48 0.818 0.945 0.917 0.564 0.113 1.157 0.113 1.735 0.155 0 0 0.014-0.028 0.028-0.085-0.282-0.085-0.564-0.169-0.903-0.268 0.155-0.155 0.31-0.24 0.381-0.367 0.099-0.198 0.226-0.437 0.183-0.621-0.127-0.734-0.466-1.369-0.988-1.891-0.085-0.085-0.198-0.155-0.325-0.198-0.296-0.099-0.607-0.212-0.847 0.056-0.254 0.282-0.042 0.578 0.085 0.847 0.127 0.254 0.325 0.395 0.677 0.296-0.056-0.155-0.113-0.282-0.169-0.423 0.014-0.014 0.028-0.028 0.042-0.028 0.155 0.169 0.296 0.339 0.466 0.522 0.071-0.113 0.127-0.183 0.183-0.268 0.028 0 0.056 0 0.085 0 0.056 0.367 0.169 0.734 0.155 1.101-0.028 0.48-0.353 0.621-0.776 0.367-0.085-0.042-0.155-0.113-0.226-0.169-0.31-0.325-0.635-0.649-0.917-0.988-0.367-0.451-0.832-0.663-1.383-0.691-0.296-0.028-0.593 0.028-0.804 0.268-0.395 0.466-0.889 0.649-1.481 0.578-0.071-0.014-0.141 0-0.24 0 0.056 0.183 0.085 0.325 0.141 0.508 0.339-0.141 0.663-0.24 0.959-0.395 0.649-0.339 0.931-0.296 1.439 0.226 0.169 0.169 0.31 0.367 0.48 0.55 0.226 0.24 0.48 0.522 0.734 0.804zM12.134 11.175c0.071-0.071 0.155-0.141 0.226-0.212 0.325-0.381 0.621-0.79 0.959-1.157 0.494-0.536 0.959-0.564 1.566-0.155 0.141 0.099 0.268 0.212 0.423 0.254 0.141 0.042 0.353 0.085 0.437 0.014 0.099-0.099 0.113-0.296 0.169-0.522-0.748 0.183-1.298-0.028-1.75-0.522-0.113-0.113-0.31-0.198-0.466-0.226-0.705-0.099-1.27 0.127-1.735 0.72-0.325 0.423-0.734 0.776-1.129 1.129-0.113 0.099-0.381 0.155-0.508 0.099-0.127-0.071-0.24-0.296-0.24-0.466 0.014-0.381 0.099-0.762 0.169-1.199 0.127 0.155 0.198 0.254 0.282 0.353 0.155-0.183 0.31-0.367 0.451-0.536 0.014 0.014 0.028 0.028 0.042 0.042-0.056 0.141-0.113 0.268-0.169 0.437 0.31 0.042 0.522-0.014 0.607-0.296 0.042-0.127 0.085-0.254 0.127-0.395 0.113-0.423-0.099-0.677-0.55-0.621-0.522 0.071-0.847 0.381-1.044 0.847-0.141 0.325-0.296 0.649-0.437 0.974-0.226 0.466-0.141 0.776 0.254 1.101 0.085 0.071 0.155 0.141 0.268 0.24-0.325 0.099-0.593 0.169-0.861 0.254 0.141 0.085 0.268 0.085 0.395 0.099 1.157 0.113 1.989-0.296 2.427-1.439 0.183-0.451 0.536-0.649 0.931-0.705-0.79 0.705-1.157 1.51-0.847 1.891zM11.358 21.065c-0.099 0.339-0.198 0.423-0.451 0.353-0.325-0.099-0.635-0.212-0.931-0.353-1.115-0.564-1.651-1.538-1.848-2.723-0.071-0.409-0.141-0.818-0.212-1.227-0.028 0-0.056 0-0.085 0.014 0 0.677-0.042 1.355 0.014 2.018 0.056 0.691 0.423 1.227 1.002 1.637 1.030 0.72 2.046 1.467 3.076 2.187 0.085 0.056 0.169 0.099 0.254 0.141 0.028-0.014 0.056-0.042 0.085-0.056-0.085-0.268-0.141-0.55-0.24-0.818-0.282-0.762-0.466-1.538-0.296-2.342 0.127-0.593 0.339-1.157 0.578-1.721 0.212-0.494 0.169-0.917-0.155-1.411-0.141 0.325-0.296 0.578-0.381 0.847-0.212 0.621-0.381 1.242-0.578 1.862-0.183 0.593-0.508 1.002-1.185 1.044-0.071 0-0.127 0.071-0.198 0.099 0.042 0.056 0.085 0.113 0.127 0.155 0.409 0.31 0.889 0.367 1.425 0.296zM20.642 12.021c-0.028 0.028-0.056 0.071-0.071 0.099 0.014 0.042 0.028 0.099 0.056 0.127 0.607 0.847 0.734 1.792 0.649 2.808-0.071 0.748-0.056 1.496-0.085 2.258 0 0.085 0.042 0.183 0.085 0.339 1.044-1.481 0.649-2.991 0.325-4.473 1.157 1.566 0.762 3.16 0.028 4.811 0.663-0.268 1.044-0.705 1.171-1.298 0.353-1.58-0.056-2.977-1.242-4.092-0.24-0.24-0.607-0.381-0.917-0.578zM10.145 17.975c-0.113-0.423-0.198-0.79-0.296-1.171-0.183-0.748-0.381-1.481-0.226-2.258 0.113-0.55 0.325-1.030 0.776-1.481-0.113 0.494-0.24 0.889-0.31 1.298-0.155 0.847-0.226 1.707 0.099 2.54 0.085 0.226 0.24 0.437 0.409 0.72 0.056-0.169 0.099-0.226 0.099-0.282 0-0.621 0.028-1.242-0.042-1.848-0.141-1.143-0.099-2.243 0.564-3.231 0.028-0.042 0.028-0.085 0.042-0.127-0.014-0.028-0.042-0.042-0.056-0.071-0.282 0.155-0.578 0.282-0.818 0.466-0.903 0.691-1.27 1.665-1.397 2.751-0.085 0.649-0.042 1.284 0.268 1.862 0.169 0.381 0.437 0.663 0.889 0.832zM8.451 12.402c-0.875 0.508-1.566 1.51-1.623 2.554-0.042 0.861 0.014 1.721 0.056 2.568 0.014 0.24 0.113 0.48 0.198 0.72 0.014 0.056 0.099 0.099 0.155 0.155 0.028-0.071 0.085-0.141 0.071-0.212-0.085-0.832 0.099-1.623 0.452-2.356 0.254-0.536 0.353-1.072 0.423-1.651 0.071-0.593 0.183-1.199 0.268-1.778zM22.547 19.443c-0.578 0.339-1.044 0.113-1.199-0.508-0.056-0.254-0.141-0.522-0.268-0.762-0.268-0.508-0.409-1.030-0.325-1.608 0.085-0.564 0.198-1.115 0.296-1.665 0.014-0.071 0-0.155 0-0.24-0.042-0.014-0.085-0.014-0.113-0.028-0.099 0.282-0.183 0.564-0.282 0.832-0.296 0.79-0.296 1.594-0.056 2.399 0.141 0.494 0.282 0.988 0.395 1.481 0.127 0.536 0.325 0.72 0.875 0.762 0.437 0.042 0.748-0.169 0.959-0.522 0.55-0.903 0.762-1.891 0.677-2.949-0.014-0.127-0.056-0.254-0.085-0.367-0.085 0.071-0.099 0.127-0.113 0.183-0.155 0.903-0.451 1.721-1.298 2.229-0.071 0.042-0.127 0.141-0.155 0.226-0.099 0.325 0.183 0.564 0.691 0.536zM8.48 16.254c-0.367 1.016 0.099 3.019 0.818 3.683 0.282 0.254 0.621 0.31 0.959 0.155 0.325-0.141 0.536-0.395 0.621-0.748 0.141-0.522 0.254-1.058 0.437-1.566 0.169-0.494 0.254-1.002 0.127-1.51-0.141-0.508-0.31-1.002-0.466-1.496-0.014-0.042-0.056-0.071-0.155-0.169 0 0.155-0.014 0.226 0 0.296 0.071 0.437 0.141 0.889 0.198 1.326 0.127 1.044-0.071 2.046-0.564 2.977-0.226 0.423-0.635 0.564-1.030 0.31 0.212-0.113 0.409-0.226 0.663-0.367-0.169-0.226-0.296-0.48-0.494-0.635-0.48-0.381-0.762-0.875-0.917-1.467-0.056-0.24-0.113-0.48-0.198-0.79zM24.55 18.441c0.367-0.24 0.437-0.536 0.451-0.875 0.014-0.762 0.042-1.524 0.042-2.286 0-0.254-0.014-0.522-0.071-0.776-0.226-0.974-0.903-1.651-1.623-2.3-0.014-0.014-0.056 0.014-0.141 0.028 0.085 0.141 0.155 0.254 0.24 0.381 0.437 0.663 0.621 1.369 0.31 2.145-0.042 0.099-0.028 0.254 0.014 0.353 0.55 1.016 0.875 2.102 0.776 3.33zM18.61 8.113c-0.014-0.028-0.014-0.071-0.028-0.099-0.762-0.141-1.51-0.127-2.215 0.254-0.056 0.028-0.141 0.071-0.141 0.113-0.042 0.212-0.113 0.437-0.056 0.621 0.028 0.099 0.353 0.198 0.48 0.141 0.663-0.325 1.312-0.677 1.961-1.030zM13.178 8.056c0.72 0.381 1.383 0.748 2.046 1.086 0.226 0.113 0.466 0 0.522-0.198 0.042-0.169-0.014-0.494-0.141-0.578-0.734-0.423-1.524-0.593-2.427-0.31zM20.543 15.041c-0.028-0.014-0.042-0.028-0.071-0.028-0.169 0.31-0.353 0.621-0.522 0.945 0.042 0.028 0.085 0.042 0.127 0.071 0.169-0.339 0.325-0.663 0.466-0.988z"></path>
<path d="M12.515 13.771c0.056 0.141 0.113 0.282 0.155 0.423-0.028 0.014-0.056 0.028-0.085 0.028-0.409-0.31-0.268-0.847-0.395-1.298 0.522 0.31 1.044 0.621 1.594 0.959-0.014-0.155-0.014-0.282-0.028-0.381 0.183 0.085 0.395 0.268 0.55 0.24 0.169-0.028 0.31-0.254 0.494-0.423-0.183 0.649-0.367 1.27-0.564 1.961-0.296-0.564-0.72-0.875-1.242-1.101-0.169-0.085-0.296-0.282-0.437-0.423 0 0-0.014 0.014-0.042 0.014z"></path>
<path d="M19.217 13.545c-0.071 0.578-0.55 0.677-0.917 0.931-0.268 0.183-0.494 0.437-0.762 0.677-0.155-0.55-0.325-1.143-0.494-1.764 0.451 0.423 0.451 0.423 1.058 0.014-0.028 0.155-0.056 0.296-0.099 0.508 0.578-0.353 1.101-0.663 1.721-1.030-0.141 0.522-0.268 0.931-0.381 1.354-0.028 0-0.056-0.014-0.085-0.014 0.028-0.198 0.042-0.409 0.071-0.607-0.028-0.014-0.071-0.042-0.113-0.071z"></path>
<path d="M13.517 21.968c0.423 0 0.804 0 1.256 0-0.155 0.141-0.282 0.24-0.451 0.381 1.086 0 2.116 0 3.203 0-0.155-0.127-0.296-0.24-0.466-0.381 0.466 0 0.889 0 1.397 0-0.268 0.395-0.466 0.776-0.748 1.101-0.409 0.48-0.974 0.832-1.101 1.538 0.042-0.564 0.31-1.044 0.437-1.566-0.55-0.254-0.776-0.127-0.832 0.437-0.071 0.607-0.127 1.213-0.198 1.806-0.014 0.099-0.042 0.198-0.056 0.296-0.028 0-0.056 0-0.085 0-0.028-0.169-0.056-0.353-0.085-0.522-0.056-0.494-0.099-0.988-0.141-1.467-0.071-0.677-0.268-0.79-0.974-0.55 0.31 0.48 0.593 0.974 0.508 1.58-0.085-0.663-0.522-1.072-1.016-1.453-0.353-0.296-0.564-0.691-0.649-1.199z"></path>
</svg>
