<!-- Generated by IcoMoon.io -->
<svg version="1.1" xmlns="http://www.w3.org/2000/svg" width="32" height="32" viewBox="0 0 32 32">
<title>NEM_NANO_WALLET</title>
<path d="M14.182 0.602c1.139 0 2.278 0 3.418 0 0.090 0.013 0.179 0.038 0.269 0.051 0.87 0.090 1.754 0.154 2.624 0.282 2.483 0.358 4.902 0.986 7.194 1.984 1.28 0.55 2.522 1.229 3.776 1.856 0 0.474 0 0.947 0 1.434-0.038 0.435-0.090 0.858-0.128 1.293-0.128 1.856-0.461 3.674-0.96 5.453-2.048 7.245-6.17 13.018-12.326 17.331-0.678 0.474-1.382 0.896-2.074 1.344-0.038 0-0.077 0-0.128 0-0.077-0.051-0.141-0.115-0.218-0.166-3.546-2.099-6.566-4.787-9.037-8.077-3.392-4.544-5.414-9.638-6.029-15.283-0.064-0.55-0.115-1.114-0.179-1.664 0-0.576 0-1.165 0-1.741 0.115-0.051 0.23-0.090 0.333-0.141 3.699-2.074 7.654-3.328 11.866-3.776 0.538-0.064 1.075-0.128 1.6-0.179zM20.557 2.355c-0.090-0.026-0.141-0.064-0.205-0.064-1.075-0.115-2.138-0.256-3.213-0.307-2.214-0.115-4.429 0.064-6.605 0.486-2.995 0.563-5.824 1.613-8.486 3.098-0.179 0.102-0.243 0.205-0.243 0.41 0.013 1.664 0.166 3.302 0.486 4.928 0.115 0.589 0.218 1.216 0.474 1.754 1.293 2.675 4.224 4.134 7.13 3.571 3.123-0.602 5.312-3.2 5.402-6.464 0.013-0.576 0.064-1.152 0.192-1.715 0.538-2.342 1.882-4.070 3.994-5.222 0.346-0.166 0.691-0.307 1.075-0.474zM23.77 23.424c0.166-0.205 0.32-0.397 0.474-0.602 3.763-4.966 5.696-10.56 5.798-16.794 0-0.256-0.077-0.397-0.294-0.499-1.306-0.602-2.586-1.242-3.917-1.792-1.613-0.678-3.277-0.755-4.941-0.154-3.046 1.101-4.749 4.147-4.275 7.168 0.333 2.112 1.485 3.661 3.302 4.774 2.355 1.434 3.635 3.546 3.827 6.298 0.064 0.525 0.026 1.050 0.026 1.6zM3.738 15.936c0.013 0.051 0.026 0.090 0.051 0.141 1.242 3.136 2.995 5.965 5.261 8.461 1.933 2.15 4.147 3.955 6.63 5.427 0.179 0.102 0.307 0.115 0.499 0 1.741-1.024 3.341-2.227 4.826-3.584 0.179-0.154 0.371-0.32 0.486-0.525 0.934-1.613 1.306-3.328 0.845-5.184-0.653-2.624-2.79-4.608-5.632-4.966-1.408-0.179-2.778 0.102-4.032 0.806-2.099 1.178-4.288 1.395-6.566 0.64-0.845-0.269-1.626-0.704-2.368-1.216z"></path>
</svg>
