<!-- Generated by IcoMoon.io -->
<svg version="1.1" xmlns="http://www.w3.org/2000/svg" width="32" height="32" viewBox="0 0 32 32">
<title>NEON_WALLET</title>
<path d="M11.61 13.594c-0.614 2.035-1.242 4.070-1.856 6.093-0.909 2.97-1.805 5.952-2.714 8.922-0.218 0.704-0.653 1.011-1.446 1.011-1.677 0.013-3.354 0-5.030 0-0.614 0-0.653-0.038-0.461-0.666 1.101-3.635 2.214-7.283 3.315-10.918 1.485-4.89 2.97-9.766 4.454-14.656 0.307-1.024 0.768-1.37 1.843-1.37 1.6 0 3.2 0.013 4.8-0.013 0.461 0 0.666 0.154 0.794 0.589 1.536 4.966 3.098 9.92 4.659 14.874 0.064 0.205 0.154 0.41 0.282 0.794 0.128-0.384 0.218-0.602 0.282-0.819 1.446-4.736 2.88-9.472 4.326-14.221 0.282-0.947 0.64-1.216 1.626-1.216 1.638 0 3.277 0 4.915 0 0.627 0 0.666 0.051 0.486 0.653-2.56 8.371-5.107 16.755-7.667 25.126-0.422 1.395-1.011 1.83-2.458 1.83-1.331 0-2.675 0-4.006 0-0.934 0-0.934 0-1.203-0.87-1.549-4.89-3.098-9.766-4.634-14.643-0.051-0.179-0.128-0.346-0.192-0.525-0.026 0.013-0.077 0.013-0.115 0.026z"></path>
</svg>
