<!-- Generated by IcoMoon.io -->
<svg version="1.1" xmlns="http://www.w3.org/2000/svg" width="32" height="32" viewBox="0 0 32 32">
<title>NET</title>
<path d="M31.732 13.305c0.141-0.113 0.099 5.757-0.014 5.672-0.042 0.141-0.071 0.254-0.099 0.353-1.369 6.66-6.815 11.711-13.573 12.586-8.564 1.115-16.494-4.825-17.792-13.347-0.113-0.705-0.24-0.677 0.578-0.677 0.663 0 1.326 0.014 2.004 0 0.268 0 0.367 0.099 0.409 0.353 0.945 5.63 5.432 9.961 11.076 10.709 7.055 0.931 13.559-4.035 14.519-11.090 0.974-7.125-3.993-13.63-11.146-14.603-6.843-0.931-13.333 3.866-14.448 10.695-0.042 0.296-0.155 0.395-0.452 0.381-0.72-0.014-1.453 0-2.173 0-0.452 0-0.452 0-0.395-0.437 0.959-7.055 6.646-12.698 13.714-13.587 8.367-1.044 15.986 4.388 17.693 12.628 0.028 0.099 0.056 0.212 0.099 0.367z"></path>
<path d="M7.224 14.758c0 0.127 0 0.254 0 0.381 0 1.453 0 2.921 0 4.374 0 0.31-0.085 0.437-0.409 0.423-0.931-0.014-0.931 0-0.931-0.945 0-2.060 0-4.106 0-6.166 0-0.339 0.099-0.409 0.437-0.437 0.649-0.071 1.058 0.155 1.453 0.691 1.101 1.496 2.272 2.935 3.414 4.402 0.071 0.085 0.141 0.169 0.282 0.325 0-0.212 0-0.339 0-0.466 0-1.51 0.014-3.019 0-4.515 0-0.339 0.099-0.451 0.437-0.437 0.917 0.014 0.917 0 0.917 0.917 0 2.060 0 4.134 0 6.194 0 0.31-0.085 0.395-0.409 0.437-0.734 0.085-1.213-0.169-1.651-0.79-1.016-1.425-2.13-2.78-3.203-4.162-0.071-0.085-0.141-0.169-0.226-0.268-0.056 0.028-0.085 0.028-0.113 0.042z"></path>
<path d="M14.758 16.183c0-1.115 0.014-2.243 0-3.358 0-0.31 0.085-0.423 0.409-0.423 1.51 0.014 3.005 0.014 4.515 0 0.339 0 0.409 0.113 0.409 0.423-0.014 0.861 0 0.861-0.875 0.861-0.917 0-1.848 0.014-2.765 0-0.282 0-0.367 0.099-0.353 0.367 0.014 0.395 0.014 0.79 0 1.185-0.014 0.254 0.085 0.325 0.325 0.325 0.959-0.014 1.919 0 2.878-0.014 0.296 0 0.381 0.099 0.381 0.381 0 0.832 0 0.832-0.832 0.832-0.804 0-1.608 0-2.413 0-0.24 0-0.339 0.071-0.325 0.325 0.014 0.395 0.014 0.79 0 1.185-0.014 0.282 0.071 0.381 0.367 0.381 1.115-0.014 2.243 0 3.358-0.014 0.268 0 0.367 0.071 0.367 0.353 0.014 0.931 0.028 0.931-0.917 0.931-1.383 0-2.751-0.014-4.134 0-0.296 0-0.409-0.085-0.409-0.395 0.028-1.101 0.014-2.229 0.014-3.344z"></path>
<path d="M23.28 13.63c-0.635 0-1.227-0.014-1.82 0.014-0.339 0.014-0.437-0.085-0.437-0.423 0.014-0.804 0-0.818 0.818-0.818 1.552 0 3.104 0 4.656 0 0.282 0 0.381 0.071 0.381 0.367 0 0.861 0 0.861-0.861 0.861-0.437 0-0.889 0-1.383 0 0 0.169 0 0.296 0 0.437 0 1.82 0 3.64 0 5.46 0 0.296-0.085 0.409-0.395 0.409-0.974 0-0.974 0.014-0.974-0.945 0-1.637 0-3.273 0-4.896 0.014-0.141 0.014-0.282 0.014-0.466z"></path>
</svg>
