<?xml version="1.0" encoding="utf-8"?>
<!-- Generator: Adobe Illustrator 22.1.0, SVG Export Plug-In . SVG Version: 6.00 Build 0)  -->
<svg version="1.1" id="Layer_1" xmlns="http://www.w3.org/2000/svg" xmlns:xlink="http://www.w3.org/1999/xlink" x="0px" y="0px"
	 viewBox="0 0 226.8 226.8" style="enable-background:new 0 0 226.8 226.8;" xml:space="preserve">
<g>
	<path d="M224.9,94.3c1-0.8,0.7,40.8-0.1,40.2c-0.3,1-0.5,1.8-0.7,2.5c-9.7,47.2-48.3,83-96.2,89.2C67.2,234.1,11,192,1.8,131.6
		c-0.8-5-1.7-4.8,4.1-4.8c4.7,0,9.4,0.1,14.2,0c1.9,0,2.6,0.7,2.9,2.5c6.7,39.9,38.5,70.6,78.5,75.9c50,6.6,96.1-28.6,102.9-78.6
		c6.9-50.5-28.3-96.6-79-103.5C76.9,16.5,30.9,50.5,23,98.9c-0.3,2.1-1.1,2.8-3.2,2.7c-5.1-0.1-10.3,0-15.4,0c-3.2,0-3.2,0-2.8-3.1
		c6.8-50,47.1-90,97.2-96.3c59.3-7.4,113.3,31.1,125.4,89.5C224.4,92.4,224.6,93.2,224.9,94.3z"/>
	<path d="M51.2,104.6c0,0.9,0,1.8,0,2.7c0,10.3,0,20.7,0,31c0,2.2-0.6,3.1-2.9,3c-6.6-0.1-6.6,0-6.6-6.7c0-14.6,0-29.1,0-43.7
		c0-2.4,0.7-2.9,3.1-3.1c4.6-0.5,7.5,1.1,10.3,4.9c7.8,10.6,16.1,20.8,24.2,31.2c0.5,0.6,1,1.2,2,2.3c0-1.5,0-2.4,0-3.3
		c0-10.7,0.1-21.4,0-32c0-2.4,0.7-3.2,3.1-3.1c6.5,0.1,6.5,0,6.5,6.5c0,14.6,0,29.3,0,43.9c0,2.2-0.6,2.8-2.9,3.1
		c-5.2,0.6-8.6-1.2-11.7-5.6c-7.2-10.1-15.1-19.7-22.7-29.5c-0.5-0.6-1-1.2-1.6-1.9C51.6,104.5,51.4,104.5,51.2,104.6z"/>
	<path d="M104.6,114.7c0-7.9,0.1-15.9,0-23.8c0-2.2,0.6-3,2.9-3c10.7,0.1,21.3,0.1,32,0c2.4,0,2.9,0.8,2.9,3c-0.1,6.1,0,6.1-6.2,6.1
		c-6.5,0-13.1,0.1-19.6,0c-2,0-2.6,0.7-2.5,2.6c0.1,2.8,0.1,5.6,0,8.4c-0.1,1.8,0.6,2.3,2.3,2.3c6.8-0.1,13.6,0,20.4-0.1
		c2.1,0,2.7,0.7,2.7,2.7c0,5.9,0,5.9-5.9,5.9c-5.7,0-11.4,0-17.1,0c-1.7,0-2.4,0.5-2.3,2.3c0.1,2.8,0.1,5.6,0,8.4
		c-0.1,2,0.5,2.7,2.6,2.7c7.9-0.1,15.9,0,23.8-0.1c1.9,0,2.6,0.5,2.6,2.5c0.1,6.6,0.2,6.6-6.5,6.6c-9.8,0-19.5-0.1-29.3,0
		c-2.1,0-2.9-0.6-2.9-2.8C104.7,130.6,104.6,122.6,104.6,114.7z"/>
	<path d="M165,96.6c-4.5,0-8.7-0.1-12.9,0.1c-2.4,0.1-3.1-0.6-3.1-3c0.1-5.7,0-5.8,5.8-5.8c11,0,22,0,33,0c2,0,2.7,0.5,2.7,2.6
		c0,6.1,0,6.1-6.1,6.1c-3.1,0-6.3,0-9.8,0c0,1.2,0,2.1,0,3.1c0,12.9,0,25.8,0,38.7c0,2.1-0.6,2.9-2.8,2.9c-6.9,0-6.9,0.1-6.9-6.7
		c0-11.6,0-23.2,0-34.7C165,98.9,165,97.9,165,96.6z"/>
</g>
</svg>
