<!-- Generated by IcoMoon.io -->
<svg version="1.1" xmlns="http://www.w3.org/2000/svg" width="32" height="32" viewBox="0 0 32 32">
<title>NEU</title>
<path d="M31.771 14.527c-0.568-2.141-1.996-3.83-3.393-4.733s-3.612-1.369-3.612-1.369 0.029-1.034-0.335-1.922-1.223-1.704-1.223-1.704-1.777 0.582-2.724 2.141c-0.946 1.558-0.641 3.451-0.32 4.18s1.209 1.617 1.209 1.617 0.025 0.491-0.106 0.601c-0.131 0.109-1.627 0.786-3.866 0.939s-4.434 1.234-5.527 2.119c-1.092 0.885-2.501 2.873-2.501 2.873s0.677-1.78 2.501-3.572c1.824-1.791 3.473-2.37 4.26-4.839s0.677-4.86-0.612-6.859c-1.288-1.999-3.615-3.987-7.219-3.997s-5.887 2.305-6.543 3.113-1.802 2.829-1.758 4.762 0.939 3.768 0.939 3.768-0.102-1.966 1.122-3.131c1.223-1.165 3.67-1.165 4.864 0.175s1.107 2.854 0.437 4.077c-0.67 1.223-3.058 3-4.049 6.379s-0.032 6.218 1.080 7.573c1.112 1.355 3.198 2.447 4.476 2.61s1.311 0.087 1.431-0.033-0.175-0.503-0.306-1.005c-0.131-0.503-0.186-0.874-0.186-0.874s0.612 1.911 2.283 3.091c1.671 1.18 3.561 1.507 4.773 1.507h11.468v-1.191c0-0.517-0.517-1.034-1.005-1.034s-4.835-0.007-5.082-0.007c-0.248 0-0.401-0.153-0.321-0.291s1.85-2.162 1.471-4.9c-0.379-2.738-1.879-4.264-3.699-5.272 0 0 1.529 0.408 2.927 1.835s1.733 2.519 1.893 3.335c0.16 0.815 0.116 2.243 0.248 2.286s1.209-2.243 1.238-4.18c0.029-1.937-0.699-4.631-0.641-4.66s1.5 0.83 3.218 0.947c1.719 0.116 3.117-0.277 3.117-0.277s0.641-1.937 0.073-4.078zM29.489 14.532c-0.002-0.527-0.429-0.954-0.956-0.954h-0c-0.528 0-0.957 0.428-0.957 0.957v0c0 0.185 0.055 0.355 0.145 0.502-0.609-0.219-1.044-0.799-1.044-1.483 0-0.871 0.706-1.577 1.577-1.577s1.577 0.706 1.577 1.577c0 0 0 0 0 0 0 0.371-0.129 0.713-0.344 0.982l0.002-0.003z"></path>
</svg>
