<!-- Generated by IcoMoon.io -->
<svg version="1.1" xmlns="http://www.w3.org/2000/svg" width="32" height="32" viewBox="0 0 32 32">
<title>NEXCHANGE</title>
<path d="M11.062 18.088c0 0.085 0 0.169 0 0.254 0 4.459 0 8.917 0 13.362 0 0.339 0 0.339-0.325 0.226-3.118-1.044-5.714-2.85-7.788-5.404-0.071-0.085-0.113-0.226-0.113-0.339 0-6.66 0-13.319-0.014-19.979 0-0.381 0.113-0.663 0.367-0.959 1.566-1.82 3.414-3.273 5.601-4.303 0.621-0.296 1.284-0.522 1.933-0.79 0.169-0.071 0.254-0.028 0.353 0.127 1.481 2.187 2.977 4.36 4.473 6.547 1.637 2.399 3.287 4.797 4.938 7.182 0.028 0.042 0.071 0.085 0.141 0.183 0-0.141 0-0.226 0-0.31 0-4.501 0-8.988 0-13.489 0-0.056 0-0.113 0-0.183 0-0.212 0.028-0.24 0.254-0.169 0.282 0.085 0.55 0.183 0.832 0.282 2.737 1.016 5.051 2.624 6.956 4.825 0.141 0.169 0.212 0.325 0.212 0.55 0 6.688 0 13.376 0 20.063 0 0.141-0.028 0.282 0 0.409 0.071 0.409-0.127 0.691-0.381 0.988-1.411 1.566-3.034 2.85-4.924 3.795-0.762 0.381-1.58 0.663-2.384 1.002-0.155 0.071-0.268 0.028-0.367-0.113-2.116-3.019-4.247-6.025-6.363-9.044-1.072-1.524-2.159-3.048-3.231-4.571-0.028-0.042-0.071-0.085-0.099-0.127-0.042-0.028-0.056-0.028-0.071-0.014z"></path>
</svg>
