<!-- Generated by IcoMoon.io -->
<svg version="1.1" xmlns="http://www.w3.org/2000/svg" width="32" height="32" viewBox="0 0 32 32">
<title>NEXO</title>
<path d="M0.014 15.873c0-2.808 0.014-5.616-0.014-8.423 0-0.452 0.141-0.705 0.536-0.931 2.257-1.27 4.501-2.568 6.73-3.88 0.452-0.268 0.832-0.282 1.298 0 2.258 1.312 4.529 2.596 6.772 3.908 0.367 0.212 0.649 0.226 1.030 0 2.272-1.326 4.557-2.61 6.815-3.937 0.451-0.268 0.804-0.296 1.284-0.014 2.258 1.34 4.543 2.624 6.829 3.937 0.381 0.226 0.564 0.522 0.564 0.959 0 5.728 0 11.443 0 17.171 0 0.367-0.141 0.593-0.466 0.776-2.356 1.34-4.713 2.695-7.069 4.049-0.367 0.212-0.705 0.169-1.058-0.042-2.258-1.298-4.529-2.582-6.787-3.908-0.437-0.254-0.762-0.296-1.227-0.028-2.258 1.326-4.557 2.624-6.815 3.951-0.367 0.212-0.621 0.198-0.988 0-2.286-1.326-4.586-2.638-6.885-3.951-0.437-0.24-0.593-0.564-0.593-1.044 0.042-2.878 0.042-5.742 0.042-8.593z"></path>
</svg>
