<?xml version="1.0" encoding="utf-8"?>
<!-- Generator: Adobe Illustrator 22.1.0, SVG Export Plug-In . SVG Version: 6.00 Build 0)  -->
<svg version="1.1" id="Layer_1" xmlns="http://www.w3.org/2000/svg" xmlns:xlink="http://www.w3.org/1999/xlink" x="0px" y="0px"
	 viewBox="0 0 226.8 226.8" style="enable-background:new 0 0 226.8 226.8;" xml:space="preserve">
<g>
	<path d="M0.1,112.5c0-19.9,0.1-39.8-0.1-59.7c0-3.2,1-5,3.8-6.6c16-9,31.9-18.2,47.7-27.5c3.2-1.9,5.9-2,9.2,0
		c16,9.3,32.1,18.4,48,27.7c2.6,1.5,4.6,1.6,7.3,0c16.1-9.4,32.3-18.5,48.3-27.9c3.2-1.9,5.7-2.1,9.1-0.1
		c16,9.5,32.2,18.6,48.4,27.9c2.7,1.6,4,3.7,4,6.8c0,40.6,0,81.1,0,121.7c0,2.6-1,4.2-3.3,5.5c-16.7,9.5-33.4,19.1-50.1,28.7
		c-2.6,1.5-5,1.2-7.5-0.3c-16-9.2-32.1-18.3-48.1-27.7c-3.1-1.8-5.4-2.1-8.7-0.2c-16,9.4-32.3,18.6-48.3,28c-2.6,1.5-4.4,1.4-7,0
		c-16.2-9.4-32.5-18.7-48.8-28c-3.1-1.7-4.2-4-4.2-7.4C0.1,153,0.1,132.7,0.1,112.5z"/>
</g>
</svg>
