<!-- Generated by IcoMoon.io -->
<svg version="1.1" xmlns="http://www.w3.org/2000/svg" width="32" height="32" viewBox="0 0 32 32">
<title>NGC</title>
<path d="M11.059 8.934l10.253-1.254-5.018-2.202c0 0 0.525-3.981-2.931-5.018l-0.32 1.254c0 0 2.086 0.525 1.882 3.866z"></path>
<path d="M21.939 17.306l-3.866 0.205 3.456-9.203-10.522 1.523-0.947 10.15h2.304l-0.371 11.558 9.946-14.234zM13.773 27.405c0 0.205-0.166 0.371-0.371 0.371s-0.371-0.166-0.371-0.371v-2.726c0-0.205 0.166-0.371 0.371-0.371s0.371 0.166 0.371 0.371v2.726zM11.059 19.187l0.806-8.909c0.013-0.166 0.166-0.294 0.333-0.294h0.064c0.179 0 0.333 0.154 0.333 0.333 0 0.013 0 0.026 0 0.026l-0.704 8.115h2.086l-0.102 4.941c0 0.218-0.192 0.397-0.41 0.397h-0.013c-0.23 0-0.41-0.179-0.41-0.41 0 0 0 0 0-0.013l0.090-4.186h-2.074z"></path>
</svg>
