<?xml version="1.0" encoding="utf-8"?>
<!-- Generator: Adobe Illustrator 22.1.0, SVG Export Plug-In . SVG Version: 6.00 Build 0)  -->
<svg version="1.1" id="Layer_1" xmlns="http://www.w3.org/2000/svg" xmlns:xlink="http://www.w3.org/1999/xlink" x="0px" y="0px"
	 viewBox="0 0 250 250" style="enable-background:new 0 0 250 250;" xml:space="preserve">
<path d="M86.4,69.8l80.1-9.8l-39.2-17.2c0,0,4.1-31.1-22.9-39.2l-2.5,9.8c0,0,16.3,4.1,14.7,30.2"/>
<path d="M171.4,135.2l-30.2,1.6l27-71.9L86,76.8l-7.4,79.3h18l-2.9,90.3L171.4,135.2z M107.6,214.1c0,1.6-1.3,2.9-2.9,2.9
	c-1.6,0-2.9-1.3-2.9-2.9v-21.3c0-1.6,1.3-2.9,2.9-2.9c1.6,0,2.9,1.3,2.9,2.9V214.1z M86.4,149.9l6.3-69.6C92.8,79,94,78,95.3,78h0.5
	c1.4,0,2.6,1.2,2.6,2.6c0,0.1,0,0.2,0,0.2l-5.5,63.4h16.3l-0.8,38.6c0,1.7-1.5,3.1-3.2,3.1h-0.1c-1.8,0-3.2-1.4-3.2-3.2
	c0,0,0,0,0-0.1l0.7-32.7L86.4,149.9z"/>
</svg>
