<?xml version="1.0" encoding="utf-8"?>
<!-- Generator: Adobe Illustrator 22.1.0, SVG Export Plug-In . SVG Version: 6.00 Build 0)  -->
<svg version="1.1" id="Layer_1" xmlns="http://www.w3.org/2000/svg" xmlns:xlink="http://www.w3.org/1999/xlink" x="0px" y="0px"
	 viewBox="0 0 226.8 226.8" style="enable-background:new 0 0 226.8 226.8;" xml:space="preserve">
<g>
	<path d="M152.1,81.4c-5.9,3.8-11.2,7.5-16.8,10.6c-8.1,4.3-16.8,7.3-25.9,7.8c-6,0.3-12.2,0.2-18.1-0.9
		C72,95.2,57.5,84.4,46.9,68.1c-0.7-1.1-0.7-1.8,0.4-2.7C65,50,85.1,43.9,108.2,49.3c14.4,3.4,25.9,11.5,35.7,22.2
		C146.6,74.5,149,77.7,152.1,81.4z"/>
	<path d="M56.8,179.6c0-13.9,4-26.5,12.1-37.8c5.4-7.5,11.8-14,19.2-19.5c1.6-1.2,2.6-1.2,3.9,0.5c11,14.1,17.7,29.8,17.3,47.9
		c-0.4,18-7.7,33.1-20.5,45.6c-3.5,3.4-7.6,6.1-11.4,9.1c-1,0.8-1.8,0.7-2.7-0.3c-9.4-10.3-15.1-22.4-17.3-36.1
		c-0.2-1.3-0.4-2.7-0.5-4C56.7,183.2,56.8,181.4,56.8,179.6z"/>
	<path d="M133.2,157.8c-3.7-0.4-8.2-0.9-12.7-1.4c-1.7-0.2-2.5-0.9-2.2-2.8c2-15.8,7.3-30.3,17.9-42.4C147.1,98.9,161,92,177.4,90
		c7.7-1,15.3-0.5,22.9,1c2.2,0.5,2.8,1.5,2.7,3.6c-1.9,22.3-11.7,40-30.4,52.5c-8.8,5.8-18.7,8.8-29.2,9.9
		C140.3,157.4,137.2,157.5,133.2,157.8z"/>
	<path d="M162.2,70.6c-16.7-7.9-28.5-19.5-31.5-38c-1.7-10.8,0.4-21.3,6-30.9c0.9-1.6,1.9-2,3.6-1.2c12.4,5.4,21.5,14.1,26.5,26.7
		c3.6,9.1,4.1,18.5,1.6,28C166.9,60.4,165.3,65.6,162.2,70.6z"/>
	<path d="M79.9,109.5c-3.7,9.1-8.8,16.1-15.6,21.8c-8.6,7.3-18.7,11-30,10.9c-8.4-0.1-16.4-2.5-23.8-6.8c-1.4-0.8-1.6-1.6-1-3.1
		c5.3-12.3,13.9-21.5,26.3-26.5c9.9-4.1,20.2-4.4,30.5-1.2C70.8,106,75.2,107.8,79.9,109.5z"/>
	<path d="M163.8,208.8c-17-0.5-30.1-7.8-39-22.4c-2.4-4-4-8.5-6.1-12.7c-0.8-1.8-0.4-2.8,1.5-3.4c9.5-3.2,19.2-4.6,29.1-2.4
		c18.6,4.1,29.7,16,35.3,33.8c0.8,2.5-0.6,3.1-2.3,3.7C176.4,207.4,170.3,209.3,163.8,208.8z"/>
	<path d="M167.8,161.4c12.8-16.9,35.7-19.9,51.5-5c1.3,1.2,2.2,2.2,0.7,4c-8,9-17.8,13.8-30,12.4C181.3,171.8,174,167.6,167.8,161.4
		z"/>
	<path d="M85.5,5.7c17-0.1,30.3,10.9,33.8,27.6c0.5,2.3,0.4,4.7,0.7,7c0.2,1.5-0.5,2.2-2,2.3c-7.7,0.4-15.1-0.9-21.8-5
		C85.6,31.2,80.9,21.4,80,9.4c-0.2-2.2,0.4-3.6,3-3.5C83.9,5.9,84.9,5.8,85.5,5.7z"/>
	<path d="M51.6,158.7c-0.1,8-2.6,15.1-7.6,21.4c-5.6,6.9-13,10.5-21.6,11.8c-0.2,0-0.5,0-0.8,0.1c-6.6,0.8-6.7,0.7-6.6-5.9
		c0.4-17,11-29.2,27.3-33c2.4-0.5,4.8-0.5,7.3-0.8c1.4-0.1,2.1,0.4,2,1.8C51.6,155.6,51.6,157.2,51.6,158.7z"/>
</g>
</svg>
