<!-- Generated by IcoMoon.io -->
<svg version="1.1" xmlns="http://www.w3.org/2000/svg" width="32" height="32" viewBox="0 0 32 32">
<title>NKN</title>
<path d="M21.46 11.485c-0.832 0.536-1.58 1.058-2.37 1.496-1.143 0.607-2.37 1.030-3.654 1.101-0.847 0.042-1.721 0.028-2.554-0.127-2.723-0.522-4.769-2.046-6.265-4.346-0.099-0.155-0.099-0.254 0.056-0.381 2.497-2.173 5.333-3.034 8.593-2.272 2.032 0.48 3.654 1.623 5.037 3.132 0.381 0.423 0.72 0.875 1.157 1.397z"></path>
<path d="M8.014 25.34c0-1.961 0.564-3.739 1.707-5.333 0.762-1.058 1.665-1.975 2.709-2.751 0.226-0.169 0.367-0.169 0.55 0.071 1.552 1.989 2.497 4.205 2.441 6.758-0.056 2.54-1.086 4.67-2.892 6.434-0.494 0.48-1.072 0.861-1.608 1.284-0.141 0.113-0.254 0.099-0.381-0.042-1.326-1.453-2.13-3.16-2.441-5.093-0.028-0.183-0.056-0.381-0.071-0.564-0.028-0.254-0.014-0.508-0.014-0.762z"></path>
<path d="M18.794 22.265c-0.522-0.056-1.157-0.127-1.792-0.198-0.24-0.028-0.353-0.127-0.31-0.395 0.282-2.229 1.030-4.275 2.526-5.982 1.538-1.735 3.499-2.709 5.813-2.991 1.086-0.141 2.159-0.071 3.231 0.141 0.31 0.071 0.395 0.212 0.381 0.508-0.268 3.146-1.651 5.644-4.289 7.407-1.242 0.818-2.638 1.242-4.12 1.397-0.437 0.056-0.875 0.071-1.439 0.113z"></path>
<path d="M22.885 9.961c-2.356-1.115-4.021-2.751-4.444-5.362-0.24-1.524 0.056-3.005 0.847-4.36 0.127-0.226 0.268-0.282 0.508-0.169 1.75 0.762 3.034 1.989 3.739 3.767 0.508 1.284 0.578 2.61 0.226 3.951-0.212 0.734-0.437 1.467-0.875 2.173z"></path>
<path d="M11.273 15.45c-0.522 1.284-1.242 2.272-2.201 3.076-1.213 1.030-2.638 1.552-4.233 1.538-1.185-0.014-2.314-0.353-3.358-0.959-0.198-0.113-0.226-0.226-0.141-0.437 0.748-1.735 1.961-3.034 3.711-3.739 1.397-0.578 2.85-0.621 4.303-0.169 0.635 0.198 1.256 0.451 1.919 0.691z"></path>
<path d="M23.111 29.46c-2.399-0.071-4.247-1.101-5.503-3.16-0.339-0.564-0.564-1.199-0.861-1.792-0.113-0.254-0.056-0.395 0.212-0.48 1.34-0.451 2.709-0.649 4.106-0.339 2.624 0.578 4.19 2.258 4.981 4.769 0.113 0.353-0.085 0.437-0.325 0.522-0.832 0.282-1.693 0.55-2.61 0.48z"></path>
<path d="M23.675 22.773c1.806-2.384 5.037-2.808 7.266-0.705 0.183 0.169 0.31 0.31 0.099 0.564-1.129 1.27-2.511 1.947-4.233 1.75-1.227-0.141-2.258-0.734-3.132-1.608z"></path>
<path d="M12.063 0.804c2.399-0.014 4.275 1.538 4.769 3.894 0.071 0.325 0.056 0.663 0.099 0.988 0.028 0.212-0.071 0.31-0.282 0.324-1.086 0.056-2.13-0.127-3.076-0.705-1.496-0.903-2.159-2.286-2.286-3.979-0.028-0.31 0.056-0.508 0.423-0.494 0.127 0 0.268-0.014 0.353-0.028z"></path>
<path d="M7.28 22.392c-0.014 1.129-0.367 2.131-1.072 3.019-0.79 0.974-1.834 1.481-3.048 1.665-0.028 0-0.071 0-0.113 0.014-0.931 0.113-0.945 0.099-0.931-0.832 0.056-2.399 1.552-4.12 3.852-4.656 0.339-0.071 0.677-0.071 1.030-0.113 0.198-0.014 0.296 0.056 0.282 0.254 0 0.212 0 0.437 0 0.649z"></path>
</svg>
