<!-- Generated by IcoMoon.io -->
<svg version="1.1" xmlns="http://www.w3.org/2000/svg" width="32" height="32" viewBox="0 0 32 32">
<title>NLC2</title>
<path d="M2.441 7.76c0.691-0.353 1.383-0.607 1.961-1.030 1.552-1.129 2.229-2.681 1.989-4.6-0.085-0.72-0.042-0.804 0.663-0.959 3.965-0.903 7.986-1.256 12.035-1.016 2.328 0.141 4.614 0.522 6.885 1.016 0.635 0.141 0.734 0.268 0.635 0.861-0.423 2.37 1.072 4.628 3.302 5.418 0.198 0.071 0.395 0.141 0.621 0.226 0 0.24 0.028 0.48 0 0.705-0.353 3.076-0.705 6.166-1.072 9.242-0.268 2.229-0.663 4.416-1.862 6.377-1.002 1.623-2.413 2.808-4.007 3.795-2.187 1.34-4.388 2.638-6.575 3.965-0.339 0.198-0.621 0.268-0.974 0.042-2.356-1.467-4.741-2.864-7.097-4.332-1.905-1.185-3.372-2.765-4.247-4.854-0.691-1.651-0.959-3.386-1.171-5.136-0.353-2.963-0.72-5.926-1.072-8.889-0.042-0.296-0.014-0.593-0.014-0.832zM16.748 1.397c-2.921-0.099-5.672 0.226-8.395 0.762-0.452 0.085-0.593 0.282-0.621 0.748-0.141 2.356-1.213 4.162-3.302 5.291-0.536 0.282-0.691 0.621-0.621 1.171 0.155 1.157 0.282 2.328 0.423 3.499 0.31 2.342 0.578 4.698 0.945 7.041 0.395 2.526 1.623 4.614 3.781 6.025 2.328 1.538 4.755 2.935 7.125 4.416 0.339 0.212 0.607 0.141 0.917-0.042 2.145-1.312 4.303-2.596 6.434-3.922 2.808-1.735 4.19-4.36 4.614-7.534 0.409-3.090 0.748-6.194 1.129-9.298 0.113-0.931 0.099-0.917-0.762-1.411-1.877-1.086-2.864-2.78-3.132-4.91-0.113-0.945-0.071-0.945-0.974-1.171-0.113-0.028-0.226-0.056-0.339-0.071-2.455-0.353-4.882-0.748-7.224-0.593z"></path>
<path d="M16.621 1.792c2.54 0.028 5.108 0.254 7.647 0.734 0.395 0.071 0.55 0.268 0.578 0.663 0.099 1.397 0.536 2.681 1.481 3.725 0.564 0.621 1.242 1.129 1.919 1.623 0.367 0.268 0.536 0.48 0.48 0.974-0.339 2.709-0.593 5.418-0.931 8.113-0.212 1.693-0.48 3.386-1.312 4.952-0.593 1.129-1.355 2.131-2.399 2.808-2.328 1.538-4.727 2.977-7.097 4.459-0.339 0.212-0.663 0.183-0.988-0.014-2.342-1.467-4.741-2.878-7.041-4.416-1.707-1.143-2.737-2.85-3.175-4.84-0.367-1.693-0.607-3.414-0.832-5.136-0.254-1.975-0.423-3.965-0.663-5.954-0.042-0.409 0.028-0.635 0.395-0.861 1.566-0.903 2.667-2.201 3.189-3.951 0.141-0.494 0.226-1.002 0.282-1.524 0.042-0.367 0.212-0.522 0.564-0.593 2.596-0.522 5.22-0.748 7.901-0.762zM11.767 8.72c0.437 1.086 0.466 1.354 0.028 2.384-0.988 2.314-2.102 4.557-3.683 6.547-0.071 0.085-0.085 0.198-0.169 0.395 0.974 0 1.862-0.028 2.737 0.014 0.494 0.028 0.762-0.155 0.974-0.607 0.663-1.397 1.369-2.78 2.074-4.162 0.155-0.31 0.339-0.593 0.578-1.030 0.296 0.536 0.522 0.945 0.734 1.354 0.663 1.298 1.298 2.61 1.961 3.894 0.113 0.212 0.339 0.494 0.508 0.508 0.974 0.056 1.961 0.028 2.864 0.028 1.086-3.372 2.511-6.462 4.586-9.326-0.903 0-1.778 0.028-2.638-0.014-0.522-0.028-0.804 0.141-1.044 0.621-0.832 1.707-1.693 3.4-2.554 5.093-0.085 0.169-0.212 0.325-0.367 0.55-0.169-0.296-0.31-0.494-0.409-0.691-0.705-1.411-1.411-2.808-2.102-4.219-0.649-1.326-0.649-1.34-2.13-1.34-0.621 0-1.256 0-1.947 0zM15.224 19.062c0.226-0.508 0.409-0.847 0.55-1.213 0.071-0.198 0.155-0.48 0.071-0.649-0.423-0.917-0.889-1.806-1.383-2.794-0.169 0.31-0.296 0.536-0.409 0.762-0.578 1.157-1.157 2.314-1.735 3.457-0.494 0.974-1.129 1.834-2.046 2.469-0.113 0.085-0.226 0.169-0.466 0.339 2.201 0 4.247 0 6.279 0 1.51 0 3.005-0.014 4.515 0 0.367 0 0.607-0.099 0.804-0.423 0.451-0.734 0.959-1.453 1.425-2.173 0.056-0.099 0.071-0.226 0.127-0.381-2.526 1.002-5.079 0.437-7.732 0.607zM20.811 7.915c-1.171 0-2.37 0-3.556 0-0.042 0.381 0.028 0.79-0.141 1.058-0.466 0.72-0.226 1.312 0.141 1.947 0.254 0.451 0.466 0.917 0.691 1.383 0.085 0.155 0.198 0.282 0.353 0.508 0.875-1.679 1.693-3.273 2.511-4.896zM15.45 26.441c0.564 0.169 0.451 0.663 0.451 1.242 0.437-0.55 0.818-0.339 1.354-0.042-0.381-0.649-0.014-0.974 0.226-1.242-0.367-0.212-0.705-0.395-0.988-0.564-0.282 0.183-0.607 0.367-1.044 0.607z"></path>
</svg>
