<?xml version="1.0" encoding="utf-8"?>
<!-- Generator: Adobe Illustrator 22.1.0, SVG Export Plug-In . SVG Version: 6.00 Build 0)  -->
<svg version="1.1" id="Layer_1" xmlns="http://www.w3.org/2000/svg" xmlns:xlink="http://www.w3.org/1999/xlink" x="0px" y="0px"
	 viewBox="0 0 226.8 226.8" style="enable-background:new 0 0 226.8 226.8;" xml:space="preserve">
<g>
	<path d="M17.3,55c4.9-2.5,9.8-4.3,13.9-7.3c11-8,15.8-19,14.1-32.6C44.7,10,45,9.4,50,8.3c28.1-6.4,56.6-8.9,85.3-7.2
		c16.5,1,32.7,3.7,48.8,7.2c4.5,1,5.2,1.9,4.5,6.1c-3,16.8,7.6,32.8,23.4,38.4c1.4,0.5,2.8,1,4.4,1.6c0,1.7,0.2,3.4,0,5
		c-2.5,21.8-5,43.7-7.6,65.5c-1.9,15.8-4.7,31.3-13.2,45.2c-7.1,11.5-17.1,19.9-28.4,26.9c-15.5,9.5-31.1,18.7-46.6,28.1
		c-2.4,1.4-4.4,1.9-6.9,0.3C97,215,80.1,205.1,63.4,194.7c-13.5-8.4-23.9-19.6-30.1-34.4c-4.9-11.7-6.8-24-8.3-36.4
		c-2.5-21-5.1-42-7.6-63C17.1,58.8,17.3,56.7,17.3,55z M118.7,9.9c-20.7-0.7-40.2,1.6-59.5,5.4c-3.2,0.6-4.2,2-4.4,5.3
		c-1,16.7-8.6,29.5-23.4,37.5c-3.8,2-4.9,4.4-4.4,8.3c1.1,8.2,2,16.5,3,24.8c2.2,16.6,4.1,33.3,6.7,49.9
		c2.8,17.9,11.5,32.7,26.8,42.7c16.5,10.9,33.7,20.8,50.5,31.3c2.4,1.5,4.3,1,6.5-0.3c15.2-9.3,30.5-18.4,45.6-27.8
		c19.9-12.3,29.7-30.9,32.7-53.4c2.9-21.9,5.3-43.9,8-65.9c0.8-6.6,0.7-6.5-5.4-10C188.1,50,181.1,38,179.2,22.9
		c-0.8-6.7-0.5-6.7-6.9-8.3c-0.8-0.2-1.6-0.4-2.4-0.5C152.5,11.6,135.3,8.8,118.7,9.9z"/>
	<path d="M117.8,12.7c18,0.2,36.2,1.8,54.2,5.2c2.8,0.5,3.9,1.9,4.1,4.7c0.7,9.9,3.8,19,10.5,26.4c4,4.4,8.8,8,13.6,11.5
		c2.6,1.9,3.8,3.4,3.4,6.9c-2.4,19.2-4.2,38.4-6.6,57.5c-1.5,12-3.4,24-9.3,35.1c-4.2,8-9.6,15.1-17,19.9
		c-16.5,10.9-33.5,21.1-50.3,31.6c-2.4,1.5-4.7,1.3-7-0.1c-16.6-10.4-33.6-20.4-49.9-31.3c-12.1-8.1-19.4-20.2-22.5-34.3
		c-2.6-12-4.3-24.2-5.9-36.4c-1.8-14-3-28.1-4.7-42.2c-0.3-2.9,0.2-4.5,2.8-6.1c11.1-6.4,18.9-15.6,22.6-28c1-3.5,1.6-7.1,2-10.8
		c0.3-2.6,1.5-3.7,4-4.2C80.2,14.4,98.8,12.8,117.8,12.7z M83.4,61.8c3.1,7.7,3.3,9.6,0.2,16.9c-7,16.4-14.9,32.3-26.1,46.4
		c-0.5,0.6-0.6,1.4-1.2,2.8c6.9,0,13.2-0.2,19.4,0.1c3.5,0.2,5.4-1.1,6.9-4.3c4.7-9.9,9.7-19.7,14.7-29.5c1.1-2.2,2.4-4.2,4.1-7.3
		c2.1,3.8,3.7,6.7,5.2,9.6c4.7,9.2,9.2,18.5,13.9,27.6c0.8,1.5,2.4,3.5,3.6,3.6c6.9,0.4,13.9,0.2,20.3,0.2
		c7.7-23.9,17.8-45.8,32.5-66.1c-6.4,0-12.6,0.2-18.7-0.1c-3.7-0.2-5.7,1-7.4,4.4c-5.9,12.1-12,24.1-18.1,36.1
		c-0.6,1.2-1.5,2.3-2.6,3.9c-1.2-2.1-2.2-3.5-2.9-4.9c-5-10-10-19.9-14.9-29.9c-4.6-9.4-4.6-9.5-15.1-9.5
		C92.8,61.8,88.3,61.8,83.4,61.8z M107.9,135.1c1.6-3.6,2.9-6,3.9-8.6c0.5-1.4,1.1-3.4,0.5-4.6c-3-6.5-6.3-12.8-9.8-19.8
		c-1.2,2.2-2.1,3.8-2.9,5.4c-4.1,8.2-8.2,16.4-12.3,24.5c-3.5,6.9-8,13-14.5,17.5c-0.8,0.6-1.6,1.2-3.3,2.4c15.6,0,30.1,0,44.5,0
		c10.7,0,21.3-0.1,32,0c2.6,0,4.3-0.7,5.7-3c3.2-5.2,6.8-10.3,10.1-15.4c0.4-0.7,0.5-1.6,0.9-2.7
		C144.8,137.9,126.7,133.9,107.9,135.1z M147.5,56.1c-8.3,0-16.8,0-25.2,0c-0.3,2.7,0.2,5.6-1,7.5c-3.3,5.1-1.6,9.3,1,13.8
		c1.8,3.2,3.3,6.5,4.9,9.8c0.6,1.1,1.4,2,2.5,3.6C135.9,78.9,141.7,67.6,147.5,56.1z M109.5,187.4c4,1.2,3.2,4.7,3.2,8.8
		c3.1-3.9,5.8-2.4,9.6-0.3c-2.7-4.6-0.1-6.9,1.6-8.8c-2.6-1.5-5-2.8-7-4C114.9,184.4,112.6,185.7,109.5,187.4z"/>
</g>
</svg>
