<!-- Generated by IcoMoon.io -->
<svg version="1.1" xmlns="http://www.w3.org/2000/svg" width="32" height="32" viewBox="0 0 32 32">
<title>NMC</title>
<path d="M27.844 3.633c-1.247 0.947-1.674 2.447-1.674 2.447l-3.198 11.764-10.874-14.892s-2.424-0.138-3.302 0.185c-0.877 0.323-2.055 1.178-2.548 3.056s-6.249 22.904-6.249 22.904 2.793 0.096 3.671-0.389c0.877-0.485 1.754-1.016 2.285-2.874 0.364-1.272 3.163-11.729 3.163-11.729l10.898 14.992s2.621 0.076 3.498-0.319c1.051-0.473 1.951-1.628 2.297-2.944s6.188-22.91 6.188-22.91-2.909-0.236-4.156 0.71zM20.964 25.002l-10.775-14.808 0.8-3.263 10.929 15.054-0.954 3.017z"></path>
</svg>
