<!-- Generated by IcoMoon.io -->
<svg version="1.1" xmlns="http://www.w3.org/2000/svg" width="32" height="32" viewBox="0 0 32 32">
<title>NMR</title>
<path d="M30.246 21.402c0-3.597 0-7.194 0-10.803 0.013-0.371-0.166-0.73-0.461-0.947-4.288-3.136-8.576-6.272-12.864-9.408-0.269-0.205-0.602-0.282-0.934-0.218-0.205 0.038-0.384 0.141-0.538 0.256-4.262 3.11-8.525 6.221-12.787 9.331-0.32 0.23-0.512 0.589-0.512 0.986 0 3.597 0 7.194 0 10.79 0 0.384 0.192 0.768 0.512 0.986 4.262 3.11 8.512 6.221 12.774 9.331 0.41 0.346 1.050 0.371 1.472 0.038 4.275-3.123 8.55-6.246 12.826-9.37 0.32-0.205 0.525-0.589 0.512-0.973zM28.147 10.138c0.243 0.448 0.538 0.883 0.717 1.357-0.23 0.013-0.448 0.013-0.678 0.013-0.269-0.448-0.512-0.922-0.781-1.37 0.256 0 0.499 0 0.742 0zM25.843 8.781c0.218 0 0.435 0 0.666 0 0.013 0.704 0.013 1.408 0 2.112-0.218 0-0.435 0-0.666 0-0.013-0.704-0.013-1.408 0-2.112zM26.509 12.57c-0.218 0-0.435 0-0.666 0 0-0.218 0-0.435 0-0.666 0.218 0 0.448 0 0.666 0 0 0.218 0 0.435 0 0.666zM27.29 13.35c0 0.218 0 0.448 0 0.666-0.96 0-1.92 0.013-2.88 0 0-0.218 0-0.435 0-0.653 0.947-0.013 1.907 0 2.88-0.013zM24.397 19.507c-0.218 0-0.435 0-0.666 0-0.013-0.768-0.013-1.536 0-2.304 0.218 0 0.435-0.013 0.653 0.013 0.026 0.755 0.013 1.523 0.013 2.291zM24.077 11.981c-0.205-0.691-0.371-1.382-0.589-2.061-0.115 0-0.23 0-0.346 0-0.179 0.691-0.384 1.37-0.563 2.061-0.218 0-0.435 0-0.64 0 0.269-0.883 0.512-1.779 0.768-2.662 0.41 0 0.832-0.064 1.242 0 0.269 0.883 0.499 1.779 0.768 2.662-0.205 0-0.422 0-0.64 0zM19.418 15.859c-0.115-0.154-0.346-0.269-0.32-0.499 0-0.602 0-1.203 0-1.805-0.026-0.23 0.205-0.346 0.32-0.499 0.282 0 0.563 0 0.845 0 0.013 0.218 0.013 0.422 0 0.64-0.179 0-0.358 0-0.538 0v1.51c0.819 0 1.651 0 2.47 0 0 0.218 0 0.422 0 0.64-0.922 0.013-1.856 0.013-2.778 0.013zM19.546 17.741c-0.218 0-0.435 0-0.653 0 0-0.218 0-0.435 0-0.666 0.218 0 0.435 0 0.653 0 0 0.218 0 0.435 0 0.666zM19.955 10.88c0.218 0 0.435 0 0.653 0 0 0.218 0 0.435 0 0.653-0.218 0-0.435 0-0.653 0 0-0.205 0-0.435 0-0.653zM21.005 17.101c0.678-0.013 1.357 0 2.035 0 0.026 0.192 0.038 0.397 0.026 0.602-0.064 0.128-0.218 0.077-0.333 0.090-0.576-0.013-1.152 0.038-1.728-0.038 0-0.218 0-0.435 0-0.653zM22.221 13.363c0.23-0.013 0.461-0.013 0.691 0 0 0.218 0 0.435 0 0.653-0.23 0.013-0.461 0.013-0.678 0-0.013-0.218-0.013-0.435-0.013-0.653zM21.235 7.309c1.050 0 2.099 0 3.149 0 0 0.218 0 0.422 0 0.64-1.050 0-2.099 0-3.149 0 0-0.218 0-0.435 0-0.64zM20.966 6.758c-0.23 0-0.448 0-0.678 0 0-0.218 0-0.422 0-0.64 0.23 0 0.448 0 0.678 0 0.013 0.218 0.013 0.422 0 0.64zM18.842 4.48c0.602-0.013 1.216 0 1.818 0 0 0.218 0 0.448 0 0.666-0.602 0.013-1.216 0.013-1.818 0 0-0.218 0-0.448 0-0.666zM17.651 5.619v0c0.218 0 0.422 0 0.64 0 0.576 0.896 1.139 1.805 1.715 2.701 0 0.269 0 0.538 0 0.819-0.064-0.013-0.192-0.038-0.243-0.038-0.499-0.73-0.947-1.498-1.434-2.24-0.013 0.832 0 1.664 0 2.496-0.218 0-0.448 0-0.666 0-0.013-1.254-0.013-2.496-0.013-3.738zM18.355 12.8c-0.218 0-0.422 0-0.64 0 0-0.704 0-1.408 0-2.112 0.218 0 0.422 0 0.64 0 0 0.704 0 1.408 0 2.112zM18.342 18.304c-0.218 0-0.422 0-0.64 0 0-0.218 0-0.435 0-0.666 0.218 0 0.422 0 0.64 0 0.013 0.23 0.013 0.448 0 0.666zM17.741 14.707c0 0.627 0 1.242 0 1.869-0.102 0.115-0.218 0.23-0.32 0.346-0.282 0-0.563 0-0.845 0 0-0.218 0-0.422 0-0.64 0.179 0 0.346 0 0.525-0.013 0-0.486 0-0.973 0-1.472-0.819-0.077-1.651-0.013-2.47-0.038 0-0.218 0-0.422 0-0.64 0.845 0 1.69 0 2.534 0 0.307-0.038 0.614 0.282 0.576 0.589zM14.31 19.354c-0.077 0-0.154 0-0.23 0-0.474-0.742-0.96-1.485-1.408-2.24-0.077 0.819-0.013 1.651-0.038 2.483-0.218 0-0.448 0-0.666 0 0-1.242 0-2.483 0-3.725 0.218 0 0.435 0 0.653 0 0.512 0.819 1.037 1.638 1.562 2.458 0.23 0.294 0.090 0.678 0.128 1.024zM10.432 13.555c-0.358 0-0.717 0-1.088 0-0.525-0.358-1.062-0.678-1.574-1.050 0.512-0.371 1.075-0.704 1.6-1.062 0.346 0 0.704 0 1.050 0-0.525 0.371-1.075 0.691-1.6 1.062 0.55 0.358 1.088 0.704 1.613 1.050zM10.662 17.011c-0.205 0-0.41 0-0.627 0-0.218-0.691-0.371-1.395-0.589-2.074-0.115 0.013-0.23 0.013-0.358 0.026-0.154 0.691-0.384 1.37-0.55 2.048-0.218 0-0.422 0-0.64 0 0.256-0.896 0.512-1.792 0.768-2.675 0.41 0 0.819 0 1.242 0 0.256 0.883 0.525 1.766 0.755 2.675zM9.741 18.074c0.192 0 0.397 0.013 0.589 0.026 0 0.218 0 0.448 0 0.666-0.96 0-1.92 0-2.88 0 0-0.218 0-0.435 0-0.653 0.755-0.077 1.523-0.013 2.291-0.038zM11.981 21.978c0.179 0.128 0.371 0.256 0.55 0.384-0.576 0.358-1.139 0.73-1.715 1.075 0.845 0.013 1.677 0 2.522 0.013 0 0.218 0 0.448 0 0.666-1.242 0-2.496 0.013-3.738 0 0-0.205 0-0.422 0-0.627 0.794-0.499 1.574-1.011 2.381-1.51zM11.085 14.797c-0.013-0.23-0.013-0.448 0-0.666 0.538 0 1.075 0 1.613 0 0 0.23 0 0.448 0 0.666-0.538 0-1.075 0-1.613 0zM12.045 20.518c0 0.218 0 0.435 0 0.666-0.218 0-0.435 0-0.653 0-0.013-0.23-0.013-0.448 0-0.678 0.218-0.013 0.435-0.013 0.653 0.013zM12.595 13.286c0-0.218 0-0.435 0-0.653 0.96 0 1.907 0 2.867 0 0.026 0.218 0.026 0.435-0.013 0.653-0.947 0.013-1.894 0-2.854 0zM14.464 21.504c0.218 0 0.435 0 0.666 0 0 0.819 0 1.638 0 2.458-0.154 0-0.307 0.013-0.474 0.026-0.051-0.013-0.154-0.026-0.205-0.038 0.013-0.819 0-1.626 0.013-2.445zM14.874 17.971c0-0.538 0-1.088 0-1.626 0.218 0 0.448 0 0.666 0 0 0.538 0 1.088 0 1.626-0.23 0.013-0.448 0.013-0.666 0zM15.155 4.813c0.243 0 0.486 0 0.73 0 0.23 0.461 0.525 0.883 0.717 1.357-0.23 0.013-0.448 0.013-0.678 0.013-0.256-0.461-0.512-0.909-0.768-1.37zM15.411 7.232c-0.218 0.013-0.435 0.013-0.653 0 0-0.218 0-0.435 0-0.653 0.218 0 0.435 0 0.653 0 0 0.218 0 0.435 0 0.653zM16.781 12.646c0 0.218 0 0.422 0 0.64-0.23 0-0.461 0-0.691 0 0-0.218 0-0.435 0-0.653v0c0.23 0 0.461 0 0.691 0.013zM14.72 2.598c0.115-0.128 0.23-0.333 0.422-0.307 0.678 0 1.357-0.013 2.022 0.013 0.115 0.077 0.205 0.179 0.307 0.269 0 0.691 0 1.395 0 2.086-0.205 0-0.397 0.013-0.602 0-0.013-0.051-0.038-0.141-0.051-0.192 0-0.525 0.051-1.037 0-1.562-0.499 0-0.998 0-1.485 0 0 0.179 0 0.346 0 0.525-0.205 0-0.422 0-0.627 0 0-0.269-0.038-0.563 0.013-0.832zM14.157 10.086c0 0.166 0 0.333 0 0.499 0.499 0.051 1.011 0.013 1.51 0.026 0-0.819 0-1.638 0-2.47 0.218 0 0.422 0 0.64 0 0.013 0.934 0 1.869 0 2.803-0.102 0.090-0.192 0.192-0.294 0.282-0.73 0.013-1.459 0-2.189 0-0.102-0.090-0.192-0.179-0.282-0.282-0.038-0.282-0.013-0.576-0.013-0.858 0.218 0 0.422 0 0.627 0zM13.030 3.443c0.23-0.013 0.461-0.013 0.691 0 0 0.96 0.013 1.933 0 2.893-0.218 0-0.435 0-0.653 0-0.077-0.96-0.026-1.92-0.038-2.893zM11.546 7.219c0.346 0.525 0.691 1.075 1.050 1.6 0.358-0.538 0.691-1.075 1.050-1.613 0 0.346 0.026 0.704-0.013 1.062-0.32 0.55-0.704 1.075-1.050 1.626-0.346-0.538-0.704-1.050-1.037-1.6-0.026-0.358 0-0.717 0-1.075zM11.302 11.213c-0.218 0-0.435 0-0.653 0 0-0.512-0.013-1.024 0-1.536 0.218 0 0.422 0 0.64 0 0.013 0.512 0.013 1.024 0.013 1.536zM9.126 6.989c0-0.218 0-0.435 0-0.653 0.179 0 0.358 0 0.538 0 0.474-0.026 0.947-0.026 1.434 0 0 0.205 0 0.41 0 0.614-0.704 0.422-1.382 0.896-2.099 1.293-0.205-0.077-0.371-0.243-0.538-0.384 0.461-0.282 0.922-0.589 1.395-0.858-0.256-0.013-0.486-0.013-0.73-0.013zM8.243 9.651c0.218 0 0.435 0 0.653 0 0 0.218 0 0.448 0 0.666-0.218 0-0.435 0-0.653 0 0-0.218 0-0.448 0-0.666zM4.915 9.651c0.96 0 1.92-0.013 2.88 0 0 0.218 0 0.435 0 0.666-0.96 0.013-1.92 0-2.88 0 0-0.218 0-0.448 0-0.666zM6.874 17.267h-0.666c0-0.704 0-1.408 0-2.112h0.666c0 0.704 0 1.408 0 2.112zM3.149 11.994c1.101 0 2.214-0.013 3.315 0 0 0.205 0 0.422 0 0.627-0.499 0.32-0.986 0.653-1.498 0.947-0.218-0.077-0.371-0.256-0.563-0.384 0.269-0.166 0.55-0.346 0.819-0.525-0.691 0-1.382 0-2.074 0-0.013-0.23-0.013-0.448 0-0.666zM4.762 16.384c-0.218 0-0.448 0-0.666 0 0-0.218 0-0.422 0-0.64 0.218 0 0.435 0 0.653 0.013 0.013 0.218 0.013 0.422 0.013 0.627zM6.234 21.069c-0.205 0-0.41 0-0.602 0-0.73-0.013-1.446 0.013-2.176-0.013-0.115-0.064-0.243-0.179-0.294-0.307-0.013-0.717 0-1.434 0-2.138 0.102-0.102 0.205-0.205 0.32-0.307 0.282 0 0.55 0 0.832 0 0 0.205 0 0.422 0 0.627-0.166 0-0.346 0-0.512 0.013 0 0.499 0 0.998 0 1.498 0.819 0 1.638 0 2.458 0-0.026 0.205-0.026 0.422-0.026 0.627zM8.474 24.166c-0.576 0.026-1.152 0.013-1.741 0 0-0.218 0-0.435 0-0.64 0.576-0.026 1.165-0.013 1.741 0 0.013 0.205 0.026 0.422 0 0.64zM7.59 20.902c0-0.358-0.013-0.73 0-1.088 0.346 0.525 0.691 1.050 1.037 1.587 0.371-0.525 0.691-1.075 1.062-1.6 0.013 0.358 0 0.717 0 1.062-0.358 0.525-0.691 1.075-1.062 1.6-0.346-0.512-0.678-1.037-1.037-1.562zM10.010 25.818c-0.218 0-0.435 0-0.653 0 0-0.218 0-0.435 0-0.653 0.218 0 0.435 0 0.653 0 0 0.218 0 0.435 0 0.653zM10.573 26.778c0-0.218 0-0.435 0-0.653 0.883 0 1.766-0.013 2.65 0 0 0.218 0 0.435 0 0.653-0.883 0.013-1.766 0-2.65 0zM13.722 29.171c-0.269-0.448-0.525-0.922-0.794-1.382 0.243 0 0.499 0 0.742 0 0.23 0.461 0.538 0.883 0.717 1.357-0.218 0.026-0.448 0.026-0.666 0.026zM16.486 30.656c-0.218 0-0.448 0-0.666 0 0-0.512-0.013-1.011 0.013-1.523 0.218 0 0.435 0.013 0.653 0.026 0 0.499 0 0.998 0 1.498zM16.947 27.379c-0.090 0.102-0.192 0.192-0.282 0.294-0.294 0-0.602 0.013-0.896 0 0-0.205-0.026-0.41 0.026-0.602 0.166-0.013 0.333-0.013 0.512-0.013 0-0.499 0-0.998 0-1.498-0.832 0-1.651 0.013-2.483-0.013 0-0.205 0-0.422 0-0.627 0.934-0.013 1.869 0 2.803-0.013 0.102 0.102 0.218 0.218 0.32 0.32 0 0.73 0 1.434 0 2.15zM16.141 22.144c0.23 0 0.461-0.013 0.691-0.038 0.269 0.448 0.589 0.896 0.73 1.408-0.218 0-0.435 0-0.653 0-0.256-0.461-0.512-0.922-0.768-1.37zM17.958 29.158c-0.205 0-0.41 0-0.614 0-0.013-0.218-0.013-0.448 0-0.666 0.218 0 0.435 0 0.653 0.013-0.013 0.218-0.013 0.435-0.038 0.653zM15.795 21.018c-0.026-0.205-0.026-0.422-0.038-0.627v0c0.781-0.525 1.6-1.011 2.381-1.536 0.192 0.128 0.371 0.256 0.563 0.384-0.538 0.384-1.126 0.717-1.677 1.088 0.832 0.013 1.664 0 2.496 0.013 0 0.23 0 0.461 0 0.691-1.242-0.013-2.483-0.013-3.725-0.013zM19.021 22.016c0.41-0.013 0.832 0 1.242 0 0.256 0.896 0.512 1.792 0.768 2.675-0.218 0-0.435 0-0.64 0-0.179-0.678-0.384-1.357-0.563-2.048-0.115-0.013-0.23-0.013-0.346-0.013-0.192 0.691-0.384 1.382-0.576 2.061-0.218 0-0.422 0-0.64 0 0.256-0.896 0.512-1.779 0.755-2.675zM20.237 26.906c0.166 0 0.333 0 0.499 0 0 0.218 0 0.435 0 0.653-0.678 0.013-1.357 0.013-2.035 0-0.013-0.205-0.013-0.41-0.013-0.614 0.73-0.499 1.485-0.947 2.214-1.421 0.243-0.205 0.474 0.141 0.678 0.243 0 0.026 0 0.064 0 0.077-0.55 0.358-1.114 0.691-1.651 1.062h0.307zM22.234 19.354c-0.499 0-0.986 0-1.485 0 0 0.179 0 0.358 0 0.538-0.218 0-0.422 0-0.64 0-0.013-0.294 0-0.576 0-0.87 0.115-0.102 0.218-0.205 0.333-0.307 0.704 0 1.408 0 2.125 0 0.102 0.102 0.218 0.205 0.32 0.307 0 0.704 0 1.395 0 2.099-0.218 0-0.435 0-0.64 0-0.026-0.589-0.026-1.178-0.013-1.766zM24.333 24.141c-0.307 0.448-0.602 0.909-0.896 1.357-0.358-0.538-0.704-1.075-1.062-1.613 0-0.358 0-0.717 0-1.075 0.346 0.525 0.678 1.062 1.037 1.574 0.102-0.038 0.141-0.154 0.205-0.23 0.269-0.435 0.563-0.87 0.845-1.306 0.013 0.333 0.013 0.653 0 0.986 0.026 0.115-0.064 0.218-0.128 0.307zM25.984 23.066c-0.23 0-0.448 0-0.678 0 0-0.218 0-0.435 0-0.64 0.23-0.013 0.448-0.013 0.678 0 0 0.205 0 0.422 0 0.64zM28.365 20.902c-1.242 0-2.483 0-3.725 0 0-0.218 0-0.422 0-0.64v0c0.781-0.512 1.574-1.011 2.368-1.51 0.192 0.128 0.371 0.256 0.563 0.397-0.563 0.358-1.139 0.73-1.702 1.088 0.832 0.013 1.664 0 2.509 0-0.013 0.218-0.013 0.435-0.013 0.666zM29.197 17.203c-0.013 0.243 0 0.486 0 0.742 0.013 0.205-0.038 0.397-0.026 0.602-0.205 0-0.41 0-0.614 0 0-0.922 0-1.856 0-2.778-0.499-0.013-1.011 0-1.51-0.013 0 0.166 0 0.346 0 0.512-0.218 0-0.422 0-0.64 0 0-0.282 0-0.563 0-0.845 0.102-0.102 0.192-0.192 0.294-0.294 0.717-0.013 1.446-0.013 2.163 0 0.179 0.115 0.384 0.294 0.346 0.538-0.013 0.512-0.013 1.024-0.013 1.536z"></path>
</svg>
