<?xml version="1.0" encoding="utf-8"?>
<!-- Generator: Adobe Illustrator 22.0.1, SVG Export Plug-In . SVG Version: 6.00 Build 0)  -->
<svg version="1.1" id="Layer_1" xmlns="http://www.w3.org/2000/svg" xmlns:xlink="http://www.w3.org/1999/xlink" x="0px" y="0px"
	 viewBox="0 0 250 250" style="enable-background:new 0 0 250 250;" xml:space="preserve">
<style type="text/css">
	.st0{stroke:#FFFFFF;stroke-miterlimit:10;}
</style>
<path class="st0" d="M236.3,167.2c0-28.1,0-56.2,0-84.4c0.1-2.9-1.3-5.7-3.6-7.4c-33.5-24.5-67-49-100.5-73.5
	c-2.1-1.6-4.7-2.2-7.3-1.7c-1.6,0.3-3,1.1-4.2,2C87.4,26.5,54.1,50.8,20.8,75.1c-2.5,1.8-4,4.6-4,7.7c0,28.1,0,56.2,0,84.3
	c0,3,1.5,6,4,7.7c33.3,24.3,66.5,48.6,99.8,72.9c3.2,2.7,8.2,2.9,11.5,0.3c33.4-24.4,66.8-48.8,100.2-73.2
	C234.8,173.2,236.4,170.2,236.3,167.2z M219.9,79.2c1.9,3.5,4.2,6.9,5.6,10.6c-1.8,0.1-3.5,0.1-5.3,0.1c-2.1-3.5-4-7.2-6.1-10.7
	C216.1,79.2,218,79.2,219.9,79.2z M201.9,68.6c1.7,0,3.4,0,5.2,0c0.1,5.5,0.1,11,0,16.5c-1.7,0-3.4,0-5.2,0
	C201.8,79.6,201.8,74.1,201.9,68.6z M207.1,98.2c-1.7,0-3.4,0-5.2,0c0-1.7,0-3.4,0-5.2c1.7,0,3.5,0,5.2,0
	C207.1,94.7,207.1,96.4,207.1,98.2z M213.2,104.3c0,1.7,0,3.5,0,5.2c-7.5,0-15,0.1-22.5,0c0-1.7,0-3.4,0-5.1
	C198.1,104.3,205.6,104.4,213.2,104.3z M190.6,152.4c-1.7,0-3.4,0-5.2,0c-0.1-6-0.1-12,0-18c1.7,0,3.4-0.1,5.1,0.1
	C190.7,140.4,190.6,146.4,190.6,152.4z M188.1,93.6c-1.6-5.4-2.9-10.8-4.6-16.1c-0.9,0-1.8,0-2.7,0c-1.4,5.4-3,10.7-4.4,16.1
	c-1.7,0-3.4,0-5,0c2.1-6.9,4-13.9,6-20.8c3.2,0,6.5-0.5,9.7,0c2.1,6.9,3.9,13.9,6,20.8C191.5,93.6,189.8,93.6,188.1,93.6z
	 M151.7,123.9c-0.9-1.2-2.7-2.1-2.5-3.9c0-4.7,0-9.4,0-14.1c-0.2-1.8,1.6-2.7,2.5-3.9c2.2,0,4.4,0,6.6,0c0.1,1.7,0.1,3.3,0,5
	c-1.4,0-2.8,0-4.2,0v11.8c6.4,0,12.9,0,19.3,0c0,1.7,0,3.3,0,5C166.2,123.9,158.9,123.9,151.7,123.9z M152.7,138.6
	c-1.7,0-3.4,0-5.1,0c0-1.7,0-3.4,0-5.2c1.7,0,3.4,0,5.1,0C152.7,135.1,152.7,136.8,152.7,138.6z M155.9,85c1.7,0,3.4,0,5.1,0
	c0,1.7,0,3.4,0,5.1c-1.7,0-3.4,0-5.1,0C155.9,88.5,155.9,86.7,155.9,85z M164.1,133.6c5.3-0.1,10.6,0,15.9,0
	c0.2,1.5,0.3,3.1,0.2,4.7c-0.5,1-1.7,0.6-2.6,0.7c-4.5-0.1-9,0.3-13.5-0.3C164.1,137,164.1,135.3,164.1,133.6z M173.6,104.4
	c1.8-0.1,3.6-0.1,5.4,0c0,1.7,0,3.4,0,5.1c-1.8,0.1-3.6,0.1-5.3,0C173.6,107.8,173.6,106.1,173.6,104.4z M165.9,57.1
	c8.2,0,16.4,0,24.6,0c0,1.7,0,3.3,0,5c-8.2,0-16.4,0-24.6,0C165.9,60.4,165.9,58.7,165.9,57.1z M163.8,52.8c-1.8,0-3.5,0-5.3,0
	c0-1.7,0-3.3,0-5c1.8,0,3.5,0,5.3,0C163.9,49.5,163.9,51.1,163.8,52.8z M147.2,35c4.7-0.1,9.5,0,14.2,0c0,1.7,0,3.5,0,5.2
	c-4.7,0.1-9.5,0.1-14.2,0C147.2,38.5,147.2,36.7,147.2,35z M137.9,43.9L137.9,43.9c1.7,0,3.3,0,5,0c4.5,7,8.9,14.1,13.4,21.1
	c0,2.1,0,4.2,0,6.4c-0.5-0.1-1.5-0.3-1.9-0.3c-3.9-5.7-7.4-11.7-11.2-17.5c-0.1,6.5,0,13,0,19.5c-1.7,0-3.5,0-5.2,0
	C137.9,63.3,137.9,53.6,137.9,43.9z M143.4,100c-1.7,0-3.3,0-5,0c0-5.5,0-11,0-16.5c1.7,0,3.3,0,5,0C143.4,89,143.4,94.5,143.4,100z
	 M143.3,143c-1.7,0-3.3,0-5,0c0-1.7,0-3.4,0-5.2c1.7,0,3.3,0,5,0C143.4,139.6,143.4,141.3,143.3,143z M138.6,114.9
	c0,4.9,0,9.7,0,14.6c-0.8,0.9-1.7,1.8-2.5,2.7c-2.2,0-4.4,0-6.6,0c0-1.7,0-3.3,0-5c1.4,0,2.7,0,4.1-0.1c0-3.8,0-7.6,0-11.5
	c-6.4-0.6-12.9-0.1-19.3-0.3c0-1.7,0-3.3,0-5c6.6,0,13.2,0,19.8,0C136.5,110,138.9,112.5,138.6,114.9z M111.8,151.2
	c-0.6,0-1.2,0-1.8,0c-3.7-5.8-7.5-11.6-11-17.5c-0.6,6.4-0.1,12.9-0.3,19.4c-1.7,0-3.5,0-5.2,0c0-9.7,0-19.4,0-29.1
	c1.7,0,3.4,0,5.1,0c4,6.4,8.1,12.8,12.2,19.2C112.6,145.5,111.5,148.5,111.8,151.2z M81.5,105.9c-2.8,0-5.6,0-8.5,0
	c-4.1-2.8-8.3-5.3-12.3-8.2c4-2.9,8.4-5.5,12.5-8.3c2.7,0,5.5,0,8.2,0c-4.1,2.9-8.4,5.4-12.5,8.3C73.2,100.5,77.4,103.2,81.5,105.9z
	 M83.3,132.9c-1.6,0-3.2,0-4.9,0c-1.7-5.4-2.9-10.9-4.6-16.2c-0.9,0.1-1.8,0.1-2.8,0.2c-1.2,5.4-3,10.7-4.3,16c-1.7,0-3.3,0-5,0
	c2-7,4-14,6-20.9c3.2,0,6.4,0,9.7,0C79.4,118.9,81.5,125.8,83.3,132.9z M76.1,141.2c1.5,0,3.1,0.1,4.6,0.2c0,1.7,0,3.5,0,5.2
	c-7.5,0-15,0-22.5,0c0-1.7,0-3.4,0-5.1C64.1,140.9,70.1,141.4,76.1,141.2z M93.6,171.7c1.4,1,2.9,2,4.3,3c-4.5,2.8-8.9,5.7-13.4,8.4
	c6.6,0.1,13.1,0,19.7,0.1c0,1.7,0,3.5,0,5.2c-9.7,0-19.5,0.1-29.2,0c0-1.6,0-3.3,0-4.9C81.2,179.6,87.3,175.6,93.6,171.7z
	 M86.6,115.6c-0.1-1.8-0.1-3.5,0-5.2c4.2,0,8.4,0,12.6,0c0,1.8,0,3.5,0,5.2C95,115.6,90.8,115.6,86.6,115.6z M94.1,160.3
	c0,1.7,0,3.4,0,5.2c-1.7,0-3.4,0-5.1,0c-0.1-1.8-0.1-3.5,0-5.3C90.7,160.1,92.4,160.1,94.1,160.3z M98.4,103.8c0-1.7,0-3.4,0-5.1
	c7.5,0,14.9,0,22.4,0c0.2,1.7,0.2,3.4-0.1,5.1C113.3,103.9,105.9,103.8,98.4,103.8z M113,168c1.7,0,3.4,0,5.2,0c0,6.4,0,12.8,0,19.2
	c-1.2,0-2.4,0.1-3.7,0.2c-0.4-0.1-1.2-0.2-1.6-0.3C113,180.7,112.9,174.4,113,168z M116.2,140.4c0-4.2,0-8.5,0-12.7
	c1.7,0,3.5,0,5.2,0c0,4.2,0,8.5,0,12.7C119.6,140.5,117.9,140.5,116.2,140.4z M118.4,37.6c1.9,0,3.8,0,5.7,0
	c1.8,3.6,4.1,6.9,5.6,10.6c-1.8,0.1-3.5,0.1-5.3,0.1C122.4,44.7,120.4,41.2,118.4,37.6z M120.4,56.5c-1.7,0.1-3.4,0.1-5.1,0
	c0-1.7,0-3.4,0-5.1c1.7,0,3.4,0,5.1,0C120.4,53.1,120.4,54.8,120.4,56.5z M131.1,98.8c0,1.7,0,3.3,0,5c-1.8,0-3.6,0-5.4,0
	c0-1.7,0-3.4,0-5.1h0C127.5,98.7,129.3,98.7,131.1,98.8z M115,20.3c0.9-1,1.8-2.6,3.3-2.4c5.3,0,10.6-0.1,15.8,0.1
	c0.9,0.6,1.6,1.4,2.4,2.1c0,5.4,0,10.9,0,16.3c-1.6,0-3.1,0.1-4.7,0c-0.1-0.4-0.3-1.1-0.4-1.5c0-4.1,0.4-8.1,0-12.2
	c-3.9,0-7.8,0-11.6,0c0,1.4,0,2.7,0,4.1c-1.6,0-3.3,0-4.9,0C114.9,24.7,114.6,22.4,115,20.3z M110.6,78.8c0,1.3,0,2.6,0,3.9
	c3.9,0.4,7.9,0.1,11.8,0.2c0-6.4,0-12.8,0-19.3c1.7,0,3.3,0,5,0c0.1,7.3,0,14.6,0,21.9c-0.8,0.7-1.5,1.5-2.3,2.2
	c-5.7,0.1-11.4,0-17.1,0c-0.8-0.7-1.5-1.4-2.2-2.2c-0.3-2.2-0.1-4.5-0.1-6.7C107.4,78.8,109,78.8,110.6,78.8z M101.8,26.9
	c1.8-0.1,3.6-0.1,5.4,0c0,7.5,0.1,15.1,0,22.6c-1.7,0-3.4,0-5.1,0C101.5,42,101.9,34.5,101.8,26.9z M90.2,56.4
	c2.7,4.1,5.4,8.4,8.2,12.5c2.8-4.2,5.4-8.4,8.2-12.6c0,2.7,0.2,5.5-0.1,8.3c-2.5,4.3-5.5,8.4-8.2,12.7c-2.7-4.2-5.5-8.2-8.1-12.5
	C90,62,90.2,59.2,90.2,56.4z M88.3,87.6c-1.7,0-3.4,0-5.1,0c0-4-0.1-8,0-12c1.7,0,3.3,0,5,0C88.3,79.6,88.3,83.6,88.3,87.6z
	 M71.3,54.6c0-1.7,0-3.4,0-5.1c1.4,0,2.8,0,4.2,0c3.7-0.2,7.4-0.2,11.2,0c0,1.6,0,3.2,0,4.8c-5.5,3.3-10.8,7-16.4,10.1
	c-1.6-0.6-2.9-1.9-4.2-3c3.6-2.2,7.2-4.6,10.9-6.7C75,54.6,73.2,54.6,71.3,54.6z M64.4,75.4c1.7,0,3.4,0,5.1,0c0,1.7,0,3.5,0,5.2
	c-1.7,0-3.4,0-5.1,0C64.4,78.9,64.4,77.1,64.4,75.4z M38.4,75.4c7.5,0,15-0.1,22.5,0c0,1.7,0,3.4,0,5.2c-7.5,0.1-15,0-22.5,0
	C38.4,78.9,38.4,77.1,38.4,75.4z M53.7,134.9h-5.2c0-5.5,0-11,0-16.5h5.2C53.7,123.9,53.7,129.4,53.7,134.9z M24.6,93.7
	c8.6,0,17.3-0.1,25.9,0c0,1.6,0,3.3,0,4.9c-3.9,2.5-7.7,5.1-11.7,7.4c-1.7-0.6-2.9-2-4.4-3c2.1-1.3,4.3-2.7,6.4-4.1
	c-5.4,0-10.8,0-16.2,0C24.5,97.1,24.5,95.4,24.6,93.7z M37.2,128c-1.7,0-3.5,0-5.2,0c0-1.7,0-3.3,0-5c1.7,0,3.4,0,5.1,0.1
	C37.2,124.8,37.2,126.4,37.2,128z M48.7,164.6c-1.6,0-3.2,0-4.7,0c-5.7-0.1-11.3,0.1-17-0.1c-0.9-0.5-1.9-1.4-2.3-2.4
	c-0.1-5.6,0-11.2,0-16.7c0.8-0.8,1.6-1.6,2.5-2.4c2.2,0,4.3,0,6.5,0c0,1.6,0,3.3,0,4.9c-1.3,0-2.7,0-4,0.1c0,3.9,0,7.8,0,11.7
	c6.4,0,12.8,0,19.2,0C48.7,161.3,48.7,163,48.7,164.6z M66.2,188.8c-4.5,0.2-9,0.1-13.6,0c0-1.7,0-3.4,0-5c4.5-0.2,9.1-0.1,13.6,0
	C66.3,185.4,66.4,187.1,66.2,188.8z M59.3,163.3c0-2.8-0.1-5.7,0-8.5c2.7,4.1,5.4,8.2,8.1,12.4c2.9-4.1,5.4-8.4,8.3-12.5
	c0.1,2.8,0,5.6,0,8.3c-2.8,4.1-5.4,8.4-8.3,12.5C64.7,171.5,62.1,167.4,59.3,163.3z M78.2,201.7c-1.7,0-3.4,0-5.1,0
	c0-1.7,0-3.4,0-5.1c1.7,0,3.4,0,5.1,0C78.2,198.3,78.2,200,78.2,201.7z M82.6,209.2c0-1.7,0-3.4,0-5.1c6.9,0,13.8-0.1,20.7,0
	c0,1.7,0,3.4,0,5.1C96.4,209.3,89.5,209.2,82.6,209.2z M107.2,227.9c-2.1-3.5-4.1-7.2-6.2-10.8c1.9,0,3.9,0,5.8,0
	c1.8,3.6,4.2,6.9,5.6,10.6C110.7,227.9,108.9,227.9,107.2,227.9z M128.8,239.5c-1.7,0-3.5,0-5.2,0c0-4-0.1-7.9,0.1-11.9
	c1.7,0,3.4,0.1,5.1,0.2C128.8,231.7,128.8,235.6,128.8,239.5z M132.4,213.9c-0.7,0.8-1.5,1.5-2.2,2.3c-2.3,0-4.7,0.1-7,0
	c0-1.6-0.2-3.2,0.2-4.7c1.3-0.1,2.6-0.1,4-0.1c0-3.9,0-7.8,0-11.7c-6.5,0-12.9,0.1-19.4-0.1c0-1.6,0-3.3,0-4.9
	c7.3-0.1,14.6,0,21.9-0.1c0.8,0.8,1.7,1.7,2.5,2.5C132.4,202.8,132.4,208.3,132.4,213.9z M126.1,173c1.8,0,3.6-0.1,5.4-0.3
	c2.1,3.5,4.6,7,5.7,11c-1.7,0-3.4,0-5.1,0C130.1,180.1,128.1,176.5,126.1,173z M140.3,227.8c-1.6,0-3.2,0-4.8,0
	c-0.1-1.7-0.1-3.5,0-5.2c1.7,0,3.4,0,5.1,0.1C140.5,224.4,140.5,226.1,140.3,227.8z M123.4,164.2c-0.2-1.6-0.2-3.3-0.3-4.9v0
	c6.1-4.1,12.5-7.9,18.6-12c1.5,1,2.9,2,4.4,3c-4.2,3-8.8,5.6-13.1,8.5c6.5,0.1,13,0,19.5,0.1c0,1.8,0,3.6,0,5.4
	C142.8,164.2,133.1,164.2,123.4,164.2z M148.6,172c3.2-0.1,6.5,0,9.7,0c2,7,4,14,6,20.9c-1.7,0-3.4,0-5,0c-1.4-5.3-3-10.6-4.4-16
	c-0.9-0.1-1.8-0.1-2.7-0.1c-1.5,5.4-3,10.8-4.5,16.1c-1.7,0-3.3,0-5,0C144.7,185.9,146.7,179,148.6,172z M158.1,210.2
	c1.3,0,2.6,0,3.9,0c0,1.7,0,3.4,0,5.1c-5.3,0.1-10.6,0.1-15.9,0c-0.1-1.6-0.1-3.2-0.1-4.8c5.7-3.9,11.6-7.4,17.3-11.1
	c1.9-1.6,3.7,1.1,5.3,1.9c0,0.2,0,0.5,0,0.6c-4.3,2.8-8.7,5.4-12.9,8.3L158.1,210.2z M173.7,151.2c-3.9,0-7.7,0-11.6,0
	c0,1.4,0,2.8,0,4.2c-1.7,0-3.3,0-5,0c-0.1-2.3,0-4.5,0-6.8c0.9-0.8,1.7-1.6,2.6-2.4c5.5,0,11,0,16.6,0c0.8,0.8,1.7,1.6,2.5,2.4
	c0,5.5,0,10.9,0,16.4c-1.7,0-3.4,0-5,0C173.6,160.4,173.6,155.8,173.7,151.2z M190.1,188.6c-2.4,3.5-4.7,7.1-7,10.6
	c-2.8-4.2-5.5-8.4-8.3-12.6c0-2.8,0-5.6,0-8.4c2.7,4.1,5.3,8.3,8.1,12.3c0.8-0.3,1.1-1.2,1.6-1.8c2.1-3.4,4.4-6.8,6.6-10.2
	c0.1,2.6,0.1,5.1,0,7.7C191.3,187.1,190.6,187.9,190.1,188.6z M203,180.2c-1.8,0-3.5,0-5.3,0c0-1.7,0-3.4,0-5c1.8-0.1,3.5-0.1,5.3,0
	C203,176.8,203,178.5,203,180.2z M221.6,163.3c-9.7,0-19.4,0-29.1,0c0-1.7,0-3.3,0-5v0c6.1-4,12.3-7.9,18.5-11.8
	c1.5,1,2.9,2,4.4,3.1c-4.4,2.8-8.9,5.7-13.3,8.5c6.5,0.1,13,0,19.6,0C221.6,159.8,221.6,161.5,221.6,163.3z M228.1,134.4
	c-0.1,1.9,0,3.8,0,5.8c0.1,1.6-0.3,3.1-0.2,4.7c-1.6,0-3.2,0-4.8,0c0-7.2,0-14.5,0-21.7c-3.9-0.1-7.9,0-11.8-0.1c0,1.3,0,2.7,0,4
	c-1.7,0-3.3,0-5,0c0-2.2,0-4.4,0-6.6c0.8-0.8,1.5-1.5,2.3-2.3c5.6-0.1,11.3-0.1,16.9,0c1.4,0.9,3,2.3,2.7,4.2
	C228.1,126.4,228.1,130.4,228.1,134.4z"/>
</svg>
