<!-- Generated by IcoMoon.io -->
<svg version="1.1" xmlns="http://www.w3.org/2000/svg" width="32" height="32" viewBox="0 0 32 32">
<title>NOAH</title>
<path d="M16 0.056c8.339-0.169 16 6.702 16 15.958 0 9.072-7.351 16.028-16.028 16-8.818-0.028-16.141-7.238-15.972-16.353 0.169-8.677 7.393-15.746 16-15.605zM20.007 13.616c0.085 0.014 0.113 0.014 0.141 0.014 0.72-0.127 1.439-0.254 2.159-0.381 0.155-0.028 0.31-0.071 0.451 0.028 0.268 0.198 0.522 0.409 0.79 0.621-0.31 0.254-0.593 0.48-0.903 0.734 1.453 0.466 2.808 1.058 4.064 1.877 0.268-2.61-0.875-6.631-4.402-9.199-3.499-2.54-8.198-2.723-11.866-0.494-3.922 2.399-5.418 6.589-5.15 9.778 1.34-0.847 2.765-1.467 4.317-1.989-0.522-0.099-0.776-0.466-1.171-0.705 0.282-0.226 0.522-0.423 0.79-0.607 0.085-0.056 0.212-0.085 0.325-0.071 0.395 0.056 0.776 0.141 1.157 0.212 0.395 0.071 0.79 0.141 1.171 0.198 0.169-0.141 0.183-0.268 0.042-0.409-0.691-0.113-1.411-0.226-2.159-0.353 0.31-0.268 0.339-0.268 0.621-0.226 0.409 0.056 0.804 0.099 1.213 0.141 0.169 0.014 0.339 0 0.522 0 0.127-0.296 0.24-0.578 0.367-0.875-0.099-0.085-0.183-0.155-0.268-0.226-0.395-0.325-0.79-0.635-1.171-0.974-0.198-0.169-0.183-0.183-0.099-0.451 0.593 0.423 1.185 0.847 1.75 1.27 0.127-0.085 0.212-0.141 0.325-0.212-0.198-0.155-0.325-0.282-0.466-0.381-0.466-0.325-0.931-0.635-1.383-0.974-0.127-0.099-0.282-0.226-0.325-0.367-0.085-0.31-0.099-0.649-0.155-1.016 0.423 0.056 0.804 0.099 1.143 0.141 0.522 0.734 1.016 1.439 1.538 2.159 0.127-0.113 0.212-0.198 0.296-0.282-0.451-0.621-0.903-1.227-1.34-1.834 0.212-0.071 0.353 0 0.466 0.141 0.113 0.127 0.226 0.254 0.339 0.381 0.296 0.353 0.593 0.705 0.889 1.072 0.31-0.113 0.593-0.226 0.917-0.353-0.014-0.169-0.014-0.325-0.042-0.494-0.042-0.451-0.085-0.889-0.127-1.34-0.014-0.212 0.028-0.381 0.212-0.522 0.169 0.748 0.212 1.51 0.395 2.286 0.141-0.042 0.254-0.071 0.381-0.099-0.127-0.748-0.254-1.453-0.367-2.159-0.028-0.155-0.056-0.367 0.014-0.494 0.155-0.282 0.353-0.564 0.635-0.79 0.169 0.212 0.31 0.395 0.48 0.578 0.155 0.183 0.198 0.381 0.155 0.621-0.141 0.72-0.254 1.439-0.381 2.159 0 0.042 0.028 0.071 0.042 0.127 0.127 0 0.24 0 0.353 0 0.183-0.734 0.212-1.453 0.395-2.173 0.31 0.212 0.212 0.48 0.198 0.72-0.042 0.451-0.099 0.889-0.141 1.34-0.014 0.099 0.014 0.183 0.028 0.268 0.296 0.127 0.564 0.24 0.847 0.367 0.466-0.564 0.917-1.101 1.355-1.637 0.127 0 0.24 0 0.367 0-0.466 0.635-0.903 1.256-1.369 1.877 0.127 0.085 0.212 0.155 0.325 0.24 0.522-0.734 1.030-1.439 1.538-2.159 0.367-0.042 0.734-0.099 1.115-0.141-0.042 0.395-0.071 0.734-0.099 1.086-0.691 0.578-1.496 1.002-2.201 1.623 0.099 0.099 0.169 0.183 0.254 0.282 0.649-0.48 1.256-0.917 1.877-1.369 0.071 0.254-0.028 0.423-0.212 0.564-0.24 0.183-0.466 0.367-0.691 0.55-0.254 0.212-0.494 0.423-0.734 0.621 0.127 0.296 0.24 0.564 0.381 0.875 0.578-0.056 1.157-0.085 1.721-0.169 0.254-0.028 0.466-0.028 0.649 0.212-0.776 0.127-1.524 0.254-2.314 0.381-0.014 0.155 0 0.254 0.028 0.381zM21.178 22.18c-2.808-2.131-7.873-1.961-10.328 0 0.056 1.397 1.086 3.090 2.102 3.612 0.155-0.113 0.254-0.254 0.282-0.451 0.099-0.55 0.437-0.691 0.959-0.409-0.127 0.028-0.24 0.042-0.339 0.113-0.071 0.042-0.155 0.141-0.169 0.226 0 0.268 0.141 0.451 0.367 0.578 0.198 0.113 0.367 0.071 0.55-0.056 0.198-0.141 0.226-0.339 0.282-0.55 0.127-0.466 0.522-0.593 0.903-0.31-0.141 0.056-0.296 0.113-0.423 0.155-0.014 0.085-0.042 0.127-0.042 0.169 0.014 0.325 0.254 0.607 0.55 0.649 0.268 0.028 0.508-0.155 0.607-0.48 0.028-0.085 0.028-0.169 0.056-0.254 0.042-0.169 0.155-0.31 0.339-0.353 0.198-0.042 0.409-0.071 0.593 0.141-0.113 0.014-0.183 0.014-0.24 0.028-0.24 0.085-0.325 0.268-0.24 0.508 0.085 0.226 0.353 0.423 0.578 0.423 0.24 0 0.451-0.141 0.536-0.409 0.042-0.099 0.042-0.226 0.071-0.325 0.056-0.198 0.183-0.325 0.381-0.367 0.183-0.028 0.381-0.056 0.55 0.155-0.254 0.014-0.494 0.056-0.508 0.325-0.014 0.296 0.169 0.494 0.466 0.593 1.199-0.931 1.905-2.159 2.116-3.711zM5.446 17.975c2.13-1.383 4.43-2.272 6.899-2.751 2.455-0.466 4.896-0.48 7.351-0.042 2.455 0.451 4.755 1.326 6.899 2.681 0.028-0.183 0.042-0.31 0.056-0.423-6.603-4.317-15.802-3.711-21.319 0.169 0.028 0.113 0.071 0.226 0.113 0.367zM5.672 19.090c3.203-2.004 6.646-2.963 10.328-2.977s7.139 0.917 10.328 2.85c0.042-0.141 0.085-0.254 0.127-0.367-5.884-3.81-14.73-3.937-20.896 0.099 0.028 0.113 0.056 0.226 0.113 0.395zM26.088 19.767c-0.056-0.042-0.099-0.085-0.155-0.113-1.115-0.607-2.258-1.157-3.471-1.566-1.707-0.593-3.471-0.974-5.277-1.101-1.002-0.071-2.004-0.042-3.005 0.056-1.298 0.141-2.582 0.409-3.838 0.818-1.51 0.48-2.949 1.129-4.317 1.919-0.042 0.028-0.099 0.056-0.141 0.085 0.071 0.169 0.127 0.268 0.183 0.381 6.617-3.781 13.22-3.81 19.866-0.099 0.056-0.155 0.113-0.268 0.155-0.381zM25.608 20.91c-0.071-0.042-0.099-0.085-0.127-0.099-1.058-0.564-2.145-1.058-3.273-1.467-1.623-0.593-3.287-0.988-5.023-1.115-1.411-0.099-2.822-0.014-4.205 0.268-1.157 0.24-2.3 0.564-3.4 1.002-1.030 0.395-2.032 0.861-2.991 1.383-0.056 0.028-0.113 0.085-0.183 0.141 0.085 0.113 0.155 0.212 0.212 0.31 1.58-0.861 3.203-1.552 4.896-2.046 2.159-0.621 4.346-0.832 6.575-0.536 1.75 0.226 3.414 0.72 5.023 1.411 0.776 0.339 1.538 0.705 2.314 1.058 0.056-0.099 0.099-0.198 0.183-0.31zM11.203 2.935c-0.028 0.014-0.056 0.042-0.085 0.056-0.014 0.141-0.028 0.296-0.042 0.409-0.113 0.071-0.198 0.127-0.325 0.198 0.169 0.071 0.268 0.127 0.395 0.169 0.028 0.127 0.042 0.268 0.085 0.452 0.113-0.141 0.183-0.24 0.254-0.339 0.155 0 0.296 0 0.451 0-0.099-0.141-0.169-0.24-0.226-0.325 0.056-0.141 0.099-0.254 0.169-0.423-0.169 0.042-0.282 0.085-0.494 0.141-0.056-0.085-0.127-0.212-0.183-0.339zM15.393 1.989c-0.071 0.183-0.099 0.296-0.141 0.395-0.155 0.042-0.282 0.085-0.437 0.141 0.141 0.113 0.24 0.198 0.339 0.282-0.014 0.071-0.042 0.113-0.042 0.169-0.014 0.056-0.014 0.127-0.028 0.254 0.155-0.099 0.268-0.169 0.381-0.24 0.113 0.056 0.212 0.113 0.31 0.155 0.014 0 0.042-0.014 0.071-0.042-0.028-0.113-0.056-0.24-0.085-0.339 0.085-0.113 0.155-0.198 0.24-0.31-0.155-0.028-0.282-0.042-0.381-0.056-0.085-0.127-0.141-0.24-0.226-0.409zM20.43 3.090c0.071 0.183 0.127 0.296 0.155 0.381-0.071 0.127-0.127 0.24-0.198 0.381 0.169-0.028 0.296-0.042 0.409-0.071 0.099 0.113 0.183 0.212 0.31 0.367 0.028-0.212 0.028-0.339 0.042-0.466 0.113-0.056 0.226-0.113 0.381-0.183-0.141-0.085-0.24-0.155-0.353-0.212-0.014-0.127-0.028-0.268-0.056-0.437-0.127 0.127-0.212 0.226-0.296 0.31-0.099-0.014-0.212-0.028-0.395-0.071zM8.395 27.443c0 0.141 0 0.268 0 0.437 0.141-0.071 0.24-0.141 0.353-0.198 0.085 0.056 0.169 0.099 0.254 0.141 0.028 0.014 0.071 0 0.127 0-0.042-0.141-0.085-0.254-0.127-0.353 0.099-0.113 0.183-0.212 0.296-0.353-0.183-0.014-0.325-0.014-0.437-0.028-0.056-0.127-0.099-0.212-0.155-0.367-0.085 0.155-0.155 0.254-0.212 0.353-0.127 0.042-0.24 0.085-0.395 0.141 0.127 0.085 0.212 0.155 0.296 0.226zM24.748 27.090c-0.028-0.169-0.042-0.296-0.056-0.423 0.071-0.085 0.155-0.169 0.254-0.296-0.183-0.028-0.296-0.042-0.409-0.056-0.056-0.127-0.113-0.24-0.183-0.381-0.071 0.155-0.141 0.282-0.198 0.395-0.141 0.014-0.268 0.042-0.451 0.056 0.141 0.127 0.24 0.212 0.339 0.31-0.014 0.141-0.028 0.268-0.056 0.451 0.155-0.113 0.254-0.183 0.367-0.254 0.127 0.042 0.24 0.113 0.395 0.198zM7.422 26.229c-0.141 0.028-0.268 0.056-0.437 0.085 0.113 0.141 0.198 0.226 0.268 0.325-0.014 0.127-0.042 0.24-0.056 0.409 0.155-0.085 0.268-0.141 0.353-0.183 0.127 0.056 0.24 0.113 0.395 0.183-0.028-0.169-0.042-0.282-0.071-0.395 0.113-0.085 0.212-0.169 0.353-0.282-0.183-0.028-0.325-0.056-0.452-0.071-0.042-0.127-0.085-0.24-0.141-0.423-0.085 0.155-0.155 0.254-0.212 0.353zM28.727 17.848c0.071 0.183 0.127 0.31 0.169 0.423-0.085 0.113-0.155 0.226-0.24 0.367 0.183 0 0.296 0 0.423 0 0.071 0.113 0.141 0.212 0.24 0.339 0.056-0.169 0.099-0.282 0.141-0.395 0.127-0.042 0.24-0.071 0.395-0.127-0.141-0.113-0.24-0.198-0.339-0.268-0.014-0.141-0.028-0.254-0.042-0.423-0.127 0.099-0.226 0.169-0.31 0.254-0.141-0.042-0.254-0.099-0.437-0.169zM29.616 17.157c0.113-0.056 0.226-0.127 0.367-0.198-0.141-0.085-0.226-0.141-0.296-0.183-0.028-0.155-0.056-0.282-0.099-0.466-0.127 0.141-0.212 0.226-0.282 0.31-0.141-0.028-0.268-0.056-0.451-0.099 0.085 0.169 0.141 0.282 0.198 0.381-0.085 0.127-0.155 0.24-0.254 0.381 0.198-0.014 0.325-0.028 0.451-0.042 0.085 0.099 0.155 0.169 0.268 0.282 0.042-0.141 0.071-0.254 0.099-0.367zM23.337 4.797c-0.071 0.071-0.183 0.183-0.31 0.31 0.198 0.028 0.325 0.042 0.48 0.056 0.014 0.056 0.028 0.099 0.056 0.155s0.056 0.113 0.113 0.198c0.085-0.169 0.155-0.282 0.212-0.395 0.127-0.028 0.226-0.056 0.353-0.085-0.099-0.113-0.183-0.212-0.254-0.296 0.014-0.127 0.028-0.226 0.042-0.381-0.155 0.071-0.268 0.127-0.381 0.183-0.113-0.056-0.212-0.099-0.353-0.155 0.014 0.155 0.028 0.268 0.042 0.409zM22.617 27.132c0.127 0.141 0.212 0.24 0.31 0.339-0.014 0.127-0.042 0.24-0.056 0.395 0.155-0.071 0.268-0.113 0.367-0.155 0.113 0.085 0.212 0.155 0.367 0.254-0.014-0.198-0.028-0.339-0.042-0.451 0.085-0.099 0.169-0.183 0.268-0.296-0.169-0.028-0.282-0.056-0.381-0.071-0.071-0.141-0.113-0.24-0.183-0.395-0.085 0.155-0.141 0.254-0.183 0.353-0.169 0-0.296 0.014-0.466 0.028zM5.037 22.829c-0.141 0.113-0.254 0.198-0.353 0.282-0.113-0.014-0.24-0.042-0.395-0.056 0.071 0.169 0.127 0.296 0.169 0.395-0.085 0.127-0.141 0.226-0.24 0.367 0.198-0.042 0.31-0.071 0.437-0.099 0.099 0.113 0.183 0.212 0.296 0.339 0.028-0.169 0.042-0.296 0.056-0.395 0.141-0.071 0.254-0.127 0.423-0.198-0.183-0.085-0.296-0.141-0.437-0.212 0.014-0.071 0.028-0.113 0.028-0.169 0.028-0.071 0.014-0.127 0.014-0.254zM2.469 17.693c0.014 0.169 0.028 0.31 0.042 0.451-0.085 0.056-0.183 0.099-0.254 0.155-0.028 0.014-0.042 0.071-0.056 0.113 0.127 0.042 0.254 0.071 0.353 0.099 0.042 0.141 0.085 0.24 0.141 0.409 0.099-0.155 0.169-0.254 0.24-0.353 0.141-0.014 0.282-0.028 0.437-0.042-0.099-0.127-0.169-0.226-0.254-0.325 0.028-0.099 0.071-0.198 0.099-0.282 0.014-0.028-0.028-0.071-0.042-0.113-0.127 0.042-0.24 0.099-0.367 0.141-0.113-0.071-0.198-0.155-0.339-0.254zM2.384 15.266c-0.099 0.056-0.212 0.113-0.353 0.198 0.127 0.085 0.226 0.155 0.31 0.212 0.014 0.141 0.042 0.254 0.056 0.409 0.141-0.127 0.24-0.226 0.325-0.31 0.127 0.042 0.24 0.085 0.437 0.141-0.085-0.183-0.141-0.282-0.198-0.381 0.056-0.141 0.113-0.268 0.198-0.437-0.183 0.042-0.296 0.071-0.423 0.099-0.085-0.099-0.155-0.183-0.268-0.31-0.042 0.155-0.056 0.254-0.085 0.381zM2.907 13.813c-0.071-0.099-0.141-0.198-0.254-0.325-0.056 0.169-0.085 0.296-0.113 0.395-0.141 0.028-0.268 0.071-0.452 0.113 0.169 0.113 0.296 0.183 0.395 0.24 0 0.141 0 0.254 0 0.423 0.141-0.113 0.24-0.183 0.339-0.254 0.113 0.042 0.226 0.085 0.409 0.155-0.071-0.183-0.113-0.31-0.141-0.409 0.085-0.113 0.141-0.212 0.24-0.367-0.183 0.028-0.296 0.028-0.423 0.028zM27.175 7.379c-0.169 0.028-0.31 0.042-0.423 0.071-0.099-0.085-0.183-0.155-0.296-0.254-0.028 0.155-0.042 0.268-0.056 0.395-0.127 0.056-0.254 0.113-0.423 0.198 0.183 0.071 0.31 0.113 0.423 0.169 0.028 0.155 0.056 0.282 0.099 0.466 0.127-0.155 0.198-0.268 0.268-0.353 0.141 0.028 0.268 0.042 0.423 0.071-0.085-0.155-0.155-0.254-0.212-0.367 0.071-0.141 0.127-0.254 0.198-0.395zM4.247 10.145c0.113-0.071 0.198-0.141 0.339-0.24-0.169-0.056-0.282-0.099-0.395-0.141-0.042-0.127-0.085-0.24-0.141-0.409-0.099 0.155-0.169 0.254-0.24 0.353-0.141-0.014-0.268-0.028-0.466-0.042 0.113 0.155 0.198 0.268 0.282 0.381-0.042 0.113-0.085 0.226-0.141 0.381 0.169-0.042 0.282-0.071 0.423-0.113 0.099 0.071 0.198 0.155 0.31 0.254 0-0.155 0.014-0.282 0.028-0.423zM24.127 5.884c0.155 0.042 0.268 0.071 0.381 0.099 0.056 0.113 0.099 0.212 0.155 0.31 0.014 0.014 0.042 0.014 0.085 0.028 0.042-0.099 0.099-0.183 0.141-0.296 0.113-0.014 0.226-0.014 0.339-0.028 0.014 0 0.028-0.042 0.042-0.056-0.071-0.099-0.155-0.198-0.212-0.282 0.028-0.141 0.056-0.254 0.085-0.409-0.155 0.071-0.268 0.113-0.381 0.169-0.113-0.056-0.212-0.127-0.367-0.198 0.028 0.169 0.042 0.282 0.056 0.409-0.085 0.071-0.183 0.141-0.325 0.254zM3.344 12.825c0.085-0.127 0.268-0.155 0.268-0.367-0.141 0.014-0.268 0.014-0.381 0.028-0.071-0.127-0.141-0.254-0.212-0.395-0.071 0.155-0.127 0.282-0.169 0.381-0.141 0.042-0.254 0.056-0.437 0.099 0.155 0.113 0.254 0.183 0.339 0.254-0.014 0.141-0.028 0.268-0.056 0.451 0.141-0.113 0.24-0.183 0.339-0.24 0.141 0.056 0.254 0.099 0.437 0.169-0.056-0.155-0.099-0.268-0.127-0.381zM5.051 24.183c0.113 0.183 0.183 0.282 0.254 0.395-0.071 0.127-0.127 0.24-0.212 0.409 0.169-0.042 0.296-0.071 0.409-0.099 0.099 0.085 0.198 0.155 0.31 0.254 0.014-0.155 0.028-0.282 0.042-0.395 0.127-0.071 0.24-0.141 0.395-0.226-0.155-0.071-0.268-0.113-0.381-0.155-0.028-0.141-0.071-0.268-0.113-0.451-0.113 0.169-0.198 0.268-0.268 0.367-0.127-0.014-0.226-0.042-0.437-0.099zM30.025 15.534c-0.183-0.085-0.296-0.141-0.409-0.212-0.028-0.113-0.042-0.226-0.071-0.353-0.113 0.099-0.212 0.183-0.296 0.254-0.127 0-0.254-0.014-0.409-0.014 0.085 0.155 0.141 0.254 0.198 0.353-0.042 0.113-0.085 0.226-0.141 0.367 0.169-0.028 0.268-0.042 0.381-0.071 0.099 0.071 0.183 0.141 0.325 0.24 0.028-0.169 0.056-0.282 0.071-0.395 0.099-0.028 0.198-0.085 0.353-0.169zM3.81 20.84c0.014-0.155 0.028-0.282 0.042-0.437-0.155 0.099-0.268 0.183-0.367 0.24-0.127-0.056-0.212-0.113-0.367-0.183 0.028 0.169 0.056 0.282 0.071 0.395-0.085 0.113-0.169 0.226-0.282 0.367 0.183 0 0.296 0 0.423 0 0.056 0.113 0.127 0.24 0.212 0.423 0.056-0.198 0.099-0.325 0.127-0.437 0.155-0.028 0.282-0.042 0.466-0.071-0.113-0.127-0.212-0.198-0.325-0.296zM2.709 16.578c-0.085-0.085-0.183-0.169-0.31-0.282-0.028 0.183-0.056 0.31-0.071 0.437-0.113 0.071-0.212 0.127-0.353 0.212 0.183 0.056 0.296 0.099 0.409 0.127 0.028 0.141 0.056 0.268 0.085 0.437 0.113-0.141 0.183-0.24 0.268-0.325 0.127 0.014 0.254 0.028 0.409 0.056-0.071-0.155-0.127-0.268-0.183-0.381 0.042-0.099 0.085-0.212 0.155-0.367-0.169 0.028-0.282 0.056-0.409 0.085zM2.78 19.513c-0.099 0.085-0.198 0.169-0.325 0.268 0.169 0.042 0.296 0.085 0.423 0.113 0.056 0.127 0.099 0.226 0.155 0.381 0.099-0.155 0.155-0.254 0.212-0.353 0.127-0.028 0.254-0.042 0.367-0.056 0.014-0.028 0.042-0.056 0.056-0.085-0.113-0.056-0.24-0.099-0.325-0.141 0.056-0.183 0.085-0.268 0.113-0.367 0-0.028-0.028-0.071-0.028-0.113-0.127 0.056-0.24 0.099-0.339 0.141-0.127-0.056-0.226-0.113-0.367-0.183 0.014 0.155 0.042 0.268 0.056 0.395zM12.529 2.497c-0.056 0.198-0.085 0.31-0.099 0.395-0.127 0.085-0.212 0.141-0.339 0.226 0.141 0.071 0.24 0.113 0.353 0.169 0.014 0.113 0.014 0.226 0.028 0.339 0 0.014 0.042 0.028 0.071 0.042 0.085-0.071 0.169-0.141 0.254-0.226 0.141 0.028 0.268 0.042 0.437 0.071-0.085-0.155-0.141-0.268-0.198-0.381 0.071-0.127 0.127-0.226 0.212-0.381-0.169 0.028-0.282 0.042-0.409 0.071-0.113-0.085-0.198-0.183-0.31-0.325zM16.804 2.977c0.127 0.071 0.24 0.127 0.395 0.212-0.042-0.169-0.056-0.296-0.085-0.395 0.099-0.099 0.169-0.183 0.282-0.296-0.155-0.042-0.254-0.071-0.353-0.099-0.071-0.113-0.127-0.212-0.212-0.339-0.085 0.155-0.141 0.254-0.198 0.353-0.127 0.014-0.24 0.014-0.409 0.028 0.127 0.141 0.198 0.226 0.268 0.31-0.028 0.141-0.042 0.268-0.071 0.437 0.169-0.085 0.268-0.155 0.381-0.212zM14.434 3.273c0.014-0.014 0.042-0.042 0.056-0.056-0.042-0.113-0.099-0.226-0.141-0.325 0.099-0.113 0.183-0.212 0.296-0.367-0.183 0-0.325 0-0.466 0-0.056-0.099-0.113-0.183-0.169-0.254-0.014-0.028-0.071-0.028-0.113-0.042-0.014 0.127-0.042 0.24-0.056 0.339-0.127 0.056-0.254 0.113-0.395 0.183 0.141 0.099 0.24 0.169 0.325 0.226 0 0.141 0 0.254 0 0.423 0.141-0.113 0.24-0.198 0.339-0.282 0.127 0.071 0.226 0.113 0.325 0.155zM19.076 3.471c0.183-0.042 0.31-0.056 0.423-0.085 0.099 0.085 0.183 0.155 0.296 0.254 0.014-0.155 0.028-0.268 0.042-0.381 0.113-0.071 0.212-0.141 0.353-0.24-0.155-0.056-0.254-0.099-0.353-0.127-0.028-0.113-0.042-0.226-0.071-0.339-0.014-0.028-0.056-0.056-0.085-0.071-0.085 0.099-0.169 0.198-0.24 0.296-0.127-0.014-0.254-0.028-0.437-0.056 0.113 0.169 0.183 0.282 0.254 0.381-0.042 0.113-0.099 0.212-0.183 0.367zM29.206 19.203c-0.127 0.071-0.212 0.127-0.31 0.169-0.127-0.056-0.254-0.099-0.437-0.169 0.056 0.183 0.099 0.296 0.141 0.423-0.085 0.071-0.169 0.141-0.254 0.226-0.014 0.014 0.014 0.042 0.014 0.099 0.113 0 0.226 0 0.353 0 0.071 0.127 0.141 0.24 0.226 0.381 0.071-0.155 0.113-0.268 0.155-0.381 0.127-0.028 0.24-0.056 0.409-0.085-0.113-0.113-0.198-0.183-0.268-0.254 0-0.141-0.014-0.268-0.028-0.409zM5.517 7.817c0.099 0.099 0.183 0.198 0.31 0.324 0.028-0.183 0.042-0.282 0.056-0.409 0.113-0.042 0.212-0.085 0.31-0.127 0.014 0 0.014-0.042 0.028-0.071-0.085-0.056-0.183-0.113-0.282-0.183-0.014-0.127-0.028-0.254-0.042-0.409-0.141 0.099-0.24 0.183-0.339 0.254-0.141-0.028-0.254-0.056-0.423-0.085 0.085 0.155 0.141 0.268 0.198 0.381-0.071 0.113-0.127 0.212-0.212 0.367 0.155-0.028 0.268-0.042 0.395-0.042zM28.938 13.093c0.127 0.099 0.226 0.169 0.367 0.268-0.028-0.198-0.042-0.339-0.056-0.466 0.113-0.085 0.198-0.141 0.353-0.254-0.183-0.042-0.31-0.071-0.409-0.085-0.071-0.127-0.127-0.24-0.212-0.395-0.085 0.169-0.127 0.282-0.183 0.409-0.141 0-0.282-0.113-0.409 0.042 0.099 0.085 0.198 0.183 0.296 0.268-0.042 0.113-0.085 0.198-0.113 0.282-0.014 0.028 0.028 0.071 0.042 0.113 0.113-0.056 0.212-0.113 0.325-0.183zM2.935 11.725c0.169-0.056 0.31-0.099 0.437-0.141 0.113 0.085 0.212 0.141 0.367 0.254-0.028-0.198-0.056-0.325-0.085-0.466 0.113-0.085 0.198-0.155 0.353-0.268-0.169-0.028-0.296-0.056-0.409-0.085-0.056-0.127-0.113-0.24-0.183-0.409-0.085 0.155-0.141 0.254-0.183 0.353-0.141 0.014-0.254 0.028-0.423 0.056 0.113 0.127 0.183 0.226 0.268 0.31-0.071 0.127-0.099 0.24-0.141 0.395zM28.727 11.711c0.113 0.042 0.226 0.099 0.409 0.169-0.071-0.169-0.113-0.282-0.155-0.395 0.085-0.113 0.169-0.212 0.282-0.367-0.198 0.014-0.325 0.014-0.437 0.014-0.071-0.113-0.141-0.212-0.226-0.325-0.071 0.155-0.113 0.282-0.155 0.395-0.113 0.014-0.212 0.042-0.325 0.056-0.014 0-0.014 0.042-0.042 0.071 0.099 0.071 0.198 0.141 0.296 0.212-0.014 0.127-0.014 0.254-0.028 0.409 0.155-0.085 0.268-0.155 0.381-0.24zM8.466 4.219c0.028 0.198 0.042 0.339 0.056 0.48-0.099 0.085-0.198 0.169-0.31 0.268 0.169 0.028 0.282 0.056 0.409 0.071 0.056 0.127 0.099 0.24 0.155 0.395 0.085-0.127 0.155-0.226 0.226-0.324 0.127-0.014 0.24-0.028 0.395-0.042-0.099-0.127-0.183-0.226-0.268-0.324 0.028-0.099 0.056-0.183 0.071-0.282 0-0.028-0.014-0.071-0.028-0.099-0.127 0.056-0.24 0.099-0.367 0.141-0.099-0.099-0.198-0.169-0.339-0.282zM25.877 26.116c-0.085-0.212-0.127-0.325-0.169-0.409 0.085-0.113 0.155-0.212 0.254-0.353-0.169 0-0.282 0-0.395 0-0.085-0.113-0.169-0.198-0.268-0.325-0.042 0.169-0.085 0.282-0.113 0.395-0.127 0.042-0.24 0.085-0.395 0.141 0.155 0.113 0.254 0.183 0.353 0.254-0.014 0.127-0.028 0.24-0.042 0.409 0.155-0.113 0.268-0.198 0.353-0.254 0.127 0.028 0.226 0.071 0.423 0.141zM5.996 25.34c0.099 0.127 0.169 0.226 0.226 0.31-0.042 0.141-0.099 0.254-0.155 0.437 0.169-0.071 0.282-0.113 0.409-0.169 0.113 0.071 0.212 0.155 0.367 0.254-0.028-0.183-0.042-0.296-0.056-0.423 0.127-0.085 0.24-0.155 0.395-0.254-0.169-0.056-0.282-0.099-0.423-0.141-0.028-0.099-0.071-0.198-0.099-0.296 0-0.014-0.042-0.014-0.071-0.028-0.071 0.099-0.141 0.198-0.212 0.282-0.113 0-0.226 0.014-0.381 0.028zM29.545 14.787c-0.014-0.212-0.014-0.339-0.028-0.466 0.127-0.085 0.226-0.155 0.367-0.24-0.169-0.056-0.296-0.113-0.437-0.155-0.028-0.113-0.056-0.226-0.085-0.395-0.113 0.155-0.183 0.254-0.24 0.325-0.155 0.014-0.268 0.042-0.423 0.056 0.099 0.127 0.169 0.226 0.226 0.31-0.056 0.127-0.099 0.24-0.155 0.409 0.198-0.071 0.31-0.113 0.451-0.169 0.085 0.085 0.169 0.169 0.325 0.325zM27.781 8.945c0.071-0.141 0.127-0.24 0.183-0.367-0.169 0.014-0.282 0.014-0.395 0.028-0.099-0.113-0.169-0.198-0.268-0.31-0.028 0.169-0.056 0.282-0.071 0.409-0.113 0.042-0.198 0.056-0.296 0.099-0.028 0.014-0.042 0.056-0.085 0.099 0.113 0.071 0.226 0.127 0.325 0.183 0.014 0.127 0.028 0.24 0.042 0.395 0.127-0.099 0.212-0.169 0.31-0.24 0.099 0.028 0.198 0.056 0.296 0.071 0.028 0 0.071-0.028 0.113-0.042-0.071-0.113-0.113-0.212-0.155-0.325zM18.145 3.118c0.113 0.071 0.24 0.141 0.381 0.24-0.014-0.141-0.028-0.268-0.028-0.381 0.113-0.099 0.212-0.183 0.353-0.296-0.169-0.056-0.282-0.085-0.395-0.113-0.042-0.127-0.085-0.24-0.141-0.409-0.099 0.155-0.169 0.254-0.226 0.353-0.127 0.014-0.24 0.042-0.395 0.056 0.099 0.113 0.169 0.212 0.226 0.282-0.042 0.127-0.085 0.226-0.113 0.339 0 0.014 0.014 0.042 0.042 0.085 0.085-0.071 0.198-0.113 0.296-0.155zM4.007 21.926c-0.113-0.042-0.226-0.085-0.395-0.155 0.071 0.183 0.127 0.31 0.169 0.423-0.085 0.113-0.141 0.198-0.24 0.325 0.169 0.014 0.296 0.014 0.395 0.014 0.085 0.113 0.155 0.198 0.254 0.31 0.056-0.141 0.099-0.268 0.141-0.381 0.127-0.056 0.24-0.099 0.381-0.155-0.141-0.085-0.254-0.155-0.353-0.212 0.014-0.141 0.014-0.254 0.028-0.423-0.155 0.099-0.268 0.169-0.381 0.254zM27.81 21.206c0.212 0.042 0.325 0.056 0.437 0.071 0.056 0.113 0.113 0.212 0.183 0.325 0.085-0.127 0.155-0.226 0.212-0.325 0.127-0.014 0.254-0.042 0.437-0.056-0.127-0.127-0.226-0.198-0.31-0.282 0.028-0.113 0.056-0.226 0.113-0.409-0.169 0.071-0.282 0.127-0.395 0.169-0.099-0.056-0.212-0.127-0.367-0.212 0.028 0.183 0.042 0.296 0.056 0.423-0.099 0.085-0.198 0.155-0.367 0.296zM9.933 4.755c0.113-0.155 0.198-0.254 0.254-0.339 0.141 0.014 0.254 0.014 0.437 0.028-0.127-0.169-0.212-0.268-0.282-0.367 0.042-0.127 0.085-0.24 0.141-0.395-0.169 0.071-0.282 0.113-0.395 0.155-0.113-0.099-0.226-0.183-0.353-0.296 0 0.183 0 0.31 0 0.409-0.099 0.099-0.183 0.169-0.31 0.282 0.169 0.056 0.282 0.085 0.409 0.127 0.028 0.127 0.056 0.226 0.099 0.395zM27.697 23.111c-0.169 0.028-0.296 0.042-0.437 0.071-0.099-0.071-0.183-0.141-0.31-0.226-0.014 0.155-0.014 0.268-0.028 0.353-0.113 0.071-0.212 0.127-0.353 0.212 0.155 0.071 0.24 0.127 0.339 0.169 0.042 0.113 0.071 0.226 0.127 0.381 0.113-0.113 0.198-0.198 0.268-0.282 0.085 0.014 0.127 0.014 0.183 0.028s0.127 0.028 0.254 0.056c-0.113-0.169-0.183-0.282-0.254-0.395 0.071-0.113 0.127-0.226 0.212-0.367zM26.878 24.254c-0.183 0.042-0.31 0.071-0.423 0.085-0.085-0.099-0.155-0.183-0.254-0.296-0.042 0.155-0.071 0.268-0.113 0.381-0.071 0.014-0.127 0.028-0.183 0.042-0.056 0.028-0.113 0.056-0.198 0.099 0.155 0.085 0.254 0.155 0.353 0.198 0.014 0.155 0.028 0.282 0.056 0.466 0.127-0.141 0.212-0.226 0.296-0.31 0.141 0.028 0.282 0.056 0.451 0.099-0.085-0.155-0.127-0.268-0.198-0.381 0.071-0.113 0.127-0.226 0.212-0.381zM25.891 6.97c0.155 0.014 0.282 0.028 0.466 0.042-0.113-0.155-0.198-0.254-0.254-0.339 0.042-0.141 0.071-0.254 0.113-0.423-0.169 0.056-0.268 0.099-0.353 0.127-0.127-0.085-0.212-0.141-0.339-0.226-0.014 0.169-0.014 0.268-0.014 0.367-0.127 0.085-0.226 0.155-0.367 0.254 0.169 0.056 0.296 0.099 0.395 0.141 0.042 0.141 0.085 0.24 0.141 0.395 0.085-0.141 0.155-0.254 0.212-0.339zM7.097 5.813c0.155 0.014 0.282 0.028 0.381 0.042 0.085 0.127 0.141 0.212 0.24 0.353 0.056-0.155 0.099-0.254 0.127-0.353 0.127-0.028 0.24-0.056 0.367-0.085 0.014-0.028 0.028-0.056 0.042-0.085-0.113-0.056-0.212-0.127-0.296-0.169 0.028-0.183 0.042-0.31 0.056-0.466-0.155 0.085-0.254 0.155-0.353 0.212-0.127-0.056-0.24-0.113-0.409-0.198 0.042 0.183 0.085 0.31 0.113 0.423-0.085 0.113-0.169 0.198-0.268 0.325zM4.557 9.101c0.099 0.085 0.198 0.183 0.325 0.296 0.028-0.169 0.042-0.296 0.071-0.423 0.113-0.056 0.212-0.113 0.353-0.183-0.155-0.071-0.254-0.113-0.339-0.155-0.042-0.141-0.085-0.268-0.127-0.423-0.113 0.127-0.183 0.212-0.254 0.296-0.141-0.014-0.254-0.028-0.423-0.042 0.085 0.155 0.155 0.254 0.212 0.353-0.056 0.113-0.099 0.226-0.183 0.395 0.155-0.056 0.254-0.085 0.367-0.113zM21.898 27.753c-0.141 0.014-0.254 0.028-0.409 0.056 0.085 0.141 0.141 0.24 0.198 0.325-0.028 0.141-0.056 0.254-0.085 0.395 0.141-0.056 0.254-0.099 0.353-0.141 0.113 0.085 0.212 0.169 0.367 0.282-0.014-0.183-0.014-0.325-0.028-0.437 0.113-0.085 0.198-0.155 0.31-0.254-0.155-0.056-0.268-0.099-0.367-0.141-0.042-0.113-0.071-0.212-0.127-0.367-0.085 0.127-0.141 0.198-0.212 0.282zM28.332 21.855c-0.183 0.056-0.296 0.099-0.395 0.127-0.127-0.085-0.212-0.155-0.339-0.254 0 0.169 0 0.282 0 0.423-0.042 0.028-0.085 0.071-0.141 0.085-0.056 0.028-0.113 0.056-0.24 0.127 0.198 0.071 0.31 0.113 0.423 0.141 0.042 0.141 0.085 0.24 0.141 0.381 0.113-0.141 0.212-0.24 0.282-0.339 0.127 0.028 0.24 0.042 0.409 0.071-0.113-0.169-0.198-0.268-0.268-0.367 0.042-0.127 0.071-0.226 0.127-0.395zM22.18 4.332c0.085 0.113 0.141 0.212 0.226 0.325 0.071-0.155 0.113-0.268 0.169-0.381 0.127-0.028 0.24-0.056 0.409-0.099-0.141-0.113-0.24-0.183-0.31-0.24-0.028-0.155-0.042-0.268-0.056-0.423-0.127 0.085-0.212 0.141-0.31 0.212-0.127-0.028-0.24-0.056-0.395-0.099 0.056 0.155 0.099 0.254 0.141 0.367-0.071 0.099-0.141 0.198-0.24 0.325 0.127 0 0.24 0 0.367 0.014zM9.623 28.176c0.014 0.141 0.028 0.282 0.042 0.437 0.127-0.099 0.226-0.169 0.31-0.226 0.127 0.028 0.226 0.056 0.367 0.085-0.042-0.155-0.071-0.254-0.085-0.339 0.071-0.113 0.113-0.198 0.183-0.325-0.155-0.014-0.282-0.028-0.381-0.042-0.071-0.099-0.141-0.198-0.24-0.339-0.056 0.183-0.099 0.296-0.127 0.395-0.127 0.042-0.24 0.085-0.395 0.141 0.141 0.099 0.24 0.155 0.325 0.212zM6.462 6.787c0.071 0.113 0.127 0.198 0.212 0.339 0.071-0.169 0.113-0.282 0.169-0.395 0.127-0.042 0.24-0.071 0.409-0.113-0.155-0.113-0.268-0.198-0.353-0.254 0.014-0.141 0.014-0.24 0.028-0.395-0.155 0.113-0.254 0.183-0.339 0.24-0.127-0.056-0.24-0.113-0.409-0.183 0.042 0.198 0.085 0.325 0.113 0.452-0.056 0.099-0.113 0.169-0.183 0.282 0.113 0 0.212 0.014 0.353 0.028zM28.275 9.877c-0.085-0.127-0.155-0.226-0.254-0.367-0.056 0.183-0.099 0.296-0.127 0.409-0.127 0.028-0.226 0.071-0.381 0.113 0.141 0.113 0.226 0.198 0.31 0.268-0.014 0.127-0.014 0.24-0.028 0.423 0.169-0.127 0.268-0.198 0.353-0.268 0.113 0.042 0.226 0.085 0.395 0.141-0.056-0.169-0.085-0.282-0.127-0.409 0.071-0.085 0.141-0.169 0.212-0.254 0.014-0.014-0.014-0.042-0.014-0.085-0.113 0.014-0.212 0.028-0.339 0.028z"></path>
<path d="M18.681 22.857c0.085-0.254 0.169-0.48 0.254-0.734 0.085 0.24 0.155 0.466 0.24 0.705 0.099 0.014 0.212 0.028 0.325 0.028s0.226 0 0.409 0c-0.212 0.155-0.353 0.282-0.536 0.409 0.056 0.212 0.099 0.423 0.155 0.691-0.212-0.127-0.395-0.24-0.593-0.367-0.169 0.113-0.325 0.226-0.522 0.353 0.028-0.24 0.056-0.451 0.085-0.691-0.169-0.113-0.325-0.226-0.536-0.381 0.141-0.014 0.24-0.028 0.339-0.028 0.113 0.014 0.226 0.014 0.381 0.014z"></path>
<path d="M12.642 23.28c-0.183-0.141-0.339-0.254-0.55-0.395 0.268-0.014 0.466-0.028 0.72-0.042 0.085-0.226 0.169-0.466 0.268-0.734 0.085 0.268 0.155 0.508 0.24 0.748 0.24 0 0.466 0 0.748 0-0.226 0.169-0.409 0.31-0.578 0.437 0.056 0.212 0.113 0.409 0.183 0.677-0.24-0.155-0.395-0.254-0.578-0.367-0.169 0.113-0.339 0.212-0.55 0.353 0.028-0.254 0.056-0.451 0.099-0.677z"></path>
<path d="M15.774 22.236c0.071-0.254 0.127-0.466 0.212-0.762 0.099 0.282 0.169 0.508 0.268 0.748 0.212 0.014 0.423 0.028 0.677 0.042-0.183 0.155-0.339 0.268-0.494 0.409 0.056 0.198 0.113 0.409 0.183 0.663-0.226-0.141-0.409-0.254-0.607-0.381-0.155 0.113-0.282 0.212-0.508 0.381 0.042-0.254 0.071-0.423 0.113-0.635-0.141-0.127-0.31-0.268-0.508-0.437 0.212 0 0.423 0 0.663-0.028z"></path>
</svg>
