<!-- Generated by IcoMoon.io -->
<svg version="1.1" xmlns="http://www.w3.org/2000/svg" width="32" height="32" viewBox="0 0 32 32">
<title>NOAH1</title>
<path d="M13.503 3.922c-2.258 6.293-4.473 12.444-6.716 18.681 0.212 0.028 0.353 0.056 0.494 0.056 1.298 0 2.596-0.028 3.88 0.014 0.508 0.014 0.705-0.183 0.875-0.621 1.552-4.346 3.118-8.677 4.67-13.023 0.55-1.524 1.101-3.034 1.623-4.557 0.141-0.409 0.325-0.564 0.762-0.564 1.326 0.028 2.667 0.014 3.993 0 0.381 0 0.564 0.127 0.691 0.48 1.425 3.965 2.85 7.929 4.289 11.908 1.27 3.527 2.526 7.055 3.795 10.582 0.056 0.141 0.085 0.282 0.155 0.494-0.268 0.014-0.508 0.056-0.734 0.056-1.256 0-2.511-0.014-3.767 0-0.381 0-0.564-0.127-0.691-0.48-0.451-1.298-0.945-2.568-1.383-3.866-0.113-0.339-0.282-0.423-0.607-0.423-2.497 0.014-4.995 0.014-7.478 0-0.367 0-0.522 0.127-0.649 0.466-0.437 1.27-0.917 2.54-1.354 3.81-0.113 0.31-0.24 0.494-0.621 0.494-4.769-0.014-9.524 0-14.293 0-0.113 0-0.212-0.028-0.409-0.056 0.31-0.875 0.607-1.721 0.903-2.554 1.891-5.249 3.781-10.511 5.672-15.76 0.564-1.552 1.101-3.104 1.679-4.656 0.071-0.198 0.282-0.466 0.437-0.48 1.538-0.014 3.090 0 4.783 0zM21.136 11.189c-0.056 0-0.113 0.014-0.155 0.014-0.79 2.201-1.58 4.402-2.384 6.66 1.679 0 3.259 0 4.938 0-0.818-2.272-1.608-4.473-2.399-6.674z"></path>
</svg>
