<?xml version="1.0" encoding="utf-8"?>
<!-- Generator: Adobe Illustrator 22.1.0, SVG Export Plug-In . SVG Version: 6.00 Build 0)  -->
<svg version="1.1" id="Layer_1" xmlns="http://www.w3.org/2000/svg" xmlns:xlink="http://www.w3.org/1999/xlink" x="0px" y="0px"
	 viewBox="0 0 226.8 226.8" style="enable-background:new 0 0 226.8 226.8;" xml:space="preserve">
<g id="Lnen1P_1_">
	<g>
		<path d="M113.4,0.4c59.1-1.2,113.4,47.5,113.4,113.1c0,64.3-52.1,113.6-113.6,113.4C50.7,226.7-1.2,175.6,0,111
			C1.2,49.5,52.4-0.6,113.4,0.4z M141.8,96.5c0.6,0.1,0.8,0.1,1,0.1c5.1-0.9,10.2-1.8,15.3-2.7c1.1-0.2,2.2-0.5,3.2,0.2
			c1.9,1.4,3.7,2.9,5.6,4.4c-2.2,1.8-4.2,3.4-6.4,5.2c10.3,3.3,19.9,7.5,28.8,13.3c1.9-18.5-6.2-47-31.2-65.2
			C133.3,33.8,100,32.5,74,48.3c-27.8,17-38.4,46.7-36.5,69.3c9.5-6,19.6-10.4,30.6-14.1c-3.7-0.7-5.5-3.3-8.3-5
			c2-1.6,3.7-3,5.6-4.3c0.6-0.4,1.5-0.6,2.3-0.5c2.8,0.4,5.5,1,8.2,1.5c2.8,0.5,5.6,1,8.3,1.4c1.2-1,1.3-1.9,0.3-2.9
			c-4.9-0.8-10-1.6-15.3-2.5c2.2-1.9,2.4-1.9,4.4-1.6c2.9,0.4,5.7,0.7,8.6,1c1.2,0.1,2.4,0,3.7,0c0.9-2.1,1.7-4.1,2.6-6.2
			c-0.7-0.6-1.3-1.1-1.9-1.6c-2.8-2.3-5.6-4.5-8.3-6.9c-1.4-1.2-1.3-1.3-0.7-3.2c4.2,3,8.4,6,12.4,9c0.9-0.6,1.5-1,2.3-1.5
			c-1.4-1.1-2.3-2-3.3-2.7c-3.3-2.3-6.6-4.5-9.8-6.9c-0.9-0.7-2-1.6-2.3-2.6c-0.6-2.2-0.7-4.6-1.1-7.2c3,0.4,5.7,0.7,8.1,1
			c3.7,5.2,7.2,10.2,10.9,15.3c0.9-0.8,1.5-1.4,2.1-2c-3.2-4.4-6.4-8.7-9.5-13c1.5-0.5,2.5,0,3.3,1c0.8,0.9,1.6,1.8,2.4,2.7
			c2.1,2.5,4.2,5,6.3,7.6c2.2-0.8,4.2-1.6,6.5-2.5c-0.1-1.2-0.1-2.3-0.3-3.5c-0.3-3.2-0.6-6.3-0.9-9.5c-0.1-1.5,0.2-2.7,1.5-3.7
			c1.2,5.3,1.5,10.7,2.8,16.2c1-0.3,1.8-0.5,2.7-0.7c-0.9-5.3-1.8-10.3-2.6-15.3c-0.2-1.1-0.4-2.6,0.1-3.5c1.1-2,2.5-4,4.5-5.6
			c1.2,1.5,2.2,2.8,3.4,4.1c1.1,1.3,1.4,2.7,1.1,4.4c-1,5.1-1.8,10.2-2.7,15.3c0,0.3,0.2,0.5,0.3,0.9c0.9,0,1.7,0,2.5,0
			c1.3-5.2,1.5-10.3,2.8-15.4c2.2,1.5,1.5,3.4,1.4,5.1c-0.3,3.2-0.7,6.3-1,9.5c-0.1,0.7,0.1,1.3,0.2,1.9c2.1,0.9,4,1.7,6,2.6
			c3.3-4,6.5-7.8,9.6-11.6c0.9,0,1.7,0,2.6,0c-3.3,4.5-6.4,8.9-9.7,13.3c0.9,0.6,1.5,1.1,2.3,1.7c3.7-5.2,7.3-10.2,10.9-15.3
			c2.6-0.3,5.2-0.7,7.9-1c-0.3,2.8-0.5,5.2-0.7,7.7c-4.9,4.1-10.6,7.1-15.6,11.5c0.7,0.7,1.2,1.3,1.8,2c4.6-3.4,8.9-6.5,13.3-9.7
			c0.5,1.8-0.2,3-1.5,4c-1.7,1.3-3.3,2.6-4.9,3.9c-1.8,1.5-3.5,3-5.2,4.4c0.9,2.1,1.7,4,2.7,6.2c4.1-0.4,8.2-0.6,12.2-1.2
			c1.8-0.2,3.3-0.2,4.6,1.5c-5.5,0.9-10.8,1.8-16.4,2.7C141.5,94.9,141.6,95.6,141.8,96.5z M150.1,157.2
			c-19.9-15.1-55.8-13.9-73.2,0c0.4,9.9,7.7,21.9,14.9,25.6c1.1-0.8,1.8-1.8,2-3.2c0.7-3.9,3.1-4.9,6.8-2.9
			c-0.9,0.2-1.7,0.3-2.4,0.8c-0.5,0.3-1.1,1-1.2,1.6c0,1.9,1,3.2,2.6,4.1c1.4,0.8,2.6,0.5,3.9-0.4c1.4-1,1.6-2.4,2-3.9
			c0.9-3.3,3.7-4.2,6.4-2.2c-1,0.4-2.1,0.8-3,1.1c-0.1,0.6-0.3,0.9-0.3,1.2c0.1,2.3,1.8,4.3,3.9,4.6c1.9,0.2,3.6-1.1,4.3-3.4
			c0.2-0.6,0.2-1.2,0.4-1.8c0.3-1.2,1.1-2.2,2.4-2.5c1.4-0.3,2.9-0.5,4.2,1c-0.8,0.1-1.3,0.1-1.7,0.2c-1.7,0.6-2.3,1.9-1.7,3.6
			c0.6,1.6,2.5,3,4.1,3c1.7,0,3.2-1,3.8-2.9c0.3-0.7,0.3-1.6,0.5-2.3c0.4-1.4,1.3-2.3,2.7-2.6c1.3-0.2,2.7-0.4,3.9,1.1
			c-1.8,0.1-3.5,0.4-3.6,2.3c-0.1,2.1,1.2,3.5,3.3,4.2C143.6,176.9,148.6,168.2,150.1,157.2z M38.6,127.4
			c15.1-9.8,31.4-16.1,48.9-19.5c17.4-3.3,34.7-3.4,52.1-0.3c17.4,3.2,33.7,9.4,48.9,19c0.2-1.3,0.3-2.2,0.4-3
			c-46.8-30.6-112-26.3-151.1,1.2C38,125.6,38.3,126.4,38.6,127.4z M40.2,135.3c22.7-14.2,47.1-21,73.2-21.1
			c26.1-0.1,50.6,6.5,73.2,20.2c0.3-1,0.6-1.8,0.9-2.6c-41.7-27-104.4-27.9-148.1,0.7C39.6,133.3,39.8,134.1,40.2,135.3z
			 M184.9,140.1c-0.4-0.3-0.7-0.6-1.1-0.8c-7.9-4.3-16-8.2-24.6-11.1c-12.1-4.2-24.6-6.9-37.4-7.8c-7.1-0.5-14.2-0.3-21.3,0.4
			c-9.2,1-18.3,2.9-27.2,5.8c-10.7,3.4-20.9,8-30.6,13.6c-0.3,0.2-0.7,0.4-1,0.6c0.5,1.2,0.9,1.9,1.3,2.7
			c46.9-26.8,93.7-27,140.8-0.7C184.2,141.7,184.6,140.9,184.9,140.1z M181.5,148.2c-0.5-0.3-0.7-0.6-0.9-0.7
			c-7.5-4-15.2-7.5-23.2-10.4c-11.5-4.2-23.3-7-35.6-7.9c-10-0.7-20-0.1-29.8,1.9c-8.2,1.7-16.3,4-24.1,7.1
			c-7.3,2.8-14.4,6.1-21.2,9.8c-0.4,0.2-0.8,0.6-1.3,1c0.6,0.8,1.1,1.5,1.5,2.2c11.2-6.1,22.7-11,34.7-14.5
			c15.3-4.4,30.8-5.9,46.6-3.8c12.4,1.6,24.2,5.1,35.6,10c5.5,2.4,10.9,5,16.4,7.5C180.6,149.7,180.9,149,181.5,148.2z M79.4,20.8
			c-0.2,0.1-0.4,0.3-0.6,0.4c-0.1,1-0.2,2.1-0.3,2.9c-0.8,0.5-1.4,0.9-2.3,1.4c1.2,0.5,1.9,0.9,2.8,1.2c0.2,0.9,0.3,1.9,0.6,3.2
			c0.8-1,1.3-1.7,1.8-2.4c1.1,0,2.1,0,3.2,0c-0.7-1-1.2-1.7-1.6-2.3c0.4-1,0.7-1.8,1.2-3c-1.2,0.3-2,0.6-3.5,1
			C80.3,22.6,79.8,21.7,79.4,20.8z M109.1,14.1c-0.5,1.3-0.7,2.1-1,2.8c-1.1,0.3-2,0.6-3.1,1c1,0.8,1.7,1.4,2.4,2
			c-0.1,0.5-0.3,0.8-0.3,1.2c-0.1,0.4-0.1,0.9-0.2,1.8c1.1-0.7,1.9-1.2,2.7-1.7c0.8,0.4,1.5,0.8,2.2,1.1c0.1,0,0.3-0.1,0.5-0.3
			c-0.2-0.8-0.4-1.7-0.6-2.4c0.6-0.8,1.1-1.4,1.7-2.2c-1.1-0.2-2-0.3-2.7-0.4C110.1,16.1,109.7,15.3,109.1,14.1z M144.8,21.9
			c0.5,1.3,0.9,2.1,1.1,2.7c-0.5,0.9-0.9,1.7-1.4,2.7c1.2-0.2,2.1-0.3,2.9-0.5c0.7,0.8,1.3,1.5,2.2,2.6c0.2-1.5,0.2-2.4,0.3-3.3
			c0.8-0.4,1.6-0.8,2.7-1.3c-1-0.6-1.7-1.1-2.5-1.5c-0.1-0.9-0.2-1.9-0.4-3.1c-0.9,0.9-1.5,1.6-2.1,2.2
			C146.9,22.3,146.1,22.2,144.8,21.9z M59.5,194.5c0,1,0,1.9,0,3.1c1-0.5,1.7-1,2.5-1.4c0.6,0.4,1.2,0.7,1.8,1c0.2,0.1,0.5,0,0.9,0
			c-0.3-1-0.6-1.8-0.9-2.5c0.7-0.8,1.3-1.5,2.1-2.5c-1.3-0.1-2.3-0.1-3.1-0.2c-0.4-0.9-0.7-1.5-1.1-2.6c-0.6,1.1-1.1,1.8-1.5,2.5
			c-0.9,0.3-1.7,0.6-2.8,1C58.3,193.5,58.9,194,59.5,194.5z M175.4,192c-0.2-1.2-0.3-2.1-0.4-3c0.5-0.6,1.1-1.2,1.8-2.1
			c-1.3-0.2-2.1-0.3-2.9-0.4c-0.4-0.9-0.8-1.7-1.3-2.7c-0.5,1.1-1,2-1.4,2.8c-1,0.1-1.9,0.3-3.2,0.4c1,0.9,1.7,1.5,2.4,2.2
			c-0.1,1-0.2,1.9-0.4,3.2c1.1-0.8,1.8-1.3,2.6-1.8C173.5,190.9,174.3,191.4,175.4,192z M52.6,185.9c-1,0.2-1.9,0.4-3.1,0.6
			c0.8,1,1.4,1.6,1.9,2.3c-0.1,0.9-0.3,1.7-0.4,2.9c1.1-0.6,1.9-1,2.5-1.3c0.9,0.4,1.7,0.8,2.8,1.3c-0.2-1.2-0.3-2-0.5-2.8
			c0.8-0.6,1.5-1.2,2.5-2c-1.3-0.2-2.3-0.4-3.2-0.5c-0.3-0.9-0.6-1.7-1-3C53.5,184.5,53,185.2,52.6,185.9z M203.6,126.5
			c0.5,1.3,0.9,2.2,1.2,3c-0.6,0.8-1.1,1.6-1.7,2.6c1.3,0,2.1,0,3,0c0.5,0.8,1,1.5,1.7,2.4c0.4-1.2,0.7-2,1-2.8
			c0.9-0.3,1.7-0.5,2.8-0.9c-1-0.8-1.7-1.4-2.4-1.9c-0.1-1-0.2-1.8-0.3-3c-0.9,0.7-1.6,1.2-2.2,1.8
			C205.7,127.4,204.9,127,203.6,126.5z M209.9,121.6c0.8-0.4,1.6-0.9,2.6-1.4c-1-0.6-1.6-1-2.1-1.3c-0.2-1.1-0.4-2-0.7-3.3
			c-0.9,1-1.5,1.6-2,2.2c-1-0.2-1.9-0.4-3.2-0.7c0.6,1.2,1,2,1.4,2.7c-0.6,0.9-1.1,1.7-1.8,2.7c1.4-0.1,2.3-0.2,3.2-0.3
			c0.6,0.7,1.1,1.2,1.9,2C209.5,123.2,209.7,122.4,209.9,121.6z M165.4,34c-0.5,0.5-1.3,1.3-2.2,2.2c1.4,0.2,2.3,0.3,3.4,0.4
			c0.1,0.4,0.2,0.7,0.4,1.1c0.2,0.4,0.4,0.8,0.8,1.4c0.6-1.2,1.1-2,1.5-2.8c0.9-0.2,1.6-0.4,2.5-0.6c-0.7-0.8-1.3-1.5-1.8-2.1
			c0.1-0.9,0.2-1.6,0.3-2.7c-1.1,0.5-1.9,0.9-2.7,1.3c-0.8-0.4-1.5-0.7-2.5-1.1C165.2,32.2,165.3,33,165.4,34z M160.3,192.3
			c0.9,1,1.5,1.7,2.2,2.4c-0.1,0.9-0.3,1.7-0.4,2.8c1.1-0.5,1.9-0.8,2.6-1.1c0.8,0.6,1.5,1.1,2.6,1.8c-0.1-1.4-0.2-2.4-0.3-3.2
			c0.6-0.7,1.2-1.3,1.9-2.1c-1.2-0.2-2-0.4-2.7-0.5c-0.5-1-0.8-1.7-1.3-2.8c-0.6,1.1-1,1.8-1.3,2.5
			C162.4,192.1,161.5,192.2,160.3,192.3z M35.7,161.8c-1,0.8-1.8,1.4-2.5,2c-0.8-0.1-1.7-0.3-2.8-0.4c0.5,1.2,0.9,2.1,1.2,2.8
			c-0.6,0.9-1,1.6-1.7,2.6c1.4-0.3,2.2-0.5,3.1-0.7c0.7,0.8,1.3,1.5,2.1,2.4c0.2-1.2,0.3-2.1,0.4-2.8c1-0.5,1.8-0.9,3-1.4
			c-1.3-0.6-2.1-1-3.1-1.5c0.1-0.5,0.2-0.8,0.2-1.2C35.8,163.1,35.7,162.7,35.7,161.8z M17.5,125.4c0.1,1.2,0.2,2.2,0.3,3.2
			c-0.6,0.4-1.3,0.7-1.8,1.1c-0.2,0.1-0.3,0.5-0.4,0.8c0.9,0.3,1.8,0.5,2.5,0.7c0.3,1,0.6,1.7,1,2.9c0.7-1.1,1.2-1.8,1.7-2.5
			c1-0.1,2-0.2,3.1-0.3c-0.7-0.9-1.2-1.6-1.8-2.3c0.2-0.7,0.5-1.4,0.7-2c0.1-0.2-0.2-0.5-0.3-0.8c-0.9,0.3-1.7,0.7-2.6,1
			C19.1,126.7,18.5,126.1,17.5,125.4z M16.9,108.2c-0.7,0.4-1.5,0.8-2.5,1.4c0.9,0.6,1.6,1.1,2.2,1.5c0.1,1,0.3,1.8,0.4,2.9
			c1-0.9,1.7-1.6,2.3-2.2c0.9,0.3,1.7,0.6,3.1,1c-0.6-1.3-1-2-1.4-2.7c0.4-1,0.8-1.9,1.4-3.1c-1.3,0.3-2.1,0.5-3,0.7
			c-0.6-0.7-1.1-1.3-1.9-2.2C17.2,106.6,17.1,107.3,16.9,108.2z M20.6,97.9c-0.5-0.7-1-1.4-1.8-2.3c-0.4,1.2-0.6,2.1-0.8,2.8
			c-1,0.2-1.9,0.5-3.2,0.8c1.2,0.8,2.1,1.3,2.8,1.7c0,1,0,1.8,0,3c1-0.8,1.7-1.3,2.4-1.8c0.8,0.3,1.6,0.6,2.9,1.1
			c-0.5-1.3-0.8-2.2-1-2.9c0.6-0.8,1-1.5,1.7-2.6C22.3,97.9,21.5,97.9,20.6,97.9z M192.6,52.3c-1.2,0.2-2.2,0.3-3,0.5
			c-0.7-0.6-1.3-1.1-2.1-1.8c-0.2,1.1-0.3,1.9-0.4,2.8c-0.9,0.4-1.8,0.8-3,1.4c1.3,0.5,2.2,0.8,3,1.2c0.2,1.1,0.4,2,0.7,3.3
			c0.9-1.1,1.4-1.9,1.9-2.5c1,0.2,1.9,0.3,3,0.5c-0.6-1.1-1.1-1.8-1.5-2.6C191.7,54.1,192.1,53.3,192.6,52.3z M30.1,71.9
			c0.8-0.5,1.4-1,2.4-1.7c-1.2-0.4-2-0.7-2.8-1c-0.3-0.9-0.6-1.7-1-2.9c-0.7,1.1-1.2,1.8-1.7,2.5c-1-0.1-1.9-0.2-3.3-0.3
			c0.8,1.1,1.4,1.9,2,2.7c-0.3,0.8-0.6,1.6-1,2.7c1.2-0.3,2-0.5,3-0.8c0.7,0.5,1.4,1.1,2.2,1.8C29.9,73.8,30,72.9,30.1,71.9z
			 M171,41.7c1.1,0.3,1.9,0.5,2.7,0.7c0.4,0.8,0.7,1.5,1.1,2.2c0.1,0.1,0.3,0.1,0.6,0.2c0.3-0.7,0.7-1.3,1-2.1
			c0.8-0.1,1.6-0.1,2.4-0.2c0.1,0,0.2-0.3,0.3-0.4c-0.5-0.7-1.1-1.4-1.5-2c0.2-1,0.4-1.8,0.6-2.9c-1.1,0.5-1.9,0.8-2.7,1.2
			c-0.8-0.4-1.5-0.9-2.6-1.4c0.2,1.2,0.3,2,0.4,2.9C172.7,40.4,172,40.9,171,41.7z M23.7,90.9c0.6-0.9,1.9-1.1,1.9-2.6
			c-1,0.1-1.9,0.1-2.7,0.2c-0.5-0.9-1-1.8-1.5-2.8c-0.5,1.1-0.9,2-1.2,2.7c-1,0.3-1.8,0.4-3.1,0.7c1.1,0.8,1.8,1.3,2.4,1.8
			c-0.1,1-0.2,1.9-0.4,3.2c1-0.8,1.7-1.3,2.4-1.7c1,0.4,1.8,0.7,3.1,1.2C24.2,92.5,23.9,91.7,23.7,90.9z M35.8,171.4
			c0.8,1.3,1.3,2,1.8,2.8c-0.5,0.9-0.9,1.7-1.5,2.9c1.2-0.3,2.1-0.5,2.9-0.7c0.7,0.6,1.4,1.1,2.2,1.8c0.1-1.1,0.2-2,0.3-2.8
			c0.9-0.5,1.7-1,2.8-1.6c-1.1-0.5-1.9-0.8-2.7-1.1c-0.2-1-0.5-1.9-0.8-3.2c-0.8,1.2-1.4,1.9-1.9,2.6C38,172,37.3,171.8,35.8,171.4z
			 M212.8,110.1c-1.3-0.6-2.1-1-2.9-1.5c-0.2-0.8-0.3-1.6-0.5-2.5c-0.8,0.7-1.5,1.3-2.1,1.8c-0.9,0-1.8-0.1-2.9-0.1
			c0.6,1.1,1,1.8,1.4,2.5c-0.3,0.8-0.6,1.6-1,2.6c1.2-0.2,1.9-0.3,2.7-0.5c0.7,0.5,1.3,1,2.3,1.7c0.2-1.2,0.4-2,0.5-2.8
			C211,111.1,211.7,110.7,212.8,110.1z M27,147.7c0.1-1.1,0.2-2,0.3-3.1c-1.1,0.7-1.9,1.3-2.6,1.7c-0.9-0.4-1.5-0.8-2.6-1.3
			c0.2,1.2,0.4,2,0.5,2.8c-0.6,0.8-1.2,1.6-2,2.6c1.3,0,2.1,0,3,0c0.4,0.8,0.9,1.7,1.5,3c0.4-1.4,0.7-2.3,0.9-3.1
			c1.1-0.2,2-0.3,3.3-0.5C28.5,148.9,27.8,148.4,27,147.7z M19.2,117.5c-0.6-0.6-1.3-1.2-2.2-2c-0.2,1.3-0.4,2.2-0.5,3.1
			c-0.8,0.5-1.5,0.9-2.5,1.5c1.3,0.4,2.1,0.7,2.9,0.9c0.2,1,0.4,1.9,0.6,3.1c0.8-1,1.3-1.7,1.9-2.3c0.9,0.1,1.8,0.2,2.9,0.4
			c-0.5-1.1-0.9-1.9-1.3-2.7c0.3-0.7,0.6-1.5,1.1-2.6C20.9,117.1,20.1,117.3,19.2,117.5z M19.7,138.3c-0.7,0.6-1.4,1.2-2.3,1.9
			c1.2,0.3,2.1,0.6,3,0.8c0.4,0.9,0.7,1.6,1.1,2.7c0.7-1.1,1.1-1.8,1.5-2.5c0.9-0.2,1.8-0.3,2.6-0.4c0.1-0.2,0.3-0.4,0.4-0.6
			c-0.8-0.4-1.7-0.7-2.3-1c0.4-1.3,0.6-1.9,0.8-2.6c0-0.2-0.2-0.5-0.2-0.8c-0.9,0.4-1.7,0.7-2.4,1c-0.9-0.4-1.6-0.8-2.6-1.3
			C19.4,136.6,19.6,137.4,19.7,138.3z M88.8,17.7c-0.4,1.4-0.6,2.2-0.7,2.8c-0.9,0.6-1.5,1-2.4,1.6c1,0.5,1.7,0.8,2.5,1.2
			c0.1,0.8,0.1,1.6,0.2,2.4c0,0.1,0.3,0.2,0.5,0.3c0.6-0.5,1.2-1,1.8-1.6c1,0.2,1.9,0.3,3.1,0.5c-0.6-1.1-1-1.9-1.4-2.7
			c0.5-0.9,0.9-1.6,1.5-2.7c-1.2,0.2-2,0.3-2.9,0.5C90.2,19.4,89.6,18.7,88.8,17.7z M119.1,21.1c0.9,0.5,1.7,0.9,2.8,1.5
			c-0.3-1.2-0.4-2.1-0.6-2.8c0.7-0.7,1.2-1.3,2-2.1c-1.1-0.3-1.8-0.5-2.5-0.7c-0.5-0.8-0.9-1.5-1.5-2.4c-0.6,1.1-1,1.8-1.4,2.5
			c-0.9,0.1-1.7,0.1-2.9,0.2c0.9,1,1.4,1.6,1.9,2.2c-0.2,1-0.3,1.9-0.5,3.1C117.6,22,118.3,21.5,119.1,21.1z M102.3,23.2
			c0.1-0.1,0.3-0.3,0.4-0.4c-0.3-0.8-0.7-1.6-1-2.3c0.7-0.8,1.3-1.5,2.1-2.6c-1.3,0-2.3,0-3.3,0c-0.4-0.7-0.8-1.3-1.2-1.8
			c-0.1-0.2-0.5-0.2-0.8-0.3c-0.1,0.9-0.3,1.7-0.4,2.4c-0.9,0.4-1.8,0.8-2.8,1.3c1,0.7,1.7,1.2,2.3,1.6c0,1,0,1.8,0,3
			c1-0.8,1.7-1.4,2.4-2C100.9,22.6,101.6,22.9,102.3,23.2z M135.2,24.6c1.3-0.3,2.2-0.4,3-0.6c0.7,0.6,1.3,1.1,2.1,1.8
			c0.1-1.1,0.2-1.9,0.3-2.7c0.8-0.5,1.5-1,2.5-1.7c-1.1-0.4-1.8-0.7-2.5-0.9c-0.2-0.8-0.3-1.6-0.5-2.4c-0.1-0.2-0.4-0.4-0.6-0.5
			c-0.6,0.7-1.2,1.4-1.7,2.1c-0.9-0.1-1.8-0.2-3.1-0.4c0.8,1.2,1.3,2,1.8,2.7C136.2,22.8,135.8,23.5,135.2,24.6z M207,136.1
			c-0.9,0.5-1.5,0.9-2.2,1.2c-0.9-0.4-1.8-0.7-3.1-1.2c0.4,1.3,0.7,2.1,1,3c-0.6,0.5-1.2,1-1.8,1.6c-0.1,0.1,0.1,0.3,0.1,0.7
			c0.8,0,1.6,0,2.5,0c0.5,0.9,1,1.7,1.6,2.7c0.5-1.1,0.8-1.9,1.1-2.7c0.9-0.2,1.7-0.4,2.9-0.6c-0.8-0.8-1.4-1.3-1.9-1.8
			C207.2,138,207.1,137.1,207,136.1z M39.1,55.4c0.7,0.7,1.3,1.4,2.2,2.3c0.2-1.3,0.3-2,0.4-2.9c0.8-0.3,1.5-0.6,2.2-0.9
			c0.1,0,0.1-0.3,0.2-0.5c-0.6-0.4-1.3-0.8-2-1.3c-0.1-0.9-0.2-1.8-0.3-2.9c-1,0.7-1.7,1.3-2.4,1.8c-1-0.2-1.8-0.4-3-0.6
			c0.6,1.1,1,1.9,1.4,2.7c-0.5,0.8-0.9,1.5-1.5,2.6C37.4,55.5,38.2,55.4,39.1,55.4z M205.1,92.8c0.9,0.7,1.6,1.2,2.6,1.9
			c-0.2-1.4-0.3-2.4-0.4-3.3c0.8-0.6,1.4-1,2.5-1.8c-1.3-0.3-2.2-0.5-2.9-0.6c-0.5-0.9-0.9-1.7-1.5-2.8c-0.6,1.2-0.9,2-1.3,2.9
			c-1,0-2-0.8-2.9,0.3c0.7,0.6,1.4,1.3,2.1,1.9c-0.3,0.8-0.6,1.4-0.8,2c-0.1,0.2,0.2,0.5,0.3,0.8C203.6,93.7,204.3,93.3,205.1,92.8z
			 M20.8,83.1c1.2-0.4,2.2-0.7,3.1-1c0.8,0.6,1.5,1,2.6,1.8c-0.2-1.4-0.4-2.3-0.6-3.3c0.8-0.6,1.4-1.1,2.5-1.9
			c-1.2-0.2-2.1-0.4-2.9-0.6c-0.4-0.9-0.8-1.7-1.3-2.9c-0.6,1.1-1,1.8-1.3,2.5c-1,0.1-1.8,0.2-3,0.4c0.8,0.9,1.3,1.6,1.9,2.2
			C21.3,81.2,21.1,82,20.8,83.1z M203.6,83c0.8,0.3,1.6,0.7,2.9,1.2c-0.5-1.2-0.8-2-1.1-2.8c0.6-0.8,1.2-1.5,2-2.6
			c-1.4,0.1-2.3,0.1-3.1,0.1c-0.5-0.8-1-1.5-1.6-2.3c-0.5,1.1-0.8,2-1.1,2.8c-0.8,0.1-1.5,0.3-2.3,0.4c-0.1,0-0.1,0.3-0.3,0.5
			c0.7,0.5,1.4,1,2.1,1.5c-0.1,0.9-0.1,1.8-0.2,2.9C202,84.1,202.8,83.6,203.6,83z M60,29.9c0.2,1.4,0.3,2.4,0.4,3.4
			c-0.7,0.6-1.4,1.2-2.2,1.9c1.2,0.2,2,0.4,2.9,0.5c0.4,0.9,0.7,1.7,1.1,2.8c0.6-0.9,1.1-1.6,1.6-2.3c0.9-0.1,1.7-0.2,2.8-0.3
			c-0.7-0.9-1.3-1.6-1.9-2.3c0.2-0.7,0.4-1.3,0.5-2c0-0.2-0.1-0.5-0.2-0.7c-0.9,0.4-1.7,0.7-2.6,1C61.7,31.2,61,30.7,60,29.9z
			 M183.4,185.1c-0.6-1.5-0.9-2.3-1.2-2.9c0.6-0.8,1.1-1.5,1.8-2.5c-1.2,0-2,0-2.8,0c-0.6-0.8-1.2-1.4-1.9-2.3
			c-0.3,1.2-0.6,2-0.8,2.8c-0.9,0.3-1.7,0.6-2.8,1c1.1,0.8,1.8,1.3,2.5,1.8c-0.1,0.9-0.2,1.7-0.3,2.9c1.1-0.8,1.9-1.4,2.5-1.8
			C181.3,184.3,182,184.6,183.4,185.1z M42.5,179.6c0.7,0.9,1.2,1.6,1.6,2.2c-0.3,1-0.7,1.8-1.1,3.1c1.2-0.5,2-0.8,2.9-1.2
			c0.8,0.5,1.5,1.1,2.6,1.8c-0.2-1.3-0.3-2.1-0.4-3c0.9-0.6,1.7-1.1,2.8-1.8c-1.2-0.4-2-0.7-3-1c-0.2-0.7-0.5-1.4-0.7-2.1
			c0-0.1-0.3-0.1-0.5-0.2c-0.5,0.7-1,1.4-1.5,2C44.4,179.4,43.6,179.5,42.5,179.6z M209.4,104.8c-0.1-1.5-0.1-2.4-0.2-3.3
			c0.9-0.6,1.6-1.1,2.6-1.7c-1.2-0.4-2.1-0.8-3.1-1.1c-0.2-0.8-0.4-1.6-0.6-2.8c-0.8,1.1-1.3,1.8-1.7,2.3c-1.1,0.1-1.9,0.3-3,0.4
			c0.7,0.9,1.2,1.6,1.6,2.2c-0.4,0.9-0.7,1.7-1.1,2.9c1.4-0.5,2.2-0.8,3.2-1.2C207.7,103.1,208.3,103.7,209.4,104.8z M196.9,63.4
			c0.5-1,0.9-1.7,1.3-2.6c-1.2,0.1-2,0.1-2.8,0.2c-0.7-0.8-1.2-1.4-1.9-2.2c-0.2,1.2-0.4,2-0.5,2.9c-0.8,0.3-1.4,0.4-2.1,0.7
			c-0.2,0.1-0.3,0.4-0.6,0.7c0.8,0.5,1.6,0.9,2.3,1.3c0.1,0.9,0.2,1.7,0.3,2.8c0.9-0.7,1.5-1.2,2.2-1.7c0.7,0.2,1.4,0.4,2.1,0.5
			c0.2,0,0.5-0.2,0.8-0.3C197.5,64.9,197.2,64.2,196.9,63.4z M128.6,22.1c0.8,0.5,1.7,1,2.7,1.7c-0.1-1-0.2-1.9-0.2-2.7
			c0.8-0.7,1.5-1.3,2.5-2.1c-1.2-0.4-2-0.6-2.8-0.8c-0.3-0.9-0.6-1.7-1-2.9c-0.7,1.1-1.2,1.8-1.6,2.5c-0.9,0.1-1.7,0.3-2.8,0.4
			c0.7,0.8,1.2,1.5,1.6,2c-0.3,0.9-0.6,1.6-0.8,2.4c0,0.1,0.1,0.3,0.3,0.6C127.1,22.7,127.9,22.4,128.6,22.1z M28.4,155.4
			c-0.8-0.3-1.6-0.6-2.8-1.1c0.5,1.3,0.9,2.2,1.2,3c-0.6,0.8-1,1.4-1.7,2.3c1.2,0.1,2.1,0.1,2.8,0.1c0.6,0.8,1.1,1.4,1.8,2.2
			c0.4-1,0.7-1.9,1-2.7c0.9-0.4,1.7-0.7,2.7-1.1c-1-0.6-1.8-1.1-2.5-1.5c0.1-1,0.1-1.8,0.2-3C30,154.3,29.2,154.8,28.4,155.4z
			 M197.1,150.3c1.5,0.3,2.3,0.4,3.1,0.5c0.4,0.8,0.8,1.5,1.3,2.3c0.6-0.9,1.1-1.6,1.5-2.3c0.9-0.1,1.8-0.3,3.1-0.4
			c-0.9-0.9-1.6-1.4-2.2-2c0.2-0.8,0.4-1.6,0.8-2.9c-1.2,0.5-2,0.9-2.8,1.2c-0.7-0.4-1.5-0.9-2.6-1.5c0.2,1.3,0.3,2.1,0.4,3
			C199,148.8,198.3,149.3,197.1,150.3z M70.4,33.7c0.8-1.1,1.4-1.8,1.8-2.4c1,0.1,1.8,0.1,3.1,0.2c-0.9-1.2-1.5-1.9-2-2.6
			c0.3-0.9,0.6-1.7,1-2.8c-1.2,0.5-2,0.8-2.8,1.1c-0.8-0.7-1.6-1.3-2.5-2.1c0,1.3,0,2.2,0,2.9c-0.7,0.7-1.3,1.2-2.2,2
			c1.2,0.4,2,0.6,2.9,0.9C69.9,31.8,70.1,32.5,70.4,33.7z M196.3,163.8c-1.2,0.2-2.1,0.3-3.1,0.5c-0.7-0.5-1.3-1-2.2-1.6
			c-0.1,1.1-0.1,1.9-0.2,2.5c-0.8,0.5-1.5,0.9-2.5,1.5c1.1,0.5,1.7,0.9,2.4,1.2c0.3,0.8,0.5,1.6,0.9,2.7c0.8-0.8,1.4-1.4,1.9-2
			c0.6,0.1,0.9,0.1,1.3,0.2c0.4,0.1,0.9,0.2,1.8,0.4c-0.8-1.2-1.3-2-1.8-2.8C195.3,165.6,195.7,164.8,196.3,163.8z M190.5,171.9
			c-1.3,0.3-2.2,0.5-3,0.6c-0.6-0.7-1.1-1.3-1.8-2.1c-0.3,1.1-0.5,1.9-0.8,2.7c-0.5,0.1-0.9,0.2-1.3,0.3c-0.4,0.2-0.8,0.4-1.4,0.7
			c1.1,0.6,1.8,1.1,2.5,1.4c0.1,1.1,0.2,2,0.4,3.3c0.9-1,1.5-1.6,2.1-2.2c1,0.2,2,0.4,3.2,0.7c-0.6-1.1-0.9-1.9-1.4-2.7
			C189.5,173.8,189.9,173,190.5,171.9z M183.5,49.4c1.1,0.1,2,0.2,3.3,0.3c-0.8-1.1-1.4-1.8-1.8-2.4c0.3-1,0.5-1.8,0.8-3
			c-1.2,0.4-1.9,0.7-2.5,0.9c-0.9-0.6-1.5-1-2.4-1.6c-0.1,1.2-0.1,1.9-0.1,2.6c-0.9,0.6-1.6,1.1-2.6,1.8c1.2,0.4,2.1,0.7,2.8,1
			c0.3,1,0.6,1.7,1,2.8C182.6,50.8,183.1,50,183.5,49.4z M50.3,41.2c1.1,0.1,2,0.2,2.7,0.3c0.6,0.9,1,1.5,1.7,2.5
			c0.4-1.1,0.7-1.8,0.9-2.5c0.9-0.2,1.7-0.4,2.6-0.6c0.1-0.2,0.2-0.4,0.3-0.6c-0.8-0.4-1.5-0.9-2.1-1.2c0.2-1.3,0.3-2.2,0.4-3.3
			c-1.1,0.6-1.8,1.1-2.5,1.5c-0.9-0.4-1.7-0.8-2.9-1.4c0.3,1.3,0.6,2.2,0.8,3C51.6,39.7,51,40.3,50.3,41.2z M32.3,64.5
			c0.7,0.6,1.4,1.3,2.3,2.1c0.2-1.2,0.3-2.1,0.5-3c0.8-0.4,1.5-0.8,2.5-1.3c-1.1-0.5-1.8-0.8-2.4-1.1c-0.3-1-0.6-1.9-0.9-3
			c-0.8,0.9-1.3,1.5-1.8,2.1c-1-0.1-1.8-0.2-3-0.3c0.6,1.1,1.1,1.8,1.5,2.5c-0.4,0.8-0.7,1.6-1.3,2.8C30.8,64.9,31.5,64.7,32.3,64.5
			z M155.2,196.7c-1,0.1-1.8,0.2-2.9,0.4c0.6,1,1,1.7,1.4,2.3c-0.2,1-0.4,1.8-0.6,2.8c1-0.4,1.8-0.7,2.5-1c0.8,0.6,1.5,1.2,2.6,2
			c-0.1-1.3-0.1-2.3-0.2-3.1c0.8-0.6,1.4-1.1,2.2-1.8c-1.1-0.4-1.9-0.7-2.6-1c-0.3-0.8-0.5-1.5-0.9-2.6
			C156.1,195.6,155.7,196.1,155.2,196.7z M200.8,154.9c-1.3,0.4-2.1,0.7-2.8,0.9c-0.9-0.6-1.5-1.1-2.4-1.8c0,1.2,0,2,0,3
			c-0.3,0.2-0.6,0.5-1,0.6c-0.4,0.2-0.8,0.4-1.7,0.9c1.4,0.5,2.2,0.8,3,1c0.3,1,0.6,1.7,1,2.7c0.8-1,1.5-1.7,2-2.4
			c0.9,0.2,1.7,0.3,2.9,0.5c-0.8-1.2-1.4-1.9-1.9-2.6C200.2,156.8,200.4,156.1,200.8,154.9z M157.2,30.7c0.6,0.8,1,1.5,1.6,2.3
			c0.5-1.1,0.8-1.9,1.2-2.7c0.9-0.2,1.7-0.4,2.9-0.7c-1-0.8-1.7-1.3-2.2-1.7c-0.2-1.1-0.3-1.9-0.4-3c-0.9,0.6-1.5,1-2.2,1.5
			c-0.9-0.2-1.7-0.4-2.8-0.7c0.4,1.1,0.7,1.8,1,2.6c-0.5,0.7-1,1.4-1.7,2.3C155.5,30.6,156.3,30.6,157.2,30.7z M68.2,199.7
			c0.1,1,0.2,2,0.3,3.1c0.9-0.7,1.6-1.2,2.2-1.6c0.9,0.2,1.6,0.4,2.6,0.6c-0.3-1.1-0.5-1.8-0.6-2.4c0.5-0.8,0.8-1.4,1.3-2.3
			c-1.1-0.1-2-0.2-2.7-0.3c-0.5-0.7-1-1.4-1.7-2.4c-0.4,1.3-0.7,2.1-0.9,2.8c-0.9,0.3-1.7,0.6-2.8,1
			C66.9,198.9,67.6,199.3,68.2,199.7z M45.8,48.1c0.5,0.8,0.9,1.4,1.5,2.4c0.5-1.2,0.8-2,1.2-2.8c0.9-0.3,1.7-0.5,2.9-0.8
			c-1.1-0.8-1.9-1.4-2.5-1.8c0.1-1,0.1-1.7,0.2-2.8c-1.1,0.8-1.8,1.3-2.4,1.7c-0.9-0.4-1.7-0.8-2.9-1.3c0.3,1.4,0.6,2.3,0.8,3.2
			c-0.4,0.7-0.8,1.2-1.3,2C44.1,47.9,44.8,48,45.8,48.1z M200.4,70c-0.6-0.9-1.1-1.6-1.8-2.6c-0.4,1.3-0.7,2.1-0.9,2.9
			c-0.9,0.2-1.6,0.5-2.7,0.8c1,0.8,1.6,1.4,2.2,1.9c-0.1,0.9-0.1,1.7-0.2,3c1.2-0.9,1.9-1.4,2.5-1.9c0.8,0.3,1.6,0.6,2.8,1
			c-0.4-1.2-0.6-2-0.9-2.9c0.5-0.6,1-1.2,1.5-1.8c0.1-0.1-0.1-0.3-0.1-0.6C202,69.9,201.3,70,200.4,70z"/>
		<path d="M132.4,162c0.6-1.8,1.2-3.4,1.8-5.2c0.6,1.7,1.1,3.3,1.7,5c0.7,0.1,1.5,0.2,2.3,0.2c0.8,0,1.6,0,2.9,0
			c-1.5,1.1-2.5,2-3.8,2.9c0.4,1.5,0.7,3,1.1,4.9c-1.5-0.9-2.8-1.7-4.2-2.6c-1.2,0.8-2.3,1.6-3.7,2.5c0.2-1.7,0.4-3.2,0.6-4.9
			c-1.2-0.8-2.3-1.6-3.8-2.7c1-0.1,1.7-0.2,2.4-0.2C130.5,162,131.3,162,132.4,162z"/>
		<path d="M89.6,165c-1.3-1-2.4-1.8-3.9-2.8c1.9-0.1,3.3-0.2,5.1-0.3c0.6-1.6,1.2-3.3,1.9-5.2c0.6,1.9,1.1,3.6,1.7,5.3
			c1.7,0,3.3,0,5.3,0c-1.6,1.2-2.9,2.2-4.1,3.1c0.4,1.5,0.8,2.9,1.3,4.8c-1.7-1.1-2.8-1.8-4.1-2.6c-1.2,0.8-2.4,1.5-3.9,2.5
			C89.1,168,89.3,166.6,89.6,165z"/>
		<path d="M111.8,157.6c0.5-1.8,0.9-3.3,1.5-5.4c0.7,2,1.2,3.6,1.9,5.3c1.5,0.1,3,0.2,4.8,0.3c-1.3,1.1-2.4,1.9-3.5,2.9
			c0.4,1.4,0.8,2.9,1.3,4.7c-1.6-1-2.9-1.8-4.3-2.7c-1.1,0.8-2,1.5-3.6,2.7c0.3-1.8,0.5-3,0.8-4.5c-1-0.9-2.2-1.9-3.6-3.1
			C108.6,157.8,110.1,157.8,111.8,157.6z"/>
	</g>
</g>
</svg>
