<!-- Generated by IcoMoon.io -->
<svg version="1.1" xmlns="http://www.w3.org/2000/svg" width="32" height="32" viewBox="0 0 32 32">
<title>NOTE</title>
<path d="M15.004 0h-12.387v30.274c0 0.957 0.776 1.732 1.733 1.732s1.733-0.776 1.733-1.732v-26.809h8.922c2.797 0 10.914 3.087 10.914 12.539s-7.956 12.538-10.698 12.538h-4.894c-0.957 0-1.733 0.776-1.733 1.732s0.776 1.732 1.733 1.732h4.894c4.938 0 14.163-4.694 14.163-16.003 0-11.171-9.522-16.003-14.379-16.003z"></path>
<path d="M14.051 23.041h-3.898c-0.957 0-1.732 0.776-1.732 1.733s0.775 1.732 1.732 1.732h3.898c3.219 0 9.225-3.521 9.225-10.251 0-7.071-5.634-10.365-9.442-10.365h-5.414v12.56c0 0.957 0.775 1.732 1.732 1.732s1.732-0.775 1.732-1.732v-9.095h1.949c1.873 0 5.977 1.737 5.977 6.9 0 5.015-4.588 6.786-5.76 6.786z"></path>
</svg>
