<!-- Generated by IcoMoon.io -->
<svg version="1.1" xmlns="http://www.w3.org/2000/svg" width="32" height="32" viewBox="0 0 32 32">
<title>NOVAEXCHANGE</title>
<path d="M23.788 24.593c1.129 0.945 2.243 1.891 3.358 2.836-5.235 5.305-14.688 6.533-21.489 0.748-6.928-5.884-7.041-15.407-2.794-21.277 0.042 0.042 0.085 0.071 0.127 0.113 1.030 0.875 2.074 1.764 3.118 2.638 0.099 0.071 0.099 0.127 0.042 0.226-0.917 1.467-1.467 3.062-1.665 4.769-0.494 4.219 1.34 8.325 4.783 10.794 1.637 1.171 3.443 1.877 5.446 2.074 3.344 0.339 6.307-0.578 8.889-2.751 0.042-0.042 0.113-0.099 0.183-0.169z"></path>
<path d="M29.136 25.101c-0.31-0.254-0.607-0.508-0.903-0.762-0.776-0.663-1.552-1.312-2.328-1.975-0.099-0.085-0.127-0.141-0.042-0.268 0.861-1.369 1.411-2.864 1.623-4.473 0.381-2.78-0.155-5.39-1.651-7.774-1.792-2.836-4.374-4.571-7.661-5.249-0.917-0.183-1.834-0.24-2.765-0.198-2.681 0.155-5.051 1.101-7.083 2.878-0.085 0.071-0.141 0.099-0.24 0.014-1.058-0.889-2.116-1.778-3.189-2.667-0.028-0.014-0.042-0.042-0.056-0.071 5.319-5.333 14.575-6.406 21.263-0.945 6.899 5.63 7.506 15.182 3.034 21.489z"></path>
<path d="M13.305 15.026c0 0.056-0.014 0.099-0.014 0.155 0 1.326 0 2.667 0 3.993 0 0.212 0 0.212 0.226 0.212 0.353 0 0.72 0 1.101 0-0.861 1.439-1.707 2.85-2.568 4.289-0.847-1.425-1.693-2.836-2.554-4.289 0.169 0 0.31 0 0.451 0 0.226 0 0.466 0 0.691 0 0.141 0 0.169-0.042 0.169-0.169 0-1.143 0-2.286 0-3.429 0-2.074 0-4.148 0-6.222 0-0.155 0.042-0.212 0.198-0.198 0.705 0.014 1.397 0.014 2.102 0 0.155 0 0.212 0.042 0.198 0.198-0.028 0.183 0.042 0.339 0.169 0.494 1.679 2.187 3.358 4.374 5.037 6.575 0.042 0.071 0.099 0.127 0.155 0.198 0.014 0 0.028-0.014 0.042-0.014 0-0.056 0.014-0.113 0.014-0.169 0-1.27 0-2.526 0-3.795 0-0.226 0-0.226-0.226-0.226-0.353 0-0.705 0-1.086 0 0.861-1.439 1.693-2.85 2.554-4.275 0.847 1.425 1.693 2.822 2.554 4.261-0.056 0-0.099 0.014-0.141 0.014-0.325 0-0.649 0.014-0.959 0-0.155 0-0.212 0.042-0.212 0.198 0 1.030 0 2.060 0 3.104 0 1.312 0 2.61 0 3.922 0 0.861 0 1.721 0 2.596 0 0.212 0 0.212-0.212 0.212-0.691 0-1.383 0-2.074 0-0.141 0-0.212-0.042-0.183-0.183 0.071-0.367-0.113-0.621-0.325-0.889-1.651-2.131-3.273-4.275-4.924-6.406-0.042-0.042-0.085-0.099-0.113-0.141-0.042-0.028-0.056-0.028-0.071-0.014z"></path>
</svg>
