<?xml version="1.0" encoding="utf-8"?>
<!-- Generator: Adobe Illustrator 22.1.0, SVG Export Plug-In . SVG Version: 6.00 Build 0)  -->
<svg version="1.1" id="Layer_1" xmlns="http://www.w3.org/2000/svg" xmlns:xlink="http://www.w3.org/1999/xlink" x="0px" y="0px"
	 viewBox="0 0 226.8 226.8" style="enable-background:new 0 0 226.8 226.8;" xml:space="preserve">
<style type="text/css">
	.st0{stroke:#000000;stroke-miterlimit:10;}
</style>
<g>
	<path class="st0" d="M226.8,209.9c-2.3,2.4-4,4.2-5.7,6c-2.9,3-5.9,5.8-8.8,8.8c-1.1,1.1-2,1.5-3.2,0.2c-6.9-7-13.8-13.9-20.7-20.8
		c-6.8-6.8-13.7-13.5-20.5-20.3c-6.1-6.1-12.1-12.4-18.2-18.6c-7.9-7.9-15.8-15.6-23.7-23.4c-0.8-0.8-0.9-1.4,0-2.2
		c4.6-4.5,9.2-9.1,13.8-13.7c1-1,1.5-0.9,2.5,0c5.1,5.1,10.2,10.2,15.3,15.3c2.7,2.7,5.4,5.6,8.1,8.3c5,5.1,10.1,10.2,15.2,15.3
		c5.7,5.7,11.3,11.4,17,17.1c6.3,6.3,12.7,12.5,19.1,18.7C220,203.7,223.3,206.6,226.8,209.9z"/>
	<path class="st0" d="M0.2,15.9C5.5,10.6,10.6,5.3,15.9,0c2.4,2.3,4.7,4.5,6.9,6.7c3.4,3.4,6.8,6.9,10.2,10.3c4,4.1,8,8.2,12,12.2
		c4.2,4.2,8.6,8.4,12.8,12.6c6.3,6.3,12.6,12.7,18.9,19.1c4.3,4.3,8.6,8.5,12.9,12.7c3.6,3.5,7.2,7.1,10.8,10.7
		c0.9,0.8,1,1.4,0.1,2.4c-4.7,4.6-9.2,9.3-13.9,13.8c-0.4,0.4-1.7,0.4-2,0C77,93,69.5,85.6,62.1,78.1C56,71.9,50,65.7,43.9,59.5
		C37.4,53,30.7,46.5,24.2,40C16.6,32.5,9.1,25,1.6,17.5C1.2,17,0.8,16.6,0.2,15.9z"/>
	<path class="st0" d="M226.8,15.9c-2,2.1-3.7,4-5.5,5.8c-3.3,3.3-6.6,6.5-10,9.8c-3.5,3.5-7.1,6.9-10.5,10.4
		c-4.5,4.6-8.9,9.2-13.5,13.7c-3.8,3.8-7.7,7.6-11.5,11.4c-4.4,4.4-8.8,8.9-13.3,13.4c-5.3,5.3-10.6,10.5-15.9,15.8
		c-1.4,1.4-2.8,2.8-4.1,4.3c-1,1-1.9,0.9-2.8,0c-3.5-3.6-7.1-7.2-10.6-10.8c-1.2-1.2-2.5-2.4-3.9-3.6c3.8-3.8,7.5-7.6,11.2-11.3
		c8.5-8.4,17-16.8,25.5-25.3c6.3-6.2,12.4-12.6,18.7-18.8c8.8-8.9,17.7-17.7,26.5-26.6c3.6-3.6,3.7-3.6,7.2-0.3
		C218.5,7.7,222.5,11.8,226.8,15.9z"/>
	<path class="st0" d="M16,226.5c-4.1-4.2-8.2-8.2-12.2-12.4c-3.1-3.3-3.2-3.5,0.1-6.8c7.1-7.2,14.4-14.3,21.5-21.5
		c6.8-6.8,13.6-13.6,20.4-20.4c5.5-5.5,11.1-11.1,16.6-16.6c5.5-5.5,11-11,16.5-16.5c2.4-2.4,4.7-4.8,7.4-7.5c2.3,2.4,4.4,4.7,6.7,7
		c2.5,2.6,5,5.1,7.5,7.6c1.1,1.1,1.2,1.9,0,3.1c-7.8,7.7-15.5,15.5-23.2,23.3c-6.9,6.9-13.8,13.9-20.8,20.8
		c-6.4,6.4-12.9,12.8-19.3,19.3c-6.5,6.4-12.9,12.9-19.4,19.3C17.4,225.5,16.8,225.9,16,226.5z"/>
	<path class="st0" d="M113.4,97.6c0.7,0.6,1.3,1,1.8,1.5c4.2,4.3,8.4,8.6,12.7,12.8c1.1,1.1,1.2,1.5-0.1,2.7
		c-4.6,4.4-9,8.9-13.4,13.4c-0.9,1-1.6,0.6-2.2,0c-4.6-4.5-9-9.1-13.6-13.6c-0.9-0.9-1-1.5-0.1-2.4c4.4-4.3,8.8-8.7,13.3-13.1
		C112.2,98.5,112.8,98.1,113.4,97.6z"/>
</g>
</svg>
