<!-- Generated by IcoMoon.io -->
<svg version="1.1" xmlns="http://www.w3.org/2000/svg" width="32" height="32" viewBox="0 0 32 32">
<title>NPXS1</title>
<path d="M32 29.616c-0.325 0.339-0.564 0.593-0.804 0.847-0.409 0.423-0.832 0.818-1.242 1.242-0.155 0.155-0.282 0.212-0.451 0.028-0.974-0.988-1.947-1.961-2.921-2.935-0.959-0.959-1.933-1.905-2.892-2.864-0.861-0.861-1.707-1.75-2.568-2.624-1.115-1.115-2.229-2.201-3.344-3.302-0.113-0.113-0.127-0.198 0-0.31 0.649-0.635 1.298-1.284 1.947-1.933 0.141-0.141 0.212-0.127 0.353 0 0.72 0.72 1.439 1.439 2.159 2.159 0.381 0.381 0.762 0.79 1.143 1.171 0.705 0.72 1.425 1.439 2.145 2.159 0.804 0.804 1.594 1.608 2.399 2.413 0.889 0.889 1.792 1.764 2.695 2.638 0.423 0.437 0.889 0.847 1.383 1.312z"></path>
<path d="M0.028 2.243c0.748-0.748 1.467-1.496 2.215-2.243 0.339 0.325 0.663 0.635 0.974 0.945 0.48 0.48 0.959 0.974 1.439 1.453 0.564 0.578 1.129 1.157 1.693 1.721 0.593 0.593 1.213 1.185 1.806 1.778 0.889 0.889 1.778 1.792 2.667 2.695 0.607 0.607 1.213 1.199 1.82 1.792 0.508 0.494 1.016 1.002 1.524 1.51 0.127 0.113 0.141 0.198 0.014 0.339-0.663 0.649-1.298 1.312-1.961 1.947-0.056 0.056-0.24 0.056-0.282 0-1.072-1.058-2.13-2.102-3.175-3.161-0.861-0.875-1.707-1.75-2.568-2.624-0.917-0.917-1.862-1.834-2.78-2.751-1.072-1.058-2.131-2.116-3.189-3.175-0.056-0.071-0.113-0.127-0.198-0.226z"></path>
<path d="M32 2.243c-0.282 0.296-0.522 0.564-0.776 0.818-0.466 0.466-0.931 0.917-1.411 1.383-0.494 0.494-1.002 0.974-1.481 1.467-0.635 0.649-1.256 1.298-1.905 1.933-0.536 0.536-1.086 1.072-1.623 1.608-0.621 0.621-1.242 1.256-1.877 1.891-0.748 0.748-1.496 1.481-2.243 2.229-0.198 0.198-0.395 0.395-0.578 0.607-0.141 0.141-0.268 0.127-0.395 0-0.494-0.508-1.002-1.016-1.496-1.524-0.169-0.169-0.353-0.339-0.55-0.508 0.536-0.536 1.058-1.072 1.58-1.594 1.199-1.185 2.399-2.37 3.598-3.57 0.889-0.875 1.75-1.778 2.638-2.653 1.242-1.256 2.497-2.497 3.739-3.753 0.508-0.508 0.522-0.508 1.016-0.042 0.593 0.55 1.157 1.129 1.764 1.707z"></path>
<path d="M2.257 31.958c-0.578-0.593-1.157-1.157-1.721-1.75-0.437-0.466-0.452-0.494 0.014-0.959 1.002-1.016 2.032-2.018 3.034-3.034 0.959-0.959 1.919-1.919 2.878-2.878 0.776-0.776 1.566-1.566 2.342-2.342s1.552-1.552 2.328-2.328c0.339-0.339 0.663-0.677 1.044-1.058 0.325 0.339 0.621 0.663 0.945 0.988 0.353 0.367 0.705 0.72 1.058 1.072 0.155 0.155 0.169 0.268 0 0.437-1.101 1.086-2.187 2.187-3.273 3.287-0.974 0.974-1.947 1.961-2.935 2.935-0.903 0.903-1.82 1.806-2.723 2.723-0.917 0.903-1.82 1.82-2.737 2.723-0.056 0.042-0.141 0.099-0.254 0.183z"></path>
<path d="M16 13.771c0.099 0.085 0.183 0.141 0.254 0.212 0.593 0.607 1.185 1.213 1.792 1.806 0.155 0.155 0.169 0.212-0.014 0.381-0.649 0.621-1.27 1.256-1.891 1.891-0.127 0.141-0.226 0.085-0.31 0-0.649-0.635-1.27-1.284-1.919-1.919-0.127-0.127-0.141-0.212-0.014-0.339 0.621-0.607 1.242-1.227 1.877-1.848 0.056-0.056 0.141-0.113 0.226-0.183z"></path>
</svg>
