<!-- Generated by IcoMoon.io -->
<svg version="1.1" xmlns="http://www.w3.org/2000/svg" width="32" height="32" viewBox="0 0 32 32">
<title>NTK</title>
<path d="M16.578 26.554c0-1.905 0-3.612 0-5.319 0.056-0.028 0.113-0.056 0.183-0.099 0.593 0.494 1.185 1.016 1.806 1.481 0.451 0.339 0.578 0.734 0.564 1.27-0.028 2.356 0 4.698 0 7.055 0 0.296 0 0.593 0 1.058-0.325-0.226-0.522-0.353-0.705-0.508-2.822-2.37-5.644-4.727-8.466-7.111-0.169-0.141-0.339-0.423-0.339-0.635-0.028-4.938-0.014-9.877-0.014-14.815 0-0.085 0.028-0.169 0.099-0.423 3.908 2.963 7.534 6.123 11.344 9.355 0.042-0.423 0.071-0.621 0.071-0.818 0-2.497 0.014-4.995-0.028-7.506 0-0.325-0.198-0.748-0.451-0.974-1.129-0.988-2.314-1.933-3.485-2.892-0.141-0.113-0.31-0.183-0.607-0.339 0 1.834 0 3.513 0 5.291-0.748-0.705-1.397-1.312-2.032-1.933-0.071-0.071-0.071-0.24-0.071-0.367 0-2.695 0-5.39 0.014-8.085 0-0.056 0.042-0.113 0.099-0.282 0.24 0.169 0.466 0.31 0.663 0.48 2.526 2.187 5.023 4.388 7.563 6.561 0.564 0.48 0.818 0.974 0.818 1.764-0.042 4.543-0.014 9.101-0.014 13.644 0 0.212-0.014 0.423-0.042 0.776-0.254-0.183-0.423-0.282-0.578-0.395-3.372-2.822-6.73-5.644-10.102-8.466-0.169-0.141-0.395-0.212-0.593-0.325-0.056 0.212-0.169 0.423-0.169 0.649-0.014 2.526 0 5.037-0.014 7.563 0 0.494 0.155 0.847 0.55 1.157 1.115 0.889 2.201 1.806 3.287 2.709 0.141 0.141 0.31 0.24 0.649 0.48z"></path>
</svg>
