<?xml version="1.0" encoding="utf-8"?>
<!-- Generator: Adobe Illustrator 22.1.0, SVG Export Plug-In . SVG Version: 6.00 Build 0)  -->
<svg version="1.1" id="Layer_1" xmlns="http://www.w3.org/2000/svg" xmlns:xlink="http://www.w3.org/1999/xlink" x="0px" y="0px"
	 viewBox="0 0 226.8 226.8" style="enable-background:new 0 0 226.8 226.8;" xml:space="preserve">
<g>
	<path d="M117.5,188.2c0-13.5,0-25.6,0-37.7c0.4-0.2,0.8-0.4,1.3-0.7c4.2,3.5,8.4,7.2,12.8,10.5c3.2,2.4,4.1,5.2,4,9
		c-0.2,16.7,0,33.3,0,50c0,2.1,0,4.2,0,7.5c-2.3-1.6-3.7-2.5-5-3.6c-20-16.8-40-33.5-60-50.4c-1.2-1-2.4-3-2.4-4.5
		c-0.2-35-0.1-70-0.1-105c0-0.6,0.2-1.2,0.7-3c27.7,21,53.4,43.4,80.4,66.3c0.3-3,0.5-4.4,0.5-5.8c0-17.7,0.1-35.4-0.2-53.2
		c0-2.3-1.4-5.3-3.2-6.9c-8-7-16.4-13.7-24.7-20.5c-1-0.8-2.2-1.3-4.3-2.4c0,13,0,24.9,0,37.5c-5.3-5-9.9-9.3-14.4-13.7
		c-0.5-0.5-0.5-1.7-0.5-2.6c0-19.1,0-38.2,0.1-57.3c0-0.4,0.3-0.8,0.7-2c1.7,1.2,3.3,2.2,4.7,3.4c17.9,15.5,35.6,31.1,53.6,46.5
		c4,3.4,5.8,6.9,5.8,12.5c-0.3,32.2-0.1,64.5-0.1,96.7c0,1.5-0.1,3-0.3,5.5c-1.8-1.3-3-2-4.1-2.8c-23.9-20-47.7-40-71.6-60
		c-1.2-1-2.8-1.5-4.2-2.3c-0.4,1.5-1.2,3-1.2,4.6c-0.1,17.9,0,35.7-0.1,53.6c0,3.5,1.1,6,3.9,8.2c7.9,6.3,15.6,12.8,23.3,19.2
		C113.9,185.8,115.1,186.5,117.5,188.2z"/>
</g>
</svg>
