<!-- Generated by IcoMoon.io -->
<svg version="1.1" xmlns="http://www.w3.org/2000/svg" width="32" height="32" viewBox="0 0 32 32">
<title>NVC</title>
<path d="M22.297 0.064c-5.164 0-9.349 1.466-9.349 3.274v2.905c0.5 1.039 4.031 2.361 9.349 2.361s8.848-1.322 9.348-2.361v-2.905c0-1.808-4.186-3.274-9.348-3.274zM3.094 25.884l-0.132-0.273v-0.324c-0.564 0.421-0.888 0.89-0.888 1.386v2.905c0.5 1.039 4.031 2.361 9.349 2.361s8.848-1.322 9.348-2.361v-1.508c-1.885 0.585-4.372 0.93-7.129 0.93-5.328 0-9.666-1.281-10.548-3.115z"></path>
<path d="M4.294 24.46v0.846c0.5 1.039 4.031 2.361 9.349 2.361s8.848-1.322 9.348-2.361v-2.905c0-0.208-0.061-0.41-0.167-0.606v0.454l-0.131 0.274c-0.883 1.834-5.22 3.115-10.549 3.115-3.126 0-5.904-0.443-7.851-1.178zM19.051 17.425v-2.905c0-1.808-4.186-3.274-9.348-3.274-5.164 0-9.349 1.465-9.349 3.274v2.905c0.5 1.039 4.031 2.361 9.349 2.361s8.848-1.322 9.348-2.361z"></path>
<path d="M20.383 17.494v0.235l-0.132 0.273c-0.883 1.834-5.22 3.115-10.548 3.115-2.648 0-5.051-0.317-6.907-0.86v1.688c0.5 1.039 4.031 2.361 9.349 2.361s8.848-1.322 9.348-2.361v-2.904c0-0.56-0.403-1.087-1.11-1.547zM12.948 8.042v2.072c2.824 0.347 5.373 1.164 6.62 2.501 0.808 0.079 1.747 0.124 2.697 0.124 0.011 0 0.023 0 0.034-0h-0.002c5.317 0 8.848-1.322 9.348-2.361v-2.336c-1.95 1.248-5.664 1.893-9.348 1.893-3.685 0-7.399-0.645-9.349-1.893zM20.327 14.007c0.034 0.166 0.056 0.337 0.056 0.513v1.458c0.522 0.261 0.975 0.556 1.349 0.887 0.188 0.003 0.373 0.009 0.566 0.009 5.317 0 8.848-1.322 9.348-2.361v-2.335c-1.95 1.248-5.664 1.893-9.348 1.893-0.694-0-1.382-0.023-2.064-0.068l0.093 0.005zM22.824 19.041v0.854c0.445 0.318 0.803 0.675 1.059 1.070 4.424-0.23 7.314-1.386 7.762-2.317v-2.336c-1.884 1.205-5.411 1.846-8.969 1.888 0.093 0.267 0.148 0.545 0.148 0.841zM24.322 22.402v2.673c4.177-0.281 6.889-1.392 7.323-2.293v-2.335c-1.594 1.019-4.363 1.636-7.332 1.828 0.003 0.042 0.009 0.084 0.009 0.127zM22.103 27.569v1.965c0.065 0.001 0.129 0.004 0.195 0.004 5.162 0 9.348-1.466 9.348-3.274v-1.682c-1.685 1.078-4.686 1.705-7.847 1.856-0.388 0.418-0.963 0.798-1.696 1.131z"></path>
</svg>
