<!-- Generated by IcoMoon.io -->
<svg version="1.1" xmlns="http://www.w3.org/2000/svg" width="32" height="32" viewBox="0 0 32 32">
<title>NXC</title>
<path d="M15.616 24.205h2.176v0.397h2.662v-0.576h-0.154v-0.525h0.192v-0.333l-1.254-0.934v-0.192h1.882v-0.858l1.51 0.294v-2.381l-1.882-1.434v-0.576h0.717v-1.37l-1.152-0.883-0.205-1.088-2.022-1.114v-0.819l-0.384-0.422h-0.294c0 0-0.064-0.832 0-0.858 0.064-0.013 0.934 0 0.934 0v-1.331l-1.050-0.947v-2.125l-0.23-0.358h-1.075v1.446l-0.166 0.23h-0.333l-0.166-0.23v-1.446h-1.075l-0.23 0.358v2.125l-1.050 0.947v1.344c0 0 0.87-0.013 0.934 0s0 0.858 0 0.858h-0.282l-0.384 0.422v0.819l-2.022 1.114-0.205 1.088-1.152 0.883v1.37h0.717v0.576l-1.882 1.434v2.381l1.51-0.294v0.858h1.894v0.192l-1.254 0.934v0.346h0.192v0.525h-0.154v0.576h2.662v-0.397l2.074-0.026zM10.816 18.304c0.717 0 1.306 0.589 1.306 1.306s-0.589 1.306-1.306 1.306c-0.717 0-1.306-0.589-1.306-1.306s0.589-1.306 1.306-1.306v0zM10.816 18.47c0.64 0 1.152 0.512 1.152 1.152s-0.512 1.152-1.152 1.152c-0.64 0-1.152-0.512-1.152-1.152s0.525-1.152 1.152-1.152v0zM20.352 18.304c0.717 0 1.306 0.589 1.306 1.306s-0.589 1.306-1.306 1.306c-0.717 0-1.306-0.589-1.306-1.306s0.589-1.306 1.306-1.306v0zM20.352 18.47c0.64 0 1.152 0.512 1.152 1.152s-0.512 1.152-1.152 1.152-1.152-0.512-1.152-1.152c0.013-0.64 0.525-1.152 1.152-1.152z"></path>
<path d="M15.987 0.013c8.832 0 15.987 7.155 15.987 15.987s-7.155 15.987-15.987 15.987c-8.832 0.013-15.987-7.142-15.987-15.974 0-8.845 7.155-16 15.987-16v0zM15.987 1.28c-8.128 0-14.72 6.592-14.72 14.733 0 8.128 6.592 14.733 14.733 14.733 8.128 0 14.733-6.592 14.733-14.733-0.013-8.141-6.605-14.733-14.746-14.733z"></path>
<path d="M15.987 5.107c6.016 0 10.893 4.877 10.893 10.893s-4.877 10.893-10.893 10.893c-6.016 0-10.893-4.877-10.893-10.893s4.877-10.893 10.893-10.893v0zM15.987 5.325c-5.901 0-10.688 4.787-10.688 10.688s4.787 10.688 10.688 10.688 10.688-4.787 10.688-10.688c0-5.914-4.774-10.688-10.688-10.688z"></path>
<path d="M15.987 1.574c7.974 0 14.426 6.464 14.426 14.426s-6.464 14.426-14.426 14.426c-7.974 0-14.426-6.464-14.426-14.426s6.464-14.426 14.426-14.426v0zM15.987 4.186c-6.528 0-11.814 5.286-11.814 11.814s5.286 11.814 11.814 11.814c6.528 0 11.814-5.286 11.814-11.814 0.013-6.515-5.286-11.814-11.814-11.814z"></path>
<path d="M18.227 24.205v-1.459l0.755-0.883v-1.664l-0.192-0.704v-1.075l-1.37-1.408v-0.333h-0.486v-6.989h-0.384v8.371l-0.23-0.166v-3.29l-0.358-0.461v-3.277c-0.256 0-0.333 0-0.589 0v3.264l-0.358 0.461v3.29l-0.23 0.166v-8.358h-0.384v6.989h-0.486v0.333l-1.549 1.408v1.075l-0.192 0.704v1.664l0.934 0.883v1.459c1.766 0 3.366 0 5.12 0z"></path>
</svg>
