<?xml version="1.0" encoding="utf-8"?>
<!-- Generator: Adobe Illustrator 22.0.1, SVG Export Plug-In . SVG Version: 6.00 Build 0)  -->
<svg version="1.1" id="Layer_1" xmlns="http://www.w3.org/2000/svg" xmlns:xlink="http://www.w3.org/1999/xlink" x="0px" y="0px"
	 viewBox="0 0 250 250" style="enable-background:new 0 0 250 250;" xml:space="preserve">
<style type="text/css">
	.st0{stroke:#FFFFFF;stroke-miterlimit:10;}
</style>
<g>
	<path class="st0" d="M122,189.1h0.5H139v3.1h20.8v-4.5h-1.2v-4.1h1.5V181l-9.8-7.3v-1.5H165v-6.7l11.8,2.3v-18.6L162.1,138v-4.5
		h5.6v-10.7l-9-6.9l-1.6-8.5l-15.8-8.7v-6.4l-3-3.3H136c0,0-0.5-6.5,0-6.7c0.5-0.1,7.3,0,7.3,0V71.9l-8.2-7.4V47.9l-1.8-2.8h-8.4
		v11.3l-1.3,1.8h-0.9h-0.7H121l-1.3-1.8V45.1h-8.4l-1.8,2.8v16.6l-8.2,7.4v10.5c0,0,6.8-0.1,7.3,0c0.5,0.1,0,6.7,0,6.7h-2.2l-3,3.3
		v6.4l-15.8,8.7l-1.6,8.5l-9,6.9v10.7h5.6v4.5l-14.7,11.2v18.6l11.8-2.3v6.7h14.8v1.5l-9.8,7.3v2.7h1.5v4.1h-1.2v4.5h20.8v-3.1
		L122,189.1L122,189.1L122,189.1z M84.5,143c5.6,0,10.2,4.6,10.2,10.2c0,5.6-4.6,10.2-10.2,10.2c-5.6,0-10.2-4.6-10.2-10.2
		C74.3,147.6,78.9,143,84.5,143L84.5,143z M84.5,144.3c5,0,9,4,9,9c0,5-4,9-9,9c-5,0-9-4-9-9C75.5,148.3,79.6,144.3,84.5,144.3
		L84.5,144.3z M159,143c5.6,0,10.2,4.6,10.2,10.2c0,5.6-4.6,10.2-10.2,10.2c-5.6,0-10.2-4.6-10.2-10.2
		C148.8,147.6,153.4,143,159,143L159,143z M159,144.3c5,0,9,4,9,9c0,5-4,9-9,9s-9-4-9-9C150.1,148.3,154.1,144.3,159,144.3z"/>
	<path class="st0" d="M124.9,0.1c69,0,124.9,55.9,124.9,124.9c0,69-55.9,124.9-124.9,124.9C55.9,250,0,194.1,0,125.1
		C0,56,55.9,0.1,124.9,0.1L124.9,0.1z M124.9,10C61.4,10,9.9,61.5,9.9,125.1c0,63.5,51.5,115.1,115.1,115.1
		c63.5,0,115.1-51.5,115.1-115.1C240,61.5,188.5,10,124.9,10z"/>
	<path class="st0" d="M124.9,39.9c47,0,85.1,38.1,85.1,85.1s-38.1,85.1-85.1,85.1c-47,0-85.1-38.1-85.1-85.1S77.9,39.9,124.9,39.9
		L124.9,39.9z M124.9,41.6c-46.1,0-83.5,37.4-83.5,83.5c0,46.1,37.4,83.5,83.5,83.5s83.5-37.4,83.5-83.5
		C208.4,78.9,171.1,41.6,124.9,41.6z"/>
	<path class="st0" d="M124.9,12.3c62.3,0,112.7,50.5,112.7,112.7s-50.5,112.7-112.7,112.7c-62.3,0-112.7-50.5-112.7-112.7
		S62.7,12.3,124.9,12.3L124.9,12.3z M124.9,32.7c-51,0-92.3,41.3-92.3,92.3c0,51,41.3,92.3,92.3,92.3c51,0,92.3-41.3,92.3-92.3
		C217.3,74.1,175.9,32.7,124.9,32.7z"/>
	<path class="st0" d="M142.4,189.1v-11.4l5.9-6.9v-13l-1.5-5.5v-8.4l-10.7-11v-2.6h-3.8V75.7h-3v65.4l-1.8-1.3v-25.7l-2.8-3.6V84.9
		c-2,0-2.6,0-4.6,0v25.5l-2.8,3.6v25.7l-1.8,1.3V75.7h-3v54.6h-3.8v2.6l-12.1,11v8.4l-1.5,5.5v13l7.3,6.9v11.4
		C116.2,189.1,128.7,189.1,142.4,189.1z"/>
</g>
</svg>
