<!-- Generated by IcoMoon.io -->
<svg version="1.1" xmlns="http://www.w3.org/2000/svg" width="32" height="32" viewBox="0 0 32 32">
<title>NXS</title>
<path d="M15.365 0.169h1.524c0.381 0.071 0.762 0.127 1.157 0.169 1.312 0.071 2.582 0.451 3.81 0.903 2.018 0.776 3.88 1.975 5.404 3.513 1.101 1.072 2.046 2.328 2.681 3.725-0.931-0.268-1.834-0.663-2.808-0.804-1.284-0.198-2.596-0.085-3.88 0.155-4.938 0.959-9.524 3.344-13.418 6.504-0.578 0.423-1.072 0.959-1.665 1.354-0.24 0.183-0.536-0.056-0.79-0.099-0.804-0.296-1.721 0.339-1.862 1.143-0.113 0.451 0.198 0.875 0.198 1.326-0.085 0.254-0.254 0.466-0.423 0.677-1.086 1.298-2.116 2.667-2.737 4.247-0.127 0.31-0.282 0.607-0.466 0.903-0.988-1.891-1.693-3.951-1.961-6.067-0.367-2.765 0.099-5.63 1.298-8.169 0.959-2.032 2.272-3.951 3.937-5.489 2.413-2.272 5.644-3.626 8.959-3.838 0.353-0.028 0.691-0.099 1.044-0.155z"></path>
<path d="M16.296 11.753c1.735-0.48 3.626-0.861 5.404-0.339 0.847 0.254 1.608 0.875 1.877 1.735 0.367 1.101 0.042 2.286-0.381 3.33-0.522 1.242-1.34 2.328-2.229 3.344-2.526 2.949-5.855 5.192-9.51 6.462-1.086 0.367-2.173 0.734-3.316 0.847-0.635 0.071-1.284 0.198-1.919 0.071-1.016-0.127-2.102-0.48-2.709-1.355-0.649-0.917-0.593-2.131-0.254-3.16 0.452-1.425 1.439-2.596 2.258-3.824 0.155-0.212 0.296-0.466 0.578-0.536 0.353 0.042 0.705 0.226 1.072 0.169 0.691-0.056 1.27-0.677 1.312-1.369 0.028-0.339-0.113-0.649-0.212-0.959 2.356-1.947 5.065-3.556 8.028-4.416"></path>
<path d="M31.309 14.081c0.099-0.198 0.226-0.395 0.353-0.578 0.437 1.27 0.353 2.638 0.254 3.965-0.409 3.429-1.806 6.801-4.176 9.326-2.229 2.37-5.192 4.021-8.381 4.67-3.048 0.635-6.279 0.395-9.171-0.79 4.938-1.058 9.481-3.541 13.404-6.674 1.989-1.58 3.838-3.358 5.291-5.446 1.002-1.383 1.707-2.935 2.427-4.473"></path>
</svg>
