<?xml version="1.0" encoding="utf-8"?>
<!-- Generator: Adobe Illustrator 22.0.1, SVG Export Plug-In . SVG Version: 6.00 Build 0)  -->
<svg version="1.1" id="Layer_1" xmlns="http://www.w3.org/2000/svg" xmlns:xlink="http://www.w3.org/1999/xlink" x="0px" y="0px"
	 viewBox="0 0 226.8 226.8" style="enable-background:new 0 0 226.8 226.8;" xml:space="preserve">
<style type="text/css">
	.st0{stroke:#FFFFFF;stroke-miterlimit:10;}
</style>
<path class="st0" d="M108.9,1.2h10.8c2.7,0.5,5.4,0.9,8.2,1.2c9.3,0.5,18.3,3.2,27,6.4c14.3,5.5,27.5,14,38.3,24.9
	c7.8,7.6,14.5,16.5,19,26.4c-6.6-1.9-13-4.7-19.9-5.7c-9.1-1.4-18.4-0.6-27.5,1.1c-35,6.8-67.5,23.7-95.1,46.1
	c-4.1,3-7.6,6.8-11.8,9.6c-1.7,1.3-3.8-0.4-5.6-0.7c-5.7-2.1-12.2,2.4-13.2,8.1c-0.8,3.2,1.4,6.2,1.4,9.4c-0.6,1.8-1.8,3.3-3,4.8
	c-7.7,9.2-15,18.9-19.4,30.1c-0.9,2.2-2,4.3-3.3,6.4c-7-13.4-12-28-13.9-43c-2.6-19.6,0.7-39.9,9.2-57.9C16.9,54,26.2,40.4,38,29.5
	C55.1,13.4,78,3.8,101.5,2.3C104,2.1,106.4,1.6,108.9,1.2z"/>
<path class="st0" d="M115.5,83.3c12.3-3.4,25.7-6.1,38.3-2.4c6,1.8,11.4,6.2,13.3,12.3c2.6,7.8,0.3,16.2-2.7,23.6
	c-3.7,8.8-9.5,16.5-15.8,23.7c-17.9,20.9-41.5,36.8-67.4,45.8c-7.7,2.6-15.4,5.2-23.5,6c-4.5,0.5-9.1,1.4-13.6,0.5
	c-7.2-0.9-14.9-3.4-19.2-9.6c-4.6-6.5-4.2-15.1-1.8-22.4c3.2-10.1,10.2-18.4,16-27.1c1.1-1.5,2.1-3.3,4.1-3.8c2.5,0.3,5,1.6,7.6,1.2
	c4.9-0.4,9-4.8,9.3-9.7c0.2-2.4-0.8-4.6-1.5-6.8C75.3,100.8,94.5,89.4,115.5,83.3"/>
<path class="st0" d="M221.9,99.8c0.7-1.4,1.6-2.8,2.5-4.1c3.1,9,2.5,18.7,1.8,28.1c-2.9,24.3-12.8,48.2-29.6,66.1
	c-15.8,16.8-36.8,28.5-59.4,33.1c-21.6,4.5-44.5,2.8-65-5.6c35-7.5,67.2-25.1,95-47.3c14.1-11.2,27.2-23.8,37.5-38.6
	C211.8,121.7,216.8,110.7,221.9,99.8"/>
</svg>
