<!-- Generated by IcoMoon.io -->
<svg version="1.1" xmlns="http://www.w3.org/2000/svg" width="32" height="32" viewBox="0 0 32 32">
<title>O3_WALLET</title>
<path d="M28.346 13.771c0 1.862-0.268 3.556-0.875 5.178-0.55 1.439-1.326 2.751-2.342 3.908-1.101 1.27-2.37 2.328-3.838 3.16-1.383 0.776-2.864 1.284-4.43 1.552-1.115 0.183-2.229 0.254-3.358 0.212-2.483-0.099-4.811-0.72-6.942-2.032-1.354-0.832-2.54-1.891-3.556-3.118-1.030-1.242-1.806-2.638-2.314-4.176-0.31-0.945-0.508-1.919-0.607-2.921-0.085-0.875-0.113-1.764-0.056-2.638 0.183-2.85 1.101-5.418 2.907-7.633 1.312-1.623 2.892-2.907 4.769-3.838 1.298-0.635 2.667-1.044 4.092-1.256 0.903-0.127 1.806-0.183 2.723-0.169 2.215 0.042 4.332 0.508 6.321 1.51 1.129 0.578 2.159 1.312 3.090 2.173 1.002 0.931 1.877 1.961 2.582 3.146 0.832 1.397 1.355 2.907 1.623 4.501 0.155 0.847 0.212 1.707 0.212 2.441zM22.222 13.898c-0.028-0.353-0.042-0.691-0.071-1.044-0.099-1.016-0.353-1.975-0.79-2.892-0.55-1.171-1.34-2.159-2.328-2.991-0.79-0.663-1.693-1.157-2.695-1.439-0.917-0.254-1.848-0.325-2.794-0.268-0.861 0.056-1.693 0.254-2.483 0.621-1.552 0.705-2.709 1.848-3.612 3.273-0.677 1.101-1.072 2.3-1.213 3.584-0.113 0.974-0.085 1.933 0.071 2.892 0.31 1.764 1.101 3.287 2.342 4.571 0.621 0.635 1.326 1.171 2.116 1.566 1.496 0.734 3.062 0.903 4.698 0.663 0.988-0.141 1.919-0.494 2.765-1.044 0.593-0.381 1.115-0.832 1.594-1.34 0.691-0.748 1.256-1.58 1.651-2.526 0.522-1.143 0.72-2.37 0.748-3.626z"></path>
<path d="M27.894 28.374c0-0.042-0.014-0.085-0.014-0.113 0-0.353 0-0.691 0-1.044 0-0.056 0.028-0.127 0.071-0.169 0.437-0.522 0.875-1.030 1.312-1.538 0.014-0.028 0.042-0.042 0.071-0.099-0.071 0-0.099 0-0.141 0-0.691 0-1.397 0-2.088 0-0.141 0-0.141 0-0.141-0.141 0-0.395 0-0.79 0-1.185 0-0.099 0.028-0.127 0.127-0.127 1.481 0 2.949 0 4.43 0 0.099 0 0.127 0.028 0.127 0.127 0 0.325 0 0.649 0 0.974 0 0.056-0.028 0.113-0.071 0.155-0.466 0.536-0.931 1.058-1.397 1.594-0.028 0.028-0.042 0.056-0.085 0.099 0.056 0.014 0.099 0.028 0.141 0.042 0.917 0.212 1.538 0.762 1.721 1.707 0.226 1.185-0.254 2.328-1.608 2.822-0.945 0.339-1.905 0.268-2.822-0.141-0.31-0.141-0.607-0.325-0.917-0.494-0.056-0.028-0.085-0.056-0.042-0.127 0.212-0.395 0.423-0.804 0.621-1.199 0.014-0.028 0.028-0.042 0.042-0.071 0.042 0.028 0.071 0.042 0.113 0.071 0.451 0.296 0.917 0.55 1.453 0.649 0.339 0.056 0.677 0.056 1.002-0.099 0.325-0.141 0.508-0.395 0.536-0.748s-0.099-0.649-0.409-0.847c-0.254-0.169-0.55-0.226-0.861-0.254-0.353-0.028-0.691 0.056-1.030 0.155-0.042-0.028-0.085-0.014-0.141 0z"></path>
</svg>
