<?xml version="1.0" encoding="utf-8"?>
<!-- Generator: Adobe Illustrator 22.1.0, SVG Export Plug-In . SVG Version: 6.00 Build 0)  -->
<svg version="1.1" id="Layer_1" xmlns="http://www.w3.org/2000/svg" xmlns:xlink="http://www.w3.org/1999/xlink" x="0px" y="0px"
	 viewBox="0 0 226.8 226.8" style="enable-background:new 0 0 226.8 226.8;" xml:space="preserve">
<g>
	<path d="M112.4,226.8C51.5,227.2,1.3,176.3,1,113.8C0.7,51.6,50.2,0.6,111.6,0c61.3-0.6,112,49.9,112.5,111.9
		C224.6,175.6,175.2,226.4,112.4,226.8z M111.9,219.9c57.4,0.6,104.7-47.1,105.4-106.1C217.9,56.6,171,7.6,114.9,7
		C56,6.4,8.9,52.8,7.9,112.5C6.9,170.5,54.2,219.4,111.9,219.9z"/>
	<path d="M100.4,183.8c-33.7-6.4-58.8-37.4-58.3-71.4c0.5-33.3,25.7-63.6,58-69.2c1.8,9.8,2.3,16.9-9.9,22.3
		C71,74.1,60.9,91.1,60.4,112.4c-0.5,21.9,9.7,39.3,29.1,48.4C101,166.3,102.6,172.7,100.4,183.8z"/>
	<path d="M125,183.9c-2.4-10.9-1.2-17.6,10.4-23c19.1-8.8,29.2-25.7,29.3-47.2c0.1-21.5-9.9-38.4-28.9-47.4
		c-11.7-5.5-13.7-12.3-10.8-23c31.8,5.2,57,35,58.1,68.8C184.2,145.4,159.5,176.2,125,183.9z"/>
</g>
</svg>
