<!-- Generated by IcoMoon.io -->
<svg version="1.1" xmlns="http://www.w3.org/2000/svg" width="32" height="32" viewBox="0 0 32 32">
<title>OCN</title>
<path d="M15.859 32c-8.593 0.056-15.675-7.125-15.718-15.944-0.042-8.776 6.942-15.972 15.605-16.056 8.649-0.085 15.802 7.041 15.873 15.788 0.071 8.988-6.899 16.155-15.76 16.212zM15.788 31.026c8.099 0.085 14.773-6.645 14.871-14.97 0.085-8.071-6.533-14.984-14.448-15.069-8.31-0.085-14.956 6.462-15.097 14.885-0.141 8.183 6.533 15.083 14.674 15.153z"></path>
<path d="M14.166 25.933c-4.755-0.903-8.296-5.277-8.226-10.074 0.071-4.698 3.626-8.974 8.183-9.764 0.254 1.383 0.325 2.384-1.397 3.146-2.709 1.213-4.134 3.612-4.205 6.617-0.071 3.090 1.369 5.545 4.106 6.829 1.623 0.776 1.848 1.679 1.538 3.245z"></path>
<path d="M17.637 25.947c-0.339-1.538-0.169-2.483 1.467-3.245 2.695-1.242 4.12-3.626 4.134-6.66s-1.397-5.418-4.078-6.688c-1.651-0.776-1.933-1.735-1.524-3.245 4.487 0.734 8.042 4.938 8.198 9.707 0.155 4.698-3.33 9.044-8.198 10.131z"></path>
</svg>
