<?xml version="1.0" encoding="utf-8"?>
<!-- Generator: Adobe Illustrator 22.1.0, SVG Export Plug-In . SVG Version: 6.00 Build 0)  -->
<svg version="1.1" id="Layer_1" xmlns="http://www.w3.org/2000/svg" xmlns:xlink="http://www.w3.org/1999/xlink" x="0px" y="0px"
	 viewBox="0 0 226.8 226.8" style="enable-background:new 0 0 226.8 226.8;" xml:space="preserve">
<g>
	<path d="M160.3,211.8c28.1-25.9,44-57.5,45.2-95.9c1.2-38.5-12.6-71.1-39.1-98.7c6.6,2.7,12.5,6.6,18.1,11
		c20.8,16.3,34.8,37.2,40,63.1C236.8,152.5,196.6,197.5,160.3,211.8z"/>
	<path d="M60.8,16.9C34,44.3,20.1,77.1,21.2,115.5c1.1,38.4,16.9,70.3,45.6,96.2c-7.2-1.1-29.5-15.1-42.4-31.1
		C13.1,166.5,5.1,150.8,1.9,133C-8.6,76.4,26.5,32.4,60.8,16.9z"/>
	<path d="M185.3,153.2c-0.3,1.4-0.6,3-1.1,4.4c-5.3,15.6-13.3,29.6-25.5,40.9c-8.6,8-18.5,13.8-30.1,16.7
		c-9.4,2.4-18.9,2.6-28.3,0.6c-13.2-2.8-24.5-9.6-34.1-19.1c-11.4-11.3-19-24.8-23.9-40c-0.2-0.7-0.2-1.5-0.3-2.3
		c0.2-0.1,0.4-0.2,0.6-0.2c0.8,1.5,1.7,3.1,2.5,4.6c8,14.7,18.7,26.9,33.2,35.4c12,7.1,25,10.3,39,9.4c23.5-1.4,41.2-13.1,55.3-31.1
		C177.4,166.6,181.1,159.7,185.3,153.2z"/>
	<path d="M185,73c-2.9-4.9-5.6-10-8.7-14.7c-8.9-13.4-20.5-23.9-35.3-30.5c-10.5-4.6-21.5-6.6-33-5.6c-24.3,2.2-42.2,14.9-56.1,34.1
		c-3.1,4.3-5.5,9.1-8.3,13.7c-0.3,0.6-0.7,1.1-1.6,1.6c0.1-0.9,0.2-1.8,0.5-2.6C48.1,51.8,57,36.7,71.1,24.9
		C82.9,15.1,96.3,9.3,112,9c21.9-0.4,38.9,9.2,53,25c8.8,9.9,14.7,21.4,19,33.9c0.6,1.6,0.9,3.4,1.3,5.1C185.2,73,185.1,73,185,73z"
		/>
</g>
</svg>
