<!-- Generated by IcoMoon.io -->
<svg version="1.1" xmlns="http://www.w3.org/2000/svg" width="32" height="32" viewBox="0 0 32 32">
<title>OCT</title>
<path d="M22.617 29.884c3.965-3.654 6.208-8.113 6.377-13.531 0.169-5.432-1.778-10.032-5.517-13.926 0.931 0.381 1.764 0.931 2.554 1.552 2.935 2.3 4.91 5.249 5.644 8.903 1.735 8.635-3.936 14.984-9.058 17.002z"></path>
<path d="M8.578 2.384c-3.781 3.866-5.742 8.494-5.587 13.912s2.384 9.919 6.434 13.573c-1.016-0.155-4.162-2.131-5.982-4.388-1.594-1.989-2.723-4.205-3.175-6.716-1.481-7.986 3.471-14.194 8.31-16.381z"></path>
<path d="M26.145 21.616c-0.042 0.198-0.085 0.423-0.155 0.621-0.748 2.201-1.877 4.176-3.598 5.771-1.213 1.129-2.61 1.947-4.247 2.356-1.326 0.339-2.667 0.367-3.993 0.085-1.862-0.395-3.457-1.355-4.811-2.695-1.608-1.594-2.681-3.499-3.372-5.644-0.028-0.099-0.028-0.212-0.042-0.325 0.028-0.014 0.056-0.028 0.085-0.028 0.113 0.212 0.24 0.437 0.353 0.649 1.129 2.074 2.638 3.795 4.684 4.995 1.693 1.002 3.527 1.453 5.503 1.326 3.316-0.198 5.813-1.848 7.802-4.388 0.677-0.832 1.199-1.806 1.792-2.723z"></path>
<path d="M26.102 10.3c-0.409-0.691-0.79-1.411-1.227-2.074-1.256-1.891-2.892-3.372-4.981-4.303-1.481-0.649-3.034-0.931-4.656-0.79-3.429 0.31-5.954 2.102-7.915 4.811-0.437 0.607-0.776 1.284-1.171 1.933-0.042 0.085-0.099 0.155-0.226 0.226 0.014-0.127 0.028-0.254 0.071-0.367 0.79-2.427 2.046-4.557 4.035-6.222 1.665-1.383 3.556-2.201 5.771-2.243 3.090-0.056 5.489 1.298 7.478 3.527 1.242 1.397 2.074 3.019 2.681 4.783 0.085 0.226 0.127 0.48 0.183 0.72-0.014 0-0.028 0-0.042 0z"></path>
</svg>
