<!-- Generated by IcoMoon.io -->
<svg version="1.1" xmlns="http://www.w3.org/2000/svg" width="32" height="32" viewBox="0 0 32 32">
<title>OCTAGON_STRATEGY</title>
<path d="M5.855 11.541c0.028 0.466-0.056 0.945-0.254 1.397-0.367 0.832-0.959 1.439-1.877 1.637-1.044 0.212-2.018 0.127-2.85-0.635-0.367-0.339-0.593-0.79-0.72-1.256-0.198-0.734-0.198-1.467 0.014-2.201 0.466-1.552 1.721-2.201 3.273-2.004 1.848 0.226 2.483 1.707 2.413 3.062zM0.889 11.612c0.014 0 0.014 0 0.028 0 0 0.155 0.014 0.31 0.028 0.451 0.071 0.818 0.522 1.693 1.651 1.82 1.072 0.127 1.792-0.198 2.173-1.227 0.24-0.649 0.282-1.326 0.113-1.989-0.226-0.903-0.959-1.453-1.891-1.453-1.002 0-1.707 0.508-1.947 1.439-0.085 0.325-0.099 0.649-0.155 0.959z"></path>
<path d="M21.39 14.011c-0.127 0.099-0.198 0.155-0.254 0.198-1.058 0.804-2.554 0.24-2.808-1.058-0.113-0.536-0.099-1.072 0.028-1.608 0.254-1.072 1.27-1.707 2.258-1.411 0.155 0.042 0.31 0.141 0.451 0.212s0.325 0.381 0.353-0.085c0.014-0.099 0.395-0.169 0.55-0.085 0.071 0.042 0.127 0.183 0.127 0.282 0.014 1.34 0.014 2.681 0 4.007 0 0.24-0.056 0.466-0.113 0.691-0.085 0.339-0.282 0.607-0.55 0.832-0.607 0.494-1.905 0.522-2.54 0.056-0.113-0.085-0.212-0.183-0.282-0.282-0.169-0.226-0.24-0.55-0.141-0.593 0.155-0.056 0.325-0.042 0.494-0.056s0.226 0.099 0.296 0.226c0.24 0.395 0.649 0.409 1.030 0.381 0.494-0.056 0.889-0.212 0.988-0.903 0.042-0.226 0.071-0.466 0.113-0.804zM19.048 12.317c0.028 0.268 0.028 0.451 0.056 0.635 0.014 0.113 0.056 0.226 0.099 0.339 0.198 0.451 0.635 0.705 1.101 0.621 0.409-0.071 0.72-0.268 0.889-0.663 0.254-0.564 0.254-1.143 0.085-1.721-0.141-0.48-0.607-0.804-1.058-0.79-0.48 0.014-0.903 0.325-1.030 0.818-0.085 0.268-0.113 0.55-0.141 0.762z"></path>
<path d="M2.568 15.774c0.578 0.042 1.129 0.169 1.608 0.536 0.381 0.296 0.522 0.691 0.536 1.157 0.014 0.155-0.056 0.212-0.212 0.226-0.395 0.042-0.466 0.014-0.578-0.381-0.127-0.451-0.409-0.677-0.847-0.79-0.423-0.099-0.832-0.099-1.242 0.042s-0.635 0.451-0.649 0.931c-0.014 0.325 0.226 0.593 0.635 0.705 0.437 0.127 0.889 0.212 1.326 0.325 0.296 0.071 0.578 0.155 0.875 0.254 1.101 0.367 1.157 1.961 0.353 2.596-0.099 0.071-0.183 0.141-0.296 0.198-1.030 0.48-2.046 0.55-3.048-0.071-0.508-0.31-0.691-0.804-0.776-1.355-0.014-0.113 0.042-0.198 0.169-0.198 0.141 0 0.268 0 0.409 0 0.127 0 0.155 0.056 0.183 0.183 0.127 0.776 0.635 1.086 1.496 1.143 0.452 0.028 0.875-0.056 1.256-0.296 0.296-0.183 0.423-0.451 0.409-0.762s-0.127-0.607-0.466-0.72c-0.437-0.141-0.875-0.254-1.312-0.381-0.367-0.099-0.762-0.183-1.115-0.31-0.621-0.226-0.931-0.804-0.818-1.453 0.169-0.903 0.607-1.326 1.538-1.496 0.113-0.028 0.226-0.056 0.339-0.071 0.085-0.028 0.155-0.014 0.226-0.014z"></path>
<path d="M27.189 19.88c0 0.677 0.014 1.355 0 2.032-0.014 0.48-0.155 0.931-0.536 1.27-0.254 0.24-0.55 0.395-0.903 0.409-0.564 0.028-1.129 0.085-1.623-0.254-0.127-0.099-0.254-0.212-0.339-0.353-0.085-0.127-0.226-0.296-0.085-0.451 0.127-0.141 0.536-0.042 0.649 0.141 0.282 0.494 0.762 0.451 1.213 0.409 0.437-0.028 0.776-0.282 0.903-0.705 0.085-0.296 0.099-0.635 0.113-0.945 0.014-0.127-0.085-0.183-0.198-0.085-0.212 0.183-0.395 0.381-0.72 0.437-1.157 0.212-1.975-0.395-2.145-1.566-0.056-0.423-0.071-0.847 0.028-1.256 0.198-0.748 0.564-1.326 1.383-1.51 0.494-0.099 0.931 0 1.34 0.296 0.071 0.056 0.127 0.113 0.183 0.169 0.042 0.028 0.085 0.028 0.141 0.042 0-0.042 0.014-0.099 0.014-0.141 0.014-0.31 0.028-0.31 0.296-0.325 0.226-0.014 0.296 0.085 0.296 0.296-0.014 0.691-0.014 1.397-0.014 2.088 0 0 0 0 0 0zM26.624 19.527c-0.071-0.296-0.127-0.593-0.226-0.875-0.183-0.494-0.578-0.677-1.072-0.677-0.508 0-0.847 0.268-1.002 0.72-0.212 0.593-0.254 1.227-0.028 1.834 0.155 0.423 0.451 0.677 0.903 0.72 0.466 0.042 0.861-0.099 1.115-0.536 0.198-0.367 0.296-0.748 0.31-1.185z"></path>
<path d="M17.242 12.459c0 0.395 0 0.776 0 1.171 0 0.226 0.014 0.409 0.31 0.409 0.24 0 0.169 0.198 0.183 0.339 0.014 0.155-0.056 0.254-0.212 0.282-0.466 0.099-0.705 0-0.959-0.437-0.071-0.113-0.113-0.127-0.226-0.042-0.437 0.353-0.945 0.522-1.51 0.48-0.635-0.042-1.143-0.466-1.256-1.058-0.113-0.578 0.183-1.157 0.762-1.411 0.226-0.099 0.48-0.155 0.734-0.198 0.31-0.056 0.635-0.071 0.959-0.113 0.31-0.042 0.437-0.141 0.466-0.367 0.042-0.254-0.071-0.536-0.31-0.649-0.296-0.141-0.621-0.183-0.931-0.127-0.339 0.056-0.578 0.24-0.677 0.607-0.042 0.169-0.578 0.254-0.705 0.127-0.028-0.028-0.056-0.085-0.056-0.127 0.042-0.409 0.183-0.762 0.564-0.974 0.776-0.437 1.552-0.409 2.342-0.042 0.339 0.155 0.536 0.466 0.536 0.861-0.014 0.423-0.014 0.847-0.014 1.27 0 0 0 0 0 0zM16.48 12.797c0-0.028 0-0.071 0-0.099-0.014-0.296-0.014-0.296-0.282-0.24-0.127 0.028-0.268 0.042-0.395 0.071-0.31 0.056-0.635 0.099-0.931 0.198-0.367 0.127-0.494 0.353-0.466 0.691 0.028 0.282 0.282 0.536 0.607 0.593 0.776 0.141 1.453-0.423 1.467-1.213z"></path>
<path d="M27.203 12.205c0 0.593-0.099 1.058-0.339 1.51s-0.607 0.762-1.115 0.889c-1.58 0.367-2.596-0.522-2.653-1.947-0.028-0.508 0.028-1.016 0.254-1.481 0.381-0.79 1.242-1.199 2.116-1.072 0.931 0.141 1.58 0.79 1.707 1.693 0.028 0.155 0.028 0.325 0.028 0.409zM23.929 12.43c-0.014 0.353 0.042 0.691 0.212 1.016 0.212 0.409 0.564 0.564 1.002 0.564s0.79-0.169 0.974-0.593c0.282-0.649 0.325-1.312 0.113-1.975-0.169-0.508-0.564-0.691-1.058-0.72-0.437-0.014-0.79 0.155-1.002 0.564-0.183 0.367-0.268 0.734-0.24 1.143z"></path>
<path d="M14.984 19.781c0 0.395 0 0.776 0 1.171 0 0.226 0.042 0.409 0.325 0.409 0.169 0 0.169 0.113 0.183 0.24 0 0.127-0.028 0.226-0.169 0.282-0.353 0.155-0.762 0-0.931-0.367-0.113-0.268-0.127-0.268-0.353-0.071-0.254 0.226-0.536 0.339-0.847 0.423-0.48 0.141-0.903 0.042-1.298-0.226-0.494-0.339-0.564-0.705-0.451-1.34 0.085-0.494 0.48-0.762 0.959-0.861 0.437-0.085 0.903-0.141 1.34-0.212 0.395-0.056 0.494-0.141 0.522-0.423 0.042-0.381-0.056-0.607-0.395-0.734-0.353-0.141-0.734-0.113-1.101-0.028-0.226 0.056-0.367 0.226-0.451 0.451-0.127 0.31-0.226 0.367-0.522 0.296-0.071-0.014-0.169-0.127-0.169-0.183 0-0.339 0.113-0.635 0.423-0.818 0.72-0.451 1.481-0.508 2.272-0.169 0.423 0.183 0.621 0.508 0.635 0.945 0.028 0.395 0.014 0.804 0.028 1.213 0 0 0 0 0 0zM14.293 20.021c0 0.042 0 0 0-0.056-0.014-0.339-0.014-0.339-0.339-0.254-0.198 0.042-0.395 0.071-0.593 0.113-0.24 0.056-0.494 0.085-0.734 0.169-0.381 0.127-0.508 0.339-0.48 0.72 0.028 0.31 0.24 0.564 0.564 0.635 0.79 0.198 1.566-0.395 1.58-1.326z"></path>
<path d="M21.065 19.824c-0.451 0-0.917 0-1.369 0-0.141 0-0.226 0.042-0.183 0.212 0.028 0.113 0.028 0.24 0.056 0.353 0.141 0.451 0.353 0.847 0.875 0.959 0.536 0.113 1.086-0.099 1.34-0.578 0.169-0.31 0.367-0.339 0.649-0.31 0.141 0.014 0.155 0.085 0.113 0.212-0.296 0.861-1.115 1.312-1.933 1.284-0.889-0.028-1.58-0.649-1.764-1.411-0.212-0.861-0.127-1.665 0.395-2.413 0.353-0.494 1.298-0.861 2.102-0.607 0.748 0.24 1.213 0.804 1.256 1.594 0 0.099 0 0.198 0.014 0.31 0.028 0.409 0.028 0.409-0.395 0.409-0.381-0.028-0.776-0.028-1.157-0.014 0-0.014 0-0.014 0 0zM20.656 19.231c0.282 0 0.578 0 0.861 0 0.395 0 0.466-0.085 0.353-0.451-0.042-0.155-0.113-0.325-0.226-0.451-0.353-0.367-0.804-0.437-1.27-0.31-0.437 0.113-0.72 0.437-0.832 0.875-0.071 0.296-0.056 0.325 0.24 0.325 0.31 0.014 0.593 0.014 0.875 0.014z"></path>
<path d="M28.966 10.624c0.395-0.409 0.875-0.578 1.425-0.55 0.734 0.028 1.213 0.437 1.284 1.171 0.056 0.607 0.042 1.213 0.056 1.82 0.014 0.367 0.014 0.748 0 1.115s-0.056 0.409-0.48 0.381c-0.31-0.014-0.31-0.014-0.325-0.31 0-0.085 0-0.169 0-0.254 0-0.691 0-1.383 0-2.088 0-0.212-0.028-0.437-0.085-0.649-0.099-0.367-0.339-0.522-0.705-0.536-0.522-0.014-0.974 0.282-1.129 0.776-0.071 0.212-0.085 0.437-0.085 0.649-0.014 0.663 0 1.326 0 1.975 0 0.437-0.014 0.437-0.466 0.437-0.056 0-0.113 0.014-0.155-0.014-0.071-0.056-0.141-0.113-0.183-0.183-0.028-0.056-0.014-0.127-0.014-0.198 0-1.199 0-2.399 0-3.612 0-0.127 0.042-0.339 0.099-0.353 0.183-0.042 0.409-0.056 0.593 0 0.099 0.042 0.113 0.268 0.169 0.423z"></path>
<path d="M6.617 12.374c-0.014-0.466 0.071-0.974 0.381-1.425 0.593-0.903 1.778-1.157 2.681-0.593 0.423 0.268 0.593 0.677 0.663 1.143 0.014 0.141-0.042 0.212-0.198 0.226-0.395 0.056-0.48 0.014-0.635-0.381s-0.437-0.593-0.847-0.621c-0.395-0.014-0.734 0.127-0.931 0.494-0.381 0.734-0.395 1.496-0.071 2.258 0.155 0.381 0.494 0.536 0.903 0.536 0.437 0 0.734-0.226 0.917-0.607 0.071-0.127 0.113-0.325 0.212-0.381 0.141-0.071 0.325-0.028 0.494-0.028 0.141 0 0.169 0.071 0.141 0.198-0.085 0.466-0.296 0.861-0.691 1.143-0.875 0.635-2.201 0.353-2.737-0.593-0.226-0.395-0.296-0.677-0.282-1.369z"></path>
<path d="M28.557 17.496c0.367 0 0.367 0 0.48 0.367 0.325 0.988 0.663 1.989 0.988 2.977 0.014 0.042 0.042 0.085 0.071 0.127 0.042-0.042 0.113-0.071 0.141-0.127 0.254-0.776 0.494-1.538 0.748-2.314 0.071-0.212 0.141-0.423 0.212-0.621 0.141-0.423 0.169-0.437 0.663-0.409 0.183 0.014 0.198 0.085 0.141 0.226-0.663 1.778-1.171 3.598-2.046 5.291-0.198 0.381-0.635 0.607-1.044 0.564-0.155-0.014-0.24-0.085-0.296-0.226-0.085-0.24-0.028-0.367 0.226-0.353 0.282 0.014 0.522-0.056 0.649-0.296 0.169-0.31 0.367-0.593 0.212-1.002-0.437-1.171-0.847-2.356-1.27-3.527-0.028-0.099-0.071-0.198-0.099-0.282-0.155-0.381-0.141-0.381 0.226-0.395z"></path>
<path d="M12.303 14.66c-0.621 0.014-0.889-0.24-0.903-0.889-0.014-0.847 0-1.693-0.014-2.54 0-0.367 0-0.381-0.367-0.423-0.268-0.028-0.226-0.198-0.226-0.353 0-0.169 0.028-0.282 0.24-0.296 0.353-0.028 0.353-0.042 0.353-0.367 0-0.183 0.014-0.367 0-0.564-0.014-0.226 0.099-0.282 0.31-0.282 0.437 0 0.451 0 0.466 0.437 0 0.071 0 0.141 0 0.198 0.014 0.169-0.042 0.381 0.042 0.494 0.071 0.099 0.296 0.071 0.466 0.085 0.198 0.014 0.212 0.155 0.198 0.282-0.014 0.141 0.056 0.325-0.169 0.353-0.169 0.028-0.423 0-0.466 0.085-0.085 0.155-0.056 0.381-0.056 0.593 0 0.663-0.014 1.312 0 1.975 0 0.353 0.071 0.409 0.395 0.466 0.31 0.056 0.31 0.056 0.31 0.381-0.014 0.282-0.042 0.325-0.31 0.353-0.099 0.028-0.183 0.014-0.268 0.014z"></path>
<path d="M16.621 19.725c0-0.423 0-0.847 0-1.27 0-0.31-0.014-0.339-0.325-0.353-0.24-0.014-0.282-0.127-0.282-0.325 0-0.183 0.056-0.268 0.254-0.282 0.339-0.028 0.339-0.042 0.353-0.395 0-0.141 0-0.268 0-0.409 0-0.409 0.028-0.437 0.423-0.423 0.198 0 0.282 0.071 0.268 0.268-0.014 0.226 0.014 0.437 0 0.663s0.085 0.31 0.296 0.296c0.056 0 0.099 0 0.155 0 0.169-0.014 0.254 0.042 0.254 0.226 0 0.169 0 0.339-0.24 0.367-0.451 0.056-0.451 0.071-0.451 0.536 0 0.705 0 1.425 0 2.131 0 0.423 0.028 0.423 0.451 0.508 0.085 0.014 0.212 0.071 0.226 0.127 0.042 0.155 0.056 0.339-0.113 0.451-0.381 0.254-1.030 0.028-1.171-0.409-0.056-0.169-0.071-0.367-0.085-0.55-0.028-0.381-0.014-0.762-0.014-1.157 0 0 0 0 0 0z"></path>
<path d="M6.321 19.739c0-0.437 0-0.875 0-1.312 0-0.282 0-0.282-0.31-0.339-0.254-0.042-0.395-0.282-0.268-0.494 0.042-0.056 0.169-0.099 0.254-0.099 0.226 0.028 0.282-0.099 0.296-0.296 0.014-0.24 0.014-0.466 0.014-0.705 0-0.226 0.155-0.226 0.31-0.226s0.31-0.014 0.31 0.212c0 0.24 0.014 0.48 0 0.705s0.085 0.31 0.296 0.296c0.071 0 0.141 0 0.198 0 0.198 0 0.198 0.141 0.198 0.282s0.014 0.282-0.183 0.296c-0.155 0.014-0.395 0-0.466 0.099-0.085 0.127-0.056 0.353-0.056 0.536 0 0.663 0 1.312 0 1.975 0 0.423 0.042 0.48 0.466 0.564 0.127 0.028 0.226 0.042 0.226 0.198s0.042 0.325-0.183 0.423c-0.578 0.226-1.115-0.099-1.143-0.72 0-0.028 0-0.071 0-0.099 0.056-0.423 0.056-0.861 0.042-1.298 0.014 0 0 0 0 0z"></path>
<path d="M8.691 19.64c0-0.607 0-1.213 0-1.82 0-0.198 0.042-0.325 0.282-0.31 0.282 0.014 0.296 0.014 0.339 0.31 0.014 0.085 0.028 0.155 0.056 0.226 0.085-0.056 0.183-0.085 0.24-0.155 0.183-0.24 0.437-0.381 0.72-0.437 0.113-0.028 0.353 0 0.367 0.028 0.042 0.169 0.028 0.367 0 0.536 0 0.028-0.141 0.071-0.226 0.071-0.72 0.028-1.086 0.593-1.072 1.213 0.014 0.734 0.014 1.453 0 2.187 0 0.31-0.071 0.367-0.353 0.353-0.268 0-0.325-0.056-0.325-0.325-0.028-0.635-0.028-1.256-0.028-1.877z"></path>
</svg>
