<!-- Generated by IcoMoon.io -->
<svg version="1.1" xmlns="http://www.w3.org/2000/svg" width="32" height="32" viewBox="0 0 32 32">
<title>ODE</title>
<path d="M23.379 28.586c0-0.31 0-0.621 0-0.931 0.028-0.959 0.056-1.919 0.085-2.878 0.014-0.254-0.071-0.437-0.282-0.607-0.593-0.522-1.171-1.044-1.735-1.594-1.383-1.326-2.765-2.667-4.134-3.993-0.127-0.127-0.24-0.254-0.395-0.339-0.099-0.056-0.254-0.056-0.381-0.028-0.818 0.155-1.566 0-2.159-0.578-0.691-0.663-0.875-1.496-0.607-2.413 0.268-0.861 0.889-1.369 1.75-1.566 1.383-0.325 2.78 0.804 2.765 2.229 0 0.296-0.099 0.593-0.127 0.889-0.014 0.099 0.014 0.24 0.071 0.31 0.945 0.945 1.891 1.877 2.85 2.808 0.451 0.451 0.917 0.889 1.383 1.34 0.522 0.508 1.044 1.016 1.566 1.524 0.127 0.127 0.198 0.113 0.325 0 1.651-1.665 3.316-3.302 4.966-4.981 1.030-1.044 0.974-2.709-0.099-3.781-2.695-2.695-5.404-5.39-8.099-8.085-1.044-1.044-2.088-2.088-3.132-3.132-0.536-0.536-1.157-0.861-1.919-0.889-0.649-0.028-1.256 0.183-1.75 0.621-0.437 0.395-0.847 0.804-1.256 1.213-3.429 3.414-6.843 6.829-10.272 10.258-0.536 0.536-0.861 1.185-0.861 1.947 0 0.748 0.282 1.397 0.804 1.919 2.737 2.737 5.474 5.474 8.212 8.212 1.016 1.016 2.046 2.032 3.062 3.062 0.762 0.762 1.665 1.030 2.709 0.776 0.48-0.127 0.875-0.395 1.227-0.748 1.185-1.171 2.356-2.356 3.541-3.527 0.071-0.071 0.183-0.099 0.282-0.141 0.042 0.113 0.127 0.212 0.127 0.325 0 0.663-0.014 1.34-0.042 2.004 0 0.099-0.056 0.212-0.127 0.282-0.903 0.889-1.778 1.82-2.723 2.667-1.058 0.945-2.328 1.298-3.739 1.072-1.016-0.155-1.848-0.635-2.568-1.355-3.739-3.753-7.492-7.506-11.245-11.245-0.72-0.72-1.199-1.566-1.34-2.582-0.212-1.453 0.141-2.751 1.171-3.795 3.753-3.795 7.534-7.563 11.302-11.344 0.734-0.734 1.58-1.27 2.624-1.439 1.425-0.212 2.723 0.071 3.767 1.072 1.947 1.877 3.852 3.81 5.771 5.728s3.838 3.838 5.757 5.757c0.72 0.72 1.213 1.58 1.355 2.596 0.198 1.467-0.155 2.78-1.213 3.852-1.778 1.792-3.57 3.57-5.347 5.362-0.155 0.155-0.212 0.296-0.212 0.508 0.014 1.806 0 3.612 0 5.404 0 0.423-0.24 0.762-0.621 0.861-0.395 0.113-0.804-0.042-1.002-0.409-0.071-0.127-0.113-0.296-0.113-0.451 0.014-0.578 0.014-1.171 0.028-1.764 0 0 0 0 0 0z"></path>
</svg>
