<?xml version="1.0" encoding="utf-8"?>
<!-- Generator: Adobe Illustrator 22.1.0, SVG Export Plug-In . SVG Version: 6.00 Build 0)  -->
<svg version="1.1" id="Layer_1" xmlns="http://www.w3.org/2000/svg" xmlns:xlink="http://www.w3.org/1999/xlink" x="0px" y="0px"
	 viewBox="0 0 226.8 226.8" style="enable-background:new 0 0 226.8 226.8;" xml:space="preserve">
<g>
	<path d="M165.7,202.6c0-2.2,0-4.4,0-6.6c0.2-6.8,0.4-13.6,0.6-20.4c0.1-1.8-0.5-3.1-2-4.3c-4.2-3.7-8.3-7.4-12.3-11.3
		c-9.8-9.4-19.6-18.9-29.3-28.3c-0.9-0.9-1.7-1.8-2.8-2.4c-0.7-0.4-1.8-0.4-2.7-0.2c-5.8,1.1-11.1,0-15.3-4.1
		c-4.9-4.7-6.2-10.6-4.3-17.1c1.9-6.1,6.3-9.7,12.4-11.1c9.8-2.3,19.7,5.7,19.6,15.8c0,2.1-0.7,4.2-0.9,6.3
		c-0.1,0.7,0.1,1.7,0.5,2.2c6.7,6.7,13.4,13.3,20.2,19.9c3.2,3.2,6.5,6.3,9.8,9.5c3.7,3.6,7.4,7.2,11.1,10.8c0.9,0.9,1.4,0.8,2.3,0
		c11.7-11.8,23.5-23.4,35.2-35.3c7.3-7.4,6.9-19.2-0.7-26.8C188,80.1,168.8,61,149.7,41.9c-7.4-7.4-14.8-14.8-22.2-22.2
		c-3.8-3.8-8.2-6.1-13.6-6.3c-4.6-0.2-8.9,1.3-12.4,4.4c-3.1,2.8-6,5.7-8.9,8.6C68.3,50.6,44.1,74.8,19.8,99.1
		c-3.8,3.8-6.1,8.4-6.1,13.8c0,5.3,2,9.9,5.7,13.6c19.4,19.4,38.8,38.8,58.2,58.2c7.2,7.2,14.5,14.4,21.7,21.7
		c5.4,5.4,11.8,7.3,19.2,5.5c3.4-0.9,6.2-2.8,8.7-5.3c8.4-8.3,16.7-16.7,25.1-25c0.5-0.5,1.3-0.7,2-1c0.3,0.8,0.9,1.5,0.9,2.3
		c0,4.7-0.1,9.5-0.3,14.2c0,0.7-0.4,1.5-0.9,2c-6.4,6.3-12.6,12.9-19.3,18.9c-7.5,6.7-16.5,9.2-26.5,7.6c-7.2-1.1-13.1-4.5-18.2-9.6
		c-26.5-26.6-53.1-53.2-79.7-79.7c-5.1-5.1-8.5-11.1-9.5-18.3c-1.5-10.3,1-19.5,8.3-26.9c26.6-26.9,53.4-53.6,80.1-80.4
		c5.2-5.2,11.2-9,18.6-10.2c10.1-1.5,19.3,0.5,26.7,7.6c13.8,13.3,27.3,27,40.9,40.6c13.6,13.6,27.2,27.2,40.8,40.8
		c5.1,5.1,8.6,11.2,9.6,18.4c1.4,10.4-1.1,19.7-8.6,27.3c-12.6,12.7-25.3,25.3-37.9,38c-1.1,1.1-1.5,2.1-1.5,3.6
		c0.1,12.8,0,25.6,0,38.3c0,3-1.7,5.4-4.4,6.1c-2.8,0.8-5.7-0.3-7.1-2.9c-0.5-0.9-0.8-2.1-0.8-3.2
		C165.6,211,165.6,206.8,165.7,202.6C165.7,202.6,165.7,202.6,165.7,202.6z"/>
</g>
</svg>
