<!-- Generated by IcoMoon.io -->
<svg version="1.1" xmlns="http://www.w3.org/2000/svg" width="32" height="32" viewBox="0 0 32 32">
<title>OK</title>
<path d="M15.2 10.914c-0.767-0.215-4.429-1.103-5.154-1.288-0.775-0.199-2.822-0.522-3.344 0.659s-1.902 4.479-2.377 5.682c-0.476 1.203 0.276 1.834 0.982 2.018s5.43 1.426 6.273 1.611 2.147 0.077 2.669-1.089c0.522-1.166 1.933-4.463 2.347-5.599s-0.629-1.779-1.396-1.994zM13.080 13.575c-0.203 0.557-0.946 2.274-1.202 2.846s-0.657 0.606-1.070 0.516c-0.414-0.090-2.198-0.517-2.544-0.607s-0.703-0.312-0.47-0.903c0.233-0.59 0.963-2.297 1.219-2.876s0.85-0.515 1.23-0.418c0.356 0.091 2.046 0.502 2.422 0.608s0.617 0.277 0.414 0.834zM23.997 16.658l4.199-2.525-3.566-0.903-5.361 3.428 1.852-4.291-2.991-0.759-3.647 8.674 3.014 0.782 1.358-3.279s2.6 0.679 3.037 0.805c0.437 0.127 0.357 0.495 0.265 0.782s-1.058 2.565-1.058 2.565l2.957 0.736s1.162-2.784 1.473-3.612c0.311-0.828 0.173-1.127-0.104-1.542s-1.426-0.863-1.426-0.863z"></path>
<path d="M15.998 0c-8.835 0-15.998 7.163-15.998 15.998s7.163 15.998 15.998 15.998c8.835 0 15.998-7.163 15.998-15.998s-7.163-15.998-15.998-15.998zM15.998 28.591c-6.955 0-12.593-5.638-12.593-12.593s5.638-12.593 12.593-12.593c6.955 0 12.593 5.638 12.593 12.593s-5.638 12.593-12.593 12.593z"></path>
</svg>
