<!-- Generated by IcoMoon.io -->
<svg version="1.1" xmlns="http://www.w3.org/2000/svg" width="32" height="32" viewBox="0 0 32 32">
<title>OKCOIN_USD</title>
<path d="M7.958 6.914c0.988-0.071 1.989 0 2.935 0.268 1.651 0.437 3.16 1.397 4.275 2.695 0.748 0.861 1.312 1.877 1.651 2.963 0.705 2.159 0.494 4.586-0.578 6.603-0.55 1.044-1.312 1.961-2.229 2.695-0.903 0.72-1.947 1.256-3.048 1.566-1.143 0.325-2.342 0.395-3.527 0.226-1.312-0.183-2.568-0.691-3.654-1.439-1.256-0.875-2.272-2.088-2.921-3.471-0.875-1.947-1.002-4.219-0.339-6.236 0.452-1.383 1.256-2.653 2.328-3.626 1.383-1.298 3.217-2.102 5.108-2.243zM8.085 9.383c-1.552 0.141-3.034 0.917-4.049 2.102-0.691 0.804-1.157 1.778-1.354 2.822-0.169 0.889-0.141 1.806 0.099 2.681 0.254 0.974 0.748 1.862 1.425 2.61 0.945 1.002 2.229 1.679 3.584 1.877 1.242 0.183 2.54-0.042 3.668-0.621 1.002-0.522 1.848-1.312 2.427-2.286 0.578-0.959 0.875-2.074 0.861-3.189-0.014-1.467-0.593-2.921-1.58-4.007-0.72-0.79-1.637-1.397-2.653-1.721-0.776-0.254-1.608-0.339-2.427-0.268zM27.88 6.899c0.042-0.028 0.099-0.014 0.141-0.028 1.129 0.014 2.258 0 3.386 0 0.113 0.014 0.198 0.113 0.183 0.212 0 1.129 0.014 2.272 0.014 3.4-0.014 0.155-0.226 0.226-0.325 0.113-0.226-0.226-0.451-0.451-0.677-0.677-0.042-0.042-0.113-0.071-0.183-0.056-0.099 0.028-0.155 0.127-0.226 0.198-0.621 0.607-1.227 1.227-1.848 1.834-0.832 0.832-1.679 1.665-2.511 2.497-0.127 0.127-0.268 0.24-0.381 0.381-0.071 0.071-0.056 0.183 0 0.254 2.102 2.808 4.219 5.616 6.335 8.423 0.042 0.071 0.113 0.127 0.099 0.212-0.014 0.099-0.099 0.198-0.198 0.183-0.945 0-1.877 0-2.822 0-0.056 0.014-0.127-0.028-0.155-0.085-1.693-2.229-3.386-4.459-5.079-6.688-0.056-0.071-0.099-0.155-0.198-0.183-0.071-0.028-0.155 0.028-0.198 0.071-0.677 0.677-1.355 1.355-2.018 2.018-0.071 0.071-0.155 0.141-0.198 0.24s-0.028 0.198-0.028 0.296c0 1.369 0 2.737 0 4.106 0.014 0.113-0.099 0.212-0.212 0.212-0.762 0-1.51 0-2.272 0-0.113 0-0.198-0.113-0.183-0.212 0-5.446 0-10.892 0-16.339 0-0.071-0.028-0.169 0.028-0.24 0.028-0.056 0.099-0.099 0.155-0.099 0.762 0 1.51 0 2.272 0 0.113-0.014 0.212 0.113 0.212 0.226 0 2.624 0 5.263 0 7.901-0.014 0.113 0.099 0.226 0.212 0.212 0.071-0.014 0.127-0.085 0.183-0.141 0.79-0.776 1.552-1.552 2.328-2.314 0.889-0.903 1.806-1.778 2.695-2.681 0.649-0.649 1.312-1.298 1.947-1.947 0.056-0.071 0.169-0.141 0.155-0.24-0.014-0.127-0.113-0.183-0.198-0.254-0.155-0.169-0.339-0.325-0.494-0.494-0.099-0.071-0.056-0.254 0.056-0.31zM7.069 10.991c0-0.099 0.085-0.183 0.183-0.183 0.254 0 0.508 0 0.762 0 0.099-0.014 0.198 0.071 0.198 0.183 0 0.226 0 0.451 0 0.663 0 0.042 0.042 0.085 0.071 0.085 0.155 0 0.296 0 0.451 0 0.056 0 0.085-0.056 0.085-0.113 0-0.212-0.014-0.409 0-0.635-0.014-0.099 0.085-0.183 0.183-0.183 0.254 0 0.508 0 0.762 0 0.099-0.014 0.198 0.071 0.183 0.183 0 0.24-0.014 0.494 0 0.748 0.028 0.042 0.099 0.028 0.141 0.042 0.55 0.056 1.143 0.198 1.566 0.593 0.367 0.339 0.48 0.861 0.437 1.34-0.028 0.395-0.183 0.804-0.466 1.086-0.183 0.198-0.423 0.339-0.677 0.423 0.508 0.085 1.002 0.367 1.256 0.832 0.254 0.423 0.268 0.945 0.169 1.397-0.085 0.437-0.325 0.832-0.677 1.086-0.466 0.367-1.058 0.536-1.651 0.607-0.042 0.014-0.113 0-0.113 0.056-0.014 0.254 0 0.494 0 0.748 0 0.099-0.085 0.183-0.183 0.183-0.268 0-0.522 0-0.776 0-0.099 0-0.198-0.071-0.183-0.183-0.014-0.226 0-0.451-0.014-0.663 0.014-0.056-0.042-0.113-0.113-0.113-0.127-0.014-0.268-0.014-0.395 0-0.056-0.014-0.113 0.028-0.113 0.085 0 0.226 0.014 0.451 0 0.677 0 0.099-0.099 0.183-0.198 0.169-0.254 0-0.508 0-0.762 0-0.099 0.014-0.183-0.071-0.183-0.155-0.014-0.212 0-0.423-0.014-0.635-0.014-0.099-0.113-0.141-0.212-0.141-0.367-0.014-0.72 0-1.086 0-0.099 0-0.183-0.071-0.183-0.169 0-0.268 0-0.522 0-0.79-0.014-0.099 0.071-0.183 0.183-0.183 0.296 0 0.607 0.014 0.903 0 0.071 0 0.113-0.085 0.113-0.141 0-1.552 0-3.104 0-4.642 0-0.113 0-0.212-0.014-0.31-0.028-0.085-0.127-0.113-0.212-0.113-0.268-0.014-0.536 0-0.79 0-0.099 0-0.183-0.085-0.183-0.183 0-0.24 0-0.48 0-0.734-0.014-0.099 0.085-0.183 0.183-0.183 0.367-0.014 0.734 0 1.115-0.014 0.099 0.014 0.183-0.071 0.183-0.169 0.071-0.169 0.056-0.353 0.071-0.55zM8.31 12.882c-0.028 0.028-0.028 0.056-0.028 0.099 0 0.578 0 1.171 0 1.75 0 0.071 0.085 0.099 0.141 0.085 0.353 0 0.691 0.014 1.044-0.014 0.296-0.028 0.607-0.127 0.818-0.339 0.226-0.226 0.296-0.578 0.24-0.889-0.042-0.212-0.169-0.409-0.353-0.522-0.268-0.155-0.578-0.198-0.889-0.212-0.31 0.014-0.621 0-0.931 0.014l-0.042 0.028zM8.31 15.915c-0.028 0.028-0.028 0.071-0.028 0.113 0 0.635 0 1.27 0 1.905-0.014 0.056 0.056 0.113 0.113 0.099 0.339 0 0.677 0.014 1.030 0 0.395-0.014 0.804-0.113 1.086-0.395 0.325-0.339 0.395-0.945 0.056-1.312-0.268-0.296-0.691-0.395-1.072-0.423-0.381-0.014-0.762-0.014-1.143-0.014 0 0.014-0.014 0.028-0.042 0.028z"></path>
</svg>
