<!-- Generated by IcoMoon.io -->
<svg version="1.1" xmlns="http://www.w3.org/2000/svg" width="32" height="32" viewBox="0 0 32 32">
<title>OKEX</title>
<path d="M23.252 7.252c0 4.005-3.247 7.252-7.252 7.252s-7.252-3.247-7.252-7.252c0-4.005 3.247-7.252 7.252-7.252s7.252 3.247 7.252 7.252z"></path>
<path d="M23.252 24.748c0 4.005-3.247 7.252-7.252 7.252s-7.252-3.247-7.252-7.252c0-4.005 3.247-7.252 7.252-7.252s7.252 3.247 7.252 7.252z"></path>
<path d="M32 16c0 4.005-3.247 7.252-7.252 7.252s-7.252-3.247-7.252-7.252c0-4.005 3.247-7.252 7.252-7.252s7.252 3.247 7.252 7.252z"></path>
<path d="M14.504 16c0 4.005-3.247 7.252-7.252 7.252s-7.252-3.247-7.252-7.252c0-4.005 3.247-7.252 7.252-7.252s7.252 3.247 7.252 7.252z"></path>
<path d="M14.293 14.293c-2.624-0.649-4.698-2.709-5.333-5.333 2.624 0.635 4.684 2.709 5.333 5.333z"></path>
<path d="M8.959 23.041c0.635-2.624 2.709-4.698 5.333-5.333-0.649 2.624-2.709 4.698-5.333 5.333z"></path>
<path d="M17.707 17.707c2.624 0.635 4.698 2.709 5.333 5.333-2.624-0.635-4.684-2.709-5.333-5.333z"></path>
<path d="M23.041 8.959c-0.635 2.624-2.709 4.698-5.333 5.333 0.649-2.624 2.709-4.698 5.333-5.333z"></path>
</svg>
