<!-- Generated by IcoMoon.io -->
<svg version="1.1" xmlns="http://www.w3.org/2000/svg" width="32" height="32" viewBox="0 0 32 32">
<title>OMG</title>
<path d="M7.744 16.516c-4.272 0-7.735 3.466-7.735 7.742s3.463 7.742 7.735 7.742c4.272 0 7.736-3.466 7.736-7.742s-3.463-7.742-7.736-7.742h-0zM7.744 29.658c-2.978 0-5.393-2.417-5.393-5.398s2.415-5.398 5.393-5.398c2.979 0 5.393 2.417 5.393 5.398-0.005 2.979-2.417 5.392-5.393 5.398zM24.264 0c-4.272 0-7.735 3.466-7.735 7.742s3.463 7.742 7.735 7.742c4.273 0 7.736-3.466 7.736-7.742s-3.463-7.742-7.736-7.742zM24.264 13.142c-2.978 0-5.392-2.417-5.392-5.397s2.414-5.398 5.392-5.398c2.979 0 5.393 2.417 5.393 5.398-0.005 2.979-2.417 5.392-5.393 5.397zM7.744 0c-3.683-0.002-6.857 2.594-7.589 6.206s1.181 7.241 4.573 8.675c3.393 1.434 7.325 0.277 9.402-2.767s1.723-7.131-0.846-9.772h2.194v-2.342h-7.734zM13.137 7.742c0 2.981-2.414 5.397-5.393 5.397s-5.393-2.416-5.393-5.397 2.415-5.398 5.393-5.398c2.977 0.004 5.391 2.418 5.396 5.398h-0.003z"></path>
</svg>
