<!-- Generated by IcoMoon.io -->
<svg version="1.1" xmlns="http://www.w3.org/2000/svg" width="32" height="32" viewBox="0 0 32 32">
<title>OMNI</title>
<path d="M6.503 1.42h-5.104v5.115c1.349-2.056 3.052-3.762 5.039-5.074l0.065-0.041zM30.511 6.398v-4.978h-5.014c2.007 1.323 3.678 2.983 4.974 4.915l0.040 0.063zM25.57 30.532h4.941v-4.93c-1.32 1.971-2.966 3.614-4.877 4.89l-0.064 0.040zM1.399 25.465v5.066h5.031c-2.020-1.346-3.698-3.035-4.99-5l-0.041-0.066z"></path>
<path d="M32 16c0-8.822-7.178-16-16-16s-16 7.178-16 16c0 8.822 7.178 16 16 16s16-7.177 16-16zM16 27.667c-6.433 0-11.667-5.234-11.667-11.667s5.234-11.667 11.667-11.667c6.433 0 11.667 5.234 11.667 11.667s-5.234 11.667-11.667 11.667z"></path>
</svg>
