<?xml version="1.0" encoding="utf-8"?>
<!-- Generator: Adobe Illustrator 22.1.0, SVG Export Plug-In . SVG Version: 6.00 Build 0)  -->
<svg version="1.1" id="Layer_1" xmlns="http://www.w3.org/2000/svg" xmlns:xlink="http://www.w3.org/1999/xlink" x="0px" y="0px"
	 viewBox="0 0 226.8 226.8" style="enable-background:new 0 0 226.8 226.8;" xml:space="preserve">
<g>
	<path d="M87.4,0.1c5.6-0.6,10.4,0.6,15,3c4.6,2.4,8,6.1,10.9,10.7c6-9.5,14.3-14.1,26-13.8c-0.7,1.4-1.1,2.4-1.6,3.4
		c-3.1,6-4.8,12.4-4.3,19.2c0.4,5.5,2.7,10.3,6.1,14.5c6.2,7.7,12.5,15.3,19.2,22.6c9.7,10.7,20,20.9,29.6,31.7
		c10.4,11.7,17.3,25.3,19.9,40.8c1.2,7.1,1.2,14.2,0.3,21.4c-2.6,19-11.6,34.5-25.5,47.4c-11.6,10.8-25.4,17.8-40.6,21.9
		c-11.7,3.1-23.6,4.4-35.6,3.6c-16.2-1-31.7-5-45.9-13.1c-18.3-10.4-31.8-25.1-39.1-45c-3.2-8.8-4.5-17.9-4.2-27.3
		c0.3-6.6,1.4-13,3.3-19.2c3.7-12,10-22.6,18.5-31.8C48.8,80,58.6,70.1,68.1,59.9c7.1-7.5,13.9-15.2,20-23.7
		c7.3-10.2,6.5-20.6,1.7-31.3C89.1,3.4,88.3,1.9,87.4,0.1z M113.5,42.5c-0.3,0.2-0.5,0.4-0.7,0.6c-2.7,3.1-5.3,6.3-8,9.4
		c-0.9,1-0.4,1.5,0.3,2.2c14.6,14.8,29.4,29.4,45,43.2c7.7,6.8,14.9,14.2,20.4,22.9c6,9.5,9,19.6,6.7,30.9
		c-2.1,10.5-7.5,19.1-15.5,26c-12.8,10.8-27.9,15.7-44.4,16.7c-11.1,0.6-21.9-1.2-32.4-5.1c-9.4-3.5-17.7-8.5-24.4-16
		c-11.9-13.3-15.6-31.2-6.8-47.9c5.3-10,12.9-18,21.1-25.6c8-7.4,16-14.8,24.1-22.1c1.3-1.1,1.3-1.9,0-3c-2.2-1.9-4.3-4-6.3-6.1
		c-1.1-1.2-1.8-1.2-3.1,0c-7.4,7.1-14.9,14-22.3,21c-8.6,8.2-16.8,16.8-23,27c-7.1,11.9-10,24.5-7.1,38.2
		c3,14.1,10.4,25.5,21.5,34.4c10.5,8.4,22.4,13.4,35.5,16.2c10.7,2.3,21.4,2.7,32.1,1.2c10.1-1.4,19.9-4.4,29.1-9.1
		c10-5.2,18.6-12,25.2-21.3c5.9-8.4,9.5-17.8,10.3-28c0.8-9.9-1.4-19.3-5.9-28.1c-5.2-10.1-12.3-18.8-20.4-26.6
		c-10-9.7-20.4-18.9-30.4-28.5c-5.8-5.6-11.2-11.6-16.7-17.5C116,45.9,114.8,44.2,113.5,42.5z M93.4,123.7c-2.7-2.8-5.4-5.7-8.1-8.5
		c-0.7-0.7-1.2-0.6-1.9,0.1c-4.7,4.9-9.2,10-12.6,15.9c-5.9,10.3-5.5,20.5,2.9,29.5c6.1,6.5,13.7,10.4,22.2,12.5
		c12.1,3,24.2,2.8,36.3-0.5c8-2.2,15-6.1,20.6-12.3c5.7-6.3,8.2-13.6,5.6-21.9c-1.1-3.6-3-7.1-5-10.4c-3-5-7-9.3-10.6-12.8
		c-3.4,3-6.7,5.9-9.8,8.7c2.3,2.7,4.5,5,6.3,7.6c6.2,9,4.7,17.2-4.1,23.6c-4.7,3.4-10,5.2-15.6,6.1c-10.4,1.6-20.1-0.3-28.9-6.2
		c-3.7-2.5-6.6-5.8-7.4-10.6c-0.8-4.5,0.6-8.4,3-12C88.6,129.4,91,126.7,93.4,123.7z M113.5,89.5c-6.1-0.2-11.1,3.1-12.9,9.4
		c-1.5,5.2-0.3,10.3,5,14.2c1.3,0.9,1.6,1.8,1.3,3.4c-1.5,8.1-2.9,16.2-4.3,24.3c-0.1,0.5,0.3,1.4,0.7,1.6c6.6,3,13.2,3.3,19.8,0.3
		c1-0.5,1.3-1.1,1.1-2.3c-1.4-8-2.7-16.1-4.2-24.1c-0.3-1.6,0.2-2.3,1.3-3.2c2.8-2,4.6-4.8,5.2-8.1C128,96.6,122.1,89.7,113.5,89.5z
		"/>
</g>
</svg>
