<!-- Generated by IcoMoon.io -->
<svg version="1.1" xmlns="http://www.w3.org/2000/svg" width="32" height="32" viewBox="0 0 32 32">
<title>ONION</title>
<path d="M12.332 0.014c0.79-0.085 1.467 0.085 2.116 0.423s1.129 0.861 1.538 1.51c0.847-1.34 2.018-1.989 3.668-1.947-0.099 0.198-0.155 0.339-0.226 0.48-0.437 0.847-0.677 1.75-0.607 2.709 0.056 0.776 0.381 1.453 0.861 2.046 0.875 1.086 1.764 2.159 2.709 3.189 1.369 1.51 2.822 2.949 4.176 4.473 1.467 1.651 2.441 3.57 2.808 5.757 0.169 1.002 0.169 2.004 0.042 3.019-0.367 2.681-1.637 4.868-3.598 6.688-1.637 1.524-3.584 2.511-5.728 3.090-1.651 0.437-3.33 0.621-5.023 0.508-2.286-0.141-4.473-0.705-6.476-1.848-2.582-1.467-4.487-3.541-5.517-6.349-0.452-1.242-0.635-2.526-0.593-3.852 0.042-0.931 0.198-1.834 0.466-2.709 0.522-1.693 1.411-3.189 2.61-4.487 1.326-1.425 2.709-2.822 4.049-4.261 1.002-1.058 1.961-2.145 2.822-3.344 1.030-1.439 0.917-2.907 0.24-4.416-0.099-0.212-0.212-0.423-0.339-0.677zM16.014 5.996c-0.042 0.028-0.071 0.056-0.099 0.085-0.381 0.437-0.748 0.889-1.129 1.326-0.127 0.141-0.056 0.212 0.042 0.31 2.060 2.088 4.148 4.148 6.349 6.095 1.086 0.959 2.102 2.004 2.878 3.231 0.847 1.34 1.27 2.765 0.945 4.36-0.296 1.481-1.058 2.695-2.187 3.668-1.806 1.524-3.936 2.215-6.265 2.356-1.566 0.085-3.090-0.169-4.571-0.72-1.326-0.494-2.497-1.199-3.443-2.258-1.679-1.877-2.201-4.402-0.959-6.758 0.748-1.411 1.82-2.54 2.977-3.612 1.129-1.044 2.258-2.088 3.4-3.118 0.183-0.155 0.183-0.268 0-0.423-0.31-0.268-0.607-0.564-0.889-0.861-0.155-0.169-0.254-0.169-0.437 0-1.044 1.002-2.102 1.975-3.146 2.963-1.213 1.157-2.37 2.37-3.245 3.81-1.002 1.679-1.411 3.457-1.002 5.39 0.423 1.989 1.467 3.598 3.034 4.854 1.481 1.185 3.161 1.891 5.009 2.286 1.51 0.325 3.019 0.381 4.529 0.169 1.425-0.198 2.808-0.621 4.106-1.284 1.411-0.734 2.624-1.693 3.556-3.005 0.832-1.185 1.34-2.511 1.453-3.951 0.113-1.397-0.198-2.723-0.832-3.965-0.734-1.425-1.735-2.653-2.878-3.753-1.411-1.369-2.878-2.667-4.289-4.021-0.818-0.79-1.58-1.637-2.356-2.469-0.198-0.226-0.367-0.466-0.55-0.705zM13.178 17.453c-0.381-0.395-0.762-0.804-1.143-1.199-0.099-0.099-0.169-0.085-0.268 0.014-0.663 0.691-1.298 1.411-1.778 2.243-0.832 1.453-0.776 2.892 0.409 4.162 0.861 0.917 1.933 1.467 3.132 1.764 1.707 0.423 3.414 0.395 5.122-0.071 1.129-0.31 2.116-0.861 2.907-1.735 0.804-0.889 1.157-1.919 0.79-3.090-0.155-0.508-0.423-1.002-0.705-1.467-0.423-0.705-0.988-1.312-1.496-1.806-0.48 0.423-0.945 0.832-1.383 1.227 0.325 0.381 0.635 0.705 0.889 1.072 0.875 1.27 0.663 2.427-0.578 3.33-0.663 0.48-1.411 0.734-2.201 0.861-1.467 0.226-2.836-0.042-4.078-0.875-0.522-0.353-0.931-0.818-1.044-1.496-0.113-0.635 0.085-1.185 0.423-1.693 0.325-0.437 0.663-0.818 1.002-1.242zM16.014 12.628c-0.861-0.028-1.566 0.437-1.82 1.326-0.212 0.734-0.042 1.453 0.705 2.004 0.183 0.127 0.226 0.254 0.183 0.48-0.212 1.143-0.409 2.286-0.607 3.429-0.014 0.071 0.042 0.198 0.099 0.226 0.931 0.423 1.862 0.466 2.794 0.042 0.141-0.071 0.183-0.155 0.155-0.325-0.198-1.129-0.381-2.272-0.593-3.4-0.042-0.226 0.028-0.325 0.183-0.451 0.395-0.282 0.649-0.677 0.734-1.143 0.212-1.185-0.621-2.159-1.834-2.187z"></path>
</svg>
