<!-- Generated by IcoMoon.io -->
<svg version="1.1" xmlns="http://www.w3.org/2000/svg" width="32" height="32" viewBox="0 0 32 32">
<title>ONT</title>
<path d="M0.24 0.931c0.141 0.113 0.282 0.226 0.409 0.353 8.339 8.339 16.677 16.677 25.016 25.030 0.522 0.522 0.494 0.564-0.056 1.072-2.286 2.116-5.009 3.4-8.056 3.795-2.638 0.339-5.277 0.155-7.802-0.889-4.938-2.032-8.014-5.672-9.326-10.78-0.31-1.213-0.367-2.511-0.381-3.781-0.042-4.656-0.014-9.312-0.014-13.968 0-0.268 0.042-0.522 0.056-0.79 0.042-0.014 0.099-0.028 0.155-0.042z"></path>
<path d="M31.887 31.224c-0.282-0.24-0.423-0.367-0.564-0.508-8.339-8.339-16.677-16.677-25.016-25.016-0.508-0.508-0.494-0.494 0.071-1.016 1.919-1.806 4.176-3.019 6.744-3.57 4.882-1.044 9.369-0.127 13.277 3.048 3.189 2.596 4.995 5.982 5.503 10.046 0.099 0.804 0.099 1.608 0.099 2.427 0.014 3.908 0 7.802 0 11.711 0 0.748 0 1.51 0 2.258-0.014 0.155-0.056 0.31-0.113 0.621z"></path>
</svg>
