<?xml version="1.0" encoding="utf-8"?>
<!-- Generator: Adobe Illustrator 22.1.0, SVG Export Plug-In . SVG Version: 6.00 Build 0)  -->
<svg version="1.1" id="Layer_1" xmlns="http://www.w3.org/2000/svg" xmlns:xlink="http://www.w3.org/1999/xlink" x="0px" y="0px"
	 viewBox="0 0 226.8 226.8" style="enable-background:new 0 0 226.8 226.8;" xml:space="preserve">
<g>
	<path d="M1.7,6.6c1,0.8,2,1.6,2.9,2.5c59.1,59.1,118.2,118.2,177.3,177.4c3.7,3.7,3.5,4-0.4,7.6c-16.2,15-35.5,24.1-57.1,26.9
		c-18.7,2.4-37.4,1.1-55.3-6.3c-35-14.4-56.8-40.2-66.1-76.4c-2.2-8.6-2.6-17.8-2.7-26.8c-0.3-33-0.1-66-0.1-99
		c0-1.9,0.3-3.7,0.4-5.6C0.9,6.8,1.3,6.7,1.7,6.6z"/>
	<path d="M226,221.3c-2-1.7-3-2.6-4-3.6C162.9,158.6,103.8,99.5,44.7,40.4c-3.6-3.6-3.5-3.5,0.5-7.2C58.8,20.4,74.8,11.8,93,7.9
		c34.6-7.4,66.4-0.9,94.1,21.6c22.6,18.4,35.4,42.4,39,71.2c0.7,5.7,0.7,11.4,0.7,17.2c0.1,27.7,0,55.3,0,83c0,5.3,0,10.7,0,16
		C226.7,218,226.4,219.1,226,221.3z"/>
</g>
</svg>
