<!-- Generated by IcoMoon.io -->
<svg version="1.1" xmlns="http://www.w3.org/2000/svg" width="32" height="32" viewBox="0 0 32 32">
<title>OPAL</title>
<path d="M15.669 0l-6.405 3.698 6.405 3.698zM8.579 11.493v-7.396l-6.405 3.698zM8.579 19.722v-7.396l-6.405 3.698zM8.579 27.952v-7.396l-6.405 3.698zM1.961 16.44v7.396l6.405-3.698zM1.961 8.211v7.396l6.405-3.698zM9.067 4.097v7.396l6.405-3.698zM15.669 32v-7.396l-6.405 3.698zM9.067 20.507v7.396l6.405-3.698zM16.182 0v7.396l6.405-3.698zM23.273 4.097v7.396l6.405-3.698zM23.273 12.326v7.396l6.405-3.698zM23.273 27.952l6.405-3.698-6.405-3.698zM29.891 23.837v-7.396l-6.405 3.698zM23.486 11.91l6.405 3.698v-7.396zM22.785 11.493v-7.396l-6.405 3.698zM16.182 32l6.405-3.698-6.405-3.698zM22.785 27.903v-7.396l-6.405 3.698z"></path>
</svg>
