<!-- Generated by IcoMoon.io -->
<svg version="1.1" xmlns="http://www.w3.org/2000/svg" width="32" height="32" viewBox="0 0 32 32">
<title>OPENLEDGER</title>
<path d="M22.787 18.187c0 1.735 0 3.457 0 5.192 0 0.677-0.028 0.691-0.705 0.691-2.427 0-4.854 0-7.295 0-0.677 0-0.691-0.028-0.691-0.705 0-0.522 0.028-1.058-0.014-1.58-0.028-0.494 0.183-0.649 0.649-0.635 1.298 0.028 2.582 0.014 3.88 0 0.24 0 0.649-0.099 0.663-0.212 0.071-0.395 0.028-0.818-0.042-1.213-0.014-0.071-0.395-0.113-0.593-0.113-2.765-0.014-5.517 0-8.282-0.014-1.439 0-1.256 0.169-1.27-1.256-0.014-3.259 0-6.519 0-9.792 0-0.804 0-0.804 0.79-0.804 2.907 0 5.827 0 8.734 0 0.734 0 0.734 0.014 0.734 0.734 0 0.522-0.014 1.058 0 1.58 0.028 0.451-0.155 0.621-0.607 0.607-1.792-0.014-3.584 0-5.39 0-0.974 0-0.974 0-0.974 0.945 0 1.496 0.014 2.977 0 4.473 0 0.451 0.141 0.621 0.607 0.621 1.933-0.014 3.852-0.014 5.785 0 0.423 0 0.607-0.141 0.564-0.578-0.014-0.127-0.014-0.268 0-0.395 0.056-0.466-0.169-0.607-0.607-0.607-1.34 0.014-2.667-0.014-4.007 0.014-0.48 0.014-0.677-0.155-0.649-0.649 0.028-0.593 0.014-1.185 0-1.778-0.014-0.367 0.155-0.508 0.508-0.508 2.568 0 5.122 0.014 7.69 0 0.494 0 0.508 0.282 0.508 0.649 0.014 1.778 0.014 3.556 0.014 5.333z"></path>
<path d="M0.014 15.972c-0.127-7.323 5.277-14.152 12.981-15.478 1.044-0.183 2.13-0.198 3.203-0.254 0.691-0.028 1.072 0.324 1.086 0.861 0.014 0.564-0.409 0.903-1.129 0.889-5.178-0.056-9.27 2.060-12.134 6.349-4.84 7.21-1.665 17.157 6.434 20.43 1.792 0.72 3.64 1.086 5.573 1.044 0.113 0 0.226-0.014 0.325 0 0.564 0.028 0.931 0.395 0.917 0.903-0.014 0.48-0.353 0.861-0.903 0.847-0.988-0.014-1.989 0-2.949-0.169-6.039-1.086-10.258-4.459-12.515-10.187-0.649-1.707-0.959-3.499-0.889-5.235z"></path>
<path d="M19.245 0.508c0.55 0 0.917 0.339 0.931 0.861 0.014 0.55-0.381 0.903-0.959 0.903-0.55 0-0.917-0.353-0.931-0.861-0.014-0.55 0.381-0.903 0.959-0.903z"></path>
<path d="M23.055 2.314c0 0.494-0.423 0.875-0.945 0.875s-0.931-0.395-0.931-0.889c0-0.494 0.423-0.875 0.945-0.875 0.522 0.014 0.945 0.395 0.931 0.889z"></path>
<path d="M25.947 3.951c-0.042 0.48-0.48 0.847-1.002 0.804-0.522-0.028-0.917-0.452-0.875-0.945s0.48-0.847 1.002-0.804c0.522 0.042 0.917 0.451 0.875 0.945z"></path>
<path d="M27.217 5.108c0.522-0.014 0.945 0.367 0.959 0.847 0.014 0.494-0.395 0.889-0.917 0.903s-0.945-0.367-0.959-0.847c-0.014-0.494 0.395-0.889 0.917-0.903z"></path>
<path d="M29.22 9.369c-0.522 0-0.945-0.381-0.945-0.875s0.409-0.875 0.945-0.875c0.522 0 0.945 0.381 0.945 0.875-0.014 0.48-0.423 0.875-0.945 0.875z"></path>
<path d="M30.377 10.497c0.522-0.014 0.945 0.367 0.959 0.861s-0.395 0.889-0.917 0.903c-0.522 0.014-0.945-0.367-0.959-0.861s0.395-0.889 0.917-0.903z"></path>
<path d="M32 14.377c0.014 0.494-0.381 0.889-0.917 0.903-0.522 0.014-0.945-0.353-0.974-0.847-0.014-0.494 0.381-0.889 0.917-0.903 0.522-0.028 0.959 0.353 0.974 0.847z"></path>
<path d="M32 17.538c0.014 0.494-0.395 0.889-0.931 0.889-0.522 0.014-0.945-0.367-0.959-0.861s0.395-0.889 0.917-0.889c0.536-0.014 0.959 0.367 0.974 0.861z"></path>
<path d="M20.162 30.575c-0.014 0.494-0.423 0.875-0.959 0.861-0.522-0.014-0.931-0.395-0.931-0.889 0.014-0.494 0.423-0.875 0.959-0.861s0.945 0.409 0.931 0.889z"></path>
<path d="M23.055 29.63c0.014 0.494-0.395 0.889-0.917 0.889-0.522 0.014-0.945-0.367-0.959-0.861s0.395-0.889 0.917-0.889c0.536-0.014 0.959 0.367 0.959 0.861z"></path>
<path d="M25.947 28.078c0 0.494-0.409 0.875-0.945 0.875s-0.945-0.381-0.945-0.875c0-0.494 0.409-0.875 0.945-0.875 0.536-0.014 0.945 0.381 0.945 0.875z"></path>
<path d="M27.189 26.85c-0.522-0.028-0.917-0.437-0.889-0.931s0.466-0.847 0.988-0.818c0.522 0.028 0.917 0.437 0.889 0.931-0.028 0.48-0.466 0.832-0.988 0.818z"></path>
<path d="M29.22 22.462c0.522 0 0.931 0.395 0.931 0.889s-0.423 0.875-0.945 0.861c-0.522 0-0.931-0.395-0.931-0.889 0-0.48 0.423-0.861 0.945-0.861z"></path>
<path d="M30.349 21.46c-0.522-0.028-0.917-0.437-0.889-0.931 0.028-0.48 0.466-0.847 0.988-0.818s0.917 0.437 0.889 0.931c-0.028 0.48-0.466 0.847-0.988 0.818z"></path>
</svg>
