<!-- Generated by IcoMoon.io -->
<svg version="1.1" xmlns="http://www.w3.org/2000/svg" width="32" height="32" viewBox="0 0 32 32">
<title>ORME</title>
<path d="M0.115 16c-0.141-8.627 7.117-15.987 15.949-16 8.525-0.013 16.038 6.925 16.026 16.038-0.013 8.794-7.206 15.974-16.026 15.962-9.062-0.013-16.090-7.539-15.949-16zM31.59 16.038c0.090-8.064-6.413-15.526-15.462-15.552-9.203-0.026-15.539 7.578-15.565 15.462-0.026 8.269 6.771 15.565 15.475 15.565 8.576 0 15.552-6.925 15.552-15.475z"></path>
<path d="M2.662 16.154c-0.269 0-0.474 0-0.742 0-0.051 1.766 0.282 3.443 0.96 5.030 2.355 5.504 6.605 8.41 12.506 9.024 0.179-0.166 0.294-0.32 0.448-0.422 0.282-0.179 0.614-0.179 0.794 0.102 0.102 0.166 0.115 0.486 0.038 0.666-0.141 0.307-0.435 0.333-0.768 0.218-0.474-0.166-0.973-0.333-1.472-0.384-6.195-0.64-11.507-5.555-12.621-11.686-1.485-8.141 3.738-15.706 11.891-17.101s15.603 4.339 16.768 12.173c1.165 7.795-3.994 14.669-10.982 16.32-0.781 0.179-1.587 0.269-2.381 0.397-0.026-0.077-0.038-0.166-0.064-0.243 0.23-0.064 0.461-0.154 0.704-0.179 6.323-0.678 11.494-5.798 12.403-12.032 1.114-7.629-4.019-14.81-11.738-16.115-7.462-1.267-14.643 3.648-16.23 11.059-0.192 0.87-0.23 1.779-0.358 2.739 0.307 0.026 0.538 0.038 0.858 0.064 0.102-3.392 1.254-6.323 3.469-8.819 0.205-0.23 0.422-0.435 0.64-0.64 0.064 0.064 0.128 0.115 0.192 0.179-0.384 0.461-0.781 0.896-1.139 1.37-0.371 0.499-0.742 1.011-1.062 1.549s-0.589 1.114-0.819 1.69c-0.23 0.576-0.422 1.178-0.563 1.792-0.141 0.602-0.256 1.229-0.307 1.856-0.051 0.653-0.051 1.306-0.013 1.958 0.026 0.627 0.102 1.254 0.218 1.869s0.294 1.216 0.512 1.805c0.218 0.589 0.474 1.165 0.781 1.715 0.294 0.55 0.627 1.088 0.998 1.587s0.781 0.986 1.216 1.434c0.435 0.448 0.922 0.858 1.408 1.242 4.378 3.341 10.227 3.379 14.221 0.922-0.090-0.192-0.179-0.397-0.32-0.678-2.906 1.536-5.901 1.946-9.062 1.203-3.059-0.717-6.515-3.443-7.168-5.427 4.646 5.619 10.15 7.283 16.602 3.533 4.237-2.458 5.85-7.334 5.389-10.726-0.192-0.013-0.384-0.026-0.64-0.038-0.077 0.832-0.128 1.613-0.23 2.381-0.678 5.184-5.146 9.267-10.355 9.434-0.922 0.026-1.843-0.115-2.765-0.166-0.256-0.013-0.55-0.026-0.794 0.051-0.384 0.128-0.691 0.038-0.794-0.32-0.051-0.205 0.051-0.563 0.218-0.704 0.294-0.256 0.614-0.115 0.832 0.205 0.077 0.115 0.128 0.23 0.218 0.384 4.442 0.832 8.23-0.333 10.982-3.942 2.803-3.648 3.059-7.68 0.87-11.75-1.997-3.738-6.182-5.606-8.832-5.363-0.026 0.192-0.051 0.397-0.077 0.678 3.302 0.282 5.914 1.715 7.782 4.416 1.19 1.741 1.741 3.699 1.69 5.798-0.090 3.328-2.125 6.707-4.429 7.706 0.832-0.845 1.587-1.613 2.381-2.419-0.294-0.218-0.474-0.346-0.717-0.525-1.229 1.574-2.714 2.739-4.608 3.29-0.691 0.205-1.395 0.448-2.176 0.141 0.384-0.090 0.768-0.179 1.203-0.282-0.038-0.243-0.077-0.448-0.102-0.55-1.229-0.128-2.406-0.179-3.533-0.41-1.114-0.218-2.086-0.806-2.906-1.587 0.038-0.064 0.064-0.115 0.102-0.179 0.154 0.077 0.307 0.128 0.435 0.23 4.275 3.238 10.304 1.075 11.482-4.147 0.55-2.458-0.090-4.646-1.792-6.502-0.218-0.243-0.448-0.448-0.819-0.448-0.397 0-0.589-0.269-0.538-0.666 0.038-0.32 0.243-0.486 0.55-0.486 0.358-0.013 0.55 0.179 0.602 0.538 0.026 0.179 0.064 0.384 0.166 0.525 0.627 0.845 1.28 1.677 1.984 2.586 0.102-0.038 0.32-0.115 0.602-0.218-0.96-2.253-2.534-3.789-4.723-4.698-1.126-0.474-2.317-0.64-3.533-0.538-0.269 0.026-0.538 0.179-0.781 0.333-0.294 0.192-0.602 0.269-0.794-0.013-0.128-0.179-0.154-0.525-0.077-0.73 0.141-0.32 0.461-0.282 0.781-0.179s0.666 0.243 0.998 0.23c4.698-0.23 8.538 3.456 8.986 7.603 0.026 0.294 0.333 0.55 0.41 0.845 0.051 0.23 0 0.55-0.154 0.717-0.102 0.115-0.512 0.141-0.627 0.026-0.166-0.141-0.32-0.55-0.23-0.678 0.589-0.883 0.090-1.664-0.102-2.56-0.282 0.090-0.499 0.154-0.755 0.23 0.55 2.138 0.525 4.198-0.55 6.144-1.062 1.907-2.688 3.123-4.826 3.738 0.051 0.269 0.102 0.499 0.166 0.806 3.61-1.050 5.645-3.456 6.515-6.989 0.064 1.318-0.499 2.406-1.126 3.558 0.192 0.141 0.384 0.269 0.614 0.422 0.819-1.075 1.229-2.253 1.434-3.494 0.87-5.235-2.381-10.022-7.616-11.046-5.184-1.011-9.523 2.189-10.893 6.426-0.115 0.358-0.026 0.614 0.102 0.922 0.141 0.333-0.064 0.589-0.384 0.704s-0.64-0.013-0.717-0.346c-0.051-0.192 0.026-0.538 0.166-0.627 0.371-0.243 0.435-0.589 0.576-0.947 1.357-3.494 3.827-5.696 7.526-6.464 0.602-0.128 1.229-0.154 1.882-0.23 0.013-0.243 0.026-0.448 0.038-0.678-0.128-0.038-0.23-0.102-0.333-0.102-4.902 0.064-9.306 3.725-10.253 8.512-0.96 4.838 1.306 9.51 5.696 11.789 0.23 0.115 0.448 0.243 0.64 0.41-1.83-0.166-5.005-2.88-6.118-5.965-1.677-4.71-0.589-8.781 2.918-12.352-0.115-0.166-0.256-0.346-0.41-0.55-0.154 0.102-0.282 0.141-0.371 0.23-1.818 1.715-3.008 3.814-3.494 6.259-0.448 2.214-0.294 4.39 0.499 6.528 0.154 0.41 0.294 0.806 0.806 0.934 0.32 0.077 0.499 0.41 0.32 0.717-0.115 0.192-0.41 0.397-0.614 0.397-0.358-0.013-0.538-0.294-0.538-0.691 0-0.282-0.051-0.589-0.154-0.845-1.741-4.749-1.024-9.088 2.317-12.89 2.010-2.291 4.608-3.558 7.642-3.904 2.765-0.32 5.312 0.282 7.693 1.677 0.115 0.064 0.243 0.128 0.41 0.23 0.141-0.192 0.282-0.371 0.422-0.55-0.077-0.102-0.115-0.179-0.179-0.218-2.534-1.574-5.274-2.266-8.269-1.958-2.086 0.179-3.994 0.845-5.747 1.958-0.346 0.218-0.691 0.41-0.781 0.883-0.064 0.32-0.358 0.538-0.678 0.41-0.205-0.090-0.435-0.371-0.461-0.576-0.038-0.384 0.282-0.512 0.653-0.576 0.333-0.051 0.678-0.166 0.96-0.346 2.304-1.498 4.851-2.266 7.59-2.202 6.938 0.166 12.134 5.35 13.005 11.43 0.307 2.125 0.115 4.186-0.538 6.221-0.077 0.23-0.205 0.448-0.397 0.666 1.894-6.246 0.397-11.43-4.659-15.552-0.141 0.102-0.23 0.128-0.269 0.192-0.102 0.128-0.179 0.256-0.307 0.435 0.576 0.371 0.909 1.037 1.715 1.037 0.166 0 0.461 0.358 0.461 0.538 0 0.192-0.256 0.461-0.474 0.55-0.269 0.115-0.602-0.038-0.627-0.346-0.077-0.742-0.666-1.024-1.152-1.382-4.147-3.046-9.869-3.046-13.99 0.013-0.166 0.128-0.32 0.282-0.525 0.461 0.179 0.205 0.333 0.371 0.486 0.55 7.194-5.517 16.947-1.19 18.074 7.36 0.218 0 0.435 0 0.768 0-0.166-2.317-1.114-4.288-2.368-6.157 1.459 0.87 3.443 5.376 2.611 9.549-0.704 3.558-2.624 6.298-5.619 8.256 0 0.102-0.026 0.166 0 0.205 0.090 0.166 0.205 0.32 0.307 0.474 0.102-0.038 0.192-0.038 0.256-0.077 1.702-1.088 3.098-2.496 4.147-4.224 0.128-0.205 0.154-0.499 0.128-0.742-0.026-0.384 0.102-0.691 0.461-0.742 0.205-0.026 0.538 0.154 0.64 0.346 0.179 0.32 0 0.602-0.333 0.794-0.243 0.141-0.474 0.358-0.627 0.602-2.163 3.328-5.171 5.44-9.088 6.144-7.181 1.293-14.195-3.52-15.488-10.79-0.128-0.704-0.179-1.408-0.269-2.202z"></path>
<path d="M14.656 10.675c0.038-0.333 0.077-0.602 0.115-0.909 0.179-0.013 0.333-0.026 0.525-0.038 0.077 0.269 0.166 0.512 0.243 0.781 0.371 0 0.704 0 1.088 0 0.064-0.256 0.115-0.486 0.166-0.755 0.205-0.013 0.397-0.013 0.627-0.026 0.051 0.32 0.102 0.602 0.154 0.973 2.419 0.87 3.93 2.611 3.942 5.261 0.013 2.662-1.485 4.403-3.968 5.325-0.026 0.32-0.064 0.614-0.090 0.96-0.218 0.026-0.422 0.038-0.653 0.064-0.064-0.307-0.115-0.563-0.179-0.845-0.358 0-0.704 0-1.101 0-0.064 0.256-0.128 0.499-0.205 0.794-0.179 0-0.346 0-0.563 0-0.038-0.333-0.077-0.614-0.128-0.947-2.547-0.96-4.083-2.726-3.981-5.53 0.102-2.586 1.6-4.198 4.006-5.107zM14.63 11.75c-1.946 0.282-3.174 2.611-3.187 4.096-0.026 2.074 1.357 4.032 3.187 4.442 0-2.854 0-5.696 0-8.538zM17.562 20.314c1.882-0.563 3.187-2.406 3.162-4.365-0.026-1.92-1.37-3.763-3.162-4.262 0 2.867 0 5.709 0 8.627zM16.614 20.544c0.205-1.446 0.128-8.576-0.077-9.114-0.346 0-0.691 0-1.075 0 0 3.046 0 6.042 0 9.114 0.397 0 0.755 0 1.152 0z"></path>
<path d="M13.299 7.898c-2.726 1.203-4.621 3.136-5.363 6.067-0.397 1.574-0.333 3.123 0.243 4.723 0.256-0.090 0.474-0.166 0.755-0.256-0.666-2.112-0.525-4.134 0.512-6.054 0.768-1.434 1.92-2.496 3.366-3.238 2.253-1.165 5.734-0.832 6.682 0.346-0.205-0.077-0.422-0.141-0.627-0.218-4.902-1.984-10.176 1.69-10.010 6.963 0.038 1.024 0.294 1.997 0.755 2.906 0.218 0.435 0.371 0.896 0.998 0.947 0.307 0.026 0.41 0.333 0.371 0.64-0.038 0.32-0.256 0.474-0.563 0.486-0.307 0-0.576-0.166-0.576-0.461 0.026-0.781-0.538-1.28-0.806-1.958-0.23 0.090-0.435 0.166-0.653 0.256 0.013 0.128 0 0.243 0.051 0.333 1.114 2.432 2.982 3.981 5.542 4.71 0.333 0.090 0.627 0.077 0.922-0.128 0.333-0.23 0.678-0.102 0.806 0.243 0.077 0.205 0 0.55-0.154 0.717-0.23 0.256-0.525 0.154-0.806-0.051-0.243-0.179-0.538-0.333-0.832-0.448-0.883-0.358-1.766-0.691-2.739-1.062-0.102 0.128-0.243 0.294-0.422 0.512 1.229 0.896 2.547 1.382 3.968 1.562 1.587 0.192 3.162 0.090 4.672-0.499 0.307-0.115 0.602-0.218 0.704-0.602 0.102-0.371 0.422-0.55 0.768-0.333 0.179 0.115 0.358 0.435 0.333 0.64-0.051 0.346-0.333 0.512-0.73 0.461-0.256-0.026-0.538 0-0.768 0.077-3.802 1.318-7.296 0.755-10.304-1.933-2.227-1.997-3.29-4.57-3.2-7.59 0-0.141 0.064-0.282 0.192-0.448 0.013 3.456 1.229 6.31 4.045 8.474 0.166-0.23 0.307-0.41 0.461-0.614-3.2-2.765-4.365-6.093-2.995-10.138 0.896-2.662 3.558-4.864 5.402-5.030z"></path>
</svg>
