<?xml version="1.0" encoding="utf-8"?>
<!-- Generator: Adobe Illustrator 22.1.0, SVG Export Plug-In . SVG Version: 6.00 Build 0)  -->
<svg version="1.1" id="Layer_1" xmlns="http://www.w3.org/2000/svg" xmlns:xlink="http://www.w3.org/1999/xlink" x="0px" y="0px"
	 viewBox="0 0 250 250" style="enable-background:new 0 0 250 250;" xml:space="preserve">
<g>
	<path d="M0.9,125C-0.2,57.6,56.5,0.1,125.5,0c66.6-0.1,125.3,54.1,125.2,125.3C250.6,194,194.4,250.1,125.5,250
		C54.7,249.9-0.2,191.1,0.9,125z M246.8,125.3C247.5,62.3,196.7,4,126,3.8C54.1,3.6,4.6,63,4.4,124.6
		c-0.2,64.6,52.9,121.6,120.9,121.6C192.3,246.2,246.8,192.1,246.8,125.3z"/>
	<path d="M20.8,126.2c-2.1,0-3.7,0-5.8,0c-0.4,13.8,2.2,26.9,7.5,39.3c18.4,43,51.6,65.7,97.7,70.5c1.4-1.3,2.3-2.5,3.5-3.3
		c2.2-1.4,4.8-1.4,6.2,0.8c0.8,1.3,0.9,3.8,0.3,5.2c-1.1,2.4-3.4,2.6-6,1.7c-3.7-1.3-7.6-2.6-11.5-3c-48.4-5-89.9-43.4-98.6-91.3
		C2.5,82.5,43.3,23.4,107,12.5c63.7-10.9,121.9,33.9,131,95.1c9.1,60.9-31.2,114.6-85.8,127.5c-6.1,1.4-12.4,2.1-18.6,3.1
		c-0.2-0.6-0.3-1.3-0.5-1.9c1.8-0.5,3.6-1.2,5.5-1.4c49.4-5.3,89.8-45.3,96.9-94c8.7-59.6-31.4-115.7-91.7-125.9
		C85.5,5.1,29.4,43.5,17,101.4c-1.5,6.8-1.8,13.9-2.8,21.4c2.4,0.2,4.2,0.3,6.7,0.5c0.8-26.5,9.8-49.4,27.1-68.9
		c1.6-1.8,3.3-3.4,5-5c0.5,0.5,1,0.9,1.5,1.4c-3,3.6-6.1,7-8.9,10.7c-2.9,3.9-5.8,7.9-8.3,12.1c-2.5,4.2-4.6,8.7-6.4,13.2
		c-1.8,4.5-3.3,9.2-4.4,14c-1.1,4.7-2,9.6-2.4,14.5c-0.4,5.1-0.4,10.2-0.1,15.3c0.2,4.9,0.8,9.8,1.7,14.6c0.9,4.8,2.3,9.5,4,14.1
		c1.7,4.6,3.7,9.1,6.1,13.4c2.3,4.3,4.9,8.5,7.8,12.4c2.9,3.9,6.1,7.7,9.5,11.2c3.4,3.5,7.2,6.7,11,9.7
		c34.2,26.1,79.9,26.4,111.1,7.2c-0.7-1.5-1.4-3.1-2.5-5.3c-22.7,12-46.1,15.2-70.8,9.4c-23.9-5.6-50.9-26.9-56-42.4
		c36.3,43.9,79.3,56.9,129.7,27.6c33.1-19.2,45.7-57.3,42.1-83.8c-1.5-0.1-3-0.2-5-0.3c-0.6,6.5-1,12.6-1.8,18.6
		c-5.3,40.5-40.2,72.4-80.9,73.7c-7.2,0.2-14.4-0.9-21.6-1.3c-2-0.1-4.3-0.2-6.2,0.4c-3,1-5.4,0.3-6.2-2.5c-0.4-1.6,0.4-4.4,1.7-5.5
		c2.3-2,4.8-0.9,6.5,1.6c0.6,0.9,1,1.8,1.7,3c34.7,6.5,64.3-2.6,85.8-30.8c21.9-28.5,23.9-60,6.8-91.8c-15.6-29.2-48.3-43.8-69-41.9
		c-0.2,1.5-0.4,3.1-0.6,5.3c25.8,2.2,46.2,13.4,60.8,34.5c9.3,13.6,13.6,28.9,13.2,45.3c-0.7,26-16.6,52.4-34.6,60.2
		c6.5-6.6,12.4-12.6,18.6-18.9c-2.3-1.7-3.7-2.7-5.6-4.1c-9.6,12.3-21.2,21.4-36,25.7c-5.4,1.6-10.9,3.5-17,1.1c3-0.7,6-1.4,9.4-2.2
		c-0.3-1.9-0.6-3.5-0.8-4.3c-9.6-1-18.8-1.4-27.6-3.2c-8.7-1.7-16.3-6.3-22.7-12.4c0.3-0.5,0.5-0.9,0.8-1.4c1.2,0.6,2.4,1,3.4,1.8
		c33.4,25.3,80.5,8.4,89.7-32.4c4.3-19.2-0.7-36.3-14-50.8c-1.7-1.9-3.5-3.5-6.4-3.5c-3.1,0-4.6-2.1-4.2-5.2
		c0.3-2.5,1.9-3.8,4.3-3.8c2.8-0.1,4.3,1.4,4.7,4.2c0.2,1.4,0.5,3,1.3,4.1c4.9,6.6,10,13.1,15.5,20.2c0.8-0.3,2.5-0.9,4.7-1.7
		c-7.5-17.6-19.8-29.6-36.9-36.7c-8.8-3.7-18.1-5-27.6-4.2c-2.1,0.2-4.2,1.4-6.1,2.6c-2.3,1.5-4.7,2.1-6.2-0.1
		c-1-1.4-1.2-4.1-0.6-5.7c1.1-2.5,3.6-2.2,6.1-1.4c2.5,0.8,5.2,1.9,7.8,1.8c36.7-1.8,66.7,27,70.2,59.4c0.2,2.3,2.6,4.3,3.2,6.6
		c0.4,1.8,0,4.3-1.2,5.6c-0.8,0.9-4,1.1-4.9,0.2c-1.3-1.1-2.5-4.3-1.8-5.3c4.6-6.9,0.7-13-0.8-20c-2.2,0.7-3.9,1.2-5.9,1.8
		c4.3,16.7,4.1,32.8-4.3,48c-8.3,14.9-21,24.4-37.7,29.2c0.4,2.1,0.8,3.9,1.3,6.3c28.2-8.2,44.1-27,50.9-54.6
		c0.5,10.3-3.9,18.8-8.8,27.8c1.5,1.1,3,2.1,4.8,3.3c6.4-8.4,9.6-17.6,11.2-27.3c6.8-40.9-18.6-78.3-59.5-86.3
		c-40.5-7.9-74.4,17.1-85.1,50.2c-0.9,2.8-0.2,4.8,0.8,7.2c1.1,2.6-0.5,4.6-3,5.5c-2.5,0.9-5-0.1-5.6-2.7c-0.4-1.5,0.2-4.2,1.3-4.9
		c2.9-1.9,3.4-4.6,4.5-7.4c10.6-27.3,29.9-44.5,58.8-50.5c4.7-1,9.6-1.2,14.7-1.8c0.1-1.9,0.2-3.5,0.3-5.3c-1-0.3-1.8-0.8-2.6-0.8
		C85.4,41.4,51,70,43.6,107.4c-7.5,37.8,10.2,74.3,44.5,92.1c1.8,0.9,3.5,1.9,5,3.2c-14.3-1.3-39.1-22.5-47.8-46.6
		c-13.1-36.8-4.6-68.6,22.8-96.5c-0.9-1.3-2-2.7-3.2-4.3c-1.2,0.8-2.2,1.1-2.9,1.8C47.8,70.5,38.5,86.9,34.7,106
		c-3.5,17.3-2.3,34.3,3.9,51c1.2,3.2,2.3,6.3,6.3,7.3c2.5,0.6,3.9,3.2,2.5,5.6c-0.9,1.5-3.2,3.1-4.8,3.1c-2.8-0.1-4.2-2.3-4.2-5.4
		c0-2.2-0.4-4.6-1.2-6.6c-13.6-37.1-8-71,18.1-100.7C71,42.4,91.3,32.5,115,29.8c21.6-2.5,41.5,2.2,60.1,13.1c0.9,0.5,1.9,1,3.2,1.8
		c1.1-1.5,2.2-2.9,3.3-4.3c-0.6-0.8-0.9-1.4-1.4-1.7c-19.8-12.3-41.2-17.7-64.6-15.3C99.3,24.8,84.4,30,70.7,38.7
		c-2.7,1.7-5.4,3.2-6.1,6.9c-0.5,2.5-2.8,4.2-5.3,3.2c-1.6-0.7-3.4-2.9-3.6-4.5c-0.3-3,2.2-4,5.1-4.5c2.6-0.4,5.3-1.3,7.5-2.7
		c18-11.7,37.9-17.7,59.3-17.2c54.2,1.3,94.8,41.8,101.6,89.3c2.4,16.6,0.9,32.7-4.2,48.6c-0.6,1.8-1.6,3.5-3.1,5.2
		c14.8-48.8,3.1-89.3-36.4-121.5c-1.1,0.8-1.8,1-2.1,1.5c-0.8,1-1.4,2-2.4,3.4c4.5,2.9,7.1,8.1,13.4,8.1c1.3,0,3.6,2.8,3.6,4.2
		c0,1.5-2,3.6-3.7,4.3c-2.1,0.9-4.7-0.3-4.9-2.7c-0.6-5.8-5.2-8-9-10.8c-32.4-23.8-77.1-23.8-109.3,0.1c-1.3,1-2.5,2.2-4.1,3.6
		c1.4,1.6,2.6,2.9,3.8,4.3c56.2-43.1,132.4-9.3,141.2,57.5c1.7,0,3.4,0,6,0c-1.3-18.1-8.7-33.5-18.5-48.1
		c11.4,6.8,26.9,42,20.4,74.6c-5.5,27.8-20.5,49.2-43.9,64.5c0,0.8-0.2,1.3,0,1.6c0.7,1.3,1.6,2.5,2.4,3.7c0.8-0.3,1.5-0.3,2-0.6
		c13.3-8.5,24.2-19.5,32.4-33c1-1.6,1.2-3.9,1-5.8c-0.2-3,0.8-5.4,3.6-5.8c1.6-0.2,4.2,1.2,5,2.7c1.4,2.5,0,4.7-2.6,6.2
		c-1.9,1.1-3.7,2.8-4.9,4.7c-16.9,26-40.4,42.5-71,48C87.8,237.8,33,200.2,22.9,143.4C21.9,137.9,21.5,132.4,20.8,126.2z"/>
	<path d="M114.5,83.4c0.3-2.6,0.6-4.7,0.9-7.1c1.4-0.1,2.6-0.2,4.1-0.3c0.6,2.1,1.3,4,1.9,6.1c2.9,0,5.5,0,8.5,0
		c0.5-2,0.9-3.8,1.3-5.9c1.6-0.1,3.1-0.1,4.9-0.2c0.4,2.5,0.8,4.7,1.2,7.6c18.9,6.8,30.7,20.4,30.8,41.1c0.1,20.8-11.6,34.4-31,41.6
		c-0.2,2.5-0.5,4.8-0.7,7.5c-1.7,0.2-3.3,0.3-5.1,0.5c-0.5-2.4-0.9-4.4-1.4-6.6c-2.8,0-5.5,0-8.6,0c-0.5,2-1,3.9-1.6,6.2
		c-1.4,0-2.7,0-4.4,0c-0.3-2.6-0.6-4.8-1-7.4c-19.9-7.5-31.9-21.3-31.1-43.2C84,103.1,95.7,90.5,114.5,83.4z M114.3,91.8
		c-15.2,2.2-24.8,20.4-24.9,32c-0.2,16.2,10.6,31.5,24.9,34.7C114.3,136.2,114.3,114,114.3,91.8z M137.2,158.7
		c14.7-4.4,24.9-18.8,24.7-34.1c-0.2-15-10.7-29.4-24.7-33.3C137.2,113.7,137.2,135.9,137.2,158.7z M129.8,160.5
		c1.6-11.3,1-67-0.6-71.2c-2.7,0-5.4,0-8.4,0c0,23.8,0,47.2,0,71.2C123.9,160.5,126.7,160.5,129.8,160.5z"/>
	<path d="M103.9,61.7C82.6,71.1,67.8,86.2,62,109.1c-3.1,12.3-2.6,24.4,1.9,36.9c2-0.7,3.7-1.3,5.9-2c-5.2-16.5-4.1-32.3,4-47.3
		c6-11.2,15-19.5,26.3-25.3c17.6-9.1,44.8-6.5,52.2,2.7c-1.6-0.6-3.3-1.1-4.9-1.7c-38.3-15.5-79.5,13.2-78.2,54.4
		c0.3,8,2.3,15.6,5.9,22.7c1.7,3.4,2.9,7,7.8,7.4c2.4,0.2,3.2,2.6,2.9,5c-0.3,2.5-2,3.7-4.4,3.8c-2.4,0-4.5-1.3-4.5-3.6
		c0.2-6.1-4.2-10-6.3-15.3c-1.8,0.7-3.4,1.3-5.1,2c0.1,1,0,1.9,0.4,2.6c8.7,19,23.3,31.1,43.3,36.8c2.6,0.7,4.9,0.6,7.2-1
		c2.6-1.8,5.3-0.8,6.3,1.9c0.6,1.6,0,4.3-1.2,5.6c-1.8,2-4.1,1.2-6.3-0.4c-1.9-1.4-4.2-2.6-6.5-3.5c-6.9-2.8-13.8-5.4-21.4-8.3
		c-0.8,1-1.9,2.3-3.3,4c9.6,7,19.9,10.8,31,12.2c12.4,1.5,24.7,0.7,36.5-3.9c2.4-0.9,4.7-1.7,5.5-4.7c0.8-2.9,3.3-4.3,6-2.6
		c1.4,0.9,2.8,3.4,2.6,5c-0.4,2.7-2.6,4-5.7,3.6c-2-0.2-4.2,0-6,0.6c-29.7,10.3-57,5.9-80.5-15.1c-17.4-15.6-25.7-35.7-25-59.3
		c0-1.1,0.5-2.2,1.5-3.5c0.1,27,9.6,49.3,31.6,66.2c1.3-1.8,2.4-3.2,3.6-4.8c-25-21.6-34.1-47.6-23.4-79.2
		C68.7,80.2,89.5,63,103.9,61.7z"/>
</g>
</svg>
