<?xml version="1.0" encoding="utf-8"?>
<!-- Generator: Adobe Illustrator 22.1.0, SVG Export Plug-In . SVG Version: 6.00 Build 0)  -->
<svg version="1.1" id="Layer_1" xmlns="http://www.w3.org/2000/svg" xmlns:xlink="http://www.w3.org/1999/xlink" x="0px" y="0px"
	 viewBox="0 0 250 250" style="enable-background:new 0 0 250 250;" xml:space="preserve">
<style type="text/css">
	.st0{stroke:#FFFFFF;stroke-miterlimit:10;}
</style>
<path class="st0" d="M205.5,235.1c-20.1-20-44.9-28.3-72.3-30c-23.3-1.5-45.6,2.5-66.5,13.4c-7.7,4-14.7,9.2-20.9,15.5
	c-0.4,0.4-0.9,0.8-1.3,1.2C-8.8,190.8-16,109,32.7,55.5C81.8,1.6,167.2,1.3,216.8,55C266,108.3,259.1,190.4,205.5,235.1 M79.8,140
	c0,25,20.1,45.2,45.1,45.2c25.1,0,45.5-20.2,45.5-45.2c0-24.9-20.5-45.4-45.5-45.3C100,94.8,79.8,115.1,79.8,140"/>
</svg>
