<!-- Generated by IcoMoon.io -->
<svg version="1.1" xmlns="http://www.w3.org/2000/svg" width="32" height="32" viewBox="0 0 32 32">
<title>PAPER_WALLET</title>
<path d="M26.441 0c0.212 0.071 0.437 0.127 0.635 0.226 1.101 0.522 1.721 1.383 1.721 2.624 0 8.79 0 17.566 0 26.356 0 1.538-1.27 2.794-2.808 2.794-6.575 0-13.136 0-19.711 0-1.496 0-2.751-1.199-2.808-2.695-0.014-0.254-0.014-0.522-0.014-0.776 0-6.645 0-13.291 0-19.922 0-0.282 0.071-0.494 0.282-0.705 2.554-2.54 5.108-5.093 7.661-7.647 0.071-0.071 0.127-0.155 0.183-0.24 4.966-0.014 9.905-0.014 14.857-0.014zM4.642 9.538c0 0.155 0 0.268 0 0.381 0 6.349 0.014 12.698-0.014 19.062 0 1.101 0.818 1.891 1.877 1.891 6.42-0.028 12.854-0.028 19.273 0 1.058 0 1.891-0.79 1.877-1.891-0.028-8.663-0.014-17.326-0.014-25.975 0-1.129-0.691-1.834-1.82-1.834-4.134 0-8.282 0-12.416 0-0.127 0-0.24 0-0.395 0 0 0.155 0 0.282 0 0.395 0 2.074 0 4.134 0 6.208 0 1.016-0.748 1.764-1.778 1.764-2.060 0-4.12 0-6.18 0-0.113 0-0.226 0-0.409 0zM4.995 8.353c0.113 0 0.198 0.014 0.268 0.014 1.961 0 3.922 0 5.898 0 0.494 0 0.691-0.198 0.691-0.705 0-1.961 0-3.922 0-5.898 0-0.085-0.014-0.169-0.028-0.254-2.272 2.3-4.529 4.557-6.829 6.843z"></path>
<path d="M8.635 22.18c0-0.381 0-0.734 0-1.115 5.009 0 10.004 0 15.026 0 0 0.367 0 0.734 0 1.115-4.995 0-10.004 0-15.026 0z"></path>
<path d="M8.635 12.952c0-0.367 0-0.734 0-1.115 5.023 0 10.018 0 15.041 0 0 0.381 0 0.734 0 1.115-5.023 0-10.032 0-15.041 0z"></path>
<path d="M8.621 19.090c0-0.353 0-0.705 0-1.086 5.009 0 10.018 0 15.041 0 0 0.339 0 0.691 0 1.086-4.995 0-9.989 0-15.041 0z"></path>
<path d="M8.635 25.242c0-0.367 0-0.734 0-1.115 5.023 0 10.018 0 15.041 0 0 0.381 0 0.734 0 1.115-5.023 0-10.032 0-15.041 0z"></path>
<path d="M23.675 14.928c0 0.367 0 0.72 0 1.101-5.009 0-10.018 0-15.055 0 0-0.183 0-0.367 0-0.55 0-0.169 0-0.353 0-0.536 5.023-0.014 10.032-0.014 15.055-0.014z"></path>
</svg>
