<!-- Generated by IcoMoon.io -->
<svg version="1.1" xmlns="http://www.w3.org/2000/svg" width="32" height="32" viewBox="0 0 32 32">
<title>PART</title>
<path d="M15.082 0.277c1.027-0.449 1.76 0.502 2.393 1.138 1.131 0.964 2.207 1.993 3.227 3.074 0.585 0.641 0.348 1.813-0.447 2.17-0.611 0.335-1.358 0.083-1.827-0.383-1.231-1.185-2.408-2.428-3.686-3.559-0.792-0.651-0.631-2.063 0.341-2.44zM26.288 3.559c0.696-0.376 1.81-0.070 2.004 0.762 0.295 0.74-0.179 1.474-0.699 1.966-1.139 1.129-2.246 2.289-3.353 3.45-0.404 0.491-1.114 0.622-1.685 0.357-0.824-0.342-1.047-1.585-0.425-2.214 1.397-1.427 2.63-3.027 4.158-4.321zM4.037 3.79c0.725-0.439 1.622-0.148 2.159 0.449 1.206 1.223 2.451 2.406 3.672 3.61 0.807 0.75 0.244 2.338-0.882 2.343-0.943 0.146-1.443-0.791-2.074-1.304-1.107-0.92-2.12-1.944-3.123-2.976-0.568-0.588-0.399-1.665 0.249-2.122zM4.973 11.022c1.216-0.471 2.403 1.068 1.644 2.129-0.897 1.175-2.064 2.119-3.043 3.229-0.578 0.597-1.117 1.515-2.079 1.398-1.126-0.044-1.692-1.617-0.873-2.379 1.479-1.423 2.654-3.222 4.351-4.377l0-0zM29.626 14.425c0.836-0.549 2.098 0.075 2.125 1.088 0.123 0.952-0.817 1.454-1.334 2.093-0.911 1.102-1.912 2.129-2.944 3.117-0.754 0.716-2.163 0.213-2.299-0.823-0.177-1.071 0.824-1.736 1.455-2.421 1.044-0.973 1.926-2.122 2.997-3.054zM8.144 21.953c0.812-0.488 2.045 0.092 2.064 1.083 0.15 0.956-0.79 1.464-1.305 2.102-0.909 1.105-1.922 2.117-2.944 3.117-0.665 0.675-2.081 0.349-2.27-0.619-0.321-0.934 0.469-1.69 1.071-2.277 1.168-1.097 2.183-2.352 3.384-3.406zM22.58 21.917c0.45-0.155 1.020-0.167 1.4 0.158 1.407 1.342 2.903 2.59 4.225 4.022 0.408 0.415 0.445 1.112 0.174 1.612-0.382 0.898-1.692 0.92-2.328 0.284-1.284-1.216-2.516-2.493-3.807-3.705-0.78-0.609-0.597-2.020 0.336-2.372zM11.748 25.349c0.669-0.364 1.455-0.019 1.936 0.493 1.213 1.209 2.427 2.418 3.686 3.578 0.829 0.791 0.268 2.396-0.899 2.408-0.943 0.112-1.433-0.828-2.067-1.342-1.1-0.915-2.12-1.923-3.106-2.959-0.595-0.638-0.353-1.825 0.45-2.178zM9.596 1.498c0 0.767-0.619 1.388-1.382 1.388s-1.382-0.621-1.382-1.388c0-0.766 0.619-1.388 1.382-1.388s1.382 0.621 1.382 1.388zM13.625 5.19c0 0.767-0.619 1.388-1.382 1.388s-1.382-0.621-1.382-1.388c0-0.766 0.619-1.388 1.382-1.388s1.382 0.622 1.382 1.388zM2.834 8.581c0 0.767-0.619 1.388-1.382 1.388s-1.382-0.621-1.382-1.388c0-0.766 0.619-1.388 1.382-1.388s1.382 0.621 1.382 1.388zM24.773 1.388c0 0.766-0.619 1.388-1.382 1.388s-1.382-0.621-1.382-1.388 0.619-1.388 1.382-1.388 1.382 0.621 1.382 1.388zM31.93 8.233c0 0.766-0.619 1.388-1.382 1.388s-1.382-0.622-1.382-1.388 0.619-1.388 1.382-1.388c0.763 0 1.382 0.622 1.382 1.388zM28.153 12.221c0 0.766-0.619 1.388-1.382 1.388s-1.382-0.621-1.382-1.388 0.619-1.388 1.382-1.388 1.382 0.621 1.382 1.388zM31.924 23.431c0 0.767-0.619 1.388-1.382 1.388s-1.382-0.621-1.382-1.388 0.619-1.388 1.382-1.388c0.763 0 1.382 0.621 1.382 1.388zM21.145 26.815c0 0.767-0.619 1.388-1.382 1.388s-1.382-0.621-1.382-1.388c0-0.766 0.619-1.388 1.382-1.388s1.382 0.622 1.382 1.388zM25.122 30.612c0 0.767-0.619 1.388-1.382 1.388s-1.382-0.621-1.382-1.388c0-0.766 0.619-1.388 1.382-1.388s1.382 0.621 1.382 1.388zM9.987 30.612c0 0.767-0.619 1.388-1.382 1.388s-1.382-0.621-1.382-1.388c0-0.767 0.619-1.388 1.382-1.388s1.382 0.621 1.382 1.388zM6.616 19.741c0 0.767-0.619 1.388-1.382 1.388s-1.382-0.621-1.382-1.388 0.619-1.388 1.382-1.388c0.763 0 1.382 0.621 1.382 1.388zM2.834 23.775c0 0.767-0.619 1.388-1.382 1.388s-1.382-0.621-1.382-1.388 0.619-1.388 1.382-1.388c0.763 0 1.382 0.621 1.382 1.388z"></path>
</svg>
