<!-- Generated by IcoMoon.io -->
<svg version="1.1" xmlns="http://www.w3.org/2000/svg" width="32" height="32" viewBox="0 0 32 32">
<title>PASC</title>
<path d="M0.198 13.996c0.212-0.875 0.353-1.778 0.635-2.638 1.792-5.644 5.545-9.284 11.245-10.878 0.705-0.198 1.425-0.325 2.13-0.48 1.157 0 2.314 0 3.471 0 0.734 0.169 1.467 0.296 2.187 0.494 4.741 1.284 8.198 4.134 10.37 8.522 0.748 1.496 1.213 3.090 1.411 4.755 0.014 0.155 0.099 0.296 0.141 0.437 0 1.086 0 2.173 0 3.259-0.155 0.734-0.296 1.467-0.494 2.187-1.665 5.968-5.503 9.778-11.471 11.457-1.735 0.48-3.499 0.607-5.263 0.423-4.021-0.437-7.464-2.102-10.201-5.108-2.229-2.427-3.57-5.305-4.035-8.564-0.014-0.127-0.085-0.268-0.127-0.395 0-1.157 0-2.314 0-3.471zM15.958 0.367c-8.367-0.113-15.168 6.772-15.407 14.885-0.268 8.917 7.083 16.141 15.802 15.986 8.085-0.141 14.956-6.956 15.097-15.026 0.169-8.832-7.026-15.972-15.492-15.845z"></path>
<path d="M19.034 5.545c0.099 0.056 0.113 0.071 0.127 0.071 1.637 0.028 1.326 0.268 1.58-1.185 0.014-0.127 0.056-0.24 0.071-0.367 0.141-0.889 0.31-0.988 1.27-0.705-0.113 0.72-0.226 1.467-0.353 2.243 0.339 0.056 0.663 0.113 0.988 0.155 3.654 0.466 5.136 3.598 4.444 6.631-0.776 3.4-2.977 5.362-6.293 6.208-0.183 0.042-0.381 0.071-0.564 0.085-0.804 0.099-0.804 0.099-0.945 0.931-0.085 0.536-0.169 1.072-0.254 1.608-0.099 0.621-0.564 0.395-0.917 0.395-0.409-0.014-0.254-0.339-0.226-0.564 0.113-0.734 0.24-1.467 0.381-2.286-0.48 0-0.889-0.028-1.284 0.014-0.113 0.014-0.282 0.198-0.31 0.325-0.141 0.663-0.254 1.34-0.339 2.018-0.085 0.621-0.536 0.451-0.889 0.423-0.437-0.014-0.268-0.339-0.24-0.593 0.113-0.705 0.226-1.411 0.353-2.215-0.621 0-1.199-0.028-1.764 0.014-0.113 0.014-0.268 0.24-0.296 0.395-0.198 1.044-0.367 2.102-0.55 3.16-0.268 1.524-0.55 3.034-0.804 4.557-0.056 0.339-0.198 0.437-0.522 0.437-1.016-0.028-2.032-0.042-3.048-0.042-0.409 0-0.522-0.155-0.451-0.55 0.226-1.256 0.437-2.526 0.677-3.781 0.508-2.794 1.030-5.587 1.524-8.381 0.494-2.808 0.974-5.63 1.453-8.451 0.071-0.381 0.254-0.48 0.607-0.48 1.594 0.014 3.189-0.014 4.797 0.014 0.451 0.014 0.621-0.141 0.663-0.578 0.056-0.494 0.155-0.974 0.24-1.453 0.099-0.593 0.564-0.339 0.875-0.367 0.409-0.028 0.31 0.296 0.268 0.522-0.056 0.621-0.169 1.213-0.268 1.792zM14.265 15.323c0.607 0 1.086-0.014 1.552 0 0.353 0.014 0.48-0.113 0.536-0.466 0.226-1.524 0.508-3.048 0.734-4.571 0.212-1.383 0.212-1.369-1.185-1.369-0.381 0-0.564 0.113-0.635 0.508-0.226 1.354-0.48 2.695-0.72 4.035-0.085 0.607-0.169 1.213-0.282 1.862zM21.122 9.185c-0.339 1.989-0.663 3.937-1.016 5.94 0.169-0.028 0.254-0.028 0.325-0.056 1.51-0.508 2.511-1.82 2.61-3.429 0.085-1.199-0.649-2.201-1.919-2.455zM17.397 15.309c0.451 0 0.804-0.014 1.171 0 0.31 0.014 0.423-0.113 0.466-0.409 0.24-1.467 0.494-2.935 0.734-4.402 0.071-0.48 0.127-0.945 0.212-1.496-0.423 0-0.748 0.014-1.086 0-0.353-0.028-0.48 0.127-0.536 0.48-0.169 1.101-0.381 2.201-0.564 3.316-0.141 0.804-0.254 1.623-0.395 2.511z"></path>
</svg>
