<?xml version="1.0" encoding="utf-8"?>
<!-- Generator: Adobe Illustrator 22.1.0, SVG Export Plug-In . SVG Version: 6.00 Build 0)  -->
<svg version="1.1" id="Layer_1" xmlns="http://www.w3.org/2000/svg" xmlns:xlink="http://www.w3.org/1999/xlink" x="0px" y="0px"
	 viewBox="0 0 226.8 226.8" style="enable-background:new 0 0 226.8 226.8;" xml:space="preserve">
<g>
	<path d="M1.4,99.2C2.9,93,3.9,86.6,5.9,80.5c12.7-40,39.3-65.8,79.7-77.1c5-1.4,10.1-2.3,15.1-3.4c8.2,0,16.4,0,24.6,0
		c5.2,1.2,10.4,2.1,15.5,3.5c33.6,9.1,58.1,29.3,73.5,60.4c5.3,10.6,8.6,21.9,10,33.7c0.1,1.1,0.7,2.1,1,3.1c0,7.7,0,15.4,0,23.1
		c-1.1,5.2-2.1,10.4-3.5,15.5c-11.8,42.3-39,69.3-81.3,81.2c-12.3,3.4-24.8,4.3-37.3,3c-28.5-3.1-52.9-14.9-72.3-36.2
		c-15.8-17.2-25.3-37.6-28.6-60.7c-0.1-0.9-0.6-1.9-0.9-2.8C1.4,115.6,1.4,107.4,1.4,99.2z M113.1,2.6C53.8,1.8,5.6,50.6,3.9,108.1
		c-1.9,63.2,50.2,114.4,112,113.3c57.3-1,106-49.3,107-106.5C224.1,52.3,173.1,1.7,113.1,2.6z"/>
	<path d="M134.9,39.3c0.7,0.4,0.8,0.5,0.9,0.5c11.6,0.2,9.4,1.9,11.2-8.4c0.1-0.9,0.4-1.7,0.5-2.6c1-6.3,2.2-7,9-5
		c-0.8,5.1-1.6,10.4-2.5,15.9c2.4,0.4,4.7,0.8,7,1.1c25.9,3.3,36.4,25.5,31.5,47c-5.5,24.1-21.1,38-44.6,44c-1.3,0.3-2.7,0.5-4,0.6
		c-5.7,0.7-5.7,0.7-6.7,6.6c-0.6,3.8-1.2,7.6-1.8,11.4c-0.7,4.4-4,2.8-6.5,2.8c-2.9-0.1-1.8-2.4-1.6-4c0.8-5.2,1.7-10.4,2.7-16.2
		c-3.4,0-6.3-0.2-9.1,0.1c-0.8,0.1-2,1.4-2.2,2.3c-1,4.7-1.8,9.5-2.4,14.3c-0.6,4.4-3.8,3.2-6.3,3c-3.1-0.1-1.9-2.4-1.7-4.2
		c0.8-5,1.6-10,2.5-15.7c-4.4,0-8.5-0.2-12.5,0.1c-0.8,0.1-1.9,1.7-2.1,2.8c-1.4,7.4-2.6,14.9-3.9,22.4c-1.9,10.8-3.9,21.5-5.7,32.3
		c-0.4,2.4-1.4,3.1-3.7,3.1c-7.2-0.2-14.4-0.3-21.6-0.3c-2.9,0-3.7-1.1-3.2-3.9c1.6-8.9,3.1-17.9,4.8-26.8
		c3.6-19.8,7.3-39.6,10.8-59.4c3.5-19.9,6.9-39.9,10.3-59.9c0.5-2.7,1.8-3.4,4.3-3.4c11.3,0.1,22.6-0.1,34,0.1
		c3.2,0.1,4.4-1,4.7-4.1c0.4-3.5,1.1-6.9,1.7-10.3c0.7-4.2,4-2.4,6.2-2.6c2.9-0.2,2.2,2.1,1.9,3.7C136.4,31,135.6,35.2,134.9,39.3z
		 M101.1,108.6c4.3,0,7.7-0.1,11,0c2.5,0.1,3.4-0.8,3.8-3.3c1.6-10.8,3.6-21.6,5.2-32.4c1.5-9.8,1.5-9.7-8.4-9.7
		c-2.7,0-4,0.8-4.5,3.6c-1.6,9.6-3.4,19.1-5.1,28.6C102.5,99.7,101.9,104,101.1,108.6z M149.7,65.1c-2.4,14.1-4.7,27.9-7.2,42.1
		c1.2-0.2,1.8-0.2,2.3-0.4c10.7-3.6,17.8-12.9,18.5-24.3C163.9,74,158.7,66.9,149.7,65.1z M123.3,108.5c3.2,0,5.7-0.1,8.3,0
		c2.2,0.1,3-0.8,3.3-2.9c1.7-10.4,3.5-20.8,5.2-31.2c0.5-3.4,0.9-6.7,1.5-10.6c-3,0-5.3,0.1-7.7,0c-2.5-0.2-3.4,0.9-3.8,3.4
		c-1.2,7.8-2.7,15.6-4,23.5C125.1,96.4,124.3,102.2,123.3,108.5z"/>
</g>
</svg>
