<!-- Generated by IcoMoon.io -->
<svg version="1.1" xmlns="http://www.w3.org/2000/svg" width="32" height="32" viewBox="0 0 32 32">
<title>PAX</title>
<path d="M30.406 12.332c0.423 1.044 0.988 2.145 1.312 3.302 0.818 2.907-0.155 5.418-2.907 6.688-3.513 1.608-6.448 3.908-9.242 6.504-1.101 1.016-2.328 1.848-3.852 2.116-1.82 0.31-3.457-0.282-5.051-1.044-1.129-0.536-2.102-1.284-2.991-2.173-0.282-0.282-0.705-0.48-1.101-0.621-1.143-0.423-2.37-0.649-3.429-1.199-2.54-1.326-3.541-3.443-3.034-6.265 0.198-1.101 0.494-2.201 0.931-3.217 0.903-2.102 1.453-4.275 1.877-6.504 0.169-0.917 0.381-1.82 0.635-2.723 0.72-2.596 2.511-4.007 5.192-4.134 0.395-0.014 0.804-0.014 1.199-0.014 0.55 0 1.002-0.169 1.439-0.55 0.889-0.776 1.933-1.284 3.146-1.439 1.806-0.24 3.316 0.339 4.755 1.383 0.917 0.677 1.975 1.129 3.090 1.397 1.467 0.353 2.935 0.649 4.416 0.945 1.171 0.226 2.384 0.353 3.259 1.298 0.339 0.367 0.564 0.847 0.79 1.298 0.564 1.171 0.353 2.399 0.127 3.612-0.113 0.423-0.367 0.832-0.564 1.34zM6.998 16.056c0.028 0.381 0.028 0.762 0.099 1.143 0.649 4.035 3.979 6.928 8.071 7.055 3.386 0.099 6.561-1.933 7.732-5.009 0.889-2.342 0.677-4.67-0.169-6.97-1.355-3.711-4.543-5.531-8.437-4.84-4.078 0.705-7.295 4.529-7.295 8.621z"></path>
</svg>
