<!-- Generated by IcoMoon.io -->
<svg version="1.1" xmlns="http://www.w3.org/2000/svg" width="32" height="32" viewBox="0 0 32 32">
<title>PAY</title>
<path d="M31.804 15.182l-8.522-9.27-7.295 7.859-7.168-7.859-8.536 9.27c-0.381 0.409-0.381 1.044 0 1.467l8.536 9.312 7.168-7.69 7.295 7.69 8.536-9.326c0.367-0.409 0.367-1.044-0.014-1.453zM4.361 16.437c-0.296-0.339-0.296-0.847 0.014-1.171l4.459-4.684 5.164 5.404-5.164 5.404-4.473-4.952zM27.712 16.437l-4.487 4.952-5.164-5.404 5.164-5.404 4.459 4.67c0.325 0.325 0.339 0.847 0.028 1.185z"></path>
<path d="M9.243 11.005l12.346 13.178 2.046-2.384-12.261-13.079-2.13 2.286z"></path>
<path d="M9.046 21.122l2.102 2.201 12.275-12.995-2.131-2.286"></path>
</svg>
