<?xml version="1.0" encoding="utf-8"?>
<!-- Generator: Adobe Illustrator 22.0.1, SVG Export Plug-In . SVG Version: 6.00 Build 0)  -->
<svg version="1.1" id="Layer_1" xmlns="http://www.w3.org/2000/svg" xmlns:xlink="http://www.w3.org/1999/xlink" x="0px" y="0px"
	 viewBox="0 0 226.8 226.8" style="enable-background:new 0 0 226.8 226.8;" xml:space="preserve">
<style type="text/css">
	.st0{stroke:#FFFFFF;stroke-miterlimit:10;}
</style>
<g transform="translate(.01)">
	<path class="st0" d="M225.4,107.6L165,41.9l-51.7,55.7L62.5,41.9L2,107.6c-2.7,2.9-2.7,7.4,0,10.4L62.5,184l50.8-54.5L165,184
		l60.5-66.1C228.1,115,228.1,110.5,225.4,107.6z M30.9,116.5c-2.1-2.4-2.1-6,0.1-8.3L62.6,75l36.6,38.3l-36.6,38.3L30.9,116.5z
		 M196.4,116.5l-31.8,35.1l-36.6-38.3l36.6-38.3l31.6,33.1C198.5,110.4,198.6,114.1,196.4,116.5z"/>
	<path class="st0" d="M65.5,78l87.5,93.4l14.5-16.9L80.6,61.8L65.5,78z"/>
	<path class="st0" d="M64.1,149.7L79,165.3l87-92.1L150.9,57"/>
</g>
</svg>
