<!-- Generated by IcoMoon.io -->
<svg version="1.1" xmlns="http://www.w3.org/2000/svg" width="32" height="32" viewBox="0 0 32 32">
<title>PAYMIUM</title>
<path d="M2.526 31.238c-0.014-1.256-0.014-2.526-0.028-3.781 0-0.395 0.155-0.564 0.55-0.55 0.818 0.014 1.651 0 2.469 0 1.834-0.014 3.316-1.072 3.866-2.765 0.578-1.778-0.028-3.654-1.51-4.741-0.776-0.578-1.651-0.818-2.61-0.818-1.411 0-2.836 0-4.247 0-0.282 0-0.564 0-0.818 0-0.198-0.621-0.268-16.72-0.099-18.102 0.522-0.198 30.575-0.282 31.69-0.085 0.183 0.564 0.24 17.284 0.028 18.201-0.522 0-1.086 0.028-1.637-0.014-0.48-0.028-0.734 0.141-0.959 0.578-0.818 1.608-1.693 3.189-2.54 4.769-0.113 0.226-0.254 0.437-0.451 0.776-0.183-0.254-0.325-0.423-0.423-0.607-0.861-1.637-1.735-3.273-2.582-4.924-0.212-0.423-0.466-0.621-0.945-0.593-0.593 0.028-1.185 0.014-1.848 0.014 0.085 0.212 0.127 0.381 0.212 0.522 1.355 2.342 2.709 4.684 4.049 7.026 0.141 0.24 0.296 0.522 0.296 0.776 0.014 1.439-0.014 2.878-0.028 4.317-1.185 0-2.37 0-3.556 0-0.466-1.171-0.917-2.342-1.397-3.513-1.143-2.836-2.286-5.672-3.443-8.508-0.085-0.212-0.212-0.536-0.353-0.55-0.536-0.071-1.086-0.127-1.608-0.014-0.226 0.042-0.409 0.48-0.536 0.776-1.27 3.090-2.526 6.194-3.781 9.298-0.339 0.832-0.621 1.679-0.931 2.526-2.3-0.014-4.571-0.014-6.829-0.014z"></path>
<path d="M27.4 31.238c-0.014-1.383-0.028-2.78-0.014-4.162 0-0.24 0.099-0.508 0.226-0.72 1.284-2.258 2.568-4.515 3.866-6.758 0.071-0.127 0.183-0.226 0.367-0.437 0.042 0.31 0.085 0.494 0.099 0.677 0.028 3.443 0.042 6.885 0.056 10.328 0 0.353-0.071 0.705-0.113 1.072-1.496 0-2.991 0-4.487 0z"></path>
<path d="M11.795 31.238c0.353-0.959 0.705-1.933 1.058-2.892 0.099-0.296 0.31-0.367 0.593-0.367 1.256 0 2.526 0 3.781 0 0.339 0 0.508 0.141 0.621 0.451 0.339 0.945 0.705 1.877 1.058 2.808-2.37 0-4.741 0-7.111 0z"></path>
<path d="M2.497 20.698c1.185 0 2.229 0 3.273 0 0.099 0 0.198 0.056 0.296 0.099 0.818 0.353 1.27 1.411 1.072 2.497-0.183 1.002-0.79 1.566-1.778 1.594-0.762 0.028-1.538 0-2.314 0-0.31 0-0.564-0.085-0.564-0.466 0.014-1.199 0.014-2.399 0.014-3.725z"></path>
<path d="M15.45 21.291c0.578 1.637 1.157 3.273 1.735 4.882-0.55 0.31-2.836 0.367-3.767 0.085 0.607-1.665 1.213-3.33 1.806-4.995 0.071 0.028 0.155 0.028 0.226 0.028z"></path>
</svg>
