<?xml version="1.0" encoding="utf-8"?>
<!-- Generator: Adobe Illustrator 22.1.0, SVG Export Plug-In . SVG Version: 6.00 Build 0)  -->
<svg version="1.1" id="Layer_1" xmlns="http://www.w3.org/2000/svg" xmlns:xlink="http://www.w3.org/1999/xlink" x="0px" y="0px"
	 viewBox="0 0 226.8 226.8" style="enable-background:new 0 0 226.8 226.8;" xml:space="preserve">
<g>
	<g>
		<path d="M1.1,107.7c1.2-6.1,1.9-12.3,3.8-18.1C8,80,11.8,70.5,15.8,61.2c0.7-1.7,3.6-3.5,5.5-3.5c36.8-0.2,73.7-0.3,110.5,0.1
			c14.1,0.1,22.5,9.6,22.5,23.6c0,15.1,0.1,30.2,0,45.4c-0.1,15.9-7.4,23.2-23.3,23.2c-29.3,0-58.6,0-87.9,0c-2,0-4,0.2-7.1,0.4
			c9.6,20.6,24.4,34.2,44.2,43.7c-4.4,7.5-8.7,14.8-12.9,22c-29.8-7.8-66.7-58.7-63.5-87.7c1.2-0.1,2.5-0.3,3.7-0.3c34,0,68,0,102,0
			c2.4,0,5-0.1,7.3-0.8c4.5-1.4,7.4-4.1,7.2-9.4c-0.3-7.9,0-15.9-0.1-23.8c-0.1-6.1-2.5-8.9-8.5-8.9C89.7,84.8,63.8,84.8,38,85
			c-1.9,0-5,2.2-5.5,4c-1.8,6.3-3.3,12.8-3.8,19.3c-0.3,4.9-2.2,5.9-6.6,5.8c-7-0.2-13.9,0.2-20.9,0.4C1.1,112.3,1.1,110,1.1,107.7z
			"/>
		<path d="M105.5,227.9c-4.3-1-8.7-2-13.8-3.3c4.4-7.8,8.8-15.6,13.4-23.2c0.5-0.9,2.6-1.1,3.9-1.1c43.5,2.4,81.5-27,90.1-69.9
			c10.9-54.5-35.6-106.5-90.9-101.7c-11.4,1-22.2,3.9-32.5,9c-1.8,0.9-3.9,1.4-5.9,1.5c-12.6,0.1-25.2,0.1-39.3,0.1
			c2.3-2.4,3.8-4.1,5.5-5.7c18.4-17.7,40.3-28.2,65.8-31c2-0.2,4-1,6-1.5c4.5,0,9.1,0,13.6,0c2.4,0.5,4.7,1.3,7.1,1.6
			C172.9,8,210,39.3,222.5,82.4c2.4,8.3,3.6,16.9,5.4,25.3c0,4.5,0,9.1,0,13.6c-0.5,2.2-1.3,4.3-1.6,6.5
			c-5.8,48.7-40.4,86.7-88.5,97c-4.7,1-9.5,2-14.2,3C117.6,227.9,111.5,227.9,105.5,227.9z"/>
	</g>
</g>
</svg>
