<!-- Generated by IcoMoon.io -->
<svg version="1.1" xmlns="http://www.w3.org/2000/svg" width="32" height="32" viewBox="0 0 32 32">
<title>PEPECASH</title>
<path d="M0.155 15.196c0.169-0.861 0.268-1.735 0.536-2.554 0.437-1.354 0.974-2.695 1.538-4.007 0.099-0.24 0.508-0.494 0.776-0.494 5.192-0.028 10.399-0.042 15.591 0.014 1.989 0.014 3.175 1.354 3.175 3.33 0 2.13 0.014 4.261 0 6.406-0.014 2.243-1.044 3.273-3.287 3.273-4.134 0-8.268 0-12.402 0-0.282 0-0.564 0.028-1.002 0.056 1.354 2.907 3.443 4.825 6.236 6.166-0.621 1.058-1.227 2.088-1.82 3.104-4.205-1.101-9.411-8.282-8.959-12.374 0.169-0.014 0.353-0.042 0.522-0.042 4.797 0 9.594 0 14.392 0 0.339 0 0.705-0.014 1.030-0.113 0.635-0.198 1.044-0.578 1.016-1.326-0.042-1.115 0-2.243-0.014-3.358-0.014-0.861-0.353-1.256-1.199-1.256-3.626-0.056-7.28-0.056-10.921-0.028-0.268 0-0.705 0.31-0.776 0.564-0.254 0.889-0.466 1.806-0.536 2.723-0.042 0.691-0.31 0.832-0.931 0.818-0.988-0.028-1.961 0.028-2.949 0.056-0.014-0.31-0.014-0.635-0.014-0.959z"></path>
<path d="M14.885 32.155c-0.607-0.141-1.227-0.282-1.947-0.466 0.621-1.101 1.242-2.201 1.891-3.273 0.071-0.127 0.367-0.155 0.55-0.155 6.138 0.339 11.499-3.81 12.713-9.862 1.538-7.69-5.023-15.026-12.825-14.349-1.608 0.141-3.132 0.55-4.586 1.27-0.254 0.127-0.55 0.198-0.832 0.212-1.778 0.014-3.556 0.014-5.545 0.014 0.324-0.339 0.536-0.578 0.776-0.804 2.596-2.497 5.686-3.979 9.284-4.374 0.282-0.028 0.564-0.141 0.847-0.212 0.635 0 1.284 0 1.919 0 0.339 0.071 0.663 0.183 1.002 0.226 6.265 0.748 11.499 5.164 13.263 11.245 0.339 1.171 0.508 2.384 0.762 3.57 0 0.635 0 1.284 0 1.919-0.071 0.31-0.183 0.607-0.226 0.917-0.818 6.871-5.7 12.233-12.487 13.686-0.663 0.141-1.34 0.282-2.004 0.423-0.847 0.014-1.707 0.014-2.554 0.014z"></path>
</svg>
