<?xml version="1.0" encoding="utf-8"?>
<!-- Generator: Adobe Illustrator 22.1.0, SVG Export Plug-In . SVG Version: 6.00 Build 0)  -->
<svg version="1.1" id="Layer_1" xmlns="http://www.w3.org/2000/svg" xmlns:xlink="http://www.w3.org/1999/xlink" x="0px" y="0px"
	 viewBox="0 0 226.8 226.8" style="enable-background:new 0 0 226.8 226.8;" xml:space="preserve">
<g>
	<path d="M72.8,169.7c9.8,5.6,18.2,10.6,26.7,15.3c13.3,7.4,8.7,7.9,22.3,0.1c17-9.7,33.9-19.7,51-29.3c3.9-2.2,5.5-4.9,5.5-9.5
		c-0.2-22-0.2-43.9,0-65.9c0-4.6-1.6-7.2-5.5-9.5c-18.9-10.7-37.7-21.5-56.4-32.5c-3.9-2.3-6.9-2.4-10.9,0
		C86.6,49.6,67.5,60.6,48.4,71.3c-4.1,2.3-5.4,4.9-5.4,9.4c0.2,33.2,0.1,66.3,0.1,99.5c0,2.5,0,5.1,0,8.2c-2-0.8-3.3-1.1-4.5-1.7
		c-7.9-4.5-15.7-9.2-23.7-13.6c-2.7-1.5-3.9-3.4-3.9-6.7c0.1-35.3,0.2-70.5,0-105.8c0-4,2.1-5.7,5.1-7.4C42.4,38.1,68.7,22.9,95,7.7
		c5-2.9,10.2-7.7,15.3-7.7c5.1,0,10.3,4.8,15.4,7.6c25.9,14.9,51.8,29.9,77.8,44.6c4.7,2.6,6.4,5.6,6.4,11
		c-0.3,33.4-0.2,66.8,0,100.2c0,5.3-1.4,8.4-6.2,11.1c-29.3,16.6-58.4,33.4-87.4,50.3c-4.2,2.4-7.3,2.6-11.5,0
		c-8.9-5.5-18.1-10.6-27.2-15.8c-2.5-1.4-4.8-2.7-4.7-6.2C72.9,192.4,72.8,181.9,72.8,169.7z"/>
	<path d="M73.9,113.6c0-5.6,0.1-11.2,0-16.8c-0.1-3.1,0.7-5.3,3.6-6.9c10-5.6,19.7-11.5,29.8-17c1.7-0.9,4.7-0.9,6.3,0
		c10,5.5,19.8,11.4,29.8,17c2.8,1.6,3.8,3.7,3.8,6.8c-0.1,11.2-0.1,22.4,0,33.6c0,3.2-1.2,5.2-4,6.7c-9.6,5.4-19,10.8-28.5,16.4
		c-2.9,1.7-5.4,1.9-8.4,0.1c-9.2-5.5-18.5-10.9-27.9-16.1c-3.3-1.8-4.8-3.9-4.6-7.7C74,124.4,73.9,119,73.9,113.6z"/>
</g>
</svg>
