<!-- Generated by IcoMoon.io -->
<svg version="1.1" xmlns="http://www.w3.org/2000/svg" width="32" height="32" viewBox="0 0 32 32">
<title>PHR</title>
<path d="M10.272 23.944c1.383 0.79 2.568 1.496 3.767 2.159 1.877 1.044 1.227 1.115 3.146 0.014 2.399-1.369 4.783-2.78 7.196-4.134 0.55-0.31 0.776-0.691 0.776-1.34-0.028-3.104-0.028-6.194 0-9.298 0-0.649-0.226-1.016-0.776-1.34-2.667-1.51-5.319-3.034-7.958-4.586-0.55-0.324-0.974-0.339-1.538 0-2.667 1.58-5.362 3.132-8.056 4.642-0.578 0.325-0.762 0.691-0.762 1.326 0.028 4.684 0.014 9.355 0.014 14.039 0 0.353 0 0.72 0 1.157-0.282-0.113-0.466-0.155-0.635-0.24-1.115-0.635-2.215-1.298-3.344-1.919-0.381-0.212-0.55-0.48-0.55-0.945 0.014-4.981 0.028-9.947 0-14.928 0-0.564 0.296-0.804 0.72-1.044 3.711-2.13 7.422-4.275 11.132-6.42 0.705-0.409 1.439-1.086 2.159-1.086s1.453 0.677 2.173 1.072c3.654 2.102 7.309 4.219 10.977 6.293 0.663 0.367 0.903 0.79 0.903 1.552-0.042 4.713-0.028 9.425 0 14.138 0 0.748-0.198 1.185-0.875 1.566-4.134 2.342-8.24 4.713-12.332 7.097-0.593 0.339-1.030 0.367-1.623 0-1.256-0.776-2.554-1.496-3.838-2.229-0.353-0.198-0.677-0.381-0.663-0.875 0-1.467-0.014-2.949-0.014-4.67z"></path>
<path d="M10.427 16.028c0-0.79 0.014-1.58 0-2.37-0.014-0.437 0.099-0.748 0.508-0.974 1.411-0.79 2.78-1.623 4.205-2.399 0.24-0.127 0.663-0.127 0.889 0 1.411 0.776 2.794 1.608 4.205 2.399 0.395 0.226 0.536 0.522 0.536 0.959-0.014 1.58-0.014 3.16 0 4.741 0 0.451-0.169 0.734-0.564 0.945-1.355 0.762-2.681 1.524-4.021 2.314-0.409 0.24-0.762 0.268-1.185 0.014-1.298-0.776-2.61-1.538-3.937-2.272-0.466-0.254-0.677-0.55-0.649-1.086 0.028-0.748 0.014-1.51 0.014-2.272z"></path>
</svg>
