<!-- Generated by IcoMoon.io -->
<svg version="1.1" xmlns="http://www.w3.org/2000/svg" width="32" height="32" viewBox="0 0 32 32">
<title>PIGGY</title>
<path d="M31.283 17.199l-1.112-1.165c0.037-2.469-0.678-4.911-2.058-7.076 0.436-1.576 1.264-4.744 1.134-5.614-0.174-1.173-1.39-3.086-4.303-2.825-1.999 0.179-3.771 1.43-4.687 2.197-3.797-1.515-7.289-1.437-10.173-0.691-0.975-0.629-2.667-1.448-3.899-0.572-1.125 0.8-1.496 2.167-1.616 3.103-0.003 0.001-0.006 0.003-0.008 0.005 0 0-4.563 2.781-4.563 9.692 0 3.884 1.332 6.724 3.263 8.861 0.057 0.856 0.256 1.917 0.866 2.308 0.537 0.344 1.414 0.348 2.164 0.263 0.725 0.483 1.474 0.914 2.226 1.301 1.325 0.683 3.001 1.343 4.858 1.736 0.798 1.103 2.299 2.813 3.92 2.784 1.734-0.032 3.052-1.776 3.681-3.098 1.917-0.644 3.807-1.8 5.536-3.666 1.132 0.658 3.081-0.435 4.392-2.481 1.331-2.076 1.5-4.342 0.377-5.062zM17.558 5.038s-2.413-1.526-4.735-1.796c-2.321-0.27-4.1 0.069-4.711 0.072l1.188-0.471s1.602-0.721 5.259-0.217c3.151 0.435 4.455 1.564 4.455 1.564l-1.456 0.848zM24.626 15.451c-0.52 0.021-0.973-0.772-1.012-1.77s0.35-1.824 0.87-1.845c0.52-0.021 0.973 0.772 1.012 1.771s-0.35 1.824-0.87 1.844zM27.179 14.031c-0.44 0.018-0.824-0.654-0.858-1.501s0.297-1.546 0.738-1.564c0.441-0.018 0.825 0.655 0.858 1.501s-0.297 1.547-0.738 1.564zM29.256 21.624c-0.078 0.745-0.441 1.316-0.812 1.277-0.37-0.038-0.606-0.673-0.528-1.417s0.442-1.316 0.812-1.276c0.37 0.038 0.606 0.673 0.528 1.417zM31.043 19.93c-0.071 0.679-0.391 1.202-0.714 1.168s-0.527-0.611-0.456-1.291c0.072-0.679 0.391-1.202 0.714-1.167s0.527 0.611 0.455 1.29z"></path>
</svg>
