<!-- Generated by IcoMoon.io -->
<svg version="1.1" xmlns="http://www.w3.org/2000/svg" width="32" height="32" viewBox="0 0 32 32">
<title>PLBT</title>
<path d="M14.871 7.633c0-1.298 0.014-2.61-0.014-3.908 0-0.268 0.071-0.353 0.339-0.353 1.072 0.014 2.131 0 3.203 0 1.524 0 3.048 0 4.586 0 0.437 0 0.466 0.028 0.466 0.452 0 2.526 0 5.051 0 7.577 0 0.494 0 0.508 0.508 0.508 2.526 0 5.051 0 7.577 0 0.466 0 0.466 0.014 0.466 0.466 0 2.54 0 5.079 0 7.605 0 0.508 0 0.508-0.494 0.508-2.54 0-5.079 0-7.605 0-0.451 0-0.451 0-0.451 0.451 0 2.526 0 5.051 0 7.577 0 0.508-0.014 0.508-0.508 0.522-2.526 0-5.051 0-7.577 0-0.48 0-0.48 0-0.48-0.494 0-2.54 0-5.079 0-7.605 0-0.466 0-0.466 0.466-0.466 2.511 0 5.023 0 7.534 0 0.494 0 0.494 0 0.494-0.48 0-2.54 0-5.079 0-7.605 0-0.451 0-0.451-0.451-0.451-2.526 0-5.051 0-7.577 0-0.466 0-0.48 0-0.48-0.466 0.014-1.27 0.014-2.554 0-3.838 0.014 0 0 0 0 0z"></path>
<path d="M12.007 16.198c-0.099 0.127-0.183 0.24-0.282 0.339-1.425 1.425-2.85 2.85-4.275 4.289-0.409 0.409-0.818 0.804-1.213 1.213-0.198 0.198-0.324 0.183-0.522 0-1.848-1.862-3.697-3.711-5.559-5.545-0.212-0.198-0.226-0.339-0.014-0.55 1.312-1.298 2.596-2.596 3.908-3.894 0.522-0.522 1.030-1.030 1.552-1.538 0.381-0.367 0.381-0.367 0.762 0.014 1.298 1.298 2.596 2.596 3.894 3.908 0.508 0.508 1.016 1.016 1.524 1.524 0.085 0.056 0.141 0.141 0.226 0.24z"></path>
</svg>
