<?xml version="1.0" encoding="utf-8"?>
<!-- Generator: Adobe Illustrator 22.1.0, SVG Export Plug-In . SVG Version: 6.00 Build 0)  -->
<svg version="1.1" id="Layer_1" xmlns="http://www.w3.org/2000/svg" xmlns:xlink="http://www.w3.org/1999/xlink" x="0px" y="0px"
	 viewBox="0 0 226.8 226.8" style="enable-background:new 0 0 226.8 226.8;" xml:space="preserve">
<g>
	<path d="M105.4,54.1c0-9.2,0.1-18.5-0.1-27.7c0-1.9,0.5-2.5,2.4-2.5c7.6,0.1,15.1,0,22.7,0c10.8,0,21.6,0,32.5,0
		c3.1,0,3.3,0.2,3.3,3.2c0,17.9,0,35.8,0,53.7c0,3.5,0,3.6,3.6,3.6c17.9,0,35.8,0,53.7,0c3.3,0,3.3,0.1,3.3,3.3c0,18,0,36,0,53.9
		c0,3.6,0,3.6-3.5,3.6c-18,0-36,0-53.9,0c-3.2,0-3.2,0-3.2,3.2c0,17.9,0,35.8,0,53.7c0,3.6-0.1,3.6-3.6,3.7c-17.9,0-35.8,0-53.7,0
		c-3.4,0-3.4,0-3.4-3.5c0-18,0-36,0-53.9c0-3.3,0-3.3,3.3-3.3c17.8,0,35.6,0,53.4,0c3.5,0,3.5,0,3.5-3.4c0-18,0-36,0-53.9
		c0-3.2,0-3.2-3.2-3.2c-17.9,0-35.8,0-53.7,0c-3.3,0-3.4,0-3.4-3.3C105.5,72.3,105.5,63.2,105.4,54.1
		C105.5,54.1,105.4,54.1,105.4,54.1z"/>
	<path d="M85.1,114.8c-0.7,0.9-1.3,1.7-2,2.4c-10.1,10.1-20.2,20.2-30.3,30.4c-2.9,2.9-5.8,5.7-8.6,8.6c-1.4,1.4-2.3,1.3-3.7,0
		C27.4,143,14.3,129.9,1.1,116.9c-1.5-1.4-1.6-2.4-0.1-3.9c9.3-9.2,18.4-18.4,27.7-27.6c3.7-3.7,7.3-7.3,11-10.9
		c2.7-2.6,2.7-2.6,5.4,0.1c9.2,9.2,18.4,18.4,27.6,27.7c3.6,3.6,7.2,7.2,10.8,10.8C84.1,113.5,84.5,114.1,85.1,114.8z"/>
</g>
</svg>
