<!-- Generated by IcoMoon.io -->
<svg version="1.1" xmlns="http://www.w3.org/2000/svg" width="32" height="32" viewBox="0 0 32 32">
<title>PLR</title>
<path d="M3.827 23.693h-0.154v6.515h-3.674v-22.042h3.597v1.011h0.141c1.254-1.203 2.854-1.242 3.75-1.242 3.763 0 6.221 3.584 6.221 8.358v0.614c0 4.979-2.854 7.936-6.285 7.936-1.613 0.026-2.803-0.346-3.597-1.152zM10.291 17.216v-1.088c0-3.11-1.19-5.197-3.302-5.197-2.291 0-3.507 2.419-3.507 5.197v1.075c0 2.65 1.203 4.672 3.571 4.672 1.869 0 3.238-1.446 3.238-4.659z"></path>
<path d="M15.488 1.613h3.686v23.155h-3.686z"></path>
<path d="M29.683 11.789c-2.061 0-4.109 1.638-4.109 3.712v9.28h-3.661v-16.461h3.392v1.011h0.141c0.819-0.87 2.842-1.28 4.493-1.254 0.166 0 0.026 0 0.192 0l0.026 3.712z"></path>
<path d="M28.134 20.826h3.661v3.942h-3.661v-3.942z"></path>
</svg>
