<?xml version="1.0" encoding="utf-8"?>
<!-- Generator: Adobe Illustrator 22.1.0, SVG Export Plug-In . SVG Version: 6.00 Build 0)  -->
<svg version="1.1" id="Layer_1" xmlns="http://www.w3.org/2000/svg" xmlns:xlink="http://www.w3.org/1999/xlink" x="0px" y="0px"
	 viewBox="0 0 250 250" style="enable-background:new 0 0 250 250;" xml:space="preserve">
<path d="M29.9,185.1h-1.2V236H0V63.8h28.1v7.9h1.1c9.8-9.4,22.3-9.7,29.3-9.7c29.4,0,48.6,28,48.6,65.3v4.8c0,38.9-22.3,62-49.1,62
	C45.4,194.3,36.1,191.4,29.9,185.1 M80.4,134.5v-8.5c0-24.3-9.3-40.6-25.8-40.6c-17.9,0-27.4,18.9-27.4,40.6v8.4
	c0,20.7,9.4,36.5,27.9,36.5C69.7,170.9,80.4,159.6,80.4,134.5"/>
<path d="M121,12.6h28.8v180.9H121"/>
<path d="M231.9,92.1c-16.1,0-32.1,12.8-32.1,29v72.5h-28.6V65h26.5v7.9h1.1c6.4-6.8,22.2-10,35.1-9.8c1.3,0,0.2,0,1.5,0l0.2,29"/>
<path d="M219.8,162.7h28.6v30.8h-28.6V162.7z"/>
</svg>
