<!-- Generated by IcoMoon.io -->
<svg version="1.1" xmlns="http://www.w3.org/2000/svg" width="32" height="32" viewBox="0 0 32 32">
<title>POA</title>
<path d="M16 2.681c5.376 8.945 10.638 17.721 16 26.638-10.723 0-21.249 0-32 0 5.347-8.889 10.61-17.665 16-26.638zM2.935 27.866c8.776 0 17.369 0 26.145 0-1.439-2.455-2.794-4.769-4.219-7.196-5.912 5.474-11.795 5.474-17.693 0-1.439 2.427-2.808 4.755-4.233 7.196zM7.732 19.443c4.797 5.15 11.739 5.178 16.48 0.028-4.303-4.854-11.316-5.46-16.48-0.028zM21.813 15.873c0.042-0.071 0.071-0.127 0.113-0.198-1.947-3.316-3.88-6.631-5.926-10.13-2.046 3.499-3.993 6.815-5.94 10.145 0.042 0.056 0.085 0.127 0.127 0.183 3.866-2.286 7.746-2.3 11.626 0z"></path>
<path d="M15.972 22.448c-1.679-0.014-2.991-1.326-2.991-2.991 0-1.693 1.354-3.005 3.090-2.991 1.679 0.028 2.977 1.369 2.963 3.034-0.042 1.665-1.383 2.963-3.062 2.949zM17.552 19.527c0.042-0.847-0.607-1.58-1.467-1.637-0.832-0.056-1.58 0.621-1.637 1.453-0.056 0.875 0.621 1.651 1.496 1.679 0.832 0.028 1.566-0.649 1.608-1.496z"></path>
</svg>
