<?xml version="1.0" encoding="utf-8"?>
<!-- Generator: Adobe Illustrator 22.1.0, SVG Export Plug-In . SVG Version: 6.00 Build 0)  -->
<svg version="1.1" id="Layer_1" xmlns="http://www.w3.org/2000/svg" xmlns:xlink="http://www.w3.org/1999/xlink" x="0px" y="0px"
	 viewBox="0 0 226.8 226.8" style="enable-background:new 0 0 226.8 226.8;" xml:space="preserve">
<g>
	<path d="M113.4,19c38.1,63.4,75.4,125.6,113.4,188.8c-76,0-150.6,0-226.8,0C37.9,144.8,75.2,82.6,113.4,19z M20.8,197.5
		c62.2,0,123.1,0,185.3,0c-10.2-17.4-19.8-33.8-29.9-51c-41.9,38.8-83.6,38.8-125.4,0C40.6,163.7,30.9,180.2,20.8,197.5z
		 M54.8,137.8c34,36.5,83.2,36.7,116.8,0.2C141.1,103.6,91.4,99.3,54.8,137.8z M154.6,112.5c0.3-0.5,0.5-0.9,0.8-1.4
		c-13.8-23.5-27.5-47-42-71.8c-14.5,24.8-28.3,48.3-42.1,71.9c0.3,0.4,0.6,0.9,0.9,1.3C99.6,96.3,127.1,96.2,154.6,112.5z"/>
	<path d="M113.2,159.1C101.3,159,92,149.7,92,137.9c0-12,9.6-21.3,21.9-21.2c11.9,0.2,21.1,9.7,21,21.5
		C134.6,150,125.1,159.2,113.2,159.1z M124.4,138.4c0.3-6-4.3-11.2-10.4-11.6c-5.9-0.4-11.2,4.4-11.6,10.3
		c-0.4,6.2,4.4,11.7,10.6,11.9C118.9,149.2,124.1,144.4,124.4,138.4z"/>
</g>
</svg>
