<!-- Generated by IcoMoon.io -->
<svg version="1.1" xmlns="http://www.w3.org/2000/svg" width="32" height="32" viewBox="0 0 32 32">
<title>POE</title>
<path d="M29.827 2.695c-1.256-1.27-2.977-1.989-4.769-1.989-1.792-0.014-3.513 0.705-4.769 1.989l-15.591 15.549c-0.155 0.169-0.24 0.381-0.24 0.607v8l-4.289 4.332h2.37l3.189-3.189h7.972c0.226 0 0.437-0.085 0.578-0.268l15.548-15.52c1.256-1.27 1.961-2.977 1.961-4.769 0.014-1.764-0.691-3.485-1.961-4.741M20.769 4.501l0.677-0.677c2.004-1.989 5.235-1.989 7.252 0 0.028 0.028 0.028 0.056 0.056 0.056 1.933 2.018 1.905 5.206-0.056 7.182l-0.677 0.677h-6.025l3.951-3.951c0.31-0.31 0.325-0.818 0.028-1.143-0.028-0.028-0.028-0.028-0.028-0.056-0.325-0.325-0.847-0.325-1.171 0l-4.007 4.007v-6.095M7.365 26.356l3.245-3.245h6.025l-3.245 3.245M16.832 16.889l3.852-3.852h6.025l-3.852 3.852M21.531 18.215l-3.598 3.598h-6.011l3.598-3.598M15.605 9.651l3.852-3.866v6.109l-3.852 3.852M10.695 14.561l3.598-3.598v6.109l-3.598 3.598M6.109 19.146l3.302-3.273v6.109l-3.302 3.273"></path>
</svg>
