<?xml version="1.0" encoding="utf-8"?>
<!-- Generator: Adobe Illustrator 22.0.1, SVG Export Plug-In . SVG Version: 6.00 Build 0)  -->
<svg version="1.1" id="Layer_1" xmlns="http://www.w3.org/2000/svg" xmlns:xlink="http://www.w3.org/1999/xlink" x="0px" y="0px"
	 viewBox="0 0 226.8 226.8" style="enable-background:new 0 0 226.8 226.8;" xml:space="preserve">
<style type="text/css">
	.st0{stroke:#FFFFFF;stroke-miterlimit:10;}
</style>
<path class="st0" d="M211.4,19.1c-8.9-9-21.1-14.1-33.8-14.1c-12.7-0.1-24.9,5-33.8,14.1L33.3,129.3c-1.1,1.2-1.7,2.7-1.7,4.3v56.7
	L1.2,221H18l22.6-22.6h56.5c1.6,0,3.1-0.6,4.1-1.9l110-109.8l0.2-0.2c8.9-9,13.9-21.1,13.9-33.8C225.4,40.2,220.4,28,211.4,19.1
	 M147.2,31.9l4.8-4.8c14.2-14.1,37.1-14.1,51.4,0c0.2,0.2,0.2,0.4,0.4,0.4c13.7,14.3,13.5,36.9-0.4,50.9l-4.8,4.8h-42.7l28-28
	c2.2-2.2,2.3-5.8,0.2-8.1c-0.2-0.2-0.2-0.2-0.2-0.4c-2.3-2.3-6-2.3-8.3,0l-28.4,28.4V31.9 M52.2,186.8l23-23h42.7l-23,23
	 M119.3,119.7l27.3-27.3h42.7L162,119.7 M152.6,129.1l-25.5,25.5H84.5l25.5-25.5 M110.6,68.4L137.9,41v43.3l-27.3,27.3 M75.8,103.2
	l25.5-25.5V121l-25.5,25.5 M43.3,135.7l23.4-23.2v43.3L43.3,179"/>
</svg>
