<?xml version="1.0" encoding="utf-8"?>
<!-- Generator: Adobe Illustrator 22.0.1, SVG Export Plug-In . SVG Version: 6.00 Build 0)  -->
<svg version="1.1" id="Layer_1" xmlns="http://www.w3.org/2000/svg" xmlns:xlink="http://www.w3.org/1999/xlink" x="0px" y="0px"
	 viewBox="0 0 250 250" style="enable-background:new 0 0 250 250;" xml:space="preserve">
<style type="text/css">
	.st0{display:none;stroke:#FFFFFF;stroke-miterlimit:10;}
	.st1{stroke:#FFFFFF;stroke-miterlimit:10;}
</style>
<g transform="translate(-1.3-1)">
	<path class="st0" d="M1.3,1.4h246.1v246.1H1.3V1.4z"/>
</g>
<g>
	<g>
		<path class="st1" d="M34.2,150.2c0-28.2-0.2-56.4,0.1-84.5c0.1-7.8,0.6-15.8,2.8-23.2C42.8,23.1,57.7,12.6,76,7.2
			C110.2-3,144.8-2.3,178.5,8.8c32.3,10.6,51.9,40.5,52.9,74.5c0.8,27.4-6.9,51-27.9,69c-18.8,16-41.3,22.8-65.6,23.8
			c-8.8,0.4-17.5,0.1-26.3,0.1c-7.5,0-8.1,0.6-8.1,7.9c0,10.3,0,20.5,0,30.8c0,13.3-6.1,23-18.1,28.4c-15,6.9-30.9,7.9-47.1,5.6
			c-4.2-0.6-4-3.8-4-6.8c0-14.6,0-29.1,0-43.7C34.2,182.3,34.2,166.3,34.2,150.2z M55.3,139.1c0,25.4,0,50.8,0,76.2
			c0,14.7,1.5,15.8,15.8,11.3c9.5-3,11.2-5.3,11.3-15.3c0-15.5,0-31,0-46.5c0-8.7,0.3-9,9.3-9c7.3,0,14.6,0.3,21.8-0.1
			c14.5-0.9,29.3-0.5,43.4-3.6c26.8-5.9,46.6-20.9,52.6-49.5c8.4-40.1-14.3-72.4-54.8-78.5c-6.3-1-12.6-1.8-18.9-2.3
			c-19.3-1.3-38.5-0.6-56.9,6.5c-16.9,6.5-23.5,16.1-23.6,34C55.3,87.9,55.3,113.5,55.3,139.1z"/>
	</g>
</g>
</svg>
