<!-- Generated by IcoMoon.io -->
<svg version="1.1" xmlns="http://www.w3.org/2000/svg" width="32" height="32" viewBox="0 0 32 32">
<title>POLY</title>
<path d="M4.378 19.226c0-3.61-0.026-7.219 0.013-10.816 0.013-0.998 0.077-2.022 0.358-2.97 0.73-2.483 2.637-3.827 4.979-4.518 4.378-1.306 8.806-1.216 13.12 0.205 4.134 1.357 6.643 5.184 6.771 9.536 0.102 3.507-0.883 6.528-3.571 8.832-2.406 2.048-5.286 2.918-8.397 3.046-1.126 0.051-2.24 0.013-3.366 0.013-0.96 0-1.037 0.077-1.037 1.011 0 1.318 0 2.624 0 3.942 0 1.702-0.781 2.944-2.317 3.635-1.92 0.883-3.955 1.011-6.029 0.717-0.538-0.077-0.512-0.486-0.512-0.87 0-1.869 0-3.725 0-5.594-0.013-2.061-0.013-4.109-0.013-6.17zM7.078 17.805c0 3.251 0 6.502 0 9.754 0 1.882 0.192 2.022 2.022 1.446 1.216-0.384 1.434-0.678 1.446-1.958 0-1.984 0-3.968 0-5.952 0-1.114 0.038-1.152 1.19-1.152 0.934 0 1.869 0.038 2.79-0.013 1.856-0.115 3.75-0.064 5.555-0.461 3.43-0.755 5.965-2.675 6.733-6.336 1.075-5.133-1.83-9.267-7.014-10.048-0.806-0.128-1.613-0.23-2.419-0.294-2.47-0.166-4.928-0.077-7.283 0.832-2.163 0.832-3.008 2.061-3.021 4.352 0 3.277 0 6.554 0 9.83z"></path>
</svg>
