<!-- Generated by IcoMoon.io -->
<svg version="1.1" xmlns="http://www.w3.org/2000/svg" width="32" height="32" viewBox="0 0 32 32">
<title>POWR</title>
<path d="M17.939 21.392c1.638 0 2.957-1.318 2.957-2.944s-1.318-2.944-2.957-2.944-2.957 1.318-2.957 2.944c0.013 1.626 1.331 2.944 2.957 2.944z"></path>
<path d="M0.358 17.471c0 0-1.933-4.582 4.723-7.398 5.325-2.253 11.584-2.061 17.869-0.154 7.258 2.214 9.050 6.784 9.050 6.784s-3.776-9.357-18.931-9.882c-4.749-0.154-8.128 1.587-10.010 2.957-4.506 3.251-2.701 7.693-2.701 7.693z"></path>
<path d="M14.118 2.202c0 0-3.84-1.664-5.043 3.315-0.602 2.483-0.883 7.962 1.728 14.963 3.149 8.333 7.949 11.149 7.949 11.149s-6.656-2.88-10.278-14.566c-0.87-2.79-2.176-8.845-0.179-12.954 1.958-4.083 5.824-1.907 5.824-1.907z"></path>
<path d="M15.401 5.453c0 0 5.939-5.133 10.163-0.435 1.997 2.214 2.778 7.693 1.51 12.672-1.613 6.413-5.939 10.214-5.939 10.214s7.987-7.014 8.384-17.139c0.154-3.981-0.947-8.026-5.875-8.666-3.942-0.486-8.243 3.354-8.243 3.354z"></path>
</svg>
