<?xml version="1.0" encoding="utf-8"?>
<!-- Generator: Adobe Illustrator 22.0.1, SVG Export Plug-In . SVG Version: 6.00 Build 0)  -->
<svg version="1.1" id="Layer_1" xmlns="http://www.w3.org/2000/svg" xmlns:xlink="http://www.w3.org/1999/xlink" x="0px" y="0px"
	 viewBox="0 0 250 250" style="enable-background:new 0 0 250 250;" xml:space="preserve">
<style type="text/css">
	.st0{stroke:#FFFFFF;stroke-miterlimit:10;}
</style>
<g id="Group_1_">
	<g id="Group">
		<g id="Vector" transform="translate(252.847 -358.177)">
			<g id="path0_fill">
				<path class="st0" d="M-112.7,525.3c12.8,0,23.1-10.3,23.1-23s-10.3-23-23.1-23s-23.1,10.3-23.1,23
					C-135.7,515-125.4,525.3-112.7,525.3z"/>
			</g>
		</g>
		<g id="Vector_1_" transform="translate(239 -366.211)">
			<g id="path1_fill">
				<path class="st0" d="M-236.2,502.7c0,0-15.1-35.8,36.9-57.8c41.6-17.6,90.5-16.1,139.6-1.2C-3,461,11,496.7,11,496.7
					s-29.5-73.1-147.9-77.2c-37.1-1.2-63.5,12.4-78.2,23.1C-250.3,468-236.2,502.7-236.2,502.7z"/>
			</g>
		</g>
		<g id="Vector_2_" transform="translate(245.694 -371)">
			<g id="path2_fill">
				<path class="st0" d="M-135.4,388.2c0,0-30-13-39.4,25.9c-4.7,19.4-6.9,62.2,13.5,116.9c24.6,65.1,62.1,87.1,62.1,87.1
					s-52-22.5-80.3-113.8c-6.8-21.8-17-69.1-1.4-101.2C-165.6,371.2-135.4,388.2-135.4,388.2z"/>
			</g>
		</g>
		<g id="Vector_3_" transform="translate(253.224 -370.599)">
			<g id="path3_fill">
				<path class="st0" d="M-132.9,413.2c0,0,46.4-40.1,79.4-3.4c15.6,17.3,21.7,60.1,11.8,99c-12.6,50.1-46.4,79.8-46.4,79.8
					s62.4-54.8,65.5-133.9c1.2-31.1-7.4-62.7-45.9-67.7C-99.3,383.2-132.9,413.2-132.9,413.2z"/>
			</g>
		</g>
	</g>
</g>
</svg>
