<!-- Generated by IcoMoon.io -->
<svg version="1.1" xmlns="http://www.w3.org/2000/svg" width="32" height="32" viewBox="0 0 32 32">
<title>PPC</title>
<path d="M23.224 31.577s1.467-4.882 0.818-9.27c-0.649-4.388-4.571-9.707-7.534-12.106s-8.649-5.122-8.649-5.122 4.938 3.781 6.646 5.587c1.707 1.806 4.063 4.797 5.178 8.734 1.115 3.922 0.917 10.751-1.34 12.176-2.258 1.439-8.226-1.044-10.215-2.709s-4.529-4.388-5.263-10.018c-0.734-5.644-0.522-18.85-0.522-18.85s10.596 0.056 18.596 5.108c8.014 5.051 8.748 9.058 8.748 15.52 0 6.476-6.462 10.949-6.462 10.949z"></path>
</svg>
