<?xml version="1.0" encoding="utf-8"?>
<!-- Generator: Adobe Illustrator 22.0.1, SVG Export Plug-In . SVG Version: 6.00 Build 0)  -->
<svg version="1.1" id="Layer_1" xmlns="http://www.w3.org/2000/svg" xmlns:xlink="http://www.w3.org/1999/xlink" x="0px" y="0px"
	 viewBox="0 0 250 250" style="enable-background:new 0 0 250 250;" xml:space="preserve">
<style type="text/css">
	.st0{display:none;stroke:#FFFFFF;stroke-miterlimit:10;}
	.st1{stroke:#FFFFFF;stroke-miterlimit:10;}
</style>
<g transform="translate(-1.3-1)">
	<path class="st0" d="M1.3,1.4h246.1v246.1H1.3V1.4z"/>
</g>
<path class="st1" d="M217.4,14.9L217.4,14.9c-6.3-6.3-16.5-6.3-22.8,0l-29.4,29.4L127.5,6.6c-0.8-0.8-1.6-1.5-2.5-2
	c-5.7-4-13.7-3.4-18.8,1.7l-0.3,0.3l0,0l0,0L9.6,103.1c-0.1,0.1-0.1,0.1-0.2,0.2c-0.1,0.1-0.1,0.1-0.2,0.2c-5.6,5.6-5.6,14.6,0,20.1
	l29.1,29c5.6,5.5,14.6,5.4,20.1-0.2c5.4-5.5,5.4-14.4,0-19.9L40,114.3l75.8-76l39.4,39.4c4.8,4.8,12.2,5.9,18.2,2.6
	c1.6-0.8,3.1-1.8,4.3-3.1l39.5-39.6C223.6,31.4,223.6,21.2,217.4,14.9z"/>
<path class="st1" d="M240.8,127.2l-0.4-0.4l0,0l0,0l-28.7-28.7c-5.6-5.5-14.6-5.4-20.1,0.2c-5.4,5.5-5.4,14.4,0,19.9l18.3,18.3
	l-75.7,75.8l-39.5-39.5c-3.7-3.7-9-5.3-14.1-4.1c-3.2,0.6-6,2.2-8.3,4.5l-39.5,39.6c-6.3,6.3-6.4,16.4-0.1,22.8s16.4,6.4,22.8,0.1
	c0,0,0.1-0.1,0.1-0.1l29.2-29.3l36.8,36.8c0.4,0.5,0.8,1,1.3,1.5c5.8,5.8,15.1,5.8,20.8,0l96.7-96.8c0.1-0.1,0.1-0.1,0.2-0.2
	c0.1-0.1,0.1-0.1,0.2-0.2C246.4,141.7,246.4,132.7,240.8,127.2C240.8,127.2,240.8,127.2,240.8,127.2"/>
</svg>
