<!-- Generated by IcoMoon.io -->
<svg version="1.1" xmlns="http://www.w3.org/2000/svg" width="32" height="32" viewBox="0 0 32 32">
<title>PPP</title>
<path d="M27.827 1.907v0c-0.806-0.806-2.112-0.806-2.918 0l-3.763 3.763-4.826-4.826c-0.102-0.102-0.205-0.192-0.32-0.256-0.73-0.512-1.754-0.435-2.406 0.218l-0.038 0.038-12.326 12.352c-0.013 0.013-0.013 0.013-0.026 0.026s-0.013 0.013-0.026 0.026c-0.717 0.717-0.717 1.869 0 2.573l3.725 3.712c0.717 0.704 1.869 0.691 2.573-0.026 0.691-0.704 0.691-1.843 0-2.547l-2.355-2.33 9.702-9.728 5.043 5.043c0.614 0.614 1.562 0.755 2.33 0.333 0.205-0.102 0.397-0.23 0.55-0.397l5.056-5.069c0.819-0.794 0.819-2.099 0.026-2.906z"></path>
<path d="M30.822 16.282l-3.725-3.725c-0.717-0.704-1.869-0.691-2.573 0.026-0.691 0.704-0.691 1.843 0 2.547l2.342 2.342-9.69 9.702-5.056-5.056c-0.474-0.474-1.152-0.678-1.805-0.525-0.41 0.077-0.768 0.282-1.062 0.576l-5.056 5.069c-0.806 0.806-0.819 2.099-0.013 2.918s2.099 0.819 2.918 0.013c0 0 0.013-0.013 0.013-0.013l3.738-3.75 4.71 4.71c0.051 0.064 0.102 0.128 0.166 0.192 0.742 0.742 1.933 0.742 2.662 0l12.378-12.39c0.013-0.013 0.013-0.013 0.026-0.026s0.013-0.013 0.026-0.026c0.717-0.73 0.717-1.882 0-2.586 0 0 0 0 0 0"></path>
</svg>
