<!-- Generated by IcoMoon.io -->
<svg version="1.1" xmlns="http://www.w3.org/2000/svg" width="32" height="32" viewBox="0 0 32 32">
<title>PPT</title>
<path d="M19.598 3.034c0 1.286-1.522 2.328-3.4 2.328s-3.4-1.042-3.4-2.328c0-1.286 1.522-2.328 3.4-2.328s3.4 1.042 3.4 2.328z"></path>
<path d="M14.448 31.45c0 0.282 0.24 0.55 0.522 0.55h2.37c0.282 0 0.508-0.268 0.508-0.55v-10.102h4.19c0.282 0 0.48-0.24 0.48-0.522v-13.827c0-0.282-0.198-0.48-0.48-0.48h-7.591v24.931z"></path>
<path d="M13.178 21.347h-2.878c-0.282 0-0.522-0.24-0.522-0.522v-13.827c0-0.282 0.268-0.48 0.522-0.48h2.864v14.829h0.014z"></path>
</svg>
