<!-- Generated by IcoMoon.io -->
<svg version="1.1" xmlns="http://www.w3.org/2000/svg" width="32" height="32" viewBox="0 0 32 32">
<title>PPY</title>
<path d="M15.704 11.146c0 0.861-0.014 1.735 0 2.596 0 0.339-0.113 0.564-0.409 0.734-1.524 0.861-3.034 1.75-4.543 2.624-0.593 0.339-0.917 0.155-0.917-0.55 0-1.721 0-3.443 0-5.15 0-0.367 0.141-0.593 0.451-0.776 1.496-0.861 3.005-1.735 4.529-2.61 0.578-0.339 0.889-0.155 0.889 0.536 0 0.861 0 1.721 0 2.596z"></path>
<path d="M28.487 18.469c0 0.847-0.014 1.707 0 2.554 0 0.367-0.127 0.593-0.437 0.776-1.538 0.875-3.062 1.764-4.586 2.638-0.522 0.296-0.861 0.113-0.861-0.494-0.014-1.764 0-3.527 0-5.291 0-0.325 0.127-0.536 0.409-0.691 1.538-0.889 3.090-1.778 4.628-2.667 0.494-0.282 0.832-0.085 0.847 0.48 0 0.903 0 1.806 0 2.695z"></path>
<path d="M22.603 13.982c0-0.861 0.014-1.735 0-2.596 0-0.353 0.127-0.564 0.423-0.734 1.538-0.875 3.048-1.764 4.586-2.638 0.55-0.31 0.875-0.113 0.875 0.522 0 1.75 0 3.499 0 5.249 0 0.325-0.127 0.536-0.409 0.705-1.538 0.889-3.076 1.778-4.628 2.667-0.522 0.296-0.847 0.099-0.847-0.508-0.014-0.903 0-1.792 0-2.667z"></path>
<path d="M22.363 3.767c0.155 0.071 0.31 0.113 0.437 0.183 1.51 0.875 3.034 1.735 4.543 2.624 0.536 0.31 0.536 0.677 0 0.988-1.538 0.889-3.076 1.778-4.614 2.667-0.282 0.169-0.522 0.155-0.804-0.014-1.481-0.875-2.977-1.721-4.459-2.582-0.649-0.367-0.649-0.72-0.014-1.086 1.467-0.847 2.949-1.707 4.43-2.554 0.141-0.085 0.31-0.155 0.48-0.226z"></path>
<path d="M16.212 25.002c0-0.861 0.014-1.735 0-2.596 0-0.367 0.141-0.593 0.451-0.762 1.51-0.861 3.005-1.735 4.501-2.596 0.607-0.353 0.917-0.169 0.917 0.536 0 1.721 0 3.443 0.014 5.15 0 0.381-0.141 0.607-0.48 0.804-1.51 0.861-3.005 1.735-4.501 2.596-0.578 0.325-0.889 0.155-0.903-0.522 0-0.889 0-1.75 0-2.61z"></path>
<path d="M16.028 0.099c0.155 0.071 0.31 0.127 0.451 0.212 1.496 0.861 2.977 1.721 4.459 2.582 0.593 0.339 0.593 0.691 0.014 1.030-1.51 0.875-3.034 1.75-4.557 2.638-0.282 0.169-0.522 0.155-0.804-0.014-1.51-0.875-3.005-1.735-4.501-2.596-0.593-0.339-0.607-0.705-0.028-1.030 1.524-0.903 3.048-1.778 4.586-2.653 0.113-0.071 0.24-0.113 0.381-0.169z"></path>
<path d="M9.538 3.767c0.155 0.056 0.31 0.113 0.451 0.198 1.51 0.875 3.034 1.75 4.543 2.624 0.536 0.31 0.55 0.677 0.028 0.988-1.538 0.889-3.076 1.778-4.628 2.653-0.169 0.099-0.494 0.113-0.663 0.014-1.594-0.889-3.175-1.806-4.755-2.723-0.452-0.268-0.452-0.649 0-0.917 1.552-0.903 3.104-1.792 4.656-2.695 0.113-0.056 0.226-0.085 0.367-0.141z"></path>
<path d="M15.929 21.376c-0.155-0.071-0.296-0.127-0.423-0.198-1.496-0.861-3.005-1.721-4.501-2.596-0.578-0.339-0.578-0.691 0.014-1.030 1.496-0.875 3.005-1.735 4.501-2.61 0.325-0.198 0.607-0.183 0.931 0.014 1.453 0.861 2.921 1.693 4.374 2.54 0.677 0.395 0.677 0.72 0.014 1.101-1.481 0.861-2.977 1.721-4.459 2.582-0.127 0.071-0.282 0.127-0.451 0.198z"></path>
<path d="M15.675 25.016c0 0.861 0 1.735 0 2.596 0 0.593-0.31 0.776-0.818 0.48-1.538-0.889-3.090-1.764-4.614-2.681-0.183-0.113-0.367-0.395-0.367-0.607-0.028-1.764-0.028-3.527-0.014-5.291 0-0.578 0.339-0.748 0.847-0.451 1.51 0.861 3.005 1.735 4.515 2.596 0.339 0.183 0.466 0.437 0.451 0.818-0.014 0.832 0 1.679 0 2.54z"></path>
<path d="M22.053 13.968c0 0.861 0 1.735 0 2.596 0 0.649-0.31 0.818-0.875 0.494-1.51-0.861-3.005-1.735-4.501-2.596-0.31-0.183-0.437-0.409-0.437-0.776 0.014-1.693 0-3.372 0-5.065 0-0.72 0.282-0.903 0.903-0.55 1.496 0.861 2.977 1.721 4.473 2.582 0.339 0.198 0.466 0.437 0.451 0.818-0.014 0.832-0.014 1.665-0.014 2.497z"></path>
<path d="M3.513 11.090c0-0.861 0-1.735 0-2.596 0-0.607 0.254-0.762 0.776-0.466 1.538 0.875 3.048 1.764 4.586 2.638 0.296 0.169 0.409 0.395 0.409 0.734-0.014 1.735 0 3.471-0.014 5.206 0 0.621-0.296 0.776-0.847 0.466-1.496-0.861-3.005-1.735-4.501-2.596-0.31-0.169-0.423-0.395-0.409-0.734 0.014-0.889 0-1.764 0-2.653z"></path>
<path d="M9.284 21.362c0 0.847 0 1.707 0 2.554 0 0.607-0.282 0.79-0.804 0.508-1.552-0.875-3.090-1.764-4.614-2.681-0.169-0.099-0.325-0.381-0.325-0.578-0.028-1.792-0.014-3.584-0.014-5.39 0-0.536 0.282-0.691 0.79-0.409 1.298 0.734 2.596 1.481 3.88 2.229 1.284 0.762 1.072 0.395 1.086 1.891 0 0.621 0 1.242 0 1.877z"></path>
<path d="M9.284 28.614c0 0.889 0 1.764 0 2.653 0 0.578-0.296 0.748-0.79 0.466-1.552-0.875-3.090-1.764-4.614-2.681-0.183-0.113-0.339-0.409-0.339-0.621-0.028-1.764-0.014-3.527-0.014-5.291 0-0.578 0.282-0.748 0.79-0.466 1.552 0.875 3.090 1.764 4.614 2.681 0.183 0.113 0.339 0.409 0.339 0.621 0.028 0.875 0.014 1.764 0.014 2.638z"></path>
<path d="M9.848 25.834c1.877 1.086 3.654 2.116 5.531 3.189-0.212 0.141-0.325 0.24-0.466 0.31-1.383 0.804-2.765 1.594-4.148 2.399-0.621 0.367-0.945 0.183-0.945-0.55 0-1.608 0-3.231 0-4.84 0-0.141 0.014-0.268 0.028-0.508z"></path>
</svg>
