<?xml version="1.0" encoding="utf-8"?>
<!-- Generator: Adobe Illustrator 22.1.0, SVG Export Plug-In . SVG Version: 6.00 Build 0)  -->
<svg version="1.1" id="Layer_1" xmlns="http://www.w3.org/2000/svg" xmlns:xlink="http://www.w3.org/1999/xlink" x="0px" y="0px"
	 viewBox="0 0 226.8 226.8" style="enable-background:new 0 0 226.8 226.8;" xml:space="preserve">
<g>
	<path d="M111.3,79c0,6.1-0.1,12.3,0,18.4c0,2.4-0.8,4-2.9,5.2c-10.8,6.1-21.5,12.4-32.2,18.6c-4.2,2.4-6.5,1.1-6.5-3.9
		c0-12.2,0-24.4,0-36.5c0-2.6,1-4.2,3.2-5.5C83.5,69.2,94.2,63,105,56.8c4.1-2.4,6.3-1.1,6.3,3.8C111.3,66.7,111.3,72.8,111.3,79z"
		/>
	<path d="M201.9,130.9c0,6-0.1,12.1,0,18.1c0,2.6-0.9,4.2-3.1,5.5c-10.9,6.2-21.7,12.5-32.5,18.7c-3.7,2.1-6.1,0.8-6.1-3.5
		c-0.1-12.5,0-25,0-37.5c0-2.3,0.9-3.8,2.9-4.9c10.9-6.3,21.9-12.6,32.8-18.9c3.5-2,5.9-0.6,6,3.4
		C201.9,118.2,201.9,124.6,201.9,130.9z"/>
	<path d="M160.2,99.1c0-6.1,0.1-12.3,0-18.4c0-2.5,0.9-4,3-5.2c10.9-6.2,21.6-12.5,32.5-18.7c3.9-2.2,6.2-0.8,6.2,3.7
		c0,12.4,0,24.8,0,37.2c0,2.3-0.9,3.8-2.9,5c-10.9,6.3-21.8,12.6-32.8,18.9c-3.7,2.1-6,0.7-6-3.6
		C160.1,111.6,160.2,105.3,160.2,99.1z"/>
	<path d="M158.5,26.7c1.1,0.5,2.2,0.8,3.1,1.3c10.7,6.2,21.5,12.3,32.2,18.6c3.8,2.2,3.8,4.8,0,7c-10.9,6.3-21.8,12.6-32.7,18.9
		c-2,1.2-3.7,1.1-5.7-0.1c-10.5-6.2-21.1-12.2-31.6-18.3c-4.6-2.6-4.6-5.1-0.1-7.7c10.4-6,20.9-12.1,31.4-18.1
		C156.1,27.7,157.3,27.2,158.5,26.7z"/>
	<path d="M114.9,177.2c0-6.1,0.1-12.3,0-18.4c0-2.6,1-4.2,3.2-5.4c10.7-6.1,21.3-12.3,31.9-18.4c4.3-2.5,6.5-1.2,6.5,3.8
		c0,12.2,0,24.4,0.1,36.5c0,2.7-1,4.3-3.4,5.7c-10.7,6.1-21.3,12.3-31.9,18.4c-4.1,2.3-6.3,1.1-6.4-3.7
		C114.9,189.4,114.9,183.3,114.9,177.2z"/>
	<path d="M113.6,0.7c1.1,0.5,2.2,0.9,3.2,1.5c10.6,6.1,21.1,12.2,31.6,18.3c4.2,2.4,4.2,4.9,0.1,7.3C137.8,34,127,40.2,116.2,46.5
		c-2,1.2-3.7,1.1-5.7-0.1C99.8,40.2,89.2,34.1,78.6,28c-4.2-2.4-4.3-5-0.2-7.3C89.2,14.3,100,8.1,110.9,1.9
		C111.7,1.4,112.6,1.1,113.6,0.7z"/>
	<path d="M67.6,26.7c1.1,0.4,2.2,0.8,3.2,1.4c10.7,6.2,21.5,12.4,32.2,18.6c3.8,2.2,3.9,4.8,0.2,7C92.3,60,81.4,66.3,70.4,72.5
		c-1.2,0.7-3.5,0.8-4.7,0.1C54.4,66.3,43.2,59.8,32,53.3c-3.2-1.9-3.2-4.6,0-6.5c11-6.4,22-12.7,33-19.1
		C65.8,27.3,66.6,27.1,67.6,26.7z"/>
	<path d="M112.9,151.5c-1.1-0.5-2.1-0.9-3-1.4C99.3,144,88.6,137.9,78,131.7c-4.1-2.4-4.1-4.9,0.1-7.3c10.6-6.2,21.3-12.3,31.9-18.5
		c2.3-1.4,4.3-1.3,6.6,0.1c10.3,6.1,20.7,12,31,18c4.8,2.8,4.8,5.1,0.1,7.8c-10.5,6.1-21.1,12.2-31.6,18.3
		C115.2,150.6,114.1,151,112.9,151.5z"/>
	<path d="M111.1,177.3c0,6.1,0,12.3,0,18.4c0,4.2-2.2,5.5-5.8,3.4c-10.9-6.3-21.9-12.5-32.7-19c-1.3-0.8-2.6-2.8-2.6-4.3
		c-0.2-12.5-0.2-25-0.1-37.5c0-4.1,2.4-5.3,6-3.2c10.7,6.1,21.3,12.3,32,18.4c2.4,1.3,3.3,3.1,3.2,5.8
		C111,165.2,111.1,171.2,111.1,177.3z"/>
	<path d="M156.3,99c0,6.1,0,12.3,0,18.4c0,4.6-2.2,5.8-6.2,3.5c-10.7-6.1-21.3-12.3-31.9-18.4c-2.2-1.3-3.1-2.9-3.1-5.5
		c0.1-12,0-23.9,0-35.9c0-5.1,2-6.4,6.4-3.9c10.6,6.1,21.1,12.2,31.7,18.3c2.4,1.4,3.3,3.1,3.2,5.8C156.3,87.2,156.3,93.1,156.3,99z
		"/>
	<path d="M24.9,78.6c0-6.1,0-12.3,0-18.4c0-4.3,1.8-5.4,5.5-3.3C41.3,63.1,52,69.4,62.9,75.6c2.1,1.2,2.9,2.8,2.9,5.2
		c-0.1,12.3,0,24.6-0.1,36.9c0,4.4-2.1,5.5-6,3.3c-10.6-6.1-21.3-12.3-31.9-18.4c-2.2-1.2-3-2.8-2.9-5.2
		C25,91.1,24.9,84.9,24.9,78.6z"/>
	<path d="M65.8,151.4c0,6,0,12.1,0,18.1c0,4.3-2,5.6-5.7,3.6c-11-6.2-21.9-12.5-32.7-19c-1.2-0.7-2.3-2.7-2.3-4.1
		c-0.2-12.7-0.1-25.4-0.1-38.2c0-3.8,2-4.9,5.6-2.9c9.2,5.2,18.4,10.5,27.5,15.8c9.1,5.4,7.6,2.8,7.7,13.4
		C65.8,142.5,65.8,146.9,65.8,151.4z"/>
	<path d="M65.8,202.8c0,6.3,0,12.5,0,18.8c0,4.1-2.1,5.3-5.6,3.3c-11-6.2-21.9-12.5-32.7-19c-1.3-0.8-2.4-2.9-2.4-4.4
		c-0.2-12.5-0.1-25-0.1-37.5c0-4.1,2-5.3,5.6-3.3c11,6.2,21.9,12.5,32.7,19c1.3,0.8,2.4,2.9,2.4,4.4
		C65.9,190.3,65.8,196.6,65.8,202.8z"/>
	<path d="M69.8,183.1c13.3,7.7,25.9,15,39.2,22.6c-1.5,1-2.3,1.7-3.3,2.2c-9.8,5.7-19.6,11.3-29.4,17c-4.4,2.6-6.7,1.3-6.7-3.9
		c0-11.4,0-22.9,0-34.3C69.6,185.7,69.7,184.8,69.8,183.1z"/>
</g>
</svg>
