<?xml version="1.0" encoding="utf-8"?>
<!-- Generator: Adobe Illustrator 22.1.0, SVG Export Plug-In . SVG Version: 6.00 Build 0)  -->
<svg version="1.1" id="Layer_1" xmlns="http://www.w3.org/2000/svg" xmlns:xlink="http://www.w3.org/1999/xlink" x="0px" y="0px"
	 viewBox="0 0 226.8 226.8" style="enable-background:new 0 0 226.8 226.8;" xml:space="preserve">
<g>
	<path d="M144.4,221.6c-10.9,4.4-10.9,4.4-17.4-3.8c-18.5-23.5-37.1-46.9-55.6-70.4c-17.2-21.9-16.2-51.1,2.4-70.9
		c18.9-20,49.2-23,71.4-7c22.2,16,29.2,45.5,16.5,69.8c-0.7,1.4-2,2.7-2.1,4.1c-0.1,1.7,0.4,4.8,1.4,5.1c1.6,0.5,3.9-0.3,5.7-1.2
		c1-0.5,1.5-2.1,2.1-3.3c15.1-27.4,7.4-62.3-17.8-80.9c-25.5-18.7-60.5-15.8-82.5,6.8c-22,22.6-23.8,56.8-4.1,81.8
		c17.6,22.5,35.4,44.8,53.1,67.3c1.5,1.9,3,3.9,4.5,5.9c-8.7,3.4-13.1,2.3-18.4-4.4c-16-20.1-32.1-40.1-48.1-60.2
		C29.1,127.5,33.7,81.9,65.8,55.6c31.9-26.1,78.5-21.8,105.2,9.7c26.5,31.4,22.8,78.2-8.3,105.4c-2.7,2.4-8.6,4.6-4.4,9.2
		c3.9,4.4,7.2-0.7,10-3.1c29-24.8,37.1-67.1,19.7-101.2c-17.6-34.4-56.3-52.2-94.2-43.2C56.8,41.1,30.4,74.5,30,112.7
		c-0.2,19.5,5.8,36.8,18,52c14.4,17.9,28.7,35.9,43.1,53.8c1.4,1.7,2.6,3.5,5.2,6.9c-4.9-1.1-8.2-1.6-11.5-2.5
		C29,208.4-6.1,156.1,0.9,98C7.3,44.1,55.1,1.1,109.8,0c57.9-1.2,106.4,39.1,115.5,95.8c8,49.8-19.2,99.9-65.2,120.7
		c-4.5,2.1-7.3,1.9-10.6-2.4c-20.8-27.1-41.9-53.9-62.8-80.9c-8.8-11.4-9.4-25.4-1.7-37.5c7.7-12.2,22.1-18.2,35.9-15
		c13.6,3.2,24.2,14.7,26,28.3c0.1,0.9-0.2,2,0.3,2.6c1.4,2.1,3.1,4,4.7,6c1.3-2.2,3.7-4.5,3.6-6.7c-0.5-18.3-15-34.9-33.4-38.5
		c-17.6-3.5-35.1,4-44.5,19.1c-9.2,14.9-8.2,33.2,2.9,47.5c20.3,26.1,40.6,52.1,60.9,78.2C142.4,218.6,143.3,220.1,144.4,221.6z"/>
</g>
</svg>
