<!-- Generated by IcoMoon.io -->
<svg version="1.1" xmlns="http://www.w3.org/2000/svg" width="32" height="32" viewBox="0 0 32 32">
<title>PRE</title>
<path d="M20.374 31.266c-1.538 0.621-1.538 0.621-2.455-0.536-2.61-3.316-5.235-6.617-7.845-9.933-2.427-3.090-2.286-7.21 0.339-10.004 2.667-2.822 6.942-3.245 10.074-0.988s4.12 6.42 2.328 9.848c-0.099 0.198-0.282 0.381-0.296 0.578-0.014 0.24 0.056 0.677 0.198 0.72 0.226 0.071 0.55-0.042 0.804-0.169 0.141-0.071 0.212-0.296 0.296-0.466 2.131-3.866 1.044-8.79-2.511-11.414-3.598-2.638-8.536-2.229-11.64 0.959s-3.358 8.014-0.578 11.541c2.483 3.175 4.995 6.321 7.492 9.496 0.212 0.268 0.423 0.55 0.635 0.832-1.227 0.48-1.848 0.324-2.596-0.621-2.258-2.836-4.529-5.658-6.787-8.494-3.725-4.628-3.076-11.062 1.453-14.773 4.501-3.683 11.076-3.076 14.843 1.369 3.739 4.43 3.217 11.033-1.171 14.871-0.381 0.339-1.213 0.649-0.621 1.298 0.55 0.621 1.016-0.099 1.411-0.437 4.092-3.499 5.235-9.467 2.78-14.279-2.483-4.854-7.944-7.365-13.291-6.095-5.22 1.228-8.945 5.94-9.002 11.33-0.028 2.751 0.818 5.192 2.54 7.337 2.032 2.526 4.049 5.065 6.081 7.591 0.198 0.24 0.367 0.494 0.734 0.974-0.691-0.155-1.157-0.226-1.623-0.353-7.873-2.046-12.825-9.425-11.838-17.623 0.903-7.605 7.647-13.672 15.365-13.827 8.169-0.169 15.012 5.517 16.296 13.517 1.129 7.026-2.709 14.095-9.199 17.030-0.635 0.296-1.030 0.268-1.496-0.339-2.935-3.824-5.912-7.605-8.861-11.414-1.242-1.608-1.326-3.584-0.24-5.291 1.086-1.721 3.118-2.568 5.065-2.116 1.919 0.451 3.414 2.074 3.668 3.993 0.014 0.127-0.028 0.282 0.042 0.367 0.198 0.296 0.437 0.564 0.663 0.847 0.183-0.31 0.522-0.635 0.508-0.945-0.071-2.582-2.116-4.924-4.713-5.432-2.483-0.494-4.952 0.564-6.279 2.695-1.298 2.102-1.157 4.684 0.409 6.702 2.864 3.683 5.728 7.351 8.593 11.034 0.141 0.198 0.268 0.409 0.423 0.621z"></path>
</svg>
