<?xml version="1.0" encoding="utf-8"?>
<!-- Generator: Adobe Illustrator 22.1.0, SVG Export Plug-In . SVG Version: 6.00 Build 0)  -->
<svg version="1.1" id="Layer_1" xmlns="http://www.w3.org/2000/svg" xmlns:xlink="http://www.w3.org/1999/xlink" x="0px" y="0px"
	 viewBox="0 0 226.8 226.8" style="enable-background:new 0 0 226.8 226.8;" xml:space="preserve">
<g>
	<path d="M114.1,166.8c0-34.3,0-68.6,0-103c0.4,0.2,0.6,0.3,0.9,0.5c11.1,7.8,22.2,15.5,33.3,23.3c0.7,0.5,0.8,0.9,0.4,1.6
		c-6.9,15.6-13.8,31.2-20.7,46.8c-4.5,10.1-9,20.3-13.4,30.4c-0.1,0.2-0.2,0.3-0.3,0.5C114.2,166.8,114.1,166.8,114.1,166.8z"/>
	<path d="M112.2,167c-0.6-1.4-1.3-2.9-1.9-4.3c-9.2-20.7-18.3-41.5-27.5-62.2c-1.7-3.8-3.4-7.7-5.1-11.5c-0.3-0.7-0.2-1,0.4-1.4
		c11.1-7.7,22.2-15.5,33.3-23.3c0.3-0.2,0.6-0.3,1-0.6c0,34.5,0,68.9,0,103.2C112.3,167,112.3,167,112.2,167z"/>
	<path d="M124,171.5c1.1-2.1,2.2-4.2,3.3-6.3c8.8-16.7,17.5-33.4,26.3-50.1c0.9-1.8,1.9-3.6,2.8-5.4c0.3-0.6,0.6-0.8,1.3-0.6
		c7.1,2.1,14.2,4.2,21.4,6.3c3.4,1,6.8,2,10.2,3c0.3,0.1,0.7,0.2,1.3,0.5c-22.2,17.7-44.2,35.2-66.2,52.7
		C124.1,171.6,124,171.5,124,171.5z"/>
	<path d="M36.4,118.9c1.5-0.5,2.7-0.9,4-1.2c7-2.1,14.1-4.2,21.1-6.2c2.6-0.8,5.1-1.5,7.7-2.3c0.8-0.3,1.2,0,1.5,0.7
		c4.4,8.5,8.9,17,13.4,25.5c6.1,11.7,12.2,23.4,18.4,35.1c0.2,0.3,0.3,0.7,0.3,1.2C80.6,154.1,58.6,136.6,36.4,118.9z"/>
	<path d="M101.6,173.1c-4.1-1.1-8.2-2.1-12.3-3.2c-4.9-1.3-9.9-2.6-14.8-3.9c-6.4-1.7-12.8-3.4-19.2-5.1c-4.8-1.3-9.6-2.5-14.4-3.8
		c-2.2-0.6-4.4-1.2-6.6-1.7c-0.8-0.2-1.1-0.6-1-1.4c0.5-8.4,1.1-16.8,1.6-25.2c0.2-2.5,0.3-4.9,0.4-7.4c0-0.3,0-0.7,0.1-1.3
		c22.2,17.7,44.2,35.2,66.2,52.7C101.7,172.9,101.6,173,101.6,173.1z"/>
	<path d="M191.4,120.1c0.2,2.3,0.3,4.3,0.4,6.3c0.3,5.5,0.7,10.9,1,16.4c0.2,3.8,0.4,7.5,0.7,11.3c0.1,0.9-0.3,1.3-1.1,1.5
		c-3.6,0.9-7.3,1.9-10.9,2.8c-5.9,1.5-11.7,3.1-17.6,4.6c-6.5,1.7-13,3.4-19.5,5.1c-5.8,1.5-11.5,3-17.3,4.6
		c-0.6,0.2-1.2,0.3-1.9,0.2C147.1,155.3,169.1,137.8,191.4,120.1z"/>
	<path d="M147.9,85.4c-2.2-1.6-4.5-3.1-6.7-4.7c-8.7-6.1-17.5-12.2-26.2-18.3c-0.7-0.5-1-1-1-1.8c0-16.9,0-33.9,0-50.8
		c0-0.3,0-0.6,0-0.9c0.1,0,0.2-0.1,0.3-0.1c11.3,25.5,22.5,51,33.8,76.4C148,85.3,147.9,85.3,147.9,85.4z"/>
	<path d="M112.5,8.7c0,0.7,0,1.3,0,2c0,16.5,0,33.1,0,49.6c0,1.1-0.4,1.7-1.2,2.3c-10.5,7.3-20.9,14.6-31.4,21.9
		c-0.4,0.3-0.8,0.5-1.2,0.8c-0.1-0.1-0.2-0.1-0.3-0.2c11.3-25.5,22.5-51,33.8-76.5C112.3,8.7,112.4,8.7,112.5,8.7z"/>
	<path d="M36,199.2c21.2-4.7,42.2-9.4,63.1-14c0.1,0.1,0.2,0.3,0.3,0.4c-0.2,0.1-0.5,0.2-0.7,0.3c-14,10.3-28,20.6-41.9,30.9
		c-0.6,0.4-1.1,0.6-1.7,0c-6.1-5.7-12.3-11.3-18.5-17C36.5,199.7,36.4,199.6,36,199.2z"/>
	<path d="M190.8,199.2c-0.7,0.7-1.3,1.2-1.8,1.7c-5.6,5.2-11.3,10.4-16.9,15.6c-1.2,1.1-1.1,1.1-2.4,0.1
		c-9.3-6.9-18.6-13.7-27.9-20.6c-4.6-3.4-9.1-6.7-13.7-10.1c-0.2-0.1-0.3-0.3-0.5-0.4c0-0.1,0.1-0.2,0.1-0.3
		C148.6,189.9,169.6,194.5,190.8,199.2z"/>
	<path d="M99,183.6c-21,4.7-42,9.3-63.3,14.1c0.6-1.4,1-2.6,1.5-3.7c2.8-6.7,5.5-13.3,8.3-20c0.4-1,0.9-1.2,1.9-1
		c7.3,1.5,14.7,2.9,22,4.4c8.9,1.8,17.9,3.6,26.8,5.4c0.9,0.2,1.9,0.4,2.8,0.6C99,183.5,99,183.6,99,183.6z"/>
	<path d="M127.8,183.4c4-0.8,8-1.6,12-2.4c5.1-1,10.1-2,15.2-3c4.4-0.9,8.7-1.7,13.1-2.6c3.7-0.7,7.3-1.5,11-2.2
		c1.7-0.3,1.7-0.4,2.3,1.2c3.1,7.5,6.2,14.9,9.3,22.4c0.1,0.2,0.2,0.5,0.3,1c-21.2-4.7-42.2-9.4-63.3-14
		C127.8,183.5,127.8,183.5,127.8,183.4z"/>
	<path d="M0.2,92.1c1.9,1.5,3.9,3.1,5.8,4.6c8.9,7.1,17.8,14.2,26.8,21.3c0.9,0.7,1.1,1.3,1.1,2.4c-0.5,7.9-1,15.8-1.4,23.7
		c-0.1,2.3-0.3,4.6-0.4,6.9c0,0.5-0.1,1-0.4,1.5C21,132.4,10.5,112.4,0,92.3C0.1,92.2,0.2,92.2,0.2,92.1z"/>
	<path d="M67,108.2c-1.5,0.5-3.1,0.9-4.6,1.4c-7.9,2.3-15.8,4.7-23.7,7c-1,0.3-2,0.7-3.1,0.9c-0.5,0.1-1.1-0.1-1.5-0.4
		c-9-7.1-17.9-14.2-26.9-21.3c-1.8-1.4-3.6-2.9-5.4-4.3c-0.3-0.2-0.5-0.4-0.7-0.9c21.9,5.7,43.8,11.5,65.8,17.2
		C67,108,67,108.1,67,108.2z"/>
	<path d="M225.7,90.8c-0.8,0.7-1.6,1.3-2.4,2c-10.1,8.1-20.3,16.1-30.4,24.2c-0.7,0.5-1.2,0.6-2,0.4c-7.5-2.2-15-4.4-22.5-6.7
		c-2.7-0.8-5.5-1.6-8.2-2.4c-0.1,0-0.2-0.1-0.5-0.4c22.2-5.8,44.1-11.6,66-17.3C225.6,90.7,225.6,90.8,225.7,90.8z"/>
	<path d="M226.8,92.3c-10.5,20.1-21,40.1-31.5,60.2c-0.1,0-0.2,0-0.3,0c-0.1-1.1-0.2-2.3-0.3-3.4c-0.5-8.4-1-16.8-1.6-25.2
		c-0.1-1.4-0.2-2.8-0.2-4.2c0-0.4,0.4-1,0.7-1.3c4.1-3.3,8.3-6.7,12.5-10c6.5-5.2,13.1-10.4,19.6-15.6c0.2-0.2,0.5-0.4,0.8-0.6
		C226.7,92.2,226.7,92.2,226.8,92.3z"/>
	<path d="M2.3,206.7c1.4-0.3,2.8-0.6,4.1-1c5.2-1.2,10.4-2.3,15.6-3.5c3.7-0.8,7.5-1.7,11.2-2.5c0.4-0.1,1,0,1.3,0.3
		c5.9,5.4,11.8,10.8,17.8,16.3c0.2,0.1,0.3,0.3,0.6,0.7c-17.1-3.4-33.9-6.8-50.7-10.1C2.3,206.9,2.3,206.8,2.3,206.7z"/>
	<path d="M1.5,205.1c14.1-10.4,27.9-20.5,41.8-30.7c0.1,0.1,0.1,0.1,0.2,0.2c-0.5,1.2-1,2.5-1.5,3.7c-2.6,6.3-5.2,12.5-7.8,18.8
		c-0.3,0.8-0.8,1.1-1.6,1.3c-5.7,1.2-11.3,2.5-17,3.7c-4.5,1-9,2-13.5,3C2,205.2,1.9,205.2,1.5,205.1z"/>
	<path d="M224.4,207c-16.8,3.4-33.6,6.7-50.3,10.1c0-0.1-0.1-0.1-0.1-0.2c0.2-0.2,0.4-0.5,0.7-0.7c5.8-5.3,11.6-10.6,17.4-16
		c0.5-0.5,1-0.5,1.6-0.4c7.4,1.7,14.9,3.3,22.3,5c2.7,0.6,5.3,1.2,8,1.7c0.2,0,0.3,0.1,0.4,0.2C224.4,206.8,224.4,206.9,224.4,207z"
		/>
	<path d="M225,205.2c-1.4-0.3-2.7-0.6-4.1-0.9c-5.3-1.2-10.7-2.4-16-3.5c-3.7-0.8-7.3-1.6-11-2.5c-0.5-0.1-1.1-0.6-1.3-1.1
		c-3.1-7.3-6.1-14.6-9.1-21.8c-0.1-0.3-0.2-0.5-0.1-1c13.9,10.2,27.7,20.4,41.6,30.6C225.1,205.1,225,205.1,225,205.2z"/>
</g>
</svg>
