<!-- Generated by IcoMoon.io -->
<svg version="1.1" xmlns="http://www.w3.org/2000/svg" width="32" height="32" viewBox="0 0 32 32">
<title>PRG</title>
<path d="M16.099 23.534c0-4.84 0-9.679 0-14.533 0.056 0.028 0.085 0.042 0.127 0.071 1.566 1.101 3.132 2.187 4.698 3.287 0.099 0.071 0.113 0.127 0.056 0.226-0.974 2.201-1.947 4.402-2.921 6.603-0.635 1.425-1.27 2.864-1.891 4.289-0.014 0.028-0.028 0.042-0.042 0.071-0.014-0.014-0.028-0.014-0.028-0.014z"></path>
<path d="M15.831 23.563c-0.085-0.198-0.183-0.409-0.268-0.607-1.298-2.921-2.582-5.855-3.88-8.776-0.24-0.536-0.48-1.086-0.72-1.623-0.042-0.099-0.028-0.141 0.056-0.198 1.566-1.086 3.132-2.187 4.698-3.287 0.042-0.028 0.085-0.042 0.141-0.085 0 4.868 0 9.721 0 14.561-0.014 0.014-0.014 0.014-0.028 0.014z"></path>
<path d="M17.496 24.198c0.155-0.296 0.31-0.593 0.466-0.889 1.242-2.356 2.469-4.713 3.711-7.069 0.127-0.254 0.268-0.508 0.395-0.762 0.042-0.085 0.085-0.113 0.183-0.085 1.002 0.296 2.004 0.593 3.019 0.889 0.48 0.141 0.959 0.282 1.439 0.423 0.042 0.014 0.099 0.028 0.183 0.071-3.132 2.497-6.236 4.966-9.34 7.436-0.042 0-0.056-0.014-0.056-0.014z"></path>
<path d="M5.136 16.776c0.212-0.071 0.381-0.127 0.564-0.169 0.988-0.296 1.989-0.593 2.977-0.875 0.367-0.113 0.72-0.212 1.086-0.325 0.113-0.042 0.169 0 0.212 0.099 0.621 1.199 1.256 2.399 1.891 3.598 0.861 1.651 1.721 3.302 2.596 4.952 0.028 0.042 0.042 0.099 0.042 0.169-3.132-2.483-6.236-4.952-9.369-7.45z"></path>
<path d="M14.335 24.423c-0.578-0.155-1.157-0.296-1.735-0.451-0.691-0.183-1.397-0.367-2.088-0.55-0.903-0.24-1.806-0.48-2.709-0.72-0.677-0.183-1.354-0.353-2.032-0.536-0.31-0.085-0.621-0.169-0.931-0.24-0.113-0.028-0.155-0.085-0.141-0.198 0.071-1.185 0.155-2.37 0.226-3.556 0.028-0.353 0.042-0.691 0.056-1.044 0-0.042 0-0.099 0.014-0.183 3.132 2.497 6.236 4.966 9.34 7.436 0.014 0.014 0 0.028 0 0.042z"></path>
<path d="M27.005 16.945c0.028 0.325 0.042 0.607 0.056 0.889 0.042 0.776 0.099 1.538 0.141 2.314 0.028 0.536 0.056 1.058 0.099 1.594 0.014 0.127-0.042 0.183-0.155 0.212-0.508 0.127-1.030 0.268-1.538 0.395-0.832 0.212-1.651 0.437-2.483 0.649-0.917 0.24-1.834 0.48-2.751 0.72-0.818 0.212-1.623 0.423-2.441 0.649-0.085 0.028-0.169 0.042-0.268 0.028 3.090-2.483 6.194-4.952 9.34-7.45z"></path>
<path d="M20.868 12.049c-0.31-0.226-0.635-0.437-0.945-0.663-1.227-0.861-2.469-1.721-3.697-2.582-0.099-0.071-0.141-0.141-0.141-0.254 0-2.384 0-4.783 0-7.168 0-0.042 0-0.085 0-0.127 0.014 0 0.028-0.014 0.042-0.014 1.594 3.598 3.175 7.196 4.769 10.78-0.014 0.014-0.028 0.014-0.028 0.028z"></path>
<path d="M15.873 1.228c0 0.099 0 0.183 0 0.282 0 2.328 0 4.67 0 6.998 0 0.155-0.056 0.24-0.169 0.325-1.481 1.030-2.949 2.060-4.43 3.090-0.056 0.042-0.113 0.071-0.169 0.113-0.014-0.014-0.028-0.014-0.042-0.028 1.594-3.598 3.175-7.196 4.769-10.794 0.014 0.014 0.028 0.014 0.042 0.014z"></path>
<path d="M5.079 28.106c2.991-0.663 5.954-1.326 8.903-1.975 0.014 0.014 0.028 0.042 0.042 0.056-0.028 0.014-0.071 0.028-0.099 0.042-1.975 1.453-3.951 2.907-5.912 4.36-0.085 0.056-0.155 0.085-0.24 0-0.861-0.804-1.735-1.594-2.61-2.399-0.014-0.014-0.028-0.028-0.085-0.085z"></path>
<path d="M26.921 28.106c-0.099 0.099-0.183 0.169-0.254 0.24-0.79 0.734-1.594 1.467-2.384 2.201-0.169 0.155-0.155 0.155-0.339 0.014-1.312-0.974-2.624-1.933-3.936-2.907-0.649-0.48-1.284-0.945-1.933-1.425-0.028-0.014-0.042-0.042-0.071-0.056 0-0.014 0.014-0.028 0.014-0.042 2.949 0.663 5.912 1.312 8.903 1.975z"></path>
<path d="M13.968 25.905c-2.963 0.663-5.926 1.312-8.931 1.989 0.085-0.198 0.141-0.367 0.212-0.522 0.395-0.945 0.776-1.877 1.171-2.822 0.056-0.141 0.127-0.169 0.268-0.141 1.030 0.212 2.074 0.409 3.104 0.621 1.256 0.254 2.526 0.508 3.781 0.762 0.127 0.028 0.268 0.056 0.395 0.085 0 0.014 0 0.028 0 0.028z"></path>
<path d="M18.032 25.877c0.564-0.113 1.129-0.226 1.693-0.339 0.72-0.141 1.425-0.282 2.145-0.423 0.621-0.127 1.227-0.24 1.848-0.367 0.522-0.099 1.030-0.212 1.552-0.31 0.24-0.042 0.24-0.056 0.325 0.169 0.437 1.058 0.875 2.102 1.312 3.16 0.014 0.028 0.028 0.071 0.042 0.141-2.991-0.663-5.954-1.326-8.931-1.975 0.014-0.042 0.014-0.042 0.014-0.056z"></path>
<path d="M0.028 12.995c0.268 0.212 0.55 0.437 0.818 0.649 1.256 1.002 2.511 2.004 3.781 3.005 0.127 0.099 0.155 0.183 0.155 0.339-0.071 1.115-0.141 2.229-0.198 3.344-0.014 0.325-0.042 0.649-0.056 0.974 0 0.071-0.014 0.141-0.056 0.212-1.51-2.836-2.991-5.658-4.473-8.494 0.014-0.014 0.028-0.014 0.028-0.028z"></path>
<path d="M9.453 15.266c-0.212 0.071-0.437 0.127-0.649 0.198-1.115 0.325-2.229 0.663-3.344 0.988-0.141 0.042-0.282 0.099-0.437 0.127-0.071 0.014-0.155-0.014-0.212-0.056-1.27-1.002-2.526-2.004-3.795-3.005-0.254-0.198-0.508-0.409-0.762-0.607-0.042-0.028-0.071-0.056-0.099-0.127 3.090 0.804 6.18 1.623 9.284 2.427 0.014 0.028 0.014 0.042 0.014 0.056z"></path>
<path d="M31.845 12.811c-0.113 0.099-0.226 0.183-0.339 0.282-1.425 1.143-2.864 2.272-4.289 3.414-0.099 0.071-0.169 0.085-0.282 0.056-1.058-0.31-2.116-0.621-3.175-0.945-0.381-0.113-0.776-0.226-1.157-0.339-0.014 0-0.028-0.014-0.071-0.056 3.132-0.818 6.222-1.637 9.312-2.441-0.014 0.014-0.014 0.028 0 0.028z"></path>
<path d="M32 13.023c-1.481 2.836-2.963 5.658-4.444 8.494-0.014 0-0.028 0-0.042 0-0.014-0.155-0.028-0.325-0.042-0.48-0.071-1.185-0.141-2.37-0.226-3.556-0.014-0.198-0.028-0.395-0.028-0.593 0-0.056 0.056-0.141 0.099-0.183 0.578-0.466 1.171-0.945 1.764-1.411 0.917-0.734 1.848-1.467 2.765-2.201 0.028-0.028 0.071-0.056 0.113-0.085 0.028 0 0.028 0 0.042 0.014z"></path>
<path d="M0.325 29.164c0.198-0.042 0.395-0.085 0.578-0.141 0.734-0.169 1.467-0.325 2.201-0.494 0.522-0.113 1.058-0.24 1.58-0.353 0.056-0.014 0.141 0 0.183 0.042 0.832 0.762 1.665 1.524 2.511 2.3 0.028 0.014 0.042 0.042 0.085 0.099-2.413-0.48-4.783-0.959-7.153-1.425 0.014 0 0.014-0.014 0.014-0.028z"></path>
<path d="M0.212 28.938c1.989-1.467 3.937-2.892 5.898-4.332 0.014 0.014 0.014 0.014 0.028 0.028-0.071 0.169-0.141 0.353-0.212 0.522-0.367 0.889-0.734 1.764-1.101 2.653-0.042 0.113-0.113 0.155-0.226 0.183-0.804 0.169-1.594 0.353-2.399 0.522-0.635 0.141-1.27 0.282-1.905 0.423-0.014 0.014-0.028 0.014-0.085 0z"></path>
<path d="M31.661 29.206c-2.37 0.48-4.741 0.945-7.097 1.425 0-0.014-0.014-0.014-0.014-0.028 0.028-0.028 0.056-0.071 0.099-0.099 0.818-0.748 1.637-1.496 2.455-2.258 0.071-0.071 0.141-0.071 0.226-0.056 1.044 0.24 2.102 0.466 3.146 0.705 0.381 0.085 0.748 0.169 1.129 0.24 0.028 0 0.042 0.014 0.056 0.028 0 0.014 0 0.028 0 0.042z"></path>
<path d="M31.746 28.952c-0.198-0.042-0.381-0.085-0.578-0.127-0.748-0.169-1.51-0.339-2.258-0.494-0.522-0.113-1.030-0.226-1.552-0.353-0.071-0.014-0.155-0.085-0.183-0.155-0.437-1.030-0.861-2.060-1.284-3.076-0.014-0.042-0.028-0.071-0.014-0.141 1.961 1.439 3.908 2.878 5.869 4.317 0.014 0.014 0 0.014 0 0.028z"></path>
</svg>
