<?xml version="1.0" encoding="utf-8"?>
<!-- Generator: Adobe Illustrator 22.0.1, SVG Export Plug-In . SVG Version: 6.00 Build 0)  -->
<svg version="1.1" id="Layer_1" xmlns="http://www.w3.org/2000/svg" xmlns:xlink="http://www.w3.org/1999/xlink" x="0px" y="0px"
	 viewBox="0 0 226.8 226.8" style="enable-background:new 0 0 226.8 226.8;" xml:space="preserve">
<style type="text/css">
	.st0{stroke:#FFFFFF;stroke-miterlimit:10;}
</style>
<path class="st0" d="M107,54.3c-40.2,2.5-59.1,31.3-62.4,37c-0.1,0-0.2,0-0.3,0c-4.2,0-7.7,3.4-7.7,7.7c0,1.5,0.4,2.9,1.2,4.2
	c-1.1,2.1-5.5,11.1-6.5,25.6l-10.2-10.1c-2-1.8-2.7-4.7-1.8-7.2c11.8-37,40-55,40-55c3.8,1.8,8.4,0.1,10.1-3.7
	c0.3-0.8,0.6-1.6,0.7-2.4c43.5-20,80.3-4.1,88-0.3c0,4.2,3.4,7.7,7.7,7.7c1.3,0,2.5-0.3,3.6-0.9c4.7,3.3,9.1,7,13,11.2l-10,10
	c-17.6-19.7-44.2-23.4-51.8-24.1c-2-3.7-6.6-5.2-10.3-3.2C108.9,51.4,107.7,52.7,107,54.3 M176.6,169.6c-1.3,1.4-1.2,3.5,0.2,4.8
	c0.6,0.6,1.5,0.9,2.3,0.9h28.1v4.7c0,13.8-11.2,25-24.9,25c0,0,0,0,0,0H45.8c-13.8,0-25-11.2-25-24.9c0,0,0,0,0,0v-4.7l27.3,0
	c1.4,0,2.8-0.8,3.3-2.1c0.6-1.4,0.3-3-0.8-4L6.2,125c-4.7-4.6-6.4-11.5-4.4-17.8c6.9-22.3,30-72.5,99.1-83.2c0,0,50.9-6.4,86.5,25.2
	c0,0,32.1,25.3,38.5,61.8c0.8,4.8-0.7,10.5-4.1,13.9 M28.8,181.2c0,9.3,7.5,16.8,16.8,16.8H182c9.3,0,16.8-7.5,16.8-16.8
	 M213.9,122.5c3-2.9,4.1-7.2,2.9-11.2c-3.9-13.2-15.3-42.6-43.3-61.5c-0.1-4.2-3.6-7.5-7.9-7.4c-1.2,0-2.5,0.4-3.5,1
	c-48.2-23.3-88.7-3.4-95,0c-3.4-2.5-8.2-1.8-10.7,1.6c-1,1.3-1.5,2.9-1.5,4.6c0,0.5,0,0.9,0.1,1.4L55,50.7
	C26.4,69,15.5,98.6,11.3,111c-1.2,3.5-0.3,7.4,2.4,10l51.5,52c1.5,1.5,4,1.6,5.5,0.1c1.6-1.5,1.7-4,0.2-5.6c0,0-0.1-0.1-0.1-0.1
	l-3.2-4.6c-10.6-19.1-6.7-37.2-1.8-47.9l16,9.7c-7.3,18,1.4,38.4,19.4,45.7c18,7.3,38.4-1.4,45.7-19.4c6-14.8,1.3-31.7-11.5-41.2
	l9-15.6c10.3,8.1,35.9,33.6,13,74.2c-1.2,1.9-0.6,4.3,1.3,5.4c1.6,1,3.7,0.7,5-0.6 M187.3,73.1l-12.4,12.7c-1.4,1.4-3.7,1.5-5.1,0.1
	c-0.1-0.1-0.1-0.1-0.2-0.2c-5.8-6.5-21.9-21.3-49.6-23.6c-2.7,3.3-7.5,3.8-10.8,1.2c-0.4-0.4-0.9-0.8-1.2-1.2
	c-10.2,0.7-20.2,3.6-29.3,8.3l6.5,12.3c0.2,0.3,0.6,0.5,1,0.3c0,0,0,0,0,0c31.4-17.2,61.1,2.8,61.1,2.8
	c38.5,26.7,25.7,66.2,25.7,66.2l16-16c1-14.8-3.8-25.7-5.8-29.5c-4.2-0.2-7.5-3.8-7.3-8.1c0.2-4.2,3.8-7.5,8.1-7.3
	c4.2,0.2,7.5,3.8,7.3,8.1c-0.1,1.3-0.5,2.5-1.1,3.6c4.3,8,6.2,20.6,6.8,25.2l10.8-10.8c1.4-1.4,1.4-3.5,0.8-5.4
	C203.1,94.8,194.9,82.2,187.3,73.1 M86.5,91.7c-2,1.1-4.4,0.4-5.5-1.6l-8.7-15.9c-8.5,5.6-15.7,13.1-21,21.7c1.7,3.9-0.2,8.4-4,10
	c-0.6,0.3-1.2,0.4-1.8,0.5c-4.9,7.2-6.6,22.2-7.1,29.1l15.9,15.7c-1.8-8.8-5.3-36.6,15.7-56.3c0.4-0.4,1.1-0.4,1.5,0l4.4,4.4
	c0.4,0.4,0.4,1.1,0,1.5c0,0,0,0,0,0c-2.6,2.3-4.9,5-6.8,7.9l15.9,9.6c9.6-14.6,28.6-19.9,44.4-12.4l9.2-15.9
	C115.9,78.2,94.5,87.3,86.5,91.7 M44.6,94.7c-2.5,0-4.4,2-4.4,4.4c0,2.5,2,4.4,4.4,4.4c2.5,0,4.4-2,4.4-4.4
	C49,96.7,47,94.7,44.6,94.7 M62.9,45.3c-2.5,0-4.4,2-4.4,4.4s2,4.4,4.4,4.4s4.4-2,4.4-4.4S65.3,45.3,62.9,45.3 M114.3,53.2
	c-2.5,0-4.4,2-4.4,4.4c0,2.5,2,4.4,4.4,4.4s4.4-2,4.4-4.4C118.7,55.2,116.7,53.2,114.3,53.2 M166.2,45.3c-2.5,0-4.4,2-4.4,4.4
	s2,4.4,4.4,4.4c2.5,0,4.4-2,4.4-4.4S168.6,45.3,166.2,45.3 M184,94.7c-2.5,0-4.4,2-4.4,4.4c0,2.5,2,4.4,4.4,4.4c2.5,0,4.4-2,4.4-4.4
	C188.4,96.7,186.4,94.7,184,94.7"/>
</svg>
