<!-- Generated by IcoMoon.io -->
<svg version="1.1" xmlns="http://www.w3.org/2000/svg" width="32" height="32" viewBox="0 0 32 32">
<title>PRL</title>
<path d="M15.097 7.661c-5.672 0.353-8.339 4.416-8.804 5.22-0.014 0-0.028 0-0.042 0-0.593 0-1.086 0.48-1.086 1.086 0 0.212 0.056 0.409 0.169 0.593-0.155 0.296-0.776 1.566-0.917 3.612l-1.439-1.425c-0.282-0.254-0.381-0.663-0.254-1.016 1.665-5.22 5.644-7.76 5.644-7.76 0.536 0.254 1.185 0.014 1.425-0.522 0.042-0.113 0.085-0.226 0.099-0.339 6.138-2.822 11.33-0.578 12.416-0.042 0 0.593 0.48 1.086 1.086 1.086 0.183 0 0.353-0.042 0.508-0.127 0.663 0.466 1.284 0.988 1.834 1.58l-1.411 1.411c-2.483-2.78-6.236-3.302-7.309-3.4-0.282-0.522-0.931-0.734-1.453-0.452-0.198 0.085-0.367 0.268-0.466 0.494M24.917 23.929c-0.183 0.198-0.169 0.494 0.028 0.677 0.085 0.085 0.212 0.127 0.325 0.127h3.965v0.663c0 1.947-1.58 3.527-3.513 3.527 0 0 0 0 0 0h-19.259c-1.947 0-3.527-1.58-3.527-3.513 0 0 0 0 0 0v-0.663h3.852c0.198 0 0.395-0.113 0.466-0.296 0.085-0.198 0.042-0.423-0.113-0.564l-6.265-6.25c-0.663-0.649-0.903-1.623-0.621-2.511 0.974-3.146 4.233-10.229 13.982-11.739 0 0 7.182-0.903 12.205 3.556 0 0 4.529 3.57 5.432 8.72 0.113 0.677-0.099 1.481-0.578 1.961M4.064 25.566c0 1.312 1.058 2.37 2.37 2.37h19.245c1.312 0 2.37-1.058 2.37-2.37M30.18 17.284c0.423-0.409 0.578-1.016 0.409-1.58-0.55-1.862-2.159-6.011-6.109-8.677-0.014-0.593-0.508-1.058-1.115-1.044-0.169 0-0.353 0.056-0.494 0.141-6.801-3.287-12.515-0.48-13.404 0-0.48-0.353-1.157-0.254-1.51 0.226-0.141 0.183-0.212 0.409-0.212 0.649 0 0.071 0 0.127 0.014 0.198v-0.042c-4.035 2.582-5.573 6.758-6.166 8.508-0.169 0.494-0.042 1.044 0.339 1.411l7.266 7.337c0.212 0.212 0.564 0.226 0.776 0.014 0.226-0.212 0.24-0.564 0.028-0.79 0 0-0.014-0.014-0.014-0.014l-0.451-0.649c-1.496-2.695-0.945-5.249-0.254-6.758l2.258 1.369c-1.030 2.54 0.198 5.418 2.737 6.448s5.418-0.198 6.448-2.737c0.847-2.088 0.183-4.473-1.623-5.813l1.27-2.201c1.453 1.143 5.065 4.741 1.834 10.469-0.169 0.268-0.085 0.607 0.183 0.762 0.226 0.141 0.522 0.099 0.705-0.085M26.427 10.314l-1.75 1.792c-0.198 0.198-0.522 0.212-0.72 0.014-0.014-0.014-0.014-0.014-0.028-0.028-0.818-0.917-3.090-3.005-6.998-3.33-0.381 0.466-1.058 0.536-1.524 0.169-0.056-0.056-0.127-0.113-0.169-0.169-1.439 0.099-2.85 0.508-4.134 1.171l0.917 1.735c0.028 0.042 0.085 0.071 0.141 0.042 0 0 0 0 0 0 4.43-2.427 8.621 0.395 8.621 0.395 5.432 3.767 3.626 9.34 3.626 9.34l2.258-2.258c0.141-2.088-0.536-3.626-0.818-4.162-0.593-0.028-1.058-0.536-1.030-1.143 0.028-0.593 0.536-1.058 1.143-1.030 0.593 0.028 1.058 0.536 1.030 1.143-0.014 0.183-0.071 0.353-0.155 0.508 0.607 1.129 0.875 2.907 0.959 3.556l1.524-1.524c0.198-0.198 0.198-0.494 0.113-0.762-0.776-2.399-1.933-4.176-3.005-5.46M12.205 12.938c-0.282 0.155-0.621 0.056-0.776-0.226l-1.227-2.243c-1.199 0.79-2.215 1.848-2.963 3.062 0.24 0.55-0.028 1.185-0.564 1.411-0.085 0.042-0.169 0.056-0.254 0.071-0.691 1.016-0.931 3.132-1.002 4.106l2.243 2.215c-0.254-1.242-0.748-5.164 2.215-7.944 0.056-0.056 0.155-0.056 0.212 0l0.621 0.621c0.056 0.056 0.056 0.155 0 0.212 0 0 0 0 0 0-0.367 0.325-0.691 0.705-0.959 1.115l2.243 1.354c1.354-2.060 4.035-2.808 6.265-1.75l1.298-2.243c-3.203-1.665-6.222-0.381-7.351 0.24M6.293 13.362c-0.353 0-0.621 0.282-0.621 0.621 0 0.353 0.282 0.621 0.621 0.621 0.353 0 0.621-0.282 0.621-0.621s-0.282-0.621-0.621-0.621M8.875 6.392c-0.353 0-0.621 0.282-0.621 0.621s0.282 0.621 0.621 0.621 0.621-0.282 0.621-0.621-0.282-0.621-0.621-0.621M16.127 7.506c-0.353 0-0.621 0.282-0.621 0.621 0 0.353 0.282 0.621 0.621 0.621s0.621-0.282 0.621-0.621c0-0.339-0.282-0.621-0.621-0.621M23.45 6.392c-0.353 0-0.621 0.282-0.621 0.621s0.282 0.621 0.621 0.621c0.353 0 0.621-0.282 0.621-0.621s-0.282-0.621-0.621-0.621M25.961 13.362c-0.353 0-0.621 0.282-0.621 0.621 0 0.353 0.282 0.621 0.621 0.621 0.353 0 0.621-0.282 0.621-0.621s-0.282-0.621-0.621-0.621"></path>
</svg>
