<?xml version="1.0" encoding="utf-8"?>
<!-- Generator: Adobe Illustrator 22.1.0, SVG Export Plug-In . SVG Version: 6.00 Build 0)  -->
<svg version="1.1" id="Layer_1" xmlns="http://www.w3.org/2000/svg" xmlns:xlink="http://www.w3.org/1999/xlink" x="0px" y="0px"
	 viewBox="0 0 226.8 226.8" style="enable-background:new 0 0 226.8 226.8;" xml:space="preserve">
<g>
	<path d="M227.8,123.4c0,0.8,0,1.5,0,2.3c-3.8,3.6-7.3,7.7-11.5,10.8c-12.6,9.1-16.3,21-15.1,36.2c1.3,15.5,0.2,31.3,0.3,46.9
		c0,4.9-1.6,7.1-6.9,7.1c-64.5-0.2-129-0.2-193.5-0.2c0-41.5,0-83.1,0-124.6c27.3-27.3,54.6-54.6,81.8-82c6.5-6.5,12.7-13.3,19-20
		c0.8,0,1.5,0,2.3,0c12.3,12.5,24.5,25,36.8,37.6c1.6-2.5,1.9-4,1.9-5.4c0.4-8.5,0.5-8.6,8.7-8.7c13.6,0,27.2,0,40.8,0
		c8.6,0,9,0.4,9,8.9c0,19.6-0.1,39.3,0.1,58.9c0,2.9,0.3,6.6,2.1,8.4C211.4,107.8,219.7,115.5,227.8,123.4z M15.8,158.8
		c0,14.9,0,29.8,0,44.7c0,7.8,0.4,8.2,8.5,8.3c3.8,0,7.6-0.1,11.3,0c4.7,0.2,6.3-2,6.3-6.5c-0.1-13.2,0-26.4,0-39.6
		c0-10.2,0-10.2,9.8-8.5c53.4,9.6,101.7-39.3,91.1-92.6c-0.7-3.5-2.7-7.1-5.1-9.7c-9.8-10.3-20-20-29.9-30.2
		c-3.2-3.3-5.3-3.6-8.7-0.1c-26.3,26.6-52.8,52.9-79,79.6c-2.3,2.4-4,6.5-4.1,9.8C15.6,129,15.9,143.9,15.8,158.8z M121.9,211.8
		c18.7,0,37.4,0,56.1,0c8.4,0,8.7-0.4,8.7-8.5c0-16.8,0.2-33.6-0.1-50.4c-0.1-5.4,1.4-9.4,5.4-12.9c4-3.5,7.4-7.6,11.3-11.1
		c3-2.8,3.3-5,0.1-7.9c-4.1-3.7-7.6-7.9-11.7-11.5c-3.9-3.4-5.2-7.4-5.2-12.5c0.2-17,0.1-34,0.1-51c0-7.1-0.7-7.7-7.9-7.8
		c-4.3,0-8.7,0-13,0c-7.2,0.1-8,0.7-7.9,7.7c0.1,7.9,0.6,15.8,0.7,23.7c0.1,6.8,0.5,13.7-0.4,20.3c-6.3,48.1-45.6,82.8-94.2,83.5
		c-6.9,0.1-7.3,0.4-7.3,7.5c-0.1,7.5-0.1,15.1,0,22.6c0,7.7,0.4,8.1,8,8.1C83.8,211.8,102.8,211.8,121.9,211.8z"/>
</g>
</svg>
