<!-- Generated by IcoMoon.io -->
<svg version="1.1" xmlns="http://www.w3.org/2000/svg" width="32" height="32" viewBox="0 0 32 32">
<title>PRO</title>
<path d="M32.141 17.411c0 0.113 0 0.212 0 0.325-0.536 0.508-1.030 1.086-1.623 1.524-1.778 1.284-2.3 2.963-2.131 5.108 0.183 2.187 0.028 4.416 0.042 6.617 0 0.691-0.226 1.002-0.974 1.002-9.101-0.028-18.201-0.028-27.302-0.028 0-5.855 0-11.725 0-17.58 3.852-3.852 7.704-7.704 11.541-11.57 0.917-0.917 1.792-1.877 2.681-2.822 0.113 0 0.212 0 0.325 0 1.735 1.764 3.457 3.527 5.192 5.305 0.226-0.353 0.268-0.564 0.268-0.762 0.056-1.199 0.071-1.213 1.227-1.228 1.919 0 3.838 0 5.757 0 1.213 0 1.27 0.056 1.27 1.256 0 2.765-0.014 5.545 0.014 8.31 0 0.409 0.042 0.931 0.296 1.185 1.101 1.157 2.272 2.243 3.414 3.358zM2.229 22.406c0 2.102 0 4.205 0 6.307 0 1.101 0.056 1.157 1.199 1.171 0.536 0 1.072-0.014 1.594 0 0.663 0.028 0.889-0.282 0.889-0.917-0.014-1.862 0-3.725 0-5.587 0-1.439 0-1.439 1.383-1.199 7.534 1.355 14.349-5.545 12.854-13.065-0.099-0.494-0.381-1.002-0.72-1.369-1.383-1.453-2.822-2.822-4.219-4.261-0.451-0.466-0.748-0.508-1.228-0.014-3.711 3.753-7.45 7.464-11.146 11.231-0.325 0.339-0.564 0.917-0.578 1.383-0.056 2.116-0.014 4.219-0.028 6.321zM17.199 29.884c2.638 0 5.277 0 7.915 0 1.185 0 1.227-0.056 1.227-1.199 0-2.37 0.028-4.741-0.014-7.111-0.014-0.762 0.198-1.326 0.762-1.82s1.044-1.072 1.594-1.566c0.423-0.395 0.466-0.705 0.014-1.115-0.578-0.522-1.072-1.115-1.651-1.623-0.55-0.48-0.734-1.044-0.734-1.764 0.028-2.399 0.014-4.797 0.014-7.196 0-1.002-0.099-1.086-1.115-1.101-0.607 0-1.227 0-1.834 0-1.016 0.014-1.129 0.099-1.115 1.086 0.014 1.115 0.085 2.229 0.099 3.344 0.014 0.959 0.071 1.933-0.056 2.864-0.889 6.787-6.434 11.683-13.291 11.781-0.974 0.014-1.030 0.056-1.030 1.058-0.014 1.058-0.014 2.131 0 3.189 0 1.086 0.056 1.143 1.129 1.143 2.709 0.028 5.39 0.028 8.085 0.028z"></path>
</svg>
