<!-- Generated by IcoMoon.io -->
<svg version="1.1" xmlns="http://www.w3.org/2000/svg" width="32" height="32" viewBox="0 0 32 32">
<title>PST</title>
<path d="M12.698 19.57c0.677 0.395 1.228 0.691 1.764 1.016 0.353 0.212 0.691 0.353 1.129 0.183 0.226-0.085 0.536-0.127 0.762-0.028 0.691 0.282 1.213-0.028 1.75-0.367 0.367-0.226 0.734-0.451 1.115-0.649 0.466-0.226 0.79-0.536 0.875-1.072 0.028-0.155 0.085-0.367 0.212-0.451 0.762-0.564 0.649-1.383 0.649-2.173 0-0.31-0.014-0.635 0-0.945 0.028-0.48-0.014-0.903-0.451-1.213-0.127-0.085-0.268-0.268-0.296-0.409-0.127-0.931-0.889-1.256-1.58-1.637-0.226-0.127-0.451-0.24-0.663-0.395-0.437-0.31-0.889-0.466-1.425-0.226-0.212 0.099-0.536 0.113-0.762 0.014-0.677-0.296-1.199 0-1.735 0.339-0.339 0.212-0.691 0.409-1.030 0.607-0.466 0.254-0.889 0.508-0.931 1.115-0.014 0.155-0.127 0.339-0.254 0.437-0.564 0.423-0.55 1.002-0.55 1.608 0.014 2.794 0.014 5.601 0 8.395 0 0.48 0.099 0.832 0.48 1.199 0.296 0.282 0.48 0.776 0.536 1.199s0.212 0.677 0.578 0.861c0.254 0.127 0.494 0.282 0.734 0.437 0.593 0.395 1.157 0.649 1.862 0.169 0.48-0.325 1.072-0.198 1.552 0.085 0.423 0.254 0.748 0.254 1.171 0 2.413-1.425 4.84-2.822 7.252-4.205 0.325-0.183 0.508-0.395 0.522-0.804 0.028-0.663 0.367-1.199 0.889-1.594 0.353-0.268 0.48-0.564 0.48-1.016-0.028-2.653-0.028-5.319-0.014-7.972 0-0.437-0.099-0.748-0.466-1.016-0.607-0.451-0.903-1.072-0.931-1.848-0.014-0.24-0.155-0.578-0.353-0.691-2.582-1.524-5.178-3.005-7.802-4.501-1.101 0.903-2.201 0.903-3.316 0-1.848 1.072-3.683 2.116-5.503 3.175-0.72 0.409-1.425 0.847-2.159 1.242-0.339 0.183-0.508 0.409-0.494 0.804 0.042 0.804-0.324 1.439-0.974 1.891-0.325 0.226-0.409 0.494-0.409 0.875 0 2.681 0.014 5.376-0.028 8.056 0 0.508 0.226 0.762 0.578 1.044 0.748 0.593 0.959 1.425 0.762 2.314-0.169 0.818-0.691 1.425-1.538 1.679-0.903 0.268-1.637-0.014-2.215-0.691-0.621-0.734-0.748-1.594-0.353-2.483 0.127-0.282 0.31-0.593 0.55-0.748 0.578-0.367 0.621-0.875 0.607-1.467-0.028-2.455-0.028-4.91-0.014-7.365 0-0.578-0.113-1.002-0.607-1.383-0.762-0.607-0.959-1.481-0.691-2.399 0.24-0.917 0.861-1.496 1.778-1.651 0.381-0.056 0.804 0 1.157 0.141 0.367 0.141 0.621 0.141 0.959-0.056 2.469-1.439 4.938-2.864 7.422-4.289 0.367-0.212 0.564-0.48 0.663-0.917 0.226-1.030 1.199-1.82 2.116-1.834 0.903-0.014 1.919 0.762 2.145 1.806 0.113 0.508 0.367 0.776 0.79 1.016 2.427 1.397 4.84 2.808 7.252 4.219 0.339 0.198 0.621 0.254 1.030 0.085 1.058-0.423 2.102-0.042 2.667 0.875 0.593 0.959 0.466 2.257-0.423 2.949-0.522 0.423-0.621 0.861-0.621 1.467 0.014 2.483 0.014 4.966-0.014 7.464 0 0.55 0.113 0.945 0.578 1.312 0.847 0.677 1.030 1.848 0.55 2.794-0.451 0.917-1.51 1.538-2.427 1.086-1.016-0.508-1.651-0.028-2.413 0.409-2.102 1.213-4.205 2.427-6.307 3.64-0.395 0.226-0.607 0.508-0.677 0.988-0.198 1.242-1.016 1.905-2.159 1.891-1.101-0.014-1.919-0.734-2.102-1.961-0.056-0.423-0.212-0.677-0.578-0.861-0.409-0.212-0.804-0.437-1.185-0.677-0.522-0.325-1.030-0.55-1.679-0.451-0.762 0.113-1.326-0.296-1.665-0.959s-0.296-1.355 0.198-1.919c0.339-0.381 0.409-0.776 0.395-1.256-0.014-2.921-0.014-5.827-0.014-8.748 0-0.494-0.056-0.917-0.466-1.298-0.578-0.578-0.649-1.312-0.296-2.060 0.325-0.677 1.044-1.157 1.834-0.959 0.748 0.183 1.256-0.113 1.82-0.451 0.339-0.212 0.691-0.409 1.044-0.593 0.48-0.268 0.875-0.55 1.086-1.129 0.254-0.72 0.889-1.044 1.623-1.058 0.762-0.014 1.425 0.339 1.693 1.086 0.198 0.536 0.55 0.832 1.016 1.086 0.381 0.198 0.748 0.423 1.115 0.649 0.564 0.339 1.086 0.621 1.82 0.437 0.762-0.183 1.411 0.254 1.75 0.959 0.325 0.691 0.325 1.425-0.212 2.004-0.367 0.395-0.494 0.804-0.466 1.312 0.028 0.423 0.014 0.861 0 1.284-0.028 0.663 0.014 1.256 0.55 1.806 0.494 0.508 0.423 1.227 0.141 1.862-0.254 0.593-0.776 1.044-1.397 0.945-1.213-0.198-2.046 0.466-2.991 0.988-0.607 0.339-1.129 0.663-1.383 1.411-0.24 0.734-0.945 1.016-1.651 0.988-0.705-0.014-1.369-0.339-1.608-1.086-0.183-0.564-0.508-0.931-1.044-1.143-0.564-0.212-0.748-0.635-0.691-1.213 0.042-0.437 0.014-0.832 0.014-1.383z"></path>
</svg>
