<?xml version="1.0" encoding="utf-8"?>
<!-- Generator: Adobe Illustrator 22.1.0, SVG Export Plug-In . SVG Version: 6.00 Build 0)  -->
<svg version="1.1" id="Layer_1" xmlns="http://www.w3.org/2000/svg" xmlns:xlink="http://www.w3.org/1999/xlink" x="0px" y="0px"
	 viewBox="0 0 226.8 226.8" style="enable-background:new 0 0 226.8 226.8;" xml:space="preserve">
<g>
	<path d="M90,138.7c4.8,2.8,8.7,4.9,12.5,7.2c2.5,1.5,4.9,2.5,8,1.3c1.6-0.6,3.8-0.9,5.4-0.2c4.9,2,8.6-0.2,12.4-2.6
		c2.6-1.6,5.2-3.2,7.9-4.6c3.3-1.6,5.6-3.8,6.2-7.6c0.2-1.1,0.6-2.6,1.5-3.2c5.4-4,4.6-9.8,4.6-15.4c0-2.2-0.1-4.5,0-6.7
		c0.2-3.4-0.1-6.4-3.2-8.6c-0.9-0.6-1.9-1.9-2.1-2.9c-0.9-6.6-6.3-8.9-11.2-11.6c-1.6-0.9-3.2-1.7-4.7-2.8
		c-3.1-2.2-6.3-3.3-10.1-1.6c-1.5,0.7-3.8,0.8-5.4,0.1c-4.8-2.1-8.5,0-12.3,2.4c-2.4,1.5-4.9,2.9-7.3,4.3c-3.3,1.8-6.3,3.6-6.6,7.9
		c-0.1,1.1-0.9,2.4-1.8,3.1c-4,3-3.9,7.1-3.9,11.4c0.1,19.8,0.1,39.7,0,59.5c0,3.4,0.7,5.9,3.4,8.5c2.1,2,3.4,5.5,3.8,8.5
		c0.4,3,1.5,4.8,4.1,6.1c1.8,0.9,3.5,2,5.2,3.1c4.2,2.8,8.2,4.6,13.2,1.2c3.4-2.3,7.6-1.4,11,0.6c3,1.8,5.3,1.8,8.3,0
		c17.1-10.1,34.3-20,51.4-29.8c2.3-1.3,3.6-2.8,3.7-5.7c0.2-4.7,2.6-8.5,6.3-11.3c2.5-1.9,3.4-4,3.4-7.2
		c-0.2-18.8-0.2-37.7-0.1-56.5c0-3.1-0.7-5.3-3.3-7.2c-4.3-3.2-6.4-7.6-6.6-13.1c-0.1-1.7-1.1-4.1-2.5-4.9
		c-18.3-10.8-36.7-21.3-55.3-31.9c-7.8,6.4-15.6,6.4-23.5,0c-13.1,7.6-26.1,15-39,22.5c-5.1,2.9-10.1,6-15.3,8.8
		c-2.4,1.3-3.6,2.9-3.5,5.7c0.3,5.7-2.3,10.2-6.9,13.4c-2.3,1.6-2.9,3.5-2.9,6.2c0,19,0.1,38.1-0.2,57.1c0,3.6,1.6,5.4,4.1,7.4
		c5.3,4.2,6.8,10.1,5.4,16.4c-1.2,5.8-4.9,10.1-10.9,11.9c-6.4,1.9-11.6-0.1-15.7-4.9c-4.4-5.2-5.3-11.3-2.5-17.6
		c0.9-2,2.2-4.2,3.9-5.3c4.1-2.6,4.4-6.2,4.3-10.4c-0.2-17.4-0.2-34.8-0.1-52.2c0-4.1-0.8-7.1-4.3-9.8c-5.4-4.3-6.8-10.5-4.9-17
		C15.6,54.2,20,50.1,26.5,49c2.7-0.4,5.7,0,8.2,1c2.6,1,4.4,1,6.8-0.4c17.5-10.2,35-20.3,52.6-30.4c2.6-1.5,4-3.4,4.7-6.5
		c1.6-7.3,8.5-12.9,15-13c6.4-0.1,13.6,5.4,15.2,12.8c0.8,3.6,2.6,5.5,5.6,7.2c17.2,9.9,34.3,19.9,51.4,29.9
		c2.4,1.4,4.4,1.8,7.3,0.6c7.5-3,14.9-0.3,18.9,6.2c4.2,6.8,3.3,16-3,20.9c-3.7,3-4.4,6.1-4.4,10.4c0.1,17.6,0.1,35.2-0.1,52.9
		c0,3.9,0.8,6.7,4.1,9.3c6,4.8,7.3,13.1,3.9,19.8c-3.2,6.5-10.7,10.9-17.2,7.7c-7.2-3.6-11.7-0.2-17.1,2.9
		c-14.9,8.6-29.8,17.2-44.7,25.8c-2.8,1.6-4.3,3.6-4.8,7c-1.4,8.8-7.2,13.5-15.3,13.4c-7.8-0.1-13.6-5.2-14.9-13.9
		c-0.4-3-1.5-4.8-4.1-6.1c-2.9-1.5-5.7-3.1-8.4-4.8c-3.7-2.3-7.3-3.9-11.9-3.2c-5.4,0.8-9.4-2.1-11.8-6.8c-2.4-4.7-2.1-9.6,1.4-13.6
		c2.4-2.7,2.9-5.5,2.8-8.9c-0.1-20.7-0.1-41.3-0.1-62c0-3.5-0.4-6.5-3.3-9.2c-4.1-4.1-4.6-9.3-2.1-14.6c2.3-4.8,7.4-8.2,13-6.8
		c5.3,1.3,8.9-0.8,12.9-3.2c2.4-1.5,4.9-2.9,7.4-4.2c3.4-1.9,6.2-3.9,7.7-8c1.8-5.1,6.3-7.4,11.5-7.5c5.4-0.1,10.1,2.4,12,7.7
		c1.4,3.8,3.9,5.9,7.2,7.7c2.7,1.4,5.3,3,7.9,4.6c4,2.4,7.7,4.4,12.9,3.1c5.4-1.3,10,1.8,12.4,6.8c2.3,4.9,2.3,10.1-1.5,14.2
		c-2.6,2.8-3.5,5.7-3.3,9.3c0.2,3,0.1,6.1,0,9.1c-0.2,4.7,0.1,8.9,3.9,12.8c3.5,3.6,3,8.7,1,13.2c-1.8,4.2-5.5,7.4-9.9,6.7
		c-8.6-1.4-14.5,3.3-21.2,7c-4.3,2.4-8,4.7-9.8,10c-1.7,5.2-6.7,7.2-11.7,7c-5-0.1-9.7-2.4-11.4-7.7c-1.3-4-3.6-6.6-7.4-8.1
		c-4-1.5-5.3-4.5-4.9-8.6C90.2,145.4,90,142.6,90,138.7z"/>
</g>
</svg>
