<?xml version="1.0" encoding="utf-8"?>
<!-- Generator: Adobe Illustrator 22.0.1, SVG Export Plug-In . SVG Version: 6.00 Build 0)  -->
<svg version="1.1" id="Layer_1" xmlns="http://www.w3.org/2000/svg" xmlns:xlink="http://www.w3.org/1999/xlink" x="0px" y="0px"
	 viewBox="0 0 226.8 226.8" style="enable-background:new 0 0 226.8 226.8;" xml:space="preserve">
<style type="text/css">
	.st0{stroke:#FFFFFF;stroke-miterlimit:10;}
</style>
<g>
	<path class="st0" d="M70.4,52.3v15.2c0,9.6-7.8,17.3-17.3,17.3H19.5C8.8,84.8,0,93.5,0,104.3v28.6c0.1,10.8,8.8,19.4,19.5,19.5
		h33.5c9.6,0,17.3,7.8,17.3,17.3v33.5c0,10.8,8.8,19.5,19.5,19.5h28.6c10.8,0,19.5-8.8,19.5-19.5v-33.5c0-9.6,7.8-17.3,17.3-17.4
		h15.2C115.5,152.4,70.4,107.3,70.4,52.3z"/>
	<g>
		<path class="st0" d="M208.5,132.9v-28.6c0-10.8-8.8-19.5-19.5-19.5h-33.5c-9.6,0-17.3-7.8-17.3-17.3V33.9
			c0-10.8-8.8-19.5-19.5-19.5H89.9c-10.8,0-19.5,8.8-19.5,19.5v18.4c0,55.1,45.1,100.2,100.2,100.2H189
			C199.7,152.4,208.5,143.7,208.5,132.9z"/>
		<path class="st0" d="M158.4,59.5c0,0-6.5-68.1,68.4-51.5C225.4,28.1,227.3,77.4,158.4,59.5z"/>
	</g>
</g>
</svg>
