<!-- Generated by IcoMoon.io -->
<svg version="1.1" xmlns="http://www.w3.org/2000/svg" width="32" height="32" viewBox="0 0 32 32">
<title>PTOY</title>
<path d="M9.933 7.379v2.145c0 1.354-1.101 2.441-2.441 2.441h-4.741c-1.51 0-2.751 1.227-2.751 2.751v4.035c0.014 1.524 1.242 2.737 2.751 2.751h4.727c1.354 0 2.441 1.101 2.441 2.441v4.727c0 1.524 1.242 2.751 2.751 2.751h4.035c1.524 0 2.751-1.242 2.751-2.751v-4.727c0-1.355 1.101-2.441 2.441-2.455h2.145c-7.746 0.014-14.109-6.349-14.109-14.109z"></path>
<path d="M29.418 18.751v-4.035c0-1.524-1.242-2.751-2.751-2.751h-4.727c-1.355 0-2.441-1.101-2.441-2.441v-4.741c0-1.524-1.242-2.751-2.751-2.751h-4.064c-1.524 0-2.751 1.242-2.751 2.751v2.596c0 7.774 6.363 14.138 14.138 14.138h2.596c1.51-0.014 2.751-1.242 2.751-2.765z"></path>
<path d="M22.349 8.395c0 0-0.917-9.608 9.651-7.266-0.198 2.836 0.071 9.792-9.651 7.266z"></path>
</svg>
