<?xml version="1.0" encoding="utf-8"?>
<!-- Generator: Adobe Illustrator 22.1.0, SVG Export Plug-In . SVG Version: 6.00 Build 0)  -->
<svg version="1.1" id="Layer_1" xmlns="http://www.w3.org/2000/svg" xmlns:xlink="http://www.w3.org/1999/xlink" x="0px" y="0px"
	 viewBox="0 0 250 250" style="enable-background:new 0 0 250 250;" xml:space="preserve">
<g transform="translate(0-50)">
	<path d="M58.2,57.4h107.8c29.8,1.8,62.6,14.2,75.8,43c16.5,36.7,8.3,88.4-28.9,109.3c-34.2,19.8-75.2,12-112.8,13.6
		c-1,18.8,4.2,40.6-8.7,56.5c-5.2,7.6-29,16.6-29,16.6s-2.2-20.4-3-66.2c-0.5-12.7,1.5-26.9,12.3-35.1c12.6-10.9,30.4-7.5,45.6-8.1
		c23.1-0.6,47.3,3,69.2-6.1c32.1-13.3,33.3-67.6,0.9-81.2c-33-13-69.5-1.2-103.5-8.3C68.6,87.1,61.6,71.7,58.2,57.4z"/>
	<path d="M0,119.8c28.2,0.5,56.4-1,84.6,0.7c20.5,1.6,33.9,20.4,36,39.5c-28.4-0.2-56.8,0.9-85.2-0.4C17.9,158.6,5,144.3,0,128.5
		V119.8z"/>
</g>
</svg>
