<!-- Generated by IcoMoon.io -->
<svg version="1.1" xmlns="http://www.w3.org/2000/svg" width="32" height="32" viewBox="0 0 32 32">
<title>PURA</title>
<path d="M7.45 0.947h13.798c3.814 0.23 8.013 1.818 9.702 5.504 2.112 4.698 1.062 11.315-3.699 13.99-4.378 2.534-9.626 1.536-14.438 1.741-0.128 2.406 0.538 5.197-1.114 7.232-0.666 0.973-3.712 2.125-3.712 2.125s-0.282-2.611-0.384-8.474c-0.064-1.626 0.192-3.443 1.574-4.493 1.613-1.395 3.891-0.96 5.837-1.037 2.957-0.077 6.054 0.384 8.858-0.781 4.109-1.702 4.262-8.653 0.115-10.394-4.224-1.664-8.896-0.154-13.248-1.062-1.958-0.55-2.854-2.522-3.29-4.352z"></path>
<path d="M0 8.934c3.61 0.064 7.219-0.128 10.829 0.090 2.624 0.205 4.339 2.611 4.608 5.056-3.635-0.026-7.27 0.115-10.906-0.051-2.24-0.128-3.891-1.958-4.531-3.981v-1.114z"></path>
</svg>
