<?xml version="1.0" encoding="utf-8"?>
<!-- Generator: Adobe Illustrator 22.1.0, SVG Export Plug-In . SVG Version: 6.00 Build 0)  -->
<svg version="1.1" id="Layer_1" xmlns="http://www.w3.org/2000/svg" xmlns:xlink="http://www.w3.org/1999/xlink" x="0px" y="0px"
	 viewBox="0 0 250 250" style="enable-background:new 0 0 250 250;" xml:space="preserve">
<g>
	<path d="M0,124.2C0,54.5,55.5-0.3,126.4,0C194.6,0.3,250,57.5,248.8,126.6c-1.2,68.2-58.1,123.4-127.6,122.3
		C55.1,247.8,0,192,0,124.2z M60.5,72.2c15.9,15.9,31.2,31.2,46.4,46.4c3.9-3.8,8.2-8,11.6-11.3c-15.6-15.6-31-31.1-46.1-46.1
		C68.7,64.6,64.4,68.6,60.5,72.2z M141.8,118.8c15.5-15.4,30.8-30.8,45.6-45.6c-3.9-4.2-8-8.7-11.5-12.4
		c-15.4,15.4-30.8,30.8-46.3,46.2C133.4,110.7,137.7,114.7,141.8,118.8z M187.5,176.5c-15.7-15.7-31.1-31.1-45.5-45.5
		c-3.8,3.4-8.3,7.3-12,10.5c15.4,15.4,30.8,30.8,46.3,46.3C180,184.2,184.2,180,187.5,176.5z M72.2,188c15.6-15.5,31-30.9,46.5-46.3
		c-4-3.9-8.2-8.2-11.9-11.8c-15.4,15.4-30.8,30.7-46,45.9C64.5,179.8,68.6,184.1,72.2,188z M112.7,123.3c3.9,4.6,7.6,9,10.5,12.4
		c4.5-4.2,8.7-8.2,12.6-11.8c-3.7-4-7.6-8.2-11.5-12.5C119.9,115.9,115.9,120,112.7,123.3z"/>
</g>
</svg>
