<!-- Generated by IcoMoon.io -->
<svg version="1.1" xmlns="http://www.w3.org/2000/svg" width="32" height="32" viewBox="0 0 32 32">
<title>PXS</title>
<path d="M0 15.898c0-8.922 7.104-15.936 16.179-15.898 8.73 0.038 15.821 7.36 15.667 16.205-0.154 8.73-7.437 15.795-16.333 15.654-8.461-0.141-15.514-7.283-15.514-15.962zM7.744 9.242c2.035 2.035 3.994 3.994 5.939 5.939 0.499-0.486 1.050-1.024 1.485-1.446-1.997-1.997-3.968-3.981-5.901-5.901-0.474 0.435-1.024 0.947-1.523 1.408zM18.15 15.206c1.984-1.971 3.942-3.942 5.837-5.837-0.499-0.538-1.024-1.114-1.472-1.587-1.971 1.971-3.942 3.942-5.926 5.914 0.486 0.474 1.037 0.986 1.562 1.51zM24 22.592c-2.010-2.010-3.981-3.981-5.824-5.824-0.486 0.435-1.062 0.934-1.536 1.344 1.971 1.971 3.942 3.942 5.926 5.926 0.474-0.461 1.011-0.998 1.434-1.446zM9.242 24.064c1.997-1.984 3.968-3.955 5.952-5.926-0.512-0.499-1.050-1.050-1.523-1.51-1.971 1.971-3.942 3.93-5.888 5.875 0.474 0.512 0.998 1.062 1.459 1.562zM14.426 15.782c0.499 0.589 0.973 1.152 1.344 1.587 0.576-0.538 1.114-1.050 1.613-1.51-0.474-0.512-0.973-1.050-1.472-1.6-0.563 0.576-1.075 1.101-1.485 1.523z"></path>
</svg>
