<!-- Generated by IcoMoon.io -->
<svg version="1.1" xmlns="http://www.w3.org/2000/svg" width="32" height="32" viewBox="0 0 32 32">
<title>PZM</title>
<path d="M1.496 16.974c-0.48-0.832-0.903-1.58-1.34-2.328-0.226-0.395 0.113-0.508 0.353-0.649 1.34-0.776 2.653-1.552 4.007-2.286 0.578-0.31 0.621-0.593 0.296-1.143-1.425-2.413-2.822-4.854-4.219-7.295-0.169-0.282-0.325-0.578-0.593-1.058 0.593 0 1.044 0.056 1.481-0.014 1.496-0.254 2.314 0.367 3.062 1.693 3.556 6.335 7.238 12.6 10.878 18.878 0.155 0.268 0.325 0.522 0.593 0.959 3.584-6.194 7.083-12.233 10.667-18.413-4.656 0-9.101 0-13.714 0 0.536 0.959 1.002 1.82 1.566 2.808-1.213 0-2.286 0.014-3.358-0.014-0.113 0-0.254-0.169-0.325-0.296-1.030-1.75-2.046-3.499-3.062-5.263-0.028-0.056-0.028-0.127-0.042-0.268 8.042 0 16.056 0 24.183 0-0.155 0.31-0.282 0.564-0.423 0.804-1.439 2.483-2.864 4.995-4.332 7.45-0.367 0.607-0.226 0.861 0.339 1.171 1.27 0.691 2.511 1.425 3.767 2.159 0.226 0.127 0.437 0.282 0.72 0.466-0.522 0.889-1.002 1.721-1.524 2.61-1.594-0.917-3.090-1.778-4.6-2.624-0.212-0.113-0.621-0.254-0.691-0.169-0.268 0.31-0.451 0.705-0.593 1.101-0.028 0.085 0.254 0.325 0.437 0.437 1.34 0.832 2.695 1.665 4.064 2.469 0.437 0.254 0.494 0.48 0.212 0.889-0.353 0.522-0.649 1.072-0.931 1.623-0.212 0.395-0.437 0.423-0.804 0.198-1.27-0.776-2.554-1.538-3.838-2.3-0.861-0.508-0.861-0.508-1.34 0.325-1.989 3.457-3.993 6.914-5.996 10.356-0.113 0.183-0.24 0.353-0.409 0.607-0.776-1.326-1.496-2.568-2.229-3.824-1.425-2.441-2.85-4.882-4.247-7.351-0.296-0.522-0.536-0.564-1.030-0.254-1.298 0.818-2.653 1.566-3.951 2.384-0.437 0.268-0.691 0.282-0.931-0.212-0.254-0.522-0.55-1.016-0.875-1.51-0.282-0.423-0.226-0.677 0.226-0.945 1.369-0.79 2.695-1.665 4.063-2.441 0.621-0.353 0.353-0.677 0.127-1.086-0.226-0.423-0.437-0.663-0.974-0.339-1.496 0.903-3.034 1.75-4.67 2.695z"></path>
</svg>
