<?xml version="1.0" encoding="utf-8"?>
<!-- Generator: Adobe Illustrator 22.1.0, SVG Export Plug-In . SVG Version: 6.00 Build 0)  -->
<svg version="1.1" id="Layer_1" xmlns="http://www.w3.org/2000/svg" xmlns:xlink="http://www.w3.org/1999/xlink" x="0px" y="0px"
	 viewBox="0 0 226.8 226.8" style="enable-background:new 0 0 226.8 226.8;" xml:space="preserve">
<g>
	<path d="M10.6,120.3c-3.4-5.9-6.4-11.2-9.5-16.5c-1.6-2.8,0.8-3.6,2.5-4.6C13.1,93.7,22.4,88.2,32,83c4.1-2.2,4.4-4.2,2.1-8.1
		C24,57.8,14.1,40.5,4.2,23.2c-1.2-2-2.3-4.1-4.2-7.5c4.2,0,7.4,0.4,10.5-0.1c10.6-1.8,16.4,2.6,21.7,12
		c25.2,44.9,51.3,89.3,77.1,133.8c1.1,1.9,2.3,3.7,4.2,6.8c25.4-43.9,50.2-86.7,75.6-130.5c-33,0-64.5,0-97.2,0
		c3.8,6.8,7.1,12.9,11.1,19.9c-8.6,0-16.2,0.1-23.8-0.1c-0.8,0-1.8-1.2-2.3-2.1C69.6,43,62.4,30.6,55.2,18.1
		c-0.2-0.4-0.2-0.9-0.3-1.9c57,0,113.8,0,171.4,0c-1.1,2.2-2,4-3,5.7c-10.2,17.6-20.3,35.4-30.7,52.8c-2.6,4.3-1.6,6.1,2.4,8.3
		c9,4.9,17.8,10.1,26.7,15.3c1.6,0.9,3.1,2,5.1,3.3c-3.7,6.3-7.1,12.2-10.8,18.5c-11.3-6.5-21.9-12.6-32.6-18.6
		c-1.5-0.8-4.4-1.8-4.9-1.2c-1.9,2.2-3.2,5-4.2,7.8c-0.2,0.6,1.8,2.3,3.1,3.1c9.5,5.9,19.1,11.8,28.8,17.5c3.1,1.8,3.5,3.4,1.5,6.3
		c-2.5,3.7-4.6,7.6-6.6,11.5c-1.5,2.8-3.1,3-5.7,1.4c-9-5.5-18.1-10.9-27.2-16.3c-6.1-3.6-6.1-3.6-9.5,2.3
		c-14.1,24.5-28.3,49-42.5,73.4c-0.8,1.3-1.7,2.5-2.9,4.3c-5.5-9.4-10.6-18.2-15.8-27.1c-10.1-17.3-20.2-34.6-30.1-52.1
		c-2.1-3.7-3.8-4-7.3-1.8c-9.2,5.8-18.8,11.1-28,16.9c-3.1,1.9-4.9,2-6.6-1.5c-1.8-3.7-3.9-7.2-6.2-10.7c-2-3-1.6-4.8,1.6-6.7
		c9.7-5.6,19.1-11.8,28.8-17.3c4.4-2.5,2.5-4.8,0.9-7.7c-1.6-3-3.1-4.7-6.9-2.4C33.1,107.6,22.2,113.6,10.6,120.3z"/>
</g>
</svg>
