<!-- Generated by IcoMoon.io -->
<svg version="1.1" xmlns="http://www.w3.org/2000/svg" width="32" height="32" viewBox="0 0 32 32">
<title>QASH</title>
<path d="M16 0c-8.832 0-16 7.168-16 16s7.168 16 16 16 16-7.168 16-16-7.168-16-16-16zM31.182 15.351l-1.298 0.014v-0.536l1.298-0.014v0.536zM30.857 12.543l-1.284 0.183-0.071-0.536 1.284-0.183 0.071 0.536zM29.742 9.143l0.226 0.494-1.185 0.536-0.226-0.494 1.185-0.536zM28.134 6.674l0.353 0.409-0.974 0.861-0.353-0.409 0.974-0.861zM26.229 4.656l0.409 0.353-0.847 0.988-0.409-0.353 0.847-0.988zM23.972 2.822l0.451 0.296-0.705 1.086-0.451-0.296 0.705-1.086zM21.404 1.552l0.522 0.141-0.325 1.256-0.522-0.141 0.325-1.256zM18.568 0.847l0.536 0.042-0.113 1.298-0.536-0.042 0.113-1.298zM15.633 0.508h0.536v1.298h-0.536v-1.298zM13.235 0.847l0.113 1.298-0.536 0.042-0.113-1.284 0.536-0.056zM10.399 1.552l0.325 1.256-0.522 0.141-0.325-1.256 0.522-0.141zM7.831 2.822l0.705 1.086-0.451 0.296-0.705-1.086 0.452-0.296zM5.573 4.656l0.847 0.988-0.409 0.353-0.847-0.988 0.409-0.353zM3.668 6.674l0.974 0.861-0.353 0.409-0.974-0.861 0.353-0.409zM2.060 9.143l1.185 0.536-0.226 0.494-1.185-0.536 0.226-0.494zM1.016 12.007l1.284 0.183-0.071 0.536-1.284-0.183 0.071-0.536zM0.621 14.801l1.298 0.014v0.536l-1.298-0.014v-0.536zM0.734 17.848l1.284-0.127 0.056 0.536-1.284 0.127-0.056-0.536zM1.326 20.6l1.256-0.296 0.127 0.522-1.256 0.296-0.127-0.522zM2.737 23.887l-0.268-0.466 1.129-0.649 0.268 0.466-1.129 0.649zM4.571 26.201l-0.395-0.367 0.889-0.945 0.395 0.367-0.889 0.945zM6.646 28.049l-0.437-0.31 0.748-1.058 0.437 0.31-0.748 1.058zM9.072 29.658l-0.48-0.254 0.607-1.143 0.48 0.254-0.607 1.143zM11.753 30.688l-0.536-0.085 0.212-1.284 0.536 0.085-0.212 1.284zM14.081 31.125l-0.014-1.298h0.536l0.014 1.298h-0.536zM2.526 16c0-7.422 6.039-13.474 13.474-13.474s13.474 6.039 13.474 13.474-6.039 13.474-13.474 13.474-13.474-6.053-13.474-13.474zM17.058 31.252v0h-0.014l-0.113-1.284 0.536-0.056h0.014l0.113 1.284-0.536 0.056zM19.936 30.631l-0.226-1.27 0.536-0.099 0.226 1.27-0.536 0.099zM22.702 29.686l-0.437-1.213 0.508-0.183 0.437 1.213-0.508 0.183zM25.143 28.19l-0.804-1.016 0.423-0.339 0.804 1.016-0.423 0.339zM27.231 26.159l-0.931-0.903 0.381-0.395 0.931 0.903-0.381 0.395zM28.938 23.972l-1.044-0.762 0.325-0.437 1.044 0.762-0.325 0.437zM30.321 21.362l-1.227-0.423 0.183-0.508 1.227 0.423-0.183 0.508zM31.083 18.413l-1.298-0.056 0.028-0.536 1.298 0.056-0.028 0.536z"></path>
<path d="M21.136 22.885l-1.199-1.199c0.903-0.861 1.481-1.735 1.397-3.739-0.014-0.155 0.014-2.159 0.014-2.314s0-1.34 0-1.496c0-3.711-0.903-5.39-3.4-5.982-0.282-0.071-1.651-0.099-1.947-0.099h-0.127c-0.296 0-1.848 0.028-2.13 0.099-2.497 0.593-3.4 2.272-3.4 5.982 0 0.155 0 1.34 0 1.496s0.014 2.159 0.014 2.314c-0.169 3.711 1.947 4.854 4.233 4.783h2.526c0.677 0.028 1.326-0.099 1.919-0.395l0.917 0.931 0.409 0.409c0.226 0.226 0.578 0.226 0.804 0.014 0.198-0.226 0.198-0.578-0.028-0.804M17.27 21.531c-0.042 0-0.085 0-0.113 0h-2.624c-0.042 0-0.085 0-0.113 0-0.55 0-1.326-0.141-1.961-0.804-0.677-0.705-1.002-1.298-0.931-2.751 0-0.099 0-0.099 0-1.905 0-0.24 0-0.423 0-0.466 0-0.071 0-0.522 0-1.016 0-0.621 0-0.395 0-0.494 0-1.637 0.183-3.076 0.578-3.711 0.24-0.381 0.649-0.818 1.891-1.115 0.24-0.042 1.496-0.071 1.877-0.071h0.127c0.381 0 1.439 0.042 1.693 0.071 1.242 0.296 1.651 0.734 1.891 1.115 0.395 0.649 0.593 2.074 0.578 3.711 0 0.085 0-0.127 0 0.494 0 0.494 0 0.945 0 1.016 0 0.042 0 0.212 0 0.466-0.014 1.806-0.014 1.806 0 1.905 0.071 1.439-0.254 2.032-0.931 2.751-0.028 0.042-0.071 0.071-0.113 0.099l-0.72-0.734-0.409-0.409c-0.226-0.226-0.578-0.226-0.804-0.014-0.212 0.212-0.212 0.564 0.014 0.804l0.931 0.931c-0.282 0.085-0.564 0.127-0.861 0.127"></path>
</svg>
