<?xml version="1.0" encoding="utf-8"?>
<!-- Generator: Adobe Illustrator 22.0.1, SVG Export Plug-In . SVG Version: 6.00 Build 0)  -->
<svg version="1.1" id="Layer_1" xmlns="http://www.w3.org/2000/svg" xmlns:xlink="http://www.w3.org/1999/xlink" x="0px" y="0px"
	 viewBox="0 0 226.8 226.8" style="enable-background:new 0 0 226.8 226.8;" xml:space="preserve">
<style type="text/css">
	.st0{stroke:#FFFFFF;stroke-miterlimit:10;}
</style>
<g>
	<path class="st0" d="M113.4,0C50.8,0,0,50.8,0,113.4s50.8,113.4,113.4,113.4S226.8,176,226.8,113.4S176,0,113.4,0z M221,108.8
		l-9.2,0.1l0-3.8l9.2-0.1L221,108.8z M218.7,88.9l-9.1,1.3l-0.5-3.8l9.1-1.3L218.7,88.9z M210.8,64.8l1.6,3.5l-8.4,3.8l-1.6-3.5
		L210.8,64.8z M199.4,47.3l2.5,2.9l-6.9,6.1l-2.5-2.9L199.4,47.3z M185.9,33l2.9,2.5l-6,7l-2.9-2.5L185.9,33z M169.9,20l3.2,2.1
		l-5,7.7l-3.2-2.1L169.9,20z M151.7,11l3.7,1l-2.3,8.9l-3.7-1L151.7,11z M131.6,6l3.8,0.3l-0.8,9.2l-3.8-0.3L131.6,6z M110.8,3.6
		h3.8v9.2h-3.8V3.6z M93.8,6l0.8,9.2l-3.8,0.3L90,6.4L93.8,6z M73.7,11l2.3,8.9l-3.7,1L70,12L73.7,11z M55.5,20l5,7.7l-3.2,2.1
		l-5-7.7L55.5,20z M39.5,33l6,7l-2.9,2.5l-6-7L39.5,33z M26,47.3l6.9,6.1l-2.5,2.9l-6.9-6.1L26,47.3z M14.6,64.8l8.4,3.8l-1.6,3.5
		L13,68.3L14.6,64.8z M7.2,85.1l9.1,1.3l-0.5,3.8l-9.1-1.3L7.2,85.1z M4.4,104.9l9.2,0.1l0,3.8l-9.2-0.1L4.4,104.9z M5.2,126.5
		l9.1-0.9l0.4,3.8l-9.1,0.9L5.2,126.5z M9.4,146l8.9-2.1l0.9,3.7l-8.9,2.1L9.4,146z M19.4,169.3l-1.9-3.3l8-4.6l1.9,3.3L19.4,169.3z
		 M32.4,185.7l-2.8-2.6l6.3-6.7l2.8,2.6L32.4,185.7z M47.1,198.8l-3.1-2.2l5.3-7.5l3.1,2.2L47.1,198.8z M64.3,210.2l-3.4-1.8
		l4.3-8.1l3.4,1.8L64.3,210.2z M83.3,217.5l-3.8-0.6l1.5-9.1l3.8,0.6L83.3,217.5z M99.8,220.6l-0.1-9.2l3.8,0l0.1,9.2L99.8,220.6z
		 M17.9,113.4c0-52.6,42.8-95.5,95.5-95.5s95.5,42.8,95.5,95.5s-42.8,95.5-95.5,95.5S17.9,166,17.9,113.4z M120.9,221.5L120.9,221.5
		l-0.1,0l-0.8-9.1l3.8-0.4l0,0l0.1,0l0.8,9.1L120.9,221.5z M141.3,217.1l-1.6-9l3.8-0.7l1.6,9L141.3,217.1z M160.9,210.4l-3.1-8.6
		l3.6-1.3l3.1,8.6L160.9,210.4z M178.2,199.8l-5.7-7.2l3-2.4l5.7,7.2L178.2,199.8z M193,185.4l-6.6-6.4l2.7-2.8l6.6,6.4L193,185.4z
		 M205.1,169.9l-7.4-5.4l2.3-3.1l7.4,5.4L205.1,169.9z M214.9,151.4l-8.7-3l1.3-3.6l8.7,3L214.9,151.4z M220.3,130.5l-9.2-0.4
		l0.2-3.8l9.2,0.4L220.3,130.5z"/>
	<path class="st0" d="M149.8,162.2l-2.9-2.9l-5.6-5.6c6.4-6.1,10.5-12.3,9.9-26.5c-0.1-1.1,0.1-15.3,0.1-16.4s0-9.5,0-10.6
		c0-26.3-6.4-38.2-24.1-42.4c-2-0.5-11.7-0.7-13.8-0.7h-0.9c-2.1,0-13.1,0.2-15.1,0.7c-17.7,4.2-24.1,16.1-24.1,42.4
		c0,1.1,0,9.5,0,10.6c0,1.1,0.1,15.3,0.1,16.4c-1.2,26.3,13.8,34.4,30,33.9h17.9c4.8,0.2,9.4-0.7,13.6-2.8l6.5,6.6l2.9,2.9v0
		c1.6,1.6,4.1,1.6,5.7,0.1C151.4,166.3,151.4,163.8,149.8,162.2 M122.4,152.6c-0.3,0-0.6,0-0.8,0l-0.2,0h-18.2l-0.2,0
		c-0.3,0-0.6,0-0.8,0c-3.9,0-9.4-1-13.9-5.7c-4.8-5-7.1-9.2-6.6-19.5c0-0.7,0-0.7,0-13.5c0-1.7,0-3,0-3.3c0-0.5,0-3.7,0-7.2
		c0-4.4,0-2.8,0-3.5c0-11.6,1.3-21.8,4.1-26.3c1.7-2.7,4.6-5.8,13.4-7.9c1.7-0.3,10.6-0.5,13.3-0.5h0.9c2.7,0,10.2,0.3,12,0.5
		c8.8,2.1,11.7,5.2,13.4,7.9c2.8,4.6,4.2,14.7,4.1,26.3c0,0.6,0-0.9,0,3.5c0,3.5,0,6.7,0,7.2c0,0.3,0,1.5,0,3.3
		c-0.1,12.8-0.1,12.8,0,13.5c0.5,10.2-1.8,14.4-6.6,19.5c-0.2,0.3-0.5,0.5-0.8,0.7l-5.1-5.2l-2.9-2.9c-1.6-1.6-4.1-1.6-5.7-0.1
		c-1.5,1.5-1.5,4,0.1,5.7l2.9,2.9l3.7,3.7C126.5,152.3,124.5,152.6,122.4,152.6"/>
</g>
</svg>
