<?xml version="1.0" encoding="utf-8"?>
<!-- Generator: Adobe Illustrator 22.1.0, SVG Export Plug-In . SVG Version: 6.00 Build 0)  -->
<svg version="1.1" id="Layer_1" xmlns="http://www.w3.org/2000/svg" xmlns:xlink="http://www.w3.org/1999/xlink" x="0px" y="0px"
	 viewBox="0 0 226.8 226.8" style="enable-background:new 0 0 226.8 226.8;" xml:space="preserve">
<g>
	<path d="M159,92.4c-0.4-3.1-0.7-5.5-1.1-7.8c-1.2-7.2-5-10.8-12.3-11.6c-3.6-0.4-7.3-0.6-10.9-0.6c-15.4-0.1-30.7-0.1-46.1,0
		c-3.1,0-6.3,0.3-9.4,0.7c-7.6,0.9-12,5-12.3,12.9c-0.5,12.3-0.2,24.6,0,37c0,2.5,1.3,5.1,2.1,8.3c-5,0.7-10,1.5-15,2
		c-3.9,0.3-7.8,0.1-11.7,0.2c-2.6,0.1-3.9-1.1-4.1-3.7c-0.2-2.5-0.7-5-0.7-7.5c-0.2-15.5-1.6-31,1.3-46.3
		c3.1-16.3,13.7-25.6,30.9-28c6.2-0.8,12.5-1.3,18.8-1.4c16.9-0.2,33.7-0.4,50.6,0.1c7.7,0.2,15.6,1.2,23.1,2.9
		c9.6,2.2,17.1,7.8,21.1,17.2c0.5,1.1,0.7,3,0.1,3.8C176.6,78.9,168.4,85.9,159,92.4z"/>
	<path d="M12.1,116.8c-2.3,15.8,6.3,21.5,17.4,24.5c3.9,1,7.9,1.5,11.9,1.7c19.3,1,37.8-3,56-9c28.2-9.3,54.5-22.3,77.6-41.2
		c8-6.6,15.6-13.6,20.9-22.6c2.2-3.7,4.2-7.8,5.3-12c2.4-9-1-16-9.3-20.5c-1.3-0.7-2.6-1.3-3.8-2.3c10.9-0.6,21.6,0.1,31.1,6.1
		c6.3,4,8.9,11.2,7,18.9c-2.4,9.7-8.3,17.5-15,24.6c-18.8,19.9-41.6,34.1-65.8,46.2c-26.9,13.5-55,23.8-84.8,28.8
		c-13.7,2.3-27.5,3.4-41.3,0.5c-2.4-0.5-4.9-1.3-7.2-2.3c-10.8-4.8-14.5-13.2-10.7-24.3C3.7,127.3,7.4,121.7,12.1,116.8z"/>
	<path d="M186.9,118.4c4.2,19.3-8.1,36.2-31,42.8c0.8,1.2,1.4,2.3,2.2,3.4c4.7,6.4,9.6,12.7,14.1,19.2c1.1,1.6,1.8,4.2,1.3,5.7
		c-0.4,1.2-3.2,2-5,2.1c-6.5,0.2-13.1,0-19.6,0.1c-3.4,0.1-5.7-1.2-7.6-4c-5.2-7.6-10.7-15-15.9-22.5c-1.5-2.2-3.2-3.2-5.9-3.1
		c-7.2,0.2-14.3,0.1-21.6-0.4C129.4,151,159.2,137,186.9,118.4z"/>
</g>
</svg>
