<!-- Generated by IcoMoon.io -->
<svg version="1.1" xmlns="http://www.w3.org/2000/svg" width="32" height="32" viewBox="0 0 32 32">
<title>QAU1</title>
<path d="M22.434 13.037c-0.056-0.437-0.099-0.776-0.155-1.101-0.169-1.016-0.705-1.524-1.735-1.637-0.508-0.056-1.030-0.085-1.538-0.085-2.173-0.014-4.332-0.014-6.504 0-0.437 0-0.889 0.042-1.326 0.099-1.072 0.127-1.693 0.705-1.735 1.82-0.071 1.735-0.028 3.471 0 5.22 0 0.353 0.183 0.72 0.296 1.171-0.705 0.099-1.411 0.212-2.116 0.282-0.55 0.042-1.101 0.014-1.651 0.028-0.367 0.014-0.55-0.155-0.578-0.522-0.028-0.353-0.099-0.705-0.099-1.058-0.028-2.187-0.226-4.374 0.183-6.533 0.437-2.3 1.933-3.612 4.36-3.951 0.875-0.113 1.764-0.183 2.653-0.198 2.384-0.028 4.755-0.056 7.139 0.014 1.086 0.028 2.201 0.169 3.259 0.409 1.355 0.31 2.413 1.101 2.977 2.427 0.071 0.155 0.099 0.423 0.014 0.536-0.959 1.171-2.116 2.159-3.443 3.076z"></path>
<path d="M1.707 16.48c-0.325 2.229 0.889 3.034 2.455 3.457 0.55 0.141 1.115 0.212 1.679 0.24 2.723 0.141 5.333-0.423 7.901-1.27 3.979-1.312 7.69-3.146 10.949-5.813 1.129-0.931 2.201-1.919 2.949-3.189 0.31-0.522 0.593-1.101 0.748-1.693 0.339-1.27-0.141-2.258-1.312-2.892-0.183-0.099-0.367-0.183-0.536-0.325 1.538-0.085 3.048 0.014 4.388 0.861 0.889 0.564 1.256 1.58 0.988 2.667-0.339 1.369-1.171 2.469-2.116 3.471-2.653 2.808-5.869 4.811-9.284 6.519-3.795 1.905-7.76 3.358-11.965 4.064-1.933 0.325-3.88 0.48-5.827 0.071-0.339-0.071-0.691-0.183-1.016-0.325-1.524-0.677-2.046-1.862-1.51-3.429 0.325-0.931 0.847-1.721 1.51-2.413z"></path>
<path d="M26.37 16.705c0.593 2.723-1.143 5.108-4.374 6.039 0.113 0.169 0.198 0.325 0.31 0.48 0.663 0.903 1.355 1.792 1.989 2.709 0.155 0.226 0.254 0.593 0.183 0.804-0.056 0.169-0.451 0.282-0.705 0.296-0.917 0.028-1.848 0-2.765 0.014-0.48 0.014-0.804-0.169-1.072-0.564-0.734-1.072-1.51-2.116-2.243-3.175-0.212-0.31-0.451-0.451-0.832-0.437-1.016 0.028-2.018 0.014-3.048-0.056 4.444-1.51 8.649-3.485 12.557-6.109z"></path>
</svg>
