<!-- Generated by IcoMoon.io -->
<svg version="1.1" xmlns="http://www.w3.org/2000/svg" width="32" height="32" viewBox="0 0 32 32">
<title>QBT</title>
<path d="M0 16.861c0-1.171 0-2.342 0-3.513 0.085-0.31 0.198-0.607 0.254-0.917 0.381-2.088 1.199-3.979 2.483-5.658 3.443-4.459 8-6.236 13.517-5.474 3.386 0.466 6.152 2.159 8.367 4.741 2.116 2.455 3.146 5.347 3.316 8.55 0.028 0.564-0.071 0.635-0.663 0.522-0.127-0.028-0.254-0.071-0.395-0.099-2.836-0.578-5.362 0.056-7.478 2.046-2.949 2.78-3.414 6.829-1.27 10.455 0.409 0.691 0.409 0.762-0.353 0.974-1.834 0.522-3.711 0.705-5.616 0.395-5.559-0.875-9.369-3.936-11.372-9.199-0.325-0.903-0.522-1.877-0.79-2.822z"></path>
<path d="M32 24.381c-0.113 0.296-0.226 0.593-0.339 0.889-1.171 3.287-4.487 5.235-7.845 4.614-3.4-0.621-5.827-3.598-5.757-7.041 0.085-3.372 2.596-6.18 6.039-6.73 3.118-0.494 6.363 1.467 7.478 4.501 0.127 0.353 0.282 0.691 0.423 1.030 0 0.917 0 1.82 0 2.737z"></path>
</svg>
