<?xml version="1.0" encoding="utf-8"?>
<!-- Generator: Adobe Illustrator 22.1.0, SVG Export Plug-In . SVG Version: 6.00 Build 0)  -->
<svg version="1.1" id="Layer_1" xmlns="http://www.w3.org/2000/svg" xmlns:xlink="http://www.w3.org/1999/xlink" x="0px" y="0px"
	 viewBox="0 0 226.8 226.8" style="enable-background:new 0 0 226.8 226.8;" xml:space="preserve">
<g>
	<path d="M0,119.5c0-8.3,0-16.6,0-24.9c0.6-2.2,1.4-4.3,1.8-6.5c2.7-14.8,8.5-28.2,17.6-40.1C43.8,16.4,76.1,3.8,115.2,9.2
		c24,3.3,43.6,15.3,59.3,33.6c15,17.4,22.3,37.9,23.5,60.6c0.2,4-0.5,4.5-4.7,3.7c-0.9-0.2-1.8-0.5-2.8-0.7
		c-20.1-4.1-38,0.4-53,14.5c-20.9,19.7-24.2,48.4-9,74.1c2.9,4.9,2.9,5.4-2.5,6.9c-13,3.7-26.3,5-39.8,2.8
		c-39.4-6.2-66.4-27.9-80.6-65.2C3.3,133.1,1.9,126.2,0,119.5z"/>
	<path d="M226.8,172.8c-0.8,2.1-1.6,4.2-2.4,6.3c-8.3,23.3-31.8,37.1-55.6,32.7c-24.1-4.4-41.3-25.5-40.8-49.9
		c0.6-23.9,18.4-43.8,42.8-47.7c22.1-3.5,45.1,10.4,53,31.9c0.9,2.5,2,4.9,3,7.3C226.8,159.9,226.8,166.3,226.8,172.8z"/>
</g>
</svg>
