<!-- Generated by IcoMoon.io -->
<svg version="1.1" xmlns="http://www.w3.org/2000/svg" width="32" height="32" viewBox="0 0 32 32">
<title>QCP_CAPITAL</title>
<path d="M10.159 15.351c0.437 0.395 0.861 0.776 1.326 1.199-0.282 0.31-0.564 0.621-0.875 0.959-0.494-0.437-0.931-0.818-1.397-1.227-1.51 1.030-3.132 1.34-4.896 0.875-1.228-0.325-2.201-1.044-2.921-2.074-1.552-2.258-1.27-5.418 0.663-7.323 1.848-1.806 4.952-2.046 7.069-0.508 1.284 0.931 1.989 2.243 2.187 3.795 0.212 1.566-0.226 2.977-1.157 4.303zM9.058 14.42c1.397-1.524 1.143-4.374-0.48-5.898-1.538-1.439-4.148-1.369-5.616 0.155-1.623 1.707-1.58 4.698 0.113 6.321 1.411 1.354 3.866 1.524 5.051 0.325-0.607-0.536-1.199-1.072-1.848-1.651 0.339-0.353 0.607-0.635 0.889-0.931 0.677 0.593 1.284 1.143 1.891 1.679z"></path>
<path d="M24.677 7.52c1.594 0 3.104-0.113 4.586 0.028 1.623 0.155 2.624 1.355 2.681 2.864 0.071 1.538-0.818 2.737-2.384 3.16-0.466 0.127-0.974 0.169-1.467 0.183-0.705 0.028-1.397 0.014-2.229 0.014 0 0.607-0.014 1.157-0.014 1.707 0 0.536 0 1.072 0 1.651-0.451 0-0.79 0-1.185 0 0.014-3.231 0.014-6.406 0.014-9.608zM25.905 12.586c1.072 0 2.060 0.014 3.034-0.014 0.24 0 0.508-0.127 0.734-0.254 0.762-0.409 1.101-1.044 1.044-1.919-0.056-0.861-0.522-1.411-1.312-1.651-1.143-0.367-2.314-0.169-3.499-0.183 0 1.383 0 2.667 0 4.021z"></path>
<path d="M22.335 8.917c-0.226 0.254-0.451 0.508-0.734 0.804-1.086-0.945-2.258-1.524-3.683-1.256-0.861 0.155-1.58 0.578-2.145 1.27-1.213 1.51-1.171 3.81 0.113 5.277 0.762 0.861 1.735 1.256 2.892 1.213 1.143-0.028 2.046-0.621 2.907-1.425 0.268 0.282 0.494 0.508 0.705 0.734-1.058 1.524-3.344 2.187-5.319 1.608-1.975-0.593-3.316-2.441-3.4-4.543-0.113-2.723 1.566-4.444 3.231-5.037 1.764-0.649 4.233-0.24 5.432 1.354z"></path>
<path d="M11.457 19.386c0.762 0 1.439-0.042 2.116 0.014 0.945 0.085 1.496 0.705 1.496 1.552s-0.536 1.439-1.481 1.566c-0.466 0.071-0.931 0.071-1.467 0.113-0.014 0.268-0.042 0.508-0.042 0.762-0.014 0.226 0 0.466 0 0.762-0.198 0.042-0.367 0.071-0.607 0.113-0.014-1.637-0.014-3.217-0.014-4.882zM12.078 22.011c0.578-0.042 1.086-0.028 1.58-0.113s0.776-0.494 0.762-0.959c-0.014-0.451-0.254-0.818-0.748-0.889-0.522-0.071-1.044-0.014-1.594-0.014 0 0.649 0 1.227 0 1.975z"></path>
<path d="M27.556 24.212c-0.282 0.014-0.451 0.028-0.635 0.042-0.198-0.409-0.381-0.79-0.593-1.213-0.818 0-1.665 0-2.469 0-0.268 0.423-0.494 0.818-0.762 1.185-0.042 0.056-0.254-0.014-0.494-0.028 0.748-1.651 1.453-3.217 2.131-4.741 0.339-0.169 0.593-0.169 0.72 0.127 0.705 1.51 1.383 3.019 2.102 4.628zM24.071 22.363c0.734 0 1.312 0 1.989 0-0.325-0.748-0.621-1.411-0.974-2.229-0.381 0.832-0.691 1.496-1.016 2.229z"></path>
<path d="M7.506 19.443c0.381-0.155 0.607-0.099 0.734 0.198 0.677 1.481 1.354 2.977 2.032 4.487-0.466 0.268-0.649 0.071-0.804-0.282-0.113-0.282-0.254-0.55-0.367-0.818-0.861 0-1.679 0-2.399 0-0.578 0.31-0.325 1.312-1.369 1.199 0.762-1.651 1.467-3.217 2.173-4.783zM8.832 22.406c-0.353-0.776-0.649-1.439-1.016-2.243-0.381 0.832-0.677 1.496-1.016 2.243 0.734 0 1.312 0 2.032 0z"></path>
<path d="M4.43 23.069c0.099 0.099 0.183 0.198 0.212 0.226-0.042 0.466-0.861 0.959-1.524 1.030-1.171 0.141-2.229-0.48-2.638-1.566-0.423-1.129-0.028-2.413 0.931-3.062 0.945-0.649 2.511-0.508 3.203 0.395-0.085 0.127-0.183 0.254-0.268 0.381-1.467-0.748-2.328-0.72-2.963 0.099-0.578 0.748-0.536 1.919 0.099 2.596 0.691 0.762 1.552 0.762 2.949-0.099z"></path>
<path d="M21.813 19.4c0.014 0.183 0.028 0.325 0.042 0.536-0.522 0.028-1.002 0.056-1.58 0.085 0 1.397 0 2.765 0 4.176-0.24 0.014-0.395 0.028-0.635 0.042 0-1.425 0-2.794 0-4.219-0.55-0.028-1.002-0.042-1.538-0.071-0.014-0.169-0.028-0.339-0.042-0.55 1.284 0 2.497 0 3.753 0z"></path>
<path d="M28.684 19.429c0.198 0 0.339 0 0.578 0 0 1.411 0 2.794 0 4.247 0.917 0 1.75 0 2.554 0 0.155 0.367 0.085 0.578-0.226 0.578-0.959 0.014-1.919 0-2.921 0 0.014-1.637 0.014-3.217 0.014-4.825z"></path>
<path d="M16.268 24.198c0-1.594 0-3.146 0-4.755 0.183-0.014 0.353-0.028 0.564-0.042 0 1.623 0 3.189 0 4.797-0.198 0-0.367 0-0.564 0z"></path>
</svg>
