<!-- Generated by IcoMoon.io -->
<svg version="1.1" xmlns="http://www.w3.org/2000/svg" width="32" height="32" viewBox="0 0 32 32">
<title>QKC</title>
<path d="M0 16.183c0-3.414 0-6.829 0-10.258 0-0.169 0-0.353 0-0.522 0.014-0.748 0.282-1.157 0.861-1.354 0.691-0.24 1.425-0.028 1.834 0.522 2.455 3.146 4.896 6.279 7.351 9.411 0.367 0.466 0.395 0.466 0.748 0 1.27-1.623 2.54-3.245 3.795-4.854 0.72-0.931 1.947-0.945 2.681-0.028 1.27 1.594 2.511 3.217 3.767 4.825 0.395 0.508 0.423 0.508 0.804 0.014 2.455-3.132 4.91-6.265 7.365-9.411 0.395-0.508 1.143-0.705 1.82-0.48 0.593 0.198 0.875 0.621 0.875 1.383 0 4.614-0.014 9.242-0.028 13.855 0 2.554 0 5.093-0.014 7.647 0 0.705-0.282 1.115-0.847 1.312-0.649 0.226-1.397 0.014-1.778-0.466-1.312-1.693-2.624-3.386-3.936-5.079-1.143-1.467-2.286-2.921-3.443-4.374-0.381-0.48-0.395-0.48-0.776 0.014-1.256 1.594-2.54 3.16-3.739 4.797-0.776 1.044-2.215 0.832-2.822 0-1.213-1.665-2.511-3.259-3.781-4.868-0.339-0.423-0.353-0.423-0.691 0-2.314 2.949-4.642 5.884-6.956 8.832-0.127 0.155-0.226 0.339-0.339 0.508-0.423 0.635-1.242 0.903-1.947 0.607-0.536-0.226-0.776-0.649-0.776-1.227 0-2.116 0-4.233-0.014-6.335 0-1.496 0-2.977 0-4.473 0.014 0 0 0-0.014 0zM29.023 16.254c0 0-0.014 0 0 0-0.014-2.37-0.014-4.741-0.014-7.125 0-0.155-0.099-0.296-0.155-0.451-0.113 0.085-0.254 0.141-0.325 0.24-1.82 2.314-3.626 4.628-5.446 6.928-0.198 0.254-0.198 0.423 0 0.677 1.552 1.975 3.104 3.965 4.656 5.954 0.282 0.353 0.55 0.705 0.847 1.044 0.071 0.085 0.212 0.113 0.31 0.183 0.042-0.113 0.113-0.226 0.141-0.339 0.014-0.071 0-0.141 0-0.212-0.014-2.3-0.014-4.6-0.014-6.899zM2.907 16.155c0 0-0.014 0-0.014 0 0 2.356 0 4.713 0 7.083 0 0.155 0.085 0.31 0.127 0.466 0.127-0.085 0.296-0.141 0.395-0.268 1.806-2.3 3.598-4.614 5.404-6.899 0.212-0.268 0.198-0.451 0-0.72-1.199-1.524-2.399-3.048-3.584-4.571-0.607-0.79-1.228-1.58-1.848-2.356-0.071-0.099-0.226-0.127-0.339-0.198-0.042 0.113-0.099 0.226-0.127 0.353-0.014 0.085 0 0.169 0 0.254-0.014 2.286-0.014 4.571-0.014 6.857zM15.958 21.108c0.268-0.212 0.522-0.353 0.691-0.564 1.058-1.326 2.088-2.667 3.146-3.979 0.24-0.31 0.254-0.522 0-0.832-1.058-1.312-2.088-2.638-3.118-3.951-0.494-0.621-0.988-0.635-1.496-0.014-1.072 1.354-2.13 2.709-3.203 4.064-0.169 0.226-0.183 0.395-0.014 0.621 1.101 1.397 2.201 2.808 3.302 4.19 0.183 0.183 0.437 0.296 0.691 0.466z"></path>
</svg>
