<?xml version="1.0" encoding="utf-8"?>
<!-- Generator: Adobe Illustrator 22.1.0, SVG Export Plug-In . SVG Version: 6.00 Build 0)  -->
<svg version="1.1" id="Layer_1" xmlns="http://www.w3.org/2000/svg" xmlns:xlink="http://www.w3.org/1999/xlink" x="0px" y="0px"
	 viewBox="0 0 226.8 226.8" style="enable-background:new 0 0 226.8 226.8;" xml:space="preserve">
<g>
	<path d="M0,114.7c0-24.2,0-48.4,0-72.7c0-1.2,0-2.5,0-3.7c0.1-5.3,2-8.2,6.1-9.6c4.9-1.7,10.1-0.2,13,3.7
		c17.4,22.3,34.7,44.5,52.1,66.7c2.6,3.3,2.8,3.3,5.3,0c9-11.5,18-23,26.9-34.4c5.1-6.6,13.8-6.7,19-0.2c9,11.3,17.8,22.8,26.7,34.2
		c2.8,3.6,3,3.6,5.7,0.1c17.4-22.2,34.8-44.4,52.2-66.7c2.8-3.6,8.1-5,12.9-3.4c4.2,1.4,6.2,4.4,6.2,9.8c0,32.7-0.1,65.5-0.2,98.2
		c0,18.1,0,36.1-0.1,54.2c0,5-2,7.9-6,9.3c-4.6,1.6-9.9,0.1-12.6-3.3c-9.3-12-18.6-24-27.9-36c-8.1-10.4-16.2-20.7-24.4-31
		c-2.7-3.4-2.8-3.4-5.5,0.1c-8.9,11.3-18,22.4-26.5,34c-5.5,7.4-15.7,5.9-20,0c-8.6-11.8-17.8-23.1-26.8-34.5c-2.4-3-2.5-3-4.9,0
		c-16.4,20.9-32.9,41.7-49.3,62.6c-0.9,1.1-1.6,2.4-2.4,3.6c-3,4.5-8.8,6.4-13.8,4.3c-3.8-1.6-5.5-4.6-5.5-8.7c0-15,0-30-0.1-44.9
		c0-10.6,0-21.1,0-31.7C0.2,114.7,0.1,114.7,0,114.7z M205.7,115.2C205.7,115.2,205.6,115.2,205.7,115.2
		c-0.1-16.8-0.1-33.6-0.1-50.5c0-1.1-0.7-2.1-1.1-3.2c-0.8,0.6-1.8,1-2.3,1.7c-12.9,16.4-25.7,32.8-38.6,49.1c-1.4,1.8-1.4,3,0,4.8
		c11,14,22,28.1,33,42.2c2,2.5,3.9,5,6,7.4c0.5,0.6,1.5,0.8,2.2,1.3c0.3-0.8,0.8-1.6,1-2.4c0.1-0.5,0-1,0-1.5
		C205.7,147.8,205.7,131.5,205.7,115.2z M20.6,114.5c0,0-0.1,0-0.1,0c0,16.7,0,33.4,0,50.2c0,1.1,0.6,2.2,0.9,3.3
		c0.9-0.6,2.1-1,2.8-1.9c12.8-16.3,25.5-32.7,38.3-48.9c1.5-1.9,1.4-3.2,0-5.1c-8.5-10.8-17-21.6-25.4-32.4
		C32.8,74.1,28.4,68.5,24,63c-0.5-0.7-1.6-0.9-2.4-1.4c-0.3,0.8-0.7,1.6-0.9,2.5c-0.1,0.6,0,1.2,0,1.8
		C20.6,82.1,20.6,98.3,20.6,114.5z M113.1,149.6c1.9-1.5,3.7-2.5,4.9-4c7.5-9.4,14.8-18.9,22.3-28.2c1.7-2.2,1.8-3.7,0-5.9
		c-7.5-9.3-14.8-18.7-22.1-28c-3.5-4.4-7-4.5-10.6-0.1c-7.6,9.6-15.1,19.2-22.7,28.8c-1.2,1.6-1.3,2.8-0.1,4.4
		c7.8,9.9,15.6,19.9,23.4,29.7C109.5,147.6,111.3,148.4,113.1,149.6z"/>
</g>
</svg>
