<?xml version="1.0" encoding="utf-8"?>
<!-- Generator: Adobe Illustrator 22.1.0, SVG Export Plug-In . SVG Version: 6.00 Build 0)  -->
<svg version="1.1" id="Layer_1" xmlns="http://www.w3.org/2000/svg" xmlns:xlink="http://www.w3.org/1999/xlink" x="0px" y="0px"
	 viewBox="0 0 226.8 226.8" style="enable-background:new 0 0 226.8 226.8;" xml:space="preserve">
<g>
	<path d="M116.7,0.1c13.9,0.5,27.3,3.3,40.1,8.7c21.2,8.8,38.3,22.7,50.9,41.9c11.3,17.2,17.7,36.2,18.6,56.9
		c0.1,1.8,0.3,3.6,0.3,5.3c0,5.8-3.6,9.8-9,9.9c-5.4,0.1-9.1-3.6-9.6-9.3c-0.6-6.3-1-12.7-2.2-18.9c-2.9-15.6-9.7-29.4-19.9-41.7
		c-8.8-10.7-19.6-18.9-32.1-24.8c-10.4-4.9-21.3-8-32.9-8.6c-3.1-0.2-6.1-0.4-9.2-0.9c-3.8-0.6-6.5-2.7-7.5-6.4
		c-1.1-3.7-0.4-7.3,2.8-9.7c1.6-1.3,4-1.8,6-2.4C114.2-0.2,115.4,0.1,116.7,0.1z"/>
	<path d="M110.1,226.8c-14.9-0.4-28-3.3-40.7-8.7c-11.8-5-22.4-11.8-32-20.4c-12.3-11-21.8-24-28.4-39.2
		c-5.6-12.8-8.1-26.3-8.9-40.1c-0.1-1.8-0.3-3.6-0.3-5.3c0.1-4.8,3.7-8.5,8.5-8.8c5-0.3,9,2.6,9.6,7.5c0.6,4.7,0.7,9.4,1.3,14.1
		c1.7,13.7,6.3,26.4,13.7,38.1c9.4,15,22.1,26.4,37.9,34.4c11.4,5.8,23.6,8.8,36.4,9.5c2.4,0.1,4.8,0.4,7.2,0.8
		c4.4,0.7,7.5,3.9,7.9,7.9c0.4,4.3-1.6,8.2-5.4,9.4C114.4,226.6,111.6,226.6,110.1,226.8z"/>
	<path d="M71.9,114.8c0.1-25.7,20.8-44.7,45.2-42.6c20.9,1.8,37.8,20.3,37.4,40.9c-0.1,4-1.8,7-5.4,8.8c-3.5,1.7-6.8,1.1-9.8-1.2
		c-2.6-2-3.4-4.9-3.5-8c-0.2-4.8-1.7-9.1-4.6-12.9c-6.9-9.1-20.3-11.7-29.6-5.8c-10.4,6.6-14,19.6-8.2,30.1c3.9,7.1,10,10.9,18,11.8
		c2.5,0.3,5.1,0.8,7.3,2.1c3.4,1.9,4.6,6.3,3.4,10.2c-1.2,3.8-4.6,6.4-8.9,6.5c-10.2,0.3-19.1-3.3-26.7-9.8
		C77,136.7,72.1,126.2,71.9,114.8z"/>
	<path d="M115.4,35.8c19.2,0.6,36,7.4,50.2,20.3c10.7,9.7,18,21.5,22.1,35.2c2.2,7.6,3.7,15.4,2.9,23.4c-0.5,4.8-4.1,8-8.9,8
		c-4.8,0-8.6-3.1-9.2-7.8c-0.5-3.9-0.4-7.9-1.1-11.7c-2.5-13.7-9.2-25.1-19.4-34.4c-10.7-9.7-23.7-13.6-37.8-14.3
		c-5.2-0.3-8.8-2.9-9.9-7.1c-1.6-6.2,2.5-11.3,9.5-11.7C114.2,35.8,114.8,35.8,115.4,35.8z"/>
	<path d="M111.4,191c-18.7-0.5-35.6-6.7-50-19.7c-7.5-6.8-13.7-14.7-18.2-23.8c-4.5-9.1-7-18.8-7.5-29c-0.1-2.2-0.4-4.5-0.1-6.6
		c0.6-4.5,4.8-7.8,9.4-7.7c4.9,0.2,8.4,3.7,9,8.9c0.5,5,0.8,10,2,14.8c5.7,24.4,27.3,42.6,52.4,44.4c2.5,0.2,5,0.3,7.4,1
		c4.9,1.4,7.2,5.2,6.5,10.1c-0.7,4.7-4.3,7.7-9.3,7.7C112.7,191,112.3,191,111.4,191z"/>
	<path d="M154.6,144.6c-0.3,7.5-6.8,12.2-12.8,9.6c-1.5-0.7-2.9-1.9-4.1-3c-4.3-4.3-8.6-8.5-12.7-13c-3.4-3.7-3-9.1,0.6-12.5
		c3.8-3.6,9.1-3.7,12.8,0c4.5,4.4,8.9,8.9,13.3,13.3C153.4,140.7,154.3,142.8,154.6,144.6z"/>
</g>
</svg>
