<!-- Generated by IcoMoon.io -->
<svg version="1.1" xmlns="http://www.w3.org/2000/svg" width="32" height="32" viewBox="0 0 32 32">
<title>QLC</title>
<path d="M16.466 0.014c1.961 0.071 3.852 0.466 5.658 1.228 2.991 1.242 5.404 3.203 7.182 5.912 1.594 2.427 2.497 5.108 2.624 8.028 0.014 0.254 0.042 0.508 0.042 0.748 0 0.818-0.508 1.383-1.27 1.397s-1.284-0.508-1.355-1.312c-0.085-0.889-0.141-1.792-0.31-2.667-0.409-2.201-1.369-4.148-2.808-5.884-1.242-1.51-2.765-2.667-4.529-3.499-1.467-0.691-3.005-1.129-4.642-1.213-0.437-0.028-0.861-0.056-1.298-0.127-0.536-0.085-0.917-0.381-1.058-0.903-0.155-0.522-0.056-1.030 0.395-1.369 0.226-0.183 0.564-0.254 0.847-0.339 0.169-0.042 0.339 0 0.522 0z"></path>
<path d="M15.534 32c-2.102-0.056-3.951-0.466-5.742-1.227-1.665-0.705-3.16-1.665-4.515-2.878-1.735-1.552-3.076-3.386-4.007-5.531-0.79-1.806-1.143-3.711-1.256-5.658-0.014-0.254-0.042-0.508-0.042-0.748 0.014-0.677 0.522-1.199 1.199-1.242 0.705-0.042 1.27 0.367 1.354 1.058 0.085 0.663 0.099 1.326 0.183 1.989 0.24 1.933 0.889 3.725 1.933 5.376 1.326 2.116 3.118 3.725 5.347 4.854 1.608 0.818 3.33 1.242 5.136 1.34 0.339 0.014 0.677 0.056 1.016 0.113 0.621 0.099 1.058 0.55 1.115 1.115 0.056 0.607-0.226 1.157-0.762 1.326-0.353 0.085-0.748 0.085-0.959 0.113z"></path>
<path d="M10.145 16.198c0.014-3.626 2.935-6.307 6.377-6.011 2.949 0.254 5.333 2.864 5.277 5.771-0.014 0.564-0.254 0.988-0.762 1.242-0.494 0.24-0.959 0.155-1.383-0.169-0.367-0.282-0.48-0.691-0.494-1.129-0.028-0.677-0.24-1.284-0.649-1.82-0.974-1.284-2.864-1.651-4.176-0.818-1.467 0.931-1.975 2.765-1.157 4.247 0.55 1.002 1.411 1.538 2.54 1.665 0.353 0.042 0.72 0.113 1.030 0.296 0.48 0.268 0.649 0.889 0.48 1.439-0.169 0.536-0.649 0.903-1.256 0.917-1.439 0.042-2.695-0.466-3.767-1.383-1.34-1.157-2.032-2.638-2.060-4.247z"></path>
<path d="M16.282 5.051c2.709 0.085 5.079 1.044 7.083 2.864 1.51 1.369 2.54 3.034 3.118 4.966 0.31 1.072 0.522 2.173 0.409 3.302-0.071 0.677-0.578 1.129-1.256 1.129s-1.213-0.437-1.298-1.101c-0.071-0.55-0.056-1.115-0.155-1.651-0.353-1.933-1.298-3.541-2.737-4.854-1.51-1.369-3.344-1.919-5.333-2.018-0.734-0.042-1.242-0.409-1.397-1.002-0.226-0.875 0.353-1.594 1.34-1.651 0.056 0.014 0.141 0.014 0.226 0.014z"></path>
<path d="M15.718 26.949c-2.638-0.071-5.023-0.945-7.055-2.78-1.058-0.959-1.933-2.074-2.568-3.358s-0.988-2.653-1.058-4.092c-0.014-0.31-0.056-0.635-0.014-0.931 0.085-0.635 0.677-1.101 1.326-1.086 0.691 0.028 1.185 0.522 1.27 1.256 0.071 0.705 0.113 1.411 0.282 2.088 0.804 3.443 3.852 6.011 7.393 6.265 0.353 0.028 0.705 0.042 1.044 0.141 0.691 0.198 1.016 0.734 0.917 1.425-0.099 0.663-0.607 1.086-1.312 1.086-0.042-0.014-0.099-0.014-0.226-0.014z"></path>
<path d="M21.813 20.402c-0.042 1.058-0.959 1.721-1.806 1.355-0.212-0.099-0.409-0.268-0.578-0.423-0.607-0.607-1.213-1.199-1.792-1.834-0.48-0.522-0.423-1.284 0.085-1.764 0.536-0.508 1.284-0.522 1.806 0 0.635 0.621 1.256 1.256 1.877 1.877 0.24 0.24 0.367 0.536 0.409 0.79z"></path>
</svg>
