<!-- Generated by IcoMoon.io -->
<svg version="1.1" xmlns="http://www.w3.org/2000/svg" width="32" height="32" viewBox="0 0 32 32">
<title>QRK</title>
<path d="M16.003-0.002c-8.839 0-16.003 7.163-16.003 15.999s7.164 16.003 16.003 16.003c8.835 0 16-7.167 16-16.003s-7.165-15.999-15.999-15.999zM16.003 29.781c-7.613 0-13.783-6.174-13.783-13.785s6.17-13.78 13.783-13.78c7.609 0 13.781 6.169 13.781 13.78s-6.172 13.785-13.781 13.785z"></path>
<path d="M25.908 10.279c-1.146-1.987-3.688-2.668-5.676-1.521-0.451 0.261-0.831 0.596-1.142 0.978-0.001-0-0.002-0-0.002-0.001-0.681 0.974-1.809 1.613-3.087 1.613-1.279 0-2.406-0.639-3.087-1.613-0.001 0.001-0.003 0.001-0.004 0.002-0.311-0.382-0.69-0.717-1.142-0.977-1.987-1.147-4.528-0.467-5.676 1.521s-0.466 4.528 1.521 5.675c0.427 0.246 0.881 0.401 1.34 0.484 1.213 0.081 2.363 0.747 3.014 1.879 0.638 1.11 0.646 2.407 0.14 3.484 0.004 0.003 0.008 0.007 0.012 0.010-0.174 0.458-0.274 0.954-0.274 1.473 0 2.295 1.86 4.155 4.155 4.155s4.154-1.861 4.154-4.155c0-0.493-0.092-0.963-0.25-1.403-0.535-1.091-0.535-2.42 0.12-3.55 0.64-1.105 1.758-1.76 2.941-1.862 0.001-0.005 0.002-0.011 0.002-0.016 0.486-0.078 0.967-0.24 1.419-0.5 1.987-1.148 2.668-3.689 1.521-5.676zM16.002 19.088c-1.707 0-3.089-1.384-3.089-3.090s1.383-3.089 3.089-3.089c1.705 0 3.089 1.383 3.089 3.089s-1.384 3.090-3.089 3.090z"></path>
</svg>
