<?xml version="1.0" encoding="utf-8"?>
<!-- Generator: Adobe Illustrator 22.0.1, SVG Export Plug-In . SVG Version: 6.00 Build 0)  -->
<svg version="1.1" id="Layer_1" xmlns="http://www.w3.org/2000/svg" xmlns:xlink="http://www.w3.org/1999/xlink" x="0px" y="0px"
	 viewBox="0 0 250 250" style="enable-background:new 0 0 250 250;" xml:space="preserve">
<style type="text/css">
	.st0{stroke:#FFFFFF;stroke-miterlimit:10;}
</style>
<g>
	<path class="st0" d="M245.3,192.7c-2.6,0-4.6,2.1-4.7,4.7v14h-60l-0.2-8.9c43.7-30.7,54.2-91,23.5-134.7
		C173.4,24,113,13.5,69.3,44.2s-54.2,91-23.5,134.7c6.4,9.1,14.4,17.1,23.5,23.5h0.2l-0.2,8.7h-60v-14c0-2.6-2.1-4.7-4.7-4.7
		S0,194.6,0,197.2v23.1h78.5l0.3-20.1c0-1.9-1.1-3.6-2.9-4.4c-0.3-0.5-0.7-0.9-1.2-1.2c-23.5-16.2-37.5-42.9-37.5-71.4
		c0-48.4,39.3-87.6,87.7-87.6c48.4,0,87.6,39.3,87.6,87.7c0,29.1-14.5,56.3-38.6,72.6c-0.4,0.3-0.7,0.7-1.1,1.1
		c-1,0.8-1.6,2.1-1.7,3.5l0.3,20.1H250v-23.1C250,194.8,247.9,192.7,245.3,192.7L245.3,192.7z"/>
	<g>
		<path class="st0" d="M183.4,130c-1.9-2.4-4-4.7-6.2-6.9c2.2-2.2,4.2-4.5,6.2-6.9c10.4-12.8,13.5-24,9-31.8c-3.5-5.9-10.8-9-21.5-9
			c-6.7,0.2-13.3,1.1-19.8,2.9c-5.7-20-15.2-32.7-26-32.7S104.9,58.2,99,78c-6.5-1.7-13.1-2.7-19.8-2.9c-10.7,0-18,3.2-21.5,9
			c-4.5,7.8-1.4,19.1,9,31.8c1.9,2.4,4,4.7,6.2,6.9c-14.4,14.9-20.7,29.4-15.2,38.7c3.5,5.9,10.8,9,21.5,9
			c6.7-0.2,13.3-1.1,19.8-2.9c5.7,19.8,15.2,32.6,26,32.6s20.3-12.8,26.1-32.6c6.5,1.7,13.1,2.7,19.8,2.9c10.7,0,18-3.2,21.5-9
			C196.9,154.1,193.7,142.7,183.4,130L183.4,130z M171.1,80.9c5.9,0,13.5,1.1,16.4,6.2c3.2,5.6,0,14.7-8.6,25.4
			c-1.8,2.1-3.8,4.4-5.9,6.5c-5.4-4.9-11-9.6-17-13.8c-0.7-7.3-1.8-14.5-3.5-21.6C158.7,81.9,164.8,81.1,171.1,80.9L171.1,80.9z
			 M138.1,145.6c-4.2,2.5-8.6,4.7-13.1,6.8c-4.4-2.1-8.7-4.4-13.1-6.9c-4.4-2.6-8.6-5.1-12.5-7.8c-0.3-4.7-0.6-9.6-0.6-14.7
			s0.2-10.1,0.6-14.7c3.9-2.7,8-5.3,12.5-7.8c4.2-2.5,8.6-4.7,13.1-6.8c4.4,2.1,8.7,4.4,13.1,6.8c4.4,2.6,8.6,5.1,12.5,7.8
			c0.3,4.7,0.6,9.6,0.6,14.7s-0.2,9.9-0.6,14.7C146.6,140.3,142.4,143,138.1,145.6L138.1,145.6z M149.9,145.1
			c-0.8,5.7-1.7,11-2.7,15.9c-5.2-1.5-10.2-3.4-15.2-5.6c3-1.5,6-3.2,9-5C144.1,148.7,146.9,146.9,149.9,145.1z M118.2,155.5
			c-4.9,2.1-10,4-15.2,5.6c-1.3-5.2-2.2-10.5-2.7-15.9c2.9,1.8,5.9,3.6,8.9,5.4L118.2,155.5z M93.6,133.3
			c-4.3-3.2-8.5-6.7-12.5-10.4c3.9-3.7,8.1-7.2,12.5-10.4c-0.2,3.5-0.3,6.8-0.3,10.4C93.3,126.5,93.5,130,93.6,133.3z M100.4,101
			c0.8-5.7,1.7-11,2.7-15.9c5.2,1.5,10.2,3.4,15.2,5.6c-3,1.5-6,3.2-9.2,5C105.9,97.4,103.2,99.1,100.4,101z M131.9,90.7
			c4.9-2.1,10-4,15.2-5.6c1.3,5.2,2.2,10.5,2.7,15.9c-2.9-1.8-5.9-3.6-8.9-5.4C137.9,93.8,134.9,92.2,131.9,90.7z M156.7,112.7
			c4.3,3.2,8.4,6.6,12.3,10.4c-3.8,3.5-8,6.9-12.3,10.4c0.2-3.3,0.3-6.8,0.3-10.4C157,119.5,156.8,116.2,156.7,112.7L156.7,112.7z
			 M125.2,51.2c7.5,0,15.5,10.5,20.6,28.4c-7,2.1-13.9,4.7-20.6,7.8c-6.7-3-13.5-5.7-20.6-7.8C109.7,61.7,117.5,51.2,125.2,51.2
			L125.2,51.2z M62.9,87.1c3-5.1,10.5-6.2,16.4-6.2c6.2,0.1,12.4,1,18.5,2.6c-1.6,7.1-2.8,14.3-3.5,21.6c-6,4.2-11.6,8.8-17,13.8
			c-2.1-2.3-4.1-4.4-5.9-6.6C62.7,101.9,59.6,92.6,62.9,87.1L62.9,87.1z M79.2,165.1c-5.9,0-13.5-1.1-16.4-6.2
			c-3.8-6.6,1.4-18.6,14.3-32c5.3,5,11.1,9.6,17.1,13.8c0.7,7.3,1.8,14.5,3.5,21.6C91.7,164.1,85.5,165,79.2,165.1z M125.2,194.8
			c-7.5,0-15.5-10.5-20.6-28.4c7-2.1,13.9-4.8,20.6-7.8c6.7,3,13.5,5.7,20.6,7.8C140.6,184.3,132.7,194.8,125.2,194.8z M187.4,158.9
			c-3,5.1-10.5,6.2-16.4,6.2c-6.2-0.1-12.4-1-18.5-2.6c1.6-7.1,2.8-14.3,3.5-21.6c6-4.2,11.6-8.8,17-13.8c2.1,2.1,4.1,4.4,5.9,6.5
			C187.4,144.2,190.6,153.5,187.4,158.9L187.4,158.9z"/>
		<path class="st0" d="M125.2,101c-12.1,0.1-21.8,10-21.8,22.1s10,21.8,22.1,21.8c12-0.1,21.8-9.9,21.8-21.9
			C147.1,110.8,137.3,101,125.2,101z M125.2,139.3c-9,0-16.2-7.3-16.2-16.2s7.3-16.2,16.2-16.2c9,0,16.2,7.3,16.2,16.2
			C141.3,132,134.1,139.2,125.2,139.3z"/>
	</g>
</g>
</svg>
