<!-- Generated by IcoMoon.io -->
<svg version="1.1" xmlns="http://www.w3.org/2000/svg" width="32" height="32" viewBox="0 0 32 32">
<title>QRL</title>
<path d="M31.398 24.666c-0.333 0-0.589 0.269-0.602 0.602v1.792h-7.68l-0.026-1.139c5.594-3.93 6.938-11.648 3.008-17.242-3.904-5.606-11.635-6.95-17.229-3.021s-6.938 11.648-3.008 17.242c0.819 1.165 1.843 2.189 3.008 3.008h0.026l-0.026 1.114h-7.68v-1.792c0-0.333-0.269-0.602-0.602-0.602s-0.589 0.282-0.589 0.614v2.957h10.048l0.038-2.573c0-0.243-0.141-0.461-0.371-0.563-0.038-0.064-0.090-0.115-0.154-0.154-3.008-2.074-4.8-5.491-4.8-9.139 0-6.195 5.030-11.213 11.226-11.213s11.213 5.030 11.213 11.226c0 3.725-1.856 7.206-4.941 9.293-0.051 0.038-0.090 0.090-0.141 0.141-0.128 0.102-0.205 0.269-0.218 0.448l0.038 2.573h10.061v-2.957c0-0.346-0.269-0.614-0.602-0.614v0z"></path>
<path d="M23.475 16.64c-0.243-0.307-0.512-0.602-0.794-0.883 0.282-0.282 0.538-0.576 0.794-0.883 1.331-1.638 1.728-3.072 1.152-4.070-0.448-0.755-1.382-1.152-2.752-1.152-0.858 0.026-1.702 0.141-2.534 0.371-0.73-2.56-1.946-4.186-3.328-4.186s-2.586 1.613-3.341 4.147c-0.832-0.218-1.677-0.346-2.534-0.371-1.37 0-2.304 0.41-2.752 1.152-0.576 0.998-0.179 2.445 1.152 4.070 0.243 0.307 0.512 0.602 0.794 0.883-1.843 1.907-2.65 3.763-1.946 4.954 0.448 0.755 1.382 1.152 2.752 1.152 0.858-0.026 1.702-0.141 2.534-0.371 0.73 2.534 1.946 4.173 3.328 4.173s2.598-1.638 3.341-4.173c0.832 0.218 1.677 0.346 2.534 0.371 1.37 0 2.304-0.41 2.752-1.152 0.576-0.947 0.166-2.406-1.152-4.032v0zM21.901 10.355c0.755 0 1.728 0.141 2.099 0.794 0.41 0.717 0 1.882-1.101 3.251-0.23 0.269-0.486 0.563-0.755 0.832-0.691-0.627-1.408-1.229-2.176-1.766-0.090-0.934-0.23-1.856-0.448-2.765 0.794-0.218 1.574-0.32 2.381-0.346v0zM17.677 18.637c-0.538 0.32-1.101 0.602-1.677 0.87-0.563-0.269-1.114-0.563-1.677-0.883-0.563-0.333-1.101-0.653-1.6-0.998-0.038-0.602-0.077-1.229-0.077-1.882s0.026-1.293 0.077-1.882c0.499-0.346 1.024-0.678 1.6-0.998 0.538-0.32 1.101-0.602 1.677-0.87 0.563 0.269 1.114 0.563 1.677 0.87 0.563 0.333 1.101 0.653 1.6 0.998 0.038 0.602 0.077 1.229 0.077 1.882s-0.026 1.267-0.077 1.882c-0.512 0.333-1.050 0.678-1.6 1.011v0zM19.187 18.573c-0.102 0.73-0.218 1.408-0.346 2.035-0.666-0.192-1.306-0.435-1.946-0.717 0.384-0.192 0.768-0.41 1.152-0.64 0.397-0.218 0.755-0.448 1.139-0.678zM15.13 19.904c-0.627 0.269-1.28 0.512-1.946 0.717-0.166-0.666-0.282-1.344-0.346-2.035 0.371 0.23 0.755 0.461 1.139 0.691l1.152 0.627zM11.981 17.062c-0.55-0.41-1.088-0.858-1.6-1.331 0.499-0.474 1.037-0.922 1.6-1.331-0.026 0.448-0.038 0.87-0.038 1.331s0.026 0.909 0.038 1.331zM12.851 12.928c0.102-0.73 0.218-1.408 0.346-2.035 0.666 0.192 1.306 0.435 1.946 0.717-0.384 0.192-0.768 0.41-1.178 0.64-0.41 0.218-0.755 0.435-1.114 0.678zM16.883 11.61c0.627-0.269 1.28-0.512 1.946-0.717 0.166 0.666 0.282 1.344 0.346 2.035-0.371-0.23-0.755-0.461-1.139-0.691s-0.768-0.435-1.152-0.627zM20.058 14.426c0.55 0.41 1.075 0.845 1.574 1.331-0.486 0.448-1.024 0.883-1.574 1.331 0.026-0.422 0.038-0.87 0.038-1.331s-0.026-0.883-0.038-1.331v0zM16.026 6.554c0.96 0 1.984 1.344 2.637 3.635-0.896 0.269-1.779 0.602-2.637 0.998-0.858-0.384-1.728-0.73-2.637-0.998 0.653-2.291 1.651-3.635 2.637-3.635v0zM8.051 11.149c0.384-0.653 1.344-0.794 2.099-0.794 0.794 0.013 1.587 0.128 2.368 0.333-0.205 0.909-0.358 1.83-0.448 2.765-0.768 0.538-1.485 1.126-2.176 1.766-0.269-0.294-0.525-0.563-0.755-0.845-1.114-1.331-1.51-2.522-1.088-3.226v0zM10.138 21.133c-0.755 0-1.728-0.141-2.099-0.794-0.486-0.845 0.179-2.381 1.83-4.096 0.678 0.64 1.421 1.229 2.189 1.766 0.090 0.934 0.23 1.856 0.448 2.765-0.768 0.23-1.562 0.346-2.368 0.358zM16.026 24.934c-0.96 0-1.984-1.344-2.637-3.635 0.896-0.269 1.779-0.614 2.637-0.998 0.858 0.384 1.728 0.73 2.637 0.998-0.666 2.291-1.677 3.635-2.637 3.635zM23.987 20.339c-0.384 0.653-1.344 0.794-2.099 0.794-0.794-0.013-1.587-0.128-2.368-0.333 0.205-0.909 0.358-1.83 0.448-2.765 0.768-0.538 1.485-1.126 2.176-1.766 0.269 0.269 0.525 0.563 0.755 0.832 1.088 1.357 1.498 2.547 1.088 3.238v0z"></path>
<path d="M16.026 12.928c-1.549 0.013-2.79 1.28-2.79 2.829s1.28 2.79 2.829 2.79c1.536-0.013 2.79-1.267 2.79-2.803-0.026-1.562-1.28-2.816-2.829-2.816zM16.026 17.83c-1.152 0-2.074-0.934-2.074-2.074s0.934-2.074 2.074-2.074c1.152 0 2.074 0.934 2.074 2.074-0.013 1.139-0.934 2.061-2.074 2.074z"></path>
</svg>
