<!-- Generated by IcoMoon.io -->
<svg version="1.1" xmlns="http://www.w3.org/2000/svg" width="32" height="32" viewBox="0 0 32 32">
<title>QRYPTOS</title>
<path d="M0 16.959c0.014-3.598 1.030-6.067 2.991-8.113 1.792-1.862 4.007-2.921 6.575-3.217 1.115-0.127 2.201-0.028 3.287 0.198 0.141 0.028 0.254 0.141 0.381 0.212-0.085 0.127-0.155 0.268-0.268 0.353-2.060 1.75-3.429 3.951-4.12 6.561-0.79 3.005-0.536 5.954 0.776 8.79 0.79 1.707 1.891 3.189 3.344 4.388 0.127 0.099 0.198 0.254 0.282 0.395-0.141 0.071-0.282 0.183-0.437 0.226-2.145 0.451-4.233 0.254-6.236-0.607-2.54-1.086-4.416-2.878-5.587-5.39-0.677-1.425-1.002-2.949-0.988-3.795z"></path>
<path d="M10.568 16.282c0.028-4.952 3.527-9.298 8.296-10.399 3.4-0.776 6.476-0.056 9.171 2.116 2.116 1.707 3.4 3.922 3.824 6.66 0.452 3.019-0.282 5.7-2.074 8.113-0.169 0.24-0.155 0.381 0.028 0.593 0.48 0.522 0.945 1.058 1.425 1.566 0.48 0.522 0.522 1.058 0.099 1.467-0.409 0.395-0.988 0.353-1.481-0.127-0.48-0.466-0.959-0.931-1.411-1.411-0.24-0.254-0.466-0.268-0.734-0.056-0.988 0.804-2.131 1.369-3.344 1.721-1.425 0.409-2.864 0.578-4.36 0.381-1.848-0.24-3.541-0.903-5.037-2.004-2.116-1.552-3.471-3.64-4.063-6.18-0.169-0.804-0.226-1.637-0.339-2.441zM12.6 16.24c0.028 2.342 0.804 4.388 2.441 6.067 2.060 2.102 4.571 2.977 7.492 2.624 1.369-0.169 2.638-0.663 3.767-1.467 0.423-0.31 0.423-0.423 0.071-0.79-0.494-0.508-1.016-0.988-1.496-1.51-0.423-0.451-0.423-0.889-0.028-1.326s0.931-0.437 1.425 0.014c0.508 0.48 0.988 0.974 1.481 1.467 0.395 0.395 0.451 0.395 0.762-0.056 1.524-2.286 1.975-4.755 1.185-7.407-1.425-4.783-6.377-7.393-11.104-5.855-3.485 1.129-6.039 4.529-5.996 8.24z"></path>
<path d="M21.376 16.296c0.028 2.088-0.607 3.979-1.665 5.757-0.183 0.296-0.381 0.353-0.705 0.226-1.975-0.79-3.259-2.215-3.852-4.247-0.508-1.764-0.296-3.457 0.635-5.037 0.734-1.256 1.82-2.145 3.175-2.709 0.353-0.141 0.564-0.085 0.776 0.254 1.058 1.764 1.665 3.668 1.637 5.757z"></path>
</svg>
