<!-- Generated by IcoMoon.io -->
<svg version="1.1" xmlns="http://www.w3.org/2000/svg" width="32" height="32" viewBox="0 0 32 32">
<title>QSP</title>
<path d="M8.522 16.014c-0.014-4.134 3.33-7.492 7.464-7.506s7.492 3.33 7.506 7.464c0 1.058-0.226 2.102-0.649 3.062l-4.938-4.938-3.795 3.824 4.938 4.938c-0.959 0.423-1.989 0.649-3.034 0.649-4.134-0.014-7.478-3.358-7.492-7.492M28.783 16.014c0.014-2.469-0.705-4.882-2.060-6.942l5.023-5.023-3.767-3.767-5.023 5.023c-4.219-2.751-9.665-2.751-13.884 0l-5.023-5.023-3.767 3.767 5.023 5.023c-2.751 4.219-2.751 9.665 0 13.884l-5.023 5.023 3.767 3.767 5.023-5.023c4.219 2.751 9.665 2.751 13.884 0l5.023 5.023 3.767-3.767-5.023-5.023c1.355-2.060 2.074-4.473 2.060-6.942"></path>
</svg>
