<?xml version="1.0" encoding="utf-8"?>
<!-- Generator: Adobe Illustrator 22.0.1, SVG Export Plug-In . SVG Version: 6.00 Build 0)  -->
<svg version="1.1" id="Layer_1" xmlns="http://www.w3.org/2000/svg" xmlns:xlink="http://www.w3.org/1999/xlink" x="0px" y="0px"
	 viewBox="0 0 226.8 226.8" style="enable-background:new 0 0 226.8 226.8;" xml:space="preserve">
<style type="text/css">
	.st0{stroke:#FFFFFF;stroke-miterlimit:10;}
</style>
<path class="st0" d="M60.4,113.5C60.3,84.2,84,60.4,113.3,60.3s53.1,23.6,53.2,52.9c0,7.5-1.6,14.9-4.6,21.7l-35-35L100,127l35,35
	c-6.8,3-14.1,4.6-21.5,4.6C84.2,166.5,60.5,142.8,60.4,113.5 M204,113.5c0.1-17.5-5-34.6-14.6-49.2L225,28.7L198.3,2l-35.6,35.6
	c-29.9-19.5-68.5-19.5-98.4,0L28.7,2L2,28.7l35.6,35.6c-19.5,29.9-19.5,68.5,0,98.4L2,198.3L28.7,225l35.6-35.6
	c29.9,19.5,68.5,19.5,98.4,0l35.6,35.6l26.7-26.7l-35.6-35.6C199,148.1,204.1,131,204,113.5"/>
</svg>
