<!-- Generated by IcoMoon.io -->
<svg version="1.1" xmlns="http://www.w3.org/2000/svg" width="32" height="32" viewBox="0 0 32 32">
<title>QUADRIGACX</title>
<path d="M15.986 0c8.818 0 15.958 7.153 15.958 15.958 0 8.818-7.139 15.958-15.958 15.958s-15.958-7.139-15.958-15.958c0-8.804 7.153-15.958 15.958-15.958zM15.986 5.559c5.757 0 10.413 4.656 10.413 10.399 0 5.757-4.656 10.413-10.413 10.413s-10.413-4.656-10.413-10.413c0.014-5.742 4.67-10.399 10.413-10.399z"></path>
<path d="M20.727 31.295l-0.056-0.014-9.256-2.765-8.564-3.344-0.071-9.086 0.183-9.496 8.804-3.034 8.861-2.949 5.333 7.633 6.067 7.732-6.293 7.704-5.009 7.619zM2.991 25.072l8.48 3.302 9.199 2.751 4.981-7.549 6.222-7.619-5.996-7.647-5.291-7.548-8.762 2.921-8.72 3.005-0.183 9.397 0.071 8.988zM15.986 26.441c-5.785 0-10.483-4.698-10.483-10.483 0-5.771 4.698-10.469 10.483-10.469s10.483 4.698 10.483 10.469c0 5.785-4.698 10.483-10.483 10.483zM15.986 5.63c-5.7 0-10.342 4.628-10.342 10.328s4.642 10.342 10.342 10.342 10.342-4.642 10.342-10.342-4.642-10.328-10.342-10.328z"></path>
<path d="M14.702 15.083h2.229c0.268 0 0.494 0.226 0.494 0.494v0.014c0 0.268-0.226 0.494-0.494 0.494h-2.229c-0.268 0-0.494-0.226-0.494-0.494v-0.014c0-0.268 0.226-0.494 0.494-0.494z"></path>
<path d="M16.945 16.155h-2.229c-0.31 0-0.564-0.254-0.564-0.564 0-0.325 0.254-0.578 0.564-0.578h2.229c0.31 0 0.564 0.254 0.564 0.564 0 0.325-0.254 0.578-0.564 0.578zM14.702 15.153c-0.24 0-0.423 0.198-0.423 0.423 0 0.24 0.198 0.437 0.423 0.437h2.229c0.24 0 0.423-0.198 0.423-0.423 0-0.24-0.198-0.437-0.423-0.437h-2.229z"></path>
<path d="M6.956 16.875h2.229c0.268 0 0.494 0.226 0.494 0.494v0.014c0 0.268-0.226 0.494-0.494 0.494h-2.229c-0.268 0-0.494-0.226-0.494-0.494v-0.014c0-0.268 0.226-0.494 0.494-0.494z"></path>
<path d="M9.185 17.947h-2.229c-0.31 0-0.564-0.254-0.564-0.564 0-0.325 0.254-0.578 0.564-0.578h2.229c0.31 0 0.564 0.254 0.564 0.564 0.014 0.325-0.24 0.578-0.564 0.578zM6.956 16.945c-0.24 0-0.423 0.198-0.423 0.423 0 0.24 0.198 0.437 0.423 0.437h2.229c0.24 0 0.423-0.198 0.423-0.423 0-0.24-0.198-0.437-0.423-0.437h-2.229z"></path>
<path d="M14.702 16.762h2.229c0.268 0 0.494 0.226 0.494 0.494v0.014c0 0.268-0.226 0.494-0.494 0.494h-2.229c-0.268 0-0.494-0.226-0.494-0.494v-0.014c0-0.268 0.226-0.494 0.494-0.494z"></path>
<path d="M16.945 17.834h-2.229c-0.31 0-0.564-0.254-0.564-0.564 0-0.325 0.254-0.578 0.564-0.578h2.229c0.31 0 0.564 0.254 0.564 0.564 0 0.325-0.254 0.578-0.564 0.578zM14.702 16.832c-0.24 0-0.423 0.198-0.423 0.423 0 0.24 0.198 0.437 0.423 0.437h2.229c0.24 0 0.423-0.198 0.423-0.423 0-0.24-0.198-0.437-0.423-0.437h-2.229z"></path>
<path d="M6.956 18.554h2.229c0.268 0 0.494 0.226 0.494 0.494v0.014c0 0.268-0.226 0.494-0.494 0.494h-2.229c-0.268 0-0.494-0.226-0.494-0.494v-0.014c0-0.268 0.226-0.494 0.494-0.494z"></path>
<path d="M9.185 19.626h-2.229c-0.31 0-0.564-0.254-0.564-0.564 0-0.325 0.254-0.578 0.564-0.578h2.229c0.31 0 0.564 0.254 0.564 0.564 0.014 0.325-0.24 0.578-0.564 0.578zM6.956 18.624c-0.24 0-0.423 0.198-0.423 0.423 0 0.24 0.198 0.437 0.423 0.437h2.229c0.24 0 0.423-0.198 0.423-0.423 0-0.24-0.198-0.437-0.423-0.437h-2.229z"></path>
<path d="M10.836 18.497h2.229c0.268 0 0.494 0.226 0.494 0.494v0.014c0 0.268-0.226 0.494-0.494 0.494h-2.229c-0.268 0-0.494-0.226-0.494-0.494v-0.014c0-0.268 0.226-0.494 0.494-0.494z"></path>
<path d="M13.065 19.57h-2.229c-0.31 0-0.564-0.254-0.564-0.564 0-0.325 0.254-0.578 0.564-0.578h2.229c0.31 0 0.564 0.254 0.564 0.564 0 0.325-0.254 0.578-0.564 0.578zM10.836 18.568c-0.24 0-0.423 0.198-0.423 0.423 0 0.24 0.198 0.437 0.423 0.437h2.229c0.24 0 0.423-0.198 0.423-0.423 0-0.24-0.198-0.437-0.423-0.437h-2.229z"></path>
<path d="M14.702 18.441h2.229c0.268 0 0.494 0.226 0.494 0.494v0.014c0 0.268-0.226 0.494-0.494 0.494h-2.229c-0.268 0-0.494-0.226-0.494-0.494v-0.014c0-0.268 0.226-0.494 0.494-0.494z"></path>
<path d="M16.945 19.513h-2.229c-0.31 0-0.564-0.254-0.564-0.564 0-0.325 0.254-0.578 0.564-0.578h2.229c0.31 0 0.564 0.254 0.564 0.564 0 0.325-0.254 0.578-0.564 0.578zM14.702 18.511c-0.24 0-0.423 0.198-0.423 0.423 0 0.24 0.198 0.437 0.423 0.437h2.229c0.24 0 0.423-0.198 0.423-0.423 0-0.24-0.198-0.437-0.423-0.437h-2.229z"></path>
<path d="M22.462 18.328h2.229c0.268 0 0.494 0.226 0.494 0.494v0.014c0 0.268-0.226 0.494-0.494 0.494h-2.229c-0.268 0-0.494-0.226-0.494-0.494v-0.014c-0.014-0.268 0.212-0.494 0.494-0.494z"></path>
<path d="M24.691 19.4h-2.229c-0.31 0-0.564-0.254-0.564-0.564 0-0.325 0.254-0.578 0.564-0.578h2.229c0.31 0 0.564 0.254 0.564 0.564 0 0.325-0.254 0.578-0.564 0.578zM22.462 18.399c-0.24 0-0.423 0.198-0.423 0.423 0 0.24 0.198 0.437 0.423 0.437h2.229c0.24 0 0.423-0.198 0.423-0.423 0-0.24-0.198-0.437-0.423-0.437h-2.229z"></path>
<path d="M6.956 20.233h2.229c0.268 0 0.494 0.226 0.494 0.494v0.014c0 0.268-0.226 0.494-0.494 0.494h-2.229c-0.268 0-0.494-0.226-0.494-0.494v0c0-0.282 0.226-0.508 0.494-0.508z"></path>
<path d="M9.185 21.305h-2.229c-0.31 0-0.564-0.254-0.564-0.564 0-0.325 0.254-0.578 0.564-0.578h2.229c0.31 0 0.564 0.254 0.564 0.564 0.014 0.325-0.24 0.578-0.564 0.578zM6.956 20.303c-0.24 0-0.423 0.198-0.423 0.423 0 0.24 0.198 0.437 0.423 0.437h2.229c0.24 0 0.423-0.198 0.423-0.423 0-0.24-0.198-0.437-0.423-0.437h-2.229z"></path>
<path d="M10.836 20.176h2.229c0.268 0 0.494 0.226 0.494 0.494v0.014c0 0.268-0.226 0.494-0.494 0.494h-2.229c-0.268 0-0.494-0.226-0.494-0.494v-0.014c0-0.268 0.226-0.494 0.494-0.494z"></path>
<path d="M13.065 21.249h-2.229c-0.31 0-0.564-0.254-0.564-0.564 0-0.325 0.254-0.578 0.564-0.578h2.229c0.31 0 0.564 0.254 0.564 0.564 0 0.325-0.254 0.578-0.564 0.578zM10.836 20.247c-0.24 0-0.423 0.198-0.423 0.423 0 0.24 0.198 0.437 0.423 0.437h2.229c0.24 0 0.423-0.198 0.423-0.423 0-0.24-0.198-0.437-0.423-0.437h-2.229z"></path>
<path d="M14.702 20.12h2.229c0.268 0 0.494 0.226 0.494 0.494v0.014c0 0.268-0.226 0.494-0.494 0.494h-2.229c-0.268 0-0.494-0.226-0.494-0.494v-0.014c0-0.268 0.226-0.494 0.494-0.494z"></path>
<path d="M16.945 21.192h-2.229c-0.31 0-0.564-0.254-0.564-0.564 0-0.325 0.254-0.578 0.564-0.578h2.229c0.31 0 0.564 0.254 0.564 0.564 0 0.325-0.254 0.578-0.564 0.578zM14.702 20.19c-0.24 0-0.423 0.198-0.423 0.423 0 0.24 0.198 0.437 0.423 0.437h2.229c0.24 0 0.423-0.198 0.423-0.423 0-0.24-0.198-0.437-0.423-0.437h-2.229z"></path>
<path d="M18.582 20.064h2.229c0.268 0 0.494 0.226 0.494 0.494v0.014c0 0.268-0.226 0.494-0.494 0.494h-2.229c-0.268 0-0.494-0.226-0.494-0.494v-0.014c0-0.268 0.226-0.494 0.494-0.494z"></path>
<path d="M20.825 21.136h-2.229c-0.31 0-0.564-0.254-0.564-0.564 0-0.325 0.254-0.578 0.564-0.578h2.229c0.31 0 0.564 0.254 0.564 0.564 0 0.325-0.254 0.578-0.564 0.578zM18.582 20.134c-0.24 0-0.423 0.198-0.423 0.423 0 0.24 0.198 0.437 0.423 0.437h2.229c0.24 0 0.423-0.198 0.423-0.423 0-0.24-0.198-0.437-0.423-0.437h-2.229z"></path>
<path d="M22.462 20.007h2.229c0.268 0 0.494 0.226 0.494 0.494v0.014c0 0.268-0.226 0.494-0.494 0.494h-2.229c-0.268 0-0.494-0.226-0.494-0.494v-0.014c-0.014-0.268 0.212-0.494 0.494-0.494z"></path>
<path d="M24.691 21.079h-2.229c-0.31 0-0.564-0.254-0.564-0.564 0-0.325 0.254-0.578 0.564-0.578h2.229c0.31 0 0.564 0.254 0.564 0.564 0 0.325-0.254 0.578-0.564 0.578zM22.462 20.078c-0.24 0-0.423 0.198-0.423 0.423 0 0.24 0.198 0.437 0.423 0.437h2.229c0.24 0 0.423-0.198 0.423-0.423 0-0.24-0.198-0.437-0.423-0.437h-2.229z"></path>
<path d="M6.956 21.912h2.229c0.268 0 0.494 0.226 0.494 0.494v0.014c0 0.268-0.226 0.494-0.494 0.494h-2.229c-0.268 0-0.494-0.226-0.494-0.494v-0.014c0-0.268 0.226-0.494 0.494-0.494z"></path>
<path d="M9.185 22.984h-2.229c-0.31 0-0.564-0.254-0.564-0.564 0-0.325 0.254-0.578 0.564-0.578h2.229c0.31 0 0.564 0.254 0.564 0.564 0.014 0.325-0.24 0.578-0.564 0.578zM6.956 21.982c-0.24 0-0.423 0.198-0.423 0.423 0 0.24 0.198 0.437 0.423 0.437h2.229c0.24 0 0.423-0.198 0.423-0.423 0-0.24-0.198-0.437-0.423-0.437h-2.229z"></path>
<path d="M10.836 21.855h2.229c0.268 0 0.494 0.226 0.494 0.494v0.014c0 0.268-0.226 0.494-0.494 0.494h-2.229c-0.268 0-0.494-0.226-0.494-0.494v-0.014c0-0.268 0.226-0.494 0.494-0.494z"></path>
<path d="M13.065 22.928h-2.229c-0.31 0-0.564-0.254-0.564-0.564 0-0.325 0.254-0.578 0.564-0.578h2.229c0.31 0 0.564 0.254 0.564 0.564 0 0.325-0.254 0.578-0.564 0.578zM10.836 21.926c-0.24 0-0.423 0.198-0.423 0.423 0 0.24 0.198 0.437 0.423 0.437h2.229c0.24 0 0.423-0.198 0.423-0.423 0-0.24-0.198-0.437-0.423-0.437h-2.229z"></path>
<path d="M14.702 21.799h2.229c0.268 0 0.494 0.226 0.494 0.494v0.014c0 0.268-0.226 0.494-0.494 0.494h-2.229c-0.268 0-0.494-0.226-0.494-0.494v-0.014c0-0.268 0.226-0.494 0.494-0.494z"></path>
<path d="M16.945 22.871h-2.229c-0.31 0-0.564-0.254-0.564-0.564 0-0.325 0.254-0.578 0.564-0.578h2.229c0.31 0 0.564 0.254 0.564 0.564 0 0.325-0.254 0.578-0.564 0.578zM14.702 21.869c-0.24 0-0.423 0.198-0.423 0.423 0 0.24 0.198 0.437 0.423 0.437h2.229c0.24 0 0.423-0.198 0.423-0.423 0-0.24-0.198-0.437-0.423-0.437h-2.229z"></path>
<path d="M18.582 21.742h2.229c0.268 0 0.494 0.226 0.494 0.494v0.014c0 0.268-0.226 0.494-0.494 0.494h-2.229c-0.268 0-0.494-0.226-0.494-0.494v-0.014c0-0.268 0.226-0.494 0.494-0.494z"></path>
<path d="M20.825 22.815h-2.229c-0.31 0-0.564-0.254-0.564-0.564 0-0.325 0.254-0.578 0.564-0.578h2.229c0.31 0 0.564 0.254 0.564 0.564 0 0.325-0.254 0.578-0.564 0.578zM18.582 21.813c-0.24 0-0.423 0.198-0.423 0.423 0 0.24 0.198 0.437 0.423 0.437h2.229c0.24 0 0.423-0.198 0.423-0.423 0-0.24-0.198-0.437-0.423-0.437h-2.229z"></path>
<path d="M22.462 21.686h2.229c0.268 0 0.494 0.226 0.494 0.494v0.014c0 0.268-0.226 0.494-0.494 0.494h-2.229c-0.268 0-0.494-0.226-0.494-0.494v-0.014c-0.014-0.268 0.212-0.494 0.494-0.494z"></path>
<path d="M24.691 22.758h-2.229c-0.31 0-0.564-0.254-0.564-0.564 0-0.325 0.254-0.578 0.564-0.578h2.229c0.31 0 0.564 0.254 0.564 0.564 0 0.325-0.254 0.578-0.564 0.578zM22.462 21.757c-0.24 0-0.423 0.198-0.423 0.423 0 0.24 0.198 0.437 0.423 0.437h2.229c0.24 0 0.423-0.198 0.423-0.423 0-0.24-0.198-0.437-0.423-0.437h-2.229z"></path>
<path d="M6.956 23.591h2.229c0.268 0 0.494 0.226 0.494 0.494v0.014c0 0.268-0.226 0.494-0.494 0.494h-2.229c-0.268 0-0.494-0.226-0.494-0.494v-0.014c0-0.268 0.226-0.494 0.494-0.494z"></path>
<path d="M9.185 24.663h-2.229c-0.31 0-0.564-0.254-0.564-0.564 0-0.325 0.254-0.578 0.564-0.578h2.229c0.31 0 0.564 0.254 0.564 0.564 0.014 0.325-0.24 0.578-0.564 0.578zM6.956 23.661c-0.24 0-0.423 0.198-0.423 0.423 0 0.24 0.198 0.437 0.423 0.437h2.229c0.24 0 0.423-0.198 0.423-0.423 0-0.24-0.198-0.437-0.423-0.437h-2.229z"></path>
<path d="M10.836 23.534h2.229c0.268 0 0.494 0.226 0.494 0.494v0.014c0 0.268-0.226 0.494-0.494 0.494h-2.229c-0.268 0-0.494-0.226-0.494-0.494v-0.014c0-0.268 0.226-0.494 0.494-0.494z"></path>
<path d="M13.065 24.607h-2.229c-0.31 0-0.564-0.254-0.564-0.564 0-0.325 0.254-0.578 0.564-0.578h2.229c0.31 0 0.564 0.254 0.564 0.564 0 0.325-0.254 0.578-0.564 0.578zM10.836 23.605c-0.24 0-0.423 0.198-0.423 0.423 0 0.24 0.198 0.437 0.423 0.437h2.229c0.24 0 0.423-0.198 0.423-0.423 0-0.24-0.198-0.437-0.423-0.437h-2.229z"></path>
<path d="M14.702 23.478h2.229c0.268 0 0.494 0.226 0.494 0.494v0.014c0 0.268-0.226 0.494-0.494 0.494h-2.229c-0.268 0-0.494-0.226-0.494-0.494v-0.014c0-0.268 0.226-0.494 0.494-0.494z"></path>
<path d="M16.945 24.55h-2.229c-0.31 0-0.564-0.254-0.564-0.564 0-0.325 0.254-0.578 0.564-0.578h2.229c0.31 0 0.564 0.254 0.564 0.564 0 0.325-0.254 0.578-0.564 0.578zM14.702 23.549c-0.24 0-0.423 0.198-0.423 0.423 0 0.24 0.198 0.437 0.423 0.437h2.229c0.24 0 0.423-0.198 0.423-0.423 0-0.24-0.198-0.437-0.423-0.437h-2.229z"></path>
<path d="M18.582 23.422h2.229c0.268 0 0.494 0.226 0.494 0.494v0.014c0 0.268-0.226 0.494-0.494 0.494h-2.229c-0.268 0-0.494-0.226-0.494-0.494v-0.014c0-0.268 0.226-0.494 0.494-0.494z"></path>
<path d="M20.825 24.494h-2.229c-0.31 0-0.564-0.254-0.564-0.564 0-0.325 0.254-0.578 0.564-0.578h2.229c0.31 0 0.564 0.254 0.564 0.564 0 0.325-0.254 0.578-0.564 0.578zM18.582 23.492c-0.24 0-0.423 0.198-0.423 0.423 0 0.24 0.198 0.437 0.423 0.437h2.229c0.24 0 0.423-0.198 0.423-0.423 0-0.24-0.198-0.437-0.423-0.437h-2.229z"></path>
<path d="M22.462 23.351h2.229c0.268 0 0.494 0.226 0.494 0.494v0.014c0 0.268-0.226 0.494-0.494 0.494h-2.229c-0.268 0-0.494-0.226-0.494-0.494v-0.014c-0.014-0.268 0.212-0.494 0.494-0.494z"></path>
<path d="M24.691 24.423h-2.229c-0.31 0-0.564-0.254-0.564-0.564 0-0.325 0.254-0.578 0.564-0.578h2.229c0.31 0 0.564 0.254 0.564 0.564 0 0.325-0.254 0.578-0.564 0.578zM22.462 23.422c-0.24 0-0.423 0.198-0.423 0.423 0 0.24 0.198 0.437 0.423 0.437h2.229c0.24 0 0.423-0.198 0.423-0.423 0-0.24-0.198-0.437-0.423-0.437h-2.229z"></path>
<path d="M10.836 25.213h2.229c0.268 0 0.494 0.226 0.494 0.494v0.014c0 0.268-0.226 0.494-0.494 0.494h-2.229c-0.268 0-0.494-0.226-0.494-0.494v-0.014c0-0.268 0.226-0.494 0.494-0.494z"></path>
<path d="M13.065 26.286h-2.229c-0.31 0-0.564-0.254-0.564-0.564 0-0.325 0.254-0.578 0.564-0.578h2.229c0.31 0 0.564 0.254 0.564 0.564 0 0.325-0.254 0.578-0.564 0.578zM10.836 25.284c-0.24 0-0.423 0.198-0.423 0.423 0 0.24 0.198 0.437 0.423 0.437h2.229c0.24 0 0.423-0.198 0.423-0.423 0-0.24-0.198-0.437-0.423-0.437h-2.229z"></path>
<path d="M14.702 25.157h2.229c0.268 0 0.494 0.226 0.494 0.494v0.014c0 0.268-0.226 0.494-0.494 0.494h-2.229c-0.268 0-0.494-0.226-0.494-0.494v-0.014c0-0.268 0.226-0.494 0.494-0.494z"></path>
<path d="M16.945 26.229h-2.229c-0.31 0-0.564-0.254-0.564-0.564 0-0.325 0.254-0.578 0.564-0.578h2.229c0.31 0 0.564 0.254 0.564 0.564 0 0.325-0.254 0.578-0.564 0.578zM14.702 25.227c-0.24 0-0.423 0.198-0.423 0.423 0 0.24 0.198 0.437 0.423 0.437h2.229c0.24 0 0.423-0.198 0.423-0.423 0-0.24-0.198-0.437-0.423-0.437h-2.229z"></path>
<path d="M18.582 25.086h2.229c0.268 0 0.494 0.226 0.494 0.494v0.014c0 0.268-0.226 0.494-0.494 0.494h-2.229c-0.268 0-0.494-0.226-0.494-0.494v-0.014c0-0.268 0.226-0.494 0.494-0.494z"></path>
<path d="M20.825 26.159h-2.229c-0.31 0-0.564-0.254-0.564-0.564 0-0.325 0.254-0.578 0.564-0.578h2.229c0.31 0 0.564 0.254 0.564 0.564 0 0.325-0.254 0.578-0.564 0.578zM18.582 25.157c-0.24 0-0.423 0.198-0.423 0.423 0 0.24 0.198 0.437 0.423 0.437h2.229c0.24 0 0.423-0.198 0.423-0.423 0-0.24-0.198-0.437-0.423-0.437h-2.229z"></path>
<path d="M27.951 31.944l-1.764-3.668 0.141-1.566 1.623-0.113 4.049 5.432z"></path>
<path d="M32.141 32.113l-4.247-0.085-1.778-3.739 0.141-1.651 1.721-0.113 0.028 0.028 4.134 5.559zM27.993 31.887l3.866 0.085-3.951-5.291-1.524 0.099-0.127 1.496 1.735 3.612z"></path>
</svg>
