<?xml version="1.0" encoding="utf-8"?>
<!-- Generator: Adobe Illustrator 22.1.0, SVG Export Plug-In . SVG Version: 6.00 Build 0)  -->
<svg version="1.1" id="Layer_1" xmlns="http://www.w3.org/2000/svg" xmlns:xlink="http://www.w3.org/1999/xlink" x="0px" y="0px"
	 viewBox="0 0 226.8 226.8" style="enable-background:new 0 0 226.8 226.8;" xml:space="preserve">
<g>
	<path d="M18.6,62.2c0.4-7.5,3.6-13.3,9.8-17.2C40.6,37.4,52.8,29.8,65,22.3C73.4,17.1,81.9,12,90.3,6.8c14.6-8.9,29.3-9.1,44-0.3
		c20.6,12.3,41.1,24.7,61.7,37c10,6,13.3,12.7,10.8,22c-1.4,5.2-4.8,8.5-9,11.3c-11.7,7.5-23.2,15.2-35.1,22.5
		c-10.7,6.6-18.8,15.4-24.8,26.4c-4.9,9.1-10.1,18.1-15.3,27c-5.6,9.6-14.4,9.6-20.2-0.1c-6.8-11.3-13.5-22.6-19.9-34.1
		c-4.6-8.3-11-14.5-19.1-19.3c-11.6-6.8-23.1-13.7-34.7-20.3C22.1,75.1,19.5,69.1,18.6,62.2z M113.2,129.2
		c5.9-9.3,11-17.2,15.9-25.2c5.8-9.4,13.2-17,22.7-22.7c9.1-5.5,18-11.2,26.9-16.8c6.8-4.4,6.8-8.9,0.1-13.5c-1-0.7-2-1.3-3-1.9
		c-14.9-9.4-30.2-18.2-44.7-28.2c-11.9-8.2-23.3-7.3-35.1-0.9C86.9,24.8,77.9,30,69,35.2c-5.5,3.2-10.7,6.8-16.1,10.1
		c-11.5,6.9-12,16.1,0,23c5.3,3,10.2,6.7,15.3,10.2c25.6,17.4,22.1,12.4,39.8,43.2C109.2,123.9,110.8,125.8,113.2,129.2z"/>
	<path d="M209.5,132.5c0,10.4-0.2,20.7,0.1,31.1c0.2,5.9-1.8,9.7-7,12.6c-18.6,10.7-36.9,21.6-55.4,32.5
		c-8.9,5.3-17.9,10.4-26.7,15.8c-4.7,2.9-8.9,3-13.8,0.1c-27.5-16.3-55.1-32.5-82.8-48.6c-4.8-2.8-6.8-6.5-6.8-12.1
		c0.2-21.4,0-42.9,0.1-64.3c0-2.3,0.5-4.7,1.5-6.8c1.5-3.4,4.5-4.7,8.1-4.4c3.5,0.3,5.7,2.4,6.6,5.5c0.6,2.2,0.7,4.6,0.7,7
		c0.1,17,0.1,33.9,0,50.9c-0.1,7.3,2.8,12.5,9.1,16.2c20.1,11.7,40.2,23.5,60.2,35.5c6.8,4.1,13,4.2,19.8,0.2
		c20.2-12.1,40.5-23.9,60.8-35.8c5.9-3.5,8.8-8.5,8.7-15.7c-0.3-17-0.1-33.9-0.1-50.9c0-1.6-0.1-3.3,0.1-4.9
		c0.6-4.9,3.9-7.9,8.3-7.9c4.5,0,8,3.1,8.3,7.9c0.3,5.6,0.1,11.3,0.1,17C209.5,119.8,209.5,126.2,209.5,132.5z"/>
</g>
</svg>
