<!-- Generated by IcoMoon.io -->
<svg version="1.1" xmlns="http://www.w3.org/2000/svg" width="32" height="32" viewBox="0 0 32 32">
<title>QUN</title>
<path d="M2.624 8.776c0.056-1.058 0.508-1.877 1.383-2.427 1.721-1.072 3.443-2.145 5.164-3.203 1.185-0.734 2.384-1.453 3.57-2.187 2.060-1.256 4.134-1.284 6.208-0.042 2.907 1.735 5.799 3.485 8.705 5.22 1.411 0.847 1.877 1.792 1.524 3.104-0.198 0.734-0.677 1.199-1.27 1.594-1.651 1.058-3.273 2.145-4.952 3.175-1.51 0.931-2.653 2.173-3.499 3.725-0.691 1.284-1.425 2.554-2.159 3.81-0.79 1.355-2.032 1.355-2.85-0.014-0.959-1.594-1.905-3.189-2.808-4.811-0.649-1.171-1.552-2.046-2.695-2.723-1.637-0.959-3.259-1.933-4.896-2.864-0.931-0.536-1.298-1.383-1.425-2.356zM15.972 18.229c0.832-1.312 1.552-2.427 2.243-3.556 0.818-1.326 1.862-2.399 3.203-3.203 1.284-0.776 2.54-1.58 3.795-2.37 0.959-0.621 0.959-1.256 0.014-1.905-0.141-0.099-0.282-0.183-0.423-0.268-2.102-1.326-4.261-2.568-6.307-3.979-1.679-1.157-3.287-1.030-4.952-0.127-1.284 0.677-2.554 1.411-3.81 2.145-0.776 0.452-1.51 0.959-2.272 1.425-1.623 0.974-1.693 2.272 0 3.245 0.748 0.423 1.439 0.945 2.159 1.439 3.612 2.455 3.118 1.75 5.616 6.095 0.169 0.31 0.395 0.578 0.734 1.058z"></path>
<path d="M29.559 18.695c0 1.467-0.028 2.921 0.014 4.388 0.028 0.832-0.254 1.369-0.988 1.778-2.624 1.51-5.206 3.048-7.817 4.586-1.256 0.748-2.526 1.467-3.767 2.229-0.663 0.409-1.256 0.423-1.947 0.014-3.88-2.3-7.774-4.586-11.683-6.857-0.677-0.395-0.959-0.917-0.959-1.707 0.028-3.019 0-6.053 0.014-9.072 0-0.325 0.071-0.663 0.212-0.959 0.212-0.48 0.635-0.663 1.143-0.621 0.494 0.042 0.804 0.339 0.931 0.776 0.085 0.31 0.099 0.649 0.099 0.988 0.014 2.399 0.014 4.783 0 7.182-0.014 1.030 0.395 1.764 1.284 2.286 2.836 1.651 5.672 3.316 8.494 5.009 0.959 0.578 1.834 0.593 2.794 0.028 2.85-1.707 5.714-3.372 8.578-5.051 0.832-0.494 1.242-1.199 1.227-2.215-0.042-2.399-0.014-4.783-0.014-7.182 0-0.226-0.014-0.466 0.014-0.691 0.085-0.691 0.55-1.115 1.171-1.115 0.635 0 1.129 0.437 1.171 1.115 0.042 0.79 0.014 1.594 0.014 2.399 0.014 0.903 0.014 1.806 0.014 2.695z"></path>
</svg>
