<!-- Generated by IcoMoon.io -->
<svg version="1.1" xmlns="http://www.w3.org/2000/svg" width="32" height="32" viewBox="0 0 32 32">
<title>QUOINE</title>
<path d="M6.772 12.868c0.155-0.028 0.324-0.028 0.437 0.085 0.085 0.099 0.099 0.226 0.099 0.353 0 0.776 0 1.538 0 2.314 0.014 0.578 0.282 1.157 0.72 1.538 0.437 0.423 1.086 0.635 1.679 0.508 0.663-0.141 1.213-0.663 1.481-1.284 0.127-0.31 0.169-0.649 0.169-0.974 0-0.734 0-1.467 0-2.201 0-0.155 0.113-0.31 0.268-0.325 0.141-0.014 0.296-0.028 0.409 0.071 0.113 0.071 0.127 0.212 0.127 0.339 0 0.818 0 1.637 0 2.469-0.042 1.34-1.129 2.596-2.483 2.765-0.367 0.056-0.734 0.014-1.086-0.085-0.677-0.198-1.242-0.649-1.623-1.227-0.31-0.466-0.466-1.030-0.48-1.594 0-0.776 0-1.538 0-2.314 0.014-0.212 0.099-0.423 0.282-0.437zM20.035 12.882c0.141-0.042 0.31-0.071 0.451 0.014 0.31 0.268 0.564 0.578 0.861 0.847 0.959 0.959 1.933 1.933 2.892 2.892 0.155 0.141 0.296 0.296 0.451 0.423 0.014-1.27 0-2.554 0-3.838-0.014-0.155 0.071-0.31 0.226-0.353 0.155-0.028 0.339-0.042 0.466 0.071 0.113 0.099 0.113 0.268 0.113 0.395 0 1.552 0 3.118 0 4.67-0.014 0.141 0 0.31-0.127 0.423-0.113 0.099-0.282 0.113-0.423 0.071-0.113-0.042-0.198-0.127-0.282-0.212-0.564-0.564-1.129-1.115-1.679-1.679-0.494-0.48-0.959-0.974-1.453-1.439-0.296-0.282-0.578-0.593-0.889-0.875 0 1.284 0 2.568 0 3.852 0 0.141-0.071 0.268-0.198 0.339-0.155 0.056-0.367 0.056-0.508-0.056-0.113-0.113-0.113-0.282-0.127-0.423 0-1.552 0-3.104 0-4.656 0.028-0.169 0.056-0.395 0.226-0.466zM2.441 12.966c0.48-0.141 0.988-0.155 1.481-0.042 0.903 0.198 1.679 0.889 2.004 1.75 0.282 0.79 0.226 1.707-0.198 2.441-0.056 0.099-0.141 0.169-0.155 0.282 0.127 0.113 0.24 0.226 0.353 0.353 0.085 0.085 0.183 0.198 0.183 0.325 0.014 0.169-0.127 0.296-0.254 0.381-0.113 0.085-0.282 0.071-0.381-0.028-0.169-0.141-0.31-0.31-0.48-0.466-0.056-0.014-0.085 0.042-0.141 0.056-0.578 0.409-1.312 0.55-1.989 0.451-1.284-0.155-2.37-1.326-2.413-2.624-0.042-0.536 0.071-1.072 0.325-1.538 0.367-0.621 0.959-1.129 1.665-1.34zM1.256 15.464c-0.042 0.451 0.056 0.917 0.31 1.298 0.24 0.381 0.607 0.677 1.044 0.832 0.578 0.198 1.256 0.127 1.778-0.212-0.042-0.042-0.071-0.085-0.113-0.127-0.409-0.409-0.818-0.818-1.228-1.227-0.085-0.085-0.169-0.198-0.141-0.339 0.042-0.155 0.155-0.282 0.296-0.353s0.31-0.014 0.423 0.099c0.395 0.381 0.776 0.776 1.171 1.171 0.071 0.071 0.127 0.141 0.212 0.183 0.268-0.423 0.367-0.931 0.296-1.411-0.141-0.959-1.044-1.735-2.018-1.693-1.030-0.056-1.947 0.804-2.032 1.778zM14.998 12.868c0.536-0.071 1.086-0.014 1.58 0.226 0.55 0.254 1.016 0.691 1.312 1.213 0.339 0.607 0.423 1.326 0.282 1.989-0.141 0.705-0.607 1.326-1.185 1.735-0.945 0.649-2.314 0.635-3.231-0.056-0.451-0.325-0.818-0.776-1.002-1.312-0.24-0.677-0.226-1.453 0.042-2.116 0.381-0.875 1.227-1.566 2.201-1.679zM15.055 13.686c-0.55 0.085-1.044 0.423-1.354 0.889-0.325 0.48-0.395 1.101-0.254 1.651 0.127 0.48 0.466 0.903 0.889 1.171 0.48 0.31 1.086 0.381 1.637 0.226 0.536-0.155 0.988-0.536 1.242-1.030 0.198-0.381 0.24-0.847 0.183-1.27-0.113-0.649-0.578-1.227-1.171-1.496-0.367-0.169-0.776-0.183-1.171-0.141zM18.836 12.882c0.127-0.042 0.268-0.042 0.409 0 0.155 0.056 0.198 0.24 0.198 0.381 0 1.552 0 3.118 0 4.67 0 0.155 0.014 0.339-0.085 0.466-0.212 0.226-0.734 0.155-0.734-0.212 0-1.651 0-3.302 0-4.952 0-0.155 0.085-0.296 0.212-0.353zM26.145 12.868c0.056-0.028 0.113-0.014 0.169-0.028 1.637 0 3.273 0 4.91 0 0.155 0 0.31 0.113 0.339 0.268s0.028 0.353-0.099 0.466c-0.155 0.113-0.353 0.099-0.522 0.099-1.538 0-3.062 0-4.586 0-0.155 0-0.325-0.042-0.395-0.183-0.113-0.212-0.071-0.536 0.183-0.621zM26.116 15.309c0.113-0.056 0.254-0.042 0.381-0.042 1.566 0 3.132 0 4.698 0 0.155 0 0.325 0.071 0.367 0.226 0.042 0.127 0.042 0.282-0.028 0.409-0.071 0.141-0.226 0.183-0.381 0.183-1.608 0-3.203 0-4.811 0-0.155 0-0.353-0.056-0.409-0.212-0.071-0.183-0.028-0.48 0.183-0.564zM26.145 17.721c0.042-0.028 0.113-0.014 0.169-0.028 1.623 0 3.259 0 4.882 0 0.169 0 0.339 0.085 0.367 0.268 0.028 0.155 0.028 0.367-0.113 0.48-0.127 0.099-0.296 0.071-0.437 0.071-1.566 0-3.132 0-4.698 0-0.155 0-0.325-0.056-0.367-0.226-0.085-0.183-0.042-0.494 0.198-0.564z"></path>
</svg>
