<!-- Generated by IcoMoon.io -->
<svg version="1.1" xmlns="http://www.w3.org/2000/svg" width="32" height="32" viewBox="0 0 32 32">
<title>RADS</title>
<path d="M24.834 14.614c4.036 0 7.307-3.271 7.307-7.307s-3.271-7.307-7.307-7.307-7.307 3.271-7.307 7.307c0 5.566-4.512 10.079-10.079 10.079-4.036 0-7.307 3.272-7.307 7.307s3.271 7.307 7.307 7.307 7.307-3.271 7.307-7.307c0-5.567 4.513-10.079 10.079-10.079zM24.834 5.104c1.216 0 2.203 0.986 2.203 2.203s-0.986 2.203-2.203 2.203-2.203-0.986-2.203-2.203 0.986-2.203 2.203-2.203zM7.448 26.896c-1.217 0-2.203-0.986-2.203-2.203s0.986-2.203 2.203-2.203 2.203 0.986 2.203 2.203c0 1.216-0.986 2.203-2.203 2.203z"></path>
<path d="M24.834 17.386c-4.036 0-7.307 3.271-7.307 7.307s3.271 7.307 7.307 7.307 7.307-3.271 7.307-7.307-3.271-7.307-7.307-7.307zM24.834 26.896c-1.216 0-2.203-0.986-2.203-2.203s0.986-2.203 2.203-2.203 2.203 0.986 2.203 2.203-0.986 2.203-2.203 2.203zM7.448 14.614c4.036 0 7.307-3.271 7.307-7.307s-3.271-7.307-7.307-7.307-7.307 3.271-7.307 7.307 3.271 7.307 7.307 7.307zM7.448 5.104c1.216 0 2.203 0.986 2.203 2.203s-0.986 2.203-2.203 2.203-2.203-0.986-2.203-2.203 0.986-2.203 2.203-2.203z"></path>
</svg>
