<!-- Generated by IcoMoon.io -->
<svg version="1.1" xmlns="http://www.w3.org/2000/svg" width="32" height="32" viewBox="0 0 32 32">
<title>RBIES</title>
<path d="M15.962 15.568l2.845-2.443-2.845-1.251-2.845 1.251zM20.283 11.859h-3.524l2.331 1.025zM12.188 15.622l0.377-2.141-2.733 2.141zM19.719 15.956l-1.759 5.622 4.279-5.622zM12.92 13.398l-0.392 2.224h2.982zM13.965 21.578l-1.759-5.622h-2.52zM22.456 15.481l0.456-2.911-2.139-0.69-1.391 1.194zM24.701 15.622l-1.511-2.667-0.418 2.667zM15.751 15.956h-3.195l1.829 5.847zM17.539 21.803l1.829-5.847h-3.195zM26.574 15.622l-2.864-2.43 1.377 2.43zM22.092 15.622l-2.733-2.141 0.378 2.141zM16.414 15.622h2.982l-0.392-2.224zM9.152 15.622l-0.418-2.667-1.511 2.667zM17.667 22.517l-1.33 4.25 3.203-3.361 2.48-6.608zM22.693 15.956l-2.372 6.319 4.348-6.319zM15.962 16.525l-1.38 5.908 1.38 4.409 1.38-4.41z"></path>
<path d="M20.885 10.743h-9.845l-2.685 0.867-4.84 4.107 12.448 13.062 12.447-13.062-4.84-4.107-2.685-0.867zM27.142 15.666c0.004 0.004 0.008 0.008 0.013 0.013s0.007 0.007 0.010 0.012c0.006 0.008 0.011 0.017 0.016 0.027l0.001 0.001c0.003 0.006 0.004 0.011 0.006 0.017 0.002 0.005 0.003 0.009 0.004 0.014s0.002 0.012 0.003 0.018c0 0.004 0.002 0.008 0.002 0.012 0 0.001-0 0.003-0 0.004s0 0.003 0 0.004c0 0.005-0.001 0.009-0.001 0.013s-0.001 0.011-0.002 0.016c-0.001 0.006-0.003 0.012-0.005 0.018-0.002 0.005-0.003 0.010-0.005 0.014-0.003 0.007-0.005 0.012-0.008 0.018l0-0.001c-0.002 0.004-0.004 0.008-0.007 0.013-0.004 0.005-0.008 0.010-0.012 0.015-0.003 0.003-0.005 0.007-0.007 0.010l-11.067 11.614c-0.011 0.011-0.023 0.020-0.035 0.028l-0.001 0c-0.002 0.001-0.005 0.002-0.007 0.003-0.008 0.005-0.017 0.009-0.027 0.012l-0.001 0c-0.004 0.001-0.007 0.003-0.011 0.003-0.011 0.003-0.025 0.005-0.038 0.006h-0.001c-0.014-0-0.027-0.002-0.040-0.006l0.001 0c-0.004-0.001-0.007-0.002-0.011-0.003-0.011-0.004-0.021-0.008-0.029-0.013l0.001 0c-0.002-0.001-0.004-0.001-0.006-0.003-0.001-0-0.001-0.001-0.003-0.002-0.013-0.008-0.024-0.017-0.034-0.026l0 0-11.067-11.614c-0.003-0.003-0.005-0.007-0.008-0.010-0.004-0.005-0.008-0.009-0.011-0.015s-0.005-0.009-0.007-0.013c-0.003-0.006-0.006-0.011-0.008-0.017-0.002-0.005-0.003-0.009-0.004-0.014s-0.003-0.011-0.004-0.017l-0-0.001c-0.001-0.005-0.001-0.011-0.001-0.016s-0.001-0.008-0.001-0.013c0-0.002 0-0.003 0-0.004s-0-0.003-0-0.004c0-0.004 0.001-0.008 0.002-0.012 0.001-0.006 0.002-0.012 0.003-0.018s0.003-0.010 0.005-0.015l-0 0.001c0.002-0.006 0.004-0.012 0.006-0.017s0.005-0.009 0.007-0.013c0.003-0.005 0.006-0.010 0.009-0.015 0.007-0.009 0.014-0.017 0.022-0.024l0-0c0.002-0.002 0.003-0.003 0.005-0.005l3.93-3.334c0.002-0.002 0.006-0.003 0.008-0.004 0.013-0.010 0.027-0.018 0.041-0.023 0.003-0.001 0.005-0.003 0.007-0.004l2.364-0.763c0.001-0 0.002-0 0.003-0.001 0.014-0.004 0.029-0.006 0.043-0.007 0.002-0 0.003-0.001 0.005-0.001h9.546c0.002 0 0.003 0 0.004 0 0.015 0.001 0.030 0.003 0.044 0.007l0.003 0.001 2.364 0.763c0.003 0.001 0.005 0.004 0.008 0.005 0.014 0.005 0.027 0.012 0.039 0.021 0.003 0.002 0.007 0.003 0.010 0.006l3.93 3.334c0.002 0.001 0.003 0.003 0.005 0.005l0 0z"></path>
<path d="M15.166 11.859h-3.524l1.194 1.025zM21.017 21.856l5.622-5.899h-1.563zM9.905 16.798l2.48 6.608 3.203 3.361-1.33-4.25zM12.542 13.074l-1.391-1.194-2.139 0.69 0.456 2.911zM8.215 13.192l-2.864 2.43h1.487zM5.286 15.956l5.622 5.899-4.060-5.899zM7.255 15.956l4.348 6.319-2.372-6.319zM1.664 21.299l-1.507 0.373c-0.123 0.031-0.212 0.14-0.212 0.271 0 0.024 0.003 0.047 0.009 0.069l-0-0.002c0.031 0.123 0.14 0.212 0.271 0.212h0c0.022 0 0.045-0.003 0.067-0.009l1.507-0.372c0.123-0.031 0.212-0.141 0.212-0.271 0-0.024-0.003-0.047-0.008-0.069l0 0.002c-0.031-0.123-0.141-0.212-0.271-0.212-0.024 0-0.046 0.003-0.068 0.008l0.002-0zM2.091 13.936l-1.507-0.463c-0.024-0.008-0.052-0.012-0.081-0.012-0.154 0-0.279 0.125-0.279 0.279 0 0.125 0.082 0.23 0.194 0.266l0.002 0.001 1.507 0.463c0.025 0.008 0.053 0.012 0.082 0.012 0.154 0 0.279-0.125 0.279-0.279 0-0.125-0.082-0.231-0.195-0.266l-0.002-0.001zM5.661 8.091c0.051 0.052 0.121 0.084 0.2 0.084 0.154 0 0.279-0.125 0.279-0.279 0-0.076-0.030-0.144-0.079-0.195l0 0-1.098-1.125c-0.050-0.048-0.118-0.077-0.192-0.077-0.154 0-0.279 0.125-0.279 0.279 0 0.072 0.027 0.138 0.072 0.187l-0-0 1.098 1.125zM12.025 4.335c0.034 0.118 0.141 0.203 0.268 0.203h0c0.025 0 0.051-0.004 0.076-0.011 0.118-0.034 0.203-0.141 0.203-0.269 0-0.027-0.004-0.053-0.011-0.078l0.001 0.002-0.433-1.535c-0.035-0.117-0.142-0.201-0.268-0.201-0.154 0-0.279 0.125-0.279 0.279 0 0.026 0.004 0.052 0.010 0.076l-0-0.002 0.433 1.535zM31.768 21.672l-1.507-0.373c-0.020-0.005-0.043-0.008-0.067-0.008-0.13 0-0.24 0.089-0.271 0.21l-0 0.002c-0.005 0.020-0.008 0.043-0.008 0.067 0 0.13 0.089 0.24 0.21 0.271l0.002 0 1.507 0.372c0.022 0.006 0.045 0.009 0.067 0.009 0.125 0 0.239-0.085 0.271-0.212 0.005-0.020 0.008-0.043 0.008-0.067 0-0.13-0.089-0.24-0.21-0.27l-0.002-0zM31.504 14.007c0.115-0.036 0.197-0.142 0.197-0.267 0-0.154-0.125-0.279-0.279-0.279-0.029 0-0.057 0.005-0.084 0.013l0.002-0.001-1.507 0.463c-0.115 0.037-0.196 0.142-0.196 0.267 0 0.154 0.124 0.278 0.278 0.279h0c0.027 0 0.055-0.004 0.082-0.012l1.507-0.463zM26.064 8.175c0.073 0 0.145-0.028 0.2-0.084l1.098-1.125c0.054-0.051 0.087-0.123 0.087-0.202 0-0.154-0.125-0.279-0.279-0.279-0.082 0-0.156 0.035-0.207 0.092l-0 0-1.097 1.125c-0.049 0.050-0.079 0.119-0.079 0.195 0 0.078 0.032 0.149 0.084 0.2l0 0c0.050 0.049 0.119 0.079 0.195 0.079 0 0 0 0 0 0v0zM19.555 4.528c0.025 0.007 0.051 0.011 0.076 0.011 0.122 0 0.234-0.081 0.269-0.203l0.433-1.535c0.007-0.023 0.010-0.049 0.010-0.076 0-0.127-0.085-0.234-0.201-0.268l-0.002-0.001c-0.023-0.007-0.049-0.010-0.076-0.010-0.127 0-0.234 0.085-0.268 0.201l-0 0.002-0.433 1.535c-0.007 0.023-0.010 0.049-0.010 0.076 0 0.127 0.085 0.234 0.201 0.268l0.002 0z"></path>
</svg>
