<!-- Generated by IcoMoon.io -->
<svg version="1.1" xmlns="http://www.w3.org/2000/svg" width="32" height="32" viewBox="0 0 32 32">
<title>RBT</title>
<path d="M13.117 15.888h3.326c2.807 0 2.807-1.118 2.807-2.016 0-2.017-1.446-2.017-2.064-2.017h-14.272c-0.047 0.42-0.075 0.907-0.075 1.4v0.001c0 3.661 1.482 6.974 3.883 9.372l-0.002 0.001 9.373 9.371 3.321-3.32-6.298-12.791z"></path>
<path d="M29.348 13.255c0-7.321-5.935-13.255-13.254-13.255-5.341 0-9.93 3.165-12.030 7.715h13.122c4.285 0 6.204 3.093 6.204 6.157 0 2.826-1.396 4.818-3.856 5.679l2.971 6.038 2.959-2.961c2.401-2.398 3.883-5.711 3.883-9.372z"></path>
</svg>
