<!-- Generated by IcoMoon.io -->
<svg version="1.1" xmlns="http://www.w3.org/2000/svg" width="32" height="32" viewBox="0 0 32 32">
<title>RBY</title>
<path d="M12.817 28.94c-5.802-1.435-10.104-6.673-10.104-12.918s4.302-11.483 10.104-12.918v-2.783c-7.313 1.485-12.817 7.95-12.817 15.7s5.504 14.216 12.817 15.701v-2.783zM14.979 2.757c0.345-0.027 0.692-0.044 1.043-0.044 0.532 0 1.056 0.032 1.572 0.092v-2.728c-0.517-0.051-1.041-0.078-1.572-0.078-0.351 0-0.698 0.015-1.043 0.038v2.72z"></path>
<path d="M19.756 0.442v2.804c3.883 1.134 7.032 3.988 8.564 7.684h-3.050c-1.798-3.257-5.265-5.465-9.248-5.465-5.83 0-10.557 4.727-10.557 10.557s4.727 10.557 10.557 10.557c4.403 0 8.175-2.696 9.758-6.527h2.928c-1.335 4.207-4.704 7.508-8.952 8.748v2.802c7.047-1.683 12.288-8.018 12.288-15.58s-5.241-13.897-12.288-15.58zM18.517 22.883l-3.086-4.384h-5.151v-2.693h6.035c1.474 0 2.005-0.924 2.005-2.025s-0.668-2.104-2.162-2.104h-5.878v-2.516h6.192c1.966 0 5.072 0.865 5.072 4.522s-2.752 4.384-2.752 4.384l3.539 4.816h-3.814z"></path>
<path d="M17.593 29.238c-0.471 0.059-1.017 0.093-1.571 0.093h-0c-0.351 0-0.699-0.018-1.043-0.044v2.72c0.345 0.022 0.692 0.038 1.043 0.038 0.53 0 1.054-0.027 1.572-0.078v-2.728z"></path>
</svg>
