<?xml version="1.0" encoding="utf-8"?>
<!-- Generator: Adobe Illustrator 22.0.1, SVG Export Plug-In . SVG Version: 6.00 Build 0)  -->
<svg version="1.1" id="Layer_1" xmlns="http://www.w3.org/2000/svg" xmlns:xlink="http://www.w3.org/1999/xlink" x="0px" y="0px"
	 viewBox="0 0 226.8 226.8" style="enable-background:new 0 0 226.8 226.8;" xml:space="preserve">
<style type="text/css">
	.st0{stroke:#FFFFFF;stroke-miterlimit:10;}
</style>
<path class="st0" d="M96.7,16.6c8.6-1.6,17.5-1.4,26.2-1c10.1,1.2,20.2,3.4,29.4,7.6c18.5,7.8,34.3,21.5,44.9,38.5
	c4,5.9,6.7,12.5,9.4,19.1c2.5-4,4.7-8.3,6.9-12.5c0.9-2,2.9-3.5,5.2-3.4c3.1-0.3,6.1,2.2,6.3,5.3c0.3,2.5-1.3,4.6-2.3,6.8
	c-3.2,6.5-7.3,12.5-11.5,18.4c-0.8,0.9-0.5,2-0.4,3.1c4.7,28.3-4.3,58.3-23.4,79.6c-10.9,12.4-24.9,21.9-40.4,27.6
	c-17.9,6.3-37.5,7.8-56,3.3c-26.8-5.9-50.5-23.8-63.9-47.6c-2.9-4.8-4.8-10.2-7.1-15.3c-2.5,4-4.7,8.1-6.9,12.3
	c-1,2.1-3.1,3.5-5.4,3.7c-3.9,0-7.4-4.2-5.8-8c3.3-7.8,7.9-15,13-21.7c1.1-1.2,0.9-2.8,0.7-4.3c-1.8-12.4-1.4-25.1,1.6-37.3
	c7.8-34.3,35.9-63,69.9-71.9C90.4,18,93.5,17.2,96.7,16.6 M72.7,37.4c-18,9.6-32.5,25.7-40,44.7c-4.3,11.5-6.6,23.8-5.9,36.1
	c1.9-1.5,3.7-3,5.4-4.7c10.1-9.2,21.9-16.3,34.3-21.9c23-10.6,48.3-15.2,73.5-16.4c-8.5-9-17.7-17.2-26.2-26.2
	c2.7-3,5.6-5.8,8.5-8.5c3.3,3,6.3,6.3,9.6,9.4c10.5,10.6,21.2,20.8,31.5,31.6c-11,11.1-22.2,22-33.2,33.1c-0.9,0.9-1.9,1.7-2.9,2.5
	c-2.8-2.8-6-5.3-8.2-8.6c6.7-7.2,14.4-13.5,20.9-20.9c-11.6,0.2-23.1,1.8-34.5,4.1c-9.2,1.7-18,4.8-26.8,7.8
	c-18.5,7-35.5,18.2-48.4,33.2c-0.8,0.8-0.7,1.9-0.5,2.9c1.5,6.7,4.4,12.9,7.6,19c10.5,19.2,28.5,34,49.3,40.7
	c12.2,3.8,25.1,5.3,37.8,3.5c17.6-2.2,34.4-10,47.5-22c19-17,29.6-42.8,27.9-68.2c-2,1.6-3.8,3.4-5.7,5.1
	c-12.7,11.1-27.3,19.7-43.1,25.5c-20.5,7.7-42.4,11.7-64.3,12.4c1.9,2.5,4.3,4.7,6.5,6.9c6.6,6.5,13,13.1,19.7,19.4
	c-2.6,3.1-5.5,5.7-8.4,8.5c-2.8-2.3-5.3-5.1-7.9-7.6c-9.9-9.8-19.7-19.6-29.6-29.4c-1.3-1.3-2.7-2.6-3.8-4.1
	c4.3-4.7,9.2-8.7,13.6-13.3c7.5-7.4,14.8-15,22.4-22.3c2.8,2.8,5.8,5.5,8.4,8.6c-6.8,7.1-14,13.8-20.8,20.9
	c7.5,0.4,14.9-0.9,22.4-1.7c5.4-0.6,10.7-1.8,16-2.9c27.3-6.4,53.9-19.6,72.2-41.3c-7-30.8-32.8-56.2-63.5-63.3
	C113.6,24.5,91.3,27.5,72.7,37.4z"/>
</svg>
