<!-- Generated by IcoMoon.io -->
<svg version="1.1" xmlns="http://www.w3.org/2000/svg" width="32" height="32" viewBox="0 0 32 32">
<title>RCN</title>
<path d="M13.644 2.342c1.213-0.226 2.469-0.198 3.697-0.141 1.425 0.169 2.85 0.48 4.148 1.072 2.61 1.101 4.84 3.034 6.335 5.432 0.564 0.832 0.945 1.764 1.326 2.695 0.353-0.564 0.663-1.171 0.974-1.764 0.127-0.282 0.409-0.494 0.734-0.48 0.437-0.042 0.861 0.31 0.889 0.748 0.042 0.353-0.183 0.649-0.325 0.959-0.451 0.917-1.030 1.764-1.623 2.596-0.113 0.127-0.071 0.282-0.056 0.437 0.663 3.993-0.607 8.226-3.302 11.231-1.538 1.75-3.513 3.090-5.7 3.894-2.526 0.889-5.291 1.101-7.901 0.466-3.781-0.832-7.125-3.358-9.016-6.716-0.409-0.677-0.677-1.439-1.002-2.159-0.353 0.564-0.663 1.143-0.974 1.735-0.141 0.296-0.437 0.494-0.762 0.522-0.55 0-1.044-0.593-0.818-1.129 0.466-1.101 1.115-2.116 1.834-3.062 0.155-0.169 0.127-0.395 0.099-0.607-0.254-1.75-0.198-3.541 0.226-5.263 1.101-4.84 5.065-8.889 9.862-10.145 0.466-0.127 0.903-0.24 1.354-0.325M10.258 5.277c-2.54 1.354-4.586 3.626-5.644 6.307-0.607 1.623-0.931 3.358-0.832 5.093 0.268-0.212 0.522-0.423 0.762-0.663 1.425-1.298 3.090-2.3 4.84-3.090 3.245-1.496 6.815-2.145 10.37-2.314-1.199-1.27-2.497-2.427-3.697-3.697 0.381-0.423 0.79-0.818 1.199-1.199 0.466 0.423 0.889 0.889 1.355 1.326 1.481 1.496 2.991 2.935 4.444 4.459-1.552 1.566-3.132 3.104-4.684 4.67-0.127 0.127-0.268 0.24-0.409 0.353-0.395-0.395-0.847-0.748-1.157-1.213 0.945-1.016 2.032-1.905 2.949-2.949-1.637 0.028-3.259 0.254-4.868 0.578-1.298 0.24-2.54 0.677-3.781 1.101-2.61 0.988-5.009 2.568-6.829 4.684-0.113 0.113-0.099 0.268-0.071 0.409 0.212 0.945 0.621 1.82 1.072 2.681 1.481 2.709 4.021 4.797 6.956 5.742 1.721 0.536 3.541 0.748 5.333 0.494 2.483-0.31 4.854-1.411 6.702-3.104 2.681-2.399 4.176-6.039 3.936-9.623-0.282 0.226-0.536 0.48-0.804 0.72-1.792 1.566-3.852 2.78-6.081 3.598-2.892 1.086-5.982 1.651-9.072 1.75 0.268 0.353 0.607 0.663 0.917 0.974 0.931 0.917 1.834 1.848 2.78 2.737-0.367 0.437-0.776 0.804-1.185 1.199-0.395-0.325-0.748-0.72-1.115-1.072-1.397-1.383-2.78-2.765-4.176-4.148-0.183-0.183-0.381-0.367-0.536-0.578 0.607-0.663 1.298-1.227 1.919-1.877 1.058-1.044 2.088-2.116 3.16-3.146 0.395 0.395 0.818 0.776 1.185 1.213-0.959 1.002-1.975 1.947-2.935 2.949 1.058 0.056 2.102-0.127 3.16-0.24 0.762-0.085 1.51-0.254 2.258-0.409 3.852-0.903 7.605-2.765 10.187-5.827-0.988-4.346-4.628-7.929-8.959-8.931-2.878-0.776-6.025-0.353-8.649 1.044z"></path>
</svg>
