<?xml version="1.0" encoding="utf-8"?>
<!-- Generator: Adobe Illustrator 22.0.1, SVG Export Plug-In . SVG Version: 6.00 Build 0)  -->
<svg version="1.1" id="Layer_1" xmlns="http://www.w3.org/2000/svg" xmlns:xlink="http://www.w3.org/1999/xlink" x="0px" y="0px"
	 viewBox="0 0 226.8 226.8" style="enable-background:new 0 0 226.8 226.8;" xml:space="preserve">
<g transform="translate(-346)">
	<path d="M381.4,0.1H474c1.1-0.3,1.7,0.7,2.4,1.2c8.8,8.1,16.5,17.3,23.3,27.1c9.6,13.7,17.3,28.8,22.5,44.7
		c5.5,16.8,8.1,34.6,7.4,52.3c-15.7,0-31.4,0-47.2,0c0.3-2.3,0.3-4.7,0.3-7.1c-0.5-16.7-5.7-33-13.8-47.5
		c-8.7-15.5-20.9-28.9-34.8-40c-15.1-12.1-32.1-21.7-49.8-29.4C383.4,1,382.4,0.6,381.4,0.1z"/>
	<path d="M415.7,83.2c15.8,28.5,31.6,56.9,47.4,85.4c3.8,6.9,7.6,13.7,11.4,20.6c-19.6,12.5-39.2,25.1-58.8,37.6
		C415.7,178.9,415.7,131,415.7,83.2"/>
</g>
</svg>
