<!-- Generated by IcoMoon.io -->
<svg version="1.1" xmlns="http://www.w3.org/2000/svg" width="32" height="32" viewBox="0 0 32 32">
<title>RDN</title>
<path d="M4.995 0.014h13.065c0.155-0.042 0.24 0.099 0.339 0.169 1.242 1.143 2.328 2.441 3.287 3.824 1.355 1.933 2.441 4.064 3.175 6.307 0.776 2.37 1.143 4.882 1.044 7.379-2.215 0-4.43 0-6.66 0 0.042-0.325 0.042-0.663 0.042-1.002-0.071-2.356-0.804-4.656-1.947-6.702-1.227-2.187-2.949-4.078-4.91-5.644-2.13-1.707-4.529-3.062-7.026-4.148-0.127-0.056-0.268-0.113-0.409-0.183z"></path>
<path d="M9.834 11.739c2.229 4.021 4.459 8.028 6.688 12.049 0.536 0.974 1.072 1.933 1.608 2.907-2.765 1.764-5.531 3.541-8.296 5.305 0-6.758 0-13.517 0-20.261z"></path>
</svg>
