<!-- Generated by IcoMoon.io -->
<svg version="1.1" xmlns="http://www.w3.org/2000/svg" width="32" height="32" viewBox="0 0 32 32">
<title>REMITANO</title>
<path d="M21.587 15.252c0.071 0.113 0.071 0.155 0.085 0.155 2.258 0.748 2.667 2.61 2.667 4.628 0.014 3.711-0.071 7.422-0.099 11.146 0 0.437-0.141 0.635-0.607 0.635-1.862-0.014-3.711-0.028-5.573 0-0.607 0.014-0.607-0.339-0.607-0.762 0-3.697 0-7.379 0-11.076 0-0.282 0-0.564-0.014-0.847-0.056-1.256-1.143-2.046-2.356-1.679-0.141 0.042-0.296 0.339-0.31 0.522-0.028 0.917-0.014 1.834-0.014 2.751 0 3.429-0.014 6.871 0.014 10.3 0 0.621-0.183 0.818-0.804 0.804-1.834-0.042-3.668-0.028-5.503 0-0.564 0.014-0.734-0.183-0.734-0.734 0.042-10.074 0.042-20.106 0.028-30.152 0-0.593 0.212-0.762 0.776-0.748 3.344 0.028 6.674 0 10.018 0.014 0.578 0 1.171 0.071 1.75 0.183 2.116 0.423 3.471 1.651 3.979 3.795 0.578 2.384 0.649 4.783 0.353 7.21-0.24 1.862-1.256 3.146-3.048 3.852zM14.801 9.016c0 0 0 0 0 0 0 0.494-0.014 0.988 0 1.481 0.028 1.608-0.24 1.467 1.467 1.467 0.974 0 1.467-0.31 1.566-1.256 0.113-1.101 0.071-2.229 0-3.344-0.042-0.635-0.522-1.044-1.157-1.171-0.409-0.085-0.832-0.127-1.256-0.169-0.451-0.056-0.635 0.155-0.621 0.607 0.014 0.776 0 1.58 0 2.384z"></path>
</svg>
