<!-- Generated by IcoMoon.io -->
<svg version="1.1" xmlns="http://www.w3.org/2000/svg" width="32" height="32" viewBox="0 0 32 32">
<title>REN</title>
<path d="M20.162 14.914c-0.099-0.183-0.212-0.353-0.325-0.55-4.529 2.624-9.058 5.235-13.587 7.845-0.113-0.183-0.212-0.353-0.325-0.55-1.354 0.776-2.709 1.566-4.078 2.356 0-0.127-0.014-0.212 0-0.296 0.014-0.056 0.071-0.113 0.127-0.141 1.199-0.691 2.399-1.397 3.612-2.088 4.783-2.765 9.566-5.531 14.349-8.296 3.118-1.806 6.236-3.598 9.34-5.404 0.113-0.071 0.212-0.071 0.325 0 0.169 0.113 0.353 0.212 0.522 0.31 0.085 0.042 0.113 0.085 0.113 0.183-0.014 0.226-0.014 0.437 0 0.663 0 0.113-0.042 0.169-0.141 0.226-1.51 0.875-3.034 1.75-4.543 2.624-1.764 1.016-3.527 2.032-5.291 3.062-0.014 0.028-0.056 0.042-0.099 0.056z"></path>
<path d="M3.287 25.397c8.974-5.192 17.961-10.37 26.949-15.563 0 0.071 0 0.099 0 0.141 0 0.522 0 1.044 0 1.566 0 0.099-0.028 0.155-0.127 0.212-2.328 1.34-4.656 2.681-6.984 4.035-0.945 0.55-1.891 1.086-2.836 1.637-0.056 0.042-0.127 0.071-0.212 0.113-0.113-0.183-0.212-0.353-0.325-0.55-4.529 2.61-9.044 5.22-13.573 7.831-0.113-0.183-0.212-0.353-0.325-0.55-0.127 0.071-0.24 0.141-0.353 0.198-0.564 0.325-1.129 0.649-1.679 0.974-0.254 0.169-0.254 0.169-0.536-0.042z"></path>
<path d="M30.25 12.416c0 0.607 0 1.185 0 1.764 0 0.056-0.071 0.113-0.127 0.155-0.818 0.48-1.623 0.945-2.441 1.411-2.483 1.425-4.952 2.864-7.436 4.289-0.042 0.028-0.085 0.042-0.141 0.085-0.113-0.183-0.212-0.353-0.325-0.55-3.767 2.173-7.534 4.346-11.302 6.519-0.113-0.183-0.212-0.353-0.325-0.55-0.056 0.028-0.099 0.042-0.141 0.071-0.649 0.381-1.298 0.748-1.947 1.129-0.268 0.155-0.268 0.155-0.536-0.056 8.226-4.741 16.451-9.496 24.72-14.265z"></path>
<path d="M1.862 21.432c-0.056-0.254 0.014-0.381 0.226-0.508 4.698-2.709 9.397-5.418 14.095-8.141 3.64-2.102 7.28-4.205 10.921-6.307 0.042-0.028 0.127-0.042 0.169-0.014 0.508 0.282 1.002 0.578 1.538 0.875-2.892 1.679-5.771 3.33-8.649 4.995-0.113-0.183-0.212-0.367-0.325-0.55-4.529 2.61-9.058 5.235-13.587 7.845-0.113-0.183-0.212-0.367-0.325-0.55-1.354 0.804-2.709 1.58-4.064 2.356z"></path>
<path d="M7.76 27.979c7.492-4.317 14.97-8.649 22.476-12.981 0 0.056 0.014 0.099 0.014 0.127 0 0.522 0 1.030 0 1.552 0 0.127-0.042 0.183-0.141 0.24-1.919 1.101-3.852 2.215-5.771 3.33-1.355 0.79-2.723 1.566-4.078 2.356-0.042 0.028-0.085 0.056-0.155 0.085-0.113-0.183-0.212-0.353-0.325-0.55-3.019 1.75-6.039 3.485-9.058 5.235-0.113-0.183-0.212-0.367-0.31-0.55-0.042 0.014-0.085 0.042-0.113 0.056-0.663 0.381-1.326 0.762-1.975 1.143-0.296 0.169-0.296 0.169-0.564-0.042z"></path>
<path d="M26.582 6.053c-2.892 1.679-5.771 3.33-8.649 4.995-0.113-0.183-0.212-0.353-0.325-0.55-3.781 2.187-7.563 4.374-11.358 6.561-0.113-0.183-0.212-0.367-0.325-0.55-1.354 0.79-2.709 1.566-4.049 2.342-0.071-0.296-0.056-0.339 0.183-0.48 5.15-2.977 10.286-5.94 15.436-8.917 2.427-1.411 4.868-2.808 7.295-4.219 0.141-0.085 0.24-0.085 0.381 0 0.451 0.282 0.917 0.536 1.411 0.818z"></path>
<path d="M30.25 17.58c0 0.085 0 0.127 0 0.183 0 0.508 0 1.002 0 1.51 0 0.127-0.028 0.183-0.141 0.24-1.721 0.988-3.443 1.989-5.164 2.977-1.566 0.903-3.132 1.806-4.698 2.709-0.042 0.028-0.085 0.056-0.141 0.085-0.099-0.183-0.212-0.353-0.325-0.55-2.272 1.312-4.543 2.624-6.829 3.951-0.113-0.183-0.212-0.367-0.325-0.55-0.127 0.071-0.226 0.127-0.339 0.198-0.593 0.339-1.171 0.677-1.764 1.016-0.254 0.141-0.254 0.155-0.522-0.071 6.744-3.908 13.474-7.802 20.247-11.697z"></path>
<path d="M6.25 14.476c-0.113-0.183-0.212-0.367-0.325-0.55-1.354 0.776-2.709 1.566-4.064 2.342-0.056-0.339-0.056-0.339 0.254-0.522 5.785-3.33 11.584-6.674 17.369-10.018 1.044-0.607 2.074-1.199 3.118-1.806 0.099-0.056 0.183-0.071 0.282 0 0.48 0.282 0.959 0.55 1.467 0.847-2.907 1.679-5.799 3.358-8.72 5.037-0.113-0.183-0.212-0.353-0.325-0.55-3.019 1.735-6.039 3.485-9.058 5.22z"></path>
<path d="M15.182 29.968c-0.113-0.183-0.212-0.367-0.325-0.55-0.282 0.169-0.564 0.325-0.832 0.48-0.409 0.24-0.847 0.466-1.242 0.734-0.212 0.141-0.367 0.113-0.55-0.071 5.996-3.471 11.993-6.928 18.018-10.399 0 0.409 0 0.776 0 1.157 0 0.183-0.014 0.367 0 0.55 0 0.113-0.028 0.169-0.127 0.226-1.242 0.72-2.483 1.439-3.725 2.159-2.046 1.185-4.092 2.356-6.138 3.541-0.042 0.028-0.099 0.056-0.155 0.085-0.113-0.183-0.212-0.353-0.325-0.55-1.538 0.861-3.062 1.75-4.6 2.638z"></path>
<path d="M22.109 3.485c-2.907 1.679-5.813 3.344-8.705 5.023-0.113-0.183-0.212-0.367-0.325-0.55-2.272 1.312-4.543 2.624-6.829 3.937-0.113-0.183-0.212-0.367-0.325-0.55-1.354 0.79-2.709 1.566-4.049 2.342-0.085-0.268-0.056-0.339 0.183-0.48 5.051-2.921 10.088-5.827 15.139-8.748 1.072-0.621 2.131-1.228 3.203-1.848 0.071-0.042 0.127-0.071 0.212-0.014 0.48 0.282 0.959 0.55 1.439 0.832 0 0.014 0.014 0.028 0.056 0.056z"></path>
<path d="M20.092 30.448c-0.113-0.183-0.212-0.367-0.325-0.55-0.79 0.451-1.58 0.903-2.356 1.369-0.113-0.183-0.212-0.367-0.325-0.55-0.155 0.085-0.296 0.169-0.437 0.254-0.536 0.31-1.086 0.621-1.623 0.945-0.212 0.127-0.381 0.141-0.564-0.056 5.249-3.034 10.497-6.067 15.774-9.115 0 0.099 0 0.183 0 0.254 0 0.466 0 0.945 0 1.411 0 0.141-0.042 0.212-0.155 0.282-2.624 1.51-5.235 3.019-7.859 4.529-0.691 0.395-1.397 0.804-2.131 1.227z"></path>
<path d="M19.88 2.187c-2.921 1.679-5.813 3.358-8.72 5.037-0.113-0.183-0.212-0.353-0.325-0.55-1.524 0.875-3.048 1.764-4.586 2.653-0.113-0.183-0.212-0.367-0.324-0.55-1.354 0.79-2.695 1.566-4.049 2.342-0.071-0.31-0.056-0.339 0.198-0.48 5.333-3.104 10.681-6.194 16.028-9.284 0.127-0.071 0.226-0.085 0.353 0 0.466 0.282 0.931 0.55 1.425 0.832z"></path>
<path d="M17.637 0.903c-2.907 1.679-5.799 3.344-8.705 5.023-0.113-0.183-0.212-0.367-0.325-0.55-0.79 0.452-1.566 0.903-2.356 1.369-0.113-0.183-0.212-0.367-0.324-0.55-1.354 0.79-2.709 1.566-4.064 2.342 0-0.056 0-0.099-0.014-0.141-0.028-0.169 0.042-0.254 0.183-0.339 1.453-0.832 2.892-1.665 4.346-2.497 3.175-1.834 6.363-3.668 9.538-5.517 0.099-0.056 0.169-0.056 0.268 0 0.437 0.254 0.875 0.508 1.312 0.762 0.042 0.028 0.085 0.056 0.141 0.099z"></path>
</svg>
