<?xml version="1.0" encoding="utf-8"?>
<!-- Generator: Adobe Illustrator 22.1.0, SVG Export Plug-In . SVG Version: 6.00 Build 0)  -->
<svg version="1.1" id="Layer_1" xmlns="http://www.w3.org/2000/svg" xmlns:xlink="http://www.w3.org/1999/xlink" x="0px" y="0px"
	 viewBox="0 0 226.8 226.8" style="enable-background:new 0 0 226.8 226.8;" xml:space="preserve">
<g>
	<path d="M142.9,105.7c-0.7-1.3-1.5-2.5-2.3-3.9c-32.1,18.6-64.2,37.1-96.3,55.6c-0.8-1.3-1.5-2.5-2.3-3.9
		c-9.6,5.5-19.2,11.1-28.9,16.7c0-0.9-0.1-1.5,0-2.1c0.1-0.4,0.5-0.8,0.9-1c8.5-4.9,17-9.9,25.6-14.8
		c33.9-19.6,67.8-39.2,101.7-58.8c22.1-12.8,44.2-25.5,66.2-38.3c0.8-0.5,1.5-0.5,2.3,0c1.2,0.8,2.5,1.5,3.7,2.2
		c0.6,0.3,0.8,0.6,0.8,1.3c-0.1,1.6-0.1,3.1,0,4.7c0,0.8-0.3,1.2-1,1.6c-10.7,6.2-21.5,12.4-32.2,18.6c-12.5,7.2-25,14.4-37.5,21.7
		C143.5,105.5,143.2,105.6,142.9,105.7z"/>
	<path d="M23.3,180c63.6-36.8,127.3-73.5,191-110.3c0,0.5,0,0.7,0,1c0,3.7,0,7.4,0,11.1c0,0.7-0.2,1.1-0.9,1.5
		c-16.5,9.5-33,19-49.5,28.6c-6.7,3.9-13.4,7.7-20.1,11.6c-0.4,0.3-0.9,0.5-1.5,0.8c-0.8-1.3-1.5-2.5-2.3-3.9
		c-32.1,18.5-64.1,37-96.2,55.5c-0.8-1.3-1.5-2.5-2.3-3.9c-0.9,0.5-1.7,1-2.5,1.4c-4,2.3-8,4.6-11.9,6.9
		C25.3,181.5,25.3,181.5,23.3,180z"/>
	<path d="M214.4,88c0,4.3,0,8.4,0,12.5c0,0.4-0.5,0.8-0.9,1.1c-5.8,3.4-11.5,6.7-17.3,10c-17.6,10.1-35.1,20.3-52.7,30.4
		c-0.3,0.2-0.6,0.3-1,0.6c-0.8-1.3-1.5-2.5-2.3-3.9c-26.7,15.4-53.4,30.8-80.1,46.2c-0.8-1.3-1.5-2.5-2.3-3.9
		c-0.4,0.2-0.7,0.3-1,0.5c-4.6,2.7-9.2,5.3-13.8,8c-1.9,1.1-1.9,1.1-3.8-0.4C97.5,155.5,155.8,121.8,214.4,88z"/>
	<path d="M13.2,151.9c-0.4-1.8,0.1-2.7,1.6-3.6c33.3-19.2,66.6-38.4,99.9-57.7c25.8-14.9,51.6-29.8,77.4-44.7
		c0.3-0.2,0.9-0.3,1.2-0.1c3.6,2,7.1,4.1,10.9,6.2c-20.5,11.9-40.9,23.6-61.3,35.4c-0.8-1.3-1.5-2.6-2.3-3.9
		c-32.1,18.5-64.2,37.1-96.3,55.6c-0.8-1.3-1.5-2.6-2.3-3.9C32.4,140.9,22.8,146.4,13.2,151.9z"/>
	<path d="M55,198.3c53.1-30.6,106.1-61.3,159.3-92c0,0.4,0.1,0.7,0.1,0.9c0,3.7,0,7.3,0,11c0,0.9-0.3,1.3-1,1.7
		c-13.6,7.8-27.3,15.7-40.9,23.6c-9.6,5.6-19.3,11.1-28.9,16.7c-0.3,0.2-0.6,0.4-1.1,0.6c-0.8-1.3-1.5-2.5-2.3-3.9
		c-21.4,12.4-42.8,24.7-64.2,37.1c-0.8-1.3-1.5-2.6-2.2-3.9c-0.3,0.1-0.6,0.3-0.8,0.4c-4.7,2.7-9.4,5.4-14,8.1
		C56.9,199.8,56.9,199.8,55,198.3z"/>
	<path d="M188.4,42.9c-20.5,11.9-40.9,23.6-61.3,35.4c-0.8-1.3-1.5-2.5-2.3-3.9c-26.8,15.5-53.6,31-80.5,46.5
		c-0.8-1.3-1.5-2.6-2.3-3.9c-9.6,5.6-19.2,11.1-28.7,16.6c-0.5-2.1-0.4-2.4,1.3-3.4C51.1,109.1,87.5,88.1,124,67
		c17.2-10,34.5-19.9,51.7-29.9c1-0.6,1.7-0.6,2.7,0C181.6,39.1,184.9,40.9,188.4,42.9z"/>
	<path d="M214.4,124.6c0,0.6,0,0.9,0,1.3c0,3.6,0,7.1,0,10.7c0,0.9-0.2,1.3-1,1.7c-12.2,7-24.4,14.1-36.6,21.1
		c-11.1,6.4-22.2,12.8-33.3,19.2c-0.3,0.2-0.6,0.4-1,0.6c-0.7-1.3-1.5-2.5-2.3-3.9c-16.1,9.3-32.2,18.6-48.4,28
		c-0.8-1.3-1.5-2.6-2.3-3.9c-0.9,0.5-1.6,0.9-2.4,1.4c-4.2,2.4-8.3,4.8-12.5,7.2c-1.8,1-1.8,1.1-3.7-0.5
		C118.7,179.8,166.4,152.2,214.4,124.6z"/>
	<path d="M44.3,102.6c-0.8-1.3-1.5-2.6-2.3-3.9c-9.6,5.5-19.2,11.1-28.8,16.6c-0.4-2.4-0.4-2.4,1.8-3.7C56,88,97.1,64.3,138.1,40.6
		c7.4-4.3,14.7-8.5,22.1-12.8c0.7-0.4,1.3-0.5,2,0c3.4,2,6.8,3.9,10.4,6c-20.6,11.9-41.1,23.8-61.8,35.7c-0.8-1.3-1.5-2.5-2.3-3.9
		C87.1,77.9,65.7,90.3,44.3,102.6z"/>
	<path d="M107.6,212.4c-0.8-1.3-1.5-2.6-2.3-3.9c-2,1.2-4,2.3-5.9,3.4c-2.9,1.7-6,3.3-8.8,5.2c-1.5,1-2.6,0.8-3.9-0.5
		c42.5-24.6,85-49.1,127.7-73.7c0,2.9,0,5.5,0,8.2c0,1.3-0.1,2.6,0,3.9c0,0.8-0.2,1.2-0.9,1.6c-8.8,5.1-17.6,10.2-26.4,15.3
		c-14.5,8.4-29,16.7-43.5,25.1c-0.3,0.2-0.7,0.4-1.1,0.6c-0.8-1.3-1.5-2.5-2.3-3.9C129.3,199.8,118.5,206.1,107.6,212.4z"/>
	<path d="M156.7,24.7C136.1,36.6,115.5,48.4,95,60.3c-0.8-1.3-1.5-2.6-2.3-3.9C76.6,65.7,60.5,75,44.3,84.3
		c-0.8-1.3-1.5-2.6-2.3-3.9C32.4,86,22.8,91.5,13.3,97c-0.6-1.9-0.4-2.4,1.3-3.4c35.8-20.7,71.5-41.3,107.3-62
		c7.6-4.4,15.1-8.7,22.7-13.1c0.5-0.3,0.9-0.5,1.5-0.1c3.4,2,6.8,3.9,10.2,5.9C156.3,24.4,156.4,24.5,156.7,24.7z"/>
	<path d="M142.4,215.8c-0.8-1.3-1.5-2.6-2.3-3.9c-5.6,3.2-11.2,6.4-16.7,9.7c-0.8-1.3-1.5-2.6-2.3-3.9c-1.1,0.6-2.1,1.2-3.1,1.8
		c-3.8,2.2-7.7,4.4-11.5,6.7c-1.5,0.9-2.7,1-4-0.4c37.2-21.5,74.4-43,111.8-64.6c0,0.7,0,1.3,0,1.8c0,3.3,0,6.7,0,10
		c0,1-0.3,1.5-1.1,2c-18.6,10.7-37.1,21.4-55.7,32.1C152.6,209.9,147.6,212.8,142.4,215.8z"/>
	<path d="M140.9,15.5c-20.7,11.9-41.2,23.8-61.8,35.7c-0.8-1.3-1.5-2.5-2.3-3.9C66,53.5,55.2,59.8,44.3,66.1
		c-0.8-1.3-1.5-2.6-2.3-3.9c-9.6,5.6-19.1,11.1-28.7,16.6c-0.5-2.2-0.4-2.4,1.4-3.4C52.5,53.4,90.4,31.5,128.3,9.6
		c0.9-0.5,1.6-0.6,2.5,0C134.1,11.6,137.4,13.5,140.9,15.5z"/>
	<path d="M125,6.4C104.4,18.3,83.9,30.1,63.3,42c-0.8-1.3-1.5-2.6-2.3-3.9c-5.6,3.2-11.1,6.4-16.7,9.7c-0.8-1.3-1.5-2.6-2.3-3.9
		c-9.6,5.6-19.2,11.1-28.8,16.6c0-0.4,0-0.7-0.1-1c-0.2-1.2,0.3-1.8,1.3-2.4c10.3-5.9,20.5-11.8,30.8-17.7
		c22.5-13,45.1-26,67.6-39.1c0.7-0.4,1.2-0.4,1.9,0c3.1,1.8,6.2,3.6,9.3,5.4C124.3,5.9,124.6,6.1,125,6.4z"/>
</g>
</svg>
