<!-- Generated by IcoMoon.io -->
<svg version="1.1" xmlns="http://www.w3.org/2000/svg" width="32" height="32" viewBox="0 0 32 32">
<title>REP</title>
<path d="M29.291 22.961l-12.579-22.543c0.065-0.114 0.103-0.251 0.103-0.397 0-0.45-0.365-0.815-0.815-0.815s-0.815 0.365-0.815 0.815c0 0.146 0.038 0.282 0.105 0.401l-0.002-0.004-12.579 22.543c-0.212 0.38-0.088 0.86 0.281 1.090l12.579 7.827c0.122 0.077 0.271 0.123 0.431 0.123s0.308-0.046 0.434-0.125l-0.003 0.002 12.579-7.827c0.369-0.23 0.493-0.71 0.281-1.090zM19.878 16.415c0.279 0.425 0.465 1.216 0.628 1.915 0.158 0.677 0.308 1.317 0.569 1.79 0.565 1.028 1.42 1.534 1.515 1.589 0.026 0.015 0.052 0.028 0.079 0.040l4.020 1.825-9.708 6.040v-3.447c0-0.014-0.001-0.034-0.001-0.049-0.012-0.276 0.049-0.644 0.107-0.728 0.1-0.089 0.487-0.33 0.799-0.524 0.903-0.561 2.141-1.33 2.921-2.219 0.115-0.131 0.217-0.27 0.318-0.41-0.386-0.344-0.834-0.836-1.193-1.489-0.031-0.057-0.055-0.119-0.083-0.178-0.136 0.286-0.302 0.546-0.512 0.785-0.59 0.671-1.684 1.352-2.484 1.848-0.49 0.305-0.845 0.525-1.072 0.729-0.771 0.691-0.77 1.942-0.757 2.257v3.427l-9.712-6.043 3.123-1.418c0.010-0.004 0.026-0.012 0.036-0.017 0.124-0.062 0.524-0.222 0.878-0.222 0.317 0 1.235 0.417 1.898 0.934 1.005 0.784 1.895 1.332 2.691 1.666 0.171-0.542 0.467-1.104 0.972-1.556 0.042-0.038 0.090-0.074 0.136-0.111-0.526-0.163-1.354-0.572-2.596-1.541-0.598-0.467-2.015-1.348-3.102-1.348-0.833 0-1.576 0.341-1.738 0.421l-2.136 0.97 9.548-17.11v6.696c0 0.014 0.001 0.034 0.001 0.048 0.012 0.276-0.049 0.645-0.107 0.728-0.1 0.090-0.488 0.33-0.799 0.524-0.903 0.561-2.141 1.33-2.921 2.219-1.016 1.157-1.369 2.477-1.466 4.222 0.677 0.074 1.355 0.328 1.935 0.615 0.050-1.837 0.324-2.775 1.001-3.546 0.59-0.671 1.684-1.352 2.484-1.848 0.49-0.305 0.845-0.525 1.072-0.729 0.771-0.691 0.77-1.941 0.757-2.257v-6.673l9.547 17.109-2.989-1.357c-0.108-0.072-0.49-0.349-0.747-0.817-0.131-0.239-0.262-0.799-0.378-1.293-0.2-0.857-0.428-1.828-0.899-2.544-0.623-0.948-1.62-2.151-3.445-2.765-0.17 0.547-0.466 1.113-0.975 1.569-0.053 0.048-0.113 0.094-0.171 0.14 1.58 0.351 2.382 1.257 2.957 2.131z"></path>
</svg>
