<!-- Generated by IcoMoon.io -->
<svg version="1.1" xmlns="http://www.w3.org/2000/svg" width="32" height="32" viewBox="0 0 32 32">
<title>REQ</title>
<path d="M5.855 0h10.37c1.044 0.169 2.116 0.014 3.16 0.24 2.314 0.423 4.416 1.877 5.63 3.894 1.439 2.328 1.623 5.376 0.536 7.887-0.988 2.314-3.062 4.12-5.489 4.769-1.538 0.451-3.16 0.282-4.741 0.31 2.709 4.487 5.404 8.974 8.099 13.474-0.705 0.494-1.566 0.79-2.159 1.439h-0.085c-3.513-5.87-7.055-11.711-10.568-17.566 2.497-0.014 4.995 0.014 7.492-0.014 2.878-0.085 5.404-2.624 5.46-5.517 0.183-2.497-1.425-4.981-3.795-5.799-0.974-0.381-2.046-0.367-3.076-0.353-3.612 0-7.238 0-10.85 0"></path>
</svg>
