<?xml version="1.0" encoding="utf-8"?>
<!-- Generator: Adobe Illustrator 22.0.1, SVG Export Plug-In . SVG Version: 6.00 Build 0)  -->
<svg version="1.1" id="Layer_1" xmlns="http://www.w3.org/2000/svg" xmlns:xlink="http://www.w3.org/1999/xlink" x="0px" y="0px"
	 viewBox="0 0 226.8 226.8" style="enable-background:new 0 0 226.8 226.8;" xml:space="preserve">
<style type="text/css">
	.st0{stroke:#FFFFFF;stroke-miterlimit:10;}
</style>
<path class="st0" d="M41.5,0h73.5c7.4,1.2,15,0.1,22.4,1.7c16.4,3,31.3,13.3,39.9,27.6c10.2,16.5,11.5,38.1,3.8,55.9
	c-7,16.4-21.7,29.2-38.9,33.8c-10.9,3.2-22.4,2-33.6,2.2c19.2,31.8,38.3,63.6,57.4,95.5c-5,3.5-11.1,5.6-15.3,10.2h-0.6
	c-24.9-41.6-50-83-74.9-124.5c17.7-0.1,35.4,0.1,53.1-0.1c20.4-0.6,38.3-18.6,38.7-39.1c1.3-17.7-10.1-35.3-26.9-41.1
	c-6.9-2.7-14.5-2.6-21.8-2.5c-25.6,0-51.3,0-76.9,0"/>
</svg>
