<!-- Generated by IcoMoon.io -->
<svg version="1.1" xmlns="http://www.w3.org/2000/svg" width="32" height="32" viewBox="0 0 32 32">
<title>RFR</title>
<path d="M29.954 32c-1.919 0-3.725 0-5.531 0-5.616 0-11.231 0.014-16.847-0.028-0.423 0-1.016-0.226-1.256-0.55-3.965-5.319-0.889-13.291 5.587-14.547 0.155-0.028 0.31-0.028 0.593-0.056 0 0.804 0 1.566 0 2.37 0.212-0.042 0.325-0.028 0.395-0.071 2.963-1.947 5.926-3.908 9.044-5.968-3.146-2.074-6.18-4.078-9.383-6.18 0 0.988 0 1.792 0 2.526-1.905 0.339-3.739 0.508-5.489 1.016-1.707 0.494-3.316 1.326-4.995 2.018 0-4.021 0-8.212 0-12.515 0.353 0 0.691 0 1.030 0 4.628 0 9.27-0.056 13.898 0.014 5.573 0.085 9.721 2.681 11.965 7.76 2.258 5.108 1.397 9.933-2.258 14.18-0.423 0.494-0.466 0.847-0.226 1.411 1.058 2.511 2.074 5.051 3.090 7.577 0.127 0.325 0.24 0.635 0.381 1.044z"></path>
</svg>
