<?xml version="1.0" encoding="utf-8"?>
<!-- Generator: Adobe Illustrator 22.1.0, SVG Export Plug-In . SVG Version: 6.00 Build 0)  -->
<svg version="1.1" id="Layer_1" xmlns="http://www.w3.org/2000/svg" xmlns:xlink="http://www.w3.org/1999/xlink" x="0px" y="0px"
	 viewBox="0 0 226.8 226.8" style="enable-background:new 0 0 226.8 226.8;" xml:space="preserve">
<g>
	<path d="M212.3,226.8c-13.6,0-26.4,0-39.2,0c-39.8,0-79.6,0.1-119.4-0.2c-3,0-7.2-1.6-8.9-3.9c-28.1-37.7-6.3-94.2,39.6-103.1
		c1.1-0.2,2.2-0.2,4.2-0.4c0,5.7,0,11.1,0,16.8c1.5-0.3,2.3-0.2,2.8-0.5c21-13.8,42-27.7,64.1-42.3C133.2,78.5,111.7,64.3,89,49.4
		c0,7,0,12.7,0,17.9c-13.5,2.4-26.5,3.6-38.9,7.2C38,78,26.6,83.9,14.7,88.8c0-28.5,0-58.2,0-88.7c2.5,0,4.9,0,7.3,0
		c32.8,0,65.7-0.4,98.5,0.1c39.5,0.6,68.9,19,84.8,55c16,36.2,9.9,70.4-16,100.5c-3,3.5-3.3,6-1.6,10c7.5,17.8,14.7,35.8,21.9,53.7
		C210.5,221.7,211.3,223.9,212.3,226.8z"/>
</g>
</svg>
