<?xml version="1.0" encoding="utf-8"?>
<!-- Generator: Adobe Illustrator 22.0.1, SVG Export Plug-In . SVG Version: 6.00 Build 0)  -->
<svg version="1.1" id="Layer_1" xmlns="http://www.w3.org/2000/svg" xmlns:xlink="http://www.w3.org/1999/xlink" x="0px" y="0px"
	 viewBox="0 0 226.8 226.8" style="enable-background:new 0 0 226.8 226.8;" xml:space="preserve">
<style type="text/css">
	.st0{stroke:#FFFFFF;stroke-miterlimit:10;}
</style>
<g>
	<path class="st0" d="M101.9,1c21.8-2.2,44.3,2.1,63.6,12.5c11.6,6.2,22.1,14.5,30.9,24.4c14.8,16.7,24.4,37.9,27.1,60
		c2.6,20.5-0.8,41.8-9.5,60.5c-6.4,13.8-15.7,26.3-27.1,36.4c-16.7,14.8-37.9,24.4-60,27.1c-20.4,2.5-41.4-0.7-60.1-9.3
		c-13.9-6.4-26.3-15.6-36.5-27c-17-18.9-27.1-43.8-28.1-69.2c-1-19.9,3.6-40.1,13.1-57.6C22.2,46,31.6,34.7,42.8,25.5
		C59.5,11.8,80.4,3.2,101.9,1 M84.1,64.7c-4.9-6.5-12.4-11.1-20.6-11.5c-8.6-0.5-17,3.6-22.6,9.9c-4.2,4.9-6.3,11.4-6.3,17.8
		c0,12.3,0,24.5,0,36.8c-0.1,1.6,1.3,2.8,2.9,2.6c34.7,0.1,69.4-0.1,104.1,0.1c-0.1,7.6,0,15.2,0.5,22.7
		c-9.9,7.2-21.5,12.3-33.6,14.2c-1.6,0.4-4.2-0.1-4.6,2.1c-0.2,4.1,0,8.2-0.1,12.2c-0.2,1.4,0.9,2.9,2.4,2.9
		c14.7-1.1,28.9-6.6,40.6-15.4c4.3,5.6,10.5,10.1,17.7,11.1c10.1,1.8,20.7-3.1,26.8-11.2c3.8-5.2,5.2-11.7,5.1-18
		c0-11.6,0.1-23.3-0.1-34.9c0.1-1.8-1.6-2.8-3.3-2.6c-34.6-0.1-69.2,0-103.7-0.1c-0.2-6.8,0.3-13.7-0.4-20.5c-0.1-1-0.3-2.2,0.7-2.8
		c10.6-7.2,22.8-12.5,35.6-13.9c1.4,0,2-1.6,1.9-2.8c0-3.9,0.1-7.8,0-11.7c0.1-1.6-1.5-2.6-3-2.3C109.6,50.6,95.7,56,84.1,64.7z"/>
	<path class="st0" d="M48.5,83.1c0.2-6.5,6.2-12.3,12.7-12C67.9,71,74,76.9,74.1,83.6c0.1,7,0.1,14,0,21c-8.6,0.2-17.1,0.1-25.7,0.1
		C48.5,97.4,48.5,90.2,48.5,83.1"/>
	<path class="st0" d="M157.7,119.8c8.6,0,17.1,0,25.7,0c0.1,6.8,0,13.7,0,20.5c0.1,5.2-3.2,10.4-8.2,12.2c-5.4,2.1-11.9,0-15.2-4.7
		c-1.6-2.2-2.4-4.9-2.4-7.6C157.7,133.5,157.6,126.7,157.7,119.8"/>
</g>
</svg>
