<!-- Generated by IcoMoon.io -->
<svg version="1.1" xmlns="http://www.w3.org/2000/svg" width="32" height="32" viewBox="0 0 32 32">
<title>RHOC</title>
<path d="M14.377 0.141c3.076-0.31 6.25 0.296 8.974 1.764 1.637 0.875 3.118 2.046 4.36 3.443 2.088 2.356 3.443 5.347 3.824 8.466 0.367 2.892-0.113 5.898-1.34 8.536-0.903 1.947-2.215 3.711-3.824 5.136-2.356 2.088-5.347 3.443-8.466 3.824-2.878 0.353-5.841-0.099-8.48-1.312-1.961-0.903-3.711-2.201-5.15-3.81-2.399-2.667-3.824-6.18-3.965-9.764-0.141-2.808 0.508-5.658 1.848-8.127 0.974-1.806 2.3-3.4 3.88-4.698 2.356-1.933 5.305-3.146 8.339-3.457M11.866 9.129c-0.691-0.917-1.75-1.566-2.907-1.623-1.213-0.071-2.399 0.508-3.189 1.397-0.593 0.691-0.889 1.608-0.889 2.511 0 1.735 0 3.457 0 5.192-0.014 0.226 0.183 0.395 0.409 0.367 4.896 0.014 9.792-0.014 14.688 0.014-0.014 1.072 0 2.145 0.071 3.203-1.397 1.016-3.034 1.735-4.741 2.004-0.226 0.056-0.593-0.014-0.649 0.296-0.028 0.578 0 1.157-0.014 1.721-0.028 0.198 0.127 0.409 0.339 0.409 2.074-0.155 4.078-0.931 5.728-2.173 0.607 0.79 1.481 1.425 2.497 1.566 1.425 0.254 2.921-0.437 3.781-1.58 0.536-0.734 0.734-1.651 0.72-2.54 0-1.637 0.014-3.287-0.014-4.924 0.014-0.254-0.226-0.395-0.466-0.367-4.882-0.014-9.764 0-14.631-0.014-0.028-0.959 0.042-1.933-0.056-2.892-0.014-0.141-0.042-0.31 0.099-0.395 1.496-1.016 3.217-1.764 5.023-1.961 0.198 0 0.282-0.226 0.268-0.395 0-0.55 0.014-1.101 0-1.651 0.014-0.226-0.212-0.367-0.423-0.325-2.046 0.169-4.007 0.931-5.644 2.159z"></path>
<path d="M6.843 11.725c0.028-0.917 0.875-1.735 1.792-1.693 0.945-0.014 1.806 0.818 1.82 1.764 0.014 0.988 0.014 1.975 0 2.963-1.213 0.028-2.413 0.014-3.626 0.014 0.014-1.030 0.014-2.046 0.014-3.048"></path>
<path d="M22.25 16.903c1.213 0 2.413 0 3.626 0 0.014 0.959 0 1.933 0 2.892 0.014 0.734-0.451 1.467-1.157 1.721-0.762 0.296-1.679 0-2.145-0.663-0.226-0.31-0.339-0.691-0.339-1.072 0.014-0.945 0-1.905 0.014-2.878"></path>
</svg>
