<!-- Generated by IcoMoon.io -->
<svg version="1.1" xmlns="http://www.w3.org/2000/svg" width="32" height="32" viewBox="0 0 32 32">
<title>RIGHTBTC</title>
<path d="M3.471 2.78c0-0.72 0-1.439 0-2.159 0-0.268 0.056-0.452 0.381-0.466 2.695-0.085 5.347 0.028 7.887 1.072 1.608 0.663 3.104 1.51 4.416 2.638 0.282 0.24 0.48 0.268 0.776 0.014 2.215-1.877 4.755-3.076 7.619-3.527 1.058-0.169 2.201-0.268 3.245-0.085 1.397 0.24 2.145 1.467 1.975 2.78-0.169 1.383-1.27 2.37-2.681 2.384-2.3 0.014-4.36 0.734-6.222 2.074-1.002 0.72-1.002 0.72-0.494 1.834 2.046 4.614 1.989 9.199-0.198 13.743-0.24 0.48-0.183 0.762 0.226 1.086 1.947 1.552 4.134 2.399 6.646 2.413 1.242 0.014 2.187 0.663 2.582 1.75 0.381 1.030 0.085 2.131-0.79 2.921-0.564 0.508-1.256 0.663-2.004 0.635-3.753-0.127-7.083-1.355-9.961-3.795-0.226-0.198-0.395-0.212-0.649 0-2.511 2.131-5.404 3.386-8.691 3.683-1.213 0.113-2.441 0.056-3.654 0.085-0.325 0.014-0.451-0.155-0.451-0.451 0-1.467 0-2.949 0-4.416 0-0.325 0.155-0.395 0.437-0.395 0.748 0 1.51 0 2.257 0 2.483-0.028 4.656-0.889 6.603-2.413 0.409-0.325 0.466-0.578 0.226-1.058-2.286-4.797-2.272-9.58 0.099-14.349 0.198-0.395 0.085-0.578-0.198-0.804-1.877-1.552-4.007-2.427-6.448-2.526-0.79-0.028-1.58-0.028-2.37 0-0.409 0.014-0.578-0.127-0.564-0.564 0.014-0.705 0-1.397 0-2.102 0 0 0 0 0 0z"></path>
<path d="M28.882 18.681c-0.72 0-1.439-0.014-2.159 0-0.367 0.014-0.508-0.127-0.508-0.508 0.014-1.439 0.014-2.864 0-4.303 0-0.409 0.155-0.536 0.536-0.536 1.411 0.014 2.836 0.014 4.247 0 0.367 0 0.508 0.141 0.494 0.508-0.014 1.439-0.014 2.864 0 4.303 0 0.409-0.155 0.536-0.536 0.522-0.677 0-1.369 0.014-2.074 0.014z"></path>
<path d="M0.564 15.972c0.014-1.623 1.397-2.977 3.005-2.963 1.524 0.014 2.935 1.425 2.921 2.963-0.028 1.905-1.397 2.991-2.991 3.019-1.637 0.042-2.949-1.369-2.935-3.019z"></path>
</svg>
