<!-- Generated by IcoMoon.io -->
<svg version="1.1" xmlns="http://www.w3.org/2000/svg" width="32" height="32" viewBox="0 0 32 32">
<title>RISE</title>
<path d="M12.938 2.526c0 1.395-1.131 2.526-2.526 2.526s-2.526-1.131-2.526-2.526c0-1.395 1.131-2.526 2.526-2.526s2.526 1.131 2.526 2.526z"></path>
<path d="M24.141 29.474c0 1.395-1.131 2.526-2.526 2.526s-2.526-1.131-2.526-2.526c0-1.395 1.131-2.526 2.526-2.526s2.526 1.131 2.526 2.526z"></path>
<path d="M10.145 13.644c0.48 0 0.974-0.155 1.383-0.466l11.683-8.889c1.002-0.762 1.199-2.201 0.437-3.217-0.762-1.002-2.201-1.199-3.217-0.437l-11.683 8.889c-0.988 0.776-1.185 2.215-0.423 3.217 0.451 0.593 1.143 0.903 1.82 0.903zM10.145 22.744c0.48 0 0.974-0.155 1.383-0.466l11.683-8.889c1.002-0.762 1.199-2.201 0.437-3.217-0.762-1.002-2.201-1.199-3.217-0.437l-11.683 8.889c-1.002 0.762-1.199 2.201-0.437 3.217 0.466 0.593 1.157 0.903 1.834 0.903zM23.647 19.443c-0.762-1.002-2.201-1.199-3.217-0.437l-11.683 8.889c-1.002 0.762-1.199 2.201-0.437 3.217 0.451 0.593 1.129 0.903 1.82 0.903 0.48 0 0.974-0.155 1.383-0.466l11.683-8.889c1.030-0.776 1.227-2.215 0.451-3.217z"></path>
</svg>
