<!-- Generated by IcoMoon.io -->
<svg version="1.1" xmlns="http://www.w3.org/2000/svg" width="32" height="32" viewBox="0 0 32 32">
<title>RKT</title>
<path d="M2.709 0.268c0.564-0.127 0.875-0.268 1.171-0.268 4.698 0.085 9.425-0.085 14.095 0.353 4.628 0.437 8.31 3.852 8.254 8.959-0.028 2.173-0.226 4.346-1.355 6.279-1.072 1.834-2.709 2.935-4.698 3.584-0.226 0.071-0.437 0.198-0.79 0.367 1.693 1.778 3.302 3.471 4.924 5.15 2.004 2.102 4.007 4.19 5.996 6.293 0.183 0.183 0.24 0.48 0.353 0.72-0.254 0.099-0.522 0.254-0.776 0.268-2.427 0.014-4.854 0.056-7.28-0.014-0.48-0.014-1.058-0.325-1.411-0.677-5.587-5.686-11.118-11.386-16.663-17.086-0.113-0.113-0.169-0.282-0.353-0.607 0.593-0.056 1.030-0.155 1.481-0.155 3.485-0.014 6.984 0 10.469-0.014 1.806-0.014 2.441-0.663 2.497-2.455 0.014-0.409 0.014-0.804-0.014-1.213-0.099-1.947-1.086-2.977-3.048-3.062-1.905-0.056-3.81-0.056-5.728 0-1.101 0.042-1.877-0.324-2.568-1.171-1.171-1.411-2.441-2.737-3.654-4.106-0.254-0.282-0.48-0.607-0.903-1.143z"></path>
</svg>
