<?xml version="1.0" encoding="utf-8"?>
<!-- Generator: Adobe Illustrator 22.1.0, SVG Export Plug-In . SVG Version: 6.00 Build 0)  -->
<svg version="1.1" id="Layer_1" xmlns="http://www.w3.org/2000/svg" xmlns:xlink="http://www.w3.org/1999/xlink" x="0px" y="0px"
	 viewBox="0 0 226.8 226.8" style="enable-background:new 0 0 226.8 226.8;" xml:space="preserve">
<g>
	<path d="M19.2,1.9c4-0.9,6.2-1.9,8.3-1.9c33.3,0.6,66.8-0.6,99.9,2.5c32.8,3.1,58.9,27.3,58.5,63.5c-0.2,15.4-1.6,30.8-9.6,44.5
		c-7.6,13-19.2,20.8-33.3,25.4c-1.6,0.5-3.1,1.4-5.6,2.6c12,12.6,23.4,24.6,34.9,36.5c14.2,14.9,28.4,29.7,42.5,44.6
		c1.3,1.3,1.7,3.4,2.5,5.1c-1.8,0.7-3.7,1.8-5.5,1.9c-17.2,0.1-34.4,0.4-51.6-0.1c-3.4-0.1-7.5-2.3-10-4.8
		C110.6,181.4,71.4,141,32.1,100.6c-0.8-0.8-1.2-2-2.5-4.3c4.2-0.4,7.3-1.1,10.5-1.1c24.7-0.1,49.5,0,74.2-0.1
		c12.8-0.1,17.3-4.7,17.7-17.4c0.1-2.9,0.1-5.7-0.1-8.6c-0.7-13.8-7.7-21.1-21.6-21.7C96.8,47,83.3,47,69.7,47.4
		c-7.8,0.3-13.3-2.3-18.2-8.3c-8.3-10-17.3-19.4-25.9-29.1C23.8,8,22.2,5.7,19.2,1.9z"/>
</g>
</svg>
