<?xml version="1.0" encoding="utf-8"?>
<!-- Generator: Adobe Illustrator 22.0.1, SVG Export Plug-In . SVG Version: 6.00 Build 0)  -->
<svg version="1.1" id="Layer_1" xmlns="http://www.w3.org/2000/svg" xmlns:xlink="http://www.w3.org/1999/xlink" x="0px" y="0px"
	 viewBox="0 0 250 250" style="enable-background:new 0 0 250 250;" xml:space="preserve">
<style type="text/css">
	.st0{stroke:#FFFFFF;stroke-miterlimit:10;}
</style>
<g>
	<g>
		<path class="st0" d="M125,250c-16.9,0-33.2-3.3-48.7-9.8c-14.9-6.3-28.3-15.3-39.7-26.8c-11.5-11.5-20.5-24.8-26.8-39.7
			C3.3,158.2,0,141.9,0,125c0-16.9,3.3-33.2,9.8-48.7c6.3-14.9,15.3-28.3,26.8-39.7C48.1,25.1,61.5,16.1,76.3,9.8
			C91.8,3.3,108.1,0,125,0c16.9,0,33.2,3.3,48.7,9.8c14.9,6.3,28.3,15.3,39.7,26.8c11.5,11.5,20.5,24.8,26.8,39.7
			c6.5,15.4,9.8,31.8,9.8,48.7c0,16.9-3.3,33.2-9.8,48.7c-6.3,14.9-15.3,28.3-26.8,39.7c-11.5,11.5-24.8,20.5-39.7,26.8
			C158.2,246.7,141.9,250,125,250z M125,5.3c-16.2,0-31.8,3.2-46.6,9.4c-14.3,6-27.1,14.7-38,25.7c-11,11-19.6,23.8-25.7,38
			C8.5,93.2,5.3,108.8,5.3,125s3.2,31.8,9.4,46.6c6,14.3,14.7,27.1,25.7,38c11,11,23.8,19.6,38,25.7c14.8,6.2,30.4,9.4,46.6,9.4
			s31.8-3.2,46.6-9.4c14.3-6,27.1-14.7,38-25.7c11-11,19.6-23.8,25.7-38c6.2-14.8,9.4-30.4,9.4-46.6s-3.2-31.8-9.4-46.6
			c-6-14.3-14.7-27.1-25.7-38c-11-11-23.8-19.6-38-25.7C156.8,8.5,141.2,5.3,125,5.3z"/>
	</g>
	<g>
		<g>
			<path class="st0" d="M50.4,107.2c-9.6,0-17.3-7.8-17.3-17.3c0-9.6,7.8-17.3,17.3-17.3s17.3,7.8,17.3,17.3
				C67.7,99.4,59.9,107.2,50.4,107.2z M50.4,77.8c-6.6,0-12,5.4-12,12c0,6.6,5.4,12,12,12s12-5.4,12-12C62.4,83.2,57,77.8,50.4,77.8
				z"/>
		</g>
		<g>
			<path class="st0" d="M196.8,215.7l-109.3-3.1L47.2,103.9l15.8-4.7l23,58.4h10L79.8,82.9l14.6-2.9l14.9,77.6h7.1v-92l17.2,2.9
				v89.2h4.6l14-80.4l15,6.4l-14.1,74h9.3l23.2-60.3l15.3,7l-33,88.2l37.4,3.1l-6.1,18.4l-2.5-0.8L196.8,215.7z M91.2,207.4l103.8,3
				l3.4-10.1l-37.7-3.1l33.7-90.2l-5.7-2.6l-22.5,58.4h-19.3l14.5-76.1l-4.9-2.1l-13.7,78.2h-14.4v-90l-6.6-1.1v91.1h-16.8
				L90.2,86.2L86.2,87l16.5,75.9H82.4l-22.5-57.3l-5.7,1.7L91.2,207.4z"/>
		</g>
		<g>
			<path class="st0" d="M84,87c-9.6,0-17.3-7.8-17.3-17.3S74.5,52.3,84,52.3s17.3,7.8,17.3,17.3S93.6,87,84,87z M84,57.6
				c-6.6,0-12,5.4-12,12s5.4,12,12,12c6.6,0,12-5.4,12-12S90.6,57.6,84,57.6z"/>
		</g>
		<g>
			<path class="st0" d="M126.2,72.3c-9.6,0-17.3-7.8-17.3-17.3s7.8-17.3,17.3-17.3c9.6,0,17.3,7.8,17.3,17.3S135.8,72.3,126.2,72.3z
				 M126.2,42.9c-6.6,0-12,5.4-12,12s5.4,12,12,12c6.6,0,12-5.4,12-12S132.9,42.9,126.2,42.9z"/>
		</g>
		<g>
			<path class="st0" d="M165.4,87c-9.6,0-17.3-7.8-17.3-17.3s7.8-17.3,17.3-17.3s17.3,7.8,17.3,17.3S174.9,87,165.4,87z M165.4,57.6
				c-6.6,0-12,5.4-12,12s5.4,12,12,12c6.6,0,12-5.4,12-12S172,57.6,165.4,57.6z"/>
		</g>
		<g>
			<path class="st0" d="M199.6,107.2c-9.6,0-17.3-7.8-17.3-17.3c0-9.6,7.8-17.3,17.3-17.3c9.6,0,17.3,7.8,17.3,17.3
				C217,99.4,209.2,107.2,199.6,107.2z M199.6,77.8c-6.6,0-12,5.4-12,12c0,6.6,5.4,12,12,12s12-5.4,12-12
				C211.7,83.2,206.3,77.8,199.6,77.8z"/>
		</g>
	</g>
</g>
</svg>
