<!-- Generated by IcoMoon.io -->
<svg version="1.1" xmlns="http://www.w3.org/2000/svg" width="32" height="32" viewBox="0 0 32 32">
<title>RLC</title>
<path d="M16 32c-2.163 0-4.25-0.422-6.234-1.254-1.907-0.806-3.622-1.958-5.082-3.43-1.472-1.472-2.624-3.174-3.43-5.082-0.832-1.984-1.254-4.070-1.254-6.234s0.422-4.25 1.254-6.234c0.806-1.907 1.958-3.622 3.43-5.082 1.472-1.472 3.187-2.624 5.082-3.43 1.984-0.832 4.070-1.254 6.234-1.254s4.25 0.422 6.234 1.254c1.907 0.806 3.622 1.958 5.082 3.43 1.472 1.472 2.624 3.174 3.43 5.082 0.832 1.971 1.254 4.070 1.254 6.234s-0.422 4.25-1.254 6.234c-0.806 1.907-1.958 3.622-3.43 5.082-1.472 1.472-3.174 2.624-5.082 3.43-1.984 0.832-4.070 1.254-6.234 1.254zM16 0.678c-2.074 0-4.070 0.41-5.965 1.203-1.83 0.768-3.469 1.882-4.864 3.29-1.408 1.408-2.509 3.046-3.29 4.864-0.794 1.894-1.203 3.891-1.203 5.965s0.41 4.070 1.203 5.965c0.768 1.83 1.882 3.469 3.29 4.864 1.408 1.408 3.046 2.509 4.864 3.29 1.894 0.794 3.891 1.203 5.965 1.203s4.070-0.41 5.965-1.203c1.83-0.768 3.469-1.882 4.864-3.29 1.408-1.408 2.509-3.046 3.29-4.864 0.794-1.894 1.203-3.891 1.203-5.965s-0.41-4.070-1.203-5.965c-0.768-1.83-1.882-3.469-3.29-4.864-1.408-1.408-3.046-2.509-4.864-3.29-1.894-0.794-3.891-1.203-5.965-1.203z"></path>
<path d="M6.451 13.722c-1.229 0-2.214-0.998-2.214-2.214 0-1.229 0.998-2.214 2.214-2.214s2.214 0.998 2.214 2.214c0 1.216-0.998 2.214-2.214 2.214zM6.451 9.958c-0.845 0-1.536 0.691-1.536 1.536s0.691 1.536 1.536 1.536 1.536-0.691 1.536-1.536c0-0.845-0.691-1.536-1.536-1.536z"></path>
<path d="M25.19 27.61l-13.99-0.397-5.158-13.914 2.022-0.602 2.944 7.475h1.28l-2.074-9.562 1.869-0.371 1.907 9.933h0.909v-11.776l2.202 0.371v11.418h0.589l1.792-10.291 1.92 0.819-1.805 9.472h1.19l2.97-7.718 1.958 0.896-4.224 11.29 4.787 0.397-0.781 2.355-0.32-0.102 0.013 0.307zM11.674 26.547l13.286 0.384 0.435-1.293-4.826-0.397 4.314-11.546-0.73-0.333-2.88 7.475h-2.47l1.856-9.741-0.627-0.269-1.754 10.010h-1.843v-11.52l-0.845-0.141v11.661h-2.15l-1.894-9.805-0.512 0.102 2.112 9.715h-2.598l-2.88-7.334-0.73 0.218 4.736 12.813z"></path>
<path d="M10.752 11.136c-1.229 0-2.214-0.998-2.214-2.214s0.998-2.227 2.214-2.227 2.214 0.998 2.214 2.214-0.986 2.227-2.214 2.227zM10.752 7.373c-0.845 0-1.536 0.691-1.536 1.536s0.691 1.536 1.536 1.536c0.845 0 1.536-0.691 1.536-1.536s-0.691-1.536-1.536-1.536z"></path>
<path d="M16.154 9.254c-1.229 0-2.214-0.998-2.214-2.214s0.998-2.214 2.214-2.214c1.229 0 2.214 0.998 2.214 2.214s-0.986 2.214-2.214 2.214zM16.154 5.491c-0.845 0-1.536 0.691-1.536 1.536s0.691 1.536 1.536 1.536c0.845 0 1.536-0.691 1.536-1.536s-0.678-1.536-1.536-1.536z"></path>
<path d="M21.171 11.136c-1.229 0-2.214-0.998-2.214-2.214s0.998-2.214 2.214-2.214 2.214 0.998 2.214 2.214-0.998 2.214-2.214 2.214zM21.171 7.373c-0.845 0-1.536 0.691-1.536 1.536s0.691 1.536 1.536 1.536c0.845 0 1.536-0.691 1.536-1.536s-0.691-1.536-1.536-1.536z"></path>
<path d="M25.549 13.722c-1.229 0-2.214-0.998-2.214-2.214 0-1.229 0.998-2.214 2.214-2.214 1.229 0 2.214 0.998 2.214 2.214 0.013 1.216-0.986 2.214-2.214 2.214zM25.549 9.958c-0.845 0-1.536 0.691-1.536 1.536s0.691 1.536 1.536 1.536 1.536-0.691 1.536-1.536c0.013-0.845-0.678-1.536-1.536-1.536z"></path>
</svg>
