<?xml version="1.0" encoding="utf-8"?>
<!-- Generator: Adobe Illustrator 22.1.0, SVG Export Plug-In . SVG Version: 6.00 Build 0)  -->
<svg version="1.1" id="Layer_1" xmlns="http://www.w3.org/2000/svg" xmlns:xlink="http://www.w3.org/1999/xlink" x="0px" y="0px"
	 viewBox="0 0 226.8 226.8" style="enable-background:new 0 0 226.8 226.8;" xml:space="preserve">
<g>
	<path d="M215.2,111.9c0,13.6-0.1,27.3,0,40.9c0.2,12.6-5.6,21.2-16.3,27.4c-23.9,13.6-47.6,27.6-71.5,41.3
		c-9.1,5.2-18.7,5.2-27.8,0c-24.3-13.7-48.4-27.8-72.6-41.7c-10.2-5.8-15.5-14.4-15.5-26.2c0-28.2-0.1-56.4,0-84.6
		c0.1-11.2,5.6-19.4,15.3-24.9C46.5,32.9,66,21.6,85.6,10.3c4.7-2.7,9.3-5.5,14-8c9.7-5.1,19.3-4.9,28.8,0.6
		c24.6,14.3,49.3,28.4,73.8,42.9c8.3,4.9,12.8,12.6,12.9,22.3C215.4,82.6,215.2,97.3,215.2,111.9
		C215.2,111.9,215.2,111.9,215.2,111.9z M203.7,112C203.7,112,203.7,112,203.7,112c0-13.8,0-27.6,0-41.5c0-7.1-3.1-12.3-9.1-15.8
		C170.7,41,146.8,27.4,123,13.6c-6.4-3.7-12.4-3.7-18.9,0.1C80.8,27.2,57.4,40.6,34,54.1c-5.9,3.4-10.3,7.9-10.3,15.1
		c-0.1,28.3-0.1,56.6,0,84.8c0,6.2,2.8,11.1,8.2,14.3c24.4,14.1,48.7,28.3,73.1,42.4c5.8,3.4,11.6,3.4,17.4-0.1
		c0.9-0.5,1.8-0.9,2.6-1.4c23.2-13.4,46.4-26.8,69.6-40.2c6-3.5,9-8.6,9-15.5C203.7,139.6,203.7,125.8,203.7,112z"/>
	<path d="M189.9,111.3c4.1,2.6,3.9,6.1,3.8,9.6c-0.1,3.8-1.8,6.1-5.6,6.2c-8.7,0.3-17.4,0.3-26.1,0.4c-1.6,0-2.3-0.8-2.3-2.4
		c0-8.8,0-17.6,0-26.3c0-1.8,0.8-2.5,2.5-2.5c8.7,0.1,17.4,0.1,26.1,0.3c3.4,0.1,4.8,1.8,4.9,5.3c0,0.9-0.1,1.8,0,2.7
		C193.4,107.2,193.3,109.7,189.9,111.3z M176.8,121.7c0,0.1,0,0.1,0,0.2c2.2,0,4.4,0,6.6,0c3.1,0,3.8-0.8,3.8-4
		c0-3.1-0.6-3.8-3.6-3.8c-4.5,0-8.9,0.1-13.4,0c-2.1,0-3,0.9-2.8,3c0.2,1.9-0.7,4.5,2.7,4.6C172.2,121.7,174.5,121.7,176.8,121.7z
		 M176.8,101.6C176.8,101.6,176.8,101.6,176.8,101.6c-2.4,0-4.7,0-7.1,0c-1.5,0-2.5,0.6-2.3,2.3c0.2,1.7-1.1,4.5,1.8,4.7
		c5.1,0.4,10.2,0.3,15.3,0.2c2.4,0,2.8-1.8,2.8-3.9c0-2.1-0.9-3.3-3-3.4C181.7,101.5,179.2,101.6,176.8,101.6z"/>
	<path d="M57.1,116.8c3.8,3.2,7.6,6.4,11.5,9.6c-3,1.7-8.7,1.2-11-0.8c-2.9-2.7-5.8-5.3-8.6-8.1c-2.1-2.2-4.6-2-7.1-1.5
		c-0.6,0.1-1.4,1.4-1.5,2.2c-0.2,2.2-0.2,4.4,0,6.6c0.2,2.8-1.6,2.8-3.6,2.8c-1.9-0.1-3.7,0.2-3.7-2.7c0.1-8.6,0.1-17.2,0-25.8
		c0-1.8,0.7-2.7,2.6-2.7c8.5,0.1,17,0.1,25.5,0.2c3.3,0.1,5.1,1.8,5.3,5.1c0.2,2.8,0.2,5.7,0.1,8.5c-0.1,3.3-2,5.1-5.4,5.4
		c-1.3,0.1-2.6,0.2-3.9,0.3C57.3,116.2,57.2,116.5,57.1,116.8z M49.8,101.7c0,0.1,0,0.1,0,0.2c-1.6,0-3.1,0-4.7,0
		c-4.8,0-4.8,0.1-4.7,5c0,0.5-0.2,1.1,0.1,1.3c0.7,0.8,1.4,2.1,2.2,2.2c4.7,0.3,9.3,0.3,14,0.2c2.7-0.1,3.1-1.2,3.1-5.3
		c0-2.5-1-3.6-3.4-3.6C54.2,101.7,52,101.7,49.8,101.7z"/>
	<path d="M81.6,107.9c0,3.5,0,7.1,0,10.6c0,2.2,0,4.4,0,6.6c0,2.7-1.9,2.3-3.7,2.4c-1.8,0.1-3-0.2-3-2.5c0.1-8.8,0-17.6,0.1-26.3
		c0-0.8,0.7-2.2,1-2.1c1.8,0.1,4.1,0,5.4,0.9c4.5,3.4,8.7,7.2,13,10.9c2.7,2.3,5.4,4.7,8.1,7c0.6,0.5,1.4,0.5,2.2,0.8
		c0.2-0.7,0.6-1.5,0.6-2.2c0-5-0.1-10-0.2-15.1c-0.1-2.6,1.6-2.4,3.3-2.4c1.8,0,3.3,0.1,3.3,2.5c0,7.3,0,14.6,0,22
		c0,0.8,0.1,1.7,0,2.5c-0.2,1.2-0.6,3.5-1.1,3.5c-1.7,0.2-3.9,0.2-5.1-0.8c-7.1-5.6-14-11.4-21-17.2c-0.7-0.5-1.4-1-2.1-1.5
		C82.2,107.6,81.9,107.8,81.6,107.9z"/>
	<path d="M135,96.5c4.9,0,9.9,0.1,14.8,0c2,0,3.1,0.6,3.2,2.7c0.1,2.2-1.1,2.9-3.1,2.8c-2.6,0-5.1,0.1-7.7,0
		c-2.5-0.1-3.4,1.1-3.4,3.5c0.1,6.2-0.1,12.4,0.1,18.6c0.1,3.1-1.5,3.3-3.9,3.4c-2.5,0.1-3.6-0.7-3.6-3.4c0.2-5.8,0.1-11.7,0.1-17.6
		c0-4.3-0.2-4.4-4.6-4.4c-2.4,0-4.8,0-7.1,0c-2.3,0-2.6-1.5-2.6-3.3c0-1.9,0.8-2.6,2.7-2.6c5,0,10.1,0,15.1,0
		C135,96.4,135,96.4,135,96.5z"/>
</g>
</svg>
