<!-- Generated by IcoMoon.io -->
<svg version="1.1" xmlns="http://www.w3.org/2000/svg" width="32" height="32" viewBox="0 0 32 32">
<title>RNTB</title>
<path d="M30.363 15.788c0 1.919-0.014 3.852 0 5.771 0.028 1.778-0.79 2.991-2.3 3.866-3.372 1.919-6.716 3.894-10.088 5.827-1.284 0.734-2.638 0.734-3.922 0-3.429-1.933-6.829-3.922-10.243-5.884-1.439-0.818-2.187-2.032-2.187-3.697 0-3.979-0.014-7.958 0-11.937 0.014-1.58 0.79-2.737 2.159-3.513 2.78-1.58 5.531-3.175 8.296-4.769 0.663-0.381 1.312-0.776 1.975-1.129 1.369-0.72 2.723-0.691 4.064 0.085 3.471 2.018 6.956 4.007 10.413 6.053 1.171 0.691 1.806 1.778 1.82 3.146 0.042 2.046 0.014 4.12 0.014 6.18 0 0 0 0 0 0zM28.741 15.802c0 0 0 0 0 0 0-1.947 0-3.894 0-5.855 0-1.002-0.437-1.735-1.284-2.229-3.372-1.933-6.744-3.852-10.102-5.799-0.903-0.522-1.75-0.522-2.667 0.014-3.287 1.905-6.589 3.795-9.891 5.7-0.832 0.48-1.453 1.115-1.453 2.13-0.014 3.993-0.014 7.986 0 11.965 0 0.875 0.395 1.566 1.157 2.018 3.443 1.989 6.871 3.993 10.314 5.982 0.818 0.48 1.637 0.48 2.455-0.014 0.127-0.071 0.254-0.127 0.367-0.198 3.273-1.891 6.547-3.781 9.82-5.672 0.847-0.494 1.27-1.213 1.27-2.187 0.014-1.961 0.014-3.908 0.014-5.855z"></path>
<path d="M26.794 15.704c0.578 0.367 0.55 0.861 0.536 1.355-0.014 0.536-0.254 0.861-0.79 0.875-1.227 0.042-2.455 0.042-3.683 0.056-0.226 0-0.325-0.113-0.325-0.339 0-1.242 0-2.483 0-3.711 0-0.254 0.113-0.353 0.353-0.353 1.227 0.014 2.455 0.014 3.683 0.042 0.48 0.014 0.677 0.254 0.691 0.748 0 0.127-0.014 0.254 0 0.381 0.028 0.367 0.014 0.72-0.466 0.945zM24.945 17.171c0 0.014 0 0.014 0 0.028 0.31 0 0.621 0 0.931 0 0.437 0 0.536-0.113 0.536-0.564 0-0.437-0.085-0.536-0.508-0.536-0.635 0-1.256 0.014-1.891 0-0.296 0-0.423 0.127-0.395 0.423 0.028 0.268-0.099 0.635 0.381 0.649 0.296 0 0.621 0 0.945 0zM24.945 14.335c0 0 0 0 0 0-0.339 0-0.663 0-1.002 0-0.212 0-0.353 0.085-0.325 0.325s-0.155 0.635 0.254 0.663c0.72 0.056 1.439 0.042 2.159 0.028 0.339 0 0.395-0.254 0.395-0.55s-0.127-0.466-0.423-0.48c-0.367 0-0.72 0.014-1.058 0.014z"></path>
<path d="M8.056 16.48c0.536 0.451 1.072 0.903 1.623 1.355-0.423 0.24-1.227 0.169-1.552-0.113-0.409-0.381-0.818-0.748-1.213-1.143-0.296-0.31-0.649-0.282-1.002-0.212-0.085 0.014-0.198 0.198-0.212 0.31-0.028 0.31-0.028 0.621 0 0.931 0.028 0.395-0.226 0.395-0.508 0.395-0.268-0.014-0.522 0.028-0.522-0.381 0.014-1.213 0.014-2.427 0-3.64 0-0.254 0.099-0.381 0.367-0.381 1.199 0.014 2.399 0.014 3.598 0.028 0.466 0.014 0.72 0.254 0.748 0.72 0.028 0.395 0.028 0.804 0.014 1.199-0.014 0.466-0.282 0.72-0.762 0.762-0.183 0.014-0.367 0.028-0.55 0.042 0 0.042-0.014 0.085-0.028 0.127zM7.026 14.349c0 0.014 0 0.014 0 0.028-0.226 0-0.437 0-0.663 0-0.677 0-0.677 0.014-0.663 0.705 0 0.071-0.028 0.155 0.014 0.183 0.099 0.113 0.198 0.296 0.31 0.31 0.663 0.042 1.312 0.042 1.975 0.028 0.381-0.014 0.437-0.169 0.437-0.748 0-0.353-0.141-0.508-0.48-0.508-0.31 0-0.621 0-0.931 0z"></path>
<path d="M11.513 15.224c0 0.494 0 1.002 0 1.496 0 0.31 0 0.621 0 0.931 0 0.381-0.268 0.325-0.522 0.339s-0.423-0.028-0.423-0.353c0.014-1.242 0-2.483 0.014-3.711 0-0.113 0.099-0.31 0.141-0.296 0.254 0.014 0.578 0 0.762 0.127 0.635 0.48 1.227 1.016 1.834 1.538 0.381 0.325 0.762 0.663 1.143 0.988 0.085 0.071 0.198 0.071 0.31 0.113 0.028-0.099 0.085-0.212 0.085-0.31 0-0.705-0.014-1.411-0.028-2.13-0.014-0.367 0.226-0.339 0.466-0.339 0.254 0 0.466 0.014 0.466 0.353 0 1.030 0 2.060 0 3.104 0 0.113 0.014 0.24 0 0.353-0.028 0.169-0.085 0.494-0.155 0.494-0.24 0.028-0.55 0.028-0.72-0.113-1.002-0.79-1.975-1.608-2.963-2.427-0.099-0.071-0.198-0.141-0.296-0.212-0.028 0.014-0.071 0.042-0.113 0.056z"></path>
<path d="M19.048 13.616c0.691 0 1.397 0.014 2.088 0 0.282 0 0.437 0.085 0.451 0.381 0.014 0.31-0.155 0.409-0.437 0.395-0.367 0-0.72 0.014-1.086 0-0.353-0.014-0.48 0.155-0.48 0.494 0.014 0.875-0.014 1.75 0.014 2.624 0.014 0.437-0.212 0.466-0.55 0.48-0.353 0.014-0.508-0.099-0.508-0.48 0.028-0.818 0.014-1.651 0.014-2.483 0-0.607-0.028-0.621-0.649-0.621-0.339 0-0.677 0-1.002 0s-0.367-0.212-0.367-0.466c0-0.268 0.113-0.367 0.381-0.367 0.705 0 1.425 0 2.131 0 0 0.028 0 0.028 0 0.042z"></path>
</svg>
