<!-- Generated by IcoMoon.io -->
<svg version="1.1" xmlns="http://www.w3.org/2000/svg" width="32" height="32" viewBox="0 0 32 32">
<title>ROBINHOOD</title>
<path d="M20.205 7.041c-0.734 0.889-1.355 1.637-1.975 2.399-5.347 6.561-9.496 13.813-12.529 21.714-0.113 0.296-0.339 0.663-0.607 0.762-0.494 0.183-0.734-0.085-0.593-0.621 0.649-2.399 1.199-4.825 2.004-7.168 0.55-1.608 0.705-3.118 0.212-4.755-0.282-0.931-0.353-1.933-0.48-2.907-0.028-0.268 0.042-0.607 0.198-0.818 1.665-2.243 3.358-4.473 5.065-6.688 0.183-0.24 0.48-0.466 0.762-0.522 2.427-0.48 4.868-0.931 7.309-1.383 0.155-0.042 0.31-0.014 0.635-0.014z"></path>
<path d="M22.829 14.138c-0.056-0.748-0.155-1.51-0.183-2.258-0.071-1.75-0.099-3.499-0.141-5.249-0.014-0.903-0.198-1.101-1.101-0.974-2.328 0.353-4.67 0.734-6.998 1.101-0.282 0.042-0.55 0.085-0.988 0.141 0.169-0.254 0.24-0.395 0.339-0.494 1.58-1.623 3.146-3.259 4.769-4.825 0.437-0.423 1.030-0.72 1.608-0.903 1.594-0.536 3.231-0.748 4.91-0.607 1.806 0.155 2.582 0.762 3.062 2.511 0.437 1.58 0.437 3.189 0.155 4.797-0.042 0.254-0.198 0.508-0.367 0.72-1.524 1.933-3.048 3.866-4.586 5.785-0.085 0.099-0.183 0.183-0.282 0.268-0.071 0-0.127-0.014-0.198-0.014z"></path>
<path d="M21.263 8.071c0.042 0.649 0.071 1.213 0.113 1.778 0.127 1.848 0.282 3.697 0.381 5.545 0.014 0.381-0.071 0.832-0.268 1.171-1.115 1.975-2.272 3.922-3.429 5.855-0.127 0.198-0.339 0.409-0.55 0.494-2.526 0.903-5.051 1.778-7.577 2.653-0.071 0.028-0.155 0.014-0.226 0.028-0.212-1.75 9.453-16.423 11.556-17.524z"></path>
<path d="M8.056 29.235c0.437-1.058 0.607-2.173 1.933-2.554 1.298-0.367 2.554-0.917 3.824-1.383 0.183-0.071 0.367-0.099 0.72-0.183-0.282 0.677-0.381 1.312-0.959 1.608-1.735 0.875-3.499 1.693-5.263 2.526-0.042 0.028-0.085 0-0.254-0.014z"></path>
</svg>
