<?xml version="1.0" encoding="utf-8"?>
<!-- Generator: Adobe Illustrator 22.1.0, SVG Export Plug-In . SVG Version: 6.00 Build 0)  -->
<svg version="1.1" id="Layer_1" xmlns="http://www.w3.org/2000/svg" xmlns:xlink="http://www.w3.org/1999/xlink" x="0px" y="0px"
	 viewBox="0 0 250 250" style="enable-background:new 0 0 250 250;" xml:space="preserve">
<g>
	<path d="M166.8,184.4c-1.8-0.8-2.3-2.2-2.4-4.2c-0.5-8.5-1.1-17-1.7-25.4c-0.3-5.3-0.6-10.6-1-15.9c-0.5-7-1-14.1-1.4-21.1
		c-0.3-5.2-0.6-10.4-1-15.6c-0.2-3.7-0.5-7.4-1-11.1c-0.2,1.3-0.4,2.5-0.5,3.8c-0.8,6.8-1.6,13.7-2.3,20.5c-0.7,6.7-1.5,13.3-2.2,20
		c-0.6,5.2-1.2,10.3-1.8,15.5c-0.2,1.5-1.3,2.6-2.8,2.7c-1.6,0.1-2.9-0.8-3.1-2.4c-1-5.9-2-11.9-3-17.9c-1-6.3-2-12.5-3.1-18.8
		c0-0.2-0.2-0.3-0.4-0.9c-0.5,2-0.9,3.7-1.4,5.4c-0.5,2-0.9,4-1.5,6c-0.5,1.7-1.5,2.5-3.2,2.5c-0.3,0-0.7,0-1.1,0
		c-42.5,0-85,0-127.5,0c-2,0-3.5-0.6-4.4-2.4c0-0.5,0-1,0-1.5c0.9-1.9,2.4-2.3,4.4-2.3c41.5,0,83,0,124.5,0.1c1.5,0,2.2-0.4,2.5-1.9
		c1.6-7.1,3.4-14.2,5.1-21.3c0.1-0.4,0.2-0.9,0.3-1.3c0.5-1.4,1.7-2.2,3.1-2.1c1.4,0.1,2.5,1.1,2.8,2.6c0.9,5.5,1.8,10.9,2.7,16.4
		c0.7,4.5,1.5,9,2.5,13.5c0.2-1.3,0.4-2.6,0.5-3.9c0.7-6,1.4-12,2-18c0.6-5.8,1.2-11.5,1.9-17.3c0.6-5.7,1.3-11.4,2-17.1
		c0.5-4.8,1.1-9.6,1.6-14.4c0.1-0.8,0.2-1.7,0.3-2.5c0.3-1.4,1.4-1.9,2.6-2.4c0.2,0,0.4,0,0.6,0c1.9,0.6,2.7,1.8,2.8,3.9
		c0.3,5.8,0.7,11.7,1.1,17.5c0.5,6.9,1,13.9,1.4,20.8c0.3,5.3,0.6,10.6,1,15.9c0.5,7.1,1,14.2,1.4,21.3c0.3,5.2,0.6,10.4,1,15.6
		c0,0.6,0,1.2,0,1.7c0.1,0,0.3,0,0.4,0c0.2-1.1,0.4-2.2,0.5-3.3c1.1-8.3,2.2-16.5,3.3-24.8c0.8-6.5,1.7-13,2.5-19.5
		c0.3-2.4,1.3-3.7,3.1-3.7c1.6,0,2.9,1,3.1,2.5c0.5,4.4,1,8.8,1.5,13.2c0.6,4.9,1.1,9.8,1.7,14.7c0.2,1.4,0.3,2.9,0.8,4.4
		c0.3-0.5,0.6-1.1,0.9-1.6c1.1-2.1,2.3-4.2,3.4-6.4c0.7-1.5,1.8-2.1,3.5-2.1c13.4,0,26.7,0,40.1,0c1,0,1.6-0.2,2.1-1.2
		c1.8-3.1,5.4-4.6,8.7-3.7c3.6,1,6.1,4.1,6.2,7.7c0.1,3.5-2.4,6.9-5.8,7.9c-3.4,1-7.1-0.3-9-3.4c-0.6-1-1.3-1.2-2.4-1.2
		c-12.4,0-24.7,0-37.1-0.1c-1.2,0-1.8,0.3-2.3,1.4c-2.4,4.8-5,9.5-7.5,14.2c-1,1.9-2.6,2.6-4.2,1.8c-1.1-0.5-1.6-1.4-1.8-2.6
		c-0.6-5.4-1.3-10.8-1.9-16.5c-0.2,0.4-0.4,0.6-0.4,0.8c-1.1,8.8-2.2,17.5-3.4,26.3c-1.1,8.8-2.3,17.5-3.5,26.3c0,0.2,0,0.5-0.1,0.7
		c0,1.9-0.8,3.4-2.7,4.1C167.6,184.4,167.2,184.4,166.8,184.4z"/>
	<path d="M70.8,80.5c5.7,0.2,11.3-0.1,16.9,0.6c7.4,0.9,12.8,7.7,13,15.3c0.1,5.7-1.4,10.6-5.9,14.2c-2.6,2.1-5.6,3.3-8.9,3.4
		c-4.9,0.1-9.9,0-14.9,0C70.8,103.1,70.8,92,70.8,80.5z M76.9,109.4c2.5,0,4.9,0,7.3,0c4.2-0.1,7.2-2,9-5.9c1.1-2.4,1.4-5,1.1-7.6
		c-0.4-4.2-2-7.8-6.1-9.6c-3.6-1.6-7.4-0.8-11.3-0.9C76.9,93.4,76.9,101.3,76.9,109.4z"/>
	<path d="M31.5,99.7c3.3,4.8,6.5,9.5,9.9,14.5c-2.2,0-4.1,0.1-6-0.1c-0.7-0.1-1.5-0.8-1.9-1.4c-2.3-3.3-4.5-6.7-6.7-10.1
		c-0.9-1.4-3.5-2.2-4.9-1.5c-0.3,0.2-0.5,0.9-0.5,1.4c0,3.3,0,6.6,0,9.9c0,0.5,0,1.1,0,1.8c-2,0-3.9,0-5.9,0c0-11.1,0-22.1,0-33.2
		c0.1-0.1,0.2-0.2,0.2-0.2c4.7,0.1,9.5-0.1,14.2,0.3c4.9,0.4,7.9,3.4,8.4,7.6c0.6,5-1.5,8.7-6.1,10.7C31.9,99.5,31.6,99.6,31.5,99.7
		z M21.3,90.9c0,1.5,0,3.1,0,4.6c0,0.4,0.4,1.1,0.6,1.1c2.5,0.1,5.1,0.4,7.5-0.8c2.2-1.1,3.2-3.2,2.9-6c-0.2-2.1-1.7-3.8-4.1-4.2
		c-2.1-0.3-4.2-0.3-6.3-0.3c-0.3,0-0.7,0.6-0.8,1C21.3,87.8,21.3,89.4,21.3,90.9z"/>
	<path d="M51,99.6c0,3.4,0,6.4,0,9.7c2.5,0,4.9,0,7.4,0c2.4,0,4.9,0,7.6,0c0,1.5,0,2.9,0,4.3c0,0.2-0.5,0.6-0.8,0.6
		c-6.7,0-13.3,0-20.1,0c0-11.2,0-22.3,0-33.5c7,0,13.9,0,20.9,0c0,1.5,0,3,0,4.6c-1.8,0-3.6,0-5.3,0c-2.8,0-5.6,0-8.4,0
		c-0.4,0-1.2,0.5-1.2,0.8c-0.1,2.8-0.1,5.7-0.1,8.8c4,0,7.9,0,11.8,0c0,1.7,0,3.1,0,4.7C58.8,99.6,55,99.6,51,99.6z"/>
	<path d="M40.7,134.6c1.8,0,3.4,0,5.3,0c0,0.7,0,1.3,0,1.9c0,5.1,0,10.1,0,15.2c0,0.7,0,1.4,0.1,2.1c0.5,4.5,3.2,7.1,7.3,7
		c4.3-0.2,7-3,7-7.5c0.1-5.6,0-11.2,0-16.8c0-0.5,0-1.1,0-1.7c1.9,0,3.6,0,5.3,0c0.1,0.2,0.2,0.4,0.2,0.5c-0.1,6.7,0.1,13.3-0.2,20
		c-0.2,5.2-4.7,9.6-9.9,10.1c-2,0.2-4,0.2-5.9-0.2c-5.7-1.2-9.1-5.4-9.3-11.5c-0.2-6.1,0-12.2,0-18.3
		C40.6,135,40.7,134.9,40.7,134.6z"/>
	<path d="M115.5,164.9c0-10.1,0-20.1,0-30.3c6.3,0,12.6,0,19.1,0c0,1.3,0,2.6,0,4.1c-0.5,0-1,0.1-1.6,0.1c-3.5,0-7,0-10.5,0
		c-1.2,0-1.6,0.4-1.5,1.6c0.1,1.9,0.1,3.9,0,5.9c0,1.1,0.4,1.5,1.5,1.4c2.6-0.1,5.1,0,7.7,0c0.5,0,1,0,1.6,0.1c0,1.3,0,2.6,0,4.1
		c-3.5,0-7,0-10.7,0c0,2.9,0,5.5,0.1,8.2c0,0.3,0.8,0.8,1.2,0.8c3.5,0.1,6.9,0,10.4,0c0.6,0,1.2,0,1.9,0c0,1.4,0,2.8,0,4.2
		C128.2,164.9,121.9,164.9,115.5,164.9z"/>
	<path d="M15.4,165.1c0-10.3,0-20.4,0-30.8c4.9,0.2,9.7,0.1,14.4,0.8c4.9,0.8,7.4,4.4,7.2,9.5c-0.1,4.8-3,8.4-7.9,9.2
		c-2.3,0.4-4.7,0.3-7,0.4c-1.1,0-1.4,0.4-1.4,1.4c0,2.8,0,5.5,0,8.3c0,0.9-0.2,1.4-1.3,1.3C18.2,165,16.8,165.1,15.4,165.1z
		 M20.8,138.5c0,3.8,0,7.1,0,10.5c0,0.3,0.6,0.9,0.9,0.9c1.8,0,3.7,0.1,5.5-0.2c2.7-0.4,4.3-2.5,4.3-5.3c0-3.1-1.3-5-4.1-5.5
		C25.3,138.6,23.2,138.7,20.8,138.5z"/>
	<path d="M111.1,137.2c-1.8,3.8-1.8,3.8-5.3,2.2c-1.8-0.9-3.7-1-5.7-0.4c-1.6,0.5-2.5,1.6-2.7,3.3c-0.2,1.6,0.7,2.7,2,3.4
		c1.1,0.6,2.3,0.9,3.5,1.4c1.1,0.4,2.2,0.7,3.2,1.2c6.3,2.6,7.5,10.1,2.4,14.6c-3.5,3.1-7.6,3.2-11.9,2c-2.1-0.6-4.1-1.6-5.6-3.3
		c0.1-0.2,0.1-0.3,0.2-0.4c1.7-2.7,1.6-4.1,5.4-1.4c1.8,1.3,3.9,1.5,6,1.2c2-0.3,3.5-1.6,3.7-3.4c0.3-2.2-0.3-3.6-2.4-4.5
		c-1.9-0.8-3.9-1.3-5.8-2c-4.6-1.7-6.5-4.8-5.9-9.3c0.5-3.9,4.2-7,8.5-7.3c3-0.2,5.8,0.1,8.4,1.7
		C109.8,136.2,110.4,136.7,111.1,137.2z"/>
	<path d="M71.3,165c0-10.2,0-20.3,0-30.4c1.8,0,3.4,0,5.4,0c0,0.6,0,1.1,0,1.7c0,7.5,0,15,0,22.5c0,1.4,0.4,1.8,1.8,1.8
		c3-0.1,6,0,9,0c0.5,0,1.1,0,1.7,0.1c0,1.5,0,2.9,0,4.4C83.2,165,77.3,165,71.3,165z"/>
</g>
</svg>
