<!-- Generated by IcoMoon.io -->
<svg version="1.1" xmlns="http://www.w3.org/2000/svg" width="32" height="32" viewBox="0 0 32 32">
<title>RPX</title>
<path d="M21.35 23.603c-0.23-0.102-0.294-0.282-0.307-0.538-0.064-1.088-0.141-2.176-0.218-3.251-0.038-0.678-0.077-1.357-0.128-2.035-0.064-0.896-0.128-1.805-0.179-2.701-0.038-0.666-0.077-1.331-0.128-1.997-0.026-0.474-0.064-0.947-0.128-1.421-0.026 0.166-0.051 0.32-0.064 0.486-0.102 0.87-0.205 1.754-0.294 2.624-0.090 0.858-0.192 1.702-0.282 2.56-0.077 0.666-0.154 1.318-0.23 1.984-0.026 0.192-0.166 0.333-0.358 0.346-0.205 0.013-0.371-0.102-0.397-0.307-0.128-0.755-0.256-1.523-0.384-2.291-0.128-0.806-0.256-1.6-0.397-2.406 0-0.026-0.026-0.038-0.051-0.115-0.064 0.256-0.115 0.474-0.179 0.691-0.064 0.256-0.115 0.512-0.192 0.768-0.064 0.218-0.192 0.32-0.41 0.32-0.038 0-0.090 0-0.141 0-5.44 0-10.88 0-16.32 0-0.256 0-0.448-0.077-0.563-0.307 0-0.064 0-0.128 0-0.192 0.115-0.243 0.307-0.294 0.563-0.294 5.312 0 10.624 0 15.936 0.013 0.192 0 0.282-0.051 0.32-0.243 0.205-0.909 0.435-1.818 0.653-2.726 0.013-0.051 0.026-0.115 0.038-0.166 0.064-0.179 0.218-0.282 0.397-0.269s0.32 0.141 0.358 0.333c0.115 0.704 0.23 1.395 0.346 2.099 0.090 0.576 0.192 1.152 0.32 1.728 0.026-0.166 0.051-0.333 0.064-0.499 0.090-0.768 0.179-1.536 0.256-2.304 0.077-0.742 0.154-1.472 0.243-2.214 0.077-0.73 0.166-1.459 0.256-2.189 0.064-0.614 0.141-1.229 0.205-1.843 0.013-0.102 0.026-0.218 0.038-0.32 0.038-0.179 0.179-0.243 0.333-0.307 0.026 0 0.051 0 0.077 0 0.243 0.077 0.346 0.23 0.358 0.499 0.038 0.742 0.090 1.498 0.141 2.24 0.064 0.883 0.128 1.779 0.179 2.662 0.038 0.678 0.077 1.357 0.128 2.035 0.064 0.909 0.128 1.818 0.179 2.726 0.038 0.666 0.077 1.331 0.128 1.997 0 0.077 0 0.154 0 0.218 0.013 0 0.038 0 0.051 0 0.026-0.141 0.051-0.282 0.064-0.422 0.141-1.062 0.282-2.112 0.422-3.174 0.102-0.832 0.218-1.664 0.32-2.496 0.038-0.307 0.166-0.474 0.397-0.474 0.205 0 0.371 0.128 0.397 0.32 0.064 0.563 0.128 1.126 0.192 1.69 0.077 0.627 0.141 1.254 0.218 1.882 0.026 0.179 0.038 0.371 0.102 0.563 0.038-0.064 0.077-0.141 0.115-0.205 0.141-0.269 0.294-0.538 0.435-0.819 0.090-0.192 0.23-0.269 0.448-0.269 1.715 0 3.418 0 5.133 0 0.128 0 0.205-0.026 0.269-0.154 0.23-0.397 0.691-0.589 1.114-0.474 0.461 0.128 0.781 0.525 0.794 0.986 0.013 0.448-0.307 0.883-0.742 1.011s-0.909-0.038-1.152-0.435c-0.077-0.128-0.166-0.154-0.307-0.154-1.587 0-3.162 0-4.749-0.013-0.154 0-0.23 0.038-0.294 0.179-0.307 0.614-0.64 1.216-0.96 1.818-0.128 0.243-0.333 0.333-0.538 0.23-0.141-0.064-0.205-0.179-0.23-0.333-0.077-0.691-0.166-1.382-0.243-2.112-0.026 0.051-0.051 0.077-0.051 0.102-0.141 1.126-0.282 2.24-0.435 3.366-0.141 1.126-0.294 2.24-0.448 3.366 0 0.026 0 0.064-0.013 0.090 0 0.243-0.102 0.435-0.346 0.525-0.026 0.013-0.077 0.013-0.128 0.013z"></path>
<path d="M9.062 10.304c0.73 0.026 1.446-0.013 2.163 0.077 0.947 0.115 1.638 0.986 1.664 1.958 0.013 0.73-0.179 1.357-0.755 1.818-0.333 0.269-0.717 0.422-1.139 0.435-0.627 0.013-1.267 0-1.907 0-0.026-1.395-0.026-2.816-0.026-4.288zM9.843 14.003c0.32 0 0.627 0 0.934 0 0.538-0.013 0.922-0.256 1.152-0.755 0.141-0.307 0.179-0.64 0.141-0.973-0.051-0.538-0.256-0.998-0.781-1.229-0.461-0.205-0.947-0.102-1.446-0.115 0 1.024 0 2.035 0 3.072z"></path>
<path d="M4.032 12.762c0.422 0.614 0.832 1.216 1.267 1.856-0.282 0-0.525 0.013-0.768-0.013-0.090-0.013-0.192-0.102-0.243-0.179-0.294-0.422-0.576-0.858-0.858-1.293-0.115-0.179-0.448-0.282-0.627-0.192-0.038 0.026-0.064 0.115-0.064 0.179 0 0.422 0 0.845 0 1.267 0 0.064 0 0.141 0 0.23-0.256 0-0.499 0-0.755 0 0-1.421 0-2.829 0-4.25 0.013-0.013 0.026-0.026 0.026-0.026 0.602 0.013 1.216-0.013 1.818 0.038 0.627 0.051 1.011 0.435 1.075 0.973 0.077 0.64-0.192 1.114-0.781 1.37-0.038 0.013-0.077 0.026-0.090 0.038zM2.726 11.635c0 0.192 0 0.397 0 0.589 0 0.051 0.051 0.141 0.077 0.141 0.32 0.013 0.653 0.051 0.96-0.102 0.282-0.141 0.41-0.41 0.371-0.768-0.026-0.269-0.218-0.486-0.525-0.538-0.269-0.038-0.538-0.038-0.806-0.038-0.038 0-0.090 0.077-0.102 0.128 0.026 0.192 0.026 0.397 0.026 0.589z"></path>
<path d="M6.528 12.749c0 0.435 0 0.819 0 1.242 0.32 0 0.627 0 0.947 0 0.307 0 0.627 0 0.973 0 0 0.192 0 0.371 0 0.55 0 0.026-0.064 0.077-0.102 0.077-0.858 0-1.702 0-2.573 0 0-1.434 0-2.854 0-4.288 0.896 0 1.779 0 2.675 0 0 0.192 0 0.384 0 0.589-0.23 0-0.461 0-0.678 0-0.358 0-0.717 0-1.075 0-0.051 0-0.154 0.064-0.154 0.102-0.013 0.358-0.013 0.73-0.013 1.126 0.512 0 1.011 0 1.51 0 0 0.218 0 0.397 0 0.602-0.512 0-0.998 0-1.51 0z"></path>
<path d="M5.21 17.229c0.23 0 0.435 0 0.678 0 0 0.090 0 0.166 0 0.243 0 0.653 0 1.293 0 1.946 0 0.090 0 0.179 0.013 0.269 0.064 0.576 0.41 0.909 0.934 0.896 0.55-0.026 0.896-0.384 0.896-0.96 0.013-0.717 0-1.434 0-2.15 0-0.064 0-0.141 0-0.218 0.243 0 0.461 0 0.678 0 0.013 0.026 0.026 0.051 0.026 0.064-0.013 0.858 0.013 1.702-0.026 2.56-0.026 0.666-0.602 1.229-1.267 1.293-0.256 0.026-0.512 0.026-0.755-0.026-0.73-0.154-1.165-0.691-1.19-1.472s0-1.562 0-2.342c0-0.051 0.013-0.064 0.013-0.102z"></path>
<path d="M14.784 21.107c0-1.293 0-2.573 0-3.878 0.806 0 1.613 0 2.445 0 0 0.166 0 0.333 0 0.525-0.064 0-0.128 0.013-0.205 0.013-0.448 0-0.896 0-1.344 0-0.154 0-0.205 0.051-0.192 0.205 0.013 0.243 0.013 0.499 0 0.755 0 0.141 0.051 0.192 0.192 0.179 0.333-0.013 0.653 0 0.986 0 0.064 0 0.128 0 0.205 0.013 0 0.166 0 0.333 0 0.525-0.448 0-0.896 0-1.37 0 0 0.371 0 0.704 0.013 1.050 0 0.038 0.102 0.102 0.154 0.102 0.448 0.013 0.883 0 1.331 0 0.077 0 0.154 0 0.243 0 0 0.179 0 0.358 0 0.538-0.832-0.026-1.638-0.026-2.458-0.026z"></path>
<path d="M1.971 21.133c0-1.318 0-2.611 0-3.942 0.627 0.026 1.242 0.013 1.843 0.102 0.627 0.102 0.947 0.563 0.922 1.216-0.013 0.614-0.384 1.075-1.011 1.178-0.294 0.051-0.602 0.038-0.896 0.051-0.141 0-0.179 0.051-0.179 0.179 0 0.358 0 0.704 0 1.062 0 0.115-0.026 0.179-0.166 0.166-0.154-0.026-0.333-0.013-0.512-0.013zM2.662 17.728c0 0.486 0 0.909 0 1.344 0 0.038 0.077 0.115 0.115 0.115 0.23 0 0.474 0.013 0.704-0.026 0.346-0.051 0.55-0.32 0.55-0.678 0-0.397-0.166-0.64-0.525-0.704-0.269-0.038-0.538-0.026-0.845-0.051z"></path>
<path d="M14.221 17.562c-0.23 0.486-0.23 0.486-0.678 0.282-0.23-0.115-0.474-0.128-0.73-0.051-0.205 0.064-0.32 0.205-0.346 0.422-0.026 0.205 0.090 0.346 0.256 0.435 0.141 0.077 0.294 0.115 0.448 0.179 0.141 0.051 0.282 0.090 0.41 0.154 0.806 0.333 0.96 1.293 0.307 1.869-0.448 0.397-0.973 0.41-1.523 0.256-0.269-0.077-0.525-0.205-0.717-0.422 0.013-0.026 0.013-0.038 0.026-0.051 0.218-0.346 0.205-0.525 0.691-0.179 0.23 0.166 0.499 0.192 0.768 0.154 0.256-0.038 0.448-0.205 0.474-0.435 0.038-0.282-0.038-0.461-0.307-0.576-0.243-0.102-0.499-0.166-0.742-0.256-0.589-0.218-0.832-0.614-0.755-1.19 0.064-0.499 0.538-0.896 1.088-0.934 0.384-0.026 0.742 0.013 1.075 0.218 0.090 0 0.166 0.064 0.256 0.128z"></path>
<path d="M9.126 21.12c0-1.306 0-2.598 0-3.891 0.23 0 0.435 0 0.691 0 0 0.077 0 0.141 0 0.218 0 0.96 0 1.92 0 2.88 0 0.179 0.051 0.23 0.23 0.23 0.384-0.013 0.768 0 1.152 0 0.064 0 0.141 0 0.218 0.013 0 0.192 0 0.371 0 0.563-0.768-0.013-1.523-0.013-2.291-0.013z"></path>
</svg>
