<!-- Generated by IcoMoon.io -->
<svg version="1.1" xmlns="http://www.w3.org/2000/svg" width="32" height="32" viewBox="0 0 32 32">
<title>RUFF</title>
<path d="M18.554 14.123c0.903-0.649 1.778-1.242 2.582-1.905 0.254-0.212 0.409-0.607 0.494-0.931 0.381-1.524 1.961-2.215 3.259-1.383 0.748 0.48 0.945 1.242 0.861 2.046-0.085 0.818-0.522 1.425-1.355 1.707-0.55 0.183-1.086 0.155-1.623-0.028-0.437-0.155-0.847-0.113-1.256 0.085-0.762 0.353-1.524 0.691-2.286 1.044-0.212 0.099-0.339 0.212-0.339 0.48-0.014 0.451-0.071 0.903-0.169 1.34-0.056 0.254-0.042 0.381 0.212 0.494 0.847 0.367 1.679 0.748 2.511 1.143 0.48 0.226 0.945 0.24 1.453 0.085 0.988-0.325 2.018 0.028 2.526 0.79 0.466 0.72 0.466 1.693 0 2.328-0.494 0.677-1.425 1.058-2.229 0.818-0.776-0.226-1.298-0.776-1.496-1.58-0.127-0.55-0.395-0.988-0.861-1.326-0.776-0.536-1.552-1.086-2.314-1.637-0.198-0.141-0.353-0.127-0.55 0-0.24 0.169-0.494 0.353-0.776 0.423-0.381 0.099-0.48 0.268-0.437 0.649 0.113 0.988 0.155 2.004 0.296 2.991 0.056 0.339 0.325 0.663 0.508 0.988 0.226 0.367 0.536 0.691 0.691 1.072 0.339 0.861 0.056 1.637-0.691 2.215-0.621 0.48-1.665 0.508-2.342 0.071-1.185-0.776-1.326-2.314-0.24-3.302 0.466-0.423 0.635-0.917 0.691-1.496 0.085-0.931 0.169-1.862 0.226-2.794 0.014-0.113-0.113-0.282-0.212-0.353-0.353-0.198-0.705-0.381-1.072-0.536-0.113-0.042-0.296-0.042-0.395 0.014-0.875 0.593-1.735 1.199-2.582 1.82-0.353 0.254-0.564 0.593-0.649 1.044-0.155 0.847-0.875 1.594-1.637 1.735-0.889 0.169-1.848-0.226-2.314-1.016-0.621-1.058-0.113-2.765 1.439-3.034 0.423-0.071 0.875 0.042 1.326 0.042 0.395 0 0.818 0.056 1.171-0.071 0.903-0.339 1.75-0.776 2.638-1.171 0.254-0.113 0.325-0.226 0.24-0.522-0.113-0.381-0.155-0.79-0.155-1.199 0-0.24-0.042-0.381-0.268-0.48-0.832-0.367-1.651-0.748-2.469-1.129-0.466-0.212-0.917-0.113-1.383 0.014-0.818 0.24-1.58 0.085-2.173-0.522-0.649-0.649-0.72-1.467-0.423-2.3 0.296-0.818 1.030-1.298 1.919-1.312 0.818-0.014 1.721 0.451 1.891 1.256 0.254 1.171 1.058 1.778 1.933 2.37 0.381 0.254 0.748 0.536 1.143 0.776 0.099 0.056 0.296 0.028 0.395-0.042 0.437-0.282 0.847-0.607 1.298-0.861 0.212-0.113 0.31-0.226 0.296-0.466-0.099-0.875-0.141-1.75-0.296-2.61-0.071-0.367-0.339-0.72-0.607-1.016-0.607-0.691-0.903-1.439-0.578-2.342 0.296-0.804 1.115-1.312 2.018-1.284 0.832 0.028 1.693 0.663 1.862 1.439 0.169 0.748 0.085 1.51-0.508 2.032-0.677 0.607-0.818 1.369-0.903 2.187-0.056 0.536-0.113 1.072-0.141 1.608 0 0.127 0.113 0.367 0.212 0.395 0.677 0.226 1.199 0.564 1.637 1.143z"></path>
<path d="M29.263 7.097c-0.734 0.395-1.34 0.748-1.961 1.044-0.522 0.254-1.044 0.141-1.524-0.141-2.483-1.425-4.952-2.836-7.407-4.289-0.325-0.183-0.649-0.578-0.72-0.931-0.155-0.748-0.127-1.538-0.183-2.314 0.056-0.028 0.099-0.056 0.155-0.085 3.838 2.229 7.69 4.444 11.64 6.716z"></path>
<path d="M2.257 22.589c0-4.557 0-8.974 0-13.517 0.748 0.494 1.58 0.72 2.102 1.369 0.24 0.296 0.381 0.734 0.381 1.115 0.028 2.836 0.014 5.686 0.014 8.522 0 0.48-0.113 0.959-0.494 1.242-0.607 0.466-1.284 0.818-2.004 1.27z"></path>
<path d="M15.083 31.45c-3.937-2.272-7.746-4.473-11.626-6.716 0.113-0.099 0.183-0.183 0.268-0.226 0.423-0.24 0.847-0.466 1.27-0.705 0.649-0.367 1.284-0.353 1.919 0.014 1.82 1.044 3.626 2.102 5.446 3.146 0.607 0.353 1.213 0.705 1.82 1.058 0.593 0.353 0.889 0.875 0.889 1.58 0.014 0.564 0.014 1.143 0.014 1.848z"></path>
<path d="M30.392 9.171c0 4.501 0 8.903 0 13.46-0.762-0.494-1.467-0.889-2.074-1.397-0.254-0.212-0.395-0.705-0.409-1.058-0.028-2.878-0.028-5.771-0.014-8.649 0-0.635 0.296-1.157 0.847-1.481 0.508-0.296 1.044-0.564 1.651-0.875z"></path>
<path d="M3.414 7.111c3.936-2.272 7.774-4.487 11.612-6.702 0.042 0.014 0.085 0.042 0.127 0.056-0.056 0.861 0.183 1.735-0.226 2.568-0.155 0.31-0.451 0.593-0.748 0.762-2.413 1.411-4.839 2.808-7.266 4.205-0.466 0.268-0.974 0.381-1.481 0.155-0.663-0.296-1.284-0.663-2.018-1.044z"></path>
<path d="M17.467 31.337c0.042-0.734 0.042-1.481 0.141-2.215 0.071-0.564 0.48-0.917 0.959-1.185 1.707-0.974 3.429-1.961 5.136-2.949 0.705-0.409 1.397-0.818 2.116-1.213 0.635-0.353 1.256-0.339 1.891 0.014 0.466 0.268 0.931 0.536 1.496 0.847-3.908 2.286-7.746 4.529-11.584 6.773-0.056-0.028-0.099-0.056-0.155-0.071z"></path>
</svg>
