<?xml version="1.0" encoding="utf-8"?>
<!-- Generator: Adobe Illustrator 22.1.0, SVG Export Plug-In . SVG Version: 6.00 Build 0)  -->
<svg version="1.1" id="Layer_1" xmlns="http://www.w3.org/2000/svg" xmlns:xlink="http://www.w3.org/1999/xlink" x="0px" y="0px"
	 viewBox="0 0 226.8 226.8" style="enable-background:new 0 0 226.8 226.8;" xml:space="preserve">
<g>
	<path d="M131.5,100.1c6.4-4.6,12.6-8.8,18.3-13.5c1.8-1.5,2.9-4.3,3.5-6.6c2.7-10.8,13.9-15.7,23.1-9.8c5.3,3.4,6.7,8.8,6.1,14.5
		c-0.6,5.8-3.7,10.1-9.6,12.1c-3.9,1.3-7.7,1.1-11.5-0.2c-3.1-1.1-6-0.8-8.9,0.6c-5.4,2.5-10.8,4.9-16.2,7.4
		c-1.5,0.7-2.4,1.5-2.4,3.4c-0.1,3.2-0.5,6.4-1.2,9.5c-0.4,1.8-0.3,2.7,1.5,3.5c6,2.6,11.9,5.3,17.8,8.1c3.4,1.6,6.7,1.7,10.3,0.6
		c7-2.3,14.3,0.2,17.9,5.6c3.3,5.1,3.3,12,0,16.5c-3.5,4.8-10.1,7.5-15.8,5.8c-5.5-1.6-9.2-5.5-10.6-11.2c-0.9-3.9-2.8-7-6.1-9.4
		c-5.5-3.8-11-7.7-16.4-11.6c-1.4-1-2.5-0.9-3.9,0c-1.7,1.2-3.5,2.5-5.5,3c-2.7,0.7-3.4,1.9-3.1,4.6c0.8,7,1.1,14.2,2.1,21.2
		c0.4,2.4,2.3,4.7,3.6,7c1.6,2.6,3.8,4.9,4.9,7.6c2.4,6.1,0.4,11.6-4.9,15.7c-4.4,3.4-11.8,3.6-16.6,0.5c-8.4-5.5-9.4-16.4-1.7-23.4
		c3.3-3,4.5-6.5,4.9-10.6c0.6-6.6,1.2-13.2,1.6-19.8c0.1-0.8-0.8-2-1.5-2.5c-2.5-1.4-5-2.7-7.6-3.8c-0.8-0.3-2.1-0.3-2.8,0.1
		c-6.2,4.2-12.3,8.5-18.3,12.9c-2.5,1.8-4,4.2-4.6,7.4c-1.1,6-6.2,11.3-11.6,12.3c-6.3,1.2-13.1-1.6-16.4-7.2
		c-4.4-7.5-0.8-19.6,10.2-21.5c3-0.5,6.2,0.3,9.4,0.3c2.8,0,5.8,0.4,8.3-0.5c6.4-2.4,12.4-5.5,18.7-8.3c1.8-0.8,2.3-1.6,1.7-3.7
		c-0.8-2.7-1.1-5.6-1.1-8.5c0-1.7-0.3-2.7-1.9-3.4c-5.9-2.6-11.7-5.3-17.5-8c-3.3-1.5-6.5-0.8-9.8,0.1c-5.8,1.7-11.2,0.6-15.4-3.7
		c-4.6-4.6-5.1-10.4-3-16.3c2.1-5.8,7.3-9.2,13.6-9.3c5.8-0.1,12.2,3.2,13.4,8.9c1.8,8.3,7.5,12.6,13.7,16.8
		c2.7,1.8,5.3,3.8,8.1,5.5c0.7,0.4,2.1,0.2,2.8-0.3c3.1-2,6-4.3,9.2-6.1c1.5-0.8,2.2-1.6,2.1-3.3c-0.7-6.2-1-12.4-2.1-18.5
		c-0.5-2.6-2.4-5.1-4.3-7.2c-4.3-4.9-6.4-10.2-4.1-16.6c2.1-5.7,7.9-9.3,14.3-9.1c5.9,0.2,12,4.7,13.2,10.2
		c1.2,5.3,0.6,10.7-3.6,14.4c-4.8,4.3-5.8,9.7-6.4,15.5c-0.4,3.8-0.8,7.6-1,11.4c0,0.9,0.8,2.6,1.5,2.8
		C124.7,93.6,128.4,96,131.5,100.1z"/>
	<path d="M207.4,50.3c-5.2,2.8-9.5,5.3-13.9,7.4c-3.7,1.8-7.4,1-10.8-1c-17.6-10.1-35.1-20.1-52.5-30.4c-2.3-1.3-4.6-4.1-5.1-6.6
		c-1.1-5.3-0.9-10.9-1.3-16.4c0.4-0.2,0.7-0.4,1.1-0.6C152.1,18.5,179.4,34.2,207.4,50.3z"/>
	<path d="M16,160.1c0-32.3,0-63.6,0-95.8c5.3,3.5,11.2,5.1,14.9,9.7c1.7,2.1,2.7,5.2,2.7,7.9c0.2,20.1,0.1,40.3,0.1,60.4
		c0,3.4-0.8,6.8-3.5,8.8C25.9,154.4,21.1,156.9,16,160.1z"/>
	<path d="M106.9,222.9C79,206.8,52,191.2,24.5,175.3c0.8-0.7,1.3-1.3,1.9-1.6c3-1.7,6-3.3,9-5c4.6-2.6,9.1-2.5,13.6,0.1
		c12.9,7.4,25.7,14.9,38.6,22.3c4.3,2.5,8.6,5,12.9,7.5c4.2,2.5,6.3,6.2,6.3,11.2C106.9,213.8,106.9,217.9,106.9,222.9z"/>
	<path d="M215.4,65c0,31.9,0,63.1,0,95.4c-5.4-3.5-10.4-6.3-14.7-9.9c-1.8-1.5-2.8-5-2.9-7.5c-0.2-20.4-0.2-40.9-0.1-61.3
		c0-4.5,2.1-8.2,6-10.5C207.3,69.1,211.1,67.2,215.4,65z"/>
	<path d="M24.2,50.4c27.9-16.1,55.1-31.8,82.3-47.5c0.3,0.1,0.6,0.3,0.9,0.4c-0.4,6.1,1.3,12.3-1.6,18.2c-1.1,2.2-3.2,4.2-5.3,5.4
		C83.4,36.9,66.2,46.8,49,56.7c-3.3,1.9-6.9,2.7-10.5,1.1C33.8,55.7,29.4,53.1,24.2,50.4z"/>
	<path d="M123.8,222.1c0.3-5.2,0.3-10.5,1-15.7c0.5-4,3.4-6.5,6.8-8.4c12.1-6.9,24.3-13.9,36.4-20.9c5-2.9,9.9-5.8,15-8.6
		c4.5-2.5,8.9-2.4,13.4,0.1c3.3,1.9,6.6,3.8,10.6,6c-27.7,16.2-54.9,32.1-82.1,48C124.5,222.4,124.2,222.2,123.8,222.1z"/>
</g>
</svg>
