<?xml version="1.0" encoding="utf-8"?>
<!-- Generator: Adobe Illustrator 22.1.0, SVG Export Plug-In . SVG Version: 6.00 Build 0)  -->
<svg version="1.1" id="Layer_1" xmlns="http://www.w3.org/2000/svg" xmlns:xlink="http://www.w3.org/1999/xlink" x="0px" y="0px"
	 viewBox="0 0 226.8 226.8" style="enable-background:new 0 0 226.8 226.8;" xml:space="preserve">
<g>
	<path d="M87.5,51.4c5.5,0.7,10.6,1.4,15.6,2.1c13.1,1.8,26.3,3.6,39.4,5.4c6.2,0.9,12.5,1.7,18.7,2.6c1.4,0.2,1.9,0.7,1.7,2.2
		c-1.6,10.2-3.1,20.4-4.6,30.7c-1.8,12.7-3.6,25.3-5.4,38c-1.2,8.1-2.5,16.2-3.7,24.4c-1.2,8.1-2.3,16.1-3.5,24.2
		c-0.2,0.1-0.4,0.1-0.6,0.2C126.1,138,106.9,94.9,87.5,51.4z"/>
	<path d="M86,54.3c1.2,7.7,2.5,15.3,3.7,23c2.9,17.7,5.9,35.3,8.8,53c2.4,14.5,4.8,28.9,7.2,43.4c0.4,2.4,0.8,4.7,1.2,7
		c0.2,1.2-0.2,2-1.1,2.7c-11.9,8.5-23.7,17-35.6,25.5c-6.8,4.9-13.6,9.8-20.3,14.7c-0.6,0.5-1.3,0.9-2.3,1.5
		c12.7-57.2,25.3-114,38-170.9C85.7,54.3,85.8,54.3,86,54.3z"/>
	<path d="M86.9,53c19.1,43.1,38.3,86.1,57.4,129.2c-4.3,0-8.4,0-12.5,0c-7.2-0.1-14.3-0.3-21.5-0.4c-1.6,0-2.3-0.4-2.5-2.1
		c-3.4-20.8-6.9-41.6-10.4-62.4c-2.9-17.4-5.9-34.8-8.8-52.1c-0.7-4-1.4-8.1-2.1-12.1C86.6,53.1,86.7,53.1,86.9,53z"/>
	<path d="M155.5,29.6c2.5,10.3,4.8,20.2,7.3,30.6c-24.1-3.3-47.6-6.5-71.2-9.7c0-0.2-0.1-0.3-0.1-0.5
		C112.7,43.2,133.9,36.5,155.5,29.6z"/>
	<path d="M147.8,177.2c5.5-37.8,11-75.6,16.6-113.8c0.8,0.9,1.4,1.5,2,2.2c2.7,3.3,5.5,6.7,8.1,10.1c0.4,0.6,0.7,1.6,0.5,2.3
		c-5.8,21.6-11.6,43.1-17.4,64.7c-2.9,10.8-5.8,21.6-8.8,32.4c-0.2,0.8-0.5,1.5-0.8,2.2C147.9,177.3,147.9,177.2,147.8,177.2z"/>
	<path d="M155.4,28.1c-22,7-43.8,13.9-65.5,20.8c0-0.1-0.1-0.2-0.1-0.3c3.5-2.4,7.1-4.8,10.6-7.2c10.8-7.2,21.6-14.5,32.5-21.6
		c0.6-0.4,1.8-0.7,2.4-0.4c6.3,2.6,12.6,5.3,18.9,8C154.4,27.5,154.8,27.7,155.4,28.1z"/>
	<path d="M183.6,19.8c-2.6,0.7-5.2,1.4-7.8,2.1c-5.7,1.5-11.4,3-17.1,4.5c-1.4,0.4-2.2,0.1-2.6-1.5c-1.2-4.3-2.5-8.5-3.7-12.8
		c-0.4-1.5,0.1-1.9,1.9-1.5c3.7,1,7.4,2,11.1,3.1c5.5,1.5,11,3.1,16.4,4.7c0.6,0.2,1.2,0.4,1.8,0.6
		C183.6,19.3,183.6,19.5,183.6,19.8z"/>
	<path d="M131.2,19.5c-14.3,9.5-28.5,19-42.8,28.5c-0.1-0.1-0.2-0.2-0.3-0.2c2.6-4.8,5.3-9.6,7.9-14.4c0.3-0.5,0.9-0.8,1.4-1
		c11-4.3,21.9-8.7,32.9-13c0.2-0.1,0.5-0.1,0.7-0.2C131.1,19.3,131.1,19.4,131.2,19.5z"/>
	<path d="M143.8,21.5c-11.1-4.8-21.7-9.4-32.8-14.1c0.9-0.5,1.5-0.9,2.1-1.2c3.5-1.7,7-3.3,10.4-5c1-0.5,1.9-0.9,2.8,0.2
		c5.6,6.4,11.3,12.7,16.9,19.1C143.4,20.7,143.5,20.9,143.8,21.5z"/>
	<path d="M96.1,31.9c1.4-4.2,2.6-7.9,4-11.4c0.2-0.5,1.3-1,2-1c7.7-0.4,15.4-0.7,23.1-1c1.3-0.1,2.6,0,4,0.4
		C118.4,23.1,107.5,27.4,96.1,31.9z"/>
	<path d="M101,17.3c3.2-2.8,6.5-5.6,10.1-8.8c5.6,2.5,12.3,5.4,19,8.3c0,0.1,0,0.3-0.1,0.4c-9.6,0.3-19.2,0.5-28.7,0.8
		C101.3,17.8,101.2,17.6,101,17.3z"/>
	<path d="M145.5,21.4c-5.3-6.2-10.4-12-15.4-17.8c0.1-0.2,0.2-0.4,0.3-0.5c0.6,0.1,1.2,0.2,1.8,0.4c5.2,2.2,10.4,4.4,15.5,6.7
		c0.5,0.2,1.1,1.2,1,1.7C147.8,14.9,146.7,18,145.5,21.4z"/>
	<path d="M150,9.3c-7.4-3-14.8-5.9-22.2-8.9c0-0.1,0-0.3,0.1-0.4c4.5,0,8.9,0,13.4,0c0.4,0,0.9,0.3,1.2,0.6c2.6,2.7,5.2,5.5,7.8,8.2
		C150.2,9,150.1,9.1,150,9.3z"/>
	<path d="M150.5,11.1c1.6,5.4,3,10.2,4.6,15.4c-2.8-1.4-5.1-2.5-7.5-3.7c-0.4-0.2-0.7-1-0.5-1.4C148.1,18.2,149.2,15,150.5,11.1z"/>
</g>
</svg>
