<!-- Generated by IcoMoon.io -->
<svg version="1.1" xmlns="http://www.w3.org/2000/svg" width="32" height="32" viewBox="0 0 32 32">
<title>RVN</title>
<path d="M12.346 7.252c0.776 0.099 1.496 0.198 2.201 0.296 1.848 0.254 3.711 0.508 5.559 0.762 0.875 0.127 1.764 0.24 2.638 0.367 0.198 0.028 0.268 0.099 0.24 0.31-0.226 1.439-0.437 2.878-0.649 4.332-0.254 1.792-0.508 3.57-0.762 5.362-0.169 1.143-0.353 2.286-0.522 3.443-0.169 1.143-0.325 2.272-0.494 3.414-0.028 0.014-0.056 0.014-0.085 0.028-2.681-6.095-5.39-12.176-8.127-18.314z"></path>
<path d="M12.134 7.661c0.169 1.086 0.353 2.159 0.522 3.245 0.409 2.497 0.832 4.981 1.242 7.478 0.339 2.046 0.677 4.078 1.016 6.123 0.056 0.339 0.113 0.663 0.169 0.988 0.028 0.169-0.028 0.282-0.155 0.381-1.679 1.199-3.344 2.399-5.023 3.598-0.959 0.691-1.919 1.383-2.864 2.074-0.085 0.071-0.183 0.127-0.325 0.212 1.792-8.071 3.57-16.085 5.362-24.113 0.014 0.014 0.028 0.014 0.056 0.014z"></path>
<path d="M12.261 7.478c2.695 6.081 5.404 12.148 8.099 18.229-0.607 0-1.185 0-1.764 0-1.016-0.014-2.018-0.042-3.034-0.056-0.226 0-0.325-0.056-0.353-0.296-0.48-2.935-0.974-5.869-1.467-8.804-0.409-2.455-0.832-4.91-1.242-7.351-0.099-0.564-0.198-1.143-0.296-1.707 0.014 0 0.028 0 0.056-0.014z"></path>
<path d="M21.94 4.176c0.353 1.453 0.677 2.85 1.030 4.317-3.4-0.466-6.716-0.917-10.046-1.369 0-0.028-0.014-0.042-0.014-0.071 2.991-0.959 5.982-1.905 9.030-2.878z"></path>
<path d="M20.854 25.002c0.776-5.333 1.552-10.667 2.342-16.056 0.113 0.127 0.198 0.212 0.282 0.31 0.381 0.466 0.776 0.945 1.143 1.425 0.056 0.085 0.099 0.226 0.071 0.325-0.818 3.048-1.637 6.081-2.455 9.129-0.409 1.524-0.818 3.048-1.242 4.571-0.028 0.113-0.071 0.212-0.113 0.31-0.014 0-0.014-0.014-0.028-0.014z"></path>
<path d="M21.926 3.965c-3.104 0.988-6.18 1.961-9.242 2.935 0-0.014-0.014-0.028-0.014-0.042 0.494-0.339 1.002-0.677 1.496-1.016 1.524-1.016 3.048-2.046 4.586-3.048 0.085-0.056 0.254-0.099 0.339-0.056 0.889 0.367 1.778 0.748 2.667 1.129 0.028 0.014 0.085 0.042 0.169 0.099z"></path>
<path d="M25.905 2.794c-0.367 0.099-0.734 0.198-1.101 0.296-0.804 0.212-1.608 0.423-2.413 0.635-0.198 0.056-0.31 0.014-0.367-0.212-0.169-0.607-0.353-1.199-0.522-1.806-0.056-0.212 0.014-0.268 0.268-0.212 0.522 0.141 1.044 0.282 1.566 0.437 0.776 0.212 1.552 0.437 2.314 0.663 0.085 0.028 0.169 0.056 0.254 0.085 0 0.042 0 0.071 0 0.113z"></path>
<path d="M18.511 2.751c-2.018 1.34-4.021 2.681-6.039 4.021-0.014-0.014-0.028-0.028-0.042-0.028 0.367-0.677 0.748-1.354 1.115-2.032 0.042-0.071 0.127-0.113 0.198-0.141 1.552-0.607 3.090-1.228 4.642-1.834 0.028-0.014 0.071-0.014 0.099-0.028 0.014 0.014 0.014 0.028 0.028 0.042z"></path>
<path d="M20.289 3.034c-1.566-0.677-3.062-1.326-4.628-1.989 0.127-0.071 0.212-0.127 0.296-0.169 0.494-0.24 0.988-0.466 1.467-0.705 0.141-0.071 0.268-0.127 0.395 0.028 0.79 0.903 1.594 1.792 2.384 2.695 0.028 0.028 0.042 0.056 0.085 0.141z"></path>
<path d="M13.559 4.501c0.198-0.593 0.367-1.115 0.564-1.608 0.028-0.071 0.183-0.141 0.282-0.141 1.086-0.056 2.173-0.099 3.259-0.141 0.183-0.014 0.367 0 0.564 0.056-1.524 0.593-3.062 1.199-4.67 1.834z"></path>
<path d="M14.25 2.441c0.451-0.395 0.917-0.79 1.425-1.242 0.79 0.353 1.735 0.762 2.681 1.171 0 0.014 0 0.042-0.014 0.056-1.355 0.042-2.709 0.071-4.049 0.113 0-0.028-0.014-0.056-0.042-0.099z"></path>
<path d="M20.529 3.019c-0.748-0.875-1.467-1.693-2.173-2.511 0.014-0.028 0.028-0.056 0.042-0.071 0.085 0.014 0.169 0.028 0.254 0.056 0.734 0.31 1.467 0.621 2.187 0.945 0.071 0.028 0.155 0.169 0.141 0.24-0.127 0.423-0.282 0.861-0.451 1.34z"></path>
<path d="M21.164 1.312c-1.044-0.423-2.088-0.832-3.132-1.256 0-0.014 0-0.042 0.014-0.056 0.635 0 1.256 0 1.891 0 0.056 0 0.127 0.042 0.169 0.085 0.367 0.381 0.734 0.776 1.101 1.157-0.014 0.028-0.028 0.042-0.042 0.071z"></path>
<path d="M21.235 1.566c0.226 0.762 0.423 1.439 0.649 2.173-0.395-0.198-0.72-0.353-1.058-0.522-0.056-0.028-0.099-0.141-0.071-0.198 0.141-0.452 0.296-0.903 0.48-1.453z"></path>
</svg>
