<!-- Generated by IcoMoon.io -->
<svg version="1.1" xmlns="http://www.w3.org/2000/svg" width="32" height="32" viewBox="0 0 32 32">
<title>SAFEX</title>
<path d="M15.45 9.795c8.705 0 15.76 6.772 15.76 15.125 0 1.707-0.296 3.414-0.889 5.023 1.115-2.116 1.693-4.473 1.679-6.871 0-8.353-6.928-15.125-15.464-15.125-5.658 0-10.61 2.977-13.305 7.422 2.892-3.4 7.295-5.573 12.219-5.573"></path>
<path d="M10.102 3.982c-4.049 0-7.845 2.018-10.102 5.376 1.933-1.101 4.12-1.665 6.335-1.665 7.168 0 12.981 5.87 12.981 13.108 0 1.369-0.212 2.723-0.621 4.021 2.3-2.286 3.598-5.39 3.598-8.635 0-6.744-5.46-12.205-12.19-12.205z"></path>
<path d="M25.721 6.338c-3.358-3.273-8.127-4.656-12.713-3.683 2.483 0.649 4.769 1.933 6.603 3.725 5.954 5.785 6.039 15.337 0.212 21.347-1.101 1.129-2.356 2.088-3.753 2.836 3.753-0.042 7.337-1.58 9.947-4.275 5.432-5.601 5.291-14.533-0.296-19.951z"></path>
</svg>
