<?xml version="1.0" encoding="utf-8"?>
<!-- Generator: Adobe Illustrator 22.0.1, SVG Export Plug-In . SVG Version: 6.00 Build 0)  -->
<svg version="1.1" id="Layer_1" xmlns="http://www.w3.org/2000/svg" xmlns:xlink="http://www.w3.org/1999/xlink" x="0px" y="0px"
	 viewBox="0 0 226.8 226.8" style="enable-background:new 0 0 226.8 226.8;" xml:space="preserve">
<style type="text/css">
	.st0{stroke:#FFFFFF;stroke-miterlimit:10;}
</style>
<g transform="translate(0 .02)">
	<path class="st0" d="M109.5,69.4c61.7,0,111.7,48,111.7,107.2c0,12.1-2.1,24.2-6.3,35.6c7.9-15,12-31.7,11.9-48.7
		c0-59.2-49.1-107.2-109.6-107.2c-40.1,0-75.2,21.1-94.3,52.6C43.4,84.8,74.6,69.4,109.5,69.4"/>
	<path class="st0" d="M71.6,28.2C42.9,28.2,16,42.5,0,66.3c13.7-7.8,29.2-11.8,44.9-11.8c50.8,0,92,41.6,92,92.9
		c0,9.7-1.5,19.3-4.4,28.5c16.3-16.2,25.5-38.2,25.5-61.2C158,66.9,119.3,28.2,71.6,28.2z"/>
	<path class="st0" d="M182.3,44.9c-23.8-23.2-57.6-33-90.1-26.1c17.6,4.6,33.8,13.7,46.8,26.4c42.2,41,42.8,108.7,1.5,151.3
		c-7.8,8-16.7,14.8-26.6,20.1c26.6-0.3,52-11.2,70.5-30.3C222.9,146.6,221.9,83.3,182.3,44.9z"/>
</g>
</svg>
