<!-- Generated by IcoMoon.io -->
<svg version="1.1" xmlns="http://www.w3.org/2000/svg" width="32" height="32" viewBox="0 0 32 32">
<title>SAMOURAI</title>
<path d="M30.848 29.76c-0.128 0.154-0.218 0.256-0.32 0.384-0.115-0.077-0.218-0.128-0.307-0.205-1.229-1.011-2.458-2.061-3.712-3.046-0.858-0.678-1.754-1.293-2.65-1.933-0.23-0.166-0.486-0.282-0.742-0.397-0.166-0.077-0.346-0.115-0.538 0.141 0.077 0.141 0.166 0.307 0.282 0.461 0.538 0.794 1.088 1.562 1.613 2.355 0.243 0.371 0.448 0.768 0.627 1.178 0.346 0.819 0.666 1.651 0.998 2.483 0.077 0.179 0.128 0.371 0.192 0.563-0.486 0.128-16.755 0.141-17.395 0.038-0.013-0.051-0.051-0.115-0.026-0.166 0.474-1.267 0.832-2.586 1.549-3.75 0.154-0.256 0.32-0.525 0.538-0.73 0.704-0.678 1.139-1.523 1.498-2.406 0.346-0.819 0.64-1.664 0.973-2.483 0.218-0.538 0.179-1.037-0.256-1.446-0.294-0.269-0.461-0.602-0.563-0.986-0.243-0.832-0.499-1.664-0.755-2.534-0.384-0.064-0.742-0.141-1.088-0.179-0.883-0.077-1.69-0.384-2.522-0.653-1.28-0.422-2.394-1.062-3.264-2.099-0.141-0.166-0.358-0.269-0.512-0.371 0.358-1.306 0.691-2.47 1.037-3.699-0.768-0.858-1.523-1.728-2.304-2.611 0.051-0.307 0.115-0.627 0.179-1.011 0.461-0.192 0.934-0.397 1.408-0.614 0.205 0.102 0.384 0.179 0.602 0.282 0.576-0.243 1.165-0.474 1.498-1.114 0.064-0.141 0.205-0.256 0.333-0.333 0.384-0.23 0.768-0.448 1.165-0.627 0.154-0.064 0.397-0.102 0.512-0.026 0.397 0.282 0.768 0.166 1.165 0.051 1.229-0.397 2.47-0.781 3.699-1.19 3.277-1.088 6.618-1.882 9.997-2.547 0.602-0.115 1.19-0.269 1.779-0.371 0.474-0.077 0.96-0.115 1.434-0.166 0.013 0.038 0.013 0.090 0.026 0.128-0.461 0.090-0.922 0.192-1.382 0.282-3.866 0.755-7.642 1.83-11.392 2.97-1.37 0.422-2.726 0.896-4.096 1.331-0.422 0.128-0.691 0.41-0.883 0.781-0.371 0.717-0.755 1.434-1.101 2.163-0.154 0.346-0.23 0.717-0.333 1.075 0.563 0.256 3.507 0.627 4.314 0.576 0.013-0.051 0.051-0.115 0.038-0.154-0.358-1.126-0.102-2.24 0.090-3.366 0.077-0.474 0.307-0.87 0.589-1.254 0.141-0.192 0.307-0.294 0.55-0.32 0.358-0.051 0.717-0.154 1.075-0.179 0.717-0.051 1.382 0.154 1.869 0.678 0.858 0.947 1.344 2.061 1.242 3.379-0.013 0.218 0 0.448-0.013 0.666-0.038 0.691 0.256 1.216 0.909 1.408 0.666 0.192 0.998 0.666 1.28 1.203 0.294 0.576 0.55 1.178 0.794 1.766 0.179 0.422 0.358 0.858 0.205 1.344-0.038 0.141 0.026 0.32 0.051 0.474 0.064 0.499 0.166 0.998 0.179 1.498 0.051 1.395 0.077 2.79 0.102 4.186 0 0.32 0.077 0.589 0.282 0.832 0.435 0.538 0.832 1.101 1.267 1.638 0.179 0.218 0.384 0.422 0.614 0.576 1.485 1.088 2.995 2.138 4.48 3.238 1.075 0.883 2.099 1.805 3.123 2.842z"></path>
</svg>
