<?xml version="1.0" encoding="utf-8"?>
<!-- Generator: Adobe Illustrator 22.0.1, SVG Export Plug-In . SVG Version: 6.00 Build 0)  -->
<svg version="1.1" id="Layer_1" xmlns="http://www.w3.org/2000/svg" xmlns:xlink="http://www.w3.org/1999/xlink" x="0px" y="0px"
	 viewBox="0 0 226.8 226.8" style="enable-background:new 0 0 226.8 226.8;" xml:space="preserve">
<style type="text/css">
	.st0{stroke:#FFFFFF;stroke-miterlimit:10;}
</style>
<g>
	<path class="st0" d="M226.8,113.8c-0.5,63-51.5,113.5-114.2,113C49.9,226.3-0.5,175.1,0,112.2C0.5,50,51.7-0.4,113.9,0
		C176.6,0.4,227.3,51.5,226.8,113.8z M8.2,113.4c0.1,57.9,47,104.7,105,104.8c58.1,0.1,105.5-47,105.3-105
		c-0.2-60.4-50.2-106-107.9-105C55,9.3,8.1,56.6,8.2,113.4L8.2,113.4z"/>
	<path class="st0" d="M141,64.2c-1.6,5.1-3.1,9.9-4.2,13.4c-7.8-1.3-15.1-2.8-22.4-3.5c-4.3-0.4-8.9,0.7-10.5,5.6
		c-1.7,5-1.9,10.4,2.2,14.2c4.3,4,9.3,7.1,14,10.6c4.3,3.2,9,6.1,12.8,9.9c10.2,10.3,12,22.7,7.8,36.1c-2.5,8-8.4,13-15.9,16
		c-11.5,4.7-31.2,2.4-42.2-5c1.7-4.8,3.4-9.8,4.8-14.1c7,1.9,13.5,4.1,20.1,5.1c6.3,1,12.9,0,16.2-6.4c3.3-6.5,2.2-13.3-2.9-18.5
		c-3.9-4-8.9-7.1-13.5-10.4c-3.1-2.2-6.5-4-9.5-6.3c-12-9.4-15.9-25-9.8-39c2.9-6.7,8.2-11,15.2-12.7C116,56.2,128.5,57.6,141,64.2"
		/>
	<path class="st0" d="M57.7,111.5c0,7.2-5.8,13.1-13,13.1c-7.2,0-13.4-6.3-13.2-13.4c0.2-7.1,6.3-12.9,13.3-12.8
		C52.1,98.5,57.8,104.3,57.7,111.5"/>
	<path class="st0" d="M182.4,98.7c7.2,0,12.6,5.3,12.6,12.5c0.1,7.4-5.8,13.5-13.2,13.4c-7.2-0.1-12.9-6-12.9-13.2
		C169,103.9,174.5,98.7,182.4,98.7"/>
</g>
</svg>
