<!-- Generated by IcoMoon.io -->
<svg version="1.1" xmlns="http://www.w3.org/2000/svg" width="32" height="32" viewBox="0 0 32 32">
<title>SAN</title>
<path d="M32 16.056c-0.071 8.889-7.266 16.014-16.113 15.944s-15.958-7.295-15.887-16.169c0.071-8.776 7.295-15.887 16.071-15.831 8.847 0.056 16 7.266 15.929 16.056zM1.157 16c0.014 8.169 6.631 14.773 14.815 14.787 8.198 0.014 14.885-6.631 14.857-14.815-0.028-8.522-7.083-14.956-15.224-14.815-7.845 0.155-14.462 6.829-14.448 14.843v0z"></path>
<path d="M19.894 9.058c-0.226 0.72-0.437 1.397-0.593 1.891-1.101-0.183-2.131-0.395-3.16-0.494-0.607-0.056-1.256 0.099-1.481 0.79-0.24 0.705-0.268 1.467 0.31 2.004 0.607 0.564 1.312 1.002 1.975 1.496 0.607 0.451 1.27 0.861 1.806 1.397 1.439 1.453 1.693 3.203 1.101 5.093-0.353 1.129-1.185 1.834-2.243 2.258-1.623 0.663-4.402 0.339-5.954-0.705 0.24-0.677 0.48-1.383 0.677-1.989 0.988 0.268 1.905 0.578 2.836 0.72 0.889 0.141 1.82 0 2.286-0.903 0.466-0.917 0.31-1.877-0.409-2.61-0.55-0.564-1.256-1.002-1.905-1.467-0.437-0.31-0.917-0.564-1.34-0.889-1.693-1.326-2.243-3.527-1.383-5.503 0.409-0.945 1.157-1.552 2.145-1.792 1.806-0.423 3.57-0.226 5.333 0.705"></path>
<path d="M8.141 15.732c0 1.016-0.818 1.848-1.834 1.848s-1.891-0.889-1.862-1.891c0.028-1.002 0.889-1.82 1.877-1.806 1.030 0.014 1.834 0.832 1.82 1.848"></path>
<path d="M25.735 13.926c1.016 0 1.778 0.748 1.778 1.764 0.014 1.044-0.818 1.905-1.862 1.891-1.016-0.014-1.82-0.847-1.82-1.862 0.014-1.058 0.79-1.792 1.905-1.792"></path>
</svg>
