<!-- Generated by IcoMoon.io -->
<svg version="1.1" xmlns="http://www.w3.org/2000/svg" width="32" height="32" viewBox="0 0 32 32">
<title>SAR</title>
<path d="M16.003 7.583l-2.731 4.603-4.527-4.603 7.258 19.44 7.258-19.44-4.527 4.603z"></path>
<path d="M16.003 0c-8.838 0-16.003 7.165-16.003 16.003s7.165 16.003 16.003 16.003c8.838 0 16.003-7.164 16.003-16.003s-7.165-16.003-16.003-16.003zM29.613 18.433c-0.273 1.53-0.81 3.039-1.63 4.464s-1.855 2.647-3.040 3.652l0.162 1.043c-2.506 1.971-5.666 3.146-9.101 3.146-3.428 0-6.582-1.17-9.085-3.133l0.16-1.043c-1.187-1.003-2.224-2.225-3.046-3.648s-1.361-2.932-1.636-4.462l-0.984-0.383c-0.092-0.621-0.145-1.337-0.145-2.066v-0c0-6.191 3.818-11.489 9.228-13.67l0.826 0.662c1.462-0.526 3.038-0.814 4.682-0.814s3.22 0.287 4.682 0.814l0.825-0.662c5.41 2.182 9.228 7.48 9.228 13.67 0 0.694-0.049 1.377-0.142 2.045l-0.984 0.385z"></path>
</svg>
