<!-- Generated by IcoMoon.io -->
<svg version="1.1" xmlns="http://www.w3.org/2000/svg" width="32" height="32" viewBox="0 0 32 32">
<title>SC</title>
<path d="M20.797 16v4.797h-4.797c-2.653 0-4.797-2.145-4.797-4.797s2.145-4.797 4.797-4.797c2.653 0 4.797 2.145 4.797 4.797M16.056 8c-4.416-0.141-8.113 3.316-8.254 7.732s3.316 8.113 7.732 8.254c0.014 0 0.028 0 0.042 0 0.141 0 0.282 0 0.409 0h8v-7.901c0.014-4.402-3.513-8.056-7.929-8.085"></path>
<path d="M27.316 4.684c-5.474-5.474-13.926-6.152-20.148-2.032 0.183 0.198 0.339 0.423 0.466 0.663 5.898-3.894 13.926-3.245 19.118 1.947 5.926 5.926 5.926 15.563 0 21.489s-15.563 5.926-21.489 0c-5.192-5.192-5.841-13.22-1.947-19.118-0.24-0.127-0.451-0.282-0.663-0.466-4.12 6.208-3.443 14.66 2.032 20.134 6.25 6.25 16.381 6.25 22.631 0s6.25-16.367 0-22.617"></path>
<path d="M3.668 3.668c0.621-0.621 1.637-0.621 2.257 0s0.621 1.637 0 2.257c-0.621 0.621-1.637 0.621-2.257 0s-0.621-1.623 0-2.257c0 0 0 0 0 0"></path>
</svg>
