<!-- Generated by IcoMoon.io -->
<svg version="1.1" xmlns="http://www.w3.org/2000/svg" width="32" height="32" viewBox="0 0 32 32">
<title>SENC</title>
<path d="M16.79 28.783c-4.501 0-9.002 0-13.503 0-0.24 0-0.494-0.028-0.734-0.085-0.72-0.198-0.988-0.705-0.677-1.383 0.296-0.621 0.649-1.227 1.044-1.806 0.099-0.155 0.423-0.212 0.649-0.212 3.767-0.014 7.52-0.014 11.287-0.014 0.988 0 1.975 0.014 2.963-0.042 1.185-0.071 1.82-1.072 1.284-2.131-0.649-1.298-1.397-2.554-2.116-3.81-1.665-2.892-3.33-5.785-5.023-8.677-0.198-0.325-0.183-0.578 0-0.889 1.298-2.215 2.568-4.444 3.852-6.66 0.042-0.085 0.099-0.155 0.155-0.24 0.536-0.748 1.157-0.762 1.665-0.014 0.451 0.663 0.832 1.383 1.227 2.074 3.316 5.757 6.646 11.513 9.961 17.284 0.889 1.552 1.792 3.104 2.681 4.67 0.72 1.27 0.296 1.947-1.171 1.947-4.501-0.014-9.016-0.014-13.545-0.014 0 0 0 0 0 0z"></path>
<path d="M9.044 24.141c-2.681 0-5.347 0-8.028 0-1.157 0-1.256-0.183-0.677-1.185 2.667-4.6 5.319-9.213 7.986-13.813 0.127-0.226 0.282-0.451 0.437-0.649 0.198-0.254 0.423-0.254 0.607 0.014 0.282 0.437 0.564 0.889 0.832 1.34 2.54 4.388 5.065 8.79 7.605 13.178 0.508 0.889 0.395 1.115-0.621 1.115-2.723 0-5.432 0-8.141 0 0 0 0 0 0 0z"></path>
</svg>
