<!-- Generated by IcoMoon.io -->
<svg version="1.1" xmlns="http://www.w3.org/2000/svg" width="32" height="32" viewBox="0 0 32 32">
<title>SENT</title>
<path d="M16.423 0c4.614 0 9.227 0 13.841 0 0.776 0 0.776 0 0.776 0.79 0 4.966 0 9.947-0.028 14.914-0.014 1.961-0.339 3.894-1.016 5.757-0.593 1.651-1.552 3.062-2.638 4.402-1.072 1.312-2.328 2.441-3.711 3.414-1.792 1.242-3.753 2.102-5.912 2.582-1.397 0.31-2.723 0.071-4.021-0.325-3.668-1.129-6.561-3.344-8.917-6.349-1.834-2.342-2.737-4.995-2.991-7.901-0.085-0.931-0.127-1.862-0.127-2.808-0.014-4.571-0.014-9.129-0.014-13.7 0-0.776 0-0.776 0.79-0.776 4.67 0 9.326 0 13.968 0zM16.367 2.342c-3.824 0-7.633 0-11.457 0-0.169 0-0.339 0-0.508 0.014-0.254 0.014-0.367 0.141-0.367 0.395 0 0.155 0 0.31 0 0.466 0 3.033 0 6.067 0 9.101 0 1.862-0.056 3.711 0.226 5.559 0.198 1.34 0.494 2.638 1.129 3.852 0.804 1.524 1.848 2.85 3.090 4.035 1.735 1.665 3.739 2.907 6.039 3.598 0.734 0.226 1.467 0.423 2.258 0.31 1.764-0.254 3.386-0.917 4.882-1.862 1.623-1.016 3.005-2.286 4.205-3.767 0.748-0.931 1.397-1.933 1.848-3.048 0.677-1.693 0.974-3.485 0.988-5.291 0.042-4.247 0.014-8.48 0.014-12.727 0-0.028 0-0.071 0-0.099-0.028-0.395-0.099-0.48-0.48-0.494-0.155-0.014-0.31 0-0.466 0-3.81-0.042-7.605-0.042-11.4-0.042z"></path>
<path d="M25.764 14.575c-0.226-0.169-0.423-0.31-0.607-0.437-2.991-2.258-5.982-4.515-8.974-6.772-0.099-0.071-0.183-0.169-0.296-0.198-0.818-0.169-1.637-0.169-2.582 0.014 0.183 0.198 0.296 0.353 0.423 0.452 2.554 1.933 5.108 3.866 7.661 5.799 1.355 1.030 2.709 2.060 4.064 3.090 0.24 0.183 0.282 0.395 0.268 0.663-0.127 1.467-0.55 2.85-1.369 4.064-1.623 2.399-3.753 4.148-6.575 4.981-0.959 0.282-1.905 0.282-2.864-0.014-3.189-1.002-5.517-3.034-7.069-5.954-0.564-1.058-0.832-2.243-0.889-3.443-0.071-1.496-0.042-2.991-0.056-4.501 0-0.099 0.028-0.183 0.071-0.367 0.183 0.127 0.324 0.198 0.452 0.296 2.384 1.806 4.769 3.626 7.153 5.432 2.116 1.608 4.233 3.217 6.349 4.811 0.466 0.353 0.522 0.339 0.945-0.085 0.818-0.832 0.818-0.832-0.113-1.552-2.907-2.201-5.813-4.402-8.705-6.603-1.961-1.439-3.894-2.921-5.841-4.374-0.226-0.169-0.325-0.367-0.325-0.635 0-1.086-0.014-2.187-0.028-3.273 0-0.353 0.198-0.381 0.466-0.381 1.129-0.014 2.243-0.028 3.372-0.042 1.101-0.014 2.215 0 3.316 0 3.217 0 6.434 0 9.665 0 0.578 0 1.157 0.028 1.735 0.042 0.282 0 0.451 0.085 0.451 0.409 0 2.765-0.014 5.517-0.014 8.282-0.014 0.056-0.042 0.141-0.085 0.296z"></path>
</svg>
