<?xml version="1.0" encoding="utf-8"?>
<!-- Generator: Adobe Illustrator 22.1.0, SVG Export Plug-In . SVG Version: 6.00 Build 0)  -->
<svg version="1.1" id="Layer_1" xmlns="http://www.w3.org/2000/svg" xmlns:xlink="http://www.w3.org/1999/xlink" x="0px" y="0px"
	 viewBox="0 0 226.8 226.8" style="enable-background:new 0 0 226.8 226.8;" xml:space="preserve">
<g>
	<path d="M116.4,0c32.7,0,65.4,0,98.1,0c5.5,0,5.5,0,5.5,5.6c0,35.2,0,70.5-0.2,105.7c-0.1,13.9-2.4,27.6-7.2,40.8
		c-4.2,11.7-11,21.7-18.7,31.2c-7.6,9.3-16.5,17.3-26.3,24.2c-12.7,8.8-26.6,14.9-41.9,18.3c-9.9,2.2-19.3,0.5-28.5-2.3
		c-26-8-46.5-23.7-63.2-45c-13-16.6-19.4-35.4-21.2-56c-0.6-6.6-0.9-13.2-0.9-19.9c-0.1-32.4-0.1-64.7-0.1-97.1c0-5.5,0-5.5,5.6-5.5
		C50.5,0,83.5,0,116.4,0z M116,16.6c-27.1,0-54.1,0-81.2,0c-1.2,0-2.4,0-3.6,0.1c-1.8,0.1-2.6,1-2.6,2.8c0,1.1,0,2.2,0,3.3
		c0,21.5,0,43,0,64.5c0,13.2-0.4,26.3,1.6,39.4c1.4,9.5,3.5,18.7,8,27.3c5.7,10.8,13.1,20.2,21.9,28.6
		c12.3,11.8,26.5,20.6,42.8,25.5c5.2,1.6,10.4,3,16,2.2c12.5-1.8,24-6.5,34.6-13.2c11.5-7.2,21.3-16.2,29.8-26.7
		c5.3-6.6,9.9-13.7,13.1-21.6c4.8-12,6.9-24.7,7-37.5c0.3-30.1,0.1-60.1,0.1-90.2c0-0.2,0-0.5,0-0.7c-0.2-2.8-0.7-3.4-3.4-3.5
		c-1.1-0.1-2.2,0-3.3,0C169.8,16.6,142.9,16.6,116,16.6z"/>
	<path d="M182.6,103.3c-1.6-1.2-3-2.2-4.3-3.1c-21.2-16-42.4-32-63.6-48c-0.7-0.5-1.3-1.2-2.1-1.4c-5.8-1.2-11.6-1.2-18.3,0.1
		c1.3,1.4,2.1,2.5,3,3.2c18.1,13.7,36.2,27.4,54.3,41.1c9.6,7.3,19.2,14.6,28.8,21.9c1.7,1.3,2,2.8,1.9,4.7
		c-0.9,10.4-3.9,20.2-9.7,28.8c-11.5,17-26.6,29.4-46.6,35.3c-6.8,2-13.5,2-20.3-0.1c-22.6-7.1-39.1-21.5-50.1-42.2
		c-4-7.5-5.9-15.9-6.3-24.4c-0.5-10.6-0.3-21.2-0.4-31.9c0-0.7,0.2-1.3,0.5-2.6c1.3,0.9,2.3,1.4,3.2,2.1
		c16.9,12.8,33.8,25.7,50.7,38.5c15,11.4,30,22.8,45,34.1c3.3,2.5,3.7,2.4,6.7-0.6c5.8-5.9,5.8-5.9-0.8-11
		c-20.6-15.6-41.2-31.2-61.7-46.8C78.6,90.8,64.9,80.3,51.1,70c-1.6-1.2-2.3-2.6-2.3-4.5c0-7.7-0.1-15.5-0.2-23.2
		c0-2.5,1.4-2.7,3.3-2.7c8-0.1,15.9-0.2,23.9-0.3c7.8-0.1,15.7,0,23.5,0c22.8,0,45.6,0,68.5,0c4.1,0,8.2,0.2,12.3,0.3
		c2,0,3.2,0.6,3.2,2.9c0,19.6-0.1,39.1-0.1,58.7C183.1,101.6,182.9,102.2,182.6,103.3z"/>
</g>
</svg>
