<!-- Generated by IcoMoon.io -->
<svg version="1.1" xmlns="http://www.w3.org/2000/svg" width="32" height="32" viewBox="0 0 32 32">
<title>SFOX</title>
<path d="M18.159 21.996c-0.24 0.875-0.423 1.594-0.621 2.3-0.183 0.635-0.254 0.649-0.762 0.24-0.085-0.071-0.155-0.127-0.24-0.198-0.635-0.466-0.875-1.016-0.705-1.862 0.268-1.34 0.254-2.709 0.169-4.078-0.099-1.693-0.141-3.4 0.522-5.037 0.437-1.072 1.143-1.862 2.314-2.173 0.55-0.141 0.635-0.071 0.931 0.437 0.198 0.339 0.423 0.677 0.691 0.945 2.229 2.258 4.473 4.515 6.744 6.73 0.437 0.423 0.607 0.903 0.564 1.439-0.183 3.259-2.638 5.884-5.94 5.982-0.818 0.028-1.651 0-2.469-0.381 0.141-0.155 0.24-0.282 0.353-0.395 0.663-0.804 0.649-1.707-0.071-2.469-0.451-0.451-0.931-0.917-1.481-1.481z"></path>
<path d="M14.265 22.109c-0.536-0.536-1.072-1.072-1.58-1.623-0.085-0.085-0.085-0.268-0.085-0.409-0.042-2.201-0.183-4.402-0.099-6.603 0.071-2.102 0.635-4.092 1.961-5.813 0.113-0.141 0.198-0.395 0.155-0.55-0.437-1.608 0.042-3.048 0.79-4.416 0.522-0.959 1.213-1.792 2.116-2.427 0.353-0.254 0.451-0.212 0.55 0.198 0.635 2.582 2.399 4.205 4.642 5.404 1.51 0.804 3.132 1.312 4.811 1.637 0.183 0.042 0.367 0.085 0.55 0.113 0.282 0.056 0.353 0.24 0.31 0.508-0.113 0.776-0.536 1.34-1.199 1.735-0.861 0.522-1.834 0.705-2.794 0.776-1.199 0.085-2.399 0.056-3.598 0.014-1.171-0.042-2.328-0.071-3.4 0.508-1.792 0.974-2.681 2.497-2.765 4.487-0.085 1.891-0.085 3.781-0.127 5.658 0 0.226-0.028 0.451-0.028 0.663-0.099 0.071-0.155 0.113-0.212 0.141zM21.051 6.66c-0.028-0.268-0.212-0.423-0.494-0.423-0.282 0.014-0.466 0.212-0.437 0.494 0.014 0.282 0.198 0.466 0.494 0.452 0.282-0.014 0.451-0.183 0.437-0.522z"></path>
<path d="M28.43 20.67c0.48 0.395 0.762 0.875 0.931 1.411 1.072 3.302-0.325 6.73-3.203 8.367-3.485 1.989-7.083 1.933-10.751 0.621-2.060-0.734-3.866-1.919-5.446-3.429-0.423-0.409-0.423-0.409-0.099-0.861 0.762-1.072 1.721-1.82 3.175-1.947-0.691-0.861-1.665-0.705-2.596-1.002 0.748-0.818 1.552-1.256 2.54-1.312 0.183-0.014 0.395 0.198 0.55 0.339 0.903 0.847 1.764 1.764 2.709 2.568 1.227 1.044 2.624 1.834 4.219 2.173 2.638 0.564 4.727-0.367 6.377-2.413 0.931-1.171 1.298-2.582 1.453-4.049 0.014-0.099 0.014-0.212 0.028-0.31 0-0.028 0.042-0.056 0.113-0.155z"></path>
<path d="M2.963 23.026c1.044-1.51 2.3-2.638 4.092-2.864 2.074-0.268 4.007 0.099 5.503 1.764-0.677 0.325-1.34 0.593-1.947 0.974-0.607 0.395-1.086 0.945-1.425 1.679 0.48 0.028 0.889 0.042 1.467 0.085-0.635 0.621-1.157 1.143-1.707 1.608-0.071 0.056-0.381-0.056-0.508-0.169-0.677-0.635-1.369-1.284-1.989-1.975-0.889-0.974-1.919-1.425-3.231-1.044-0.028 0.014-0.071-0.014-0.254-0.056z"></path>
</svg>
