<!-- Generated by IcoMoon.io -->
<svg version="1.1" xmlns="http://www.w3.org/2000/svg" width="32" height="32" viewBox="0 0 32 32">
<title>SHAPESHIFT</title>
<path d="M9.805 12.608c-0.384-0.243-0.755-0.474-1.126-0.717 0.038-0.141 0.051-0.269 0.090-0.384 0.358-1.242 0.73-2.47 1.088-3.712 0.038-0.115 0.038-0.256 0.013-0.371-0.269-1.562-0.55-3.11-0.819-4.672-0.141-0.781-0.269-1.562-0.41-2.33-0.026-0.128-0.026-0.256-0.051-0.422 0.333 0.128 0.627 0.243 0.922 0.371 1.19 0.499 2.381 0.998 3.571 1.485 0.282 0.115 0.563 0.23 0.832 0.358 0.179 0.090 0.371 0.115 0.576 0.115 1.805 0 3.61 0 5.414 0 0.269 0 0.499-0.051 0.742-0.154 1.408-0.589 2.829-1.178 4.237-1.766 0.307-0.128 0.614-0.256 0.973-0.41 0 0.115 0.013 0.179 0 0.243-0.192 1.062-0.384 2.112-0.563 3.174-0.243 1.344-0.474 2.688-0.704 4.032-0.026 0.115-0.013 0.243 0.026 0.358 0.371 1.267 0.742 2.534 1.114 3.814 0.026 0.077 0.051 0.166 0.077 0.269-0.141 0.090-0.269 0.179-0.41 0.269-1.037 0.64-2.074 1.28-3.11 1.92-0.154 0.090-0.256 0.218-0.32 0.384-0.358 0.973-0.73 1.946-1.088 2.918-0.64 1.702-1.28 3.405-1.92 5.12-0.23 0.602-0.448 1.203-0.678 1.805-0.026 0.077-0.064 0.154-0.115 0.269-0.794-0.397-1.549-0.845-2.342-1.254-1.715 2.086-3.418 4.16-5.158 6.272 0.269 0.090 0.512 0.179 0.742 0.269 1.421 0.474 2.842 0.934 4.25 1.434 0.41 0.154 0.742 0.128 1.126-0.077 1.101-0.589 2.214-1.152 3.315-1.715 0.115-0.051 0.23-0.115 0.333-0.166 0.013 0.013 0.013 0.026 0.026 0.038-0.141 0.102-0.294 0.192-0.435 0.294-1.178 0.742-2.355 1.485-3.52 2.24-0.192 0.115-0.346 0.141-0.55 0.077-1.651-0.538-3.302-1.062-4.966-1.587-0.179-0.051-0.358-0.115-0.538-0.166-0.141-0.038-0.243-0.128-0.32-0.243-0.781-1.216-1.562-2.432-2.342-3.648-0.538-0.845-1.088-1.69-1.626-2.534-0.461-0.704-0.922-1.408-1.357-2.125-0.077-0.128-0.128-0.282-0.128-0.435-0.013-1.28 0-2.56-0.013-3.84 0-0.154 0.051-0.269 0.179-0.371 0.538-0.461 1.050-0.934 1.587-1.395 0.627-0.55 1.267-1.101 1.907-1.664 0.448-0.384 0.896-0.781 1.331-1.178 0.038-0.064 0.077-0.115 0.141-0.192zM17.229 15.27c-0.499 0.589-1.024 1.088-1.498 1.677 0.512 0.55 0.998 1.088 1.498 1.638 0.512-0.563 1.011-1.101 1.51-1.651-0.512-0.563-0.998-1.101-1.51-1.664z"></path>
</svg>
