<?xml version="1.0" encoding="utf-8"?>
<!-- Generator: Adobe Illustrator 22.1.0, SVG Export Plug-In . SVG Version: 6.00 Build 0)  -->
<svg version="1.1" id="Layer_1" xmlns="http://www.w3.org/2000/svg" xmlns:xlink="http://www.w3.org/1999/xlink" x="0px" y="0px"
	 viewBox="0 0 226.8 226.8" style="enable-background:new 0 0 226.8 226.8;" xml:space="preserve">
<g>
	<path d="M115.8,0c0.7,0.8,1.3,1.6,2,2.4c18.8,18.8,37.6,37.6,56.4,56.4c5.2,5.2,10.3,10.5,15.5,15.6c1.4,1.4,1.2,2.1-0.1,3.4
		c-11.3,11.2-22.6,22.6-33.9,33.8c-1.6,1.6-1.7,2.4,0,4.1c11.3,11.1,22.5,22.4,33.7,33.6c0.6,0.6,1.2,1.3,1.9,2.1
		c-0.7,0.7-1.2,1.4-1.7,1.9c-24.1,24.1-48.2,48.2-72.2,72.3c-1.6,1.6-2.4,1.6-4.1,0c-24-24.2-48.1-48.2-72.2-72.3
		c-0.6-0.6-1.1-1.2-1.7-1.9c0.7-0.8,1.3-1.4,1.9-2.1C52.5,138,63.7,126.8,75,115.6c1.7-1.6,1.5-2.5-0.1-4.1
		c-11.2-11.1-22.3-22.3-33.6-33.4c-1.6-1.5-1.8-2.4-0.1-4C65.2,50.2,89,26.3,112.8,2.4c0.7-0.7,1.4-1.6,2-2.4
		C115.2,0,115.5,0,115.8,0z"/>
</g>
</svg>
