<!-- Generated by IcoMoon.io -->
<svg version="1.1" xmlns="http://www.w3.org/2000/svg" width="32" height="32" viewBox="0 0 32 32">
<title>SHIFT</title>
<path d="M16.339 0c0.099 0.113 0.183 0.226 0.282 0.339 2.653 2.653 5.305 5.305 7.958 7.958 0.734 0.734 1.453 1.481 2.187 2.201 0.198 0.198 0.169 0.296-0.014 0.48-1.594 1.58-3.189 3.189-4.783 4.769-0.226 0.226-0.24 0.339 0 0.578 1.594 1.566 3.175 3.16 4.755 4.741 0.085 0.085 0.169 0.183 0.268 0.296-0.099 0.099-0.169 0.198-0.24 0.268-3.4 3.4-6.801 6.801-10.187 10.201-0.226 0.226-0.339 0.226-0.578 0-3.386-3.414-6.787-6.801-10.187-10.201-0.085-0.085-0.155-0.169-0.24-0.268 0.099-0.113 0.183-0.198 0.268-0.296 1.58-1.594 3.16-3.175 4.755-4.755 0.24-0.226 0.212-0.353-0.014-0.578-1.58-1.566-3.146-3.146-4.741-4.713-0.226-0.212-0.254-0.339-0.014-0.564 3.386-3.372 6.744-6.744 10.102-10.116 0.099-0.099 0.198-0.226 0.282-0.339 0.056 0 0.099 0 0.141 0z"></path>
</svg>
