<?xml version="1.0" encoding="utf-8"?>
<!-- Generator: Adobe Illustrator 22.1.0, SVG Export Plug-In . SVG Version: 6.00 Build 0)  -->
<svg version="1.1" id="Layer_1" xmlns="http://www.w3.org/2000/svg" xmlns:xlink="http://www.w3.org/1999/xlink" x="0px" y="0px"
	 viewBox="0 0 226.8 226.8" style="enable-background:new 0 0 226.8 226.8;" xml:space="preserve">
<g>
	<path d="M122.9,102c0,13.2-0.1,25.6,0.2,37.9c0,1.5,2.2,3.3,3.8,4.4c7.2,5.5,10.4,12.5,8.6,21.5c-1.6,8-6.6,13.1-14.2,15.6
		c-9.8,3.2-20.5-1.7-25-11.2c-4.4-9.3-0.9-21,8.4-26.4c3.3-1.9,4.3-4.1,4.2-7.6c-0.2-9.3-0.1-18.7-0.1-28c0-1.9-0.3-3.8-0.4-6.1
		c-10.3,0-20.2,0-30.2,0c-6.3,0-12.6,0.1-18.8,0c-5.5-0.1-6.6-1.5-6.6-7.7c0-6.7,0.4-7.3,6.3-7.4c14.3-0.2,28.7-0.4,43-0.3
		c4.3,0,5.9-1.1,5.8-5.7c-0.2-19.8-0.2-39.6,0-59.4c0-4.3-1.3-5.5-5.5-5.4c-14.2,0.2-28.3,0.1-42.5,0.1c-6,0-7-1.2-7.1-7.6
		c0-6.3,1.1-7.6,7.1-7.6c37,0,74.1,0,111.1,0c6.5,0,7.1,0.6,7.1,7.8c0,6.7-0.6,7.3-7,7.3c-15,0-29.9,0.1-44.9-0.1
		c-3.4,0-5,0.9-4.9,4.6c0.2,19.8,0.2,39.6,0.3,59.4c0,6.1,0.1,6.4,6,6.4c13.7,0,27.4,0,41.1,0c9.5,0.1,10.4,1.2,9.5,10.8
		c-0.4,4.3-3.3,4.6-6.5,4.6c-14,0-28,0-42,0C127.5,102,125.6,102,122.9,102z M123.3,161.6c0-4.7-3.6-8.2-8.2-8.1
		c-4.4,0.1-7.8,3.6-7.9,8c-0.1,4.9,3.5,8.4,8.5,8.4C120,169.7,123.3,166.2,123.3,161.6z"/>
	<path d="M179.9,161.8c1.2,32.1-26.8,65.5-67.7,63.9c-36.7-1.4-65.5-35.6-61.1-72c1.6-13,6.5-24,14.4-34.1c2.3-2.9,4.7-5,8.4-2
		c6,4.8,6.6,6.8,3.1,11.3c-19.3,24.8-15.1,55,10.2,72.5c19.6,13.6,48.4,10.4,65-7.2c16.9-17.9,18-43,2.9-63c-2.4-3.1-5.7-6-1.7-10.4
		c5.7-6.3,7.3-6.5,12.7,0.2C175.4,132.6,180.2,145.8,179.9,161.8z"/>
</g>
</svg>
