<!-- Generated by IcoMoon.io -->
<svg version="1.1" xmlns="http://www.w3.org/2000/svg" width="32" height="32" viewBox="0 0 32 32">
<title>SHIP</title>
<path d="M17.34 14.392c0 1.862-0.014 3.612 0.028 5.347 0 0.212 0.31 0.466 0.536 0.621 1.016 0.776 1.467 1.764 1.213 3.034-0.226 1.129-0.931 1.848-2.004 2.201-1.383 0.451-2.892-0.24-3.527-1.58-0.621-1.312-0.127-2.963 1.185-3.725 0.466-0.268 0.607-0.578 0.593-1.072-0.028-1.312-0.014-2.638-0.014-3.951 0-0.268-0.042-0.536-0.056-0.861-1.453 0-2.85 0-4.261 0-0.889 0-1.778 0.014-2.653 0-0.776-0.014-0.931-0.212-0.931-1.086 0-0.945 0.056-1.030 0.889-1.044 2.018-0.028 4.049-0.056 6.067-0.042 0.607 0 0.832-0.155 0.818-0.804-0.028-2.794-0.028-5.587 0-8.381 0-0.607-0.183-0.776-0.776-0.762-2.004 0.028-3.993 0.014-5.996 0.014-0.847 0-0.988-0.169-1.002-1.072 0-0.889 0.155-1.072 1.002-1.072 5.22 0 10.455 0 15.675 0 0.917 0 1.002 0.085 1.002 1.101 0 0.945-0.085 1.030-0.988 1.030-2.116 0-4.219 0.014-6.335-0.014-0.48 0-0.705 0.127-0.691 0.649 0.028 2.794 0.028 5.587 0.042 8.381 0 0.861 0.014 0.903 0.847 0.903 1.933 0 3.866 0 5.799 0 1.34 0.014 1.467 0.169 1.34 1.524-0.056 0.607-0.466 0.649-0.917 0.649-1.975 0-3.951 0-5.926 0-0.31 0.014-0.578 0.014-0.959 0.014zM17.397 22.801c0-0.663-0.508-1.157-1.157-1.143-0.621 0.014-1.101 0.508-1.115 1.129-0.014 0.691 0.494 1.185 1.199 1.185 0.607-0.028 1.072-0.522 1.072-1.171z"></path>
<path d="M25.383 22.829c0.169 4.529-3.781 9.242-9.552 9.016-5.178-0.198-9.242-5.023-8.621-10.159 0.226-1.834 0.917-3.386 2.032-4.811 0.325-0.409 0.663-0.705 1.185-0.282 0.847 0.677 0.931 0.959 0.437 1.594-2.723 3.499-2.13 7.76 1.439 10.229 2.765 1.919 6.829 1.467 9.171-1.016 2.384-2.526 2.54-6.067 0.409-8.889-0.339-0.437-0.804-0.847-0.24-1.467 0.804-0.889 1.030-0.917 1.792 0.028 1.312 1.637 1.989 3.499 1.947 5.757z"></path>
</svg>
