<?xml version="1.0" encoding="utf-8"?>
<!-- Generator: Adobe Illustrator 22.0.1, SVG Export Plug-In . SVG Version: 6.00 Build 0)  -->
<svg version="1.1" id="Layer_1" xmlns="http://www.w3.org/2000/svg" xmlns:xlink="http://www.w3.org/1999/xlink" x="0px" y="0px"
	 viewBox="0 0 226.8 226.8" style="enable-background:new 0 0 226.8 226.8;" xml:space="preserve">
<style type="text/css">
	.st0{stroke:#FFFFFF;stroke-miterlimit:10;}
</style>
<g>
	<path class="st0" d="M147.4,113.4v34h-34c-18.8,0-34-15.2-34-34c0-18.8,15.2-34,34-34C132.2,79.4,147.4,94.6,147.4,113.4
		 M113.8,56.7c-31.3-1-57.5,23.5-58.5,54.8c-1,31.3,23.5,57.5,54.8,58.5c0.1,0,0.2,0,0.3,0c1,0,2,0,2.9,0h56.7v-56
		C170.1,82.8,145.1,56.9,113.8,56.7"/>
	<path class="st0" d="M193.6,33.2C154.8-5.6,94.9-10.4,50.8,18.8c1.3,1.4,2.4,3,3.3,4.7c41.8-27.6,98.7-23,135.5,13.8
		c42,42,42,110.3,0,152.3s-110.3,42-152.3,0C0.5,152.8-4.1,95.9,23.5,54.1c-1.7-0.9-3.2-2-4.7-3.3c-29.2,44-24.4,103.9,14.4,142.7
		c44.3,44.3,116.1,44.3,160.4,0S237.9,77.5,193.6,33.2"/>
	<path class="st0" d="M26,26c4.4-4.4,11.6-4.4,16,0c4.4,4.4,4.4,11.6,0,16c-4.4,4.4-11.6,4.4-16,0C21.6,37.6,21.6,30.5,26,26
		C26,26,26,26,26,26"/>
</g>
</svg>
