<?xml version="1.0" encoding="utf-8"?>
<!-- Generator: Adobe Illustrator 22.1.0, SVG Export Plug-In . SVG Version: 6.00 Build 0)  -->
<svg version="1.1" id="Layer_1" xmlns="http://www.w3.org/2000/svg" xmlns:xlink="http://www.w3.org/1999/xlink" x="0px" y="0px"
	 viewBox="0 0 226.8 226.8" style="enable-background:new 0 0 226.8 226.8;" xml:space="preserve">
<g>
	<path d="M196,160c0.1,0.9,0.2,1.4,0.2,2c0,4.6,0,9.3,0,13.9c0,1.9-0.2,2.1-2.1,2.1c-1.6,0-3.3,0-4.9,0c-2.3,0-2.3,0-2.3,2.4
		c0,7.8,0,15.7,0,23.5c0,6.7,0,13.5,0,20.2c0,0.5,0,0.9,0,1.4c0,0.9-0.4,1.3-1.3,1.2c-0.3,0-0.7,0-1,0c-7.8,0-15.7,0-23.5,0
		c-0.1,0-0.1,0-0.2,0c-2.1,0-2.1-0.1-2.1-2.2c0-15,0-30.1,0-45.1c0-2.6,0.1-2.5-2.4-2.5c-13.1,0-26.2,0-39.4,0c-2.4,0-2.4,0-2.4-2.4
		c0-4.4,0-8.8,0-13.2c0-0.4,0-0.8,0-1.2c0-0.8,0.4-1.2,1.2-1.2c0.5,0,1,0,1.6,0c12.8,0,25.6,0,38.3,0c0.4,0,0.8,0,1.2,0
		c1.9,0,1.9,0,1.9-1.9c0-9.5,0-19,0-28.6c0-0.4,0-0.8,0-1.4c-0.4,0.1-0.7,0.2-0.9,0.3c-7.3,5.4-15.5,8.9-24,11.5
		c-5.9,1.8-12,3.3-18.1,4.1c-2,0.3-4,0.4-6.1,0.5c-3.8,0.1-7.6,0.2-11.3,0c-14.2-0.8-27.3-4.5-38.7-13.4c-7.6-6-13.3-13.6-17.4-22.3
		c-2.5-5.3-4.4-10.7-5.2-16.5c-0.4-3-0.8-6.1-0.8-9.2c-0.1-26.7,0-53.3,0-80c0-0.7,0.1-1.5,0.2-2.3c10,0,19.7,0,29.8,0
		c0.1,0.8,0.2,1.5,0.2,2.2c0,9.7,0,19.4,0,29.1c0,13.5-0.3,27,0.1,40.4c0.5,16,6.8,29.5,19.5,39.6c5.3,4.3,11.5,6.7,18.2,7.8
		c8.2,1.4,16.3,0.4,24.3-1.7c10.4-2.7,20-7.3,29.2-12.9c1.5-0.9,2.1-2,2.1-3.8c-0.1-32.6,0-65.2,0-97.7c0-1,0.1-1.9,0.1-3
		c9.1,0,18,0,27.1,0c0,0.9,0.1,1.8,0.1,2.6c0,51.5,0,103,0,154.5c0,0.5,0,1,0,1.6c0,1.2,0.2,1.4,1.4,1.4c1.9,0,3.7,0,5.6,0
		C194.5,160,195.2,160,196,160z"/>
</g>
</svg>
