<?xml version="1.0" encoding="utf-8"?>
<!-- Generator: Adobe Illustrator 22.1.0, SVG Export Plug-In . SVG Version: 6.00 Build 0)  -->
<svg version="1.1" id="Layer_1" xmlns="http://www.w3.org/2000/svg" xmlns:xlink="http://www.w3.org/1999/xlink" x="0px" y="0px"
	 viewBox="0 0 226.8 226.8" style="enable-background:new 0 0 226.8 226.8;" xml:space="preserve">
<g id="QMf9y4_1_">
	<g>
		<path d="M116.8,225.9c-33.2-0.9-60.5-11.1-82.6-33.5c-6.3-6.4-11.3-14-16.6-21.2c-0.8-1.1-0.4-3.2-0.6-4.8
			c1.5,0.3,3.3,0.1,4.5,0.9c10.2,6.7,21.5,11.1,33.2,14.4c9.4,2.7,18.9,3.4,28.6,1.9c15.3-2.4,30.2-14.4,33-31.8
			c1.3-8.1-0.2-15.5-5.2-22.2c-1-1.4-1.5-3.2-2.2-4.8c1.9-0.7,3.9-2,5.8-2c14.3,0.4,28.6,1.2,42.9,1.6c10.2,0.3,20.3,0.2,30.5,0.2
			c10,0,20,0,30,0c6.5,0,7.5,1.2,6.4,7.8c-2.2,13.5-7.4,26-14.2,37.7c-17.4,29.9-43.6,47.4-77.3,53.9
			C127,225.3,120.8,225.5,116.8,225.9z"/>
		<path d="M193.6,35.3c-1.7-0.2-3.5-0.3-5.2-0.7c-10.9-2.5-21.8-2.8-32.7-1c-13.3,2.2-23.4,9.6-30.2,21c-8,13.3-15.2,26.9-22.9,40.4
			c-0.7,1.2-1.7,2.2-3.2,4.2c-0.6-2.2-1.2-3.2-1.1-4.2c1.6-23.2-13.4-32.8-31.2-33.5C51.6,61.1,38.6,66.9,28,77.4
			c-7.7,7.7-13.9,16.9-20.8,25.4c-1,1.3-2.6,2.1-3.9,3.1c-0.5-1.7-1.5-3.4-1.4-5c0.9-14,5.2-27.1,11.8-39.4
			C28.2,34.7,49.4,15.7,78.8,6.8c7-2.1,14.7-2.4,22.1-3.4c6.9-0.9,13.8-2.6,20.7-2.5c23.4,0.3,44.4,8,62.6,22.7
			c3.7,3,7.2,6.4,10.7,9.7C194.4,34,194,34.7,193.6,35.3z"/>
		<path d="M127.6,63.7c4,11.5,6.9,22.8,11.8,33.1c5.1,10.8,16.9,14.6,27.1,19.6c-0.2,0.6-0.4,1.2-0.6,1.8c-5,0.5-10,1.3-15,1.4
			c-14,0.2-28,0.3-42-0.1c-2.9-0.1-7.1-1.6-8.3-3.7c-1.2-2.1-0.1-6.4,1.3-9c7.3-13.2,15.1-26.2,22.7-39.3
			C125.5,66.1,126.7,64.8,127.6,63.7z"/>
	</g>
</g>
</svg>
