<!-- Generated by IcoMoon.io -->
<svg version="1.1" xmlns="http://www.w3.org/2000/svg" width="32" height="32" viewBox="0 0 32 32">
<title>SKB</title>
<path d="M16.48 31.873c-4.684-0.127-8.536-1.566-11.654-4.727-0.889-0.903-1.594-1.975-2.342-2.991-0.113-0.155-0.056-0.451-0.085-0.677 0.212 0.042 0.466 0.014 0.635 0.127 1.439 0.945 3.034 1.566 4.684 2.032 1.326 0.381 2.667 0.48 4.035 0.268 2.159-0.339 4.261-2.032 4.656-4.487 0.183-1.143-0.028-2.187-0.734-3.132-0.141-0.198-0.212-0.451-0.31-0.677 0.268-0.099 0.55-0.282 0.818-0.282 2.018 0.056 4.035 0.169 6.053 0.226 1.439 0.042 2.864 0.028 4.303 0.028 1.411 0 2.822 0 4.233 0 0.917 0 1.058 0.169 0.903 1.101-0.31 1.905-1.044 3.668-2.004 5.319-2.455 4.219-6.152 6.688-10.907 7.605-0.847 0.183-1.721 0.212-2.286 0.268z"></path>
<path d="M27.316 4.981c-0.24-0.028-0.494-0.042-0.734-0.099-1.538-0.353-3.076-0.395-4.614-0.141-1.877 0.31-3.302 1.354-4.261 2.963-1.129 1.877-2.145 3.795-3.231 5.7-0.099 0.169-0.24 0.31-0.451 0.593-0.085-0.31-0.169-0.451-0.155-0.593 0.226-3.273-1.891-4.628-4.402-4.727-2.187-0.056-4.021 0.762-5.517 2.243-1.086 1.086-1.961 2.384-2.935 3.584-0.141 0.183-0.367 0.296-0.55 0.437-0.071-0.24-0.212-0.48-0.198-0.705 0.127-1.975 0.734-3.824 1.665-5.559 2.046-3.781 5.037-6.462 9.185-7.718 0.988-0.296 2.074-0.339 3.118-0.48 0.974-0.127 1.947-0.367 2.921-0.353 3.302 0.042 6.265 1.129 8.832 3.203 0.522 0.423 1.016 0.903 1.51 1.369-0.071 0.099-0.127 0.198-0.183 0.282z"></path>
<path d="M18.004 8.988c0.564 1.623 0.974 3.217 1.665 4.67 0.72 1.524 2.384 2.060 3.824 2.765-0.028 0.085-0.056 0.169-0.085 0.254-0.705 0.071-1.411 0.183-2.116 0.198-1.975 0.028-3.951 0.042-5.926-0.014-0.409-0.014-1.002-0.226-1.171-0.522s-0.014-0.903 0.183-1.27c1.030-1.862 2.131-3.697 3.203-5.545 0.127-0.198 0.296-0.381 0.423-0.536z"></path>
</svg>
