<!-- Generated by IcoMoon.io -->
<svg version="1.1" xmlns="http://www.w3.org/2000/svg" width="32" height="32" viewBox="0 0 32 32">
<title>SKY</title>
<path d="M27.104 12.684l-6.857 14.829h-2.737l7.21-15.605c0.847 0.141 1.651 0.395 2.384 0.776M15.111 3.979l-10.554 22.815c-2.681-1.242-4.557-3.965-4.557-7.125 0-4.346 3.499-7.859 7.831-7.859 0-4.148 3.217-7.534 7.28-7.831M23.506 11.81l-7.266 15.704h-2.963l9.115-19.725c0.705 1.185 1.115 2.554 1.115 4.021M26.201 27.034l4.656-10.060c0.31 0.847 0.48 1.75 0.48 2.695 0 3.372-2.145 6.25-5.136 7.365M28.261 13.432c0.649 0.494 1.227 1.086 1.693 1.778l-5.672 12.275c-0.254 0.028-0.508 0.042-0.762 0.042h-1.764l6.504-14.095M15.69 3.951c1.115 0 2.159 0.24 3.118 0.663l-10.582 22.899h-0.395c-0.988 0-1.919-0.183-2.78-0.522l10.638-23.041M21.771 6.885l-9.538 20.628h-3.189l10.441-22.575c0.875 0.508 1.651 1.171 2.286 1.947"></path>
</svg>
