<?xml version="1.0" encoding="utf-8"?>
<!-- Generator: Adobe Illustrator 22.0.1, SVG Export Plug-In . SVG Version: 6.00 Build 0)  -->
<svg version="1.1" id="Layer_1" xmlns="http://www.w3.org/2000/svg" xmlns:xlink="http://www.w3.org/1999/xlink" x="0px" y="0px"
	 viewBox="0 0 226.8 226.8" style="enable-background:new 0 0 226.8 226.8;" xml:space="preserve">
<style type="text/css">
	.st0{stroke:#FFFFFF;stroke-miterlimit:10;}
</style>
<path class="st0" d="M192.1,89.9L143.5,195h-19.4l51.1-110.6C181.2,85.4,186.9,87.2,192.1,89.9 M107.1,28.2L32.3,189.9
	C13.3,181.1,0,161.8,0,139.4c0-30.8,24.8-55.7,55.5-55.7C55.5,54.3,78.3,30.3,107.1,28.2 M166.6,83.7L115.1,195h-21l64.6-139.8
	C163.7,63.6,166.6,73.3,166.6,83.7 M185.7,191.6l33-71.3c2.2,6,3.4,12.4,3.4,19.1C222.1,163.3,206.9,183.7,185.7,191.6 M200.3,95.2
	c4.6,3.5,8.7,7.7,12,12.6l-40.2,87c-1.8,0.2-3.6,0.3-5.4,0.3h-12.5L200.3,95.2 M111.2,28c7.9,0,15.3,1.7,22.1,4.7L58.3,195h-2.8
	c-7,0-13.6-1.3-19.7-3.7L111.2,28 M154.3,48.8L86.7,195H64.1l74-160C144.3,38.6,149.8,43.3,154.3,48.8"/>
</svg>
