<!-- Generated by IcoMoon.io -->
<svg version="1.1" xmlns="http://www.w3.org/2000/svg" width="32" height="32" viewBox="0 0 32 32">
<title>SLG</title>
<path d="M30.117 9.703c-0-0.006-0.001-0.012-0.001-0.018-0.002-0.063-0.009-0.124-0.021-0.183l0.001 0.007-0-0c-0.028-0.133-0.080-0.251-0.152-0.355l0.002 0.003c-0.037-0.054-0.077-0.101-0.12-0.144l-0-0-0.007-0.007c-0.044-0.043-0.093-0.082-0.144-0.117l-0.004-0.002c-0.001-0.001-0.002-0.002-0.003-0.002l-0-0-13.641-8.884-13.695 8.884c-0.273 0.178-0.45 0.482-0.45 0.828 0 0 0 0 0 0v0 12.576c0 0.004 0.001 0.007 0.001 0.011 0 0.006 0.001 0.013 0.001 0.019 0.002 0.060 0.008 0.118 0.020 0.175l0.001 0.003c0.028 0.131 0.079 0.247 0.149 0.348l-0.002-0.003c0.001 0.002 0.003 0.004 0.004 0.006 0.035 0.051 0.075 0.099 0.119 0.143 0.003 0.003 0.006 0.005 0.008 0.007 0.045 0.044 0.094 0.083 0.147 0.118 0.001 0.001 0.002 0.002 0.003 0.003l13.695 8.883 13.642-8.884c0.272-0.179 0.449-0.482 0.449-0.827 0-0 0-0 0-0v0-12.576c-0-0.003-0.001-0.007-0.001-0.010zM3.858 11.281l20.92 10.019h-20.92v-10.019zM7.221 10.7h20.92v10.019l-20.92-10.019zM25.802 8.724h-19.593l9.816-6.367 9.777 6.367zM16.025 29.643l-9.816-6.366h19.593l-9.776 6.366z"></path>
</svg>
