<!-- Generated by IcoMoon.io -->
<svg version="1.1" xmlns="http://www.w3.org/2000/svg" width="32" height="32" viewBox="0 0 32 32">
<title>SLS</title>
<path d="M16.988 31.972c1.157-0.48 2.243-1.129 3.005-1.989 2.399-2.751 3.358-7.746-0.564-10.582-2.032-1.467-4.755-2.131-7.647-3.485s-4.543-3.527-5.023-6.42c-0.395-2.384-0.24-5.573 2.991-8.226-5.728 2.427-9.75 8.113-9.75 14.73 0 8.832 7.168 16 16 16 0.339 0 0.663-0.014 0.988-0.028z"></path>
<path d="M23.153 1.679l0.564 6.152-0.931 0.268s-1.227-4.332-3.81-5.926-7.351-1.637-8.748 1.862c-1.397 3.499 0.254 7.125 5.418 8.536s9.919 3.118 9.58 10.54c-0.254 5.559-3.457 7.549-5.686 8.48 7.139-1.608 12.473-7.986 12.473-15.605-0.014-6.25-3.612-11.683-8.861-14.307z"></path>
</svg>
