<!-- Generated by IcoMoon.io -->
<svg version="1.1" xmlns="http://www.w3.org/2000/svg" width="32" height="32" viewBox="0 0 32 32">
<title>SLT</title>
<path d="M29.446 14.109c0 1.298-0.014 2.596 0 3.894 0.028 2.511-1.072 4.36-3.231 5.601-2.201 1.27-4.402 2.554-6.603 3.824-0.226 0.127-0.48 0.24-0.734 0.339-1.185 0.48-1.185 0.48-1.185 1.778 0 0.564-0.014 1.129 0 1.693 0.014 0.536-0.226 0.72-0.748 0.748-1.594 0.056-1.665 0.071-1.58-1.51 0.085-1.369-0.141-2.229-1.637-2.878-2.427-1.058-4.656-2.568-6.998-3.866s-3.457-3.287-3.429-5.954c0.028-2.427 0.014-4.854 0-7.266 0-2.596 1.044-4.557 3.358-5.841 2.201-1.213 4.374-2.497 6.561-3.753 2.004-1.157 4.092-1.213 6.095-0.141 2.582 1.383 5.108 2.892 7.605 4.444 1.693 1.058 2.469 2.737 2.526 4.713 0.028 1.383 0 2.78 0 4.176zM27.062 9.594c-0.24 0.071-0.367 0.085-0.466 0.141-1.877 1.199-3.767 2.37-5.616 3.612-0.268 0.183-0.451 0.691-0.451 1.044-0.014 1.721-0.621 3.104-2.187 3.951-0.494 0.268-0.663 0.635-0.649 1.185 0.028 1.707 0 3.429 0.014 5.136 0 0.917 0.127 1.002 0.903 0.564 2.046-1.143 4.064-2.356 6.123-3.485 1.623-0.889 2.413-2.201 2.399-4.049-0.028-2.399 0-4.797-0.014-7.196-0.014-0.268-0.042-0.536-0.056-0.903zM19.429 3.711c-1.721-1.453-3.302-1.679-5.108-0.677-2.229 1.228-4.416 2.526-6.617 3.795-0.691 0.409-0.677 0.564 0 1.002 1.806 1.171 3.612 2.342 5.432 3.471 0.183 0.113 0.578 0.113 0.762-0.014 1.608-1.002 3.203-1.072 4.825-0.042 0.226 0.141 0.691 0.169 0.917 0.028 1.877-1.157 3.711-2.37 5.559-3.556 0.437-0.282 0.409-0.564-0.042-0.818-0.903-0.522-1.792-1.101-2.737-1.566-0.296-0.141-0.734-0.071-1.086 0.028-0.31 0.085-0.593 0.339-0.889 0.522-1.665 1.058-3.33 2.145-5.009 3.189-0.635 0.395-1.284 0.24-1.637-0.254-0.395-0.578-0.282-1.242 0.367-1.735 0.367-0.282 0.776-0.494 1.171-0.748 1.369-0.861 2.695-1.721 4.092-2.624zM5.841 9.524c-0.085 0.282-0.169 0.451-0.169 0.635-0.014 1.34-0.028 2.695 0.014 4.035 0.014 0.254 0.254 0.578 0.48 0.734 1.228 0.847 2.483 1.651 3.739 2.455 0.988 0.635 2.004 1.227 2.977 1.877 0.536 0.367 0.691 1.157 0.395 1.637-0.31 0.508-0.917 0.677-1.552 0.395-0.31-0.141-0.607-0.31-0.889-0.494-1.312-0.847-2.624-1.721-3.937-2.554-0.339-0.212-0.705-0.381-1.086-0.564-0.282 1.284 0.395 2.921 1.51 3.584 2.427 1.425 4.868 2.808 7.309 4.205 0.494 0.282 0.72 0.155 0.72-0.423 0-1.891-0.014-3.767 0-5.658 0-0.451-0.183-0.691-0.607-0.889-1.665-0.79-2.582-2.342-2.441-4.148 0.042-0.466-0.099-0.72-0.48-0.959-1.58-1.030-3.161-2.060-4.741-3.090-0.381-0.24-0.762-0.48-1.242-0.776zM16.395 16.409c0.875 0 1.707-0.818 1.721-1.665 0.014-0.959-0.832-1.848-1.721-1.82-0.959 0.028-1.792 0.861-1.764 1.792s0.818 1.693 1.764 1.693z"></path>
</svg>
