<?xml version="1.0" encoding="utf-8"?>
<!-- Generator: Adobe Illustrator 22.1.0, SVG Export Plug-In . SVG Version: 6.00 Build 0)  -->
<svg version="1.1" id="Layer_1" xmlns="http://www.w3.org/2000/svg" xmlns:xlink="http://www.w3.org/1999/xlink" x="0px" y="0px"
	 viewBox="0 0 226.8 226.8" style="enable-background:new 0 0 226.8 226.8;" xml:space="preserve">
<g>
	<path d="M208.7,100c0,9.2-0.1,18.4,0,27.6c0.2,17.8-7.6,30.9-22.9,39.7c-15.6,9-31.2,18.1-46.8,27.1c-1.6,0.9-3.4,1.7-5.2,2.4
		c-8.4,3.4-8.4,3.4-8.4,12.6c0,4-0.1,8,0,12c0.1,3.8-1.6,5.1-5.3,5.3c-11.3,0.4-11.8,0.5-11.2-10.7c0.6-9.7-1-15.8-11.6-20.4
		c-17.2-7.5-33-18.2-49.6-27.4c-16.6-9.2-24.5-23.3-24.3-42.2c0.2-17.2,0.1-34.4,0-51.5c0-18.4,7.4-32.3,23.8-41.4
		c15.6-8.6,31-17.7,46.5-26.6c14.2-8.2,29-8.6,43.2-1c18.3,9.8,36.2,20.5,53.9,31.5c12,7.5,17.5,19.4,17.9,33.4
		C208.9,80.2,208.7,90.1,208.7,100z M191.8,68c-1.7,0.5-2.6,0.6-3.3,1c-13.3,8.5-26.7,16.8-39.8,25.6c-1.9,1.3-3.2,4.9-3.2,7.4
		c-0.1,12.2-4.4,22-15.5,28c-3.5,1.9-4.7,4.5-4.6,8.4c0.2,12.1,0,24.3,0.1,36.4c0,6.5,0.9,7.1,6.4,4c14.5-8.1,28.8-16.7,43.4-24.7
		c11.5-6.3,17.1-15.6,17-28.7c-0.2-17,0-34-0.1-51C192.1,72.5,191.9,70.6,191.8,68z M137.7,26.3c-12.2-10.3-23.4-11.9-36.2-4.8
		c-15.8,8.7-31.3,17.9-46.9,26.9c-4.9,2.9-4.8,4,0,7.1c12.8,8.3,25.6,16.6,38.5,24.6c1.3,0.8,4.1,0.8,5.4-0.1
		c11.4-7.1,22.7-7.6,34.2-0.3c1.6,1,4.9,1.2,6.5,0.2c13.3-8.2,26.3-16.8,39.4-25.2c3.1-2,2.9-4-0.3-5.8c-6.4-3.7-12.7-7.8-19.4-11.1
		c-2.1-1-5.2-0.5-7.7,0.2c-2.2,0.6-4.2,2.4-6.3,3.7c-11.8,7.5-23.6,15.2-35.5,22.6c-4.5,2.8-9.1,1.7-11.6-1.8
		c-2.8-4.1-2-8.8,2.6-12.3c2.6-2,5.5-3.5,8.3-5.3C118.4,38.8,127.8,32.7,137.7,26.3z M41.4,67.5c-0.6,2-1.2,3.2-1.2,4.5
		c-0.1,9.5-0.2,19.1,0.1,28.6c0.1,1.8,1.8,4.1,3.4,5.2c8.7,6,17.6,11.7,26.5,17.4c7,4.5,14.2,8.7,21.1,13.3
		c3.8,2.6,4.9,8.2,2.8,11.6c-2.2,3.6-6.5,4.8-11,2.8c-2.2-1-4.3-2.2-6.3-3.5c-9.3-6-18.6-12.2-27.9-18.1c-2.4-1.5-5-2.7-7.7-4
		c-2,9.1,2.8,20.7,10.7,25.4c17.2,10.1,34.5,19.9,51.8,29.8c3.5,2,5.1,1.1,5.1-3c0-13.4-0.1-26.7,0-40.1c0-3.2-1.3-4.9-4.3-6.3
		c-11.8-5.6-18.3-16.6-17.3-29.4c0.3-3.3-0.7-5.1-3.4-6.8C72.6,87.6,61.4,80.3,50.2,73C47.5,71.3,44.8,69.6,41.4,67.5z M116.2,116.3
		c6.2,0,12.1-5.8,12.2-11.8c0.1-6.8-5.9-13.1-12.2-12.9c-6.8,0.2-12.7,6.1-12.5,12.7C103.9,110.9,109.5,116.3,116.2,116.3z"/>
</g>
</svg>
