<!-- Generated by IcoMoon.io -->
<svg version="1.1" xmlns="http://www.w3.org/2000/svg" width="32" height="32" viewBox="0 0 32 32">
<title>SMT</title>
<path d="M16.113 1.834c3.781 2.892 7.506 5.728 11.217 8.578 0.169 0.127 0.296 0.339 0.367 0.536 1.411 4.346 2.808 8.691 4.205 13.037 0.028 0.099 0.014 0.212 0.028 0.437-3.781-2.624-7.492-5.178-11.259-7.788-1.524 4.459-3.005 8.832-4.557 13.39-1.538-4.571-3.019-8.959-4.529-13.432-3.81 2.624-7.548 5.206-11.287 7.788-0.056-0.042-0.099-0.085-0.155-0.113 0.437-1.355 0.847-2.695 1.298-4.049 0.988-3.005 1.989-6.011 3.005-9.016 0.113-0.325 0.31-0.691 0.578-0.889 3.668-2.822 7.351-5.63 11.090-8.48zM15.295 4.064c-0.042-0.042-0.085-0.071-0.127-0.113-3.104 2.37-6.208 4.741-9.298 7.125-0.226 0.183-0.395 0.494-0.48 0.776-1.016 3.062-2.018 6.109-3.019 9.171-0.056 0.169-0.056 0.339-0.113 0.649 2.3-1.594 4.416-3.217 6.688-4.571 1.792-1.072 2.864-2.469 3.443-4.487 0.832-2.878 1.919-5.7 2.907-8.55zM16.931 3.88c0.042 0.268 0.042 0.367 0.071 0.437 1.227 3.556 2.441 7.125 3.683 10.667 0.099 0.296 0.381 0.564 0.649 0.748 2.681 1.891 5.39 3.753 8.085 5.616 0.127 0.085 0.268 0.141 0.451 0.226-0.014-0.169 0-0.268-0.028-0.339-1.016-3.175-2.032-6.349-3.076-9.524-0.071-0.226-0.226-0.48-0.409-0.621-3.090-2.384-6.194-4.755-9.425-7.21zM16.099 5.108c-1.213 3.541-2.342 6.815-3.499 10.159 2.399 0 4.656 0 6.998 0-1.143-3.358-2.272-6.631-3.499-10.159zM16.028 26.314c0.056 0 0.113-0.014 0.169-0.014 1.101-3.245 2.201-6.504 3.316-9.778-2.3 0-4.501 0-6.787 0 1.129 3.316 2.215 6.547 3.302 9.792z"></path>
</svg>
