<?xml version="1.0" encoding="utf-8"?>
<!-- Generator: Adobe Illustrator 22.1.0, SVG Export Plug-In . SVG Version: 6.00 Build 0)  -->
<svg version="1.1" id="Layer_1" xmlns="http://www.w3.org/2000/svg" xmlns:xlink="http://www.w3.org/1999/xlink" x="0px" y="0px"
	 viewBox="0 0 226.8 226.8" style="enable-background:new 0 0 226.8 226.8;" xml:space="preserve">
<g>
	<path d="M114.2,13c26.8,20.5,53.2,40.6,79.5,60.8c1.2,0.9,2.1,2.4,2.6,3.8c10,30.8,19.9,61.6,29.8,92.4c0.2,0.7,0.1,1.5,0.2,3.1
		c-26.8-18.6-53.1-36.7-79.8-55.2c-10.8,31.6-21.3,62.6-32.3,94.9c-10.9-32.4-21.4-63.5-32.1-95.2c-27,18.6-53.5,36.9-80,55.2
		c-0.4-0.3-0.7-0.6-1.1-0.8c3.1-9.6,6-19.1,9.2-28.7c7-21.3,14.1-42.6,21.3-63.9c0.8-2.3,2.2-4.9,4.1-6.3
		C61.6,53.1,87.7,33.2,114.2,13z M108.4,28.8c-0.3-0.3-0.6-0.5-0.9-0.8c-22,16.8-44,33.6-65.9,50.5C40,79.8,38.8,82,38.2,84
		c-7.2,21.7-14.3,43.3-21.4,65c-0.4,1.2-0.4,2.4-0.8,4.6c16.3-11.3,31.3-22.8,47.4-32.4c12.7-7.6,20.3-17.5,24.4-31.8
		C93.7,69,101.4,49,108.4,28.8z M120,27.5c0.3,1.9,0.3,2.6,0.5,3.1c8.7,25.2,17.3,50.5,26.1,75.6c0.7,2.1,2.7,4,4.6,5.3
		c19,13.4,38.2,26.6,57.3,39.8c0.9,0.6,1.9,1,3.2,1.6c-0.1-1.2,0-1.9-0.2-2.4c-7.2-22.5-14.4-45-21.8-67.5c-0.5-1.6-1.6-3.4-2.9-4.4
		C164.9,61.7,142.9,44.9,120,27.5z M114.1,36.2c-8.6,25.1-16.6,48.3-24.8,72c17,0,33,0,49.6,0C130.8,84.4,122.8,61.2,114.1,36.2z
		 M113.6,186.5c0.4,0,0.8-0.1,1.2-0.1c7.8-23,15.6-46.1,23.5-69.3c-16.3,0-31.9,0-48.1,0C98.2,140.6,105.9,163.5,113.6,186.5z"/>
</g>
</svg>
