<?xml version="1.0" encoding="utf-8"?>
<!-- Generator: Adobe Illustrator 22.1.0, SVG Export Plug-In . SVG Version: 6.00 Build 0)  -->
<svg version="1.1" id="Layer_1" xmlns="http://www.w3.org/2000/svg" xmlns:xlink="http://www.w3.org/1999/xlink" x="0px" y="0px"
	 viewBox="0 0 226.8 226.8" style="enable-background:new 0 0 226.8 226.8;" xml:space="preserve">
<g>
	<path d="M18.9,194.7c-6,0-12,0-18,0c0-1.5,0-3,0-4.5c0.8-2.6,1.9-5.1,2.4-7.8c1.2-6.4,4.7-10.7,10.8-13.2c2-0.8,4.2-2.6,5.2-4.5
		c7.5-13.1,9.4-28,13.4-42.7c-9.7,0-18.9,0-28.6,0c1.1-4.6,2.2-8.8,3.1-13.1c0.7-3.6,3-4.9,6.4-5c5.7,0,11.5-0.1,17.2,0
		c5.2,0,6.2-0.7,7.6-5.8c2.2-8.3,4.4-16.6,6.8-24.9C48.1,63,51.7,53,58.3,44.2c12-15.9,32.3-16.3,44.6-0.5c5.3,6.8,9,14.5,11.2,22.7
		c4.7,17.2,9,34.5,13.6,51.8c4,14.9,8,29.9,12.2,44.7c0.9,3.1,2.2,6.9,6,6.8c3.8-0.1,4.8-3.9,5.7-7c6.5-24.3,13.2-48.6,19.5-73
		c4-15.5,8.3-30.8,17.2-44.5c5-7.6,11.6-12.4,20.8-12.7c5.6-0.2,11.2,0.1,16.8,0.2c0,0.2,0,0.5,0,0.8c-1.7,6.4-3.3,12.7-5.1,19
		c-0.3,1-1.8,2.4-2.7,2.4c-6.8,0.1-10.9,3.9-12.8,9.7c-4.2,13.2-7.9,26.5-12.1,40.5c10.1,0,19.5,0,29.3,0c-1.2,4.7-2.3,8.8-3.2,12.9
		c-0.7,3.6-2.9,5-6.3,5.1c-5.2,0-10.5,0.3-15.7,0c-6.2-0.3-7.8,0.8-9.6,6.9c-3.6,12.3-7.1,24.7-11.2,36.9
		c-4.5,13.4-12.1,24.3-27.1,27.8c-2.2,0-4.5,0-6.8,0c-13.2-2.3-20.6-11.4-25.7-22.8c-2.3-5-4.4-10.1-5.7-15.4
		c-7.4-28.1-14.5-56.3-21.9-84.4c-1-3.8-2.2-7.7-4-11.2c-0.9-1.9-3.1-4.1-4.9-4.3c-1.2-0.2-3.5,2.5-4.3,4.4
		c-1.9,4.3-3.6,8.8-4.8,13.4c-4.6,17.9-8.9,35.8-13.5,53.7c-4.1,15.7-7.5,31.5-15.1,46.1C37.4,184.3,30.9,192.5,18.9,194.7z"/>
</g>
</svg>
