<!-- Generated by IcoMoon.io -->
<svg version="1.1" xmlns="http://www.w3.org/2000/svg" width="32" height="32" viewBox="0 0 32 32">
<title>SNC</title>
<path d="M2.667 27.471c-0.847 0-1.693 0-2.54 0 0-0.212 0-0.423 0-0.635 0.113-0.367 0.268-0.72 0.339-1.101 0.169-0.903 0.663-1.51 1.524-1.862 0.282-0.113 0.593-0.367 0.734-0.635 1.058-1.848 1.326-3.951 1.891-6.025-1.369 0-2.667 0-4.035 0 0.155-0.649 0.31-1.242 0.437-1.848 0.099-0.508 0.423-0.691 0.903-0.705 0.804 0 1.623-0.014 2.427 0 0.734 0 0.875-0.099 1.072-0.818 0.31-1.171 0.621-2.342 0.959-3.513 0.409-1.439 0.917-2.85 1.848-4.092 1.693-2.243 4.557-2.3 6.293-0.071 0.748 0.959 1.27 2.046 1.58 3.203 0.663 2.427 1.27 4.868 1.919 7.309 0.564 2.102 1.129 4.219 1.721 6.307 0.127 0.437 0.31 0.974 0.847 0.959s0.677-0.55 0.804-0.988c0.917-3.429 1.862-6.857 2.751-10.3 0.564-2.187 1.171-4.346 2.427-6.279 0.705-1.072 1.637-1.75 2.935-1.792 0.79-0.028 1.58 0.014 2.37 0.028 0 0.028 0 0.071 0 0.113-0.24 0.903-0.466 1.792-0.72 2.681-0.042 0.141-0.254 0.339-0.381 0.339-0.959 0.014-1.538 0.55-1.806 1.369-0.593 1.862-1.115 3.739-1.707 5.714 1.425 0 2.751 0 4.134 0-0.169 0.663-0.325 1.242-0.451 1.82-0.099 0.508-0.409 0.705-0.889 0.72-0.734 0-1.481 0.042-2.215 0-0.875-0.042-1.101 0.113-1.355 0.974-0.508 1.735-1.002 3.485-1.58 5.206-0.635 1.891-1.707 3.429-3.824 3.922-0.31 0-0.635 0-0.959 0-1.862-0.325-2.907-1.608-3.626-3.217-0.325-0.705-0.621-1.425-0.804-2.173-1.044-3.965-2.046-7.944-3.090-11.908-0.141-0.536-0.31-1.086-0.564-1.58-0.127-0.268-0.437-0.578-0.691-0.607-0.169-0.028-0.494 0.353-0.607 0.621-0.268 0.607-0.508 1.242-0.677 1.891-0.649 2.526-1.256 5.051-1.905 7.577-0.578 2.215-1.058 4.444-2.13 6.504-0.748 1.425-1.665 2.582-3.358 2.892z"></path>
</svg>
