<!-- Generated by IcoMoon.io -->
<svg version="1.1" xmlns="http://www.w3.org/2000/svg" width="32" height="32" viewBox="0 0 32 32">
<title>SNGLS</title>
<path d="M18.85 16.875l-2.85 5.531-3.697-7.012v-0.014l-0.748-1.369-0.818 1.383 5.263 9.538 5.263-9.538-0.832-1.383"></path>
<path d="M16.014 6.617l-0.649 1.030-2.977 4.995 0.748 1.425 2.878-4.571 2.808 4.571 0.762-1.496-2.497-4.19"></path>
<path d="M16.014 9.326c-8.847 0-16.014 6.603-16.014 6.617s7.168 6.603 16.014 6.603 15.986-6.603 15.986-6.603-7.168-6.617-15.986-6.617M16.014 21.065c-6.899 0-14.66-5.122-14.66-5.122s7.774-5.136 14.66-5.136 14.66 4.995 14.66 5.136c0 0.127-7.788 5.122-14.66 5.122"></path>
</svg>
