<?xml version="1.0" encoding="utf-8"?>
<!-- Generator: Adobe Illustrator 22.0.1, SVG Export Plug-In . SVG Version: 6.00 Build 0)  -->
<svg version="1.1" id="Layer_1" xmlns="http://www.w3.org/2000/svg" xmlns:xlink="http://www.w3.org/1999/xlink" x="0px" y="0px"
	 viewBox="0 0 226.8 226.8" style="enable-background:new 0 0 226.8 226.8;" xml:space="preserve">
<style type="text/css">
	.st0{stroke:#FFFFFF;stroke-miterlimit:10;}
</style>
<g transform="translate(0-428)">
	<path class="st0" d="M133.6,547.6l-20.2,39.2l-26.2-49.7V537l-5.3-9.7l-5.8,9.8l37.3,67.6l37.3-67.6l-5.9-9.8"/>
	<path class="st0" d="M113.5,474.9l-4.6,7.3l-21.1,35.4l5.3,10.1l20.4-32.4l19.9,32.4l5.4-10.6l-17.7-29.7"/>
	<path class="st0" d="M113.5,494.1C50.8,494.1,0,540.9,0,541c0,0.1,50.8,46.8,113.5,46.8S226.8,541,226.8,541S176,494.1,113.5,494.1
		 M113.5,577.3C64.6,577.3,9.6,541,9.6,541s55.1-36.4,103.9-36.4S217.4,540,217.4,541C217.4,541.9,162.2,577.3,113.5,577.3"/>
</g>
</svg>
