<!-- Generated by IcoMoon.io -->
<svg version="1.1" xmlns="http://www.w3.org/2000/svg" width="32" height="32" viewBox="0 0 32 32">
<title>SNM</title>
<path d="M15.987 31.898c-8.742-0.026-15.859-7.155-15.859-15.91s7.117-15.872 15.859-15.898c8.755 0.026 15.859 7.142 15.859 15.91s-7.104 15.872-15.859 15.898zM30.054 18.522c-0.243 0.563-0.819 0.973-1.472 0.973-0.205 0-0.422-0.038-0.614-0.128 0.563 0.589 0.909 1.37 0.909 2.24 0 0.256-0.038 0.486-0.090 0.73 0.602-1.203 1.024-2.496 1.267-3.814zM28.582 18.675c0.435 0 0.794-0.358 0.794-0.794s-0.358-0.794-0.794-0.794-0.794 0.358-0.794 0.794c0 0.435 0.358 0.794 0.794 0.794zM28.941 9.958c0.256 0.717 0.384 1.472 0.384 2.24 0 1.574-0.563 3.11-1.574 4.314 0.23-0.141 0.512-0.23 0.819-0.23 0.832 0 1.51 0.64 1.587 1.459 0.064-0.576 0.115-1.152 0.115-1.754 0.013-2.074-0.448-4.134-1.331-6.029zM28.134 12.198c0-3.034-2.47-5.517-5.517-5.517-3.034 0-5.517 2.47-5.517 5.517 0 3.034 2.47 5.517 5.517 5.517 3.034 0 5.517-2.483 5.517-5.517zM22.387 21.606c0-1.203 0.666-2.304 1.728-2.867-1.344 0.32-2.752 0.205-4.032-0.32 1.088 0.832 1.894 1.997 2.317 3.302 0-0.038-0.013-0.077-0.013-0.115zM22.707 23.744c0 0.538-0.064 1.062-0.192 1.574 0.256-0.525 0.794-0.858 1.382-0.858 0.077 0 0.166 0.013 0.243 0.026-0.678-0.346-1.203-0.922-1.51-1.626 0.051 0.307 0.077 0.589 0.077 0.883zM25.638 23.654c1.126 0 2.048-0.922 2.048-2.035 0-1.126-0.922-2.035-2.048-2.035s-2.035 0.922-2.035 2.035c-0.013 1.126 0.909 2.035 2.035 2.035zM26.982 17.894c0-0.269 0.077-0.538 0.205-0.768-0.576 0.538-1.254 0.973-1.984 1.293 0.141-0.013 0.282-0.038 0.435-0.038 0.589 0 1.152 0.154 1.651 0.461-0.205-0.282-0.307-0.614-0.307-0.947zM15.987 17.024c0.87 0 1.715 0.166 2.522 0.486-1.344-1.037-2.253-2.547-2.522-4.224-0.282 1.715-1.203 3.2-2.522 4.224 0.781-0.307 1.626-0.486 2.522-0.486zM15.987 8.102c-0.614 0-1.203-0.166-1.728-0.499 0.909 0.96 1.51 2.176 1.728 3.482 0.218-1.306 0.819-2.522 1.728-3.482-0.512 0.32-1.114 0.499-1.728 0.499zM19.264 4.826c0 0.73-0.243 1.446-0.704 2.022 0.678-0.512 1.459-0.896 2.278-1.126-0.038 0-0.064 0.013-0.090 0.013-0.678 0-1.254-0.422-1.485-1.011-0.013 0.026 0 0.064 0 0.102zM21.747 2.893c0.358 0.294 0.602 0.73 0.602 1.229 0 0.64-0.371 1.203-0.96 1.459 0.397-0.077 0.806-0.115 1.216-0.115 2.061 0 3.891 0.934 5.12 2.368-1.498-2.15-3.558-3.866-5.978-4.941zM20.749 3.328c-0.435 0-0.794 0.358-0.794 0.794s0.358 0.794 0.794 0.794c0.435 0 0.794-0.358 0.794-0.794s-0.358-0.781-0.794-0.794zM16.973 1.69c1.075 0.346 1.894 1.216 2.176 2.304 0.064-0.819 0.742-1.485 1.587-1.485 0.051 0 0.102 0.013 0.154 0.013-1.216-0.435-2.547-0.717-3.917-0.832zM13.926 4.826c0 1.139 0.934 2.061 2.061 2.061s2.061-0.934 2.061-2.061-0.934-2.061-2.061-2.061-2.061 0.922-2.061 2.061zM11.072 2.534c0.051-0.013 0.102-0.013 0.154-0.013 0.845 0 1.523 0.653 1.587 1.485 0.282-1.088 1.101-1.958 2.176-2.304-1.37 0.102-2.675 0.384-3.917 0.832zM12.71 4.826c0-0.038 0-0.077 0.013-0.102-0.23 0.602-0.819 1.011-1.485 1.011-0.038 0-0.064-0.013-0.090-0.013 0.819 0.23 1.6 0.602 2.278 1.126-0.461-0.576-0.717-1.293-0.717-2.022zM10.432 4.134c0 0.435 0.358 0.794 0.794 0.794s0.794-0.358 0.794-0.794-0.346-0.806-0.781-0.806c-0.448 0.013-0.806 0.358-0.806 0.806zM4.25 7.846c1.229-1.459 3.059-2.368 5.12-2.368 0.41 0 0.819 0.038 1.216 0.115-0.806-0.346-1.178-1.293-0.819-2.086 0.102-0.23 0.256-0.448 0.461-0.602-2.419 1.062-4.493 2.79-5.978 4.941zM3.853 12.198c0 3.034 2.47 5.517 5.517 5.517 3.034 0 5.517-2.47 5.517-5.517 0-3.034-2.47-5.517-5.517-5.517s-5.517 2.47-5.517 5.517zM9.587 21.606c0 0.038-0.013 0.077-0.013 0.115 0.422-1.306 1.229-2.458 2.317-3.302-1.28 0.525-2.688 0.627-4.032 0.32 1.024 0.55 1.728 1.626 1.728 2.867zM4.992 17.894c0 0.333-0.115 0.666-0.32 0.934 0.499-0.294 1.075-0.461 1.651-0.461 0.141 0 0.282 0.013 0.435 0.038-0.73-0.307-1.408-0.742-1.984-1.293 0.154 0.243 0.218 0.499 0.218 0.781zM4.301 21.606c0 1.126 0.922 2.035 2.035 2.035 1.126 0 2.035-0.922 2.035-2.035 0-1.126-0.922-2.035-2.035-2.035-1.114-0.013-2.035 0.909-2.035 2.035zM7.821 24.499c0.077-0.013 0.154-0.026 0.243-0.026 0.589 0 1.126 0.333 1.382 0.858-0.128-0.512-0.192-1.050-0.192-1.574 0-0.294 0.026-0.589 0.064-0.883-0.282 0.691-0.819 1.267-1.498 1.626zM1.805 17.741c0.064-0.819 0.755-1.459 1.587-1.459 0.294 0 0.576 0.090 0.819 0.23-1.024-1.203-1.574-2.739-1.574-4.314 0-0.794 0.141-1.536 0.384-2.24-0.858 1.83-1.331 3.878-1.331 6.029 0.013 0.589 0.051 1.178 0.115 1.754zM3.392 17.088c-0.435 0-0.794 0.358-0.794 0.794s0.358 0.794 0.794 0.794 0.794-0.358 0.794-0.794v0c0-0.435-0.346-0.794-0.794-0.794zM3.098 21.606c0-0.832 0.32-1.638 0.909-2.24-0.192 0.077-0.397 0.128-0.614 0.128-0.653 0-1.229-0.397-1.472-0.973 0.243 1.344 0.666 2.624 1.267 3.814-0.051-0.23-0.090-0.474-0.090-0.73zM7.194 24.742c-0.269 0.077-0.563 0.115-0.858 0.115-0.845 0-1.626-0.333-2.202-0.87 0.768 1.126 1.69 2.15 2.726 3.021-0.218-0.269-0.358-0.602-0.358-0.986 0.013-0.512 0.269-0.998 0.691-1.28zM7.322 26.022c0 0.422 0.333 0.755 0.755 0.755s0.755-0.333 0.755-0.755-0.333-0.755-0.755-0.755v0c-0.422 0.013-0.755 0.346-0.755 0.755zM14.054 30.182c-2.086-0.64-3.738-2.24-4.429-4.301 0 0.038 0.013 0.090 0.013 0.141 0 0.858-0.691 1.549-1.549 1.562-0.243 0-0.474-0.051-0.691-0.154 1.907 1.434 4.186 2.419 6.656 2.752zM21.504 23.744c0-3.034-2.47-5.504-5.504-5.517-3.034 0-5.504 2.47-5.504 5.517s2.47 5.504 5.504 5.517c3.034 0 5.504-2.47 5.504-5.517zM24.576 27.43c-0.768 0.371-1.702 0.051-2.074-0.717-0.102-0.218-0.154-0.448-0.154-0.691 0-0.051 0.013-0.090 0.013-0.141-0.691 2.061-2.342 3.661-4.429 4.301 2.458-0.333 4.736-1.318 6.643-2.752zM24.666 26.022c0-0.422-0.333-0.755-0.755-0.755s-0.755 0.333-0.755 0.755 0.333 0.755 0.755 0.755v0c0.41 0 0.742-0.333 0.755-0.755zM27.84 23.987c-0.576 0.538-1.344 0.87-2.202 0.87-0.294 0-0.576-0.038-0.858-0.115 0.422 0.294 0.678 0.768 0.678 1.293 0 0.371-0.141 0.704-0.358 0.986 1.050-0.883 1.971-1.907 2.739-3.034z"></path>
</svg>
