<?xml version="1.0" encoding="utf-8"?>
<!-- Generator: Adobe Illustrator 22.1.0, SVG Export Plug-In . SVG Version: 6.00 Build 0)  -->
<svg version="1.1" id="Layer_1" xmlns="http://www.w3.org/2000/svg" xmlns:xlink="http://www.w3.org/1999/xlink" x="0px" y="0px"
	 viewBox="0 0 250 250" style="enable-background:new 0 0 250 250;" xml:space="preserve">
<style type="text/css">
	.st0{fill:#0B1C26;}
</style>
<path class="st0" d="M124.9,249.2C56.6,249,1,193.3,1,124.9S56.6,0.9,124.9,0.7c68.4,0.2,123.9,55.8,123.9,124.3
	S193.3,249,124.9,249.2 M234.8,144.7c-1.9,4.4-6.4,7.6-11.5,7.6c-1.6,0-3.3-0.3-4.8-1c4.4,4.6,7.1,10.7,7.1,17.5
	c0,2-0.3,3.8-0.7,5.7C229.6,165.1,232.9,155,234.8,144.7 M223.3,145.9c3.4,0,6.2-2.8,6.2-6.2c0-3.4-2.8-6.2-6.2-6.2
	s-6.2,2.8-6.2,6.2C217.1,143.1,219.9,145.9,223.3,145.9 M226.1,77.8c2,5.6,3,11.5,3,17.5c0,12.3-4.4,24.3-12.3,33.7
	c1.8-1.1,4-1.8,6.4-1.8c6.5,0,11.8,5,12.4,11.4c0.5-4.5,0.9-9,0.9-13.7C236.6,108.7,233,92.6,226.1,77.8 M219.8,95.3
	c0-23.7-19.3-43.1-43.1-43.1c-23.7,0-43.1,19.3-43.1,43.1c0,23.7,19.3,43.1,43.1,43.1C200.4,138.4,219.8,119,219.8,95.3
	 M174.9,168.8c0-9.4,5.2-18,13.5-22.4c-10.5,2.5-21.5,1.6-31.5-2.5c8.5,6.5,14.8,15.6,18.1,25.8C175,169.4,174.9,169.1,174.9,168.8
	 M177.4,185.5c0,4.2-0.5,8.3-1.5,12.3c2-4.1,6.2-6.7,10.8-6.7c0.6,0,1.3,0.1,1.9,0.2c-5.3-2.7-9.4-7.2-11.8-12.7
	C177.2,181,177.4,183.2,177.4,185.5 M200.3,184.8c8.8,0,16-7.2,16-15.9c0-8.8-7.2-15.9-16-15.9c-8.8,0-15.9,7.2-15.9,15.9
	C184.3,177.7,191.5,184.8,200.3,184.8 M210.8,139.8c0-2.1,0.6-4.2,1.6-6c-4.5,4.2-9.8,7.6-15.5,10.1c1.1-0.1,2.2-0.3,3.4-0.3
	c4.6,0,9,1.2,12.9,3.6C211.6,145,210.8,142.4,210.8,139.8 M124.9,133c6.8,0,13.4,1.3,19.7,3.8c-10.5-8.1-17.6-19.9-19.7-33
	c-2.2,13.4-9.4,25-19.7,33C111.3,134.4,117.9,133,124.9,133 M124.9,63.3c-4.8,0-9.4-1.3-13.5-3.9c7.1,7.5,11.8,17,13.5,27.2
	c1.7-10.2,6.4-19.7,13.5-27.2C134.4,61.9,129.7,63.3,124.9,63.3 M150.5,37.7c0,5.7-1.9,11.3-5.5,15.8c5.3-4,11.4-7,17.8-8.8
	c-0.3,0-0.5,0.1-0.7,0.1c-5.3,0-9.8-3.3-11.6-7.9C150.4,37.1,150.5,37.4,150.5,37.7 M169.9,22.6c2.8,2.3,4.7,5.7,4.7,9.6
	c0,5-2.9,9.4-7.5,11.4c3.1-0.6,6.3-0.9,9.5-0.9c16.1,0,30.4,7.3,40,18.5C204.9,44.4,188.8,31,169.9,22.6 M162.1,26
	c-3.4,0-6.2,2.8-6.2,6.2c0,3.4,2.8,6.2,6.2,6.2c3.4,0,6.2-2.8,6.2-6.2C168.3,28.8,165.5,26.1,162.1,26 M132.6,13.2
	c8.4,2.7,14.8,9.5,17,18c0.5-6.4,5.8-11.6,12.4-11.6c0.4,0,0.8,0.1,1.2,0.1C153.7,16.3,143.3,14.1,132.6,13.2 M108.8,37.7
	c0,8.9,7.3,16.1,16.1,16.1s16.1-7.3,16.1-16.1s-7.3-16.1-16.1-16.1S108.8,28.8,108.8,37.7 M86.5,19.8c0.4-0.1,0.8-0.1,1.2-0.1
	c6.6,0,11.9,5.1,12.4,11.6c2.2-8.5,8.6-15.3,17-18C106.4,14.1,96.2,16.3,86.5,19.8 M99.3,37.7c0-0.3,0-0.6,0.1-0.8
	c-1.8,4.7-6.4,7.9-11.6,7.9c-0.3,0-0.5-0.1-0.7-0.1c6.4,1.8,12.5,4.7,17.8,8.8C101.3,49,99.3,43.4,99.3,37.7 M81.5,32.3
	c0,3.4,2.8,6.2,6.2,6.2c3.4,0,6.2-2.8,6.2-6.2S91.2,26,87.8,26C84.3,26.1,81.5,28.8,81.5,32.3 M33.2,61.3
	c9.6-11.4,23.9-18.5,40-18.5c3.2,0,6.4,0.3,9.5,0.9c-6.3-2.7-9.2-10.1-6.4-16.3c0.8-1.8,2-3.5,3.6-4.7C61,31,44.8,44.5,33.2,61.3
	 M30.1,95.3c0,23.7,19.3,43.1,43.1,43.1c23.7,0,43.1-19.3,43.1-43.1c0-23.7-19.3-43.1-43.1-43.1C49.4,52.2,30.1,71.5,30.1,95.3
	 M74.9,168.8c0,0.3-0.1,0.6-0.1,0.9c3.3-10.2,9.6-19.2,18.1-25.8c-10,4.1-21,4.9-31.5,2.5C69.4,150.7,74.9,159.1,74.9,168.8
	 M39,139.8c0,2.6-0.9,5.2-2.5,7.3c3.9-2.3,8.4-3.6,12.9-3.6c1.1,0,2.2,0.1,3.4,0.3c-5.7-2.4-11-5.8-15.5-10.1
	C38.5,135.6,39,137.6,39,139.8 M33.6,168.8c0,8.8,7.2,15.9,15.9,15.9c8.8,0,15.9-7.2,15.9-15.9c0-8.8-7.2-15.9-15.9-15.9
	C40.8,152.8,33.6,160,33.6,168.8 M61.1,191.4c0.6-0.1,1.2-0.2,1.9-0.2c4.6,0,8.8,2.6,10.8,6.7c-1-4-1.5-8.2-1.5-12.3
	c0-2.3,0.2-4.6,0.5-6.9C70.6,184.1,66.4,188.6,61.1,191.4 M14.1,138.6c0.5-6.4,5.9-11.4,12.4-11.4c2.3,0,4.5,0.7,6.4,1.8
	c-8-9.4-12.3-21.4-12.3-33.7c0-6.2,1.1-12,3-17.5c-6.7,14.3-10.4,30.3-10.4,47.1C13.3,129.5,13.6,134.1,14.1,138.6 M26.5,133.5
	c-3.4,0-6.2,2.8-6.2,6.2c0,3.4,2.8,6.2,6.2,6.2s6.2-2.8,6.2-6.2l0,0C32.7,136.3,30,133.5,26.5,133.5 M24.2,168.8
	c0-6.5,2.5-12.8,7.1-17.5c-1.5,0.6-3.1,1-4.8,1c-5.1,0-9.6-3.1-11.5-7.6c1.9,10.5,5.2,20.5,9.9,29.8
	C24.5,172.7,24.2,170.8,24.2,168.8 M56.2,193.3c-2.1,0.6-4.4,0.9-6.7,0.9c-6.6,0-12.7-2.6-17.2-6.8c6,8.8,13.2,16.8,21.3,23.6
	c-1.7-2.1-2.8-4.7-2.8-7.7C50.9,199.3,52.9,195.5,56.2,193.3 M57.2,203.3c0,3.3,2.6,5.9,5.9,5.9c3.3,0,5.9-2.6,5.9-5.9
	s-2.6-5.9-5.9-5.9h0C59.8,197.5,57.2,200.1,57.2,203.3 M109.8,235.8c-16.3-5-29.2-17.5-34.6-33.6c0,0.3,0.1,0.7,0.1,1.1
	c0,6.7-5.4,12.1-12.1,12.2c-1.9,0-3.7-0.4-5.4-1.2C72.7,225.5,90.5,233.2,109.8,235.8 M168,185.5c0-23.7-19.3-43-43-43.1
	c-23.7,0-43,19.3-43,43.1s19.3,43,43,43.1C148.7,228.6,168,209.3,168,185.5 M192,214.3c-6,2.9-13.3,0.4-16.2-5.6
	c-0.8-1.7-1.2-3.5-1.2-5.4c0-0.4,0.1-0.7,0.1-1.1c-5.4,16.1-18.3,28.6-34.6,33.6C159.3,233.2,177.1,225.5,192,214.3 M192.7,203.3
	c0-3.3-2.6-5.9-5.9-5.9c-3.3,0-5.9,2.6-5.9,5.9s2.6,5.9,5.9,5.9l0,0C190,209.2,192.6,206.6,192.7,203.3 M217.5,187.4
	c-4.5,4.2-10.5,6.8-17.2,6.8c-2.3,0-4.5-0.3-6.7-0.9c3.3,2.3,5.3,6,5.3,10.1c0,2.9-1.1,5.5-2.8,7.7
	C204.3,204.2,211.5,196.2,217.5,187.4"/>
</svg>
