<!-- Generated by IcoMoon.io -->
<svg version="1.1" xmlns="http://www.w3.org/2000/svg" width="32" height="32" viewBox="0 0 32 32">
<title>SNT</title>
<path d="M10.723 14.081c-1.086 0-2.187 0.085-3.259 0.282 0.889-8.169 7.704-14.363 15.817-14.363 4.966 0 8.367 2.427 8.367 7.464s-4.078 7.464-10.046 7.464c-4.402 0-6.476-0.847-10.878-0.847M10.399 17.072c-5.954 0-10.046 2.427-10.046 7.464s3.4 7.464 8.367 7.464c8.113 0 14.928-6.194 15.802-14.363-1.072 0.198-2.159 0.282-3.259 0.282-4.388 0-6.462-0.847-10.864-0.847"></path>
</svg>
