<?xml version="1.0" encoding="utf-8"?>
<!-- Generator: Adobe Illustrator 22.0.1, SVG Export Plug-In . SVG Version: 6.00 Build 0)  -->
<svg version="1.1" id="Layer_1" xmlns="http://www.w3.org/2000/svg" xmlns:xlink="http://www.w3.org/1999/xlink" x="0px" y="0px"
	 viewBox="0 0 226.8 226.8" style="enable-background:new 0 0 226.8 226.8;" xml:space="preserve">
<style type="text/css">
	.st0{stroke:#FFFFFF;stroke-miterlimit:10;}
</style>
<path class="st0" d="M76,99.8c-7.7,0-15.5,0.6-23.1,2C59.2,43.9,107.5,0,165,0c35.2,0,59.3,17.2,59.3,52.9s-28.9,52.9-71.2,52.9
	C121.9,105.8,107.2,99.8,76,99.8 M73.7,121c-42.2,0-71.2,17.2-71.2,52.9s24.1,52.9,59.3,52.9c57.5,0,105.8-43.9,112-101.8
	c-7.6,1.4-15.3,2-23.1,2C119.6,127,104.9,121,73.7,121"/>
</svg>
