<?xml version="1.0" encoding="utf-8"?>
<!-- Generator: Adobe Illustrator 22.1.0, SVG Export Plug-In . SVG Version: 6.00 Build 0)  -->
<svg version="1.1" id="Layer_1" xmlns="http://www.w3.org/2000/svg" xmlns:xlink="http://www.w3.org/1999/xlink" x="0px" y="0px"
	 viewBox="0 0 226.8 226.8" style="enable-background:new 0 0 226.8 226.8;" xml:space="preserve">
<g>
	<path d="M196.2,107.5c11.4-9.4,21.5-20.2,29-33.1c-2.2,10.5-5.6,20.6-10.3,30.3c-4.8,9.7-11.7,17.9-19.9,24.9
		c-8.3,7.1-17.8,12.1-28.1,15.8c11,0,22,0,33.4,0c-6.1,10-13.4,18.6-22.2,25.8c-18.9,15.6-40.5,24.4-65,25.6
		c-27.9,1.3-52.7-6.8-74.5-24.1c-9.3-7.4-17.2-16.2-23.6-26.9c2.6-0.2,4.6-0.4,6.6-0.4c6.2,0,12.5,0.1,18.7-0.1
		c1.6,0,3.2-0.6,5.2-1.1c0,0.1,0.4,0.7,0.7,1.4c1.5-1.5,0.3-2.2-0.6-3.1c-4.6-4.2-9.5-8.1-13.8-12.6C16.7,114.2,8.1,95.6,6,74.2
		c-0.3-3.3-0.5-6.6-0.8-10.1c-0.4-0.1-0.8-0.2-1.2-0.2c-4,0.2-4.1-0.1-3.8-4C0.8,51.2,2.9,42.8,6.9,35c0.9-1.7,2-3.4,3.3-5
		c1.6,22.1,7.9,42.5,19.4,61.4c-1-5.9-2.1-11.8-3.1-17.7c0.2-0.1,0.4-0.2,0.6-0.2c6.2,12.1,12.8,24,21.8,34.2
		c8.9,10.1,18.7,19.3,31,25.9c-1.5-4.5-3.3-8.5-4.2-12.7c-1.8-8.2-0.5-15.9,5.9-22c4-3.8,9.1-5.4,14.5-6c8.4-0.8,16.6,0.2,24.7,2.4
		c0.2,0.1,0.4,0.3,0.9,0.6c-2-0.1-3.7-0.3-5.4-0.3c-5.2-0.1-9.4,2.9-10.5,8c-1.3,5.7-0.9,13.6,6.9,17.6c10.9,5.6,22.3,8.6,34.6,8.1
		c1.3-0.1,2.7-0.5,4-1c13.1-5,25.8-10.9,37.1-19.2c6.4-4.7,12.1-10.3,18-15.6c0.4-0.4,0.5-1,0.8-1.6c0.3,0.3,0.6,0.5,0.9,0.8
		C203.9,97.6,200,102.6,196.2,107.5z"/>
</g>
</svg>
