<!-- Generated by IcoMoon.io -->
<svg version="1.1" xmlns="http://www.w3.org/2000/svg" width="32" height="32" viewBox="0 0 32 32">
<title>SOAR</title>
<path d="M27.683 15.168c1.608-1.326 3.034-2.85 4.092-4.67-0.31 1.481-0.79 2.907-1.453 4.275-0.677 1.369-1.651 2.526-2.808 3.513-1.171 1.002-2.511 1.707-3.965 2.229 1.552 0 3.104 0 4.713 0-0.861 1.411-1.891 2.624-3.132 3.64-2.667 2.201-5.714 3.443-9.171 3.612-3.937 0.183-7.436-0.959-10.511-3.4-1.312-1.044-2.427-2.286-3.33-3.795 0.367-0.028 0.649-0.056 0.931-0.056 0.875 0 1.764 0.014 2.638-0.014 0.226 0 0.452-0.085 0.734-0.155 0 0.014 0.056 0.099 0.099 0.198 0.212-0.212 0.042-0.31-0.085-0.437-0.649-0.593-1.34-1.143-1.947-1.778-2.131-2.215-3.344-4.84-3.64-7.859-0.042-0.466-0.071-0.931-0.113-1.425-0.056-0.014-0.113-0.028-0.169-0.028-0.564 0.028-0.578-0.014-0.536-0.564 0.085-1.228 0.381-2.413 0.945-3.513 0.127-0.24 0.282-0.48 0.466-0.705 0.226 3.118 1.115 5.996 2.737 8.663-0.141-0.832-0.296-1.665-0.437-2.497 0.028-0.014 0.056-0.028 0.085-0.028 0.875 1.707 1.806 3.386 3.076 4.825 1.256 1.425 2.638 2.723 4.374 3.654-0.212-0.635-0.466-1.199-0.593-1.792-0.254-1.157-0.071-2.243 0.832-3.104 0.564-0.536 1.284-0.762 2.046-0.847 1.185-0.113 2.342 0.028 3.485 0.339 0.028 0.014 0.056 0.042 0.127 0.085-0.282-0.014-0.522-0.042-0.762-0.042-0.734-0.014-1.326 0.409-1.481 1.129-0.183 0.804-0.127 1.919 0.974 2.483 1.538 0.79 3.146 1.213 4.882 1.143 0.183-0.014 0.381-0.071 0.564-0.141 1.848-0.705 3.64-1.538 5.235-2.709 0.903-0.663 1.707-1.453 2.54-2.201 0.056-0.056 0.071-0.141 0.113-0.226 0.042 0.042 0.085 0.071 0.127 0.113-0.593 0.691-1.143 1.397-1.679 2.088z"></path>
</svg>
