<?xml version="1.0" encoding="utf-8"?>
<!-- Generator: Adobe Illustrator 22.1.0, SVG Export Plug-In . SVG Version: 6.00 Build 0)  -->
<svg version="1.1" id="Layer_1" xmlns="http://www.w3.org/2000/svg" xmlns:xlink="http://www.w3.org/1999/xlink" x="0px" y="0px"
	 viewBox="0 0 226.8 226.8" style="enable-background:new 0 0 226.8 226.8;" xml:space="preserve">
<g>
	<path d="M225.2,113.3c-0.1,61.8-50.2,112.3-112.9,111.9C50.7,224.8,0.7,174.8,1,112.4C1.3,50.9,51.3,0.7,113.6,1
		C175.5,1.3,225.3,51.4,225.2,113.3z M82.6,19.9C50.1,29,16.1,63.1,14.7,109.9c-1.5,52.1,35.9,87.4,67.8,96.4c0-5.2,0-10.3,0-15.7
		c1,0.3,1.8,0.5,2.5,0.7c5.5,2,11.1,3.5,16.9,4.1c1.5,0.2,1.8,1,1.8,2.3c0,3.7,0,7.4,0,11.1c0,1.5,0.5,2.3,2.1,2.3
		c4.7,0,9.4,0.2,14,0c2.5-0.1,2.6-0.3,2.6-2.8c0-3.6,0-7.1,0-10.7c0-1.3,0.3-2.2,1.8-2.3c5.8-0.6,11.4-2.1,16.9-4
		c0.7-0.2,1.5-0.4,2.6-0.7c0,5.4,0,10.4,0,15.5c35.7-10.5,72.8-49.7,67.2-104c-2.5-23.8-12.8-44-30-60.5
		c-10.6-10.2-22.9-17.6-37.3-22.3c0,5.6,0,10.7,0,15.8c-7.1-1.8-13.9-3.5-21-5.2c0-0.6-0.1-1.5-0.1-2.3c0-3.5,0-6.9,0-10.4
		c0-2-0.2-2.3-2.2-2.4c-4.8-0.1-9.5-0.1-14.3,0c-2,0.1-2.2,0.4-2.2,2.4c0,3.3,0,6.6,0,9.9c0,1,0,2.1,0,2.8
		c-7.2,1.8-14.1,3.5-21.2,5.3C82.6,30.3,82.6,25.1,82.6,19.9z"/>
	<path d="M58.5,147.3c10.1-1.7,19.9-3.3,29.5-4.9c1.2,2.4,2,4.6,3.3,6.5c2.9,4.3,7.4,6.4,12.3,7.6c6,1.5,12,1.6,18,0
		c3.5-0.9,6.6-2.6,9.2-5.2c4.9-4.9,5.5-14.2-2.4-18.5c-4.4-2.4-9.1-3.6-13.9-4.7c-7.7-1.7-15.5-3-23.2-4.9
		c-9.9-2.5-18.3-7.6-24-16.4c-4.6-7-6.2-14.7-6.1-23c0.2-9.1,2.9-17.1,9-23.9c4.7-5.2,10.6-8.6,17.2-10.9c5.4-1.9,10.9-2.9,16.5-3.5
		c7.6-0.7,15.2-0.5,22.6,1.1c9.2,2,17.4,6.1,24,12.9c5.6,5.7,9.4,12.6,12.3,20.5c-2.7,0.5-5.2,1.1-7.8,1.5
		c-6.3,1.1-12.6,2.1-18.8,3.2c-1.3,0.2-2.2,0.2-2.6-1.3c-1.4-5.5-5-9.3-10-11.4c-7.9-3.3-15.9-3.3-23.7,0.5
		c-3.8,1.9-6.2,5.1-7.1,9.3c-1,4.7,0.5,8.5,4.2,11.3c3.8,2.9,8.3,4.2,12.9,5.2c8,1.7,16,3,23.9,4.9c9.5,2.2,18.2,6.1,25.1,13.4
		c5.7,6,8.6,13.2,9.2,21.4c0.4,6.5-0.4,12.7-3.1,18.7c-2.6,5.8-6.6,10.3-11.7,13.9c-7.5,5.3-16,7.9-25,9.3
		c-8.2,1.3-16.4,1.6-24.6,0.9c-11.4-1-22.1-4-31.1-11.4c-5.7-4.7-9.7-10.7-12.4-17.6C59.6,150.6,59.1,149.2,58.5,147.3z"/>
</g>
</svg>
