<!-- Generated by IcoMoon.io -->
<svg version="1.1" xmlns="http://www.w3.org/2000/svg" width="32" height="32" viewBox="0 0 32 32">
<title>SOC</title>
<path d="M31.774 15.986c-0.014 8.72-7.083 15.845-15.929 15.788-8.691-0.056-15.746-7.111-15.704-15.915 0.042-8.677 7.097-15.76 15.887-15.718 8.734 0.042 15.76 7.111 15.746 15.845zM11.654 2.808c-4.586 1.284-9.383 6.095-9.58 12.698-0.212 7.351 5.065 12.332 9.566 13.601 0-0.734 0-1.453 0-2.215 0.141 0.042 0.254 0.071 0.353 0.099 0.776 0.282 1.566 0.494 2.384 0.578 0.212 0.028 0.254 0.141 0.254 0.325 0 0.522 0 1.044 0 1.566 0 0.212 0.071 0.325 0.296 0.325 0.663 0 1.326 0.028 1.975 0 0.353-0.014 0.367-0.042 0.367-0.395 0-0.508 0-1.002 0-1.51 0-0.183 0.042-0.31 0.254-0.325 0.818-0.085 1.608-0.296 2.384-0.564 0.099-0.028 0.212-0.056 0.367-0.099 0 0.762 0 1.467 0 2.187 5.037-1.481 10.272-7.012 9.481-14.674-0.353-3.358-1.806-6.208-4.233-8.536-1.496-1.439-3.231-2.483-5.263-3.146 0 0.79 0 1.51 0 2.229-1.002-0.254-1.961-0.494-2.963-0.734 0-0.085-0.014-0.212-0.014-0.325 0-0.494 0-0.974 0-1.467 0-0.282-0.028-0.325-0.31-0.339-0.677-0.014-1.34-0.014-2.018 0-0.282 0.014-0.31 0.056-0.31 0.339 0 0.466 0 0.931 0 1.397 0 0.141 0 0.296 0 0.395-1.016 0.254-1.989 0.494-2.991 0.748 0-0.691 0-1.425 0-2.159z"></path>
<path d="M8.254 20.783c1.425-0.24 2.808-0.466 4.162-0.691 0.169 0.339 0.282 0.649 0.466 0.917 0.409 0.607 1.044 0.903 1.735 1.072 0.847 0.212 1.693 0.226 2.54 0 0.494-0.127 0.931-0.367 1.298-0.734 0.691-0.691 0.776-2.004-0.339-2.61-0.621-0.339-1.284-0.508-1.961-0.663-1.086-0.24-2.187-0.423-3.273-0.691-1.397-0.353-2.582-1.072-3.386-2.314-0.649-0.988-0.875-2.074-0.861-3.245 0.028-1.284 0.409-2.413 1.27-3.372 0.663-0.734 1.496-1.213 2.427-1.538 0.762-0.268 1.538-0.409 2.328-0.494 1.072-0.099 2.145-0.071 3.189 0.155 1.298 0.282 2.455 0.861 3.386 1.82 0.79 0.804 1.326 1.778 1.735 2.892-0.381 0.071-0.734 0.155-1.101 0.212-0.889 0.155-1.778 0.296-2.653 0.451-0.183 0.028-0.31 0.028-0.367-0.183-0.198-0.776-0.705-1.312-1.411-1.608-1.115-0.466-2.243-0.466-3.344 0.071-0.536 0.268-0.875 0.72-1.002 1.312-0.141 0.663 0.071 1.199 0.593 1.594 0.536 0.409 1.171 0.593 1.82 0.734 1.129 0.24 2.257 0.423 3.372 0.691 1.34 0.31 2.568 0.861 3.541 1.891 0.804 0.847 1.213 1.862 1.298 3.019 0.056 0.917-0.056 1.792-0.437 2.638-0.367 0.818-0.931 1.453-1.651 1.961-1.058 0.748-2.258 1.115-3.527 1.312-1.157 0.183-2.314 0.226-3.471 0.127-1.608-0.141-3.118-0.564-4.388-1.608-0.804-0.663-1.369-1.51-1.75-2.483-0.085-0.169-0.155-0.367-0.24-0.635z"></path>
</svg>
