<!-- Generated by IcoMoon.io -->
<svg version="1.1" xmlns="http://www.w3.org/2000/svg" width="32" height="32" viewBox="0 0 32 32">
<title>SOUTHEXCHANGE</title>
<path d="M18.413 0.931c-3.414 7.069-6.829 14.152-10.243 21.22-0.085-0.014-0.169-0.028-0.254-0.028-0.071-0.705-0.141-1.425-0.24-2.483-2.497 4.148-4.811 8-7.125 11.852-0.099-0.056-0.198-0.099-0.296-0.155 3.302-6.843 6.589-13.686 9.891-20.515 0.099 0 0.198 0 0.296 0.014 0.056 0.705 0.113 1.397 0.198 2.497 2.61-4.388 5.037-8.48 7.464-12.571 0.113 0.042 0.212 0.113 0.31 0.169z"></path>
<path d="M16.804 22.109c-0.056-0.705-0.113-1.397-0.155-2.102-0.071-0.028-0.155-0.056-0.226-0.085-2.328 3.866-4.656 7.746-6.984 11.612-0.099-0.056-0.198-0.099-0.296-0.155 3.302-6.857 6.603-13.714 9.905-20.557 0.099 0 0.198 0 0.296 0 0.056 0.705 0.127 1.397 0.226 2.469 2.596-4.36 5.023-8.451 7.464-12.543 0.099 0.056 0.212 0.113 0.31 0.155-3.414 7.083-6.829 14.166-10.243 21.263-0.113-0.014-0.212-0.028-0.296-0.056z"></path>
<path d="M21.235 22.053c-0.056-0.663-0.113-1.326-0.212-2.399-2.497 4.148-4.825 8.028-7.153 11.908-0.099-0.056-0.198-0.113-0.296-0.169 3.316-6.871 6.617-13.742 10.088-20.938 0.141 1.030 0.24 1.75 0.381 2.751 2.596-4.317 5.037-8.409 7.464-12.501 0.099 0.056 0.198 0.113 0.296 0.169-3.414 7.083-6.829 14.152-10.243 21.235-0.099-0.028-0.212-0.042-0.325-0.056z"></path>
<path d="M22.885 0.903c-3.414 7.069-6.829 14.152-10.243 21.22-0.099-0.014-0.212-0.028-0.31-0.056-0.071-0.691-0.127-1.369-0.226-2.384-2.483 4.12-4.825 8-7.153 11.88-0.099-0.056-0.198-0.099-0.282-0.155 3.316-6.885 6.646-13.771 10.102-20.966 0.141 1.044 0.24 1.735 0.367 2.765 2.582-4.317 5.023-8.409 7.45-12.487 0.099 0.056 0.198 0.113 0.296 0.183z"></path>
</svg>
