<?xml version="1.0" encoding="utf-8"?>
<!-- Generator: Adobe Illustrator 22.0.1, SVG Export Plug-In . SVG Version: 6.00 Build 0)  -->
<svg version="1.1" id="Layer_1" xmlns="http://www.w3.org/2000/svg" xmlns:xlink="http://www.w3.org/1999/xlink" x="0px" y="0px"
	 viewBox="0 0 226.8 226.8" style="enable-background:new 0 0 226.8 226.8;" xml:space="preserve">
<style type="text/css">
	.st0{stroke:#FFFFFF;stroke-miterlimit:10;}
</style>
<g>
	<path class="st0" d="M39,176.1v1.5H24.1v-27.4l-0.5,1.5l-14.3-4.4l8.1-26.4l-1,1.5L4,114l15.5-23L18,92.3L8.6,80.7l22.3-18l-2.9,1
		l-5.4-14l26.6-10.2l-3.1,0.2l-1-14.9l27.9-2l-2.5-0.6l3.4-14.6l26.6,6.1l-1.7-1L106.2,0l23.2,13.4l-0.9-1l10.9-10.2l18.1,19.4
		l-0.4-0.8l13.4-6.5l11.6,23.8l-0.1-0.7l14.8-2.3l4.4,27.5l0.3-2l14.8,2.3l-4.4,27.9l1.1-2.2l13.4,6.5L214,120.6l1.8-2l10.9,10.2
		l-19.3,20.7l2.3-1.4l7.5,12.9l-24.3,14l2.4-0.6l3.4,14.6l-26.8,6.2l2.1,0.1l-1,14.9l-26.9-1.9l1.4,0.5l-5.4,14l-25.7-9.9l1.6,1.3
		l-9.4,11.6l-21.2-17.2l1,1.6L76,218.8l-15.2-22.5l0.4,1.5l-14.3,4.4L39,176.1 M39,158.4l9.3-2.9l7.2,23.7l8.1-5.4l13.8,20.5
		l6.2-7.6l19.1,15.5l3.4-8.9l23,8.8l0.7-9.6l24.6,1.7l-2.2-9.6l24.2-5.6l-5-8.7l21.6-12.5l-7.4-6.9l17-18.3l-9.1-4.4l11-22.5
		l-9.9-1.6l3.9-24.7L189,81l-3.9-24.6l-8.6,4.2l-10.9-22.3l-7,6.5l-16.9-18.1L137,35l-21.3-12.3l-2.2,9.5l-24-5.5l0.7,10l-24.6,1.7
		l3.6,9.5L46,56.8l6.2,7.7L32.8,80.2l8.2,5.5l-14,20.8l9.5,2.9l-7.3,24H39V158.4L39,158.4"/>
	<path class="st0" d="M114,129c0-3.7-1.3-6.6-3.9-8.5c-2.6-2-7.3-4.1-14.2-6.3c-6.8-2.2-12.2-4.4-16.2-6.6
		C68.8,101.8,63.4,93.9,63.4,84c0-5.2,1.4-9.7,4.3-13.8c2.9-4.1,7.1-7.2,12.5-9.5c5.5-2.3,11.6-3.4,18.4-3.4s12.9,1.3,18.2,3.7
		c5.3,2.4,9.5,5.9,12.4,10.4c3,4.5,4.5,9.6,4.5,15.3H114c0-4.4-1.4-7.8-4.1-10.2c-2.8-2.4-6.6-3.7-11.6-3.7c-4.8,0-8.5,1-11.2,3.1
		c-2.7,2-4,4.7-4,8c0,3.1,1.6,5.7,4.7,7.8c3.2,2.1,7.8,4.1,13.8,5.9c11.2,3.4,19.3,7.5,24.5,12.5s7.7,11.2,7.7,18.6
		c0,8.3-3.1,14.7-9.4,19.5c-6.3,4.7-14.7,7-25.2,7c-7.3,0-14-1.3-20.1-4c-6-2.7-10.6-6.4-13.8-11.1c-3.2-4.7-4.7-10.1-4.7-16.3h19.7
		c0,10.5,6.3,15.8,18.9,15.8c4.7,0,8.3-0.9,10.9-2.8C112.7,135.1,114,132.4,114,129"/>
	<path class="st0" d="M171.8,76.1l-29.5,65.4L127,138l22.8-68.6L171.8,76.1 M143.5,149l-8.7,23.4l-19.6-9.2l8.4-22.4L143.5,149"/>
</g>
</svg>
