<!-- Generated by IcoMoon.io -->
<svg version="1.1" xmlns="http://www.w3.org/2000/svg" width="32" height="32" viewBox="0 0 32 32">
<title>SPANK</title>
<path d="M5.503 24.847v0.212h-2.102v-3.866l-0.071 0.212-2.018-0.621 1.143-3.725-0.141 0.212-1.75-1.185 2.187-3.245-0.212 0.183-1.326-1.637 3.146-2.54-0.409 0.141-0.762-1.975 3.753-1.439-0.437 0.028-0.141-2.102 3.936-0.282-0.353-0.085 0.48-2.060 3.753 0.861-0.24-0.141 1.044-1.792 3.273 1.891-0.127-0.141 1.538-1.439 2.554 2.737-0.056-0.113 1.891-0.917 1.637 3.358-0.014-0.099 2.088-0.324 0.621 3.88 0.042-0.282 2.088 0.325-0.621 3.937 0.155-0.31 1.891 0.917-1.75 3.598 0.254-0.282 1.538 1.439-2.723 2.921 0.325-0.198 1.058 1.82-3.429 1.975 0.339-0.085 0.48 2.060-3.781 0.875 0.296 0.014-0.141 2.102-3.795-0.268 0.198 0.071-0.762 1.975-3.626-1.397 0.226 0.183-1.326 1.637-2.991-2.427 0.141 0.226-1.75 1.213-2.145-3.175 0.056 0.212-2.018 0.621-1.115-3.683M5.503 22.349l1.312-0.409 1.016 3.344 1.143-0.762 1.947 2.892 0.875-1.072 2.695 2.187 0.48-1.256 3.245 1.242 0.099-1.355 3.471 0.24-0.31-1.355 3.414-0.79-0.705-1.227 3.048-1.764-1.044-0.974 2.399-2.582-1.284-0.621 1.552-3.175-1.397-0.226 0.55-3.485-1.34 0.226-0.55-3.471-1.213 0.593-1.538-3.146-0.988 0.917-2.384-2.554-0.663 1.171-3.005-1.735-0.31 1.34-3.386-0.776 0.099 1.411-3.471 0.24 0.508 1.34-3.273 1.256 0.875 1.086-2.737 2.215 1.157 0.776-1.975 2.935 1.34 0.409-1.030 3.386h1.383v3.527"></path>
<path d="M16.085 18.201c0-0.522-0.183-0.931-0.55-1.199-0.367-0.282-1.030-0.578-2.004-0.889-0.959-0.31-1.721-0.621-2.286-0.931-1.538-0.818-2.3-1.933-2.3-3.33 0-0.734 0.198-1.369 0.607-1.947s1.002-1.016 1.764-1.34c0.776-0.325 1.637-0.48 2.596-0.48s1.82 0.183 2.568 0.522c0.748 0.339 1.34 0.832 1.75 1.467 0.423 0.635 0.635 1.354 0.635 2.159h-2.78c0-0.621-0.198-1.101-0.578-1.439-0.395-0.339-0.931-0.522-1.637-0.522-0.677 0-1.199 0.141-1.58 0.437-0.381 0.282-0.564 0.663-0.564 1.129 0 0.437 0.226 0.804 0.663 1.101 0.451 0.296 1.101 0.578 1.947 0.832 1.58 0.48 2.723 1.058 3.457 1.764s1.086 1.58 1.086 2.624c0 1.171-0.437 2.074-1.326 2.751-0.889 0.663-2.074 0.988-3.556 0.988-1.030 0-1.975-0.183-2.836-0.564-0.847-0.381-1.496-0.903-1.947-1.566s-0.663-1.425-0.663-2.3h2.78c0 1.481 0.889 2.229 2.667 2.229 0.663 0 1.171-0.127 1.538-0.395 0.367-0.24 0.55-0.621 0.55-1.101"></path>
<path d="M24.24 10.737l-4.162 9.227-2.159-0.494 3.217-9.679 3.104 0.945M20.247 21.023l-1.227 3.302-2.765-1.298 1.185-3.16 2.808 1.157"></path>
</svg>
