<!-- Generated by IcoMoon.io -->
<svg version="1.1" xmlns="http://www.w3.org/2000/svg" width="32" height="32" viewBox="0 0 32 32">
<title>SPC</title>
<path d="M21.869 8.508c0.578-0.423 1.199-0.776 1.848-1.044 0.974-0.409 1.989-0.621 3.048-0.522 1.355 0.113 2.37 0.762 3.076 1.905 0.451 0.734 0.691 1.552 0.776 2.399 0.169 1.623-0.099 3.189-0.508 4.741-0.367 1.369-0.847 2.681-1.383 3.979-0.028 0.056-0.014 0.141 0.014 0.198 0.931 1.594 1.877 3.175 2.822 4.769 0.028 0.056 0.056 0.099 0.085 0.155-0.042 0.028-0.071 0.056-0.141 0.113 0.056 0.028 0.113 0.071 0.169 0.099-0.014 0-0.028 0.014-0.056 0.014-0.014 0.113-0.056 0.24-0.056 0.353 0 0.522 0 1.030 0 1.552 0 0.113-0.028 0.155-0.141 0.155-0.325 0-0.325 0-0.325-0.325 0-0.48 0-0.959 0-1.439 0-0.056-0.028-0.155-0.085-0.183-1.171-0.861-2.342-1.721-3.513-2.568-0.028-0.014-0.056-0.042-0.099-0.056-0.169 0.325-0.353 0.649-0.508 0.974-0.014 0.042 0.014 0.113 0.028 0.155 0.437 0.847 0.875 1.693 1.312 2.526 0.028 0.042 0.042 0.099 0.071 0.155-0.141 0.071-0.268 0.141-0.423 0.212-0.437-0.832-0.861-1.665-1.298-2.511-0.169 0.296-0.325 0.564-0.48 0.847-0.198 0.339-0.395 0.677-0.607 1.002-0.028 0.042-0.099 0.085-0.141 0.085-1.213 0-2.427 0-3.626 0-0.014 0-0.042 0-0.085-0.014 1.129-1.637 2.145-3.316 3.076-5.093-2.794 0.536-5.559 1.072-8.367 1.623 0.945 1.086 1.877 2.145 2.822 3.231-0.113 0.099-0.226 0.198-0.353 0.31-0.917-1.044-1.82-2.088-2.737-3.132-0.141 0.155-0.268 0.296-0.395 0.437-0.748 0.832-1.496 1.665-2.229 2.497-0.085 0.099-0.141 0.113-0.226 0.014-0.071-0.071-0.141-0.141-0.226-0.212 0.903-1.016 1.806-2.018 2.737-3.048-2.667-0.522-5.305-1.058-7.972-1.58 0.635 1.693 1.256 3.358 1.877 5.023-0.141 0.056-0.282 0.113-0.437 0.169-0.649-1.721-1.284-3.429-1.933-5.15-0.945 1.848-1.862 3.668-2.808 5.503-0.141-0.071-0.282-0.141-0.423-0.212 0.875-1.721 1.75-3.443 2.624-5.15-0.014 0-0.014-0.014-0.028-0.014-0.324 0.226-0.635 0.451-0.959 0.691-1.51 1.044-3.005 2.131-4.501 3.203-0.085 0.071-0.127 0.127-0.127 0.24 0 0.55 0 1.086 0 1.637 0 0.113-0.028 0.155-0.141 0.155-0.325 0-0.325 0-0.325-0.339 0-0.423-0.014-0.861 0-1.284 0-0.155-0.028-0.268-0.183-0.339-0.042-0.014-0.085-0.056-0.127-0.085 0.254-0.395 0.494-0.79 0.748-1.171 1.256-1.975 2.497-3.936 3.753-5.912 0.071-0.127 0.169-0.212 0.296-0.282 2.258-1.383 4.529-2.78 6.787-4.162 0.071-0.042 0.169-0.071 0.254-0.071 2.723 0 5.432 0 8.155 0 0.113 0 0.226 0.042 0.325 0.099 1.877 1.157 3.753 2.314 5.63 3.471 0.056 0.028 0.113 0.071 0.169 0.099 0.014-0.028 0.028-0.042 0.042-0.056 0.55-1.453 1.002-2.935 1.312-4.473 0.169-0.875 0.296-1.75 0.325-2.638 0.014-0.508-0.056-1.002-0.226-1.481-0.325-0.945-1.030-1.453-2.046-1.481-0.72-0.014-1.411 0.141-2.088 0.409-0.564 0.226-1.101 0.508-1.665 0.762-0.056 0.014-0.113 0.042-0.183 0.071v0zM15.831 15.817c-2.695 1.665-5.39 3.316-8.099 4.981 2.723 0.536 5.404 1.072 8.099 1.608 0-2.201 0-4.374 0-6.589zM24.353 20.741c-2.695-1.608-5.362-3.189-8.028-4.783 0 2.131 0 4.219 0 6.335 2.667-0.508 5.319-1.030 8.028-1.552zM26.102 18.215c-2.78-0.649-5.531-1.298-8.268-1.947 0 0.014-0.014 0.014-0.014 0.028 2.399 1.425 4.783 2.85 7.21 4.289 0.353-0.79 0.705-1.566 1.072-2.37zM5.418 18.497c0.663 0.663 1.312 1.312 1.961 1.961 2.243-1.383 4.501-2.765 6.758-4.148 0 0-0.014-0.014-0.014-0.014-2.892 0.72-5.799 1.453-8.705 2.201zM25.905 17.693c0-0.014 0-0.014 0.014-0.028-0.042-0.028-0.085-0.056-0.127-0.085-1.792-1.115-3.598-2.215-5.39-3.33-0.113-0.071-0.212-0.071-0.339-0.014-1.030 0.423-2.060 0.832-3.090 1.256-0.042 0.014-0.085 0.042-0.155 0.071 3.062 0.705 6.081 1.411 9.086 2.13zM6.335 17.735c0 0.014 0 0.014 0.014 0.028 2.907-0.734 5.813-1.481 8.748-2.215-0.056-0.028-0.085-0.042-0.099-0.056-0.931-0.395-1.862-0.776-2.794-1.185-0.127-0.056-0.212-0.042-0.339 0.028-1.369 0.847-2.737 1.693-4.106 2.526-0.48 0.296-0.959 0.593-1.425 0.875zM6.857 20.684c-0.635-0.635-1.242-1.242-1.862-1.862-1.242 1.933-2.483 3.894-3.725 5.841 0.014 0 0.014 0.014 0.028 0.014 1.848-1.326 3.711-2.667 5.559-3.993zM27.64 22.349c1.072 0.79 2.145 1.566 3.217 2.342 0.014 0 0.014-0.014 0.028-0.014-0.804-1.355-1.608-2.709-2.413-4.064-0.282 0.578-0.55 1.157-0.832 1.735zM18.836 14.222c0 0 0-0.014 0-0.014-1.877 0-3.753 0-5.672 0 0.056 0.028 0.071 0.042 0.099 0.042 0.832 0.353 1.679 0.705 2.511 1.058 0.141 0.056 0.254 0.056 0.395 0 0.508-0.212 1.002-0.409 1.51-0.621 0.367-0.155 0.762-0.31 1.157-0.466z"></path>
<path d="M21.884 8.522c0.042 0.071 0.099 0.155 0.141 0.226 0.042 0.056 0.099 0.113 0.141 0.169-0.917 0.804-1.848 1.608-2.78 2.427-0.466-0.607-0.917-1.199-1.397-1.82 1.072-0.578 2.131-1.157 3.203-1.735 0.183 0.212 0.367 0.423 0.564 0.635 0.028 0.028 0.071 0.056 0.127 0.099-0.014-0.014 0 0 0 0z"></path>
<path d="M21.799 14.279c-0.282-0.607-0.578-1.185-0.861-1.778-0.198-0.423-0.395-0.847-0.607-1.256-0.042-0.085-0.028-0.127 0.042-0.183 0.296-0.212 0.578-0.423 0.861-0.649 0.071-0.056 0.113-0.056 0.183 0.014 0.762 0.832 1.538 1.665 2.314 2.497 0.014 0.014 0.014 0.028 0.028 0.056-0.649 0.423-1.298 0.861-1.961 1.298z"></path>
<path d="M19.908 7.859c-0.353 0.268-0.705 0.522-1.058 0.79-0.804-0.875-1.623-1.75-2.427-2.624 0.663-0.437 1.312-0.875 1.975-1.312 0.508 1.058 1.002 2.088 1.51 3.146z"></path>
</svg>
