<?xml version="1.0" encoding="utf-8"?>
<!-- Generator: Adobe Illustrator 22.1.0, SVG Export Plug-In . SVG Version: 6.00 Build 0)  -->
<svg version="1.1" id="Layer_1" xmlns="http://www.w3.org/2000/svg" xmlns:xlink="http://www.w3.org/1999/xlink" x="0px" y="0px"
	 viewBox="0 0 226.8 226.8" style="enable-background:new 0 0 226.8 226.8;" xml:space="preserve">
<g>
	<path d="M155,60.3c4.1-3,8.5-5.5,13.1-7.4c6.9-2.9,14.1-4.4,21.6-3.7c9.6,0.8,16.8,5.4,21.8,13.5c3.2,5.2,4.9,11,5.5,17
		c1.2,11.5-0.7,22.6-3.6,33.6c-2.6,9.7-6,19-9.8,28.2c-0.2,0.4-0.1,1,0.1,1.4c6.6,11.3,13.3,22.5,20,33.8c0.2,0.4,0.4,0.7,0.6,1.1
		c-0.3,0.2-0.5,0.4-1,0.8c0.4,0.2,0.8,0.5,1.2,0.7c-0.1,0-0.2,0.1-0.4,0.1c-0.1,0.8-0.4,1.7-0.4,2.5c0,3.7,0,7.3,0,11
		c0,0.8-0.2,1.1-1,1.1c-2.3,0-2.3,0-2.3-2.3c0-3.4,0-6.8,0-10.2c0-0.4-0.2-1.1-0.6-1.3c-8.3-6.1-16.6-12.2-24.9-18.2
		c-0.2-0.1-0.4-0.3-0.7-0.4c-1.2,2.3-2.5,4.6-3.6,6.9c-0.1,0.3,0.1,0.8,0.2,1.1c3.1,6,6.2,12,9.3,17.9c0.2,0.3,0.3,0.7,0.5,1.1
		c-1,0.5-1.9,1-3,1.5c-3.1-5.9-6.1-11.8-9.2-17.8c-1.2,2.1-2.3,4-3.4,6c-1.4,2.4-2.8,4.8-4.3,7.1c-0.2,0.3-0.7,0.6-1,0.6
		c-8.6,0-17.2,0-25.7,0c-0.1,0-0.3,0-0.6-0.1c8-11.6,15.2-23.5,21.8-36.1c-19.8,3.8-39.4,7.6-59.3,11.5c6.7,7.7,13.3,15.2,20,22.9
		c-0.8,0.7-1.6,1.4-2.5,2.2c-6.5-7.4-12.9-14.8-19.4-22.2c-1,1.1-1.9,2.1-2.8,3.1c-5.3,5.9-10.6,11.8-15.8,17.7
		c-0.6,0.7-1,0.8-1.6,0.1c-0.5-0.5-1-1-1.6-1.5c6.4-7.2,12.8-14.3,19.4-21.6c-18.9-3.7-37.6-7.5-56.5-11.2
		c4.5,12,8.9,23.8,13.3,35.6c-1,0.4-2,0.8-3.1,1.2c-4.6-12.2-9.1-24.3-13.7-36.5c-6.7,13.1-13.2,26-19.9,39c-1-0.5-2-1-3-1.5
		c6.2-12.2,12.4-24.4,18.6-36.5c-0.1,0-0.1-0.1-0.2-0.1c-2.3,1.6-4.5,3.2-6.8,4.9C29.6,164.3,19,172,8.4,179.6
		c-0.6,0.5-0.9,0.9-0.9,1.7c0,3.9,0,7.7,0,11.6c0,0.8-0.2,1.1-1,1.1c-2.3,0-2.3,0-2.3-2.4c0-3-0.1-6.1,0-9.1c0-1.1-0.2-1.9-1.3-2.4
		c-0.3-0.1-0.6-0.4-0.9-0.6c1.8-2.8,3.5-5.6,5.3-8.3c8.9-14,17.7-27.9,26.6-41.9c0.5-0.9,1.2-1.5,2.1-2c16-9.8,32.1-19.7,48.1-29.5
		c0.5-0.3,1.2-0.5,1.8-0.5c19.3,0,38.5,0,57.8,0c0.8,0,1.6,0.3,2.3,0.7c13.3,8.2,26.6,16.4,39.9,24.6c0.4,0.2,0.8,0.5,1.2,0.7
		c0.1-0.2,0.2-0.3,0.3-0.4c3.9-10.3,7.1-20.8,9.3-31.7c1.2-6.2,2.1-12.4,2.3-18.7c0.1-3.6-0.4-7.1-1.6-10.5
		c-2.3-6.7-7.3-10.3-14.5-10.5c-5.1-0.1-10,1-14.8,2.9c-4,1.6-7.8,3.6-11.8,5.4C155.9,59.9,155.5,60.1,155,60.3L155,60.3z
		 M112.2,112.1c-19.1,11.8-38.2,23.5-57.4,35.3c19.3,3.8,38.3,7.6,57.4,11.4C112.2,143.2,112.2,127.8,112.2,112.1z M172.6,147
		c-19.1-11.4-38-22.6-56.9-33.9c0,15.1,0,29.9,0,44.9C134.6,154.4,153.4,150.7,172.6,147z M185,129.1c-19.7-4.6-39.2-9.2-58.6-13.8
		c0,0.1-0.1,0.1-0.1,0.2c17,10.1,33.9,20.2,51.1,30.4C179.9,140.3,182.4,134.8,185,129.1z M38.4,131.1c4.7,4.7,9.3,9.3,13.9,13.9
		c15.9-9.8,31.9-19.6,47.9-29.4c0,0-0.1-0.1-0.1-0.1C79.6,120.6,59,125.8,38.4,131.1z M183.6,125.4c0-0.1,0-0.1,0.1-0.2
		c-0.3-0.2-0.6-0.4-0.9-0.6c-12.7-7.9-25.5-15.7-38.2-23.6c-0.8-0.5-1.5-0.5-2.4-0.1c-7.3,3-14.6,5.9-21.9,8.9
		c-0.3,0.1-0.6,0.3-1.1,0.5C140.9,115.3,162.3,120.3,183.6,125.4z M44.9,125.7c0,0.1,0,0.1,0.1,0.2c20.6-5.2,41.2-10.5,62-15.7
		c-0.4-0.2-0.6-0.3-0.7-0.4c-6.6-2.8-13.2-5.5-19.8-8.4c-0.9-0.4-1.5-0.3-2.4,0.2c-9.7,6-19.4,12-29.1,17.9
		C51.6,121.6,48.2,123.7,44.9,125.7z M48.6,146.6c-4.5-4.5-8.8-8.8-13.2-13.2C26.6,147.1,17.8,161,9,174.8c0.1,0,0.1,0.1,0.2,0.1
		C22.3,165.5,35.5,156,48.6,146.6z M195.9,158.4c7.6,5.6,15.2,11.1,22.8,16.6c0.1,0,0.1-0.1,0.2-0.1c-5.7-9.6-11.4-19.2-17.1-28.8
		C199.8,150.2,197.9,154.3,195.9,158.4z M133.5,100.8c0,0,0-0.1,0-0.1c-13.3,0-26.6,0-40.2,0c0.4,0.2,0.5,0.3,0.7,0.3
		c5.9,2.5,11.9,5,17.8,7.5c1,0.4,1.8,0.4,2.8,0c3.6-1.5,7.1-2.9,10.7-4.4C127.9,103,130.7,101.9,133.5,100.8z"/>
	<path d="M155.1,60.4c0.3,0.5,0.7,1.1,1,1.6c0.3,0.4,0.7,0.8,1,1.2c-6.5,5.7-13.1,11.4-19.7,17.2c-3.3-4.3-6.5-8.5-9.9-12.9
		c7.6-4.1,15.1-8.2,22.7-12.3c1.3,1.5,2.6,3,4,4.5C154.4,59.9,154.7,60.1,155.1,60.4C155,60.3,155.1,60.4,155.1,60.4z"/>
	<path d="M154.5,101.2c-2-4.3-4.1-8.4-6.1-12.6c-1.4-3-2.8-6-4.3-8.9c-0.3-0.6-0.2-0.9,0.3-1.3c2.1-1.5,4.1-3,6.1-4.6
		c0.5-0.4,0.8-0.4,1.3,0.1c5.4,5.9,10.9,11.8,16.4,17.7c0.1,0.1,0.1,0.2,0.2,0.4C163.8,95,159.2,98.1,154.5,101.2z"/>
	<path d="M141.1,55.7c-2.5,1.9-5,3.7-7.5,5.6c-5.7-6.2-11.5-12.4-17.2-18.6c4.7-3.1,9.3-6.2,14-9.3C134,40.9,137.5,48.2,141.1,55.7z
		"/>
</g>
</svg>
