<?xml version="1.0" encoding="utf-8"?>
<!-- Generator: Adobe Illustrator 22.1.0, SVG Export Plug-In . SVG Version: 6.00 Build 0)  -->
<svg version="1.1" id="Layer_1" xmlns="http://www.w3.org/2000/svg" xmlns:xlink="http://www.w3.org/1999/xlink" x="0px" y="0px"
	 viewBox="0 0 250 250" style="enable-background:new 0 0 250 250;" xml:space="preserve">
<g>
	<path d="M122.4,188c-0.9-1-1.6-1.8-2.5-2.7c39.4-40.5,78.5-80.8,117.9-121.3c0.9,0.9,1.7,1.6,2.7,2.5
		C201.1,107,161.9,147.4,122.4,188z"/>
	<path d="M246.6,72.8c1,0.9,1.8,1.7,2.7,2.5c-39.6,40.7-78.7,81-118.1,121.5c-0.9-0.8-1.6-1.5-2.7-2.5
		C167.9,153.8,207.1,113.4,246.6,72.8z"/>
	<path d="M47.8,89.7c0,35.6,0,71.2,0,106.9c-2.2,0.9-3.3,0.5-3.3-2.1c0-34.2,0-68.4,0-102.6C44.5,89.4,45.5,88.9,47.8,89.7z"/>
	<path d="M56.9,89.6c2.5-0.9,3.2,0.1,3.2,2.4c0,34.1,0,68.2,0,102.3c0,2.2-0.6,3.3-3.2,2.4C56.9,161.1,56.9,125.5,56.9,89.6z"/>
	<path d="M52.2,80c-16,0-32,0-48,0c-0.8,0-1.7,0.2-2.4-0.1c-0.7-0.3-1.5-1.1-1.7-1.8C0,77.7,1,76.8,1.6,76.6
		c0.7-0.3,1.6-0.1,2.4-0.1c32.2,0,64.4,0,96.6,0c0.4,0,0.8,0,1.2,0c1.2,0.1,2.8-0.5,2.8,1.7c0.1,2.1-1.4,1.8-2.7,1.8
		c-1.9,0-3.8,0-5.7,0C81.5,80,66.8,80,52.2,80z"/>
	<path d="M0.3,64c34.7,0,69.2,0,103.8,0c0.9,3.1,0.7,3.5-2.6,3.5c-12.7,0-25.3,0-38,0c-20.1,0-40.2,0-60.3,0C1,67.5-0.7,67.2,0.3,64
		z"/>
	<path d="M169.5,121.2c-1,0.9-1.6,1.6-2.6,2.6c-15.7-16.2-31.3-32.2-47-48.3c0.9-1,1.5-1.7,2.5-2.8
		C138.1,88.9,153.7,105,169.5,121.2z"/>
	<path d="M199.6,139.7c0.9-1,1.5-1.7,2.5-2.7c15.7,16.2,31.3,32.2,47,48.3c-0.9,0.9-1.6,1.7-2.6,2.7
		C230.9,171.9,215.4,155.9,199.6,139.7z"/>
	<path d="M178.1,112.3c-0.9,1-1.5,1.7-2.5,2.7c-15.7-16.2-31.3-32.2-47.2-48.6c1.1-0.8,1.9-1.3,3-2.1C146.8,80,162.3,96,178.1,112.3
		z"/>
	<path d="M190.7,148.3c1-0.8,1.8-1.5,2.9-2.3c15.6,16,31,32,46.8,48.1c-0.8,0.9-1.5,1.7-2.5,2.7
		C222.1,180.7,206.6,164.7,190.7,148.3z"/>
</g>
</svg>
