<!-- Generated by IcoMoon.io -->
<svg version="1.1" xmlns="http://www.w3.org/2000/svg" width="32" height="32" viewBox="0 0 32 32">
<title>SPHTX</title>
<path d="M15.667 24.064c-0.115-0.128-0.205-0.23-0.32-0.346 5.043-5.184 10.048-10.342 15.091-15.526 0.115 0.115 0.218 0.205 0.346 0.32-5.043 5.184-10.061 10.355-15.117 15.552z"></path>
<path d="M31.565 9.318c0.128 0.115 0.23 0.218 0.346 0.32-5.069 5.21-10.074 10.368-15.117 15.552-0.115-0.102-0.205-0.192-0.346-0.32 5.043-5.184 10.061-10.355 15.117-15.552z"></path>
<path d="M6.118 11.482c0 4.557 0 9.114 0 13.683-0.282 0.115-0.422 0.064-0.422-0.269 0-4.378 0-8.755 0-13.133 0-0.32 0.128-0.384 0.422-0.282z"></path>
<path d="M7.283 11.469c0.32-0.115 0.41 0.013 0.41 0.307 0 4.365 0 8.73 0 13.094 0 0.282-0.077 0.422-0.41 0.307 0-4.557 0-9.114 0-13.709z"></path>
<path d="M6.682 10.24c-2.048 0-4.096 0-6.144 0-0.102 0-0.218 0.026-0.307-0.013s-0.192-0.141-0.218-0.23c-0.013-0.051 0.115-0.166 0.192-0.192 0.090-0.038 0.205-0.013 0.307-0.013 4.122 0 8.243 0 12.365 0 0.051 0 0.102 0 0.154 0 0.154 0.013 0.358-0.064 0.358 0.218 0.013 0.269-0.179 0.23-0.346 0.23-0.243 0-0.486 0-0.73 0-1.882 0-3.763 0-5.632 0z"></path>
<path d="M0.038 8.192c4.442 0 8.858 0 13.286 0 0.115 0.397 0.090 0.448-0.333 0.448-1.626 0-3.238 0-4.864 0-2.573 0-5.146 0-7.718 0-0.282 0-0.499-0.038-0.371-0.448z"></path>
<path d="M21.696 15.514c-0.128 0.115-0.205 0.205-0.333 0.333-2.010-2.074-4.006-4.122-6.016-6.182 0.115-0.128 0.192-0.218 0.32-0.358 2.010 2.074 4.006 4.134 6.029 6.208z"></path>
<path d="M25.549 17.882c0.115-0.128 0.192-0.218 0.32-0.346 2.010 2.074 4.006 4.122 6.016 6.182-0.115 0.115-0.205 0.218-0.333 0.346-1.997-2.061-3.981-4.109-6.003-6.182z"></path>
<path d="M22.797 14.374c-0.115 0.128-0.192 0.218-0.32 0.346-2.010-2.074-4.006-4.122-6.042-6.221 0.141-0.102 0.243-0.166 0.384-0.269 1.971 2.010 3.955 4.058 5.978 6.144z"></path>
<path d="M24.41 18.982c0.128-0.102 0.23-0.192 0.371-0.294 1.997 2.048 3.968 4.096 5.99 6.157-0.102 0.115-0.192 0.218-0.32 0.346-2.022-2.061-4.006-4.109-6.042-6.208z"></path>
</svg>
