<?xml version="1.0" encoding="utf-8"?>
<!-- Generator: Adobe Illustrator 22.0.1, SVG Export Plug-In . SVG Version: 6.00 Build 0)  -->
<svg version="1.1" id="Layer_1" xmlns="http://www.w3.org/2000/svg" xmlns:xlink="http://www.w3.org/1999/xlink" x="0px" y="0px"
	 viewBox="0 0 250 250" style="enable-background:new 0 0 250 250;" xml:space="preserve">
<style type="text/css">
	.st0{stroke:#FFFFFF;stroke-miterlimit:10;}
</style>
<g>
	<path class="st0" d="M120.5,96c2.3,0,5.4,0,8,0c3.1,4.7,6.1,9.2,8.9,13.7c0.6,0.9,1.2,2.3,0.9,3.1c-1.9,5.8-3.2,12.1-6.4,17.1
		c-4,6.3-11.4,5.8-15.1-0.8c-2.8-4.9-4.3-10.7-6.2-16.1c-0.3-0.9,0.2-2.3,0.8-3.1C114.3,105.3,117.3,100.9,120.5,96z"/>
	<path class="st0" d="M94.8,112.8c1.5,0,4,0,5.5,0c3.7,7.5,7.1,14.6,10.6,21.6c1.8,3.7-2,14.4-6.4,17.8c-4.3,3.3-9.7,3.2-13.7-1.3
		c-2.9-3.3-4.8-7.5-6.9-11.4c-0.4-0.8-0.1-2.2,0.4-3.1C87.6,128.8,91,121.3,94.8,112.8z"/>
	<path class="st0" d="M149.2,113c2.1,0,4.7,0,6.2,0c3.8,8.4,7.5,16.2,10.9,24.1c1.4,3.2-4.3,12.8-8.9,15.6
		c-4.6,2.8-8.9,2.3-12.8-1.4c-5.8-5.7-6.3-13.7-2.5-20.7C145.1,125.1,146.8,119.1,149.2,113z"/>
	<path class="st0" d="M68.1,95.8c2.3,0,5.1,0,7,0c3,5.1,5.6,9.5,8.2,14c0.4,0.8,0.9,1.9,0.7,2.6c-1.6,5.8-2.5,11.9-5.1,17.2
		c-4.1,8.3-12.1,8.2-16.4-0.1c-2.3-4.6-3.5-9.8-4.8-14.8c-0.4-1.5,0-3.5,0.9-4.8C61.5,105.2,64.8,100.7,68.1,95.8z"/>
	<path class="st0" d="M175.1,95.8c2.2,0,4.9,0,7,0c3.4,4.9,6.8,9.6,10,14.4c3.7,5.4-5,25.2-11.4,25.2c-2.9,0-7.3-2.2-8.5-4.6
		c-2.8-5.6-4.1-12-5.8-18.1c-0.3-0.9,0.3-2.2,0.9-3.2C169.7,105.1,172.2,100.8,175.1,95.8z"/>
	<path class="st0" d="M120.6,138.7c2.5,0,5.5,0,7.5,0c3.5,6.1,6.7,11.5,9.8,17c0.5,0.9,0.7,2.4,0.3,3.3c-2.4,4.6-4.3,9.6-7.7,13.3
		c-3.7,4.2-9.5,3.9-12.7-0.5c-3-4.1-4.7-9.2-6.8-13.9c-0.3-0.7-0.1-1.9,0.3-2.7C114.4,149.9,117.4,144.6,120.6,138.7z"/>
	<path class="st0" d="M176.1,140.1c2.8-0.1,5.5-0.3,7.7-0.4c2.2,5.3,4.5,10.6,6.7,15.9c0.2,0.5,0.3,1.1,0.3,1.7
		c-0.4,4.6-9.9,15.9-14.4,16.9c-4.3,1-7.9-0.1-9.3-4.7c-1.8-6.1-3.9-12,2.3-17.5C172.5,149.2,173.8,144.4,176.1,140.1z"/>
	<path class="st0" d="M66.5,139.8c2.4,0.1,5,0.3,6.9,0.4c3.7,5.3,7.1,10.4,10.6,15.4c2.3,3.3,0.5,14.4-3,17.4
		c-3.4,3-8.5,2.3-12.8-2.5c-3-3.3-5.3-7.1-7.6-10.9c-0.7-1.1-0.9-3-0.4-4.3C62,150.2,64.2,145.2,66.5,139.8z"/>
	<path class="st0" d="M97.3,75.1c2.3,0,4.7,0,6,0c2.8,5.9,5.4,11.3,7.9,16.7c1.5,3.3-2.5,12.3-6.8,15.2c-4.3,2.9-10.4,2.4-14-1.2
		c-5.1-5.1-5.1-10.9-1-16.7C92.4,84.8,94.6,80,97.3,75.1z"/>
	<path class="st0" d="M146.2,75.2c5.4-1.6,8.3,0.5,10,6c1,3.2,3.2,6.2,5.4,8.9c3.8,4.8,3,11.2-2.2,16c-4.5,4.1-11.4,3.6-15.6-1.1
		c-5-5.5-5.3-10.7-1.9-17.4C143.8,83.9,144.7,79.6,146.2,75.2z"/>
	<path class="st0" d="M124.6,91.8c-5,0.2-8.2-2.5-9.7-6.9c-1.5-4.3-4.8-8.6-0.1-13.3c2.2-2.2,2.8-5.9,4.6-8.7c1.1-1.8,3-4,4.8-4.2
		c1.7-0.2,4.2,1.6,5.4,3.3c2.7,3.7,5.1,7.7,7.2,11.8C139.8,79.8,131.7,91.7,124.6,91.8z"/>
	<path class="st0" d="M47.2,112.8c3.5,8.3,6.3,15.6,9.6,22.8c2,4.3-2.3,16.9-6.8,18.4c-0.9,0.3-1.9,0.3-2.8,0.2
		c-6.9-1.3-12.6-14.1-9.8-20.5c2.2-5.1,3.9-10.6,4.8-16.2C42.9,112.8,45,112.1,47.2,112.8z"/>
	<path class="st0" d="M219.2,96.1c1.9-0.1,3.8-0.2,5.3-0.3c3.2,5,6.4,9.8,9.3,14.7c2.3,3.9-2.1,21.7-6.3,23.8
		c-1.6,0.8-5.7,0.2-6.3-1c-4.4-8.6-10-17.2-4.6-27.6C218.1,102.9,218.3,99.4,219.2,96.1z"/>
	<path class="st0" d="M206,113c2.9,8.1,5.5,15.6,8.3,22.9c2.1,5.6-6.8,18.9-12.6,18.3c-1.5-0.2-3.2-1.4-4.3-2.6
		c-4.5-5.2-4.6-13.2-1.6-19.3c2.2-4.6,3.7-9.8,4.6-14.9C201.1,113.4,202.6,112.1,206,113z"/>
	<path class="st0" d="M25,95.8c2,0.1,4,0.2,5.3,0.3c2,4.9,3.9,9.4,5.7,14c1.6,4.2-4.3,22.7-8.3,24.5c-1.6,0.7-5-0.2-6.3-1.6
		c-5.6-6.1-6.1-19.3-1.8-26.3C21.7,103.4,23.1,99.8,25,95.8z"/>
	<path class="st0" d="M186.5,78.2c-0.6,5.8-0.4,11-6.1,13.2c-4.6,1.7-9.3-0.7-12.9-6.6c-3.1-5.1-6.5-10.2-2.3-16.4
		c0.8-1.2,0.4-3.1,1-4.5c0.7-1.8,1.6-4.6,2.9-4.9c1.5-0.4,3.9,1.1,5.3,2.5c3.7,3.7,7.2,7.6,10.4,11.7
		C186,74.7,186.2,77.1,186.5,78.2z"/>
	<path class="st0" d="M63.7,77.7c0.8-1.4,2.1-4,3.9-6.2c2.8-3.7,5.8-7.2,9-10.6c1.1-1.1,3.4-2.3,4.3-1.9c1.4,0.6,2.3,2.7,3,4.3
		c1.2,3,2.1,6.1,2.9,9.2c0.3,1.2,0.4,2.7-0.1,3.8c-1.1,2.9-2.4,5.7-4,8.4c-3.5,5.8-8.3,8.4-12.8,6.8C64.2,89.4,64.5,84.1,63.7,77.7z
		"/>
	<path class="st0" d="M96.3,158.6c1.7,0,4,0,5.4,0c3.7,6.2,7.4,12,10.8,18c2.3,4.2-2.7,12-7.8,12.7c-6.1,0.9-13.2-3.9-14.6-9.9
		c-0.2-1,0-2.2,0.3-3.2C92.2,170.6,94.1,165,96.3,158.6z"/>
	<path class="st0" d="M153.9,158.7c2.4,6.6,4.5,12.4,6.5,18.1c1.1,3.1-3.2,9.4-7.6,11.4c-5.3,2.3-10.8,1.3-13.1-2.7
		c-2.3-4-3.5-7.5,0.5-12c3.5-3.9,5.1-9.5,7.7-14.8C149.5,158.7,152,158.7,153.9,158.7z"/>
	<path class="st0" d="M22,140.2c2.4,0,4.3,0,5.4,0c3.8,5.6,8.5,10.4,10.3,16.2c1.7,5.1,0.4,11.3,0,17c0,0.5-4.5,1.8-5.4,1
		c-3.7-3.3-6.9-7.2-10.1-11c-3.4-4.1-3.4-8.5-1.6-13.5C21.8,147,21.6,143.8,22,140.2z"/>
	<path class="st0" d="M222.2,140c1.8,0,3.8,0,5.6,0c1,4.9,2.1,9.7,3,14.6c0.2,1.3,0.4,3-0.2,3.9c-3.5,5.1-6.8,10.4-11.1,14.8
		c-4,4.1-7.4,2.6-8.1-3.3c-0.7-6.3-1.3-12.5,4.1-17.9C218.6,149.2,219.9,144.5,222.2,140z"/>
	<path class="st0" d="M54.7,74c1.8,7.1,3.1,12.4,4.5,17.7c1.2,4.7-6.9,16.9-11.7,16.8c-2.1,0-4.8-1.6-6-3.3
		c-3.8-5.5-3-10.6,1.1-16.2c2.6-3.4,4.4-7.3,6.9-10.7C50.8,76.6,52.9,75.4,54.7,74z"/>
	<path class="st0" d="M194.7,73.7c2.3,1.6,4.5,2.5,5.8,4.1c3.5,4.6,6.6,9.5,10,14.2c2.4,3.3,0.4,13.4-3.6,15.7
		c-4.9,2.9-8.2-0.2-10.6-3.9c-3.4-5.1-6.9-10-3.1-16.9C194.8,83.9,194.1,79.4,194.7,73.7z"/>
	<path class="st0" d="M235.2,140.6c0.7-2.1,1.8-4.7,2.5-7.4c1.4-5.6,2.5-11.3,3.9-16.9c0.3-1.3,1.3-2.4,2-3.6c0.8,1.1,2,2.1,2.3,3.4
		c1.6,6.6,4.4,13.3,4.1,19.9c-0.3,5.9-3.6,12-6.8,17.3c-1.8,2.9-5.2,0.9-6.2-2.1C236,148.1,235.9,144.7,235.2,140.6z"/>
	<path class="st0" d="M44.1,58.1c0.9,13.2-1.5,23.6-10.2,31.5c-1.7,1.5-5.1,2.6-7.1,2c-1.4-0.4-2.4-4.1-2.5-6.4
		c0-5.7,1.5-10.9,6.5-14.8C35.3,67.1,39.1,62.8,44.1,58.1z"/>
	<path class="st0" d="M7.2,112.3c0.5,1.4,1,2.7,1.4,4.2c1.7,6.1,3.9,12.2,4.8,18.4c0.7,5.4,0.7,11.2-0.4,16.5
		c-0.8,3.9-4.8,4.3-7,0.9c-3.8-5.9-7.7-11.9-4.9-19.9c2.2-6.3,2.8-13.2,4.2-19.8C5.8,112.5,6.5,112.4,7.2,112.3z"/>
	<path class="st0" d="M207.2,59c4.1,3.9,7.9,8.2,12.3,11.6c5.1,3.9,6.4,9.1,6.4,14.8c0,2.2-1.2,5.9-2.6,6.3
		c-2.1,0.5-5.7-0.5-7.1-2.1c-5.1-5.9-11-11.6-9.7-20.7c0.4-2.8-0.7-5.8-1.2-8.7C206.1,59.7,206.7,59.3,207.2,59z"/>
	<path class="st0" d="M45.9,159.2c4.4-1.7,5.9,0,7.5,3.4c2.1,4.5,5.1,8.6,8.2,12.5c2.6,3.3,4.1,9.8,1.7,12.1
		c-3.7,3.5-7.7,1.6-11-0.9c-4.8-3.7-8.9-7.6-6.5-15C46.9,167.7,45.9,163.3,45.9,159.2z"/>
	<path class="st0" d="M203.4,157.9c0.8,7.2,2.6,12.8,1.6,17.9c-0.7,4-4.3,8-7.6,10.8c-2.1,1.8-6.2,2.1-9.2,1.7
		c-2.9-0.4-3.1-8.8-0.9-11.9c3.6-5,6.7-10.3,10.4-15.2C199,159.5,201.4,159,203.4,157.9z"/>
	<path class="st0" d="M19.2,75.2c-3.9,9.1,1.3,19.7-5.6,28.2c-1.8,2.3-4.8,3.6-7.3,5.3c-1.1-2.7-3.1-5.4-2.9-8
		c0.2-3.6,1.8-7.2,3.5-10.5c2.1-4.1,4.9-7.9,7.5-11.7c1-1.4,2.2-2.7,3.3-4C18.2,74.7,18.7,75,19.2,75.2z"/>
	<path class="st0" d="M231.5,75.2c0.5-0.1,1.1-0.3,1.2-0.2c5.6,8.9,15.4,15.7,14.3,27.9c-0.2,2.1-1.9,4.8-3.7,5.7
		c-1.1,0.5-4.4-1.4-5.4-3.1c-3.3-5.6-6.7-11.1-5.1-18.5C233.7,83.3,232.1,79.1,231.5,75.2z"/>
	<path class="st0" d="M221,188c1.7-4.1,2.8-7.8,4.8-11c3.6-5.7,7.6-11.1,11.6-16.6c0.6-0.8,1.6-1.3,2.5-1.9c0.5,0.7,1.5,1.6,1.3,2.1
		c-2.5,7.6-0.5,16.4-6.6,23C230.7,187.8,227.8,189.1,221,188z"/>
	<path class="st0" d="M28.6,188.4c-8.1,1.3-12.6-3-15.2-8.4c-3.2-6.7-3.4-14.2-4.3-21.4c1-0.3,2-0.6,3-1
		C14.6,169.4,27.3,175.2,28.6,188.4z"/>
</g>
</svg>
