<?xml version="1.0" encoding="utf-8"?>
<!-- Generator: Adobe Illustrator 22.1.0, SVG Export Plug-In . SVG Version: 6.00 Build 0)  -->
<svg version="1.1" id="Layer_1" xmlns="http://www.w3.org/2000/svg" xmlns:xlink="http://www.w3.org/1999/xlink" x="0px" y="0px"
	 viewBox="0 0 226.8 226.8" style="enable-background:new 0 0 226.8 226.8;" xml:space="preserve">
<g>
	<path d="M213.6,147.7c0,4.1-0.1,8.2,0,12.3c0.2,7.5-3.2,12.8-9.7,16.5c-26.5,15.2-52.9,30.5-79.3,45.9c-7.1,4.1-13.6,4.3-20.7,0.1
		c-26.3-15.4-52.8-30.7-79.3-45.8c-6.8-3.9-10.1-9.4-9.9-17.2c0.2-8.5,0.1-17,0-25.5c0-7.5,3.1-12.6,11-13.2
		c6.5-0.5,12.4,5.1,11,12.9c-3.6,19.9,6.5,29.5,22.9,37.4C76,178.8,91.4,188.7,107,198c4.8,2.8,8.7,3.4,13.8,0.4
		c21.2-12.6,42.7-24.7,64-37.2c9.6-5.6,9.7-21,0.1-26.6c-20.5-12-41.1-23.9-61.7-35.8c-2.5-1.5-5.1-2.9-7.5-4.5
		c-6-4-8.1-9.5-4.3-15.9c3.6-5.9,9.3-6.8,15.4-3.7c5,2.5,9.7,5.5,14.5,8.3c19.3,11.2,38.3,22.9,58,33.3c10.8,5.7,16.1,13,14.4,25.1
		C213.4,143.6,213.6,145.7,213.6,147.7C213.6,147.7,213.6,147.7,213.6,147.7z"/>
	<path d="M213.4,78.9c0,5.3,0.3,10.6-0.1,15.8c-0.5,6.5-4.4,10.2-11,10.2c-6.6-0.1-10.2-3.9-10.9-10.4c-0.3-2.6-0.6-5.4-0.1-7.9
		c2.7-13.8-3.8-21.1-15.8-27.2c-18.5-9.4-36.3-20.4-54.2-31.1c-5.2-3.1-9.4-3-14.6,0C86,40.8,64.8,52.8,43.8,65.1
		c-10,5.8-9.7,20.5,0.5,26c21.1,11.5,42.3,22.8,63.5,34.2c2.3,1.3,4.7,2.4,6.9,3.9c5.2,3.7,7,8.9,4,14.6c-3.2,6.1-8.7,7.9-14.9,4.8
		c-9.2-4.5-18.2-9.5-27.2-14.4c-17.3-9.3-34.5-18.7-51.9-27.9c-6.7-3.5-9.8-8.6-9.7-16.2c0.4-40.5-4.3-31.8,28.6-51.3
		c19.7-11.6,39.7-22.7,59.3-34.5c8-4.8,15-4.7,23,0c22.4,13.3,45.1,26.2,67.7,39.3C213.6,55.5,213.6,55.4,213.4,78.9z"/>
</g>
</svg>
