<!-- Generated by IcoMoon.io -->
<svg version="1.1" xmlns="http://www.w3.org/2000/svg" width="32" height="32" viewBox="0 0 32 32">
<title>SS</title>
<path d="M30.138 20.84c0 0.578-0.014 1.157 0 1.735 0.028 1.058-0.451 1.806-1.369 2.328-3.739 2.145-7.464 4.303-11.189 6.476-1.002 0.578-1.919 0.607-2.921 0.014-3.711-2.173-7.45-4.332-11.189-6.462-0.959-0.55-1.425-1.326-1.397-2.427 0.028-1.199 0.014-2.399 0-3.598 0-1.058 0.437-1.778 1.552-1.862 0.917-0.071 1.75 0.72 1.552 1.82-0.508 2.808 0.917 4.162 3.231 5.277 2.314 1.086 4.487 2.483 6.688 3.795 0.677 0.395 1.227 0.48 1.947 0.056 2.991-1.778 6.025-3.485 9.030-5.249 1.355-0.79 1.369-2.963 0.014-3.753-2.892-1.693-5.799-3.372-8.705-5.051-0.353-0.212-0.72-0.409-1.058-0.635-0.847-0.564-1.143-1.34-0.607-2.243 0.508-0.832 1.312-0.959 2.173-0.522 0.705 0.353 1.369 0.776 2.046 1.171 2.723 1.58 5.404 3.231 8.183 4.698 1.524 0.804 2.272 1.834 2.032 3.541-0.042 0.31-0.014 0.607-0.014 0.889 0 0 0 0 0 0z"></path>
<path d="M30.109 11.132c0 0.748 0.042 1.496-0.014 2.229-0.071 0.917-0.621 1.439-1.552 1.439-0.931-0.014-1.439-0.55-1.538-1.467-0.042-0.367-0.085-0.762-0.014-1.115 0.381-1.947-0.536-2.977-2.229-3.838-2.61-1.326-5.122-2.878-7.647-4.388-0.734-0.437-1.326-0.423-2.060 0-2.921 1.764-5.912 3.457-8.875 5.192-1.411 0.818-1.369 2.892 0.071 3.668 2.977 1.623 5.968 3.217 8.959 4.825 0.325 0.183 0.663 0.339 0.974 0.55 0.734 0.522 0.988 1.256 0.564 2.060-0.451 0.861-1.227 1.115-2.102 0.677-1.298-0.635-2.568-1.34-3.838-2.032-2.441-1.312-4.868-2.638-7.323-3.937-0.945-0.494-1.383-1.213-1.369-2.286 0.056-5.714-0.607-4.487 4.035-7.238 2.78-1.637 5.601-3.203 8.367-4.868 1.129-0.677 2.116-0.663 3.245 0 3.16 1.877 6.363 3.697 9.552 5.545 2.822 1.679 2.822 1.665 2.794 4.981z"></path>
</svg>
