<!-- Generated by IcoMoon.io -->
<svg version="1.1" xmlns="http://www.w3.org/2000/svg" width="32" height="32" viewBox="0 0 32 32">
<title>SSC</title>
<path d="M22.194 6.265c0.367 0.155 0.762 0.282 1.115 0.466 1.171 0.621 1.919 1.552 2.159 2.878 0.212 1.171 0.071 2.272-0.649 3.231-0.818 1.101-1.877 1.721-3.302 1.764-1.242 0.028-2.272-0.367-3.132-1.199-0.691-0.677-1.058-1.524-1.171-2.526-0.141-1.369 0.31-2.483 1.213-3.429 0.536-0.564 1.227-0.917 2.004-1.072 0.056-0.014 0.099-0.071 0.141-0.099 0.55-0.014 1.086-0.014 1.623-0.014z"></path>
<path d="M30.265 25.298c-0.494 0.028-0.875-0.169-1.242-0.494-1.75-1.566-3.612-2.949-5.926-3.612-0.381-0.113-0.762-0.155-1.157-0.226-1.933-0.325-3.414 0.593-4.811 1.721-1.369 1.101-2.737 2.187-4.459 2.709-0.776 0.226-1.552 0.395-2.37 0.339-0.226-0.014-0.451 0-0.677 0-1.467 0.028-2.892-0.183-4.289-0.593-1.75-0.536-3.358-1.34-4.769-2.497-0.452-0.367-0.677-0.832-0.508-1.439 0.071-0.24-0.028-0.536 0.071-0.748 0.395-0.847 1.679-1.298 2.511-0.607 1.086 0.889 2.286 1.566 3.64 1.919 0.861 0.226 1.75 0.353 2.638 0.466 0.677 0.085 1.397 0.169 2.046 0.028 0.691-0.141 1.383-0.437 1.989-0.818 0.931-0.593 1.792-1.312 2.667-1.989 1.298-1.002 2.723-1.693 4.346-1.947 1.707-0.254 3.358 0 4.966 0.607 2.159 0.804 4.064 2.032 5.785 3.527 0.451 0.395 0.974 0.748 1.185 1.355 0.437 1.312-0.691 2.413-1.637 2.3z"></path>
</svg>
