<?xml version="1.0" encoding="utf-8"?>
<!-- Generator: Adobe Illustrator 22.1.0, SVG Export Plug-In . SVG Version: 6.00 Build 0)  -->
<svg version="1.1" id="Layer_1" xmlns="http://www.w3.org/2000/svg" xmlns:xlink="http://www.w3.org/1999/xlink" x="0px" y="0px"
	 viewBox="0 0 226.8 226.8" style="enable-background:new 0 0 226.8 226.8;" xml:space="preserve">
<g id="nmOYTi.tif">
	<g>
		<path d="M157.3,44.4c2.6,1.1,5.4,2,7.9,3.3c8.3,4.4,13.6,11,15.3,20.4c1.5,8.3,0.5,16.1-4.6,22.9c-5.8,7.8-13.3,12.2-23.4,12.5
			c-8.8,0.2-16.1-2.6-22.2-8.5c-4.9-4.8-7.5-10.8-8.3-17.9c-1-9.7,2.2-17.6,8.6-24.3c3.8-4,8.7-6.5,14.2-7.6c0.4-0.1,0.7-0.5,1-0.7
			C149.7,44.4,153.5,44.4,157.3,44.4z"/>
		<path d="M214.5,179.3c-3.5,0.2-6.2-1.2-8.8-3.5c-12.4-11.1-25.6-20.9-42-25.6c-2.7-0.8-5.4-1.1-8.2-1.6
			c-13.7-2.3-24.2,4.2-34.1,12.2c-9.7,7.8-19.4,15.5-31.6,19.2c-5.5,1.6-11,2.8-16.8,2.4c-1.6-0.1-3.2,0-4.8,0
			c-10.4,0.2-20.5-1.3-30.4-4.2C25.4,174.4,14,168.7,4,160.5c-3.2-2.6-4.8-5.9-3.6-10.2c0.5-1.7-0.2-3.8,0.5-5.3
			c2.8-6,11.9-9.2,17.8-4.3c7.7,6.3,16.2,11.1,25.8,13.6c6.1,1.6,12.4,2.5,18.7,3.3c4.8,0.6,9.9,1.2,14.5,0.2
			c4.9-1,9.8-3.1,14.1-5.8c6.6-4.2,12.7-9.3,18.9-14.1c9.2-7.1,19.3-12,30.8-13.8c12.1-1.8,23.8,0,35.2,4.3
			c15.3,5.7,28.8,14.4,41,25c3.2,2.8,6.9,5.3,8.4,9.6C229.2,172.3,221.2,180.1,214.5,179.3z"/>
	</g>
</g>
</svg>
