<!-- Generated by IcoMoon.io -->
<svg version="1.1" xmlns="http://www.w3.org/2000/svg" width="32" height="32" viewBox="0 0 32 32">
<title>START</title>
<path d="M16 0c-8.837 0-16 7.164-16 16 0 8.836 7.163 16 16 16s16-7.164 16-15.999c-0-8.837-7.163-16-16-16zM22.465 9.507c-0.020 0.172-0.042 0.314-0.069 0.454l0.006-0.038c-0.036 0.193-0.073 0.348-0.116 0.5l0.010-0.040c-0.045 0.166-0.098 0.308-0.162 0.444l0.007-0.016c-0.061 0.13-0.129 0.237-0.205 0.321s-0.155 0.125-0.239 0.125c-0.132 0-0.297-0.052-0.494-0.156s-0.44-0.219-0.727-0.34c-0.287-0.121-0.623-0.235-1.009-0.341-0.386-0.104-0.823-0.157-1.313-0.157-0.508 0-0.938 0.063-1.291 0.189s-0.642 0.292-0.868 0.498c-0.226 0.205-0.393 0.437-0.501 0.692-0.108 0.257-0.162 0.515-0.162 0.774 0 0.302 0.085 0.569 0.253 0.8 0.17 0.23 0.396 0.445 0.678 0.642s0.604 0.389 0.966 0.573c0.655 0.327 1.016 0.519 1.374 0.716l-0.272-0.137c0.446 0.243 0.805 0.462 1.154 0.695l-0.054-0.034c0.367 0.243 0.684 0.518 0.963 0.828l0.004 0.004c0.282 0.314 0.508 0.675 0.677 1.083s0.254 0.874 0.254 1.404c0 0.79-0.179 1.522-0.536 2.197-0.358 0.677-0.863 1.264-1.517 1.764s-1.445 0.893-2.371 1.177c-0.2 0.065-0.47 0.135-0.744 0.193l-0.059 0.010-0.145 2.027c-0.024 0.411-0.363 0.735-0.778 0.735-0.016 0-0.031-0-0.047-0.001l0.002 0c-0.411-0.024-0.735-0.363-0.735-0.778 0-0.015 0-0.031 0.001-0.046l-0 0.002 0.124-1.737c-0.209 0.014-0.454 0.022-0.702 0.023h-0.002c-0.187 0-0.36-0.012-0.538-0.020l-0.13 1.822c-0.024 0.411-0.363 0.735-0.777 0.735-0.016 0-0.031-0-0.046-0.001l0.002 0c-0.411-0.024-0.735-0.363-0.735-0.778 0-0.015 0-0.031 0.001-0.046l-0 0.002 0.137-1.925c-0.356-0.072-0.69-0.151-0.983-0.243-0.4-0.126-0.736-0.258-1.009-0.396s-0.475-0.271-0.607-0.396c-0.132-0.126-0.198-0.315-0.198-0.567 0-0.067 0.010-0.168 0.028-0.302s0.044-0.279 0.077-0.434c0.033-0.155 0.073-0.315 0.12-0.479 0.049-0.173 0.107-0.321 0.177-0.462l-0.007 0.016c0.065-0.134 0.138-0.244 0.219-0.327s0.167-0.126 0.261-0.126c0.16 0 0.35 0.065 0.572 0.196 0.221 0.13 0.496 0.273 0.825 0.428s0.72 0.3 1.172 0.434c0.451 0.134 0.993 0.202 1.623 0.202 0.555 0 1.042-0.063 1.461-0.189s0.769-0.298 1.051-0.516c0.282-0.218 0.497-0.473 0.642-0.762s0.219-0.607 0.219-0.951c0-0.31-0.085-0.583-0.255-0.818s-0.393-0.452-0.671-0.649c-0.277-0.197-0.592-0.385-0.945-0.559-0.535-0.265-0.888-0.453-1.238-0.649l0.158 0.081c-0.437-0.24-0.79-0.457-1.132-0.688l0.052 0.033c-0.359-0.241-0.67-0.513-0.941-0.82l-0.004-0.005c-0.277-0.314-0.501-0.677-0.67-1.090-0.169-0.411-0.254-0.89-0.254-1.435 0-0.756 0.169-1.453 0.508-2.091s0.809-1.185 1.411-1.643c0.474-0.36 1.024-0.656 1.645-0.892l0.172-2.412c0.024-0.43 0.396-0.759 0.822-0.734 0.411 0.024 0.735 0.363 0.735 0.778 0 0.015-0 0.031-0.001 0.046l0-0.002-0.136 1.9c0.364-0.063 0.795-0.108 1.234-0.124l0.018-0.001 0.133-1.863c0.025-0.43 0.396-0.759 0.822-0.734 0.411 0.024 0.735 0.363 0.735 0.778 0 0.016-0 0.031-0.001 0.046l0-0.002-0.131 1.832c0.073 0.008 0.148 0.013 0.219 0.023 0.424 0.064 0.81 0.143 1.157 0.239s0.644 0.203 0.889 0.321c0.245 0.118 0.414 0.217 0.508 0.296s0.162 0.163 0.205 0.251c0.042 0.089 0.064 0.2 0.064 0.334-0 0.068-0.008 0.164-0.022 0.29z"></path>
</svg>
