<!-- Generated by IcoMoon.io -->
<svg version="1.1" xmlns="http://www.w3.org/2000/svg" width="32" height="32" viewBox="0 0 32 32">
<title>STASH_CRYPTO</title>
<path d="M26.032 25.298c-2.963-1.637-5.869-3.259-8.762-4.868-0.677-0.381-1.016-0.959-1.016-1.707-0.014-3.993-0.014-7.986 0.014-11.979 0-0.226 0.254-0.437 0.395-0.663 0.127 0.226 0.367 0.437 0.367 0.663 0.028 2.596 0.056 5.206 0 7.817-0.028 1.481 0.494 2.469 1.862 3.189 3.217 1.693 6.363 3.513 9.552 5.249 0.367 0.198 0.847 0.198 1.256 0.296 0.24 0.056 0.494 0.113 0.734 0.169-0.155 0.212-0.254 0.522-0.466 0.635-1.213 0.72-2.469 1.383-3.697 2.074-3.203 1.778-6.406 3.527-9.594 5.319-1.242 0.691-2.413 0.691-3.626 0-3.231-1.806-6.476-3.598-9.707-5.39-0.55-0.31-1.072-0.677-1.764-0.353-0.099 0.042-0.367-0.085-0.423-0.183-0.056-0.127 0-0.367 0.099-0.48 0.169-0.169 0.409-0.282 0.621-0.395 2.808-1.552 5.616-3.118 8.423-4.67 0.099-0.056 0.198-0.155 0.296-0.155 0.24 0.014 0.48 0.085 0.72 0.127-0.113 0.198-0.169 0.48-0.325 0.578-0.847 0.508-1.721 0.974-2.582 1.453-0.959 0.536-1.919 1.058-2.949 1.637 1.129 0.621 2.187 1.199 3.231 1.778 2.441 1.34 4.868 2.681 7.295 4.049 0.804 0.451 1.608 0.55 2.427 0.099 2.455-1.355 4.91-2.723 7.351-4.078 0.099-0.085 0.169-0.155 0.268-0.212z"></path>
<path d="M26.060 8.325c-3.513-1.947-6.928-3.81-10.328-5.728-1.030-0.578-1.947-0.578-2.977 0-2.201 1.27-4.43 2.469-6.646 3.697-0.212 0.113-0.409 0.24-0.649 0.381 2.511 1.383 4.938 2.723 7.365 4.064 0.494 0.268 0.988 0.536 1.467 0.818 0.635 0.367 0.959 0.917 0.959 1.665 0 3.993 0.014 7.986-0.014 11.979 0 0.24-0.254 0.48-0.395 0.72-0.127-0.24-0.381-0.494-0.381-0.734-0.028-2.737-0.028-5.474-0.014-8.212 0.014-1.185-0.466-1.989-1.51-2.554-3.217-1.75-6.42-3.556-9.637-5.333-0.536-0.296-1.058-0.593-1.707-0.325-0.113 0.056-0.423-0.085-0.48-0.212-0.056-0.113 0.056-0.409 0.169-0.494 0.409-0.282 0.847-0.508 1.284-0.748 4.064-2.257 8.141-4.487 12.176-6.758 1.298-0.734 2.511-0.748 3.824-0.014 3.217 1.82 6.476 3.598 9.707 5.39 0.522 0.296 1.016 0.564 1.651 0.31 0.127-0.042 0.423 0.085 0.48 0.212s-0.071 0.367-0.169 0.508c-0.099 0.127-0.296 0.198-0.451 0.282-2.864 1.594-5.728 3.175-8.593 4.769-0.113 0.071-0.24 0.183-0.353 0.169-0.198-0.014-0.395-0.099-0.578-0.169 0.056-0.169 0.085-0.367 0.198-0.522 0.085-0.113 0.254-0.169 0.395-0.24 1.524-0.847 3.062-1.693 4.586-2.554 0.198-0.113 0.395-0.24 0.621-0.367z"></path>
<path d="M1.383 16.889c0-1.481-0.014-2.963 0.014-4.444 0-0.24 0.24-0.48 0.381-0.72 0.141 0.24 0.381 0.48 0.381 0.734 0.028 2.963 0.028 5.926 0 8.875 0 0.24-0.268 0.48-0.395 0.705-0.127-0.24-0.367-0.48-0.367-0.72-0.042-1.481-0.014-2.949-0.014-4.43 0 0 0 0 0 0z"></path>
<path d="M29.376 15.069c0-1.453-0.014-2.921 0.014-4.374 0-0.254 0.226-0.691 0.367-0.705 0.494-0.042 0.437 0.409 0.437 0.734 0.014 2.921 0 5.827 0.014 8.748 0 0.141 0.042 0.296-0.028 0.395-0.113 0.169-0.296 0.282-0.437 0.423-0.113-0.141-0.325-0.282-0.325-0.437-0.042-0.578-0.028-1.171-0.028-1.75-0.014-1.016-0.014-2.032-0.014-3.034 0 0 0 0 0 0z"></path>
</svg>
