<!-- Generated by IcoMoon.io -->
<svg version="1.1" xmlns="http://www.w3.org/2000/svg" width="32" height="32" viewBox="0 0 32 32">
<title>STEEMIT</title>
<path d="M2.483 27.853c0.154-0.051 0.243-0.077 0.333-0.102 1.267-0.41 2.432-1.011 3.379-1.971 0.41-0.422 0.755-0.896 0.998-1.434 0.141-0.294 0.115-0.346-0.166-0.486-1.126-0.589-2.163-1.331-3.059-2.24-1.882-1.92-3.059-4.211-3.418-6.886-0.461-3.635 0.512-6.861 2.867-9.651 1.242-1.459 2.726-2.624 4.429-3.507 1.293-0.666 2.675-1.050 4.109-1.216 1.075-0.115 2.163-0.23 3.251-0.243 2.854-0.026 5.645 0.435 8.384 1.254 1.306 0.397 2.573 0.858 3.814 1.434 0.064 0.026 0.128 0.064 0.256 0.128-0.115 0.051-0.179 0.090-0.256 0.115-1.075 0.435-2.061 1.024-2.867 1.869-0.448 0.474-0.806 1.011-1.062 1.613-0.077 0.192-0.051 0.282 0.154 0.358 1.702 0.678 3.187 1.69 4.442 3.008 1.92 2.022 3.072 4.416 3.392 7.181 0.41 3.584-0.499 6.822-2.816 9.587-2.125 2.547-4.813 4.25-8.102 4.915-1.574 0.32-3.187 0.333-4.787 0.256-2.189-0.115-4.314-0.486-6.413-1.101-2.266-0.653-4.442-1.549-6.515-2.701-0.102-0.038-0.192-0.090-0.346-0.179zM8.563 27.277c0.090 0.038 0.154 0.077 0.218 0.090 0.294 0.115 0.602 0.218 0.896 0.333 3.034 1.152 6.17 1.472 9.37 1.114 1.382-0.154 2.688-0.602 3.93-1.242 1.267-0.666 2.406-1.498 3.315-2.611 1.638-2.022 2.355-4.339 2.163-6.925-0.179-2.432-1.114-4.518-2.906-6.182-2.291-2.125-5.018-2.893-8.077-2.432-2.291 0.346-4.186 1.446-5.696 3.2-1.434 1.677-2.176 3.635-2.24 5.85-0.038 1.472 0.282 2.867 0.896 4.186 0.307 0.666 0.294 1.318 0 1.984-0.294 0.678-0.704 1.28-1.178 1.843-0.205 0.256-0.435 0.512-0.691 0.794z"></path>
</svg>
