<!-- Generated by IcoMoon.io -->
<svg version="1.1" xmlns="http://www.w3.org/2000/svg" width="32" height="32" viewBox="0 0 32 32">
<title>STELLARPORT</title>
<path d="M16.325 9.623c3.273 0.31 7.238 3.485 6.801 6.25-0.31 1.933-1.623 3.908-3.005 5.39-0.762 0.818-2.554 0.875-3.894 0.931-2.892 0.127-7.026-3.485-6.617-6.152 0.282-1.862 1.538-3.781 2.85-5.22 0.79-0.861 2.54-0.818 3.866-1.199z"></path>
<path d="M22.053 1.326c-6.589 2.201-10.032 7.21-13.263 12.43-2.737-2.921-2.328-9.227-1.016-11.287 0.226-0.353 0.621-0.649 0.988-0.875 3.231-1.961 9.227-2.187 13.291-0.268z"></path>
<path d="M10.314 30.688c6.646-1.933 10.286-7.055 13.841-12.952 1.651 3.936 2.286 7.45 0.889 11.161-0.099 0.268-0.31 0.536-0.536 0.705-3.287 2.61-10.949 3.499-14.194 1.086z"></path>
<path d="M10.54 21.39c-3.612 0.339-8.847-2.413-10.243-5.418-0.24-0.522-0.339-1.171-0.282-1.735 0.409-4.049 2.102-7.45 4.995-9.989 0.508 2.963 0.677 6.025 1.594 8.861 0.931 2.878 2.596 5.531 3.937 8.282z"></path>
<path d="M0.31 18.723c5.093 4.557 11.316 4.868 18.173 4.91-3.16 3.457-6.25 5.714-10.54 5.728-0.621 0-1.354-0.268-1.848-0.649-3.287-2.526-5.22-5.855-5.785-9.989z"></path>
<path d="M31.534 12.727c-5.093-3.81-10.963-4.205-17.453-4.19 2.907-3.287 5.7-5.616 9.735-5.855 0.621-0.028 1.369 0.155 1.862 0.522 3.231 2.342 5.122 5.545 5.855 9.524z"></path>
<path d="M27.386 27.062c0.381-6.095-2.286-11.175-5.432-16.649 4.064 0.691 7.182 1.862 9.467 4.713 0.31 0.381 0.593 0.945 0.578 1.411-0.028 4.106-1.566 7.605-4.614 10.526z"></path>
</svg>
