<!-- Generated by IcoMoon.io -->
<svg version="1.1" xmlns="http://www.w3.org/2000/svg" width="32" height="32" viewBox="0 0 32 32">
<title>STELLAR_TERM</title>
<path d="M6.566 31.68c0-2.074 0-4.134 0-6.234-2.099 0-4.147 0-6.234 0 0-4.211 0-8.384 0-12.595 2.048 0 4.109 0 6.195 0 0-2.086 0-4.134 0-6.234-2.061 0-4.109 0-6.195 0 0-2.125 0-4.198 0-6.31 4.16 0 8.333 0 12.544 0 0 2.061 0 4.122 0 6.221 2.099 0 4.134 0 6.234 0 0-2.061 0-4.122 0-6.221 4.211 0 8.384 0 12.57 0 0 2.074 0 4.16 0 6.285-2.048 0-4.109 0-6.195 0 0 2.086 0 4.134 0 6.234 2.061 0 4.109 0 6.208 0 0 4.211 0 8.384 0 12.595-2.061 0-4.109 0-6.221 0 0 2.099 0 4.173 0 6.259-6.323 0-12.582 0-18.906 0zM12.813 25.37c0-4.186 0-8.307 0-12.429-2.074 0-4.122 0-6.17 0 0 4.16 0 8.294 0 12.429 2.074 0 4.109 0 6.17 0zM25.357 25.37c0-4.173 0-8.307 0-12.442-2.074 0-4.122 0-6.17 0 0 4.16 0 8.294 0 12.442 2.074 0 4.109 0 6.17 0z"></path>
</svg>
