<!-- Generated by IcoMoon.io -->
<svg version="1.1" xmlns="http://www.w3.org/2000/svg" width="32" height="32" viewBox="0 0 32 32">
<title>STK</title>
<path d="M24.593 16.649c-0.014 0.169-0.014 0.282-0.014 0.395 0 1.369 0 2.737 0 4.106 0 0.494-0.339 0.903-0.776 0.988-0.635 0.127-1.143-0.099-1.34-0.621-0.042-0.113-0.056-0.254-0.056-0.381 0-3.33 0-6.66 0-9.989 0-0.621 0.437-1.044 1.058-1.044 0.663-0.014 1.115 0.423 1.115 1.058 0 1.298 0 2.596 0 3.894 0 0.113 0 0.212 0 0.423 0.282-0.268 0.508-0.466 0.72-0.663 1.51-1.425 3.034-2.85 4.543-4.275 0.325-0.296 0.649-0.536 1.143-0.367 0.691 0.254 0.917 1.072 0.395 1.594-0.635 0.621-1.298 1.199-1.947 1.792-0.79 0.72-1.58 1.453-2.384 2.173-0.169 0.155-0.183 0.268 0 0.437 1.453 1.34 2.907 2.681 4.346 4.035 0.212 0.198 0.409 0.437 0.508 0.691 0.155 0.423-0.056 0.847-0.451 1.086s-0.875 0.183-1.256-0.169c-0.776-0.72-1.538-1.439-2.314-2.159-1.030-0.959-2.060-1.933-3.090-2.892-0.028-0.014-0.085-0.042-0.198-0.113z"></path>
<path d="M5.136 10.060c1.312 0.028 2.526 0.353 3.584 1.157 0.367 0.282 0.621 0.607 0.55 1.101-0.085 0.593-0.593 0.903-1.143 0.635-0.423-0.198-0.79-0.494-1.213-0.691-1.072-0.536-2.201-0.593-3.33-0.198-0.832 0.282-1.228 1.016-1.058 1.806 0.099 0.423 0.381 0.705 0.762 0.847 0.663 0.24 1.34 0.437 2.032 0.621 1.016 0.282 2.046 0.522 2.935 1.115 0.903 0.607 1.27 1.467 1.171 2.54-0.141 1.51-1.058 2.427-2.399 2.878-2.159 0.734-4.261 0.466-6.236-0.663-0.395-0.226-0.734-0.508-0.72-1.044 0.014-0.734 0.55-1.101 1.213-0.776 0.48 0.24 0.917 0.564 1.425 0.748 1.199 0.437 2.427 0.522 3.654 0.071 0.875-0.325 1.213-1.481 0.621-2.088-0.198-0.212-0.494-0.367-0.776-0.451-0.734-0.226-1.481-0.409-2.215-0.621-0.889-0.24-1.778-0.494-2.54-1.044-0.847-0.621-1.157-1.467-1.101-2.469 0.085-1.51 0.974-2.441 2.286-3.019 0.762-0.367 1.623-0.48 2.497-0.451z"></path>
<path d="M14.519 16.691c0-1.425-0.014-2.864 0-4.289 0-0.296-0.085-0.381-0.381-0.381-0.889 0.014-1.778 0.014-2.681 0-0.762 0-1.129-0.423-0.988-1.171 0.056-0.31 0.31-0.55 0.663-0.621 0.085-0.014 0.183-0.014 0.268-0.014 2.808 0 5.616 0 8.423 0 0.776 0 1.171 0.607 0.889 1.298-0.155 0.381-0.494 0.494-0.861 0.508-0.917 0.014-1.82 0.014-2.737 0-0.31 0-0.395 0.085-0.395 0.395 0.014 2.751 0 5.517 0 8.268 0 0.169-0.014 0.339-0.028 0.522-0.042 0.903-0.974 1.129-1.637 0.832-0.437-0.198-0.55-0.593-0.55-1.030 0.014-1.439 0.014-2.878 0.014-4.317z"></path>
</svg>
