<!-- Generated by IcoMoon.io -->
<svg version="1.1" xmlns="http://www.w3.org/2000/svg" width="32" height="32" viewBox="0 0 32 32">
<title>STORJ</title>
<path d="M4.502 21.774c-0.161 0-0.311 0.044-0.44 0.12l0.004-0.002c-0.202 0.117-0.346 0.305-0.406 0.531s-0.029 0.461 0.088 0.663c0.155 0.262 0.436 0.436 0.757 0.436h0c0.161-0 0.311-0.044 0.44-0.12l-0.004 0.002c0.262-0.154 0.435-0.435 0.435-0.756 0-0.161-0.043-0.312-0.119-0.441l0.002 0.004c-0.155-0.262-0.436-0.436-0.757-0.436h-0zM16.86 2.731c-0.001-0.482-0.391-0.872-0.873-0.873h-0c-0.482 0.001-0.873 0.391-0.873 0.873v0c0 0.482 0.391 0.873 0.873 0.873h0c0.482-0 0.873-0.391 0.873-0.873v-0zM27.529 10.327c0.158-0 0.306-0.043 0.433-0.116l-0.004 0.002c0.2-0.114 0.348-0.299 0.41-0.521l0.001-0.006c0.020-0.070 0.032-0.15 0.032-0.233 0-0.158-0.042-0.307-0.116-0.434l0.002 0.004c-0.154-0.266-0.437-0.442-0.761-0.443h-0c-0.482 0.001-0.872 0.392-0.872 0.874 0 0.158 0.042 0.307 0.116 0.435l-0.002-0.004c0.154 0.266 0.437 0.443 0.761 0.443h0zM4.906 8.648c-0.124-0.072-0.273-0.115-0.432-0.115h-0c-0.323 0-0.605 0.175-0.757 0.435l-0.002 0.004c-0.073 0.124-0.116 0.274-0.116 0.433 0 0.082 0.011 0.161 0.033 0.236l-0.001-0.006c0.063 0.228 0.21 0.414 0.404 0.526l0.004 0.002c0.124 0.073 0.273 0.116 0.433 0.116h0c0.323-0 0.605-0.175 0.757-0.436l0.002-0.004c0.072-0.125 0.115-0.274 0.115-0.434 0-0.323-0.175-0.605-0.435-0.756l-0.004-0.002zM27.884 21.938c-0.126-0.075-0.277-0.119-0.439-0.12h-0c-0.32 0.001-0.6 0.173-0.753 0.429l-0.002 0.004c-0.243 0.416-0.102 0.951 0.314 1.195 0.126 0.075 0.277 0.119 0.439 0.119h0c0.32-0 0.6-0.172 0.753-0.429l0.002-0.004c0.075-0.126 0.12-0.278 0.12-0.44 0-0.079-0.011-0.156-0.030-0.229l0.001 0.006c-0.061-0.228-0.207-0.416-0.4-0.53l-0.004-0.002zM15.11 29.268c0 0.233 0.091 0.452 0.256 0.617s0.384 0.256 0.617 0.256h0c0.482-0 0.872-0.391 0.873-0.873v-0c0-0.482-0.391-0.874-0.873-0.874s-0.873 0.391-0.873 0.873z"></path>
<path d="M28.821 20.333c-0.090-0.053-0.197-0.107-0.308-0.153l-0.018-0.007v-8.168c0.149-0.056 0.274-0.115 0.394-0.182l-0.014 0.007c1.312-0.745 1.773-2.412 1.028-3.724s-2.412-1.773-3.724-1.028c-0.099 0.056-0.191 0.119-0.28 0.184l-7.209-4.162c0.016-0.121 0.028-0.243 0.028-0.368 0-1.508-1.223-2.731-2.732-2.731s-2.732 1.223-2.732 2.731c0 0.126 0.012 0.247 0.028 0.368l-7.159 4.133c-0.085-0.066-0.181-0.131-0.281-0.19l-0.013-0.007c-1.309-0.75-2.978-0.297-3.728 1.013s-0.297 2.978 1.013 3.728c0.118 0.068 0.24 0.122 0.364 0.171v8.171c-0.117 0.047-0.232 0.1-0.344 0.165-1.306 0.756-1.752 2.427-0.996 3.732s2.427 1.752 3.733 0.996c0.12-0.069 0.23-0.149 0.336-0.233l7.078 4.086c-0.020 0.132-0.033 0.266-0.033 0.403-0 1.508 1.222 2.732 2.731 2.732s2.732-1.222 2.732-2.731c0-0.137-0.013-0.27-0.032-0.401l7.035-4.062c0.109 0.089 0.223 0.172 0.348 0.245 1.303 0.761 2.976 0.322 3.736-0.981s0.322-2.976-0.981-3.736zM29.242 23.742c-0.369 0.621-1.036 1.031-1.8 1.032h-0c-0.367 0-0.73-0.098-1.049-0.284-0.81-0.473-1.181-1.412-0.975-2.281l-3.31-1.933c-0.669 0.676-1.596 1.095-2.62 1.095-0.003 0-0.006 0-0.009 0-0.492 0-0.961-0.097-1.389-0.273l0.024 0.009c-0.454 0.152-0.977 0.244-1.521 0.254l-0.005 0-0.001 5.915c0.854 0.26 1.478 1.055 1.477 1.993 0 1.148-0.934 2.082-2.082 2.082-0.002 0-0.004 0-0.006 0-0.573 0-1.092-0.233-1.467-0.61l-0-0c-0.377-0.375-0.61-0.893-0.61-1.467 0-0.002 0-0.004 0-0.007v0c0-0.938 0.624-1.732 1.478-1.992l0.001-6.030c-0.492-0.106-0.927-0.266-1.331-0.478l0.029 0.014c-0.258 0.053-0.554 0.084-0.857 0.084-0.001 0-0.002 0-0.003 0h0c-1.042 0-2-0.364-2.757-0.97l-3.932 2.276c0.203 0.87-0.172 1.807-0.984 2.277-0.299 0.176-0.658 0.28-1.042 0.28h-0c-0.766-0.001-1.435-0.414-1.798-1.029l-0.005-0.010c-0.177-0.298-0.281-0.658-0.281-1.041 0-0.192 0.026-0.377 0.075-0.553l-0.003 0.015c0.147-0.544 0.495-0.99 0.959-1.26l0.010-0.005c0.299-0.176 0.658-0.28 1.042-0.28h0c0.534 0 1.039 0.209 1.42 0.563l3.688-2.135c-0.512-0.722-0.816-1.602-0.816-2.552 0-1.218 0.496-2.321 1.294-3.122l-4.19-2.4c-0.382 0.359-0.89 0.57-1.427 0.57-0.361 0-0.719-0.096-1.033-0.276-0.482-0.276-0.829-0.724-0.975-1.261s-0.074-1.098 0.203-1.581c0.367-0.63 1.039-1.047 1.808-1.048h0c0.361 0 0.718 0.095 1.033 0.275 0.814 0.466 1.193 1.402 0.994 2.272l4.649 2.662c0.57-0.311 1.246-0.501 1.965-0.517l0.005-0c0.656-0.543 1.433-0.915 2.261-1.093v-6.2c-0.854-0.26-1.478-1.054-1.478-1.992 0-1.148 0.934-2.082 2.082-2.082s2.082 0.934 2.082 2.082c0 0.938-0.624 1.733-1.478 1.992v6.082c1.592 0.031 3.016 0.758 3.966 1.906l4.939-2.802c-0.196-0.871 0.188-1.805 1.004-2.268 0.295-0.17 0.649-0.271 1.026-0.272h0c0.773 0.001 1.447 0.421 1.807 1.045l0.005 0.010c0.171 0.295 0.272 0.648 0.272 1.026 0 0.198-0.028 0.389-0.080 0.571l0.004-0.015c-0.151 0.543-0.504 0.985-0.97 1.252l-0.010 0.005c-0.295 0.17-0.649 0.271-1.026 0.272h-0c-0.541 0-1.051-0.213-1.433-0.576l-4.879 2.768c0.131 0.255 0.25 0.554 0.341 0.865l0.009 0.037c0.979 0.671 1.613 1.784 1.613 3.045 0 0.002 0 0.004 0 0.006v-0c0 0.575-0.136 1.117-0.371 1.603l3.224 1.883c0.38-0.351 0.884-0.558 1.414-0.558 0.368 0 0.73 0.098 1.049 0.285 0.472 0.277 0.819 0.724 0.961 1.254l0.003 0.014c0.044 0.159 0.069 0.342 0.069 0.531 0 0.387-0.106 0.748-0.291 1.058l0.005-0.009z"></path>
<path d="M20.137 15.708c-0.013-0.126-0.030-0.235-0.052-0.342l0.004 0.023c-0.014-0.074-0.033-0.147-0.052-0.22-0.007-0.027-0.012-0.053-0.020-0.080-0.034-0.118-0.064-0.209-0.098-0.298l0.008 0.025-0.004-0.011c-0.188-0.497-0.462-0.922-0.808-1.277l0.001 0.001h-0c-0.078-0.081-0.16-0.157-0.245-0.23l-0.005-0.004c-0.003-0.003-0.006-0.005-0.010-0.008-0.077-0.065-0.162-0.132-0.25-0.195l-0.012-0.008c-0.005-0.004-0.011-0.008-0.016-0.011-0.075-0.053-0.165-0.111-0.257-0.164l-0.018-0.009c-0.007-0.004-0.015-0.008-0.022-0.012-0.074-0.043-0.169-0.092-0.266-0.137l-0.023-0.009-0.023-0.010c-0.075-0.035-0.176-0.075-0.279-0.111l-0.026-0.008c-0.007-0.002-0.014-0.005-0.021-0.007-0.081-0.029-0.189-0.060-0.299-0.087l-0.025-0.005-0.016-0.004c-0.093-0.023-0.212-0.044-0.334-0.060l-0.019-0.002c-0.14-0.020-0.302-0.032-0.467-0.034h-0.001c-0.46 0-0.899 0.089-1.304 0.245-0.033 0.013-0.066 0.027-0.099 0.040-0.094 0.039-0.185 0.082-0.275 0.128-0.048 0.025-0.096 0.049-0.143 0.076-0.124 0.072-0.226 0.139-0.325 0.211l0.011-0.008c-0.030 0.021-0.061 0.042-0.091 0.065-0.112 0.087-0.212 0.173-0.306 0.264l0.001-0.001c-0.081 0.077-0.157 0.155-0.23 0.237l-0.003 0.004c-0.151-0.030-0.325-0.047-0.502-0.047h-0.001c-0.049 0-0.097 0.005-0.146 0.007-0.68 0.036-1.29 0.308-1.755 0.737l0.002-0.002c-0.002 0.002-0.004 0.004-0.007 0.006-0.234 0.215-0.429 0.467-0.579 0.747l-0.007 0.015c-0.005 0.009-0.009 0.019-0.013 0.028-0.034 0.064-0.071 0.146-0.105 0.229l-0.007 0.019c-0.010 0.026-0.019 0.053-0.029 0.079-0.020 0.051-0.043 0.122-0.063 0.195l-0.005 0.020c-0.009 0.033-0.018 0.065-0.025 0.098-0.014 0.055-0.028 0.13-0.039 0.205l-0.002 0.015c-0.005 0.032-0.011 0.062-0.015 0.095-0.012 0.096-0.019 0.207-0.020 0.32v0.001c0 0.090 0.005 0.179 0.014 0.267 0.003 0.032 0.008 0.062 0.012 0.094 0.007 0.055 0.015 0.11 0.025 0.164 0.007 0.039 0.016 0.077 0.025 0.115 0.025 0.107 0.050 0.193 0.079 0.277l-0.006-0.020c0.012 0.035 0.024 0.069 0.037 0.102 0.018 0.048 0.036 0.095 0.057 0.141 0.009 0.020 0.019 0.039 0.029 0.059 0.286 0.595 0.757 1.064 1.337 1.341l0.017 0.007c0.074 0.036 0.166 0.074 0.261 0.108l0.019 0.006c0.087 0.030 0.176 0.055 0.267 0.076 0.010 0.002 0.020 0.006 0.030 0.007 0.083 0.018 0.167 0.033 0.252 0.044 0.017 0.002 0.034 0.006 0.052 0.008 0.101 0.011 0.203 0.017 0.306 0.017 0.387 0 0.756-0.078 1.092-0.22 0.067 0.050 0.147 0.105 0.229 0.157l0.016 0.009c0.009 0.006 0.018 0.010 0.027 0.016 0.077 0.047 0.156 0.091 0.236 0.133 0.002 0.001 0.005 0.002 0.007 0.004 0.482 0.253 1.053 0.401 1.659 0.401 0 0 0 0 0.001 0h-0c0.33 0 0.649-0.047 0.953-0.128 0.007-0.002 0.013-0.005 0.020-0.006 0.127-0.035 0.253-0.075 0.374-0.123 0.153-0.060 0.278-0.119 0.4-0.185l-0.018 0.009c0.347 0.274 0.791 0.439 1.273 0.439 0 0 0.001 0 0.001 0h-0c0.122-0.001 0.242-0.012 0.358-0.033l-0.013 0.002c0.103-0.017 0.192-0.037 0.278-0.064l-0.015 0.004c0.103-0.032 0.188-0.066 0.271-0.105l-0.012 0.005c0.015-0.007 0.029-0.014 0.043-0.021 0.092-0.044 0.168-0.088 0.241-0.137l-0.008 0.005c0-0 0.001-0.001 0.001-0.001 0.345-0.231 0.613-0.553 0.772-0.932l0.005-0.014s0-0.001 0-0.001c0.050-0.121 0.088-0.247 0.115-0.379 0.003-0.012 0.003-0.025 0.006-0.037 0.010-0.053 0.019-0.108 0.024-0.163 0.007-0.068 0.011-0.137 0.011-0.208 0-0.922-0.6-1.701-1.431-1.974z"></path>
</svg>
