<!-- Generated by IcoMoon.io -->
<svg version="1.1" xmlns="http://www.w3.org/2000/svg" width="32" height="32" viewBox="0 0 32 32">
<title>STQ</title>
<path d="M31.661 15.619c0.014 0.804-0.141 1.538-0.437 2.243-0.127 0.282-0.085 0.466 0.141 0.691 0.55 0.578 0.804 1.256 0.522 2.046-0.254 0.705-0.762 1.129-1.496 1.242-0.607 0.099-1.143-0.113-1.594-0.494-0.254-0.212-0.451-0.212-0.748-0.085-3.034 1.425-6.307 0.141-7.817-2.286-2.356-3.781 0.113-8.734 4.557-9.185 2.836-0.296 5.263 1.284 6.293 3.302 0.395 0.79 0.607 1.651 0.578 2.526z"></path>
<path d="M4.459 21.898c-1.242-0.014-2.37-0.339-3.344-1.129-0.635-0.508-0.988-1.171-0.931-1.961 0.085-1.171 1.284-1.848 2.427-1.383 0.282 0.113 0.522 0.339 0.79 0.494 0.31 0.183 0.607 0.367 0.931 0.522 0.24 0.113 0.48 0.071 0.621-0.169 0.155-0.268 0.056-0.522-0.169-0.705-0.099-0.085-0.226-0.141-0.353-0.183-0.508-0.198-1.044-0.353-1.538-0.593-0.508-0.24-1.030-0.48-1.439-0.847-1.524-1.354-1.326-4.021 0.353-5.277 1.608-1.199 4.092-1.242 5.742-0.071 0.578 0.409 0.875 0.974 0.903 1.679 0.028 1.058-0.875 1.792-1.905 1.496-0.409-0.113-0.79-0.381-1.171-0.593-0.226-0.113-0.423-0.254-0.663-0.353s-0.466-0.056-0.578 0.212c-0.099 0.24-0.028 0.48 0.183 0.593 0.296 0.169 0.635 0.268 0.945 0.409 0.691 0.31 1.411 0.564 2.046 0.945 1.298 0.776 1.721 2.018 1.552 3.457-0.212 1.834-1.524 3.076-3.457 3.358-0.296 0.042-0.621 0.071-0.945 0.099z"></path>
<path d="M12.374 16.889c0-0.959 0-1.919 0-2.878 0-0.437-0.042-0.466-0.48-0.48-0.423-0.014-0.847 0-1.256-0.099-1.185-0.268-1.707-1.496-1.101-2.526 0.226-0.381 0.55-0.649 0.988-0.72 0.48-0.071 0.974-0.141 1.467-0.155 1.552-0.014 3.118-0.014 4.67 0 0.367 0 0.748 0.042 1.115 0.099 0.931 0.155 1.538 0.875 1.496 1.721-0.056 0.903-0.748 1.608-1.679 1.679-0.296 0.028-0.593 0-0.903 0.014-0.437 0.014-0.494 0.056-0.494 0.508 0 1.75 0.014 3.499-0.014 5.249 0 0.381-0.056 0.776-0.183 1.129-0.296 0.847-1.129 1.284-2.046 1.143-0.931-0.155-1.524-0.762-1.58-1.693-0.028-0.508-0.014-1.002-0.014-1.51 0.014-0.494 0.014-0.988 0.014-1.481 0 0 0 0 0 0z"></path>
</svg>
