<?xml version="1.0" encoding="utf-8"?>
<!-- Generator: Adobe Illustrator 22.1.0, SVG Export Plug-In . SVG Version: 6.00 Build 0)  -->
<svg version="1.1" id="Layer_1" xmlns="http://www.w3.org/2000/svg" xmlns:xlink="http://www.w3.org/1999/xlink" x="0px" y="0px"
	 viewBox="0 0 226.8 226.8" style="enable-background:new 0 0 226.8 226.8;" xml:space="preserve">
<g>
	<path d="M224.4,110.7c0.1,5.7-1,10.9-3.1,15.9c-0.9,2-0.6,3.3,1,4.9c3.9,4.1,5.7,8.9,3.7,14.5c-1.8,5-5.4,8-10.6,8.8
		c-4.3,0.7-8.1-0.8-11.3-3.5c-1.8-1.5-3.2-1.5-5.3-0.6c-21.5,10.1-44.7,1-55.4-16.2c-16.7-26.8,0.8-61.9,32.3-65.1
		c20.1-2.1,37.3,9.1,44.6,23.4C223.1,98.4,224.6,104.5,224.4,110.7z"/>
	<path d="M31.6,155.2c-8.8-0.1-16.8-2.4-23.7-8c-4.5-3.6-7-8.3-6.6-13.9c0.6-8.3,9.1-13.1,17.2-9.8c2,0.8,3.7,2.4,5.6,3.5
		c2.2,1.3,4.3,2.6,6.6,3.7c1.7,0.8,3.4,0.5,4.4-1.2c1.1-1.9,0.4-3.7-1.2-5c-0.7-0.6-1.6-1-2.5-1.3c-3.6-1.4-7.4-2.5-10.9-4.2
		c-3.6-1.7-7.3-3.4-10.2-6c-10.8-9.6-9.4-28.5,2.5-37.4c11.4-8.5,29-8.8,40.7-0.5C57.6,78,59.7,82,59.9,87
		c0.2,7.5-6.2,12.7-13.5,10.6c-2.9-0.8-5.6-2.7-8.3-4.2c-1.6-0.8-3-1.8-4.7-2.5c-1.7-0.7-3.3-0.4-4.1,1.5c-0.7,1.7-0.2,3.4,1.3,4.2
		c2.1,1.2,4.5,1.9,6.7,2.9c4.9,2.2,10,4,14.5,6.7c9.2,5.5,12.2,14.3,11,24.5c-1.5,13-10.8,21.8-24.5,23.8
		C36.2,154.8,33.9,155,31.6,155.2z"/>
	<path d="M87.7,119.7c0-6.8,0-13.6,0-20.4c0-3.1-0.3-3.3-3.4-3.4c-3-0.1-6,0-8.9-0.7c-8.4-1.9-12.1-10.6-7.8-17.9
		c1.6-2.7,3.9-4.6,7-5.1c3.4-0.5,6.9-1,10.4-1.1c11-0.1,22.1-0.1,33.1,0c2.6,0,5.3,0.3,7.9,0.7c6.6,1.1,10.9,6.2,10.6,12.2
		c-0.4,6.4-5.3,11.4-11.9,11.9c-2.1,0.2-4.2,0-6.4,0.1c-3.1,0.1-3.5,0.4-3.5,3.6c0,12.4,0.1,24.8-0.1,37.2c0,2.7-0.4,5.5-1.3,8
		c-2.1,6-8,9.1-14.5,8.1c-6.6-1.1-10.8-5.4-11.2-12c-0.2-3.6-0.1-7.1-0.1-10.7C87.7,126.7,87.7,123.2,87.7,119.7
		C87.7,119.7,87.7,119.7,87.7,119.7z"/>
</g>
</svg>
