<?xml version="1.0" encoding="utf-8"?>
<!-- Generator: Adobe Illustrator 22.0.1, SVG Export Plug-In . SVG Version: 6.00 Build 0)  -->
<svg version="1.1" id="Layer_1" xmlns="http://www.w3.org/2000/svg" xmlns:xlink="http://www.w3.org/1999/xlink" x="0px" y="0px"
	 viewBox="0 0 226.8 226.8" style="enable-background:new 0 0 226.8 226.8;" xml:space="preserve">
<style type="text/css">
	.st0{stroke:#FFFFFF;stroke-miterlimit:10;}
</style>
<path class="st0" d="M15.4,82.9l99.2,62.5c0.1,0,0.2,0,0.2,0L216,81.5c0.1-0.1,0.1-0.2,0.1-0.3l0,0c0,0,0,0-0.1-0.1L115.8,17.2
	c-0.1,0-0.2,0-0.2,0L15.4,82.6C15.3,82.6,15.3,82.8,15.4,82.9L15.4,82.9L15.4,82.9z M114.6,218.8c-1.3,0-2.6-0.4-3.7-1.1L4.6,149.2
	c-0.1-0.1-0.1-0.2,0-0.3l4.5-7c0.1-0.1,0.2-0.1,0.3,0l105.1,67.7c0.1,0,0.2,0,0.2,0l99.6-64c2.3-1.5,3.7-4,3.7-6.7v-15.8
	c0-0.1-0.1-0.2-0.2-0.2h-0.1L117.1,187c-2.2,1.4-5.1,1.4-7.4,0L8.1,122.4c-5-3.2-8.1-8.7-8.1-14.6V85.7c0-1.8,0.7-3.5,1.9-4.8
	l0.3-0.3l2-1.3L112.1,9l0.1-0.1c2.2-1.3,4.9-1.2,7.1,0.2l104.3,66.4c3.2,2,4.2,6.3,2.1,9.5c-0.5,0.9-1.3,1.6-2.1,2.1l-105.2,66.4
	c-2.2,1.4-5.1,1.4-7.3,0L9.1,89.3c-0.1-0.1-0.2,0-0.3,0.1v0.1v18.2c0,2.9,1.5,5.7,4,7.2l100.7,64c0.1,0,0.2,0,0.2,0l102.7-65.5
	c2.6-1.7,6-1.4,8.3,0.7c1.5,1.4,2.3,3.3,2.2,5.4v19.3c0,5.7-2.9,11-7.7,14.1l-100.8,64.8C117.2,218.4,115.9,218.7,114.6,218.8
	L114.6,218.8L114.6,218.8z"/>
</svg>
