<!-- Generated by IcoMoon.io -->
<svg version="1.1" xmlns="http://www.w3.org/2000/svg" width="32" height="32" viewBox="0 0 32 32">
<title>STRAT</title>
<path d="M2.173 11.697l13.996 8.818c0.014 0 0.028 0 0.028 0l14.279-9.016c0.014-0.014 0.014-0.028 0.014-0.042v0c0 0 0 0-0.014-0.014l-14.138-9.016c-0.014 0-0.028 0-0.028 0l-14.138 9.227c-0.014 0-0.014 0.028 0 0.042v0 0zM16.169 30.871c-0.183 0-0.367-0.056-0.522-0.155l-14.998-9.665c-0.014-0.014-0.014-0.028 0-0.042l0.635-0.988c0.014-0.014 0.028-0.014 0.042 0l14.829 9.552c0.014 0 0.028 0 0.028 0l14.053-9.030c0.325-0.212 0.522-0.564 0.522-0.945v-2.229c0-0.014-0.014-0.028-0.028-0.028h-0.014l-14.194 9.044c-0.31 0.198-0.72 0.198-1.044 0l-14.335-9.115c-0.705-0.451-1.143-1.227-1.143-2.060v-3.118c0-0.254 0.099-0.494 0.268-0.677l0.042-0.042 0.282-0.183 15.238-9.933c0.31-0.183 0.691-0.169 1.002 0.028l14.716 9.369c0.451 0.282 0.593 0.889 0.296 1.34-0.071 0.127-0.183 0.226-0.296 0.296l-14.843 9.369c-0.31 0.198-0.72 0.198-1.030 0l-14.392-9.058c-0.014-0.014-0.028 0-0.042 0.014v2.582c0 0.409 0.212 0.804 0.564 1.016l14.208 9.030c0.014 0 0.028 0 0.028 0l14.49-9.242c0.367-0.24 0.847-0.198 1.171 0.099 0.212 0.198 0.324 0.466 0.31 0.762v2.723c0 0.804-0.409 1.552-1.086 1.989l-14.222 9.143c-0.169 0.099-0.353 0.141-0.536 0.155v0 0z"></path>
</svg>
