<!-- Generated by IcoMoon.io -->
<svg version="1.1" xmlns="http://www.w3.org/2000/svg" width="32" height="32" viewBox="0 0 32 32">
<title>STRONGHOLD</title>
<path d="M12.16 0.384c-0.077 0.614-0.141 1.088-0.218 1.6 0.128 0.038 0.23 0.090 0.346 0.090 0.627 0.013 1.267 0 1.894 0 0.333 0 0.486-0.141 0.486-0.474 0-0.282 0.013-0.576 0.026-0.858 0-0.243 0.115-0.371 0.371-0.371 0.73 0 1.459 0 2.278 0 0.026 0.384 0.051 0.717 0.064 1.050 0.038 0.576 0.077 0.64 0.64 0.64 0.614 0 1.229 0 1.83-0.013 0.051 0 0.115-0.038 0.23-0.077-0.026-0.243-0.051-0.512-0.077-0.768-0.026-0.243-0.064-0.474-0.102-0.794 0.333-0.026 0.602-0.051 0.883-0.051 0.422-0.013 0.858 0.013 1.28-0.013 0.371-0.026 0.55 0.128 0.653 0.486 0.666 2.445 1.331 4.877 2.010 7.309 1.088 3.904 2.189 7.821 3.277 11.725 0.742 2.637 1.459 5.274 2.214 7.898 0.282 0.96 0.64 1.894 0.96 2.842 0.051 0.154 0.115 0.307 0.141 0.461 0.102 0.589-0.154 0.883-0.742 0.909-0.128 0-0.243 0-0.371 0-9.408 0-18.816-0.013-28.224-0.013-1.306 0-1.459-0.256-1.075-1.485 0.717-2.291 1.408-4.608 2.061-6.912 1.101-3.776 2.15-7.565 3.2-11.366 0.947-3.392 1.894-6.797 2.854-10.189 0.115-0.41 0.23-0.819 0.346-1.242 0.064-0.205 0.154-0.384 0.41-0.384 0.742 0 1.498 0 2.355 0z"></path>
</svg>
