<!-- Generated by IcoMoon.io -->
<svg version="1.1" xmlns="http://www.w3.org/2000/svg" width="32" height="32" viewBox="0 0 32 32">
<title>STRONG_COIN_WALLET</title>
<path d="M30.603 11.922c-0.889 0.875-1.848 0.931-2.85 0.593-1.496-0.522-2.342-2.088-2.018-3.626 0.339-1.58 1.735-2.61 3.358-2.483 1.566 0.113 2.808 1.369 2.878 2.977 0.042 0.847 0.042 1.693 0 2.526-0.056 1.298-1.016 2.511-2.243 2.878-1.326 0.409-2.737-0.028-3.513-1.072-0.353-0.466-0.353-0.832 0-1.115 0.367-0.296 0.691-0.226 1.072 0.24 0.48 0.607 1.129 0.818 1.848 0.677s1.185-0.621 1.425-1.326c0.014-0.028 0.014-0.085 0.042-0.268zM28.825 11.316c1.016 0 1.806-0.776 1.792-1.764 0-0.988-0.79-1.792-1.792-1.792-0.988 0-1.792 0.79-1.792 1.778 0 1.002 0.776 1.778 1.792 1.778z"></path>
<path d="M18.568 9.538c0.014 1.75-1.383 3.146-3.118 3.175-1.764 0-3.203-1.411-3.203-3.146 0-1.764 1.397-3.16 3.161-3.16s3.146 1.369 3.16 3.132zM17.199 9.594c0-1.016-0.804-1.834-1.792-1.834-0.988 0.014-1.778 0.818-1.778 1.806 0 0.974 0.79 1.778 1.75 1.792 0.988 0.014 1.82-0.79 1.82-1.764z"></path>
<path d="M23.802 23.393c0-0.691 0-1.383 0-2.088 0.014-2.229 1.792-4.007 4.007-4.049s4.078 1.679 4.162 3.894c0.056 1.538 0.014 3.076 0.014 4.614 0 0.691-0.466 1.185-1.044 1.185-0.607 0-1.030-0.451-1.044-1.185-0.014-1.467 0-2.949-0.014-4.416-0.014-1.016-0.536-1.679-1.538-1.975-0.748-0.226-1.665 0.113-2.116 0.875-0.198 0.325-0.282 0.748-0.296 1.129-0.042 1.298-0.014 2.61-0.014 3.908 0 0.226 0 0.466-0.028 0.691-0.085 0.578-0.55 0.988-1.072 0.959-0.564-0.028-0.988-0.48-0.988-1.101-0.028-0.804-0.028-1.623-0.028-2.441z"></path>
<path d="M24.762 10.37c0 0.536 0.014 1.058 0 1.594-0.014 0.437-0.282 0.734-0.649 0.734-0.395 0-0.677-0.296-0.677-0.748 0-0.917 0-1.82 0-2.737 0-0.861-0.55-1.453-1.312-1.439-0.748 0.014-1.27 0.593-1.27 1.453 0 0.889 0 1.764 0 2.653 0 0.508-0.24 0.804-0.649 0.832-0.409 0.014-0.72-0.296-0.72-0.818 0-1.072-0.042-2.159 0.056-3.217 0.127-1.369 1.355-2.328 2.751-2.243 1.397 0.071 2.441 1.143 2.497 2.54-0.028 0.437-0.028 0.917-0.028 1.397 0 0 0 0 0 0z"></path>
<path d="M1.481 12.698c-0.226 0-0.466 0-0.691 0-0.466-0.014-0.776-0.282-0.79-0.663-0.014-0.395 0.31-0.691 0.79-0.705 0.423-0.014 0.847-0.014 1.27 0 0.325 0 0.578-0.113 0.635-0.451s-0.183-0.494-0.452-0.578c-0.339-0.113-0.677-0.198-1.016-0.325-0.875-0.325-1.228-0.931-1.143-1.877 0.085-0.818 0.734-1.538 1.524-1.637 0.466-0.056 0.945-0.042 1.425-0.028 0.395 0.014 0.635 0.31 0.621 0.663-0.014 0.367-0.268 0.635-0.649 0.663-0.325 0.014-0.649 0-0.974 0.014-0.31 0.014-0.564 0.113-0.635 0.466-0.056 0.353 0.141 0.536 0.452 0.621 0.254 0.085 0.522 0.155 0.776 0.24 1.030 0.296 1.481 0.945 1.369 1.961-0.099 0.889-0.861 1.594-1.792 1.665-0.24-0.014-0.48-0.028-0.72-0.028 0 0 0 0 0 0z"></path>
<path d="M4.868 7.986c0-0.988 0-1.989 0-2.977 0-0.536 0.254-0.832 0.677-0.832s0.691 0.31 0.705 0.832c0.014 0.296 0.014 0.593 0 0.903-0.028 0.367 0.085 0.55 0.48 0.494 0.127-0.014 0.24 0 0.367 0.014 0.367 0.042 0.593 0.296 0.593 0.663 0 0.353-0.226 0.607-0.593 0.663-0.014 0-0.028 0-0.042 0-0.804 0.099-0.804 0.099-0.804 0.903 0 0.705 0.014 1.411 0 2.116 0 0.381 0.127 0.564 0.522 0.536 0.127-0.014 0.24 0 0.367 0.028 0.353 0.085 0.536 0.31 0.55 0.663 0 0.367-0.212 0.578-0.55 0.663-1.213 0.282-2.257-0.55-2.257-1.792-0.014-0.945-0.014-1.905-0.014-2.878z"></path>
<path d="M4.811 26.963c-1.975-0.099-3.485-1.030-4.317-2.836-0.832-1.792-0.593-3.556 0.663-5.093 1.284-1.566 2.977-2.046 4.924-1.651 0.748 0.155 1.129 0.677 1.002 1.284-0.127 0.635-0.72 0.917-1.552 0.748-1.439-0.296-2.78 0.423-3.245 1.75-0.466 1.312 0.085 2.765 1.298 3.414 0.663 0.353 1.355 0.423 2.074 0.24 0.691-0.169 1.242 0.113 1.397 0.691s-0.212 1.101-0.917 1.27c-0.268 0.071-0.536 0.113-0.804 0.155-0.155 0.028-0.325 0.028-0.522 0.028z"></path>
<path d="M8.451 10.243c0-0.55-0.028-1.086 0-1.637 0.085-1.411 1.397-2.427 2.794-2.201 0.367 0.056 0.578 0.31 0.578 0.677 0 0.353-0.24 0.607-0.607 0.663-0.071 0.014-0.155 0.014-0.226 0.014-0.79 0.028-1.171 0.409-1.185 1.199-0.014 0.804 0 1.608 0 2.413 0 0.183 0 0.353 0 0.536-0.014 0.494-0.282 0.804-0.691 0.79-0.395-0.014-0.677-0.325-0.677-0.804-0.014-0.55 0-1.086 0-1.637 0-0.014 0.014-0.014 0.014-0.014z"></path>
<path d="M19.739 22.095c0-1.213 0-2.441 0-3.654 0-0.734 0.395-1.171 1.030-1.171 0.607 0 1.002 0.409 1.002 1.129 0.014 2.483 0.014 4.966 0 7.436 0 0.691-0.437 1.129-1.030 1.115-0.578-0.014-1.002-0.466-1.002-1.143 0-1.227 0-2.469 0-3.711z"></path>
<path d="M7.492 22.081c-0.24-2.582 2.088-5.714 5.644-5.714 3.302 0 5.757 2.497 5.757 5.827 0 3.090-2.624 5.672-5.7 5.63-3.725-0.056-5.94-3.203-5.7-5.742zM7.718 22.081c-0.127 2.892 2.384 5.46 5.404 5.503 2.977 0.042 5.432-2.455 5.545-5.404 0.099-2.596-2.060-5.545-5.404-5.587-3.16-0.042-5.658 2.568-5.545 5.489z"></path>
<path d="M21.912 14.97c0 0.663-0.494 1.171-1.129 1.171-0.635 0.014-1.157-0.508-1.171-1.143s0.508-1.157 1.143-1.171c0.649 0 1.157 0.494 1.157 1.143z"></path>
<path d="M17.989 22.109c0.014 2.638-2.159 4.84-4.797 4.854-2.723 0.014-4.924-2.159-4.924-4.854 0-2.709 2.13-4.825 4.868-4.84 2.667-0.028 4.839 2.131 4.854 4.84zM13.136 24.917c1.524-0.014 2.78-1.256 2.78-2.765 0-1.552-1.256-2.808-2.808-2.808-1.524 0-2.822 1.312-2.794 2.836 0.028 1.51 1.298 2.737 2.822 2.737z"></path>
</svg>
