<?xml version="1.0" encoding="utf-8"?>
<!-- Generator: Adobe Illustrator 22.1.0, SVG Export Plug-In . SVG Version: 6.00 Build 0)  -->
<svg version="1.1" id="Layer_1" xmlns="http://www.w3.org/2000/svg" xmlns:xlink="http://www.w3.org/1999/xlink" x="0px" y="0px"
	 viewBox="0 0 226.8 226.8" style="enable-background:new 0 0 226.8 226.8;" xml:space="preserve">
<g>
	<path d="M184.3,104.3c4-23.4,24-35.3,40.1-34.6c0,1.8,0.2,3.6-0.1,5.4c-0.1,0.6-1.5,1.3-2.3,1.3c-12.3,1-21.4,7-27.3,17.7
		c-10.9,19.8,0.5,44.9,22.6,49.7c1.5,0.3,3.1,0.6,4.7,0.5c2.1-0.1,2.6,0.9,2.4,2.7c-0.1,1.2,0,2.4,0,3.6
		c-15.1,4.6-37.4-14.4-40-33.5c-1.3,3.7-2.3,7.8-4.2,11.5c-7,13.7-18.3,21.2-33.6,22.5c-1.8,0.2-3.1-0.1-2.7-2.3
		c0.3-1.8-1.3-4.4,2.4-4.6c16.6-1.1,29.5-13.8,31.4-30.3c1.9-17.3-9.5-33.7-27.4-37.3c-0.9-0.2-1.9-0.2-2.9-0.2
		c-3.6-0.2-3.6-0.2-3.6-3.9c0-3.2,0.4-3.5,3.5-3.1c18,2.4,29.9,12.1,35.6,29.4C183.6,100.5,183.9,102.3,184.3,104.3z"/>
	<path d="M2.5,151.4c-0.6-6.7-0.6-6.7,4.8-7.3c14.1-1.8,26.3-13.7,28.3-27.8c0.8-5.8,0.9-11.8,2.3-17.4C41.5,84,55.6,71.8,70.9,70
		c3.4-0.4,6.8-0.5,10.2-0.6c14.6-0.1,29.2,0,43.8,0c1.1,0,3.1,0.3,3.2,0.8c0.4,1.8,0.2,3.7-0.1,5.4c-0.1,0.4-1.7,0.6-2.6,0.7
		c-6.7,0.1-13.4,0-20.1,0c-9.9,0-19.7-0.1-29.6,0c-11.7,0.1-20.7,5.6-27.2,15c-4,5.8-5.7,12.4-5.8,19.4
		c-0.1,19.6-14.1,36.3-33.5,39.7C7.2,151,4.9,151.1,2.5,151.4z"/>
	<path d="M98.6,151.2c0-13.9,0-27.3,0-40.6c0.3-0.2,0.5-0.3,0.6-0.3c5.9-0.5,5.9-0.5,5.9,5.4c0,10.8-0.1,21.6,0.1,32.4
		c0,2.6-0.8,3.5-3.3,3.1C100.9,151.1,99.9,151.2,98.6,151.2z"/>
</g>
</svg>
