<!-- Generated by IcoMoon.io -->
<svg version="1.1" xmlns="http://www.w3.org/2000/svg" width="32" height="32" viewBox="0 0 32 32">
<title>STX</title>
<path d="M26.004 14.716c0.564-3.302 3.386-4.981 5.658-4.882 0 0.254 0.028 0.508-0.014 0.762-0.014 0.085-0.212 0.183-0.325 0.183-1.735 0.141-3.019 0.988-3.852 2.497-1.538 2.794 0.071 6.335 3.189 7.012 0.212 0.042 0.437 0.085 0.663 0.071 0.296-0.014 0.367 0.127 0.339 0.381-0.014 0.169 0 0.339 0 0.508-2.131 0.649-5.277-2.032-5.644-4.727-0.183 0.522-0.325 1.101-0.593 1.623-0.988 1.933-2.582 2.991-4.741 3.175-0.254 0.028-0.437-0.014-0.381-0.325 0.042-0.254-0.183-0.621 0.339-0.649 2.342-0.155 4.162-1.947 4.43-4.275 0.268-2.441-1.34-4.755-3.866-5.263-0.127-0.028-0.268-0.028-0.409-0.028-0.508-0.028-0.508-0.028-0.508-0.55 0-0.451 0.056-0.494 0.494-0.437 2.54 0.339 4.219 1.707 5.023 4.148 0.099 0.24 0.141 0.494 0.198 0.776z"></path>
<path d="M0.353 21.362c-0.085-0.945-0.085-0.945 0.677-1.030 1.989-0.254 3.711-1.933 3.993-3.922 0.113-0.818 0.127-1.665 0.325-2.455 0.508-2.102 2.497-3.824 4.656-4.078 0.48-0.056 0.959-0.071 1.439-0.085 2.060-0.014 4.12 0 6.18 0 0.155 0 0.437 0.042 0.451 0.113 0.056 0.254 0.028 0.522-0.014 0.762-0.014 0.056-0.24 0.085-0.367 0.099-0.945 0.014-1.891 0-2.836 0-1.397 0-2.78-0.014-4.176 0-1.651 0.014-2.921 0.79-3.838 2.116-0.564 0.818-0.804 1.75-0.818 2.737-0.014 2.765-1.989 5.122-4.727 5.601-0.282 0.085-0.607 0.099-0.945 0.141z"></path>
<path d="M13.912 21.333c0-1.961 0-3.852 0-5.728 0.042-0.028 0.071-0.042 0.085-0.042 0.832-0.071 0.832-0.071 0.832 0.762 0 1.524-0.014 3.048 0.014 4.571 0 0.367-0.113 0.494-0.466 0.437-0.141-0.014-0.282 0-0.466 0z"></path>
</svg>
