<?xml version="1.0" encoding="utf-8"?>
<!-- Generator: Adobe Illustrator 22.0.1, SVG Export Plug-In . SVG Version: 6.00 Build 0)  -->
<svg version="1.1" id="Layer_1" xmlns="http://www.w3.org/2000/svg" xmlns:xlink="http://www.w3.org/1999/xlink" x="0px" y="0px"
	 viewBox="0 0 226.8 226.8" style="enable-background:new 0 0 226.8 226.8;" xml:space="preserve">
<style type="text/css">
	.st0{stroke:#FFFFFF;stroke-miterlimit:10;}
</style>
<g>
	<path class="st0" d="M70.9,0.5L28.7,32.2c-0.7,0.5-1,1.3-1.1,2.1c0,0.8,0.4,1.6,1.1,2.1l165.9,124.5l-9.4,7
		c-1.2,0.9-1.4,2.5-0.5,3.7c0.5,0.7,1.3,1.1,2.1,1.1c0.6,0,1.1-0.2,1.6-0.5l12.2-9.1c1.2-0.9,1.4-2.5,0.5-3.7
		c-0.2-0.2-0.3-0.4-0.5-0.5L34.7,34.3L72.5,5.9l11.6,8.7c1.2,0.9,2.8,0.6,3.7-0.5c0.9-1.2,0.6-2.8-0.5-3.7L74.1,0.5
		c-0.5-0.3-1-0.5-1.6-0.5S71.4,0.2,70.9,0.5z"/>
	<path class="st0" d="M113.1,0.5L58.6,41.4c-1.2,0.9-1.4,2.5-0.5,3.7s2.5,1.4,3.7,0.5l0,0l52.9-39.7l76.5,57.3h-33.4l-54.7-41
		c-1.2-0.9-2.8-0.6-3.7,0.5c-0.9,1.2-0.6,2.8,0.5,3.7l0,0L155.3,68c0.5,0.3,1,0.5,1.6,0.5H199c1.1,0,2.1-0.7,2.5-1.8
		c0.4-1.1,0-2.3-0.9-2.9L116.2,0.5C115.3-0.2,114-0.2,113.1,0.5L113.1,0.5z"/>
	<path class="st0" d="M40.4,55.1l-11.7,8.7c-0.7,0.5-1,1.3-1,2.1s0.4,1.6,1,2.1l166,124.5l-37.8,28.3l-10.6-7.9
		c-1.2-0.9-2.8-0.6-3.7,0.5s-0.6,2.8,0.5,3.7l12.2,9.2c0.5,0.3,1,0.5,1.6,0.5s1.1-0.2,1.6-0.5l42.2-31.6c0.7-0.5,1.1-1.3,1.1-2.1
		s-0.4-1.6-1.1-2.1L34.7,65.9l8.8-6.6c1.2-0.9,1.4-2.5,0.5-3.7l0,0c-0.5-0.7-1.3-1.1-2.1-1.1C41.4,54.6,40.8,54.7,40.4,55.1z"/>
	<path class="st0" d="M30.3,158.2c-1.1,0-2.1,0.7-2.5,1.8s0,2.3,0.9,3l84.4,63.3c0.5,0.3,1,0.5,1.6,0.5s1.1-0.2,1.6-0.5l54.4-40.8
		c1.2-0.9,1.4-2.5,0.5-3.7s-2.5-1.4-3.7-0.5l-52.8,39.6l-76.5-57.3h33.4l54,40.5c1.2,0.9,2.8,0.6,3.7-0.5c0.9-1.2,0.6-2.8-0.5-3.7
		l0,0L74,158.8c-0.4-0.4-1-0.5-1.6-0.5L30.3,158.2L30.3,158.2z"/>
</g>
</svg>
