<!-- Generated by IcoMoon.io -->
<svg version="1.1" xmlns="http://www.w3.org/2000/svg" width="32" height="32" viewBox="0 0 32 32">
<title>SUB</title>
<path d="M10.004 0.071l-5.954 4.473c-0.099 0.071-0.141 0.183-0.155 0.296 0 0.113 0.056 0.226 0.155 0.296l23.407 17.566-1.326 0.988c-0.169 0.127-0.198 0.353-0.071 0.522 0.071 0.099 0.183 0.155 0.296 0.155 0.085 0 0.155-0.028 0.226-0.071l1.721-1.284c0.169-0.127 0.198-0.353 0.071-0.522-0.028-0.028-0.042-0.056-0.071-0.071l-23.407-17.58 5.333-4.007 1.637 1.228c0.169 0.127 0.395 0.085 0.522-0.071 0.127-0.169 0.085-0.395-0.071-0.522l-1.862-1.397c-0.071-0.042-0.141-0.071-0.226-0.071s-0.155 0.028-0.226 0.071z"></path>
<path d="M15.958 0.071l-7.69 5.771c-0.169 0.127-0.198 0.353-0.071 0.522s0.353 0.198 0.522 0.071v0l7.464-5.601 10.794 8.085h-4.713l-7.718-5.785c-0.169-0.127-0.395-0.085-0.522 0.071-0.127 0.169-0.085 0.395 0.071 0.522v0l7.817 5.87c0.071 0.042 0.141 0.071 0.226 0.071h5.94c0.155 0 0.296-0.099 0.353-0.254s0-0.325-0.127-0.409l-11.908-8.931c-0.127-0.099-0.31-0.099-0.437 0v0z"></path>
<path d="M5.7 7.774l-1.651 1.228c-0.099 0.071-0.141 0.183-0.141 0.296s0.056 0.226 0.141 0.296l23.422 17.566-5.333 3.993-1.496-1.115c-0.169-0.127-0.395-0.085-0.522 0.071s-0.085 0.395 0.071 0.522l1.721 1.298c0.071 0.042 0.141 0.071 0.226 0.071s0.155-0.028 0.226-0.071l5.954-4.459c0.099-0.071 0.155-0.183 0.155-0.296s-0.056-0.226-0.155-0.296l-23.422-17.58 1.242-0.931c0.169-0.127 0.198-0.353 0.071-0.522v0c-0.071-0.099-0.183-0.155-0.296-0.155-0.071 0.014-0.155 0.028-0.212 0.085z"></path>
<path d="M4.275 22.321c-0.155 0-0.296 0.099-0.353 0.254s0 0.325 0.127 0.423l11.908 8.931c0.071 0.042 0.141 0.071 0.226 0.071s0.155-0.028 0.226-0.071l7.675-5.757c0.169-0.127 0.198-0.353 0.071-0.522s-0.353-0.198-0.522-0.071l-7.45 5.587-10.794-8.085h4.713l7.619 5.714c0.169 0.127 0.395 0.085 0.522-0.071 0.127-0.169 0.085-0.395-0.071-0.522v0l-7.732-5.799c-0.056-0.056-0.141-0.071-0.226-0.071l-5.94-0.014z"></path>
</svg>
