<!-- Generated by IcoMoon.io -->
<svg version="1.1" xmlns="http://www.w3.org/2000/svg" width="32" height="32" viewBox="0 0 32 32">
<title>SURBITCOIN</title>
<path d="M11.048 19.16c0-0.212 0-0.423 0-0.635 0-5.742 0.014-11.485 0-17.227 0-0.466 0.141-0.72 0.564-0.875 0.494-0.183 0.988-0.409 1.481-0.621 0.127 0.31 0.198 19.302 0.056 20.049-0.691-0.226-1.369-0.451-2.102-0.691z"></path>
<path d="M19.048 32c0.014-6.758-0.042-13.376 0.042-20.035 0.663 0.212 1.27 0.395 1.848 0.621 0.099 0.028 0.169 0.226 0.183 0.353 0.042 0.734 0.085 1.453 0.085 2.187 0 5.093-0.014 10.187 0.014 15.266 0 0.522-0.155 0.818-0.635 0.988-0.48 0.183-0.959 0.381-1.538 0.621z"></path>
<path d="M10.526 1.086c0 6.011 0 11.979 0 17.961-0.691-0.042-1.369-0.071-2.074-0.113-0.014-0.169-0.028-0.31-0.028-0.451 0-5.079 0-10.159-0.014-15.224 0-0.296 0.056-0.536 0.296-0.734 0.494-0.409 0.988-0.847 1.496-1.256 0.056-0.071 0.169-0.099 0.325-0.183z"></path>
<path d="M21.7 30.66c0-0.198 0-0.367 0-0.536 0-5.249 0-10.497 0-15.76 0-0.593 0-0.593 0.55-0.79 0.508-0.183 1.002-0.367 1.566-0.564 0.014 0.198 0.042 0.325 0.042 0.466 0 5.023 0 10.046-0.014 15.069 0 0.198-0.056 0.451-0.183 0.564-0.578 0.522-1.185 1.016-1.778 1.51-0.014 0.042-0.085 0.028-0.183 0.042z"></path>
<path d="M15.845 21.644c-0.691-0.48-1.34-0.903-1.961-1.369-0.113-0.085-0.169-0.296-0.169-0.466-0.014-0.861-0.014-1.721-0.014-2.582 0-3.527 0-7.055 0.014-10.582 0-0.113 0.014-0.212 0.028-0.452 0.113 0.198 0.169 0.282 0.198 0.381 0.409 0.959 0.959 1.848 1.651 2.638 0.183 0.212 0.268 0.423 0.268 0.705 0 3.81 0 7.605 0.014 11.414 0 0.085-0.014 0.183-0.028 0.31z"></path>
<path d="M16.451 10.159c0.226 0.183 0.367 0.31 0.522 0.409 0.353 0.254 0.691 0.55 1.086 0.748 0.367 0.183 0.451 0.437 0.437 0.818-0.014 1.030 0.014 2.046 0.014 3.076 0 3.429 0 6.857 0 10.413-0.113-0.198-0.183-0.296-0.226-0.395-0.409-0.988-0.974-1.877-1.679-2.681-0.198-0.226-0.268-0.451-0.268-0.748 0.014-1.82 0-3.64 0-5.474 0.014-1.919 0.042-3.838 0.056-5.757 0.028-0.085 0.042-0.183 0.056-0.409z"></path>
<path d="M24.395 12.995c3.005 4.515 2.638 11.414 0 15.168 0-5.093 0-10.13 0-15.168z"></path>
<path d="M7.817 18.822c-2.709-4.162-2.864-10.751-0.042-15.153 0.127 0.31 0.169 14.123 0.042 15.153z"></path>
</svg>
