<!-- Generated by IcoMoon.io -->
<svg version="1.1" xmlns="http://www.w3.org/2000/svg" width="32" height="32" viewBox="0 0 32 32">
<title>SWFTC</title>
<path d="M28.487 7.238c-0.254-0.042-0.451-0.056-0.635-0.085-1.227-0.212-2.469-0.353-3.697-0.014-0.409 0.113-0.818 0.268-1.213 0.437-0.55 0.254-0.804 0.705-0.861 1.312-0.099 1.185 0.296 2.272 0.621 3.372 0.79 2.667 1.072 5.362 0.437 8.099-0.381 1.665-1.369 2.921-2.653 3.993-1.496 1.27-3.273 1.75-5.15 2.074-1.933 0.339-3.88 0.649-5.785 1.129-2.004 0.508-3.556 1.693-4.529 3.57-0.071 0.155-0.127 0.31-0.198 0.466-0.056 0.155-0.127 0.31-0.212 0.55-0.071-0.169-0.113-0.24-0.127-0.325-0.141-1.919-0.367-3.824-0.367-5.742-0.014-2.709 0.578-5.319 1.919-7.704 1.369-2.413 3.372-4.205 5.813-5.531 0.691-0.367 1.369-0.748 2.074-1.101 1.637-0.818 2.215-2.272 2.455-3.979 0.141-1.030 0.296-2.074 0.578-3.062 0.381-1.369 1.369-2.159 2.723-2.554 1.778-0.508 3.358-0.014 4.825 0.917 1.566 0.988 2.794 2.342 3.838 3.866 0.056 0.056 0.071 0.155 0.141 0.31zM7.52 25.086c0.056 0.014 0.113 0.028 0.155 0.042 0.071-0.056 0.141-0.113 0.198-0.183 0.804-0.959 1.848-1.481 3.076-1.58 0.776-0.056 1.566 0 2.342 0 1.101 0 2.201 0.141 3.287-0.183 2.131-0.635 3.302-3.005 2.511-5.079-0.55-1.467-2.469-2.54-4.176-2.342-2.004 0.226-3.57 1.256-4.84 2.751-1.242 1.467-1.891 3.217-2.342 5.051-0.127 0.508-0.141 1.016-0.212 1.524zM22.561 7.055c0.028 0.028 0.071 0.071 0.099 0.099 0.198-0.085 0.381-0.183 0.578-0.268 0.889-0.409 1.848-0.367 2.794-0.381 0.212 0 0.423-0.028 0.635-0.056 0-0.042 0-0.099 0-0.141-0.889-0.55-1.834-0.832-2.892-0.466-0.593 0.226-1.002 0.635-1.213 1.213z"></path>
<path d="M18.243 1.072c-0.423-0.099-0.847-0.226-1.284-0.31-0.79-0.155-1.552-0.056-2.258 0.367-0.226 0.127-0.466 0.254-0.705 0.325-0.451 0.141-0.818-0.014-0.917-0.353-0.113-0.367 0.099-0.734 0.55-0.861 0.367-0.113 0.748-0.212 1.115-0.24 1.298-0.071 2.455 0.296 3.499 1.072z"></path>
<path d="M17.355 1.75c-0.903-0.028-1.637 0.31-2.3 0.903-0.198 0.169-0.494 0.268-0.621-0.028-0.056-0.155 0.071-0.494 0.226-0.593 0.847-0.536 1.764-0.593 2.695-0.282z"></path>
<path d="M16.945 2.441c-0.212 0.226-0.409 0.466-0.649 0.677-0.085 0.085-0.254 0.085-0.381 0.127 0.028-0.141 0.014-0.367 0.099-0.423 0.268-0.183 0.593-0.31 0.889-0.466 0.014 0.028 0.028 0.056 0.042 0.085z"></path>
</svg>
