<?xml version="1.0" encoding="utf-8"?>
<!-- Generator: Adobe Illustrator 22.1.0, SVG Export Plug-In . SVG Version: 6.00 Build 0)  -->
<svg version="1.1" id="Layer_1" xmlns="http://www.w3.org/2000/svg" xmlns:xlink="http://www.w3.org/1999/xlink" x="0px" y="0px"
	 viewBox="0 0 226.8 226.8" style="enable-background:new 0 0 226.8 226.8;" xml:space="preserve">
<g>
	<path d="M201.9,51.3c-1.8-0.3-3.2-0.4-4.5-0.6c-8.7-1.5-17.5-2.5-26.2-0.1c-2.9,0.8-5.8,1.9-8.6,3.1c-3.9,1.8-5.7,5-6.1,9.3
		c-0.7,8.4,2.1,16.1,4.4,23.9c5.6,18.9,7.6,38,3.1,57.4c-2.7,11.8-9.7,20.7-18.8,28.3c-10.6,9-23.2,12.4-36.5,14.7
		c-13.7,2.4-27.5,4.6-41,8c-14.2,3.6-25.2,12-32.1,25.3c-0.5,1.1-0.9,2.2-1.4,3.3c-0.4,1.1-0.9,2.2-1.5,3.9
		c-0.5-1.2-0.8-1.7-0.9-2.3c-1-13.6-2.6-27.1-2.6-40.7c-0.1-19.2,4.1-37.7,13.6-54.6C52.5,113.1,66.7,100.4,84,91
		c4.9-2.6,9.7-5.3,14.7-7.8c11.6-5.8,15.7-16.1,17.4-28.2c1-7.3,2.1-14.7,4.1-21.7c2.7-9.7,9.7-15.3,19.3-18.1
		c12.6-3.6,23.8-0.1,34.2,6.5c11.1,7,19.8,16.6,27.2,27.4C201.3,49.5,201.4,50.2,201.9,51.3z M53.3,177.8c0.4,0.1,0.8,0.2,1.1,0.3
		c0.5-0.4,1-0.8,1.4-1.3c5.7-6.8,13.1-10.5,21.8-11.2c5.5-0.4,11.1,0,16.6,0c7.8,0,15.6,1,23.3-1.3c15.1-4.5,23.4-21.3,17.8-36
		c-3.9-10.4-17.5-18-29.6-16.6c-14.2,1.6-25.3,8.9-34.3,19.5c-8.8,10.4-13.4,22.8-16.6,35.8C53.9,170.6,53.8,174.2,53.3,177.8z
		 M159.9,50c0.2,0.2,0.5,0.5,0.7,0.7c1.4-0.6,2.7-1.3,4.1-1.9c6.3-2.9,13.1-2.6,19.8-2.7c1.5,0,3-0.2,4.5-0.4c0-0.3,0-0.7,0-1
		c-6.3-3.9-13-5.9-20.5-3.3C164.3,43,161.4,45.9,159.9,50z"/>
	<path d="M129.3,7.6c-3-0.7-6-1.6-9.1-2.2c-5.6-1.1-11-0.4-16,2.6c-1.6,0.9-3.3,1.8-5,2.3c-3.2,1-5.8-0.1-6.5-2.5
		c-0.8-2.6,0.7-5.2,3.9-6.1c2.6-0.8,5.3-1.5,7.9-1.7C113.7-0.5,121.9,2.1,129.3,7.6z"/>
	<path d="M123,12.4c-6.4-0.2-11.6,2.2-16.3,6.4c-1.4,1.2-3.5,1.9-4.4-0.2c-0.4-1.1,0.5-3.5,1.6-4.2C109.9,10.6,116.4,10.2,123,12.4z
		"/>
	<path d="M120.1,17.3c-1.5,1.6-2.9,3.3-4.6,4.8c-0.6,0.6-1.8,0.6-2.7,0.9c0.2-1,0.1-2.6,0.7-3c1.9-1.3,4.2-2.2,6.3-3.3
		C119.9,16.9,120,17.1,120.1,17.3z"/>
</g>
</svg>
