<!-- Generated by IcoMoon.io -->
<svg version="1.1" xmlns="http://www.w3.org/2000/svg" width="32" height="32" viewBox="0 0 32 32">
<title>SWIFT</title>
<path d="M15.817 0l-6.406 3.697 6.406 3.697zM8.72 11.499v-7.407l-6.406 3.697zM8.72 19.725v-7.393l-6.406 3.697zM22.928 19.725v-7.393l-6.406 3.697zM8.72 27.951v-7.393l-6.406 3.697zM2.102 16.437v7.393l6.406-3.697zM2.102 8.212v7.393l6.406-3.697zM9.213 4.092v7.407l6.406-3.711zM15.817 32v-7.393l-6.406 3.697zM9.213 20.501v7.393l6.406-3.697zM16.325 0v7.393l6.406-3.697zM23.422 4.092v7.407l6.392-3.711zM23.422 12.332v7.393l6.392-3.697zM23.422 27.951l6.392-3.697-6.392-3.697zM30.039 23.831v-7.393l-6.406 3.697zM23.633 11.908l6.406 3.697v-7.393zM22.928 11.499v-7.407l-6.406 3.697zM16.325 32l6.406-3.697-6.406-3.697zM22.928 27.894v-7.393l-6.406 3.697z"></path>
</svg>
