<?xml version="1.0" encoding="utf-8"?>
<!-- Generator: Adobe Illustrator 22.1.0, SVG Export Plug-In . SVG Version: 6.00 Build 0)  -->
<svg version="1.1" id="Layer_1" xmlns="http://www.w3.org/2000/svg" xmlns:xlink="http://www.w3.org/1999/xlink" x="0px" y="0px"
	 viewBox="0 0 226.8 226.8" style="enable-background:new 0 0 226.8 226.8;" xml:space="preserve">
<g>
	<path d="M225.4,54.4c-0.4,0.6-1.3,2.4-2.7,3.6c-22.3,18.5-44.7,36.8-67.1,55.2c-9.1,7.5-18.2,15.1-27.4,22.5c-3,2.4-4.2,5.2-4.2,9
		c0,17.8-0.2,35.6-0.6,53.4c-0.1,2.5-1.5,5-2.4,7.5c-2.4-1.1-5.4-1.7-7.3-3.4c-12.3-11.2-24.4-22.6-36.5-34.1
		c-12.1-11.4-24.1-23-36.3-34.3c-3.4-3.2-5.1-6.5-5-11.3c0.3-11,0.1-22,0.2-33c0-7.6,0.1-7.6-7.8-7.7c-6.8-0.1-13.7,0.2-20.5-0.2
		c-2.2-0.1-4.3-1.7-6.4-2.6c0.9-2,1.2-4.5,2.6-6c10.4-10.8,21.1-21.3,31.7-31.9c4.1-4.1,6.4-4,10.6,0.1
		c11.9,11.7,23.8,23.3,35.4,35.2c2.9,3,4.9,3,7.8,0.1c8.6-8.4,17.2-16.7,26.1-24.7c2.1-1.9,5.5-3.3,8.3-3.3
		c31.8-0.1,63.6,0,95.4,0.1C222.4,48.9,225.4,48.8,225.4,54.4z M48.7,126.8c0.5,1,0.6,1.5,0.9,1.8c10.8,9.9,21.6,19.8,32.6,29.4
		c0.8,0.7,3.5,0.4,4.6-0.4c4.7-3.5,9.1-7.3,13.6-11c30.2-24.8,60.4-49.7,90.7-74.5c5.4-4.4,10.8-8.9,17.2-14.1
		c-2.6-0.3-3.7-0.6-4.8-0.6c-24.5,0.1-49,0.3-73.4,0.2c-5,0-8.8,1.5-12.4,5C101.3,78,84.7,93.2,68.2,108.5
		C61.6,114.6,55.1,120.7,48.7,126.8z M46.6,115.6c1.8-1.2,2.9-1.9,3.8-2.7c7.7-7.3,15.2-14.8,23.2-21.9c3.8-3.4,3.8-5.7,0.2-9.2
		c-8.1-7.8-16-15.9-24-23.9c-0.8-0.8-1.9-1.4-3.2-2.2C46.6,75.8,46.6,95.3,46.6,115.6z M114.8,189.7c0-14.5,0-27.6,0-40.7
		c-0.7-0.1-1.2-0.3-1.3-0.1c-6.7,5.5-13.3,10.9-19.9,16.5c-0.5,0.5-0.4,2.7,0.2,3.3C100.4,175.5,107.1,182.1,114.8,189.7z M36.1,57
		c-5.4,5.4-10.9,10.9-16.3,16.4c4.1,0,8.7,0.2,13.2-0.2c1.1-0.1,2.8-2.3,3-3.6C36.3,65.2,36.1,60.7,36.1,57z"/>
</g>
</svg>
