<!-- Generated by IcoMoon.io -->
<svg version="1.1" xmlns="http://www.w3.org/2000/svg" width="32" height="32" viewBox="0 0 32 32">
<title>SWM</title>
<path d="M31.802 7.676c-0.056 0.085-0.183 0.339-0.381 0.508-3.146 2.61-6.307 5.192-9.467 7.788-1.284 1.058-2.568 2.13-3.866 3.175-0.423 0.339-0.593 0.734-0.593 1.27 0 2.511-0.028 5.023-0.085 7.534-0.014 0.353-0.212 0.705-0.339 1.058-0.339-0.155-0.762-0.24-1.030-0.48-1.735-1.58-3.443-3.189-5.15-4.811-1.707-1.608-3.4-3.245-5.122-4.84-0.48-0.451-0.72-0.917-0.705-1.594 0.042-1.552 0.014-3.104 0.028-4.656 0-1.072 0.014-1.072-1.101-1.086-0.959-0.014-1.933 0.028-2.892-0.028-0.31-0.014-0.607-0.24-0.903-0.367 0.127-0.282 0.169-0.635 0.367-0.847 1.467-1.524 2.977-3.005 4.473-4.501 0.578-0.578 0.903-0.564 1.496 0.014 1.679 1.651 3.358 3.287 4.995 4.966 0.409 0.423 0.691 0.423 1.101 0.014 1.213-1.185 2.427-2.356 3.683-3.485 0.296-0.268 0.776-0.466 1.171-0.466 4.487-0.014 8.974 0 13.46 0.014 0.437 0.042 0.861 0.028 0.861 0.818zM6.871 17.891c0.071 0.141 0.085 0.212 0.127 0.254 1.524 1.397 3.048 2.794 4.6 4.148 0.113 0.099 0.494 0.056 0.649-0.056 0.663-0.494 1.284-1.030 1.919-1.552 4.261-3.499 8.522-7.012 12.797-10.511 0.762-0.621 1.524-1.256 2.427-1.989-0.367-0.042-0.522-0.085-0.677-0.085-3.457 0.014-6.914 0.042-10.356 0.028-0.705 0-1.242 0.212-1.75 0.705-2.314 2.173-4.656 4.317-6.984 6.476-0.931 0.861-1.848 1.721-2.751 2.582zM6.575 16.31c0.254-0.169 0.409-0.268 0.536-0.381 1.086-1.030 2.145-2.088 3.273-3.090 0.536-0.48 0.536-0.804 0.028-1.298-1.143-1.101-2.258-2.243-3.386-3.372-0.113-0.113-0.268-0.198-0.452-0.31 0 2.836 0 5.587 0 8.451zM16.198 26.765c0-2.046 0-3.894 0-5.742-0.099-0.014-0.169-0.042-0.183-0.014-0.945 0.776-1.877 1.538-2.808 2.328-0.071 0.071-0.056 0.381 0.028 0.466 0.931 0.959 1.877 1.891 2.963 2.963zM5.093 8.042c-0.762 0.762-1.538 1.538-2.3 2.314 0.578 0 1.228 0.028 1.862-0.028 0.155-0.014 0.395-0.325 0.423-0.508 0.042-0.621 0.014-1.256 0.014-1.778z"></path>
</svg>
