<?xml version="1.0" encoding="utf-8"?>
<!-- Generator: Adobe Illustrator 22.0.1, SVG Export Plug-In . SVG Version: 6.00 Build 0)  -->
<svg version="1.1" id="Layer_1" xmlns="http://www.w3.org/2000/svg" xmlns:xlink="http://www.w3.org/1999/xlink" x="0px" y="0px"
	 viewBox="0 0 250 250" style="enable-background:new 0 0 250 250;" xml:space="preserve">
<style type="text/css">
	.st0{stroke:#FFFFFF;stroke-miterlimit:10;}
</style>
<g>
	<path class="st0" d="M190.1,70.1c-37.1,0-67.8,29.8-95.5,54.6c-8-7-16.9-15.6-23.8-23.8c-0.7-0.8-1.6-1-2.1-0.7
		c-0.7,0.5-0.8,1.5-0.2,2.1c6.4,7.8,14.8,17.3,22.8,25.3c-14.8,14-37.5,31-55.7,31c-36.8,0-37-51-4.7-60.6c1.5-0.3,1.5-2.1,0-1.6
		c-42.2,10.4-39.9,69.9,5.5,69.9c21.7,0,41.5-14.5,61.6-31.6c21.7,19.6,49,35.5,84.2,35.5C271.6,170.1,269,70.1,190.1,70.1
		 M181.6,162.5c-28.2-0.2-55.6-12.5-79.5-31.3c27.2-23.6,54.7-50.7,87.2-50.7C252.5,80.5,254.1,163,181.6,162.5"/>
	<circle class="st0" cx="50.1" cy="91.1" r="9.1"/>
</g>
</svg>
