<!-- Generated by IcoMoon.io -->
<svg version="1.1" xmlns="http://www.w3.org/2000/svg" width="32" height="32" viewBox="0 0 32 32">
<title>SWT</title>
<path d="M24.333 8.973c-4.749 0-8.678 3.814-12.224 6.989-1.024-0.896-2.163-1.997-3.046-3.046-0.090-0.102-0.205-0.128-0.269-0.090-0.090 0.064-0.102 0.192-0.026 0.269 0.819 0.998 1.894 2.214 2.918 3.238-1.894 1.792-4.8 3.968-7.13 3.968-4.71 0-4.736-6.528-0.602-7.757 0.192-0.038 0.192-0.269 0-0.205-5.402 1.331-5.107 8.947 0.704 8.947 2.778 0 5.312-1.856 7.885-4.045 2.778 2.509 6.272 4.544 10.778 4.544 11.443-0.013 11.11-12.813 1.011-12.813M23.245 20.8c-3.61-0.026-7.117-1.6-10.176-4.006 3.482-3.021 7.002-6.49 11.162-6.49 8.090 0 8.294 10.56-0.986 10.496"></path>
<path d="M7.578 11.661c0 0.643-0.521 1.165-1.165 1.165s-1.165-0.521-1.165-1.165c0-0.643 0.521-1.165 1.165-1.165s1.165 0.521 1.165 1.165z"></path>
</svg>
