<?xml version="1.0" encoding="utf-8"?>
<!-- Generator: Adobe Illustrator 22.1.0, SVG Export Plug-In . SVG Version: 6.00 Build 0)  -->
<svg version="1.1" id="Layer_1" xmlns="http://www.w3.org/2000/svg" xmlns:xlink="http://www.w3.org/1999/xlink" x="0px" y="0px"
	 viewBox="0 0 226.8 226.8" style="enable-background:new 0 0 226.8 226.8;" xml:space="preserve">
<g>
	<path d="M226.8,70.4c0.3,4.7-1.7,8.5-6.7,10.9c-7.7,3.7-15.2,8-23.1,11.4c-6.5,2.8-9.2,6.9-9.1,14.3c0.1,15.7-0.9,31.4-1.2,47.1
		c-0.1,4.4-2.3,7.2-5.9,9.1c-17.1,9.1-34.1,18.1-51.2,27.1c-0.8,0.4-1.7,0.8-2.6,1.1c-4.9,1.5-7.3-0.1-7.8-5.1
		c-0.6-5.9,2.8-9.3,7.4-11.9c5.8-3.2,11.7-6.4,17.6-9.6c6.7-3.6,13.3-7.4,20.2-10.7c5.7-2.7,8-6.5,7.9-12.9
		c-0.4-14.1,0.2-28.2-0.2-42.2c-0.2-7.1,2.3-11.8,8.5-15.1c12.5-6.5,24.8-13.3,37.3-19.8C224,60.9,226.7,62.8,226.8,70.4z"/>
	<path d="M163.8,81.2c-1.6,1.1-2.6,2-3.8,2.6c-8.5,4.3-17,8.7-25.5,12.8c-13.3,6.5-26.8,7.9-40.5,1c-10.6-5.3-21.2-10.6-32.6-16.2
		c1.8-1.6,2.5-2.5,3.4-3c14.4-7.5,28.7-14.9,43.1-22.4c2.9-1.5,5.4-2.2,8.7-0.5c14.7,7.8,29.6,15.4,44.4,23.1
		C161.9,79.1,162.6,80,163.8,81.2z"/>
	<path d="M54.7,122.4c0,6.7,0.2,13.4-0.1,20c-0.2,5.2,1.9,8.5,6.4,10.9c12,6.3,23.9,12.9,35.9,19.4c2.5,1.4,5.1,2.7,7.2,4.6
		c1.6,1.5,2.9,3.8,3.4,6c0.6,2.7,1.1,6.3-1.9,7.7c-2,0.9-5.3,0.6-7.3-0.4c-11.3-5.6-22.4-11.7-33.6-17.6c-5.7-3-11.3-6.1-17.1-9
		c-5-2.5-7.3-6.4-7.4-12c-0.3-15.9-1.1-31.9-1.3-47.8c-0.1-5-2.1-8-6.4-10.1c-8.4-4.1-16.7-8.3-25-12.5c-6.4-3.3-8.3-6.9-7.4-13.8
		c0.6-4.4,2.7-6,6.9-4.4c3.8,1.5,7.4,3.4,10.9,5.3c9.4,5.1,18.8,10.4,28.3,15.4c4.1,2.2,7,5,7.2,9.8c0.5,8.5,0.8,17.1,1.2,25.6
		C54.8,120.5,54.7,121.4,54.7,122.4z"/>
	<path d="M106.2,171.6c-1.6-0.6-3.4-1.1-5-1.9c-12.2-6.5-24.4-13-36.7-19.5c-2.5-1.3-4.2-2.7-4.2-5.9c-0.3-15.5-0.9-31-1.3-46.5
		c0-1.5,0.5-3.1,1-5.6c3.9,2.1,7.3,3.6,10.5,5.6c8.1,5,16.2,10,24.1,15.3c6,4,9.3,10.2,10.9,17.1c3.1,13.1,2.4,26.5,1.8,39.9
		C107.4,170.5,106.8,170.9,106.2,171.6z"/>
	<path d="M119.3,172.2c-0.4-16-1.1-30.7,3-45.1c2-6.9,6.8-12.2,12.6-16c9.8-6.4,20-12,30.1-17.9c0.3-0.2,0.9,0.1,1.8,0.2
		c2,5.1,0.8,10.6,0.7,15.9c-0.2,10.9-0.9,21.9-1,32.8c0,4.4-1.6,6.9-5.5,8.8c-12.3,6.2-24.5,12.8-36.7,19.2
		C123.2,170.8,121.9,171.2,119.3,172.2z"/>
	<path d="M170.8,77.7c-2.5-0.9-5.2-1.7-7.7-3c-13.2-6.7-26.5-13.2-39.4-20.5c-7.3-4.1-13.5-3.9-20.7,0.2C90,61.6,76.7,68,63.6,74.9
		c-5.2,2.8-10.3,3.6-15.5,0.1c-6.1-4.1-6.1-7.3,0.4-10.7c14-7.3,28-14.5,42-21.8c4.9-2.5,9.7-5.1,14.5-7.8c4.7-2.8,9.3-3.2,14.3-0.6
		c6.8,3.5,13.7,6.8,20.5,10.3c12.5,6.4,25.1,12.8,37.6,19.4c2.6,1.4,6.9,2.3,5.9,6c-0.7,2.4-4.1,4.2-6.5,5.9
		C175.1,76.7,173,76.9,170.8,77.7z"/>
	<path d="M221,86.5c0,5,0.2,8.7-0.1,12.4c-0.1,1.4-1.3,3.2-2.6,3.8c-8.1,4.4-16.4,8.5-25.9,13.4c0-5.3-0.1-9.5,0.1-13.7
		c0-1,0.8-2.5,1.7-2.9C202.6,95.3,211.2,91.2,221,86.5z"/>
	<path d="M33.8,114.8c-7.7-3.9-15.2-7.8-22.9-11.6c-2.7-1.3-3.9-3.2-3.8-6.2c0.1-3.3,0-6.6,0-11.1c3.4,1.6,5.9,2.6,8.4,3.8
		c3.2,1.6,6.4,3.2,9.6,4.8C36,100.1,36.8,101.7,33.8,114.8z"/>
</g>
</svg>
