<!-- Generated by IcoMoon.io -->
<svg version="1.1" xmlns="http://www.w3.org/2000/svg" width="32" height="32" viewBox="0 0 32 32">
<title>SXDT</title>
<path d="M32 9.933c0.042 0.663-0.24 1.199-0.945 1.538-1.086 0.522-2.145 1.129-3.259 1.608-0.917 0.395-1.298 0.974-1.284 2.018 0.014 2.215-0.127 4.43-0.169 6.645-0.014 0.621-0.325 1.016-0.832 1.284-2.413 1.284-4.811 2.554-7.224 3.824-0.113 0.056-0.24 0.113-0.367 0.155-0.691 0.212-1.030-0.014-1.101-0.72-0.085-0.832 0.395-1.312 1.044-1.679 0.818-0.451 1.651-0.903 2.483-1.355 0.945-0.508 1.877-1.044 2.85-1.51 0.804-0.381 1.129-0.917 1.115-1.82-0.056-1.989 0.028-3.979-0.028-5.954-0.028-1.002 0.325-1.665 1.199-2.13 1.764-0.917 3.499-1.877 5.263-2.794 0.861-0.451 1.242-0.183 1.256 0.889z"></path>
<path d="M23.111 11.457c-0.226 0.155-0.367 0.282-0.536 0.367-1.199 0.607-2.399 1.227-3.598 1.806-1.877 0.917-3.781 1.115-5.714 0.141-1.496-0.748-2.991-1.496-4.6-2.286 0.254-0.226 0.353-0.353 0.48-0.423 2.032-1.058 4.049-2.102 6.081-3.16 0.409-0.212 0.762-0.31 1.227-0.071 2.074 1.101 4.176 2.173 6.265 3.259 0.127 0.071 0.226 0.198 0.395 0.367z"></path>
<path d="M7.718 17.27c0 0.945 0.028 1.891-0.014 2.822-0.028 0.734 0.268 1.199 0.903 1.538 1.693 0.889 3.372 1.82 5.065 2.737 0.353 0.198 0.72 0.381 1.016 0.649 0.226 0.212 0.409 0.536 0.48 0.847 0.085 0.381 0.155 0.889-0.268 1.086-0.282 0.127-0.748 0.085-1.030-0.056-1.594-0.79-3.16-1.651-4.741-2.483-0.804-0.423-1.594-0.861-2.413-1.27-0.705-0.353-1.030-0.903-1.044-1.693-0.042-2.243-0.155-4.501-0.183-6.744-0.014-0.705-0.296-1.129-0.903-1.425-1.185-0.578-2.356-1.171-3.527-1.764-0.903-0.466-1.171-0.974-1.044-1.947 0.085-0.621 0.381-0.847 0.974-0.621 0.536 0.212 1.044 0.48 1.538 0.748 1.326 0.72 2.653 1.467 3.993 2.173 0.578 0.31 0.988 0.705 1.016 1.383 0.071 1.199 0.113 2.413 0.169 3.612 0.028 0.141 0.014 0.268 0.014 0.409z"></path>
<path d="M14.984 24.212c-0.226-0.085-0.48-0.155-0.705-0.268-1.721-0.917-3.443-1.834-5.178-2.751-0.353-0.183-0.593-0.381-0.593-0.832-0.042-2.187-0.127-4.374-0.183-6.561 0-0.212 0.071-0.437 0.141-0.79 0.55 0.296 1.030 0.508 1.481 0.79 1.143 0.705 2.286 1.411 3.4 2.159 0.847 0.564 1.312 1.439 1.538 2.413 0.437 1.848 0.339 3.739 0.254 5.63 0.014 0.056-0.071 0.113-0.155 0.212z"></path>
<path d="M16.832 24.296c-0.056-2.258-0.155-4.332 0.423-6.363 0.282-0.974 0.959-1.721 1.778-2.258 1.383-0.903 2.822-1.693 4.247-2.526 0.042-0.028 0.127 0.014 0.254 0.028 0.282 0.72 0.113 1.496 0.099 2.243-0.028 1.538-0.127 3.090-0.141 4.628 0 0.621-0.226 0.974-0.776 1.242-1.735 0.875-3.457 1.806-5.178 2.709-0.155 0.099-0.339 0.155-0.705 0.296z"></path>
<path d="M24.099 10.963c-0.353-0.127-0.734-0.24-1.086-0.423-1.862-0.945-3.739-1.862-5.559-2.892-1.030-0.578-1.905-0.55-2.921 0.028-1.834 1.016-3.711 1.919-5.559 2.892-0.734 0.395-1.453 0.508-2.187 0.014-0.861-0.578-0.861-1.030 0.056-1.51 1.975-1.030 3.951-2.046 5.926-3.076 0.691-0.353 1.369-0.72 2.046-1.101 0.663-0.395 1.312-0.452 2.018-0.085 0.959 0.494 1.933 0.959 2.892 1.453 1.764 0.903 3.541 1.806 5.305 2.737 0.367 0.198 0.974 0.325 0.832 0.847-0.099 0.339-0.578 0.593-0.917 0.832-0.24 0.141-0.536 0.169-0.847 0.282z"></path>
<path d="M31.182 12.205c0 0.705 0.028 1.227-0.014 1.75-0.014 0.198-0.183 0.451-0.367 0.536-1.143 0.621-2.314 1.199-3.654 1.891 0-0.748-0.014-1.34 0.014-1.933 0-0.141 0.113-0.353 0.24-0.409 1.185-0.593 2.399-1.171 3.781-1.834z"></path>
<path d="M4.769 16.198c-1.086-0.55-2.145-1.101-3.231-1.637-0.381-0.183-0.55-0.451-0.536-0.875 0.014-0.466 0-0.931 0-1.566 0.48 0.226 0.832 0.367 1.185 0.536 0.452 0.226 0.903 0.451 1.354 0.677 1.538 0.79 1.651 1.016 1.228 2.864z"></path>
</svg>
