<!-- Generated by IcoMoon.io -->
<svg version="1.1" xmlns="http://www.w3.org/2000/svg" width="32" height="32" viewBox="0 0 32 32">
<title>SYS</title>
<path d="M17.427 22.189v-4.234c0.603-0.425 0.999-1.123 0.999-1.918 0-1.296-1.051-2.347-2.348-2.347s-2.347 1.052-2.347 2.347c0 0.775 0.38 1.458 0.96 1.885v4.435l-2.473 3.172s1.934 0.868 3.86 0.868c1.927 0 3.873-0.815 3.873-0.815l-2.525-3.394z"></path>
<path d="M16 0c-8.837 0-16 7.163-16 16s7.163 16 16 16c8.837 0 16-7.164 16-16s-7.163-16-16-16zM16.085 3.109c0.462 0.001 0.836 0.375 0.837 0.837v0c-0 0.462-0.375 0.836-0.837 0.837h-0c-0.461 0-0.836-0.376-0.836-0.837s0.375-0.837 0.836-0.837zM16 30.928c-8.245 0-14.929-6.683-14.929-14.928 0-7.684 5.805-14.008 13.268-14.834v0.511c-0.345 0.064-0.608 0.366-0.608 0.729 0 0.41 0.333 0.743 0.743 0.743h0c0.41-0 0.743-0.333 0.743-0.743v-0c0-0.364-0.263-0.665-0.608-0.729v-0.538c0.413-0.038 0.832-0.059 1.255-0.063v1.677c-0.565 0.105-0.994 0.598-0.994 1.193 0 0.67 0.545 1.215 1.215 1.215s1.216-0.545 1.216-1.215c0-0.594-0.43-1.088-0.994-1.193v-1.673c0.418 0.008 0.833 0.029 1.241 0.071v0.526c-0.345 0.064-0.608 0.366-0.608 0.729 0 0.41 0.334 0.743 0.744 0.743s0.743-0.333 0.743-0.743c0-0.364-0.263-0.665-0.608-0.729v-0.491c7.387 0.898 13.11 7.185 13.11 14.814 0 8.245-6.683 14.928-14.928 14.928zM14.475 1.894c0.277 0.008 0.498 0.234 0.498 0.512s-0.221 0.504-0.497 0.512l-0.001 0c-0.283-0-0.512-0.23-0.512-0.512v0c0-0.282 0.229-0.511 0.512-0.512h0zM17.683 1.894c0.276 0.008 0.497 0.234 0.497 0.512s-0.221 0.504-0.497 0.512l-0.001 0c-0.283-0-0.512-0.23-0.512-0.512v-0c0-0.282 0.229-0.511 0.512-0.512h0z"></path>
<path d="M14.7 12.786h0c0.405-0.177 0.877-0.28 1.374-0.28 0.002 0 0.003 0 0.005 0h-0c0.478 0 0.933 0.096 1.348 0.268v-2.506l4.617-6.879c-0.894-0.429-1.842-0.763-2.829-0.995l-3.166 4.718-3.179-4.737c-1.082 0.25-2.029 0.587-2.922 1.017l0.083-0.036 4.67 6.959v2.471z"></path>
<path d="M13.731 18.671c-0.725-0.648-1.184-1.586-1.184-2.634 0-0.437 0.083-0.854 0.229-1.241h-7.943s0.217-2.131 0.947-3.847c0.73-1.717 2.703-3.137 2.703-3.137l2.367 3.314v1.934h2.881v-2.407l-4.699-6.773c-4.19 2.415-7.014 6.936-7.014 12.12 0 0.473 0.024 0.94 0.070 1.401h8.802v3.63l-2.644 3.196s-1.25-1.263-2.012-2.434c-0.763-1.171-1.289-3.209-1.289-3.209h-2.685c0.738 3.949 3.135 7.315 6.442 9.343l5.029-6.245v-3.011zM29.911 17.401c0.046-0.461 0.070-0.928 0.070-1.401 0-5.137-2.772-9.625-6.9-12.054l-4.655 6.708v2.407h2.881v-1.933l2.367-3.314s1.973 1.42 2.703 3.137c0.73 1.716 0.947 3.847 0.947 3.847h-7.943c0.144 0.368 0.228 0.795 0.228 1.24v0c0 1.048-0.459 1.986-1.184 2.634v3.011l4.974 6.179c3.253-2.035 5.608-5.369 6.338-9.276h-2.526s-0.527 2.038-1.289 3.209c-0.762 1.171-2.012 2.434-2.012 2.434l-2.644-3.196v-3.63h8.644zM18.284 27.576h1.716v-0.932c-0.467 0.193-1.039 0.38-1.627 0.526l-0.089 0.019v0.387zM16.189 27.576h1.715v-0.302c-0.539 0.111-1.122 0.189-1.715 0.197v0.105zM16.189 27.954h1.715v0.871h-1.715zM18.284 27.954h1.716v0.871h-1.716zM20.378 26.486v1.090h1.111l-0.919-1.178s-0.070 0.034-0.192 0.088zM20.378 27.954v0.871h1.187c0.31-0.133 0.527-0.235 0.741-0.343l-0.081 0.037-0.441-0.565h-1.406zM9.75 28.506c0.143 0.076 0.368 0.183 0.596 0.284l0.088 0.035h1.187v-0.871h-1.418l-0.454 0.551zM14.095 27.576h1.716v-0.11c-0.59-0.021-1.175-0.107-1.716-0.223v0.333zM18.284 29.791c0.674-0.111 1.252-0.248 1.815-0.419l-0.1 0.026v-0.195h-1.716v0.587zM10.514 27.576h1.107v-1.117c-0.074-0.030-0.12-0.051-0.165-0.072l0.026 0.011-0.968 1.178zM16.189 29.976c0.613-0.008 1.207-0.055 1.79-0.137l-0.074 0.009v-0.644h-1.715v0.772zM12 27.954h1.716v0.871h-1.716zM14.095 27.954h1.716v0.871h-1.716zM14.095 29.847c0.562 0.077 1.134 0.12 1.716 0.129v-0.772h-1.716v0.644zM12 27.576h1.716v-0.42c-0.686-0.171-1.258-0.357-1.813-0.576l0.097 0.034v0.963zM12 29.397c0.465 0.146 1.043 0.283 1.635 0.382l0.081 0.011v-0.587h-1.716v0.194z"></path>
</svg>
