<!-- Generated by IcoMoon.io -->
<svg version="1.1" xmlns="http://www.w3.org/2000/svg" width="32" height="32" viewBox="0 0 32 32">
<title>TAU</title>
<path d="M20.952 20.247c1.030-1.044 2.102-2.131 3.189-3.231 0 2.173 0 4.317 0 6.476-1.086-1.115-2.159-2.187-3.189-3.245z"></path>
<path d="M16.423 25.552c1.101 1.086 2.173 2.173 3.231 3.231-1.072 1.058-2.145 2.131-3.231 3.217 0-2.116 0-4.261 0-6.448z"></path>
<path d="M15.619 25.651c0 2.060 0 4.205 0 6.307-1.058-1.058-2.116-2.145-3.161-3.189 1.016-1.002 2.102-2.074 3.16-3.118z"></path>
<path d="M20.205 28.078c-1.002-1.002-2.060-2.060-3.146-3.146 2.145 0 4.289 0 6.335 0-1.044 1.016-2.131 2.088-3.189 3.146z"></path>
<path d="M8.55 24.931c2.13 0 4.275 0 6.406 0-1.086 1.086-2.173 2.145-3.217 3.189-1.016-1.030-2.102-2.102-3.189-3.189z"></path>
<path d="M23.422 24.127c-2.060 0-4.19 0-6.293 0 1.072-1.058 2.145-2.116 3.189-3.146 0.974 1.002 2.046 2.074 3.104 3.146z"></path>
<path d="M8.508 24.113c1.101-1.101 2.159-2.159 3.203-3.203 1.058 1.058 2.13 2.131 3.189 3.203-2.074 0-4.233 0-6.392 0z"></path>
<path d="M7.901 17.002c1.101 1.086 2.159 2.159 3.203 3.189-1.072 1.058-2.159 2.116-3.203 3.146 0-2.004 0-4.148 0-6.335z"></path>
<path d="M3.852 20.233c1.044-1.044 2.116-2.102 3.203-3.175 0 2.131 0 4.261 0 6.363-1.058-1.058-2.131-2.131-3.203-3.189z"></path>
<path d="M3.189 19.612c-1.044-1.058-2.116-2.116-3.189-3.203 2.145 0 4.289 0 6.42 0-1.072 1.072-2.145 2.131-3.231 3.203z"></path>
<path d="M24.988 17.072c1.072 1.058 2.145 2.131 3.203 3.175-1.072 1.044-2.145 2.102-3.203 3.146 0-2.060 0-4.205 0-6.321z"></path>
<path d="M25.623 16.409c2.131 0 4.261 0 6.377 0-1.072 1.072-2.145 2.131-3.217 3.203-1.030-1.044-2.088-2.116-3.16-3.203z"></path>
<path d="M25.651 15.549c1.072-1.072 2.131-2.13 3.189-3.175 1.030 1.044 2.088 2.116 3.132 3.175-2.088 0-4.219 0-6.321 0z"></path>
<path d="M6.377 15.549c-2.088 0-4.219 0-6.307 0 1.044-1.058 2.102-2.13 3.146-3.175 1.030 1.044 2.102 2.116 3.16 3.175z"></path>
<path d="M24.099 14.843c-1.044-1.030-2.116-2.074-3.175-3.118 1.058-1.044 2.131-2.088 3.175-3.104 0 2.032 0 4.148 0 6.222z"></path>
<path d="M17.185 7.887c2.060 0 4.148 0 6.208 0-1.044 1.044-2.088 2.088-3.118 3.104-0.988-0.988-2.032-2.032-3.090-3.104z"></path>
<path d="M3.88 11.668c1.030-1.030 2.088-2.074 3.16-3.146 0 2.13 0 4.261 0 6.349-1.030-1.058-2.088-2.116-3.16-3.203z"></path>
<path d="M16.48 0.071c1.030 1.016 2.088 2.060 3.132 3.090-1.044 1.030-2.116 2.060-3.132 3.062 0-1.975 0-4.092 0-6.152z"></path>
<path d="M24.974 14.787c0-2.004 0-4.12 0-6.152 1.016 1.016 2.074 2.074 3.104 3.104-0.988 0.974-2.060 2.018-3.104 3.048z"></path>
<path d="M17.157 7.012c1.044-1.044 2.088-2.102 3.090-3.118 1.016 1.030 2.074 2.102 3.076 3.118-1.975 0-4.092 0-6.166 0z"></path>
<path d="M11.019 11.781c-1.002 0.988-2.046 2.046-3.090 3.090 0-2.074 0-4.162 0-6.194 1.002 1.016 2.046 2.060 3.090 3.104z"></path>
<path d="M14.857 7.915c-1.044 1.058-2.088 2.102-3.118 3.132-1.016-1.030-2.046-2.074-3.076-3.132 2.032 0 4.12 0 6.194 0z"></path>
<path d="M15.563 0.127c0 2.060 0 4.106 0 6.095-1.016-1.016-2.046-2.060-3.076-3.090 0.974-0.945 2.004-1.961 3.076-3.005z"></path>
<path d="M8.79 6.956c0.988-0.988 2.004-2.004 3.005-3.005 0.931 0.959 1.933 1.989 2.935 3.005-1.961 0-3.993 0-5.94 0z"></path>
</svg>
