<?xml version="1.0" encoding="utf-8"?>
<!-- Generator: Adobe Illustrator 22.1.0, SVG Export Plug-In . SVG Version: 6.00 Build 0)  -->
<svg version="1.1" id="Layer_1" xmlns="http://www.w3.org/2000/svg" xmlns:xlink="http://www.w3.org/1999/xlink" x="0px" y="0px"
	 viewBox="0 0 226.8 226.8" style="enable-background:new 0 0 226.8 226.8;" xml:space="preserve">
<g>
	<path d="M148.5,143.5c7.3-7.4,14.9-15.1,22.6-22.9c0,15.4,0,30.6,0,45.9C163.4,158.6,155.8,151,148.5,143.5z"/>
	<path d="M116.4,181.1c7.8,7.7,15.4,15.4,22.9,22.9c-7.6,7.5-15.2,15.1-22.9,22.8C116.4,211.8,116.4,196.6,116.4,181.1z"/>
	<path d="M110.7,181.8c0,14.6,0,29.8,0,44.7c-7.5-7.5-15-15.2-22.4-22.6C95.5,196.8,103.2,189.2,110.7,181.8z"/>
	<path d="M143.2,199c-7.1-7.1-14.6-14.6-22.3-22.3c15.2,0,30.4,0,44.9,0C158.4,183.9,150.7,191.5,143.2,199z"/>
	<path d="M60.6,176.7c15.1,0,30.3,0,45.4,0c-7.7,7.7-15.4,15.2-22.8,22.6C76,192,68.3,184.4,60.6,176.7z"/>
	<path d="M166,171c-14.6,0-29.7,0-44.6,0c7.6-7.5,15.2-15,22.6-22.3C150.9,155.8,158.5,163.4,166,171z"/>
	<path d="M60.3,170.9c7.8-7.8,15.3-15.3,22.7-22.7c7.5,7.5,15.1,15.1,22.6,22.7C90.9,170.9,75.6,170.9,60.3,170.9z"/>
	<path d="M56,120.5c7.8,7.7,15.3,15.3,22.7,22.6c-7.6,7.5-15.3,15-22.7,22.3C56,151.2,56,136,56,120.5z"/>
	<path d="M27.3,143.4c7.4-7.4,15-14.9,22.7-22.5c0,15.1,0,30.2,0,45.1C42.5,158.5,34.9,150.9,27.3,143.4z"/>
	<path d="M22.6,139c-7.4-7.5-15-15-22.6-22.7c15.2,0,30.4,0,45.5,0C37.9,123.9,30.3,131.4,22.6,139z"/>
	<path d="M177.1,121c7.6,7.5,15.2,15.1,22.7,22.5c-7.6,7.4-15.2,14.9-22.7,22.3C177.1,151.2,177.1,136,177.1,121z"/>
	<path d="M181.6,116.3c15.1,0,30.2,0,45.2,0c-7.6,7.6-15.2,15.1-22.8,22.7C196.7,131.6,189.2,124,181.6,116.3z"/>
	<path d="M181.8,110.2c7.6-7.6,15.1-15.1,22.6-22.5c7.3,7.4,14.8,15,22.2,22.5C211.8,110.2,196.7,110.2,181.8,110.2z"/>
	<path d="M45.2,110.2c-14.8,0-29.9,0-44.7,0c7.4-7.5,14.9-15.1,22.3-22.5C30.1,95.1,37.7,102.7,45.2,110.2z"/>
	<path d="M170.8,105.2c-7.4-7.3-15-14.7-22.5-22.1c7.5-7.4,15.1-14.8,22.5-22C170.8,75.5,170.8,90.5,170.8,105.2z"/>
	<path d="M121.8,55.9c14.6,0,29.4,0,44,0c-7.4,7.4-14.8,14.8-22.1,22C136.7,70.9,129.3,63.5,121.8,55.9z"/>
	<path d="M27.5,82.7c7.3-7.3,14.8-14.7,22.4-22.3c0,15.1,0,30.2,0,45C42.6,97.9,35.1,90.4,27.5,82.7z"/>
	<path d="M116.8,0.5c7.3,7.2,14.8,14.6,22.2,21.9c-7.4,7.3-15,14.6-22.2,21.7C116.8,30.1,116.8,15.1,116.8,0.5z"/>
	<path d="M177,104.8c0-14.2,0-29.2,0-43.6c7.2,7.2,14.7,14.7,22,22C192,90.1,184.4,97.5,177,104.8z"/>
	<path d="M121.6,49.7c7.4-7.4,14.8-14.9,21.9-22.1c7.2,7.3,14.7,14.9,21.8,22.1C151.3,49.7,136.3,49.7,121.6,49.7z"/>
	<path d="M78.1,83.5c-7.1,7-14.5,14.5-21.9,21.9c0-14.7,0-29.5,0-43.9C63.3,68.7,70.7,76.1,78.1,83.5z"/>
	<path d="M105.3,56.1C97.9,63.6,90.5,71,83.2,78.3C76,71,68.7,63.6,61.4,56.1C75.8,56.1,90.6,56.1,105.3,56.1z"/>
	<path d="M110.3,0.9c0,14.6,0,29.1,0,43.2c-7.2-7.2-14.5-14.6-21.8-21.9C95.4,15.5,102.7,8.3,110.3,0.9z"/>
	<path d="M62.3,49.3c7-7,14.2-14.2,21.3-21.3c6.6,6.8,13.7,14.1,20.8,21.3C90.5,49.3,76.1,49.3,62.3,49.3z"/>
</g>
</svg>
