<?xml version="1.0" encoding="utf-8"?>
<!-- Generator: Adobe Illustrator 22.1.0, SVG Export Plug-In . SVG Version: 6.00 Build 0)  -->
<svg version="1.1" id="Layer_1" xmlns="http://www.w3.org/2000/svg" xmlns:xlink="http://www.w3.org/1999/xlink" x="0px" y="0px"
	 viewBox="0 0 226.8 226.8" style="enable-background:new 0 0 226.8 226.8;" xml:space="preserve">
<g>
	<path d="M226.8,113.2c-0.7,63.6-50.8,113.4-113.4,113.4C48.7,226.6-0.2,174.5,0,112.9C0.2,50.1,50.5-0.1,113.2,0
		C177.9,0.1,226.2,51.7,226.8,113.2z M212.3,113.2c0.4-53.8-43.7-98.8-98.8-99c-53.1-0.2-99.3,43-99.3,99.2
		c0,54.2,44.3,98.9,98.9,99C166.2,212.5,212.7,169.5,212.3,113.2z"/>
	<path d="M165.9,57.8c0,6.3,0,12.3,0,19c-9.4,0-18.6,0-28.2,0c0,4.1,0,7.6,0,11.7c9.2,0,18.4,0,28,0c0,6.8,0,13,0,20
		c-9.2,0.9-18.6-0.1-28.1,0.6c0,10.3,0,20.1,0,30.5c9.4,0,18.6,0,28.1,0c0,6.9,0,13,0,19.8c-9.3,0-18.6,0-28.4,0
		c0,6.1,0,11.5,0,17.4c-6.3,0-11.9,0-18.3,0c0-5.5,0-10.9,0-16.8c-4,0-7.2,0-11.2,0c0,5.5,0,11,0,16.8c-6.3,0-12,0-18.2,0
		c-0.1-2.8-0.3-5.6-0.3-8.4c-0.1-2.7,0-5.3,0-8.5c-12.5-0.6-22.7-5.4-30-15.4c-5-6.9-7-14.7-6.4-23.3c1.1-17.6,14.4-29.9,36-33.1
		c0-3.4,0-6.9,0-11c-9.2,0-18.4,0-28,0c0-6.8,0-12.9,0-19C64.7,56.9,158.2,56.5,165.9,57.8z M89.1,108.9c-7.1-0.2-11.7,2.7-14.5,8.2
		c-2.8,5.5-2.4,11.1,1.3,16.1c3.2,4.3,7.5,6.7,13.2,5.9C89.1,129,89.1,119.3,89.1,108.9z M118.3,139.3c0-10.2,0-20.1,0-30.1
		c-3.6,0-6.7,0-10,0c0,10.3,0,20.1,0,30.1C111.9,139.3,115.1,139.3,118.3,139.3z M118.5,77.4c-3.8,0-6.9,0-10.2,0
		c0,3.7,0,7.1,0,10.7c3.6,0,6.8,0,10.2,0C118.5,84.4,118.5,81.1,118.5,77.4z"/>
</g>
</svg>
