<!-- Generated by IcoMoon.io -->
<svg version="1.1" xmlns="http://www.w3.org/2000/svg" width="32" height="32" viewBox="0 0 32 32">
<title>TCT</title>
<path d="M32 15.972c-0.099 8.974-7.168 16-16 16-9.129 0-16.028-7.351-16-16.042 0.028-8.861 7.125-15.944 15.972-15.929 9.129 0.014 15.944 7.295 16.028 15.972zM29.954 15.972c0.056-7.591-6.166-13.94-13.94-13.968-7.492-0.028-14.011 6.067-14.011 13.996 0 7.647 6.25 13.954 13.954 13.968 7.492 0.014 14.053-6.053 13.996-13.996z"></path>
<path d="M23.407 8.155c0 0.889 0 1.735 0 2.681-1.326 0-2.624 0-3.979 0 0 0.578 0 1.072 0 1.651 1.298 0 2.596 0 3.951 0 0 0.959 0 1.834 0 2.822-1.298 0.127-2.624-0.014-3.965 0.085 0 1.453 0 2.836 0 4.303 1.326 0 2.624 0 3.965 0 0 0.974 0 1.834 0 2.794-1.312 0-2.624 0-4.007 0 0 0.861 0 1.623 0 2.455-0.889 0-1.679 0-2.582 0 0-0.776 0-1.538 0-2.37-0.564 0-1.016 0-1.58 0 0 0.776 0 1.552 0 2.37-0.889 0-1.693 0-2.568 0-0.014-0.395-0.042-0.79-0.042-1.185-0.014-0.381 0-0.748 0-1.199-1.764-0.085-3.203-0.762-4.233-2.173-0.705-0.974-0.988-2.074-0.903-3.287 0.155-2.483 2.032-4.219 5.079-4.67 0-0.48 0-0.974 0-1.552-1.298 0-2.596 0-3.951 0 0-0.959 0-1.82 0-2.681 0.536-0.169 13.728-0.226 14.815-0.042zM12.571 15.365c-1.002-0.028-1.651 0.381-2.046 1.157s-0.339 1.566 0.183 2.272c0.451 0.607 1.058 0.945 1.862 0.832 0-1.425 0-2.794 0-4.261zM16.691 19.654c0-1.439 0-2.836 0-4.247-0.508 0-0.945 0-1.411 0 0 1.453 0 2.836 0 4.247 0.508 0 0.959 0 1.411 0zM16.72 10.921c-0.536 0-0.974 0-1.439 0 0 0.522 0 1.002 0 1.51 0.508 0 0.959 0 1.439 0 0-0.522 0-0.988 0-1.51z"></path>
</svg>
