<!-- Generated by IcoMoon.io -->
<svg version="1.1" xmlns="http://www.w3.org/2000/svg" width="32" height="32" viewBox="0 0 32 32">
<title>TEL</title>
<path d="M20.288 14.272l0.474-2.419-4.39 0.013 0.614-3.187h-1.421c-1.011 1.587-2.509 2.816-4.262 3.507l-0.397 2.086h1.92c0 0-0.653 2.995-0.87 4.096-0.538 2.816 0.819 4.8 2.918 4.8h3.558l0.614-2.662h-2.97c-1.318 0-1.242-0.73-0.986-2.035l0.819-4.211M30.067 8.934c0.986 0.806 1.6 2.483 1.382 3.712l-2.112 11.878c-0.218 1.242-1.382 2.598-2.573 3.034l-11.494 4.109c-1.19 0.422-2.97 0.115-3.955-0.691l-9.382-7.77c-0.986-0.806-1.6-2.483-1.382-3.712l2.112-11.878c0.218-1.242 1.382-2.598 2.573-3.034l11.494-4.122c1.19-0.435 2.97-0.115 3.955 0.691"></path>
</svg>
