<?xml version="1.0" encoding="utf-8"?>
<!-- Generator: Adobe Illustrator 22.1.0, SVG Export Plug-In . SVG Version: 6.00 Build 0)  -->
<svg version="1.1" id="Layer_1" xmlns="http://www.w3.org/2000/svg" xmlns:xlink="http://www.w3.org/1999/xlink" x="0px" y="0px"
	 viewBox="0 0 250 250" style="enable-background:new 0 0 250 250;" xml:space="preserve">
<style type="text/css">
	.st0{stroke:#FFFFFF;stroke-miterlimit:10;}
</style>
<path class="st0" d="M158.5,111.5l3.7-18.9l-34.3,0.1l4.8-24.9h-11.1c-7.9,12.4-19.6,22-33.3,27.4l-3.1,16.3h15c0,0-5.1,23.4-6.8,32
	c-4.2,22,6.4,37.5,22.8,37.5H144l4.8-20.8h-23.2c-10.3,0-9.7-5.7-7.7-15.9l6.4-32.9 M234.9,69.8c7.7,6.3,12.5,19.4,10.8,29
	l-16.5,92.8c-1.7,9.7-10.8,20.3-20.1,23.7l-89.8,32.1c-9.3,3.3-23.2,0.9-30.9-5.4l-73.3-60.7c-7.7-6.3-12.5-19.4-10.8-29l16.5-92.8
	c1.7-9.7,10.8-20.3,20.1-23.7l89.8-32.2c9.3-3.4,23.2-0.9,30.9,5.4"/>
</svg>
