<?xml version="1.0" encoding="utf-8"?>
<!-- Generator: Adobe Illustrator 22.1.0, SVG Export Plug-In . SVG Version: 6.00 Build 0)  -->
<svg version="1.1" id="Layer_1" xmlns="http://www.w3.org/2000/svg" xmlns:xlink="http://www.w3.org/1999/xlink" x="0px" y="0px"
	 viewBox="0 0 226.8 226.8" style="enable-background:new 0 0 226.8 226.8;" xml:space="preserve">
<g>
	<path d="M0,96.4c0.7-2.5,1.5-5,2-7.6C7.7,61.5,22.8,40.2,44.2,23c1.3-1,2.7-1.7,5.2-1.8c-0.7,1.6-1.3,3.2-2.1,4.7
		C32.8,51,18.3,76.2,3.7,101.3c-0.9,1.6-2.4,2.8-3.7,4.1C0,102.4,0,99.4,0,96.4z"/>
	<path d="M128.1,0c8.9,2.4,17.8,4.7,26.7,7.3c2.4,0.7,4.6,2.2,6.5,4.6c-31.9,0-63.9,0-95.8,0C75.4,4.1,87.4,3.1,98.6,0
		C108.4,0,118.3,0,128.1,0z"/>
	<path d="M0,122.4c1.3,1.3,2.9,2.3,3.8,3.8c14.7,25.3,29.4,50.6,44,76c0.7,1.2,1,2.6,1.6,3.9c-0.4,0.4-0.9,0.8-1.3,1.2
		c-5.7-5-11.7-9.8-17-15.2C15,175.6,4.8,155.9,0.9,133c-0.2-0.9-0.6-1.8-0.9-2.6C0,127.7,0,125.1,0,122.4z"/>
	<path d="M226.7,105.4c-1.2-1.4-2.7-2.7-3.6-4.3c-14.7-25.3-29.3-50.7-43.9-76c-0.7-1.2-1.1-2.6-0.7-4.8c2.5,1.8,5.1,3.4,7.4,5.4
		c21.3,18.4,35.7,40.8,39.9,69.1c0.1,0.9,0.5,1.8,0.8,2.7C226.7,100.1,226.7,102.8,226.7,105.4z"/>
	<path d="M226.7,130.4c-4.2,12.3-7.5,25-12.8,36.7c-6.9,15-18.5,26.5-31.3,36.8c-1.2,1-2.8,1.7-5.1,1.7c0.7-1.6,1.4-3.2,2.2-4.7
		c14.3-24.7,28.6-49.4,42.9-74c1-1.7,2.7-3,4-4.4C226.7,125.1,226.7,127.7,226.7,130.4z"/>
	<path d="M65.2,18.5c2.5-0.2,4.1-0.4,5.7-0.4c28.3,0,56.6,0,85,0c8.1,0,8.8,1.4,4.7,8.5c-8,13.9-16.1,27.8-24.2,41.6
		c-3.1,5.3-7.5,6.1-12.1,2.2C105.2,53.9,86.1,37.3,67,20.7C66.6,20.4,66.3,19.9,65.2,18.5z"/>
	<path d="M161,208.5c-2.2,0.1-4,0.3-5.7,0.3c-27.9,0-55.8,0-83.7,0c-8.9,0-9.5-0.9-5.2-8.4c8-13.9,16-27.8,24.1-41.6
		c3-5.1,7.3-6,11.7-2.3c19.3,16.6,38.5,33.2,57.8,49.9C160.3,206.8,160.4,207.4,161,208.5z"/>
	<path d="M59.9,27c2.5,4.2,4.4,7.2,6.1,10.2c12.7,21.9,25.4,43.7,38,65.6c3.8,6.5,2.8,8.2-4.9,8.2c-9.8,0.1-19.6,0.1-29.4,0
		c-5.7-0.1-10.5-4.6-10.6-10.1c-0.1-23.2,0-46.4,0-69.6C59.1,30.4,59.5,29.5,59.9,27z"/>
	<path d="M166.6,199.7c-3.6-6.1-6.7-11.3-9.7-16.4c-11.4-19.7-22.8-39.5-34.2-59.2c-3.6-6.2-2.9-7.4,4.4-7.5
		c10.2-0.1,20.4-0.1,30.5,0c5.3,0.1,10,4.3,10,9.4c0.1,23.6,0,47.1,0,70.7C167.6,197.1,167.3,197.6,166.6,199.7z"/>
	<path d="M174.4,28.7c0.9,1.3,1.9,2.6,2.7,4c13.5,23.4,27.1,46.7,40.5,70.2c3.8,6.6,2.8,8.1-4.9,8.2c-9.8,0.1-19.6,0.1-29.5,0
		c-5-0.1-10-4.2-10-8.8c-0.1-24.3-0.1-48.7-0.1-73C173.6,29,174,28.8,174.4,28.7z"/>
	<path d="M53.6,28.2c0,24.7,0,49,0,73.3c0,4.9-4.5,9.4-9.3,9.5c-10.8,0.2-21.5,0.2-32.3,0c-4.8-0.1-6.1-2.1-3.8-6
		C22.6,79.6,37.3,54.3,52,29C52.2,28.6,52.8,28.5,53.6,28.2z"/>
	<path d="M174.3,199.3c-0.7-1.9-1-2.4-1-2.9c0-23.7-0.3-47.5,0.3-71.2c0.1-2.9,4.6-8,7.4-8.2c11.6-0.9,23.3-0.5,35-0.4
		c3.6,0,4.8,2.2,3,5.3C204.3,147.4,189.6,172.8,174.3,199.3z"/>
	<path d="M52.3,198.8c-6.4-11-12.8-22.1-19.2-33.1c-8-13.9-16.1-27.8-24.1-41.7c-3.4-5.8-2.5-7.4,4.1-7.4c10.2-0.1,20.4-0.1,30.6,0
		c5.3,0,9.8,3.8,9.9,8.7c0.1,24.3,0.1,48.7,0.1,73C53.1,198.4,52.7,198.6,52.3,198.8z"/>
	<path d="M61.3,121.4c7.9,6.9,16.2,13.4,23.4,21c2.3,2.4,3.2,8.7,1.7,11.6c-7.9,15.2-16.8,29.8-26.6,44.4c0-25.3,0-50.7,0-76
		C60.3,122,60.8,121.7,61.3,121.4z"/>
	<path d="M167.2,27.2c0,27,0,52.3,0,78.8c-2.3-1.4-3.7-2.1-4.9-3.1c-5.3-4.5-10.6-9-15.9-13.7c-7.6-6.7-8.6-12.4-3.6-21
		c6.9-11.9,13.8-23.8,20.7-35.7C164.4,31.1,165.4,29.8,167.2,27.2z"/>
	<path d="M156.8,196.5c-17.2-14.9-34.5-29.7-51.7-44.6c-2.6-2.3-3.8-11.6-2.1-14.6c2.4-4.3,4.8-8.5,7.4-12.7
		c1.7-2.6,4.1-3.2,5.8-0.4c14,23.8,27.8,47.7,41.6,71.6C157.5,196,157.1,196.2,156.8,196.5z"/>
	<path d="M70.6,31.3c3.5,3,7,6,10.5,9c12.8,11.1,25.7,22.1,38.5,33.3c5.5,4.8,6.6,12.3,3,18.6c-1.7,2.9-3.3,5.9-5.1,8.8
		c-3.3,5.4-5,5.4-8.2-0.1C97.9,81.3,86.6,61.7,75.2,42.1c-1.9-3.2-3.7-6.5-5.6-9.8C70,32,70.3,31.6,70.6,31.3z"/>
	<path d="M65.5,214.9c31.9,0,63.7,0,96.1,0C146.5,229.6,88.1,231.9,65.5,214.9z"/>
	<path d="M160.5,110.9c-12,0-24,0.1-35.9-0.1c-3.7-0.1-5-2.4-3-5.8c2.4-4.2,4.8-8.5,7.4-12.7c2.4-3.8,6.4-4.8,9.7-2.3
		c7.8,6.1,15.1,12.9,22.6,19.3C161,109.9,160.8,110.4,160.5,110.9z"/>
	<path d="M66.4,116.6c12,0,24-0.1,35.9,0c4,0,4.9,2.3,2.9,5.7c-2.3,4.1-4.5,8.2-7.1,12.2c-2.5,3.8-6.5,5.3-10.1,2.5
		c-7.7-6-14.8-12.6-22.2-19C66,117.5,66.2,117,66.4,116.6z"/>
</g>
</svg>
