<?xml version="1.0" encoding="utf-8"?>
<!-- Generator: Adobe Illustrator 22.1.0, SVG Export Plug-In . SVG Version: 6.00 Build 0)  -->
<svg version="1.1" id="Layer_1" xmlns="http://www.w3.org/2000/svg" xmlns:xlink="http://www.w3.org/1999/xlink" x="0px" y="0px"
	 viewBox="0 0 226.8 226.8" style="enable-background:new 0 0 226.8 226.8;" xml:space="preserve">
<g>
	<path d="M66.4,153.1c0,15.9,0,30.5,0,46.4c-17.7-10.2-34.3-19.8-50.8-29.3c0-37.9,0-75.5,0-113.5c12.2-7.1,24.5-14.2,37.1-21.5
		C66.2,43,79.6,50.6,93.1,58.4c2.9-1.7,5.5-3.3,9.4-5.7c-13.4-7.8-25.9-15.1-39.8-23.2C80.3,19.3,96.7,9.8,113.5,0
		c32.5,18.8,65,37.6,97.7,56.5c0,14.5,0,28.8,0,43.5c-13.1,7.6-26.2,15.3-39.5,23c0,3.4,0,6.5,0,11.1c13.3-7.6,25.8-14.8,39.2-22.5
		c0,20.1,0,39.1,0,58.8c-32.1,18.6-64.4,37.3-97.4,56.3c-12.3-7.1-24.6-14.2-37.3-21.5c0-15.6,0-31,0-46.5
		C73.3,157.1,70.6,155.5,66.4,153.1z M66.7,93.8c13.9,8.1,27.8,16.2,42.2,24.6c0,15.7,0,31.2,0,46.7c2,1,3.5,1.7,5,2.5
		c2.1-1.3,4-2.5,6.3-3.9c0-16.1,0-32.2,0-48.4c13.7-8,27-15.7,40-23.3c0-2.3,0-4,0-5.9c-2.1-1.2-4.2-2.3-6.3-3.5
		c-14.1,8.1-27.9,16.1-41.9,24.2c-13.7-7.9-27.2-15.6-40.6-23.3c-1.9,1.2-3.3,2.1-4.6,3C66.7,88.9,66.7,91.1,66.7,93.8z
		 M191.1,158.6c0-3.7,0-7,0-11.5c-13.7,7.8-26.5,15.1-40.8,23.2c0-16.9,0-32.2,0-48.4c-3.9,2.2-6.6,3.7-9.7,5.5
		c0,16.2,0,32.4,0,48.8c-9.2,5.3-18.1,10.4-27,15.5c-5.5-3-10.5-5.7-16.3-8.9c0,4.3,0,7.6,0,11.3c5.4,3.1,10.9,6.3,16.3,9.4
		C139.9,188.3,165.6,173.5,191.1,158.6z M154.1,58.5c9.3,5.4,18.2,10.5,27.4,15.8c0,6.2,0,11.9,0,18.8c4-2.3,7-4,9.7-5.6
		c0-6.8,0-13,0-19.3c-26-15-51.8-30-77.8-44.9c-3.2,2-6,3.8-9.6,6c13.6,8,26.4,15.4,40.2,23.5c-14.4,8.4-27.6,16.2-41.8,24.5
		c4,2.3,6.7,3.8,9.6,5.5C125.9,74.7,139.8,66.8,154.1,58.5z M35.9,68.3c0,30.3,0,60.1,0,90.3c2.9,1.6,5.7,3.1,9.8,5.4
		c0-16.1,0-30.8,0-46.8c14.5,8.3,27.7,15.9,41.8,23.9c0-4.5,0-7.7,0-11.1c-14.1-8.2-28-16.3-41.6-24.2c0-10.9,0-21,0-31.4
		c5.1-3.1,10.1-6.2,16-9.8c-3.8-2.2-6.7-3.8-9.8-5.6C46.6,62.1,41.3,65.2,35.9,68.3z"/>
</g>
</svg>
