<!-- Generated by IcoMoon.io -->
<svg version="1.1" xmlns="http://www.w3.org/2000/svg" width="32" height="32" viewBox="0 0 32 32">
<title>TERN</title>
<path d="M9.369 21.601c0 2.243 0 4.303 0 6.547-2.497-1.439-4.84-2.794-7.168-4.134 0-5.347 0-10.653 0-16.014 1.721-1.002 3.457-2.004 5.235-3.034 1.905 1.101 3.795 2.173 5.7 3.273 0.409-0.24 0.776-0.466 1.326-0.804-1.891-1.101-3.654-2.13-5.616-3.273 2.483-1.439 4.797-2.78 7.168-4.162 4.586 2.653 9.171 5.305 13.785 7.972 0 2.046 0 4.064 0 6.138-1.848 1.072-3.697 2.159-5.573 3.245 0 0.48 0 0.917 0 1.566 1.877-1.072 3.64-2.088 5.531-3.175 0 2.836 0 5.517 0 8.296-4.529 2.624-9.086 5.263-13.742 7.944-1.735-1.002-3.471-2.004-5.263-3.034 0-2.201 0-4.374 0-6.561-0.409-0.226-0.79-0.451-1.383-0.79zM9.411 13.235c1.961 1.143 3.922 2.286 5.954 3.471 0 2.215 0 4.402 0 6.589 0.282 0.141 0.494 0.24 0.705 0.353 0.296-0.183 0.564-0.353 0.889-0.55 0-2.272 0-4.543 0-6.829 1.933-1.129 3.81-2.215 5.644-3.287 0-0.325 0-0.564 0-0.832-0.296-0.169-0.593-0.325-0.889-0.494-1.989 1.143-3.936 2.272-5.912 3.414-1.933-1.115-3.838-2.201-5.728-3.287-0.268 0.169-0.466 0.296-0.649 0.423-0.014 0.339-0.014 0.649-0.014 1.030zM26.963 22.377c0-0.522 0-0.988 0-1.623-1.933 1.101-3.739 2.131-5.757 3.273 0-2.384 0-4.543 0-6.829-0.55 0.31-0.931 0.522-1.369 0.776 0 2.286 0 4.571 0 6.885-1.298 0.748-2.554 1.467-3.81 2.187-0.776-0.423-1.481-0.804-2.3-1.256 0 0.607 0 1.072 0 1.594 0.762 0.437 1.538 0.889 2.3 1.326 3.711-2.145 7.337-4.233 10.935-6.335zM21.742 8.254c1.312 0.762 2.568 1.481 3.866 2.229 0 0.875 0 1.679 0 2.653 0.564-0.325 0.988-0.564 1.369-0.79 0-0.959 0-1.834 0-2.723-3.668-2.116-7.309-4.233-10.977-6.335-0.451 0.282-0.847 0.536-1.354 0.847 1.919 1.129 3.725 2.173 5.672 3.316-2.032 1.185-3.894 2.286-5.898 3.457 0.564 0.325 0.945 0.536 1.354 0.776 1.989-1.143 3.951-2.258 5.968-3.429zM5.065 9.637c0 4.275 0 8.48 0 12.741 0.409 0.226 0.804 0.437 1.383 0.762 0-2.272 0-4.346 0-6.603 2.046 1.171 3.908 2.243 5.898 3.372 0-0.635 0-1.086 0-1.566-1.989-1.157-3.951-2.3-5.87-3.414 0-1.538 0-2.963 0-4.43 0.72-0.437 1.425-0.875 2.258-1.383-0.536-0.31-0.945-0.536-1.383-0.79-0.776 0.437-1.524 0.875-2.286 1.312z"></path>
</svg>
