<?xml version="1.0" encoding="utf-8"?>
<!-- Generator: Adobe Illustrator 22.1.0, SVG Export Plug-In . SVG Version: 6.00 Build 0)  -->
<svg version="1.1" id="Layer_1" xmlns="http://www.w3.org/2000/svg" xmlns:xlink="http://www.w3.org/1999/xlink" x="0px" y="0px"
	 viewBox="0 0 226.8 226.8" style="enable-background:new 0 0 226.8 226.8;" xml:space="preserve">
<g id="E75KBc_1_">
	<g>
		<path d="M137.7,103.3c4.7-38.4,22.4-69.9,50.7-95.8c3.3-3,7.7-5.2,12-6.8c6-2.2,11.2,0.6,11.9,6.9c0.7,6.1,0.9,12.6-0.6,18.5
			c-7.4,30.1-22.4,56.1-44.8,77.6c-4,3.8-8.9,6.7-12.8,9.5c30.7,21.3,48,52.1,57.7,87.7c1.5,5.6,1.3,11.9,0.7,17.7
			c-0.7,6.4-5.5,9.3-11.7,7.3c-4-1.3-7.9-3.4-11.2-5.9c-15.3-11.8-25.9-27.5-35.1-44.2c-7.4-13.6-13.5-27.7-15.5-43.2
			c-0.5-3.7-0.1-7.5-0.1-11.4c-4,2-7.7,4.1-11.6,5.6c-17.7,6.6-36.2,8-54.9,7.4c-14.5-0.4-28.8-2.1-42.4-7.4
			c-4.2-1.6-8.1-4-11.7-6.6c-5.5-4.1-6-10.5-0.6-14.6c4.8-3.6,10.3-6.7,16-8.5c20.7-6.8,42-7.4,63.5-5.4c10.6,1,21.1,2.9,31,7
			C131.6,100.1,134.8,101.9,137.7,103.3z"/>
	</g>
</g>
</svg>
