<!-- Generated by IcoMoon.io -->
<svg version="1.1" xmlns="http://www.w3.org/2000/svg" width="32" height="32" viewBox="0 0 32 32">
<title>TFD</title>
<path d="M19.429 14.575c0.663-5.418 3.16-9.862 7.153-13.517 0.466-0.423 1.086-0.734 1.693-0.959 0.847-0.31 1.58 0.085 1.679 0.974 0.099 0.861 0.127 1.778-0.085 2.61-1.044 4.247-3.16 7.915-6.321 10.949-0.564 0.536-1.256 0.945-1.806 1.34 4.332 3.005 6.773 7.351 8.141 12.374 0.212 0.79 0.183 1.679 0.099 2.497-0.099 0.903-0.776 1.312-1.651 1.030-0.564-0.183-1.115-0.48-1.58-0.832-2.159-1.665-3.654-3.88-4.952-6.236-1.044-1.919-1.905-3.908-2.187-6.095-0.071-0.522-0.014-1.058-0.014-1.608-0.564 0.282-1.086 0.578-1.637 0.79-2.497 0.931-5.108 1.129-7.746 1.044-2.046-0.056-4.064-0.296-5.982-1.044-0.593-0.226-1.143-0.564-1.651-0.931-0.776-0.578-0.847-1.481-0.085-2.060 0.677-0.508 1.453-0.945 2.257-1.199 2.921-0.959 5.926-1.044 8.959-0.762 1.496 0.141 2.977 0.409 4.374 0.988 0.48 0.198 0.931 0.451 1.34 0.649z"></path>
</svg>
