<!-- Generated by IcoMoon.io -->
<svg version="1.1" xmlns="http://www.w3.org/2000/svg" width="32" height="32" viewBox="0 0 32 32">
<title>THC</title>
<path d="M30.97 5.178c-0.395-0.071-0.762-0.155-1.129-0.212-1.171-0.183-2.356-0.169-3.485 0.24-1.961 0.705-3.189 2.032-3.443 4.162-0.085 0.705-0.169 1.411-0.254 2.116-0.028 0.183 0.028 0.24 0.212 0.24 1.115 0 2.229 0 3.33-0.014 0.226 0 0.282 0.056 0.282 0.282-0.014 1.171-0.014 2.356 0 3.527 0 0.212-0.071 0.268-0.282 0.268-1.115-0.014-2.243 0-3.358-0.014-0.198 0-0.254 0.042-0.226 0.254 0.113 1.101 0.31 2.173 0.804 3.175 0.832 1.637 2.074 2.78 3.922 3.16 0.367 0.071 0.748 0.099 1.129 0.099 1.101 0.014 2.187 0 3.316 0 0.014 0.085 0.028 0.169 0.028 0.254 0 0.861 0 1.721 0 2.568 0 0.31-0.014 0.31-0.296 0.339-1.877 0.183-3.739 0.127-5.587-0.226-2.384-0.451-4.148-1.764-5.404-3.81-0.988-1.594-1.566-3.33-1.778-5.192-0.014-0.085-0.028-0.169-0.028-0.254-0.028-0.395-0.028-0.395-0.423-0.395-0.55 0-1.101 0.014-1.651 0-0.226 0-0.282 0.071-0.282 0.282 0 2.582 0 5.164 0 7.732 0 0.085 0 0.155 0 0.24 0 0.296 0 0.296-0.296 0.296-1.157 0-2.328 0-3.485 0-0.296 0-0.296 0-0.296-0.296 0-2.638 0-5.291 0-7.929 0-0.31 0-0.31-0.31-0.31-0.988 0-1.961 0-2.949 0-0.339 0-0.339 0-0.339 0.325 0 5.164 0 10.314 0 15.478 0 0.071 0 0.141 0 0.212 0.014 0.141-0.056 0.198-0.198 0.198-1.213 0-2.441 0-3.668 0-0.141 0-0.226-0.042-0.212-0.198 0-0.071 0-0.141 0-0.212 0-5.15 0-10.3 0-15.45 0-0.339 0-0.339-0.339-0.339-1.185 0-2.384 0-3.57 0-0.296 0-0.296 0-0.296-0.282 0-1.157 0-2.328 0-3.485 0-0.282 0-0.282 0.296-0.282 1.213 0 2.427-0.014 3.64 0 0.226 0 0.282-0.056 0.282-0.282 0-3.697 0-7.379 0-11.076 0-0.367 0-0.367 0.381-0.367 1.129 0 2.257 0 3.372 0 0.296 0 0.296 0 0.296 0.296 0 3.683 0 7.365 0 11.048 0 0.423-0.028 0.367 0.381 0.367 0.959 0 1.933 0 2.892 0 0.31 0 0.31 0 0.31-0.31 0-3.485 0-6.97 0-10.455 0-0.339 0-0.339 0.353-0.339 1.143 0 2.3 0 3.443 0 0.282 0 0.282 0 0.282 0.296 0 3.485 0 6.956 0 10.441 0 0.071 0 0.141 0 0.212 0 0.127 0.056 0.169 0.169 0.169 0.663 0 1.326 0 1.989 0 0.141 0 0.155-0.085 0.169-0.198 0.113-1.129 0.268-2.243 0.564-3.344 0.268-0.959 0.607-1.891 1.101-2.765 0.931-1.679 2.384-2.765 4.134-3.485 1.157-0.48 2.37-0.776 3.626-0.875 0.861-0.056 1.721-0.056 2.582-0.085 0.296 0 0.31 0.014 0.31 0.31 0 1.213 0 2.427 0 3.64 0 0.071-0.014 0.155-0.014 0.254z"></path>
</svg>
