<?xml version="1.0" encoding="utf-8"?>
<!-- Generator: Adobe Illustrator 22.1.0, SVG Export Plug-In . SVG Version: 6.00 Build 0)  -->
<svg version="1.1" id="Layer_1" xmlns="http://www.w3.org/2000/svg" xmlns:xlink="http://www.w3.org/1999/xlink" x="0px" y="0px"
	 viewBox="0 0 226.8 226.8" style="enable-background:new 0 0 226.8 226.8;" xml:space="preserve">
<g>
	<path d="M219.5,36.7c-2.8-0.5-5.4-1.1-8-1.5c-8.3-1.3-16.7-1.2-24.7,1.7c-13.9,5-22.6,14.4-24.4,29.5c-0.6,5-1.2,10-1.8,15
		c-0.2,1.3,0.2,1.7,1.5,1.7c7.9,0,15.8,0,23.6-0.1c1.6,0,2,0.4,2,2c-0.1,8.3-0.1,16.7,0,25c0,1.5-0.5,1.9-2,1.9
		c-7.9-0.1-15.9,0-23.8-0.1c-1.4,0-1.8,0.3-1.6,1.8c0.8,7.8,2.2,15.4,5.7,22.5c5.9,11.6,14.7,19.7,27.8,22.4c2.6,0.5,5.3,0.7,8,0.7
		c7.8,0.1,15.5,0,23.5,0c0.1,0.6,0.2,1.2,0.2,1.8c0,6.1,0,12.2,0,18.2c0,2.2-0.1,2.2-2.1,2.4c-13.3,1.3-26.5,0.9-39.6-1.6
		c-16.9-3.2-29.4-12.5-38.3-27c-7-11.3-11.1-23.6-12.6-36.8c-0.1-0.6-0.2-1.2-0.2-1.8c-0.2-2.8-0.2-2.8-3-2.8c-3.9,0-7.8,0.1-11.7,0
		c-1.6,0-2,0.5-2,2c0,18.3,0,36.6,0,54.8c0,0.6,0,1.1,0,1.7c0,2.1,0,2.1-2.1,2.1c-8.2,0-16.5,0-24.7,0c-2.1,0-2.1,0-2.1-2.1
		c0-18.7,0-37.5,0-56.2c0-2.2,0-2.2-2.2-2.2c-7,0-13.9,0-20.9,0c-2.4,0-2.4,0-2.4,2.3c0,36.6,0,73.1,0,109.7c0,0.5,0,1,0,1.5
		c0.1,1-0.4,1.4-1.4,1.4c-8.6,0-17.3,0-26,0c-1,0-1.6-0.3-1.5-1.4c0-0.5,0-1,0-1.5c0-36.5,0-73,0-109.5c0-2.4,0-2.4-2.4-2.4
		c-8.4,0-16.9,0-25.3,0c-2.1,0-2.1,0-2.1-2c0-8.2,0-16.5,0-24.7c0-2,0-2,2.1-2c8.6,0,17.2-0.1,25.8,0c1.6,0,2-0.4,2-2
		c0-26.2,0-52.3,0-78.5c0-2.6,0-2.6,2.7-2.6c8,0,16,0,23.9,0c2.1,0,2.1,0,2.1,2.1c0,26.1,0,52.2,0,78.3c0,3-0.2,2.6,2.7,2.6
		c6.8,0,13.7,0,20.5,0c2.2,0,2.2,0,2.2-2.2c0-24.7,0-49.4,0-74.1c0-2.4,0-2.4,2.5-2.4c8.1,0,16.3,0,24.4,0c2,0,2,0,2,2.1
		c0,24.7,0,49.3,0,74c0,0.5,0,1,0,1.5c0,0.9,0.4,1.2,1.2,1.2c4.7,0,9.4,0,14.1,0c1,0,1.1-0.6,1.2-1.4c0.8-8,1.9-15.9,4-23.7
		c1.9-6.8,4.3-13.4,7.8-19.6c6.6-11.9,16.9-19.6,29.3-24.7c8.2-3.4,16.8-5.5,25.7-6.2c6.1-0.4,12.2-0.4,18.3-0.6
		c2.1,0,2.2,0.1,2.2,2.2c0,8.6,0,17.2,0,25.8C219.6,35.4,219.5,36,219.5,36.7z"/>
</g>
</svg>
