<!-- Generated by IcoMoon.io -->
<svg version="1.1" xmlns="http://www.w3.org/2000/svg" width="32" height="32" viewBox="0 0 32 32">
<title>THEROCKTRADING</title>
<path d="M26.483 3.866c0.451 0.367 0.847 0.804 1.256 1.213 0.395 0.452 0.762 0.903 1.115 1.383 2.667 3.64 3.753 8.339 2.78 12.995-0.056 0.254-0.113 0.494-0.183 0.734-0.056 0.212-0.141 0.409-0.226 0.607-0.155 0.212-0.325 0.423-0.607 0.48-0.028 0.014-0.071 0.014-0.085 0.028-0.071 0-0.127 0-0.183 0.014-0.028-0.056-0.071-0.071-0.127-0.028-0.381-0.085-0.748-0.254-1.086-0.451-1.284-0.691-2.554-1.481-3.527-2.582-0.508-0.564-0.917-1.227-1.213-1.933-0.705-1.721-0.508-3.146-1.213-4.981-0.466-1.185-1.171-2.272-1.989-3.245-0.409-0.494-0.889-0.945-1.34-1.397-0.705-0.649-1.453-1.242-2.243-1.792-0.226-0.169-0.466-0.353-0.748-0.423-0.635-0.169-0.861 0.381-1.086 0.861-0.691 1.411-1.439 2.808-2.102 4.247-0.183 0.381-0.367 0.762-0.663 1.058-0.818 0.889-1.834 0.282-2.215 0.607-0.296 0.226-0.451 0.578-0.663 0.861-0.959 1.34-1.933 2.667-2.864 4.021-0.31 0.451-0.578 0.917-0.959 1.312-0.212 0.212-0.494 0.381-0.804 0.367-0.423 0.014-0.79-0.254-1.101-0.508-0.212-0.183-0.409-0.451-0.705-0.451-0.31-0.014-0.522 0.226-0.705 0.451-0.804 0.974-1.623 1.933-2.427 2.907-0.014 0.014-0.042 0.056-0.056 0.071-0.705-3.16-0.734-6.533 0.339-9.623 1.27-3.781 4.571-7.591 8.296-9.213 5.799-2.723 12.741-1.58 17.34 2.413z"></path>
<path d="M16.268 5.404c0.339 0.198 0.649 0.452 0.959 0.677 1.016 0.762 1.989 1.58 2.864 2.511 0.818 0.889 1.524 1.905 1.975 3.048 0.268 0.663 0.437 1.383 0.522 2.088 0.085 0.889 0.268 1.764 0.578 2.596 0.423 1.171 1.086 2.243 1.975 3.118 1.016 1.044 2.272 1.82 3.598 2.399 0.437 0.212 0.917 0.381 1.242 0.748 0.198 0.226 0.24 0.55 0.183 0.832-0.212 0.621-0.593 1.157-0.959 1.707-1.834 2.695-4.571 4.727-7.619 5.855-1.439 0.536-2.963 0.861-4.501 0.988-0.226 0.028-0.451 0-0.663 0.056h-1.185c-0.226-0.056-0.451-0.028-0.677-0.056-2.074-0.155-4.12-0.72-5.954-1.693-0.282-0.169-0.578-0.367-0.79-0.621-0.099-0.155-0.183-0.325-0.183-0.522-0.014-0.282 0.127-0.55 0.282-0.79 0.254-0.367 0.578-0.677 0.889-1.002 0.226-0.282 0.508-0.522 0.748-0.79 0.212-0.268 0.466-0.48 0.677-0.734s0.451-0.451 0.663-0.705 0.466-0.451 0.663-0.705c0.254-0.282 0.55-0.522 0.79-0.818 0.296-0.339 0.635-0.621 0.917-0.959 0.974-1.016 1.834-2.201 2.243-3.556 0.085-0.339 0.183-0.705 0.085-1.058-0.071-0.31-0.325-0.536-0.607-0.663-0.254-0.113-0.564-0.183-0.847-0.071-0.423 0.169-0.649 0.578-0.818 0.988-0.24 0.578-0.578 1.115-1.002 1.58-0.832 0.889-1.975 1.397-3.118 1.735-0.423 0.113-0.832 0.254-1.27 0.31 0.169-0.296 0.381-0.578 0.564-0.861 0.466-0.705 0.945-1.397 1.354-2.131 0.212-0.423 0.48-0.861 0.381-1.355-0.085-0.353-0.395-0.578-0.621-0.832 0.353-0.325 0.776-0.578 1.115-0.917 0.282-0.268 0.508-0.593 0.607-0.959 0.071-0.282 0.085-0.593 0.085-0.889 0-0.268 0.183-0.536 0.451-0.607 0.395-0.085 0.79 0.028 1.199 0.014 0.381-0.014 0.79 0 1.171 0 0.536-0.056 1.086-0.056 1.608-0.198 0.395-0.113 0.804-0.31 0.988-0.705 0.268-0.55 0.198-1.185 0.183-1.764-0.169-1.778-0.508-3.527-0.748-5.291z"></path>
</svg>
