<!-- Generated by IcoMoon.io -->
<svg version="1.1" xmlns="http://www.w3.org/2000/svg" width="32" height="32" viewBox="0 0 32 32">
<title>TIDEBIT</title>
<path d="M25.651 15.125c0.141 0.042 0.268 0.085 0.409 0.127 3.372 1.157 5.446 3.471 5.884 7.026 0.607 4.896-2.921 8.72-7.252 9.298-0.268 0.028-0.536 0.056-0.804 0.071-0.663 0.042-1.129-0.296-1.157-0.847-0.042-0.564 0.381-0.945 1.058-0.959 1.044-0.014 2.004-0.282 2.921-0.762 2.441-1.256 3.908-4.106 3.471-6.758-0.48-2.921-2.681-5.235-5.474-5.587-1.256-0.155-2.54-0.085-3.824-0.085-0.113 0-0.282 0.169-0.353 0.31-0.875 1.566-2.808 1.947-4.176 0.804-0.268-0.226-0.437-0.578-0.677-0.847-0.113-0.127-0.268-0.268-0.409-0.268-1.171-0.028-2.356-0.014-3.527-0.014-0.282 0-0.353 0.113-0.353 0.381 0 3.019 0.014 6.039 0 9.044 0 0.296 0.183 0.395 0.381 0.522 0.988 0.621 1.439 1.679 1.242 2.85-0.183 1.030-1.030 1.891-2.102 2.116-1.312 0.282-2.667-0.494-3.104-1.764-0.452-1.298 0.113-2.723 1.34-3.287 0.353-0.169 0.451-0.353 0.451-0.72-0.014-2.864-0.014-5.742-0.014-8.607 0-0.508 0-0.508-0.508-0.508-1.115 0-2.229 0.014-3.344 0-0.296 0-0.452 0.085-0.593 0.367-0.55 1.058-1.58 1.552-2.794 1.411-1.002-0.113-1.905-0.917-2.187-1.933-0.381-1.326 0.325-2.751 1.594-3.259 1.312-0.522 2.794 0.028 3.414 1.284 0.141 0.282 0.31 0.381 0.621 0.381 1.101-0.014 2.201 0 3.316 0 0.48 0 0.494-0.014 0.494-0.494 0-4.233 0-8.466 0-12.684 0-0.198 0-0.395 0.042-0.578 0.099-0.494 0.423-0.776 0.917-0.776 0.536-0.014 1.072 0 1.623 0 2.751 0 5.489 0 8.24 0 2.229 0 4.205 0.649 5.87 2.145 1.608 1.453 2.511 3.273 2.653 5.446 0.141 2.187-0.466 4.148-1.877 5.841-0.409 0.494-0.832 0.959-1.242 1.453-0.085-0.099-0.127-0.127-0.169-0.141zM11.358 8.451c0 2.004 0 3.993 0 5.996 0 0.268 0.042 0.437 0.381 0.437 1.157-0.014 2.3-0.014 3.457 0 0.226 0 0.339-0.085 0.466-0.282 0.198-0.325 0.395-0.663 0.677-0.903 1.397-1.185 3.4-0.762 4.219 0.889 0.099 0.198 0.183 0.339 0.437 0.282 0.72-0.169 1.453-0.254 2.131-0.508 2.765-1.072 4.43-3.951 3.951-6.758-0.536-3.217-3.189-5.489-6.49-5.503-2.921-0.014-5.841 0-8.748-0.014-0.367 0-0.48 0.113-0.48 0.48 0.014 1.947 0 3.922 0 5.884zM3.64 15.774c0.014-0.494-0.409-0.931-0.917-0.945-0.48-0.014-0.917 0.409-0.917 0.903-0.014 0.536 0.381 0.959 0.889 0.974 0.494-0.014 0.931-0.437 0.945-0.931zM10.314 27.965c-0.508 0-0.931 0.423-0.931 0.931 0 0.494 0.451 0.931 0.945 0.917s0.903-0.423 0.903-0.917c0.014-0.536-0.381-0.931-0.917-0.931zM18.963 15.732c0.014-0.522-0.31-0.889-0.818-0.917s-0.945 0.395-0.959 0.917c-0.014 0.508 0.409 0.945 0.917 0.959s0.832-0.353 0.861-0.959z"></path>
</svg>
