<!-- Generated by IcoMoon.io -->
<svg version="1.1" xmlns="http://www.w3.org/2000/svg" width="32" height="32" viewBox="0 0 32 32">
<title>TIDEX</title>
<path d="M28.444 14.589l1.905-2.907h1.256l-2.511 3.626 2.794 4.021h-1.312l-2.159-3.245-2.145 3.245h-1.298l2.794-4.035-2.54-3.612h1.284z"></path>
<path d="M28.416 16.085l-2.145 3.245h-1.298l2.78-4.035-2.54-3.612h1.298l1.933 2.907-0.028 1.496z"></path>
<path d="M18.85 11.527h5.108v1.199h-5.108v-1.199z"></path>
<path d="M18.85 14.829h5.108v1.199h-5.108v-1.199z"></path>
<path d="M18.85 18.131h5.108v1.199h-5.108v-1.199z"></path>
<path d="M29.079 15.309l-0.691 0.79 0.028-1.538z"></path>
<path d="M8.875 19.33h-1.086v-7.718h1.086v7.718zM10.751 11.612h2.653c0.494 0 0.988 0.071 1.481 0.212s0.945 0.381 1.34 0.691c0.409 0.31 0.72 0.72 0.974 1.199 0.254 0.494 0.367 1.072 0.367 1.764 0 0.663-0.127 1.227-0.367 1.707-0.254 0.48-0.564 0.889-0.974 1.199-0.395 0.31-0.847 0.55-1.34 0.705s-0.988 0.24-1.481 0.24h-2.653v-7.718zM11.824 18.37h1.354c0.466 0 0.903-0.056 1.298-0.198 0.395-0.127 0.734-0.325 1.016-0.564 0.282-0.254 0.508-0.564 0.677-0.917 0.155-0.367 0.24-0.776 0.24-1.227 0-0.48-0.085-0.903-0.24-1.27s-0.381-0.663-0.677-0.903c-0.282-0.254-0.621-0.423-1.016-0.564s-0.832-0.198-1.298-0.198h-1.354v5.841z"></path>
<path d="M4.698 11.612h2.074v0.945h-2.074z"></path>
<path d="M4.289 19.33h-1.072v-6.773h-2.483v-0.945h3.556v0.945z"></path>
<path d="M0.282 11.57h3.965l1.51 1.044h-5.474z"></path>
<path d="M4.247 11.57h3.005v1.044h-1.552z"></path>
</svg>
