<?xml version="1.0" encoding="utf-8"?>
<!-- Generator: Adobe Illustrator 22.0.1, SVG Export Plug-In . SVG Version: 6.00 Build 0)  -->
<svg version="1.1" id="Layer_1" xmlns="http://www.w3.org/2000/svg" xmlns:xlink="http://www.w3.org/1999/xlink" x="0px" y="0px"
	 viewBox="0 0 226.8 226.8" style="enable-background:new 0 0 226.8 226.8;" xml:space="preserve">
<style type="text/css">
	.st0{stroke:#FFFFFF;stroke-miterlimit:10;}
</style>
<g>
	<path class="st0" d="M201.5,193H25c-6.7,0-12.9-2.6-17.7-7.3C2.6,180.9,0,174.7,0,168V60.4c0-6.7,2.6-12.9,7.3-17.7
		c4.7-4.7,11-7.3,17.7-7.3h176.5c6.7,0,12.9,2.6,17.7,7.3c4.7,4.7,7.3,11,7.3,17.7V168c0,6.7-2.6,12.9-7.3,17.7
		C214.5,190.4,208.2,193,201.5,193z M193.3,184h8.2c4.2,0,8.3-1.7,11.3-4.7s4.7-7,4.7-11.3v-6.8c-4.6,0.3-8.5,1-11.7,2.2
		c-3.5,1.3-6.2,3.1-8.1,5.5C194.4,173,193.5,178.6,193.3,184z M39.2,184h145.1c0.1-3.5,0.5-6.5,1.1-9.2c1-4.6,2.8-8.4,5.3-11.6
		c5.4-6.8,14.3-10.4,26.9-11.1v-73c-2.9-0.2-5.4-0.5-7.7-1c-4.6-1-8.4-2.8-11.6-5.3c-7-5.7-10.7-15-11.1-28.4H42.3
		c-0.1,4.2-0.4,7.6-1.1,10.6c-1,4.6-2.8,8.4-5.3,11.5c-5.4,6.7-14.3,10.4-26.9,11v73.2c2.8,0.2,5.3,0.5,7.6,1
		c4.6,1,8.4,2.8,11.6,5.3C34.9,162.5,38.5,171.4,39.2,184z M9,159.8v8.2c0,4.2,1.7,8.3,4.7,11.3s7,4.7,11.3,4.7h5.1
		c-0.3-4.6-1-8.5-2.2-11.8c-1.3-3.5-3.1-6.2-5.4-8.1C18.8,161.2,13.9,160.1,9,159.8z M196.2,44.4c0.2,5.3,1,9.7,2.3,13.3
		c1.3,3.5,3.1,6.2,5.5,8.1c3.7,3,8.7,4,13.6,4.3v-9.7c0-4.2-1.7-8.3-4.7-11.3s-7-4.7-11.3-4.7C201.6,44.4,196.2,44.4,196.2,44.4z
		 M25,44.4c-4.2,0-8.3,1.7-11.3,4.7S9,56.1,9,60.4v8.2c4.6-0.3,8.5-1,11.7-2.2c3.5-1.3,6.2-3.1,8.1-5.5c3.6-4.5,4.3-10.7,4.4-16.5
		H25z"/>
	<g>
		<path class="st0" d="M113.7,165.7c-7.2,0-14.1-1.4-20.6-4.2c-6.3-2.7-12-6.5-16.9-11.4s-8.7-10.5-11.4-16.9
			c-2.8-6.5-4.2-13.5-4.2-20.6c0-7.2,1.4-14.1,4.2-20.6c2.7-6.3,6.5-12,11.4-16.9s10.5-8.7,16.9-11.4c6.5-2.8,13.5-4.2,20.6-4.2
			c7.2,0,14.1,1.4,20.6,4.2c6.3,2.7,12,6.5,16.9,11.4s8.7,10.5,11.4,16.9c2.8,6.5,4.2,13.5,4.2,20.6c0,7.2-1.4,14.1-4.2,20.6
			c-2.7,6.3-6.5,12-11.4,16.9s-10.5,8.7-16.9,11.4C127.8,164.3,120.9,165.7,113.7,165.7z M113.7,68.6c-11.8,0-22.8,4.6-31.1,12.9
			s-12.9,19.4-12.9,31.1c0,11.8,4.6,22.8,12.9,31.1s19.4,12.9,31.1,12.9c11.8,0,22.8-4.6,31.1-12.9c8.3-8.3,12.9-19.4,12.9-31.1
			s-4.6-22.8-12.9-31.1C136.5,73.2,125.5,68.6,113.7,68.6z"/>
		<polygon class="st0" points="137,121.8 105.9,121.8 105.9,89.4 115,89.4 115,112.7 137,112.7 		"/>
	</g>
</g>
</svg>
