<!-- Generated by IcoMoon.io -->
<svg version="1.1" xmlns="http://www.w3.org/2000/svg" width="32" height="32" viewBox="0 0 32 32">
<title>TIME</title>
<path d="M28.43 27.231h-24.903c-0.945 0-1.82-0.367-2.497-1.030-0.663-0.677-1.030-1.552-1.030-2.497v-15.182c0-0.945 0.367-1.82 1.030-2.497 0.663-0.663 1.552-1.030 2.497-1.030h24.903c0.945 0 1.82 0.367 2.497 1.030 0.663 0.663 1.030 1.552 1.030 2.497v15.182c0 0.945-0.367 1.82-1.030 2.497-0.663 0.663-1.552 1.030-2.497 1.030zM27.273 25.961h1.157c0.593 0 1.171-0.24 1.594-0.663s0.663-0.988 0.663-1.594v-0.959c-0.649 0.042-1.199 0.141-1.651 0.31-0.494 0.183-0.875 0.437-1.143 0.776-0.466 0.578-0.593 1.369-0.621 2.131zM5.531 25.961h20.473c0.014-0.494 0.071-0.917 0.155-1.298 0.141-0.649 0.395-1.185 0.748-1.637 0.762-0.959 2.018-1.467 3.795-1.566v-10.3c-0.409-0.028-0.762-0.071-1.086-0.141-0.649-0.141-1.185-0.395-1.637-0.748-0.988-0.804-1.51-2.116-1.566-4.007h-20.444c-0.014 0.593-0.056 1.072-0.155 1.496-0.141 0.649-0.395 1.185-0.748 1.623-0.762 0.945-2.018 1.467-3.795 1.552v10.328c0.395 0.028 0.748 0.071 1.072 0.141 0.649 0.141 1.185 0.395 1.637 0.748 0.945 0.776 1.453 2.032 1.552 3.81zM1.27 22.547v1.157c0 0.593 0.24 1.171 0.663 1.594s0.988 0.663 1.594 0.663h0.72c-0.042-0.649-0.141-1.199-0.31-1.665-0.183-0.494-0.437-0.875-0.762-1.143-0.522-0.409-1.213-0.564-1.905-0.607zM27.683 6.265c0.028 0.748 0.141 1.369 0.325 1.877 0.183 0.494 0.437 0.875 0.776 1.143 0.522 0.423 1.227 0.564 1.919 0.607v-1.369c0-0.593-0.24-1.171-0.663-1.594s-0.988-0.663-1.594-0.663c0 0-0.762 0-0.762 0zM3.527 6.265c-0.593 0-1.171 0.24-1.594 0.663s-0.663 0.988-0.663 1.594v1.157c0.649-0.042 1.199-0.141 1.651-0.31 0.494-0.183 0.875-0.437 1.143-0.776 0.508-0.635 0.607-1.51 0.621-2.328h-1.157z"></path>
<path d="M16.042 23.379c-1.016 0-1.989-0.198-2.907-0.593-0.889-0.381-1.693-0.917-2.384-1.608s-1.227-1.481-1.608-2.384c-0.395-0.917-0.593-1.905-0.593-2.907 0-1.016 0.198-1.989 0.593-2.907 0.381-0.889 0.917-1.693 1.608-2.384s1.481-1.227 2.384-1.608c0.917-0.395 1.905-0.593 2.907-0.593 1.016 0 1.989 0.198 2.907 0.593 0.889 0.381 1.693 0.917 2.384 1.608s1.227 1.481 1.608 2.384c0.395 0.917 0.593 1.905 0.593 2.907 0 1.016-0.198 1.989-0.593 2.907-0.381 0.889-0.917 1.693-1.608 2.384s-1.481 1.227-2.384 1.608c-0.917 0.395-1.891 0.593-2.907 0.593zM16.042 9.679c-1.665 0-3.217 0.649-4.388 1.82s-1.82 2.737-1.82 4.388c0 1.665 0.649 3.217 1.82 4.388s2.737 1.82 4.388 1.82c1.665 0 3.217-0.649 4.388-1.82s1.82-2.737 1.82-4.388-0.649-3.217-1.82-4.388c-1.171-1.171-2.723-1.82-4.388-1.82z"></path>
<path d="M19.33 17.185h-4.388v-4.571h1.284v3.287h3.104z"></path>
</svg>
