<!-- Generated by IcoMoon.io -->
<svg version="1.1" xmlns="http://www.w3.org/2000/svg" width="32" height="32" viewBox="0 0 32 32">
<title>TIO</title>
<path d="M16.127 3.951c4.487 0 8.974 0.014 13.46-0.014 1.072 0 1.989 0.212 2.342 1.34 0.353 1.115-0.353 1.75-1.171 2.314-1.933 1.354-3.81 2.78-5.771 4.092-0.861 0.578-1.397 1.284-1.764 2.243-1.721 4.402-3.499 8.762-5.235 13.15-0.367 0.931-0.776 1.75-1.933 1.764-1.227 0.014-1.637-0.861-2.018-1.82-1.778-4.501-3.57-9.002-5.404-13.474-0.254-0.607-0.734-1.199-1.27-1.594-2.018-1.51-4.078-2.949-6.138-4.402-0.832-0.593-1.467-1.256-1.086-2.342 0.367-1.072 1.256-1.27 2.286-1.256 4.571 0.014 9.143 0 13.7 0zM14.829 4.981c-4.402 0-8.522-0.014-12.642 0.028-0.353 0-0.832 0.268-1.016 0.55-0.113 0.169 0.141 0.776 0.395 0.959 2.328 1.707 4.684 3.372 7.055 5.065 2.060-2.187 4.049-4.303 6.208-6.603zM17.227 4.995c2.173 2.3 4.176 4.43 6.208 6.589 2.356-1.693 4.67-3.316 6.956-5.009 0.282-0.212 0.508-0.72 0.466-1.044-0.028-0.212-0.578-0.508-0.903-0.508-4.162-0.042-8.31-0.028-12.727-0.028zM16.55 16.48c2.102-1.496 4.035-2.878 6.039-4.303-2.004-2.13-3.951-4.176-6.039-6.392 0 3.668 0 7.041 0 10.695zM15.436 16.437c0-3.598 0-6.984 0-10.596-2.060 2.187-3.979 4.233-5.968 6.335 1.989 1.425 3.908 2.78 5.968 4.261zM22.236 13.686c-1.834 1.312-3.429 2.384-4.938 3.57-0.381 0.296-0.705 0.931-0.72 1.411-0.071 2.667-0.028 5.347-0.028 8.014 0 0.226 0.042 0.451 0.099 1.016 1.905-4.797 3.683-9.27 5.587-14.011zM15.295 27.358c0.071-0.028 0.141-0.056 0.212-0.085 0-2.907 0.014-5.813-0.014-8.734 0-0.353-0.099-0.847-0.339-1.030-1.665-1.256-3.386-2.455-5.319-3.824 1.891 4.741 3.668 9.199 5.46 13.672z"></path>
</svg>
