<?xml version="1.0" encoding="utf-8"?>
<!-- Generator: Adobe Illustrator 22.1.0, SVG Export Plug-In . SVG Version: 6.00 Build 0)  -->
<svg version="1.1" id="Layer_1" xmlns="http://www.w3.org/2000/svg" xmlns:xlink="http://www.w3.org/1999/xlink" x="0px" y="0px"
	 viewBox="0 0 226.8 226.8" style="enable-background:new 0 0 226.8 226.8;" xml:space="preserve">
<g>
	<path d="M114.3,28c31.8,0,63.6,0.1,95.4-0.1c7.6,0,14.1,1.5,16.6,9.5c2.5,7.9-2.5,12.4-8.3,16.4c-13.7,9.6-27,19.7-40.9,29
		c-6.1,4.1-9.9,9.1-12.5,15.9c-12.2,31.2-24.8,62.1-37.1,93.2c-2.6,6.6-5.5,12.4-13.7,12.5c-8.7,0.1-11.6-6.1-14.3-12.9
		c-12.6-31.9-25.3-63.8-38.3-95.5c-1.8-4.3-5.2-8.5-9-11.3C37.9,74,23.3,63.8,8.7,53.5C2.8,49.3-1.7,44.6,1,36.9
		c2.6-7.6,8.9-9,16.2-8.9C49.6,28.1,82,28,114.3,28z M105.1,35.3c-31.2,0-60.4-0.1-89.6,0.2c-2.5,0-5.9,1.9-7.2,3.9
		c-0.8,1.2,1,5.5,2.8,6.8c16.5,12.1,33.2,23.9,50,35.9C75.7,66.6,89.8,51.6,105.1,35.3z M122.1,35.4c15.4,16.3,29.6,31.4,44,46.7
		c16.7-12,33.1-23.5,49.3-35.5c2-1.5,3.6-5.1,3.3-7.4c-0.2-1.5-4.1-3.6-6.4-3.6C182.8,35.3,153.4,35.4,122.1,35.4z M117.3,116.8
		c14.9-10.6,28.6-20.4,42.8-30.5c-14.2-15.1-28-29.6-42.8-45.3C117.3,67,117.3,90.9,117.3,116.8z M109.4,116.5c0-25.5,0-49.5,0-75.1
		C94.8,56.9,81.2,71.4,67.1,86.3C81.2,96.4,94.8,106,109.4,116.5z M157.6,97c-13,9.3-24.3,16.9-35,25.3c-2.7,2.1-5,6.6-5.1,10
		c-0.5,18.9-0.2,37.9-0.2,56.8c0,1.6,0.3,3.2,0.7,7.2C131.5,162.3,144.1,130.6,157.6,97z M108.4,193.9c0.5-0.2,1-0.4,1.5-0.6
		c0-20.6,0.1-41.2-0.1-61.9c0-2.5-0.7-6-2.4-7.3c-11.8-8.9-24-17.4-37.7-27.1C83.1,130.6,95.7,162.2,108.4,193.9z"/>
</g>
</svg>
