<?xml version="1.0" encoding="utf-8"?>
<!-- Generator: Adobe Illustrator 22.1.0, SVG Export Plug-In . SVG Version: 6.00 Build 0)  -->
<svg version="1.1" id="Layer_1" xmlns="http://www.w3.org/2000/svg" xmlns:xlink="http://www.w3.org/1999/xlink" x="0px" y="0px"
	 viewBox="0 0 226.8 226.8" style="enable-background:new 0 0 226.8 226.8;" xml:space="preserve">
<g>
	<path d="M190.4,110.4c9.3,12,18.2,23.5,27.1,35c2.2,2.9,4.6,5.7,6.6,8.7c3.3,4.8,1.7,8.5-4,9.1c-3.8,0.4-7.7,0.1-11.6,0.1
		c-3.4,0-5.2-2.3-7-4.7c-6.5-8.7-13.1-17.4-19.7-26.1c-1.2-1.6-2.5-3.1-4.1-5c-1.5,1.8-2.9,3.3-4.1,4.9
		c-6.7,8.9-13.5,17.7-20.1,26.7c-2.2,3-4.9,4.5-8.6,4.4c-3.4-0.1-6.8,0.2-10.2-0.3c-4.8-0.6-6.4-4.2-3.9-8.4c1-1.7,2.4-3.3,3.6-4.9
		c21-27.4,41.9-54.8,63-82.2c1.9-2.4,4.2-5.8,6.7-6.3c5-1,10.4-0.7,15.5-0.1c3.2,0.4,4.4,4,2.9,7c-0.8,1.6-2.1,3-3.2,4.4
		C209.9,85,200.4,97.4,190.4,110.4z"/>
	<path d="M54,81.6c0,2.6,0,5.1,0,7.5c0,21.1,0,42.2,0,63.3c0,1.8,0,3.6-0.1,5.4c-0.1,2.9-1.8,4.8-4.6,5c-3.6,0.3-7.2,0.3-10.9,0
		c-3.2-0.2-4.8-2.3-5-5.4c-0.1-1.6-0.1-3.2-0.1-4.8c0-27.2,0-54.5,0-81.7c0-1.4-0.1-2.7,0.1-4.1c0.4-4.5,1.8-6.3,6.3-6.3
		c13.4-0.2,26.8-0.2,40.2-0.1c4.9,0.1,6.3,1.9,6.5,6.9C86.7,79.8,86.5,81,74,80.7c-5.9-0.2-11.8,0-17.7,0.1
		C55.9,80.8,55.5,81.1,54,81.6z"/>
	<path d="M119.3,111.5c0,13.9,0,27.7,0,41.6c0,8.3-1,9.2-9.6,9.3c-0.7,0-1.4,0-2,0c-7.4-0.1-8.9-1.4-8.9-8.7c0-28.2-0.1-56.4,0-84.6
		c0-7.1,1.4-8.4,8.3-8.7c12.6-0.4,12.3,1.8,12.2,11.5C119.2,85.1,119.3,98.3,119.3,111.5z"/>
	<path d="M162,96.4c-5.4,1.3-9.5-1.6-12.9-6.6c-4.2-6.2-9.1-11.9-13.6-17.9c-0.8-1.1-1.8-2.1-2.4-3.3c-2-3.6-0.7-7.2,3.4-7.7
		c4.7-0.6,9.5-0.5,14.2,0c1.7,0.2,3.6,1.9,4.8,3.4c5.8,7.3,11.3,14.8,16.9,22.3c1.5,2,3,4.1,1.6,6.8c-1.4,2.7-3.9,2.9-6.4,3
		C165.9,96.4,164.3,96.4,162,96.4z"/>
	<path d="M13,80.7c-11.5,0-11.9-0.3-11.6-11.7c0.1-7.1,1.2-8.3,8.3-8.5c3.4-0.1,6.8-0.1,10.2,0.2c3.9,0.4,5.1,1.8,5.5,5.6
		c0.1,0.4,0,0.9,0,1.4C25.4,79.5,26.2,81.1,13,80.7z"/>
</g>
</svg>
