<!-- Generated by IcoMoon.io -->
<svg version="1.1" xmlns="http://www.w3.org/2000/svg" width="32" height="32" viewBox="0 0 32 32">
<title>TIX</title>
<path d="M26.864 15.577c1.312 1.693 2.568 3.316 3.824 4.938 0.31 0.409 0.649 0.804 0.931 1.227 0.466 0.677 0.24 1.199-0.564 1.284-0.536 0.056-1.086 0.014-1.637 0.014-0.48 0-0.734-0.325-0.988-0.663-0.917-1.227-1.848-2.455-2.78-3.683-0.169-0.226-0.353-0.437-0.578-0.705-0.212 0.254-0.409 0.466-0.578 0.691-0.945 1.256-1.905 2.497-2.836 3.767-0.31 0.423-0.691 0.635-1.213 0.621-0.48-0.014-0.959 0.028-1.439-0.042-0.677-0.085-0.903-0.593-0.55-1.185 0.141-0.24 0.339-0.466 0.508-0.691 2.963-3.866 5.912-7.732 8.889-11.598 0.268-0.339 0.593-0.818 0.945-0.889 0.705-0.141 1.467-0.099 2.187-0.014 0.451 0.056 0.621 0.564 0.409 0.988-0.113 0.226-0.296 0.423-0.451 0.621-1.326 1.735-2.667 3.485-4.078 5.319z"></path>
<path d="M7.619 11.513c0 0.367 0 0.72 0 1.058 0 2.977 0 5.954 0 8.931 0 0.254 0 0.508-0.014 0.762-0.014 0.409-0.254 0.677-0.649 0.705-0.508 0.042-1.016 0.042-1.538 0-0.452-0.028-0.677-0.325-0.705-0.762-0.014-0.226-0.014-0.451-0.014-0.677 0-3.838 0-7.69 0-11.527 0-0.198-0.014-0.381 0.014-0.578 0.056-0.635 0.254-0.889 0.889-0.889 1.891-0.028 3.781-0.028 5.672-0.014 0.691 0.014 0.889 0.268 0.917 0.974 0.042 1.764 0.014 1.933-1.75 1.891-0.832-0.028-1.665 0-2.497 0.014-0.056 0-0.113 0.042-0.325 0.113z"></path>
<path d="M16.832 15.732c0 1.961 0 3.908 0 5.87 0 1.171-0.141 1.298-1.354 1.312-0.099 0-0.198 0-0.282 0-1.044-0.014-1.256-0.198-1.256-1.227 0-3.979-0.014-7.958 0-11.937 0-1.002 0.198-1.185 1.171-1.228 1.778-0.056 1.735 0.254 1.721 1.623-0.014 1.862 0 3.725 0 5.587z"></path>
<path d="M22.857 13.601c-0.762 0.183-1.34-0.226-1.82-0.931-0.593-0.875-1.284-1.679-1.919-2.526-0.113-0.155-0.254-0.296-0.339-0.466-0.282-0.508-0.099-1.016 0.48-1.086 0.663-0.085 1.34-0.071 2.004 0 0.24 0.028 0.508 0.268 0.677 0.48 0.818 1.030 1.594 2.088 2.384 3.146 0.212 0.282 0.423 0.578 0.226 0.959s-0.55 0.409-0.903 0.423c-0.24 0-0.466 0-0.79 0z"></path>
<path d="M1.834 11.386c-1.623 0-1.679-0.042-1.637-1.651 0.014-1.002 0.169-1.171 1.171-1.199 0.48-0.014 0.959-0.014 1.439 0.028 0.55 0.056 0.72 0.254 0.776 0.79 0.014 0.056 0 0.127 0 0.198 0 1.665 0.113 1.891-1.75 1.834z"></path>
</svg>
