<!-- Generated by IcoMoon.io -->
<svg version="1.1" xmlns="http://www.w3.org/2000/svg" width="32" height="32" viewBox="0 0 32 32">
<title>TKY</title>
<path d="M11.123 17.485c-0.141 0.333-0.269 0.653-0.422 0.96-0.768 1.536-1.984 2.547-3.648 2.97-2.445 0.614-4.826-0.346-6.182-2.458-0.512-0.794-0.781-1.651-0.858-2.598-0.102-1.549 0.333-2.918 1.331-4.096 1.754-2.061 4.736-2.598 7.104-1.242 1.293 0.742 2.15 1.83 2.598 3.251 0.064 0.218 0.179 0.294 0.397 0.294 2.982-0.013 5.965-0.013 8.96-0.013 1.728 0 3.469 0 5.197 0 1.971 0 3.942 0 5.926 0 0.461 0 0.474 0.013 0.474 0.474 0 0.614 0 0.614-0.627 0.614-6.554 0-13.094 0-19.648 0-0.397 0-0.589 0.282-0.41 0.64 0.026 0.064 0.115 0.102 0.192 0.128s0.179 0.013 0.269 0.013c6.554 0 13.094 0 19.648 0 0.589 0 0.589 0 0.589 0.576 0 0.090 0.026 0.192-0.013 0.256-0.038 0.090-0.128 0.166-0.218 0.205-0.077 0.038-0.192 0.013-0.282 0.013-6.682 0-13.35 0-20.032 0-0.128-0.013-0.23 0.013-0.346 0.013zM3.238 15.936c-0.026 1.229 0.922 2.432 2.394 2.432 1.51 0 2.406-1.203 2.419-2.394 0.013-1.357-1.050-2.432-2.419-2.445-1.306 0-2.381 1.062-2.394 2.406z"></path>
<path d="M21.581 12.787c0 0.397 0 0.781 0 1.178 0 0.205-0.051 0.333-0.294 0.333-0.269-0.013-0.32-0.051-0.333-0.32 0-0.23 0-0.448 0-0.678 0-0.179-0.077-0.269-0.256-0.256-0.269 0-0.525 0-0.794 0-0.205 0-0.269 0.102-0.269 0.282 0 0.243 0 0.486 0 0.717s-0.154 0.243-0.333 0.243c-0.166 0-0.307-0.038-0.307-0.243 0-0.845 0-1.69 0-2.522 0-0.23 0.154-0.243 0.32-0.243 0.179 0 0.32 0.038 0.307 0.269 0 0.23 0 0.461 0 0.704 0 0.192 0.077 0.282 0.269 0.282 0.256 0 0.512 0 0.768 0 0.179 0 0.269-0.077 0.269-0.256 0-0.243 0.013-0.486 0-0.717 0-0.23 0.141-0.256 0.32-0.256 0.192 0 0.307 0.038 0.307 0.269 0.026 0.371 0.026 0.794 0.026 1.216 0 0 0 0 0 0z"></path>
<path d="M25.37 12.634c0.102-0.115 0.166-0.179 0.205-0.243 0.192-0.282 0.384-0.576 0.589-0.858 0.205-0.294 0.461-0.358 0.832-0.192-0.038 0.077-0.077 0.166-0.128 0.243-0.218 0.333-0.435 0.653-0.666 0.973-0.102 0.141-0.102 0.269 0 0.41 0.218 0.307 0.422 0.627 0.64 0.934 0.064 0.102 0.128 0.205 0.179 0.307-0.32 0.166-0.666 0.090-0.832-0.166-0.256-0.371-0.512-0.742-0.755-1.101-0.026 0-0.051 0-0.064 0-0.013 0.090-0.051 0.179-0.051 0.282-0.013 0.269-0.013 0.525 0 0.794 0 0.218-0.115 0.269-0.307 0.269s-0.333-0.026-0.333-0.269c0-0.832 0-1.664 0-2.509 0-0.23 0.141-0.256 0.32-0.256s0.32 0.026 0.32 0.256c0 0.269 0 0.525 0.013 0.794 0 0.090 0.013 0.179 0.038 0.333z"></path>
<path d="M22.362 12.774c0-0.397 0-0.806 0-1.203 0-0.218 0.077-0.307 0.294-0.307 0.384 0.013 0.768 0 1.152 0 0.179 0 0.269 0.064 0.269 0.256 0 0.179-0.090 0.269-0.269 0.256-0.192 0-0.384 0-0.576 0-0.23 0-0.256 0.154-0.243 0.333 0 0.179-0.026 0.371 0.23 0.384 0.205 0.013 0.397 0.013 0.602 0.013 0.166 0 0.243 0.077 0.256 0.243 0 0.179-0.064 0.282-0.243 0.282s-0.371 0.013-0.55 0c-0.269-0.013-0.294 0.154-0.294 0.358 0 0.192 0.013 0.384 0.282 0.371 0.192 0 0.384 0 0.576 0 0.166 0 0.23 0.077 0.23 0.243 0 0.154-0.038 0.269-0.23 0.269-0.422 0-0.832 0-1.254 0-0.192 0-0.243-0.115-0.243-0.282 0.013-0.397 0.013-0.806 0.013-1.216z"></path>
<path d="M27.507 12.787c0-0.41 0-0.819 0-1.229 0-0.205 0.077-0.294 0.282-0.294 0.371 0 0.755 0 1.126 0 0.179 0 0.294 0.064 0.282 0.269 0 0.205-0.115 0.256-0.294 0.256-0.166 0-0.333 0-0.499 0-0.23 0-0.256 0.141-0.256 0.32s0 0.371 0.256 0.384c0.179 0.013 0.371 0.013 0.55 0.013s0.256 0.102 0.243 0.282c0 0.166-0.090 0.256-0.256 0.256-0.141 0-0.269 0-0.41 0-0.346 0-0.397 0.051-0.397 0.384 0 0.307 0.051 0.346 0.41 0.346 0.141 0 0.269 0 0.41 0 0.179 0 0.243 0.090 0.243 0.256s-0.077 0.256-0.243 0.256c-0.397 0-0.806 0-1.203 0-0.192 0-0.256-0.102-0.256-0.282 0.013-0.397 0.013-0.806 0.013-1.216z"></path>
<path d="M29.606 11.341c0.448-0.154 0.602-0.102 0.755 0.269 0.090 0.205 0.166 0.41 0.256 0.627 0.038 0.077 0.090 0.154 0.179 0.294 0.102-0.218 0.166-0.371 0.243-0.525 0.077-0.166 0.141-0.333 0.205-0.486 0.128-0.282 0.397-0.346 0.691-0.154-0.026 0.077-0.051 0.154-0.090 0.23-0.128 0.282-0.243 0.563-0.384 0.832-0.256 0.474-0.41 0.947-0.358 1.498 0.026 0.32-0.064 0.371-0.371 0.371-0.192 0-0.294-0.102-0.269-0.282 0.102-0.691-0.205-1.267-0.486-1.856-0.141-0.269-0.256-0.538-0.371-0.819z"></path>
<path d="M16.973 11.814c-0.192-0.013-0.371-0.026-0.538-0.026-0.179 0-0.294-0.064-0.294-0.269 0-0.218 0.128-0.256 0.294-0.256 0.589 0 1.19 0 1.779 0 0.179 0 0.294 0.051 0.294 0.256s-0.115 0.269-0.294 0.256c-0.64-0.013-0.576 0.038-0.576 0.589 0 0.525 0 1.062 0 1.587 0 0.282-0.051 0.32-0.32 0.32s-0.32-0.038-0.32-0.333c0-0.589 0-1.178 0-1.754 0-0.102-0.013-0.218-0.026-0.371z"></path>
</svg>
