<?xml version="1.0" encoding="utf-8"?>
<!-- Generator: Adobe Illustrator 22.1.0, SVG Export Plug-In . SVG Version: 6.00 Build 0)  -->
<svg version="1.1" id="Layer_1" xmlns="http://www.w3.org/2000/svg" xmlns:xlink="http://www.w3.org/1999/xlink" x="0px" y="0px"
	 viewBox="0 0 250 250" style="enable-background:new 0 0 250 250;" xml:space="preserve">
<g>
	<path d="M86.9,136.6c-1.1,2.6-2.1,5.1-3.3,7.5c-6,12-15.5,19.9-28.5,23.2c-19.1,4.8-37.7-2.7-48.3-19.2c-4-6.2-6.1-12.9-6.7-20.3
		c-0.8-12.1,2.6-22.8,10.4-32c13.7-16.1,37-20.3,55.5-9.7c10.1,5.8,16.8,14.3,20.3,25.4c0.5,1.7,1.4,2.3,3.1,2.3
		c23.3-0.1,46.6-0.1,70-0.1c13.5,0,27.1,0,40.6,0c15.4,0,30.8,0,46.3,0c3.6,0,3.7,0.1,3.7,3.7c0,4.8,0,4.8-4.9,4.8
		c-51.2,0-102.3,0-153.5,0c-3.1,0-4.6,2.2-3.2,5c0.2,0.5,0.9,0.8,1.5,1c0.6,0.2,1.4,0.1,2.1,0.1c51.2,0,102.3,0,153.5,0
		c4.6,0,4.6,0,4.6,4.5c0,0.7,0.2,1.5-0.1,2c-0.3,0.7-1,1.3-1.7,1.6c-0.6,0.3-1.5,0.1-2.2,0.1c-52.2,0-104.3,0-156.5,0
		C88.6,136.4,87.8,136.6,86.9,136.6z M25.3,124.5c-0.2,9.6,7.2,19,18.7,19c11.8,0,18.8-9.4,18.9-18.7c0.1-10.6-8.2-19-18.9-19.1
		C33.8,105.7,25.4,114,25.3,124.5z"/>
	<path d="M168.6,99.9c0,3.1,0,6.1,0,9.2c0,1.6-0.4,2.6-2.3,2.6c-2.1-0.1-2.5-0.4-2.6-2.5c0-1.8,0-3.5,0-5.3c0-1.4-0.6-2.1-2-2
		c-2.1,0-4.1,0-6.2,0c-1.6,0-2.1,0.8-2.1,2.2c0,1.9,0,3.8,0,5.6c0,1.8-1.2,1.9-2.6,1.9c-1.3,0-2.4-0.3-2.4-1.9c0-6.6,0-13.2,0-19.7
		c0-1.8,1.2-1.9,2.5-1.9c1.4,0,2.5,0.3,2.4,2.1c0,1.8,0,3.6,0,5.5c0,1.5,0.6,2.2,2.1,2.2c2,0,4,0,6,0c1.4,0,2.1-0.6,2.1-2
		c0-1.9,0.1-3.8,0-5.6c0-1.8,1.1-2,2.5-2c1.5,0,2.4,0.3,2.4,2.1C168.6,93.3,168.6,96.6,168.6,99.9C168.6,99.9,168.6,99.9,168.6,99.9
		z"/>
	<path d="M198.2,98.7c0.8-0.9,1.3-1.4,1.6-1.9c1.5-2.2,3-4.5,4.6-6.7c1.6-2.3,3.6-2.8,6.5-1.5c-0.3,0.6-0.6,1.3-1,1.9
		c-1.7,2.6-3.4,5.1-5.2,7.6c-0.8,1.1-0.8,2.1,0,3.2c1.7,2.4,3.3,4.9,5,7.3c0.5,0.8,1,1.6,1.4,2.4c-2.5,1.3-5.2,0.7-6.5-1.3
		c-2-2.9-4-5.8-5.9-8.6c-0.2,0-0.4,0-0.5,0c-0.1,0.7-0.4,1.4-0.4,2.2c-0.1,2.1-0.1,4.1,0,6.2c0,1.7-0.9,2.1-2.4,2.1
		c-1.5,0-2.6-0.2-2.6-2.1c0-6.5,0-13,0-19.6c0-1.8,1.1-2,2.5-2c1.4,0,2.5,0.2,2.5,2c0,2.1,0,4.1,0.1,6.2
		C197.9,96.8,198,97.5,198.2,98.7z"/>
	<path d="M174.7,99.8c0-3.1,0-6.3,0-9.4c0-1.7,0.6-2.4,2.3-2.4c3,0.1,6,0,9,0c1.4,0,2.1,0.5,2.1,2c0,1.4-0.7,2.1-2.1,2
		c-1.5,0-3,0-4.5,0c-1.8,0-2,1.2-1.9,2.6c0,1.4-0.2,2.9,1.8,3c1.6,0.1,3.1,0.1,4.7,0.1c1.3,0,1.9,0.6,2,1.9c0,1.4-0.5,2.2-1.9,2.2
		c-1.4,0-2.9,0.1-4.3,0c-2.1-0.1-2.3,1.2-2.3,2.8c0,1.5,0.1,3,2.2,2.9c1.5,0,3,0,4.5,0c1.3,0,1.8,0.6,1.8,1.9c0,1.2-0.3,2.1-1.8,2.1
		c-3.3,0-6.5,0-9.8,0c-1.5,0-1.9-0.9-1.9-2.2C174.7,106.2,174.7,103,174.7,99.8z"/>
	<path d="M214.9,99.9c0-3.2,0-6.4,0-9.6c0-1.6,0.6-2.3,2.2-2.3c2.9,0,5.9,0,8.8,0c1.4,0,2.3,0.5,2.2,2.1c0,1.6-0.9,2-2.3,2
		c-1.3,0-2.6,0-3.9,0c-1.8,0-2,1.1-2,2.5c0,1.4,0,2.9,2,3c1.4,0.1,2.9,0.1,4.3,0.1c1.4,0,2,0.8,1.9,2.2c0,1.3-0.7,2-2,2
		c-1.1,0-2.1,0-3.2,0c-2.7,0-3.1,0.4-3.1,3c0,2.4,0.4,2.7,3.2,2.7c1.1,0,2.1,0,3.2,0c1.4,0,1.9,0.7,1.9,2c0,1.3-0.6,2-1.9,2
		c-3.1,0-6.3,0-9.4,0c-1.5,0-2-0.8-2-2.2C214.9,106.3,214.9,103.1,214.9,99.9z"/>
	<path d="M231.3,88.6c3.5-1.2,4.7-0.8,5.9,2.1c0.7,1.6,1.3,3.2,2,4.9c0.3,0.6,0.7,1.2,1.4,2.3c0.8-1.7,1.3-2.9,1.9-4.1
		c0.6-1.3,1.1-2.6,1.6-3.8c1-2.2,3.1-2.7,5.4-1.2c-0.2,0.6-0.4,1.2-0.7,1.8c-1,2.2-1.9,4.4-3,6.5c-2,3.7-3.2,7.4-2.8,11.7
		c0.2,2.5-0.5,2.9-2.9,2.9c-1.5,0-2.3-0.8-2.1-2.2c0.8-5.4-1.6-9.9-3.8-14.5C233.1,92.9,232.2,90.8,231.3,88.6z"/>
	<path d="M132.6,92.3c-1.5-0.1-2.9-0.2-4.2-0.2c-1.4,0-2.3-0.5-2.3-2.1c0-1.7,1-2,2.3-2c4.6,0,9.3,0,13.9,0c1.4,0,2.3,0.4,2.3,2
		c0,1.6-0.9,2.1-2.3,2c-5-0.1-4.5,0.3-4.5,4.6c0,4.1,0,8.3,0,12.4c0,2.2-0.4,2.5-2.5,2.5c-2.1,0-2.5-0.3-2.5-2.6c0-4.6,0-9.2,0-13.7
		C132.8,94.4,132.7,93.5,132.6,92.3z"/>
</g>
</svg>
