<?xml version="1.0" encoding="utf-8"?>
<!-- Generator: Adobe Illustrator 22.0.1, SVG Export Plug-In . SVG Version: 6.00 Build 0)  -->
<svg version="1.1" id="Layer_1" xmlns="http://www.w3.org/2000/svg" xmlns:xlink="http://www.w3.org/1999/xlink" x="0px" y="0px"
	 viewBox="0 0 226.8 226.8" style="enable-background:new 0 0 226.8 226.8;" xml:space="preserve">
<style type="text/css">
	.st0{stroke:#FFFFFF;stroke-miterlimit:10;}
</style>
<path class="st0" d="M113.6,224.1c-60.8,0-110.2-49.4-110.2-110.2S52.8,3.6,113.6,3.6S223.8,53,223.8,113.8S174.4,224.1,113.6,224.1
	z M113.6,9.1C55.8,9.1,8.8,56.1,8.8,113.9s47,104.8,104.8,104.8s104.8-47,104.8-104.8C218.4,56.1,171.4,9.1,113.6,9.1z"/>
<g>
	<path class="st0" d="M112.4,79.4l0.6-3H70.7H57.5H52l-18.1,76.1h19.9l13.7-61.6h24.4l-14.5,61.6h18.1l14.3-61.6h0.2l2.2-10.4
		L112.4,79.4L112.4,79.4"/>
	<path class="st0" d="M146.8,76.4l-18.1,75.5h38c4.6,0,9.1-0.7,13.5-2c7.2-2.3,16-7.2,17.4-17.3h5.4l1.8-7.2h-6.6
		c0,0,0.6-10.9-13.3-12.7c0,0,12.1-3.6,13.9-10.3h6l2.4-7.2h-6.6c0,0,2.4-17.5-23.6-18.7"/>
	<path class="st0" d="M43.6,90.9H24.2l3.6-14.5h19.3L43.6,90.9"/>
</g>
<g>
	<path class="st0" d="M172.5,106.6h-15.4l3.6-16.3h11.8c4.5,0,8.1,3.6,8.2,8.1l0,0C180.7,103,177,106.6,172.5,106.6L172.5,106.6"/>
	<path class="st0" d="M168.4,138h-18.5l4.4-18.7h14.2c5.4,0,9.8,4.2,9.8,9.4C178.2,133.8,173.8,138,168.4,138"/>
</g>
<path class="st0" d="M126.3,144.1l-15.7-37.4l6.6-29l15.7,35.6L126.3,144.1"/>
</svg>
