<!-- Generated by IcoMoon.io -->
<svg version="1.1" xmlns="http://www.w3.org/2000/svg" width="32" height="32" viewBox="0 0 32 32">
<title>TNB</title>
<path d="M16.028 31.619c-8.578 0-15.549-6.97-15.549-15.549s6.97-15.563 15.549-15.563 15.549 6.97 15.549 15.549-6.97 15.563-15.549 15.563zM16.028 1.284c-8.155 0-14.787 6.631-14.787 14.787s6.631 14.787 14.787 14.787 14.787-6.631 14.787-14.787c0-8.155-6.631-14.787-14.787-14.787z"></path>
<path d="M15.859 11.203l0.085-0.423h-8.607l-2.554 10.737h2.808l1.933-8.691h3.443l-2.046 8.691h2.554l2.018-8.691h0.028l0.31-1.467 0.028-0.155"></path>
<path d="M20.713 10.78l-2.554 10.653h5.362c0.649 0 1.284-0.099 1.905-0.282 1.016-0.325 2.258-1.016 2.455-2.441h0.762l0.254-1.016h-0.931c0 0 0.085-1.538-1.877-1.792 0 0 1.707-0.508 1.961-1.453h0.847l0.339-1.016h-0.931c0 0 0.339-2.469-3.33-2.638"></path>
<path d="M6.152 12.825h-2.737l0.508-2.046h2.723l-0.494 2.046"></path>
<path d="M24.339 15.041h-2.173l0.508-2.3h1.665c0.635 0 1.143 0.508 1.157 1.143v0c0 0.649-0.522 1.157-1.157 1.157v0"></path>
<path d="M23.76 19.471h-2.61l0.621-2.638h2.004c0.762 0 1.383 0.593 1.383 1.326-0.014 0.72-0.635 1.312-1.397 1.312"></path>
<path d="M17.82 20.332l-2.215-5.277 0.931-4.092 2.215 5.023-0.931 4.346"></path>
</svg>
