<!-- Generated by IcoMoon.io -->
<svg version="1.1" xmlns="http://www.w3.org/2000/svg" width="32" height="32" viewBox="0 0 32 32">
<title>TNC</title>
<path d="M15.019 19.139l2.568 4.557h-0.056c-6.095-0.212-8.734-4.6-8.734-4.6"></path>
<path d="M17.531 23.697l-8.085 0.056c-3.302-2.258-0.776-4.642-0.776-4.642h0.141c-0.014-0.014 2.624 4.374 8.72 4.586"></path>
<path d="M12.705 2.448l2.864 5.065-1.806 3.019c0 0-6.095-0.353-13.686 13.249h-0.085l12.713-21.333z"></path>
<path d="M13.764 10.533l-5.051 8.423c-0.127-0.014-5.192-0.48-8.635 4.825 7.591-13.601 13.686-13.249 13.686-13.249"></path>
<path d="M9.446 23.739l-3.612 0.028h-5.757c3.443-5.305 8.508-4.84 8.635-4.825l-0.085 0.141h0.028c0 0.014-2.511 2.399 0.79 4.656"></path>
<path d="M20.24 24.981c0.028-0.071 2.399-4.543-0.522-9.848l4.19 6.914c-0.254 3.993-3.598 3.062-3.598 3.062"></path>
<path d="M19.704 15.118c2.921 5.305 0.564 9.778 0.522 9.848l-3.16-5.376 2.596-4.529 0.042 0.056"></path>
<path d="M28.72 30.060c-6.392-0.24-8.564-4.938-8.564-4.938h0.155l-0.014-0.028c0 0 3.344 0.931 3.598-3.062l1.891 3.104"></path>
<path d="M20.155 25.122c0 0 2.173 4.698 8.564 4.938-15.577 0.437-18.384-4.966-18.384-4.966"></path>
<path d="M10.335 25.093c0 0 2.808 5.418 18.384 4.966l0.042 0.056-24.832 0.014 2.878-5.051"></path>
<path d="M16.233 17.771h-5.22l0.028-0.056c3.146-5.164 8.212-5.362 8.282-5.362"></path>
<path d="M11.041 17.714l3.908-7.069c3.598-1.764 4.444 1.594 4.444 1.594l-0.071 0.113c-0.085 0.014-5.136 0.198-8.282 5.362"></path>
<path d="M31.922 23.936l-5.827 0.014-1.75-3.062c0 0 3.302-5.136-4.84-18.427l0.028-0.056 12.388 21.531z"></path>
<path d="M24.36 20.889l-4.868-8.536c0 0 3.005-4.219 0.028-9.891v0c8.127 13.291 4.84 18.427 4.84 18.427z"></path>
<path d="M14.949 10.646l1.75-3.175 2.808-5.009c2.977 5.672-0.028 9.891-0.028 9.891l-0.085-0.141-0.014 0.028c0.014 0-0.832-3.358-4.43-1.594"></path>
</svg>
