<?xml version="1.0" encoding="utf-8"?>
<!-- Generator: Adobe Illustrator 22.0.1, SVG Export Plug-In . SVG Version: 6.00 Build 0)  -->
<svg version="1.1" id="Layer_1" xmlns="http://www.w3.org/2000/svg" xmlns:xlink="http://www.w3.org/1999/xlink" x="0px" y="0px"
	 viewBox="0 0 226.8 226.8" style="enable-background:new 0 0 226.8 226.8;" xml:space="preserve">
<style type="text/css">
	.st0{stroke:#FFFFFF;stroke-miterlimit:10;}
</style>
<g transform="translate(-.25-.25)">
	<path class="st0" d="M106.7,135.9l18.2,32.3h-0.4c-43.2-1.5-61.9-32.6-61.9-32.6"/>
	<path class="st0" d="M124.5,168.2l-57.3,0.4c-23.4-16-5.5-32.9-5.5-32.9h1C62.6,135.6,81.3,166.7,124.5,168.2"/>
	<path class="st0" d="M90.3,17.6l20.3,35.9L97.8,74.9c0,0-43.2-2.5-97,93.9H0.2L90.3,17.6z"/>
	<path class="st0" d="M97.8,74.9L62,134.6c-0.9-0.1-36.8-3.4-61.2,34.2C54.6,72.4,97.8,74.9,97.8,74.9"/>
	<path class="st0" d="M67.2,168.5l-25.6,0.2H0.8c24.4-37.6,60.3-34.3,61.2-34.2l-0.6,1h0.2C61.6,135.6,43.8,152.5,67.2,168.5"/>
	<path class="st0" d="M143.7,177.3c0.2-0.5,17-32.2-3.7-69.8l29.7,49c-1.8,28.3-25.5,21.7-25.5,21.7"/>
	<path class="st0" d="M139.9,107.4c20.7,37.6,4,69.3,3.7,69.8l-22.4-38.1l18.4-32.1L139.9,107.4"/>
	<path class="st0" d="M203.8,213.3c-45.3-1.7-60.7-35-60.7-35h1.1l-0.1-0.2c0,0,23.7,6.6,25.5-21.7l13.4,22"/>
	<path class="st0" d="M143.1,178.3c0,0,15.4,33.3,60.7,35c-110.4,3.1-130.3-35.2-130.3-35.2"/>
	<path class="st0" d="M73.5,178.1c0,0,19.9,38.4,130.3,35.2l0.3,0.4l-176,0.1L48.5,178"/>
	<path class="st0" d="M115.3,126.2h-37l0.2-0.4c22.3-36.6,58.2-38,58.7-38"/>
	<path class="st0" d="M78.5,125.8l27.7-50.1C131.7,63.2,137.7,87,137.7,87l-0.5,0.8C136.6,87.9,100.8,89.2,78.5,125.8"/>
	<path class="st0" d="M226.5,169.9l-41.3,0.1l-12.4-21.7c0,0,23.4-36.4-34.3-130.6l0.2-0.4L226.5,169.9z"/>
	<path class="st0" d="M172.9,148.3l-34.5-60.5c0,0,21.3-29.9,0.2-70.1l0,0C196.2,111.9,172.9,148.3,172.9,148.3z"/>
	<path class="st0" d="M106.2,75.7l12.4-22.5l19.9-35.5c21.1,40.2-0.2,70.1-0.2,70.1l-0.6-1l-0.1,0.2C137.7,87,131.7,63.2,106.2,75.7
		"/>
</g>
</svg>
