<!-- Generated by IcoMoon.io -->
<svg version="1.1" xmlns="http://www.w3.org/2000/svg" width="32" height="32" viewBox="0 0 32 32">
<title>TOMO</title>
<path d="M15.958 32c-0.988-0.099-1.989-0.183-2.977-0.325-0.79-0.127-1.115-0.508-0.959-1.044 0.198-0.705 0.748-0.607 1.284-0.522 4.995 0.889 9.383-0.423 12.896-4.021 4.12-4.219 5.291-9.326 3.316-14.871-1.989-5.559-6.123-8.818-12.035-9.467-8.889-0.974-16.466 6.434-15.788 15.337 0.071 0.889 0.268 1.778 0.466 2.653 0.127 0.55 0.155 1.016-0.452 1.242-0.55 0.212-0.945-0.085-1.143-0.847-1.397-5.644-0.169-10.667 3.725-14.956 3.118-3.443 7.097-5.122 11.711-5.178 7.845-0.099 14.871 6.095 15.788 13.87 1.058 8.931-4.882 16.677-13.813 17.961-0.663 0.099-1.34 0.071-2.018 0.113 0.014 0.014 0 0.042 0 0.056z"></path>
<path d="M5.672 15.238c0.014 5.996 3.668 10.187 8.945 11.048 4.741 0.776 9.623-2.272 11.217-6.97 0.113-0.325 0.183-0.677 0.296-1.002 0.169-0.494 0.522-0.762 1.044-0.578 0.48 0.155 0.593 0.522 0.466 1.030-1.030 3.965-3.4 6.829-7.21 8.339-7.393 2.921-15.323-1.82-16.339-9.693-0.705-5.347 2.328-10.596 7.21-12.501 5.333-2.074 11.217-0.409 14.392 4.064 0.339 0.48 0.536 0.959-0.042 1.369-0.593 0.423-0.945 0.014-1.284-0.451-3.725-4.952-10.751-5.728-15.379-1.665-2.342 2.060-3.259 4.769-3.316 7.012z"></path>
<path d="M16.748 22.448c-2.737 0.014-4.727-1.919-4.769-4.346-0.028-1.298-0.028-2.596 0-3.894 0.014-0.564-0.169-0.818-0.776-0.804-0.621 0.014-1.326 0.056-1.425-0.818-0.056-0.55 0.381-0.804 1.425-0.79 0.593 0.014 0.847-0.198 0.776-0.776 0-0.042 0-0.099 0-0.155 0.014-0.889 0.296-1.298 0.889-1.298 0.607 0 0.974 0.451 0.931 1.354-0.028 0.705 0.226 0.903 0.903 0.889 1.298-0.042 2.596 0 3.894-0.014 0.564 0 1.129 0.085 1.157 0.762 0.028 0.734-0.578 0.847-1.157 0.861-1.326 0.014-2.653 0.028-3.965 0-0.621-0.014-0.832 0.212-0.818 0.832 0.028 1.242 0.014 2.497 0.014 3.753 0 1.086 0.494 1.862 1.439 2.356 0.959 0.494 1.877 0.367 2.751-0.254 0.099-0.071 0.198-0.155 0.296-0.226 0.451-0.296 0.903-0.31 1.27 0.127 0.381 0.451 0.24 0.903-0.141 1.27-0.875 0.748-1.862 1.157-2.695 1.171z"></path>
</svg>
