<?xml version="1.0" encoding="utf-8"?>
<!-- Generator: Adobe Illustrator 22.1.0, SVG Export Plug-In . SVG Version: 6.00 Build 0)  -->
<svg version="1.1" id="Layer_1" xmlns="http://www.w3.org/2000/svg" xmlns:xlink="http://www.w3.org/1999/xlink" x="0px" y="0px"
	 viewBox="0 0 226.8 226.8" style="enable-background:new 0 0 226.8 226.8;" xml:space="preserve">
<g>
	<path d="M113.1,226.8c-7-0.7-14.1-1.3-21.1-2.3c-5.6-0.9-7.9-3.6-6.8-7.4c1.4-5,5.3-4.3,9.1-3.7c35.4,6.3,66.5-3,91.4-28.5
		c29.2-29.9,37.5-66.1,23.5-105.4c-14.1-39.4-43.4-62.5-85.3-67.1C60.9,5.5,7.2,58,12,121.1c0.5,6.3,1.9,12.6,3.3,18.8
		c0.9,3.9,1.1,7.2-3.2,8.8c-3.9,1.5-6.7-0.6-8.1-6c-9.9-40-1.2-75.6,26.4-106C52.5,12.3,80.7,0.4,113.4,0
		c55.6-0.7,105.4,43.2,111.9,98.3c7.5,63.3-34.6,118.2-97.9,127.3c-4.7,0.7-9.5,0.5-14.3,0.8C113.2,226.5,113.1,226.7,113.1,226.8z"
		/>
	<path d="M40.2,108c0.1,42.5,26,72.2,63.4,78.3c33.6,5.5,68.2-16.1,79.5-49.4c0.8-2.3,1.3-4.8,2.1-7.1c1.2-3.5,3.7-5.4,7.4-4.1
		c3.4,1.1,4.2,3.7,3.3,7.3c-7.3,28.1-24.1,48.4-51.1,59.1c-52.4,20.7-108.6-12.9-115.8-68.7C24,85.5,45.5,48.3,80.1,34.8
		c37.8-14.7,79.5-2.9,102,28.8c2.4,3.4,3.8,6.8-0.3,9.7c-4.2,3-6.7,0.1-9.1-3.2C146.3,35,96.5,29.5,63.7,58.3
		C47.1,72.9,40.6,92.1,40.2,108z"/>
	<path d="M118.7,159.1c-19.4,0.1-33.5-13.6-33.8-30.8c-0.2-9.2-0.2-18.4,0-27.6c0.1-4-1.2-5.8-5.5-5.7c-4.4,0.1-9.4,0.4-10.1-5.8
		c-0.4-3.9,2.7-5.7,10.1-5.6c4.2,0.1,6-1.4,5.5-5.5c0-0.3,0-0.7,0-1.1c0.1-6.3,2.1-9.2,6.3-9.2c4.3,0,6.9,3.2,6.6,9.6
		c-0.2,5,1.6,6.4,6.4,6.3c9.2-0.3,18.4,0,27.6-0.1c4,0,8,0.6,8.2,5.4c0.2,5.2-4.1,6-8.2,6.1c-9.4,0.1-18.8,0.2-28.1,0
		c-4.4-0.1-5.9,1.5-5.8,5.9c0.2,8.8,0.1,17.7,0.1,26.6c0,7.7,3.5,13.2,10.2,16.7c6.8,3.5,13.3,2.6,19.5-1.8c0.7-0.5,1.4-1.1,2.1-1.6
		c3.2-2.1,6.4-2.2,9,0.9c2.7,3.2,1.7,6.4-1,9C131.6,156.1,124.6,159,118.7,159.1z"/>
</g>
</svg>
