<?xml version="1.0" encoding="utf-8"?>
<!-- Generator: Adobe Illustrator 22.1.0, SVG Export Plug-In . SVG Version: 6.00 Build 0)  -->
<svg version="1.1" id="Layer_1" xmlns="http://www.w3.org/2000/svg" xmlns:xlink="http://www.w3.org/1999/xlink" x="0px" y="0px"
	 viewBox="0 0 226.8 226.8" style="enable-background:new 0 0 226.8 226.8;" xml:space="preserve">
<g>
	<path d="M0,113.5C-0.1,51.1,50.7,0.1,113.2,0c62.5-0.1,113.4,50.7,113.6,113.2c0.1,62.3-50.9,113.4-113.3,113.6
		C51.1,226.9,0.1,176.1,0,113.5z M14.9,113.2c0.7,54.5,43.1,98.1,98.5,98.6c53.8,0.5,98.5-44.6,98.6-98.6
		c0.1-53.8-44.7-98.8-98.8-98.3C58,15.5,15.8,59,14.9,113.2z"/>
	<path d="M22,113.4c0.1-50.6,40.8-91.4,91.5-91.4c50.1-0.1,91.5,41.2,91.4,91c-0.1,51-40.8,91.7-91.8,91.8
		C63.1,204.9,21.9,163.6,22,113.4z M153.3,71.8c-10.3,0-19.9,0-30.4,0c1.8-9,3.5-17.3,5.3-26.2c-7.5,0-14,0.3-20.4-0.1
		c-4.6-0.3-6.4,1.4-7.2,5.8c-1.2,6.9-2.9,13.6-4.5,20.5c-8.3,0-15.8-0.1-23.2,0.1c-1.4,0-3.8,0.8-4.1,1.8
		c-1.8,6.5-3.1,13.2-4.8,20.6c9.4,0,17.9,0,27,0c-3.5,16.2-6.8,31.7-10.1,47.1c-3.2,15.1,3.4,25.5,18.8,27.2
		c11.1,1.3,22.5,0.8,33.7,1c1.1,0,2.9-0.9,3.1-1.7c1.8-6.9,3.4-13.8,5.2-21.6c-3.1,0-5,0-6.8,0c-6.3,0-12.6,0.2-18.9-0.2
		c-5.7-0.3-8.8-3.3-7.8-8.4c2.7-14.5,6-29,9.1-43.6c9.2,0,17.6,0.2,26-0.1c1.8-0.1,4.7-1.4,5.2-2.8
		C150.4,85.2,151.6,78.9,153.3,71.8z M113.4,139.3c5,2.2,7.1,0.8,7.9-3.3c1.7-8.2,3.6-16.3,5.2-24.6c0.7-3.4,2.1-4.7,5.7-4.6
		c7,0.3,14.1,0,21.2,0.2c3.4,0.1,5.2-0.9,5.9-4.4c1.2-6.2,2.7-12.3,4.3-18.3c1.4-5.1-0.2-9.1-4.1-13.5c-1,4-1.8,7.3-2.6,10.6
		c-1.5,5.9-1.4,13.9-5.2,17c-3.7,3.1-11.5,1.4-17.6,1.4c-12.1,0.1-12.1,0-14.8,11.7C117.2,120.6,115.4,129.9,113.4,139.3z
		 M148,144.9c-2.2,9.3-4.1,17.4-5.9,25.5c-0.7,3.2-1.8,5.1-5.6,4.8c-18.3-1.3-37.3,4-54.4-7.1c3.4,6.1,8.5,9.8,14.8,11.7
		c15.5,4.5,31.4,2.1,47.2,2.3c1.1,0,2.9-2.2,3.3-3.7c1.6-5.9,2.4-12,4.3-17.7C153.4,155.1,152.1,150.7,148,144.9z M84.4,100.5
		c-8,0-14.9,0-22.6,0c5.6,5.4,15.8,8.6,19.6,6C83,105.5,83.3,102.9,84.4,100.5z M134.5,44.6c-1.7,7.5-3.1,14-4.9,22
		c3.5-1,6.3-0.9,7.4-2.2C140.4,60.3,139.3,51.5,134.5,44.6z"/>
</g>
</svg>
