<!-- Generated by IcoMoon.io -->
<svg version="1.1" xmlns="http://www.w3.org/2000/svg" width="32" height="32" viewBox="0 0 32 32">
<title>TPAY</title>
<path d="M0 16.014c-0.014-8.804 7.153-16 15.972-16.014s16 7.153 16.028 15.972c0.014 8.79-7.182 16-15.986 16.028-8.804 0.014-16-7.153-16.014-15.986zM2.102 15.972c0.099 7.69 6.081 13.841 13.898 13.912 7.591 0.071 13.898-6.293 13.912-13.912 0.014-7.591-6.307-13.94-13.94-13.87-7.788 0.085-13.742 6.222-13.87 13.87z"></path>
<path d="M3.104 16c0.014-7.139 5.757-12.896 12.91-12.896 7.069-0.014 12.91 5.813 12.896 12.839-0.014 7.196-5.757 12.938-12.952 12.952-7.055 0.014-12.868-5.813-12.854-12.896zM21.63 10.13c-1.453 0-2.808 0-4.289 0 0.254-1.27 0.494-2.441 0.748-3.697-1.058 0-1.975 0.042-2.878-0.014-0.649-0.042-0.903 0.198-1.016 0.818-0.169 0.974-0.409 1.919-0.635 2.892-1.171 0-2.229-0.014-3.273 0.014-0.198 0-0.536 0.113-0.578 0.254-0.254 0.917-0.437 1.862-0.677 2.907 1.326 0 2.526 0 3.81 0-0.494 2.286-0.959 4.473-1.425 6.646-0.451 2.131 0.48 3.598 2.653 3.838 1.566 0.183 3.175 0.113 4.755 0.141 0.155 0 0.409-0.127 0.437-0.24 0.254-0.974 0.48-1.947 0.734-3.048-0.437 0-0.705 0-0.959 0-0.889 0-1.778 0.028-2.667-0.028-0.804-0.042-1.242-0.466-1.101-1.185 0.381-2.046 0.847-4.092 1.284-6.152 1.298 0 2.483 0.028 3.668-0.014 0.254-0.014 0.663-0.198 0.734-0.395 0.268-0.847 0.437-1.735 0.677-2.737zM16 19.654c0.705 0.31 1.002 0.113 1.115-0.466 0.24-1.157 0.508-2.3 0.734-3.471 0.099-0.48 0.296-0.663 0.804-0.649 0.988 0.042 1.989 0 2.991 0.028 0.48 0.014 0.734-0.127 0.832-0.621 0.169-0.875 0.381-1.735 0.607-2.582 0.198-0.72-0.028-1.284-0.578-1.905-0.141 0.564-0.254 1.030-0.367 1.496-0.212 0.832-0.198 1.961-0.734 2.399-0.522 0.437-1.623 0.198-2.483 0.198-1.707 0.014-1.707 0-2.088 1.651-0.296 1.284-0.55 2.596-0.832 3.922zM20.882 20.444c-0.31 1.312-0.578 2.455-0.832 3.598-0.099 0.451-0.254 0.72-0.79 0.677-2.582-0.183-5.263 0.564-7.675-1.002 0.48 0.861 1.199 1.383 2.088 1.651 2.187 0.635 4.43 0.296 6.66 0.325 0.155 0 0.409-0.31 0.466-0.522 0.226-0.832 0.339-1.693 0.607-2.497 0.24-0.79 0.056-1.411-0.522-2.229zM11.908 14.18c-1.129 0-2.102 0-3.189 0 0.79 0.762 2.229 1.213 2.765 0.847 0.226-0.141 0.268-0.508 0.423-0.847zM18.977 6.293c-0.24 1.058-0.437 1.975-0.691 3.104 0.494-0.141 0.889-0.127 1.044-0.31 0.48-0.578 0.325-1.82-0.353-2.794z"></path>
</svg>
