<?xml version="1.0" encoding="utf-8"?>
<!-- Generator: Adobe Illustrator 22.1.0, SVG Export Plug-In . SVG Version: 6.00 Build 0)  -->
<svg version="1.1" id="Layer_1" xmlns="http://www.w3.org/2000/svg" xmlns:xlink="http://www.w3.org/1999/xlink" x="0px" y="0px"
	 viewBox="0 0 250 250" style="enable-background:new 0 0 250 250;" xml:space="preserve">
<g>
	<path d="M221.1,204.7c-1.9,2-3.6,4-5.4,5.8c-9.5,9.9-20.1,18.3-32.3,24.7c-13.8,7.3-28.4,11.7-43.9,13.2c-16.7,1.6-33.1,0.6-49.3-4
		c-18-5.1-33.7-14.2-47.6-26.7c-11.2-10.2-20.7-21.7-27.9-35.1c-7.4-13.8-11.7-28.5-13.2-44C0,122.8,0.9,107.2,4.9,91.8
		c4.3-16.5,11.9-31.3,22.7-44.5c8.7-10.7,18.6-20,30.1-27.6c14.4-9.5,30.1-15.6,47.2-18.1c5.8-0.8,11.7-1,17.6-1.6
		c1.3-0.1,1.7,0.4,1.7,1.7c0,19.9,0,39.8,0,59.8c0,1.2-0.3,1.8-1.6,1.8c-6.9,0.3-13.7,1.4-20.1,4.2C83.2,76,70.1,90.1,65.6,110.9
		c-7.7,35.5,13.7,63,39.5,71.6c23.3,7.8,44.8,3.4,63-13.8c0.9-0.9,1.8-1.7,2.6-2.7c0.7-0.8,1.2-0.9,2.2-0.2
		c6.9,5.6,13.9,11.2,20.8,16.8c8.7,7,17.4,14,26.1,21C220.2,203.9,220.5,204.2,221.1,204.7z"/>
	<path d="M186.4,114.8c20.5-4,41.1-8,61.9-12c1.5,7.9,1.8,15.7,1.7,23.9c-0.7,0-1.3,0-1.9,0c-19.7,0-39.5,0-59.2,0c-2,0-1.9,0-2-1.9
		C186.7,121.5,186.5,118.3,186.4,114.8z"/>
	<path d="M183.2,146.7c20,6.7,39.9,13.4,59.9,20.2c-2.5,6.9-5.5,13.4-9.2,19.7c-18.5-10.2-36.9-20.2-55.4-30.4
		C180,153.1,181.5,150,183.2,146.7z"/>
	<path d="M205.1,28.3c5,4.9,9.9,9.7,14.9,14.7c-16.1,14-31.8,27.8-47.5,41.5c-2.4-2.5-4.8-4.9-7.3-7.5
		C178.3,61.2,191.6,44.9,205.1,28.3z"/>
</g>
</svg>
