<!-- Generated by IcoMoon.io -->
<svg version="1.1" xmlns="http://www.w3.org/2000/svg" width="32" height="32" viewBox="0 0 32 32">
<title>TRAC</title>
<path d="M28.301 26.202c-0.243 0.256-0.461 0.512-0.691 0.742-1.216 1.267-2.573 2.342-4.134 3.162-1.766 0.934-3.635 1.498-5.619 1.69-2.138 0.205-4.237 0.077-6.31-0.512-2.304-0.653-4.314-1.818-6.093-3.418-1.434-1.306-2.65-2.778-3.571-4.493-0.947-1.766-1.498-3.648-1.69-5.632-0.192-2.022-0.077-4.019 0.435-5.99 0.55-2.112 1.523-4.006 2.906-5.696 1.114-1.37 2.381-2.56 3.853-3.533 1.843-1.216 3.853-1.997 6.042-2.317 0.742-0.102 1.498-0.128 2.253-0.205 0.166-0.013 0.218 0.051 0.218 0.218 0 2.547 0 5.094 0 7.654 0 0.154-0.038 0.23-0.205 0.23-0.883 0.038-1.754 0.179-2.573 0.538-2.47 1.088-4.147 2.893-4.723 5.555-0.986 4.544 1.754 8.064 5.056 9.165 2.982 0.998 5.734 0.435 8.064-1.766 0.115-0.115 0.23-0.218 0.333-0.346 0.090-0.102 0.154-0.115 0.282-0.026 0.883 0.717 1.779 1.434 2.662 2.15 1.114 0.896 2.227 1.792 3.341 2.688 0.051 0.038 0.090 0.077 0.166 0.141z"></path>
<path d="M23.859 14.694c2.624-0.512 5.261-1.024 7.923-1.536 0.192 1.011 0.23 2.010 0.218 3.059-0.090 0-0.166 0-0.243 0-2.522 0-5.056 0-7.578 0-0.256 0-0.243 0-0.256-0.243-0.026-0.422-0.051-0.832-0.064-1.28z"></path>
<path d="M23.45 18.778c2.56 0.858 5.107 1.715 7.667 2.586-0.32 0.883-0.704 1.715-1.178 2.522-2.368-1.306-4.723-2.586-7.091-3.891 0.192-0.397 0.384-0.794 0.602-1.216z"></path>
<path d="M26.253 3.622c0.64 0.627 1.267 1.242 1.907 1.882-2.061 1.792-4.070 3.558-6.080 5.312-0.307-0.32-0.614-0.627-0.934-0.96 1.677-2.022 3.379-4.109 5.107-6.234z"></path>
</svg>
