<!-- Generated by IcoMoon.io -->
<svg version="1.1" xmlns="http://www.w3.org/2000/svg" width="32" height="32" viewBox="0 0 32 32">
<title>TRADESATOSHI</title>
<path d="M31.295 11.203c0.198 0.776 0.494 1.538 0.593 2.328 1.171 9.397-4.91 17.086-13.658 18.3-5.954 0.832-10.921-1.298-14.815-5.912-0.663-0.79-0.564-1.369 0.155-2.088 4.755-4.698 9.467-9.453 14.208-14.166 0.917-0.917 1.016-0.903 1.975 0.042 1.707 1.679 3.386 3.4 5.093 5.079 1.058 1.044 1.171 1.044 2.215 0.014 1.27-1.242 2.511-2.497 3.767-3.739 0.169 0.042 0.325 0.085 0.466 0.141z"></path>
<path d="M18.624 6.617c-5.559 5.63-10.963 11.118-16.564 16.804-0.423-0.762-0.762-1.242-0.959-1.764-4.049-10.187 3.668-21.616 14.603-21.658 6.138-0.028 10.78 2.667 14.053 7.788 0.818 1.27 0.79 1.383-0.282 2.483-0.861 0.875-1.75 1.721-2.596 2.61-0.691 0.734-1.256 0.649-1.933-0.042-1.608-1.651-3.245-3.259-4.868-4.882-0.395-0.381-0.804-0.748-1.453-1.34z"></path>
</svg>
