<!-- Generated by IcoMoon.io -->
<svg version="1.1" xmlns="http://www.w3.org/2000/svg" width="32" height="32" viewBox="0 0 32 32">
<title>TREZOR</title>
<path d="M15.987 0c-4.352 0-7.872 3.52-7.872 7.872v2.957c-1.523 0.282-3.059 0.64-3.059 1.126v15.398c0 0 0 0.422 0.474 0.627 1.741 0.704 8.563 3.123 10.125 3.674 0.205 0.077 0.256 0.077 0.307 0.077 0.077 0 0.115 0 0.307-0.077 1.562-0.55 8.41-2.97 10.138-3.674 0.448-0.179 0.461-0.614 0.461-0.614v-15.424c0-0.474-1.51-0.87-3.046-1.126v-2.944c0.038-4.352-3.507-7.872-7.834-7.872zM15.987 3.763c2.56 0 4.109 1.549 4.109 4.109v2.56c-2.88-0.205-5.325-0.205-8.23 0v-2.56c0-2.56 1.562-4.109 4.122-4.109zM15.962 14.221c3.584 0 6.579 0.282 6.579 0.768v9.613c0 0.154-0.013 0.166-0.154 0.218-0.128 0.051-6.106 2.214-6.106 2.214s-0.243 0.077-0.307 0.077c-0.077 0-0.307-0.090-0.307-0.090s-5.978-2.15-6.106-2.214c-0.128-0.051-0.154-0.077-0.154-0.218v-9.613c-0.026-0.499 2.982-0.755 6.554-0.755z"></path>
</svg>
