<!-- Generated by IcoMoon.io -->
<svg version="1.1" xmlns="http://www.w3.org/2000/svg" width="32" height="32" viewBox="0 0 32 32">
<title>TRIG</title>
<path d="M17.404 14.176c0-0.775-0.629-1.404-1.404-1.404s-1.404 0.629-1.404 1.404c0 0 0 0 0 0.001 0 0.53 0.294 0.992 0.728 1.23l0.007 0.004-0.4 3.039h2.139l-0.4-3.039c0.441-0.242 0.735-0.704 0.735-1.234 0-0 0-0 0-0v0zM16 8.094c-1.414 0-2.565 1.188-2.565 2.647v0.376h5.13v-0.376c-0-1.46-1.151-2.647-2.565-2.647z"></path>
<path d="M28.636 2.675s-1.033-0.373-1.823-1.019-1.526-1.617-1.526-1.617h-18.575s-0.737 0.971-1.526 1.617-1.823 1.019-1.823 1.019-2.163 7.562-1.167 12.682c0.995 5.12 2.564 8.632 6.469 12.192 3.215 2.937 7.335 4.411 7.335 4.411s4.12-1.474 7.335-4.411c3.904-3.56 5.473-7.071 6.469-12.192s-1.168-12.682-1.168-12.682zM22.16 18.779c0 0.854-0.692 1.546-1.546 1.546h-9.227c-0.854 0-1.546-0.692-1.546-1.546v-6.522c0-0.63 0.51-1.14 1.14-1.14v0h0.848v-0.376c0-2.346 1.872-4.255 4.172-4.255s4.172 1.909 4.172 4.255v0.376h0.848c0.63 0 1.14 0.51 1.14 1.14v0 6.522z"></path>
</svg>
