<?xml version="1.0" encoding="utf-8"?>
<!-- Generator: Adobe Illustrator 22.0.1, SVG Export Plug-In . SVG Version: 6.00 Build 0)  -->
<svg version="1.1" id="Layer_1" xmlns="http://www.w3.org/2000/svg" xmlns:xlink="http://www.w3.org/1999/xlink" x="0px" y="0px"
	 viewBox="0 0 226.8 226.8" style="enable-background:new 0 0 226.8 226.8;" xml:space="preserve">
<style type="text/css">
	.st0{stroke:#FFFFFF;stroke-miterlimit:10;}
</style>
<path class="st0" d="M113.4,226.8c-15.3,0-30.2-3-44.1-8.9c-13.5-5.7-25.6-13.9-36-24.3c-10.4-10.4-18.6-22.5-24.3-36
	c-6-14-9-28.9-9-44.2s3-30.2,8.9-44.1c5.7-13.5,13.9-25.6,24.3-36S55.7,14.7,69.2,9c14-6,28.9-9,44.2-9s30.2,3,44.1,8.9
	c13.5,5.7,25.6,13.9,36,24.3s18.6,22.5,24.3,36c5.9,14,8.9,28.8,8.9,44.1s-3,30.2-8.9,44.1c-5.7,13.5-13.9,25.6-24.3,36
	c-10.4,10.4-22.5,18.6-36,24.3C143.6,223.8,128.7,226.8,113.4,226.8z M113.4,23.9c-12.1,0-23.8,2.4-34.8,7
	c-10.7,4.5-20.2,11-28.5,19.2c-8.2,8.2-14.7,17.8-19.2,28.5c-4.7,11-7,22.7-7,34.8s2.4,23.8,7,34.8c4.5,10.7,11,20.2,19.2,28.5
	c8.2,8.2,17.8,14.7,28.5,19.2c11,4.7,22.7,7,34.8,7s23.8-2.4,34.8-7c10.7-4.5,20.2-11,28.5-19.2c8.2-8.2,14.7-17.8,19.2-28.5
	c4.7-11,7-22.7,7-34.8s-2.4-23.8-7-34.8c-4.5-10.7-11-20.2-19.2-28.5c-8.2-8.2-17.8-14.7-28.5-19.2
	C137.2,26.3,125.5,23.9,113.4,23.9z"/>
<path class="st0" d="M61.8,58.3H165v25.9h-36v94.4H97.6V84.3H61.8V58.3z"/>
</svg>
