<!-- Generated by IcoMoon.io -->
<svg version="1.1" xmlns="http://www.w3.org/2000/svg" width="32" height="32" viewBox="0 0 32 32">
<title>TRST</title>
<path d="M16 32c-2.159 0-4.261-0.423-6.222-1.256-1.905-0.804-3.612-1.961-5.079-3.429s-2.624-3.175-3.429-5.079c-0.847-1.975-1.27-4.078-1.27-6.236s0.423-4.261 1.256-6.222c0.804-1.905 1.961-3.612 3.429-5.079s3.175-2.624 5.079-3.429c1.975-0.847 4.078-1.27 6.236-1.27s4.261 0.423 6.222 1.256c1.905 0.804 3.612 1.961 5.079 3.429s2.624 3.175 3.429 5.079c0.832 1.975 1.256 4.064 1.256 6.222s-0.423 4.261-1.256 6.222c-0.804 1.905-1.961 3.612-3.429 5.079s-3.175 2.624-5.079 3.429c-1.961 0.861-4.064 1.284-6.222 1.284zM16 3.372c-1.707 0-3.358 0.339-4.91 0.988-1.51 0.635-2.85 1.552-4.021 2.709-1.157 1.157-2.074 2.511-2.709 4.021-0.663 1.552-0.988 3.203-0.988 4.91s0.339 3.358 0.988 4.91c0.635 1.51 1.552 2.85 2.709 4.021 1.157 1.157 2.511 2.074 4.021 2.709 1.552 0.663 3.203 0.988 4.91 0.988s3.358-0.339 4.91-0.988c1.51-0.635 2.85-1.552 4.021-2.709 1.157-1.157 2.074-2.511 2.709-4.021 0.663-1.552 0.988-3.203 0.988-4.91s-0.339-3.358-0.988-4.91c-0.635-1.51-1.552-2.85-2.709-4.021-1.157-1.157-2.511-2.074-4.021-2.709-1.552-0.649-3.203-0.988-4.91-0.988z"></path>
<path d="M8.72 8.226h14.561v3.654h-5.079v13.319h-4.43v-13.305h-5.051v-3.668z"></path>
</svg>
