<!-- Generated by IcoMoon.io -->
<svg version="1.1" xmlns="http://www.w3.org/2000/svg" width="32" height="32" viewBox="0 0 32 32">
<title>TRX</title>
<path d="M29.051 8.381c-1.284-0.903-2.667-1.862-4.007-2.808-0.028-0.028-0.056-0.042-0.099-0.071-0.155-0.113-0.325-0.226-0.522-0.296l-0.014-0.014c-3.598-0.875-7.252-1.764-10.794-2.624-3.217-0.762-6.42-1.552-9.637-2.328-0.085-0.028-0.169-0.042-0.254-0.071-0.296-0.085-0.621-0.169-0.988-0.127-0.099 0.014-0.198 0.056-0.268 0.099l-0.085 0.071c-0.141 0.127-0.212 0.31-0.254 0.395l-0.014 0.085v0.339l0.014 0.056c2.032 5.686 4.106 11.443 6.109 17.030 1.552 4.303 3.146 8.748 4.727 13.122 0.099 0.296 0.367 0.494 0.72 0.522h0.071c0.325 0 0.607-0.155 0.748-0.409l5.884-8.593c1.439-2.088 2.864-4.19 4.303-6.279 0.593-0.861 1.171-1.721 1.764-2.568 0.974-1.411 1.961-2.864 2.949-4.289l0.056-0.071v-0.085c0.014-0.268 0.028-0.804-0.409-1.086zM22.152 11.513c-1.383 0.72-2.794 1.467-4.219 2.201 0.818-0.889 1.665-1.778 2.483-2.667 1.030-1.115 2.116-2.272 3.16-3.4l0.028-0.028c0.085-0.113 0.198-0.226 0.325-0.353 0.085-0.085 0.169-0.169 0.254-0.254 0.55 0.381 1.115 0.762 1.637 1.143 0.381 0.268 0.776 0.55 1.185 0.818-1.637 0.861-3.273 1.707-4.854 2.54zM18.596 11.161c-1.058 1.157-2.159 2.328-3.259 3.499-2.116-2.568-4.289-5.178-6.377-7.704-0.945-1.143-1.905-2.3-2.85-3.443l-0.014-0.014c-0.212-0.24-0.423-0.508-0.635-0.762-0.127-0.169-0.268-0.339-0.423-0.508 0.861 0.226 1.735 0.437 2.582 0.635 0.748 0.183 1.538 0.367 2.3 0.564 4.317 1.044 8.635 2.102 12.938 3.146-1.411 1.524-2.864 3.090-4.261 4.586zM14.857 25.651c0.085-0.776 0.169-1.58 0.24-2.37 0.071-0.635 0.127-1.284 0.198-1.891 0.099-0.988 0.212-2.018 0.31-3.019l0.028-0.183c0.071-0.635 0.155-1.298 0.198-1.961 0.085-0.042 0.169-0.085 0.268-0.127 0.113-0.056 0.226-0.099 0.339-0.169 1.721-0.903 3.429-1.806 5.164-2.695 1.721-0.889 3.485-1.82 5.22-2.723-1.594 2.3-3.189 4.628-4.741 6.899-1.326 1.947-2.695 3.936-4.064 5.912-0.536 0.79-1.086 1.594-1.623 2.37-0.593 0.861-1.199 1.75-1.806 2.638 0.085-0.903 0.169-1.806 0.268-2.681zM4.501 3.993c-0.099-0.268-0.198-0.536-0.296-0.804 2.004 2.427 4.035 4.868 5.996 7.224 1.016 1.227 2.032 2.441 3.062 3.683 0.198 0.226 0.395 0.48 0.593 0.72 0.254 0.31 0.508 0.621 0.776 0.931-0.085 0.762-0.169 1.538-0.24 2.286-0.056 0.522-0.099 1.044-0.169 1.566v0.014c-0.028 0.339-0.071 0.663-0.099 1.002-0.056 0.451-0.169 1.481-0.169 1.481l-0.014 0.056c-0.127 1.496-0.296 3.019-0.451 4.487-0.071 0.607-0.127 1.227-0.198 1.862-0.042-0.113-0.085-0.226-0.113-0.325-0.113-0.296-0.226-0.607-0.325-0.917l-0.79-2.215c-2.526-7.026-5.051-14.039-7.563-21.051z"></path>
</svg>
