<?xml version="1.0" encoding="utf-8"?>
<!-- Generator: Adobe Illustrator 22.0.1, SVG Export Plug-In . SVG Version: 6.00 Build 0)  -->
<svg version="1.1" id="Layer_1" xmlns="http://www.w3.org/2000/svg" xmlns:xlink="http://www.w3.org/1999/xlink" x="0px" y="0px"
	 viewBox="0 0 226.8 226.8" style="enable-background:new 0 0 226.8 226.8;" xml:space="preserve">
<path d="M205.9,59.4c-9.1-6.4-18.9-13.2-28.4-19.9c-0.2-0.2-0.4-0.3-0.7-0.5c-1.1-0.8-2.3-1.6-3.7-2.1l-0.1-0.1
	c-25.5-6.2-51.4-12.5-76.5-18.6C73.7,12.8,51,7.2,28.2,1.7c-0.6-0.2-1.2-0.3-1.8-0.5c-2.1-0.6-4.4-1.2-7-0.9
	c-0.7,0.1-1.4,0.4-1.9,0.7l-0.6,0.5c-1,0.9-1.5,2.2-1.8,2.8L15,4.9v2.4l0.1,0.4C29.5,48,44.2,88.8,58.4,128.4
	c11,30.5,22.3,62,33.5,93c0.7,2.1,2.6,3.5,5.1,3.7h0.5c2.3,0,4.3-1.1,5.3-2.9l41.7-60.9c10.2-14.8,20.3-29.7,30.5-44.5
	c4.2-6.1,8.3-12.2,12.5-18.2c6.9-10,13.9-20.3,20.9-30.4l0.4-0.5v-0.6C208.9,65.2,209,61.4,205.9,59.4 M157,81.6
	c-9.8,5.1-19.8,10.4-29.9,15.6c5.8-6.3,11.8-12.6,17.6-18.9c7.3-7.9,15-16.1,22.4-24.1l0.2-0.2c0.6-0.8,1.4-1.6,2.3-2.5
	c0.6-0.6,1.2-1.2,1.8-1.8c3.9,2.7,7.9,5.4,11.6,8.1c2.7,1.9,5.5,3.9,8.4,5.8C179.8,69.7,168.2,75.7,157,81.6 M131.8,79.1
	c-7.5,8.2-15.3,16.5-23.1,24.8c-15-18.2-30.4-36.7-45.2-54.6C56.8,41.2,50,33,43.3,24.9l-0.1-0.1c-1.5-1.7-3-3.6-4.5-5.4
	c-0.9-1.2-1.9-2.4-3-3.6c6.1,1.6,12.3,3.1,18.3,4.5c5.3,1.3,10.9,2.6,16.3,4c30.6,7.4,61.2,14.9,91.7,22.3
	C152,57.4,141.7,68.5,131.8,79.1 M105.3,181.8c0.6-5.5,1.2-11.2,1.7-16.8c0.5-4.5,0.9-9.1,1.4-13.4c0.7-7,1.5-14.3,2.2-21.4l0.2-1.3
	c0.5-4.5,1.1-9.2,1.4-13.9c0.6-0.3,1.2-0.6,1.9-0.9c0.8-0.4,1.6-0.7,2.4-1.2c12.2-6.4,24.3-12.8,36.6-19.1
	c12.2-6.3,24.7-12.9,37-19.3c-11.3,16.3-22.6,32.8-33.6,48.9c-9.4,13.8-19.1,27.9-28.8,41.9c-3.8,5.6-7.7,11.3-11.5,16.8
	c-4.2,6.1-8.5,12.4-12.8,18.7C104,194.4,104.6,188,105.3,181.8 M31.9,28.3c-0.7-1.9-1.4-3.8-2.1-5.7C44,39.8,58.4,57.1,72.3,73.8
	c7.2,8.7,14.4,17.3,21.7,26.1c1.4,1.6,2.8,3.4,4.2,5.1c1.8,2.2,3.6,4.4,5.5,6.6c-0.6,5.4-1.2,10.9-1.7,16.2
	c-0.4,3.7-0.7,7.4-1.2,11.1v0.1c-0.2,2.4-0.5,4.7-0.7,7.1c-0.4,3.2-1.2,10.5-1.2,10.5l-0.1,0.4c-0.9,10.6-2.1,21.4-3.2,31.8
	c-0.5,4.3-0.9,8.7-1.4,13.2c-0.3-0.8-0.6-1.6-0.8-2.3c-0.8-2.1-1.6-4.3-2.3-6.5l-5.6-15.7C67.6,127.7,49.7,78,31.9,28.3"/>
</svg>
