<?xml version="1.0" encoding="utf-8"?>
<!-- Generator: Adobe Illustrator 22.1.0, SVG Export Plug-In . SVG Version: 6.00 Build 0)  -->
<svg version="1.1" id="Layer_1" xmlns="http://www.w3.org/2000/svg" xmlns:xlink="http://www.w3.org/1999/xlink" x="0px" y="0px"
	 viewBox="0 0 226.8 226.8" style="enable-background:new 0 0 226.8 226.8;" xml:space="preserve">
<g>
	<path d="M177.1,142.4c-2.3,0-4.7-0.2-7,0c-2.9,0.3-3.7-1-3.6-3.7c0.2-4.5,0.5-9.1,0.1-13.6c-1.6-20.9-21.2-41.7-42-44.8
		C97.3,76.3,71,94.7,66.2,121.6c-1,5.5-0.3,11.3-0.4,16.9c0,3.8-0.1,3.9-3.9,3.9c-4.7,0-9.3-0.1-14,0c-2.1,0-2.8-0.8-3-2.8
		c-1.6-22.1,3.9-41.8,19.5-58c11.3-11.8,25.2-18.8,41.4-21.2c36.2-5.5,71.4,17.9,79.7,53.6c1.8,7.8,1.8,16.1,2.2,24.1
		c0.2,4.2-0.4,4.4-4.6,4.4C181.1,142.4,179.1,142.4,177.1,142.4C177.1,142.4,177.1,142.4,177.1,142.4z"/>
	<path d="M116,225.6c-14.4,0-28.8,0-43.2,0c-3.7,0-4.2-0.6-3.9-4.3c0-0.6,0.3-1.2,0.2-1.8c-1.2-5.8,1.7-9.5,6.2-12.2
		c2-1.2,4.4-2.2,6.6-2.2c21.1-0.2,42.1,0.2,63.2-0.3c6.5-0.1,10.8,2.5,15.2,6.6c4.1,3.8,2.6,8.4,2.5,12.8c0,0.5-2.2,1.3-3.4,1.3
		c-12.2,0.1-24.3,0.1-36.5,0.1C120.7,225.6,118.4,225.6,116,225.6z"/>
	<path d="M115.9,185.7c-14.4,0-28.8-0.1-43.2,0c-2.7,0-4-0.7-3.5-3.5c0.1-0.6,0.1-1.2,0-1.8c-1.7-8.1,4.6-11.1,9.6-14.9
		c0.8-0.6,2.3-0.6,3.5-0.6c22.4,0,44.8,0,67.2-0.1c3.4,0,5.3,2.2,7.7,3.8c5.7,3.7,6.7,9.2,6,15.4c-0.2,2.1-1.6,1.7-2.9,1.7
		c-9.3,0-18.6,0-28,0C126.8,185.7,121.4,185.7,115.9,185.7z"/>
	<path d="M116.2,142.4c-14.5,0-29-0.1-43.5,0.1c-3,0-4.1-0.9-3.6-3.8c0.1-0.3,0.1-0.6,0-0.9c-1.6-6.8,2-10.2,7.8-12.8
		c4.2-2,8.3-3.2,13-3.2c18.3,0.2,36.7,0.1,55,0c3.1,0,5.8,0.4,8.3,2.3c0.7,0.6,1.6,0.9,2.4,1.4c7.7,4.6,7.6,4.6,7.7,13.6
		c0,2.8-1,3.4-3.6,3.4C145.2,142.4,130.7,142.4,116.2,142.4C116.2,142.4,116.2,142.4,116.2,142.4z"/>
	<path d="M128.4,24.8c0,3.7,0.1,7.5,0,11.2c-0.1,7-5.4,12.4-11.9,12.4c-6.9,0-12.3-5.2-12.4-12.3c-0.1-7.5-0.1-15,0-22.5
		c0.2-7.6,5.2-12.6,12.4-12.5c6.9,0.1,11.8,5.3,11.9,12.7C128.4,17.5,128.4,21.2,128.4,24.8C128.4,24.8,128.4,24.8,128.4,24.8z"/>
	<path d="M211.9,47.5c0.1,3.2-1.1,6.1-3.5,8.5c-5.4,5.4-10.7,10.7-16.2,16c-3.9,3.7-8.6,4.6-13.5,2.9c-4.3-1.5-6.8-4.9-7.4-9.6
		c-0.4-3.5,0.3-6.7,2.8-9.3c5.7-5.8,11.5-11.7,17.5-17.3c4-3.8,8.9-4.4,13.8-2C209.7,38.8,212,42.4,211.9,47.5z"/>
	<path d="M48.9,75.6c-3.4,0.1-6.4-1.3-9-3.8c-5.3-5.3-10.7-10.5-16-15.9c-4.5-4.6-4.8-12.3-0.6-16.5c4.8-4.9,12.4-5.4,17.3-0.8
		c5.9,5.5,11.7,11.3,17.3,17.1c3.6,3.7,4.2,8.3,2.2,13C58.1,73.3,54.3,75.7,48.9,75.6z"/>
</g>
</svg>
