<!-- Generated by IcoMoon.io -->
<svg version="1.1" xmlns="http://www.w3.org/2000/svg" width="32" height="32" viewBox="0 0 32 32">
<title>TSL</title>
<path d="M24.988 20.092c-0.325 0-0.663-0.028-0.988 0-0.409 0.042-0.522-0.141-0.508-0.522 0.028-0.635 0.071-1.284 0.014-1.919-0.226-2.949-2.991-5.884-5.926-6.321-3.852-0.564-7.563 2.032-8.24 5.827-0.141 0.776-0.042 1.594-0.056 2.384 0 0.536-0.014 0.55-0.55 0.55-0.663 0-1.312-0.014-1.975 0-0.296 0-0.395-0.113-0.423-0.395-0.226-3.118 0.55-5.898 2.751-8.183 1.594-1.665 3.556-2.653 5.841-2.991 5.108-0.776 10.074 2.526 11.245 7.563 0.254 1.101 0.254 2.272 0.31 3.4 0.028 0.593-0.056 0.621-0.649 0.621-0.282-0.014-0.564-0.014-0.847-0.014 0 0 0 0 0 0z"></path>
<path d="M16.367 31.831c-2.032 0-4.064 0-6.095 0-0.522 0-0.593-0.085-0.55-0.607 0-0.085 0.042-0.169 0.028-0.254-0.169-0.818 0.24-1.34 0.875-1.721 0.282-0.169 0.621-0.31 0.931-0.31 2.977-0.028 5.94 0.028 8.917-0.042 0.917-0.014 1.524 0.353 2.145 0.931 0.578 0.536 0.367 1.185 0.353 1.806 0 0.071-0.31 0.183-0.48 0.183-1.721 0.014-3.429 0.014-5.15 0.014-0.31 0-0.635 0-0.974 0z"></path>
<path d="M16.353 26.201c-2.032 0-4.064-0.014-6.095 0-0.381 0-0.564-0.099-0.494-0.494 0.014-0.085 0.014-0.169 0-0.254-0.24-1.143 0.649-1.566 1.354-2.102 0.113-0.085 0.325-0.085 0.494-0.085 3.161 0 6.321 0 9.481-0.014 0.48 0 0.748 0.31 1.086 0.536 0.804 0.522 0.945 1.298 0.847 2.173-0.028 0.296-0.226 0.24-0.409 0.24-1.312 0-2.624 0-3.951 0-0.776 0-1.538 0-2.314 0z"></path>
<path d="M16.395 20.092c-2.046 0-4.092-0.014-6.138 0.014-0.423 0-0.578-0.127-0.508-0.536 0.014-0.042 0.014-0.085 0-0.127-0.226-0.959 0.282-1.439 1.101-1.806 0.593-0.282 1.171-0.451 1.834-0.451 2.582 0.028 5.178 0.014 7.76 0 0.437 0 0.818 0.056 1.171 0.325 0.099 0.085 0.226 0.127 0.339 0.198 1.086 0.649 1.072 0.649 1.086 1.919 0 0.395-0.141 0.48-0.508 0.48-2.046-0.014-4.092-0.014-6.138-0.014 0 0 0 0 0 0z"></path>
<path d="M18.116 3.499c0 0.522 0.014 1.058 0 1.58-0.014 0.988-0.762 1.75-1.679 1.75-0.974 0-1.735-0.734-1.75-1.735-0.014-1.058-0.014-2.116 0-3.175 0.028-1.072 0.734-1.778 1.75-1.764 0.974 0.014 1.665 0.748 1.679 1.792 0 0.522 0 1.044 0 1.552 0 0 0 0 0 0z"></path>
<path d="M29.898 6.702c0.014 0.452-0.155 0.861-0.494 1.199-0.762 0.762-1.51 1.51-2.286 2.258-0.55 0.522-1.213 0.649-1.905 0.409-0.607-0.212-0.959-0.691-1.044-1.354-0.056-0.494 0.042-0.945 0.395-1.312 0.804-0.818 1.623-1.651 2.469-2.441 0.564-0.536 1.256-0.621 1.947-0.282 0.607 0.296 0.931 0.804 0.917 1.524z"></path>
<path d="M6.899 10.667c-0.48 0.014-0.903-0.183-1.27-0.536-0.748-0.748-1.51-1.481-2.257-2.243-0.635-0.649-0.677-1.735-0.085-2.328 0.677-0.691 1.75-0.762 2.441-0.113 0.832 0.776 1.651 1.594 2.441 2.413 0.508 0.522 0.593 1.171 0.31 1.834-0.282 0.649-0.818 0.988-1.58 0.974z"></path>
</svg>
