<?xml version="1.0" encoding="utf-8"?>
<!-- Generator: Adobe Illustrator 22.1.0, SVG Export Plug-In . SVG Version: 6.00 Build 0)  -->
<svg version="1.1" id="Layer_1" xmlns="http://www.w3.org/2000/svg" xmlns:xlink="http://www.w3.org/1999/xlink" x="0px" y="0px"
	 viewBox="0 0 226.8 226.8" style="enable-background:new 0 0 226.8 226.8;" xml:space="preserve">
<g id="HOXxoU.tif">
	<g>
		<path d="M106.8,0c4.4,0,8.8,0,13.2,0c3.6,0.5,7.1,0.9,10.7,1.6c46.8,8.6,77.4,35.8,91.7,81c2.4,7.5,3,15.6,4.4,23.4
			c0,4.6,0,9.3,0,13.9c-0.5,3.4-0.9,6.8-1.6,10.2c-9,47.6-36.8,78.2-83.2,91.8c-7.1,2.1-14.6,2.7-22,4c-4.4,0-8.8,0-13.2,0
			c-3.6-0.5-7.1-0.9-10.7-1.6c-46.8-8.6-77.4-35.8-91.7-81c-2.4-7.5-3-15.6-4.4-23.4c0-4.6,0-9.3,0-13.9c0.5-3.4,0.9-6.8,1.6-10.2
			c9-47.6,36.8-78.2,83.2-91.8C91.9,1.9,99.5,1.3,106.8,0z M89.4,196.1c-17.2-5-31.3-14.3-42.6-27.7c-15.3-18.3-22.1-39.5-20.2-63.1
			C30.3,58.9,70,22.2,119,25c44.7,2.6,79.9,38.7,82,82.7c1.2,24.3-6.5,45.7-22.9,63.7c-10.7,11.7-23.6,20-39.1,24.5
			c0-30.1,0-59.7,0-89.7c16.7,0,33.2,0,49.8,0c0-7,0-13.6,0-20.2c-5.5,0-10.8,0-16.1,0c-0.2,1.8-0.4,3.4-0.6,5.3
			c-16.7,0-33.1,0-49.7,0c0,42,0,83.5,0,125.1c42.9-1.7,92.1-38.2,96-96.8C222.8,55.1,169.8,4.1,107.8,7.5
			C54,10.4,4.1,56.6,9.3,121.2c4.9,60.7,56.5,94.2,96.6,95.3c0-41.7,0-83.4,0-125.4c-16.8,0-33.2,0-49.8,0c-0.1-1.8-0.2-3.3-0.4-5
			c-5.5,0-10.8,0-16.3,0c0,6.8,0,13.3,0,20.3c16.8,0,33.3,0,49.9,0C89.4,136.4,89.4,166.1,89.4,196.1z"/>
	</g>
</g>
</svg>
