<!-- Generated by IcoMoon.io -->
<svg version="1.1" xmlns="http://www.w3.org/2000/svg" width="32" height="32" viewBox="0 0 32 32">
<title>TTT</title>
<path d="M15.069 0c0.621 0 1.242 0 1.862 0 0.508 0.071 1.002 0.127 1.51 0.226 6.603 1.213 10.921 5.051 12.938 11.429 0.339 1.058 0.423 2.201 0.621 3.302 0 0.649 0 1.312 0 1.961-0.071 0.48-0.127 0.959-0.226 1.439-1.27 6.716-5.192 11.034-11.739 12.952-1.002 0.296-2.060 0.381-3.104 0.564-0.621 0-1.242 0-1.862 0-0.508-0.071-1.002-0.127-1.51-0.226-6.603-1.213-10.921-5.051-12.938-11.429-0.339-1.058-0.423-2.201-0.621-3.302 0-0.649 0-1.312 0-1.961 0.071-0.48 0.127-0.959 0.226-1.439 1.27-6.716 5.192-11.034 11.739-12.952 1.002-0.296 2.074-0.381 3.104-0.564zM12.614 27.668c-2.427-0.705-4.416-2.018-6.011-3.908-2.159-2.582-3.118-5.573-2.85-8.903 0.522-6.547 6.123-11.725 13.037-11.33 6.307 0.367 11.273 5.46 11.57 11.668 0.169 3.429-0.917 6.448-3.231 8.988-1.51 1.651-3.33 2.822-5.517 3.457 0-4.247 0-8.423 0-12.656 2.356 0 4.684 0 7.026 0 0-0.988 0-1.919 0-2.85-0.776 0-1.524 0-2.272 0-0.028 0.254-0.056 0.48-0.085 0.748-2.356 0-4.67 0-7.012 0 0 5.926 0 11.781 0 17.651 6.053-0.24 12.995-5.39 13.545-13.658 0.621-9.101-6.857-16.296-15.605-15.817-7.591 0.409-14.631 6.928-13.898 16.042 0.691 8.564 7.972 13.291 13.63 13.446 0-5.884 0-11.767 0-17.693-2.37 0-4.684 0-7.026 0-0.014-0.254-0.028-0.466-0.056-0.705-0.776 0-1.524 0-2.3 0 0 0.959 0 1.877 0 2.864 2.37 0 4.698 0 7.041 0 0.014 4.233 0.014 8.423 0.014 12.656z"></path>
</svg>
