<!-- Generated by IcoMoon.io -->
<svg version="1.1" xmlns="http://www.w3.org/2000/svg" width="32" height="32" viewBox="0 0 32 32">
<title>TUSD</title>
<path d="M23.887 7.393c0.494 0.325 1.002 0.621 1.481 0.959 1.594 1.115 2.949 2.469 3.894 4.176 0.691 1.242 1.129 2.568 1.34 3.979 0.198 1.383 0.198 2.751-0.042 4.12-0.353 1.905-1.143 3.612-2.356 5.122-1.496 1.877-3.316 3.372-5.46 4.459-1.778 0.903-3.683 1.369-5.686 1.481-2.399 0.141-4.713-0.24-6.998-0.875-2.258-0.621-3.993-1.961-5.432-3.767-0.861-1.086-1.566-2.272-2.187-3.513-0.042-0.071-0.056-0.155-0.042-0.268 0.183 0.141 0.367 0.296 0.536 0.437 1.58 1.298 3.259 2.441 5.108 3.344 2.243 1.086 4.6 1.665 7.097 1.481 1.933-0.141 3.739-0.748 5.404-1.735 1.975-1.171 3.711-2.61 5.051-4.501 1.397-1.975 2.004-4.162 1.778-6.561-0.169-1.806-0.748-3.499-1.608-5.079-0.564-1.044-1.227-2.032-1.848-3.034-0.028-0.056-0.071-0.099-0.099-0.155 0.028-0.028 0.056-0.042 0.071-0.071z"></path>
<path d="M7.633 24.056c-0.649-0.169-1.284-0.409-1.877-0.734-1.891-1.016-3.076-2.61-3.824-4.571-0.564-1.481-0.832-3.019-0.931-4.586-0.198-3.358 0.903-6.236 3.16-8.691 0.889-0.959 1.806-1.848 2.892-2.568 1.496-1.016 3.189-1.566 4.952-1.919 1.369-0.268 2.751-0.367 4.148-0.423 1.242-0.042 2.469 0 3.683 0.24 2.159 0.437 4.007 1.467 5.658 2.907 1.411 1.227 2.54 2.667 3.527 4.261-0.099-0.071-0.198-0.155-0.31-0.226-0.113-0.085-0.226-0.169-0.325-0.254-1.947-1.496-4.021-2.737-6.363-3.485-1.199-0.381-2.427-0.621-3.683-0.663-1.933-0.056-3.781 0.31-5.545 1.086-2.102 0.917-3.979 2.159-5.545 3.852-1.439 1.524-2.3 3.33-2.526 5.418-0.24 2.243 0.226 4.388 1.072 6.434 0.494 1.199 1.129 2.356 1.707 3.527 0.056 0.113 0.127 0.226 0.183 0.339-0.014 0.028-0.042 0.042-0.056 0.056z"></path>
<path d="M16.762 9.51c1.721 0 3.429 0 5.15 0 0.381 0 0.381 0 0.325 0.381-0.254 1.693-1.552 2.822-3.259 2.836-0.508 0-1.016 0-1.538 0-0.508 0-0.508 0-0.508 0.494 0 2.159 0.014 4.332 0 6.49-0.014 1.735-1.199 3.217-2.878 3.626-0.183 0.042-0.367 0.056-0.55 0.085-0.226 0.042-0.31-0.056-0.296-0.268 0.042-0.79 0.085-1.594 0.141-2.384 0.056-1.030 0.127-2.060 0.198-3.076 0.099-1.496 0.183-2.977 0.282-4.473 0.028-0.466 0.028-0.48-0.451-0.48-1.481 0-2.977 0-4.459 0-0.367 0-0.381-0.014-0.339-0.381 0.226-1.665 1.538-2.822 3.217-2.836 1.665-0.014 3.316-0.014 4.966-0.014z"></path>
</svg>
