<?xml version="1.0" encoding="utf-8"?>
<!-- Generator: Adobe Illustrator 22.1.0, SVG Export Plug-In . SVG Version: 6.00 Build 0)  -->
<svg version="1.1" id="Layer_1" xmlns="http://www.w3.org/2000/svg" xmlns:xlink="http://www.w3.org/1999/xlink" x="0px" y="0px"
	 viewBox="0 0 226.8 226.8" style="enable-background:new 0 0 226.8 226.8;" xml:space="preserve">
<g>
	<path d="M169.3,52.4c3.5,2.3,7.1,4.4,10.5,6.8c11.3,7.9,20.9,17.5,27.6,29.6c4.9,8.8,8,18.2,9.5,28.2c1.4,9.8,1.4,19.5-0.3,29.2
		c-2.5,13.5-8.1,25.6-16.7,36.3c-10.6,13.3-23.5,23.9-38.7,31.6c-12.6,6.4-26.1,9.7-40.3,10.5c-17,1-33.4-1.7-49.6-6.2
		c-16-4.4-28.3-13.9-38.5-26.7c-6.1-7.7-11.1-16.1-15.5-24.9c-0.3-0.5-0.4-1.1-0.3-1.9c1.3,1,2.6,2.1,3.8,3.1
		c11.2,9.2,23.1,17.3,36.2,23.7c15.9,7.7,32.6,11.8,50.3,10.5c13.7-1,26.5-5.3,38.3-12.3c14-8.3,26.3-18.5,35.8-31.9
		c9.9-14,14.2-29.5,12.6-46.5c-1.2-12.8-5.3-24.8-11.4-36c-4-7.4-8.7-14.4-13.1-21.5c-0.2-0.4-0.5-0.7-0.7-1.1
		C169,52.7,169.2,52.6,169.3,52.4z"/>
	<path d="M54.1,170.5c-4.6-1.2-9.1-2.9-13.3-5.2c-13.4-7.2-21.8-18.5-27.1-32.4c-4-10.5-5.9-21.4-6.6-32.5
		c-1.4-23.8,6.4-44.2,22.4-61.6C35.8,32,42.3,25.7,50,20.6C60.6,13.4,72.6,9.5,85.1,7c9.7-1.9,19.5-2.6,29.4-3
		c8.8-0.3,17.5,0,26.1,1.7c15.3,3.1,28.4,10.4,40.1,20.6c10,8.7,18,18.9,25,30.2c-0.7-0.5-1.4-1.1-2.2-1.6c-0.8-0.6-1.6-1.2-2.3-1.8
		c-13.8-10.6-28.5-19.4-45.1-24.7c-8.5-2.7-17.2-4.4-26.1-4.7c-13.7-0.4-26.8,2.2-39.3,7.7c-14.9,6.5-28.2,15.3-39.3,27.3
		C41.2,69.5,35.1,82.3,33.5,97.1c-1.7,15.9,1.6,31.1,7.6,45.6c3.5,8.5,8,16.7,12.1,25c0.4,0.8,0.9,1.6,1.3,2.4
		C54.4,170.3,54.2,170.4,54.1,170.5z"/>
	<path d="M118.8,67.4c12.2,0,24.3,0,36.5,0c2.7,0,2.7,0,2.3,2.7c-1.8,12-11,20-23.1,20.1c-3.6,0-7.2,0-10.9,0c-3.6,0-3.6,0-3.6,3.5
		c0,15.3,0.1,30.7,0,46c-0.1,12.3-8.5,22.8-20.4,25.7c-1.3,0.3-2.6,0.4-3.9,0.6c-1.6,0.3-2.2-0.4-2.1-1.9c0.3-5.6,0.6-11.3,1-16.9
		c0.4-7.3,0.9-14.6,1.4-21.8c0.7-10.6,1.3-21.1,2-31.7c0.2-3.3,0.2-3.4-3.2-3.4c-10.5,0-21.1,0-31.6,0c-2.6,0-2.7-0.1-2.4-2.7
		c1.6-11.8,10.9-20,22.8-20.1C95.4,67.4,107.1,67.4,118.8,67.4z"/>
</g>
</svg>
