<!-- Generated by IcoMoon.io -->
<svg version="1.1" xmlns="http://www.w3.org/2000/svg" width="32" height="32" viewBox="0 0 32 32">
<title>TUXEXCHANGE</title>
<path d="M15.76 0.564c7.718 0.056 14.448 5.15 15.746 12.938 0.988 5.898-1.721 12.063-7.464 15.436-2.497 1.467-5.206 2.229-8.056 2.201-7.802-0.056-14.039-5.178-15.549-12.36-1.355-6.406 1.975-13.235 7.887-16.296 2.37-1.228 4.882-1.848 7.436-1.919zM15.873 29.277c7.379 0 13.376-5.926 13.39-13.249 0.028-7.365-5.968-13.347-13.39-13.347-7.407 0-13.376 5.912-13.376 13.235 0 7.436 5.94 13.362 13.376 13.362z"></path>
<path d="M14.787 8.212c-1.086-1.030-2.413-1.933-2.963-3.683 1.213 0.268 2.258 0.508 3.302 0.734 2.032 0.452 4.049 0.931 5.799 2.173 0.353 0.254 0.818 0.367 1.242 0.508 2.3 0.79 4.007 2.257 5.037 4.459 0.466 0.974 0.945 1.975 1.213 3.019 0.183 0.705 0.127 1.538 0 2.272-1.016 5.418-4.261 8.861-9.496 10.638-0.762-1.086-1.552-2.116-1.862-3.429-0.226-0.974 0-1.27 0.903-1.623 0.861-0.325 1.735-0.691 2.469-1.227 1.171-0.875 1.566-2.159 1.256-3.598-0.141-0.649-0.141-1.383-0.861-1.848 0.028 0.226 0.042 0.451 0.071 0.677 0.085 0.691 0.296 1.397 0.24 2.074-0.155 1.75-1.242 2.78-2.907 3.132-1.256 0.268-2.384 0.804-3.443 1.481-0.748 0.48-1.425 0.635-2.159-0.056-0.198-0.183-0.607-0.127-0.889-0.254-0.677-0.325-1.34-0.705-1.975-1.143 0.917 0.198 1.665 0.099 2.37-0.564 0.395-0.381 0.988-0.564 1.552-0.861-0.31-0.395-0.663-0.325-0.988-0.113-0.381 0.24-0.748 0.494-1.086 0.79-0.578 0.494-1.242 0.635-1.877 0.282-1.002-0.55-1.947-1.199-2.878-1.848-0.198-0.141-0.31-0.494-0.353-0.762-0.071-0.494-0.014-0.988-0.452-1.383-0.113-0.099-0.056-0.508 0.042-0.72 0.24-0.48 0.48-1.002 0.847-1.383 1.072-1.101 1.834-2.356 2.229-3.852 0.226-0.847 0.889-1.439 1.623-1.834 1.256-0.748 2.61-1.369 3.993-2.060zM11.556 14.236c-0.522-0.31-1.030-0.621-1.552-0.945-0.663 1.171-0.621 1.792 0.155 2.794 0.437-0.578 0.889-1.157 1.397-1.848z"></path>
</svg>
