<!-- Generated by IcoMoon.io -->
<svg version="1.1" xmlns="http://www.w3.org/2000/svg" width="32" height="32" viewBox="0 0 32 32">
<title>TX</title>
<path d="M16.006 0c-8.826 0-16.006 7.18-16.006 16.006s7.18 16.006 16.006 16.006c8.826 0 16.006-7.181 16.006-16.006s-7.18-16.006-16.006-16.006zM16.006 30.992c-8.263 0-14.986-6.723-14.986-14.986s6.723-14.986 14.986-14.986c8.263 0 14.986 6.723 14.986 14.986s-6.723 14.986-14.986 14.986z"></path>
<path d="M19.246 7.103c0 1.789-1.451 3.24-3.24 3.24s-3.24-1.451-3.24-3.24c0-1.789 1.451-3.24 3.24-3.24s3.24 1.451 3.24 3.24z"></path>
<path d="M10.871 19.597c0 1.789-1.451 3.24-3.24 3.24s-3.24-1.451-3.24-3.24c0-1.789 1.451-3.24 3.24-3.24s3.24 1.451 3.24 3.24z"></path>
<path d="M8.223 15.193c0.265-2.55 1.76-4.739 3.879-5.964-0.34-0.612-0.54-1.342-0.54-2.119 0-0.096 0.003-0.19 0.009-0.284l-0.001 0.013c-3.266 1.587-5.562 4.869-5.738 8.695 0.528-0.241 1.146-0.381 1.796-0.381 0.001 0 0.002 0 0.003 0h-0c0.201 0 0.398 0.015 0.592 0.040zM23.787 15.175c0.135-0.014 0.292-0.023 0.451-0.023h0c0.698 0 1.357 0.161 1.944 0.447-0.152-3.854-2.454-7.165-5.739-8.762 0.005 0.081 0.008 0.176 0.008 0.271 0 0.777-0.2 1.508-0.552 2.142l0.012-0.023c2.114 1.223 3.607 3.404 3.876 5.946zM20.688 22.272c-1.307 0.979-2.928 1.559-4.682 1.559-1.796 0-3.451-0.61-4.773-1.631-0.479 0.657-1.119 1.171-1.862 1.489l-0.029 0.011c1.788 1.55 4.117 2.492 6.664 2.492 2.526 0 4.837-0.926 6.619-2.453-0.788-0.313-1.443-0.817-1.93-1.456l-0.008-0.011z"></path>
<path d="M27.477 19.597c0 1.789-1.451 3.24-3.24 3.24s-3.24-1.451-3.24-3.24c0-1.789 1.451-3.24 3.24-3.24s3.24 1.451 3.24 3.24z"></path>
<path d="M16.006 2.156c-7.637 0-13.851 6.213-13.851 13.851s6.213 13.851 13.851 13.851c7.637 0 13.85-6.213 13.85-13.851s-6.214-13.851-13.85-13.851zM24.237 24.042c-0.134 0-0.268-0.007-0.399-0.019-2.023 1.977-4.787 3.197-7.832 3.197-3.052 0-5.822-1.226-7.846-3.211-0.158 0.020-0.342 0.032-0.528 0.032h-0c-2.455 0-4.445-1.99-4.445-4.445 0-1.376 0.626-2.606 1.608-3.421-0.001-0.057-0.002-0.113-0.002-0.17 0-4.705 2.913-8.742 7.029-10.403 0.616-1.717 2.256-2.944 4.185-2.944s3.569 1.228 4.184 2.944c4.117 1.662 7.029 5.699 7.029 10.403 0 0.098-0.001 0.195-0.004 0.292 0.9 0.813 1.466 1.99 1.466 3.299 0 2.455-1.99 4.445-4.445 4.445z"></path>
</svg>
