<?xml version="1.0" encoding="utf-8"?>
<!-- Generator: Adobe Illustrator 22.1.0, SVG Export Plug-In . SVG Version: 6.00 Build 0)  -->
<svg version="1.1" id="Layer_1" xmlns="http://www.w3.org/2000/svg" xmlns:xlink="http://www.w3.org/1999/xlink" x="0px" y="0px"
	 viewBox="0 0 226.8 226.8" style="enable-background:new 0 0 226.8 226.8;" xml:space="preserve">
<g>
	<path d="M0,121.2c5.8-5.9,11.8-11.8,17.9-17.9c0.3,0.3,0.6,0.5,0.9,0.9c5.7,5.7,11.4,11.4,17.2,17.1c5.6,5.6,11.3,11.2,16.9,16.8
		c6.4,6.4,12.7,12.7,19,19.1c3.2,3.3,7.2,4.7,11.7,4.9c3,0.1,5.8-0.6,8.4-2.1c0.3-0.1,0.5-0.3,0.7-0.5c0.1-0.1,0.2-0.2,0.4-0.5
		c-1-1.1-2-2.2-3-3.4c-5-5.8-9.6-12-12.9-18.9c-2.1-4.3-3.7-8.8-4.6-13.5c-1.2-7,0-13.5,3.6-19.6c2.6-4.4,6-8.3,9.6-11.9
		c2.2-2.2,4.5-4.4,6.7-6.7c0.3-0.3,0.6-0.6,0.9-1C84.1,74.7,74.7,65.3,65.4,56c0.4-0.8,17.7-18.3,19.4-19.6
		c9.4,9.3,18.7,18.7,28.2,28.2c9.5-9.4,18.9-18.8,28.4-28.3c6.5,6.5,13,12.9,19.7,19.5c-9.5,9.5-18.9,18.9-28.4,28.4
		c1,1.1,1.9,2,2.8,2.9c2.9,3,6,5.9,8.8,9c3.6,4,6.6,8.5,8.3,13.6c1.4,4.1,1.6,8.3,1,12.5c-1,7-3.8,13.3-7.3,19.4
		c-3.2,5.5-7.1,10.5-11.4,15.3c-0.5,0.6-1,1.2-1.5,1.8c0.1,0.1,0.1,0.3,0.1,0.3c4.2,1.6,8.4,2.4,12.7,0.8c2-0.7,3.8-1.8,5.4-3.2
		c2-1.7,3.9-3.4,5.8-5.2c8.2-8.1,16.3-16.2,24.4-24.3c8-8,16.1-16,24.1-24.1c0.4-0.4,0.7-0.7,1.3-1.2c6.5,6.5,13,13,19.5,19.5
		c-0.4,0.4-0.6,0.7-0.9,1c-18.2,18.1-36.3,36.3-54.5,54.4c-3.6,3.6-7.3,6.9-11.7,9.5c-3.3,2-6.8,3.5-10.7,4.1
		c-4.2,0.6-8.4,0.2-12.4-0.9c-6.8-1.8-13-4.8-18.8-8.7c-1.3-0.9-2.6-1.7-3.8-2.7c-0.7-0.5-1.2-0.5-1.9,0c-1.6,1.1-3.1,2.3-4.7,3.4
		c-4.4,3.1-9.2,5.6-14.3,7.3c-6,2-12,2.6-18.2,1c-4-1.1-7.6-3-11-5.4c-4.6-3.2-8.4-7.2-12.3-11.1c-11.8-11.8-23.6-23.6-35.5-35.4
		c-3.8-3.8-7.7-7.6-11.5-11.5C3,124.6,1.5,122.8,0,121.2z M113.3,103.7c-0.3,0.2-0.5,0.3-0.5,0.4c-2.4,2.5-4.8,5-7,7.7
		c-2.7,3.3-4.1,7-3.5,11.4c0.6,3.8,1.7,7.4,4,10.5c1,1.3,2.1,2.6,3.1,3.9c1.2,1.4,2.4,2.7,3.7,4.1c1.2-1.3,2.3-2.5,3.4-3.7
		c3.3-3.6,6.1-7.5,7.1-12.5c0.9-4.6,0.6-8.8-2.3-12.7c-0.7-0.9-1.4-1.9-2.2-2.8C117.3,108,115.3,105.9,113.3,103.7z"/>
</g>
</svg>
