<!-- Generated by IcoMoon.io -->
<svg version="1.1" xmlns="http://www.w3.org/2000/svg" width="32" height="32" viewBox="0 0 32 32">
<title>UCASH</title>
<path d="M0 17.101c0.818-0.832 1.665-1.665 2.526-2.526 0.042 0.042 0.085 0.071 0.127 0.127 0.804 0.804 1.608 1.608 2.427 2.413 0.79 0.79 1.594 1.58 2.384 2.37 0.903 0.903 1.792 1.792 2.681 2.695 0.451 0.466 1.016 0.663 1.651 0.691 0.423 0.014 0.818-0.085 1.185-0.296 0.042-0.014 0.071-0.042 0.099-0.071 0.014-0.014 0.028-0.028 0.056-0.071-0.141-0.155-0.282-0.31-0.423-0.48-0.705-0.818-1.354-1.693-1.82-2.667-0.296-0.607-0.522-1.242-0.649-1.905-0.169-0.988 0-1.905 0.508-2.765 0.367-0.621 0.847-1.171 1.354-1.679 0.31-0.31 0.635-0.621 0.945-0.945 0.042-0.042 0.085-0.085 0.127-0.141-1.312-1.312-2.638-2.638-3.951-3.951 0.056-0.113 2.497-2.582 2.737-2.765 1.326 1.312 2.638 2.638 3.979 3.979 1.34-1.326 2.667-2.653 4.007-3.993 0.917 0.917 1.834 1.82 2.78 2.751-1.34 1.34-2.667 2.667-4.007 4.007 0.141 0.155 0.268 0.282 0.395 0.409 0.409 0.423 0.847 0.832 1.242 1.27 0.508 0.564 0.931 1.199 1.171 1.919 0.198 0.578 0.226 1.171 0.141 1.764-0.141 0.988-0.536 1.877-1.030 2.737-0.451 0.776-1.002 1.481-1.608 2.159-0.071 0.085-0.141 0.169-0.212 0.254 0.014 0.014 0.014 0.042 0.014 0.042 0.593 0.226 1.185 0.339 1.792 0.113 0.282-0.099 0.536-0.254 0.762-0.451 0.282-0.24 0.55-0.48 0.818-0.734 1.157-1.143 2.3-2.286 3.443-3.429 1.129-1.129 2.272-2.258 3.4-3.4 0.056-0.056 0.099-0.099 0.183-0.169 0.917 0.917 1.834 1.834 2.751 2.751-0.056 0.056-0.085 0.099-0.127 0.141-2.568 2.554-5.122 5.122-7.69 7.675-0.508 0.508-1.030 0.974-1.651 1.34-0.466 0.282-0.959 0.494-1.51 0.578-0.593 0.085-1.185 0.028-1.75-0.127-0.959-0.254-1.834-0.677-2.653-1.227-0.183-0.127-0.367-0.24-0.536-0.381-0.099-0.071-0.169-0.071-0.268 0-0.226 0.155-0.437 0.325-0.663 0.48-0.621 0.437-1.298 0.79-2.018 1.030-0.847 0.282-1.693 0.367-2.568 0.141-0.564-0.155-1.072-0.423-1.552-0.762-0.649-0.451-1.185-1.016-1.735-1.566-1.665-1.665-3.33-3.33-5.009-4.995-0.536-0.536-1.086-1.072-1.623-1.623-0.212-0.24-0.423-0.494-0.635-0.72zM15.986 14.631c-0.042 0.028-0.071 0.042-0.071 0.056-0.339 0.353-0.677 0.705-0.988 1.086-0.381 0.466-0.578 0.988-0.494 1.608 0.085 0.536 0.24 1.044 0.564 1.481 0.141 0.183 0.296 0.367 0.437 0.55 0.169 0.198 0.339 0.381 0.522 0.578 0.169-0.183 0.324-0.353 0.48-0.522 0.466-0.508 0.861-1.058 1.002-1.764 0.127-0.649 0.085-1.242-0.325-1.792-0.099-0.127-0.198-0.268-0.31-0.395-0.254-0.282-0.536-0.578-0.818-0.889z"></path>
</svg>
