<!-- Generated by IcoMoon.io -->
<svg version="1.1" xmlns="http://www.w3.org/2000/svg" width="32" height="32" viewBox="0 0 32 32">
<title>UGC</title>
<path d="M1.693 15.422c0-1.862-0.014-3.725 0-5.601 0.014-1.369 0.607-2.441 1.792-3.118 3.556-2.074 7.139-4.134 10.723-6.18 1.185-0.677 2.413-0.691 3.598-0.014 3.457 1.975 6.885 3.979 10.342 5.94 0.889 0.508 1.637 1.129 1.975 2.116 0.127 0.395 0.226 0.804 0.24 1.213 0.014 3.824 0.014 7.633 0.014 11.457 0 0.593-0.339 0.974-0.875 0.959-0.395 0-0.72-0.254-0.804-0.649-0.042-0.169-0.042-0.353-0.042-0.536 0-2.243 0-4.501 0-6.744 0-1.369 0.014-2.751 0.042-4.12 0.014-0.959-0.367-1.637-1.199-2.116-3.499-2.004-6.984-4.021-10.469-6.039-0.691-0.395-1.383-0.367-2.060 0.042-1.58 0.917-3.175 1.834-4.769 2.751-1.905 1.101-3.824 2.215-5.728 3.302-0.734 0.423-1.101 1.030-1.101 1.877 0 3.753 0 7.506 0 11.259 0 0.564-0.296 0.945-0.748 0.974-0.522 0.042-0.917-0.31-0.917-0.832 0-1.058 0-2.116 0-3.16-0.014-0.945-0.014-1.862-0.014-2.78 0 0 0 0 0 0z"></path>
<path d="M16 32c-0.677-0.014-1.298-0.198-1.891-0.536-3.527-2.046-7.069-4.078-10.596-6.138-0.353-0.212-0.649-0.508-0.959-0.79-0.226-0.212-0.282-0.494-0.127-0.79s0.395-0.423 0.705-0.381c0.282 0.042 0.578 0.113 0.818 0.254 3.443 1.975 6.857 3.965 10.3 5.954 0.254 0.141 0.494 0.296 0.748 0.437 0.677 0.381 1.369 0.381 2.032-0.014 3.541-2.032 7.069-4.078 10.596-6.123 0.381-0.212 0.72-0.494 1.185-0.522 0.339-0.014 0.607 0.071 0.776 0.381 0.155 0.282 0.113 0.593-0.155 0.847-0.282 0.282-0.593 0.564-0.931 0.762-3.541 2.060-7.083 4.092-10.624 6.138-0.564 0.339-1.199 0.508-1.877 0.522z"></path>
<path d="M4.698 15.929c0-1.764 0-3.541 0-5.305 0-0.79 0.325-1.369 1.016-1.764 3.104-1.764 6.194-3.541 9.298-5.305 0.663-0.381 1.34-0.367 2.004 0.014 3.076 1.778 6.138 3.556 9.213 5.333 0.762 0.437 1.115 1.058 1.115 1.933 0 3.485 0 6.97 0.014 10.455 0 0.861-0.353 1.481-1.101 1.905-3.076 1.75-6.138 3.513-9.213 5.263-0.663 0.381-1.34 0.395-2.004 0-3.132-1.806-6.265-3.626-9.397-5.46-0.621-0.353-0.931-0.917-0.945-1.637 0-1.806 0-3.626 0-5.432 0 0 0 0 0 0zM5.15 15.944c0 0 0 0 0 0 0.014 1.707 0.014 3.414 0 5.122 0 0.762 0.324 1.326 0.974 1.707 2.991 1.735 5.982 3.457 8.959 5.192 0.621 0.367 1.256 0.353 1.891 0 2.949-1.679 5.898-3.372 8.861-5.051 0.705-0.395 1.058-0.988 1.058-1.792 0-3.386 0-6.787 0-10.173 0-0.776-0.339-1.34-1.002-1.721-0.776-0.437-1.552-0.889-2.328-1.34-2.173-1.256-4.36-2.526-6.519-3.795-0.649-0.381-1.298-0.437-1.975-0.056-2.991 1.693-5.996 3.4-8.988 5.122-0.635 0.353-0.931 0.903-0.931 1.637 0 1.707 0 3.429 0 5.15z"></path>
<path d="M10.582 14.871c0 0.847 0 1.679 0 2.526 0 1.538 1.016 2.723 2.61 2.935 1.256 0.183 2.667-0.564 3.118-2.018 0.141-0.466 0.127-0.988 0.169-1.481 0.028-0.409 0.31-0.762 0.677-0.818 0.423-0.071 0.804 0.127 0.974 0.508 0.042 0.099 0.056 0.198 0.071 0.31 0.226 2.413-1.185 4.501-3.527 5.108-1.608 0.423-3.062 0.028-4.303-1.086-0.212-0.198-0.367-0.212-0.607-0.056-0.451 0.282-0.917 0.536-1.383 0.804-0.494 0.282-1.002 0.155-1.242-0.296-0.24-0.437-0.085-0.931 0.409-1.213 0.452-0.268 0.903-0.536 1.354-0.776 0.198-0.113 0.24-0.212 0.183-0.451-0.113-0.466-0.212-0.945-0.226-1.411-0.028-1.806-0.014-3.626-0.014-5.432 0-0.677 0.508-1.072 1.115-0.903 0.395 0.113 0.621 0.437 0.621 0.931 0.014 0.691 0 1.383 0 2.074 0 0.24 0 0.494 0 0.748z"></path>
<path d="M21.996 11.725c0.635-0.367 1.185-0.691 1.764-1.002 0.325-0.183 0.663-0.155 0.959 0.085 0.282 0.226 0.395 0.55 0.268 0.889-0.085 0.212-0.254 0.423-0.437 0.55-0.494 0.325-1.002 0.607-1.51 0.889-0.155 0.085-0.198 0.169-0.155 0.353 0.071 0.325 0.113 0.649 0.127 0.974 0.028 0.55-0.325 0.959-0.832 0.974s-0.875-0.353-0.889-0.917c-0.071-1.608-1.284-2.864-2.878-2.892-1.693-0.028-2.935 1.27-2.991 2.737-0.042 1.157-0.014 2.328-0.028 3.485 0 0.212-0.042 0.423-0.141 0.607-0.169 0.325-0.564 0.466-0.931 0.381-0.339-0.085-0.635-0.381-0.635-0.748 0-1.453-0.071-2.907 0.071-4.346 0.198-2.004 2.173-3.711 4.176-3.824 1.594-0.085 2.921 0.437 3.979 1.637 0.028 0.056 0.056 0.113 0.085 0.169z"></path>
<path d="M21.333 17.707c-0.409 0-0.705 0-0.988 0-0.268 0-0.536 0.014-0.804-0.014-0.451-0.042-0.776-0.409-0.776-0.861s0.353-0.832 0.804-0.832c0.861-0.014 1.721-0.014 2.596 0 0.48 0.014 0.804 0.339 0.832 0.832 0.183 2.667-1.425 4.586-3.612 5.122-0.325 0.085-0.677 0.113-1.016 0.127-0.536 0.014-0.903-0.367-0.903-0.861s0.339-0.832 0.875-0.861c1.101-0.056 1.961-0.536 2.526-1.496 0.198-0.31 0.296-0.691 0.466-1.157z"></path>
<path d="M18.215 14.73c0 0.536-0.381 0.903-0.903 0.903-0.536-0.014-0.903-0.381-0.903-0.903 0-0.536 0.395-0.945 0.917-0.931 0.536-0.014 0.889 0.367 0.889 0.931z"></path>
</svg>
