<?xml version="1.0" encoding="utf-8"?>
<!-- Generator: Adobe Illustrator 22.1.0, SVG Export Plug-In . SVG Version: 6.00 Build 0)  -->
<svg version="1.1" id="Layer_1" xmlns="http://www.w3.org/2000/svg" xmlns:xlink="http://www.w3.org/1999/xlink" x="0px" y="0px"
	 viewBox="0 0 226.8 226.8" style="enable-background:new 0 0 226.8 226.8;" xml:space="preserve">
<g>
	<path d="M12,109.3c0-13.2-0.1-26.4,0-39.7c0.1-9.7,4.3-17.3,12.7-22.1c25.2-14.7,50.6-29.3,76-43.8c8.4-4.8,17.1-4.9,25.5-0.1
		c24.5,14,48.8,28.2,73.3,42.1c6.3,3.6,11.6,8,14,15c0.9,2.8,1.6,5.7,1.7,8.6c0.1,27.1,0.1,54.1,0.1,81.2c0,4.2-2.4,6.9-6.2,6.8
		c-2.8,0-5.1-1.8-5.7-4.6c-0.3-1.2-0.3-2.5-0.3-3.8c0-15.9,0-31.9,0-47.8c0-9.7,0.1-19.5,0.3-29.2c0.1-6.8-2.6-11.6-8.5-15
		c-24.8-14.2-49.5-28.5-74.2-42.8c-4.9-2.8-9.8-2.6-14.6,0.3c-11.2,6.5-22.5,13-33.8,19.5c-13.5,7.8-27.1,15.7-40.6,23.4
		c-5.2,3-7.8,7.3-7.8,13.3c0,26.6,0,53.2,0,79.8c0,4-2.1,6.7-5.3,6.9c-3.7,0.3-6.5-2.2-6.5-5.9c0-7.5,0-15,0-22.4
		C12,122.3,12,115.8,12,109.3C12,109.3,12,109.3,12,109.3z"/>
	<path d="M113.4,226.8c-4.8-0.1-9.2-1.4-13.4-3.8c-25-14.5-50.1-28.9-75.1-43.5c-2.5-1.5-4.6-3.6-6.8-5.6c-1.6-1.5-2-3.5-0.9-5.6
		c1.1-2.1,2.8-3,5-2.7c2,0.3,4.1,0.8,5.8,1.8c24.4,14,48.6,28.1,73,42.2c1.8,1,3.5,2.1,5.3,3.1c4.8,2.7,9.7,2.7,14.4-0.1
		c25.1-14.4,50.1-28.9,75.1-43.4c2.7-1.5,5.1-3.5,8.4-3.7c2.4-0.1,4.3,0.5,5.5,2.7c1.1,2,0.8,4.2-1.1,6c-2,2-4.2,4-6.6,5.4
		c-25.1,14.6-50.2,29-75.3,43.5C122.7,225.5,118.2,226.7,113.4,226.8z"/>
	<path d="M33.3,112.9c0-12.5,0-25.1,0-37.6c0-5.6,2.3-9.7,7.2-12.5c22-12.5,43.9-25.1,65.9-37.6c4.7-2.7,9.5-2.6,14.2,0.1
		c21.8,12.6,43.5,25.2,65.3,37.8c5.4,3.1,7.9,7.5,7.9,13.7c0,24.7,0,49.4,0.1,74.1c0,6.1-2.5,10.5-7.8,13.5
		c-21.8,12.4-43.5,24.9-65.3,37.3c-4.7,2.7-9.5,2.8-14.2,0C84.4,188.9,62.2,176,40,163c-4.4-2.5-6.6-6.5-6.7-11.6
		C33.3,138.6,33.3,125.7,33.3,112.9C33.3,112.9,33.3,112.9,33.3,112.9z M36.5,113C36.5,113,36.5,113,36.5,113
		c0.1,12.1,0.1,24.2,0,36.3c0,5.4,2.3,9.4,6.9,12.1c21.2,12.3,42.4,24.5,63.5,36.8c4.4,2.6,8.9,2.5,13.4,0
		c20.9-11.9,41.8-23.9,62.8-35.8c5-2.8,7.5-7,7.5-12.7c0-24,0-48.1,0-72.1c0-5.5-2.4-9.5-7.1-12.2c-5.5-3.1-11-6.3-16.5-9.5
		c-15.4-8.9-30.9-17.9-46.2-26.9c-4.6-2.7-9.2-3.1-14-0.4C85.6,40.6,64.3,52.7,43.1,64.9c-4.5,2.5-6.6,6.4-6.6,11.6
		C36.5,88.6,36.5,100.8,36.5,113z"/>
	<path d="M75,105.4c0,6,0,11.9,0,17.9c0,10.9,7.2,19.3,18.5,20.8c8.9,1.3,18.9-4,22.1-14.3c1-3.3,0.9-7,1.2-10.5
		c0.2-2.9,2.2-5.4,4.8-5.8c3-0.5,5.7,0.9,6.9,3.6c0.3,0.7,0.4,1.4,0.5,2.2c1.6,17.1-8.4,31.9-25,36.2c-11.4,3-21.7,0.2-30.5-7.7
		c-1.5-1.4-2.6-1.5-4.3-0.4c-3.2,2-6.5,3.8-9.8,5.7c-3.5,2-7.1,1.1-8.8-2.1c-1.7-3.1-0.6-6.6,2.9-8.6c3.2-1.9,6.4-3.8,9.6-5.5
		c1.4-0.8,1.7-1.5,1.3-3.2c-0.8-3.3-1.5-6.7-1.6-10c-0.2-12.8-0.1-25.7-0.1-38.5c0-4.8,3.6-7.6,7.9-6.4c2.8,0.8,4.4,3.1,4.4,6.6
		c0.1,4.9,0,9.8,0,14.7C75,101.8,75,103.6,75,105.4z"/>
	<path d="M155.9,83.1c4.5-2.6,8.4-4.9,12.5-7.1c2.3-1.3,4.7-1.1,6.8,0.6c2,1.6,2.8,3.9,1.9,6.3c-0.6,1.5-1.8,3-3.1,3.9
		c-3.5,2.3-7.1,4.3-10.7,6.3c-1.1,0.6-1.4,1.2-1.1,2.5c0.5,2.3,0.8,4.6,0.9,6.9c0.2,3.9-2.3,6.8-5.9,6.9c-3.6,0.1-6.2-2.5-6.3-6.5
		c-0.5-11.4-9.1-20.3-20.4-20.5c-12-0.2-20.8,9-21.2,19.4c-0.3,8.2-0.1,16.5-0.2,24.7c0,1.5-0.3,3-1,4.3c-1.2,2.3-4,3.3-6.6,2.7
		c-2.4-0.6-4.5-2.7-4.5-5.3c0-10.3-0.5-20.6,0.5-30.8c1.4-14.2,15.4-26.3,29.6-27.1c11.3-0.6,20.7,3.1,28.2,11.6
		C155.5,82.3,155.7,82.7,155.9,83.1z"/>
	<path d="M151.2,125.5c-2.9,0-5,0-7,0c-1.9,0-3.8,0.1-5.7-0.1c-3.2-0.3-5.5-2.9-5.5-6.1c0-3.2,2.5-5.9,5.7-5.9
		c6.1-0.1,12.2-0.1,18.4,0c3.4,0.1,5.7,2.4,5.9,5.9c1.3,18.9-10.1,32.5-25.6,36.3c-2.3,0.6-4.8,0.8-7.2,0.9
		c-3.8,0.1-6.4-2.6-6.4-6.1c0-3.5,2.4-5.9,6.2-6.1c7.8-0.4,13.9-3.8,17.9-10.6C149.3,131.5,150,128.8,151.2,125.5z"/>
	<path d="M129.1,104.4c0,3.8-2.7,6.4-6.4,6.4c-3.8-0.1-6.4-2.7-6.4-6.4c0-3.8,2.8-6.7,6.5-6.6C126.6,97.7,129.1,100.4,129.1,104.4z"
		/>
</g>
</svg>
