<!-- Generated by IcoMoon.io -->
<svg version="1.1" xmlns="http://www.w3.org/2000/svg" width="32" height="32" viewBox="0 0 32 32">
<title>UKG</title>
<path d="M20.84 14.914c0-0.169-0.056-0.339-0.169-0.48-0.155-0.212-0.466-0.451-1.044-0.451 0 0-0.353 0-0.409-0.437 0-0.056 0.014-0.127 0.056-0.155l9.227-7.619-16.395 6.321h-12.106l9.143 6.857c0 0 1.877-2.018 4.713-1.75 0 0-0.268 2.286 2.554 3.090l1.044 0.931c0.113 0.099 0.212 0.212 0.282 0.339l1.086 1.693h4.035l-1.086-3.048c-0.169-0.494-0.31-0.988-0.395-1.51-0.183-1.072-0.494-2.991-0.536-3.781zM19.894 16.931l-1.481-0.677c0.155-0.522 0.212-1.072 0.141-1.608 0 0 1.608 0.677 1.34 2.286z"></path>
<path d="M25.284 30.787l-9.679-6.998-9.679 7.125 3.076-9.608c0.522-1.721 2.116-2.907 3.908-2.892 0 0 0.804 1.75 2.286 2.554 0 0 1.481 0.804 1.877 2.145l1.34 1.34h4.84l2.032 6.335zM21.108 13.305l1.34-1.213h9.552l-9.411 6.589c0 0-0.677-2.822-0.677-4.303s0-0.268-0.804-1.072M15.591 1.072l-3.090 9.679 5.785-2.286-2.695-7.393"></path>
</svg>
