<?xml version="1.0" encoding="utf-8"?>
<!-- Generator: Adobe Illustrator 22.0.1, SVG Export Plug-In . SVG Version: 6.00 Build 0)  -->
<svg version="1.1" id="Layer_1" xmlns="http://www.w3.org/2000/svg" xmlns:xlink="http://www.w3.org/1999/xlink" x="0px" y="0px"
	 viewBox="0 0 226.8 226.8" style="enable-background:new 0 0 226.8 226.8;" xml:space="preserve">
<style type="text/css">
	.st0{stroke:#FFFFFF;stroke-miterlimit:10;}
</style>
<path class="st0" d="M147.7,105.7c0-1.2-0.4-2.4-1.2-3.4c-1.1-1.5-3.3-3.2-7.4-3.2c0,0-2.5,0-2.9-3.1c0-0.4,0.1-0.9,0.4-1.1
	L202,40.9L85.8,85.7H0l64.8,48.6c0,0,13.3-14.3,33.4-12.4c0,0-1.9,16.2,18.1,21.9l7.4,6.6c0.8,0.7,1.5,1.5,2,2.4l7.7,12H162
	l-7.7-21.6c-1.2-3.5-2.2-7-2.8-10.7C150.2,124.9,148,111.3,147.7,105.7z M141,120l-10.5-4.8c1.1-3.7,1.5-7.6,1-11.4
	C131.5,103.8,142.9,108.6,141,120z"/>
<g>
	<path class="st0" d="M179.2,218.2l-68.6-49.6l-68.6,50.5L63.8,151c3.7-12.2,15-20.6,27.7-20.5c0,0,5.7,12.4,16.2,18.1
		c0,0,10.5,5.7,13.3,15.2l9.5,9.5h34.3L179.2,218.2z M149.6,94.3l9.5-8.6h67.7l-66.7,46.7c0,0-4.8-20-4.8-30.5S155.3,100,149.6,94.3
		 M110.5,7.6L88.6,76.2l41-16.2L110.5,7.6"/>
</g>
</svg>
