<!-- Generated by IcoMoon.io -->
<svg version="1.1" xmlns="http://www.w3.org/2000/svg" width="32" height="32" viewBox="0 0 32 32">
<title>UNITY</title>
<path d="M30.392 11.074v9.346c1.020-1.415 1.608-2.997 1.608-4.673s-0.588-3.26-1.608-4.673zM20.365 11.116c1.352 1.28 5.295 6.17 7.746 9.252v-11.633c-2.935-2.286-7.268-3.74-12.113-3.74-2.267 0-4.417 0.321-6.37 0.891 3.697 0.194 7.218 1.896 10.737 5.23z"></path>
<path d="M18.796 12.77c-3.297-3.124-6.526-4.641-9.871-4.641-4.25 0-5.373 1.562-5.373 2.389-0.006 0.822-0.011 1.568 0.591 2.178 0.635 0.638 2.192 1.398 6.003 1.398 3.348 0 5.771 0.76 7.202 2.26 0.98 1.027 1.443 2.318 1.371 3.835 0 1.19-1.153 5.179-6.377 6.015 1.176 0.185 2.395 0.293 3.655 0.293 4.503 0 8.566-1.253 11.473-3.266-2.828-3.587-7.342-9.198-8.675-10.462z"></path>
<path d="M10.317 24.087c5.788 0 6.119-3.855 6.122-3.895 0.019-0.434 0.065-1.42-0.74-2.265-0.97-1.015-2.89-1.553-5.553-1.553-3.741 0-6.235-0.677-7.619-2.073-0.918-0.924-1.166-1.972-1.233-2.798-0.834 1.302-1.3 2.736-1.3 4.244 0 1.912 0.752 3.704 2.057 5.262 1.86 1.762 4.649 3.077 8.265 3.077z"></path>
</svg>
