<!-- Generated by IcoMoon.io -->
<svg version="1.1" xmlns="http://www.w3.org/2000/svg" width="32" height="32" viewBox="0 0 32 32">
<title>UNO</title>
<path d="M0.127 15.436c0-1.397-0.042-2.794 0.014-4.176 0.085-2.187 1.891-4.148 4.021-4.487 1.016-0.169 1.594 0.325 1.594 1.354 0 0.494 0 0.988 0 1.481 0 0.607-0.268 0.974-0.847 1.199-0.691 0.282-0.861 0.508-0.861 1.27 0 2.272 0 4.543 0 6.829 0 1.044 0.564 1.608 1.594 1.608 2.13 0 4.261 0 6.406 0 1.199 0 1.792-0.564 1.792-1.778 0.014-2.258 0.042-4.515 0.014-6.773s1.637-4.459 3.866-5.023c0.705-0.183 1.467-0.198 2.201-0.212 2.187 0 4.374-0.014 6.561 0.085 1.862 0.085 3.273 1.058 4.303 2.596 0.522 0.776 0.804 1.637 0.804 2.582 0 0.832-0.423 1.27-1.256 1.284-0.621 0.014-1.227 0.014-1.848 0.014-0.635 0-1.058-0.339-1.185-0.974-0.268-1.34-0.677-1.679-2.032-1.679-1.848 0-3.697 0-5.559 0-1.326 0-1.891 0.578-1.891 1.905 0 2.173 0.014 4.332 0 6.504-0.028 2.568-1.792 4.755-4.303 5.333-0.254 0.056-0.522 0.085-0.79 0.085-2.667 0-5.333 0.042-7.986-0.042-2.286-0.056-4.515-2.342-4.6-4.656-0.056-1.439-0.014-2.878-0.014-4.332z"></path>
<path d="M17.199 24.282c1.058-1.058 1.764-2.145 2.116-3.457 0.042-0.141 0.367-0.296 0.564-0.296 1.834-0.028 3.668-0.014 5.503-0.014 1.101 0 1.735-0.578 1.862-1.665 0.113-1.030 0.55-1.425 1.58-1.439 0.451 0 0.917-0.014 1.369 0 0.974 0.014 1.467 0.522 1.425 1.496-0.127 2.455-1.453 4.092-3.598 5.108-0.593 0.282-1.284 0.437-1.933 0.451-2.624 0.042-5.249 0.014-7.873-0.014-0.31 0-0.607-0.099-1.016-0.169z"></path>
</svg>
