<?xml version="1.0" encoding="utf-8"?>
<!-- Generator: Adobe Illustrator 22.1.0, SVG Export Plug-In . SVG Version: 6.00 Build 0)  -->
<svg version="1.1" id="Layer_1" xmlns="http://www.w3.org/2000/svg" xmlns:xlink="http://www.w3.org/1999/xlink" x="0px" y="0px"
	 viewBox="0 0 226.8 226.8" style="enable-background:new 0 0 226.8 226.8;" xml:space="preserve">
<g>
	<path d="M0.9,109.4c0-9.9-0.3-19.8,0.1-29.6C1.6,64.3,14.4,50.4,29.5,48c7.2-1.2,11.3,2.3,11.3,9.6c0,3.5,0,7,0,10.5
		c0,4.3-1.9,6.9-6,8.5c-4.9,2-6.1,3.6-6.1,9c0,16.1,0,32.2,0,48.4c0,7.4,4,11.4,11.3,11.4c15.1,0,30.2,0,45.4,0
		c8.5,0,12.7-4,12.7-12.6c0.1-16,0.3-32,0.1-48c-0.2-16,11.6-31.6,27.4-35.6c5-1.3,10.4-1.4,15.6-1.5c15.5,0,31-0.1,46.5,0.6
		c13.2,0.6,23.2,7.5,30.5,18.4c3.7,5.5,5.7,11.6,5.7,18.3c0,5.9-3,9-8.9,9.1c-4.4,0.1-8.7,0.1-13.1,0.1c-4.5,0-7.5-2.4-8.4-6.9
		c-1.9-9.5-4.8-11.9-14.4-11.9c-13.1,0-26.2,0-39.4,0c-9.4,0-13.4,4.1-13.4,13.5c0,15.4,0.1,30.7,0,46.1
		c-0.2,18.2-12.7,33.7-30.5,37.8c-1.8,0.4-3.7,0.6-5.6,0.6c-18.9,0-37.8,0.3-56.6-0.3C17.4,172.7,1.6,156.5,1,140.1
		C0.6,129.9,0.9,119.7,0.9,109.4z"/>
	<path d="M121.9,172.1c7.5-7.5,12.5-15.2,15-24.5c0.3-1,2.6-2.1,4-2.1c13-0.2,26-0.1,39-0.1c7.8,0,12.3-4.1,13.2-11.8
		c0.8-7.3,3.9-10.1,11.2-10.2c3.2,0,6.5-0.1,9.7,0c6.9,0.1,10.4,3.7,10.1,10.6c-0.9,17.4-10.3,29-25.5,36.2c-4.2,2-9.1,3.1-13.7,3.2
		c-18.6,0.3-37.2,0.1-55.8-0.1C126.9,173.3,124.8,172.6,121.9,172.1z"/>
</g>
</svg>
