<?xml version="1.0" encoding="utf-8"?>
<!-- Generator: Adobe Illustrator 22.1.0, SVG Export Plug-In . SVG Version: 6.00 Build 0)  -->
<svg version="1.1" id="Layer_1" xmlns="http://www.w3.org/2000/svg" xmlns:xlink="http://www.w3.org/1999/xlink" x="0px" y="0px"
	 viewBox="0 0 226.8 226.8" style="enable-background:new 0 0 226.8 226.8;" xml:space="preserve">
<g>
	<path d="M114.4,38.7c-25.8,38.9-51.2,77.1-77,116c6-0.5,11.2-0.9,16.4-1.4c8.6-0.7,17.1-1.6,25.7-2.2c5.8-0.4,7.9,1.6,7.9,7.4
		c0.2,21.1,0.4,42.1,0.4,63.2c0,1.6-0.7,4-1.8,4.5c-1.4,0.6-3.7,0.1-5.2-0.7c-20.5-11.6-41-23.2-61.4-35c-4-2.3-9-3.5-11.1-8.3
		c-1.5-3.4-3.3-7-3.3-10.6c-0.2-33.9-0.1-67.9-0.1-101.9c0-6.8,3.2-12.1,8.9-15.6c7.8-4.7,15.7-9.2,23.7-13.7
		C56.1,30,74.7,19.4,93.3,8.9c4.2-2.4,8.3-4.8,12.7-6.9c5.9-2.8,11.9-2,17.5,1.1c8.6,4.8,17.1,9.7,25.7,14.5
		c14.7,8.3,29.3,16.6,44,24.9c6.4,3.6,12.8,7.1,19.1,10.9c6.3,3.8,9.7,9.4,9.7,16.9c0,33.5,0,67.1,0,100.6c0,7.8-3.4,13.5-10.4,17.4
		c-18,10.1-35.8,20.5-53.7,30.7c-4.1,2.3-8.2,4.7-12.3,6.9c-3.8,2-6.2,0.6-6.2-3.7c0-21.6,0.1-43.2,0.2-64.8c0-4.4,2.7-6.7,7.4-6.4
		c13.1,1,26.1,2.2,39.1,3.3c1,0.1,2,0.1,3.9,0.2C164.7,115.7,139.7,77.5,114.4,38.7z"/>
</g>
</svg>
