<!-- Generated by IcoMoon.io -->
<svg version="1.1" xmlns="http://www.w3.org/2000/svg" width="32" height="32" viewBox="0 0 32 32">
<title>UP</title>
<path d="M16.141 5.46c-3.64 5.489-7.224 10.878-10.864 16.367 0.847-0.071 1.58-0.127 2.314-0.198 1.213-0.099 2.413-0.226 3.626-0.31 0.818-0.056 1.115 0.226 1.115 1.044 0.028 2.977 0.056 5.94 0.056 8.917 0 0.226-0.099 0.564-0.254 0.635-0.198 0.085-0.522 0.014-0.734-0.099-2.892-1.637-5.785-3.273-8.663-4.938-0.564-0.325-1.27-0.494-1.566-1.171-0.212-0.48-0.466-0.988-0.466-1.496-0.028-4.783-0.014-9.58-0.014-14.377 0-0.959 0.452-1.707 1.256-2.201 1.101-0.663 2.215-1.298 3.344-1.933 2.624-1.467 5.249-2.963 7.873-4.444 0.593-0.339 1.171-0.677 1.792-0.974 0.832-0.395 1.679-0.282 2.469 0.155 1.213 0.677 2.413 1.369 3.626 2.046 2.074 1.171 4.134 2.342 6.208 3.513 0.903 0.508 1.806 1.002 2.695 1.538s1.369 1.326 1.369 2.384c0 4.727 0 9.467 0 14.194 0 1.101-0.48 1.905-1.467 2.455-2.54 1.425-5.051 2.892-7.577 4.332-0.578 0.325-1.157 0.663-1.735 0.974-0.536 0.282-0.875 0.085-0.875-0.522 0-3.048 0.014-6.095 0.028-9.143 0-0.621 0.381-0.945 1.044-0.903 1.848 0.141 3.683 0.31 5.517 0.466 0.141 0.014 0.282 0.014 0.55 0.028-3.57-5.474-7.097-10.864-10.667-16.339z"></path>
</svg>
