<!-- Generated by IcoMoon.io -->
<svg version="1.1" xmlns="http://www.w3.org/2000/svg" width="32" height="32" viewBox="0 0 32 32">
<title>UPBIT</title>
<path d="M8.564 9.016c-0.522 1.594-1.002 3.076-1.481 4.557-0.635 1.933-1.27 3.866-1.891 5.785-0.381 1.143-0.042 1.594 1.171 1.594 0.578 0 1.157 0 1.792 0 0.564-1.721 1.129-3.443 1.693-5.164 0.677-2.074 1.369-4.148 2.032-6.222 0.127-0.409 0.31-0.578 0.762-0.564 1.538 0.028 3.076 0.014 4.811 0.014-1.312 1.383-2.497 2.638-3.781 3.993 0.691-0.169 1.256-0.31 1.891-0.466-0.042 0.226-0.042 0.381-0.085 0.536-1.072 3.273-2.159 6.533-3.217 9.82-0.141 0.437-0.339 0.55-0.776 0.55-2.822-0.028-5.63-0.028-8.437-0.028-2.215 0-3.358-1.411-2.737-3.541 0.762-2.624 1.665-5.206 2.511-7.817 0.282-0.875 0.55-1.75 0.875-2.61 0.071-0.169 0.296-0.409 0.452-0.409 1.411-0.042 2.85-0.028 4.416-0.028z"></path>
<path d="M20.981 18.808c-0.451 1.397-0.917 2.737-1.34 4.106-0.127 0.395-0.31 0.522-0.734 0.522-1.34-0.028-2.695-0.014-4.162-0.014 1.199-3.668 2.37-7.252 3.57-10.892 0.55 0.155 1.058 0.31 1.665 0.494-0.395-1.34-0.776-2.61-1.171-3.979 0.31-0.014 0.55-0.028 0.79-0.028 3.146 0 6.293 0 9.453 0 1.989 0 3.076 1.058 2.765 3.019-0.268 1.693-0.734 3.4-1.877 4.783-1.086 1.284-2.427 2.060-4.176 2.004-1.594-0.056-3.175-0.014-4.783-0.014zM21.785 16.339c0.903 0 1.735-0.014 2.554 0 0.705 0.014 1.326-0.268 1.608-0.861 0.437-0.959 0.762-1.989 1.016-3.019 0.141-0.578-0.24-0.945-0.818-0.959-0.917-0.028-1.834 0-2.765 0-0.536 1.608-1.044 3.189-1.594 4.839z"></path>
</svg>
