<?xml version="1.0" encoding="utf-8"?>
<!-- Generator: Adobe Illustrator 22.1.0, SVG Export Plug-In . SVG Version: 6.00 Build 0)  -->
<svg version="1.1" id="Layer_1" xmlns="http://www.w3.org/2000/svg" xmlns:xlink="http://www.w3.org/1999/xlink" x="0px" y="0px"
	 viewBox="0 0 226.8 226.8" style="enable-background:new 0 0 226.8 226.8;" xml:space="preserve">
<g>
	<path d="M0,4c0.3,0,0.7,0,1,0c24.2,0,48.4,0,72.6,0c0.2,0,0.5,0,0.7,0C74.8,4,75,4.3,75,4.8c0,0.4,0,0.8,0,1.2
		c0,45.6,0,91.1,0,136.7c0,0.5,0,1,0,1.6c0.4,0.1,0.6,0.2,0.9,0.2c0.4,0,0.8,0,1.1,0c23.9,0,47.9,0,71.8,0c2.5,0,2.1,0,2.1-2.1
		c0-45.4,0-90.8,0-136.2c0-0.3,0-0.7,0-1c0-1,0.2-1.1,1.2-1.2c0.2,0,0.5,0,0.7,0c24.1,0,48.2,0,72.4,0c0.4,0,0.7,0,1.2,0
		c0.1,0.3,0.2,0.6,0.2,0.9c0,1-0.1,1.9-0.1,2.9c0,58.2,0,116.4,0,174.6c0,1.5-0.1,3.1-0.2,4.6c0,0.6-0.3,1.2-0.4,1.8
		c-1.1,5.2-3.6,9.7-7.2,13.7c-2.7,3-5.5,5.8-8.9,7.9c-4.6,2.9-9.4,5.3-14.6,7c-5,1.6-10.1,2.7-15.3,3.4c-4,0.5-8.1,0.7-12.2,0.7
		c-14.2,0-28.4,0.2-42.7,0.2c-16.3,0-32.7,0-49,0c-7.5,0-15-0.1-22.5-0.2c-5.1-0.1-10.2-0.8-15.2-1.7c-4-0.7-7.9-1.9-11.7-3.2
		c-4.2-1.5-8.1-3.5-11.9-6c-5.3-3.5-9.4-8.2-12.2-13.9c-1.5-3-2.2-6.1-2.5-9.4c-0.1-1.6-0.2-3.3-0.2-5C0,123.7,0,65,0,6.3
		C0,5.6,0,4.9,0,4z"/>
</g>
</svg>
