<!-- Generated by IcoMoon.io -->
<svg version="1.1" xmlns="http://www.w3.org/2000/svg" width="32" height="32" viewBox="0 0 32 32">
<title>UQC</title>
<path d="M0 0.564c0.042 0 0.099 0 0.141 0 3.414 0 6.829 0 10.243 0 0.028 0 0.071 0 0.099 0 0.071 0 0.099 0.042 0.099 0.113 0 0.056 0 0.113 0 0.169 0 6.434 0 12.854 0 19.287 0 0.071 0 0.141 0 0.226 0.056 0.014 0.085 0.028 0.127 0.028 0.056 0 0.113 0 0.155 0 3.372 0 6.758 0 10.13 0 0.353 0 0.296 0 0.296-0.296 0-6.406 0-12.811 0-19.217 0-0.042 0-0.099 0-0.141 0-0.141 0.028-0.155 0.169-0.169 0.028 0 0.071 0 0.099 0 3.4 0 6.801 0 10.215 0 0.056 0 0.099 0 0.169 0 0.014 0.042 0.028 0.085 0.028 0.127 0 0.141-0.014 0.268-0.014 0.409 0 8.212 0 16.423 0 24.635 0 0.212-0.014 0.437-0.028 0.649 0 0.085-0.042 0.169-0.056 0.254-0.155 0.734-0.508 1.369-1.016 1.933-0.381 0.423-0.776 0.818-1.256 1.115-0.649 0.409-1.326 0.748-2.060 0.988-0.705 0.226-1.425 0.381-2.159 0.48-0.564 0.071-1.143 0.099-1.721 0.099-2.004 0-4.007 0.028-6.025 0.028-2.3 0-4.614 0-6.914 0-1.058 0-2.116-0.014-3.175-0.028-0.72-0.014-1.439-0.113-2.145-0.24-0.564-0.099-1.115-0.268-1.651-0.451-0.593-0.212-1.143-0.494-1.679-0.847-0.748-0.494-1.326-1.157-1.721-1.961-0.212-0.423-0.31-0.861-0.353-1.326-0.014-0.226-0.028-0.466-0.028-0.705 0.028-8.268 0.028-16.55 0.028-24.832 0-0.099 0-0.198 0-0.325z"></path>
</svg>
