<!-- Generated by IcoMoon.io -->
<svg version="1.1" xmlns="http://www.w3.org/2000/svg" width="32" height="32" viewBox="0 0 32 32">
<title>URDUBIT</title>
<path d="M10.935 22.476c0.677-0.607 1.354-1.199 2.032-1.806-0.028-0.071-0.056-0.127-0.085-0.198-0.31 0.042-0.649 0.014-0.903 0.155-0.917 0.466-1.693 0.24-2.427-0.367-0.071-0.056-0.169-0.099-0.254-0.155-0.028-0.014-0.042-0.042-0.099-0.099 1.058-0.776 2.116-1.538 3.231-2.342-0.155-0.056-0.24-0.113-0.325-0.113-1.242-0.099-2.483-0.169-3.711-0.296-0.212-0.014-0.452-0.155-0.593-0.325-0.31-0.395-0.564-0.832-0.903-1.326 0.423-0.042 0.776-0.071 1.115-0.141 0.169-0.028 0.325-0.155 0.48-0.254-0.141-0.099-0.268-0.212-0.409-0.268-0.282-0.099-0.564-0.198-0.861-0.226-1.171-0.071-1.552-0.974-2.060-1.862 0.381-0.056 0.72-0.085 1.058-0.155 0.169-0.042 0.31-0.155 0.48-0.24-0.155-0.099-0.282-0.254-0.452-0.296-0.452-0.141-0.917-0.268-1.383-0.353-0.536-0.085-0.903-0.339-1.101-0.832-0.099-0.212-0.24-0.409-0.409-0.677 0.367-0.028 0.677-0.042 0.974-0.056 0.169-0.014 0.339 0.014 0.494-0.028 0.141-0.042 0.268-0.141 0.409-0.212-0.113-0.099-0.212-0.24-0.339-0.282-0.663-0.226-1.354-0.409-2.004-0.663-0.268-0.099-0.536-0.31-0.691-0.55-0.776-1.199-1.51-2.413-2.201-3.697 0.183 0.099 0.367 0.183 0.536 0.282 3.175 1.778 6.349 3.556 9.538 5.319 1.227 0.691 2.455 1.369 3.683 2.060 0.494 0.282 0.635 0.24 0.748-0.31 0.127-0.705 0.169-1.439 0.254-2.272 0.593-0.028 1.312-0.071 2.046-0.099 0.056 0 0.141 0.042 0.155 0.085 0.212 0.621 0.748 0.522 1.227 0.55 0.127 0 0.268 0.028 0.395 0.071-1.34 0.339-1.453 0.451-1.072 1.030-0.296 0.226-0.353 0.889-0.056 1.086 0.113 0.071 0.367 0.014 0.522-0.071 2.088-1.157 4.176-2.328 6.265-3.499 2.427-1.354 4.868-2.723 7.295-4.078 0.113-0.056 0.226-0.113 0.466-0.24-0.169 0.296-0.282 0.494-0.395 0.677-0.649 1.044-1.284 2.102-1.947 3.132-0.141 0.212-0.381 0.395-0.621 0.48-0.649 0.24-1.312 0.423-1.961 0.635-0.155 0.056-0.31 0.141-0.564 0.254 0.635 0.508 1.312 0.183 1.933 0.409-0.353 0.663-0.578 1.411-1.524 1.51-0.494 0.056-0.988 0.226-1.467 0.381-0.113 0.028-0.183 0.183-0.268 0.282 0.113 0.056 0.212 0.155 0.325 0.169 0.381 0.071 0.762 0.099 1.27 0.155-0.381 0.564-0.691 1.058-1.030 1.524-0.071 0.085-0.226 0.113-0.353 0.155-0.578 0.155-1.171 0.31-1.764 0.466-0.099 0.028-0.169 0.127-0.254 0.198 0.085 0.085 0.155 0.226 0.254 0.24 0.409 0.071 0.832 0.113 1.34 0.169-0.381 0.564-0.691 1.072-1.058 1.552-0.085 0.113-0.325 0.113-0.494 0.127-1.213 0.056-2.427 0.113-3.64 0.169-0.155 0.014-0.296 0.127-0.437 0.183 0.099 0.127 0.183 0.296 0.31 0.395 1.002 0.649 2.004 1.298 3.104 2.004-0.564 0.339-1.058 0.649-1.566 0.917-0.099 0.056-0.254 0-0.381-0.028-0.451-0.141-0.903-0.296-1.369-0.423-0.155-0.042-0.325-0.028-0.48-0.028-0.028 0.056-0.056 0.099-0.085 0.155 0.677 0.621 1.34 1.242 2.060 1.919-0.48 0.296-0.931 0.578-1.397 0.832-0.085 0.056-0.254 0.014-0.367-0.028-0.325-0.113-0.635-0.254-0.974-0.353-0.113-0.042-0.268 0.014-0.395 0.028 0.042 0.127 0.042 0.296 0.113 0.395 0.367 0.451 0.762 0.889 1.185 1.369-1.072 0.847-2.102 1.665-3.175 2.511-1.058-0.832-2.116-1.665-3.189-2.511 0.409-0.48 0.79-0.903 1.143-1.34 0.085-0.113 0.085-0.282 0.127-0.423-0.141 0-0.268-0.014-0.409-0.014-0.028 0-0.071 0.014-0.099 0.028-1.002 0.691-1.778 0.127-2.568-0.522z"></path>
</svg>
