<!-- Generated by IcoMoon.io -->
<svg version="1.1" xmlns="http://www.w3.org/2000/svg" width="32" height="32" viewBox="0 0 32 32">
<title>USD</title>
<path d="M16 32c-8.819 0-16-7.181-16-16s7.181-16 16-16c8.819 0 16 7.181 16 16s-7.181 16-16 16v0zM16 1.562c-7.962 0-14.438 6.477-14.438 14.438s6.477 14.438 14.438 14.438c7.962 0 14.438-6.477 14.438-14.438s-6.477-14.438-14.438-14.438v0z"></path>
<path d="M20.173 15.629c-0.768-0.614-1.894-1.203-3.456-1.818-1.702-0.666-2.394-1.062-2.675-1.293-0.333-0.269-0.486-0.614-0.486-1.101 0-0.346 0-1.395 2.739-1.395 1.472 0 2.803 0.243 3.968 0.704 0.141 0.051 0.294 0.051 0.422-0.026 0.128-0.064 0.23-0.192 0.256-0.346l0.525-2.458c0.051-0.256-0.102-0.512-0.358-0.589-0.96-0.269-2.202-0.435-3.699-0.499v-2.048c0.013-0.141-0.038-0.282-0.128-0.384s-0.23-0.166-0.371-0.166h-1.728c-0.141 0-0.269 0.064-0.371 0.166s-0.141 0.243-0.128 0.384l0.013 2.189c-1.51 0.23-2.675 0.794-3.469 1.677-0.858 0.973-1.306 2.112-1.306 3.392 0 1.472 0.627 2.726 1.882 3.725 0.73 0.576 1.869 1.165 3.494 1.818 1.229 0.486 2.086 0.909 2.522 1.267 0.461 0.371 0.691 0.794 0.691 1.293 0 0.947-1.101 1.421-3.264 1.421-1.587 0-3.098-0.269-4.506-0.806-0.141-0.051-0.294-0.038-0.422 0.026-0.128 0.077-0.218 0.192-0.256 0.333l-0.525 2.483c-0.051 0.269 0.115 0.538 0.384 0.589 1.498 0.346 3.085 0.538 4.749 0.563l0.013 2.061c-0.013 0.141 0.026 0.269 0.115 0.371s0.23 0.154 0.371 0.154h1.754c0 0 0 0 0 0 0.282 0 0.499-0.23 0.499-0.499 0-0.038 0-0.077-0.013-0.115l0.013-2.15c3.046-0.538 4.646-2.342 4.646-5.248 0-1.421-0.64-2.662-1.894-3.674z"></path>
</svg>
