<!-- Generated by IcoMoon.io -->
<svg version="1.1" xmlns="http://www.w3.org/2000/svg" width="32" height="32" viewBox="0 0 32 32">
<title>USDC</title>
<path d="M21.841 19.104c0 2.173-1.157 3.838-3.386 4.543-0.889 0.282-1.157 0.677-1.129 1.566 0.056 1.411-0.353 1.707-1.764 1.538-0.621-0.071-0.917-0.381-0.917-0.988 0-0.155-0.028-0.31 0-0.466 0.141-0.931-0.183-1.383-1.171-1.623-1.721-0.395-2.878-1.538-3.4-3.259-0.339-1.115-0.085-1.397 1.044-1.481 0.988-0.071 1.594 0.155 1.905 1.227 0.339 1.171 1.411 1.51 2.511 1.594 1.185 0.099 2.3-0.071 3.048-1.115 0.804-1.115 0.381-2.624-0.931-3.076-0.875-0.31-1.82-0.423-2.737-0.649-0.607-0.141-1.227-0.282-1.82-0.466-1.764-0.564-2.751-1.778-2.85-3.626-0.099-1.764 0.663-3.104 2.159-4.021 0.169-0.099 0.339-0.226 0.522-0.254 1.312-0.226 1.919-0.889 1.721-2.314-0.127-0.889 0.621-0.931 1.284-0.931 0.635 0.014 1.312-0.042 1.369 0.875 0.014 0.24 0.042 0.48 0.014 0.705-0.099 0.818 0.169 1.27 1.030 1.524 1.453 0.423 2.399 1.453 2.836 2.907 0.254 0.832 0.014 1.185-0.832 1.27-0.861 0.085-1.538 0-2.004-0.988-0.663-1.467-3.386-1.834-4.614-0.734-0.988 0.889-0.818 2.483 0.395 3.034 0.663 0.296 1.425 0.409 2.145 0.578 0.917 0.226 1.862 0.339 2.737 0.649 2.004 0.663 2.836 1.905 2.836 3.979z"></path>
<path d="M0 16c0-6.575 3.908-12.388 9.947-14.829 0.071-0.028 0.141-0.056 0.212-0.085 1.171-0.466 1.594-0.409 1.834 0.183 0.367 0.917-0.042 1.919-0.861 2.413-1.411 0.832-2.949 1.552-4.134 2.653-7.041 6.561-5.136 17.848 3.64 21.813 0.917 0.409 1.538 0.861 1.439 1.975-0.099 1.072-0.423 1.411-1.411 1.002-1.227-0.508-2.469-1.058-3.57-1.778-4.543-3.005-7.097-7.901-7.097-13.347z"></path>
<path d="M32 15.986c0.014 6.631-3.894 12.459-9.989 14.899-0.367 0.141-0.734 0.282-1.115 0.367-0.508 0.113-0.804-0.141-0.931-0.649-0.268-1.143 0.056-1.848 1.171-2.342 3.076-1.34 5.39-3.485 6.829-6.519 3.245-6.815 0.268-14.801-6.645-17.877-1.27-0.564-1.538-1.016-1.383-2.229 0.085-0.705 0.437-0.974 1.115-0.804 0.339 0.085 0.677 0.212 1.002 0.353 6.039 2.413 9.933 8.24 9.947 14.801z"></path>
</svg>
