<?xml version="1.0" encoding="utf-8"?>
<!-- Generator: Adobe Illustrator 22.1.0, SVG Export Plug-In . SVG Version: 6.00 Build 0)  -->
<svg version="1.1" id="Layer_1" xmlns="http://www.w3.org/2000/svg" xmlns:xlink="http://www.w3.org/1999/xlink" x="0px" y="0px"
	 viewBox="0 0 250 250" style="enable-background:new 0 0 250 250;" xml:space="preserve">
<g>
	<path d="M144.5,0.3c23.9,0.6,44.4,8,61.5,23.7c19.5,17.9,30.7,40.3,34.3,66.3c1.9,13.8,1.2,27.7-2.2,41.3c-1,4-1.5,8-1.2,12.2
		c0.8,11.1-1,21.8-5.1,32.2c-5.6,14.1-13.9,26.5-24.9,36.8c-17.2,16.2-37.5,26-60.9,29.2c-4.3,0.6-8.8,0.4-13.1,1
		c-4,0.6-7.9,1.7-11.8,2.6c-10.3,2.5-20.7,4-31.3,4.2c-12.8,0.3-25.3-1.2-37.1-6.4c-7.3-3.2-13.1-8.4-17.9-14.6
		c-11.6-15.1-17.6-32.5-20-51.1c-1-7.7-0.9-15.5-1.6-23.3c-0.2-2.9-1.1-5.7-1.7-8.6c-1.8-8.4-2.8-17-2.7-25.6
		c0.2-17.1,5.7-32.3,16.4-45.6c7.3-9.1,16-16.5,25.4-23.2c3.1-2.2,5.5-5.5,8.1-8.4c9.7-11.1,21-20.3,33.6-27.8
		c13.2-7.8,27.4-12.7,42.6-14.4C138.5,0.5,141.9,0.5,144.5,0.3z M136.1,224.6c3.9-0.2,7.1,0.6,9.8-1.8c5.7-5,11.8-9.7,17.3-14.9
		c12.7-11.9,24.3-24.8,35.1-38.5c10.5-13.3,19.7-27.4,26.2-43.2c0.8-1.9,0.8-3.5-0.2-5.3c-7.1-13.9-16.9-25.5-28.9-35.4
		c-14.8-12.1-31.4-20.7-49.9-25.6c-13.4-3.5-27.1-5.1-41-4c-7,0.5-14,1.4-21,2.1c-2.3,0.2-4.1,1.2-5.7,2.9
		c-13.1,13.1-24.1,27.8-33.3,44C36,120,29.7,136,26.8,153.3c-0.4,2.3-0.2,4.2,1.1,6.3c9.9,16.3,22.7,30,38.1,41.2
		C87.1,216.2,110.8,223.8,136.1,224.6z M229.3,111.1c0.4-1.4,0.7-2.1,0.8-2.8c2.1-10,2.8-20.1,1.1-30.2
		c-3.1-18.9-12.3-34.3-26.8-46.5c-11.8-10-26.3-12.7-41.5-12.4c-14,0.3-27.2,3.9-40,9.5c-0.9,0.4-1.8,0.9-3.2,1.6
		c2.4,0.3,4.1,0.6,5.8,0.7c10.9,0.8,21.3,3.6,31.1,8.4c17.7,8.5,33.5,19.8,47,34.1c8.3,8.8,15.5,18.3,21.1,29.1
		C226.3,105.1,227.6,107.8,229.3,111.1z M109.3,241.6c-17.3-3.6-33.3-9.8-47.8-20c-14.4-10.1-25.8-22.9-35.2-37.7
		c3.1,21.7,11.3,40.8,30.8,52.3C73.3,245.9,91.1,247,109.3,241.6z M231.5,152.5c-11,24.8-26.9,45-47.8,62
		C207,205.3,230.6,178.8,231.5,152.5z M15.8,128.9c3.1-17.4,9-33.5,17.2-49.3C19.2,85.7,9.5,113.9,15.8,128.9z"/>
	<path d="M153.8,140.8c0,10.2,0.1,20.5,0,30.7c0,2.3-0.3,4.7-0.9,7c-1.2,5.2-5.5,8.7-10.8,9.1c-3.7,0.3-7.5,0.4-11.2,0.4
		c-7.4,0-14.8-0.1-22.1-0.4c-6.1-0.2-10.4-4.2-11.4-10.1c-0.4-2.1-0.6-4.2-0.6-6.3c0-20.5,0-41.1,0-61.6c0-4.2,0.2-4.4,4.4-4.4
		c2.6,0,5.2,0,7.8,0c3.9,0,4,0.1,4,3.9c0,19.8,0,39.6,0,59.4c0,4.7,0.1,4.8,4.8,4.8c5,0,9.9,0,14.9,0c4.6,0,4.7-0.1,4.7-4.6
		c0-19.6,0-39.3,0-58.9c0-4.5,0.1-4.6,4.7-4.6c2.6,0,5.2,0,7.8,0c3.7,0,4.1,0.3,4.1,4C153.8,119.7,153.8,130.2,153.8,140.8z"/>
	<path d="M133.5,133.4c0,10.2,0,20.3,0,30.5c0,3-0.2,3.2-3.1,3.2c-3.8,0-7.6,0-11.5,0c-1.9,0-2.6-0.8-2.6-2.6
		c0.1-15.6,0.2-31.2,0.3-46.8c0-5.2,0-10.4,0.1-15.6c0-1.7-0.7-2.3-2.3-2.3c-4.8,0.1-9.6,0-14.4,0c-3,0-3.2-0.3-3.3-3.2
		c0-3.2,0-6.5,0-9.7c0-2.9,0.3-3.2,3.2-3.2c13.4,0,26.8,0,40.2,0c3.5,0,7,0.1,10.5,0c1.9,0,2.9,0.6,2.8,2.6c-0.1,3.7-0.1,7.3,0,11
		c0,1.9-0.7,2.6-2.6,2.6c-4.4-0.1-8.8,0-13.2,0c-4.2,0-4.2,0-4.2,4.3C133.5,113.9,133.5,123.6,133.5,133.4z"/>
</g>
</svg>
