<!-- Generated by IcoMoon.io -->
<svg version="1.1" xmlns="http://www.w3.org/2000/svg" width="32" height="32" viewBox="0 0 32 32">
<title>UTK</title>
<path d="M18.496 0.038c3.059 0.077 5.683 1.024 7.872 3.034 2.496 2.291 3.93 5.158 4.39 8.486 0.243 1.766 0.154 3.546-0.282 5.286-0.128 0.512-0.192 1.024-0.154 1.562 0.102 1.421-0.128 2.79-0.653 4.122-0.717 1.805-1.779 3.392-3.187 4.71-2.202 2.074-4.8 3.328-7.795 3.738-0.55 0.077-1.126 0.051-1.677 0.128-0.512 0.077-1.011 0.218-1.51 0.333-1.318 0.32-2.65 0.512-4.006 0.538-1.638 0.038-3.238-0.154-4.749-0.819-0.934-0.41-1.677-1.075-2.291-1.869-1.485-1.933-2.253-4.16-2.56-6.541-0.128-0.986-0.115-1.984-0.205-2.982-0.026-0.371-0.141-0.73-0.218-1.101-0.23-1.075-0.358-2.176-0.346-3.277 0.026-2.189 0.73-4.134 2.099-5.837 0.934-1.165 2.048-2.112 3.251-2.97 0.397-0.282 0.704-0.704 1.037-1.075 1.242-1.421 2.688-2.598 4.301-3.558 1.69-0.998 3.507-1.626 5.453-1.843 0.461-0.038 0.896-0.038 1.229-0.064zM17.421 28.749c0.499-0.026 0.909 0.077 1.254-0.23 0.73-0.64 1.51-1.242 2.214-1.907 1.626-1.523 3.11-3.174 4.493-4.928 1.344-1.702 2.522-3.507 3.354-5.53 0.102-0.243 0.102-0.448-0.026-0.678-0.909-1.779-2.163-3.264-3.699-4.531-1.894-1.549-4.019-2.65-6.387-3.277-1.715-0.448-3.469-0.653-5.248-0.512-0.896 0.064-1.792 0.179-2.688 0.269-0.294 0.026-0.525 0.154-0.73 0.371-1.677 1.677-3.085 3.558-4.262 5.632-1.088 1.933-1.894 3.981-2.266 6.195-0.051 0.294-0.026 0.538 0.141 0.806 1.267 2.086 2.906 3.84 4.877 5.274 2.701 1.971 5.734 2.944 8.973 3.046zM29.35 14.221c0.051-0.179 0.090-0.269 0.102-0.358 0.269-1.28 0.358-2.573 0.141-3.866-0.397-2.419-1.574-4.39-3.43-5.952-1.51-1.28-3.366-1.626-5.312-1.587-1.792 0.038-3.482 0.499-5.12 1.216-0.115 0.051-0.23 0.115-0.41 0.205 0.307 0.038 0.525 0.077 0.742 0.090 1.395 0.102 2.726 0.461 3.981 1.075 2.266 1.088 4.288 2.534 6.016 4.365 1.062 1.126 1.984 2.342 2.701 3.725 0.205 0.32 0.371 0.666 0.589 1.088zM13.99 30.925c-2.214-0.461-4.262-1.254-6.118-2.56-1.843-1.293-3.302-2.931-4.506-4.826 0.397 2.778 1.446 5.222 3.942 6.694 2.074 1.242 4.352 1.382 6.682 0.691zM29.632 19.52c-1.408 3.174-3.443 5.76-6.118 7.936 2.982-1.178 6.003-4.57 6.118-7.936zM2.022 16.499c0.397-2.227 1.152-4.288 2.202-6.31-1.766 0.781-3.008 4.39-2.202 6.31z"></path>
<path d="M19.686 18.022c0 1.306 0.013 2.624 0 3.93 0 0.294-0.038 0.602-0.115 0.896-0.154 0.666-0.704 1.114-1.382 1.165-0.474 0.038-0.96 0.051-1.434 0.051-0.947 0-1.894-0.013-2.829-0.051-0.781-0.026-1.331-0.538-1.459-1.293-0.051-0.269-0.077-0.538-0.077-0.806 0-2.624 0-5.261 0-7.885 0-0.538 0.026-0.563 0.563-0.563 0.333 0 0.666 0 0.998 0 0.499 0 0.512 0.013 0.512 0.499 0 2.534 0 5.069 0 7.603 0 0.602 0.013 0.614 0.614 0.614 0.64 0 1.267 0 1.907 0 0.589 0 0.602-0.013 0.602-0.589 0-2.509 0-5.030 0-7.539 0-0.576 0.013-0.589 0.602-0.589 0.333 0 0.666 0 0.998 0 0.474 0 0.525 0.038 0.525 0.512-0.026 1.344-0.026 2.688-0.026 4.045z"></path>
<path d="M17.088 17.075c0 1.306 0 2.598 0 3.904 0 0.384-0.026 0.41-0.397 0.41-0.486 0-0.973 0-1.472 0-0.243 0-0.333-0.102-0.333-0.333 0.013-1.997 0.026-3.994 0.038-5.99 0-0.666 0-1.331 0.013-1.997 0-0.218-0.090-0.294-0.294-0.294-0.614 0.013-1.229 0-1.843 0-0.384 0-0.41-0.038-0.422-0.41 0-0.41 0-0.832 0-1.242 0-0.371 0.038-0.41 0.41-0.41 1.715 0 3.43 0 5.146 0 0.448 0 0.896 0.013 1.344 0 0.243 0 0.371 0.077 0.358 0.333-0.013 0.474-0.013 0.934 0 1.408 0 0.243-0.090 0.333-0.333 0.333-0.563-0.013-1.126 0-1.69 0-0.538 0-0.538 0-0.538 0.55 0.013 1.242 0.013 2.483 0.013 3.738z"></path>
</svg>
