<!-- Generated by IcoMoon.io -->
<svg version="1.1" xmlns="http://www.w3.org/2000/svg" width="32" height="32" viewBox="0 0 32 32">
<title>UTT</title>
<path d="M16.367 0.056c3.541 0 7.097 0.014 10.638-0.014 0.593 0 0.748 0.169 0.748 0.748-0.014 6.49 0 12.995-0.014 19.485-0.014 5.616-3.936 10.37-9.326 11.386-6.053 1.143-12.063-2.963-13.206-9.044-0.155-0.847-0.24-1.721-0.24-2.582-0.028-6.377 0-12.755-0.028-19.146 0-0.677 0.169-0.861 0.847-0.861 3.527 0.042 7.055 0.028 10.582 0.028zM14.631 28.317c0-0.353 0-0.607 0-0.861 0-3.287 0-6.561 0-9.848 0-4.656 0-9.312 0.014-13.968 0-0.536-0.141-0.748-0.705-0.734-1.623 0.028-3.231 0.014-4.854 0-0.423 0-0.649 0.085-0.649 0.578 0.014 5.855-0.028 11.711 0.042 17.566 0.042 3.358 2.243 6.138 5.432 7.125 0.198 0.056 0.409 0.085 0.72 0.141zM18.060 28.332c0.353-0.085 0.593-0.127 0.818-0.198 3.259-1.058 5.333-3.824 5.362-7.309 0.042-5.742 0.014-11.485 0.028-17.227 0-0.578-0.212-0.705-0.734-0.705-1.51 0.028-3.019 0.014-4.529 0.014-0.945 0-0.945 0-0.945 0.945 0 7.873 0 15.746 0 23.619 0 0.24 0 0.48 0 0.861z"></path>
</svg>
