<?xml version="1.0" encoding="utf-8"?>
<!-- Generator: Adobe Illustrator 22.1.0, SVG Export Plug-In . SVG Version: 6.00 Build 0)  -->
<svg version="1.1" id="Layer_1" xmlns="http://www.w3.org/2000/svg" xmlns:xlink="http://www.w3.org/1999/xlink" x="0px" y="0px"
	 viewBox="0 0 226.8 226.8" style="enable-background:new 0 0 226.8 226.8;" xml:space="preserve">
<g>
	<path d="M116,0.4c25.1,0,50.3,0.1,75.4-0.1c4.2,0,5.3,1.2,5.3,5.3c-0.1,46,0,92.1-0.1,138.1c-0.1,39.8-27.9,73.5-66.1,80.7
		c-42.9,8.1-85.5-21-93.6-64.1c-1.1-6-1.7-12.2-1.7-18.3C35,96.8,35.2,51.6,35,6.3c0-4.8,1.2-6.1,6-6.1C66,0.5,91,0.4,116,0.4z
		 M103.7,200.7c0-2.5,0-4.3,0-6.1c0-23.3,0-46.5,0-69.8c0-33,0-66,0.1-99c0-3.8-1-5.3-5-5.2c-11.5,0.2-22.9,0.1-34.4,0
		c-3,0-4.6,0.6-4.6,4.1c0.1,41.5-0.2,83,0.3,124.5c0.3,23.8,15.9,43.5,38.5,50.5C100,200.1,101.5,200.3,103.7,200.7z M128,200.8
		c2.5-0.6,4.2-0.9,5.8-1.4c23.1-7.5,37.8-27.1,38-51.8c0.3-40.7,0.1-81.4,0.2-122.1c0-4.1-1.5-5-5.2-5c-10.7,0.2-21.4,0.1-32.1,0.1
		c-6.7,0-6.7,0-6.7,6.7c0,55.8,0,111.6,0,167.4C128,196.4,128,198.1,128,200.8z"/>
</g>
</svg>
