<?xml version="1.0" encoding="utf-8"?>
<!-- Generator: Adobe Illustrator 22.1.0, SVG Export Plug-In . SVG Version: 6.00 Build 0)  -->
<svg version="1.1" id="Layer_1" xmlns="http://www.w3.org/2000/svg" xmlns:xlink="http://www.w3.org/1999/xlink" x="0px" y="0px"
	 viewBox="0 0 226.8 226.8" style="enable-background:new 0 0 226.8 226.8;" xml:space="preserve">
<g>
	<path d="M191.8,56.7c0.1,0.9,0.3,1.9,0.3,2.8c0,31.4,0.5,62.9-0.1,94.3c-0.7,35-21.4,60.7-55.9,69c-19.6,4.7-39.1,4-57.9-3.6
		c-25.9-10.5-39.8-30.3-43-57.8c-0.5-4.5-0.6-9.1-0.6-13.6c-0.1-35.8,0-71.6,0-107.3c0-1,0-2.1,0-3.4c1.3-0.1,2.3-0.2,3.3-0.2
		c12.3,0,24.6,0.1,36.8-0.1c2.7,0,3.3,0.9,3.3,3.4c-0.1,35.7-0.1,71.3,0,107c0,7.4,1.2,14.7,4.6,21.5c4.3,8.7,11,14.4,20.6,16.4
		c9.5,2,18.9,1.8,27.8-2.8c10.2-5.3,15-14.3,16.6-25.1c0.7-4.4,0.7-8.8,0.7-13.3c0.1-29.3,0-58.6,0-88c3.1,2.6,5.9,5.7,9.5,7.5
		c3.5,1.8,7.8,3,11.7,3.1c4.1,0.1,8.4-0.9,12.2-2.5C185.2,62.4,188.2,59.4,191.8,56.7z"/>
	<path d="M169.7,1c13.3,0.1,22.3,10,22.2,22c-0.1,12-8.9,21.9-22.2,22c-11.6,0.1-21.9-9.6-22-22.2C147.5,10.6,158.1,1,169.7,1z"/>
</g>
</svg>
