<!-- Generated by IcoMoon.io -->
<svg version="1.1" xmlns="http://www.w3.org/2000/svg" width="32" height="32" viewBox="0 0 32 32">
<title>UUU</title>
<path d="M27.062 8c0.014 0.127 0.042 0.268 0.042 0.395 0 4.43 0.071 8.875-0.014 13.305-0.099 4.938-3.019 8.564-7.887 9.735-2.765 0.663-5.517 0.564-8.169-0.508-3.654-1.481-5.616-4.275-6.067-8.155-0.071-0.635-0.085-1.284-0.085-1.919-0.014-5.051 0-10.102 0-15.139 0-0.141 0-0.296 0-0.48 0.183-0.014 0.324-0.028 0.466-0.028 1.735 0 3.471 0.014 5.192-0.014 0.381 0 0.466 0.127 0.466 0.48-0.014 5.037-0.014 10.060 0 15.097 0 1.044 0.169 2.074 0.649 3.034 0.607 1.227 1.552 2.032 2.907 2.314 1.34 0.282 2.667 0.254 3.922-0.395 1.439-0.748 2.116-2.018 2.342-3.541 0.099-0.621 0.099-1.242 0.099-1.877 0.014-4.134 0-8.268 0-12.416 0.437 0.367 0.832 0.804 1.34 1.058 0.494 0.254 1.101 0.423 1.651 0.437 0.578 0.014 1.185-0.127 1.721-0.353 0.494-0.226 0.917-0.649 1.425-1.030z"></path>
<path d="M23.944 0.141c1.877 0.014 3.146 1.411 3.132 3.104s-1.256 3.090-3.132 3.104c-1.637 0.014-3.090-1.354-3.104-3.132-0.028-1.721 1.467-3.076 3.104-3.076z"></path>
</svg>
