<!-- Generated by IcoMoon.io -->
<svg version="1.1" xmlns="http://www.w3.org/2000/svg" width="32" height="32" viewBox="0 0 32 32">
<title>VBTC</title>
<path d="M0.099 12.346c0.423-0.014 0.861-0.056 1.284-0.056 3.132 0 6.25-0.028 9.383 0.014 1.002 0.014 1.51-0.296 1.82-1.284 0.903-2.949 1.891-5.87 2.85-8.804 0.127-0.409 0.296-0.79 0.578-1.538 0.508 1.524 0.903 2.681 1.284 3.852 0.705 2.13 1.453 4.247 2.088 6.392 0.296 1.016 0.79 1.397 1.877 1.383 3.118-0.056 6.25-0.028 9.383-0.028 0.423 0 0.847 0 1.27 0 0.028 0.099 0.056 0.198 0.085 0.296-0.254 0.226-0.48 0.466-0.748 0.663-2.638 1.905-5.249 3.824-7.915 5.658-0.804 0.55-1.002 1.086-0.677 2.004 1.016 2.907 1.961 5.855 2.921 8.776 0.127 0.409 0.254 0.818 0.48 1.58-0.578-0.339-0.875-0.48-1.143-0.677-2.61-1.862-5.249-3.683-7.817-5.616-0.875-0.663-1.481-0.593-2.314 0.028-2.272 1.707-4.6 3.344-6.914 4.995-0.508 0.367-1.044 0.72-1.806 0.945 0.099-0.395 0.183-0.79 0.31-1.171 0.945-2.935 1.862-5.884 2.892-8.79 0.367-1.044 0.099-1.594-0.748-2.173-2.596-1.778-5.136-3.654-7.704-5.503-0.282-0.198-0.536-0.437-0.818-0.663 0.028-0.099 0.071-0.183 0.099-0.282z"></path>
</svg>
