<!-- Generated by IcoMoon.io -->
<svg version="1.1" xmlns="http://www.w3.org/2000/svg" width="32" height="32" viewBox="0 0 32 32">
<title>VCASH_CLIENT</title>
<path d="M14.462 0c1.030 0 2.046 0 3.076 0 0.226 0.056 0.437 0.141 0.677 0.169 4.12 0.621 7.506 2.54 10.173 5.728 0.155 0.183 0.282 0.381 0.508 0.691-1.552 0-2.935 0.028-4.303-0.014-0.607-0.014-1.002 0.155-1.383 0.663-2.892 3.908-5.827 7.788-8.748 11.683-0.127 0.169-0.268 0.339-0.409 0.508-0.042-0.014-0.085-0.042-0.127-0.056 0-4.233 0-8.466 0-12.783-1.27 0-2.483 0.085-3.683-0.028-1.115-0.099-1.848 0.212-2.3 1.27-0.296 0.691-0.762 1.298-1.228 2.060 0.959 0 1.764 0 2.653 0 0 0.339 0 0.607 0 0.875 0 4.924 0.014 9.848-0.014 14.787 0 0.564 0.141 0.734 0.705 0.72 1.467-0.042 2.949-0.042 4.416 0 0.607 0.014 0.959-0.183 1.298-0.677 4.247-6.109 8.522-12.205 12.783-18.3 0.127-0.183 0.268-0.353 0.409-0.55 0.959 1.072 2.060 3.4 2.511 5.277 0.198 0.804 0.353 1.623 0.522 2.427 0 1.030 0 2.046 0 3.076-0.056 0.226-0.141 0.437-0.169 0.677-1.27 8.804-9.383 14.914-18.116 13.616-6.519-0.974-11.697-5.7-13.249-12.106-0.169-0.72-0.31-1.453-0.466-2.173 0-1.030 0-2.046 0-3.076 0.056-0.226 0.141-0.437 0.169-0.663 0.931-6.519 5.658-11.739 12.063-13.305 0.734-0.183 1.481-0.325 2.229-0.494z"></path>
</svg>
