<!-- Generated by IcoMoon.io -->
<svg version="1.1" xmlns="http://www.w3.org/2000/svg" width="32" height="32" viewBox="0 0 32 32">
<title>VEE</title>
<path d="M10.624 17.062c-0.051 0.269-0.102 0.55-0.154 0.819 0 0.026-0.013 0.051-0.013 0.077 0 0.090-0.038 0.115-0.141 0.115-1.574 0-3.136 0-4.71 0-0.128 0-0.141-0.013-0.141-0.141 0-0.064 0.026-0.077 0.077-0.077 0.115-0.013 0.23-0.026 0.346-0.064 0.192-0.051 0.294-0.205 0.32-0.397 0.013-0.090 0.013-0.179 0.013-0.269 0-1.293 0-2.586 0-3.878 0-0.128-0.013-0.256-0.038-0.371-0.038-0.205-0.192-0.307-0.384-0.333-0.077-0.013-0.141-0.026-0.218-0.026-0.102 0-0.102-0.064-0.102-0.128 0-0.090 0.038-0.102 0.115-0.102 0.64 0 1.293 0 1.933 0 0.307 0 0.614 0 0.934 0 0 0.077 0 0.141 0 0.218-0.102 0.013-0.205 0.026-0.307 0.038-0.384 0.038-0.525 0.192-0.538 0.576 0 0.077 0 0.166 0 0.243 0 1.306 0 2.598 0 3.904 0 0.384 0.102 0.512 0.512 0.538 0.512 0.026 0.986-0.038 1.446-0.294 0.307-0.179 0.512-0.448 0.691-0.742 0.077-0.128 0.077-0.218 0.026-0.358-0.256-0.627-0.269-1.28-0.128-1.946 0.154-0.717 0.55-1.293 1.126-1.741 0.333-0.256 0.717-0.41 1.126-0.486 0.614-0.115 1.229-0.090 1.818 0.128 0.87 0.32 1.459 0.934 1.754 1.818 0.166 0.512 0.179 1.037 0.115 1.562-0.141 1.178-1.050 2.138-2.138 2.406-0.678 0.166-1.344 0.154-1.997-0.077-0.512-0.179-0.934-0.499-1.28-0.934-0.013-0.026-0.038-0.038-0.051-0.064 0.013-0.013 0-0.013-0.013-0.013zM14.63 15.078c-0.013-0.166-0.026-0.461-0.064-0.755-0.038-0.397-0.141-0.781-0.333-1.139-0.154-0.282-0.358-0.525-0.678-0.64-0.602-0.23-1.254-0.013-1.6 0.614-0.192 0.371-0.294 0.768-0.32 1.165-0.038 0.422-0.051 0.832-0.038 1.254 0.013 0.499 0.077 0.986 0.256 1.459 0.179 0.448 0.474 0.794 0.973 0.896 0.358 0.077 0.691 0.013 0.998-0.205 0.333-0.243 0.499-0.589 0.602-0.973 0.166-0.499 0.192-1.024 0.205-1.677z"></path>
<path d="M24.986 15.104c0.051-0.038 0.064-0.051 0.090-0.064 0.64-0.653 1.293-1.306 1.933-1.958 0.077-0.077 0.128-0.179 0.128-0.294s-0.051-0.179-0.166-0.205c-0.179-0.038-0.358-0.051-0.538-0.077 0-0.051 0-0.115 0-0.192 0.026 0 0.051-0.013 0.090-0.013 0.755 0 1.523 0 2.278 0 0.051 0 0.102-0.013 0.102 0.077 0 0.064 0.013 0.128-0.090 0.154-0.205 0.038-0.41 0.077-0.602 0.141-0.346 0.128-0.614 0.371-0.883 0.627-0.384 0.358-0.742 0.73-1.126 1.101-0.051 0.051-0.051 0.090 0 0.141 0.192 0.23 0.371 0.474 0.563 0.704 0.026 0.026 0.077 0.051 0.128 0.051 0.102 0.013 0.205 0.013 0.307 0 0.077 0 0.115 0.026 0.154 0.077 0.486 0.781 0.986 1.549 1.472 2.33 0.051 0.077 0.102 0.141 0.192 0.154 0.115 0.013 0.218 0.026 0.154 0.205 0.013 0 0.026-0.013 0.038-0.013 0.077-0.115 0.154-0.23 0.23-0.346 0.499-0.768 1.011-1.536 1.51-2.304 0.038-0.064 0.090-0.102 0.179-0.102 0.269 0 0.538 0 0.806 0 0.038 0 0.064 0 0.128 0-0.986 1.536-1.958 3.046-2.944 4.57-0.038-0.051-0.051-0.077-0.077-0.102-0.346-0.525-0.678-1.050-1.024-1.587-0.038-0.064-0.090-0.090-0.154-0.090-0.474 0-0.96 0-1.434 0-0.038 0-0.064 0-0.128 0 0-0.064-0.013-0.115 0-0.166 0-0.026 0.051-0.051 0.077-0.051 0.115-0.013 0.23-0.013 0.346-0.026 0.243-0.013 0.307-0.128 0.166-0.333s-0.307-0.41-0.461-0.602c-0.384-0.486-0.768-0.96-1.152-1.434-0.064-0.077-0.102-0.077-0.166-0.013-0.102 0.090-0.128 0.179-0.128 0.307 0.013 0.474 0 0.934 0 1.408 0 0.090 0.013 0.192 0.026 0.282 0.038 0.218 0.205 0.358 0.435 0.397 0.064 0.013 0.115 0.013 0.179 0.013 0.090 0 0.102 0.038 0.102 0.115 0 0.090-0.026 0.115-0.115 0.115-0.883 0-1.754 0-2.637 0-0.051 0-0.128 0.026-0.115-0.077 0-0.077-0.013-0.154 0.115-0.154 0.077 0 0.154-0.026 0.23-0.038 0.205-0.038 0.346-0.179 0.384-0.384 0.013-0.102 0.026-0.192 0.026-0.294 0-1.293 0-2.586 0-3.878 0-0.115-0.013-0.218-0.026-0.333-0.026-0.205-0.205-0.346-0.448-0.371-0.051 0-0.102-0.013-0.141-0.013-0.128-0.013-0.154-0.064-0.115-0.179 0.013-0.026 0.051-0.038 0.090-0.038 0.192 0 0.384 0 0.576 0 0.704 0 1.408 0 2.112 0 0.051 0 0.115-0.026 0.115 0.064 0 0.064 0.026 0.154-0.090 0.166-0.102 0.013-0.192 0.026-0.294 0.051-0.23 0.051-0.333 0.179-0.346 0.41-0.013 0.154-0.026 0.307-0.026 0.474 0 0.486 0 0.986 0 1.472-0.038 0-0.038 0.051-0.038 0.128z"></path>
<path d="M-0.038 18.074c0-0.038 0-0.064 0-0.090 0-0.038 0-0.077 0-0.115 0.090-0.013 0.166-0.026 0.256-0.038 0.294-0.038 0.448-0.192 0.486-0.486 0.013-0.064 0.013-0.128 0.013-0.192 0-1.318 0-2.637 0-3.955 0-0.102-0.013-0.205-0.038-0.294-0.051-0.218-0.205-0.346-0.422-0.371-0.038 0-0.077-0.013-0.128-0.013-0.179-0.026-0.179-0.026-0.154-0.218 0-0.013 0.013-0.013 0.026-0.013 0.96 0 1.92-0.013 2.893 0.013 0.474 0.013 0.947 0.102 1.37 0.358 0.614 0.371 0.704 1.203 0.333 1.69-0.141 0.192-0.346 0.307-0.563 0.41-0.115 0.051-0.243 0.090-0.358 0.128-0.026 0.013-0.051 0.038-0.077 0.051 0.026 0.026 0.051 0.051 0.077 0.064 0.294 0.064 0.55 0.179 0.806 0.333 0.819 0.512 0.858 1.741-0.038 2.304-0.358 0.23-0.755 0.358-1.165 0.397-0.346 0.026-0.704 0.038-1.050 0.038-0.717 0-1.434 0-2.15 0-0.038 0-0.077 0-0.115 0zM2.061 15.142c0 0.064 0 0.102 0 0.141 0 0.614 0 1.216 0 1.83 0 0.077 0 0.166 0 0.243 0.026 0.282 0.166 0.422 0.448 0.422 0.090 0 0.166 0 0.256-0.013 0.358-0.051 0.627-0.218 0.755-0.576 0.128-0.384 0.141-0.768 0.064-1.152-0.038-0.23-0.128-0.435-0.307-0.589-0.346-0.307-0.768-0.294-1.216-0.307zM2.061 13.85c0 0.307 0 0.614 0 0.922 0 0.090 0.026 0.128 0.115 0.115 0.192-0.026 0.397-0.038 0.589-0.077 0.269-0.051 0.461-0.218 0.525-0.474 0.051-0.166 0.077-0.333 0.090-0.512 0.026-0.307-0.013-0.627-0.154-0.909-0.038-0.090-0.102-0.166-0.179-0.218-0.192-0.154-0.41-0.166-0.64-0.141-0.282 0.038-0.358 0.128-0.358 0.41 0.013 0.307 0.013 0.589 0.013 0.883z"></path>
<path d="M22.234 16.973c-0.41 0.461-0.819 0.858-1.382 1.075-0.486 0.192-0.986 0.218-1.498 0.154-0.691-0.077-1.28-0.358-1.779-0.845-0.358-0.346-0.589-0.768-0.704-1.242-0.166-0.704-0.141-1.408 0.102-2.086 0.192-0.512 0.525-0.947 0.96-1.267 0.87-0.64 1.83-0.742 2.854-0.397 0.166 0.051 0.333 0.102 0.499 0.179 0.23 0.102 0.397-0.013 0.512-0.243 0.013-0.038 0.026-0.090 0.051-0.102 0.064-0.013 0.128-0.013 0.192-0.013 0.013 0 0.026 0.038 0.026 0.051 0 0.64 0 1.267 0 1.907 0 0.013-0.013 0.013-0.013 0.026-0.192 0.026-0.192 0.026-0.282-0.141-0.192-0.384-0.41-0.742-0.717-1.037-0.358-0.346-0.781-0.55-1.28-0.525-0.55 0.026-0.934 0.294-1.165 0.781-0.243 0.512-0.32 1.062-0.333 1.626-0.013 0.499-0.013 0.986 0.102 1.472 0.102 0.422 0.256 0.832 0.589 1.126 0.307 0.269 0.666 0.358 1.062 0.333 0.717-0.026 1.28-0.384 1.766-0.883 0.179-0.192 0.115-0.179 0.333-0.013 0.038 0.038 0.077 0.051 0.102 0.064z"></path>
</svg>
