<?xml version="1.0" encoding="utf-8"?>
<!-- Generator: Adobe Illustrator 22.1.0, SVG Export Plug-In . SVG Version: 6.00 Build 0)  -->
<svg version="1.1" id="Layer_1" xmlns="http://www.w3.org/2000/svg" xmlns:xlink="http://www.w3.org/1999/xlink" x="0px" y="0px"
	 viewBox="0 0 250 250" style="enable-background:new 0 0 250 250;" xml:space="preserve">
<g>
	<path d="M83,133.3c-0.4,2.1-0.8,4.3-1.2,6.4c0,0.2-0.1,0.4-0.1,0.6c0,0.7-0.3,0.9-1.1,0.9c-12.3,0-24.5,0-36.8,0
		c-1,0-1.1-0.1-1.1-1.1c0-0.5,0.2-0.6,0.6-0.6c0.9-0.1,1.8-0.2,2.7-0.5c1.5-0.4,2.3-1.6,2.5-3.1c0.1-0.7,0.1-1.4,0.1-2.1
		c0-10.1,0-20.2,0-30.3c0-1-0.1-2-0.3-2.9C48,99,46.8,98.2,45.3,98c-0.6-0.1-1.1-0.2-1.7-0.2c-0.8,0-0.8-0.5-0.8-1
		c0-0.7,0.3-0.8,0.9-0.8c5,0,10.1,0,15.1,0c2.4,0,4.8,0,7.3,0c0,0.6,0,1.1,0,1.7c-0.8,0.1-1.6,0.2-2.4,0.3c-3,0.3-4.1,1.5-4.2,4.5
		c0,0.6,0,1.3,0,1.9c0,10.2,0,20.3,0,30.5c0,3,0.8,4,4,4.2c4,0.2,7.7-0.3,11.3-2.3c2.4-1.4,4-3.5,5.4-5.8c0.6-1,0.6-1.7,0.2-2.8
		c-2-4.9-2.1-10-1-15.2c1.2-5.6,4.3-10.1,8.8-13.6c2.6-2,5.6-3.2,8.8-3.8c4.8-0.9,9.6-0.7,14.2,1c6.8,2.5,11.4,7.3,13.7,14.2
		c1.3,4,1.4,8.1,0.9,12.2c-1.1,9.2-8.2,16.7-16.7,18.8c-5.3,1.3-10.5,1.2-15.6-0.6c-4-1.4-7.3-3.9-10-7.3c-0.1-0.2-0.3-0.3-0.4-0.5
		C83.2,133.3,83.1,133.3,83,133.3z M114.3,117.8c-0.1-1.3-0.2-3.6-0.5-5.9c-0.3-3.1-1.1-6.1-2.6-8.9c-1.2-2.2-2.8-4.1-5.3-5
		c-4.7-1.8-9.8-0.1-12.5,4.8c-1.5,2.9-2.3,6-2.5,9.1c-0.3,3.3-0.4,6.5-0.3,9.8c0.1,3.9,0.6,7.7,2,11.4c1.4,3.5,3.7,6.2,7.6,7
		c2.8,0.6,5.4,0.1,7.8-1.6c2.6-1.9,3.9-4.6,4.7-7.6C114,127,114.2,122.9,114.3,117.8z"/>
	<path d="M195.2,118c0.4-0.3,0.5-0.4,0.7-0.5c5-5.1,10.1-10.2,15.1-15.3c0.6-0.6,1-1.4,1-2.3c0-0.9-0.4-1.4-1.3-1.6
		c-1.4-0.3-2.8-0.4-4.2-0.6c0-0.4,0-0.9,0-1.5c0.2,0,0.4-0.1,0.7-0.1c5.9,0,11.9,0,17.8,0c0.4,0,0.8-0.1,0.8,0.6
		c0,0.5,0.1,1-0.7,1.2c-1.6,0.3-3.2,0.6-4.7,1.1c-2.7,1-4.8,2.9-6.9,4.9c-3,2.8-5.8,5.7-8.8,8.6c-0.4,0.4-0.4,0.7,0,1.1
		c1.5,1.8,2.9,3.7,4.4,5.5c0.2,0.2,0.6,0.4,1,0.4c0.8,0.1,1.6,0.1,2.4,0c0.6,0,0.9,0.2,1.2,0.6c3.8,6.1,7.7,12.1,11.5,18.2
		c0.4,0.6,0.8,1.1,1.5,1.2c0.9,0.1,1.7,0.2,1.2,1.6c0.1,0,0.2-0.1,0.3-0.1c0.6-0.9,1.2-1.8,1.8-2.7c3.9-6,7.9-12,11.8-18
		c0.3-0.5,0.7-0.8,1.4-0.8c2.1,0,4.2,0,6.3,0c0.3,0,0.5,0,1,0c-7.7,12-15.3,23.8-23,35.7c-0.3-0.4-0.4-0.6-0.6-0.8
		c-2.7-4.1-5.3-8.2-8-12.4c-0.3-0.5-0.7-0.7-1.2-0.7c-3.7,0-7.5,0-11.2,0c-0.3,0-0.5,0-1,0c0-0.5-0.1-0.9,0-1.3
		c0-0.2,0.4-0.4,0.6-0.4c0.9-0.1,1.8-0.1,2.7-0.2c1.9-0.1,2.4-1,1.3-2.6c-1.1-1.6-2.4-3.2-3.6-4.7c-3-3.8-6-7.5-9-11.2
		c-0.5-0.6-0.8-0.6-1.3-0.1c-0.8,0.7-1,1.4-1,2.4c0.1,3.7,0,7.3,0,11c0,0.7,0.1,1.5,0.2,2.2c0.3,1.7,1.6,2.8,3.4,3.1
		c0.5,0.1,0.9,0.1,1.4,0.1c0.7,0,0.8,0.3,0.8,0.9c0,0.7-0.2,0.9-0.9,0.9c-6.9,0-13.7,0-20.6,0c-0.4,0-1,0.2-0.9-0.6
		c0-0.6-0.1-1.2,0.9-1.2c0.6,0,1.2-0.2,1.8-0.3c1.6-0.3,2.7-1.4,3-3c0.1-0.8,0.2-1.5,0.2-2.3c0-10.1,0-20.2,0-30.3
		c0-0.9-0.1-1.7-0.2-2.6c-0.2-1.6-1.6-2.7-3.5-2.9c-0.4,0-0.8-0.1-1.1-0.1c-1-0.1-1.2-0.5-0.9-1.4c0.1-0.2,0.4-0.3,0.7-0.3
		c1.5,0,3,0,4.5,0c5.5,0,11,0,16.5,0c0.4,0,0.9-0.2,0.9,0.5c0,0.5,0.2,1.2-0.7,1.3c-0.8,0.1-1.5,0.2-2.3,0.4
		c-1.8,0.4-2.6,1.4-2.7,3.2c-0.1,1.2-0.2,2.4-0.2,3.7c0,3.8,0,7.7,0,11.5C195.2,117,195.2,117.4,195.2,118z"/>
	<path d="M-0.3,141.2c0-0.3,0-0.5,0-0.7c0-0.3,0-0.6,0-0.9c0.7-0.1,1.3-0.2,2-0.3c2.3-0.3,3.5-1.5,3.8-3.8c0.1-0.5,0.1-1,0.1-1.5
		c0-10.3,0-20.6,0-30.9c0-0.8-0.1-1.6-0.3-2.3c-0.4-1.7-1.6-2.7-3.3-2.9c-0.3,0-0.6-0.1-1-0.1c-1.4-0.2-1.4-0.2-1.2-1.7
		C-0.2,96-0.1,96,0,96c7.5,0,15-0.1,22.6,0.1c3.7,0.1,7.4,0.8,10.7,2.8c4.8,2.9,5.5,9.4,2.6,13.2c-1.1,1.5-2.7,2.4-4.4,3.2
		c-0.9,0.4-1.9,0.7-2.8,1c-0.2,0.1-0.4,0.3-0.6,0.4c0.2,0.2,0.4,0.4,0.6,0.5c2.3,0.5,4.3,1.4,6.3,2.6c6.4,4,6.7,13.6-0.3,18
		c-2.8,1.8-5.9,2.8-9.1,3.1c-2.7,0.2-5.5,0.3-8.2,0.3c-5.6,0-11.2,0-16.8,0C0.3,141.2,0,141.2-0.3,141.2z M16.1,118.3
		c0,0.5,0,0.8,0,1.1c0,4.8,0,9.5,0,14.3c0,0.6,0,1.3,0,1.9c0.2,2.2,1.3,3.3,3.5,3.3c0.7,0,1.3,0,2-0.1c2.8-0.4,4.9-1.7,5.9-4.5
		c1-3,1.1-6,0.5-9c-0.3-1.8-1-3.4-2.4-4.6C22.9,118.3,19.6,118.4,16.1,118.3z M16.1,108.2c0,2.4,0,4.8,0,7.2c0,0.7,0.2,1,0.9,0.9
		c1.5-0.2,3.1-0.3,4.6-0.6c2.1-0.4,3.6-1.7,4.1-3.7c0.4-1.3,0.6-2.6,0.7-4c0.2-2.4-0.1-4.9-1.2-7.1c-0.3-0.7-0.8-1.3-1.4-1.7
		c-1.5-1.2-3.2-1.3-5-1.1c-2.2,0.3-2.8,1-2.8,3.2C16.1,103.7,16.1,105.9,16.1,108.2z"/>
	<path d="M173.7,132.6c-3.2,3.6-6.4,6.7-10.8,8.4c-3.8,1.5-7.7,1.7-11.7,1.2c-5.4-0.6-10-2.8-13.9-6.6c-2.8-2.7-4.6-6-5.5-9.7
		c-1.3-5.5-1.1-11,0.8-16.3c1.5-4,4.1-7.4,7.5-9.9c6.8-5,14.3-5.8,22.3-3.1c1.3,0.4,2.6,0.8,3.9,1.4c1.8,0.8,3.1-0.1,4-1.9
		c0.1-0.3,0.2-0.7,0.4-0.8c0.5-0.1,1-0.1,1.5-0.1c0.1,0,0.2,0.3,0.2,0.4c0,5,0,9.9,0,14.9c0,0.1-0.1,0.1-0.1,0.2
		c-1.5,0.2-1.5,0.2-2.2-1.1c-1.5-3-3.2-5.8-5.6-8.1c-2.8-2.7-6.1-4.3-10-4.1c-4.3,0.2-7.3,2.3-9.1,6.1c-1.9,4-2.5,8.3-2.6,12.7
		c-0.1,3.9-0.1,7.7,0.8,11.5c0.8,3.3,2,6.5,4.6,8.8c2.4,2.1,5.2,2.8,8.3,2.6c5.6-0.2,10-3,13.8-6.9c1.4-1.5,0.9-1.4,2.6-0.1
		C173.2,132.4,173.5,132.5,173.7,132.6z"/>
</g>
</svg>
