<?xml version="1.0" encoding="utf-8"?>
<!-- Generator: Adobe Illustrator 22.0.1, SVG Export Plug-In . SVG Version: 6.00 Build 0)  -->
<svg version="1.1" id="Layer_1" xmlns="http://www.w3.org/2000/svg" xmlns:xlink="http://www.w3.org/1999/xlink" x="0px" y="0px"
	 viewBox="0 0 226.8 226.8" style="enable-background:new 0 0 226.8 226.8;" xml:space="preserve">
<style type="text/css">
	.st0{stroke:#FFFFFF;stroke-miterlimit:10;}
</style>
<path class="st0" d="M97.5,213.2L0.5,15.6c-1.6-3.2,0.8-6.9,4.3-6.9h33.6c1.8,0,3.5,1,4.3,2.6l70.8,143.3c6.3,12.9,24.6,12.9,30.9,0
	L215,11.4c0.8-1.6,2.5-2.6,4.3-2.6h4.2c2.5,0,4.1,2.6,2.9,4.7l-98,199.6C122.1,226,103.8,226,97.5,213.2z"/>
<g transform="translate(0-70)">
	<path class="st0" d="M97.5,283.2L42.7,81.4c-0.8-1.7-2.6-2.6-4.1-2.6H4.9c-3.7,0-5.9,3.7-4.4,6.9L97.5,283.2z"/>
	<path class="st0" d="M113.5,224.7L0.5,85.6c-1.4-3.3,0.7-6.5,3.8-6.9h34.2c1.9,0.1,3.4,1.4,4.1,2.6L113.5,224.7z"/>
</g>
</svg>
