<!-- Generated by IcoMoon.io -->
<svg version="1.1" xmlns="http://www.w3.org/2000/svg" width="32" height="32" viewBox="0 0 32 32">
<title>VERI</title>
<path d="M0 3.471c1.764 0 3.527 0 5.305 0 1.115 5.841 2.229 11.668 3.344 17.51 0.056 0.254 0.113 0.508 0.183 0.762 0.268-1.016 0.423-2.060 0.649-3.090 1.016-5.065 2.032-10.13 3.048-15.196 1.707 0 3.414 0 5.122 0-1.877 8.198-3.767 16.381-5.644 24.578h-6.363c-1.877-8.183-3.767-16.381-5.644-24.564v0z"></path>
<path d="M19.697 11.189c1.115-1.369 2.892-1.989 4.614-2.102 1.693-0.113 3.527 0.028 4.966 1.030 1.27 0.875 1.975 2.342 2.3 3.81 0.395 1.834 0.423 3.725 0.423 5.587-3.132 0-6.265 0-9.397 0 0.014 1.383-0.085 2.808 0.395 4.134 0.226 0.649 0.649 1.298 1.34 1.538 0.72 0.226 1.594 0.085 2.116-0.494 0.705-0.776 0.847-1.877 1.002-2.878h4.261c-0.099 1.665-0.409 3.414-1.524 4.713-1.115 1.355-2.907 1.905-4.614 1.975-1.848 0.071-3.852-0.183-5.319-1.397-1.369-1.115-1.961-2.892-2.201-4.586-0.24-1.947-0.254-3.922-0.141-5.898 0.155-1.891 0.522-3.908 1.778-5.432M23.337 13.15c-0.734 1.030-0.748 2.342-0.734 3.556 1.623 0 3.231 0 4.854 0-0.071-1.143-0.071-2.356-0.593-3.414-0.649-1.298-2.723-1.312-3.527-0.141"></path>
</svg>
