<?xml version="1.0" encoding="utf-8"?>
<!-- Generator: Adobe Illustrator 22.0.1, SVG Export Plug-In . SVG Version: 6.00 Build 0)  -->
<svg version="1.1" id="Layer_1" xmlns="http://www.w3.org/2000/svg" xmlns:xlink="http://www.w3.org/1999/xlink" x="0px" y="0px"
	 viewBox="0 0 226.8 226.8" style="enable-background:new 0 0 226.8 226.8;" xml:space="preserve">
<style type="text/css">
	.st0{stroke:#FFFFFF;stroke-miterlimit:10;}
</style>
<g transform="translate(0-217)">
	<path class="st0" d="M0,241.6c12.5,0,25,0,37.6,0c7.9,41.4,15.8,82.7,23.7,124.1c0.4,1.8,0.8,3.6,1.3,5.4c1.9-7.2,3-14.6,4.6-21.9
		c7.2-35.9,14.4-71.8,21.6-107.7c12.1,0,24.2,0,36.3,0c-13.3,58.1-26.7,116.1-40,174.2H40C26.7,357.7,13.3,299.6,0,241.6L0,241.6z"
		/>
	<path class="st0" d="M139.6,296.3c7.9-9.7,20.5-14.1,32.7-14.9c12-0.8,25,0.2,35.2,7.3c9,6.2,14,16.6,16.3,27c2.8,13,3,26.4,3,39.6
		c-22.2,0-44.4,0-66.6,0c0.1,9.8-0.6,19.9,2.8,29.3c1.6,4.6,4.6,9.2,9.5,10.9c5.1,1.6,11.3,0.6,15-3.5c5-5.5,6-13.3,7.1-20.4h30.2
		c-0.7,11.8-2.9,24.2-10.8,33.4c-7.9,9.6-20.6,13.5-32.7,14c-13.1,0.5-27.3-1.3-37.7-9.9c-9.7-7.9-13.9-20.5-15.6-32.5
		c-1.7-13.8-1.8-27.8-1-41.8C128.1,321.4,130.7,307.1,139.6,296.3 M165.4,310.2c-5.2,7.3-5.3,16.6-5.2,25.2c11.5,0,22.9,0,34.4,0
		c-0.5-8.1-0.5-16.7-4.2-24.2C185.8,302,171.1,301.9,165.4,310.2"/>
</g>
</svg>
