<!-- Generated by IcoMoon.io -->
<svg version="1.1" xmlns="http://www.w3.org/2000/svg" width="32" height="32" viewBox="0 0 32 32">
<title>VET</title>
<path d="M13.757 30.081l-13.686-27.88c-0.226-0.452 0.113-0.974 0.607-0.974h4.741c0.254 0 0.494 0.141 0.607 0.367l9.989 20.219c0.889 1.82 3.471 1.82 4.36 0l9.961-20.205c0.113-0.226 0.353-0.367 0.607-0.367h0.593c0.353 0 0.578 0.367 0.409 0.663l-13.827 28.162c-0.889 1.82-3.471 1.82-4.36 0.014z"></path>
<path d="M13.757 30.081l-7.732-28.473c-0.113-0.24-0.367-0.367-0.578-0.367h-4.755c-0.522 0-0.832 0.522-0.621 0.974l13.686 27.866z"></path>
<path d="M16.014 21.827l-15.944-19.626c-0.198-0.466 0.099-0.917 0.536-0.974h4.825c0.268 0.014 0.48 0.198 0.578 0.367l10.004 20.233z"></path>
</svg>
