<!-- Generated by IcoMoon.io -->
<svg version="1.1" xmlns="http://www.w3.org/2000/svg" width="32" height="32" viewBox="0 0 32 32">
<title>VIA</title>
<path d="M0.384 17.050c0-0.947 0-1.882 0-2.842 2.611 0 5.222 0 7.846 0-0.102-0.256-0.205-0.499-0.307-0.742-0.282-0.666-0.563-1.331-0.845-1.997-0.038-0.102-0.102-0.102-0.179-0.102-2.112 0-4.224 0-6.336 0-0.051 0-0.115 0-0.179 0 0-0.947 0-1.894 0-2.842 1.805 0 3.622 0 5.453 0-1.216-2.842-2.419-5.67-3.635-8.525 0.064 0 0.102 0 0.141 0 0.922 0 1.856 0 2.778 0 0.102 0 0.154 0.026 0.192 0.128 1.562 3.635 3.11 7.27 4.672 10.906 0.435 1.011 0.87 2.022 1.293 3.034 0.051 0.115 0.102 0.141 0.218 0.141 2.944 0 5.875 0 8.819 0 0.128 0 0.179-0.038 0.243-0.154 1.805-4.147 3.622-8.282 5.44-12.429 0.218-0.512 0.435-1.011 0.666-1.523 0.026-0.038 0.077-0.102 0.128-0.102 0.998 0 1.997 0 3.021 0-1.242 2.842-2.483 5.67-3.725 8.525 1.856 0 3.699 0 5.542 0 0 0.947 0 1.882 0 2.842-0.051 0-0.102 0-0.166 0-2.163 0-4.314 0-6.477 0-0.115 0-0.166 0.038-0.205 0.141-0.371 0.858-0.742 1.715-1.126 2.573-0.013 0.038-0.026 0.077-0.051 0.141 2.675 0 5.35 0 8.013 0 0 0.947 0 1.882 0 2.842-0.064 0-0.115 0-0.179 0-2.97 0-5.952 0-8.922 0-0.128 0-0.192 0.026-0.243 0.154-0.883 2.035-1.766 4.058-2.65 6.093-0.96 2.202-1.92 4.416-2.893 6.618-0.282 0.653-0.563 1.293-0.845 1.946-0.013 0.038-0.038 0.077-0.064 0.141-0.205-0.486-0.41-0.96-0.602-1.421-0.947-2.24-1.907-4.493-2.854-6.746-0.934-2.214-1.882-4.429-2.816-6.643-0.038-0.102-0.090-0.141-0.205-0.141-2.918 0-5.837 0-8.742 0-0.077-0.013-0.141-0.013-0.218-0.013zM19.238 17.050c-2.24 0-4.454 0-6.694 0 1.114 2.586 2.214 5.158 3.328 7.757 1.126-2.598 2.24-5.171 3.366-7.757z"></path>
</svg>
