<?xml version="1.0" encoding="utf-8"?>
<!-- Generator: Adobe Illustrator 22.1.0, SVG Export Plug-In . SVG Version: 6.00 Build 0)  -->
<svg version="1.1" id="Layer_1" xmlns="http://www.w3.org/2000/svg" xmlns:xlink="http://www.w3.org/1999/xlink" x="0px" y="0px"
	 viewBox="0 0 250 250" style="enable-background:new 0 0 250 250;" xml:space="preserve">
<g>
	<path d="M3,133.2c0-7.4,0-14.7,0-22.2c20.4,0,40.8,0,61.3,0c-0.8-2-1.6-3.9-2.4-5.8c-2.2-5.2-4.4-10.4-6.6-15.6
		c-0.3-0.8-0.8-0.8-1.4-0.8c-16.5,0-33,0-49.5,0c-0.4,0-0.9,0-1.4,0C3,81.4,3,74,3,66.6c14.1,0,28.3,0,42.6,0
		C36.1,44.4,26.7,22.3,17.2,0c0.5,0,0.8,0,1.1,0c7.2,0,14.5,0,21.7,0c0.8,0,1.2,0.2,1.5,1C53.7,29.4,65.8,57.8,78,86.2
		c3.4,7.9,6.8,15.8,10.1,23.7c0.4,0.9,0.8,1.1,1.7,1.1c23,0,45.9,0,68.9,0c1,0,1.4-0.3,1.9-1.2c14.1-32.4,28.3-64.7,42.5-97.1
		c1.7-4,3.4-7.9,5.2-11.9c0.2-0.3,0.6-0.8,1-0.8c7.8,0,15.6,0,23.6,0c-9.7,22.2-19.4,44.3-29.1,66.6c14.5,0,28.9,0,43.3,0
		c0,7.4,0,14.7,0,22.2c-0.4,0-0.8,0-1.3,0c-16.9,0-33.7,0-50.6,0c-0.9,0-1.3,0.3-1.6,1.1c-2.9,6.7-5.8,13.4-8.8,20.1
		c-0.1,0.3-0.2,0.6-0.4,1.1c20.9,0,41.8,0,62.6,0c0,7.4,0,14.7,0,22.2c-0.5,0-0.9,0-1.4,0c-23.2,0-46.5,0-69.7,0
		c-1,0-1.5,0.2-1.9,1.2c-6.9,15.9-13.8,31.7-20.7,47.6c-7.5,17.2-15,34.5-22.6,51.7c-2.2,5.1-4.4,10.1-6.6,15.2
		c-0.1,0.3-0.3,0.6-0.5,1.1c-1.6-3.8-3.2-7.5-4.7-11.1c-7.4-17.5-14.9-35.1-22.3-52.7c-7.3-17.3-14.7-34.6-22-51.9
		c-0.3-0.8-0.7-1.1-1.6-1.1c-22.8,0-45.6,0-68.3,0C4.1,133.2,3.6,133.2,3,133.2z M150.3,133.2c-17.5,0-34.8,0-52.3,0
		c8.7,20.2,17.3,40.3,26,60.6C132.8,173.5,141.5,153.4,150.3,133.2z"/>
</g>
</svg>
