<?xml version="1.0" encoding="utf-8"?>
<!-- Generator: Adobe Illustrator 22.0.1, SVG Export Plug-In . SVG Version: 6.00 Build 0)  -->
<svg version="1.1" id="Layer_1" xmlns="http://www.w3.org/2000/svg" xmlns:xlink="http://www.w3.org/1999/xlink" x="0px" y="0px"
	 viewBox="0 0 226.8 226.8" style="enable-background:new 0 0 226.8 226.8;" xml:space="preserve">
<style type="text/css">
	.st0{stroke:#FFFFFF;stroke-miterlimit:10;}
</style>
<g>
	<path class="st0" d="M210.7,125.3c-7.3-4.6-15.4-7.2-23.6-9.5c-4.1-1.1-8.1-2-12.3-3.1c16.8-25.8,33.5-51.4,50.3-77.3
		c-0.5-0.1-1-0.1-1.5-0.1c-10.7,0-21.4,0-32.2-0.1c-1.6,0-2.2,0.8-2.9,1.9c-19.8,30.5-39.6,61.1-59.4,91.7
		c-5.4,8.4-10.9,16.8-16.6,25.5c-0.5-0.6-0.9-1.2-1.3-1.8C86.6,114.2,62,75.7,37.4,37.3c-0.6-1.3-2-2.2-3.5-2.1
		c-10.2,0.1-20.4,0-30.5,0.1c-0.6,0-1.4,0.1-2.3,0.2C17.6,61.1,33.7,86.3,50,111.8c-0.6,0.2-1,0.2-1.4,0.3c-7.6,2-15.1,3.7-22.6,6
		s-14.7,5.4-20.5,10.8c-7.4,6.8-7.2,13.8,0.5,20.4c0.3,0.3,0.6,0.5,0.9,0.7c5.2,4.2,11.3,7,17.6,9.3c19.9,7.3,40.7,10.1,61.8,11.6
		c1.3,0,2.5,0.7,3.2,1.9c6.1,9.6,12.2,19.3,18.5,28.8c1.5,2.3,3.1,4.7,4.7,7.2c0.5-0.8,1-1.6,1.6-2.3c7.4-11.3,14.7-22.5,22.1-33.8
		c0.5-0.9,1.4-1.5,2.4-1.7c10.5-1.4,21.2-2.3,31.6-3.9c12.9-2,25.5-5.3,37.4-11.2c4.7-2.3,9.1-5,12.3-9.2c3.7-4.9,4-9.7-0.1-14.3
		C217,129.7,214,127.4,210.7,125.3 M39.9,143.5c-2.7-1.6-5.2-3.6-7.3-6c-2.2-2.4-2.2-6.1,0.1-8.4c1.9-2.3,4.3-4.3,6.9-5.8
		c4.1-2,8.2-3.7,12.5-5.1c0.8-0.1,1.7,0.1,2.3,0.7c7.3,11.3,14.5,22.6,21.8,33.9c0.1,0.2,0.1,0.5,0.3,1.1
		C63.6,151.9,51.2,149.6,39.9,143.5 M187.5,139.6c-3.6,3.6-8.1,6.2-13.1,7.6c-7.8,2.3-15.8,4.1-23.8,6c-0.7,0.1-1.4,0.1-2.2,0
		c2.8-4.3,5.5-8.6,8.2-12.7c4.3-6.6,8.6-13.1,12.9-19.8c0.8-1.3,1.6-1.8,3-1.1c4,2,8,3.9,11.9,5.9c1.1,0.7,2.2,1.5,3.1,2.5
		C191.1,131.8,191.1,135.9,187.5,139.6"/>
	<path class="st0" d="M174.5,24.8c-20.6,33.5-41.1,66.8-61.7,100.4C92,91.6,71.2,58.3,50.4,24.8"/>
</g>
</svg>
