<!-- Generated by IcoMoon.io -->
<svg version="1.1" xmlns="http://www.w3.org/2000/svg" width="32" height="32" viewBox="0 0 32 32">
<title>VIBE</title>
<path d="M29.728 17.679c-1.030-0.649-2.173-1.016-3.33-1.34-0.578-0.155-1.143-0.282-1.735-0.437 2.37-3.64 4.727-7.252 7.097-10.907-0.071-0.014-0.141-0.014-0.212-0.014-1.51 0-3.019 0-4.543-0.014-0.226 0-0.31 0.113-0.409 0.268-2.794 4.303-5.587 8.621-8.381 12.938-0.762 1.185-1.538 2.37-2.342 3.598-0.071-0.085-0.127-0.169-0.183-0.254-3.471-5.404-6.942-10.836-10.413-16.254-0.085-0.183-0.282-0.31-0.494-0.296-1.439 0.014-2.878 0-4.303 0.014-0.085 0-0.198 0.014-0.325 0.028 2.328 3.612 4.6 7.168 6.899 10.765-0.085 0.028-0.141 0.028-0.198 0.042-1.072 0.282-2.131 0.522-3.189 0.847s-2.074 0.762-2.892 1.524c-1.044 0.959-1.016 1.947 0.071 2.878 0.042 0.042 0.085 0.071 0.127 0.099 0.734 0.593 1.594 0.988 2.483 1.312 2.808 1.030 5.742 1.425 8.72 1.637 0.183 0 0.353 0.099 0.451 0.268 0.861 1.355 1.721 2.723 2.61 4.064 0.212 0.325 0.437 0.663 0.663 1.016 0.071-0.113 0.141-0.226 0.226-0.325 1.044-1.594 2.074-3.175 3.118-4.769 0.071-0.127 0.198-0.212 0.339-0.24 1.481-0.198 2.991-0.325 4.459-0.55 1.82-0.282 3.598-0.748 5.277-1.58 0.663-0.325 1.284-0.705 1.735-1.298 0.522-0.691 0.564-1.369-0.014-2.018-0.423-0.381-0.847-0.705-1.312-1.002M5.63 20.247c-0.381-0.226-0.734-0.508-1.030-0.847-0.31-0.339-0.31-0.861 0.014-1.185 0.268-0.325 0.607-0.607 0.974-0.818 0.578-0.282 1.157-0.522 1.764-0.72 0.113-0.014 0.24 0.014 0.325 0.099 1.030 1.594 2.046 3.189 3.076 4.783 0.014 0.028 0.014 0.071 0.042 0.155-1.82-0.282-3.57-0.607-5.164-1.467M26.455 19.697c-0.508 0.508-1.143 0.875-1.848 1.072-1.101 0.325-2.229 0.578-3.358 0.847-0.099 0.014-0.198 0.014-0.31 0 0.395-0.607 0.776-1.213 1.157-1.792 0.607-0.931 1.213-1.848 1.82-2.794 0.113-0.183 0.226-0.254 0.423-0.155 0.564 0.282 1.129 0.55 1.679 0.832 0.155 0.099 0.31 0.212 0.437 0.353 0.508 0.536 0.508 1.115 0 1.637"></path>
<path d="M24.621 3.499c-2.907 4.727-5.799 9.425-8.705 14.166-2.935-4.741-5.87-9.439-8.804-14.166"></path>
</svg>
