<!-- Generated by IcoMoon.io -->
<svg version="1.1" xmlns="http://www.w3.org/2000/svg" width="32" height="32" viewBox="0 0 32 32">
<title>VIOR</title>
<path d="M21.054 10.314h-2.643l-2.407 6.419-2.406-6.419h-2.643l5.050 12.271z"></path>
<path d="M3.662 21.049c0-5.873 4.872-12.273 12.384-12.273 0.007 0 0.015-0 0.024-0 4.395 0 8.257 2.288 10.458 5.737l0.030 0.050c0.419-1.113 0.662-2.4 0.662-3.743 0-0.002 0-0.005 0-0.007v0c0-4.591-2.84-8.537-6.872-10.208-1.297-0.379-2.788-0.597-4.329-0.597-0.005 0-0.009 0-0.014 0h0.001c-8.834-0-15.996 7.161-15.996 15.996 0 5.278 2.557 9.958 6.499 12.871-1.777-2.124-2.845-4.852-2.845-7.826z"></path>
<path d="M25.997 3.514c1.526 2.040 2.432 4.564 2.432 7.299 0 6.781-5.848 12.273-12.383 12.273-0.007 0-0.015 0-0.024 0-4.395 0-8.256-2.287-10.458-5.735l-0.030-0.050c-0.42 1.113-0.663 2.4-0.663 3.744 0 0.001 0 0.003 0 0.004v-0c0 5.151 3.575 9.492 8.397 10.717 0.822 0.149 1.768 0.234 2.734 0.234 0 0 0.001 0 0.001 0h-0c8.834 0 15.996-7.162 15.996-15.996 0-5.053-2.344-9.559-6.003-12.49z"></path>
</svg>
