<!-- Generated by IcoMoon.io -->
<svg version="1.1" xmlns="http://www.w3.org/2000/svg" width="32" height="32" viewBox="0 0 32 32">
<title>VNL</title>
<path d="M31.162 11.619h-3.773l2.483-6.907h-5.3c-1.193 0-2.949 0.795-3.478 2.252s-4.903 13.549-4.903 13.549-4.472-12.423-4.87-13.516c-0.397-1.093-1.524-2.286-3.445-2.286h-5.334l2.486 6.907h-4.093c-0.795 0-1.019 0.547-0.82 1.068s0.704 1.766 0.928 2.288c0.223 0.522 0.588 0.693 1.11 0.693h4.333l0.51 1.417h-3.758c-0.795 0-1.019 0.546-0.82 1.068s0.704 1.766 0.927 2.288c0.224 0.522 0.588 0.694 1.11 0.694h3.998l2.006 5.573s1.955 1.458 5.747 1.458c3.793 0 5.781-1.524 5.781-1.524l1.98-5.507h3.674c0.522 0 0.886-0.172 1.11-0.694s0.729-1.766 0.927-2.288c0.199-0.522-0.025-1.068-0.82-1.068h-3.436l0.509-1.417h4.012c0.522 0 0.886-0.171 1.11-0.693s0.729-1.766 0.928-2.288c0.199-0.522-0.025-1.068-0.82-1.068z"></path>
</svg>
