<!-- Generated by IcoMoon.io -->
<svg version="1.1" xmlns="http://www.w3.org/2000/svg" width="32" height="32" viewBox="0 0 32 32">
<title>VPN</title>
<path d="M0.023 14.657h6.127l6.667 6.667v-6.667h4.794v13.398h-4.571zM19.428 8.57v3.405h6.207c1.754 0 2.357 1.047 2.357 2.071s-0.698 2.095-2.492 2.095h-6.072v4.238h7.358c2.794 0 5.215-1.905 5.215-6.262s-3.278-5.548-5.215-5.548l-7.358 0z"></path>
<path d="M24.362 24.411c1.573 0.572 2.519 1.304 2.519 2.103 0 1.833-4.975 3.318-11.112 3.318s-11.111-1.485-11.111-3.318c0-0.799 0.945-1.531 2.518-2.103-2.804 0.751-4.582 1.862-4.582 3.103 0 2.262 5.899 4.095 13.175 4.095s13.175-1.834 13.175-4.095c0-1.241-1.778-2.352-4.582-3.103zM12.007 11.401c0 0 0 0 0 0 0 0.119-0.097 0.216-0.216 0.216h-2.759c-0.119 0-0.216-0.097-0.216-0.216 0-0 0-0 0-0v0-2.758c0-0.119 0.097-0.216 0.216-0.216h2.759c0.119 0 0.216 0.097 0.216 0.216v2.758zM17.595 12.732c0 0 0 0 0 0.001 0 0.173-0.14 0.313-0.312 0.313h-3.994c-0.173-0-0.313-0.14-0.313-0.313 0-0 0-0 0-0v0-3.993c0-0.173 0.14-0.313 0.313-0.313h3.994c0.173 0 0.312 0.14 0.312 0.313v3.993zM15.916 7.215c0 0.11-0.089 0.2-0.199 0.2h-2.542c-0.11-0-0.199-0.089-0.199-0.2 0-0 0-0 0-0v0-2.542c0-0.11 0.089-0.199 0.199-0.199h2.542c0.11 0 0.199 0.089 0.199 0.199v2.542zM11.757 7.215c0 0.11-0.089 0.2-0.199 0.2h-2.543c-0.11-0-0.199-0.090-0.199-0.2 0 0 0 0 0 0v0-2.542c0-0.11 0.089-0.199 0.199-0.199h2.543c0.11 0 0.199 0.089 0.199 0.199v0 2.542zM11.043 3.752c0 0.083-0.068 0.151-0.151 0.151h-1.925c-0.083 0-0.151-0.067-0.151-0.151v0-1.924c0-0.084 0.068-0.151 0.151-0.151h1.925c0.083 0 0.151 0.068 0.151 0.151v0 1.924zM8.047 6.649c0 0.088-0.071 0.158-0.158 0.158h-2.017c0 0 0 0 0 0-0.087 0-0.158-0.071-0.158-0.158 0-0 0-0 0-0v0-2.018c0-0.087 0.071-0.158 0.158-0.158h2.017c0.088 0 0.158 0.071 0.158 0.158v2.018zM7.237 3.49c0 0 0 0 0 0.001 0 0.057-0.046 0.103-0.103 0.103v0h-1.318c-0.057-0-0.103-0.046-0.103-0.103 0-0 0-0 0-0v0-1.317c0-0 0-0 0-0 0-0.057 0.046-0.103 0.103-0.103h1.318c0.057 0 0.103 0.046 0.103 0.103 0 0 0 0 0 0v0 1.317zM5.047 1.811c0 0 0 0 0 0 0 0.057-0.046 0.103-0.103 0.103 0 0 0 0 0 0h-1.318c0 0 0 0 0 0-0.057 0-0.103-0.046-0.103-0.103 0-0 0-0 0-0v0-1.317c0-0.057 0.046-0.103 0.103-0.103h1.318c0.057 0 0.103 0.046 0.103 0.103v1.317z"></path>
</svg>
