<?xml version="1.0" encoding="utf-8"?>
<!-- Generator: Adobe Illustrator 22.1.0, SVG Export Plug-In . SVG Version: 6.00 Build 0)  -->
<svg version="1.1" id="Layer_1" xmlns="http://www.w3.org/2000/svg" xmlns:xlink="http://www.w3.org/1999/xlink" x="0px" y="0px"
	 viewBox="0 0 250 250" style="enable-background:new 0 0 250 250;" xml:space="preserve">
<g>
	<path d="M159.5,137.9c0.1,9.2-1.6,17.2-4.6,24.9c-2.7,6.8-8,10.3-15,11.5c-6,1-11.1-1.1-15.5-4.9c-7.3-6.4-11.8-14.4-13.4-24
		c-0.8-5.1-0.4-10.1,0.6-15.1c0.9-4.5,1.3-9.1,1.1-13.7c0-0.7-0.4-1.4-0.8-2c-1.7-2.1-3.3-4.2-5.2-6.2c-6.1-6.5-11-13.8-14.8-21.9
		c-0.5-1-0.8-2.1-1.2-3.2c-0.4-1.2-0.3-2.3,0.1-3.5c0.9-2.5,1-5.2,0.4-7.8c-0.4-1.8-1.7-3-3.1-4c-1.2-0.8-2.5-1.6-3.8-2.3
		c-2.4-1.4-3.1-3.1-2.1-5.7c0.7-1.8,1.6-3.5,2.4-5.2c0.8-1.5,2.1-2.5,3.6-3.3c7-3.9,14-7.7,21.9-9.3c4.4-0.9,8.7-1.8,13.1-2.4
		c2.5-0.4,5-0.3,7.5,0.5c3,1,4.7,3,5.1,6.1c0.3,2.4,0.6,4.7,1,7.1c0.4,2.8,1.9,4.8,4.7,5.7c1.3,0.4,2.6,1,3.9,1.5
		c1.2,0.4,2,1.2,2.3,2.4c0.5,2.2,1.1,4.4,1.4,6.6c0.7,5.1,1.4,10.3,2,15.4c0.5,3.9,0.8,7.7,1.2,11.6c0.5,4.4,1.1,8.7,1.7,13
		c0.7,5,2.1,9.8,3.5,14.6C159.1,128.9,159.7,133.8,159.5,137.9z"/>
	<path d="M35.9,189.6c0.1-0.8,0.3-1.3,0.2-1.9c-0.6-3.8-1.3-7.6-2-11.4c-0.5-2.6-1.1-5.1-1.6-7.7c-0.2-0.9-0.1-2,0.1-2.9
		c0.3-1.5,1.5-2.2,3.6-2.3c0.7,0,1.5,0.1,2.2,0.2c0.7,0.1,1.2,0.6,1.3,1.4c0.3,2.7,0.7,5.3,1,8c0.5,4.8,1,9.6,1.6,14.5
		c0.3,2.6,2,4.3,4.3,5.5c0.9,0.5,1.6,0.2,2-1c0.4-1.4,0.6-2.8,0.8-4.2c0.4-2.9,0.6-5.7,1-8.6c0.1-0.8,0.6-1.5,1-2.2
		c0.8-1.3,1.9-1.8,3.2-1.5c1.6,0.3,2.4,1.1,2.7,2.7c0.4,2.4-0.2,4.6-1,6.9c-1.6,5-2.7,10.2-2.4,15.5c0.4,6.4,1.7,12.7,4.5,18.5
		c0.3,0.7,0.8,1.4,1.3,2c0.3,0.3,0.8,0.5,1.2,0.5c0.2,0,0.5-0.7,0.5-1c0.1-1.1,0.2-2.2,0.2-3.2c0.1-4.1,0.2-8.2,0.2-12.3
		c0.1-7.6,0.1-15.2,0.2-22.8c0.1-3.8,0.1-7.6,1.2-11.2c0.4-1.4,1-2.9,1.5-4.3c0.7-1.9,2.2-3,4.1-3.1c3.5-0.2,7.1-0.2,10.6-0.1
		c2.2,0,4.3,0.2,6.5,0.4c3.8,0.4,7.5,0.7,11.2,1.2c4,0.5,8.1,1.1,12,1.8c2.8,0.5,5.5,1.2,8.2,2c1.1,0.3,2.2,1.1,3.1,1.9
		c1.2,1,1.1,1.9-0.3,2.7c-0.8,0.4-1.6,0.8-2.4,1.1c-7,2.3-14,4.4-21.3,5.5c-5.9,0.9-11.7,0.6-17.5-0.6c-1.4-0.3-2.9-0.5-4.4-0.7
		c-0.6-0.1-0.9,0.2-0.8,0.8c0.3,1.4,0.6,2.8,1,4.2c1.3,4.5,0.8,9-0.5,13.4c-1.6,5.3-3.4,10.6-4.9,15.9c-1.2,4.2-2.2,8.5-3.2,12.7
		c-0.5,1.9-0.7,3.9-1.3,5.7c-0.6,2.2-2.7,2.9-4.5,1.5c-1.4-1.2-2.7-2.6-3.8-4.1c-4-5.3-8.5-10-13.8-14c-3-2.3-6.5-3.2-10-4.1
		c-4.5-1.2-9.1-2.4-13.7-3.6c-1.1-0.3-2.2-0.9-3.2-1.4c-0.7-0.4-1.2-0.9-1-1.8c0.3-0.8,1-1,1.7-1c2.3,0.1,4.6,0.2,6.9,0.3
		c0.8,0,1.6,0,2.4-0.1c0.9-0.1,1.1-0.8,0.5-1.5c-1.2-1.4-2.4-2.8-3.8-3.9c-5.1-4.3-10.9-7.5-17.1-10c-1.5-0.6-3-1.3-4.4-2.2
		c-2-1.2-2-3.3,0-4.7c1.7-1.2,3-1.3,4.7-0.1c3,2.2,5.9,4.7,8.9,6.8c2.2,1.5,4.5,2.9,6.8,4.2c0.8,0.4,1.8,0.5,2.8,0.5
		c1.1,0,1.7-0.6,1.6-1.6c-0.1-1.3-0.4-2.6-0.9-3.8c-2.1-4.7-5.5-8.4-9.3-11.8c-2.2-2-4.4-4.1-6.5-6.2c-0.6-0.7-1-1.6-1.5-2.4
		C7.8,166,8,165.4,8.6,165c2.5-2.2,7.1-1.8,8.9,1.1c2.1,3.3,4.1,6.8,6.1,10.1c3,4.8,6.9,9,11.2,12.8C35,189.1,35.4,189.3,35.9,189.6
		z"/>
	<path d="M177.8,185.2c0.8-0.2,1.3-0.2,1.8-0.4c4.6-1.6,9-3.5,13.2-6c1.2-0.7,2.4-1.6,3.4-2.7c2.8-2.8,5.5-5.7,8.1-8.7
		c1.6-1.9,1.9-4.3,2.4-6.7c0.6-2.5,1.2-5,2.8-7.1c0.5-0.6,1-1.1,1.6-1.6c0.8-0.6,1.7-0.9,2.7-0.4c1,0.6,1.2,1.7,1,2.7
		c-0.1,0.9-0.4,1.8-0.7,2.5c-1.4,2.8-3,5.5-4.5,8.3c-0.7,1.2-1.3,2.5-1.9,3.8c-0.4,0.7,0,1.2,0.7,1.2c0.8,0,1.6,0,2.4-0.2
		c3.5-0.9,6.2-3.1,8.4-5.8c2-2.5,4-5.1,6-7.6c1.3-1.5,2.8-2.8,4.8-3.5c2.3-0.8,4.9,1.5,5.3,3.2c0.2,0.9-0.3,1.5-0.9,2
		c-3,2.5-6.1,4.9-9.1,7.4c-1.6,1.3-3.2,2.7-4.6,4.2c-0.7,0.7-1.2,1.6-1.6,2.5c-0.5,1.3,0.1,2.2,1.6,2.1c2.8-0.1,5.4-1,8-1.9
		c4-1.6,8-3.3,12-4.9c1.7-0.6,3.5-1,5.2-1.4c2-0.4,3.7,0.6,4.6,2.3c0.6,1.1,0.5,2-0.5,2.7c-1.4,0.9-3,1.8-4.6,2.3
		c-4.1,1.2-8.2,2.1-12.4,3.2c-2.7,0.7-5.4,1.5-8.1,2.4c-1.6,0.6-3,1.5-4.6,2.3c1.7,1.8,3.6,2.9,5.9,2.9c3.5,0,7.1,0.1,10.6,0.2
		c1.9,0.1,3.8,0.4,5.7,0.6c0.2,0,0.4,0.1,0.7,0.2c2,0.8,2.2,1.7,0.6,3.2c-0.3,0.3-0.6,0.5-0.9,0.8c-1.3,1.1-2.7,1.5-4.5,1
		c-3.6-1-7.2-1.8-10.9-2.4c-2.8-0.5-5.7-0.7-8.5-0.8c-1.2-0.1-2.5,0.2-3.7,0.6c-1.6,0.5-1.8,1.6-0.4,2.6c1.1,0.8,2.4,1.3,3.6,2
		c1.1,0.6,2.3,1.2,3.4,2c0.9,0.7,1,1.9,0.5,2.8c-0.5,1-1.4,1.2-2.4,0.9c-2.1-0.7-4.1-1.5-6.2-2.3c-4.2-1.7-8.3-3.5-12.6-5
		c-4.2-1.4-8.5-1.3-12.9-0.9c-3.8,0.4-7.6,0.8-11.3,1.2c-1.6,0.2-3.1,0.4-4.7,0.5c-0.9,0.1-1.8,0-2.7-0.1c-1.8-0.3-2.5-2.2-1.5-3.6
		c0.8-1.1,1.9-2.1,2.7-3.2c1.8-2.8,3.6-5.7,5.1-8.6c3.1-5.6,6-11.3,9-17c0.5-0.9,0.9-2,1.2-3.1c-9.5,2.6-18.6,6.3-27.7,9.9
		c-0.1-0.1-0.1-0.2-0.2-0.2c0.2-0.4,0.3-0.8,0.6-1.2c2.4-4.2,5.9-7.3,9.7-10.1c8.9-6.6,18.8-11.2,29.2-14.7c2.9-1,5.7-2,8.6-2.6
		c1.9-0.4,4-0.3,6.1-0.1c1.5,0.1,2.1,1.2,1.6,2.7c-0.4,1.2-0.9,2.4-1.6,3.3c-1.7,2.4-3.6,4.7-5.5,7c-4.4,5.1-8.9,10.2-13.3,15.3
		c-4,4.7-8,9.5-11.9,14.3c-1.1,1.3-2.1,2.7-3.1,4.1C178.2,184.1,178.1,184.6,177.8,185.2z"/>
	<path d="M157.8,83.7c-2.9-0.1-2.9-0.1-3.5-2.9c-0.6-2.9-1.1-5.9-1.7-8.9c-0.1-0.7,0.1-0.9,0.8-0.9c6.8,0.1,13.5,0.7,19.8,3.4
		c0.9,0.4,1.8,1,2.6,1.5c1.1,0.7,1.6,0.5,2-0.7c0.6-2,1.1-4,1.7-6c2.1-6.6,5.2-12.9,8.3-19c1.5-2.9,2.2-6,1.7-9.3
		c-0.3-1.7-0.3-3.5-0.6-5.3c-0.5-3.3-2.3-6-4.6-8.5c-0.6-0.7-1.2-1.5-1.8-2.2c-0.8-1-0.6-2.1-0.1-3.2c0.3-0.7,1.7-0.9,2.5-0.2
		c1.1,0.8,2,1.8,2.9,2.8c1,1.1,1.8,2.3,2.9,3.4c1,1,1.9,0.8,2.2-0.7c0.3-1.7,0.5-3.4,0.6-5.2c0.2-2.5,0.2-5,0.5-7.5
		c0.1-0.9,0.8-1.8,1.5-2.6c0.6-0.7,1.5-1.2,2.5-0.7c1.1,0.5,1.9,1.4,1.8,2.6c-0.1,1.3-0.4,2.6-0.7,4c-0.6,3.4-1.1,6.9-0.3,10.4
		c0.4,1.8,1.2,2.1,2.7,1.1c2.3-1.5,3.9-3.7,5.3-6c0.8-1.3,1.7-2.5,2.7-3.6c1.8-1.9,4.5-0.9,5.9,0.3c0.6,0.5,0.5,1.1,0.2,1.7
		c-0.4,0.7-0.9,1.4-1.5,1.9c-2.4,2.2-4.8,4.3-7.2,6.5c-1.1,1-2.1,2.2-3,3.4c-0.6,0.7-0.7,1.6,0,2.4c0.7,0.8,1.5,0.8,2.4,0.4
		c1.2-0.5,2.3-1.2,3.5-1.7c1.1-0.5,2.2-0.8,3.3-1.1c1.2-0.3,2.1,0.1,2.5,1.1c0.4,1,0.2,1.9-1,2.5c-1.9,1-3.9,1.8-5.8,2.7
		c-2,0.9-4,1.8-6,2.6c-2.6,1.1-4.5,3-5.8,5.5c-2.3,4.8-4.5,9.7-6.8,14.5c-2.2,4.6-4.5,9.2-6.7,13.8c-1.5,3.2-4.2,4.9-7.6,5.4
		c-4.2,0.6-8.4,1.1-12.7,1.6C161.5,83.4,159.6,83.5,157.8,83.7z"/>
	<path d="M93,92.3c0.3,1.5,0.6,2.9,0.7,4.4c0.2,1.8,0.3,3.7,0.4,5.5c0.1,2-0.4,3.8-1.3,5.6c-2.4,4.9-5.3,9.5-8.9,13.7
		c-0.5,0.6-1.1,1.1-1.7,1.7c-1.3,1.2-2,1.2-3.5,0.2c-2.4-1.7-4.4-3.9-6.1-6.2c-3-4.3-6.4-8.2-10.2-11.8c-1.9-1.8-3.8-3.5-5.7-5.3
		c-0.5-0.4-1-0.6-1.7-0.5c-3.4,0.5-6.8,1-10.2,1.2c-2.8,0.2-2.7-1-2.8-3.2c0-1,0.7-1.4,1.6-1.6c2.1-0.5,4.2-0.4,6.4-0.1
		c1.5,0.2,3,0.3,4.4-0.7c0.7-0.5,0.7-1.1,0.2-1.7c-1.5-1.9-3.6-2.6-5.6-3.5c-2.3-0.9-4.5-1.9-6.7-3c-0.8-0.4-1.5-1.1-2.1-1.8
		c-0.6-0.7-0.8-1.5-0.3-2.4c0.4-0.8,1.1-1,1.9-1.1c1.6-0.1,2.7,0.7,3.9,1.6c2.1,1.6,4.2,3.2,6.3,4.7c0.7,0.5,1.4,0.8,2.2,1.1
		c2.4,0.8,4.7-1,4.2-3.5c-0.4-2-1.2-4-2-5.9c-1-2.3-2.1-4.5-2.5-7c-0.1-0.5-0.1-1.1-0.1-1.7c0.1-1.7,1.1-2.5,2.8-2.1
		c1.5,0.3,2.6,1.1,3.3,2.5c1.3,2.4,1.7,5.1,1.9,7.8c0.1,1.7,0.4,3.4,0.6,5.1c0.1,0.4,0.2,0.9,0.4,1.3c0.2,0.4,0.5,0.7,0.8,1
		c0.3-0.3,0.7-0.6,0.8-1c0.6-1.5,1.1-3,1.8-4.5c0.7-1.5,1.6-2.8,2.5-4.2c0.5-0.7,1.3-1,2.2-0.7c0.9,0.3,1.1,1.2,1.1,2
		c0.1,2-0.3,4-1.3,5.8c-3.1,5.9-2.8,11.7,0.2,17.5c1.6,3.1,3.9,5.7,6.6,7.9c2.3,1.8,3.5,1.7,5.1-0.7c2.5-3.7,4.8-7.6,7.2-11.4
		c1-1.6,2-3.2,2.9-4.9C92.8,92.3,92.9,92.3,93,92.3z"/>
	<path d="M137.9,47c0.1-1.5,0.2-2.5,0.2-3.5c0-0.7,0.4-0.9,1-0.9c1.9-0.1,3.6,0.9,4.3,2.7c0.5,1.5,1,3,1.1,4.6c0.2,2.3,0,4.6-0.1,7
		c0,1-0.3,1.1-1.2,0.7c-2.5-1.3-4.3-3.2-4.8-6.1C138,49.8,138,48.2,137.9,47z"/>
	<path d="M90.9,76.5c-0.2,0.6-0.4,1.3-0.7,2.1c-0.6-0.3-1.3-0.5-1.9-0.9c-3.1-1.8-6-4-7.9-7.2c-0.9-1.5-0.6-3.8,0.7-5
		c0.2-0.2,0.6-0.2,0.8-0.1c2.7,1.6,5.3,3.3,7.4,5.7C90.4,72.6,90.5,74.5,90.9,76.5z"/>
</g>
</svg>
