<!-- Generated by IcoMoon.io -->
<svg version="1.1" xmlns="http://www.w3.org/2000/svg" width="32" height="32" viewBox="0 0 32 32">
<title>WABI</title>
<path d="M20.416 17.651c0.013 1.178-0.205 2.202-0.589 3.187-0.346 0.87-1.024 1.318-1.92 1.472-0.768 0.128-1.421-0.141-1.984-0.627-0.934-0.819-1.51-1.843-1.715-3.072-0.102-0.653-0.051-1.293 0.077-1.933 0.115-0.576 0.166-1.165 0.141-1.754 0-0.090-0.051-0.179-0.102-0.256-0.218-0.269-0.422-0.538-0.666-0.794-0.781-0.832-1.408-1.766-1.894-2.803-0.064-0.128-0.102-0.269-0.154-0.41-0.051-0.154-0.038-0.294 0.013-0.448 0.115-0.32 0.128-0.666 0.051-0.998-0.051-0.23-0.218-0.384-0.397-0.512-0.154-0.102-0.32-0.205-0.486-0.294-0.307-0.179-0.397-0.397-0.269-0.73 0.090-0.23 0.205-0.448 0.307-0.666 0.102-0.192 0.269-0.32 0.461-0.422 0.896-0.499 1.792-0.986 2.803-1.19 0.563-0.115 1.114-0.23 1.677-0.307 0.32-0.051 0.64-0.038 0.96 0.064 0.384 0.128 0.602 0.384 0.653 0.781 0.038 0.307 0.077 0.602 0.128 0.909 0.051 0.358 0.243 0.614 0.602 0.73 0.166 0.051 0.333 0.128 0.499 0.192 0.154 0.051 0.256 0.154 0.294 0.307 0.064 0.282 0.141 0.563 0.179 0.845 0.090 0.653 0.179 1.318 0.256 1.971 0.064 0.499 0.102 0.986 0.154 1.485 0.064 0.563 0.141 1.114 0.218 1.664 0.090 0.64 0.269 1.254 0.448 1.869 0.205 0.589 0.282 1.216 0.256 1.741z"></path>
<path d="M4.595 24.269c0.013-0.102 0.038-0.166 0.026-0.243-0.077-0.486-0.166-0.973-0.256-1.459-0.064-0.333-0.141-0.653-0.205-0.986-0.026-0.115-0.013-0.256 0.013-0.371 0.038-0.192 0.192-0.282 0.461-0.294 0.090 0 0.192 0.013 0.282 0.026s0.154 0.077 0.166 0.179c0.038 0.346 0.090 0.678 0.128 1.024 0.064 0.614 0.128 1.229 0.205 1.856 0.038 0.333 0.256 0.55 0.55 0.704 0.115 0.064 0.205 0.026 0.256-0.128 0.051-0.179 0.077-0.358 0.102-0.538 0.051-0.371 0.077-0.73 0.128-1.101 0.013-0.102 0.077-0.192 0.128-0.282 0.102-0.166 0.243-0.23 0.41-0.192 0.205 0.038 0.307 0.141 0.346 0.346 0.051 0.307-0.026 0.589-0.128 0.883-0.205 0.64-0.346 1.306-0.307 1.984 0.051 0.819 0.218 1.626 0.576 2.368 0.038 0.090 0.102 0.179 0.166 0.256 0.038 0.038 0.102 0.064 0.154 0.064 0.026 0 0.064-0.090 0.064-0.128 0.013-0.141 0.026-0.282 0.026-0.41 0.013-0.525 0.026-1.050 0.026-1.574 0.013-0.973 0.013-1.946 0.026-2.918 0.013-0.486 0.013-0.973 0.154-1.434 0.051-0.179 0.128-0.371 0.192-0.55 0.090-0.243 0.282-0.384 0.525-0.397 0.448-0.026 0.909-0.026 1.357-0.013 0.282 0 0.55 0.026 0.832 0.051 0.486 0.051 0.96 0.090 1.434 0.154 0.512 0.064 1.037 0.141 1.536 0.23 0.358 0.064 0.704 0.154 1.050 0.256 0.141 0.038 0.282 0.141 0.397 0.243 0.154 0.128 0.141 0.243-0.038 0.346-0.102 0.051-0.205 0.102-0.307 0.141-0.896 0.294-1.792 0.563-2.726 0.704-0.755 0.115-1.498 0.077-2.24-0.077-0.179-0.038-0.371-0.064-0.563-0.090-0.077-0.013-0.115 0.026-0.102 0.102 0.038 0.179 0.077 0.358 0.128 0.538 0.166 0.576 0.102 1.152-0.064 1.715-0.205 0.678-0.435 1.357-0.627 2.035-0.154 0.538-0.282 1.088-0.41 1.626-0.064 0.243-0.090 0.499-0.166 0.73-0.077 0.282-0.346 0.371-0.576 0.192-0.179-0.154-0.346-0.333-0.486-0.525-0.512-0.678-1.088-1.28-1.766-1.792-0.384-0.294-0.832-0.41-1.28-0.525-0.576-0.154-1.165-0.307-1.754-0.461-0.141-0.038-0.282-0.115-0.41-0.179-0.090-0.051-0.154-0.115-0.128-0.23 0.038-0.102 0.128-0.128 0.218-0.128 0.294 0.013 0.589 0.026 0.883 0.038 0.102 0 0.205 0 0.307-0.013 0.115-0.013 0.141-0.102 0.064-0.192-0.154-0.179-0.307-0.358-0.486-0.499-0.653-0.55-1.395-0.96-2.189-1.28-0.192-0.077-0.384-0.166-0.563-0.282-0.256-0.154-0.256-0.422 0-0.602 0.218-0.154 0.384-0.166 0.602-0.013 0.384 0.282 0.755 0.602 1.139 0.87 0.282 0.192 0.576 0.371 0.87 0.538 0.102 0.051 0.23 0.064 0.358 0.064 0.141 0 0.218-0.077 0.205-0.205-0.013-0.166-0.051-0.333-0.115-0.486-0.269-0.602-0.704-1.075-1.19-1.51-0.282-0.256-0.563-0.525-0.832-0.794-0.077-0.090-0.128-0.205-0.192-0.307 0.026-0.077 0.051-0.154 0.128-0.205 0.32-0.282 0.909-0.23 1.139 0.141 0.269 0.422 0.525 0.87 0.781 1.293 0.384 0.614 0.883 1.152 1.434 1.638 0.026 0.013 0.077 0.038 0.141 0.077z"></path>
<path d="M22.758 23.706c0.102-0.026 0.166-0.026 0.23-0.051 0.589-0.205 1.152-0.448 1.69-0.768 0.154-0.090 0.307-0.205 0.435-0.346 0.358-0.358 0.704-0.73 1.037-1.114 0.205-0.243 0.243-0.55 0.307-0.858 0.077-0.32 0.154-0.64 0.358-0.909 0.064-0.077 0.128-0.141 0.205-0.205 0.102-0.077 0.218-0.115 0.346-0.051 0.128 0.077 0.154 0.218 0.128 0.346-0.013 0.115-0.051 0.23-0.090 0.32-0.179 0.358-0.384 0.704-0.576 1.062-0.090 0.154-0.166 0.32-0.243 0.486-0.051 0.090 0 0.154 0.090 0.154 0.102 0 0.205 0 0.307-0.026 0.448-0.115 0.794-0.397 1.075-0.742 0.256-0.32 0.512-0.653 0.768-0.973 0.166-0.192 0.358-0.358 0.614-0.448 0.294-0.102 0.627 0.192 0.678 0.41 0.026 0.115-0.038 0.192-0.115 0.256-0.384 0.32-0.781 0.627-1.165 0.947-0.205 0.166-0.41 0.346-0.589 0.538-0.090 0.090-0.154 0.205-0.205 0.32-0.064 0.166 0.013 0.282 0.205 0.269 0.358-0.013 0.691-0.128 1.024-0.243 0.512-0.205 1.024-0.422 1.536-0.627 0.218-0.077 0.448-0.128 0.666-0.179 0.256-0.051 0.474 0.077 0.589 0.294 0.077 0.141 0.064 0.256-0.064 0.346-0.179 0.115-0.384 0.23-0.589 0.294-0.525 0.154-1.050 0.269-1.587 0.41-0.346 0.090-0.691 0.192-1.037 0.307-0.205 0.077-0.384 0.192-0.589 0.294 0.218 0.23 0.461 0.371 0.755 0.371 0.448 0 0.909 0.013 1.357 0.026 0.243 0.013 0.486 0.051 0.73 0.077 0.026 0 0.051 0.013 0.090 0.026 0.256 0.102 0.282 0.218 0.077 0.41-0.038 0.038-0.077 0.064-0.115 0.102-0.166 0.141-0.346 0.192-0.576 0.128-0.461-0.128-0.922-0.23-1.395-0.307-0.358-0.064-0.73-0.090-1.088-0.102-0.154-0.013-0.32 0.026-0.474 0.077-0.205 0.064-0.23 0.205-0.051 0.333 0.141 0.102 0.307 0.166 0.461 0.256 0.141 0.077 0.294 0.154 0.435 0.256 0.115 0.090 0.128 0.243 0.064 0.358-0.064 0.128-0.179 0.154-0.307 0.115-0.269-0.090-0.525-0.192-0.794-0.294-0.538-0.218-1.062-0.448-1.613-0.64-0.538-0.179-1.088-0.166-1.651-0.115-0.486 0.051-0.973 0.102-1.446 0.154-0.205 0.026-0.397 0.051-0.602 0.064-0.115 0.013-0.23 0-0.346-0.013-0.23-0.038-0.32-0.282-0.192-0.461 0.102-0.141 0.243-0.269 0.346-0.41 0.23-0.358 0.461-0.73 0.653-1.101 0.397-0.717 0.768-1.446 1.152-2.176 0.064-0.115 0.115-0.256 0.154-0.397-1.216 0.333-2.381 0.806-3.546 1.267-0.013-0.013-0.013-0.026-0.026-0.026 0.026-0.051 0.038-0.102 0.077-0.154 0.307-0.538 0.755-0.934 1.242-1.293 1.139-0.845 2.406-1.434 3.738-1.882 0.371-0.128 0.73-0.256 1.101-0.333 0.243-0.051 0.512-0.038 0.781-0.013 0.192 0.013 0.269 0.154 0.205 0.346-0.051 0.154-0.115 0.307-0.205 0.422-0.218 0.307-0.461 0.602-0.704 0.896-0.563 0.653-1.139 1.306-1.702 1.958-0.512 0.602-1.024 1.216-1.523 1.83-0.141 0.166-0.269 0.346-0.397 0.525-0.051 0.064-0.064 0.128-0.102 0.205z"></path>
<path d="M20.198 10.714c-0.371-0.013-0.371-0.013-0.448-0.371-0.077-0.371-0.141-0.755-0.218-1.139-0.013-0.090 0.013-0.115 0.102-0.115 0.87 0.013 1.728 0.090 2.534 0.435 0.115 0.051 0.23 0.128 0.333 0.192 0.141 0.090 0.205 0.064 0.256-0.090 0.077-0.256 0.141-0.512 0.218-0.768 0.269-0.845 0.666-1.651 1.062-2.432 0.192-0.371 0.282-0.768 0.218-1.19-0.038-0.218-0.038-0.448-0.077-0.678-0.064-0.422-0.294-0.768-0.589-1.088-0.077-0.090-0.154-0.192-0.23-0.282-0.102-0.128-0.077-0.269-0.013-0.41 0.038-0.090 0.218-0.115 0.32-0.026 0.141 0.102 0.256 0.23 0.371 0.358 0.128 0.141 0.23 0.294 0.371 0.435 0.128 0.128 0.243 0.102 0.282-0.090 0.038-0.218 0.064-0.435 0.077-0.666 0.026-0.32 0.026-0.64 0.064-0.96 0.013-0.115 0.102-0.23 0.192-0.333 0.077-0.090 0.192-0.154 0.32-0.090 0.141 0.064 0.243 0.179 0.23 0.333-0.013 0.166-0.051 0.333-0.090 0.512-0.077 0.435-0.141 0.883-0.038 1.331 0.051 0.23 0.154 0.269 0.346 0.141 0.294-0.192 0.499-0.474 0.678-0.768 0.102-0.166 0.218-0.32 0.346-0.461 0.23-0.243 0.576-0.115 0.755 0.038 0.077 0.064 0.064 0.141 0.026 0.218-0.051 0.090-0.115 0.179-0.192 0.243-0.307 0.282-0.614 0.55-0.922 0.832-0.141 0.128-0.269 0.282-0.384 0.435-0.077 0.090-0.090 0.205 0 0.307s0.192 0.102 0.307 0.051c0.154-0.064 0.294-0.154 0.448-0.218 0.141-0.064 0.282-0.102 0.422-0.141 0.154-0.038 0.269 0.013 0.32 0.141s0.026 0.243-0.128 0.32c-0.243 0.128-0.499 0.23-0.742 0.346-0.256 0.115-0.512 0.23-0.768 0.333-0.333 0.141-0.576 0.384-0.742 0.704-0.294 0.614-0.576 1.242-0.87 1.856-0.282 0.589-0.576 1.178-0.858 1.766-0.192 0.41-0.538 0.627-0.973 0.691-0.538 0.077-1.075 0.141-1.626 0.205-0.218 0.051-0.461 0.064-0.691 0.090z"></path>
<path d="M11.904 11.814c0.038 0.192 0.077 0.371 0.090 0.563 0.026 0.23 0.038 0.474 0.051 0.704 0.013 0.256-0.051 0.486-0.166 0.717-0.307 0.627-0.678 1.216-1.139 1.754-0.064 0.077-0.141 0.141-0.218 0.218-0.166 0.154-0.256 0.154-0.448 0.026-0.307-0.218-0.563-0.499-0.781-0.794-0.384-0.55-0.819-1.050-1.306-1.51-0.243-0.23-0.486-0.448-0.73-0.678-0.064-0.051-0.128-0.077-0.218-0.064-0.435 0.064-0.87 0.128-1.306 0.154-0.358 0.026-0.346-0.128-0.358-0.41 0-0.128 0.090-0.179 0.205-0.205 0.269-0.064 0.538-0.051 0.819-0.013 0.192 0.026 0.384 0.038 0.563-0.090 0.090-0.064 0.090-0.141 0.026-0.218-0.192-0.243-0.461-0.333-0.717-0.448-0.294-0.115-0.576-0.243-0.858-0.384-0.102-0.051-0.192-0.141-0.269-0.23s-0.102-0.192-0.038-0.307c0.051-0.102 0.141-0.128 0.243-0.141 0.205-0.013 0.346 0.090 0.499 0.205 0.269 0.205 0.538 0.41 0.806 0.602 0.090 0.064 0.179 0.102 0.282 0.141 0.307 0.102 0.602-0.128 0.538-0.448-0.051-0.256-0.154-0.512-0.256-0.755-0.128-0.294-0.269-0.576-0.32-0.896-0.013-0.064-0.013-0.141-0.013-0.218 0.013-0.218 0.141-0.32 0.358-0.269 0.192 0.038 0.333 0.141 0.422 0.32 0.166 0.307 0.218 0.653 0.243 0.998 0.013 0.218 0.051 0.435 0.077 0.653 0.013 0.051 0.026 0.115 0.051 0.166s0.064 0.090 0.102 0.128c0.038-0.038 0.090-0.077 0.102-0.128 0.077-0.192 0.141-0.384 0.23-0.576s0.205-0.358 0.32-0.538c0.064-0.090 0.166-0.128 0.282-0.090s0.141 0.154 0.141 0.256c0.013 0.256-0.038 0.512-0.166 0.742-0.397 0.755-0.358 1.498 0.026 2.24 0.205 0.397 0.499 0.73 0.845 1.011 0.294 0.23 0.448 0.218 0.653-0.090 0.32-0.474 0.614-0.973 0.922-1.459 0.128-0.205 0.256-0.41 0.371-0.627 0.013-0.013 0.026-0.013 0.038-0.013z"></path>
<path d="M17.651 6.016c0.013-0.192 0.026-0.32 0.026-0.448 0-0.090 0.051-0.115 0.128-0.115 0.243-0.013 0.461 0.115 0.55 0.346 0.064 0.192 0.128 0.384 0.141 0.589 0.026 0.294 0 0.589-0.013 0.896 0 0.128-0.038 0.141-0.154 0.090-0.32-0.166-0.55-0.41-0.614-0.781-0.051-0.218-0.051-0.422-0.064-0.576z"></path>
<path d="M11.635 9.792c-0.026 0.077-0.051 0.166-0.090 0.269-0.077-0.038-0.166-0.064-0.243-0.115-0.397-0.23-0.768-0.512-1.011-0.922-0.115-0.192-0.077-0.486 0.090-0.64 0.026-0.026 0.077-0.026 0.102-0.013 0.346 0.205 0.678 0.422 0.947 0.73 0.141 0.192 0.154 0.435 0.205 0.691z"></path>
</svg>
