<!-- Generated by IcoMoon.io -->
<svg version="1.1" xmlns="http://www.w3.org/2000/svg" width="32" height="32" viewBox="0 0 32 32">
<title>WAN</title>
<path d="M1.975 8.466c1.355 0.55 2.582 1.002 3.753 1.566 0.226 0.099 0.367 0.593 0.367 0.917 0.028 2.667 0.014 5.319 0.028 7.986 0 0.268 0 0.55 0 0.988 0.776-0.437 1.425-0.79 2.060-1.171 2.314-1.369 4.642-2.709 6.928-4.106 0.649-0.395 1.129-0.339 1.764 0.042 2.653 1.608 5.347 3.161 8.028 4.741 0.24 0.141 0.494 0.24 0.861 0.423 0.014-0.437 0.042-0.762 0.056-1.086 0-2.582 0.028-5.15-0.014-7.732-0.014-0.677 0.226-1.002 0.861-1.227 1.072-0.381 2.116-0.847 3.287-1.326 0 6.208 0 12.275 0 18.511-0.974-0.55-1.834-1.044-2.695-1.538-3.598-2.116-7.182-4.233-10.808-6.307-0.282-0.155-0.832-0.099-1.129 0.071-3.443 1.989-6.857 4.021-10.286 6.025-0.974 0.578-1.961 1.129-3.076 1.764 0.014-6.25 0.014-12.303 0.014-18.54z"></path>
<path d="M29.432 7.774c-1.101 0.466-2.088 0.931-3.118 1.27-0.339 0.113-0.832-0.056-1.171-0.24-2.808-1.58-5.601-3.189-8.367-4.825-0.593-0.353-1.044-0.353-1.608-0.014-2.723 1.58-5.474 3.132-8.198 4.741-0.607 0.353-1.157 0.48-1.806 0.169-0.832-0.395-1.693-0.72-2.709-1.143 0.804-0.494 1.467-0.931 2.145-1.326 3.556-2.060 7.139-4.106 10.695-6.166 0.409-0.24 0.762-0.353 1.227-0.071 4.205 2.441 8.437 4.868 12.656 7.309 0.056 0.028 0.099 0.113 0.254 0.296z"></path>
<path d="M26.61 26.060c-1.566 0.917-2.935 1.735-4.303 2.54-1.891 1.086-3.781 2.187-5.7 3.231-0.31 0.169-0.861 0.24-1.143 0.085-3.287-1.862-6.547-3.767-9.806-5.672-0.071-0.042-0.113-0.127-0.24-0.282 0.974-0.55 1.891-1.129 2.85-1.594 0.183-0.099 0.578 0.113 0.832 0.254 2.074 1.171 4.134 2.356 6.18 3.57 0.494 0.282 0.889 0.296 1.397 0 2.074-1.227 4.176-2.399 6.25-3.612 0.466-0.282 0.847-0.282 1.312 0.014 0.72 0.48 1.467 0.903 2.37 1.467z"></path>
</svg>
