<?xml version="1.0" encoding="utf-8"?>
<!-- Generator: Adobe Illustrator 22.1.0, SVG Export Plug-In . SVG Version: 6.00 Build 0)  -->
<svg version="1.1" id="Layer_1" xmlns="http://www.w3.org/2000/svg" xmlns:xlink="http://www.w3.org/1999/xlink" x="0px" y="0px"
	 viewBox="0 0 226.8 226.8" style="enable-background:new 0 0 226.8 226.8;" xml:space="preserve">
<g>
	<path d="M14,60c9.6,3.9,18.3,7.1,26.6,11.1c1.6,0.7,2.6,4.2,2.6,6.5c0.2,18.9,0.1,37.7,0.2,56.6c0,1.9,0,3.9,0,7
		c5.5-3.1,10.1-5.6,14.6-8.3c16.4-9.7,32.9-19.2,49.1-29.1c4.6-2.8,8-2.4,12.5,0.3c18.8,11.4,37.9,22.4,56.9,33.6
		c1.7,1,3.5,1.7,6.1,3c0.1-3.1,0.3-5.4,0.4-7.7c0-18.3,0.2-36.5-0.1-54.8c-0.1-4.8,1.6-7.1,6.1-8.7c7.6-2.7,15-6,23.3-9.4
		c0,44,0,87,0,131.2c-6.9-3.9-13-7.4-19.1-10.9c-25.5-15-50.9-30-76.6-44.7c-2-1.1-5.9-0.7-8,0.5c-24.4,14.1-48.6,28.5-72.9,42.7
		c-6.9,4.1-13.9,8-21.8,12.5C14,147.1,14,104.2,14,60z"/>
	<path d="M208.6,55.1c-7.8,3.3-14.8,6.6-22.1,9c-2.4,0.8-5.9-0.4-8.3-1.7c-19.9-11.2-39.7-22.6-59.3-34.2c-4.2-2.5-7.4-2.5-11.4-0.1
		C88.2,39.3,68.7,50.3,49.4,61.7c-4.3,2.5-8.2,3.4-12.8,1.2c-5.9-2.8-12-5.1-19.2-8.1c5.7-3.5,10.4-6.6,15.2-9.4
		c25.2-14.6,50.6-29.1,75.8-43.7c2.9-1.7,5.4-2.5,8.7-0.5c29.8,17.3,59.8,34.5,89.7,51.8C207.2,53.2,207.5,53.8,208.6,55.1z"/>
	<path d="M188.6,184.7c-11.1,6.5-20.8,12.3-30.5,18c-13.4,7.7-26.8,15.5-40.4,22.9c-2.2,1.2-6.1,1.7-8.1,0.6
		C86.3,213,63.2,199.5,40.1,186c-0.5-0.3-0.8-0.9-1.7-2c6.9-3.9,13.4-8,20.2-11.3c1.3-0.7,4.1,0.8,5.9,1.8
		c14.7,8.3,29.3,16.7,43.8,25.3c3.5,2,6.3,2.1,9.9,0c14.7-8.7,29.6-17,44.3-25.6c3.3-2,6-2,9.3,0.1
		C176.9,177.7,182.2,180.7,188.6,184.7z"/>
</g>
</svg>
