<!-- Generated by IcoMoon.io -->
<svg version="1.1" xmlns="http://www.w3.org/2000/svg" width="32" height="32" viewBox="0 0 32 32">
<title>WAVESDEX</title>
<path d="M26.441 8.959l-7.944-7.944c-1.383-1.383-3.612-1.383-4.981 0l-7.915 7.929c-0.466 0.466-0.466 1.199 0 1.665l2.399 2.399 1.594 1.481c0.48 0.437 1.199 0.437 1.679 0l3.203-2.963c0.889-0.818 2.229-0.818 3.104 0l3.203 2.963c0.48 0.437 1.199 0.437 1.679 0l1.594-1.481 2.399-2.384c0.437-0.451 0.437-1.199-0.014-1.665z"></path>
<path d="M1.072 18.455l12.43 12.444c1.383 1.383 3.612 1.383 4.981 0l12.43-12.43c2.159-2.159 0.635-2.794-0.945-4.289l-1.947-1.848c-0.466-0.451-1.199-0.437-1.679 0l-3.203 2.963c-0.889 0.818-2.229 0.818-3.104 0l-3.203-2.963c-0.48-0.437-1.199-0.437-1.679 0l-3.203 2.963c-0.889 0.818-2.229 0.818-3.104 0l-3.203-2.963c-0.48-0.437-1.199-0.437-1.679 0l-1.764 1.651c-1.651 1.524-3.372 2.215-1.129 4.473z"></path>
</svg>
