<?xml version="1.0" encoding="utf-8"?>
<!-- Generator: Adobe Illustrator 22.0.1, SVG Export Plug-In . SVG Version: 6.00 Build 0)  -->
<svg version="1.1" id="Layer_1" xmlns="http://www.w3.org/2000/svg" xmlns:xlink="http://www.w3.org/1999/xlink" x="0px" y="0px"
	 viewBox="0 0 250 250" style="enable-background:new 0 0 250 250;" xml:space="preserve">
<style type="text/css">
	.st0{display:none;stroke:#FFFFFF;stroke-miterlimit:10;}
	.st1{stroke:#FFFFFF;stroke-miterlimit:10;}
</style>
<g transform="translate(-1.3-1)">
	<path class="st0" d="M1.3,1.4h246.1v246.1H1.3V1.4z"/>
</g>
<path class="st1" d="M146.9,88c8.1-0.1,16.3-0.1,24.4,0c4.1,3.1,7.9,6.7,11.9,9.9c22.1,18.6,44.2,37.3,66.3,55.9
	c-6.1,0.2-12.2,0-18.3,0.1c-2.1-0.1-4.2,0.1-6.3-0.1c-2.5-1.7-4.6-3.8-6.9-5.6c-3.5-3-7-5.9-10.5-8.9c-6,4.7-11.6,9.9-17.6,14.5
	c-6.8,0.1-13.6,0.1-20.5,0c-1.2-0.9-2-2.3-3-3.4c-2.4-2.7-4.7-5.6-7-8.3c-11.3-0.1-22.7,0-34-0.1c0.4-0.9,1-1.7,1.6-2.5
	c2.3-2.6,4.4-5.3,6.7-7.8c5.6,0,11.2,0.1,16.7,0c-4.1-5.3-8.6-10.2-12.7-15.4c-8.6,10.5-17.6,20.8-26.3,31.3
	c-5.9,6.9-11.7,13.9-17.6,20.8c-0.6,0.6-1,1.5-2,1.3c-6.6-0.1-13.3,0.1-19.9-0.1c4.6-5.1,8.8-10.5,13.3-15.7
	c-7.2-0.2-14.5,0.1-21.8-0.1c-1.8-4.1-3.1-8.4-4.7-12.6c-2.4-6.3-4.5-12.8-7.1-19.1c-2.2,6.1-4.4,12.2-6.6,18.3
	c-1.5,3.9-3,7.7-4.2,11.7c-0.4,0.7-0.4,2-1.4,1.8c-7.1,0-14.3,0-21.4,0c-0.1-0.1-0.3-0.4-0.4-0.6C12,136.7,5.9,120.3,0,103.7
	c5.6,0,11.1,0,16.7,0c2.5,5.7,4.2,11.6,6.5,17.3c1.9,5.6,4,11.1,6,16.7c4.1-10.8,8-21.8,12-32.6c0.3-0.5,0.4-1.6,1.2-1.4
	c6.7,0,13.4-0.1,20,0c4,11.3,8.3,22.5,12.2,33.9c1.5-2.8,2.2-5.9,3.4-8.7c2.6-7.2,5.2-14.3,7.8-21.4c0.5-1.2,0.7-2.8,1.7-3.7
	c5.4-0.1,10.9,0,16.3,0c-0.1,1.5-0.8,2.8-1.2,4.1c-4.9,13.5-9.8,26.9-14.7,40.4c-0.4,0.9-0.5,1.8-0.6,2.8c1.8-0.9,2.8-2.7,4.1-4.2
	c12.1-14.4,24.2-28.7,36.3-43.1c6.8,0,13.7-0.1,20.5,0.1c3.7,3.8,6.8,8,10.2,11.9c7,8.6,14.4,17,21.3,25.6c1.2-0.2,1.9-1.3,2.9-2
	c4-3.2,7.7-6.6,11.7-9.7c0.4-0.3,0.6-0.7,0.8-1c-4-3.1-7.8-6.6-11.8-9.8c-9-7.6-18-15.2-27-22.8C153.2,93.3,149.9,90.8,146.9,88"/>
<path class="st1" d="M218.7,109.6c1.9-1.7,3.8-3.4,5.8-4.9c7.8-0.2,15.7,0,23.5-0.1c-7.4,6.7-15.3,12.8-22.8,19.4
	c-3.2-3.5-7.3-6-10.7-9.3c-0.4-0.3-0.6-0.9-0.3-1.3C215.6,111.9,217.3,110.9,218.7,109.6"/>
</svg>
