<!-- Generated by IcoMoon.io -->
<svg version="1.1" xmlns="http://www.w3.org/2000/svg" width="32" height="32" viewBox="0 0 32 32">
<title>WAX</title>
<path d="M18.803 11.264c1.037-0.013 2.086-0.013 3.123 0 0.525 0.397 1.011 0.858 1.523 1.267 2.829 2.381 5.658 4.774 8.486 7.155-0.781 0.026-1.562 0-2.342 0.013-0.269-0.013-0.538 0.013-0.806-0.013-0.32-0.218-0.589-0.486-0.883-0.717-0.448-0.384-0.896-0.755-1.344-1.139-0.768 0.602-1.485 1.267-2.253 1.856-0.87 0.013-1.741 0.013-2.624 0-0.154-0.115-0.256-0.294-0.384-0.435-0.307-0.346-0.602-0.717-0.896-1.062-1.446-0.013-2.906 0-4.352-0.013 0.051-0.115 0.128-0.218 0.205-0.32 0.294-0.333 0.563-0.678 0.858-0.998 0.717 0 1.434 0.013 2.138 0-0.525-0.678-1.101-1.306-1.626-1.971-1.101 1.344-2.253 2.662-3.366 4.006-0.755 0.883-1.498 1.779-2.253 2.662-0.077 0.077-0.128 0.192-0.256 0.166-0.845-0.013-1.702 0.013-2.547-0.013 0.589-0.653 1.126-1.344 1.702-2.010-0.922-0.026-1.856 0.013-2.79-0.013-0.23-0.525-0.397-1.075-0.602-1.613-0.307-0.806-0.576-1.638-0.909-2.445-0.282 0.781-0.563 1.562-0.845 2.342-0.192 0.499-0.384 0.986-0.538 1.498-0.051 0.090-0.051 0.256-0.179 0.23-0.909 0-1.83 0-2.739 0-0.013-0.013-0.038-0.051-0.051-0.077-0.717-2.125-1.498-4.224-2.253-6.349 0.717 0 1.421 0 2.138 0 0.32 0.73 0.538 1.485 0.832 2.214 0.243 0.717 0.512 1.421 0.768 2.138 0.525-1.382 1.024-2.79 1.536-4.173 0.038-0.064 0.051-0.205 0.154-0.179 0.858 0 1.715-0.013 2.56 0 0.512 1.446 1.062 2.88 1.562 4.339 0.192-0.358 0.282-0.755 0.435-1.114 0.333-0.922 0.666-1.83 0.998-2.739 0.064-0.154 0.090-0.358 0.218-0.474 0.691-0.013 1.395 0 2.086 0-0.013 0.192-0.102 0.358-0.154 0.525-0.627 1.728-1.254 3.443-1.882 5.171-0.051 0.115-0.064 0.23-0.077 0.358 0.23-0.115 0.358-0.346 0.525-0.538 1.549-1.843 3.098-3.674 4.646-5.517 0.87 0 1.754-0.013 2.624 0.013 0.474 0.486 0.87 1.024 1.306 1.523 0.896 1.101 1.843 2.176 2.726 3.277 0.154-0.026 0.243-0.166 0.371-0.256 0.512-0.41 0.986-0.845 1.498-1.242 0.051-0.038 0.077-0.090 0.102-0.128-0.512-0.397-0.998-0.845-1.51-1.254-1.152-0.973-2.304-1.946-3.456-2.918-0.397-0.358-0.819-0.678-1.203-1.037"></path>
<path d="M27.994 14.029c0.243-0.218 0.486-0.435 0.742-0.627 0.998-0.026 2.010 0 3.008-0.013-0.947 0.858-1.958 1.638-2.918 2.483-0.41-0.448-0.934-0.768-1.37-1.19-0.051-0.038-0.077-0.115-0.038-0.166 0.179-0.192 0.397-0.32 0.576-0.486"></path>
</svg>
