<!-- Generated by IcoMoon.io -->
<svg version="1.1" xmlns="http://www.w3.org/2000/svg" width="32" height="32" viewBox="0 0 32 32">
<title>WCT</title>
<path d="M6.49 12.176c0.423 0 0.832 0.014 1.256 0 0.381-0.014 0.621 0.155 0.748 0.508 0.31 0.861 0.635 1.735 0.959 2.596 0.381 1.030 0.762 2.060 1.143 3.090 0.056 0.141 0.113 0.198 0.282 0.155 0.381-0.113 0.762-0.198 1.129-0.31 0.085-0.028 0.169-0.113 0.198-0.198 0.451-1.199 0.903-2.399 1.354-3.598 0.226-0.578 0.423-1.171 0.649-1.764 0.155-0.423 0.254-0.48 0.705-0.48 0.677 0 1.369 0 2.046 0 0.395 0 0.578 0.113 0.72 0.494 0.48 1.27 0.945 2.526 1.425 3.795 0.127 0.353 0.085 0.367 0.508 0.325 0.734-0.085 1.467-0.169 2.201-0.24 0.141-0.014 0.212-0.085 0.254-0.212 0.423-1.157 0.847-2.328 1.256-3.485 0.113-0.325 0.31-0.55 0.621-0.705 0.945-0.437 1.891-0.875 2.836-1.312 0.339-0.155 0.607-0.085 0.818 0.24 0.437 0.663 0.861 1.326 1.27 1.989 0.282 0.466 0.296 0.649-0.226 0.917-0.663 0.339-1.312 0.691-1.975 1.058-0.113 0.056-0.198 0.169-0.254 0.282-0.113 0.254-0.212 0.536-0.296 0.804-0.071 0.226-0.056 0.254 0.183 0.268 0.466 0.028 0.945 0.042 1.411 0.085 1.044 0.099 2.088 0.226 3.062 0.663 0.296 0.141 0.593 0.31 0.847 0.536 0.48 0.423 0.522 1.030 0.183 1.58-0.353 0.564-0.847 0.974-1.383 1.355-1.242 0.889-2.624 1.51-4.021 2.088-2.356 0.945-4.783 1.679-7.266 2.243-1.34 0.31-2.681 0.564-4.021 0.832-0.578 0.113-1.171 0.183-1.75 0.282-0.071 0.014-0.155 0.085-0.198 0.155-0.071 0.113-0.113 0.254-0.169 0.381-0.127 0.254-0.325 0.409-0.593 0.494-0.593 0.169-1.185 0.367-1.778 0.536-0.31 0.099-0.451 0.056-0.607-0.226-0.113-0.198-0.198-0.423-0.268-0.649-0.085-0.268-0.099-0.296-0.381-0.282-0.621 0-1.185 0.056-1.764 0.056-1.016 0-2.032 0-3.048-0.042-1.002-0.056-2.004-0.169-2.949-0.536-0.367-0.141-0.734-0.31-1.058-0.536-0.621-0.437-0.72-1.086-0.31-1.735 0.325-0.508 0.762-0.889 1.242-1.242 1.228-0.889 2.596-1.538 3.993-2.102 0.466-0.183 0.945-0.367 1.411-0.55 0.155-0.056 0.198-0.127 0.141-0.296-0.649-1.75-1.284-3.513-1.933-5.263-0.155-0.423-0.325-0.847-0.466-1.284-0.198-0.55-0.028-0.776 0.55-0.776 0.437 0.014 0.875 0.014 1.312 0.014 0 0 0 0 0 0zM0.847 24.494c-0.028 0.296 0.127 0.536 0.367 0.705 0.254 0.169 0.522 0.325 0.79 0.423 0.72 0.268 1.481 0.395 2.258 0.451 0.691 0.056 1.383 0.113 2.074 0.099 0.945-0.014 1.891-0.085 2.836-0.127 0.24-0.014 0.254-0.028 0.169-0.254-0.649-1.764-1.298-3.527-1.947-5.291-0.085-0.24-0.085-0.24-0.325-0.155-1.481 0.536-2.921 1.171-4.275 1.989-0.578 0.353-1.115 0.734-1.552 1.256-0.212 0.254-0.409 0.522-0.395 0.903zM23.478 23.111c0.085-0.028 0.141-0.042 0.198-0.056 1.129-0.437 2.272-0.847 3.386-1.326 1.086-0.451 2.116-1.002 3.048-1.75 0.395-0.31 0.762-0.649 0.974-1.115 0.169-0.381 0.113-0.72-0.183-1.030-0.31-0.31-0.705-0.48-1.115-0.607-1.185-0.367-2.399-0.423-3.626-0.466-0.31-0.014-0.296 0-0.409 0.296-0.593 1.594-1.185 3.189-1.792 4.783-0.155 0.423-0.31 0.832-0.48 1.27zM13.347 25.538c0.437-0.071 0.804-0.113 1.157-0.183 1.143-0.226 2.286-0.466 3.429-0.691 0.155-0.028 0.183-0.099 0.127-0.24-0.198-0.508-0.381-1.016-0.564-1.524-0.494-1.326-0.988-2.653-1.481-3.979-0.028-0.071-0.071-0.141-0.127-0.254-0.847 2.314-1.679 4.571-2.54 6.871zM20.515 20.261c0.014 0 0.042 0 0.056 0 0.395-1.072 0.79-2.145 1.199-3.217-0.014-0.014-0.028-0.042-0.042-0.056-0.762 0.099-1.524 0.183-2.328 0.282 0.367 1.030 0.748 2.018 1.115 2.991zM11.866 18.892c-0.014-0.014-0.028-0.042-0.042-0.056-0.282 0.085-0.578 0.155-0.861 0.254-0.028 0.014-0.056 0.113-0.042 0.169 0.071 0.212 0.141 0.423 0.226 0.621 0.042 0.127 0.099 0.254 0.155 0.367 0.014 0 0.042 0 0.056 0 0.169-0.451 0.339-0.903 0.508-1.355z"></path>
<path d="M29.799 6.42c-0.014 1.115-0.748 2.046-1.834 2.3-1.016 0.24-2.131-0.268-2.61-1.228-0.085-0.169-0.155-0.198-0.339-0.141-1.044 0.367-2.102 0.72-3.16 1.072-0.141 0.042-0.198 0.113-0.183 0.268 0.056 0.522-0.226 1.044-0.705 1.284-0.466 0.24-1.058 0.169-1.439-0.155-0.423-0.353-0.578-0.917-0.395-1.425 0.071-0.198 0.028-0.282-0.141-0.395-0.635-0.423-1.256-0.861-1.862-1.298-0.141-0.099-0.226-0.113-0.381 0-0.31 0.254-0.776 0.268-1.129 0.028-0.113-0.085-0.183-0.071-0.296 0.014-0.945 0.79-1.877 1.58-2.822 2.37-0.423 0.353-0.832 0.705-1.256 1.058-0.099 0.071-0.127 0.155-0.099 0.282 0.056 0.24-0.042 0.437-0.24 0.564-0.183 0.127-0.395 0.141-0.593 0.014s-0.325-0.31-0.268-0.536c0.042-0.183-0.056-0.24-0.155-0.325-1.058-0.762-2.13-1.566-3.217-2.37-0.282-0.212-0.564-0.423-0.847-0.635-0.113-0.085-0.183-0.099-0.31-0.014-0.381 0.268-0.847 0.226-1.171-0.085s-0.381-0.776-0.155-1.157c0.24-0.395 0.734-0.564 1.171-0.367 0.409 0.183 0.649 0.663 0.522 1.101-0.056 0.183-0.014 0.268 0.127 0.367 1.312 0.974 2.638 1.961 3.951 2.935 0.056 0.042 0.113 0.099 0.183 0.141 0.056 0.028 0.155 0.042 0.198 0.014 0.183-0.085 0.353-0.071 0.536-0.014 0.071 0.014 0.169 0 0.212-0.042 1.354-1.143 2.723-2.286 4.078-3.414 0.127-0.113 0.169-0.198 0.099-0.367-0.169-0.381-0.042-0.861 0.282-1.115 0.353-0.282 0.847-0.325 1.185-0.085 0.395 0.268 0.564 0.705 0.423 1.143-0.056 0.141-0.014 0.226 0.113 0.31 0.649 0.437 1.298 0.889 1.933 1.34 0.127 0.099 0.212 0.113 0.353-0.014 0.593-0.536 1.496-0.409 1.961 0.282 0.085 0.141 0.169 0.155 0.31 0.099 1.058-0.367 2.116-0.734 3.175-1.086 0.141-0.042 0.198-0.099 0.169-0.268-0.226-1.27 0.55-2.483 1.778-2.765 1.453-0.353 2.864 0.776 2.85 2.314zM27.443 7.168c0.437 0 0.776-0.339 0.762-0.762 0-0.423-0.339-0.762-0.762-0.762s-0.776 0.339-0.776 0.762c0.014 0.437 0.339 0.762 0.776 0.762zM4.981 6.688c0.169 0 0.296-0.113 0.296-0.268s-0.127-0.296-0.282-0.296c-0.169 0-0.282 0.113-0.296 0.282 0 0.155 0.113 0.282 0.282 0.282z"></path>
</svg>
