<!-- Generated by IcoMoon.io -->
<svg version="1.1" xmlns="http://www.w3.org/2000/svg" width="32" height="32" viewBox="0 0 32 32">
<title>WEX_EXCHANGE</title>
<path d="M31.464 9.326c-0.607-0.141-1.044-0.24-1.58-0.367-0.169 0.522-0.353 1.030-0.508 1.538-0.776 2.526-1.552 5.065-2.314 7.591-0.945 3.118-1.862 6.236-2.808 9.354-0.423 1.397-0.875 2.78-1.298 4.162-0.099 0.325-0.31 0.381-0.593 0.381-0.889 0-1.778 0-2.667 0-0.804 0-1.623-0.014-2.427 0-0.367 0-0.536-0.127-0.635-0.48-0.423-1.58-0.861-3.16-1.326-4.727-0.353-1.171-0.762-2.328-1.185-3.626-0.099 0.451-0.169 0.79-0.24 1.129-0.48 2.384-0.945 4.755-1.425 7.139-0.113 0.564-0.141 0.578-0.72 0.578-1.665 0-3.316 0-4.981 0-0.55 0-0.55-0.014-0.72-0.536-0.889-2.822-1.764-5.63-2.653-8.451-0.832-2.681-1.651-5.376-2.483-8.056-0.085-0.268-0.113-0.536-0.198-0.875 0.296-0.014 0.508-0.042 0.72-0.042 1.58 0 3.16 0 4.741 0 0.663 0 0.663 0.014 0.861 0.677 0.847 2.765 1.707 5.531 2.554 8.282 0.014 0.056 0.056 0.085 0.155 0.24 0.113-0.578 0.212-1.072 0.31-1.552 0.325-1.58 0.649-3.16 0.974-4.741 0.169-0.776 0.339-1.538 0.522-2.3 0.141-0.578 0.183-0.593 0.79-0.607 1.453 0 2.907 0 4.374 0 0.621 0 0.621 0.014 0.79 0.593 0.832 2.751 1.679 5.489 2.526 8.226 0.014 0.056 0.042 0.113 0.085 0.212 0.621-2.596 1.185-5.164 1.834-7.704 0.663-2.554 1.411-5.079 2.131-7.69-0.635-0.169-1.185-0.31-1.877-0.494 2.37-2.427 4.684-4.698 7.069-7.083 0.127 0.353 0.24 0.578 0.296 0.818 0.508 2.286 1.016 4.571 1.524 6.871 0.127 0.451 0.24 0.917 0.381 1.538z"></path>
</svg>
