<?xml version="1.0" encoding="utf-8"?>
<!-- Generator: Adobe Illustrator 22.1.0, SVG Export Plug-In . SVG Version: 6.00 Build 0)  -->
<svg version="1.1" id="Layer_1" xmlns="http://www.w3.org/2000/svg" xmlns:xlink="http://www.w3.org/1999/xlink" x="0px" y="0px"
	 viewBox="0 0 226.8 226.8" style="enable-background:new 0 0 226.8 226.8;" xml:space="preserve">
<g>
	<path d="M81.3,188.1c-1.5,0-3,0-4.5,0c-2.2-2.3-4.9-4.2-6.5-6.9c-7.4-12.3-14.5-24.8-21.7-37.2C32.8,116.5,16.9,88.9,1.1,61.4
		c0-1.2,0-2.5,0-3.8c2.2-5.2,6.2-6.8,11.6-6.8c21,0.2,42,0.1,63,0.1c5.8,0,9.9,2.2,12.8,7.4c7.5,13.4,15.2,26.7,22.8,40
		c0.6,1,1.3,2,2.2,3.3c0.8-1.3,1.4-2,1.9-2.9c7.7-13.3,15.4-26.5,22.9-40c3-5.4,7.1-7.9,13.3-7.8c20.7,0.1,41.5,0.2,62.2-0.1
		c5.7-0.1,10,1.4,12.4,6.8c0,1.2,0,2.5,0,3.8c-0.7,1.3-1.3,2.7-2,3.9c-22.4,38.8-44.8,77.6-67.4,116.3c-1.5,2.5-4.2,4.4-6.3,6.5
		c-1.5,0-3,0-4.5,0c-2.3-2.3-5.1-4.4-6.7-7.1c-7.9-13.3-15.6-26.8-23.3-40.2c-0.6-1-1.3-2-2.2-3.4c-0.9,1.3-1.6,2.3-2.2,3.4
		c-7.8,13.4-15.4,26.9-23.3,40.1C86.4,183.7,83.6,185.8,81.3,188.1z M25,68.3c18.2,31.6,36,62.4,54,93.7c1-1.5,1.7-2.5,2.3-3.5
		c6.8-11.8,13.5-23.6,20.5-35.3c1.6-2.8,1.5-4.9-0.1-7.6C93.1,101,84.6,86.3,76.2,71.6c-1.5-2.6-3.3-3.6-6.3-3.6
		c-13.5,0.1-27,0.1-40.5,0.1C28.3,68.1,27.1,68.2,25,68.3z M201.9,68.5c-1.4-0.2-2.1-0.4-2.8-0.4c-14.4,0-28.7-0.2-43.1,0
		c-1.6,0-3.8,1.4-4.7,2.8c-8.9,15-17.5,30.2-26.3,45.4c-1.4,2.3-1.2,4.3,0.2,6.6c6.8,11.6,13.5,23.3,20.3,35c0.7,1.2,1.5,2.4,2.6,4
		C166.1,130.7,183.8,99.8,201.9,68.5z"/>
</g>
</svg>
