<!-- Generated by IcoMoon.io -->
<svg version="1.1" xmlns="http://www.w3.org/2000/svg" width="32" height="32" viewBox="0 0 32 32">
<title>WGR</title>
<path d="M11.471 26.54c-0.212 0-0.423 0-0.635 0-0.31-0.325-0.691-0.593-0.917-0.974-1.044-1.735-2.046-3.499-3.062-5.249-2.229-3.88-4.473-7.774-6.702-11.654 0-0.169 0-0.353 0-0.536 0.31-0.734 0.875-0.959 1.637-0.959 2.963 0.028 5.926 0.014 8.889 0.014 0.818 0 1.397 0.31 1.806 1.044 1.058 1.891 2.145 3.767 3.217 5.644 0.085 0.141 0.183 0.282 0.31 0.466 0.113-0.183 0.198-0.282 0.268-0.409 1.086-1.877 2.173-3.739 3.231-5.644 0.423-0.762 1.002-1.115 1.877-1.101 2.921 0.014 5.855 0.028 8.776-0.014 0.804-0.014 1.411 0.198 1.75 0.959 0 0.169 0 0.353 0 0.536-0.099 0.183-0.183 0.381-0.282 0.55-3.16 5.474-6.321 10.949-9.51 16.409-0.212 0.353-0.593 0.621-0.889 0.917-0.212 0-0.423 0-0.635 0-0.325-0.325-0.72-0.621-0.945-1.002-1.115-1.877-2.201-3.781-3.287-5.672-0.085-0.141-0.183-0.282-0.31-0.48-0.127 0.183-0.226 0.325-0.31 0.48-1.101 1.891-2.173 3.795-3.287 5.658-0.268 0.395-0.663 0.691-0.988 1.016zM3.527 9.637c2.568 4.459 5.079 8.804 7.619 13.22 0.141-0.212 0.24-0.353 0.325-0.494 0.959-1.665 1.905-3.33 2.892-4.981 0.226-0.395 0.212-0.691-0.014-1.072-1.213-2.060-2.413-4.134-3.598-6.208-0.212-0.367-0.466-0.508-0.889-0.508-1.905 0.014-3.81 0.014-5.714 0.014-0.155 0-0.325 0.014-0.621 0.028zM28.487 9.665c-0.198-0.028-0.296-0.056-0.395-0.056-2.032 0-4.049-0.028-6.081 0-0.226 0-0.536 0.198-0.663 0.395-1.256 2.116-2.469 4.261-3.711 6.406-0.198 0.325-0.169 0.607 0.028 0.931 0.959 1.637 1.905 3.287 2.864 4.938 0.099 0.169 0.212 0.339 0.367 0.564 2.54-4.402 5.037-8.762 7.591-13.178z"></path>
</svg>
