<!-- Generated by IcoMoon.io -->
<svg version="1.1" xmlns="http://www.w3.org/2000/svg" width="32" height="32" viewBox="0 0 32 32">
<title>WPR</title>
<path d="M28.224 31.91c-1.408-5.018-2.803-10.048-4.211-15.066-0.038 0-0.077 0-0.102 0-0.422 1.523-0.858 3.046-1.28 4.582-0.307 1.101-0.627 2.202-0.909 3.302-0.090 0.346-0.256 0.474-0.614 0.461-1.318-0.013-2.65-0.026-3.968 0-0.499 0.013-0.73-0.141-0.858-0.64-0.602-2.33-1.254-4.646-1.882-6.963-0.038-0.128-0.077-0.256-0.166-0.525-0.115 0.41-0.205 0.691-0.282 0.973-0.602 2.189-1.203 4.378-1.779 6.566-0.115 0.448-0.307 0.589-0.768 0.576-1.318-0.026-2.65-0.026-3.968 0-0.41 0.013-0.589-0.128-0.704-0.512-2.214-7.13-4.442-14.259-6.669-21.402-0.115-0.371-0.077-0.627 0.23-0.87 0.947-0.755 1.882-1.536 2.931-2.394 2.125 6.746 4.211 13.338 6.285 19.917 0.038 0 0.077 0 0.115 0.013 0.282-1.165 0.55-2.342 0.832-3.507 0.461-1.933 0.922-3.878 1.357-5.811 0.090-0.371 0.269-0.461 0.614-0.461 1.19 0.013 2.368 0.026 3.558 0 0.422-0.013 0.576 0.128 0.666 0.538 0.704 3.072 1.434 6.144 2.266 9.242 0.179-0.627 0.371-1.242 0.55-1.869 0.678-2.432 1.37-4.864 2.010-7.296 0.128-0.474 0.346-0.614 0.819-0.602 1.101 0.038 2.214 0.038 3.315 0 0.474-0.013 0.678 0.128 0.806 0.602 1.536 5.594 3.098 11.174 4.685 16.742 0.192 0.653 0.141 1.152-0.307 1.664-0.819 0.934-1.6 1.894-2.394 2.842-0.051-0.038-0.115-0.077-0.179-0.102z"></path>
</svg>
