<?xml version="1.0" encoding="utf-8"?>
<!-- Generator: Adobe Illustrator 22.1.0, SVG Export Plug-In . SVG Version: 6.00 Build 0)  -->
<svg version="1.1" id="Layer_1" xmlns="http://www.w3.org/2000/svg" xmlns:xlink="http://www.w3.org/1999/xlink" x="0px" y="0px"
	 viewBox="0 0 250 250" style="enable-background:new 0 0 250 250;" xml:space="preserve">
<g>
	<path d="M220.5,249.3c-11-39.2-21.9-78.5-32.9-117.7c-0.3,0-0.6,0-0.8,0c-3.3,11.9-6.7,23.8-10,35.8c-2.4,8.6-4.9,17.2-7.1,25.8
		c-0.7,2.7-2,3.7-4.8,3.6c-10.3-0.1-20.7-0.2-31,0c-3.9,0.1-5.7-1.1-6.7-5c-4.7-18.2-9.8-36.3-14.7-54.4c-0.3-1-0.6-2-1.3-4.1
		c-0.9,3.2-1.6,5.4-2.2,7.6c-4.7,17.1-9.4,34.2-13.9,51.3c-0.9,3.5-2.4,4.6-6,4.5c-10.3-0.2-20.7-0.2-31,0c-3.2,0.1-4.6-1-5.5-4
		C35.3,137,17.9,81.3,0.5,25.5c-0.9-2.9-0.6-4.9,1.8-6.8C9.7,12.8,17,6.7,25.2,0c16.6,52.7,32.9,104.2,49.1,155.6
		c0.3,0,0.6,0,0.9,0.1c2.2-9.1,4.3-18.3,6.5-27.4c3.6-15.1,7.2-30.3,10.6-45.4c0.7-2.9,2.1-3.6,4.8-3.6c9.3,0.1,18.5,0.2,27.8,0
		c3.3-0.1,4.5,1,5.2,4.2c5.5,24,11.2,48,17.7,72.2c1.4-4.9,2.9-9.7,4.3-14.6c5.3-19,10.7-38,15.7-57c1-3.7,2.7-4.8,6.4-4.7
		c8.6,0.3,17.3,0.3,25.9,0c3.7-0.1,5.3,1,6.3,4.7c12,43.7,24.2,87.3,36.6,130.8c1.5,5.1,1.1,9-2.4,13c-6.4,7.3-12.5,14.8-18.7,22.2
		C221.5,249.8,221,249.5,220.5,249.3z"/>
</g>
</svg>
