<!-- Generated by IcoMoon.io -->
<svg version="1.1" xmlns="http://www.w3.org/2000/svg" width="32" height="32" viewBox="0 0 32 32">
<title>WTC</title>
<path d="M29.841 16.691c-1.298-0.339-2.653-0.395-3.979-0.466 0.127-0.395 0.268-0.79 0.423-1.185 0.042-0.127 0.169-0.198 0.282-0.268 0.621-0.325 1.242-0.663 1.877-0.988 0.155-0.099 0.353-0.169 0.451-0.339 0.042-0.268-0.141-0.494-0.268-0.705-0.423-0.649-0.804-1.326-1.256-1.947-0.155-0.226-0.48-0.226-0.705-0.099-0.875 0.395-1.735 0.804-2.61 1.213-0.169 0.085-0.339 0.155-0.494 0.268-0.169 0.127-0.24 0.339-0.31 0.536-0.409 1.171-0.847 2.328-1.27 3.499-0.028 0.085-0.071 0.198-0.183 0.198-0.903 0.071-1.792 0.183-2.695 0.282-0.522-1.397-1.044-2.794-1.566-4.19-0.071-0.254-0.282-0.466-0.55-0.466-0.72-0.014-1.453 0-2.173-0.014-0.169 0.014-0.409-0.014-0.508 0.155-0.169 0.296-0.226 0.621-0.353 0.945-0.635 1.637-1.242 3.273-1.848 4.91-0.508 0.127-1.016 0.296-1.538 0.395-0.677-1.82-1.34-3.626-2.004-5.446-0.113-0.254-0.169-0.55-0.339-0.776-0.127-0.169-0.367-0.183-0.564-0.183-0.818 0-1.637 0.014-2.469 0.028-0.212 0-0.466-0.014-0.635 0.155-0.099 0.339 0.099 0.677 0.212 0.988 0.776 2.116 1.566 4.233 2.328 6.349-0.847 0.31-1.693 0.635-2.526 1.002-0.198 0.099-0.423 0.169-0.607 0.31-0.48 0.183-0.931 0.451-1.383 0.705-0.804 0.48-1.623 1.002-2.201 1.75-0.268 0.367-0.494 0.847-0.31 1.298 0.169 0.466 0.621 0.734 1.044 0.931 0.621 0.282 1.298 0.437 1.975 0.55 2.032 0.282 4.106 0.268 6.152 0.127 0.127-0.014 0.254 0.014 0.381 0.042 0.113 0.353 0.183 0.762 0.437 1.044 0.127 0.155 0.325 0.099 0.494 0.042 0.593-0.183 1.171-0.353 1.764-0.536 0.466-0.099 0.607-0.607 0.762-0.988 1.665-0.24 3.316-0.536 4.952-0.903 2.949-0.663 5.884-1.481 8.677-2.653 1.101-0.48 2.201-0.988 3.203-1.637 0.663-0.451 1.34-0.945 1.764-1.637 0.254-0.409 0.282-1.002-0.056-1.383-0.466-0.508-1.143-0.72-1.778-0.917M7.379 25.989c-0.55 0.042-1.086 0.042-1.637 0.042-0.875-0.056-1.764-0.056-2.624-0.254-0.677-0.113-1.369-0.268-1.919-0.677-0.254-0.183-0.48-0.466-0.48-0.79 0-0.381 0.226-0.72 0.466-1.002 0.536-0.607 1.242-1.044 1.919-1.467 1.326-0.734 2.709-1.355 4.148-1.834 0.705 1.891 1.397 3.767 2.088 5.658 0.028 0.071 0.042 0.127 0.071 0.198l-0.155 0.028c-0.607 0.056-1.242 0.085-1.877 0.099M11.259 20.233c-0.198-0.437-0.381-0.903-0.522-1.369 0.381-0.113 0.762-0.226 1.157-0.31-0.198 0.564-0.409 1.129-0.635 1.679M13.22 25.397c0.635-1.764 1.312-3.499 1.947-5.263 0.24-0.578 0.423-1.185 0.677-1.764 0.183 0.31 0.296 0.663 0.423 1.002 0.621 1.693 1.256 3.386 1.877 5.079-1.637 0.381-3.273 0.705-4.924 0.945M20.473 20.275c-0.409-1.072-0.832-2.145-1.213-3.217 0.832-0.127 1.679-0.226 2.511-0.31-0.409 1.185-0.861 2.342-1.298 3.527M31.125 18.441c-0.113 0.437-0.423 0.804-0.748 1.101-0.762 0.705-1.693 1.213-2.624 1.679-1.453 0.705-2.949 1.298-4.473 1.778 0.183-0.353 0.325-0.734 0.451-1.115 0.677-1.778 1.326-3.57 2.004-5.347 1.115 0 2.243 0.042 3.33 0.282 0.578 0.127 1.171 0.296 1.651 0.663 0.282 0.212 0.494 0.578 0.409 0.959"></path>
<path d="M4.924 5.884c0.183 0 0.339 0.155 0.339 0.339s-0.155 0.339-0.339 0.339c-0.183 0-0.339-0.155-0.339-0.339s0.155-0.339 0.339-0.339v0M4.924 5.333c-0.494 0-0.889 0.395-0.889 0.889s0.395 0.889 0.889 0.889 0.889-0.395 0.889-0.889-0.395-0.889-0.889-0.889z"></path>
<path d="M11.062 10.413c0 0.281-0.227 0.508-0.508 0.508s-0.508-0.227-0.508-0.508c0-0.281 0.227-0.508 0.508-0.508s0.508 0.227 0.508 0.508z"></path>
<path d="M17.072 5.742c0 0.53-0.43 0.959-0.959 0.959s-0.959-0.43-0.959-0.959c0-0.53 0.43-0.959 0.959-0.959s0.959 0.43 0.959 0.959z"></path>
<path d="M21.559 8.649c0 0.694-0.562 1.256-1.256 1.256s-1.256-0.562-1.256-1.256c0-0.694 0.562-1.256 1.256-1.256s1.256 0.562 1.256 1.256z"></path>
<path d="M27.372 5.404c0.451 0 0.818 0.367 0.818 0.818s-0.367 0.818-0.818 0.818-0.818-0.367-0.818-0.818 0.367-0.818 0.818-0.818v0M27.372 3.908c-1.284 0-2.314 1.044-2.314 2.314s1.044 2.314 2.314 2.314c1.284 0 2.314-1.044 2.314-2.314 0-1.284-1.044-2.314-2.314-2.314v0z"></path>
<path d="M20.287 8.582l5.672-1.945 0.046 0.133-5.672 1.945-0.046-0.133z"></path>
<path d="M16.069 5.803l0.080-0.116 4.19 2.896-0.080 0.116-4.19-2.896z"></path>
<path d="M10.516 10.367l5.562-4.675 0.091 0.108-5.562 4.675-0.091-0.108z"></path>
<path d="M5.405 6.672l0.084-0.113 5.101 3.803-0.084 0.113-5.101-3.803z"></path>
</svg>
