<?xml version="1.0" encoding="utf-8"?>
<!-- Generator: Adobe Illustrator 22.0.1, SVG Export Plug-In . SVG Version: 6.00 Build 0)  -->
<svg version="1.1" id="Layer_1" xmlns="http://www.w3.org/2000/svg" xmlns:xlink="http://www.w3.org/1999/xlink" x="0px" y="0px"
	 viewBox="0 0 226.8 226.8" style="enable-background:new 0 0 226.8 226.8;" xml:space="preserve">
<style type="text/css">
	.st0{stroke:#FFFFFF;stroke-miterlimit:10;}
</style>
<path class="st0" d="M211.5,118.3c-9.2-2.4-18.8-2.8-28.2-3.3c0.9-2.8,1.9-5.6,3-8.4c0.3-0.9,1.2-1.4,2-1.9c4.4-2.3,8.8-4.7,13.3-7
	c1.1-0.7,2.5-1.2,3.2-2.4c0.3-1.9-1-3.5-1.9-5c-3-4.6-5.7-9.4-8.9-13.8c-1.1-1.6-3.4-1.6-5-0.7c-6.2,2.8-12.3,5.7-18.5,8.6
	c-1.2,0.6-2.4,1.1-3.5,1.9c-1.2,0.9-1.7,2.4-2.2,3.8c-2.9,8.3-6,16.5-9,24.8c-0.2,0.6-0.5,1.4-1.3,1.4c-6.4,0.5-12.7,1.3-19.1,2
	c-3.7-9.9-7.4-19.8-11.1-29.7c-0.5-1.8-2-3.3-3.9-3.3c-5.1-0.1-10.3,0-15.4-0.1c-1.2,0.1-2.9-0.1-3.6,1.1c-1.2,2.1-1.6,4.4-2.5,6.7
	c-4.5,11.6-8.8,23.2-13.1,34.8c-3.6,0.9-7.2,2.1-10.9,2.8c-4.8-12.9-9.5-25.7-14.2-38.6c-0.8-1.8-1.2-3.9-2.4-5.5
	c-0.9-1.2-2.6-1.3-4-1.3c-5.8,0-11.6,0.1-17.5,0.2c-1.5,0-3.3-0.1-4.5,1.1c-0.7,2.4,0.7,4.8,1.5,7c5.5,15,11.1,30,16.5,45
	c-6,2.2-12,4.5-17.9,7.1c-1.4,0.7-3,1.2-4.3,2.2c-3.4,1.3-6.6,3.2-9.8,5c-5.7,3.4-11.5,7.1-15.6,12.4c-1.9,2.6-3.5,6-2.2,9.2
	c1.2,3.3,4.4,5.2,7.4,6.6c4.4,2,9.2,3.1,14,3.9c14.4,2,29.1,1.9,43.6,0.9c0.9-0.1,1.8,0.1,2.7,0.3c0.8,2.5,1.3,5.4,3.1,7.4
	c0.9,1.1,2.3,0.7,3.5,0.3c4.2-1.3,8.3-2.5,12.5-3.8c3.3-0.7,4.3-4.3,5.4-7c11.8-1.7,23.5-3.8,35.1-6.4c20.9-4.7,41.7-10.5,61.5-18.8
	c7.8-3.4,15.6-7,22.7-11.6c4.7-3.2,9.5-6.7,12.5-11.6c1.8-2.9,2-7.1-0.4-9.8C220.8,121.2,216,119.7,211.5,118.3 M52.3,184.2
	c-3.9,0.3-7.7,0.3-11.6,0.3c-6.2-0.4-12.5-0.4-18.6-1.8c-4.8-0.8-9.7-1.9-13.6-4.8c-1.8-1.3-3.4-3.3-3.4-5.6c0-2.7,1.6-5.1,3.3-7.1
	c3.8-4.3,8.8-7.4,13.6-10.4c9.4-5.2,19.2-9.6,29.4-13c5,13.4,9.9,26.7,14.8,40.1c0.2,0.5,0.3,0.9,0.5,1.4l-1.1,0.2
	C61.3,183.9,56.8,184.1,52.3,184.2 M79.8,143.4c-1.4-3.1-2.7-6.4-3.7-9.7c2.7-0.8,5.4-1.6,8.2-2.2C82.9,135.5,81.4,139.5,79.8,143.4
	 M93.7,180c4.5-12.5,9.3-24.8,13.8-37.3c1.7-4.1,3-8.4,4.8-12.5c1.3,2.2,2.1,4.7,3,7.1c4.4,12,8.9,24,13.3,36
	C117,176,105.4,178.3,93.7,180 M145.1,143.7c-2.9-7.6-5.9-15.2-8.6-22.8c5.9-0.9,11.9-1.6,17.8-2.2
	C151.4,127.1,148.2,135.3,145.1,143.7 M220.6,130.7c-0.8,3.1-3,5.7-5.3,7.8c-5.4,5-12,8.6-18.6,11.9c-10.3,5-20.9,9.2-31.7,12.6
	c1.3-2.5,2.3-5.2,3.2-7.9c4.8-12.6,9.4-25.3,14.2-37.9c7.9,0,15.9,0.3,23.6,2c4.1,0.9,8.3,2.1,11.7,4.7
	C219.7,125.4,221.2,128,220.6,130.7"/>
<g>
	<path class="st0" d="M34.9,41.7c1.3,0,2.4,1.1,2.4,2.4s-1.1,2.4-2.4,2.4c-1.3,0-2.4-1.1-2.4-2.4S33.6,41.7,34.9,41.7L34.9,41.7
		 M34.9,37.8c-3.5,0-6.3,2.8-6.3,6.3s2.8,6.3,6.3,6.3s6.3-2.8,6.3-6.3S38.4,37.8,34.9,37.8z"/>
	<circle class="st0" cx="74.8" cy="73.8" r="3.6"/>
	<circle class="st0" cx="114.2" cy="40.7" r="6.8"/>
	<circle class="st0" cx="143.9" cy="61.3" r="8.9"/>
	<path class="st0" d="M194,38.3c3.2,0,5.8,2.6,5.8,5.8s-2.6,5.8-5.8,5.8s-5.8-2.6-5.8-5.8S190.8,38.3,194,38.3L194,38.3 M194,27.7
		c-9.1,0-16.4,7.4-16.4,16.4S185,60.5,194,60.5c9.1,0,16.4-7.4,16.4-16.4C210.4,35,203,27.7,194,27.7L194,27.7z"/>
</g>
<g>
	<rect x="142.8" y="53.9" transform="matrix(0.9459 -0.3244 0.3244 0.9459 -8.7771 56.1625)" class="st0" width="42.5" height="1"/>
	
		<rect x="128.5" y="32.9" transform="matrix(0.5685 -0.8227 0.8227 0.5685 13.7733 128.1407)" class="st0" width="1" height="36.1"/>
	<rect x="68.8" y="56.8" transform="matrix(0.7655 -0.6434 0.6434 0.7655 -14.6812 74.2611)" class="st0" width="51.5" height="1"/>
	<rect x="56.2" y="37.8" transform="matrix(0.5977 -0.8017 0.8017 0.5977 -25.5848 69.7504)" class="st0" width="1" height="45.1"/>
</g>
</svg>
