<!-- Generated by IcoMoon.io -->
<svg version="1.1" xmlns="http://www.w3.org/2000/svg" width="32" height="32" viewBox="0 0 32 32">
<title>XAI</title>
<path d="M6.23 1.074l1.989 1.989-1.989 1.989-1.989-1.989zM18.053 2.255l-1.988-1.989-7.31 7.31 1.989 1.988zM15.093 13.913l11.924-11.924-1.988-1.989-11.925 11.925zM30.925 6.187l-1.989 1.989-1.989-1.989 1.989-1.989zM22.434 10.7l7.309 7.309 1.989-1.988-7.31-7.31zM20.074 13.059l-1.988 1.99 11.924 11.924 1.989-1.988zM25.812 30.879l-1.989-1.989 1.989-1.989 1.989 1.989zM13.989 29.7l1.989 1.989 7.31-7.31-1.989-1.988zM16.949 18.043l-11.924 11.923 1.988 1.989 11.925-11.925zM1.118 25.768l1.988-1.989 1.989 1.988-1.989 1.989zM9.608 21.255l-7.309-7.309-1.989 1.989 7.31 7.31zM13.956 16.906l-11.924-11.924-1.989 1.988 11.925 11.925z"></path>
</svg>
