<!-- Generated by IcoMoon.io -->
<svg version="1.1" xmlns="http://www.w3.org/2000/svg" width="32" height="32" viewBox="0 0 32 32">
<title>XAS</title>
<path d="M16.154 31.104c-0.307-0.371-0.614-0.717-0.909-1.075-0.883-1.037-1.766-2.074-2.65-3.11-1.741-2.048-3.494-4.096-5.235-6.144-1.19-1.395-2.394-2.803-3.584-4.198-1.242-1.446-2.47-2.906-3.712-4.352-0.077-0.090-0.077-0.166-0.013-0.269 0.55-0.96 1.114-1.92 1.664-2.88 0.563-0.986 1.139-1.971 1.702-2.957 0.819-1.408 1.626-2.816 2.445-4.237 0.115-0.192 0.23-0.384 0.333-0.589 0.051-0.090 0.102-0.115 0.205-0.115 3.059 0 6.131 0 9.19 0 3.392 0 6.771 0 10.163 0 0.102 0 0.166 0.026 0.218 0.128 0.858 1.51 1.715 3.008 2.573 4.506 0.73 1.28 1.459 2.56 2.189 3.84 0.422 0.73 0.832 1.459 1.254 2.189 0.051 0.077 0.038 0.128-0.026 0.192-0.691 0.819-1.37 1.651-2.061 2.483-1.267 1.523-2.534 3.059-3.802 4.582s-2.534 3.046-3.802 4.582c-1.152 1.382-2.291 2.765-3.443 4.147-0.742 0.896-1.485 1.792-2.227 2.701-0.154 0.166-0.307 0.371-0.474 0.576zM16.051 28.992c0.026-0.038 0.051-0.051 0.064-0.077 1.152-1.37 2.291-2.726 3.443-4.096 1.651-1.971 3.315-3.955 4.966-5.926 0.128-0.154 0.128-0.154 0.038-0.333-0.499-0.896-1.011-1.805-1.523-2.701-0.576-1.024-1.152-2.035-1.728-3.059-0.051-0.090-0.102-0.115-0.192-0.115-1.446 0-2.893 0-4.326 0.013-1.894 0-3.789 0.013-5.696 0.013-0.128 0-0.192 0.038-0.243 0.141-0.435 0.781-0.883 1.562-1.331 2.33-0.678 1.178-1.344 2.368-2.022 3.546-0.051 0.077-0.038 0.128 0.026 0.192 0.282 0.32 0.55 0.653 0.832 0.973 1.19 1.421 2.394 2.829 3.584 4.25 1.139 1.357 2.291 2.714 3.43 4.070 0.23 0.243 0.461 0.512 0.678 0.781zM15.078 2.598c-0.051 0-0.090 0-0.115 0-2.624 0-5.248 0.013-7.872 0.013-0.077 0-0.115 0.026-0.154 0.090-0.346 0.614-0.704 1.229-1.050 1.83-0.614 1.062-1.229 2.138-1.83 3.2-0.678 1.165-1.344 2.33-2.010 3.494-0.013 0.026-0.013 0.038-0.026 0.064 0.294 0 0.576 0 0.858 0 2.368 0 4.736-0.013 7.104-0.013 0.128 0 0.192-0.038 0.243-0.141 0.346-0.627 0.704-1.254 1.062-1.882 0.589-1.024 1.165-2.048 1.754-3.072 0.525-0.922 1.050-1.843 1.574-2.765 0.141-0.256 0.294-0.525 0.461-0.819zM30.042 11.251c-0.026-0.038-0.026-0.064-0.038-0.090-0.154-0.256-0.294-0.512-0.448-0.768-0.704-1.229-1.421-2.458-2.125-3.699-0.768-1.331-1.536-2.675-2.304-4.006-0.051-0.090-0.102-0.128-0.218-0.128-2.522 0.013-5.056 0.013-7.578 0.013-0.038 0-0.077 0-0.141 0 0.090 0.154 0.166 0.307 0.243 0.448 0.512 0.909 1.011 1.805 1.523 2.714 0.614 1.088 1.216 2.163 1.83 3.251 0.41 0.717 0.819 1.446 1.216 2.163 0.038 0.077 0.090 0.102 0.179 0.102 0.653 0 1.306 0 1.958 0 1.907 0 3.827-0.013 5.734-0.013 0.077 0.013 0.115 0.013 0.166 0.013zM11.763 11.264c2.906 0 5.798 0 8.704 0-1.446-2.573-2.88-5.12-4.326-7.693-1.472 2.573-2.918 5.133-4.378 7.693zM6.502 17.664c0.947-1.664 1.882-3.315 2.829-4.954-2.342 0-4.659 0-7.014 0 1.395 1.664 2.79 3.302 4.186 4.954zM29.747 12.672c-2.291 0-4.57 0-6.874 0 0.922 1.638 1.843 3.264 2.752 4.902 1.395-1.638 2.752-3.277 4.122-4.902z"></path>
</svg>
