<?xml version="1.0" encoding="utf-8"?>
<!-- Generator: Adobe Illustrator 22.1.0, SVG Export Plug-In . SVG Version: 6.00 Build 0)  -->
<svg version="1.1" id="Layer_1" xmlns="http://www.w3.org/2000/svg" xmlns:xlink="http://www.w3.org/1999/xlink" x="0px" y="0px"
	 viewBox="0 0 250 250" style="enable-background:new 0 0 250 250;" xml:space="preserve">
<g>
	<path d="M126.2,243c-2.4-2.9-4.8-5.6-7.1-8.4c-6.9-8.1-13.8-16.2-20.7-24.3c-13.6-16-27.3-32-40.9-48c-9.3-10.9-18.7-21.9-28-32.8
		c-9.7-11.3-19.3-22.7-29-34c-0.6-0.7-0.6-1.3-0.1-2.1c4.3-7.5,8.7-15,13-22.5c4.4-7.7,8.9-15.4,13.3-23.1c6.4-11,12.7-22,19.1-33.1
		c0.9-1.5,1.8-3,2.6-4.6c0.4-0.7,0.8-0.9,1.6-0.9c23.9,0,47.9,0,71.8,0c26.5,0,52.9,0,79.4,0c0.8,0,1.3,0.2,1.7,1
		c6.7,11.8,13.4,23.5,20.1,35.2c5.7,10,11.4,20,17.1,30c3.3,5.7,6.5,11.4,9.8,17.1c0.4,0.6,0.3,1-0.2,1.5
		c-5.4,6.4-10.7,12.9-16.1,19.4c-9.9,11.9-19.8,23.9-29.7,35.8c-9.9,11.9-19.8,23.8-29.7,35.8c-9,10.8-17.9,21.6-26.9,32.4
		c-5.8,7-11.6,14-17.4,21.1C128.7,239.8,127.5,241.4,126.2,243z M125.4,226.5c0.2-0.3,0.4-0.4,0.5-0.6c9-10.7,17.9-21.3,26.9-32
		c12.9-15.4,25.9-30.9,38.8-46.3c1-1.2,1-1.2,0.3-2.6c-3.9-7-7.9-14.1-11.9-21.1c-4.5-8-9-15.9-13.5-23.9c-0.4-0.7-0.8-0.9-1.5-0.9
		c-11.3,0-22.6,0-33.8,0.1c-14.8,0-29.6,0.1-44.5,0.1c-1,0-1.5,0.3-1.9,1.1c-3.4,6.1-6.9,12.2-10.4,18.2
		c-5.3,9.2-10.5,18.5-15.8,27.7c-0.4,0.6-0.3,1,0.2,1.5c2.2,2.5,4.3,5.1,6.5,7.6c9.3,11.1,18.7,22.1,28,33.2
		c8.9,10.6,17.9,21.2,26.8,31.8C121.9,222.3,123.7,224.4,125.4,226.5z M117.8,20.3c-0.4,0-0.7,0-0.9,0c-20.5,0-41,0.1-61.5,0.1
		c-0.6,0-0.9,0.2-1.2,0.7c-2.7,4.8-5.5,9.6-8.2,14.3c-4.8,8.3-9.6,16.7-14.3,25C26.4,69.5,21.2,78.6,16,87.7
		c-0.1,0.2-0.1,0.3-0.2,0.5c2.3,0,4.5,0,6.7,0c18.5,0,37-0.1,55.5-0.1c1,0,1.5-0.3,1.9-1.1c2.7-4.9,5.5-9.8,8.3-14.7
		c4.6-8,9.1-16,13.7-24c4.1-7.2,8.2-14.4,12.3-21.6C115.3,24.7,116.5,22.6,117.8,20.3z M234.7,87.9c-0.2-0.3-0.2-0.5-0.3-0.7
		c-1.2-2-2.3-4-3.5-6c-5.5-9.6-11.1-19.2-16.6-28.9c-6-10.4-12-20.9-18-31.3c-0.4-0.7-0.8-1-1.7-1c-19.7,0.1-39.5,0.1-59.2,0.1
		c-0.3,0-0.6,0-1.1,0c0.7,1.2,1.3,2.4,1.9,3.5c4,7.1,7.9,14.1,11.9,21.2c4.8,8.5,9.5,16.9,14.3,25.4c3.2,5.6,6.4,11.3,9.5,16.9
		c0.3,0.6,0.7,0.8,1.4,0.8c5.1,0,10.2,0,15.3,0c14.9,0,29.9-0.1,44.8-0.1C234,87.9,234.3,87.9,234.7,87.9z M91.9,88
		c22.7,0,45.3,0,68,0c-11.3-20.1-22.5-40-33.8-60.1C114.6,48,103.3,68,91.9,88z M50.8,138c7.4-13,14.7-25.9,22.1-38.7
		c-18.3,0-36.4,0-54.8,0C29,112.3,39.9,125.1,50.8,138z M232.4,99c-17.9,0-35.7,0-53.7,0c7.2,12.8,14.4,25.5,21.5,38.3
		C211.1,124.5,221.7,111.7,232.4,99z"/>
</g>
</svg>
