<?xml version="1.0" encoding="utf-8"?>
<!-- Generator: Adobe Illustrator 22.0.1, SVG Export Plug-In . SVG Version: 6.00 Build 0)  -->
<svg version="1.1" id="Layer_1" xmlns="http://www.w3.org/2000/svg" xmlns:xlink="http://www.w3.org/1999/xlink" x="0px" y="0px"
	 viewBox="0 0 250 250" style="enable-background:new 0 0 250 250;" xml:space="preserve">
<style type="text/css">
	.st0{stroke:#FFFFFF;stroke-miterlimit:10;}
</style>
<g transform="translate(0-157)">
	<path class="st0" d="M67.7,282.1l17.8,6.7v5.6h-23v13.8h-25v14.7H19v56.3H0.1v7.9h76.5v-7.9H43.9v-44.8h16.8v-14.2h24.8v-6.7h29.3
		l10.9,26.1l8.9-26.1h28.3v6.7h25.1v14.1H206v44.8h-31.9v8H250v-8h-19v-56.4h-17.1v-14.2h-26v-14.1h-23.2v-5.9l17.7-6.7l0.1-0.1
		l-17.8-6.7v-5.6h23v-13.8h25v-14.7h18.5v-56.3H250v-7.9h-76.5v7.9h32.8v44.8h-16.8v14.2h-24.8v6.7h-29.3l-10.9-26.1l-8.9,26.1H87.4
		v-6.7H62.3v-14.1H44.1v-44.8H76v-8H0.1v8h19v56.4h17.1v14.2h26v14.1h23.2v5.9L67.8,282"/>
</g>
</svg>
