<!-- Generated by IcoMoon.io -->
<svg version="1.1" xmlns="http://www.w3.org/2000/svg" width="32" height="32" viewBox="0 0 32 32">
<title>XAUR</title>
<path d="M8.666 16.013l2.278 0.858v0.717h-2.944v1.766h-3.2v1.882h-2.368v7.206h-2.419v1.011h9.792v-1.011h-4.186v-5.734h2.15v-1.818h3.174v-0.858h3.75l1.395 3.341 1.139-3.341h3.622v0.858h3.213v1.805h2.304v5.734h-4.083v1.024h9.715v-1.024h-2.432v-7.219h-2.189v-1.818h-3.328v-1.805h-2.97v-0.755l2.266-0.858 0.013-0.013-2.278-0.858v-0.717h2.944v-1.766h3.2v-1.882h2.368v-7.206h2.406v-1.011h-9.792v1.011h4.198v5.734h-2.15v1.818h-3.174v0.858h-3.75l-1.395-3.341-1.139 3.341h-3.61v-0.858h-3.213v-1.805h-2.33v-5.734h4.083v-1.024h-9.715v1.024h2.432v7.219h2.189v1.818h3.328v1.805h2.97v0.755l-2.253 0.858"></path>
</svg>
