<!-- Generated by IcoMoon.io -->
<svg version="1.1" xmlns="http://www.w3.org/2000/svg" width="32" height="32" viewBox="0 0 32 32">
<title>XBS</title>
<path d="M25.001 7.030c1.048 0.406 2.030 0.885 2.929 1.435 0.483 0.295 0.889 0.575 1.28 0.873l-0.036-0.026c-0.083-1.881-0.707-3.463-1.85-4.605-1.127-1.126-2.712-1.76-4.602-1.846 0.271 0.353 0.549 0.758 0.807 1.176l0.037 0.064c0.55 0.899 1.029 1.882 1.435 2.93zM20.599 1.978c-1.388-1.27-2.947-1.947-4.562-1.947s-3.174 0.676-4.562 1.947c1.485 0.199 3.025 0.654 4.562 1.335 1.537-0.681 3.077-1.136 4.562-1.335zM7.073 7.030c0.406-1.048 0.885-2.030 1.435-2.93 0.295-0.483 0.574-0.887 0.871-1.277l-0.027 0.037c-1.891 0.086-3.476 0.719-4.602 1.846-1.142 1.142-1.767 2.724-1.85 4.605 0.354-0.272 0.76-0.551 1.18-0.81l0.064-0.037c0.899-0.55 1.882-1.029 2.93-1.435zM24.234 24.191c0.225-0.591 0.458-1.349 0.648-2.123l0.031-0.147c-0.475 0.55-0.939 1.049-1.419 1.53l0-0c-0.481 0.481-0.98 0.944-1.496 1.389l-0.036 0.030c0.922-0.221 1.68-0.454 2.419-0.727l-0.148 0.048zM13.979 26.463c0.557 0.348 1.232 0.718 1.926 1.052l0.131 0.057c0.827-0.392 1.501-0.761 2.153-1.163l-0.095 0.055c-0.678 0.050-1.364 0.076-2.058 0.076s-1.38-0.026-2.058-0.076zM11.474 30.010c1.388 1.27 2.948 1.947 4.562 1.947s3.174-0.676 4.562-1.947c-1.485-0.199-3.025-0.654-4.562-1.335-1.537 0.681-3.077 1.136-4.562 1.335zM25 24.957c-0.406 1.048-0.885 2.030-1.435 2.93-0.295 0.482-0.573 0.886-0.87 1.275l0.026-0.036c1.891-0.086 3.476-0.719 4.602-1.845 1.142-1.143 1.767-2.724 1.85-4.605-0.355 0.272-0.76 0.551-1.18 0.81l-0.064 0.037c-0.899 0.549-1.882 1.029-2.93 1.434zM2.303 12.908c-0.101-0.389-0.199-0.89-0.271-1.399l-0.009-0.079c-1.271 1.389-1.949 2.949-1.949 4.564s0.677 3.176 1.949 4.564c0.082-0.589 0.18-1.090 0.302-1.581l-0.022 0.103c0.248-1.025 0.603-2.058 1.057-3.086-0.454-1.027-0.81-2.061-1.057-3.086zM30.051 11.429c-0.082 0.589-0.18 1.090-0.302 1.582l0.022-0.103c-0.247 1.025-0.603 2.058-1.057 3.086 0.454 1.028 0.809 2.061 1.057 3.086 0.122 0.503 0.214 0.996 0.281 1.479 1.271-1.389 1.948-2.949 1.948-4.564s-0.677-3.176-1.948-4.565zM7.839 24.191c0.592 0.225 1.351 0.458 2.126 0.649l0.146 0.030c-1.066-0.92-2.030-1.884-2.92-2.914l-0.030-0.035c0.221 0.921 0.454 1.679 0.727 2.418l-0.048-0.148zM7.073 24.957c-1.048-0.406-2.030-0.885-2.93-1.434-0.484-0.296-0.889-0.576-1.28-0.874l0.036 0.027c0.083 1.881 0.707 3.463 1.85 4.605 1.127 1.127 2.711 1.76 4.602 1.845-0.27-0.353-0.549-0.757-0.807-1.175l-0.037-0.064c-0.549-0.9-1.029-1.882-1.435-2.93zM4.444 15.994c0.393 0.833 0.768 1.517 1.178 2.176l-0.053-0.091c-0.050-0.623-0.078-1.349-0.078-2.081 0-0.001 0-0.003 0-0.004v0c0-0.702 0.026-1.399 0.078-2.085-0.357 0.569-0.732 1.252-1.070 1.957l-0.056 0.129zM29.153 10.561c-0.514-0.442-1.094-0.862-1.737-1.255-0.619-0.378-1.281-0.721-1.978-1.028 0.351 1.107 0.624 2.274 0.816 3.483 0.72 0.99 1.351 2.009 1.886 3.040 0.276-0.71 0.501-1.42 0.672-2.126 0.177-0.732 0.29-1.439 0.341-2.115zM25.438 23.709c0.697-0.307 1.359-0.65 1.978-1.028 0.643-0.393 1.223-0.813 1.737-1.255-0.051-0.676-0.164-1.383-0.341-2.115-0.17-0.705-0.396-1.415-0.672-2.125-0.535 1.031-1.167 2.050-1.886 3.040-0.192 1.209-0.465 2.376-0.816 3.484zM27.63 15.994c-0.393-0.833-0.768-1.517-1.178-2.176l0.053 0.091c0.052 0.687 0.078 1.383 0.078 2.085s-0.026 1.399-0.078 2.086c0.357-0.569 0.732-1.252 1.070-1.957l0.056-0.129zM20.272 5.777c1.208 0.191 2.374 0.465 3.481 0.816-0.307-0.697-0.65-1.359-1.028-1.978-0.392-0.642-0.811-1.221-1.252-1.734-1.35 0.101-2.78 0.45-4.225 1.014 1.022 0.533 2.036 1.163 3.025 1.882zM11.802 26.211c-1.208-0.191-2.374-0.465-3.481-0.816 0.307 0.697 0.65 1.359 1.028 1.978 0.392 0.642 0.811 1.221 1.252 1.734 1.35-0.101 2.78-0.45 4.226-1.014-1.022-0.532-2.036-1.163-3.025-1.882zM8.321 6.592c1.106-0.351 2.273-0.624 3.481-0.816 0.989-0.72 2.003-1.349 3.025-1.882-1.446-0.564-2.876-0.914-4.226-1.014-0.441 0.514-0.86 1.093-1.252 1.734-0.378 0.619-0.721 1.281-1.028 1.978zM10.111 7.117c-0.922 0.221-1.68 0.454-2.419 0.727l0.148-0.048c-0.225 0.591-0.458 1.349-0.648 2.124l-0.030 0.146c0.475-0.55 0.938-1.049 1.419-1.53l0-0c0.481-0.481 0.98-0.945 1.495-1.389l0.036-0.030zM6.635 8.278c-0.697 0.307-1.359 0.65-1.978 1.028-0.643 0.393-1.223 0.812-1.737 1.255 0.051 0.676 0.164 1.383 0.341 2.115 0.17 0.705 0.396 1.416 0.672 2.126 0.535-1.031 1.167-2.050 1.886-3.040 0.191-1.209 0.465-2.376 0.816-3.483zM2.921 21.426c0.514 0.442 1.094 0.862 1.737 1.255 0.619 0.378 1.281 0.721 1.978 1.028-0.351-1.108-0.625-2.275-0.816-3.484-0.72-0.99-1.351-2.009-1.886-3.040-0.275 0.71-0.501 1.42-0.672 2.125-0.177 0.733-0.29 1.439-0.341 2.115zM24.913 10.066c-0.189-0.784-0.415-1.543-0.679-2.27-0.591-0.225-1.349-0.458-2.125-0.648l-0.147-0.031c0.551 0.475 1.050 0.939 1.532 1.42l-0-0c0.496 0.497 0.97 1.008 1.419 1.53zM16.037 4.415c-0.826 0.391-1.501 0.76-2.152 1.163l0.094-0.054c0.616-0.048 1.334-0.076 2.058-0.076s1.442 0.028 2.152 0.082l-0.094-0.006c-0.557-0.348-1.231-0.717-1.926-1.052l-0.132-0.057zM23.752 25.395c-1.107 0.35-2.273 0.624-3.481 0.815-0.989 0.72-2.003 1.349-3.025 1.882 1.446 0.564 2.876 0.914 4.225 1.014 0.441-0.514 0.86-1.093 1.252-1.734 0.378-0.619 0.721-1.281 1.028-1.977zM20.969 18.15c0-0.954-0.389-1.819-1.017-2.443 0.468-0.549 0.753-1.267 0.753-2.052 0-0.001 0-0.002 0-0.003v0c0-1.757-1.429-3.186-3.186-3.186h-5.491c-0.59 0-1.069 0.478-1.069 1.069v0 9.002c0 0 0 0 0 0 0 0.59 0.479 1.069 1.069 1.069h5.491c0.048 0 0.095-0.005 0.142-0.011 1.836-0.075 3.308-1.591 3.308-3.446zM13.098 12.604h4.422c0.578 0 1.048 0.47 1.048 1.048s-0.47 1.048-1.048 1.048h-4.422v-2.096zM17.52 19.462c-0.040 0-0.079 0.003-0.118 0.007h-4.303v-2.631h4.422c0.723 0 1.312 0.589 1.312 1.312s-0.589 1.312-1.312 1.312z"></path>
</svg>
