<!-- Generated by IcoMoon.io -->
<svg version="1.1" xmlns="http://www.w3.org/2000/svg" width="32" height="32" viewBox="0 0 32 32">
<title>XBY</title>
<path d="M-0.042 2.3c0 0.014 2.356 4.12 5.235 9.115 3.697 6.448 5.235 9.086 5.249 9.086 0.028 0 10.483-18.173 10.483-18.215 0-0.014-2.187-0.014-4.924-0.014-4.233 0-4.924 0-4.924 0.028 0 0.014 1.016 1.778 2.258 3.908s2.258 3.894 2.258 3.908-0.183 0.353-0.423 0.762l-0.423 0.734-0.042-0.071c-0.028-0.042-1.242-2.145-2.709-4.656l-2.681-4.6h-4.684c-4.346-0.014-4.67-0.014-4.67 0.014z"></path>
<path d="M22.645 2.286c-0.169 0.296-11.33 19.711-11.33 19.739-0.014 0.042 4.656 8.155 4.684 8.141 0.014 0 4.713-8.141 4.727-8.198 0-0.014-0.903-1.594-2.131-3.711-1.185-2.032-2.145-3.697-2.145-3.697 0-0.014 0.832-1.481 0.847-1.467 0 0 0.974 1.665 2.145 3.683 1.651 2.836 2.145 3.668 2.159 3.668 0.028 0 1.764-3.019 5.235-9.030 2.864-4.966 5.206-9.044 5.206-9.072v-0.042h-4.698c-2.582-0.028-4.698-0.014-4.698-0.014"></path>
</svg>
