<?xml version="1.0" encoding="utf-8"?>
<!-- Generator: Adobe Illustrator 22.0.1, SVG Export Plug-In . SVG Version: 6.00 Build 0)  -->
<svg version="1.1" id="Layer_1" xmlns="http://www.w3.org/2000/svg" xmlns:xlink="http://www.w3.org/1999/xlink" x="0px" y="0px"
	 viewBox="0 0 226.8 226.8" style="enable-background:new 0 0 226.8 226.8;" xml:space="preserve">
<style type="text/css">
	.st0{stroke:#FFFFFF;stroke-miterlimit:10;}
</style>
<g>
	<path class="st0" d="M-0.3,16.3c0,0.1,16.7,29.2,37.1,64.6C63,126.6,73.9,145.3,74,145.3c0.2,0,74.3-128.8,74.3-129.1
		c0-0.1-15.5-0.1-34.9-0.1c-30,0-34.9,0-34.9,0.2c0,0.1,7.2,12.6,16,27.7s16,27.6,16,27.7s-1.3,2.5-3,5.4l-3,5.2l-0.3-0.5
		c-0.2-0.3-8.8-15.2-19.2-33L66,16.2H32.8C2,16.1-0.3,16.1-0.3,16.3z"/>
	<path class="st0" d="M160.5,16.2c-1.2,2.1-80.3,139.7-80.3,139.9c-0.1,0.3,33,57.8,33.2,57.7c0.1,0,33.4-57.7,33.5-58.1
		c0-0.1-6.4-11.3-15.1-26.3c-8.4-14.4-15.2-26.2-15.2-26.2c0-0.1,5.9-10.5,6-10.4c0,0,6.9,11.8,15.2,26.1c11.7,20.1,15.2,26,15.3,26
		c0.2,0,12.5-21.4,37.1-64c20.3-35.2,36.9-64.1,36.9-64.3v-0.3h-33.3C175.5,16.1,160.5,16.2,160.5,16.2"/>
</g>
</svg>
