<!-- Generated by IcoMoon.io -->
<svg version="1.1" xmlns="http://www.w3.org/2000/svg" width="32" height="32" viewBox="0 0 32 32">
<title>XCP</title>
<path d="M27.294 7.176h-6.52l-11.316 11.316h-2.922l-2.1-2.1v-2.664l2.107-2.107h2.757l1.478 1.473c0.096 0.101 0.231 0.164 0.381 0.164h0c0.158-0 0.299-0.070 0.395-0.18l0.001-0.001 2.366-2.362c0.095-0.095 0.155-0.227 0.155-0.373 0-0.143-0.057-0.273-0.15-0.368l0 0v-0.001l-2.787-2.788h-6.431l-4.705 4.705v6.339l4.698 4.698h6.596l11.316-11.316h2.846l2.125 2.125v2.709l-2.063 2.063h-3.2l-1.223-1.222c-0.096-0.097-0.229-0.158-0.376-0.158-0.143 0-0.272 0.057-0.367 0.149l0-0h-0.002l-2.768 2.768v6.462c0 0.292 0.236 0.528 0.528 0.528h3.377c0.29-0.001 0.525-0.235 0.527-0.525v-0l0.004-2.658 0.002-0.002c0.001-0.501 0.407-0.907 0.908-0.907h4.427l4.661-4.661v-6.383l-4.723-4.723z"></path>
</svg>
