<?xml version="1.0" encoding="utf-8"?>
<!-- Generator: Adobe Illustrator 22.1.0, SVG Export Plug-In . SVG Version: 6.00 Build 0)  -->
<svg version="1.1" id="Layer_1" xmlns="http://www.w3.org/2000/svg" xmlns:xlink="http://www.w3.org/1999/xlink" x="0px" y="0px"
	 viewBox="0 0 226.8 226.8" style="enable-background:new 0 0 226.8 226.8;" xml:space="preserve">
<g>
	<path d="M29.6,113.6c-3.7-2.4-7.2-4.6-10.7-6.9c-5.4-3.5-10.8-7-16.2-10.4C2.2,96,1.9,95.7,2,95C3.6,83.5,7,72.4,12.3,62
		c8-15.7,19.3-28.5,33.5-38.8C59.2,13.4,74,6.7,90.2,3C98,1.2,106,0.2,114,0.1c17-0.4,33.2,2.9,48.5,10.3c14.6,7,26.8,17,36.9,29.6
		c10.7,13.4,18.2,28.6,23.5,44.9c1.1,3.3,1.9,6.7,3,10c0.2,0.8,0,1.1-0.6,1.5c-9.4,5.3-18.7,10.5-28,15.8c-0.4,0.2-0.7,0.4-1.2,0.7
		c0.7,0.5,1.3,0.9,2,1.3c8.5,5.3,16.9,10.6,25.4,15.8c0.7,0.4,1,0.8,0.9,1.7c-1.6,15.7-6.5,30.4-15,43.7
		c-9.7,15.2-22.8,26.8-38.5,35.5c-11.8,6.5-24.4,10.8-37.7,13.1c-6,1-12,1.6-18,1.8c-14.9,0.4-29.3-1.8-43.2-7.1
		c-22-8.3-39.3-22.4-51.9-42.2C12,164,6.8,150.4,3.4,136c-0.5-2.1-0.8-4.2-1.3-6.2c-0.2-0.7,0.1-1,0.7-1.4
		c8.6-4.7,17.2-9.4,25.7-14.2C28.8,114.1,29.1,113.9,29.6,113.6z M79.3,67c0.3,0.6,0.6,1,0.8,1.4c8.2,13.5,16.4,26.9,24.6,40.4
		c0.4,0.6,0.5,1,0.1,1.7c-8.8,15-17.5,30-26.3,45.1c-0.7,1.1-1.3,2.3-2,3.5c0.4,0.1,0.7,0.2,0.9,0.2c4.4,0.3,8.9,0.6,13.3,0.9
		c0.9,0.1,1.3-0.2,1.8-1c5.7-9.8,11.4-19.6,17-29.4c0.8-1.4,1.6-2.8,2.5-4.3c0.3,0.4,0.4,0.7,0.6,1c6.3,10.9,12.5,21.9,18.7,32.8
		c0.3,0.6,0.7,0.9,1.4,0.9c5.1-0.1,10.1-0.2,15.2-0.3c0.3,0,0.6-0.1,1-0.1c-0.2-0.5-0.4-0.8-0.6-1.1c-8.5-16.1-17-32.3-25.6-48.4
		c-0.3-0.7-0.4-1.1,0-1.8c7.7-13.4,15.4-26.8,23.1-40.1c0.2-0.3,0.3-0.6,0.5-1c-0.5,0-0.9,0-1.2-0.1c-4.1-0.1-8.1-0.1-12.2-0.3
		c-0.9,0-1.4,0.2-1.9,1c-5.7,9.3-11.4,18.7-17.1,28c-0.2,0.3-0.4,0.6-0.7,1c-0.2-0.4-0.4-0.6-0.6-0.9c-5.8-9.9-11.6-19.8-17.3-29.7
		c-0.4-0.7-0.8-0.9-1.6-0.8c-3.9,0.4-7.8,0.7-11.7,1.1C81.4,66.7,80.4,66.9,79.3,67z"/>
</g>
</svg>
