<!-- Generated by IcoMoon.io -->
<svg version="1.1" xmlns="http://www.w3.org/2000/svg" width="32" height="32" viewBox="0 0 32 32">
<title>XDCE</title>
<path d="M4.176 16.028c-0.522-0.339-1.016-0.649-1.51-0.974-0.762-0.494-1.524-0.988-2.286-1.467-0.071-0.042-0.113-0.085-0.099-0.183 0.226-1.623 0.705-3.189 1.453-4.656 1.129-2.215 2.723-4.021 4.727-5.474 1.891-1.383 3.979-2.328 6.265-2.85 1.101-0.254 2.229-0.395 3.358-0.409 2.399-0.056 4.684 0.409 6.843 1.453 2.060 0.988 3.781 2.399 5.206 4.176 1.51 1.891 2.568 4.035 3.316 6.335 0.155 0.466 0.268 0.945 0.423 1.411 0.028 0.113 0 0.155-0.085 0.212-1.326 0.748-2.638 1.481-3.951 2.229-0.056 0.028-0.099 0.056-0.169 0.099 0.099 0.071 0.183 0.127 0.282 0.183 1.199 0.748 2.384 1.496 3.584 2.229 0.099 0.056 0.141 0.113 0.127 0.24-0.226 2.215-0.917 4.289-2.116 6.166-1.369 2.145-3.217 3.781-5.432 5.009-1.665 0.917-3.443 1.524-5.319 1.848-0.847 0.141-1.693 0.226-2.54 0.254-2.102 0.056-4.134-0.254-6.095-1.002-3.104-1.171-5.545-3.16-7.323-5.954-1.143-1.764-1.877-3.683-2.356-5.714-0.071-0.296-0.113-0.593-0.183-0.875-0.028-0.099 0.014-0.141 0.099-0.198 1.213-0.663 2.427-1.326 3.626-2.004 0.042-0.014 0.085-0.042 0.155-0.085zM11.189 9.453c0.042 0.085 0.085 0.141 0.113 0.198 1.157 1.905 2.314 3.795 3.471 5.7 0.056 0.085 0.071 0.141 0.014 0.24-1.242 2.116-2.469 4.233-3.711 6.363-0.099 0.155-0.183 0.325-0.282 0.494 0.056 0.014 0.099 0.028 0.127 0.028 0.621 0.042 1.256 0.085 1.877 0.127 0.127 0.014 0.183-0.028 0.254-0.141 0.804-1.383 1.608-2.765 2.399-4.148 0.113-0.198 0.226-0.395 0.353-0.607 0.042 0.056 0.056 0.099 0.085 0.141 0.889 1.538 1.764 3.090 2.638 4.628 0.042 0.085 0.099 0.127 0.198 0.127 0.72-0.014 1.425-0.028 2.145-0.042 0.042 0 0.085-0.014 0.141-0.014-0.028-0.071-0.056-0.113-0.085-0.155-1.199-2.272-2.399-4.557-3.612-6.829-0.042-0.099-0.056-0.155 0-0.254 1.086-1.891 2.173-3.781 3.259-5.658 0.028-0.042 0.042-0.085 0.071-0.141-0.071 0-0.127 0-0.169-0.014-0.578-0.014-1.143-0.014-1.721-0.042-0.127 0-0.198 0.028-0.268 0.141-0.804 1.312-1.608 2.638-2.413 3.951-0.028 0.042-0.056 0.085-0.099 0.141-0.028-0.056-0.056-0.085-0.085-0.127-0.818-1.397-1.637-2.794-2.441-4.19-0.056-0.099-0.113-0.127-0.226-0.113-0.55 0.056-1.101 0.099-1.651 0.155-0.085 0-0.226 0.028-0.381 0.042z"></path>
</svg>
