<!-- Generated by IcoMoon.io -->
<svg version="1.1" xmlns="http://www.w3.org/2000/svg" width="32" height="32" viewBox="0 0 32 32">
<title>XDN</title>
<path d="M12.032 15.744c0-1.728 0-3.469 0-5.197 0-0.166 0.013-0.179 0.179-0.166 0.192 0.013 0.371 0.013 0.563 0.013 0.614 0.013 1.216 0.013 1.83 0.026 0.538 0.013 1.075 0.026 1.613 0.051 0.512 0.026 1.037 0.026 1.536 0.154 0.653 0.166 1.242 0.461 1.754 0.883 0.973 0.794 1.51 1.843 1.741 3.059 0.090 0.448 0.128 0.909 0.115 1.37-0.038 1.050-0.269 2.061-0.858 2.957-0.602 0.934-1.459 1.536-2.509 1.882-0.435 0.141-0.883 0.218-1.344 0.256-0.486 0.038-0.96 0.064-1.446 0.077-0.998 0.013-1.997 0.013-3.008 0.026-0.179 0-0.179 0-0.179-0.179 0.013-1.754 0.013-3.482 0.013-5.21zM14.49 15.77c0 1.011 0 2.010 0 3.021 0 0.128 0.038 0.154 0.154 0.154 0.41-0.026 0.819-0.026 1.229-0.051 0.205-0.013 0.41-0.026 0.614-0.038 0.294-0.026 0.576-0.077 0.845-0.23 0.691-0.397 1.139-0.986 1.344-1.754 0.115-0.435 0.141-0.896 0.115-1.344s-0.077-0.883-0.243-1.306c-0.205-0.538-0.563-0.947-1.075-1.216-0.486-0.256-1.011-0.346-1.549-0.371-0.422-0.013-0.858-0.013-1.28-0.013-0.154 0-0.154 0-0.154 0.154 0 0.998 0 1.997 0 2.995z"></path>
<path d="M30.874 19.686c0-0.077 0-0.115 0-0.154 0-0.64 0-1.293 0-1.933 0.013-1.126 0.013-2.253 0.026-3.379 0.013-1.203 0.013-2.406 0.026-3.61 0-0.205 0-0.205 0.205-0.205 0.166 0 0.32 0 0.486 0 0.077 0 0.115 0.026 0.115 0.115-0.013 0.691-0.013 1.382-0.026 2.061 0 0.051 0 0.102 0 0.154 0 1.766 0 3.533-0.013 5.299 0 0.96-0.013 1.92-0.013 2.88 0 0.115-0.038 0.141-0.141 0.154-0.23 0.013-0.422-0.051-0.563-0.218-0.384-0.422-0.794-0.832-1.152-1.28-1.907-2.355-3.802-4.723-5.696-7.078-0.128-0.166-0.269-0.333-0.422-0.538 0 0.077 0 0.115 0 0.166 0 2.931 0 5.85 0 8.781 0 0.243 0 0.243-0.23 0.243-0.154 0-0.307 0-0.461 0-0.166 0-0.166 0-0.166-0.179 0-0.013 0-0.026 0-0.051 0-3.43 0-6.848 0-10.278 0-0.038 0-0.077 0-0.102 0-0.077 0.026-0.102 0.115-0.115 0.218-0.026 0.397 0.051 0.55 0.205 0.397 0.435 0.794 0.858 1.165 1.318 1.075 1.306 2.125 2.637 3.187 3.955 0.986 1.242 1.971 2.483 2.957 3.725 0 0 0.013 0.013 0.051 0.064z"></path>
<path d="M5.696 13.133c-0.41 0-0.832 0-1.242 0-0.102 0-0.128-0.026-0.128-0.128 0-0.832 0-1.664 0-2.483 0-0.090 0.026-0.128 0.128-0.128 0.832 0 1.664 0 2.483 0 0.102 0 0.128 0.038 0.128 0.141 0 0.819 0 1.651 0 2.47 0 0.102-0.026 0.128-0.128 0.128-0.41 0-0.819 0-1.242 0z"></path>
<path d="M5.696 17.062c-0.41 0-0.819 0-1.216 0-0.102 0-0.141-0.026-0.141-0.141 0-0.819 0-1.651 0-2.47 0-0.102 0.038-0.141 0.141-0.141 0.819 0 1.651 0 2.47 0 0.102 0 0.141 0.026 0.141 0.141 0 0.819 0 1.651 0 2.47 0 0.115-0.038 0.141-0.141 0.141-0.422-0.013-0.845 0-1.254 0z"></path>
<path d="M3.021 13.133c-0.051 0-0.102 0-0.141 0-0.819 0-1.638 0-2.458 0-0.115 0-0.154-0.038-0.154-0.141 0-0.819 0-1.626 0-2.445 0-0.154 0.013-0.154 0.166-0.154 0.806 0 1.613 0 2.432 0 0.115 0 0.154 0.038 0.154 0.154 0 0.819 0 1.638 0 2.458 0 0.026 0 0.064 0 0.128z"></path>
<path d="M8.397 21.107c0-0.051 0-0.090 0-0.128 0-0.845 0-1.69 0-2.534 0-0.115 0.038-0.154 0.154-0.154 0.755 0 1.51 0 2.266 0 0.115 0 0.154 0.026 0.154 0.141 0 0.845 0 1.69 0 2.534 0 0.090-0.013 0.141-0.115 0.141-0.794 0-1.587 0-2.381 0-0.038 0.013-0.051 0-0.077 0z"></path>
<path d="M8.397 13.133c0-0.051 0-0.102 0-0.141 0-0.819 0-1.638 0-2.445 0-0.115 0.038-0.154 0.154-0.154 0.768 0 1.536 0 2.304 0 0.115 0 0.154 0.038 0.141 0.154 0 0.819 0 1.638 0 2.445 0 0.115-0.026 0.154-0.141 0.141-0.768 0-1.549 0-2.317 0-0.038 0-0.077 0-0.141 0z"></path>
<path d="M8.397 15.68c0-0.41 0-0.832 0-1.242 0-0.090 0.013-0.128 0.115-0.128 0.781 0 1.562 0 2.342 0 0.102 0 0.141 0.026 0.141 0.141 0 0.819 0 1.651 0 2.47 0 0.102-0.026 0.128-0.128 0.128-0.781 0-1.562 0-2.342 0-0.102 0-0.128-0.026-0.128-0.128 0-0.41 0-0.819 0-1.242z"></path>
</svg>
