<?xml version="1.0" encoding="utf-8"?>
<!-- Generator: Adobe Illustrator 22.1.0, SVG Export Plug-In . SVG Version: 6.00 Build 0)  -->
<svg version="1.1" id="Layer_1" xmlns="http://www.w3.org/2000/svg" xmlns:xlink="http://www.w3.org/1999/xlink" x="0px" y="0px"
	 viewBox="0 0 250 250" style="enable-background:new 0 0 250 250;" xml:space="preserve">
<g>
	<path d="M94,123c0-13.5,0-27.1,0-40.6c0-1.3,0.1-1.4,1.4-1.3c1.5,0.1,2.9,0.1,4.4,0.1c4.8,0.1,9.5,0.1,14.3,0.2
		c4.2,0.1,8.4,0.2,12.6,0.4c4,0.2,8.1,0.2,12,1.2c5.1,1.3,9.7,3.6,13.7,6.9c7.6,6.2,11.8,14.4,13.6,23.9c0.7,3.5,1,7.1,0.9,10.7
		c-0.3,8.2-2.1,16.1-6.7,23.1c-4.7,7.3-11.4,12-19.6,14.7c-3.4,1.1-6.9,1.7-10.5,2c-3.8,0.3-7.5,0.5-11.3,0.6
		c-7.8,0.1-15.6,0.1-23.5,0.2c-1.4,0-1.4,0-1.4-1.4C94,150,94,136.5,94,123z M113.2,123.2c0,7.9,0,15.7,0,23.6c0,1,0.3,1.2,1.2,1.2
		c3.2-0.2,6.4-0.2,9.6-0.4c1.6-0.1,3.2-0.2,4.8-0.3c2.3-0.2,4.5-0.6,6.6-1.8c5.4-3.1,8.9-7.7,10.5-13.7c0.9-3.4,1.1-7,0.9-10.5
		c-0.2-3.5-0.6-6.9-1.9-10.2c-1.6-4.2-4.4-7.4-8.4-9.5c-3.8-2-7.9-2.7-12.1-2.9c-3.3-0.1-6.7-0.1-10-0.1c-1.2,0-1.2,0-1.2,1.2
		C113.2,107.6,113.2,115.4,113.2,123.2z"/>
	<path d="M241.2,153.8c0-0.6,0-0.9,0-1.2c0-5,0-10.1,0-15.1c0.1-8.8,0.1-17.6,0.2-26.4c0.1-9.4,0.1-18.8,0.2-28.2
		c0-1.6,0-1.6,1.6-1.6c1.3,0,2.5,0,3.8,0c0.6,0,0.9,0.2,0.9,0.9c-0.1,5.4-0.1,10.8-0.2,16.1c0,0.4,0,0.8,0,1.2
		c0,13.8,0,27.6-0.1,41.4c0,7.5-0.1,15-0.1,22.5c0,0.9-0.3,1.1-1.1,1.2c-1.8,0.1-3.3-0.4-4.4-1.7c-3-3.3-6.2-6.5-9-10
		c-14.9-18.4-29.7-36.9-44.5-55.3c-1-1.3-2.1-2.6-3.3-4.2c0,0.6,0,0.9,0,1.3c0,22.9,0,45.7,0,68.6c0,1.9,0,1.9-1.8,1.9
		c-1.2,0-2.4,0-3.6,0c-1.3,0-1.3,0-1.3-1.4c0-0.1,0-0.2,0-0.4c0-26.8,0-53.5,0-80.3c0-0.3,0-0.6,0-0.8c0-0.6,0.2-0.8,0.9-0.9
		c1.7-0.2,3.1,0.4,4.3,1.6c3.1,3.4,6.2,6.7,9.1,10.3c8.4,10.2,16.6,20.6,24.9,30.9c7.7,9.7,15.4,19.4,23.1,29.1
		C240.8,153.3,240.9,153.4,241.2,153.8z"/>
	<path d="M44.5,102.6c-3.2,0-6.5,0-9.7,0c-0.8,0-1-0.2-1-1c0-6.5,0-13,0-19.4c0-0.7,0.2-1,1-1c6.5,0,13,0,19.4,0c0.8,0,1,0.3,1,1.1
		c0,6.4,0,12.9,0,19.3c0,0.8-0.2,1-1,1C51,102.6,47.8,102.6,44.5,102.6z"/>
	<path d="M44.5,133.3c-3.2,0-6.4,0-9.5,0c-0.8,0-1.1-0.2-1.1-1.1c0-6.4,0-12.9,0-19.3c0-0.8,0.3-1.1,1.1-1.1c6.4,0,12.9,0,19.3,0
		c0.8,0,1.1,0.2,1.1,1.1c0,6.4,0,12.9,0,19.3c0,0.9-0.3,1.1-1.1,1.1C51,133.2,47.7,133.3,44.5,133.3z"/>
	<path d="M23.6,102.6c-0.4,0-0.8,0-1.1,0c-6.4,0-12.8,0-19.2,0c-0.9,0-1.2-0.3-1.2-1.1c0-6.4,0-12.7,0-19.1c0-1.2,0.1-1.2,1.3-1.2
		c6.3,0,12.6,0,19,0c0.9,0,1.2,0.3,1.2,1.2c0,6.4,0,12.8,0,19.2C23.6,101.8,23.6,102.1,23.6,102.6z"/>
	<path d="M65.6,164.9c0-0.4,0-0.7,0-1c0-6.6,0-13.2,0-19.8c0-0.9,0.3-1.2,1.2-1.2c5.9,0,11.8,0,17.7,0c0.9,0,1.2,0.2,1.2,1.1
		c0,6.6,0,13.2,0,19.8c0,0.7-0.1,1.1-0.9,1.1c-6.2,0-12.4,0-18.6,0C65.9,165,65.8,164.9,65.6,164.9z"/>
	<path d="M65.6,102.6c0-0.4,0-0.8,0-1.1c0-6.4,0-12.8,0-19.1c0-0.9,0.3-1.2,1.2-1.2c6,0,12,0,18,0c0.9,0,1.2,0.3,1.1,1.2
		c0,6.4,0,12.8,0,19.1c0,0.9-0.2,1.2-1.1,1.1c-6,0-12.1,0-18.1,0C66.4,102.6,66.1,102.6,65.6,102.6z"/>
	<path d="M65.6,122.5c0-3.2,0-6.5,0-9.7c0-0.7,0.1-1,0.9-1c6.1,0,12.2,0,18.3,0c0.8,0,1.1,0.2,1.1,1.1c0,6.4,0,12.9,0,19.3
		c0,0.8-0.2,1-1,1c-6.1,0-12.2,0-18.3,0c-0.8,0-1-0.2-1-1C65.6,129,65.6,125.8,65.6,122.5z"/>
</g>
</svg>
