<?xml version="1.0" encoding="utf-8"?>
<!-- Generator: Adobe Illustrator 22.1.0, SVG Export Plug-In . SVG Version: 6.00 Build 0)  -->
<svg version="1.1" id="Layer_1" xmlns="http://www.w3.org/2000/svg" xmlns:xlink="http://www.w3.org/1999/xlink" x="0px" y="0px"
	 viewBox="0 0 226.8 226.8" style="enable-background:new 0 0 226.8 226.8;" xml:space="preserve">
<g>
	<path d="M134.9,145.9c-3.1,7.1-5,14-5.7,21.2c-1.2,11.1,1,22,2.3,33c0.8,6.6,1.1,13-3.1,18.9c-4.1,5.7-8.3,5.5-11.6-0.7
		c-2.4-4.6-2.3-9.6-1.1-14.4c1.8-7.4,4-14.8,5.8-22.2c2.9-12.2,3.9-24.5,1.4-36.9c-0.2-1-0.9-1.9-1.4-2.9c-0.8,0.6-1.6,1.1-2.3,1.7
		c-6.2,5.9-9.7,13.4-12.9,21.2c-1.2,3-2.6,5.9-4.1,8.7c-1.3,2.4-3.4,3.7-6.1,4.2c-3.3,0.5-5.1-1.2-4.6-4.6c0.6-3.8,3.1-6.6,5.5-9.3
		c4.5-5,9.2-9.8,13.6-14.8c2-2.3,3.4-5,5.1-7.5c-0.1-0.3-0.2-0.6-0.4-0.9c-3.4,0.3-6.8,0.3-10.1,0.8c-16.1,2.6-30.1,10-42.6,20.1
		c-5.7,4.6-11,9.7-16.5,14.4c-8.3,7.1-18,10.5-28.9,9.8c-6.7-0.4-8.7-4.2-5.5-10.1c5.7-10.5,14.4-17.5,26-20.7
		c10.6-2.9,21.3-5.4,31.7-8.8c13.6-4.5,26.5-10.6,37.7-19.8c0.7-0.6,1.4-1.2,2.1-1.8c0.2-0.2,0.4-0.5,1-1.3
		c-2.9-1.9-5.6-3.9-8.5-5.4c-10.3-5.4-21.4-8.2-32.9-9.3c-7.3-0.7-14.6-1.2-21.8-2.1c-5.2-0.6-10-2.3-13.1-7c-2.2-3.3-1.3-6,2.3-7.6
		c6.7-3.1,13.2-1.6,19.5,1c7.5,3.1,14.9,6.6,22.4,9.9c10.7,4.7,22,7.6,33.7,8.8c1.2,0.1,2.5,0,4.6,0c-1.9-2.6-3.5-4.7-5.1-6.7
		c-5.4-6.5-12.8-10.3-19.7-14.7c-3.2-2.1-5.7-4.8-6.6-8.7c-0.9-3.9,0.8-5.9,4.6-4.7c2.7,0.9,5.4,2.5,7.4,4.6
		c2.8,2.8,4.9,6.3,7.2,9.6c4.6,6.9,9.5,13.5,16,18.7c0.6,0.5,1.2,0.9,2.1,1.6c2.1-3.1,4.2-5.8,5.9-8.8c8.1-14.1,12.8-29.4,14.3-45.6
		c0.9-10,1.1-20,2.1-30c0.5-4.8,1.6-9.7,3.1-14.4c1.5-4.6,5.1-8,9.2-10.6c4.5-2.8,8.5-1.8,11.3,2.8c4.8,8.1,4.6,16.4,0.7,24.7
		C165,36.9,161,44.4,157,51.9c-7.3,13.6-12.4,28-14.7,43.2c-0.7,4.3-0.8,8.7-1.2,14c4.7-1.8,8.7-3.1,12.5-4.8
		c10.2-4.6,19-11.2,27.2-18.7c4.8-4.4,9.7-8.8,14.7-13.1c3.7-3.1,7.9-5.1,13.1-4.6c7.9,0.7,9,6.8,5.8,12.6c-1.8,3.4-5.1,5.2-8.5,6.6
		c-6.5,2.5-13.1,4.8-19.7,7c-13.9,4.8-26,12.1-35.2,23.8c-0.9,1.1-1.6,2.3-2.4,3.4c0.1,0.3,0.2,0.6,0.3,0.9
		c4.3,0.1,8.6,0.5,12.8,0.2c8.6-0.7,17.2-1.9,25.8-2.7c1.6-0.1,3.4,0.8,4.8,1.6c1.7,1,2.3,3.1,1.3,4.7c-0.8,1.2-2.5,2.6-3.9,2.6
		c-3.5,0.1-7.1-0.4-10.6-0.8c-6.3-0.8-12.6-2.2-18.9-2.4c-4.5-0.2-9,1.1-13.6,1.7c-2.1,0.3-2.5,1.4-1.8,3.4
		c3,8.9,7.2,17.2,12.7,24.9c8.5,11.7,18.8,21.4,30.5,29.8c5,3.6,9.9,7.5,14.3,11.8c6.3,6.1,8.5,14,7.9,22.6c-0.4,6-4.1,8.5-9.8,6.6
		c-10.1-3.4-17.5-10-22.3-19.4c-3.3-6.6-6-13.5-9.3-20.1c-7.1-14.6-16.3-27.6-29.2-37.8C138.3,147.9,136.7,147,134.9,145.9z"/>
</g>
</svg>
