<!-- Generated by IcoMoon.io -->
<svg version="1.1" xmlns="http://www.w3.org/2000/svg" width="32" height="32" viewBox="0 0 32 32">
<title>XEL</title>
<path d="M19.034 20.586c-0.437 1.002-0.705 1.975-0.804 2.991-0.169 1.566 0.141 3.104 0.325 4.656 0.113 0.931 0.155 1.834-0.437 2.667-0.578 0.804-1.171 0.776-1.637-0.099-0.339-0.649-0.325-1.355-0.155-2.032 0.254-1.044 0.564-2.088 0.818-3.132 0.409-1.721 0.55-3.457 0.198-5.206-0.028-0.141-0.127-0.268-0.198-0.409-0.113 0.085-0.226 0.155-0.325 0.24-0.875 0.832-1.369 1.891-1.82 2.991-0.169 0.423-0.367 0.832-0.578 1.227-0.183 0.339-0.48 0.522-0.861 0.593-0.466 0.071-0.72-0.169-0.649-0.649 0.085-0.536 0.437-0.931 0.776-1.312 0.635-0.705 1.298-1.383 1.919-2.088 0.282-0.325 0.48-0.705 0.72-1.058-0.014-0.042-0.028-0.085-0.056-0.127-0.48 0.042-0.959 0.042-1.425 0.113-2.272 0.367-4.247 1.411-6.011 2.836-0.804 0.649-1.552 1.369-2.328 2.032-1.171 1.002-2.54 1.481-4.078 1.383-0.945-0.056-1.228-0.593-0.776-1.425 0.804-1.481 2.032-2.469 3.668-2.921 1.496-0.409 3.005-0.762 4.473-1.242 1.919-0.635 3.739-1.496 5.319-2.794 0.099-0.085 0.198-0.169 0.296-0.254 0.028-0.028 0.056-0.071 0.141-0.183-0.409-0.268-0.79-0.55-1.199-0.762-1.453-0.762-3.019-1.157-4.642-1.312-1.030-0.099-2.060-0.169-3.076-0.296-0.734-0.085-1.411-0.325-1.848-0.988-0.31-0.466-0.183-0.847 0.325-1.072 0.945-0.437 1.862-0.226 2.751 0.141 1.058 0.437 2.102 0.931 3.16 1.397 1.51 0.663 3.104 1.072 4.755 1.242 0.169 0.014 0.353 0 0.649 0-0.268-0.367-0.494-0.663-0.72-0.945-0.762-0.917-1.806-1.453-2.78-2.074-0.451-0.296-0.804-0.677-0.931-1.227s0.113-0.832 0.649-0.663c0.381 0.127 0.762 0.353 1.044 0.649 0.395 0.395 0.691 0.889 1.016 1.354 0.649 0.974 1.34 1.905 2.258 2.638 0.085 0.071 0.169 0.127 0.296 0.226 0.296-0.437 0.593-0.818 0.832-1.242 1.143-1.989 1.806-4.148 2.018-6.434 0.127-1.411 0.155-2.822 0.296-4.233 0.071-0.677 0.226-1.369 0.437-2.032 0.212-0.649 0.72-1.129 1.298-1.496 0.635-0.395 1.199-0.254 1.594 0.395 0.677 1.143 0.649 2.314 0.099 3.485-0.55 1.072-1.115 2.13-1.679 3.189-1.030 1.919-1.75 3.951-2.074 6.095-0.099 0.607-0.113 1.227-0.169 1.975 0.663-0.254 1.227-0.437 1.764-0.677 1.439-0.649 2.681-1.58 3.838-2.638 0.677-0.621 1.369-1.242 2.074-1.848 0.522-0.437 1.115-0.72 1.848-0.649 1.115 0.099 1.27 0.959 0.818 1.778-0.254 0.48-0.72 0.734-1.199 0.931-0.917 0.353-1.848 0.677-2.78 0.988-1.961 0.677-3.668 1.707-4.966 3.358-0.127 0.155-0.226 0.325-0.339 0.48 0.014 0.042 0.028 0.085 0.042 0.127 0.607 0.014 1.213 0.071 1.806 0.028 1.213-0.099 2.427-0.268 3.64-0.381 0.226-0.014 0.48 0.113 0.677 0.226 0.24 0.141 0.325 0.437 0.183 0.663-0.113 0.169-0.353 0.367-0.55 0.367-0.494 0.014-1.002-0.056-1.496-0.113-0.889-0.113-1.778-0.31-2.667-0.339-0.635-0.028-1.27 0.155-1.919 0.24-0.296 0.042-0.353 0.198-0.254 0.48 0.423 1.256 1.016 2.427 1.792 3.513 1.199 1.651 2.653 3.019 4.303 4.205 0.705 0.508 1.397 1.058 2.018 1.665 0.889 0.861 1.199 1.975 1.115 3.189-0.056 0.847-0.578 1.199-1.383 0.931-1.425-0.48-2.469-1.411-3.146-2.737-0.466-0.931-0.847-1.905-1.312-2.836-1.002-2.060-2.3-3.894-4.12-5.333-0.183-0.141-0.409-0.268-0.663-0.423z"></path>
</svg>
