<?xml version="1.0" encoding="utf-8"?>
<!-- Generator: Adobe Illustrator 22.1.0, SVG Export Plug-In . SVG Version: 6.00 Build 0)  -->
<svg version="1.1" id="Layer_1" xmlns="http://www.w3.org/2000/svg" xmlns:xlink="http://www.w3.org/1999/xlink" x="0px" y="0px"
	 viewBox="0 0 226.8 226.8" style="enable-background:new 0 0 226.8 226.8;" xml:space="preserve">
<g>
	<path d="M226.4,115.4c0,27.5,0,55.1,0,82.6c0,7.3-1.7,8.4-8.4,5.4c-10.7-4.7-21.3-9.5-32-14.2c-3.9-1.7-5.7-4.4-5.7-8.7
		c0.1-43.6,0.1-87.1,0.1-130.7c0-4.6,2-7.6,6.2-9.4c10.8-4.7,21.6-9.6,32.4-14.4c5.2-2.3,7.2-1,7.2,4.8c0,28.2,0,56.3,0,84.5
		C226.3,115.4,226.4,115.4,226.4,115.4z"/>
	<path d="M0.1,114.6c0-27.5,0-55.1,0-82.6c0-7,1.8-8.2,8.1-5.4c10.5,4.6,21,9.5,31.5,14.1C44,42.5,46,45.4,46,50
		c0,42.5,0,85,0.1,127.4c0,4.2-1.5,7-5.3,8.9c-11.1,5.6-22.1,11.5-33.1,17.2c-5.5,2.8-7.7,1.4-7.7-5c0-28,0-56,0-84
		C0,114.6,0.1,114.6,0.1,114.6z"/>
	<path d="M160.9,117c0,7,0,14,0,21c0,3.8-1.6,6.4-4.9,8.3c-11.9,6.8-23.7,13.7-35.5,20.7c-3.9,2.3-7.4,2.4-11.3,0
		c-11.5-6.9-23-13.6-34.7-20.2c-4-2.3-5.6-5.3-5.6-9.8c0.2-13.7,0.2-27.4,0.1-41.1c0-4.4,1.5-7.3,5.4-9.4
		c11.9-6.7,23.8-13.6,35.5-20.6c3.5-2.1,6.5-2,10,0c11.9,7.1,23.9,14,35.9,20.9c3.5,2,5.1,4.8,5.1,8.8
		C160.8,102.7,160.9,109.9,160.9,117C160.9,117,160.9,117,160.9,117z"/>
</g>
</svg>
