<!-- Generated by IcoMoon.io -->
<svg version="1.1" xmlns="http://www.w3.org/2000/svg" width="32" height="32" viewBox="0 0 32 32">
<title>XIN</title>
<path d="M31.944 16.282c0 3.88 0 7.774 0 11.654 0 1.030-0.24 1.185-1.185 0.762-1.51-0.663-3.005-1.34-4.515-2.004-0.55-0.24-0.804-0.621-0.804-1.227 0.014-6.152 0.014-12.289 0.014-18.441 0-0.649 0.282-1.072 0.875-1.326 1.524-0.663 3.048-1.354 4.571-2.032 0.734-0.325 1.016-0.141 1.016 0.677 0 3.979 0 7.944 0 11.922 0.014 0.014 0.028 0.014 0.028 0.014z"></path>
<path d="M0.014 16.169c0-3.88 0-7.774 0-11.654 0-0.988 0.254-1.157 1.143-0.762 1.481 0.649 2.963 1.34 4.444 1.989 0.607 0.254 0.889 0.663 0.889 1.312 0 5.996 0 11.993 0.014 17.975 0 0.593-0.212 0.988-0.748 1.256-1.566 0.79-3.118 1.623-4.67 2.427-0.776 0.395-1.086 0.198-1.086-0.705 0-3.951 0-7.901 0-11.852 0 0.014 0.014 0.014 0.014 0.014z"></path>
<path d="M22.702 16.508c0 0.988 0 1.975 0 2.963 0 0.536-0.226 0.903-0.691 1.171-1.679 0.959-3.344 1.933-5.009 2.921-0.55 0.325-1.044 0.339-1.594 0-1.623-0.974-3.245-1.919-4.896-2.85-0.564-0.325-0.79-0.748-0.79-1.383 0.028-1.933 0.028-3.866 0.014-5.799 0-0.621 0.212-1.030 0.762-1.326 1.679-0.945 3.358-1.919 5.009-2.907 0.494-0.296 0.917-0.282 1.411 0 1.679 1.002 3.372 1.975 5.065 2.949 0.494 0.282 0.72 0.677 0.72 1.242-0.014 1.002 0 2.018 0 3.019 0 0 0 0 0 0z"></path>
</svg>
