<!-- Generated by IcoMoon.io -->
<svg version="1.1" xmlns="http://www.w3.org/2000/svg" width="32" height="32" viewBox="0 0 32 32">
<title>XP</title>
<path d="M16.282 14.159l5.108-2.653 0.437-2.173 3.33 0.028c0.099 0 0.198 0.014 0.296 0.042l4.064-2.116c-1.086-0.847-2.469-1.298-4.162-1.34l-10.667-0.014-2.737 4.346h5.079l-0.748 3.88z"></path>
<path d="M27.005 11.026c0.028 0.155 0.042 0.325 0.056 0.48 0.028 1.256-0.268 2.258-0.889 3.005s-1.51 1.129-2.653 1.143l-2.949-0.028 0.282-1.411-5.108 2.653-1.848 9.256h4.586l1.425-7.111 3.344 0.014c2.342 0 4.261-0.593 5.771-1.778s2.37-2.78 2.582-4.755c0.127-1.354-0.085-2.54-0.635-3.541"></path>
<path d="M0.818 24.621l-0.028-0.056-1.115 1.566h5.474l3.4-5.531-7.732 4.021"></path>
<path d="M3.457 20.811l9.679-5.023 3.922-5.517h-5.079l-1.538 2.568-1.792-6.914h-5.051l3.443 9.848-3.584 5.037"></path>
<path d="M9.707 19.993l1.58 6.138h5.136l-2.864-8.127-3.852 1.989"></path>
</svg>
