<?xml version="1.0" encoding="utf-8"?>
<!-- Generator: Adobe Illustrator 22.0.1, SVG Export Plug-In . SVG Version: 6.00 Build 0)  -->
<svg version="1.1" id="Layer_1" xmlns="http://www.w3.org/2000/svg" xmlns:xlink="http://www.w3.org/1999/xlink" x="0px" y="0px"
	 viewBox="0 0 226.8 226.8" style="enable-background:new 0 0 226.8 226.8;" xml:space="preserve">
<style type="text/css">
	.st0{stroke:#FFFFFF;stroke-miterlimit:10;}
</style>
<g transform="translate(0-377.75)">
	<path class="st0" d="M115.4,478.1l36.2-18.8l3.1-15.4l23.6,0.2c0.7,0,1.4,0.1,2.1,0.3l28.8-15c-7.7-6-17.5-9.2-29.5-9.5l-52.8-0.1
		h-22.8l-19.4,30.8h36L115.4,478.1z"/>
	<path class="st0" d="M191.4,455.9c0.2,1.1,0.3,2.3,0.4,3.4c0.2,8.9-1.9,16-6.3,21.3c-4.4,5.3-10.7,8-18.8,8.1l-20.9-0.2l2-10
		l-36.2,18.8l-13.1,65.6H131l10.1-50.4l23.7,0.1c16.6,0,30.2-4.2,40.9-12.6s16.8-19.7,18.3-33.7c0.9-9.6-0.6-18-4.5-25.1"/>
</g>
<g>
	<path class="st0" d="M5.8,174.5l-0.2-0.4l-7.9,11.1h38.8L60.6,146L5.8,174.5"/>
	<path class="st0" d="M24.5,147.5l68.6-35.6l27.8-39.1h-36L74,91L61.3,42H25.5l24.4,69.8L24.5,147.5"/>
	<path class="st0" d="M68.8,141.7L80,185.2h36.4l-20.3-57.6L68.8,141.7"/>
</g>
</svg>
