<!-- Generated by IcoMoon.io -->
<svg version="1.1" xmlns="http://www.w3.org/2000/svg" width="32" height="32" viewBox="0 0 32 32">
<title>XRB</title>
<path d="M4.614 20.289c0 1.262-1.023 2.286-2.286 2.286s-2.286-1.023-2.286-2.286c0-1.262 1.023-2.286 2.286-2.286s2.286 1.023 2.286 2.286z"></path>
<path d="M29.616 8.931c-1.242 0-2.286 1.002-2.286 2.286 0 1.82-0.282 2.286-2.286 2.286h-0.198c-1.171 0.099-2.060 1.072-2.046 2.243v0.042c0 1.764-0.339 2.201-2.286 2.201-0.099 0-0.198 0-0.24 0.042-1.143 0.141-2.046 1.101-2.046 2.243 0 1.242 1.002 2.286 2.286 2.286 1.199 0 2.201-0.959 2.243-2.102v-0.198c0-1.623 0.522-2.243 2.243-2.286h0.042c1.199 0 2.201-0.959 2.243-2.145v-0.141c0-1.665 0.522-2.286 2.286-2.286 1.242 0 2.286-1.002 2.286-2.286 0-1.185-1.002-2.187-2.243-2.187zM16.169 13.503h-0.198c-2.004 0-2.286-0.466-2.286-2.286 0-1.242-1.002-2.286-2.286-2.286-1.242 0-2.286 1.002-2.286 2.286 0 1.82-0.282 2.243-2.286 2.243h-0.198c-1.171 0.099-2.060 1.072-2.046 2.243 0 1.242 1.002 2.286 2.286 2.286 1.199 0 2.201-0.959 2.243-2.102v-0.141c0-1.665 0.522-2.286 2.286-2.286s2.286 0.621 2.286 2.243c0 1.242 1.002 2.286 2.286 2.286s2.286-1.002 2.286-2.286c-0.042-1.143-0.945-2.102-2.088-2.201z"></path>
</svg>
