<?xml version="1.0" encoding="utf-8"?>
<!-- Generator: Adobe Illustrator 22.0.1, SVG Export Plug-In . SVG Version: 6.00 Build 0)  -->
<svg version="1.1" id="Layer_1" xmlns="http://www.w3.org/2000/svg" xmlns:xlink="http://www.w3.org/1999/xlink" x="0px" y="0px"
	 viewBox="0 0 226.8 226.8" style="enable-background:new 0 0 226.8 226.8;" xml:space="preserve">
<style type="text/css">
	.st0{stroke:#FFFFFF;stroke-miterlimit:10;}
</style>
<g>
	<circle class="st0" cx="16.5" cy="143.8" r="16.2"/>
	<path class="st0" d="M209.9,63.3c-8.8,0-16.2,7.1-16.2,16.2c0,12.9-2,16.2-16.2,16.2h-1.4c-8.3,0.7-14.6,7.6-14.5,15.9v0.3
		c0,12.5-2.4,15.6-16.2,15.6c-0.7,0-1.4,0-1.7,0.3c-8.1,1-14.5,7.8-14.5,15.9c0,8.8,7.1,16.2,16.2,16.2c8.5,0,15.6-6.8,15.9-14.9
		v-1.4c0-11.5,3.7-15.9,15.9-16.2h0.3c8.5,0,15.6-6.8,15.9-15.2v-1c0-11.8,3.7-16.2,16.2-16.2c8.8,0,16.2-7.1,16.2-16.2
		C225.8,70.4,218.7,63.3,209.9,63.3z M114.6,95.7h-1.4C99,95.7,97,92.4,97,79.5c0-8.8-7.1-16.2-16.2-16.2c-8.8,0-16.2,7.1-16.2,16.2
		c0,12.9-2,15.9-16.2,15.9h-1.4c-8.3,0.7-14.6,7.6-14.5,15.9c0,8.8,7.1,16.2,16.2,16.2c8.5,0,15.6-6.8,15.9-14.9v-1
		c0-11.8,3.7-16.2,16.2-16.2S97,99.8,97,111.3c0,8.8,7.1,16.2,16.2,16.2s16.2-7.1,16.2-16.2C129.1,103.2,122.7,96.4,114.6,95.7z"/>
</g>
</svg>
