<?xml version="1.0" encoding="utf-8"?>
<!-- Generator: Adobe Illustrator 22.1.0, SVG Export Plug-In . SVG Version: 6.00 Build 0)  -->
<svg version="1.1" id="Layer_1" xmlns="http://www.w3.org/2000/svg" xmlns:xlink="http://www.w3.org/1999/xlink" x="0px" y="0px"
	 viewBox="0 0 226.8 226.8" style="enable-background:new 0 0 226.8 226.8;" xml:space="preserve">
<g>
	<path d="M-0.3,207.4c0.3-0.2,0.5-0.4,0.8-0.7c2.9-2.9,5.8-5.8,8.7-8.6c3.8-3.8,7.6-7.5,11.4-11.3c3.5-3.4,7-6.9,10.4-10.3
		c3.6-3.6,7.3-7.2,10.9-10.8c3.5-3.5,7-7,10.6-10.5c3.6-3.5,7.1-7.1,10.7-10.6c2.1-2.1,4.2-4.2,6.4-6.2c4.1-3.9,8.6-7.2,13.6-9.8
		c5.9-3.2,12.2-5.4,18.8-6.6c2.5-0.4,5-0.7,7.5-0.9c2.1-0.2,4.3-0.2,6.4-0.1c4,0.1,8,0.6,11.9,1.5c5.3,1.2,10.4,3,15.2,5.5
		c4.5,2.3,8.7,5.2,12.5,8.5c1.3,1.1,2.5,2.3,3.7,3.5c4.8,4.7,9.5,9.4,14.3,14.1c3.5,3.5,7,7,10.6,10.5c3.6,3.6,7.2,7.1,10.8,10.7
		c3.5,3.5,7,6.9,10.5,10.4c3.7,3.6,7.4,7.3,11,10.9c3.5,3.5,7.1,7,10.6,10.5c0.1,0.1,0.1,0.1,0.3,0.3c-0.3,0-0.5,0.1-0.7,0.1
		c-10.5,0-21,0-31.5,0c-0.5,0-0.9-0.1-1.2-0.5c-4.7-4.7-9.4-9.4-14.1-14c-3.8-3.8-7.6-7.6-11.4-11.3c-3.5-3.5-7-7-10.6-10.5
		c-3.6-3.6-7.2-7.1-10.8-10.7c-2.5-2.4-4.9-4.9-7.5-7.1c-6-5.1-12.9-8-20.6-9.1c-2.5-0.3-4.9-0.4-7.4-0.3c-5,0.3-9.8,1.4-14.4,3.5
		c-4.6,2.1-8.7,5-12.2,8.6c-4.7,4.7-9.4,9.3-14,14c-3.6,3.5-7.1,7.1-10.7,10.6c-3.5,3.5-7.1,7-10.6,10.5c-3.6,3.5-7.1,7.1-10.7,10.6
		c-1.7,1.7-3.5,3.4-5.2,5.1c-0.4,0.4-0.9,0.6-1.5,0.6c-10.7,0-21.4,0-32.1,0C-0.3,207.5-0.3,207.5-0.3,207.4z"/>
	<path d="M33.2,19.2c0.2,0.3,0.4,0.5,0.7,0.8C39,25,44.1,30.1,49.2,35.2c3.5,3.5,7.1,7,10.6,10.5c3.6,3.5,7.1,7.1,10.7,10.6
		c3.5,3.5,7.1,7,10.6,10.5c2.3,2.2,4.5,4.4,6.9,6.5c4.7,3.9,10.1,6.5,16.1,7.9c3.8,0.9,7.7,1.2,11.6,1c4.9-0.2,9.5-1.4,14-3.4
		c4.8-2.1,9-5.1,12.6-8.8c4.5-4.5,9-9,13.6-13.5c3.4-3.4,6.9-6.8,10.3-10.2c3.7-3.6,7.4-7.3,11-10.9c2.9-2.8,5.7-5.6,8.6-8.5
		c2.4-2.3,4.7-4.7,7.1-7c0.2-0.2,0.4-0.5,0.7-0.8c11.1,0,22.1,0,33.2,0c-3.4,3.4-6.7,6.8-10.1,10.1c-3.6,3.5-7.1,7.1-10.7,10.6
		c-3.5,3.5-7.1,7-10.6,10.5c-3.5,3.5-7.1,7-10.6,10.5c-3.6,3.5-7.1,7.1-10.7,10.6c-3.5,3.5-7,7.1-10.7,10.5
		c-3.3,3.1-6.3,6.5-9.9,9.3c-5.6,4.4-11.7,7.9-18.4,10.3c-4.9,1.8-10,2.9-15.2,3.4c-3.8,0.4-7.6,0.4-11.3,0.1
		c-7.6-0.6-14.9-2.5-21.8-5.6c-5.7-2.6-10.9-6.1-15.6-10.2c-0.7-0.6-1.3-1.2-2-1.9c-4.8-4.7-9.5-9.5-14.3-14.2
		c-3.5-3.5-7-6.9-10.5-10.4c-3.6-3.6-7.2-7.2-10.8-10.7c-3.5-3.5-7-6.9-10.5-10.4C19.2,38.2,15.6,34.6,12,31c-3.5-3.5-7-7-10.6-10.5
		c-0.4-0.4-0.9-0.9-1.3-1.3C11.1,19.2,22.2,19.2,33.2,19.2z"/>
</g>
</svg>
