<!-- Generated by IcoMoon.io -->
<svg version="1.1" xmlns="http://www.w3.org/2000/svg" width="32" height="32" viewBox="0 0 32 32">
<title>XRP</title>
<path d="M-0.042 29.263c0.042-0.028 0.071-0.056 0.113-0.099 0.409-0.409 0.818-0.818 1.228-1.213 0.536-0.536 1.072-1.058 1.608-1.594 0.494-0.48 0.988-0.974 1.467-1.453 0.508-0.508 1.030-1.016 1.538-1.524 0.494-0.494 0.988-0.988 1.496-1.481s1.002-1.002 1.51-1.496c0.296-0.296 0.593-0.593 0.903-0.875 0.578-0.55 1.213-1.016 1.919-1.383 0.832-0.451 1.721-0.762 2.653-0.931 0.353-0.056 0.705-0.099 1.058-0.127 0.296-0.028 0.607-0.028 0.903-0.014 0.564 0.014 1.129 0.085 1.679 0.212 0.748 0.169 1.467 0.423 2.145 0.776 0.635 0.325 1.227 0.734 1.764 1.199 0.183 0.155 0.353 0.325 0.522 0.494 0.677 0.663 1.34 1.326 2.018 1.989 0.494 0.494 0.988 0.988 1.496 1.481 0.508 0.508 1.016 1.002 1.524 1.51 0.494 0.494 0.988 0.974 1.481 1.467 0.522 0.508 1.044 1.030 1.552 1.538 0.494 0.494 1.002 0.988 1.496 1.481 0.014 0.014 0.014 0.014 0.042 0.042-0.042 0-0.071 0.014-0.099 0.014-1.481 0-2.963 0-4.444 0-0.071 0-0.127-0.014-0.169-0.071-0.663-0.663-1.326-1.326-1.989-1.975-0.536-0.536-1.072-1.072-1.608-1.594-0.494-0.494-0.988-0.988-1.496-1.481-0.508-0.508-1.016-1.002-1.524-1.51-0.353-0.339-0.691-0.691-1.058-1.002-0.847-0.72-1.82-1.129-2.907-1.284-0.353-0.042-0.691-0.056-1.044-0.042-0.705 0.042-1.383 0.198-2.032 0.494s-1.227 0.705-1.721 1.213c-0.663 0.663-1.326 1.312-1.975 1.975-0.508 0.494-1.002 1.002-1.51 1.496-0.494 0.494-1.002 0.988-1.496 1.481-0.508 0.494-1.002 1.002-1.51 1.496-0.24 0.24-0.494 0.48-0.734 0.72-0.056 0.056-0.127 0.085-0.212 0.085-1.51 0-3.019 0-4.529 0-0.056 0-0.056 0-0.056-0.014z"></path>
<path d="M4.684 2.709c0.028 0.042 0.056 0.071 0.099 0.113 0.72 0.705 1.439 1.425 2.159 2.145 0.494 0.494 1.002 0.988 1.496 1.481 0.508 0.494 1.002 1.002 1.51 1.496 0.494 0.494 1.002 0.988 1.496 1.481 0.325 0.31 0.635 0.621 0.974 0.917 0.663 0.55 1.425 0.917 2.272 1.115 0.536 0.127 1.086 0.169 1.637 0.141 0.691-0.028 1.34-0.198 1.975-0.48 0.677-0.296 1.27-0.72 1.778-1.242 0.635-0.635 1.27-1.27 1.919-1.905 0.48-0.48 0.974-0.959 1.453-1.439 0.522-0.508 1.044-1.030 1.552-1.538 0.409-0.395 0.804-0.79 1.213-1.199 0.339-0.325 0.663-0.663 1.002-0.988 0.028-0.028 0.056-0.071 0.099-0.113 1.566 0 3.118 0 4.684 0-0.48 0.48-0.945 0.959-1.425 1.425-0.508 0.494-1.002 1.002-1.51 1.496-0.494 0.494-1.002 0.988-1.496 1.481s-1.002 0.988-1.496 1.481c-0.508 0.494-1.002 1.002-1.51 1.496-0.494 0.494-0.988 1.002-1.51 1.481-0.466 0.437-0.889 0.917-1.397 1.312-0.79 0.621-1.651 1.115-2.596 1.453-0.691 0.254-1.411 0.409-2.145 0.48-0.536 0.056-1.072 0.056-1.594 0.014-1.072-0.085-2.102-0.353-3.076-0.79-0.804-0.367-1.538-0.861-2.201-1.439-0.099-0.085-0.183-0.169-0.282-0.268-0.677-0.663-1.34-1.34-2.018-2.004-0.494-0.494-0.988-0.974-1.481-1.467-0.508-0.508-1.016-1.016-1.524-1.51-0.494-0.494-0.988-0.974-1.481-1.467-0.55-0.48-1.058-0.988-1.566-1.496-0.494-0.494-0.988-0.988-1.496-1.481-0.056-0.056-0.127-0.127-0.183-0.183 1.552 0 3.118 0 4.67 0z"></path>
</svg>
