<!-- Generated by IcoMoon.io -->
<svg version="1.1" xmlns="http://www.w3.org/2000/svg" width="32" height="32" viewBox="0 0 32 32">
<title>XSH</title>
<path d="M16.183 0.141c4.374 0 8.762 0.028 13.136-0.014 1.439-0.014 2.215 1.439 1.862 2.511-0.268 0.776-0.649 1.524-1.002 2.272-0.522 1.101-1.058 2.187-1.58 3.287-0.113 0.24-0.24 0.296-0.494 0.212-0.621-0.198-1.256-0.367-1.891-0.536-0.325-0.085-0.353-0.155-0.212-0.437 0.705-1.467 1.411-2.935 2.116-4.402 0.113-0.254 0.071-0.325-0.212-0.339-0.296-0.014-0.593 0-0.903 0-7.422 0-14.829 0-22.25 0-0.621 0-0.621 0-0.367 0.55 0.466 0.988 0.945 1.961 1.411 2.949 0.127 0.268 0.339 0.409 0.607 0.494 0.832 0.24 1.665 0.48 2.497 0.72 0.974 0.282 1.961 0.578 2.935 0.861s1.947 0.55 2.921 0.832c1.171 0.339 2.342 0.691 3.527 1.030 0.959 0.282 1.933 0.536 2.878 0.818 0.748 0.226 1.481 0.466 2.229 0.691 0.903 0.268 1.806 0.522 2.723 0.776 0.296 0.085 0.367 0.212 0.24 0.48-0.72 1.524-1.425 3.048-2.159 4.571-0.564 1.171-1.171 2.314-1.735 3.485-0.931 1.933-1.848 3.88-2.78 5.813-0.705 1.467-1.411 2.935-2.145 4.388-0.268 0.522-0.72 0.847-1.312 0.861-0.621 0.014-1.086-0.339-1.369-0.875-0.423-0.804-0.804-1.623-1.199-2.441-0.832-1.721-1.665-3.429-2.483-5.136-0.776-1.608-1.538-3.217-2.314-4.811-0.621-1.298-1.27-2.596-1.891-3.894-0.226-0.48-0.466-0.959-0.691-1.439-0.042-0.071-0.014-0.183-0.028-0.268 0.085 0 0.169-0.014 0.24 0 0.931 0.268 1.862 0.536 2.794 0.832 0.169 0.056 0.353 0.226 0.423 0.395 1.298 2.667 2.568 5.333 3.852 7.986 0.748 1.566 1.51 3.118 2.272 4.684 0.071 0.141 0.127 0.296 0.212 0.451 0.071 0.141 0.183 0.155 0.268 0s0.155-0.31 0.24-0.466c0.861-1.764 1.707-3.541 2.554-5.305 0.635-1.326 1.242-2.667 1.891-3.993 0.437-0.903 0.889-1.792 1.34-2.681 0.127-0.254 0.24-0.522 0.353-0.79 0.085-0.183 0.056-0.296-0.155-0.367-1.355-0.395-2.709-0.804-4.064-1.199-1.185-0.353-2.384-0.705-3.57-1.058-0.861-0.254-1.735-0.494-2.61-0.748-1.27-0.367-2.554-0.762-3.824-1.129-0.705-0.198-1.411-0.381-2.102-0.578-0.748-0.212-1.51-0.423-2.243-0.663-0.169-0.056-0.31-0.254-0.395-0.423-0.818-1.665-1.594-3.33-2.37-4.981-0.339-0.748-0.296-1.51 0.127-2.215 0.31-0.522 0.79-0.762 1.383-0.762 1.608-0.014 3.217 0 4.84 0 2.822 0 5.644 0 8.48 0z"></path>
</svg>
