<?xml version="1.0" encoding="utf-8"?>
<!-- Generator: Adobe Illustrator 22.1.0, SVG Export Plug-In . SVG Version: 6.00 Build 0)  -->
<svg version="1.1" id="Layer_1" xmlns="http://www.w3.org/2000/svg" xmlns:xlink="http://www.w3.org/1999/xlink" x="0px" y="0px"
	 viewBox="0 0 226.8 226.8" style="enable-background:new 0 0 226.8 226.8;" xml:space="preserve">
<g>
	<path d="M114.7,1c31,0,62.1,0.2,93.1-0.1c10.2-0.1,15.7,10.2,13.2,17.8c-1.9,5.5-4.6,10.8-7.1,16.1c-3.7,7.8-7.5,15.5-11.2,23.3
		c-0.8,1.7-1.7,2.1-3.5,1.5c-4.4-1.4-8.9-2.6-13.4-3.8c-2.3-0.6-2.5-1.1-1.5-3.1c5-10.4,10-20.8,15-31.2c0.8-1.8,0.5-2.3-1.5-2.4
		c-2.1-0.1-4.2,0-6.4,0c-52.6,0-105.1,0-157.7,0c-4.4,0-4.4,0-2.6,3.9c3.3,7,6.7,13.9,10,20.9c0.9,1.9,2.4,2.9,4.3,3.5
		c5.9,1.7,11.8,3.4,17.7,5.1c6.9,2,13.9,4.1,20.8,6.1c6.9,2,13.8,3.9,20.7,5.9c8.3,2.4,16.6,4.9,25,7.3c6.8,2,13.7,3.8,20.4,5.8
		c5.3,1.6,10.5,3.3,15.8,4.9c6.4,1.9,12.8,3.7,19.3,5.5c2.1,0.6,2.6,1.5,1.7,3.4c-5.1,10.8-10.1,21.6-15.3,32.4
		c-4,8.3-8.3,16.4-12.3,24.7c-6.6,13.7-13.1,27.5-19.7,41.2c-5,10.4-10,20.8-15.2,31.1c-1.9,3.7-5.1,6-9.3,6.1
		c-4.4,0.1-7.7-2.4-9.7-6.2c-3-5.7-5.7-11.5-8.5-17.3C90.9,191.2,85,179.1,79.2,167c-5.5-11.4-10.9-22.8-16.4-34.1
		c-4.4-9.2-9-18.4-13.4-27.6c-1.6-3.4-3.3-6.8-4.9-10.2c-0.3-0.5-0.1-1.3-0.2-1.9c0.6,0,1.2-0.1,1.7,0c6.6,1.9,13.2,3.8,19.8,5.9
		c1.2,0.4,2.5,1.6,3,2.8c9.2,18.9,18.2,37.8,27.3,56.6c5.3,11.1,10.7,22.1,16.1,33.2c0.5,1,0.9,2.1,1.5,3.2c0.5,1,1.3,1.1,1.9,0
		c0.6-1.1,1.1-2.2,1.7-3.3c6.1-12.5,12.1-25.1,18.1-37.6c4.5-9.4,8.8-18.9,13.4-28.3c3.1-6.4,6.3-12.7,9.5-19
		c0.9-1.8,1.7-3.7,2.5-5.6c0.6-1.3,0.4-2.1-1.1-2.6c-9.6-2.8-19.2-5.7-28.8-8.5c-8.4-2.5-16.9-5-25.3-7.5
		c-6.1-1.8-12.3-3.5-18.5-5.3c-9-2.6-18.1-5.4-27.1-8c-5-1.4-10-2.7-14.9-4.1c-5.3-1.5-10.7-3-15.9-4.7c-1.2-0.4-2.2-1.8-2.8-3
		C20.6,45.6,15.1,33.8,9.6,22.1c-2.4-5.3-2.1-10.7,0.9-15.7C12.7,2.7,16.1,1,20.3,1c11.4-0.1,22.8,0,34.3,0C74.6,1,94.6,1,114.7,1z"
		/>
</g>
</svg>
