<!-- Generated by IcoMoon.io -->
<svg version="1.1" xmlns="http://www.w3.org/2000/svg" width="32" height="32" viewBox="0 0 32 32">
<title>XSN</title>
<path d="M15.718 28.825c-1.848 1.072-3.598 2.088-5.347 3.076-0.155 0.085-0.423 0.085-0.578 0-3.090-1.764-6.18-3.541-9.256-5.333-0.127-0.071-0.254-0.31-0.254-0.466-0.014-3.556-0.014-7.125 0-10.681 0-0.169 0.141-0.409 0.282-0.494 3.076-1.792 6.138-3.57 9.213-5.333 0.141-0.085 0.395-0.099 0.536-0.028 1.778 1.002 3.541 2.032 5.39 3.090-0.451 0.268-0.832 0.522-1.228 0.705-0.113 0.056-0.339-0.042-0.48-0.113-1.185-0.677-2.342-1.369-3.541-2.032-0.183-0.099-0.536-0.127-0.705-0.028-2.582 1.467-5.15 2.963-7.718 4.444-0.296 0.169-0.381 0.353-0.381 0.677 0.014 2.949 0.014 5.912 0 8.861 0 0.353 0.127 0.536 0.423 0.705 2.526 1.453 5.051 2.907 7.577 4.374 0.31 0.183 0.55 0.198 0.875 0.014 1.086-0.649 2.201-1.256 3.287-1.919 0.423-0.254 0.762-0.296 1.157 0.014 0.183 0.169 0.437 0.282 0.748 0.466z"></path>
<path d="M26.074 11.894c0.437 0.254 0.79 0.451 1.143 0.649 1.326 0.776 2.653 1.552 3.993 2.3 0.282 0.155 0.395 0.353 0.395 0.677-0.014 3.513 0 7.012-0.014 10.526 0 0.198-0.169 0.466-0.353 0.578-3.019 1.764-6.067 3.513-9.086 5.277-0.282 0.155-0.48 0.127-0.734-0.028-3.005-1.735-5.996-3.485-9.016-5.206-0.31-0.169-0.409-0.367-0.409-0.72 0.014-1.608 0.014-3.217 0.014-4.825 0-0.169 0.014-0.353 0.028-0.635 0.451 0.254 0.832 0.451 1.199 0.705 0.099 0.071 0.127 0.31 0.141 0.466 0.014 1.157 0.014 2.328 0 3.485 0 0.339 0.085 0.55 0.395 0.72 2.554 1.453 5.093 2.921 7.619 4.388 0.296 0.169 0.522 0.198 0.832 0.014 2.554-1.481 5.108-2.963 7.661-4.43 0.282-0.155 0.395-0.339 0.395-0.663-0.014-2.949-0.014-5.898 0-8.861 0-0.367-0.127-0.536-0.423-0.705-1.072-0.607-2.131-1.256-3.217-1.834-0.451-0.24-0.621-0.522-0.564-1.002 0.028-0.24 0-0.508 0-0.875z"></path>
<path d="M20.134 20.092c0-0.466-0.028-0.889 0.014-1.312 0.014-0.155 0.212-0.31 0.367-0.395 1.171-0.691 2.342-1.383 3.527-2.046 0.325-0.183 0.437-0.395 0.437-0.762-0.014-2.921-0.014-5.827 0-8.748 0-0.296-0.028-0.536-0.339-0.705-2.596-1.481-5.178-2.977-7.76-4.473-0.268-0.155-0.466-0.141-0.734 0.014-2.568 1.496-5.15 2.963-7.704 4.473-0.183 0.113-0.353 0.409-0.353 0.621-0.042 1.072-0.042 2.145 0 3.217 0.014 0.48-0.113 0.776-0.564 0.959-0.24 0.099-0.452 0.254-0.79 0.451 0-0.325 0-0.536 0-0.734 0-1.524 0.014-3.048-0.014-4.557 0-0.395 0.127-0.621 0.452-0.818 2.949-1.707 5.884-3.386 8.804-5.093 0.409-0.24 0.705-0.254 1.129-0.014 2.921 1.707 5.841 3.4 8.776 5.079 0.325 0.183 0.48 0.395 0.48 0.79-0.014 3.457 0 6.914-0.014 10.356 0 0.212-0.113 0.522-0.268 0.607-1.707 1.016-3.429 2.004-5.15 2.991-0.085 0.042-0.155 0.056-0.296 0.099z"></path>
<path d="M24.155 12.36c-0.677-0.395-1.34-0.762-1.989-1.157-0.254-0.155-0.466-0.155-0.734 0-2.568 1.496-5.136 2.977-7.704 4.459-0.268 0.155-0.367 0.325-0.367 0.635 0.014 0.917 0 1.82 0 2.864-0.466-0.268-0.875-0.494-1.27-0.748-0.071-0.042-0.085-0.226-0.085-0.339-0.014-0.875-0.028-1.75 0.014-2.624 0-0.183 0.155-0.437 0.325-0.536 3.019-1.764 6.067-3.513 9.101-5.277 0.268-0.155 0.466-0.169 0.734 0 0.367 0.24 0.776 0.451 1.157 0.677 1.016 0.578 1.086 0.762 0.818 2.046z"></path>
<path d="M7.577 12.713c0 1.044 0.014 1.961 0 2.864-0.014 0.339 0.085 0.55 0.409 0.734 2.568 1.467 5.108 2.949 7.661 4.43 0.282 0.169 0.494 0.183 0.776 0.014 0.593-0.367 1.199-0.691 1.891-1.086 0 0.522 0.014 0.917-0.014 1.326-0.014 0.127-0.127 0.296-0.24 0.367-0.564 0.353-1.129 0.691-1.721 0.988-0.169 0.085-0.466 0.071-0.635-0.028-3.048-1.735-6.081-3.485-9.101-5.263-0.169-0.099-0.325-0.381-0.339-0.593-0.042-0.875-0.028-1.75 0-2.624 0-0.169 0.099-0.381 0.24-0.48 0.296-0.226 0.649-0.395 1.072-0.649z"></path>
<path d="M16.169 14.504c0.423-0.24 0.776-0.466 1.143-0.635 0.127-0.056 0.353-0.042 0.48 0.028 0.621 0.325 1.227 0.677 1.806 1.044 0.141 0.099 0.282 0.325 0.282 0.494 0.014 3.541 0.014 7.083 0 10.624 0 0.183-0.169 0.409-0.325 0.536-0.31 0.24-0.677 0.409-1.016 0.607-1.143 0.663-1.157 0.663-2.328-0.24 0.663-0.381 1.312-0.734 1.933-1.143 0.183-0.113 0.367-0.409 0.367-0.621 0.028-2.963 0.014-5.94 0.014-8.903 0-0.339-0.141-0.508-0.423-0.663-0.607-0.353-1.227-0.72-1.933-1.129z"></path>
</svg>
