<?xml version="1.0" encoding="utf-8"?>
<!-- Generator: Adobe Illustrator 22.1.0, SVG Export Plug-In . SVG Version: 6.00 Build 0)  -->
<svg version="1.1" id="Layer_1" xmlns="http://www.w3.org/2000/svg" xmlns:xlink="http://www.w3.org/1999/xlink" x="0px" y="0px"
	 viewBox="0 0 226.8 226.8" style="enable-background:new 0 0 226.8 226.8;" xml:space="preserve">
<g>
	<path d="M111.4,204.3c-13.1,7.6-25.5,14.8-37.9,21.8c-1.1,0.6-3,0.6-4.1,0C47.5,213.6,25.6,201,3.8,188.3c-0.9-0.5-1.8-2.2-1.8-3.3
		c-0.1-25.2-0.1-50.5,0-75.7c0-1.2,1-2.9,2-3.5C25.8,93.1,47.5,80.5,69.3,68c1-0.6,2.8-0.7,3.8-0.2c12.6,7.1,25.1,14.4,38.2,21.9
		c-3.2,1.9-5.9,3.7-8.7,5c-0.8,0.4-2.4-0.3-3.4-0.8c-8.4-4.8-16.6-9.7-25.1-14.4c-1.3-0.7-3.8-0.9-5-0.2
		c-18.3,10.4-36.5,21-54.7,31.5c-2.1,1.2-2.7,2.5-2.7,4.8c0.1,20.9,0.1,41.9,0,62.8c0,2.5,0.9,3.8,3,5c17.9,10.3,35.8,20.6,53.7,31
		c2.2,1.3,3.9,1.4,6.2,0.1c7.7-4.6,15.6-8.9,23.3-13.6c3-1.8,5.4-2.1,8.2,0.1C107.4,202.2,109.2,203,111.4,204.3z"/>
	<path d="M184.8,84.3c3.1,1.8,5.6,3.2,8.1,4.6c9.4,5.5,18.8,11,28.3,16.3c2,1.1,2.8,2.5,2.8,4.8c-0.1,24.9,0,49.7-0.1,74.6
		c0,1.4-1.2,3.3-2.5,4.1c-21.4,12.5-43,24.9-64.4,37.4c-2,1.1-3.4,0.9-5.2-0.2c-21.3-12.3-42.5-24.7-63.9-36.9
		c-2.2-1.2-2.9-2.6-2.9-5.1c0.1-11.4,0.1-22.8,0.1-34.2c0-1.2,0.1-2.5,0.2-4.5c3.2,1.8,5.9,3.2,8.5,5c0.7,0.5,0.9,2.2,1,3.3
		c0.1,8.2,0.1,16.5,0,24.7c0,2.4,0.6,3.9,2.8,5.1c18.1,10.3,36.1,20.7,54,31.1c2.1,1.2,3.7,1.4,5.9,0.1c18.1-10.5,36.2-21,54.3-31.4
		c2-1.1,2.8-2.4,2.8-4.7c-0.1-20.9-0.1-41.8,0-62.8c0-2.6-0.9-3.8-3-5c-7.6-4.3-15.1-8.9-22.8-13c-3.2-1.7-4.4-3.7-4-7.1
		C185,88.8,184.8,86.9,184.8,84.3z"/>
	<path d="M142.7,142.4c0-3.3-0.2-6.3,0.1-9.3c0.1-1.1,1.5-2.2,2.6-2.8c8.3-4.9,16.6-9.8,25-14.5c2.3-1.3,3.1-2.8,3.1-5.4
		c-0.1-20.7-0.1-41.3,0-62c0-2.1-0.2-3.8-2.4-5c-18.4-10.5-36.7-21.1-55-31.7c-1.9-1.1-3.3-1-5.2,0.1c-18.2,10.6-36.5,21-54.6,31.7
		c-1.3,0.8-2.5,2.9-2.5,4.4c-0.3,7.6-0.3,15.2,0,22.8c0.1,3.4-0.8,5.5-4,6.8c-1.7,0.7-3.2,1.8-5.6,3.2c0-2.3,0-3.8,0-5.2
		c0-10.8,0.1-21.6-0.1-32.3c0-2.8,0.9-4.4,3.2-5.8C68.2,25.3,89,13.4,109.7,1.3c2.9-1.7,5-1.8,8-0.1c20.7,12.1,41.4,24.1,62.2,36
		c2.3,1.3,3.4,2.8,3.4,5.6c-0.1,24.5,0,49-0.1,73.4c0,1.5-0.8,3.7-1.9,4.3c-12.1,7.2-24.3,14.2-36.5,21.2
		C144.2,142,143.7,142.1,142.7,142.4z"/>
	<path d="M171.2,87.6c-4.8-2.8-9.5-5.4-14.1-8.2c-1.8-1.1-3.3-1.1-5.2,0c-18.2,10.6-36.4,21.1-54.6,31.6c-1.9,1.1-2.6,2.3-2.6,4.5
		c0.1,6.5,0,12.9,0,20.3c-3.3-1.9-6.2-3.5-9-5.3c-0.5-0.3-0.6-1.6-0.6-2.4c-0.1-6.2-0.2-12.4,0.1-18.6c0-1.3,1.1-3.1,2.3-3.8
		c21.4-12.5,43-24.9,64.5-37.4c1.9-1.1,3.3-1.2,5.2,0c2.6,1.7,5.5,3.2,8.2,4.8C172.6,77.2,173.1,78.5,171.2,87.6z"/>
	<path d="M53.7,90.1c0,7.4,0.1,13.9,0,20.3c-0.1,2.4,0.6,3.9,2.9,5.2c18.2,10.4,36.2,20.9,54.3,31.4c2,1.2,3.5,1.3,5.5,0.1
		c4.2-2.6,8.5-4.9,13.4-7.7c0,3.7,0.1,6.5-0.1,9.4c-0.1,0.9-0.9,2.1-1.7,2.6c-4,2.5-8,4.9-12.2,7c-1.2,0.6-3.3,0.5-4.5-0.2
		c-21.6-12.3-43.1-24.7-64.5-37.3c-1.2-0.7-2.3-2.7-2.4-4.2c-0.3-6.2-0.2-12.4,0-18.6c0-1.2,0.7-2.7,1.7-3.4
		C48.2,93.1,50.7,91.9,53.7,90.1z"/>
	<path d="M114.6,102.8c3-1.7,5.5-3.3,8.1-4.5c0.9-0.4,2.5-0.3,3.4,0.2c4.4,2.3,8.7,4.8,12.8,7.4c1,0.7,2,2.3,2,3.5
		c0.1,25.1,0.1,50.2,0,75.3c0,1.3-1.2,2.9-2.3,3.8c-2.2,1.7-4.8,2.9-7.2,4.3c-8.1,4.7-8.2,4.7-16.5-1.7c4.7-2.7,9.3-5.2,13.7-8.1
		c1.3-0.8,2.6-2.9,2.6-4.4c0.2-21,0.1-42.1,0.1-63.1c0-2.4-1-3.6-3-4.7C124,108.3,119.6,105.7,114.6,102.8z"/>
</g>
</svg>
