<!-- Generated by IcoMoon.io -->
<svg version="1.1" xmlns="http://www.w3.org/2000/svg" width="32" height="32" viewBox="0 0 32 32">
<title>XTO</title>
<path d="M18.074 0.325c0-0.113 0-0.212 0-0.325 0.48 0 0.959 0 1.439 0 0.198 0.099 0.409 0.198 0.607 0.296-0.014 0.056-0.014 0.113-0.028 0.169-0.663-0.056-1.34-0.099-2.018-0.141 0-0.014 0 0 0 0z"></path>
<path d="M18.074 0.31c0.748 0.254 1.496 0.522 2.258 0.776 0.141 0.042 0.296 0.056 0.437 0.014 0.889-0.212 1.566 0.183 2.243 0.72 0.593 0.466 1.256 0.818 1.891 1.228 0.339 0.212 0.748 0.353 1.002 0.649 1.242 1.467 2.653 2.864 3.626 4.501 2.695 4.529 2.737 9.256 0.621 14.039-0.099 0.24-0.212 0.466-0.169 0.776 0.437-0.691 0.875-1.383 1.312-2.074 0.056 0.028 0.113 0.056 0.169 0.071-0.212 0.522-0.353 1.086-0.649 1.552-0.536 0.861-1.129 1.665-1.75 2.469-0.268 0.353-0.55 0.663-1.143 0.734-0.395 0.042-0.72 0.663-0.988 1.115 0.24-0.155 0.466-0.31 0.72-0.466 0.24 1.397-0.226 2.018-1.566 2.441-0.395 0.127-1.242 0.113-0.931 1.030 0.014 0.056-0.254 0.254-0.409 0.339-1.143 0.621-2.272 1.27-3.64 1.185-0.071 0-0.155 0.028-0.226 0.056-2.229 0.748-4.501 0.621-6.787 0.367-1.82-0.212-3.386-1.115-4.91-2.004-1.467-0.875-2.794-2.004-4.134-3.090-0.423-0.339-0.649-0.931-0.974-1.397-0.155-0.212-0.282-0.466-0.494-0.621-1.101-0.776-1.538-2.004-2.145-3.104-0.141-0.268-0.423-0.494-0.522-0.762-0.169-0.437-0.55-0.889-0.113-1.397 0.056-0.056 0.042-0.212 0.014-0.31-0.31-2.046-0.141-4.092 0.31-6.067 1.355-5.982 4.854-10.13 10.78-12.134 2.004-0.72 4.063-0.804 6.166-0.635 0 0.014 0 0 0 0zM15.069 27.541c-0.254-0.325-0.536-0.649-0.776-0.988-1.58-2.356-1.58-4.84-0.451-7.351 0.79-1.778 2.159-3.048 3.711-4.176 1.679-1.227 3.005-2.751 3.189-4.924 0.296-3.4-2.61-6.095-6.18-5.714-3.753 0.395-6.603 2.272-8.437 5.559-2.384 4.275-1.82 9.538 1.397 13.432 1.961 2.342 4.473 3.753 7.548 4.162zM28.586 14.97c0.056-0.042 0.113-0.085 0.169-0.127-0.282-0.339-0.48-0.818-0.832-0.974-0.832-0.381-1.721-0.621-2.61-0.861-0.522-0.141-0.748 0.127-0.847 0.663-0.353 2.046-0.734 4.078-1.115 6.123-0.056 0.296-0.141 0.578-0.254 0.974-0.296-0.31-0.466-0.522-0.649-0.691-0.959-0.889-2.384-1.044-3.471-0.409-1.101 0.649-1.637 1.947-1.34 3.231 0.268 1.185 1.383 2.074 2.667 2.145 1.552 0.085 2.709-0.917 2.991-2.497 0.451-2.54 0.931-5.065 1.355-7.619 0.113-0.705 0.451-0.917 1.115-0.917 1.072 0 2.004 0.282 2.822 0.959z"></path>
<path d="M11.386 31.436c-1.016-0.169-1.989-0.48-2.723-1.326 0.931 0.367 1.877 0.748 2.808 1.115-0.028 0.071-0.056 0.141-0.085 0.212z"></path>
<path d="M13.573 7.534c1.637 0.014 3.062 1.439 3.076 3.062 0 1.637-1.411 3.076-3.048 3.090-1.721 0.014-3.090-1.369-3.076-3.104 0.014-1.679 1.383-3.062 3.048-3.048z"></path>
</svg>
