<?xml version="1.0" encoding="utf-8"?>
<!-- Generator: Adobe Illustrator 22.1.0, SVG Export Plug-In . SVG Version: 6.00 Build 0)  -->
<svg version="1.1" id="Layer_1" xmlns="http://www.w3.org/2000/svg" xmlns:xlink="http://www.w3.org/1999/xlink" x="0px" y="0px"
	 viewBox="0 0 226.8 226.8" style="enable-background:new 0 0 226.8 226.8;" xml:space="preserve">
<g>
	<path d="M128.1,2.3c0-0.8,0-1.5,0-2.3c3.4,0,6.8,0,10.2,0c1.4,0.7,2.9,1.4,4.3,2.1c-0.1,0.4-0.1,0.8-0.2,1.2
		C137.7,2.9,132.9,2.6,128.1,2.3C128.1,2.2,128.1,2.3,128.1,2.3z"/>
	<path d="M128.1,2.2c5.3,1.8,10.6,3.7,16,5.5c1,0.3,2.1,0.4,3.1,0.1c6.3-1.5,11.1,1.3,15.9,5.1c4.2,3.3,8.9,5.8,13.4,8.7
		c2.4,1.5,5.3,2.5,7.1,4.6c8.8,10.4,18.8,20.3,25.7,31.9c19.1,32.1,19.4,65.6,4.4,99.5c-0.7,1.7-1.5,3.3-1.2,5.5
		c3.1-4.9,6.2-9.8,9.3-14.7c0.4,0.2,0.8,0.4,1.2,0.5c-1.5,3.7-2.5,7.7-4.6,11c-3.8,6.1-8,11.8-12.4,17.5c-1.9,2.5-3.9,4.7-8.1,5.2
		c-2.8,0.3-5.1,4.7-7,7.9c1.7-1.1,3.3-2.2,5.1-3.3c1.7,9.9-1.6,14.3-11.1,17.3c-2.8,0.9-8.8,0.8-6.6,7.3c0.1,0.4-1.8,1.8-2.9,2.4
		c-8.1,4.4-16.1,9-25.8,8.4c-0.5,0-1.1,0.2-1.6,0.4c-15.8,5.3-31.9,4.4-48.1,2.6c-12.9-1.5-24-7.9-34.8-14.2
		c-10.4-6.2-19.8-14.2-29.3-21.9c-3-2.4-4.6-6.6-6.9-9.9c-1.1-1.5-2-3.3-3.5-4.4c-7.8-5.5-10.9-14.2-15.2-22c-1-1.9-3-3.5-3.7-5.4
		c-1.2-3.1-3.9-6.3-0.8-9.9c0.4-0.4,0.3-1.5,0.1-2.2c-2.2-14.5-1-29,2.2-43c9.6-42.4,34.4-71.8,76.4-86C98.6,1.6,113.2,1,128.1,2.2
		C128.1,2.3,128.1,2.2,128.1,2.2z M106.8,195.2c-1.8-2.3-3.8-4.6-5.5-7c-11.2-16.7-11.2-34.3-3.2-52.1c5.6-12.6,15.3-21.6,26.3-29.6
		c11.9-8.7,21.3-19.5,22.6-34.9c2.1-24.1-18.5-43.2-43.8-40.5c-26.6,2.8-46.8,16.1-59.8,39.4c-16.9,30.3-12.9,67.6,9.9,95.2
		C67.2,182.3,85,192.3,106.8,195.2z M202.6,106.1c0.4-0.3,0.8-0.6,1.2-0.9c-2-2.4-3.4-5.8-5.9-6.9c-5.9-2.7-12.2-4.4-18.5-6.1
		c-3.7-1-5.3,0.9-6,4.7c-2.5,14.5-5.2,28.9-7.9,43.4c-0.4,2.1-1,4.1-1.8,6.9c-2.1-2.2-3.3-3.7-4.6-4.9c-6.8-6.3-16.9-7.4-24.6-2.9
		c-7.8,4.6-11.6,13.8-9.5,22.9c1.9,8.4,9.8,14.7,18.9,15.2c11,0.6,19.2-6.5,21.2-17.7c3.2-18,6.6-35.9,9.6-54c0.8-5,3.2-6.5,7.9-6.5
		C190.2,99.3,196.8,101.3,202.6,106.1z"/>
	<path d="M80.7,222.8c-7.2-1.2-14.1-3.4-19.3-9.4c6.6,2.6,13.3,5.3,19.9,7.9C81.1,221.8,80.9,222.3,80.7,222.8z"/>
	<path d="M96.2,53.4c11.6,0.1,21.7,10.2,21.8,21.7C118,86.7,108,96.9,96.4,97C84.2,97.1,74.5,87.3,74.6,75
		C74.7,63.1,84.4,53.3,96.2,53.4z"/>
</g>
</svg>
