<!-- Generated by IcoMoon.io -->
<svg version="1.1" xmlns="http://www.w3.org/2000/svg" width="32" height="32" viewBox="0 0 32 32">
<title>XTZ</title>
<path d="M18.812 32c-2.289 0-3.967-0.548-5.007-1.655-1.053-1.095-1.574-2.281-1.574-3.558 0-0.469 0.091-0.86 0.273-1.173s0.429-0.573 0.754-0.756c0.312-0.183 0.702-0.274 1.171-0.274s0.858 0.091 1.17 0.274c0.312 0.182 0.572 0.43 0.754 0.756s0.273 0.704 0.273 1.173c0 0.561-0.13 1.017-0.403 1.369s-0.585 0.587-0.95 0.691c0.312 0.443 0.819 0.756 1.496 0.938s1.366 0.287 2.055 0.287c0.949 0 1.808-0.261 2.575-0.769s1.34-1.278 1.704-2.268c0.364-1.004 0.546-2.137 0.546-3.415 0-1.382-0.195-2.568-0.598-3.545-0.39-0.978-0.976-1.707-1.743-2.19s-1.6-0.717-2.484-0.717c-0.585 0-1.314 0.248-2.198 0.73l-1.613 0.808v-0.782l7.245-9.671h-10.028v10.050c0 0.834 0.182 1.512 0.546 2.059 0.364 0.534 0.924 0.808 1.678 0.808 0.585 0 1.145-0.196 1.678-0.587s1.001-0.873 1.392-1.434c0.052-0.104 0.104-0.196 0.182-0.248s0.156-0.078 0.234-0.078c0.13 0 0.299 0.065 0.481 0.196 0.169 0.196 0.26 0.417 0.26 0.678-0.024 0.197-0.056 0.369-0.097 0.538l0.006-0.030c-0.416 0.925-0.988 1.642-1.717 2.125-0.728 0.495-1.535 0.73-2.419 0.73-2.172 0-3.668-0.43-4.5-1.277-0.832-0.86-1.249-2.020-1.249-3.48v-10.049h-5.112v-1.877h5.125v-4.249l-1.17-1.173v-0.952h3.395l1.275 0.665v5.722l13.241-0.039 1.314 1.317-8.116 8.133c0.494-0.196 1.002-0.313 1.535-0.365 0.884 0 1.873 0.274 2.979 0.834s1.951 1.316 2.549 2.268c0.598 0.965 0.988 1.877 1.158 2.764 0.182 0.886 0.26 1.668 0.26 2.346 0 1.564-0.325 3.024-0.988 4.367s-1.652 2.346-3.004 3.011c-1.314 0.652-2.77 0.978-4.331 0.978h-0v-0z"></path>
</svg>
