<?xml version="1.0" encoding="utf-8"?>
<!-- Generator: Adobe Illustrator 22.1.0, SVG Export Plug-In . SVG Version: 6.00 Build 0)  -->
<svg version="1.1" id="Layer_1" xmlns="http://www.w3.org/2000/svg" xmlns:xlink="http://www.w3.org/1999/xlink" x="0px" y="0px"
	 viewBox="0 0 226.8 226.8" style="enable-background:new 0 0 226.8 226.8;" xml:space="preserve">
<g>
	<path d="M112.9,226.2c-62.7,0-113-50.6-112.9-113.8C0.1,50.8,50.7-0.3,114.1,0c61.5,0.3,112,51.1,112,112.9
		C226,175.8,175.6,226.2,112.9,226.2z M99.6,68.3c-1.5,0.2-2.6,0.4-3.7,0.4c-1.1,0-2.5,0-3.3-0.6c-1.3-1-2.2-0.7-3.4,0
		C74,76.6,65,89.5,62.6,106.8c-0.5,3.7-0.1,7.5-0.1,11.4c0.8,0,1.3,0,1.7-0.1c14.4-2.7,28.8-5.4,43.3-8c1.3-0.2,1.5-0.9,1.5-2.1
		c0.1-7.5,0.2-15,0.3-22.5c0-0.7-0.1-1.4-0.1-2c-0.3-0.1-0.4-0.2-0.6-0.2c-2.6,0.2-5.1,0.4-7.7,0.7c-4.4,0.4-6.3-2.1-4.8-6.2
		C97.2,74.8,98.3,71.8,99.6,68.3z M158.3,123.7c1.2-2,1.7-4.4,3.1-5.2c2.6-1.4,2.5-3.3,2.4-5.4c-0.6-20.6-10.1-35.8-28.2-45.5
		c-0.6-0.3-1.2-0.5-1.9-0.7c-0.3,0.6-0.4,1.1-0.6,1.5c-4.8,13.6-9.6,27.2-14.5,40.8c-0.7,1.8-0.2,2.6,1.4,3.5
		c6.4,3.7,12.6,7.5,19,11.2c0.6,0.3,1.2,0.6,1.9,0.9c1.2-2.6,2.2-5.1,3.4-7.5c1.9-4.1,5-4.6,7.9-1.1
		C154.2,118.7,156.2,121.1,158.3,123.7z M80.9,147.1c1,1.3,1.7,2.1,2.2,3c0.5,0.9,1.3,2.1,1.1,2.9c-0.4,1.8,0.6,2.5,1.8,3.2
		c15.3,9.1,31.2,10.2,47.5,3.3c3.2-1.4,6.1-3.3,9.4-5.1c-2.3-2.7-4.2-4.9-6.1-7.1c-7.8-9.2-15.7-18.4-23.5-27.6
		c-1-1.2-1.8-1.3-3.1-0.5c-4.6,2.7-9.2,5.2-13.9,7.8c-2.4,1.4-4.9,2.8-7.5,4.3c1.6,2.3,3.1,4.4,4.6,6.4c3,4.1,1.8,7.1-3.3,7.8
		C87.3,146,84.3,146.6,80.9,147.1z M116.4,10c0.2,1.9,0.6,3.3,0.5,4.8c-0.1,1.6,0.6,2,2,2.1c4.1,0.4,8.2,0.8,12.3,1.5
		c60.2,11.3,94.8,76.1,70.6,132.4c-1.9,4.3-2.4,7.5,1.4,10.6c0.2,0.1,0.4,0.2,0.9,0.6c17.2-35.8,16.9-70.9-4.6-104.4
		C180.3,27.4,151.9,12.2,116.4,10z M109.7,10.4c-26.2-0.5-65,14.2-86.5,52.1C3,98.2,8.5,138.7,22.4,161.5c1.6-1.2,3.3-2.4,5-3.7
		c-0.5-1.1-1-2-1.5-3c-8.5-17.9-11.4-36.6-8.3-56.1c6.7-43.2,40.7-76.1,84.2-81.2C106.8,16.8,109.1,15.1,109.7,10.4z M194.5,165
		c-0.3,0.4-0.6,0.8-0.9,1.1c-22.2,31.6-52.5,46.4-91,42.8c-27.5-2.5-49.7-15.7-66.5-37.7c-2.9-3.8-5.4-6-10.1-4.3
		c-0.1,0-0.2,0.2-0.3,0.3c13.4,23.6,45.9,49.6,89.2,48.9c40.8-0.7,72.3-25.6,85.3-48.8C198.4,166.6,196.6,165.9,194.5,165z
		 M105.6,63.6c-2.1,5.7-4.1,11-6.2,16.6c4.8-0.5,9.2-0.9,13.8-1.3c0,11.2,0,22.2,0,33.1c0.1,0,0.2,0,0.4,0
		c5.9-16.8,11.9-33.6,17.9-50.7c-3.9,0.5-7.3,0.9-11,1.4c2.1-5.7,4.1-11,6.3-16.6c-4.8,0.5-9.2,0.9-13.7,1.3c0-11.2,0-22.2,0-33.2
		c-0.1,0-0.3,0-0.4-0.1c-5.9,16.8-11.9,33.6-17.9,50.8C98.4,64.5,101.8,64.1,105.6,63.6z M91.3,141.4c-2.8-4-5.4-7.6-8.1-11.4
		c9.8-5.6,19.4-11,29-16.4c-0.1-0.2-0.1-0.3-0.2-0.5c-17.6,3.3-35.1,6.5-53.2,9.9c2.4,3.1,4.5,5.9,6.7,8.9c-6,1-11.6,1.9-17.6,2.9
		c2.8,4,5.4,7.6,8.1,11.3c-9.8,5.5-19.5,11-29.1,16.5c0.1,0.2,0.1,0.3,0.2,0.5c17.6-3.3,35.2-6.6,53.2-9.9c-2.3-3.1-4.3-5.8-6.6-8.9
		C79.7,143.4,85.3,142.4,91.3,141.4z M198.8,162.8c0.1-0.1,0.2-0.2,0.4-0.4c-11.6-13.6-23.3-27.2-35.2-41.1
		c-1.5,3.6-2.9,6.8-4.3,10.2c-3.8-4.7-7.4-9-11.2-13.7c-2,4.3-3.9,8.4-5.9,12.6c-9.7-5.7-19.2-11.3-28.7-16.9
		c-0.1,0.1-0.2,0.3-0.3,0.4c11.6,13.6,23.2,27.2,35.1,41.1c1.5-3.7,2.9-6.8,4.3-10.3c3.8,4.6,7.4,9,11.3,13.7
		c2-4.5,3.9-8.5,5.8-12.7C179.8,151.5,189.3,157.2,198.8,162.8z"/>
</g>
</svg>
