<!-- Generated by IcoMoon.io -->
<svg version="1.1" xmlns="http://www.w3.org/2000/svg" width="32" height="32" viewBox="0 0 32 32">
<title>XWC</title>
<path d="M15.929 31.915c-8.847 0-15.944-7.139-15.929-16.056 0.014-8.691 7.153-15.901 16.099-15.859 8.677 0.042 15.802 7.21 15.802 15.929-0.014 8.875-7.125 15.986-15.972 15.986zM14.053 9.637c-0.212 0.028-0.367 0.056-0.522 0.056s-0.353 0-0.466-0.085c-0.183-0.141-0.31-0.099-0.48 0-2.145 1.199-3.414 3.019-3.753 5.46-0.071 0.522-0.014 1.058-0.014 1.608 0.113 0 0.183 0 0.24-0.014 2.032-0.381 4.063-0.762 6.109-1.129 0.183-0.028 0.212-0.127 0.212-0.296 0.014-1.058 0.028-2.116 0.042-3.175 0-0.099-0.014-0.198-0.014-0.282-0.042-0.014-0.056-0.028-0.085-0.028-0.367 0.028-0.72 0.056-1.086 0.099-0.621 0.056-0.889-0.296-0.677-0.875 0.155-0.423 0.31-0.847 0.494-1.34zM22.335 17.453c0.169-0.282 0.24-0.621 0.437-0.734 0.367-0.198 0.353-0.466 0.339-0.762-0.085-2.907-1.425-5.051-3.979-6.42-0.085-0.042-0.169-0.071-0.268-0.099-0.042 0.085-0.056 0.155-0.085 0.212-0.677 1.919-1.355 3.838-2.046 5.757-0.099 0.254-0.028 0.367 0.198 0.494 0.903 0.522 1.778 1.058 2.681 1.58 0.085 0.042 0.169 0.085 0.268 0.127 0.169-0.367 0.31-0.72 0.48-1.058 0.268-0.578 0.705-0.649 1.115-0.155 0.282 0.353 0.564 0.691 0.861 1.058zM11.414 20.755c0.141 0.183 0.24 0.296 0.31 0.423s0.183 0.296 0.155 0.409c-0.056 0.254 0.085 0.353 0.254 0.451 2.159 1.284 4.402 1.439 6.702 0.466 0.451-0.198 0.861-0.466 1.326-0.72-0.325-0.381-0.593-0.691-0.861-1.002-1.101-1.298-2.215-2.596-3.316-3.894-0.141-0.169-0.254-0.183-0.437-0.071-0.649 0.381-1.298 0.734-1.961 1.101-0.339 0.198-0.691 0.395-1.058 0.607 0.226 0.325 0.437 0.621 0.649 0.903 0.423 0.578 0.254 1.002-0.466 1.101-0.395 0.071-0.818 0.155-1.298 0.226zM16.423 1.411c0.028 0.268 0.085 0.466 0.071 0.677-0.014 0.226 0.085 0.282 0.282 0.296 0.578 0.056 1.157 0.113 1.735 0.212 8.494 1.594 13.376 10.737 9.961 18.681-0.268 0.607-0.339 1.058 0.198 1.496 0.028 0.014 0.056 0.028 0.127 0.085 2.427-5.051 2.384-10.004-0.649-14.73-2.709-4.261-6.716-6.406-11.725-6.716zM15.478 1.467c-3.697-0.071-9.171 2.004-12.205 7.351-2.85 5.037-2.074 10.751-0.113 13.968 0.226-0.169 0.466-0.339 0.705-0.522-0.071-0.155-0.141-0.282-0.212-0.423-1.199-2.526-1.608-5.164-1.171-7.915 0.945-6.095 5.743-10.737 11.88-11.457 0.705-0.099 1.030-0.339 1.115-1.002zM27.443 23.28c-0.042 0.056-0.085 0.113-0.127 0.155-3.132 4.459-7.407 6.547-12.839 6.039-3.88-0.353-7.012-2.215-9.383-5.319-0.409-0.536-0.762-0.847-1.425-0.607-0.014 0-0.028 0.028-0.042 0.042 1.891 3.33 6.476 6.998 12.586 6.899 5.757-0.099 10.201-3.612 12.035-6.885-0.254-0.099-0.508-0.198-0.804-0.325zM14.899 8.974c-0.296 0.804-0.578 1.552-0.875 2.342 0.677-0.071 1.298-0.127 1.947-0.183 0 1.58 0 3.132 0 4.67 0.014 0 0.028 0 0.056 0 0.832-2.37 1.679-4.741 2.526-7.153-0.55 0.071-1.030 0.127-1.552 0.198 0.296-0.804 0.578-1.552 0.889-2.342-0.677 0.071-1.298 0.127-1.933 0.183 0-1.58 0-3.132 0-4.684-0.014 0-0.042 0-0.056-0.014-0.832 2.37-1.679 4.741-2.526 7.168 0.508-0.056 0.988-0.113 1.524-0.183zM12.882 19.951c-0.395-0.564-0.762-1.072-1.143-1.608 1.383-0.79 2.737-1.552 4.092-2.314-0.014-0.028-0.014-0.042-0.028-0.071-2.483 0.466-4.952 0.917-7.506 1.397 0.339 0.437 0.635 0.832 0.945 1.256-0.847 0.141-1.637 0.268-2.483 0.409 0.395 0.564 0.762 1.072 1.143 1.594-1.383 0.776-2.751 1.552-4.106 2.328 0.014 0.028 0.014 0.042 0.028 0.071 2.483-0.466 4.966-0.931 7.506-1.397-0.325-0.437-0.607-0.818-0.931-1.256 0.847-0.127 1.637-0.268 2.483-0.409zM28.049 22.97c0.014-0.014 0.028-0.028 0.056-0.056-1.637-1.919-3.287-3.838-4.966-5.799-0.212 0.508-0.409 0.959-0.607 1.439-0.536-0.663-1.044-1.27-1.58-1.933-0.282 0.607-0.55 1.185-0.832 1.778-1.369-0.804-2.709-1.594-4.049-2.384-0.014 0.014-0.028 0.042-0.042 0.056 1.637 1.919 3.273 3.838 4.952 5.799 0.212-0.522 0.409-0.959 0.607-1.453 0.536 0.649 1.044 1.27 1.594 1.933 0.282-0.635 0.55-1.199 0.818-1.792 1.369 0.818 2.709 1.623 4.049 2.413z"></path>
</svg>
