<?xml version="1.0" encoding="utf-8"?>
<!-- Generator: Adobe Illustrator 22.1.0, SVG Export Plug-In . SVG Version: 6.00 Build 0)  -->
<svg version="1.1" id="Layer_1" xmlns="http://www.w3.org/2000/svg" xmlns:xlink="http://www.w3.org/1999/xlink" x="0px" y="0px"
	 viewBox="0 0 226.8 226.8" style="enable-background:new 0 0 226.8 226.8;" xml:space="preserve">
<g>
	<path d="M106.5,0c4.5,0,9.1,0,13.6,0c5.2,0.8,10.4,1.4,15.6,2.3c44,8.2,80.6,45,88.7,89c0.9,5.1,1.5,10.2,2.3,15.3
		c0,4.5,0,9.1,0,13.6c-0.2,1-0.4,2-0.6,3c-0.7,4.7-1.1,9.4-2.1,14c-13.5,62-74.1,100.6-136.1,86.7c-43.2-9.6-77.9-45.4-85.9-88.7
		c-0.9-5-1.5-10-2.3-15.1c0-4.5,0-9.1,0-13.6c0.8-5,1.3-10.1,2.3-15c8.4-44.6,44.5-80.9,89-89.3C96.3,1.4,101.4,0.8,106.5,0z
		 M113.4,210c53.4,0,96.6-43.2,96.6-96.6c0-53.4-43.2-96.6-96.6-96.6c-53.5,0-96.6,43.2-96.6,96.6C16.8,166.9,59.9,210,113.4,210z"
		/>
	<path d="M207.4,113.4c0,52.3-42.2,94.2-95,94.2c-51,0-93.1-42.5-93.2-94c0-51.7,42.2-94.2,93.6-94.2
		C165.2,19.4,207.4,61.3,207.4,113.4z M102.5,167.6c6.3,0,12.1-0.1,17.9,0.1c2.4,0.1,3.1-0.6,3-3c-0.1-12,0-24-0.1-36
		c0-2.5,0.6-4.5,2-6.5c10.8-15.8,21.6-31.7,32.4-47.6c2-2.9,4-5.9,6.2-9.1c-0.8-0.1-1.2-0.2-1.7-0.2c-6.8,0-13.6-0.1-20.4,0.1
		c-1,0-2.4,1-3,1.9c-4.4,6.5-8.6,13.1-12.9,19.6c-4.1,6.2-8.1,12.4-12.3,18.8c-0.6-0.9-1.1-1.5-1.5-2.1
		c-7.9-12.1-15.9-24.2-23.7-36.3c-0.9-1.4-1.9-2-3.6-2c-6.5,0.1-13,0-19.6,0c-0.7,0-1.4,0.2-2.3,0.3c0.7,1.2,1.2,2,1.8,2.9
		c12,18.1,24.1,36.2,36.1,54.3c1,1.5,1.6,3.4,1.6,5.2c0.2,7.2,0.1,14.4,0.1,21.6C102.5,155.2,102.5,161.2,102.5,167.6z"/>
</g>
</svg>
