<!-- Generated by IcoMoon.io -->
<svg version="1.1" xmlns="http://www.w3.org/2000/svg" width="32" height="32" viewBox="0 0 32 32">
<title>YEE</title>
<path d="M15.026 0c0.635 0 1.284 0 1.919 0 0.734 0.113 1.467 0.198 2.201 0.325 6.208 1.157 11.372 6.349 12.515 12.557 0.127 0.72 0.212 1.439 0.325 2.159 0 0.635 0 1.284 0 1.919-0.028 0.141-0.056 0.282-0.085 0.423-0.099 0.663-0.155 1.326-0.296 1.975-1.905 8.748-10.455 14.194-19.203 12.233-6.095-1.355-10.991-6.406-12.12-12.515-0.127-0.705-0.212-1.411-0.325-2.131 0-0.635 0-1.284 0-1.919 0.113-0.705 0.183-1.425 0.325-2.116 1.185-6.293 6.279-11.414 12.557-12.6 0.748-0.113 1.467-0.198 2.187-0.31zM16 29.63c7.534 0 13.63-6.095 13.63-13.63s-6.095-13.63-13.63-13.63c-7.549 0-13.63 6.095-13.63 13.63 0 7.549 6.081 13.63 13.63 13.63z"></path>
<path d="M29.263 16c0 7.379-5.954 13.291-13.404 13.291-7.196 0-13.136-5.996-13.15-13.263 0-7.295 5.954-13.291 13.206-13.291 7.393 0 13.347 5.912 13.347 13.263zM14.462 23.647c0.889 0 1.707-0.014 2.526 0.014 0.339 0.014 0.437-0.085 0.423-0.423-0.014-1.693 0-3.386-0.014-5.079 0-0.353 0.085-0.635 0.282-0.917 1.524-2.229 3.048-4.473 4.571-6.716 0.282-0.409 0.564-0.832 0.875-1.284-0.113-0.014-0.169-0.028-0.24-0.028-0.959 0-1.919-0.014-2.878 0.014-0.141 0-0.339 0.141-0.423 0.268-0.621 0.917-1.213 1.848-1.82 2.765-0.578 0.875-1.143 1.75-1.735 2.653-0.085-0.127-0.155-0.212-0.212-0.296-1.115-1.707-2.243-3.414-3.344-5.122-0.127-0.198-0.268-0.282-0.508-0.282-0.917 0.014-1.834 0-2.765 0-0.099 0-0.198 0.028-0.325 0.042 0.099 0.169 0.169 0.282 0.254 0.409 1.693 2.554 3.4 5.108 5.093 7.661 0.141 0.212 0.226 0.48 0.226 0.734 0.028 1.016 0.014 2.032 0.014 3.048 0 0.79 0 1.637 0 2.54z"></path>
</svg>
