<!-- Generated by IcoMoon.io -->
<svg version="1.1" xmlns="http://www.w3.org/2000/svg" width="32" height="32" viewBox="0 0 32 32">
<title>YOBIT</title>
<path d="M0 11.203c0.776 0 1.524 0 2.3 0.014 0.607 1.566 1.651 2.949 1.933 4.656 0.296-1.679 1.284-3.118 1.947-4.67 0.677 0 1.34 0 2.018 0-0.931 1.82-1.891 3.64-2.836 5.446-0.127 0.268-0.296 0.55-0.268 0.832-0.014 1.115 0 2.215 0 3.33-0.635 0-1.256 0-1.891 0-0.014-1.171 0.056-2.342-0.042-3.527-0.988-2.046-2.088-4.078-3.16-6.081zM10.977 13.884c1.157-0.226 2.511-0.042 3.287 0.903 0.79 0.917 0.875 2.243 0.748 3.414-0.099 1.072-0.734 2.131-1.778 2.54-1.298 0.508-2.977 0.339-3.894-0.79-0.832-1.086-0.903-2.624-0.593-3.894 0.282-1.086 1.171-1.989 2.229-2.173zM11.4 15.365c-0.705 0.212-0.875 1.030-0.917 1.651-0.042 0.734 0 1.566 0.55 2.116 0.564 0.607 1.721 0.381 2.018-0.395 0.31-0.861 0.31-1.848-0.014-2.709-0.254-0.621-1.030-0.903-1.637-0.663z"></path>
<path d="M16.353 11.259c1.34-0.141 2.709-0.268 4.049-0.099 0.691 0.085 1.425 0.31 1.905 0.875 0.593 0.635 0.593 1.608 0.31 2.384-0.226 0.649-0.861 0.988-1.383 1.326 0.55 0.212 1.157 0.423 1.481 0.959 0.79 1.213 0.31 3.062-1.002 3.683-1.651 0.818-3.584 0.55-5.362 0.353-0.028-3.146 0-6.307 0-9.481zM18.215 12.713c-0.042 0.832-0.042 1.693-0.014 2.54 0.776-0.014 1.679 0.056 2.286-0.522 0.607-0.437 0.55-1.524-0.169-1.82-0.663-0.31-1.411-0.183-2.102-0.198zM18.173 16.734c0 0.832 0 1.693 0 2.54 0.832 0.042 1.806 0.183 2.511-0.353 0.635-0.437 0.635-1.524-0.056-1.905-0.734-0.409-1.637-0.268-2.455-0.282zM24.875 11.203c0.649-0.31 1.679-0.014 1.764 0.776 0.014 1.072-1.608 1.369-2.159 0.55-0.296-0.451-0.085-1.115 0.395-1.326zM28.289 12.684c0.607-0.169 1.199-0.339 1.806-0.508 0 0.593 0 1.199 0 1.778 0.564 0 1.129 0 1.679 0.014 0 0.48-0.014 0.988-0.014 1.467-0.55 0-1.115 0-1.651 0 0.042 1.171-0.099 2.37 0.085 3.527 0.212 0.649 1.030 0.268 1.51 0.226 0.099 0.466 0.212 0.917 0.31 1.369-0.875 0.31-1.891 0.607-2.808 0.254-0.635-0.226-0.875-0.945-0.903-1.552-0.085-1.256-0.014-2.54-0.014-3.795-0.31 0-0.607 0-0.917 0-0.014-0.508-0.014-1.002-0.014-1.51 0.31 0 0.635 0 0.945-0.014-0.028-0.409-0.028-0.832-0.014-1.256zM24.578 13.968c0.607 0 1.213 0 1.82 0 0 2.286 0 4.571 0 6.857-0.607 0-1.213 0-1.82 0 0-2.286 0-4.571 0-6.857z"></path>
</svg>
