<?xml version="1.0" encoding="utf-8"?>
<!-- Generator: Adobe Illustrator 22.0.1, SVG Export Plug-In . SVG Version: 6.00 Build 0)  -->
<svg version="1.1" id="Layer_1" xmlns="http://www.w3.org/2000/svg" xmlns:xlink="http://www.w3.org/1999/xlink" x="0px" y="0px"
	 viewBox="0 0 226.8 226.8" style="enable-background:new 0 0 226.8 226.8;" xml:space="preserve">
<style type="text/css">
	.st0{stroke:#FFFFFF;stroke-miterlimit:10;}
</style>
<g>
	<circle class="st0" cx="78.9" cy="140.7" r="18.1"/>
	<circle class="st0" cx="113.4" cy="106.1" r="18.1"/>
	<circle class="st0" cx="148" cy="140.7" r="18.1"/>
	<circle class="st0" cx="182.6" cy="106.1" r="18.1"/>
	<circle class="st0" cx="44.3" cy="106.1" r="18.1"/>
	<circle class="st0" cx="61.6" cy="123.4" r="6.5"/>
	<circle class="st0" cx="96.1" cy="123.4" r="6.5"/>
	<circle class="st0" cx="130.7" cy="123.4" r="6.5"/>
	<circle class="st0" cx="165.3" cy="123.4" r="6.5"/>
</g>
<path class="st0" d="M113.2,223.7c-60.7,0-110.1-49.4-110.1-110.1C3.1,52.9,52.5,3.5,113.2,3.5s110.1,49.4,110.1,110.1
	C223.3,174.3,173.9,223.7,113.2,223.7z M113.2,10.1C56.1,10.1,9.6,56.5,9.6,113.6S56,217.1,113.1,217.1s103.5-46.4,103.5-103.5
	S170.3,10.1,113.2,10.1z"/>
</svg>
