<!-- Generated by IcoMoon.io -->
<svg version="1.1" xmlns="http://www.w3.org/2000/svg" width="32" height="32" viewBox="0 0 32 32">
<title>YOYOW</title>
<path d="M13.686 19.852c0 1.41-1.143 2.554-2.554 2.554s-2.554-1.143-2.554-2.554c0-1.41 1.143-2.554 2.554-2.554s2.554 1.143 2.554 2.554z"></path>
<path d="M18.554 14.97c0 1.41-1.143 2.554-2.554 2.554s-2.554-1.143-2.554-2.554c0-1.41 1.143-2.554 2.554-2.554s2.554 1.143 2.554 2.554z"></path>
<path d="M23.436 19.852c0 1.41-1.143 2.554-2.554 2.554s-2.554-1.143-2.554-2.554c0-1.41 1.143-2.554 2.554-2.554s2.554 1.143 2.554 2.554z"></path>
<path d="M28.317 14.97c0 1.41-1.143 2.554-2.554 2.554s-2.554-1.143-2.554-2.554c0-1.41 1.143-2.554 2.554-2.554s2.554 1.143 2.554 2.554z"></path>
<path d="M8.804 14.97c0 1.41-1.143 2.554-2.554 2.554s-2.554-1.143-2.554-2.554c0-1.41 1.143-2.554 2.554-2.554s2.554 1.143 2.554 2.554z"></path>
<path d="M9.608 17.411c0 0.506-0.411 0.917-0.917 0.917s-0.917-0.411-0.917-0.917c0-0.506 0.411-0.917 0.917-0.917s0.917 0.411 0.917 0.917z"></path>
<path d="M14.476 17.411c0 0.506-0.411 0.917-0.917 0.917s-0.917-0.411-0.917-0.917c0-0.506 0.411-0.917 0.917-0.917s0.917 0.411 0.917 0.917z"></path>
<path d="M19.358 17.411c0 0.506-0.411 0.917-0.917 0.917s-0.917-0.411-0.917-0.917c0-0.506 0.411-0.917 0.917-0.917s0.917 0.411 0.917 0.917z"></path>
<path d="M24.24 17.411c0 0.506-0.411 0.917-0.917 0.917s-0.917-0.411-0.917-0.917c0-0.506 0.411-0.917 0.917-0.917s0.917 0.411 0.917 0.917z"></path>
<path d="M15.972 31.563c-8.564 0-15.534-6.97-15.534-15.534s6.97-15.534 15.534-15.534 15.534 6.97 15.534 15.534c0 8.564-6.97 15.534-15.534 15.534zM15.972 1.425c-8.056 0-14.617 6.547-14.617 14.603s6.547 14.603 14.603 14.603 14.603-6.547 14.603-14.603-6.533-14.603-14.589-14.603z"></path>
</svg>
