<!-- Generated by IcoMoon.io -->
<svg version="1.1" xmlns="http://www.w3.org/2000/svg" width="32" height="32" viewBox="0 0 32 32">
<title>ZAIF</title>
<path d="M14.857 26.765c0.395 0 0.635 0 0.889 0 1.764 0 3.541-0.071 5.305 0.014 2.243 0.113 4.049-0.762 5.658-2.187 2.243-1.975 3.824-4.402 4.769-7.238 0.085-0.24 0.212-0.48 0.31-0.72 0.071 0.014 0.141 0.028 0.212 0.042-0.042 0.593-0.042 1.185-0.141 1.764-0.776 4.332-2.921 7.817-6.476 10.441-0.508 0.381-1.044 0.55-1.693 0.55-4.797-0.014-9.594-0.014-14.392-0.014-0.226 0-0.451 0-0.804 0 0.832-1.199 1.58-2.3 2.342-3.4 5.178-7.464 10.37-14.928 15.534-22.406 0.254-0.367 0.508-0.536 0.974-0.522 0.889 0.042 1.764 0 2.653 0.028 0.254 0.014 0.621 0.071 0.705 0.24s-0.056 0.522-0.183 0.72c-2.836 4.12-5.7 8.226-8.55 12.346-2.258 3.245-4.501 6.504-6.758 9.75-0.113 0.141-0.183 0.296-0.353 0.593z"></path>
<path d="M16.903 5.757c-2.638 0-5.178-0.183-7.661 0.056-2.511 0.24-4.233 1.989-5.757 3.88-1.298 1.594-2.257 3.386-2.921 5.333-0.085 0.268-0.212 0.522-0.31 0.776-0.085-0.014-0.155-0.028-0.24-0.042 0.042-0.494 0.042-1.002 0.113-1.496 0.649-4.557 2.977-8.099 6.575-10.878 0.183-0.141 0.452-0.268 0.677-0.268 5.263-0.014 10.526-0.014 15.887-0.014-0.141 0.226-0.24 0.409-0.353 0.564-5.855 8.437-11.697 16.847-17.524 25.27-0.24 0.353-0.508 0.508-0.931 0.494-0.861-0.028-1.721 0.014-2.596-0.014-0.917-0.042-1.058-0.325-0.536-1.072 5.023-7.238 10.046-14.49 15.069-21.728 0.169-0.254 0.31-0.522 0.508-0.861z"></path>
</svg>
