<?xml version="1.0" encoding="utf-8"?>
<!-- Generator: Adobe Illustrator 22.1.0, SVG Export Plug-In . SVG Version: 6.00 Build 0)  -->
<svg version="1.1" id="Layer_1" xmlns="http://www.w3.org/2000/svg" xmlns:xlink="http://www.w3.org/1999/xlink" x="0px" y="0px"
	 viewBox="0 0 226.8 226.8" style="enable-background:new 0 0 226.8 226.8;" xml:space="preserve">
<g>
	<path d="M226.8,61.7c0,34.5,0,69.1,0,103.6c0,0.4-0.1,0.7-0.1,1.1c-0.3,4.5-0.4,9-0.8,13.5c-0.4,4.8-1.3,9.6-2.9,14.2
		c-3.7,10.3-10.4,18.4-19.7,24.4c-6.4,4.1-13.5,6.1-20.9,7.1c-6.6,0.9-13.2,1.2-19.9,1.2c-32.7,0-65.5,0-98.2,0
		c-6.3,0-12.5-0.2-18.7-1c-4.4-0.6-8.8-1.3-13-2.9c-7.9-2.9-14.7-7.6-20.1-14c-4.3-5.1-7.5-10.8-9.3-17.2c-1.8-6.4-2.5-13-2.8-19.7
		c-0.1-2.2-0.2-4.4-0.3-6.5c0-34.5,0-69.1,0-103.6c0-0.5,0.1-1,0.1-1.4c0.3-4.9,0.5-9.7,1-14.6c0.4-4.5,1.2-9,2.9-13.2
		C10.5,15.9,22.5,5.6,40,2c6.8-1.4,13.6-1.7,20.5-1.9C61,0.1,61.5,0,62,0c34.3,0,68.6,0,102.9,0c0.9,0,1.7,0.1,2.6,0.1
		c6.2,0.2,12.4,0.6,18.6,1.7c11.2,2,20.6,7.2,28,15.8c4.9,5.7,8.4,12.1,10.2,19.5c1.4,5.9,2,11.9,2.3,17.9
		C226.6,57.2,226.7,59.4,226.8,61.7z M139.7,90.5C139.7,90.5,139.7,90.5,139.7,90.5c-3.5,0-7.1,0-10.6,0c-1.8,0-3.5,0-5.3,0
		c-0.7,0-0.9-0.2-0.9-0.9c0.1-1.8,0.2-3.7,0.3-5.5c0.3-5.6,0.6-11.2,0.9-16.8c0.2-4.5,0.5-9,0.7-13.5c0.2-3.8,0.4-7.6,0.5-11.4
		c0.1-1.3-0.3-2.4-1-3.4c-2.5-3.6-8.1-3.3-10.4,0.5c-3.1,5-6.1,10-9.2,15c-5.3,8.7-10.7,17.5-16,26.2c-7.3,12-14.6,24-22,36
		c-2.7,4.3,0.2,9,4.8,9.1c0.9,0,1.7,0,2.6,0c6.9,0,13.8,0,20.8,0c2.5,0,4.9,0,7.4,0c1.2,0,1.2,0,1.1,1.2c-0.2,2.1-0.5,4.1-0.7,6.2
		c-0.8,7.2-1.7,14.4-2.5,21.7c-0.8,7.2-1.7,14.4-2.5,21.6c-0.3,2.6-0.6,5.1-0.9,7.7c-0.2,2.1,0.7,3.8,2.5,5c3.1,2.1,7,1.2,9-2.1
		c4.5-7.6,9-15.3,13.5-22.9c5.5-9.2,10.9-18.5,16.4-27.7c5.4-9.1,10.7-18.2,16.1-27.3c1.9-3.3,3.9-6.6,5.8-9.8
		c0.8-1.3,1.1-2.6,0.8-4.1c-0.6-2.7-2.9-4.7-5.9-4.7C149.9,90.5,144.8,90.5,139.7,90.5z"/>
</g>
</svg>
