<!-- Generated by IcoMoon.io -->
<svg version="1.1" xmlns="http://www.w3.org/2000/svg" width="32" height="32" viewBox="0 0 32 32">
<title>ZAP</title>
<path d="M32 8.705c0 4.868 0 9.75 0 14.617 0 0.056-0.014 0.099-0.014 0.155-0.042 0.635-0.056 1.27-0.113 1.905-0.056 0.677-0.183 1.355-0.409 2.004-0.522 1.453-1.467 2.596-2.78 3.443-0.903 0.578-1.905 0.861-2.949 1.002-0.931 0.127-1.862 0.169-2.808 0.169-4.614 0-9.242 0-13.855 0-0.889 0-1.764-0.028-2.638-0.141-0.621-0.085-1.242-0.183-1.834-0.409-1.115-0.409-2.074-1.072-2.836-1.975-0.607-0.72-1.058-1.524-1.312-2.427s-0.353-1.834-0.395-2.78c-0.014-0.31-0.028-0.621-0.042-0.917 0-4.868 0-9.75 0-14.617 0-0.071 0.014-0.141 0.014-0.198 0.042-0.691 0.071-1.369 0.141-2.060 0.056-0.635 0.169-1.27 0.409-1.862 0.903-2.37 2.596-3.824 5.065-4.332 0.959-0.198 1.919-0.24 2.892-0.268 0.071 0 0.141-0.014 0.212-0.014 4.839 0 9.679 0 14.519 0 0.127 0 0.24 0.014 0.367 0.014 0.875 0.028 1.75 0.085 2.624 0.24 1.58 0.282 2.907 1.016 3.951 2.229 0.691 0.804 1.185 1.707 1.439 2.751 0.198 0.832 0.282 1.679 0.325 2.526 0 0.31 0.014 0.621 0.028 0.945zM19.711 12.769c0 0 0 0 0 0-0.494 0-1.002 0-1.496 0-0.254 0-0.494 0-0.748 0-0.099 0-0.127-0.028-0.127-0.127 0.014-0.254 0.028-0.522 0.042-0.776 0.042-0.79 0.085-1.58 0.127-2.37 0.028-0.635 0.071-1.27 0.099-1.905 0.028-0.536 0.056-1.072 0.071-1.608 0.014-0.183-0.042-0.339-0.141-0.48-0.353-0.508-1.143-0.466-1.467 0.071-0.437 0.705-0.861 1.411-1.298 2.116-0.748 1.228-1.51 2.469-2.258 3.697-1.030 1.693-2.060 3.386-3.104 5.079-0.381 0.607 0.028 1.27 0.677 1.284 0.127 0 0.24 0 0.367 0 0.974 0 1.947 0 2.935 0 0.353 0 0.691 0 1.044 0 0.169 0 0.169 0 0.155 0.169-0.028 0.296-0.071 0.578-0.099 0.875-0.113 1.016-0.24 2.032-0.353 3.062-0.113 1.016-0.24 2.032-0.353 3.048-0.042 0.367-0.085 0.72-0.127 1.086-0.028 0.296 0.099 0.536 0.353 0.705 0.437 0.296 0.988 0.169 1.27-0.296 0.635-1.072 1.27-2.159 1.905-3.231 0.776-1.298 1.538-2.61 2.314-3.908 0.762-1.284 1.51-2.568 2.272-3.852 0.268-0.466 0.55-0.931 0.818-1.383 0.113-0.183 0.155-0.367 0.113-0.578-0.085-0.381-0.409-0.663-0.832-0.663-0.72-0.014-1.439-0.014-2.159-0.014z"></path>
</svg>
