<!-- Generated by IcoMoon.io -->
<svg version="1.1" xmlns="http://www.w3.org/2000/svg" width="32" height="32" viewBox="0 0 32 32">
<title>ZB_EXCHANGE</title>
<path d="M31.393 15.901c0.014 7.309-4.557 13.517-11.626 15.351-6.053 1.566-11.273-0.24-15.407-4.868-2.892-3.231-4.247-7.139-3.866-11.457 0.607-6.899 4.148-11.781 10.751-14.067 4.91-1.707 9.608-0.804 13.799 2.257 3.034 2.215 5.009 5.206 5.87 8.875 0.296 1.27 0.409 2.582 0.607 3.88-0.042 0.014-0.085 0.014-0.127 0.028zM29.065 15.619c-0.028-0.423-0.028-1.143-0.141-1.834-0.423-2.681-1.51-5.037-3.358-7.012-3.429-3.64-7.647-5.023-12.501-3.951-4.36 0.974-7.492 3.64-9.171 7.802-2.131 5.305-1.34 10.258 2.497 14.476 3.541 3.894 8.071 5.164 13.164 3.711 5.757-1.651 9.538-6.914 9.51-13.192z"></path>
<path d="M15.958 8.071c1.298 0 2.596 0.042 3.894-0.014 3.132-0.113 4.205 3.302 3.175 5.22-0.254 0.48-0.536 0.988-0.903 1.383-1.213 1.298-2.399 2.638-3.725 3.795-1.778 1.538-3.57 1.34-5.206-0.339-0.212-0.212-0.226-0.381-0.014-0.578 0.367-0.367 0.705-0.762 1.101-1.086 0.127-0.099 0.466-0.113 0.578-0.014 0.974 0.847 1.721 0.55 2.427-0.169 1.072-1.115 2.116-2.258 3.175-3.386 0.071-0.071 0.127-0.169 0.183-0.254 0.691-1.072 0.282-2.074-0.959-2.328-0.381-0.085-0.776-0.113-1.171-0.113-1.566-0.014-3.132-0.028-4.698 0.014-0.564 0.014-1.143 0.099-1.665 0.296-0.847 0.31-1.157 1.072-0.72 1.848 0.339 0.607 0.24 1.002-0.254 1.425-0.296 0.254-0.536 0.578-0.847 0.818-0.099 0.085-0.381 0.085-0.48 0.014-1.115-1.002-1.552-3.358-0.889-4.713 0.578-1.185 1.566-1.75 2.878-1.764 1.369-0.071 2.751-0.056 4.12-0.056z"></path>
<path d="M16.071 22.885c-1.312 0-2.638-0.056-3.951 0.014-3.019 0.155-4.205-3.358-3.062-5.305 0.917-1.552 2.116-2.85 3.429-4.064 0.607-0.564 1.256-1.115 1.961-1.552 1.735-1.072 3.302-0.226 4.459 1.002 0.071 0.071 0.042 0.353-0.042 0.451-0.339 0.395-0.705 0.748-1.072 1.115-0.212 0.226-0.409 0.198-0.649 0.028-0.974-0.705-1.481-0.72-2.342 0.127-1.115 1.115-2.187 2.286-3.245 3.471-0.423 0.466-0.677 1.058-0.381 1.721 0.282 0.635 0.861 0.861 1.481 0.861 2.13 0.028 4.261 0.028 6.392 0 0.381 0 0.804-0.183 1.143-0.395 0.649-0.381 0.79-1.101 0.325-1.862-0.268-0.437-0.212-0.734 0.155-1.058 0.353-0.31 0.635-0.677 0.988-0.974 0.113-0.099 0.423-0.127 0.508-0.042 1.101 1.002 1.51 3.358 0.861 4.727-0.55 1.143-1.467 1.707-2.723 1.721-1.383 0.028-2.808 0.014-4.233 0.014 0 0 0 0 0 0z"></path>
</svg>
