<?xml version="1.0" encoding="utf-8"?>
<!-- Generator: Adobe Illustrator 22.0.1, SVG Export Plug-In . SVG Version: 6.00 Build 0)  -->
<svg version="1.1" id="Layer_1" xmlns="http://www.w3.org/2000/svg" xmlns:xlink="http://www.w3.org/1999/xlink" x="0px" y="0px"
	 viewBox="0 0 226.8 226.8" style="enable-background:new 0 0 226.8 226.8;" xml:space="preserve">
<path d="M113.2,226.8C50.6,226.8,0,176.1,0,113.6C0,51.2,50.8,0.6,113.4,0.7c62.4,0,113.2,50.7,113.1,113.1
	C226.5,175.4,176.8,226.7,113.2,226.8z M67,165.4c0.3-0.6,0.6-1.1,0.8-1.5c10.1-17.8,20.3-35.7,30.4-53.5
	c8.9-15.6,17.8-31.2,26.6-46.8c0.3-0.6,0.9-1,1.6-0.9c10.3,0,20.7,0,31,0h1.5c-14.4,25.3-28.6,50.4-43,75.7c0.5,0,0.8,0,1.1,0
	c25.9,0,51.9,0,77.8,0c0.9,0,1.2-0.3,1.4-1.1c3.9-13.8,4.3-28.4,1.1-42.4c-3.9-17-12.4-31.3-24.9-43.3c-5.6-5.4-12-9.8-19-13.3
	C136.2,29.6,118,26.8,99,30.2c-19,3.4-34.9,12.3-48,26.4c-1.7,1.8-3.3,3.8-4.9,5.7c0,0.1,0.1,0.2,0.2,0.3h73.9
	c-0.4,0.8-0.7,1.3-1,1.8c-4.5,8-9.1,15.9-13.5,23.9c-0.4,0.8-1.2,1.3-2.1,1.2c-23.3,0-46.6-0.1-69.9,0h-1.4
	c-11.8,37,4.9,83.5,46.7,102.1c40.5,18,83,1.4,102.9-26.3C143.6,165.4,105.3,165.5,67,165.4z M197.2,184.9
	c14.4-15.9,27.1-42.1,26.3-73.6c-0.6-25.9-9.5-48.7-26.2-68.9c-5.2,5.2-10.3,10.3-15.3,15.4c26.4,31.6,27.5,78.4,0.3,112
	L197.2,184.9z"/>
</svg>
