<!-- Generated by IcoMoon.io -->
<svg version="1.1" xmlns="http://www.w3.org/2000/svg" width="32" height="32" viewBox="0 0 32 32">
<title>ZCL</title>
<path d="M15.972 32c-8.832 0-15.972-7.153-15.972-15.972 0-8.804 7.168-15.944 16-15.929 8.804 0 15.972 7.153 15.958 15.958 0 8.691-7.012 15.929-15.986 15.944zM9.453 23.337c0.042-0.085 0.085-0.155 0.113-0.212 1.425-2.511 2.864-5.037 4.289-7.549 1.256-2.201 2.511-4.402 3.753-6.603 0.042-0.085 0.127-0.141 0.226-0.127 1.453 0 2.921 0 4.374 0h0.212c-2.032 3.57-4.035 7.111-6.067 10.681 0.071 0 0.113 0 0.155 0 3.654 0 7.323 0 10.977 0 0.127 0 0.169-0.042 0.198-0.155 0.55-1.947 0.607-4.007 0.155-5.982-0.55-2.399-1.75-4.416-3.513-6.109-0.79-0.762-1.693-1.383-2.681-1.877-2.427-1.228-4.995-1.623-7.675-1.143s-4.924 1.735-6.772 3.725c-0.24 0.254-0.466 0.536-0.691 0.804 0 0.014 0.014 0.028 0.028 0.042h10.427c-0.056 0.113-0.099 0.183-0.141 0.254-0.635 1.129-1.284 2.243-1.905 3.372-0.056 0.113-0.169 0.183-0.296 0.169-3.287 0-6.575-0.014-9.862 0h-0.198c-1.665 5.22 0.691 11.781 6.589 14.406 5.714 2.54 11.711 0.198 14.519-3.711-5.404 0.014-10.808 0.028-16.212 0.014zM27.824 26.088c2.032-2.243 3.824-5.94 3.711-10.384-0.085-3.654-1.34-6.871-3.697-9.721-0.734 0.734-1.453 1.453-2.159 2.173 3.725 4.459 3.88 11.062 0.042 15.802l2.102 2.131z"></path>
</svg>
