<?xml version="1.0" encoding="utf-8"?>
<!-- Generator: Adobe Illustrator 22.1.0, SVG Export Plug-In . SVG Version: 6.00 Build 0)  -->
<svg version="1.1" id="Layer_1" xmlns="http://www.w3.org/2000/svg" xmlns:xlink="http://www.w3.org/1999/xlink" x="0px" y="0px"
	 viewBox="0 0 226.8 226.8" style="enable-background:new 0 0 226.8 226.8;" xml:space="preserve">
<g id="eBxu0M_1_">
	<g>
		<path d="M101.6,145.7c12.5-21.7,24.8-43.1,37.4-65c12.5,21.8,24.9,43.2,37.4,65C151.4,145.7,126.7,145.7,101.6,145.7z"/>
		<path d="M88.2,146.1C75.6,124.2,63.2,102.7,50.7,81c25.1,0,49.9,0,75,0C113.2,102.7,100.8,124.2,88.2,146.1z"/>
		<path d="M226.8,81.1c-2,3.4-3.7,6.5-5.5,9.6c-2.4,4.2-4.8,8.3-7.1,12.5c-0.6,1.1-1.4,1.6-2.7,1.6c-14.7,0-29.4,0-44-0.1
			c-0.7,0-1.8-0.5-2.2-1.1c-4.3-7.2-8.4-14.6-12.6-21.8c-0.1-0.1-0.1-0.3-0.1-0.7C177.3,81.1,201.8,81.1,226.8,81.1z"/>
		<path d="M0,145.4c0.9-1.6,1.7-3.1,2.5-4.6c3.2-5.5,6.4-10.9,9.5-16.5c0.8-1.5,1.9-2.2,3.7-2.2c14.1,0.1,28.3,0,42.4,0
			c1.4,0,2.4,0.3,3.2,1.6c3.7,6.6,7.5,13.1,11.3,19.7c0.3,0.5,0.5,1,0.9,1.9C48.9,145.4,24.6,145.4,0,145.4z"/>
		<path d="M171.6,114.5c12.2,0,23.9,0,36,0c-6,10.5-11.9,20.7-18,31.3C183.6,135.2,177.7,125,171.6,114.5z"/>
		<path d="M36.8,81.3c6,10.4,11.6,20.2,17.5,30.4c-11.8,0-23.2,0-35.1,0C25.1,101.5,30.8,91.6,36.8,81.3z"/>
	</g>
</g>
</svg>
