<!-- Generated by IcoMoon.io -->
<svg version="1.1" xmlns="http://www.w3.org/2000/svg" width="32" height="32" viewBox="0 0 32 32">
<title>ZCN</title>
<path d="M14.335 20.557c1.764-3.062 3.499-6.081 5.277-9.171 1.764 3.076 3.513 6.095 5.277 9.171-3.527 0-7.012 0-10.554 0z"></path>
<path d="M12.444 20.614c-1.778-3.090-3.527-6.123-5.291-9.185 3.541 0 7.041 0 10.582 0-1.764 3.062-3.513 6.095-5.291 9.185z"></path>
<path d="M32 11.443c-0.282 0.48-0.522 0.917-0.776 1.354-0.339 0.593-0.677 1.171-1.002 1.764-0.085 0.155-0.198 0.226-0.381 0.226-2.074 0-4.148 0-6.208-0.014-0.099 0-0.254-0.071-0.31-0.155-0.607-1.016-1.185-2.060-1.778-3.076-0.014-0.014-0.014-0.042-0.014-0.099 3.485 0 6.942 0 10.469 0z"></path>
<path d="M0 20.515c0.127-0.226 0.24-0.437 0.353-0.649 0.451-0.776 0.903-1.538 1.34-2.328 0.113-0.212 0.268-0.31 0.522-0.31 1.989 0.014 3.993 0 5.982 0 0.198 0 0.339 0.042 0.451 0.226 0.522 0.931 1.058 1.848 1.594 2.78 0.042 0.071 0.071 0.141 0.127 0.268-3.471 0.014-6.899 0.014-10.37 0.014z"></path>
<path d="M24.212 16.155c1.721 0 3.372 0 5.079 0-0.847 1.481-1.679 2.921-2.54 4.416-0.847-1.496-1.679-2.935-2.54-4.416z"></path>
<path d="M5.192 11.471c0.847 1.467 1.637 2.85 2.469 4.289-1.665 0-3.273 0-4.952 0 0.832-1.439 1.637-2.836 2.483-4.289z"></path>
</svg>
