<?xml version="1.0" encoding="utf-8"?>
<!-- Generator: Adobe Illustrator 22.1.0, SVG Export Plug-In . SVG Version: 6.00 Build 0)  -->
<svg version="1.1" id="Layer_1" xmlns="http://www.w3.org/2000/svg" xmlns:xlink="http://www.w3.org/1999/xlink" x="0px" y="0px"
	 viewBox="0 0 226.8 226.8" style="enable-background:new 0 0 226.8 226.8;" xml:space="preserve">
<g>
	<path d="M132.1,123c14-11.3,18.2-25.1,11.3-42.6c8.6-3.4,16.5-6.6,25-9.9c-10.5-14.4-24-22.8-40.4-26.3
		c-23.4-4.9-44.3,0.5-62.4,16.3c-2.4,2.1-5.9,3.9-9,4c-13.4,0.4-26.8,0.1-40.3,0c-1.2,0-2.5-0.5-4.3-0.9c0.5-1.7,0.6-3.3,1.3-4.5
		C37,18.5,72.5-2.5,119.1,0.2c47.2,2.8,80.5,27.9,99,71.7c2.5,6,3.8,12.5,5.7,18.8c1.3,4.3-0.2,6.9-4.5,8.5
		c-26.2,9.6-52.3,19.3-78.4,29.2C135.8,130.4,133.7,127.9,132.1,123z"/>
	<path d="M80.8,104.8c2,3.2,3.8,6.7,6.1,9.8c2.1,3,4.8,5.6,7.9,9.2c-1.8,3.4-3.9,7.2-6,11c-0.5,0.9-1.2,1.8-1.6,2.7
		c-4.5,9.7-11,17.1-22.2,19.1c-1.7,0.3-3.1,1.7-5.7,3.1c2.4,2.7,4.1,5.3,6.3,7.2c27.9,24,66.9,23.7,94.5-0.6
		c1.9-1.7,4.4-3.6,6.6-3.7c15.5-0.3,30.9-0.2,47-0.2c-0.4,2-0.3,3.3-0.9,4.3c-18.6,33.4-46.5,54.1-84.6,59
		c-27,3.5-52.8-1.2-76.3-16.3c-25.6-16.5-41.4-39.8-49.5-68.8c-1.2-4.2-0.3-6.9,4.2-8.6c23.9-9,47.7-18.1,71.6-27.2
		C78.9,104.5,79.8,104.8,80.8,104.8z"/>
	<path d="M121.1,120.5c6.7,11.6,13,22.7,20.3,35.4c-19.1,0.5-36.4,0.4-55.6,0c7.2-12.6,13.4-23.6,20.1-35.3
		c-2.4-1.6-4.5-3.1-6.6-4.5c-11.5-7.9-14.4-22.5-6.7-34.1c7.8-11.7,23.2-15,34.7-7.4c12,7.8,15.2,22.8,7.3,34.6
		c-1.6,2.4-3.6,4.5-5.8,6.3C126.9,117.1,124.5,118.3,121.1,120.5z"/>
</g>
</svg>
