<!-- Generated by IcoMoon.io -->
<svg version="1.1" xmlns="http://www.w3.org/2000/svg" width="32" height="32" viewBox="0 0 32 32">
<title>ZCO</title>
<path d="M18.638 17.355c1.975-1.594 2.568-3.541 1.594-6.011 1.213-0.48 2.328-0.931 3.527-1.397-1.481-2.032-3.386-3.217-5.7-3.711-3.302-0.691-6.25 0.071-8.804 2.3-0.339 0.296-0.832 0.55-1.27 0.564-1.891 0.056-3.781 0.014-5.686 0-0.169 0-0.353-0.071-0.607-0.127 0.071-0.24 0.085-0.466 0.183-0.635 3.344-5.728 8.353-8.691 14.928-8.31 6.66 0.395 11.358 3.937 13.968 10.116 0.353 0.847 0.536 1.764 0.804 2.653 0.183 0.607-0.028 0.974-0.635 1.199-3.697 1.354-7.379 2.723-11.062 4.12-0.72 0.282-1.016-0.071-1.242-0.762z"></path>
<path d="M11.4 14.787c0.282 0.451 0.536 0.945 0.861 1.383 0.296 0.423 0.677 0.79 1.115 1.298-0.254 0.48-0.55 1.016-0.847 1.552-0.071 0.127-0.169 0.254-0.226 0.381-0.635 1.369-1.552 2.413-3.132 2.695-0.24 0.042-0.437 0.24-0.804 0.437 0.339 0.381 0.578 0.748 0.889 1.016 3.937 3.386 9.439 3.344 13.333-0.085 0.268-0.24 0.621-0.508 0.931-0.522 2.187-0.042 4.36-0.028 6.631-0.028-0.056 0.282-0.042 0.466-0.127 0.607-2.624 4.713-6.561 7.633-11.937 8.325-3.81 0.494-7.45-0.169-10.765-2.3-3.612-2.328-5.841-5.616-6.984-9.707-0.169-0.593-0.042-0.974 0.593-1.213 3.372-1.27 6.73-2.554 10.102-3.838 0.099-0.042 0.226 0 0.367 0z"></path>
<path d="M17.086 17.002c0.945 1.637 1.834 3.203 2.864 4.995-2.695 0.071-5.136 0.056-7.845 0 1.016-1.778 1.891-3.33 2.836-4.981-0.339-0.226-0.635-0.437-0.931-0.635-1.623-1.115-2.032-3.175-0.945-4.811 1.101-1.651 3.273-2.116 4.896-1.044 1.693 1.101 2.145 3.217 1.030 4.882-0.226 0.339-0.508 0.635-0.818 0.889-0.268 0.226-0.607 0.395-1.086 0.705z"></path>
</svg>
