<!-- Generated by IcoMoon.io -->
<svg version="1.1" xmlns="http://www.w3.org/2000/svg" width="32" height="32" viewBox="0 0 32 32">
<title>ZEIT</title>
<path d="M24.427 2.398c-2.448-1.52-5.335-2.398-8.428-2.398-0.857 0-1.698 0.068-2.519 0.198l10.947 10.91v-8.71zM31.577 12.341c-0.656-2.805-2.077-5.468-4.264-7.655-0.583-0.583-1.21-1.121-1.876-1.61l-0.045-0.032 0.026 15.455 6.159-6.159zM31.802 13.481l-10.91 10.947h8.71c1.52-2.448 2.398-5.335 2.398-8.428-0-0.89-0.072-1.762-0.211-2.612l0.013 0.093zM19.659 31.577c2.805-0.656 5.468-2.077 7.655-4.263 0.583-0.583 1.121-1.21 1.61-1.876l0.032-0.045-15.456 0.026 6.159 6.159zM7.572 29.602c2.447 1.52 5.335 2.398 8.428 2.398 0.889-0 1.762-0.072 2.612-0.21l-0.093 0.012-10.947-10.91v8.71zM0.423 19.659c0.656 2.805 2.076 5.468 4.263 7.655 0.583 0.583 1.21 1.121 1.876 1.61l0.045 0.032-0.026-15.456-6.159 6.16zM2.398 7.573c-1.519 2.447-2.398 5.335-2.398 8.428 0 0.857 0.068 1.698 0.198 2.519l10.91-10.947h-8.71zM12.341 0.423c-2.805 0.656-5.468 2.076-7.655 4.263-0.583 0.583-1.121 1.21-1.609 1.876l-0.032 0.045 15.455-0.026-6.159-6.159zM14.037 9.113c0.417 0 1.865-0.615 3.080-0.876-0.335-0.051-0.723-0.080-1.117-0.080h-0c-0.003 0-0.007 0-0.011 0-1.389 0-2.693 0.363-3.823 0.998l0.039-0.020c0.767-0.079 1.545-0.022 1.832-0.022zM19.481 21.629c-0.39 0.195-1.106 1.15-1.475 1.367-0.244 0.144-0.402 0.514-0.588 0.718 2.87-0.524 5.195-2.61 6.061-5.345-0.024-0.094-0.069-0.187-0.184-0.232-0.33-0.13-0.538 0.26-0.863-0.217s0.065-1.518 0.347-1.748c0.282-0.229 0.26-0.986 0.193-1.289s0.089-0.585 0.263-0.651c0.173-0.065-0.065-0.369-0.217-0.586s-0.592-0.909-0.26-1.020c0.108-0.036 0.267 0.072 0.445 0.264-0.442-1.005-1.049-1.861-1.795-2.571l-0.003-0.003c-0.025 0.257-0.227 0.463-0.512 0.456-0.412-0.010-0.217 0.661-0.629 0.813s-0.737-1.627-0.846-2.017c-0.108-0.39-0.976-0.868-1.366-0.629s0.716 0.998 0.803 1.323c0.087 0.325-0.26 1.106-0.195 1.519s0.738 1.171 0.716 1.497c-0.022 0.325-0.629 0.022-0.673 0.203s-0.608 0.187-0.998 0.144c-0.39-0.044 0.022 0.39-0.434 0.499s-0.976 1.106-1.269 1.302c-0.293 0.195 0.141 0.911 0.12 1.236s0.803 0.261 1.041 0.521c0.238 0.261-0.542 0.152-0.933-0.022s-0.738-0.477-0.499-0.673c0.238-0.195-0.043-0.521-0.607-0.759s-1.345 0.239-1.345 0.846c0 0.607 0.369 0.629 0.868 0.282s-0.195 0.542 0.477 0.694c0.673 0.152 0 0.456 0.499 0.803s0.976-0.304 1.909-0.152c0.933 0.152 1.54 0.781 1.735 1.106s1.28 0.152 1.432 0.564c0.152 0.412-0.824 1.561-1.215 1.756z"></path>
<path d="M8.156 16c0 4.332 3.512 7.844 7.844 7.844 0.333 0 0.661-0.021 0.983-0.061-0.24-0.208-0.179-0.824-0.083-1.589 0.108-0.868-0.39-0.954-0.944-1.562s-0.163-1.085 0.043-1.367c0.206-0.282-0.098-0.521-0.466-0.629s-0.325-0.412-0.607-0.607c-0.282-0.195-0.412-0.174-1.446-0.564s-0.463-0.477-1.244-1.291c-0.781-0.813-1.041-2.137-0.675-2.722s-0.019-1.020-0.106-1.367c-0.087-0.347 0.521-0.477 0.065-1.16s-0.781 0.444-1.106 0.444c-0.179 0-0.161-0.402-0.108-0.762-1.332 1.406-2.149 3.305-2.149 5.394z"></path>
</svg>
