<!-- Generated by IcoMoon.io -->
<svg version="1.1" xmlns="http://www.w3.org/2000/svg" width="32" height="32" viewBox="0 0 32 32">
<title>ZEN</title>
<path d="M13.799 4.614l7.929-4.614 7.901 4.586-7.915 4.6-7.915-4.571z"></path>
<path d="M29.63 4.586v9.27l-7.915 4.614v-9.284l7.915-4.6"></path>
<path d="M13.799 4.614v3.429l5.108 2.949v5.799l2.822 1.679v-9.284l-7.929-4.571"></path>
<path d="M10.159 6.843l7.958 4.614-7.929 4.628-7.929-4.614 7.901-4.628"></path>
<path d="M2.257 11.471v9.256l7.929 4.586v-9.227l-7.929-4.614"></path>
<path d="M10.187 16.085l7.929-4.628v3.217l-5.192 3.019v5.982l-2.737 1.623v-9.213"></path>
<path d="M13.757 18.159l2.977-1.707 4.981 2.949 5.009-2.949 2.892 1.721-7.929 4.642-7.929-4.656"></path>
<path d="M13.757 18.159v9.227l7.929 4.628v-9.199l-7.929-4.656"></path>
<path d="M21.7 22.815l7.929-4.642v9.242l-7.929 4.6v-9.199"></path>
</svg>
