<?xml version="1.0" encoding="utf-8"?>
<!-- Generator: Adobe Illustrator 22.0.1, SVG Export Plug-In . SVG Version: 6.00 Build 0)  -->
<svg version="1.1" id="Layer_1" xmlns="http://www.w3.org/2000/svg" xmlns:xlink="http://www.w3.org/1999/xlink" x="0px" y="0px"
	 viewBox="0 0 226.8 226.8" style="enable-background:new 0 0 226.8 226.8;" xml:space="preserve">
<style type="text/css">
	.st0{stroke:#FFFFFF;stroke-miterlimit:10;}
</style>
<path class="st0" d="M97.8,32.7L154,0l56,32.5l-56.1,32.6L97.8,32.7z"/>
<path class="st0" d="M210,32.5v65.7l-56.1,32.7V65.1L210,32.5"/>
<path class="st0" d="M97.8,32.7V57L134,77.9v41.1l20,11.9V65.1L97.8,32.7"/>
<path class="st0" d="M72,48.5l56.4,32.7L72.2,114L16,81.3L72,48.5"/>
<path class="st0" d="M16,81.3v65.6l56.2,32.5V114L16,81.3"/>
<g>
	<path class="st0" d="M72.2,114l56.2-32.8V104l-36.8,21.4v42.4l-19.4,11.5L72.2,114"/>
	<path class="st0" d="M97.5,128.7l21.1-12.1l35.3,20.9l35.5-20.9l20.5,12.2l-56.2,32.9L97.5,128.7"/>
</g>
<path class="st0" d="M97.5,128.7v65.4l56.2,32.8v-65.2L97.5,128.7"/>
<path class="st0" d="M153.8,161.7l56.2-32.9v65.5l-56.2,32.6V161.7"/>
</svg>
