<?xml version="1.0" encoding="utf-8"?>
<!-- Generator: Adobe Illustrator 22.0.1, SVG Export Plug-In . SVG Version: 6.00 Build 0)  -->
<svg version="1.1" id="Layer_1" xmlns="http://www.w3.org/2000/svg" xmlns:xlink="http://www.w3.org/1999/xlink" x="0px" y="0px"
	 viewBox="0 0 226.8 226.8" style="enable-background:new 0 0 226.8 226.8;" xml:space="preserve">
<style type="text/css">
	.st0{display:none;}
	.st1{display:inline;stroke:#FFFFFF;stroke-miterlimit:10;}
	.st2{stroke:#FFFFFF;stroke-miterlimit:10;}
	.st3{display:none;stroke:#FFFFFF;stroke-miterlimit:10;}
</style>
<g>
	<g class="st0">
		<path class="st1" d="M193,93.5L160.4,108L74,152l86.4,41.5v-68.7l32.6-14.7v101.5l-32.6,14.5L33.2,165.3v-32.4l88.1-43.2
			L33.2,47.4V14.5L66.3,0L193,61V93.5z"/>
	</g>
	<g>
		<path class="st2" d="M34.4,15.4l125.3,60.1l32.1-14.3L67,1.1L34.4,15.4z"/>
		<path class="st3" d="M159.7,76.1l-0.2-0.1L33.2,15.4L67,0.6l126,60.6L159.7,76.1z M35.6,15.4l124.1,59.5l30.9-13.8L67,1.7
			L35.6,15.4z"/>
	</g>
	<g>
		<path class="st2" d="M160.4,76.4L193,61.9v32.5l-32.6,14.5"/>
		<polygon class="st2" points="160.6,109.4 160.2,108.4 192.5,94.1 192.5,62.7 160.6,76.9 160.2,75.9 193.5,61.1 193.5,94.7 		"/>
	</g>
	<g>
		<path class="st2" d="M33.2,16.3v32.5l87.4,42l-87.4,42.8v32.1l126.2,60.4v-32.3l-85.7-41.3l85.7-43.6V76.8L33.2,16.3z"/>
		<path class="st3" d="M160.9,227L32.7,165.6v-33l0.3-0.1l87.2-42.7l-87.5-42v-34l128.2,61.5v33L75.1,152l85.8,41.3V227z M33.7,165
			l126.2,60.4v-31.5l-87-41.9l87-44.3V75.9L33.7,15.4v31.7l88.7,42.6l-88.7,43.5C33.7,133.2,33.7,165,33.7,165z"/>
	</g>
	<g>
		<path class="st2" d="M160.4,225.9l32.6-14.5V110l-32.6,14.7V225.9z"/>
		<path class="st3" d="M159.9,226.7V124.4l33.6-15.2v102.5L159.9,226.7z M160.9,125v100.1l31.6-14.1V110.8L160.9,125z"/>
	</g>
</g>
</svg>
