<?xml version="1.0" encoding="utf-8"?>
<!-- Generator: Adobe Illustrator 22.1.0, SVG Export Plug-In . SVG Version: 6.00 Build 0)  -->
<svg version="1.1" id="Layer_1" xmlns="http://www.w3.org/2000/svg" xmlns:xlink="http://www.w3.org/1999/xlink" x="0px" y="0px"
	 viewBox="0 0 226.8 226.8" style="enable-background:new 0 0 226.8 226.8;" xml:space="preserve">
<g>
	<path d="M46.5,69.3c-10,0-19.9,0.1-29.9,0C9.4,69.2,3.5,64.4,2,57.7c-1.6-7,1.7-14.2,8.3-16.9c2.9-1.2,6.4-1.5,9.6-1.5
		c51.4-0.1,102.9-0.3,154.3,0.2c16.5,0.2,31.6,5.9,42.5,19.2c11.5,14.1,11,30,5.7,46.3c-6.1,18.5-18,32.8-33.1,44.6
		c-2.3,1.8-4.5,3.9-6.7,5.8c0.1,0.3,0.3,0.7,0.4,1c1.3,0.1,2.7,0.2,4,0.2c8,0,16.1-0.1,24.1,0.1c7.4,0.2,12.8,4.6,14.7,11.5
		c1.8,6.3-0.6,13.1-6.2,16.5c-2.2,1.3-5.1,2.3-7.7,2.3c-49.3,0.3-98.7,0.6-148,0.7c-15.8,0-30.9-3.3-44.1-12.4
		C-0.3,161.4-5.5,137.1,6,113.5C14.1,97,27.2,84.9,41.9,74.5c1.8-1.3,3.4-2.7,5.1-4.1C46.8,70,46.7,69.6,46.5,69.3z M139.5,70.5
		c-2.3,0-4.1-0.1-5.9,0c-1.9,0.1-3.9,0.5-5.8,0.7C107,73.6,88.6,81.6,72.1,94.2c-9.2,7-17,15.4-21.1,26.5
		c-4.5,12-0.7,22.9,10.3,29.5c7,4.2,14.8,6,22.9,6.3c24.3,0.8,46.2-6.6,66.3-20c11.4-7.6,21-16.6,26.2-29.6c5.2-13,1-24.4-11.3-31
		C157.2,71.4,148.3,70.2,139.5,70.5z"/>
</g>
</svg>
