<!-- Generated by IcoMoon.io -->
<svg version="1.1" xmlns="http://www.w3.org/2000/svg" width="32" height="32" viewBox="0 0 32 32">
<title>ZOI</title>
<path d="M6.561 9.778c-1.411 0-2.808 0.014-4.219 0-1.016-0.014-1.848-0.691-2.060-1.637-0.226-0.988 0.24-2.004 1.171-2.384 0.409-0.169 0.903-0.212 1.355-0.212 7.252-0.014 14.519-0.042 21.771 0.028 2.328 0.028 4.459 0.832 5.996 2.709 1.623 1.989 1.552 4.233 0.804 6.533-0.861 2.61-2.54 4.628-4.67 6.293-0.325 0.254-0.635 0.55-0.945 0.818 0.014 0.042 0.042 0.099 0.056 0.141 0.183 0.014 0.381 0.028 0.564 0.028 1.129 0 2.272-0.014 3.4 0.014 1.044 0.028 1.806 0.649 2.074 1.623 0.254 0.889-0.085 1.848-0.875 2.328-0.31 0.183-0.72 0.325-1.086 0.325-6.956 0.042-13.926 0.085-20.882 0.099-2.229 0-4.36-0.466-6.222-1.75-2.836-1.961-3.57-5.39-1.947-8.72 1.143-2.328 2.991-4.035 5.065-5.503 0.254-0.183 0.48-0.381 0.72-0.578-0.028-0.056-0.042-0.113-0.071-0.155zM19.683 9.947c-0.325 0-0.578-0.014-0.832 0-0.268 0.014-0.55 0.071-0.818 0.099-2.935 0.339-5.531 1.467-7.859 3.245-1.298 0.988-2.399 2.173-2.977 3.739-0.635 1.693-0.099 3.231 1.453 4.162 0.988 0.593 2.088 0.847 3.231 0.889 3.429 0.113 6.519-0.931 9.354-2.822 1.608-1.072 2.963-2.342 3.697-4.176s0.141-3.443-1.594-4.374c-1.157-0.635-2.413-0.804-3.654-0.762z"></path>
</svg>
