<?xml version="1.0" encoding="utf-8"?>
<!-- Generator: Adobe Illustrator 22.1.0, SVG Export Plug-In . SVG Version: 6.00 Build 0)  -->
<svg version="1.1" id="Layer_1" xmlns="http://www.w3.org/2000/svg" xmlns:xlink="http://www.w3.org/1999/xlink" x="0px" y="0px"
	 viewBox="0 0 226.8 226.8" style="enable-background:new 0 0 226.8 226.8;" xml:space="preserve">
<g>
	<path d="M15.2,113.7c0-15.3,0.1-30.7,0-46c0-7.7,3.3-13,10-16.8c16-9.1,31.8-18.6,47.7-27.8c12.9-7.5,25.9-15,39-22.3
		c1.1-0.6,3.1-0.6,4.2,0c18.2,10.5,36.4,21.1,54.6,31.7c10,5.8,19.8,11.9,30.1,17c9.5,4.7,12.5,12.2,12.5,22
		c-0.1,25.2,0,50.4,0,75.7c0,3.9-0.1,7.9,0,11.8c0.3,8.1-3.2,13.9-10,17.9c-16.4,9.4-32.8,18.7-49.1,28.1
		c-11.2,6.5-22.5,12.9-33.5,19.7c-4.4,2.7-8,2.9-12.8,0.1c-24.7-14.7-49.7-28.9-74.6-43.4c-3.2-1.8-6.4-3.7-9.6-5.5
		c-6.1-3.5-8.3-9.2-8.3-15.9C15.1,144.6,15.2,129.1,15.2,113.7C15.2,113.7,15.2,113.7,15.2,113.7z M143.2,87.4
		c-4.4-2.4-8.1-4.4-11.8-6.6c-20.2-11.7-40.3-23.4-60.5-35c-1.2-0.7-3.5-0.7-4.7,0c-10.6,5.9-21.1,12-31.7,18
		c-2.4,1.4-3.5,3.1-3.5,6c0.1,11.8,0.1,23.6,0,35.4c0,2.9,1,4.6,3.5,6c8.7,4.9,17.3,9.9,25.9,15c8.2,4.8,8.1,4.8,16.3,0
		c17.5-10.2,35-20.2,52.5-30.4C133.6,93.2,138.1,90.5,143.2,87.4z M84.7,34.8c1.4,1,2.3,1.7,3.3,2.3c5.8,3.4,11.7,6.8,17.6,10.2
		c17.2,9.9,34.4,19.8,51.7,29.5c1.1,0.6,3.2,0.6,4.4,0c5.9-3.1,11.6-6.4,17.4-9.7c2.9-1.7,5.7-3.6,9.1-5.7c-1.5-1-2.4-1.7-3.4-2.3
		c-11.3-6.6-22.5-13.2-33.8-19.8c-11.6-6.7-23.3-13.3-35-19.9c-1-0.6-2.7-0.9-3.6-0.4C103.4,24,94.5,29.2,84.7,34.8z M187.8,114
		c-0.6-0.8-0.7-1.2-1-1.4c-8.4-4.8-16.7-9.6-25.2-14.1c-1.3-0.7-3.6-0.6-4.9,0.1c-6.1,3.2-12,6.7-18,10.2
		c-12,6.9-24.1,13.9-36.1,20.8c-5.8,3.4-11.6,6.8-18,10.4c1.4,1,2.2,1.6,3.1,2.1c7.2,4.2,14.5,8.1,21.6,12.6c3.3,2.1,5.8,1.8,9-0.1
		c20.6-12.1,41.4-23.9,62-35.9C183,117.2,185.4,115.6,187.8,114z M130,166.4c8.9,5.2,17.1,9.6,24.9,14.6c3.5,2.2,6.3,1.9,9.5-0.1
		c9.3-5.5,18.6-11.1,27.9-16.5c3.1-1.8,4.6-3.9,4.5-7.7c-0.3-8.1-0.1-16.2-0.1-24.3c0-1.1-0.1-2.3-0.3-4.2
		C174.2,141,152.5,153.5,130,166.4z M39.1,166.5c9.6,5.5,18.6,10.8,27.8,15.6c1.3,0.7,3.9-0.2,5.6-1c3.1-1.5,6-3.4,8.9-5.2
		c5.2-3.1,10.3-6.1,15.8-9.3c-0.9-0.9-1.3-1.6-1.8-1.9c-7.8-4.5-15.8-8.8-23.5-13.4c-2.8-1.6-4.9-1.6-7.4,0.2
		c-2.5,1.8-5.3,3.1-8,4.6C50.8,159.5,45.2,162.9,39.1,166.5z M142.9,192.6c-1.3-0.7-1.8-1-2.3-1.3c-8.3-4.9-16.6-9.8-25-14.5
		c-0.9-0.5-2.8-0.1-3.8,0.5c-7.7,4.2-15.4,8.6-23,12.9c-1.2,0.7-2.3,1.5-3.5,2.3c0.5,0.6,0.7,0.9,1,1.1c8.7,5.1,17.4,10.2,26.3,15.1
		c0.8,0.5,2.5,0.1,3.5-0.5c5.9-3.2,11.8-6.6,17.7-10C136.5,196.6,139.3,194.9,142.9,192.6z M31.2,127.9c0,8.7,0,16.4,0,24.4
		c7-4,13.8-7.9,21.2-12.2C45.1,135.9,38.6,132.2,31.2,127.9z M176.7,86.8c-0.1,0.4-0.1,0.8-0.2,1.3c6.4,3.7,12.8,7.4,19.8,11.4
		c0-8.4,0-15.9,0-23.8C189.4,79.6,183.1,83.2,176.7,86.8z"/>
</g>
</svg>
