<!-- Generated by IcoMoon.io -->
<svg version="1.1" xmlns="http://www.w3.org/2000/svg" width="32" height="32" viewBox="0 0 32 32">
<title>ZPT</title>
<path d="M2.145 16.042c0-2.159 0.014-4.332 0-6.49 0-1.086 0.466-1.834 1.411-2.37 2.257-1.284 4.487-2.624 6.73-3.922 1.82-1.058 3.654-2.116 5.503-3.146 0.155-0.085 0.437-0.085 0.593 0 2.568 1.481 5.136 2.977 7.704 4.473 1.411 0.818 2.794 1.679 4.247 2.399 1.34 0.663 1.764 1.721 1.764 3.104-0.014 3.556 0 7.111 0 10.681 0 0.55-0.014 1.115 0 1.665 0.042 1.143-0.451 1.961-1.411 2.526-2.314 1.326-4.628 2.638-6.928 3.965-1.58 0.917-3.175 1.82-4.727 2.78-0.621 0.381-1.129 0.409-1.806 0.014-3.485-2.074-7.012-4.078-10.526-6.123-0.452-0.254-0.903-0.522-1.354-0.776-0.861-0.494-1.171-1.298-1.171-2.243-0.042-2.173-0.028-4.36-0.028-6.533 0 0 0 0 0 0zM20.205 12.332c-0.621-0.339-1.143-0.621-1.665-0.931-2.85-1.651-5.686-3.302-8.536-4.938-0.169-0.099-0.494-0.099-0.663 0-1.496 0.832-2.977 1.693-4.473 2.54-0.339 0.198-0.494 0.437-0.494 0.847 0.014 1.665 0.014 3.33 0 4.995 0 0.409 0.141 0.649 0.494 0.847 1.228 0.691 2.441 1.397 3.654 2.116 1.157 0.677 1.143 0.677 2.3 0 2.469-1.439 4.938-2.85 7.407-4.289 0.621-0.367 1.256-0.748 1.975-1.185zM11.951 4.91c0.198 0.141 0.325 0.24 0.466 0.325 0.818 0.48 1.651 0.959 2.483 1.439 2.427 1.397 4.854 2.794 7.295 4.162 0.155 0.085 0.451 0.085 0.621 0 0.832-0.437 1.637-0.903 2.455-1.369 0.409-0.24 0.804-0.508 1.284-0.804-0.212-0.141-0.339-0.24-0.48-0.325-1.594-0.931-3.175-1.862-4.769-2.794-1.637-0.945-3.287-1.877-4.938-2.808-0.141-0.085-0.381-0.127-0.508-0.056-1.27 0.705-2.526 1.439-3.908 2.229zM26.497 16.085c-0.085-0.113-0.099-0.169-0.141-0.198-1.185-0.677-2.356-1.354-3.556-1.989-0.183-0.099-0.508-0.085-0.691 0.014-0.861 0.451-1.693 0.945-2.54 1.439-1.693 0.974-3.4 1.961-5.093 2.935-0.818 0.48-1.637 0.959-2.54 1.467 0.198 0.141 0.31 0.226 0.437 0.296 1.016 0.593 2.046 1.143 3.048 1.778 0.466 0.296 0.818 0.254 1.27-0.014 2.907-1.707 5.841-3.372 8.748-5.065 0.381-0.212 0.72-0.437 1.058-0.663zM18.342 23.478c1.256 0.734 2.413 1.355 3.513 2.060 0.494 0.31 0.889 0.268 1.34-0.014 1.312-0.776 2.624-1.566 3.936-2.328 0.437-0.254 0.649-0.55 0.635-1.086-0.042-1.143-0.014-2.286-0.014-3.429 0-0.155-0.014-0.325-0.042-0.593-3.132 1.806-6.194 3.57-9.369 5.39zM5.517 23.492c1.354 0.776 2.624 1.524 3.922 2.201 0.183 0.099 0.55-0.028 0.79-0.141 0.437-0.212 0.847-0.48 1.256-0.734 0.734-0.437 1.453-0.861 2.229-1.312-0.127-0.127-0.183-0.226-0.254-0.268-1.101-0.635-2.229-1.242-3.316-1.891-0.395-0.226-0.691-0.226-1.044 0.028s-0.748 0.437-1.129 0.649c-0.804 0.48-1.594 0.959-2.455 1.467zM20.162 27.175c-0.183-0.099-0.254-0.141-0.325-0.183-1.171-0.691-2.342-1.383-3.527-2.046-0.127-0.071-0.395-0.014-0.536 0.071-1.086 0.593-2.173 1.213-3.245 1.82-0.169 0.099-0.325 0.212-0.494 0.325 0.071 0.085 0.099 0.127 0.141 0.155 1.227 0.72 2.455 1.439 3.711 2.131 0.113 0.071 0.353 0.014 0.494-0.071 0.832-0.451 1.665-0.931 2.497-1.411 0.381-0.226 0.776-0.466 1.284-0.79zM4.402 18.046c0 1.227 0 2.314 0 3.443 0.988-0.564 1.947-1.115 2.991-1.721-1.030-0.593-1.947-1.115-2.991-1.721zM24.931 12.247c-0.014 0.056-0.014 0.113-0.028 0.183 0.903 0.522 1.806 1.044 2.794 1.608 0-1.185 0-2.243 0-3.358-0.974 0.55-1.862 1.058-2.765 1.566z"></path>
</svg>
