<?xml version="1.0" encoding="utf-8"?>
<!-- Generator: Adobe Illustrator 22.0.1, SVG Export Plug-In . SVG Version: 6.00 Build 0)  -->
<svg version="1.1" id="Layer_1" xmlns="http://www.w3.org/2000/svg" xmlns:xlink="http://www.w3.org/1999/xlink" x="0px" y="0px"
	 viewBox="0 0 226.8 226.8" style="enable-background:new 0 0 226.8 226.8;" xml:space="preserve">
<style type="text/css">
	.st0{stroke:#FFFFFF;stroke-miterlimit:10;}
</style>
<g>
	<path class="st0" d="M109.5,0h6.8c4.3,0.3,8.5,0.5,12.8,1.1c14.5,2,28.6,6.9,41.2,14.3c-2.9,2.3-6,4.3-9,6.5
		c-20.1,14.4-40.2,28.9-60.3,43.2c-1.6-1.4-3-2.9-4.6-4.4c-4.6-4.4-9.1-8.9-13.7-13.3c-1.7,0.6-3.2,1.5-4.8,2.4
		c-10.5,5.9-19.5,14.4-26,24.5c-8.5-10.7-16.6-21.7-24.6-32.7c-0.3-0.4-0.5-0.8-0.7-1.1c3-3.6,6.3-7,9.8-10.3
		C53.8,14.2,76.3,3.6,99.9,0.9C103.1,0.4,106.3,0.3,109.5,0z"/>
	<path class="st0" d="M164.6,42.4c7.1-5.4,14.2-10.7,21.5-15.8c15,12.4,26.6,28.9,33.4,47c8.7,22.8,9.6,48.5,2.6,71.9
		c-2.4,8.2-5.8,16.2-10.1,23.7c-0.7-0.6-1.1-1.3-1.7-2c-13.7-18.1-27.5-36.3-41.2-54.4c-2.7-3.6-5.4-7.1-8-10.7
		c6-6.5,12.3-12.7,18.3-19.1c-4.2-9.1-10.2-17.2-17.7-23.9c-2.9-2.7-6.2-5-9.4-7.2C156.4,48.6,160.5,45.6,164.6,42.4"/>
	<path class="st0" d="M8,71.9c2-5,4.3-10,7.1-14.7c4,5,7.8,10.2,11.7,15.3c12.4,16.3,24.9,32.6,37.3,48.9c0.8,1.1,1.7,2.1,2.4,3.3
		c-6.3,6.5-12.7,12.9-19,19.5c1.5,3.6,3.5,6.9,5.7,10.1c3.2,4.8,7,9.1,11.3,13c3.1,2.9,6.5,5.3,9.9,7.7c-3,2.5-6.2,4.8-9.2,7.2
		c-5.5,4.2-11.1,8.4-16.6,12.5c-2.6,1.9-5.2,3.9-7.9,5.7C23,185.5,10.1,165.3,4,143.2c-2.4-8.8-3.6-17.9-4-26.9v-5.7
		c0.1-2,0.3-3.9,0.4-5.9C1.3,93.4,3.8,82.3,8,71.9z"/>
	<path class="st0" d="M167.4,162.1c2.8-3,5.2-6.4,7.5-9.8c2.5,3.1,4.9,6.3,7.4,9.5c6.1,8,12.1,16,17.9,24.2
		c-1.7,2.3-3.7,4.3-5.7,6.4c-16.3,16.8-37.9,28.3-60.9,32.5c-5.4,1-11,1.5-16.5,1.8H109c-2.4-0.3-4.9-0.4-7.3-0.6
		c-15.8-1.7-31.4-6.7-45.1-14.8c4.7-3.6,9.5-7.1,14.2-10.6c18-13.4,36-26.9,54-40.3c3.1,2.8,5.9,5.8,8.9,8.7
		c3.5,3.4,6.9,6.9,10.5,10.2C153,175.2,160.9,169.3,167.4,162.1"/>
</g>
</svg>
