<!-- Generated by IcoMoon.io -->
<svg version="1.1" xmlns="http://www.w3.org/2000/svg" width="32" height="32" viewBox="0 0 32 32">
<title>ZRX</title>
<path d="M15.45 0h0.959c0.607 0.042 1.199 0.071 1.806 0.155 2.046 0.282 4.035 0.974 5.813 2.018-0.409 0.325-0.847 0.607-1.27 0.917-2.836 2.032-5.672 4.078-8.508 6.095-0.226-0.198-0.423-0.409-0.649-0.621-0.649-0.621-1.284-1.256-1.933-1.877-0.24 0.085-0.451 0.212-0.677 0.339-1.481 0.832-2.751 2.032-3.668 3.457-1.199-1.51-2.342-3.062-3.471-4.614-0.042-0.056-0.071-0.113-0.099-0.155 0.423-0.508 0.889-0.988 1.383-1.453 2.455-2.257 5.63-3.753 8.959-4.134 0.451-0.071 0.903-0.085 1.354-0.127z"></path>
<path d="M23.224 5.982c1.002-0.762 2.004-1.51 3.034-2.229 2.116 1.75 3.753 4.078 4.713 6.631 1.227 3.217 1.355 6.843 0.367 10.145-0.339 1.157-0.818 2.286-1.425 3.344-0.099-0.085-0.155-0.183-0.24-0.282-1.933-2.554-3.88-5.122-5.813-7.675-0.381-0.508-0.762-1.002-1.129-1.51 0.847-0.917 1.735-1.792 2.582-2.695-0.593-1.284-1.439-2.427-2.497-3.372-0.409-0.381-0.875-0.705-1.326-1.016 0.578-0.466 1.157-0.889 1.735-1.34"></path>
<path d="M1.129 10.145c0.282-0.705 0.607-1.411 1.002-2.074 0.564 0.705 1.101 1.439 1.651 2.159 1.75 2.3 3.513 4.6 5.263 6.899 0.113 0.155 0.24 0.296 0.339 0.466-0.889 0.917-1.792 1.82-2.681 2.751 0.212 0.508 0.494 0.974 0.804 1.425 0.452 0.677 0.988 1.284 1.594 1.834 0.437 0.409 0.917 0.748 1.397 1.086-0.423 0.353-0.875 0.677-1.298 1.016-0.776 0.593-1.566 1.185-2.342 1.764-0.367 0.268-0.734 0.55-1.115 0.804-2.497-2.102-4.317-4.952-5.178-8.071-0.339-1.242-0.508-2.526-0.564-3.795v-0.804c0.014-0.282 0.042-0.55 0.056-0.832 0.127-1.594 0.48-3.161 1.072-4.628z"></path>
<path d="M23.619 22.871c0.395-0.423 0.734-0.903 1.058-1.383 0.353 0.437 0.691 0.889 1.044 1.34 0.861 1.129 1.707 2.258 2.526 3.414-0.24 0.325-0.522 0.607-0.804 0.903-2.3 2.37-5.347 3.993-8.593 4.586-0.762 0.141-1.552 0.212-2.328 0.254h-1.143c-0.339-0.042-0.691-0.056-1.030-0.085-2.229-0.24-4.43-0.945-6.363-2.088 0.663-0.508 1.34-1.002 2.004-1.496 2.54-1.891 5.079-3.795 7.619-5.686 0.437 0.395 0.832 0.818 1.256 1.227 0.494 0.48 0.974 0.974 1.481 1.439 1.242-0.578 2.356-1.411 3.273-2.427"></path>
</svg>
