<!-- Generated by IcoMoon.io -->
<svg version="1.1" xmlns="http://www.w3.org/2000/svg" width="32" height="32" viewBox="0 0 32 32">
<title>ZSC</title>
<path d="M1.199 18.511c0.056-0.085 0.127-0.155 0.183-0.24 0.409-0.578 1.171-0.607 1.524 0.014 0.169 0.296 0.367 0.381 0.677 0.367 0.691-0.014 1.383-0.028 2.060 0 0.395 0.014 0.423-0.268 0.578-0.494s0.071-0.381-0.071-0.564c-0.452-0.578-0.917-1.171-1.354-1.764-0.155-0.212-0.296-0.325-0.607-0.254-0.48 0.113-0.945-0.268-1.030-0.762-0.085-0.451 0.296-0.945 0.79-1.030 0.437-0.071 0.917 0.296 1.002 0.762 0.028 0.141 0.014 0.339-0.071 0.451-0.183 0.296-0.071 0.508 0.127 0.748 0.452 0.55 0.875 1.115 1.298 1.679 0.155 0.198 0.296 0.31 0.578 0.24 0.268-0.071 0.423-0.198 0.48-0.48 0.24-1.369 0.494-2.737 0.748-4.092 0.056-0.282-0.113-0.409-0.282-0.564-0.296-0.282-0.395-0.621-0.226-1.002 0.155-0.353 0.48-0.55 0.889-0.522 0.381 0.028 0.691 0.268 0.804 0.649 0.127 0.409-0.113 0.903-0.578 1.044-0.325 0.099-0.395 0.268-0.451 0.55-0.226 1.284-0.466 2.554-0.691 3.838-0.042 0.24-0.155 0.508 0.155 0.649 0.127 0.056 0.353 0.071 0.451-0.014 0.762-0.593 1.496-1.227 2.258-1.82 0.226-0.183 0.141-0.367 0.113-0.564-0.056-0.423 0.127-0.72 0.48-0.917s0.677-0.127 0.988 0.113c0.31 0.254 0.395 0.762 0.198 1.101-0.198 0.367-0.649 0.578-1.030 0.409-0.367-0.169-0.578-0.042-0.832 0.183-0.621 0.536-1.284 1.058-1.919 1.58-0.056 0.056-0.085 0.141-0.127 0.212 0.085 0 0.169 0.028 0.24 0.014 1.891-0.437 3.767-0.875 5.644-1.312 0.48-0.113 0.677-0.818 0.353-1.199-1.143-1.34-2.286-2.681-3.429-4.021-0.55-0.635-1.101-1.27-1.651-1.919-0.183-0.212-0.353-0.381-0.663-0.31-0.141 0.028-0.339 0.014-0.451-0.071-0.409-0.296-0.691-0.099-1.002 0.169-0.48 0.409-1.002 0.79-1.496 1.171-0.212 0.169-0.381 0.31-0.282 0.649 0.113 0.409-0.155 0.79-0.564 0.959-0.353 0.141-0.748 0.042-1.002-0.254-0.268-0.325-0.296-0.734-0.056-1.072 0.226-0.339 0.677-0.494 1.058-0.325 0.282 0.127 0.48 0.071 0.705-0.113 0.578-0.466 1.157-0.917 1.75-1.369 0.198-0.141 0.282-0.296 0.198-0.536-0.071-0.198-0.127-0.381-0.409-0.395-0.437-0.028-0.875-0.113-1.312-0.183-0.24-0.042-0.381 0.071-0.522 0.254-0.31 0.395-0.776 0.494-1.171 0.268-0.339-0.198-0.508-0.494-0.452-0.875s0.296-0.635 0.663-0.748c0.367-0.113 0.818 0.014 0.959 0.367 0.183 0.494 0.522 0.593 0.974 0.593 0.339 0 0.663 0.099 1.002 0.099 0.099 0 0.268-0.099 0.31-0.198s0-0.282-0.085-0.353c-1.072-0.988-2.173-1.975-3.245-2.963-0.198-0.183-0.367-0.113-0.578-0.056-0.508 0.141-0.959-0.099-1.129-0.593-0.155-0.452 0.099-0.903 0.564-1.101 0.325-0.127 0.635-0.071 0.832 0.155 0.183 0.226 0.367 0.564 0.324 0.818-0.071 0.367 0.028 0.55 0.268 0.762 1.002 0.889 1.989 1.792 2.991 2.681 0.113 0.099 0.296 0.127 0.437 0.183 0.014-0.155 0.085-0.325 0.042-0.466-0.268-0.889-0.578-1.778-0.847-2.667-0.085-0.31-0.24-0.466-0.564-0.536-0.353-0.071-0.593-0.31-0.635-0.677-0.042-0.353 0.028-0.663 0.339-0.889 0.381-0.268 0.832-0.226 1.157 0.099 0.31 0.31 0.381 0.861 0.071 1.143-0.31 0.296-0.268 0.564-0.155 0.889 0.282 0.847 0.55 1.707 0.847 2.554 0.042 0.141 0.212 0.24 0.31 0.367 0.099-0.113 0.268-0.226 0.296-0.353 0.325-1.115 0.607-2.243 0.917-3.358 0.085-0.296-0.071-0.437-0.24-0.635-0.282-0.296-0.325-0.663-0.113-1.030 0.183-0.325 0.48-0.494 0.832-0.452 0.395 0.028 0.691 0.254 0.818 0.649 0.141 0.466-0.099 0.945-0.649 1.101-0.31 0.085-0.409 0.24-0.48 0.522-0.282 1.086-0.578 2.173-0.847 3.273-0.028 0.113 0.014 0.254 0.028 0.381 0.113-0.071 0.24-0.127 0.325-0.212 1.298-1.637 2.582-3.273 3.866-4.896 0.155-0.198 0.198-0.367 0.085-0.621-0.198-0.423-0.071-0.832 0.268-1.072 0.339-0.254 0.79-0.24 1.115 0.042 0.296 0.254 0.395 0.691 0.226 1.058s-0.578 0.593-1.002 0.48c-0.268-0.071-0.395 0.042-0.536 0.226-1.298 1.651-2.596 3.287-3.88 4.952-0.085 0.113-0.099 0.325-0.056 0.452 0.071 0.198 0.141 0.437 0.466 0.423 1.016-0.085 2.046-0.127 3.062-0.226 0.127-0.014 0.268-0.226 0.367-0.381 0.296-0.423 0.762-0.578 1.185-0.353s0.593 0.691 0.423 1.129c-0.24 0.607-1.129 0.776-1.51 0.226-0.212-0.296-0.437-0.367-0.776-0.339-0.875 0.071-1.764 0.113-2.638 0.183-0.141 0.014-0.268 0.155-0.409 0.24 0.099 0.127 0.183 0.282 0.31 0.353 1.806 0.988 3.626 1.947 5.432 2.949 0.282 0.155 0.466 0.085 0.72-0.071 0.339-0.212 0.748-0.141 1.030 0.127 0.296 0.268 0.367 0.663 0.212 1.016-0.183 0.395-0.536 0.578-1.002 0.494-0.381-0.056-0.677-0.353-0.677-0.762 0-0.353-0.141-0.522-0.437-0.691-1.665-0.889-3.316-1.778-4.981-2.667-0.099-0.056-0.226-0.056-0.339-0.085 0.042 0.099 0.085 0.212 0.155 0.296 1.594 1.877 3.203 3.753 4.797 5.63 0.198 0.24 0.381 0.395 0.72 0.24 0.099-0.042 0.254-0.056 0.367-0.014 0.494 0.212 0.734-0.099 1.002-0.423 1.623-1.905 3.245-3.81 4.882-5.714 0.056-0.071 0.127-0.127 0.169-0.198 0.042-0.085 0.113-0.24 0.085-0.268-0.085-0.071-0.212-0.127-0.31-0.113-1.030 0.198-2.074 0.409-3.090 0.649-0.127 0.028-0.24 0.212-0.31 0.353-0.141 0.325-0.353 0.578-0.705 0.649-0.395 0.085-0.818-0.127-0.974-0.466-0.169-0.367-0.056-0.861 0.24-1.101 0.31-0.24 0.889-0.282 1.115 0.028 0.31 0.409 0.635 0.325 1.016 0.24 0.847-0.183 1.693-0.339 2.526-0.536 0.155-0.042 0.353-0.169 0.409-0.31 0.113-0.254-0.113-0.367-0.31-0.452-1.764-0.847-3.527-1.679-5.291-2.526-0.282-0.141-0.437-0.056-0.663 0.099-0.31 0.226-0.663 0.198-0.988-0.028-0.31-0.212-0.395-0.522-0.353-0.875 0.042-0.381 0.296-0.593 0.621-0.705 0.494-0.169 1.072 0.198 1.101 0.748 0.014 0.339 0.141 0.494 0.437 0.635 1.721 0.804 3.443 1.637 5.15 2.455 0.085 0.042 0.155 0.099 0.24 0.099 0.099 0 0.226 0 0.282-0.071 0.042-0.056 0.042-0.183 0.014-0.268-0.028-0.099-0.113-0.183-0.169-0.268-1.086-1.538-2.173-3.076-3.259-4.628-0.169-0.24-0.31-0.409-0.677-0.325-0.395 0.099-0.776-0.226-0.917-0.635-0.113-0.353 0.028-0.762 0.339-0.974 0.353-0.24 0.748-0.226 1.072 0.028 0.31 0.24 0.451 0.663 0.254 1.030-0.155 0.296-0.113 0.494 0.071 0.762 1.129 1.538 2.201 3.090 3.287 4.628 0.028 0.042 0.056 0.099 0.099 0.127 0.099 0.085 0.212 0.155 0.325 0.226 0.028-0.141 0.085-0.282 0.056-0.423-0.183-1.002-0.395-2.004-0.564-3.005-0.071-0.367-0.141-0.635-0.564-0.776-0.409-0.127-0.564-0.494-0.508-0.945 0.056-0.395 0.31-0.621 0.677-0.72 0.395-0.113 0.691 0.056 0.917 0.353 0.268 0.339 0.212 0.875-0.169 1.185-0.24 0.198-0.268 0.395-0.212 0.635 0.212 1.086 0.409 2.173 0.635 3.259 0.028 0.141 0.198 0.254 0.296 0.367 0.113-0.099 0.268-0.169 0.31-0.296 0.409-0.974 0.79-1.961 1.199-2.935 0.113-0.268-0.028-0.423-0.169-0.607-0.268-0.395-0.169-0.959 0.183-1.228 0.409-0.31 0.945-0.212 1.256 0.198 0.381 0.508 0.127 1.242-0.522 1.355-0.395 0.071-0.564 0.268-0.691 0.607-0.339 0.889-0.705 1.764-1.058 2.653-0.042 0.127-0.014 0.282-0.014 0.437 0.141-0.028 0.31-0.028 0.409-0.113 1.185-0.974 2.37-1.947 3.556-2.935 0.183-0.141 0.254-0.282 0.183-0.536-0.113-0.437 0.099-0.804 0.48-1.002 0.367-0.183 0.776-0.099 1.058 0.212 0.268 0.31 0.296 0.72 0.085 1.072-0.226 0.353-0.635 0.508-1.058 0.339-0.268-0.099-0.451-0.071-0.663 0.113-1.143 0.959-2.3 1.919-3.457 2.878-0.141 0.113-0.367 0.254-0.183 0.466 0.085 0.099 0.296 0.155 0.437 0.141 0.55-0.028 1.086-0.099 1.623-0.155 0.268-0.028 0.48-0.085 0.593-0.409 0.155-0.423 0.55-0.607 0.988-0.536 0.367 0.056 0.677 0.381 0.72 0.748 0.056 0.395-0.141 0.748-0.48 0.917-0.367 0.183-0.861 0.113-1.086-0.24-0.226-0.339-0.48-0.339-0.818-0.296-0.508 0.071-1.016 0.127-1.524 0.183-0.226 0.028-0.381 0.071-0.451 0.339-0.071 0.282 0.056 0.381 0.24 0.508 0.705 0.494 1.425 0.974 2.131 1.481 0.254 0.183 0.451 0.24 0.762 0.085 0.451-0.24 0.988 0.014 1.171 0.466 0.198 0.466-0.028 0.959-0.522 1.171-0.578 0.24-1.199-0.155-1.171-0.79 0.028-0.423-0.155-0.635-0.466-0.847-0.677-0.451-1.34-0.917-1.989-1.397-0.268-0.198-0.451-0.141-0.705 0.014-0.268 0.155-0.254 0.325-0.212 0.578 0.141 1.016 0.254 2.018 0.367 3.034 0.028 0.325 0.099 0.55 0.466 0.663 0.423 0.141 0.578 0.536 0.494 1.002-0.056 0.353-0.353 0.635-0.72 0.677-0.409 0.056-0.804-0.141-0.959-0.494s-0.099-0.847 0.24-1.044c0.381-0.226 0.339-0.508 0.282-0.861-0.141-0.974-0.254-1.947-0.367-2.935-0.014-0.085 0-0.183-0.028-0.254-0.042-0.085-0.127-0.169-0.212-0.198-0.056-0.014-0.155 0.056-0.212 0.113s-0.085 0.155-0.113 0.24c-0.607 1.538-1.199 3.076-1.82 4.614-0.099 0.24-0.085 0.409 0.099 0.607 0.282 0.325 0.282 0.762 0.071 1.072-0.226 0.325-0.621 0.48-0.974 0.381-0.423-0.127-0.663-0.466-0.649-0.917 0.014-0.423 0.24-0.734 0.691-0.804 0.381-0.056 0.522-0.254 0.635-0.578 0.48-1.27 0.988-2.526 1.481-3.781 0.056-0.141 0.085-0.282 0.071-0.466-0.085 0.071-0.183 0.141-0.254 0.226-1.566 1.834-3.132 3.668-4.698 5.517-0.395 0.466-0.183 1.115 0.437 1.256 1.806 0.437 3.626 0.875 5.446 1.284 0.169 0.042 0.423-0.028 0.564-0.141 0.367-0.282 0.762-0.395 1.185-0.198 0.268 0.127 0.423 0.042 0.607-0.127 0.621-0.621 1.256-1.242 1.891-1.848 0.282-0.268 0.451-0.494 0.353-0.945-0.127-0.55 0.353-1.030 0.875-1.002 0.508 0.028 0.903 0.494 0.861 1.016-0.056 0.522-0.607 0.931-1.101 0.762-0.296-0.099-0.48-0.042-0.691 0.169-0.663 0.677-1.355 1.34-2.032 2.004-0.155 0.141-0.31 0.268-0.183 0.536 0.113 0.254 0.24 0.395 0.55 0.381 0.762-0.014 1.51-0.014 2.272 0 0.31 0 0.522-0.042 0.677-0.367 0.198-0.381 0.607-0.522 0.988-0.409 0.395 0.113 0.677 0.466 0.691 0.847 0.014 0.395-0.296 0.776-0.705 0.889-0.367 0.099-0.79-0.042-0.988-0.437-0.141-0.296-0.339-0.367-0.621-0.353-0.762 0.014-1.524 0-2.272 0-0.55 0.014-1.016 0.776-0.776 1.27 0.268 0.55 0.564 1.101 0.832 1.651 0.141 0.282 0.296 0.437 0.663 0.466 0.691 0.056 1.030 0.776 0.691 1.326-0.268 0.423-0.762 0.564-1.199 0.325s-0.621-0.804-0.339-1.227c0.212-0.31 0.155-0.522 0.014-0.804-0.31-0.578-0.578-1.171-0.903-1.735-0.071-0.127-0.268-0.254-0.381-0.24s-0.24 0.226-0.254 0.367c-0.212 1.566-0.423 3.132-0.621 4.713-0.042 0.296-0.028 0.522 0.282 0.72 0.367 0.24 0.437 0.677 0.282 1.030s-0.578 0.607-0.931 0.564c-0.381-0.056-0.691-0.353-0.748-0.705-0.071-0.466 0.071-0.818 0.508-0.988 0.296-0.113 0.409-0.296 0.437-0.578 0.183-1.594 0.367-3.175 0.578-4.769 0.028-0.254 0.014-0.409-0.24-0.508-0.071-0.028-0.141-0.071-0.169-0.127-0.325-0.564-0.776-0.423-1.27-0.296-0.875 0.212-1.75 0.395-2.624 0.593-0.296 0.071-0.55 0.127-0.621 0.522s-0.522 0.649-0.889 0.621c-0.367-0.028-0.72-0.325-0.804-0.663-0.099-0.437 0.042-0.804 0.395-1.016 0.381-0.226 0.762-0.183 1.101 0.155 0.169 0.169 0.296 0.296 0.578 0.226 1.058-0.268 2.131-0.494 3.189-0.734 0.099-0.028 0.183-0.085 0.268-0.113-0.085-0.056-0.155-0.141-0.24-0.169-1.792-0.437-3.598-0.847-5.39-1.284-0.24-0.056-0.451-0.042-0.593 0.183-0.042 0.056-0.085 0.127-0.155 0.141-0.607 0.226-0.593 0.72-0.593 1.242 0.028 1.961 0.028 3.908 0.042 5.87 0 0.141-0.014 0.282 0.014 0.423 0.071 0.339 0.31 0.409 0.578 0.183 0.056-0.042 0.099-0.099 0.155-0.155 0.917-0.945 1.848-1.905 2.78-2.836 0.198-0.198 0.268-0.353 0.169-0.649-0.141-0.381 0.042-0.79 0.367-1.002 0.367-0.226 0.818-0.169 1.115 0.127 0.282 0.282 0.339 0.72 0.141 1.072-0.183 0.339-0.621 0.564-0.988 0.423-0.31-0.113-0.48-0.014-0.677 0.198-0.903 0.945-1.82 1.862-2.737 2.794-0.056 0.056-0.141 0.113-0.183 0.198-0.042 0.099-0.056 0.212-0.071 0.325 0.099 0.014 0.198 0.028 0.296 0.028 0.056 0 0.099-0.028 0.155-0.042 0.564-0.198 1.129-0.423 1.693-0.607 0.24-0.085 0.367-0.198 0.409-0.48 0.056-0.466 0.339-0.705 0.748-0.748 0.423-0.042 0.804 0.169 0.945 0.536s0.028 0.79-0.296 1.044c-0.339 0.254-0.734 0.296-1.072 0-0.268-0.24-0.494-0.24-0.804-0.127-0.494 0.198-0.988 0.395-1.496 0.536-0.367 0.099-0.409 0.325-0.466 0.649-0.056 0.339 0.169 0.381 0.353 0.494 0.564 0.325 1.143 0.621 1.707 0.959 0.282 0.169 0.508 0.198 0.818 0.014 0.423-0.268 0.931-0.099 1.185 0.325 0.24 0.395 0.127 0.903-0.254 1.171-0.395 0.282-0.931 0.212-1.213-0.183-0.099-0.127-0.169-0.325-0.155-0.48 0.028-0.353-0.141-0.508-0.423-0.649-0.607-0.325-1.199-0.677-1.806-1.002-0.451-0.24-1.185 0.198-1.199 0.72-0.014 0.31 0 0.635 0 0.945 0 0.466-0.042 0.903 0.522 1.199 0.48 0.254 0.409 0.959-0.028 1.312-0.113 0.099-0.254 0.183-0.381 0.268-0.113 0-0.212 0-0.31 0-0.141-0.085-0.282-0.155-0.409-0.24-0.437-0.31-0.508-1.101-0.042-1.369 0.494-0.282 0.508-0.649 0.48-1.101-0.014-0.339 0-0.663 0-1.002-0.014-0.55-0.734-1.002-1.227-0.734-0.593 0.31-1.171 0.649-1.764 0.959-0.296 0.155-0.48 0.325-0.466 0.72 0 0.536-0.578 0.903-1.086 0.748-0.522-0.169-0.79-0.677-0.607-1.171s0.79-0.748 1.256-0.466c0.31 0.183 0.522 0.155 0.818-0.014 0.578-0.339 1.171-0.649 1.75-0.974 0.169-0.099 0.395-0.155 0.339-0.451-0.056-0.282-0.085-0.508-0.451-0.607-0.677-0.183-1.34-0.437-2.004-0.663-0.24-0.085-0.423-0.085-0.621 0.127-0.226 0.254-0.536 0.339-0.875 0.226-0.409-0.127-0.677-0.522-0.649-0.931 0.028-0.423 0.367-0.748 0.776-0.804 0.494-0.056 0.917 0.183 0.988 0.677 0.056 0.353 0.24 0.466 0.522 0.55 0.635 0.198 1.27 0.395 1.905 0.635 0.296 0.113 0.466 0.056 0.691-0.169 0.226-0.24 0.155-0.423 0.056-0.663-0.593-1.369-1.185-2.751-1.778-4.12-0.113-0.254-0.226-0.423-0.55-0.451-0.466-0.028-0.776-0.409-0.804-0.847-0.028-0.367 0.212-0.734 0.564-0.875 0.367-0.141 0.804-0.028 1.044 0.282 0.268 0.353 0.282 0.734-0.028 1.115-0.183 0.226-0.155 0.395-0.056 0.621 0.564 1.312 1.129 2.624 1.693 3.922 0.042 0.113 0.155 0.198 0.24 0.282 0.028-0.113 0.071-0.226 0.071-0.339-0.014-2.102-0.042-4.19-0.071-6.293 0-0.127-0.028-0.31-0.113-0.381-0.536-0.423-1.072-0.917-1.848-0.508-0.085 0.042-0.198 0.056-0.31 0.085-1.552 0.367-3.118 0.72-4.67 1.086-0.226 0.056-0.494 0.127-0.466 0.409 0.014 0.155 0.169 0.325 0.31 0.423 0.677 0.48 1.369 0.945 2.032 1.425 0.212 0.155 0.395 0.198 0.663 0.071 0.55-0.254 1.157 0.042 1.256 0.564 0.056 0.339 0.028 0.677-0.282 0.903-0.282 0.212-0.607 0.282-0.945 0.113-0.353-0.169-0.55-0.451-0.508-0.847 0.042-0.325-0.085-0.508-0.339-0.691-0.705-0.466-1.397-0.945-2.088-1.439-0.198-0.141-0.353-0.127-0.564 0s-0.31 0.254-0.24 0.508c0.028 0.113 0.028 0.24 0.042 0.367 0.24 1.439 0.48 2.878 0.705 4.317 0.056 0.325 0.127 0.578 0.508 0.705 0.451 0.155 0.649 0.621 0.522 1.030-0.127 0.395-0.395 0.621-0.804 0.677-0.353 0.056-0.734-0.198-0.889-0.536-0.183-0.395-0.099-0.762 0.212-1.002 0.339-0.254 0.353-0.522 0.254-0.875-0.028-0.099-0.042-0.212-0.056-0.31-0.226-1.383-0.437-2.78-0.677-4.162-0.028-0.198 0.028-0.48-0.324-0.522-0.339-0.042-0.367 0.212-0.452 0.409-0.254 0.508-0.48 1.016-0.748 1.51-0.169 0.325-0.24 0.564 0.014 0.903 0.31 0.409 0.071 1.002-0.423 1.227-0.437 0.198-1.030-0.028-1.185-0.48-0.183-0.508 0.056-1.143 0.578-1.157 0.635-0.028 0.762-0.451 0.959-0.861 0.141-0.282 0.254-0.578 0.423-0.847 0.296-0.48 0.409-0.903-0.014-1.411-0.183-0.226-0.324-0.325-0.578-0.325-0.649 0-1.298 0.014-1.961 0-0.325-0.014-0.536 0.071-0.72 0.395-0.339 0.593-1.101 0.578-1.496 0.028-0.071-0.099-0.141-0.198-0.212-0.296 0-0.113 0-0.254 0-0.395z"></path>
</svg>
